<?xml version="1.0" encoding="UTF-8" standalone="no"?>
<!-- Created with Inkscape (http://www.inkscape.org/) -->

<svg
   width="32"
   height="32"
   viewBox="0 0 32 32"
   version="1.1"
   id="svg5"
   inkscape:version="1.1.1 (3bf5ae0d25, 2021-09-20)"
   sodipodi:docname="input_inactive.svg"
   xmlns:inkscape="http://www.inkscape.org/namespaces/inkscape"
   xmlns:sodipodi="http://sodipodi.sourceforge.net/DTD/sodipodi-0.dtd"
   xmlns="http://www.w3.org/2000/svg"
   xmlns:svg="http://www.w3.org/2000/svg">
  <sodipodi:namedview
     id="namedview7"
     pagecolor="#505050"
     bordercolor="#eeeeee"
     borderopacity="1"
     inkscape:pageshadow="0"
     inkscape:pageopacity="0"
     inkscape:pagecheckerboard="0"
     inkscape:document-units="px"
     showgrid="true"
     inkscape:zoom="24.625"
     inkscape:cx="15.979695"
     inkscape:cy="16"
     inkscape:window-width="1920"
     inkscape:window-height="1019"
     inkscape:window-x="0"
     inkscape:window-y="30"
     inkscape:window-maximized="1"
     inkscape:current-layer="layer1"
     height="32px">
    <inkscape:grid
       type="xygrid"
       id="grid824" />
  </sodipodi:namedview>
  <defs
     id="defs2" />
  <g
     inkscape:label="Camada 1"
     inkscape:groupmode="layer"
     id="layer1">
    <path
       style="color:#000000;fill:#666666;fill-opacity:0.99957681;stroke-linecap:round;stroke-linejoin:round;-inkscape-stroke:none;paint-order:stroke markers fill"
       d="M 3,0 C 1.3552989,0 0,1.3552989 0,3 v 26 c 0,1.644701 1.3552989,3 3,3 h 26 c 1.644701,0 3,-1.355299 3,-3 V 3 C 32,1.3552989 30.644701,0 29,0 Z m 0,2 h 26 c 0.571297,0 1,0.4287033 1,1 v 26 c 0,0.571297 -0.428703,1 -1,1 H 3 C 2.4287033,30 2,29.571297 2,29 V 3 C 2,2.4287033 2.4287033,2 3,2 Z"
       id="path844" />
    <path
       style="color:#000000;fill:#f2f4f7;stroke-width:2;stroke-linecap:round;stroke-linejoin:round;-inkscape-stroke:none;paint-order:stroke markers fill;fill-opacity:1"
       d="m 3,1 h 26 c 1.108,0 2,0.892 2,2 v 26 c 0,1.108 -0.892,2 -2,2 H 3 C 1.892,31 1,30.108 1,29 V 3 C 1,1.892 1.892,1 3,1 Z"
       id="path846" />
  </g>
</svg>
