<svg width="24" height="24" version="1.1" xmlns="http://www.w3.org/2000/svg"><path d="m3 6c-0.554 0-1 2.453-1 5.5s0.446 5.5 1 5.5h10.67l0.5664-1h-10.61c-0.3508 0-0.6328-2.007-0.6328-4.5s0.282-4.5 0.6328-4.5h16.73c0.3508 0 0.6328 2.007 0.6328 4.5 0 1.932-0.1706 3.559-0.4102 4.199l0.6426 1.135c0.2829-0.3836 0.5149-1.438 0.6465-2.834h1.619c0.2781 0 0.502-1.115 0.502-2.5s-0.2238-2.5-0.502-2.5h-1.619c-0.1662-1.763-0.4916-3-0.8789-3zm18.95 4h0.9043c0.0831 0 0.1504 0.669 0.1504 1.5s-0.06729 1.5-0.1504 1.5h-0.9043c0.02547-0.4865 0.05469-0.9672 0.05469-1.5s-0.02922-1.013-0.05469-1.5z" fill="#fff" stop-color="#000000" stroke-opacity=".5" style="font-variation-settings:normal"/><path class="error" d="m4.336 8c-0.1858 0-0.3359 1.561-0.3359 3.5s0.1501 3.5 0.3359 3.5h10.47l1.443-2.545c6.48e-4 -0.0013 0.0013-0.0026 2e-3 -0.0039 0.2457-0.4269 0.6887-0.6967 1.18-0.7207h2e-3c0.5397-0.02493 1.047 0.2519 1.316 0.7207 6.57e-4 2e-3 0.0013 0.0039 2e-3 0.0059l1.092 1.926c0.09173-0.6234 0.1561-1.651 0.1561-2.883 0-1.939-0.1501-3.5-0.3359-3.5z" fill="#c6262e" opacity=".25" stop-color="#000000" stroke-opacity=".5" style="font-variation-settings:normal"/><path class="warning" d="m17.48 12.73a0.44 0.44 0 0 0-0.36 0.22l-3.061 5.397a0.437 0.437 0 0 0 0.379 0.654h6.125a0.437 0.437 0 0 0 0.379-0.654l-3.06-5.397a0.439 0.439 0 0 0-0.401-0.22zm-0.48 1.271h1v2h-1zm0 3h1v1h-1z" color="#000000" fill="#f9c440" fill-rule="evenodd" font-family="sans-serif" font-weight="400" overflow="visible" style="isolation:auto;mix-blend-mode:normal;text-decoration-color:#000000;text-decoration-line:none;text-decoration-style:solid;text-indent:0;text-transform:none" white-space="normal"/></svg>
