<svg width="24" height="24" version="1.1" xmlns="http://www.w3.org/2000/svg"><path d="m3 6c-0.554 0-1 2.453-1 5.5s0.446 5.5 1 5.5h7.344c-0.05768-0.1577-0.09375-0.3245-0.09375-0.5 0-0.1466 0.02774-0.2815 0.06445-0.4082l0.01953-0.0918h-6.702c-0.3508 0-0.6328-2.007-0.6328-4.5s0.282-4.5 0.6328-4.5h6.426l0.709-1zm9.25 0c-0.1492 0-0.2834 0.06432-0.375 0.168l-4.305 6.076c-0.04441 0.0747-0.07031 0.1626-0.07031 0.2559 0 0.2761 0.2239 0.5 0.5 0.5h4l-0.707 3.301c-0.02677 0.06126-0.04297 0.1281-0.04297 0.1992 0 0.2761 0.2239 0.5 0.5 0.5 0.1492 0 0.2834-0.06431 0.375-0.168l4.305-6.076c0.04441-0.0747 0.07031-0.1626 0.07031-0.2559 0-0.2761-0.2239-0.5-0.5-0.5h-4l0.707-3.301c0.02677-0.06126 0.04297-0.1281 0.04297-0.1992 0-0.2761-0.2239-0.5-0.5-0.5zm1.406 0c0.05768 0.1577 0.09375 0.3245 0.09375 0.5 0 0.1466-0.02774 0.2815-0.06445 0.4082l-0.01953 0.0918h6.701c0.3508 0 0.6328 2.007 0.6328 4.5s-0.282 4.5-0.6328 4.5h-6.426l-0.709 1h7.768c0.3873 0 0.7127-1.237 0.8789-3h1.619c0.2781 0 0.502-1.115 0.502-2.5s-0.2238-2.5-0.502-2.5h-1.619c-0.1662-1.763-0.4916-3-0.8789-3zm8.289 4h0.9043c0.0831 0 0.1504 0.669 0.1504 1.5s-0.06729 1.5-0.1504 1.5h-0.9043c0.02547-0.4865 0.05469-0.9672 0.05469-1.5s-0.02922-1.013-0.05469-1.5z" fill="#fff" stop-color="#000000" stroke-opacity=".5" style="font-variation-settings:normal"/><path d="m4.336 8c-0.1858 0-0.3359 1.561-0.3359 3.5s0.1501 3.5 0.3359 3.5h6.211l0.2148-1h-2.762c-0.8166 0-1.5-0.6834-1.5-1.5 0-0.2785 0.0776-0.5433 0.2109-0.7676 0.01344-0.02269 0.02778-0.04485 0.04297-0.06641l2.598-3.666zm9.117 0-0.2148 1h2.762c0.8166 0 1.5 0.6834 1.5 1.5 0 0.2785-0.07763 0.5433-0.2109 0.7676-0.01344 0.02269-0.02778 0.04485-0.04297 0.06641l-2.598 3.666h5.016c0.1858 0 0.3359-1.561 0.3359-3.5s-0.1501-3.5-0.3359-3.5z" fill="#fff" opacity=".3" stop-color="#000000" style="font-variation-settings:normal"/></svg>
