<svg width="480" height="320" version="1.1" viewBox="0 0 480 320" xml:space="preserve" xmlns="http://www.w3.org/2000/svg"><defs><linearGradient id="a" x1="26.84" x2="77.98" y1="-39.22" y2="54.56" gradientTransform="scale(3.78)" gradientUnits="userSpaceOnUse"><stop stop-color="#64baff" offset="0"/><stop stop-color="#002e99" offset="1"/></linearGradient></defs><rect width="480" height="320" ry="24" fill="url(#a)"/><path d="m40 96.81v126.4h400v-126.4h-400zm3.156 3.156h393.7v120.1h-393.7v-120.1zm6.336 6.336v107.4h107.4v-107.4h-107.4zm53.71 7.992 15.07 15.11-15.07 15.11-15.08-15.11 15.08-15.11zm279.8 12.18c-8.961 0-16.67 3.095-23.08 9.273-6.429 6.189-9.627 14.15-9.627 23.86 0 9.565 3.052 17.56 9.127 24 6.085 6.408 13.99 9.639 23.68 9.639 8.981 0 16.58-3.023 22.8-9.076 6.22-6.064 9.326-14.12 9.326-24.16 0-10.72-3.282-18.99-9.867-24.81-6.575-5.824-14.04-8.721-22.36-8.721zm-130.4 0.8848v3.178h9.201v58.62h-9.223v3.178h32.52c6.043 0 11.13-0.501 15.26-1.48 4.136-0.9898 8.181-3.198 12.12-6.637s6.856-7.262 8.752-11.46c1.907-4.189 2.844-8.691 2.844-13.46 0-9.211-3.114-16.83-9.324-22.87-6.21-6.054-14.65-9.066-25.31-9.066h-36.84zm-51.66 0.2715c-5.908 0-10.73 1.219-14.51 3.668-3.772 2.438-5.658 5.335-5.658 8.68 0 1.98 0.8648 3.604 2.553 4.928 1.698 1.313 3.626 1.98 5.783 1.98 1.865 0 3.554-0.5837 5.055-1.74 1.5-1.167 2.24-2.709 2.24-4.668 0-1.99-1.356-3.824-4.023-5.533-1.021-0.5731-1.531-1.136-1.531-1.678 0-0.5835 0.7919-1.166 2.334-1.76 1.542-0.6043 3.199-0.8965 4.971-0.8965 3.24 0 5.532 1.03 6.865 3.104 1.334 2.063 2.002 5.304 2.002 9.68 0 4.272-0.8752 7.555-2.646 9.857-1.761 2.313-5.23 3.471-10.43 3.471l-5.096-0.1875c-1.48 0-2.219 0.5928-2.219 1.791 0 1.032 0.7067 1.553 2.113 1.553l6.982-0.2812c8.419 0 12.63 5.094 12.63 15.29 0 10.29-3.51 15.45-10.51 15.45-2.146 0-4.22-0.3019-6.262-0.9375-2.063-0.6356-3.074-1.366-3.074-2.199 0-0.4584 0.3755-0.8541 1.084-1.219 3.636-1.844 5.459-4.115 5.459-6.824 0-2.021-0.7808-3.658-2.344-4.908-1.563-1.229-3.449-1.855-5.637-1.855-2.334 0-4.347 0.6982-6.014 2.115-1.678 1.417-2.51 3.292-2.51 5.605-1e-5 3.49 1.855 6.597 5.596 9.316 3.72 2.73 8.992 4.094 15.82 4.094 7.887 0 14.22-1.719 18.97-5.146 4.782-3.407 7.148-7.752 7.148-13.01 0-4.71-2.095-8.733-6.273-12.06-4.168-3.324-10.65-5.074-19.42-5.23v-0.1973c15.87-1.761 23.82-6.918 23.83-15.47 0-4.345-2.241-7.878-6.742-10.64-4.48-2.761-9.982-4.146-16.53-4.146zm181.8 2.021c3.918 0 6.742 0.9585 8.461 2.896 1.719 1.938 2.782 4.48 3.199 7.658 0.4064 3.167 0.6152 9.721 0.6152 19.67 0 10.14-0.2394 16.93-0.75 20.4-0.5106 3.449-1.761 5.94-3.762 7.482-2.001 1.532-4.574 2.291-7.752 2.291-3.824 0-6.616-0.9468-8.408-2.854-1.792-1.896-2.888-4.46-3.305-7.68-0.4272-3.209-0.625-9.794-0.625-19.73 0-10.04 0.2394-16.81 0.7188-20.26 0.4793-3.459 1.71-5.97 3.68-7.533 1.969-1.563 4.614-2.344 7.928-2.344zm-103.2 0.8848h8.93c3.501 0 6.399 0.6045 8.67 1.803 2.282 1.198 3.979 3.7 5.094 7.514 1.115 3.813 1.678 10.07 1.678 18.79 0 11.15-0.8967 19.02-2.73 23.62-1.813 4.595-7.115 6.898-15.9 6.898h-5.742v-58.63zm-176.4 14.65h0.1367c5.877 0 11.64 0.4697 12.84 1.98 1.032 1.302 1.105 4.844 1.105 8.48v0.9902c0 3.626-0.07391 7.188-1.105 8.48-1.198 1.511-6.959 1.98-12.84 1.98h-0.1367c-5.877 0-11.64-0.4697-12.84-1.98-1.032-1.302-1.104-4.844-1.104-8.48v-0.9902c0-3.626 0.072-7.188 1.104-8.48 1.198-1.511 6.949-1.98 12.84-1.98zm0.0625 22.91c7.106 0 12.87 5.772 12.87 12.9s-5.753 12.9-12.87 12.9c-7.116 0-12.87-5.784-12.87-12.9 0-7.127 5.751-12.9 12.87-12.9zm-0.00976 35.27c8.356 0 15.13 1.187 15.13 2.656 0 1.469-6.773 2.658-15.13 2.658-8.356 0-15.13-1.2-15.13-2.658 0-1.469 6.773-2.656 15.13-2.656z" fill="#fff"/></svg>
