<svg width="480" height="320" version="1.1" viewBox="0 0 127 84.667" xmlns="http://www.w3.org/2000/svg" xmlns:xlink="http://www.w3.org/1999/xlink">
 <defs>
  <linearGradient id="a" x1="26.84" x2="77.975" y1="-39.218" y2="54.564" gradientUnits="userSpaceOnUse">
   <stop stop-color="#64baff" offset="0"/>
   <stop stop-color="#002e99" offset="1"/>
  </linearGradient>
 </defs>
 <g>
  <rect width="127" height="84.667" ry="4.2333" fill="url(#a)" stroke-linecap="square" stroke-linejoin="round" stroke-width=".52917" style="paint-order:stroke fill markers"/>
  <g transform="matrix(.32183 0 0 .32183 -10.018 -137.22)" fill="#fff">
   <path d="m99.714 554.3v0.33395c14.334 0.28077 24.917 3.2808 31.75 9.0012 6.8333 5.7204 10.251 12.635 10.251 20.741 0 9.0544-3.8833 16.53-11.667 22.408-7.7667 5.8959-18.117 8.8438-31.018 8.8438-11.149 0-19.766-2.3524-25.867-7.037-6.0995-4.6846-9.1495-10.019-9.1495-16.021 0-3.9827 1.3667-7.2114 4.1005-9.651 2.7328-2.4385 6.0161-3.6487 9.8333-3.6487 3.5823 0 6.6667 1.0698 9.2167 3.1925 2.5656 2.1419 3.8323 4.9664 3.8323 8.4589 0 4.6676-2.9667 8.58-8.9167 11.739-1.1656 0.61472-1.7667 1.3155-1.7667 2.0887 0 1.4378 1.6667 2.7023 5.0177 3.7902 3.3333 1.0879 6.7328 1.6144 10.232 1.6144 11.451 0 17.183-8.8619 17.183-26.583 0-17.547-6.8823-26.321-20.632-26.321l-11.418 0.48964c-2.2995 0-3.4667-0.89435-3.4667-2.6825 0-2.0553 1.2167-3.0911 3.6344-3.0911l8.3161 0.33396c8.4828 0 14.167-1.9823 17.05-5.9661 2.9-3.9657 4.3328-9.6159 4.3328-16.951 0-7.5453-1.0833-13.107-3.2661-16.652-2.1839-3.5628-5.9339-5.3344-11.233-5.3344-2.8833 0-5.5995 0.50958-8.1333 1.5428-2.5333 1.0191-3.8161 2.0186-3.8161 3.0195 0 0.92931 0.83333 1.8951 2.5 2.896 4.3656 2.9297 6.5661 6.105 6.5661 9.5274 0 3.3689-1.2161 6.0361-3.6667 8.0365-2.45 1.9834-5.2005 2.983-8.2672 2.983-3.5328 0-6.6828-1.1411-9.4495-3.4042-2.7672-2.2811-4.1667-5.0886-4.1667-8.4745 0-5.7555 3.0839-10.74 9.25-14.933 6.1667-4.2127 14.066-6.317 23.734-6.317 10.683 0 19.683 2.3864 27.016 7.141 7.35 4.756 11.016 10.844 11.016 18.302 0 14.668-12.983 23.53-38.933 26.584"/>
   <path d="m168.11 608.11v-100.9h-15.032v-5.4551h60.232c17.417 0 31.216 5.194 41.368 15.599 10.149 10.388 15.232 23.513 15.232 39.358 0 8.2121-1.5493 15.951-4.6493 23.162-3.1 7.2295-7.8667 13.81-14.3 19.723-6.4347 5.914-13.033 9.7212-19.8 11.424-6.7667 1.7015-15.067 2.5438-24.933 2.5438h-53.149v-5.4578zm28.984-100.9v100.9h9.3827c14.351 0 23.017-3.9646 26-11.879 2.984-7.9314 4.468-21.477 4.468-40.656 0-15.002-0.91867-25.794-2.7507-32.34-1.816-6.5613-4.6-10.879-8.3173-12.93-3.716-2.0551-8.4493-3.0911-14.167-3.0911h-14.616"/>
   <path d="m286.73 557.25c0-16.725 5.232-30.41 15.733-41.062 10.483-10.632 23.067-15.95 37.732-15.95 13.617 0 25.801 5.0003 36.551 15.002 10.752 10.002 16.117 24.232 16.117 42.675 0 17.285-5.0667 31.146-15.233 41.57-10.167 10.423-22.583 15.635-37.249 15.635-15.851 0-28.767-5.546-38.716-16.601-9.952-11.055-14.935-24.812-14.935-41.269zm73.167 0.47265c0-17.126-0.33333-28.41-1-33.848-0.68267-5.4593-2.4173-9.8461-5.216-13.18-2.8013-3.3326-7.4173-5.0003-13.833-5.0003-5.4173 0-9.7333 1.3504-12.951 4.0359-3.216 2.7023-5.216 7.0189-6.0173 12.968-0.78267 5.9478-1.1827 17.564-1.1827 34.849 0 17.108 0.332 28.444 1.016 33.97 0.66667 5.5279 2.468 9.9329 5.384 13.214 2.9173 3.2808 7.5 4.9132 13.751 4.9132 5.1813 0 9.416-1.3155 12.681-3.9476 3.268-2.6502 5.3187-6.9317 6.1347-12.88 0.83333-5.9491 1.2333-17.653 1.2333-35.094"/>
  </g>
 </g>
 <style type="text/css">.st0{fill:#FC0C18;}
	.st1{fill:#FC0C18;}</style>
</svg>
