<svg width="480" height="320" version="1.1" viewBox="0 0 480 320" xml:space="preserve" xmlns="http://www.w3.org/2000/svg" xmlns:xlink="http://www.w3.org/1999/xlink"><defs><linearGradient id="a" x1="267.6" x2="473.3" y1="272.1" y2="-84.08" gradientUnits="userSpaceOnUse"><stop stop-color="#500" offset="0"/><stop stop-color="#f55" offset="1"/></linearGradient></defs><rect id="b" width="480" height="320" ry="24" fill="url(#a)"/><path d="m104.3 100-11.1 16.16h-34.26l-18.94 27.56h34.26l-4.4 6.414-5.154 7.502h21.26l9.479-13.86h7.941v13.86h12.25 5.219 15.1c9.195 0 16.43-2.722 22.14-8.352 0.305-0.3049 0.5878-0.6198 0.8711-0.9355v9.299h16.07l9.719-13.93h9.521v13.93h28.75 4.619 12.84v-13.93h6.309l8.912 13.93h15.32v-13.93h3.475v13.93h17.46v-13.93h3.148c1.013 3.778 2.941 6.98 5.719 9.463 3.868 3.452 9.033 5.357 14.54 5.357 5.513 0 10.67-1.905 14.53-5.346 0.2615-0.2396 0.5005-0.5026 0.7402-0.7422v5.205h17.46v-10.72l7.625 10.71h9.424 12.49 20.88v-13.93h17.65 4.891l18.94-27.56h-41.46v-16.16h-33.37v4.084c-3.617-2.744-8.422-4.084-14.64-4.084h-14.06-5.797-11.67v16.16h-7.223v-16.16h-10.76-6.701-23.28-5.557-11.91v16.16h-4.5l-10.34-16.16h-11.08-4.619-7.77-21.62l-10.95 16.16h-6.275v-16.16h-17.46v9.844c-5.088-6.446-12.92-9.844-22.75-9.844h-15.35-5.219-11.33zm2.789 5.281h8.465v47.07h-6.875v-13.87h-16.04l-9.479 13.86h-8.398l32.32-47.06zm13.84 0.01172h15.28c7.572 0 14.7 2.285 19.22 8.645 3.051 4.258 4.838 9.736 4.838 15.01 0 5.477-1.971 12.66-5.926 16.61-5.153 5.085-11.33 6.805-18.39 6.805h-15.01v-47.06zm43.33 0h6.875v37.2h0.1309l25.2-37.2h3.115 5.535 17.25v6.293h-0.00977-15.91v13.86h15.91v6.295h-15.91v14.31h15.91v6.295h-22.78v-39.11l-27.29 39.12h-8.02v-47.06zm64.06 0h7.508l22.9 35.8h0.1309v-35.8h6.875v47.06h-7.125l-23.28-36.38h-0.1309v36.38h-6.875v-47.06zm42.46 0h24.94v6.293h-9.033v40.77h-6.873v-40.77h-9.033v-6.293zm28.83 0h6.875v31.66c0 5.597 3.051 9.984 8.912 9.984 5.85 0 8.912-4.387 8.912-9.984v-31.66h6.873v31.86h-0.02149c0 4.584-1.274 8.963-4.771 12.09-2.985 2.668-6.995 4.006-11 4.006s-8.019-1.338-11-4.006c-3.497-3.114-4.771-7.504-4.771-12.09v-31.86zm36.35 0h14.56c4.456 0 9.229 0.6965 12.54 3.941 2.985 2.864 4.324 7.056 4.324 11.13 0 6.359-2.8 11.38-8.912 13.54-1.405 0.5118-3.05 0.8926-4.586 0.8926l13.18 17.55h-8.586l-15.53-21.81h-0.1309v21.81h-6.873v-47.06zm34.51 0h22.78v6.293h-15.91v13.86h15.91v6.295h-15.91v14.31h15.91v6.295h-22.78v-47.05zm-242.7 6.293v34.46h8.203c10.69 0 17.37-6.227 17.37-17.11 0-2.417-0.5129-4.901-1.406-7.188-2.789-6.795-8.574-10.17-15.83-10.17h-8.334zm215 0v18h4.707c6.112 0 12.98-1.72 12.98-9.223 0-5.978-4.959-8.777-10.43-8.777h-7.256zm-234.3 2.602-11.57 18h11.7v-18h-0.1309zm106.9 46.38c-5.131 0-9.719 1.961-13.03 5.162v-4.27h-6.428-11.04-7.256l-5.121 16.16h-7.168l-5.666-16.16h-18.81l5.904 16.16h-38.87-48.97l-18.92 27.57h116.8l5.088 13.93h14.96l4.598-13.93h3.4v13.93h17.46v-3.723c3.41 2.907 7.9 4.605 13.03 4.605 5.099 0 9.577-1.645 12.96-4.465v3.572h17.46v-8.799c5.447 5.945 13.29 9.68 21.98 9.68 8.694 0 16.54-3.723 21.99-9.646v8.754h17.46v-13.93h6.309l8.912 13.93h15.32v-13.93h83.13l18.94-27.56h-102.1v-16.14h-17.46v16.16h-4.5l-10.34-16.16h-15.7v8.623c-5.404-5.88-13.19-9.516-21.99-9.516-8.694 0-16.54 3.734-21.98 9.68v-8.799h-17.46v3.865c-3.301-2.984-7.79-4.758-12.96-4.758zm52.4 5.291c13.75 0 24.49 10.88 24.49 24.54 0 13.44-11.07 24.3-24.49 24.3-13.49 0-24.49-10.94-24.49-24.42 0-13.61 10.95-24.43 24.49-24.43zm-52.43 0.01171c7.822 0 13.49 5.151 13.49 13.1h-6.873c0-4.072-2.55-6.807-6.613-6.807-3.432 0-6.297 2.985-6.297 6.426 0 9.985 20.74 4.006 20.74 21.88 0 8.461-6.046 14.24-14.45 14.24-8.585 0-14.51-6.294-14.51-14.82h6.873c0 4.573 2.671 8.525 7.639 8.525 4.706 0 7.572-3.376 7.572-7.949 0-5.02-3.628-6.173-7.572-7.697-7.321-2.798-13.17-4.967-13.17-14.11 0-7.317 5.981-12.78 13.17-12.78zm-66.92 0.8926h7.484l13.43 38.34 12.14-38.34h7.082l-15.54 47.06h-7.418l-17.18-47.06zm41.72 0h6.873v47.06h-6.873v-47.06zm43.47 0h6.875v47.06h-6.875v-47.06zm61.44 0h7.506l22.9 35.8h0.1309v-35.8h6.873v47.06h-7.125l-23.28-36.38h-0.1309v36.38h-6.875v-47.06zm-27.28 5.4c-7.321 0-13.11 3.942-15.97 10.62-1.013 2.352-1.656 4.901-1.656 7.504 0 2.602 0.6322 5.215 1.656 7.633 2.931 6.61 8.717 10.5 15.97 10.5 7.768 0 13.75-4.454 16.42-11.64 0.7626-1.971 1.209-4.137 1.209-6.293 0-9.985-7.386-18.32-17.63-18.32z" fill="#fff"/></svg>
