<svg width="480" height="320" version="1.1" viewBox="0 0 480 320" xml:space="preserve" xmlns="http://www.w3.org/2000/svg"><defs><linearGradient id="a" x1="67.77" x2="82.9" y1="-45.75" y2="53.51" gradientTransform="scale(3.78)" gradientUnits="userSpaceOnUse"><stop stop-color="#9bdb4d" offset="0"/><stop stop-color="#244e8f" offset="1"/></linearGradient></defs><rect width="480" height="320" ry="24" fill="url(#a)"/><path d="m164.8 74.07-89.69 130.5h19.82l89.69-130.5h-2.146zm23.07 0-89.68 130.5h19.82l89.69-130.5h-2.146zm-5.25 64.06c-1.333 0-2.312 0.2494-2.947 0.7598-0.625 0.5104-1.71 1.906-3.23 4.188l-30.05 42.79-1.707 2.469-1.709 2.375-1.613 2.469-3.709 4.656c-1.135 1.208-2.552 1.906-4.229 2.094-1.677 0.1979-2.824 0.4896-3.428 0.9063-0.6041 0.4062-0.9062 1.093-0.9062 2.041 0 1.135 0.7605 1.709 2.281 1.709h2.562l8.084-0.5723 6.279 0.3438 3.615 0.2285c2.031 0 3.041-0.7286 3.041-2.197 0-1.208-0.864-1.939-2.572-2.199-3.75-0.4479-5.615-1.592-5.615-3.436 0-0.9479 0.3757-2.125 1.146-3.531 0.3125-0.7604 0.8542-1.782 1.625-3.053 0.3854-0.6354 0.989-1.626 1.822-2.959l2.969-4.488h19.16l0.4883 8.395v3.896c0 1.781-0.2806 3.031-0.8535 3.76-0.5729 0.7291-1.686 1.188-3.332 1.375-1.646 0.1875-2.771 0.4681-3.375 0.8535-0.6041 0.375-0.9063 0.9799-0.9063 1.803 0 1.198 0.7292 1.803 2.188 1.803h3.135c2.406-0.0938 4.676-0.2096 6.801-0.3555 2.114-0.1458 4.073-0.2188 5.844-0.2188l5.604 0.2812 3.043 0.2813c1.906 0 2.854-0.698 2.854-2.094 0-0.9583-0.5619-1.604-1.697-1.969-0.8437-0.2604-1.583-0.78-2.188-1.426-0.6874-0.7187-1.167-1.615-1.365-2.594-0.2292-1.146-0.3438-2.677-0.3438-4.594l-2.947-47.69c0-2.542-0.2709-4.197-0.8125-4.957-0.5416-0.7604-1.542-1.146-3-1.146zm243 0c-1.333 0-2.312 0.2494-2.947 0.7598-0.625 0.5104-1.708 1.906-3.229 4.188l-30.05 42.79-1.709 2.469-1.707 2.375-1.615 2.469-3.707 4.656c-1.135 1.208-1.282 1.906-2.959 2.094-1.677 0.1979-2.824 0.4896-3.428 0.9063-0.6041 0.4062-0.9062 1.093-0.9062 2.041 0 1.135 0.7605 1.709 2.281 1.709l6.031-0.3652c2.229-0.1354 4.468-0.1445 6.697-0.0195l2.928 0.1562 3.615 0.2285c2.031 0 3.041-0.7286 3.041-2.197 0-1.208-0.864-1.939-2.572-2.199-3.75-0.4479-5.615-1.592-5.615-3.436 0-0.9479 0.3757-2.125 1.146-3.531 0.3125-0.7604 0.8542-1.782 1.625-3.053 0.3854-0.6354 0.989-1.626 1.822-2.959l2.969-4.488h19.15l0.5117 8.406v3.895c0 1.781-0.2826 3.031-0.8555 3.76-0.5729 0.7291-1.686 1.188-3.332 1.375-1.646 0.1875-2.771 0.4701-3.375 0.8555-0.6041 0.375-0.9062 0.9779-0.9062 1.801 0 1.198 0.7292 1.803 2.188 1.803h3.135c2.406-0.0937 4.678-0.2077 6.803-0.3535 2.114-0.1458 4.071-0.2188 5.842-0.2188l7.51 0.2812 3.043 0.2813c1.906 0 2.854-0.698 2.854-2.094 0-1.208-0.9265-1.949-2.76-2.199-1.844-0.2604-3.093-0.905-3.76-1.957-0.6666-1.052-1-3.198-1-6.438l-2.949-47.69c0-2.542-0.2709-4.197-0.8125-4.957-0.5416-0.7604-1.542-1.146-3-1.146zm-50.87 1.146c-6.031 0-12.17 0.8953-18.41 2.666-6.239 1.771-12.06 4.25-17.45 7.416-6.593 3.864-11.7 8.5-15.31 13.88-3.614 5.385-5.416 11.09-5.416 17.11 0 7.541 2.978 13.7 8.936 18.45 5.958 4.76 13.7 7.135 23.21 7.135 12.56 0 22.86-5.853 23.96-9.582 0.927-3.198 2.949-10.3 2.949-10.3 0.6979-2.479 1.489-4.186 2.385-5.145 0.8854-0.9478 2.157-1.428 3.803-1.428 2.594-0.2396 3.895-1.114 3.895-2.635 0-1.094-0.7917-1.635-2.375-1.635h-4.562c-2.219 0.2604-4.718 0.3848-7.51 0.3848h-2.281l-8.563-0.2812-4.748-0.0937c-2.229 0-3.334 0.698-3.334 2.094 0 1.271 0.6667 1.906 2 1.906 2.469 0.3229 3.99 0.6875 4.562 1.094 0.5729 0.4062 0.8535 1.312 0.8535 2.697 0 0.875-0.125 1.667-0.375 2.365l-3.52 12.4c-0.5104 1.708-1.064 2.803-1.668 3.271-0.6041 0.4687-1.698 0.709-3.281 0.709-5.26 0-9.416-1.72-12.46-5.146-3.042-3.427-4.562-8.061-4.562-13.9 0-5.656 1.292-11.11 3.896-16.38 2.604-5.271 6.155-9.72 10.65-13.33 3.802-3.052 7.822-5.405 12.07-7.051 4.25-1.656 8.397-2.479 12.46-2.479 1.583 0 2.708 0.3334 3.375 1 0.6666 0.6666 1 1.821 1 3.467l-0.1875 4.855c0 2.594 0.823 3.895 2.469 3.895 1.521 0 2.759-1.645 3.707-4.947l2.375-7.229c0.3854-0.8854 0.5723-1.604 0.5723-2.166 0-0.9895-0.7918-1.668-2.375-2.043-3.114-0.677-6.696-1.02-10.75-1.02zm-158.9 0.75c-0.6979 0-1.292 0.2181-1.803 0.666s-0.7598 0.9486-0.7598 1.521c0 1.073 0.9161 1.76 2.76 2.041 1.833 0.2916 3.052 0.5938 3.656 0.9062 0.6041 0.3125 0.9063 0.8236 0.9063 1.521 0 0.8333-0.5632 2.946-1.709 6.373l-12.36 34.8c-2.031 5.646-3.396 8.896-4.094 9.75 0 0-0.2702 0.3014-0.6035 0.666-0.6666 0.7291-1.521 1.291-2.469 1.572-1.677 0.4791-2.512 1.24-2.512 2.271 0 1.271 0.823 1.906 2.469 1.906l7.387-0.2812 5.613 0.2285 3.521 0.3437c2.031 0 3.041-0.7598 3.041-2.291 0-1.219-0.7918-1.916-2.375-2.104-2.792-0.4479-4.552-0.9076-5.281-1.387-0.7291-0.4791-1.094-1.479-1.094-3.01 0-1.333 0.0938-2.437 0.2812-3.291 0.1875-0.8541 0.8855-3.291 2.094-7.301l1.521-5.156 9.604-26.18 1.52 45.37c0 1.906 0.2201 3.146 0.668 3.719 0.4375 0.5729 1.292 0.8555 2.563 0.8555 1.208 0 2.156-0.2826 2.854-0.8555 0.6875-0.5729 1.77-1.969 3.229-4.188l30.05-44.79-9.697 37.86c-0.8854 3.479-1.593 5.656-2.135 6.51-0.5416 0.8541-1.438 1.344-2.709 1.469l-1.041 0.1875-1.146 0.0938-1.615 0.2812c-1.135 0.3854-1.707 1.115-1.707 2.188 0 1.333 0.7918 2 2.375 2l4.75-0.375c2.281-0.2604 5.009-0.3848 8.176-0.3848 2.854 0 6.531 0.2494 11.03 0.7598h3.031c2.219 0 3.332-0.7292 3.332-2.188 0-1.208-0.823-1.938-2.469-2.188-1.646-0.25-2.771-0.6244-3.375-1.135-0.6041-0.5104-0.9043-1.302-0.9043-2.375 0-0.5104 0.125-1.52 0.375-3.041 0.25-1.521 0.5098-2.824 0.7598-3.896l9.322-38.83c0.5729-2.344 1.124-3.843 1.666-4.51 0.5416-0.6562 1.906-1.104 4.094-1.322 2.187-0.2187 3.281-1.126 3.281-2.709 0-1.135-0.698-1.707-2.094-1.707h-18.93c-0.7604 0-1.272 0.0924-1.521 0.2695-0.2604 0.1875-0.6966 0.7618-1.332 1.73l-25.68 39.64-1.521-38.88c0-1.26-0.0938-2.052-0.2812-2.375-0.125-0.25-0.5736-0.375-1.334-0.375h-17.86zm110.7 0.1035-5.041 0.3027c-2.406 0.3021-6.655 0.457-12.74 0.457h-9.604c-0.8854 0-1.583 0.2097-2.094 0.6367-0.5104 0.4271-0.7617 0.9994-0.7617 1.729 0 1.219 1.012 1.822 3.043 1.822 2.344 0 3.52 0.823 3.52 2.469 0 0.5104-0.2286 1.52-0.666 3.041l-11.88 41.55c-1.01 3.614-1.75 5.749-2.188 6.416-0.4479 0.6666-1.678 1.199-3.709 1.615-2.031 0.4062-3.322 0.7494-3.895 1.041-0.5729 0.2916-0.8535 0.8119-0.8535 1.572 0 1.271 0.823 1.906 2.469 1.906h0.3848c3.989-0.3854 6.499-0.6035 7.51-0.666 1.01-0.0625 2.5-0.0937 4.469-0.0937l10.27 0.375h5.51c1.969 0 2.949-0.6765 2.949-2.041 0-1.427-1.147-2.137-3.428-2.137-2.531 0-3.801-1.176-3.801-3.52 0-1.073 0.2806-2.625 0.8535-4.656l11.98-41.75c0.625-2.094 1.229-3.458 1.822-4.094 0.5729-0.625 1.698-1.094 3.375-1.375 1.677-0.2917 2.833-0.625 3.469-1 0.625-0.375 0.9473-0.9779 0.9473-1.801 0-1.198-0.6355-1.803-1.906-1.803zm-286.6 13.29 33.64 48.96 9.916-14.42-23.74-34.54h-2.146zm23.08 0 22.11 32.18 9.916-14.42-12.2-17.76h-2.146zm109.2 2.562 0.8535 21.99h-15.72zm243.1 0 0.8535 21.99h-15.72z" fill="#fff"/></svg>
