<svg width="480" height="320" version="1.1" viewBox="0 0 127 84.667" xmlns="http://www.w3.org/2000/svg" xmlns:xlink="http://www.w3.org/1999/xlink">
 <defs>
  <linearGradient id="a" x1="67.774" x2="94.685" y1="-45.748" y2="96.493" gradientUnits="userSpaceOnUse">
   <stop stop-color="#9bdb4d" offset="0"/>
   <stop stop-color="#0d52bf" offset=".66877"/>
   <stop stop-color="#007367" offset="1"/>
  </linearGradient>
 </defs>
 <rect width="127" height="84.667" ry="4.2333" fill="url(#a)" stroke-linecap="square" stroke-linejoin="round" stroke-width=".52917" style="paint-order:stroke fill markers"/>
 <path d="m89.232 52.996c-2.4546-0.13813-4.2078-1.2027-5.1803-3.1453-0.41097-0.82099-0.49645-1.2484-0.49183-2.4592 0.0048-1.2613 0.09422-1.6804 0.56648-2.655 0.74588-1.5393 2.1247-2.8222 4.1015-3.8161 2.416-1.2147 5.5018-1.5762 8.3485-0.97786 0.82626 0.17367 0.88547 0.17846 1.0681 0.08637 0.10634-0.05362 0.26558-0.16501 0.35388-0.24752 0.15034-0.14051 0.18808-0.14732 0.59429-0.10729 0.4305 0.04242 0.43345 0.04394 0.39318 0.20278-0.02231 0.08802-0.25018 0.99773-0.50637 2.0216l-0.4658 1.8615-0.92142 0.03534-0.04198-0.41439c-0.19396-1.9147-1.2415-2.9201-3.0271-2.9055-1.7845 0.0146-3.7704 1.2487-5.0024 3.1086-1.0541 1.5913-1.5372 3.0987-1.5431 4.8145-5e-3 1.4523 0.26363 2.2441 1.0163 2.9957 0.4897 0.48905 1.0129 0.78094 1.5931 0.88885 0.3192 0.05936 0.43371 0.0513 0.88214-0.0621 0.28343-0.07167 0.53402-0.15082 0.55688-0.17589 0.02285-0.02507 0.34685-0.96799 0.72-2.0954 0.78866-2.3827 0.8055-2.4903 0.44141-2.8193-0.1576-0.14238-0.32125-0.22659-0.48827-0.25124-0.13817-0.02039-0.36355-0.05364-0.50083-0.07389-0.21862-0.03224-0.24525-0.05307-0.21445-0.16784 0.01933-0.07207 0.03553-0.15164 0.03598-0.17681 6.11e-4 -0.02518 1.5419-0.04577 3.4254-0.04577h3.4245l-0.0421 0.16772c-0.05356 0.21339-0.02025 0.19301-0.42233 0.25845-0.40442 0.06582-0.78827 0.26484-0.93666 0.48563-0.05777 0.08596-0.47637 1.2393-0.93023 2.5631l-0.82518 2.4068-0.61034 0.17503c-1.4677 0.4209-3.5671 0.62585-5.371 0.52434zm-51.542-0.37077c0.0014-0.20897 0.06386-0.2635 0.39579-0.3457 0.51272-0.12697 0.97403-0.42021 1.6206-1.0302 0.60232-0.5682 2.4282-2.4497 8.3559-8.6106l2.8966-3.0105 0.46032 0.04261c0.25318 0.02344 0.46598 0.04782 0.47291 0.05418 0.0124 0.01138-0.19362 4.6162-0.37676 8.4208-0.12638 2.6257-0.12368 3.3663 0.01331 3.639 0.14039 0.27943 0.44785 0.47791 0.81596 0.52674 0.31124 0.04129 0.35642 0.1054 0.23464 0.33296-0.0613 0.11454-0.164 0.11806-3.4484 0.11806-3.2253 0-3.3853-0.0052-3.3853-0.1104 0-0.22639 0.14005-0.29922 0.69941-0.36372 0.53786-0.06202 0.55104-0.06751 0.80372-0.33494 0.16989-0.17981 0.29013-0.3834 0.35504-0.60115 0.09306-0.31217 0.18778-1.2442 0.22885-2.2518l0.01866-0.45776-3.9811-0.03216-1.0331 1.0842c-1.1708 1.2287-1.4291 1.5682-1.4701 1.932-0.0241 0.21385-0.0032 0.27736 0.138 0.41852 0.17839 0.17839 0.48713 0.28917 0.80746 0.28972 0.18594 3.05e-4 0.19836 0.01371 0.19836 0.21396v0.21362h-4.8217l9.34e-4 -0.13733zm10.194-4.9743c0.0015-0.09231 0.05264-0.88194 0.11367-1.7547 0.06104-0.87279 0.10553-1.5938 0.09887-1.6023-0.0067-0.0085-0.7882 0.78115-1.7367 1.7547l-1.7246 1.7702h3.2461l0.0027-0.16784zm5.064 5.0353c0.0031-0.28205 0.06544-0.33377 0.4466-0.37043 0.20709-0.01992 0.50893-0.08186 0.67075-0.13764 0.41646-0.14356 0.95054-0.65731 1.2158-1.1695 0.1831-0.35356 3.4032-9.7686 3.4032-9.9504 0-0.08065-0.38583-0.38791-0.66937-0.53307-0.13422-0.06871-0.40765-0.11951-0.74767-0.1389-0.55056-0.03139-0.56771-0.04188-0.49744-0.30414l0.03696-0.13792 5.7515 0.0317 0.49557 4.0449c0.27256 2.2247 0.50854 4.0579 0.5244 4.0737 0.01586 0.01586 1.4938-1.8112 3.2844-4.0601l3.2556-4.089h5.6078l-0.0421 0.16772c-0.02315 0.09225-0.05203 0.17765-0.06416 0.18979-0.01214 0.01214-0.21152 0.04286-0.44307 0.06828-0.94682 0.10393-1.4623 0.44926-1.8299 1.2259-0.18892 0.39911-2.9798 8.7475-3.154 9.4349-0.1272 0.50169-0.11984 0.70618 0.03237 0.89969 0.19585 0.24898 0.45717 0.35248 0.98053 0.38835 0.50283 0.03446 0.5509 0.07199 0.41572 0.32456-0.06145 0.11481-0.16953 0.11806-3.9367 0.11806-4.196 0-3.985 0.01712-3.8103-0.30918 0.04931-0.09214 0.12905-0.11806 0.3632-0.11806 0.97768 0 1.6529-0.38677 2.055-1.1772 0.11942-0.23472 2.6455-7.6657 2.6455-7.7823 0-0.01051-1.1877 1.4724-2.6393 3.2953-1.4516 1.8229-3.1338 3.9324-3.7383 4.6877l-1.0991 1.3733-0.42119 0.01826c-0.23165 0.01004-0.4458-0.0064-0.47588-0.03644-0.04086-0.04087-1.2049-9.1931-1.208-9.4981-3.05e-4 -0.03077-0.01199-0.0445-0.02594-0.03052-0.01395 0.01399-0.59384 1.742-1.2886 3.8401-1.0839 3.2729-1.2645 3.871-1.2716 4.2114-0.0069 0.32957 0.01654 0.4316 0.13862 0.60278 0.18659 0.26162 0.59302 0.44212 1.0843 0.48156 0.3781 0.03035 0.38367 0.03342 0.34624 0.19041-0.02092 0.08776-0.0496 0.18016-0.06372 0.20534-0.01412 0.02518-1.2188 0.04578-2.6771 0.04578-2.0809 0-2.6512-0.01642-2.6506-0.07629zm19.652 0.01923c0-0.03138 0.02679-0.12751 0.05952-0.21362 0.05166-0.13587 0.09563-0.15656 0.33268-0.15656 0.35935 0 0.86744-0.11028 1.1336-0.24607 0.28814-0.14697 0.50532-0.38771 0.72109-0.79932 0.29698-0.56652 3.2427-9.4888 3.2861-9.9531 0.03494-0.37417 0.02753-0.4056-0.13885-0.58936-0.14006-0.15469-0.26251-0.21225-0.60299-0.28341-0.23498-0.04911-0.54397-0.08977-0.68664-0.09036-0.2766-0.0011-0.32266-0.07397-0.19621-0.31024 0.06143-0.11479 0.16889-0.11806 3.8798-0.11806h3.8166l-0.04149 0.13733c-0.06647 0.21999-0.12425 0.24948-0.58548 0.29876-0.53866 0.05756-1.0213 0.28286-1.2628 0.58947-0.37328 0.47401-0.40966 0.57477-2.34 6.4817-0.30168 0.92314-0.69821 2.1339-0.88119 2.6906-0.18297 0.55666-0.34879 1.1482-0.36849 1.3145-0.03154 0.2663-0.01653 0.32535 0.12573 0.49441 0.19982 0.23748 0.47091 0.33027 1.1022 0.37729 0.5147 0.03834 0.53053 0.05154 0.42766 0.3569-0.0202 0.05996-0.85562 0.07629-3.9033 0.07629-2.3644 0-3.8776-0.02227-3.8776-0.05706zm24.154 0.02135c-0.01963-0.01964-0.0087-0.11304 0.0242-0.20755 0.0464-0.13309 0.11066-0.18104 0.28493-0.21262 0.3353-0.06076 0.8518-0.31166 1.1668-0.5668 0.61594-0.49891 0.77179-0.65836 9.6109-9.8336l2.1974-2.2809 0.36297 0.03794c0.19963 0.02087 0.41712 0.03794 0.48331 0.03794 0.11318 0 0.11801 0.02993 0.0814 0.50353-0.0214 0.27694-0.10727 2.0279-0.19075 3.8909-0.0835 1.8631-0.17887 3.923-0.21198 4.5776-0.10287 2.0335-0.0929 2.8239 0.039 3.0929 0.14531 0.29644 0.44531 0.49527 0.82289 0.54536 0.31123 0.04129 0.35642 0.1054 0.23463 0.33296-0.0613 0.11454-0.164 0.11806-3.4484 0.11806-3.0316 0-3.3852-0.01-3.3852-0.09556 0-0.24977 0.10892-0.3161 0.5933-0.36135 0.26114-0.02439 0.54785-0.08205 0.63715-0.12813 0.24951-0.12876 0.53406-0.51104 0.63369-0.85135 0.0957-0.32673 0.20733-1.5368 0.20963-2.2714l1e-3 -0.4425-1.9684 9.34e-4c-1.0826 4.89e-4 -1.9972 0.02111-2.0324 0.04578-0.1851 0.12961-2.1421 2.2695-2.2927 2.5069-0.23307 0.36751-0.23859 0.69027-0.0154 0.89716 0.1768 0.16385 0.49347 0.27145 0.80042 0.27198 0.18595 3.05e-4 0.19836 0.01371 0.19836 0.21396v0.21362h-2.4007c-1.3204 0-2.4167-0.01607-2.4364-0.03571zm10.212-5.1675c2e-3 -0.14267 0.0508-0.93859 0.10781-1.7687l0.10366-1.5093-0.26552 0.25812c-0.14604 0.14196-0.92566 0.93789-1.7325 1.7687l-1.467 1.5106h3.2494l4e-3 -0.2594zm5.5365 4.3685-0.0171-0.77362-0.27465-0.0046c-0.26465-0.0044-0.27536-0.01186-0.29391-0.20463l-0.0192-0.20006 1.7475 0.03392v0.1831c0 0.17834-8e-3 0.18324-0.30517 0.18829l-0.30517 0.0052-0.0171 0.773-0.0171 0.773h-0.48097l-0.0171-0.77362zm1.3775 0.3006c0.0204-0.26016 0.0549-0.6996 0.0768-0.97655l0.0397-0.50353h0.71276l0.41292 1.3082 0.0754-0.24212c0.0414-0.13317 0.14406-0.42752 0.22806-0.6541l0.15271-0.41198h0.32624c0.25848 0 0.33253 0.02218 0.35652 0.10681 0.0167 0.05875 0.0491 0.49819 0.072 0.97655l0.0417 0.86974h-0.485l-0.0385-0.32043c-0.0212-0.17624-0.0399-0.49896-0.0417-0.71715l-3e-3 -0.39672-0.25675 0.70189-0.25676 0.70189h-0.42723l-0.21887-0.67138-0.21885-0.67138-0.0914 1.3733h-0.49374zm-93.133-0.09155c-0.19867-0.22187-1.6542-1.7739-8.6282-9.2006-0.55183-0.58764-1.1137-1.1852-1.2487-1.3278l-0.24533-0.2594h5.6175l1.5832 1.7513c0.87075 0.96321 2.1462 2.3729 2.8344 3.1326 0.68816 0.75971 1.622 1.7961 2.0752 2.3032 0.45318 0.50703 0.854 0.92382 0.8907 0.9262 0.03671 0.0024 0.18058-0.13068 0.31971-0.29568l0.25298-0.30001-2.7611-2.9483c-1.5186-1.6216-3.0961-3.3062-3.5056-3.7435l-0.74456-0.79517 5.3953-0.03318 0.10794 0.13156c0.319 0.38881 4.0926 4.4487 4.135 4.4487 0.05124 0 2.12-2.2589 4.0244-4.3945 0.58376-0.65459 2.8171-3.1471 4.963-5.5389l3.9016-4.3487h5.323l-0.21637 0.22888c-0.119 0.12588-1.929 2.124-4.0223 4.4402-2.0933 2.3162-4.2208 4.6645-4.7278 5.2184-0.7771 0.8489-2.0439 2.2594-6.127 6.8216l-0.51204 0.57212 0.26535 0.27037c0.14594 0.1487 0.28395 0.27037 0.30669 0.27037 0.02274 0 0.68142-0.70723 1.4638-1.5716 0.78232-0.8644 2.306-2.5467 3.3859-3.7383s3.2925-3.651 4.9169-5.4651c1.6244-1.8141 3.7087-4.1414 4.6318-5.1717l1.6784-1.8733 2.6472-9.98e-4c2.4879-9.39e-4 2.6422 0.0053 2.5634 0.1032-0.06993 0.08699-7.0145 7.7666-9.7301 10.76-0.44158 0.48675-1.7742 1.9699-2.9614 3.2958-1.1872 1.326-3.0059 3.3526-4.0415 4.5037l-1.883 2.0928-5.4179-0.03528-0.49274-0.48126-0.43806 0.51177h-5.3473z" fill="#fff" stroke-width=".061034"/>
 <style type="text/css">.st0{fill:#FC0C18;}
	.st1{fill:#FC0C18;}</style>
</svg>
