<svg width="480" height="320" version="1.1" viewBox="0 0 480 320" xml:space="preserve" xmlns="http://www.w3.org/2000/svg"><defs><linearGradient id="a" x1="74.09" x2="82.57" y2="84.67" gradientTransform="scale(3.78)" gradientUnits="userSpaceOnUse"><stop stop-color="#c6262e" offset="0"/><stop stop-color="#363c49" offset="1"/></linearGradient></defs><rect width="480" height="320" ry="24" fill="url(#a)"/><path d="m390.4 134.6c-3.678 0-7.865-1.1e-4 -11.48 0.625-2.209 0.4063-4.345 1.469-4.98 3.803-0.3125 1.188-0.3535 2.491-0.3535 3.721v1.396h7.668c0-0.8335-0.1674-2.178 0.5098-2.771 0.7606-0.6772 2.261-0.6367 3.209-0.6367 1.229 0 2.448-0.04102 3.678-0.04102 1.188 0 6.803-0.1564 7.637 0.5938 0.4272 0.3959 0.5117 0.9068 0.5117 1.459 0 1.063-0.2394 1.771-1.344 2.053-1.115 0.2813-2.46 0.2812-3.564 0.2812h-6.094v5.656c2.573-0.03121 5.104 5.8e-4 7.678 0.08398 0.8752 0.04167 3.01-0.03075 3.562 0.834 0.2813 0.3542 0.2812 0.9062 0.2812 1.344 0 2.417-1.813 2.292-3.834 2.334-1.427 0.0416-2.844 0.08203-4.271 0.08203-1.229 0-2.489-0.04101-3.719-0.04101-0.8335 0-3.001 0.07366-3.678-0.4785-0.7501-0.6355-0.6348-1.74-0.6348-2.615v-0.4805h-7.68c0 2.375-0.1976 6.053 1.74 7.793 2.459 2.177 8.115 2.021 11.2 2.021 2.532 0 5.023-0.02998 7.555-0.1133 2.021-0.04168 4.073-0.1568 6.053-0.5527 2.177-0.4376 4.198-1.542 4.75-3.834 0.2397-0.9898 0.3229-2.021 0.3125-3.021 0-2.407-0.1141-4.782-2.688-5.771-0.6772-0.2813-1.426-0.3958-2.135-0.5938 3.407-0.7085 4.312-2.167 4.312-5.574 0-1.823-0.1554-4.074-1.541-5.418-1.969-1.938-5.138-1.969-7.711-2.053-1.667-0.0833-3.282-0.08398-4.949-0.08398zm32.74 0c-1.698 0-3.407 6.8e-4 -5.105 0.08398-2.417 0.1146-6.448 0.1976-8.271 2.094-1.615 1.709-1.658 4.709-1.658 6.887v1.074h7.793v-0.8652c-1e-5 -1.584-0.1963-2.887 1.627-3.168 2.417-0.3959 5.02-0.2812 7.438-0.2812 1.146 0 5.418-0.1974 6.408 0.5527 0.6772 0.4688 0.6777 1.303 0.6777 2.053 0 1.115-4.5e-4 1.782-1.146 2.178-1.229 0.4376-2.606 0.4362-3.877 0.5508l-9.969 0.793c-3.792 0.3126-7.596 0.8755-8.305 5.262-0.3543 2.094-0.3125 4.229-0.3125 6.365 0 1.031 0.08399 2.094 0.08399 3.125h31.45v-6.053h-24.09c0-1.146 4.3e-4 -2.011 1.271-2.49 0.6355-0.2396 2.335-0.3548 3.012-0.3965 1.5-0.1146 3.009-0.2292 4.51-0.3125 1.896-0.1146 3.762-0.2389 5.658-0.3535 2.459-0.1667 6.616-0.4787 8.074-2.812 1.104-1.74 1.146-3.835 1.146-5.814 0-1.938-3.8e-4 -4.949-1.459-6.449-1.907-1.938-5.148-1.979-7.68-1.979l-6.531-0.04297h-0.75zm-135.6 9.799c-1.144-0.00228-2.285 0.00585-3.418 0.00585-5.553 0-16.84-0.1768-22.1 1.553-1.25 0.4167-2.387 1.01-3.346 1.906-0.4965 0.4651-0.8806 0.9829-1.221 1.521-0.05285 0.08278-0.1048 0.1657-0.1543 0.25-0.1597 0.2747-0.3061 0.5547-0.4336 0.8438-0.06377 0.143-0.1232 0.2875-0.1797 0.4336-0.09914 0.2591-0.1908 0.5214-0.2695 0.7891-0.0538 0.181-0.1031 0.3644-0.1484 0.5488-0.2971 1.221-0.4217 2.502-0.4902 3.791-0.01879 0.3603-0.03835 0.7192-0.05078 1.078-0.01167 0.3181-0.03218 0.6403-0.04297 0.9551-0.02267 0.4231-0.02387 0.855-0.03906 1.281-0.01222 0.3398-0.02295 0.68-0.03125 1.021-0.03831 1.592-0.05469 3.194-0.05469 4.803 0 2.096-0.04005 4.258 0.02929 6.41 0.02399 0.771 0.066 1.54 0.1289 2.305 0.09198 1.11 0.222 2.211 0.4356 3.287 0.00915 0.04657 0.02557 0.0848 0.03515 0.1309 0.09219 0.4483 0.205 0.8706 0.3379 1.271 0.01251 0.03748 0.0223 0.07816 0.03516 0.1152 1.119 3.247 3.587 4.948 7.188 5.732 5.136 1.073 10.58 1.012 15.83 1.012v0.03125h5.127c4.72 0 15.29 0.2389 18.99-3.105 2.74-2.448 2.803-6.501 2.803-9.908 0-0.0096 1e-5 -0.0197 0-0.0293v-0.0332c0-0.02815-0.0038-0.05771-0.00391-0.08594-0.00465-0.8658-0.04839-1.765-0.1035-2.631-0.00384-0.06956-0.00406-0.1419-0.00782-0.2109h-12.13v0.03125c0 1.136-0.06177 2.689-0.4785 3.762-1.011 2.563-5.315 2.209-7.523 2.209h-6.146c-2.625 0-5.439 0.0619-8.002-0.3027-0.9585-0.1146-1.792-0.4172-2.562-0.959-0.7464-0.5473-1.182-1.631-1.439-2.885-0.4359-2.154-0.3418-4.808-0.3418-6.158 0-1.546-0.07901-4.518 0.4824-6.812 0.03711-0.1528 0.07814-0.3011 0.1211-0.4473 0.2838-0.9574 0.6947-1.762 1.303-2.23 1.5-1.136 4.063-1.137 5.855-1.199 1.729-0.0625 3.407-0.0625 5.137-0.0625 3.23 0 6.626 0.00122 9.855 0.418 0.7189 0.06251 1.667 0.2395 2.209 0.7188 0.2084 0.1797 0.3642 0.4378 0.4824 0.7402 0.3434 0.9061 0.356 2.192 0.4024 2.988h0.00976c5.1e-4 0.00905 0.00143 0.02232 0.00196 0.03125h12.12c0-0.4167 0.0625-0.8958 0.0625-1.312 0-2.25 2.2e-4 -4.948-0.7832-7.25-0.464-1.377-1.207-2.615-2.395-3.533-0.133-0.105-0.2743-0.1833-0.4102-0.2793-0.0899-0.0636-0.1802-0.1257-0.2715-0.1856-0.2977-0.1952-0.6026-0.373-0.9141-0.5312-0.05294-0.02684-0.1068-0.05227-0.1602-0.07812-0.9614-0.4669-1.981-0.7962-3.078-1.02-3.36-0.6251-6.818-0.7178-10.25-0.7246zm-214.7 0.01562c-1.042 0.0312-1.802 0.3345-2.281 0.918-0.4793 0.5834-0.9693 1.271-1.459 2.084l-18.44 25.93-3.115 4.375c-0.6147 0.9377-1.281 1.803-2 2.605-0.7293 0.8022-1.656 1.301-2.781 1.479-0.646 0.0521-1.239 0.177-1.812 0.375-0.5626 0.198-0.8652 0.6678-0.8965 1.418 0.02084 0.448 0.1666 0.7382 0.4688 0.8633 0.3021 0.125 0.6353 0.1882 1.031 0.1777 1.063-0.0104 2.147-0.07352 3.23-0.1777 1.084-0.1042 2.177-0.1549 3.281-0.1758 0.9793 0.0104 1.958 0.06117 2.938 0.1445 0.9793 0.0833 1.96 0.1361 2.939 0.1465 0.4584 0.0104 0.8749-0.09309 1.25-0.291 0.3751-0.198 0.5729-0.5416 0.5938-1.031-0.06251-0.7085-0.5005-1.126-1.303-1.24-0.8022-0.1146-1.605-0.2708-2.418-0.4688-0.8022-0.198-1.238-0.7817-1.301-1.74 0.1459-1.031 0.8227-2.5 2.031-4.396 1.209-1.907 2.083-3.241 2.635-4.012h11.52c0.06251 1.209 0.125 2.427 0.1875 3.656 0.06251 1.229 0.09505 2.45 0.1055 3.658-0.06251 1.688-0.5109 2.677-1.334 2.969-0.8231 0.2917-1.646 0.459-2.469 0.4902-0.8231 0.0313-1.271 0.5102-1.334 1.438 0.01042 0.3959 0.1354 0.666 0.375 0.8223 0.2396 0.1563 0.5423 0.2188 0.8965 0.2188 1.584-0.0104 3.177-0.07157 4.781-0.1758 1.604-0.1042 3.198-0.1569 4.781-0.1777 1.063 0.0104 2.137 0.05274 3.199 0.1152s2.137 0.1029 3.199 0.1133c0.4793 0.0104 0.8841-0.06246 1.238-0.2188 0.3646-0.1771 0.554-0.5194 0.5645-1.051-0.01042-0.4792-0.136-0.7923-0.3965-0.959-0.2605-0.1667-0.6054-0.2708-1.043-0.3125-1.479-0.2396-2.365-0.8136-2.646-1.699-0.2813-0.8856-0.4167-2.032-0.4062-3.428l-1.5-28.75c0.01042-1.031-0.09306-1.907-0.291-2.605-0.198-0.698-0.865-1.063-2.021-1.084zm154.4 0c-1.042 0.0312-1.802 0.3345-2.281 0.918-0.4792 0.5834-0.9693 1.271-1.459 2.084l-18.44 25.93-3.115 4.375c-0.6147 0.9377-1.281 1.803-2 2.605-0.7293 0.8022-1.656 1.301-2.781 1.479-0.646 0.0521-1.241 0.177-1.814 0.375-0.5626 0.198-0.8633 0.6678-0.8945 1.418 0.0208 0.448 0.1666 0.7382 0.4688 0.8633 0.2917 0.125 0.6353 0.1882 1.031 0.1777 1.063-0.0104 2.147-0.07352 3.23-0.1777 1.094-0.1042 2.177-0.1549 3.281-0.1758 0.9794 0.0104 1.958 0.06117 2.938 0.1445 0.9793 0.0833 1.958 0.1361 2.938 0.1465 0.4584 0.0104 0.8749-0.09309 1.25-0.291 0.3751-0.198 0.5749-0.5416 0.5957-1.031-0.0625-0.7085-0.5005-1.126-1.303-1.24-0.8022-0.1146-1.605-0.2708-2.418-0.4688-0.8022-0.198-1.24-0.7817-1.303-1.74 0.1459-1.031 0.8246-2.5 2.033-4.396 1.209-1.907 2.083-3.241 2.635-4.012h11.52c0.0625 1.209 0.125 2.427 0.1875 3.656 0.0625 1.229 0.09313 2.45 0.1035 3.658-0.0625 1.688-0.5109 2.677-1.334 2.969-0.823 0.2917-1.646 0.459-2.469 0.4902-0.823 0.0313-1.271 0.5102-1.334 1.438 0.0104 0.3959 0.1373 0.666 0.377 0.8223 0.2396 0.1563 0.5403 0.2188 0.8945 0.2188 1.584-0.0104 3.179-0.07157 4.783-0.1758 1.604-0.1042 3.198-0.1569 4.781-0.1777 1.063 0.0104 2.137 0.05274 3.199 0.1152 1.063 0.0625 2.135 0.1029 3.197 0.1133 0.4792 0.0104 0.886-0.06246 1.24-0.2188 0.3646-0.1771 0.5417-0.5194 0.5625-1.051-0.0104-0.4792-0.1341-0.7923-0.3945-0.959-0.2605-0.1667-0.6054-0.2708-1.043-0.3125-1.479-0.2396-2.365-0.8136-2.646-1.699s-0.4167-2.032-0.4062-3.428l-1.5-28.75c0.0104-1.031-0.09309-1.907-0.291-2.605-0.198-0.698-0.865-1.063-2.021-1.084zm84.71 0.6055v39.83h29.86 0.00976c1.3 0 2.873 0.02555 4.564 0.00586 1.66-0.01954 3.432-0.08385 5.176-0.2598 0.06358-0.00639 0.126-0.01284 0.1894-0.01953 0.8218-0.08688 1.637-0.2007 2.428-0.3457 2.243-0.4102 4.295-1.085 5.822-2.182 0.1925-0.1383 0.3778-0.2835 0.5527-0.4356 0.04353-0.03786 0.09434-0.07064 0.1367-0.1094 0.04527-0.04199 0.08079-0.09364 0.125-0.1367 0.201-0.1962 0.3906-0.4021 0.5703-0.6191 0.1049-0.1263 0.2048-0.256 0.3027-0.3887 0.1422-0.193 0.2781-0.3926 0.4062-0.5976 0.1067-0.1703 0.2073-0.3439 0.3047-0.5215 0.09813-0.1794 0.1922-0.3611 0.2812-0.5469 0.9816-2.044 1.436-4.439 1.594-6.564 0.0233-0.3371 0.02938-0.6822 0.04883-1.021 0.03326-0.5824 0.06131-1.165 0.08398-1.75 0.06556-1.67 0.1074-3.344 0.1074-4.992-0.00347-1.296-0.01011-2.625-0.04101-3.959-0.00806-0.3658-0.0216-0.7315-0.03711-1.098-0.09957-2.304-0.3493-4.604-1.068-6.768-0.04033-0.1208-0.09183-0.2249-0.1348-0.3418-0.06761-0.1845-0.1389-0.3641-0.2129-0.5391-0.08782-0.2073-0.179-0.4092-0.2754-0.6035-0.08832-0.1783-0.1801-0.3518-0.2754-0.5195-0.1006-0.1768-0.2044-0.3483-0.3125-0.5137-0.09869-0.1512-0.2-0.2975-0.3047-0.4395-0.1198-0.1621-0.2438-0.3182-0.3711-0.4688-0.1122-0.1328-0.2279-0.2607-0.3457-0.3848-2.136-2.248-5.173-3.09-8.436-3.422-0.5803-0.05943-1.167-0.1061-1.758-0.1387-0.8327-0.04502-1.669-0.07248-2.504-0.08789-0.00391-1.1e-4 -0.00781 1.1e-4 -0.01172 0-1.13-0.03123-2.261-0.04687-3.395-0.05469h-0.00195c-1.131-0.00779-2.264-0.00781-3.396-0.00781h-0.00976-29.67zm-116.7 0.0918c-0.4376-0.00912-0.7682-0.00845-0.9922 0.00195-4.813 0.0104-9.856 0.9899-15.12 2.928-5.261 1.938-9.752 4.781-13.46 8.521-3.709 3.74-5.656 8.313-5.822 13.72 0.0729 3.438 1.062 6.272 2.979 8.512 1.917 2.24 4.335 3.908 7.252 5.002s5.928 1.635 9.012 1.635c1.875 0 3.772-0.1132 5.658-0.332 1.896-0.2292 3.749-0.5527 5.572-0.9902 0.698-0.1354 1.293-0.3222 1.793-0.541 0.5001-0.2188 0.886-0.6776 1.146-1.365 0.5105-1.448 0.957-2.907 1.363-4.387 0.3959-1.479 0.8137-2.959 1.23-4.428 0.698-2.094 1.521-3.323 2.469-3.688s1.802-0.5326 2.531-0.5117c0.7397 0.0208 1.126-0.4367 1.168-1.385-0.0208-0.3959-0.1673-0.6784-0.459-0.8555-0.2917-0.1667-0.6139-0.25-0.9785-0.25-1.438 0.0208-2.886 0.08457-4.334 0.1992-1.448 0.1146-2.908 0.1868-4.377 0.1973-1.386-0.0104-2.761-0.07351-4.146-0.1777-1.386-0.1042-2.761-0.155-4.146-0.1758-0.4584-0.01039-0.9068 0.07287-1.334 0.25-0.4272 0.1771-0.6562 0.5409-0.6875 1.072 0.0521 0.6564 0.438 1.011 1.146 1.084 0.7084 0.07289 1.428 0.2076 2.137 0.416 0.7085 0.2084 1.092 0.8338 1.145 1.896-0.06249 1.084-0.3957 2.563-1 4.449-0.6043 1.886-1.093 3.397-1.479 4.543-0.2292 0.8856-0.5214 1.51-0.8965 1.875-0.3751 0.3751-1.032 0.5514-1.98 0.541-3.376-0.0729-5.927-1.166-7.656-3.281-1.729-2.115-2.595-4.803-2.605-8.074 0.0312-3.011 0.6456-5.94 1.875-8.773 1.219-2.834 2.886-5.334 4.98-7.48 2.073-2.084 4.637-3.864 7.689-5.344 3.053-1.479 6.052-2.251 9.021-2.324 1.407-0.0104 2.282 0.2616 2.605 0.8242 0.323 0.5626 0.459 1.5 0.3965 2.812-0.0104 0.3438-0.0208 0.6868-0.0625 1.041-0.0313 0.3438-0.0521 0.6887-0.0625 1.043-0.0208 0.573 0.07285 1.094 0.2812 1.562 0.2084 0.4688 0.6236 0.7194 1.27 0.7402 0.7085-0.0521 1.231-0.4061 1.564-1.062 0.3334-0.6564 0.582-1.283 0.7383-1.877 0.1459-0.4376 0.4693-1.417 0.959-2.928 0.5314-1.469 0.8027-2.416 0.8652-2.791-0.0833-0.6251-0.7088-1.064-1.896-1.324-1.177-0.2605-2.416-0.4167-3.719-0.4688-0.6512-0.02605-1.197-0.04362-1.635-0.05273zm-31.8 0.5117c-0.5209 0-1.021 0.03067-1.531 0.07227-0.5001 0.0417-1.01 0.09377-1.531 0.1562-1.271 0.1354-2.563 0.2187-3.865 0.25-1.302 0.0312-2.616 0.04175-3.908 0.03125-0.9481-0.0104-1.905-0.05078-2.854-0.1133-0.9481-0.0625-1.907-0.1048-2.855-0.1152-0.448 0-0.8541 0.1243-1.219 0.3848-0.3542 0.25-0.5534 0.6256-0.5742 1.115 0.1667 0.8647 0.813 1.283 1.959 1.23 1.146-0.0521 1.792 0.4367 1.959 1.479-0.0104 0.2917-0.04103 0.5839-0.1035 0.8965-0.0729 0.3021-0.1465 0.6048-0.2402 0.8965l-7.262 25.18c-0.2813 1.177-0.5839 2.198-0.9277 3.062s-1.124 1.437-2.354 1.719c-0.5626 0.0833-1.22 0.2187-1.98 0.4062-0.7606 0.1875-1.177 0.6262-1.25 1.324 0.0208 0.3959 0.1673 0.6764 0.459 0.8535 0.2917 0.1667 0.6139 0.25 0.9785 0.25 1.24-0.0208 2.491-0.09311 3.752-0.2285 1.261-0.1354 2.53-0.2096 3.791-0.2305 1.354 0.0104 2.72 0.06312 4.096 0.1465 1.375 0.0833 2.729 0.1361 4.094 0.1465 0.5626 0.0417 1.198 0.01948 1.928-0.07422 0.7189-0.0938 1.125-0.4888 1.188-1.197-0.0521-0.7397-0.427-1.136-1.125-1.178-0.698-0.0521-1.386-0.1569-2.084-0.334-0.698-0.1771-1.062-0.8221-1.125-1.947 0.0104-0.4584 0.06311-0.9387 0.1777-1.418 0.1146-0.4792 0.2487-0.9472 0.3945-1.416l7.262-25.3c0.2709-1.042 0.5846-1.792 0.9492-2.271 0.3646-0.4688 1.083-0.8118 2.156-1.01 0.5418-0.0729 1.125-0.2194 1.75-0.459 0.646-0.2292 0.9909-0.6568 1.043-1.271-0.0104-0.3438-0.1256-0.6041-0.334-0.7812-0.2188-0.1771-0.4895-0.2598-0.8125-0.2598zm-67.59 0.125c-0.4897-0.0208-0.9576 0.05142-1.416 0.1973-0.448 0.1563-0.6875 0.5103-0.7188 1.062 0.1875 0.9168 0.9164 1.366 2.188 1.355 1.281-0.0104 2.01 0.4367 2.188 1.354-0.02084 0.646-0.1569 1.304-0.3965 1.971-0.2396 0.6772-0.4785 1.301-0.6973 1.885-1.407 3.897-2.803 7.793-4.199 11.69-1.396 3.897-2.843 7.783-4.322 11.65-0.5626 1.646-1.115 2.802-1.646 3.469-0.5418 0.6564-1.678 1.135-3.418 1.438-0.4793 0.0729-0.9068 0.2194-1.271 0.4277-0.3646 0.2188-0.5514 0.5936-0.5723 1.125 0.02084 0.4792 0.1874 0.7825 0.5 0.918 0.323 0.1354 0.6868 0.1966 1.104 0.1758 1.011-0.0104 2.032-0.03003 3.053-0.08203 1.021-0.0521 2.042-0.08399 3.053-0.08399 0.9481 0.0104 1.887 0.06313 2.814 0.1465 0.9273 0.0834 1.853 0.1341 2.77 0.1445 0.4272 0 0.8346-0.1035 1.23-0.3223 0.3855-0.2188 0.5944-0.5728 0.6152-1.062-0.06251-0.8126-0.5122-1.24-1.346-1.303-0.8335-0.0521-1.667-0.1875-2.5-0.4062-0.8335-0.2084-1.281-0.9477-1.344-2.219 0.08335-1.813 0.7296-4.512 1.928-8.096 1.198-3.584 2.47-7.053 3.793-10.41 1.334-3.365 2.228-5.626 2.697-6.793l0.6367 27.43c-0.0208 0.8439 0.07154 1.522 0.2695 2.012 0.198 0.4897 0.7602 0.7494 1.688 0.7598 0.9481-0.0417 1.698-0.3651 2.24-0.9902 0.5418-0.6251 1.044-1.312 1.502-2.062l18.44-27.14-6.105 22.93c-0.1875 0.9898-0.457 1.98-0.832 2.98-0.3646 1-1.095 1.624-2.168 1.854-0.6147 0.0417-1.313 0.1465-2.084 0.3027s-1.187 0.6359-1.26 1.428c0.0104 0.4272 0.1562 0.7298 0.4375 0.8965 0.2813 0.1771 0.6145 0.2604 1 0.25 1.323-0.0208 2.666-0.09507 4-0.2305 1.344-0.1354 2.679-0.2077 4.002-0.2285 1.386 0.0208 2.761 0.09311 4.146 0.2285 1.386 0.1354 2.761 0.2096 4.146 0.2305 0.5105 0.0104 0.9687-0.07416 1.375-0.2617 0.4063-0.1875 0.6152-0.5624 0.6465-1.125-0.0521-0.698-0.397-1.093-1.043-1.197s-1.292-0.261-1.938-0.459c-0.646-0.198-0.9994-0.7817-1.041-1.74 0.0104-0.698 0.09376-1.406 0.25-2.125 0.1563-0.7189 0.3229-1.417 0.5-2.084l5.875-23.57c0.2084-1.031 0.4693-1.844 0.8027-2.428 0.323-0.5834 1.041-0.9486 2.135-1.084 0.5834-0.0313 1.157-0.1549 1.709-0.3633 0.5626-0.198 0.8548-0.6359 0.8965-1.303-0.0104-0.3751-0.125-0.636-0.3438-0.8027s-0.511-0.2402-0.8652-0.2402c-1.209 0.0104-2.427 0.03198-3.656 0.08398-1.229 0.0521-2.448 0.08399-3.656 0.08399-0.646-0.0313-1.605-0.07418-2.887-0.1055-1.281-0.0417-2.146 0.1152-2.584 0.459-0.08339 0.125-0.1556 0.25-0.2285 0.4062-0.0729 0.1459-0.1471 0.2812-0.2305 0.4062l-15.86 23.96-0.6367-23.57c0.0313-0.448 0.00977-0.8333-0.05273-1.156-0.0625-0.323-0.3541-0.5013-0.875-0.5117-1.323 0.0104-2.666 0.03262-4 0.07422-1.344 0.0417-2.677 0.02998-4-0.01172-0.7501-0.0312-1.501-0.08263-2.24-0.1348-0.7397-0.0521-1.48-0.08325-2.199-0.09375zm228 9.242h17.49c1.172 0 2.226-1.8e-4 3.172 0.01953 0.9464 0.01972 1.786 0.05785 2.529 0.1367 0.7433 0.07887 1.39 0.1975 1.953 0.375 1.407 0.4437 2.286 1.257 2.812 2.748s0.7012 3.662 0.7012 6.816c0 0.5522 0.00359 1.244-0.01953 1.998v0.00196c-0.01156 0.3764-0.02971 0.7677-0.05859 1.164-1e-4 0.00132 9e-5 0.00258 0 0.0039-0.02892 0.3958-0.06918 0.7978-0.123 1.193-1.8e-4 0.00129 1.7e-4 0.00263 0 0.00391-0.2164 1.586-0.6634 3.09-1.59 3.865-1.375 1.136-4.064 1.198-5.73 1.25-1.438 0.0625-2.802 0.1133-4.24 0.1133h-16.9v-19.69zm-257.4 0.207 0.4688 13.37h-9.627l9.158-13.37zm154.4 0 0.4688 13.37h-9.627l9.158-13.37z" fill="#fff"/></svg>
