<svg width="480" height="320" version="1.1" viewBox="0 0 127 84.667" xmlns="http://www.w3.org/2000/svg" xmlns:xlink="http://www.w3.org/1999/xlink">
 <defs>
  <linearGradient id="a" x1="24.146" x2="116.42" y1="1.0308" y2="107.62" gradientUnits="userSpaceOnUse">
   <stop stop-color="#c6262e" offset="0"/>
   <stop stop-color="#3a9104" offset=".6"/>
   <stop stop-color="#002e99" offset="1"/>
  </linearGradient>
 </defs>
 <rect width="127" height="84.667" ry="4.2333" fill="url(#a)" stroke-linecap="square" stroke-linejoin="round" stroke-width=".52917" style="paint-order:stroke fill markers"/>
 <g transform="matrix(.14563 0 0 -.14563 5.9142 50.129)" fill="#fff">
  <g>
   <path d="m705.38 82.388v129.13h0.146c9.392 0 10.542-6.453 10.542-15.778v-97.577c0-9.325-1.15-15.777-10.542-15.777zm-42.749-31.621h72.366c14.069 0 23.821 9.618 23.821 23.499v145.38c0 13.879-9.752 23.498-23.821 23.498h-72.366v-192.37"/>
   <path d="m502.31 211.52h0.147c9.39 0 10.539-6.453 10.539-15.778v-17.422c0-9.326-1.31-15.922-10.686-15.922zm29.618-67.238c14.066 0 23.818 9.619 23.818 23.499v51.861c0 13.879-9.752 23.498-23.818 23.498h-72.369v-192.37h42.751v75.251h0.147c9.39 0 10.539-6.452 10.539-15.778v-59.473h42.75v70.016c0 13.88-9.752 23.499-23.818 23.499"/>
   <path d="m344.9 50.767c14.069 0 23.82 9.618 23.82 23.499v62.668c-0.159 18.877-53.437 40.078-53.437 40.078v32.061c0 2.953 2.392 5.345 5.344 5.345 2.953 0 5.344-2.392 5.344-5.345l0.041-32.061h42.708v43.298c0 13.88-9.751 23.499-23.82 23.499h-48.546c-14.068 0-23.82-9.619-23.82-23.499v-51.982c0.173-18.865 53.437-40.078 53.437-40.078v-42.752c0-2.95-2.391-5.3421-5.344-5.3421-2.952 0-5.344 2.3921-5.344 5.3421l-0.039 42.752h-42.71v-53.984c0-13.881 9.752-23.499 23.82-23.499h48.546"/>
   <path d="m75.36 117.56 6.1317 69.467 6.1328-69.467zm-17.915 125.58-25.383-192.37h37.406l3.3003 37.405h17.446l3.3008-37.405h37.407l-25.383 192.37h-48.095"/>
   <path d="m601.72 117.56 6.133 69.467 6.132-69.467zm-17.914 125.58-25.383-192.37h37.407l3.3 37.405h17.445l3.301-37.405h37.408l-25.387 192.37h-48.091"/>
   <path d="m392.77 211.08v-160.31h42.752v160.31h18.701v32.062h-82.828v-32.062h21.375"/>
   <path d="m227.11 146.95v-96.186h37.408v192.37h-53.438l-10.688-76.949-10.688 76.949h-53.437v-192.37h37.406v96.186l13.359-96.186h26.719l13.359 96.186"/>
  </g>
  <path d="m468.96-120.74v126.09a16 16 45 0 0 16 16h68.722v-39.304h-15.722v23.582h-51.279a2 2 45 0 1-2-2v-122.65a2.0034 2.0034 134.95 0 1 2-2.0034l51.279-0.0876v23.673h15.722v-39.304h-68.722a16 16 135 0 0-16 16zm99.257-0.27831h11.026v63.76l-0.12474 62.887h-10.901v15.722h78.968a16 16 135 0 0 16-16v-50.539a16 16 45 0 0-16-16h-52.345v-59.829h10.901v-15.722h-37.524zm77.247 126.65h-48.624a2 2 45 0 1-2-2v-47.096a2 2 135 0 1 2-2h48.624a2 2 45 0 1 2 2v47.096a2 2 135 0 1-2 2zm28.623-126.37v126.09a16 16 45 0 0 16 16h68.722v-39.304h-15.722v21.582a2 2 135 0 1-2 2h-49.279a2 2 45 0 1-2-2v-122.65a2.0034 2.0034 134.95 0 1 2-2.0034l51.279-0.0876v23.673h15.722v-39.304l-68.722 1e-5a16 16 135 0 0-16 16z" stroke-width="1.7468"/>
 </g>
 <style type="text/css">.st0{fill:#FC0C18;}
	.st1{fill:#FC0C18;}</style>
</svg>
