<svg width="480" height="320" version="1.1" viewBox="0 0 480 320" xml:space="preserve" xmlns="http://www.w3.org/2000/svg"><defs><linearGradient id="a" x1="76.23" x2="44.9" y1="-38.45" y2="78.48" gradientTransform="scale(3.78)" gradientUnits="userSpaceOnUse"><stop stop-color="#92dd55" offset="0"/><stop stop-color="#002e99" offset="1"/></linearGradient></defs><rect width="480" height="320" ry="24" fill="url(#a)"/><path d="m202.2 58c-15.94 0-20.21 0.8242-23.82 4.105-3.448 3.125-4.438 7.062-4.438 16.1v12.81c0 13.64 1.811 17.08 12.49 23.17l9.699 5.428c0.1667 0.1667 1.312 0.6556 2.791 1.479 3.948 2.135 4.437 2.958 4.604 7.062l0.168 2.303v12.17 2.793c0 3.115-1.146 4.926-3.281 4.926-2.458 0-3.449-1.801-3.449-6.238v-2.793-18.41h-23v19.72c0 7.396 6.4e-4 9.865 0.334 12 0.4896 4.115 1.48 6.741 3.615 9.043 3.615 4.104 7.396 4.926 21.03 4.926 17.08 0 21.03-0.9889 24.64-5.916 2.635-3.448 3.293-6.572 3.293-16.1v-17.58c0-14.79-1.814-17.75-14.79-24.98l-9.863-5.428c-4.271-2.302-5.262-3.614-5.262-7.229v-8.053c0-3.615 0.1569-4.438 0.4902-5.428 0.4896-1.146 1.813-1.969 2.959-1.969 1.146 0 2.135 0.8229 2.791 1.969 0.3229 0.8229 0.4902 1.98 0.4902 5.428v12.98h23.16v-15.45c0-10.19-0.6576-13.64-3.449-17.25-3.448-4.594-7.229-5.584-21.2-5.584zm141.1 0.6465-13.8 109.6h21.69l1.646-21.69h8.875l1.812 21.69h21.85l-13.64-109.6h-28.43zm-289.4 0.009766-13.8 109.6h21.69l1.646-21.69h8.863l1.812 21.69h21.87l-13.65-109.6h-28.43zm43.54 0v109.6h20.87v-62.44l8.707 62.44h13.48l8.219-62.12v62.1h20.86v-109.6h-30.41l-5.75 48.48-5.416-48.48h-30.56zm130.9 0v17.74h11.67v91.85h23.17 0.00977v-91.84h11.33v-17.75h-46.18zm47.62 0v109.6h23.17v-43.71h0.9902c5.75 0.1667 5.75 2e-5 5.75 10.84v32.88h23v-28.43c0-12.81-0.3333-15.77-2.469-19.55-1.646-2.958-3.937-4.77-7.885-6.082 8.052-2.135 10.35-7.397 10.35-22.68v-11.5c0-16.59-3.949-20.87-20.05-21.2l-8.219-0.168h-24.63zm110.9 0v109.6h19.4l11.67-0.168c11.34 0 15.94-1.478 19.06-6.082 2.635-3.938 3.125-7.552 3.125-21.03v-54.06c0-15.11-0.8236-19.39-4.271-23.33-3.781-4.437-6.572-4.928-26.46-4.928h-22.52zm-87.73 17.91h0.9883 1.48c3.115 0 4.104 1.146 4.104 5.094l0.166 2.959v11.83c0 7.062-0.6563 8.051-5.094 8.051h-1.645v-27.94zm113 0c3.615 0 4.438 1.157 4.438 6.084v2.791 51.43 5.428 2.301c0 4.604-0.8229 5.75-4.438 5.75h-2.135v-73.61c0.8229 0 1.645-0.168 2.135-0.168zm-344.3 9.365 3.113 42.56h-6.238l3.125-42.56zm289.4 0 3.115 42.56h-6.24l3.125-42.56zm-147.9 94.21v81.85h230.7v-81.85h-230.7zm-157.2 0.00976c-7.781-2.4e-4 -12.03 4.355-12.03 12.62v56.62c0 8.25 4.25 12.61 12.03 12.62h34.09v-21.58h-8.615v13.45h-23.35c-3.542 0-4.959-2.24-4.959-6.719v-52.13c0-4.479 1.417-6.719 4.959-6.719h23.34v12.62h8.615v-20.76h-34.08zm38.92 0v8.137h7.199v65.57h-7.199v8.125h23.82v-8.135h-7.428v-29.72h22.65c7.781 0 12.03-4.355 12.03-12.62v-18.75c0-8.25-4.25-12.62-12.03-12.62h-39.04zm68.65 0c-7.781 0-12.03 4.355-12.03 12.62v56.62c0 8.25 4.24 12.61 12.02 12.62h34.09v-21.58h-8.615v13.45h-23.35c-3.542 0-4.959-2.24-4.959-6.719v-52.13c0-4.479 1.417-6.719 4.959-6.719h23.35v12.62h8.615v-20.76h-34.08zm-52.25 8.137h20.52c3.542 0 4.957 2.24 4.957 6.719v14.27c0 4.479-1.415 6.719-4.957 6.719v0.01172h-20.52v-27.72zm136.6 8.197h42.85v19.79h-61.22v-1.426c0-10.15 8.219-18.37 18.37-18.37zm52.45 0h56.43v19.79h-56.43v-19.79zm66.03 0h42.86c10.15 0 18.36 8.219 18.36 18.37v1.426h-61.22v-19.79zm-136.8 29.38h61.22v19.79h-42.85c-10.15 0-18.37-8.23-18.37-18.37v-1.428zm70.81 0h56.43v19.79h-56.43v-19.79zm66.03 0h61.22v1.428c0 10.15-8.217 18.37-18.36 18.37h-42.86v-19.79z" fill="#fff"/></svg>
