<svg width="480" height="320" version="1.1" viewBox="0 0 127 84.667" xmlns="http://www.w3.org/2000/svg">
 <defs>
  <linearGradient id="a" x1="34.922" x2="96.49" y1="-17.345" y2="123.83" gradientUnits="userSpaceOnUse">
   <stop stop-color="#ffa154" offset="0"/>
   <stop stop-color="#c6262e" offset=".39847"/>
   <stop stop-color="#452981" offset="1"/>
  </linearGradient>
 </defs>
 <rect width="127" height="84.667" ry="4.2333" fill="url(#a)" stroke-linecap="square" stroke-linejoin="round" stroke-width=".52917" style="paint-order:stroke fill markers"/>
 <path d="m34.435 53.109a2.1167 2.1167 45 0 1-2.5924-1.4967 2.1167 2.1167 45 0 1 1.4967-2.5924 2.1167 2.1167 45 0 1 2.5924 1.4967 2.1167 2.1167 45 0 1-1.4967 2.5924z" fill="none" stroke="#fafafa" stroke-linecap="square" stroke-linejoin="round" stroke-width="2.1167" style="paint-order:stroke markers fill"/>
 <path d="m34.435 53.109 1.0957 4.0891" fill="none" stroke="#fafafa" stroke-width="2.1167"/>
 <g fill="#fafafa">
  <path d="m37.949 57.021c-0.05128-0.19138-0.17083-0.33351-0.26983-0.41084-0.09899-0.07733-0.18867-0.11397-0.27687-0.14211-0.17639-0.05629-0.35641-0.07092-0.56262-0.07161-0.41243-0.0014-0.91968 0.07258-1.4647 0.21862-0.54504 0.14604-1.0228 0.33602-1.3793 0.54345-0.17824 0.10371-0.32529 0.20598-0.44991 0.34292-0.06231 0.06847-0.12165 0.14505-0.16872 0.26151-0.04706 0.11647-0.07952 0.29934-0.02826 0.49071 0.05127 0.19137 0.17083 0.33351 0.26983 0.41084 0.09899 0.07733 0.18867 0.11397 0.27687 0.14211 0.17639 0.05629 0.35487 0.07133 0.56109 0.07202 0.41243 0.0014 0.92122-0.07299 1.4663-0.21903 0.54505-0.14605 1.0213-0.33564 1.3778-0.54303 0.17824-0.10371 0.32683-0.20639 0.45144-0.34333 0.06231-0.06847 0.12165-0.14505 0.16872-0.26151 0.04706-0.11647 0.07954-0.29934 0.02826-0.49071z" color="#000000" style="paint-order:stroke markers fill"/>
  <path d="m43.769 57.022c-0.05128-0.19138-0.17083-0.33351-0.26983-0.41084-0.09899-0.07734-0.18867-0.11397-0.27687-0.14212-0.17639-0.05628-0.35641-0.07092-0.56263-0.07161-0.41243-0.0014-0.91968 0.07257-1.4647 0.21862-0.54504 0.14604-1.0228 0.33602-1.3793 0.54345-0.17824 0.10371-0.32529 0.20598-0.44991 0.34292-0.06231 0.06847-0.12165 0.14505-0.16872 0.26151-0.04706 0.11647-0.07952 0.29934-0.02826 0.49071 0.05127 0.19137 0.17083 0.33351 0.26983 0.41084 0.09899 0.07733 0.18867 0.11397 0.27687 0.14212 0.17639 0.05628 0.35487 0.07133 0.56109 0.07202 0.41243 0.0014 0.92122-0.07299 1.4663-0.21903 0.54505-0.14605 1.0213-0.33564 1.3778-0.54304 0.17824-0.10371 0.32683-0.20639 0.45144-0.34333 0.06231-0.06847 0.12165-0.14505 0.16872-0.26151 0.04706-0.11647 0.07954-0.29934 0.02826-0.49071z" color="#000000" style="paint-order:stroke markers fill"/>
  <path d="m49.59 57.021c-0.05128-0.19138-0.17083-0.33351-0.26983-0.41084-0.09899-0.07733-0.18867-0.11397-0.27687-0.14212-0.17639-0.05628-0.35641-0.07092-0.56262-0.07161-0.41243-0.0014-0.91968 0.07258-1.4647 0.21862-0.54504 0.14604-1.0228 0.33602-1.3793 0.54345-0.17824 0.10371-0.32529 0.20598-0.44991 0.34292-0.06231 0.06847-0.12165 0.14505-0.16872 0.26151-0.04706 0.11647-0.07952 0.29934-0.02826 0.49071 0.05127 0.19137 0.17083 0.33351 0.26983 0.41084 0.09899 0.07734 0.18867 0.11397 0.27687 0.14211 0.17639 0.05629 0.35487 0.07133 0.56109 0.07202 0.41243 0.0014 0.92122-0.07299 1.4663-0.21903 0.54505-0.14605 1.0213-0.33564 1.3778-0.54303 0.17824-0.10371 0.32683-0.20639 0.45144-0.34333 0.06231-0.06847 0.12165-0.14505 0.16872-0.26151 0.04706-0.11647 0.07954-0.29934 0.02826-0.49071z" color="#000000" style="paint-order:stroke markers fill"/>
  <path d="m55.411 57.022c-0.05128-0.19138-0.17083-0.33351-0.26983-0.41084-0.09899-0.07733-0.18867-0.11397-0.27687-0.14211-0.17639-0.05629-0.35641-0.07092-0.56262-0.07161-0.41243-0.0014-0.91968 0.07257-1.4647 0.21862-0.54504 0.14604-1.0228 0.33602-1.3793 0.54345-0.17824 0.10371-0.32529 0.20598-0.44991 0.34292-0.06231 0.06847-0.12165 0.14505-0.16872 0.26151-0.04706 0.11647-0.07952 0.29934-0.02826 0.49071 0.05127 0.19137 0.17083 0.33351 0.26983 0.41084 0.09899 0.07733 0.18867 0.11397 0.27687 0.14211 0.17639 0.05629 0.35487 0.07133 0.56109 0.07202 0.41243 0.0014 0.92122-0.07299 1.4663-0.21903 0.54505-0.14605 1.0213-0.33564 1.3778-0.54303 0.17824-0.10371 0.32683-0.20639 0.45144-0.34333 0.06231-0.06847 0.12165-0.14505 0.16872-0.26151 0.04706-0.11647 0.07954-0.29934 0.02826-0.49071z" color="#000000" style="paint-order:stroke markers fill"/>
  <path d="m61.232 57.022c-0.05128-0.19138-0.17083-0.33351-0.26983-0.41084-0.09899-0.07734-0.18867-0.11397-0.27687-0.14211-0.17639-0.05629-0.35641-0.07092-0.56263-0.07161-0.41243-0.0014-0.91968 0.07257-1.4647 0.21862-0.54504 0.14604-1.0228 0.33602-1.3793 0.54345-0.17824 0.10371-0.32529 0.20598-0.44991 0.34292-0.06231 0.06847-0.12165 0.14505-0.16872 0.26151-0.04706 0.11647-0.07952 0.29934-0.02826 0.49071 0.05127 0.19137 0.17083 0.33351 0.26983 0.41084 0.09899 0.07733 0.18867 0.11397 0.27686 0.14212 0.17639 0.05629 0.35488 0.07133 0.56109 0.07202 0.41243 0.0014 0.92122-0.07299 1.4663-0.21903 0.54505-0.14605 1.0213-0.33564 1.3778-0.54304 0.17824-0.10371 0.32683-0.20639 0.45144-0.34333 0.06231-0.06847 0.12165-0.14505 0.16872-0.26151 0.04706-0.11647 0.07954-0.29934 0.02826-0.49071z" color="#000000" style="paint-order:stroke markers fill"/>
 </g>
 <style type="text/css">.st0{fill:#FC0C18;}
	.st1{fill:#FC0C18;}</style>
 <g fill="none" stroke="#fafafa" stroke-width="2.1167">
  <path d="m70.978 71.703h-46.1a0.79928 0.79928 51.365 0 1-0.77963-0.97542l2.3089-10.22a2.2851 2.2851 126.37 0 1 1.0864-1.4754l7.4334-4.2917a1.9662 1.9662 123.04 0 0 0.97202-1.4944l3.4544-32.408a1.3109 1.3109 58.746 0 0-0.82501-1.3594l-0.88762-0.34799a1.4662 1.4662 55.704 0 1-0.93101-1.365v-3.8011a1 1 135 0 1 1-1h43.983l19.109 6.35"/>
  <path d="m78.777 54.24h-37.808a1.7981 1.7981 48.042 0 1-1.788-1.9887l3.0189-28.321a2.2245 2.2245 138.04 0 1 2.212-1.9887h37.808a1.7981 1.7981 48.042 0 1 1.788 1.9887l-3.0188 28.321a2.2245 2.2245 138.04 0 1-2.212 1.9887z"/>
  <path d="m99.854 18.999-17.211-5.7193a0.72147 0.72147 144.19 0 0-0.94898 0.68465v3.8011a1.4662 1.4662 55.704 0 0 0.93101 1.365l0.88762 0.34799a1.3109 1.3109 58.746 0 1 0.82501 1.3594l-3.4544 32.408a1.9662 1.9662 123.04 0 1-0.97202 1.4944l-7.4334 4.2917a2.2851 2.2851 126.37 0 0-1.0864 1.4754l-2.3089 10.22a0.79928 0.79928 51.365 0 0 0.77963 0.97542l29.941-1.3e-5a1 1 135 0 0 1-1v-50.388a1.3861 1.3861 54.191 0 0-0.94898-1.3153z"/>
  <path d="m36.71 14.023v3.7416a1.0004 1.0004 45.013 0 0 1 1.0004l43.03 0.01881a5.2967 5.2967 10.716 0 1 1.931 0.36544l0.84043 0.32949a1.3109 1.3109 58.746 0 1 0.82502 1.3594l-0.11762 1.1034"/>
 </g>
</svg>
