<svg version="1.1" viewBox="0 0 480 320" xml:space="preserve" xmlns="http://www.w3.org/2000/svg"><defs><linearGradient id="a" x1="34.92" x2="64.62" y1="-17.34" y2="93.9" gradientTransform="scale(3.78)" gradientUnits="userSpaceOnUse"><stop stop-color="#ff7f2a" offset="0"/><stop stop-color="#800033" offset="1"/></linearGradient></defs><rect width="480" height="320" ry="24" fill="url(#a)"/><path d="m43.67 97.96c-2.021 0-3.668 1.647-3.668 3.668v3.875c0 2.021 1.647 3.668 3.668 3.668h296.6c2.021 0 3.668-1.647 3.668-3.668v-3.875c0-2.021-1.647-3.668-3.668-3.668h-296.6zm315.6 0c-2.824 0-4.031 0.6765-4.031 3.094v28.65c-3.626-2.021-6.721-2.156-9.951-2.156h-32.55c-3.095 0-5.646 2.687-5.646 5.646v52.19c0 4.835 2.698 7.533 6.855 7.533h46.53c4.032 0 7.262-3.095 7.262-7.398v-84.47c0-2.021-1.478-3.094-4.438-3.094h-4.033zm23.44 0c-2.021 0-3.666 1.647-3.666 3.668v3.875c0 2.021 1.645 3.668 3.666 3.668h53.6c2.021 0 3.668-1.647 3.668-3.668v-3.875c0-2.021-1.647-3.668-3.668-3.668h-53.6zm-142.1 29.58c-3.355 0-3.896 0.6783-3.896 3.502v4.438c0 2.688 1.344 2.824 3.896 2.824h40.09c1.886 0 2.688 0.4065 2.688 2.021v6.189c0 1.886-0.4065 2.021-2.021 2.021h-38.07c-4.043 0-6.596 2.687-6.596 5.646v32.28c0 3.897 2.428 6.46 5.908 6.449h56.49c2.021 0 3.365-1.343 3.365-3.5v-4.439c0-2.157-1.074-3.094-2.824-3.094h-2.281c-1.886 0-2.824-1.074-2.824-3.23v-45.19c0-3.897-1.884-5.918-5.781-5.918h-48.15zm144.7 0c-4.043 0-6.324 2.157-6.324 4.98v55.02c0 2.553 2.823 5.386 5.646 5.365h50.03c4.032 0 5.242-1.345 5.242-5.377v-11.97c0-2.282-0.5314-2.824-2.553-2.824h-7.264c-1.605 0-2.281 0.135-2.281 1.75v5.512c0 1.886-0.4072 2.021-1.887 2.021h-26.22c-1.615 1e-5 -1.75-0.2708-1.75-2.959v-14.79c0-2.292 0.2702-3.096 2.688-3.096h34.44c3.095 0 4.846-1.749 4.846-4.166v-24.48c0-2.563-2.552-4.98-6.053-4.98h-48.55zm-341.5 0.01172c-3.355 0-3.896 0.6659-3.896 3.5v4.439c0 2.688 1.344 2.823 3.896 2.812h40.11c1.886 0 2.688 0.4065 2.688 2.021v6.189c0 1.886-0.4065 2.021-2.021 2.021h-38.07c-4.043 0-6.596 2.687-6.596 5.646v32.28c0 3.897 2.417 6.461 5.918 6.461h56.47c2.021 0 3.365-1.345 3.365-3.502v-4.438c0-2.157-1.072-3.096-2.822-3.096h-2.283c-1.886 0-2.822-1.074-2.822-3.23v-45.19c0-3.897-1.886-5.918-5.783-5.918h-48.15zm72.77 0c-3.907 0-6.324 2.416-6.324 5.646v54.87c0 2.824 2.021 4.844 4.574 4.844h10.49c2.959 0 4.438-1.344 4.438-4.303v-20.28c0-1.75-0.135-3.76-1.75-6.99l-3.896-7.398c-1.073-1.886-1.48-4.043-1.48-6.596v-6.596c0-2.021 0.2618-2.959 2.283-2.959h20.16c2.021 0 2.158 0.3966 2.158 2.418v4.168c0 2.292 0.948 3.094 3.365 3.094h5.512c2.959 0 3.637-1.208 3.637-4.303v-10.49c0-2.834-2.282-5.115-5.512-5.115h-37.66zm56.63 0c-3.501 0-6.324 2.822-6.324 7.396v49.49c0 4.574 3.762 8.482 6.992 8.492h47.21c4.168 0 5.783-1.75 5.783-5.918v-11.04c0-2.428-1.084-3.229-3.637-3.229h-5.377c-2.553 0-3.094 0.5417-3.094 2.959v3.762c0 2.282-0.1361 2.281-2.418 2.281h-29.59c-2.417 0-3.096-0.5424-3.096-2.824v-37.79c0-2.553 0.543-2.824 3.096-2.824h20.18c1.886 0 2.688 0.1354 2.688 2.553v2.824c0 2.959 1.75 3.096 4.98 3.096h11.43c4.439 0 4.844-0.6773 4.844-4.98v-8.742c0-3.095-2.416-5.512-6.053-5.512h-47.62zm227 10.23h25.29c1.74 0 2.281 0.8035 2.281 2.689v8.742c0 1.48-0.5308 2.02-2.281 2.02h-25.7c-1.615 0-1.885-0.5412-1.885-2.156v-9.418c0-1.344 0.2697-1.887 2.291-1.877zm-69.67 0.668h22.06c2.282 1e-5 2.553 0.2601 2.553 3.896v35.64c0 3.355-0.1364 4.033-4.033 4.033h-20.18c-3.761 0-3.896-0.2718-3.896-4.033v-35.64c0-3.761-9.2e-4 -3.896 3.5-3.896zm-269 20.97h22.33c2.417 0 2.688 0.6758 2.688 3.229v16c0 2.282-0.2702 2.689-2.688 2.689h-22.33c-1.74 0-2.418-0.8036-2.418-2.689v-16.68c0-2.011 0.1361-2.553 2.418-2.553zm196.8 0h22.33c2.417 0 2.688 0.6758 2.688 3.229v16c0 2.282-0.2702 2.689-2.688 2.689h-22.33c-1.74 0-2.418-0.8036-2.418-2.689v-16.68c0-2.011 0.1361-2.553 2.418-2.553zm-214.8 51.4c-2.021 0-3.668 1.647-3.668 3.668v3.875c0 2.021 1.647 3.668 3.668 3.668h392.7c2.021 0 3.668-1.647 3.668-3.668v-3.875c0-2.021-1.647-3.668-3.668-3.668h-392.7z" fill="#fff"/></svg>
