<svg width="480" height="320" version="1.1" viewBox="0 0 127 84.667" xmlns="http://www.w3.org/2000/svg">
 <defs>
  <linearGradient id="a" x1="34.922" x2="96.49" y1="-17.345" y2="123.83" gradientUnits="userSpaceOnUse">
   <stop stop-color="#ffa154" offset="0"/>
   <stop stop-color="#c6262e" offset=".39847"/>
   <stop stop-color="#452981" offset="1"/>
  </linearGradient>
 </defs>
 <rect width="127" height="84.667" ry="4.2333" fill="url(#a)" stroke-linecap="square" stroke-linejoin="round" stroke-width=".52917" style="paint-order:stroke fill markers"/>
 <g transform="translate(-8.9752 .26458)" stroke="#fff" stroke-width="2.1167">
  <g fill="none">
   <path d="m48.329 20.574-3.4542 32.407a1.9662 1.9662 123.04 0 1-0.97201 1.4944l-7.4334 4.2917a2.2851 2.2851 126.37 0 0-1.0864 1.4754l-2.3089 10.22a0.79928 0.79928 51.365 0 0 0.77963 0.97542l74.924 1e-6a1 1 135 0 0 1-1v-50.388a1.716 1.716 59.769 0 0-0.87003-1.493l-9.4661-5.364a3.7931 3.7931 14.769 0 0-1.87-0.493h-50.886a1 1 135 0 0-1 1v3.8a1.4667 1.4667 55.714 0 0 0.93087 1.3653l0.88789 0.34848a1.3114 1.3114 58.756 0 1 0.82488 1.3597z"/>
   <path d="m77.657 71.438 2.5293-11.195a2.2851 2.2851 126.37 0 1 1.0864-1.4754l7.3901-4.2667a1.9812 1.9812 123.22 0 0 0.97813-1.4937l3.4422-30.511a3.5757 3.5757 48.231 0 0-3.5516-3.9765l-42.846-0.01865a1.0004 1.0004 45.012 0 1-1-1.0004v-1.0472"/>
   <path d="m48.048 52.012c-0.11958 1.0596 0.70947 1.9874 1.7758 1.9874h37.626c1.1398 3.4e-5 2.0985-0.85449 2.2291-1.9868l3.2662-28.33c0.12198-1.0584-0.70551-1.9868-1.7709-1.9868h-37.705c-1.1391-3e-6 -2.0965 0.85548-2.2246 1.9873z"/>
  </g>
  <g transform="rotate(75 35.321 55.093)">
   <path d="m35.243 46.698a2.1167 2.1167 0 0 1-2.1167 2.1167 2.1167 2.1167 0 0 1-2.1167-2.1167 2.1167 2.1167 0 0 1 2.1167-2.1167 2.1167 2.1167 0 0 1 2.1167 2.1167z" fill="none" stroke="#fff" stroke-linecap="square" stroke-linejoin="round" stroke-width="2.1167" style="paint-order:stroke markers fill"/>
   <path d="m35.243 46.698h4.2333" fill="none" stroke="#fff" stroke-width="2.1167"/>
   <g fill="#fff" stroke="none">
    <path d="m39.931 44.316c-0.19813 2e-6 -0.36636 0.07869-0.46668 0.1543-0.10032 0.0756-0.15892 0.15274-0.20893 0.23065-0.10002 0.15581-0.16075 0.32591-0.21479 0.52492-0.10808 0.39802-0.16793 0.90713-0.16793 1.4714s0.05985 1.0749 0.16793 1.473c0.05404 0.19901 0.11477 0.36752 0.21479 0.52333 0.05001 0.07791 0.10862 0.15505 0.20893 0.23065 0.10032 0.0756 0.26856 0.15429 0.46668 0.1543s0.36636-0.07869 0.46668-0.1543c0.10032-0.0756 0.15892-0.15274 0.20893-0.23065 0.10002-0.15581 0.16075-0.32432 0.21479-0.52333 0.10807-0.39802 0.16793-0.90872 0.16793-1.473s-0.05986-1.0734-0.16793-1.4714c-0.05404-0.19901-0.11477-0.36911-0.21479-0.52492-0.05001-0.07791-0.10862-0.15505-0.20893-0.23065-0.10032-0.0756-0.26855-0.1543-0.46668-0.1543z" color="#000000" style="paint-order:stroke markers fill"/>
    <path d="m41.438 38.694c-0.19813 2e-6 -0.36636 0.07869-0.46668 0.1543-0.10032 0.0756-0.15892 0.15274-0.20893 0.23065-0.10002 0.15581-0.16075 0.32591-0.21479 0.52492-0.10808 0.39802-0.16793 0.90713-0.16793 1.4714s0.05985 1.0749 0.16793 1.473c0.05404 0.19901 0.11477 0.36752 0.21479 0.52333 0.05001 0.07791 0.10862 0.15505 0.20893 0.23065 0.10032 0.0756 0.26856 0.15429 0.46668 0.1543s0.36636-0.07869 0.46668-0.1543c0.10032-0.0756 0.15892-0.15274 0.20893-0.23065 0.10002-0.15581 0.16075-0.32432 0.21479-0.52333 0.10807-0.39802 0.16793-0.90872 0.16793-1.473s-0.05986-1.0734-0.16793-1.4714c-0.05404-0.19901-0.11477-0.36911-0.21479-0.52492-0.05001-0.07791-0.10862-0.15505-0.20893-0.23065-0.10032-0.0756-0.26855-0.1543-0.46668-0.1543z" color="#000000" style="paint-order:stroke markers fill"/>
    <path d="m42.944 33.071c-0.19813 2e-6 -0.36636 0.07869-0.46668 0.1543-0.10032 0.0756-0.15892 0.15274-0.20893 0.23065-0.10002 0.15581-0.16075 0.32591-0.21479 0.52492-0.10808 0.39802-0.16793 0.90713-0.16793 1.4714s0.05985 1.0749 0.16793 1.473c0.05404 0.19901 0.11477 0.36752 0.21479 0.52333 0.05001 0.07791 0.10862 0.15505 0.20893 0.23065 0.10032 0.0756 0.26856 0.15429 0.46668 0.1543s0.36636-0.07869 0.46668-0.1543c0.10032-0.0756 0.15892-0.15274 0.20893-0.23065 0.10002-0.15581 0.16075-0.32432 0.21479-0.52333 0.10807-0.39802 0.16793-0.90872 0.16793-1.473s-0.05986-1.0734-0.16793-1.4714c-0.05404-0.19901-0.11477-0.36911-0.21479-0.52492-0.05001-0.07791-0.10862-0.15505-0.20893-0.23065-0.10032-0.0756-0.26855-0.1543-0.46668-0.1543z" color="#000000" style="paint-order:stroke markers fill"/>
    <path d="m44.451 27.449c-0.19813 2e-6 -0.36636 0.07869-0.46668 0.1543-0.10032 0.0756-0.15892 0.15274-0.20893 0.23065-0.10002 0.15581-0.16075 0.32591-0.21479 0.52492-0.10808 0.39802-0.16793 0.90713-0.16793 1.4714s0.05985 1.0749 0.16793 1.473c0.05404 0.19901 0.11477 0.36752 0.21479 0.52333 0.05001 0.07791 0.10862 0.15505 0.20893 0.23065 0.10032 0.0756 0.26856 0.15429 0.46668 0.1543s0.36636-0.07869 0.46668-0.1543c0.10032-0.0756 0.15892-0.15274 0.20893-0.23065 0.10002-0.15581 0.16075-0.32432 0.21479-0.52333 0.10807-0.39802 0.16793-0.90872 0.16793-1.473s-0.05986-1.0734-0.16793-1.4714c-0.05404-0.19901-0.11477-0.36911-0.21479-0.52492-0.05001-0.07791-0.10862-0.15505-0.20893-0.23065-0.10032-0.0756-0.26855-0.1543-0.46668-0.1543z" color="#000000" style="paint-order:stroke markers fill"/>
    <path d="m45.958 21.826c-0.19813 2e-6 -0.36636 0.07869-0.46668 0.1543-0.10032 0.0756-0.15892 0.15274-0.20893 0.23065-0.10002 0.15581-0.16075 0.32591-0.21479 0.52492-0.10808 0.39802-0.16793 0.90713-0.16793 1.4714s0.05985 1.0749 0.16793 1.473c0.05404 0.19901 0.11477 0.36752 0.21479 0.52333 0.05001 0.07791 0.10862 0.15505 0.20893 0.23065 0.10032 0.0756 0.26856 0.15429 0.46668 0.1543s0.36636-0.07869 0.46668-0.1543c0.10032-0.0756 0.15892-0.15274 0.20893-0.23065 0.10002-0.15581 0.16075-0.32432 0.21479-0.52333 0.10807-0.39802 0.16793-0.90872 0.16793-1.473s-0.05986-1.0734-0.16793-1.4714c-0.05404-0.19901-0.11477-0.36911-0.21479-0.52492-0.05001-0.07791-0.10862-0.15505-0.20893-0.23065-0.10032-0.0756-0.26855-0.1543-0.46668-0.1543z" color="#000000" style="paint-order:stroke markers fill"/>
   </g>
  </g>
 </g>
 <style type="text/css">.st0{fill:#FC0C18;}
	.st1{fill:#FC0C18;}</style>
</svg>
