<svg width="480" height="320" version="1.1" viewBox="0 0 480 320" xml:space="preserve" xmlns="http://www.w3.org/2000/svg" xmlns:xlink="http://www.w3.org/1999/xlink"><defs><linearGradient id="a" x1="240" x2="240" y1="270" y2="-34.85" gradientUnits="userSpaceOnUse"><stop stop-color="#560080" offset="0"/><stop stop-color="#b900ff" offset="1"/></linearGradient></defs><rect id="b" width="480" height="320" ry="24" fill="url(#a)"/><path d="m63 126a4 4 0 0 0-2.828 1.172l-19 19a4 4 0 0 0-1.172 2.828v41a4 4 0 0 0 4 4 4 4 0 0 0 4-4v-27h30v27a4 4 0 0 0 4 4 4 4 0 0 0 4-4v-41a4 4 0 0 0-1.172-2.828l-19-19a4 4 0 0 0-2.828-1.172zm40 0a4 4 0 0 0-4 4v60a4 4 0 0 0 4 4 4 4 0 0 0 4-4v-17h13.29l18.82 19.76a4 4 0 0 0 5.654 0.1387 4 4 0 0 0 0.1387-5.654l-13.76-14.45a4 4 0 0 0 1.543-0.8184l10-9a4 4 0 0 0 1.324-2.973v-21a4 4 0 0 0-1.324-2.973l-10-9a4 4 0 0 0-2.676-1.027zm59 0a4 4 0 0 0-4 4v60a4 4 0 0 0 4 4h28a4 4 0 0 0 2.676-1.027l10-9a4 4 0 0 0 1.324-2.973v-42a4 4 0 0 0-1.324-2.973l-10-9a4 4 0 0 0-2.676-1.027zm59 0a4 4 0 0 0-4 4v50a4 4 0 0 0 1.027 2.676l9 10a4 4 0 0 0 2.973 1.324h20a4 4 0 0 0 2.973-1.324l9-10a4 4 0 0 0 1.027-2.676v-50a4 4 0 0 0-4-4 4 4 0 0 0-4 4v48.46l-6.781 7.535h-16.44l-6.781-7.535v-48.46a4 4 0 0 0-4-4zm59 0a4 4 0 0 0-4 4v60a4 4 0 0 0 4 4h28a4 4 0 0 0 2.676-1.027l10-9a4 4 0 0 0 1.324-2.973v-11a4 4 0 0 0-1.172-2.828l-7.02-7.02 6.867-6.18a4 4 0 0 0 1.324-2.973v-11a4 4 0 0 0-1.172-2.828l-10-10a4 4 0 0 0-2.828-1.172zm68 0a4 4 0 0 0-2.973 1.324c-3 3.333-6 6.667-9 10a4 4 0 0 0-1.027 2.676v40a4 4 0 0 0 1.027 2.676c3 3.333 6 6.667 9 10a4 4 0 0 0 2.973 1.324h20a4 4 0 0 0 2.973-1.324c3-3.333 6-6.667 9-10a4 4 0 0 0 1.027-2.676v-40a4 4 0 0 0-1.027-2.676c-3-3.333-6-6.667-9-10a4 4 0 0 0-2.973-1.324zm50 0a4 4 0 0 0-4 4v11a4 4 0 0 0 1.332 2.98l17.67 15.81v30.21a4 4 0 0 0 4 4 4 4 0 0 0 4-4v-30.28l17.75-16.82a4 4 0 0 0 1.248-2.904v-10a4 4 0 0 0-4-4 4 4 0 0 0-4 4v8.279l-15.08 14.28-14.92-13.35v-9.211a4 4 0 0 0-4-4zm-291 8h21.46l7.535 6.781v17.44l-7.535 6.781h-21.46zm59 0h22.46l7.535 6.781v38.44l-7.535 6.781h-22.46zm118 0h22.34l7.656 7.656v7.562l-7.535 6.781h-22.46zm65.78 0h16.44c2.26 2.512 4.521 5.024 6.781 7.535v36.93c-2.26 2.512-4.521 5.024-6.781 7.535h-16.44c-2.26-2.512-4.521-5.024-6.781-7.535v-36.93c2.26-2.512 4.521-5.024 6.781-7.535zm-286.8 1.656 15 15v4.344h-30v-4.344zm221 28.34h22.34l7.656 7.656v7.562l-7.535 6.781h-22.46z" fill="#fff"/></svg>
