<svg width="480" height="320" version="1.1" viewBox="0 0 480 320" xml:space="preserve" xmlns="http://www.w3.org/2000/svg" xmlns:xlink="http://www.w3.org/1999/xlink"><defs><linearGradient id="a" x1="240" x2="240" y1="320" gradientUnits="userSpaceOnUse"><stop stop-color="#dc1500" offset="0"/><stop stop-color="#ffb02a" offset="1"/></linearGradient></defs><rect width="480" height="320" ry="24" fill="url(#a)"/><path d="m151.6 104.1c-4.658 0.7815-9.305 1.48-13.96 2.24-13.8 1.855-27.12 5.888-41.15 7.826-9.763 0.5418-18.36 3.407-28.28 2.553-1.396-0.1563-1.542 0.9268-1.625 2.094 0.07294 1.469 1.855 1.011 2.553 1.084 0.6252 2.094-2.397 0.6242-3.48 1.322-0.771 0.4584-0.7695 1.241-0.7695 2.012 0.2396 0.8544 0.936 1.01 1.707 1.166 0.5418 0.6877 1.94 0.8447 1.627 2.012-0.5522 0.9378-1.397 1.792-2.564 1.709 0.07293 0.1563 0.6981 0.3847 0.1562 0.541 0.3855 1.24 1.782 0.00119 2.793 0.3867 0.4689 0.7815 0.6262 1.635 1.168 2.406 9.523-0.2396 18.83-2.323 28.43-3.178 0.07294 0.1563 0.2304 0.2285 0.3867 0.3848-3.72 16.74-7.753 33.41-15.27 48.51-5.501 8.919-12.87 20.78-24.41 22.01-6.127 0.7085-10.15-3.71-14.88-6.502-0.1563-1.323-1.241-1.708-2.168-2.25-0.2292-0.2292-0.07342-0.7722-0.6152-0.543-0.6252 0.1563-1.324 0.4692-1.24 1.24 3.095 8.763 12.63 11.47 20.07 14.58 12.64 3.803 22.48-6.742 29.37-15.81 6.741-6.898 8.992-15.58 13.17-23.49 3.949-13.25 8.753-26.19 10.98-40.15 1.855-0.844 3.49-2.01 5.73-1.854 0.6252-0.771 2.636-1.865 2.094-3.178 3.574-0.3855 7.054-2.013 10.39-3.336-0.07293-0.1563-0.2285-0.2285-0.3848-0.3848 2.011-1.709 4.958-1.011 6.896-2.793-0.6981-2.709 3.021-1.782 3.021-4.105-0.08335-0.1563-0.7805 0.5418-1.166 0-1.157 0.08336-3.324 0.1574-2.553-1.854 4.887-1.167 10.16-1.479 15.19-2.25 0.5522-0.4689 1.396-0.4692 1.709-1.084-0.2292-1.469-1.781-1.324-2.938-1.324zm81.44 9.303c-1.168-0.1778-1.56 1.798-2.781 1.461-0.6877-0.6252-1.314 0.3026-1.855 0.6152-3.407 2.167-4.804 6.189-5.971 9.836-2.396 2.949-3.407 6.511-4.803 9.846-2.324 5.814-5.732 11.16-6.742 17.52-2.178 2.709-1.478 6.741-2.947 9.836-2.626 5.501-2.867 11.86-1.471 18.06 0.9273 0.9378 0.8551 2.334 2.168 3.105 3.491 1.938 7.283 1.313 10.62-0.3125 4.501-3.959 8.92-8.378 12.87-12.71 0.8544 1.396-1.084 2.012-0.9277 3.564-1.323 2.949-0.6262 5.273-1.168 8.523 1.011 0.6148 1.47 1.938 0.9277 3.021 2.709 5.189 8.67 1.239 12.47 0.6973-1.782 1.552-1.709 3.877-3.334 5.43 0 1.167-1.397 1.395-1.084 2.791-1.625 0.8544-1.168 3.262-2.793 3.877-0.3855 1.782-2.249 3.094-2.635 4.646 0.5418 1 1.238-0.3843 1.863 0.2305-0.1563 1.011-0.541 2.093-0.3848 2.947 2.938 0 3.481-3.334 5.189-5.043 0.6981 0.6981-0.6157 2.71 1.166 2.252 0.9273-1.313 1.782-2.71 3.178-3.877 0 0.6252-0.5416 1.396-0.625 2.25 0.2292 0.1563 0.4589 0.4688 0.7715 0.3125 2.865-2.792 4.73-6.667 6.512-10.23 0.1563-0.4689 1.011-2.011 1.709-1.084 0.07293 0.3126 0.7714 0.5418 1.084 0.1562 0.5418-2.011 2.095-3.636 2.793-5.574 4.345-6.741 7.825-13.78 11.54-20.77 0.4585-0.6877 1.082-1.699 2.01-1.699-0.6148-1.709 1.398-0.9379 2.096-1.865 0.2292 0.07293 0.1562 0.3847 0.1562 0.541 0.5522-0.2292 1.238-0.2284 1.707-0.6973 2.865-0.2292 4.105-3.334 6.814-3.949 0.9378-0.4584 2.324-0.3851 2.793-1.469 1.938-0.07294 3.408-1.781 5.273-1.469 0.3126 3.334-0.6993 7.21-0.3867 10.62-0.7814 1.938 0.6152 3.637 0.9277 5.189-1.938 2.865-0.3126 6.512 0 9.689 0.6148-0.4689 0.1566-2.168 1.084-2.637 0.8544 0.8544 0 2.022 0 2.949 1.469 1.24 0.2289 3.875 1.312 5.428-0.3126 0.8544 0.1555 1.782 0.541 2.637 0.6981 0.4585 1.085-1.011 1.471 0 0.6148 1.24-0.9276 1.156-1.24 1.625 0.5418 0.6981 0.3018 2.012 1.469 2.096 0.1563 1.24 0.6138 3.177-1.168 3.719 0.6147 0.3855 0.3859 1.083 0.9277 1.469 0.3855 0 0.7714-0.07218 0.9277-0.3848 0.9378 0.9273 0.625 2.635 0.625 3.719 0.2292 0.3126 0.6993 0.6151 0.543 1.084 0.6148 0.3855 0.5402-0.5422 1.082-0.9277-0.3855-2.865 0.8556-6.271 0.3867-9.449 3.334-22.55 2.167-47.66 7.439-69.35-0.3855-0.3126-0.0012-0.8554-0.3867-1.168-2.48-1.24-4.344-0.5421-7.053-1.24-1 0.07293-0.6882-1.094-0.7715-1.709-0.9378-0.4689-2.177-1.082-3.49-1.082-1.313 0.6981-1.385 2.407-1.469 3.49 0.3126 4.105-4.106 5.731-6.742 8.367 0.07293 0.3855-0.6244 0.4673-0.3848 0.9258-2.021 1.323-3.335 3.261-4.658 5.043-1.782 1.167-1.47 3.564-3.721 4.262 0.5418 3.334-4.5 3.262-3.875 6.127-0.2292 0.3855-0.6152 0.4682-0.9277 0.2285-0.9273 2.021-3.489 3.335-3.875 5.742-2.553 2.324-2.252 6.585-6.201 7.439-0.6981 2.251-3.094 2.094-4.646 3.334-0.771 1.709-3.021 2.094-4.646 3.021-1.011 0.9378 0.9278 0.7816 0.6152 1.865-0.08336 1.386-1.782 2.084-1.553 3.324 1.709-0.4584 3.49-1.24 5.043-1.469-2.24 4.564-6.43 7.897-8.754 12.47-0.3855 0.4689-0.7695-0.07219-1.082-0.3848-1.084-0.1563-2.011-1.323-2.396-2.25-0.5418-1.396 0.07295-2.866 0.1562-4.262 5.116-15.12 11.16-29.76 18.98-43.71v-1.166c0.07294-1.48-1.398-1.864-2.408-2.406-0.1563-0.6981 0.47-1.085 0.6992-1.627 0.4689-1.084-0.3859-2.094-0.9277-3.021-1.552-0.8544-2.865-0.771-4.418 0-0.6252-1.625-2.407-0.6144-3.334-1.469-2.324 1.782-3.094 4.501-4.646 6.668 0.07294 1.167-1.783 1.709-1.168 2.793-1.792 0.9378-2.177 3.563-3.49 5.271-2.094 1.313 1.626 2.324-0.3848 3.721-0.5418 0.2396-1.167 1.01-1.709 0.6973 0.2292 0.6148-0.3855 0.9289-0.1562 1.471-1.24 1.24-0.8556 2.865-0.3867 4.334-1.865 0.771-1.865 3.335-1.865 5.346-2.094 1.313-0.5412 4.105-2.25 5.574-0.3855 5.418-6.2 9.136-9.992 12.63-0.771 1.855-2.939 2.324-3.949 3.949-2.636 1.386-5.033 5.492-8.523 5.033-1.24-0.6148-1.313-2.25-0.9277-3.406 2.251-7.992 4.732-15.89 9.848-22.63 1.084-4.491 3.646-8.438 6.355-12.31 1.552-2.094 0.3964-5.346 2.949-7.055 1.542-3.72 4.251-6.981 5.574-10.77-0.7815-1.709-2.094-1.239-3.334-2.094 2.167-1.938-1.783-2.95-0.543-4.961-0.1563-0.3855-0.4576-0.6978-0.7598-0.9375-0.2032-0.1263-0.3859-0.1953-0.5527-0.2207zm119.7 1.732c-1.625 1.698-3.562-0.2308-5.188 0.9258-1.625 2.011-4.576 1.47-6.67 1.855-3.095-0.5418-6.115 1.312-9.293 1.625-1.313 1.313-3.481 1.24-5.033 2.24-0.07289-0.08339-0.1562-0.08335-0.1562-0.1562-1.552 0.3855-3.094 1.396-4.646 1.312-0.8544-0.08336-1.167 0.6984-1.553 1.24-3.022 0.4689-5.73 2.793-8.908 3.564-1.24 1.24-0.5426 3.334-2.012 4.49-1.323-0.08336-2.168 1.626-3.564 0.9277 0.3126 1.396-0.541 2.166-0.541 3.719 0.6148 2.178 3.408 0.08466 3.721 2.408-0.1563 3.793 4.876-0.6983 4.803 3.178 3.793 2.094 6.97-2.178 10.22-2.793-0.4689 2.48-1.937 4.492-2.406 7.055-1.24 1.323-1.47 3.334-1.855 4.803-3.178 6.585-4.573 13.95-7.053 20.85-0.2292 0.6148-0.4697 1.855 0.541 2.012-0.08336 1.469-1.093 2.553-2.406 3.021-1.323 2.865-1.854 6.043-3.178 8.908 0.6147 0.3022 1.541 0.7706 0.541 1.469-1.709-0.1563-0.4692 2.323-1.24 3.178 1.24 1.084-0.2277 1.47-0.9258 2.012-1.167 3.334-4.877 7.127-2.637 10.23-1.698 1.396 0 3.261 0 4.887 1.323 0.6877 1.239-1.71 2.25-2.408 0.6252 0.7814 0.0834 2.407 0 2.949 2.021-1.709 1.709-5.033 2.793-7.439 0.2292-0.8544 0.7699-1.313 1.854-1.084 0.7815 1.084-0.07182 2.167 0.6992 3.334 2.553-5.585 4.803-11.31 7.283-16.97 2.011 0.6148-0.08299 2.708 1.084 3.562 0.771-0.5418 1.385-0.9262 1.697-1.854 2.876-13.17 5.272-26.42 9.461-39.05 0.6148 0 0.3859 0.7715 0.9277 0.7715 1.625-3.491 1.927-7.668 4.334-10.62 0.2292 0.08336 0.9285 0.468 0.543 0.6973 0 0.4689 0.07213 0.8548 0.541 0.9277 0.8544-1.698 2.167-3.178 2.406-5.189 0.3022-2.334 3.096-1.553 4.492-2.793 5.345-0.9378 11.3-0.1561 14.64 4.105 0.9378 2.334-0.6977 4.106-1.469 5.971-2.324 2.938-4.804 5.814-6.658 8.908-0.8544 0.3126-1.157-0.541-1.855-0.541-2.865 2.011-4.344-3.094-6.896-3.021-0.1563 0.4689-1.47 1.47-0.7715 2.48 0.9273 1.782 4.418 2.396 3.178 4.803-1.469 0.5418-3.022 0.6148-4.418-0.1562-1.709 0.2396-1.168 2.333-2.793 2.562-0.08335 0.844 0.9276 0.7706 1.24 1.469 1.782 0.2292 2.408 2.325 3.721 3.18 1.855-0.5418 3.177 0.936 4.646 1.707 0.7815 2.636 3.802 3.408 5.428 5.189 0.07294 2.251 2.554 3.721 3.721 5.43 1.167 0.7085 3.021 0.6245 3.334 2.406 10.39 5.116 16.58 15.04 25.88 21.93 11.16 6.658 20.61 16.28 31.61 23.25 0.3855 0.3126 1.24 0.2281 0.9277-0.543-10.22-5.429-17.82-15.73-27.35-22.16-0.1563-0.2292 0.3125-0.3118 0.1562-0.541-2.251-2.48-5.043-4.887-7.752-7.439-7.137-4.189-12.78-11.86-20.15-15.42 0.5418-0.3126 1.396-0.1555 1.709-0.541-3.793-3.178-7.67-6.2-11.16-10.08-3.647-0.771-4.491-5.189-7.439-7.283-0.1563-0.4689-1.084-1.012-0.1563-1.48 1.24 0.6981 2.407 2.023 3.334 3.18 0.6148 0.6148 2.865-0.6255 2.24 1.312 1.552 1.396 3.95 2.093 5.346 3.875 0.5418 0.6981 2.021 1.167 2.094-0.1562 0.9378 0.8544 1.95 2.011 2.564 3.178 3.793 2.553 5.189 7.597 9.836 8.91 1.938 2.324 3.719 5.345 6.355 6.668 8.44 5.574 15.49 12.09 23.63 18.44 1.782 1.24 3.096 2.793 4.805 3.877 2.251 0.9273 4.032 5.574 6.512 3.334-0.3959-0.8544-1.168-2.021-2.252-2.406-1.625-3.876-5.658-3.106-7.596-6.67-4.407-3.022-8.438-7.283-12.47-10.77-3.334-4.876-9.222-6.428-12.24-11.77-2.021-2.167-5.272-2.323-6.512-4.959-4.345-3.407-6.897-8.441-10.62-12.09-1.167-0.8544-2.636-1.865-3.334-3.021 8.45-4.189 19.21-12.24 19.68-22.7 0.2292-5.501-1.865-10.08-6.127-13.71-3.563-2.261-7.126-5.657-11.16-5.584-1.782-1.709-4.575 0.2295-6.336-0.9062zm-200.3 1.631c-0.9222-0.02463-1.9 0.3716-2.564 0.7754-1.157 1.782-3.322 0.6882-5.188 0.7715-2.324 0-1.855 2.708-2.396 3.875-1.709 0.3855-1.011-1.552-1.709-2.25-0.9378 0.2292-1.398-0.2299-2.252 0.2285-0.4689 2.011-1.166 3.951-2.406 5.732-3.324 2.636-3.72 6.823-5.574 10.23-1.636 0.07294-0.1565 1.543-1.709 1.855-1.094 1.469-1.397 3.793-3.105 5.033-0.3855 2.719-3.949 5.115-3.949 8.137 0 1.313-1.166 2.552-2.406 3.406 0.771 2.324-1.635 3.951-2.406 5.889-0.6981 0.3126-1.783 0.07138-2.096 0.9258-1.469 0-3.332 0.6254-4.416 1.709 0.3022 0.2292 1.311 0.2297 0.9258 0.7715-0.3126 1.855 2.095 0.9269 2.793 1.469-0.2396 0.8544-1.01 1.554-1.322 2.408 0.8544 1.48-1.626 1.551-0.7715 2.947-1.938 2.396-3.251 5.19-4.262 7.826-1.313 0.844-0.9281 2.397-2.012 3.324-1.24 2.709-3.105 5.417-4.115 8.365 1.323 0.9378-1.167 1.626-1.084 2.637-1.396 0-0.3116 1.396-1.166 1.865 0.1563 1.938-2.012 2.783-2.012 5.033-0.1563 1.855 0.771 2.781 0.1562 4.803 2.48-1.24 2.793-4.334 4.262-6.512h0.3965c0.6147 0.9273-0.2408 2.25-0.6992 3.178-0.3855 0.4585-0.2281 1.698 0.543 1.469 1.698-3.647 3.02-7.523 5.344-10.77 0.3126 1.698-0.311 3.481-0.9258 5.033 1.709 1.396-0.771 3.334 0 4.803 0.9273-0.844 1.239-2.313 1.854-3.48-0.5418-2.719 2.866-3.262 2.637-5.814 4.491-9.45 8.21-19.21 13.17-28.43 1.323 0.08335 2.167-1.01 3.178-1.469 4.647-1.396 9.691-3.105 14.34-5.043l0.3848 0.3848c0.1563 4.803 0.3867 10.77 0.543 15.81-1.084 2.563 1.853 4.26 0.7695 7.053-1.542 1.24 0.4688 3.106 0.3125 4.805 0.6252 0.7815 0.7816 2.178 1.865 1.865 0.9273-1.011-0.1559-3.262 0.9277-3.877-1.011 2.792 2.782 4.032 1.312 6.512 0.1563 1.323 0.2398 2.792 1.709 3.334 0.6981-2.094 9.5e-4 -4.958 1.324-7.209 1.084 0.2292 1.155 1.939 2.01 2.793 1.782 1.011 1.085-1.481 1.471-2.252-0.2396-17.82 0.1447-36.8 1.854-54.47-0.07289-3.261 1.469-6.668-0.1562-9.533-3.168 0.2292-0.9991-3.72-1.854-5.346-0.4337-0.4064-0.9682-0.5731-1.521-0.5879zm40.03 1.816c-4.647 0.6981-9.065 1.699-13.01 3.949 0 0.6981-0.7824 0.7826-1.324 0.6992-3.251 1.782-4.573 5.959-7.668 7.668-1.542 3.407-5.034 5.501-6.117 9.064-5.97 8.909-6.511 21.38-3.875 32 2.563 5.741 6.897 11.39 13.02 13.79 4.189 2.48 9.535 3.25 14.11 2.01 3.407-0.5418 4.885-3.948 7.053-6.271 1.782-0.1563 2.325 1.469 3.408 2.553 2.167-0.3855 0.8541 3.802 3.49 2.406 0.3855 0.3959-7.5e-4 1.012 0.3848 1.324 0.3022-0.1563 0.6881-0.1574 0.9277-0.543-0.1563-1.323-0.541-2.718-0.3848-3.875-2.865-12.32 4.176-23.01 4.26-35.02-1.167-0.9273-2.094 1.01-3.334 1.166-0.4689-0.2396-0.3015-0.7076-0.3848-1.166-0.3126-1.24-1.323-1.47-2.406-0.9277-2.324 2.553-5.43 3.25-8.139 4.646-0.9273 0.6981-3.563-0.7708-3.021 1.553-2.011 0.4585-4.804 0.7702-5.346 3.094-3.876 0.2396-2.551 4.814-5.969 5.814-0.6252 0.6252 0.2284 1.011 0.6973 1.084 3.251-2.167 6.97-3.177 10.46-4.803 0.5418-0.6981 1.312 0.3117 0.541 0.6973 1.855-0.07293 3.481-1.24 5.189-1.084-1.167 2.865-1.479 5.346-2.25 8.367 0.6148 2.865-1.782 5.731 0.3848 8.367-1.084 0.8544 0.7715 1.323 0.7715 2.25-2.949 2.563-6.512 4.105-10.62 3.178-4.647-0.771-8.45-4.334-11.7-7.668-3.959-5.731-3.647-14.1-1.709-20.61 3.876-9.753 13.87-16.81 23.09-20.3 2.563-0.6877 5.272-0.7718 7.596-2.012 0.8544-0.8544 7.5e-4 -1.866-0.3848-2.637 0.4689-0.2292 0.9368-0.468 1.322-0.6973 0.6252-0.8544-0.2296-1.709-0.9277-1.553-2.563 1.084-2.324-2.251-4.418-2.793 1.167-3.251-2.781-1.24-3.719-3.73zm95.55 14.89c-0.07294 0.6148 0.1555 1.011 0.541 1.303 0.5522 0.07294 1.085-0.6152 1.168-0.9277 0.07294 2.094-1.397 3.804-1.168 5.814-1 0.3126-1.24 1.552-1.084 2.406 1.313 1.084-0.9273 1.552-0.1562 3.178-2.324-1.48-4.033 0.854-5.971 1.469-0.3855 2.021-3.021 1.325-3.719 2.408h-0.541c2.48-5.731 6.897-10.62 10.93-15.65zm-146.1 0.7812c0.2292 5.262-0.3842 10.15-0.2383 15.42-2.396 1.084-5.262 1.782-6.814 4.105-1.396-0.5418-2.637 0.1567-3.721 0.7715-0.6252 0.9378-0.3953 2.407-2.25 2.021-0.2292-0.4689-0.2292-1.01 0-1.479 3.261-6.512 6.513-12.94 10.39-19.14 0.6981 1.865 1.625-0.2297 2.094-0.7715 0-0.3855 0.3847-0.6152 0.541-0.9277zm191 24.94c-0.7306 0.01961-1.365 0.443-1.824 1.654 1.396 1.167 0.1563 1.865 0 3.178 0.6981 1.157 2.094 0.9277 3.334 0.9277 0.8544 1.782 3.022 0.8548 4.262 1.084 0.7815 1.24 1.323 2.481 2.406 3.564 3.574 1.938 6.356 5.416 9.148 8.521 0.3855 1.469 1.939 1.553 2.793 2.637 2.876 0.771 3.178 4.574 6.127 5.73 3.72 2.167 7.678 4.491 9.846 8.367 7.127 1.782 11.16 10 17.52 13.25 1.084 0.9273 2.323 2.01 3.719 1.854 9.617 8.596 20.23 15.04 29.92 23.4 0.3126 0.3126 1.01 0.3126 1.166 0-2.324-3.418-6.439-6.356-9.533-9.305-4.501-3.803-10.15-4.886-14.34-9.689-6.512-6.116-11.86-12.09-18.91-17.66-2.553-0.6981-4.72-2.252-7.127-3.492-2.021-3.959-6.357-6.824-9.848-9.689-0.4585-2.636-3.481-3.094-5.189-4.646-3.418-5.585-9.533-9.149-13.02-14.49-1.084-0.07294-1.939-0.7707-2.793-1.312-0.4689-1.011-1.239-1.782-2.26-2.23-1.705 0.2149-3.779-1.697-5.387-1.654zm-0.627 8.311c-0.5058-0.00696-1.025 0.1015-1.562 0.377-0.9273 2.251 2.25 1.938 3.334 3.021 0.2292 0.4584 0.2297 1.241 0.7715 1.471 0.9273 3.022 4.335 2.322 6.273 4.104 0.6147 5.814 7.898 6.972 9.836 12.24 5.272 3.491 8.606 10.3 14.88 11.16 0.4689 0.9378 0.542 2.095 1.553 2.637 18.14 15.26 37.58 27.98 55.95 42.39 0.9273 0.3022 1.782 0.9277 2.793 0.9277-6.741-6.2-14.72-11.55-21.78-17.52-1.313-1.084-3.791-1.083-4.104-3.334-1.709 0.2396-2.866-1.386-4.033-2.24 0.1563-1.709-2.323-0.8538-2.094-2.406-2.324-1.782-5.116-3.251-7.596-5.189-0.1563-2.782-3.481-1.782-4.648-4.105-2.949-0.3126-4.104-3.719-6.74-4.803-0.1459-1-0.8447-2.168-2.012-1.699-1.396-1.396-4.491-1.855-4.105-4.262-2.021-1.938-3.958-5.658-7.209-4.262-1.625-2.094-3.096-4.261-4.336-6.512-3.876-3.491-8.449-6.814-11.16-11.54 0.07294-2.011-1.24-3.49-2.793-4.803-1.552-1.011-3.49-1.709-4.803-3.021-2.269-0.381-4.228-2.599-6.42-2.629zm-13.27 23.48c-2.865 0.8544-1.47 4.419-2.637 6.514-0.2292 0.3021-0.5422 0.3848-0.9277 0.3848-0.2292 0.3126-0.6862 0.5422-0.7695 0.9277 1.011 0.2292 0.9379 1.469 1.709 1.625 1.782-2.636 3.177-5.502 3.562-8.68-0.3126-0.3126-0.6249-0.6256-0.9375-0.7715zm94.55 19.55c-0.278-0.00663-0.5676 0.1048-0.8574 0.375 0.6981 2.865 4.262 3.251 5.971 5.73 1.855 0.1459 3.481 3.334 5.033 1.469-2.407-1.011-3.491-3.792-5.814-4.959-1.167 0.07293-1.866-0.9387-2.793-1.324-0.3725-0.6949-0.9274-1.276-1.539-1.291zm11.46 8.189c-0.6981 0.2292-0.3014 0.9269-0.3848 1.469 0.6252 1.157 1.791 1.697 2.947 2.01 4.105 2.178 7.982 5.429 12.47 5.971-3.334-2.719-7.357-4.261-11-6.668-1.469-0.6148-2.395-2.552-4.031-2.781zm-4.674 5.111c-0.469 0.02064-0.7996 0.5637-0.3594 1.004 2.636 1.938 5.273 3.877 8.139 5.189 0.5418 0.1563 1.385 0.771 1.854 0-3.022-1.855-5.959-4.565-9.293-6.117-0.1153-0.05861-0.2316-0.08094-0.3398-0.07618zm3.348 10.77c-0.2673-0.00199-0.5209 0.1708-0.7578 0.625 1.084 0.9378 2.479 2.251 3.719 1.709v-0.3965c-1.069-0.05583-2.088-1.931-2.961-1.938z" fill="#fff"/></svg>
