<svg width="480" height="320" version="1.1" viewBox="0 0 480 320" xml:space="preserve" xmlns="http://www.w3.org/2000/svg"><defs><linearGradient id="a" x1="54.14" x2="54.14" y1="-10.72" y2="84.66" gradientTransform="scale(3.78)" gradientUnits="userSpaceOnUse"><stop stop-color="#ff1523" offset="0"/><stop stop-color="#102b56" offset="1"/></linearGradient></defs><rect width="480" height="320" ry="24" fill="url(#a)"/><path d="m331 133.8c-7.916 0-14.81 2.747-18.45 6.809l2.549-5.859h-44.65v16.08h20.72l-16.58 34.26h18.62l16.65-38.26c-0.00415 0.1087-0.01367 0.2168-0.01367 0.3262 0 4.927 4.229 9.206 10.51 11.53-6.916 2.479-11.62 7.304-11.62 12.86 0 8.083 9.968 14.63 22.26 14.63s22.26-6.552 22.26-14.63c3.3e-4 -0.1771-0.01619-0.3518-0.02539-0.5273 2.912 8.518 9.51 15.16 20.38 15.16 15.18 0 22.03-12.95 22.14-25.88 0.106 12.93 6.956 25.88 22.14 25.88 15.3 0 22.13-13.16 22.13-26.19 0-6.739-1.844-13.02-5.209-17.69-3.979-5.562-9.842-8.5-16.94-8.5-7.094 0-12.96 2.938-16.94 8.5-3.308 4.613-5.144 10.79-5.193 17.41-0.05935-6.635-1.894-12.81-5.213-17.41-3.989-5.562-9.844-8.5-16.94-8.5-7.094 0-12.96 2.938-16.94 8.5-3.354 4.677-5.197 10.96-5.197 17.69 0 2.355 0.227 4.713 0.6836 6.998-1.774-3.561-5.565-6.526-10.5-8.301 6.281-2.312 10.51-6.602 10.51-11.53 0-7.375-9.469-13.36-21.16-13.36zm-145.1 0.8398c-1.94-0.03329-3.893 0.9076-5.002 2.516-0.8542 1.146-1.032 2.603-1.49 3.926-4.26 14.67-8.531 29.32-12.75 44h7.824c1.208-4.229 2.458-8.439 3.666-12.67 5.073-0.0104 10.13 0 15.2 0 1.24 4.219 2.447 8.449 3.666 12.67 2.635-0.0104 5.26 0.00908 7.885-0.01172-4.448-15.28-8.894-30.56-13.34-45.85-0.5625-2.073-2.189-3.907-4.324-4.396-0.4355-0.1152-0.8824-0.174-1.33-0.1816zm-55.65 0.02149c-1.759 0.01476-3.523 0.7637-4.625 2.17-1.104 1.24-1.292 2.948-1.803 4.469-4.239 14.59-8.479 29.19-12.7 43.78 2.615 0 5.23-0.0104 7.834 0 1.219-4.219 2.448-8.447 3.688-12.67 5.073 0 10.14-0.0104 15.22 0 1.219 4.219 2.428 8.447 3.668 12.67h7.875c-4.437-15.29-8.908-30.58-13.36-45.88-0.3542-1.229-1.04-2.374-2.02-3.197-1.048-0.916-2.413-1.349-3.781-1.338zm-67.84 0.08789c0 1.49 0.009111 2.967-0.01172 4.457-0.1042 4.385-0.375 8.77-1.031 13.1-0.5208 3.417-1.291 6.813-2.729 9.969-1.219 2.74-2.823 5.324-4.844 7.553-1.958 2.156-4.281 3.989-6.854 5.354-2.167 1.135-4.5 2.001-6.938 2.365v7.52c2.021-0.2812 4.01-0.7904 5.938-1.457 3.406-1.177 6.645-2.917 9.363-5.303 3.042-2.573 5.74-5.635 7.459-9.26 1.052-2.25 1.906-4.614 2.312-7.072 0.5937-3.562 0.8236-7.167 0.9902-10.77 0.09375-2.5 0.1667-4.988 0.1562-7.488 0-2.99 0.01042-5.979 0-8.969h-3.812zm12.38 0c-2.333 0.0104-4.678-6.4e-4 -7.021 0.00976 0.01042 11.43 0 22.85 0 34.27 0.01042 5.354-0.02148 10.7 0.009765 16.05 2.333-0.0208 4.678-0.01172 7.012-0.01172v-50.32zm1.562 0c0 2.75-0.001299 5.499-0.01172 8.26-0.03125 4.854 0.1367 9.719 0.5742 14.56 0.2292 2.24 0.4772 4.489 1.061 6.666 0.6354 2.167 1.449 4.291 2.574 6.26 1.437 2.521 3.344 4.76 5.469 6.719 1.292 1.198 2.634 2.333 4.113 3.281 2.031 1.312 4.231 2.343 6.512 3.135 1.917 0.6458 3.874 1.167 5.885 1.438v-7.52c-1.021-0.1458-2.031-0.3965-3.01-0.709-3.51-1.125-6.751-3.083-9.428-5.635-2.802-2.667-4.948-5.979-6.438-9.531-1.573-3.677-2.271-7.656-2.771-11.6-0.6042-5.083-0.78-10.21-0.7383-15.32h-3.791zm67.19 0v7.676c3.5 0 6.988-0.0104 10.49 0v42.66h7.51v-42.66h10.48v-7.676h-28.48zm71.97 0c-0.7604-0.02083-1.531 0.06251-2.25 0.3125-2.458 0.7812-4.292 3.218-4.303 5.801 0.0208 14.75-6.3e-4 29.49 0.00976 44.23h7.562c0-13.7-0.01039-27.38 0-41.08-0.01041-0.8958 0.8125-1.656 1.688-1.635 1.937-0.0208 3.875-0.00132 5.812-0.01172 2.812-0.09375 5.458 2.042 6.062 4.771 0.5208 2.104 0.5729 4.468-0.5625 6.385-1.49 2.552-4.165 4.178-6.863 5.209-1.417 0.5521-2.688 1.614-3.219 3.072-0.6875 1.896-0.3756 4.093 0.7598 5.76 3.864 5.833 7.708 11.7 11.59 17.53 2.969-0.0104 5.926 0 8.895 0-4.052-6.083-8.188-12.11-12.16-18.25-0.4167-0.8541-0.3743-2.051 0.4277-2.666 1.469-1.083 3.178-1.834 4.553-3.053 2.594-2.25 4.021-5.624 4.281-9.01 0.3854-3.229 0.2291-6.656-1.281-9.604-2.177-4.542-6.99-7.666-12.03-7.76-2.99 0-5.989 0.0104-8.979 0zm29.14 0c0 16.78 6.4e-4 33.55-0.00976 50.33 2.656 0 5.311-0.0104 7.957 0 0.0208-16.77 0.00977-33.55 0.00977-50.33h-7.957zm86.34 9.863c2.385 0 4.322 1.937 4.322 4.322s-1.937 4.324-4.322 4.324-4.322-1.939-4.322-4.324 1.937-4.322 4.322-4.322zm-145.2 1.553c1.812 6.364 3.677 12.71 5.5 19.07h-11.02c1.823-6.354 3.678-12.71 5.521-19.07zm-55.53 0.04102c1.854 6.344 3.688 12.69 5.531 19.04-3.687 0-7.375 0.01103-11.06-0.00977 1.844-6.344 3.667-12.7 5.531-19.03zm243.3 3.104c5.333 0 5.916 7.157 5.916 10.62 0 3.5-0.5932 10.74-5.916 10.74-5.333 0-5.916-7.24-5.916-10.74 0-3.458 0.5828-10.62 5.916-10.62zm44.28 0c5.333 0 5.916 7.157 5.916 10.62 0 3.5-0.5828 10.74-5.916 10.74-5.333 0-5.918-7.24-5.918-10.74 0-3.458 0.5848-10.62 5.918-10.62zm-86.87 14.61c2.854 0 5.166 2.312 5.166 5.166 0 2.844-2.312 5.166-5.166 5.166s-5.166-2.312-5.166-5.166 2.312-5.166 5.166-5.166z" fill="#fff"/></svg>
