<svg width="480" height="320" version="1.1" viewBox="0 0 127 84.667" xmlns="http://www.w3.org/2000/svg">
 <defs>
  <linearGradient id="a" x1="116.42" x2="78.104" y1="-49.873" y2="117.04" gradientUnits="userSpaceOnUse">
   <stop stop-color="#d4d4d4" offset="0"/>
   <stop stop-color="#0e141f" offset=".67249"/>
   <stop stop-color="#0d52bf" offset="1"/>
  </linearGradient>
 </defs>
 <rect width="127" height="84.667" ry="4.2333" fill="url(#a)" stroke-linecap="square" stroke-linejoin="round" stroke-width=".52917" style="paint-order:stroke fill markers"/>
 <g transform="rotate(-90 .21411 .21411)" fill="#fff" stroke-width=".26458" aria-label="5200">
  <path d="m-50.892 116.35c1.3019 0 2.2099-0.88395 2.2099-2.1077 0-1.1846-0.82382-2.0385-1.9423-2.0385-0.4991 0-0.94108 0.19844-1.1696 0.46904h-0.03608l0.17739-1.6326h2.6488v-0.93206h-3.5719l-0.32171 3.175 1.0072 0.16536c0.20746-0.2285 0.59832-0.38184 0.96814-0.37884 0.67649 3e-3 1.1636 0.50211 1.1606 1.1996 3e-3 0.68853-0.47204 1.1786-1.1305 1.1786-0.55623 0-1.0042-0.35178-1.0433-0.85689h-1.0824c0.03007 1.0222 0.92304 1.7589 2.1257 1.7589z"/>
  <path d="m-47.678 116.27h4.2213v-0.93205h-2.6819v-0.0421l1.0613-1.0794c1.1966-1.1485 1.5274-1.7078 1.5274-2.4023 0-1.0313-0.83885-1.7859-2.0776-1.7859-1.2207 0-2.0866 0.75767-2.0866 1.9272h1.0613c0-0.62838 0.39688-1.0222 1.0102-1.0222 0.5863 0 1.0223 0.35779 1.0223 0.93807 0 0.51413-0.31269 0.88094-0.92003 1.4973l-2.1377 2.0956z"/>
  <path d="m-40.14 116.39c1.4853 3e-3 2.3722-1.1696 2.3722-3.19 0-2.0084-0.89297-3.169-2.3722-3.169s-2.3692 1.1576-2.3722 3.169c0 2.0174 0.88696 3.19 2.3722 3.19zm0-0.94108c-0.76669 0-1.2478-0.7697-1.2447-2.249 3e-3 -1.4672 0.48106-2.24 1.2447-2.24 0.76669 0 1.2447 0.77271 1.2478 2.24 0 1.4793-0.47806 2.249-1.2478 2.249z"/>
  <path d="m-34.494 116.39c1.4853 3e-3 2.3722-1.1696 2.3722-3.19 0-2.0084-0.89297-3.169-2.3722-3.169-1.4793 0-2.3692 1.1576-2.3722 3.169 0 2.0174 0.88696 3.19 2.3722 3.19zm0-0.94108c-0.76669 0-1.2478-0.7697-1.2448-2.249 3e-3 -1.4672 0.48106-2.24 1.2448-2.24 0.76669 0 1.2447 0.77271 1.2478 2.24 0 1.4793-0.47806 2.249-1.2478 2.249z"/>
 </g>
 <style type="text/css">.st0{fill:#FC0C18;}
	.st1{fill:#FC0C18;}</style>
 <path d="m19.627 31.221v6.7495c0 3.284-1.2765 6.4923-3.715 8.7344-1.5323 1.4119-3.366 2.3019-5.3289 2.9363v3.805c2.0911-0.28678 4.0539-0.84611 5.8431-2.0164 4.054-2.6497 5.7371-7.171 5.7371-11.859v-8.3494zm3.0655 0v22.225h3.4722v-22.225zm4.008 0v8.3494c0 4.2202 1.4117 8.4626 4.7863 11.173 2.0006 1.6003 4.3037 2.363 6.795 2.7027v-3.805c-1.6609-0.53618-3.2238-1.2378-4.6054-2.3172-2.8686-2.2497-4.4395-5.7372-4.4395-9.3535v-6.7495zm22.724 0c-2.0826 0-3.2404 1.2748-3.7843 3.1554l-5.58 19.07h5.58l1.111-4.0721h5.3387l1.1183 4.0721h5.5723l-5.5723-19.07c-0.55172-1.8806-1.7091-3.1554-3.7838-3.1554zm25.566 0c-2.0748 0-3.2327 1.2748-3.7843 3.1554l-5.5723 19.07h5.5723l1.111-4.0721h5.347l1.111 4.0721h5.5713l-5.5713-19.07c-0.55156-1.8806-1.71-3.1554-3.7848-3.1554zm-19.505 0.19379v4.8969h4.0881v17.134h5.2917v-17.134h4.0871v-4.8969zm33.097 0c-2.6343 0-4.0949 1.7265-4.0949 4.2985v17.733h5.2917v-8.5013l4.9806 8.5013h5.6886l-5.6017-9.7757c1.2044-0.4897 2.1903-1.1348 2.9208-2.2459 0.68403-1.0492 1.0025-2.2461 1.0025-3.4975 0-2.2147-0.91584-4.3126-2.8122-5.5403-0.89358-0.57531-2.0048-0.97204-3.0774-0.97204zm11.96 0v22.031h5.2912v-22.031zm-10.763 4.8969h1.6164c1.2198 0 2.2066 0.76142 2.2066 2.0355 0 0.66082-0.23328 1.3521-0.69195 1.834-0.78485 0.83932-2.0665 0.86243-3.1311 0.87024zm-40.354 3.2789 1.3364 4.8953h-2.6805zm25.566 0 1.3364 4.8953h-2.6727z" fill="#fff" fill-rule="evenodd"/>
</svg>
