<svg width="480" height="320" version="1.1" viewBox="0 0 127 84.667" xmlns="http://www.w3.org/2000/svg" xmlns:xlink="http://www.w3.org/1999/xlink">
 <defs>
  <linearGradient id="a" x1="51.036" x2="77.99" y1="-57.176" y2="104.66" gradientUnits="userSpaceOnUse">
   <stop stop-color="#ed5353" offset="0"/>
   <stop stop-color="#0e141f" offset=".69833"/>
   <stop stop-color="#c6262e" offset="1"/>
  </linearGradient>
 </defs>
 <rect width="127" height="84.667" ry="4.2333" fill="url(#a)" stroke-linecap="square" stroke-linejoin="round" stroke-width=".52917" style="paint-order:stroke fill markers"/>
 <g transform="translate(0 1.3494)">
  <path d="m10.583 50.235v-1.5297l1.6546-0.68427c2.9696-1.2281 5.5607-4.5096 6.3853-8.0867 0.16012-0.69453 0.29428-3.1728 0.29815-5.5073l0.0071-4.2445h2.0144l-0.0061 6.115c-0.0056 5.6613-0.05588 6.256-0.67719 8.0161-1.5578 4.4128-4.9717 7.4512-8.3721 7.4512h-1.3041zm10.935-9.2614v-10.791h2.8776v21.582h-2.8776zm9.8598 10.084c-2.8699-1.3362-5.313-4.7241-6.0886-8.4435-0.1749-0.8387-0.318-3.9789-0.318-6.9783v-5.4534h1.9552l0.12718 4.6762c0.14587 5.3628 0.50425 6.804 2.3727 9.5411 1.2737 1.8659 3.3196 3.4483 5.0663 3.9187l1.1259 0.30318v3.1432l-1.3669-0.0032c-0.83972-0.0022-1.948-0.27338-2.8738-0.70437zm6.981-0.50519c0.2258-0.67849 1.6422-5.1832 3.1475-10.01 3.1428-10.078 3.3032-10.36 5.9054-10.36 1.2273 0 1.5556 0.1311 2.3695 0.94608 0.84488 0.846 1.2492 1.9469 3.8225 10.407 1.5827 5.2037 2.9195 9.634 2.9707 9.8451 0.07228 0.29822-0.47983 0.38384-2.4752 0.38384h-2.5683l-1.0126-3.7409h-6.2463l-0.52897 1.7985-0.52897 1.7985-5.2658 0.16508zm10.68-7.3486c-0.07858-0.27697-0.43199-1.928-0.78536-3.669-0.35338-1.741-0.71867-3.2549-0.81176-3.3643-0.09308-0.10938-0.56601 1.5417-1.0509 3.669l-0.88167 3.8679h1.8363c1.6114 0 1.8188-0.06167 1.6934-0.50359zm9.3125-0.07189v-8.6329h-4.0287v-4.3165h13.237v4.3165h-4.0287v17.266h-5.1798zm7.0534 8.284c0.07548-0.20374 1.4901-4.6935 3.1436-9.9772 3.4353-10.977 3.5835-11.256 5.9817-11.256 1.6144 0 2.6461 0.56782 3.2883 1.8097 0.35513 0.68675 6.1439 19.203 6.1439 19.652 0 0.06613-1.1511 0.12024-2.5579 0.12024h-2.5579l-1.0126-3.7409h-6.2248l-0.52897 1.7985-0.52897 1.7985-2.6418 0.08266c-2.0594 0.0645-2.6116 8.57e-4 -2.5046-0.28776zm11.006-8.0681c-0.07247-0.19784-0.43046-1.8489-0.79552-3.669-0.36506-1.8201-0.74588-3.4054-0.84628-3.5228-0.1004-0.1174-0.57389 1.5336-1.0522 3.669l-0.86968 3.8825h1.8477c1.3566 0 1.8127-0.09561 1.716-0.35971zm8.1276-1.4543v-9.8714c0-1.0339 0.75912-1.8395 1.8979-1.8395l3.5834 0.0064c4.1178 0.0076 5.1875 0.34439 6.9474 2.1896 1.2732 1.3349 1.6718 2.2976 1.6718 4.0382 0 2.1067-1.0169 3.6881-3.3931 5.2765l-0.64573 0.43164 5.7134 9.4962-2.7797 0.08613c-2.4029 0.07451-2.8323 0.01599-3.1679-0.43165-0.21351-0.28478-1.4087-2.3954-2.6559-4.6904l-2.2677-4.1726-0.0059 4.6762-0.0061 4.6762h-4.892zm9.0426-4.8804c0.22261-0.63298 0.16117-0.94464-0.31131-1.5794-0.50209-0.6745-0.82761-0.80346-2.214-0.87707l-1.6253-0.08635v5.4485l1.9367-1.0586c1.3591-0.74291 2.0194-1.2938 2.214-1.8472zm7.0722 3.9607v-10.791h5.1798v21.582h-5.1798z" fill="#fff" stroke-width=".28776"/>
  <text transform="rotate(-90)" x="-52.230671" y="116.26997" fill="#ffffff" font-family="sans-serif" font-size="8.4667px" stroke-width=".26458" style="line-height:1.25" xml:space="preserve"><tspan x="-52.230671" y="116.26997" fill="#ffffff" font-family="Inter" font-size="8.4667px" font-weight="600" stroke-width=".26458">7800</tspan></text>
 </g>
 <style type="text/css">.st0{fill:#FC0C18;}
	.st1{fill:#FC0C18;}</style>
</svg>
