<svg width="480" height="320" version="1.1" viewBox="0 0 480 320" xml:space="preserve" xmlns="http://www.w3.org/2000/svg"><defs><linearGradient id="a" x1="10.58" x2="32.94" y1="-15.33" y2="101.4" gradientTransform="scale(3.78)" gradientUnits="userSpaceOnUse"><stop stop-color="#1fd1f4" offset="0"/><stop stop-color="#002e99" offset="1"/></linearGradient></defs><rect width="480" height="320" ry="24" fill="url(#a)"/><path d="m230.9 127c-2.539-0.0441-5.095 1.184-6.551 3.291-1.125 1.5-1.342 3.406-1.926 5.135-5.573 19.19-11.17 38.37-16.69 57.57h10.23c1.583-5.531 3.219-11.04 4.803-16.57 6.635-0.0208 13.26-0.00977 19.88-0.00977 1.615 5.531 3.187 11.06 4.791 16.58 3.437-0.0104 6.875 0.02143 10.31-0.00977-5.812-20-11.64-40-17.46-60-0.7396-2.708-2.865-5.104-5.656-5.75-0.5703-0.1504-1.156-0.2281-1.742-0.2383zm-72.83 0.01172c-2.304 0.01957-4.611 1.006-6.053 2.852-1.437 1.625-1.688 3.864-2.344 5.854-5.552 19.09-11.09 38.19-16.62 57.28 3.417 0.0104 6.833 0.00131 10.25 0.01171 1.594-5.531 3.197-11.06 4.822-16.58 6.635 0.0104 13.28-6.3e-4 19.92 0.00977 1.604 5.521 3.188 11.05 4.803 16.57 3.438-0.0104 6.865 0 10.3 0-5.802-20.02-11.65-40.03-17.47-60.05-0.4583-1.615-1.365-3.104-2.646-4.188-1.376-1.203-3.165-1.773-4.957-1.758zm-72.57 0.123c-3.062 0.0104-6.125-0.01103-9.188 0.00977 0.01042 14.96 0 29.91 0 44.85 0.01041 7-0.02019 14 0.02148 21 3.052-0.0208 6.114 6.3e-4 9.166-0.00977v-65.85zm89.96 0v10.05c4.573 0 9.146-0.0104 13.72 0v55.81h9.822v-55.81c4.573-0.0104 9.146 0 13.72 0v-10.05h-37.26zm94.18 0c-1-0.02084-1.999 0.09311-2.947 0.416-3.208 1.021-5.614 4.208-5.635 7.572 0.0208 19.29-6.3e-4 38.58 0.00977 57.88 3.302 0 6.594-0.0104 9.896 0 0.0208-17.93-6.3e-4 -35.84 0.00977-53.76-0.02083-1.167 1.063-2.166 2.209-2.135 2.531-0.0208 5.062 0.00909 7.604-0.01171 3.667-0.1146 7.146 2.688 7.928 6.25 0.6771 2.75 0.7494 5.845-0.7402 8.355-1.958 3.344-5.449 5.458-8.99 6.812-1.844 0.7292-3.509 2.113-4.207 4.02-0.8958 2.49-0.4896 5.366 1 7.543 5.063 7.646 10.08 15.31 15.17 22.95 3.885-0.0208 7.761 6.3e-4 11.65-0.00977-5.302-7.948-10.71-15.85-15.91-23.88-0.5521-1.125-0.4896-2.688 0.5625-3.49 1.927-1.427 4.165-2.396 5.957-4 3.406-2.938 5.262-7.364 5.605-11.79 0.5-4.229 0.3014-8.708-1.678-12.56-2.854-5.927-9.146-10.02-15.74-10.15-3.917-0.0104-7.833 6.3e-4 -11.75-0.00977zm38.14 0v65.86c3.469 0 6.938-0.0104 10.41 0 0.0208-21.95 0.00977-43.9 0.00977-65.86h-10.42zm-238.5 0.00977c0 1.938 0.009112 3.885-0.01172 5.822-0.125 5.729-0.4896 11.47-1.344 17.14-0.6875 4.458-1.697 8.916-3.572 13.04-1.594 3.583-3.699 6.968-6.334 9.885-2.552 2.833-5.582 5.23-8.957 7.012-2.844 1.5-5.896 2.624-9.084 3.104v9.844c2.646-0.3646 5.239-1.042 7.76-1.896 4.458-1.542 8.698-3.822 12.25-6.947 3.969-3.375 7.5-7.385 9.75-12.12 1.375-2.938 2.49-6.042 3.021-9.25 0.7812-4.656 1.084-9.385 1.303-14.09 0.1354-3.26 0.2279-6.52 0.207-9.791 0-3.917 0.01042-7.824 0-11.74-1.656 0-3.322-0.0104-4.988 0zm18.24 0v10.78c-0.04167 6.365 0.1771 12.73 0.75 19.06 0.3021 2.927 0.6257 5.874 1.396 8.729 0.8333 2.844 1.907 5.626 3.365 8.199 1.875 3.302 4.375 6.218 7.156 8.791 1.688 1.562 3.447 3.041 5.385 4.291 2.656 1.719 5.542 3.064 8.521 4.105 2.51 0.8542 5.082 1.531 7.707 1.885v-9.844c-1.333-0.1979-2.656-0.5215-3.938-0.9277-4.604-1.479-8.844-4.042-12.34-7.375-3.667-3.49-6.478-7.813-8.426-12.47-2.062-4.812-2.98-10.01-3.637-15.18-0.7917-6.656-1.021-13.37-0.9688-20.05h-4.969zm280.3 0.09375c-13.86 0-27.66 8.458-27.66 23.59 0 9.979 7.604 15.31 16.66 16.92l4.656 0.8438c2.115 0.4271 5.156 0.6777 5.156 3.553 0 2.885-3.637 3.812-5.918 3.812-5.333 0-10.32-2.626-14.47-5.834l-1.188-0.9258-7.094 18.01c7.187 3.635 16.49 5.834 24.53 5.834 13.78 0 27.66-7.521 27.66-22.75 0-10.82-7.104-16.07-16.92-18.27l-5.25-1.188c-1.771-0.4167-4.646-0.7604-4.646-3.125 0-2.625 2.959-3.385 4.99-3.385 4.99 0 9.468 2.114 13.45 4.822l6.262-16.32c-6.26-3.812-12.95-5.584-20.22-5.584zm23.42 1.01v17.9l12.77 0.03125v45.85h23.18v-45.85l12.77-0.03125v-17.9h-48.72zm-160.6 13.84c2.385 8.312 4.813 16.63 7.209 24.95-4.812 0-9.614 0.0104-14.42 0 2.385-8.323 4.811-16.64 7.207-24.95zm-72.64 0.03125c2.417 8.302 4.822 16.61 7.229 24.91-4.823 0-9.646 0.01103-14.47-0.00977 2.417-8.292 4.803-16.6 7.24-24.9z" fill="#fff"/></svg>
