<svg width="480" height="320" version="1.1" viewBox="0 0 480 320" xml:space="preserve" xmlns="http://www.w3.org/2000/svg"><defs><linearGradient id="a" x1="86.93" x2="62.8" y1="66.65" y2="-23.39" gradientTransform="scale(3.78)" gradientUnits="userSpaceOnUse"><stop stop-color="#272b35" offset="0"/><stop stop-color="#452981" offset="1"/></linearGradient></defs><rect width="480" height="320" ry="24" fill="url(#a)"/><path d="m298.2 130.3c-8.51 0-15.45 6.926-15.45 15.45 0 2.146 0.4375 4.229 1.281 6.156-4.677 4.062-7.385 9.906-7.385 16.22 0 11.87 9.666 21.54 21.54 21.54 11.87 0 21.54-9.668 21.54-21.54 0.0104-6.312-2.698-12.17-7.375-16.22 0.8438-1.927 1.281-4.01 1.281-6.156 0-8.521-6.927-15.45-15.44-15.45zm51.68 0c-16.36 0-29.69 13.31-29.69 29.69 0 16.36 13.31 29.69 29.69 29.69 16.36 0 29.68-13.31 29.68-29.69 0.0104-16.37-13.31-29.69-29.68-29.69zm60.44 0c-16.36 0-29.69 13.31-29.69 29.69 0 16.36 13.31 29.69 29.69 29.69 16.36 0 29.68-13.31 29.68-29.69s-13.31-29.69-29.68-29.69zm-220.2 1.482c-2.17-0.03977-4.35 1.006-5.594 2.809-0.9583 1.281-1.156 2.918-1.656 4.387-4.75 16.4-9.531 32.79-14.25 49.2h8.738c1.354-4.719 2.751-9.438 4.105-14.16 5.667-0.0104 11.32 0 16.99 0 1.375 4.719 2.729 9.447 4.094 14.17 2.937-0.0104 5.875 0.01103 8.812-0.00977-4.969-17.09-9.947-34.18-14.92-51.27-0.625-2.312-2.449-4.364-4.834-4.916-0.4883-0.1289-0.9874-0.1959-1.488-0.2051zm-62.23 0.01172c-1.968 0.01536-3.939 0.8574-5.17 2.434-1.229 1.396-1.438 3.301-2 5.01-4.75 16.31-9.479 32.63-14.2 48.93 2.917 0.0104 5.833-6.3e-4 8.75 0.00977 1.365-4.729 2.74-9.447 4.125-14.17 5.667 0.0104 11.33-6.3e-4 17.01 0.00977 1.365 4.719 2.718 9.438 4.104 14.16 2.937-0.0104 5.865 0 8.803 0-4.958-17.1-9.959-34.2-14.93-51.3-0.3958-1.375-1.166-2.645-2.26-3.572-1.176-1.03-2.705-1.518-4.236-1.506zm-81.63 0.04688c-3.427 0-6.229 2.803-6.229 6.23v43.82c0 3.427 2.801 6.229 6.229 6.229h43.82c3.427 0 6.229-2.801 6.229-6.229v-43.82c-0.01042-3.427-2.801-6.23-6.229-6.23h-43.82zm176.9 0.05273c-0.8542-0.02083-1.719 0.07227-2.521 0.3535-2.74 0.875-4.791 3.594-4.791 6.49 0.0208 16.49-6.3e-4 32.97 0.00977 49.45 2.823 0 5.636-0.0104 8.459 0 0-15.31-0.0104-30.61 0-45.93-0.02083-0.9896 0.9056-1.845 1.885-1.824 2.167-0.0208 4.333 6.3e-4 6.5-0.00977 3.135-0.1042 6.105 2.292 6.771 5.334 0.5729 2.344 0.6341 4.989-0.6367 7.135-1.677 2.854-4.655 4.666-7.676 5.822-1.583 0.6146-3.012 1.803-3.605 3.428-0.7604 2.115-0.4154 4.583 0.8555 6.438 4.323 6.531 8.613 13.08 12.96 19.6 3.312-0.0208 6.637 6.3e-4 9.949-0.00977-4.531-6.802-9.156-13.55-13.59-20.41-0.4688-0.9583-0.4277-2.291 0.4785-2.979 1.646-1.219 3.562-2.053 5.094-3.418 2.906-2.51 4.499-6.291 4.791-10.07 0.4271-3.615 0.25-7.449-1.438-10.74-2.438-5.062-7.812-8.562-13.45-8.666-3.344 0-6.697 0.0104-10.04 0zm-80.46 0.00977c-0.0104 2.865 0 5.719 0 8.584 3.906 0 7.812-0.0104 11.72 0v47.69h8.396v-47.69h11.72v-8.584h-31.83zm113 0c0 18.75 6.3e-4 37.51-0.00977 56.28 2.969 0 5.938-0.0104 8.896 0 0.0208-18.76 0.00977-37.52 0.00977-56.28h-8.896zm42.45 2c6.531 0 11.82 5.293 11.82 11.82 0 2.688-0.9056 5.155-2.416 7.145 5.104 3.156 8.52 8.792 8.52 15.24-0.0104 9.906-8.03 17.93-17.93 17.93-9.896 0-17.93-8.021-17.93-17.93 0-6.448 3.417-12.07 8.521-15.24-1.51-1.99-2.418-4.457-2.418-7.145 0-6.531 5.293-11.82 11.82-11.82zm51.68 0.02148c14.37 0 26.06 11.7 26.06 26.06s-11.69 26.06-26.06 26.06-26.06-11.7-26.06-26.06c0-14.37 11.7-26.06 26.06-26.06zm60.44 0c14.37 0 26.06 11.7 26.06 26.06s-11.7 26.06-26.06 26.06c-14.37 0-26.06-11.7-26.06-26.06 0-14.37 11.7-26.06 26.06-26.06zm-112.1 6.094c-3.021 0-5.48 2.447-5.48 5.479 0 3.031 2.449 5.48 5.48 5.48 3.021 0 5.479-2.449 5.479-5.48s-2.447-5.479-5.479-5.479zm51.68 0.8027c-10.56 0-19.17 8.593-19.17 19.17 0 10.56 8.593 19.17 19.17 19.17 10.56 0 19.17-8.593 19.17-19.17s-8.605-19.17-19.17-19.17zm60.44 0c-10.56 0-19.17 8.593-19.17 19.17 0 10.56 8.593 19.17 19.17 19.17 10.56 0 19.17-8.593 19.17-19.17-0.0104-10.57-8.605-19.17-19.17-19.17zm-348.6 1.656h2.781c0.01042 2.188 0 4.364 0 6.541 0.01042 1.823-0.04232 3.635-0.1152 5.447-0.125 2.625-0.2917 5.25-0.7188 7.844-0.3021 1.792-0.9167 3.511-1.688 5.146-1.25 2.635-3.219 4.865-5.428 6.74-1.979 1.74-4.333 3.009-6.822 3.863-1.406 0.4792-2.843 0.8542-4.322 1.062v-5.479c1.771-0.2708 3.467-0.8952 5.051-1.729 1.875-0.9896 3.563-2.324 4.99-3.896 1.469-1.625 2.635-3.5 3.531-5.5 1.042-2.292 1.605-4.77 1.99-7.26 0.4792-3.156 0.6771-6.345 0.75-9.543 0.01042-1.083 0-2.165 0-3.238zm10.16 0h2.76c-0.03125 3.719 0.0931 7.458 0.541 11.16 0.3646 2.875 0.8757 5.77 2.021 8.447 1.083 2.594 2.646 5 4.688 6.938 1.948 1.854 4.303 3.281 6.865 4.104 0.7188 0.2292 1.448 0.4069 2.188 0.5215v5.479c-1.458-0.1979-2.896-0.5716-4.281-1.051-1.656-0.5729-3.261-1.323-4.74-2.281-1.073-0.6875-2.052-1.522-3-2.387-1.552-1.427-2.937-3.051-3.979-4.895-0.8125-1.427-1.406-2.979-1.875-4.562-0.4271-1.583-0.6048-3.23-0.7715-4.855-0.3229-3.521-0.4368-7.062-0.416-10.6v-6.01zm-6.25 0.01954c1.708-0.0104 3.405 0 5.113 0v36.64c-1.698 0-3.406-0.01103-5.104 0.00977-0.02083-3.896 6.54e-4 -7.792-0.009766-11.69v-24.96zm232.6 1.146c1.021 0 1.854 0.8327 1.854 1.854 0 1.021-0.8327 1.855-1.854 1.855s-1.855-0.8346-1.855-1.855c0-1.021 0.8242-1.854 1.855-1.854zm51.68 0.8027c8.573 0 15.54 6.979 15.54 15.54 0 8.573-6.97 15.54-15.54 15.54-8.573 0-15.55-6.979-15.55-15.54 0-8.573 6.978-15.54 15.55-15.54zm60.44 0c8.573 0 15.54 6.979 15.54 15.54 0 8.573-6.98 15.54-15.54 15.54-8.573 0-15.55-6.979-15.55-15.54 0-8.573 6.978-15.54 15.55-15.54zm-220.4 0.2285c2.042 7.104 4.115 14.2 6.156 21.31-4.104 0-8.208 0.0104-12.31 0 2.042-7.104 4.115-14.21 6.156-21.31zm-62.05 0.03125c2.062 7.094 4.115 14.19 6.178 21.28-4.125 0-8.24 0.01103-12.37-0.00977 2.073-7.083 4.104-14.19 6.188-21.27zm170.3 13.01c-5.917 0-10.71 4.792-10.71 10.71s4.792 10.71 10.71 10.71 10.71-4.792 10.71-10.71-4.801-10.71-10.71-10.71zm0 3.615c3.906 0 7.082 3.178 7.082 7.084s-3.176 7.082-7.082 7.082-7.084-3.176-7.084-7.082 3.178-7.084 7.084-7.084z" fill="#fff"/></svg>
