<svg width="480" height="320" version="1.1" viewBox="0 0 480 320" xml:space="preserve" xmlns="http://www.w3.org/2000/svg"><defs><linearGradient id="a" x1="83.33" x2="62.76" y1="69.97" y2="-33.96" gradientTransform="scale(3.78)" gradientUnits="userSpaceOnUse"><stop stop-color="#252932" offset="0"/><stop stop-color="#0e5ee9" offset="1"/></linearGradient></defs><rect width="480" height="320" ry="24" fill="url(#a)"/><path d="m290 116.8c-3.323-0.0573-6.672 1.553-8.576 4.312-1.469 1.958-1.771 4.46-2.531 6.73-7.292 25.13-14.62 50.24-21.85 75.39h13.4c2.073-7.24 4.22-14.46 6.293-21.7 8.678-0.0208 17.36-0.00976 26.03-0.00976 2.104 7.23 4.178 14.48 6.271 21.71 4.5-0.0208 9 0.00972 13.5-0.02148-7.605-26.19-15.24-52.38-22.86-78.57-0.9584-3.542-3.75-6.687-7.406-7.531-0.7461-0.1973-1.512-0.2993-2.279-0.3125zm-95.37 0.02539c-3.014 0.02433-6.035 1.31-7.922 3.725-1.886 2.136-2.209 5.053-3.084 7.668-7.271 24.99-14.51 50-21.75 75 4.479 0.0104 8.947-6.4e-4 13.42 0.00976 2.094-7.24 4.199-14.48 6.324-21.71 8.688 0.0104 17.38-0.01104 26.07 0.00976 2.094 7.23 4.156 14.47 6.281 21.7 4.5-0.0104 8.99 0 13.49 0-7.605-26.22-15.26-52.42-22.88-78.63-0.6042-2.104-1.781-4.064-3.469-5.48-1.8-1.572-4.14-2.316-6.484-2.297zm22.77 0.1524c0 4.396-6.4e-4 8.771 0.00976 13.16 5.99 0 11.97-0.0104 17.96 0v73.09h12.87v-73.09c5.99-0.0104 11.97 0 17.96 0v-13.16h-48.79zm123.3 0c-1.313-0.03125-2.626 0.1139-3.865 0.541-4.188 1.344-7.345 5.511-7.387 9.959 0.0208 25.26 0.00132 50.51 0.01172 75.78 4.323 0 8.636-0.0104 12.96 0 0.0208-23.46-0.01103-46.93 0.00976-70.39-0.02083-1.521 1.396-2.822 2.896-2.791 3.313-0.0208 6.636 0.01103 9.959-0.00977 4.813-0.1667 9.353 3.509 10.38 8.176 0.8855 3.604 0.9793 7.658-0.9688 10.94-2.563 4.375-7.124 7.145-11.76 8.916-2.427 0.948-4.615 2.772-5.521 5.262-1.167 3.24-0.6355 7.021 1.312 9.865 6.625 10.01 13.21 20.05 19.87 30.04 5.084-0.0208 10.17 6.4e-4 15.25-0.00976-6.938-10.42-14.02-20.76-20.82-31.27-0.7084-1.469-0.6472-3.51 0.7383-4.562 2.521-1.875 5.448-3.146 7.803-5.24 4.448-3.844 6.886-9.646 7.334-15.44 0.6563-5.542 0.3862-11.42-2.197-16.46-3.74-7.771-11.98-13.14-20.62-13.29-5.125-0.0104-10.26 0.01104-15.38-0.00976zm49.94 0c0 28.75 6.4e-4 57.5-0.00976 86.25 4.552 0 9.093-0.0104 13.63 0 0.0208-28.75 0.01172-57.5 0.01172-86.25h-13.64zm37.73 0c-6.365 0-11.65 5.011-11.65 11.8 0 6.25 4.646 11.77 11.83 11.77h0.02149c6.011 0 11.44-4.854 11.44-11.74 0-6.855-5.282-11.83-11.65-11.83zm-350 0.00976c-0.01041 2.542 0.009765 5.084 0.009765 7.646-0.1667 7.5-0.6347 15.01-1.76 22.44-0.8959 5.834-2.219 11.67-4.678 17.07-2.094 4.688-4.844 9.116-8.303 12.94-3.354 3.698-7.323 6.842-11.74 9.176-3.719 1.958-7.73 3.439-11.9 4.064v12.9c3.459-0.4896 6.866-1.366 10.17-2.502 5.844-2.021 11.38-5 16.04-9.094 5.198-4.417 9.823-9.666 12.77-15.88 1.802-3.854 3.261-7.907 3.959-12.12 1.021-6.094 1.408-12.28 1.699-18.45 0.1667-4.271 0.2904-8.543 0.2695-12.82 0-5.125 0.01042-10.25 0-15.38-2.188 0-4.364-0.0104-6.541 0zm21.2 0c-4.011 0.0104-8.023-0.01103-12.03 0.00977 0.01042 19.57 0 39.16 0 58.74 0.01041 9.157-0.0306 18.33 0.02148 27.49 4-0.0312 8.012 6.4e-4 12.01-0.00976v-86.23zm2.676 0c0 4.709 6.3e-4 9.418-0.00977 14.14-0.05209 8.334 0.2285 16.67 0.9785 24.96 0.3854 3.834 0.8242 7.698 1.824 11.43 1.104 3.719 2.499 7.366 4.416 10.73 2.458 4.323 5.719 8.145 9.365 11.51 2.219 2.031 4.521 3.98 7.053 5.615 3.469 2.261 7.25 4.021 11.16 5.375 3.281 1.115 6.646 2 10.08 2.469v-12.88c-1.75-0.2604-3.469-0.679-5.156-1.221-6.032-1.927-11.57-5.291-16.16-9.656-4.802-4.573-8.481-10.24-11.03-16.33-2.688-6.302-3.896-13.11-4.75-19.88-1.042-8.709-1.342-17.49-1.27-26.25h-6.502zm326.1 4.51c3.698 0 7.646 2.668 7.646 7.221 0 4.375-3.584 7.312-7.678 7.312h-0.02148c-3.948 0-7.646-2.791-7.646-7.281 0-4.584 3.939-7.252 7.699-7.252zm-138.6 15.06c3.115 10.9 6.292 21.77 9.428 32.67-6.292 0-12.58 0.0104-18.88 0 3.125-10.9 6.293-21.78 9.449-32.67zm-95.13 0.05078c3.167 10.87 6.312 21.74 9.469 32.62-6.313 0-12.62 0.02143-18.95-0.00977 3.167-10.87 6.291-21.75 9.479-32.61zm233.7 6.168c-6.365 0-11.65 5.011-11.65 11.8 0 6.25 4.646 11.77 11.83 11.77h0.02149c6.011 0 11.44-4.854 11.44-11.74 0-6.865-5.282-11.83-11.65-11.83zm0.04297 4.531c3.698 0 7.646 2.666 7.646 7.219 0 4.375-3.584 7.312-7.678 7.312h-0.02148c-3.948 0-7.646-2.791-7.646-7.281 0-4.584 3.939-7.25 7.699-7.25zm7.385 21.55v9.074c-1.729-1.781-3.427-3.573-5.125-5.334-2.521-2.646-4.374-3.584-6.979-3.615-3.709 0-6.949 2.677-6.949 7.375 0 1.615 0.479 4.523 3 6.283 1.667 1.24 3.521 1.51 5.25 1.572v-4.334c-2.313-0.03125-4.281-0.9374-4.281-3.125 0-1.854 1.157-3.25 3.365-3.25 2.573 0.03125 4.125 1.823 6.094 4.062 1.969 2.188 3.918 4.365 5.887 6.553h3.562v-15.26h-3.824zm-3.803 17.75c-3.302 0-7.52 2.427-7.52 7.49 0 1.948 0.5104 2.822 0.9375 3.488l-4.428-0.791v-8.334h-3.824v11.83l12.22 1.969 0.9062-3.666c-1.761-1-2.125-2.428-2.125-3.49 0-2.396 1.885-3.969 3.947-3.969 2.156 0 3.949 1.812 3.949 3.938 0 1.604-1.053 3.114-2.605 3.604v4.553c3.886-0.6042 6.584-3.948 6.584-8.281 0-5.521-4.376-8.344-8.043-8.344z" fill="#fff"/></svg>
