<svg width="480" height="320" version="1.1" viewBox="0 0 480 320" xml:space="preserve" xmlns="http://www.w3.org/2000/svg"><defs><linearGradient id="a" x1="36.16" x2="55.5" y1="58.95" y2="-13.23" gradientTransform="scale(3.78)" gradientUnits="userSpaceOnUse"><stop stop-color="#332929" offset="0"/><stop stop-color="#a10705" offset="1"/></linearGradient></defs><rect width="480" height="320" ry="24" fill="url(#a)"/><path d="m428.2 116.6c-6.458 0-11.81 5.075-11.81 11.97 0 6.333 4.708 11.94 12 11.94h0.03125c6.083 0 11.59-4.927 11.59-11.91 0-6.958-5.354-12-11.81-12zm-138.1 0.25c-3.329-0.05958-6.678 1.545-8.582 4.312-1.469 1.958-1.771 4.47-2.531 6.73-7.292 25.15-14.62 50.28-21.86 75.44h13.41c2.073-7.24 4.22-14.47 6.293-21.71 8.688-0.0208 17.37-0.00976 26.05-0.00976 2.115 7.24 4.187 14.48 6.281 21.72 4.5-0.0208 9.01 0.00971 13.51-0.02149-7.615-26.21-15.26-52.41-22.88-78.62-0.9688-3.542-3.76-6.689-7.416-7.533-0.7481-0.1973-1.515-0.2988-2.283-0.3125zm-95.42 0.02148c-3.017 0.02536-6.041 1.314-7.928 3.729-1.896 2.135-2.217 5.064-3.082 7.668-7.281 25.01-14.53 50.03-21.77 75.05 4.479 0.0104 8.957-6.3e-4 13.43 0.00977 2.094-7.25 4.199-14.49 6.324-21.73 8.698 0.0104 17.4-0.00908 26.09 0.01172 2.094 7.229 4.168 14.48 6.293 21.71 4.5-0.0104 9 0 13.5 0-7.615-26.23-15.27-52.44-22.9-78.67-0.6042-2.104-1.781-4.062-3.469-5.479-1.8-1.577-4.144-2.322-6.49-2.303zm-109.8 0.1562c-2.177 0.0104-4.364-6.3e-4 -6.541 0.00977-0.01042 2.542 0.01106 5.085-0.009766 7.637-0.1667 7.511-0.6367 15.03-1.762 22.46-0.8959 5.844-2.219 11.68-4.678 17.08-2.094 4.698-4.842 9.124-8.301 12.95-3.344 3.698-7.323 6.844-11.74 9.178-3.719 1.958-7.73 3.437-11.9 4.062v12.9c3.458-0.4792 6.864-1.365 10.17-2.5 5.844-2.01 11.4-5 16.05-9.094 5.208-4.427 9.835-9.678 12.78-15.89 1.802-3.854 3.259-7.907 3.957-12.12 1.021-6.094 1.408-12.28 1.699-18.46 0.1667-4.271 0.2904-8.551 0.2695-12.83 0-5.136 0.01042-10.26 0-15.39zm132.5 0v13.17c5.99 0 11.98-0.0104 17.97 0v73.13h12.88v-73.13c5.99-0.0104 11.98 0 17.97 0v-13.17h-48.81zm123.4 0c-1.302-0.03125-2.626 0.1139-3.865 0.541-4.198 1.344-7.344 5.511-7.396 9.959 0.0208 25.27 0.00132 50.54 0.01172 75.81 4.323 0 8.646-0.0104 12.97 0 0.0208-23.47-0.01104-46.95 0.00976-70.43-0.02083-1.521 1.396-2.824 2.896-2.793 3.323-0.0208 6.646 0.01104 9.969-0.00976 4.802-0.1563 9.353 3.521 10.38 8.188 0.8854 3.594 0.9896 7.656-0.9688 10.94-2.563 4.375-7.134 7.147-11.77 8.918-2.427 0.9375-4.615 2.76-5.521 5.26-1.167 3.25-0.6355 7.021 1.312 9.875 6.636 10.01 13.22 20.06 19.88 30.06 5.094-0.0208 10.18-0.00132 15.26-0.01172-6.959-10.42-14.03-20.77-20.85-31.28-0.7188-1.458-0.6452-3.51 0.7402-4.562 2.531-1.865 5.458-3.146 7.812-5.24 4.458-3.844 6.896-9.647 7.344-15.45 0.6563-5.542 0.3966-11.42-2.197-16.47-3.74-7.781-11.99-13.15-20.62-13.3-5.136-0.0104-10.26 0.01103-15.4-0.00977zm49.98 0v86.3c4.542 0 9.093-0.0104 13.63 0 0.0208-28.77 0.01172-57.53 0.01172-86.3h-13.65zm-291.2 0.00977c-4.011 0.0104-8.03-0.00908-12.04 0.01172 0.01042 19.58 0 39.18 0 58.76 0.01041 9.167-0.03255 18.34 0.01953 27.51 4.011-0.0312 8.021-0.00132 12.02-0.01172v-86.27zm2.678 0c0 4.708-6.3e-4 9.428 0.00977 14.15-0.0625 8.334 0.2304 16.67 0.9805 24.97 0.3854 3.844 0.8118 7.698 1.822 11.44 1.094 3.708 2.499 7.353 4.416 10.73 2.448 4.333 5.719 8.157 9.365 11.52 2.208 2.031 4.521 3.98 7.053 5.615 3.469 2.26 7.25 4.021 11.16 5.375 3.281 1.115 6.656 2 10.09 2.469v-12.9c-1.75-0.2604-3.469-0.6771-5.156-1.219-6.031-1.938-11.58-5.291-16.17-9.666-4.802-4.563-8.489-10.24-11.04-16.33-2.698-6.302-3.906-13.12-4.76-19.89-1.042-8.709-1.344-17.49-1.271-26.26-2.167-0.0104-4.333 0-6.5 0zm325.9 4.146c3.75 0 7.75 2.71 7.75 7.324 0 4.438-3.625 7.416-7.781 7.416h-0.03125c-4 0-7.75-2.833-7.75-7.385 0-4.646 4-7.355 7.812-7.355zm-138.3 15.44c3.125 10.9 6.302 21.78 9.438 32.69-6.292 0-12.59 0.0104-18.88 0 3.135-10.91 6.312-21.79 9.447-32.69zm-95.17 0.05274c3.167 10.88 6.314 21.75 9.471 32.64-6.313 0-12.64 0.01949-18.96-0.01171 3.177-10.88 6.301-21.76 9.488-32.62zm233.5 6.104c-6.458 0-11.81 5.075-11.81 11.97 0 6.334 4.708 11.94 12 11.94h0.03125c6.083 0 11.59-4.927 11.59-11.91 0-6.948-5.354-12-11.81-12zm0.03125 4.584c3.75 0 7.75 2.71 7.75 7.324 0 4.438-3.625 7.416-7.781 7.416h-0.03125c-4 0-7.75-2.833-7.75-7.385 0-4.646 4-7.355 7.812-7.355zm3.322 21.15c-5.011 0-7.688 3.751-7.688 7.23 0 0.7084 0.209 1.562 0.334 1.812-0.4896-0.3438-0.9284-0.6777-1.387-0.9902l-6-4.271h-0.00976v5.293l8.74 5.969c1.667 1.073 3.604 2.062 6 2.062 1.729 0 3.937-0.5208 5.51-1.906 1.885-1.448 2.959-3.907 2.959-6.709 0-4.677-3.542-8.49-8.459-8.49zm0.3965 4.574c2.281 0 4.031 1.781 4.031 4.062 0 2.094-1.604 3.938-4.031 3.938h-0.03125c-2.49 0-4.031-1.937-4.031-3.969 0-2.313 1.781-4.031 4.062-4.031zm3.74 14.68v9.199c-1.75-1.823-3.48-3.637-5.199-5.418-2.552-2.677-4.426-3.635-7.072-3.666-3.75 0-7.043 2.708-7.043 7.479 0 1.625 0.4908 4.584 3.043 6.365 1.688 1.271 3.572 1.543 5.322 1.605v-4.396c-2.333-0.03125-4.334-0.9492-4.334-3.168 0-1.875 1.168-3.291 3.418-3.291 2.615 0.03125 4.187 1.844 6.188 4.125 2 2.219 3.969 4.428 5.969 6.646h3.584v-15.48h-3.875z" fill="#fff"/></svg>
