<svg width="480" height="320" version="1.1" viewBox="0 0 127 84.667" xmlns="http://www.w3.org/2000/svg">
 <defs>
  <linearGradient id="a" x1="10.583" x2="32.945" y1="-15.333" y2="101.36" gradientUnits="userSpaceOnUse">
   <stop stop-color="#3689e6" offset="0"/>
   <stop stop-color="#002e99" offset="1"/>
  </linearGradient>
  <clipPath id="b">
   <path d="m659 4h86.871v120h-86.871z"/>
  </clipPath>
 </defs>
 <rect width="127" height="84.667" ry="4.2333" fill="url(#a)" stroke-linecap="square" stroke-linejoin="round" stroke-width=".52917" style="paint-order:stroke fill markers"/>
 <path d="m104.17 45.728c0 1.7437-0.69146 3.0852-2.0767 4.0246-1.2128 0.82476-2.7596 1.2366-4.6382 1.2366-0.87865 0-1.7431-0.07828-2.5928-0.23427-0.85029-0.15599-1.7783-0.40331-2.7863-0.7391v-4.0386c0.9696 0.41836 1.278 0.5332 1.8356 0.70904 1.2439 0.34999 2.2168 0.52583 2.9201 0.52583 0.85248 3e-3 2.5475-0.09981 2.5634-1.0097 0-0.57632-0.7011-1.0936-2.1038-1.5525-2.0148-0.5956-2.7261-1.0528-3.239-1.3727-1.6838-0.97214-2.2479-2.7657-2.2479-4.7467 0-1.4833 0.637-2.7323 1.911-3.7466 1.274-1.0148 2.8844-1.5218 4.8328-1.5218 0.93992 0 1.7806 0.05446 2.5186 0.16223 0.7391 0.10891 1.5378 0.34431 2.3972 0.70734v4.0427c-0.94445-0.41805-1.2082-0.73627-1.8968-0.95466-0.68635-0.21838-1.3738-0.32786-2.063-0.32786-0.65289 0-1.2388 0.15089-1.7574 0.45266-0.51845 0.30233-0.77769 0.70678-0.77769 1.2139 0 0.7391 0.59844 1.2836 1.7976 1.6331 2.202 0.63983 2.9128 1.0641 3.2361 1.2717 1.4448 0.88318 2.1674 2.3052 2.1674 4.265" fill="#fff" stroke-width=".14521"/>
 <g transform="matrix(.14607 0 0 .14607 7.6472 32.968)" clip-path="url(#b)" fill="#fff">
  <path d="m745.87 32.637-24.66-0.0078v91.262h-37.051v-91.262h-24.656v-28.289h86.363l4e-3 28.297" fill="#fff"/>
 </g>
 <style type="text/css">.st0{fill:#FC0C18;}
	.st1{fill:#FC0C18;}</style>
 <path d="m17.689 33.602v5.3032c0 2.5803-1.003 5.1011-2.919 6.8627-1.2039 1.1093-2.6447 1.8087-4.187 2.3071v2.9896c1.643-0.22533 3.1852-0.6648 4.591-1.5843 3.1853-2.0819 4.5078-5.6343 4.5078-9.318v-6.5602zm2.4086 0v17.463h2.7281v-17.463zm3.1492 0v6.5602c0 3.3159 1.1092 6.6492 3.7607 8.7788 1.5719 1.2574 3.3815 1.8566 5.3389 2.1235v-2.9896c-1.305-0.42129-2.533-0.97255-3.6185-1.8206-2.2539-1.7676-3.4882-4.5078-3.4882-7.3492v-5.3032zm17.855 0c-1.6363 0-2.546 1.0016-2.9734 2.4792l-4.3843 14.983h4.3843l0.87297-3.1995h4.1947l0.87865 3.1995h4.3782l-4.3782-14.983c-0.43349-1.4776-1.3428-2.4792-2.973-2.4792zm20.088 0c-1.6302 0-2.54 1.0016-2.9734 2.4792l-4.3782 14.983h4.3782l0.87297-3.1995h4.2012l0.87296 3.1995h4.3774l-4.3774-14.983c-0.43337-1.4776-1.3436-2.4792-2.9738-2.4792zm-15.326 0.15226v3.8475h3.2121v13.463h4.1578v-13.463h3.2113v-3.8475zm26.005 0c-2.0698 0-3.2174 1.3565-3.2174 3.3774v13.933h4.1578v-6.6796l3.9133 6.6796h4.4696l-4.4014-7.6809c0.94636-0.38476 1.7209-0.89162 2.2949-1.7646 0.53745-0.82436 0.7877-1.7648 0.7877-2.748 0-1.7401-0.71958-3.3885-2.2096-4.3531-0.7021-0.45203-1.5752-0.76374-2.4179-0.76374zm9.3972 0v17.31h4.1574v-17.31zm-8.4568 3.8475h1.2701c0.95838 0 1.7338 0.59826 1.7338 1.5994 0 0.51921-0.1833 1.0624-0.54367 1.441-0.61667 0.65946-1.6237 0.67762-2.4601 0.68376zm-31.707 2.5763 1.05 3.8463h-2.1061zm20.088 0 1.05 3.8463h-2.1z" fill="#fff" fill-rule="evenodd"/>
</svg>
