<svg width="480" height="320" version="1.1" viewBox="0 0 127 84.667" xmlns="http://www.w3.org/2000/svg" xmlns:xlink="http://www.w3.org/1999/xlink">
 <defs>
  <linearGradient id="a" x1="10.583" x2="32.945" y1="-15.333" y2="101.36" gradientUnits="userSpaceOnUse">
   <stop stop-color="#3689e6" offset="0"/>
   <stop stop-color="#002e99" offset="1"/>
  </linearGradient>
  <clipPath id="e">
   <path d="m249 0h75v124.51h-75z"/>
  </clipPath>
  <clipPath id="d">
   <path d="m421 0h90v124.51h-90z"/>
  </clipPath>
  <clipPath id="c">
   <path d="m513 0h28v124.51h-28z"/>
  </clipPath>
  <clipPath id="b">
   <path d="m659 4h86.871v120h-86.871z"/>
  </clipPath>
 </defs>
 <rect width="127" height="84.667" ry="4.2333" fill="url(#a)" stroke-linecap="square" stroke-linejoin="round" stroke-width=".52917" style="paint-order:stroke fill markers"/>
 <g transform="matrix(.14189 0 0 .14189 10.583 33.5)" fill="#fff">
  <g>
   <path d="m62.715 123.29h14.527v-123.29h-14.527z"/>
   <path d="m0 123.54 2.418 0.0195c30.809-0.79688 55.594-31.91 55.594-70.152v-53.223h-9.6719v36.289c0 35.195-20.98 64.336-48.34 69.379v17.688"/>
   <path d="m140.18 123.54-2.418 0.0195c-30.809-0.79685-55.59-31.91-55.59-70.152v-53.223h9.668v36.289c0 35.195 20.98 64.336 48.34 69.379v17.688"/>
   <path d="m261.15 123.92h-27.191l-6.7148-23.32h-36.625l-7.0703 23.32h-27.199l33.906-108.54c1.332-4.2109 3.4453-7.7148 6.3516-10.527 3.3789-3.1523 7.25-4.7344 11.602-4.7344 4.832 0 9.1875 1.6992 13.055 5.0859 3.3867 3.043 5.8047 6.8984 7.2539 11.578zm-41.16-45.949-10.875-52.953-11.969 52.953h22.844"/>
  </g>
  <g clip-path="url(#e)">
   <path d="m323.39 24.004h-23.75v100.51h-26.652v-100.51h-23.938v-23.145h74.34v23.145" fill="#fff"/>
  </g>
  <path d="m416.78 123.92h-27.195l-6.7109-23.32h-36.625l-7.0703 23.32h-27.199l33.906-108.54c1.332-4.2109 3.4453-7.7148 6.3476-10.527 3.3828-3.1523 7.2539-4.7344 11.602-4.7344 4.8359 0 9.1914 1.6992 13.059 5.0859 3.3828 3.043 5.8008 6.8984 7.25 11.578zm-41.16-45.949-10.875-52.953-11.969 52.953h22.844"/>
  <g clip-path="url(#d)">
   <path d="m510.18 124.25h-30.82l-27.332-50.168c-1.2109-2.3359-2.207-4.4453-2.9922-6.3164-0.78516-1.8633-1.1758-3.3242-1.1758-4.3828 0-5.375 4.3164-9.7891 12.961-13.234 8.6406-3.4492 12.965-7.7461 12.965-12.891 0-3.1602-1.2422-6.2539-3.7188-9.293-2.4766-3.0352-5.168-4.5586-8.0703-4.5586h-15.23v100.51h-25.746v-107.17c0-3.7422 1.7539-7.3633 5.2578-10.871 3.5039-3.5078 7.0117-5.2617 10.52-5.2617h25.93c10.031 0 18.793 3.5039 26.289 10.52 7.4922 7.0156 11.238 15.141 11.238 24.379 0 7.3633-2.293 13.793-6.8906 19.285-3.9844 4.793-9.7305 8.8867-17.227 12.273l34.043 57.184" fill="#fff"/>
  </g>
  <g clip-path="url(#c)">
   <path d="m513.55 124.45h26.832v-123.83h-26.832z" fill="#fff"/>
  </g>
  <path d="m657.57 86.188c0 12.008-4.7617 21.246-14.301 27.715-8.3516 5.6797-19.004 8.5156-31.941 8.5156-6.0508 0-12.004-0.53906-17.855-1.6133-5.8555-1.0742-12.246-2.7774-19.188-5.0898v-27.812c7.1172 2.0508 8.8008 3.6719 12.641 4.8828 8.5664 2.4102 15.266 3.6211 20.109 3.6211 6.3672 0 10.898-1.0508 13.602-3.1562 2.6953-2.1055 4.0508-0.67188 4.0508-3.7969 0-3.9688-4.8281-7.5312-14.488-10.691-13.875-4.1016-18.773-7.25-22.305-9.4531-10.324-6.3438-15.48-19.938-15.48-32.688 0-10.215 4.3867-18.816 13.16-25.801 8.7734-6.9883 19.863-10.48 33.281-10.48 6.4727 0 12.262 0.375 17.344 1.1172 5.0898 0.75 10.59 2.3711 16.508 4.8711v27.84c-6.5039-2.8789-8.3203-5.0703-13.062-6.5742-4.7266-1.5039-9.4609-2.2578-14.207-2.2578-4.4961 0-8.5312 1.0391-12.102 3.1172-3.5703 2.082-5.3555 4.8672-5.3555 8.3594 0 5.0898 4.1211 8.8398 12.379 11.246 15.164 4.4062 20.059 7.3281 22.285 8.7578 9.9492 6.082 14.926 15.875 14.926 29.371"/>
  <g clip-path="url(#b)">
   <path d="m745.87 32.637-24.66-0.0078v91.262h-37.051v-91.262h-24.656v-28.289h86.363l4e-3 28.297" fill="#fff"/>
  </g>
 </g>
 <style type="text/css">.st0{fill:#FC0C18;}
	.st1{fill:#FC0C18;}</style>
</svg>
