<svg width="480" height="320" version="1.1" viewBox="0 0 127 84.667" xmlns="http://www.w3.org/2000/svg">
 <defs>
  <linearGradient id="a" x1="75.111" x2="57.171" y1="-29.141" y2="121.31" gradientUnits="userSpaceOnUse">
   <stop stop-color="#667885" offset="0"/>
   <stop stop-color="#0e141f" offset=".39847"/>
   <stop stop-color="#452981" offset="1"/>
  </linearGradient>
 </defs>
 <rect width="127" height="84.667" ry="4.2333" fill="url(#a)" stroke-linecap="square" stroke-linejoin="round" stroke-width=".52917" style="paint-order:stroke fill markers"/>
 <path transform="matrix(.26458 0 0 .26458 -.00025 0)" d="m74.182 118v25.51c0 12.412-4.8245 24.538-14.041 33.012-5.7912 5.3361-12.722 8.7002-20.141 11.098v14.381c7.9032-1.0839 15.322-3.1979 22.084-7.6211 15.322-10.015 21.684-27.103 21.684-44.822v-31.557h-9.5859zm11.586 0v84h13.123v-84h-13.123zm15.148 0v31.557c0 15.95 5.3356 31.985 18.09 42.229 7.5611 6.0485 16.266 8.9309 25.682 10.215v-14.381c-6.2772-2.0265-12.184-4.6783-17.406-8.7578-10.842-8.5028-16.779-21.684-16.779-35.352v-25.51h-9.5859zm85.887 0c-7.8713 0-12.247 4.8181-14.303 11.926l-21.09 72.074h21.09l4.1992-15.391h20.178l4.2266 15.391h21.061l-21.061-72.074c-2.0852-7.1076-6.4594-11.926-14.301-11.926zm96.627 0c-7.8418 0-12.218 4.8181-14.303 11.926l-21.061 72.074h21.061l4.1992-15.391h20.209l4.1992 15.391h21.057l-21.057-72.074c-2.0846-7.1076-6.4629-11.926-14.305-11.926zm-73.721 0.73242v18.508h15.451v64.76h20v-64.76h15.447v-18.508h-50.898zm125.09 0c-9.9563 0-15.477 6.5252-15.477 16.246v67.021h20v-32.131l18.824 32.131h21.5l-21.172-36.947c4.5522-1.8508 8.2782-4.289 11.039-8.4883 2.5853-3.9654 3.7891-8.489 3.7891-13.219 0-8.3704-3.4614-16.299-10.629-20.939-3.3773-2.1744-7.5773-3.6738-11.631-3.6738h-16.244zm45.203 0v83.268h19.998v-83.268h-19.998zm-40.68 18.508h6.1094c4.6101 0 8.3398 2.8778 8.3398 7.6934 0 2.4976-0.8817 5.1103-2.6152 6.9316-2.9664 3.1722-7.8104 3.2596-11.834 3.2891v-17.914zm-152.52 12.393 5.0508 18.502h-10.131l5.0801-18.502zm96.627 0 5.0508 18.502h-10.102l5.0508-18.502z" fill="#fff" fill-rule="evenodd"/>
 <g transform="rotate(-90 .15547 .15547)" fill="#fff" stroke-width=".26458" aria-label="800">
  <path d="m-50.844 116.35c1.3319 0 2.285-0.73362 2.2881-1.7348-3e-3 -0.7697-0.57126-1.4131-1.2868-1.5334v-0.0421c0.62237-0.13831 1.0553-0.69754 1.0583-1.365-3e-3 -0.94709-0.87493-1.6506-2.0595-1.6506-1.1936 0-2.0656 0.70055-2.0626 1.6506-3e-3 0.66748 0.42394 1.2267 1.0583 1.365v0.0421c-0.72761 0.12027-1.2898 0.76369-1.2868 1.5334-3e-3 1.0012 0.94709 1.7348 2.2911 1.7348zm0-0.8599c-0.69754 0-1.1485-0.38485-1.1425-0.9531-6e-3 -0.58931 0.47806-1.0072 1.1425-1.0072 0.65545 0 1.1365 0.42093 1.1425 1.0072-6e-3 0.56825-0.454 0.9531-1.1425 0.9531zm0-2.8052c-0.57126 0-0.98016-0.36981-0.97415-0.90499-6e-3 -0.52917 0.39086-0.88396 0.97415-0.88396 0.57427 0 0.96814 0.35479 0.97415 0.88396-6e-3 0.53818-0.41191 0.90499-0.97415 0.90499z"/>
  <path d="m-45.288 116.39c1.4853 3e-3 2.3722-1.1696 2.3722-3.19 0-2.0084-0.89297-3.169-2.3722-3.169s-2.3692 1.1576-2.3722 3.169c0 2.0174 0.88696 3.19 2.3722 3.19zm0-0.94108c-0.76669 0-1.2478-0.7697-1.2447-2.249 3e-3 -1.4672 0.48106-2.24 1.2447-2.24 0.76669 0 1.2447 0.77271 1.2478 2.24 0 1.4793-0.47806 2.249-1.2478 2.249z"/>
  <path d="m-39.641 116.39c1.4853 3e-3 2.3722-1.1696 2.3722-3.19 0-2.0084-0.89297-3.169-2.3722-3.169s-2.3692 1.1576-2.3722 3.169c0 2.0174 0.88696 3.19 2.3722 3.19zm0-0.94108c-0.76669 0-1.2478-0.7697-1.2447-2.249 3e-3 -1.4672 0.48106-2.24 1.2447-2.24 0.76669 0 1.2447 0.77271 1.2478 2.24 0 1.4793-0.47806 2.249-1.2478 2.249z"/>
 </g>
 <style type="text/css">.st0{fill:#FC0C18;}
	.st1{fill:#FC0C18;}</style>
</svg>
