<svg width="480" height="320" version="1.1" viewBox="0 0 127 84.667" xmlns="http://www.w3.org/2000/svg" xmlns:xlink="http://www.w3.org/1999/xlink">
 <defs>
  <linearGradient id="a" x1="32.054" x2="10.583" y1="-29.309" y2="94.157" gradientUnits="userSpaceOnUse">
   <stop stop-color="#f9c440" offset="0"/>
   <stop stop-color="#c6262e" offset=".69833"/>
   <stop stop-color="#d48e15" offset="1"/>
  </linearGradient>
 </defs>
 <rect width="127" height="84.667" ry="4.2333" fill="url(#a)" stroke-linecap="square" stroke-linejoin="round" stroke-width=".52917" style="paint-order:stroke fill markers"/>
 <g transform="matrix(.55063 0 0 .55063 37.392 -38.147)" fill="#fff" stroke-width=".26458">
  <path d="m84.663 158.75c0.7221-0.41772 17.332-6.3689 17.776-6.3689 0.37601 0 6.3012 2.2041 6.9219 2.5749 0.12323 0.0736-1.365 1.0109-3.3073 2.0828l-3.5314 1.949-9.1281-4e-3c-5.2883-2e-3 -8.9612-0.10065-8.7312-0.23365zm35.655-12.449-3.9006-1.8175-2.2472 0.90613c-1.236 0.49838-2.397 0.90614-2.5801 0.90614-0.48456 0-25.869-12.524-25.869-12.763 0-0.11086 4.7228-0.20156 10.495-0.20156h10.495l14.177 7.168c7.7975 3.9424 14.29 7.2761 14.429 7.4083 0.15101 0.1444-2.0143 0.23451-5.424 0.22572l-5.6753-0.0146-3.9006-1.8175z" fill-opacity=".5"/>
  <path d="m-48.687 133.33v17.462h14.288v-17.462h-7.1438zm31.373 0c-8.4084 0-8.4678 4e-3 -7.9499 0.51728 0.287 0.28451 4.7486 3.8552 9.9146 7.9349s9.4701 7.4192 9.5648 7.4202c0.39931 6e-3 8.2846-5.9937 8.1819-6.2255-0.061955-0.13979-2.6162-2.3676-5.6761-4.9506l-5.5635-4.6964zm39.107 0-12.759 8.3344c-7.0173 4.5839-12.993 8.3344-13.279 8.3344-0.49453 0-0.5209 0.19772-0.5209 3.9248 0 2.1586 0.079207 4.004 0.17622 4.101v5.2e-4c0.097013 0.097 3.1331 0.17622 6.7469 0.17622h6.5707v-7.9499l5.9567-3.8964c3.2761-2.1431 9.0804-5.9482 12.898-8.4558l6.9417-4.5594-6.366-5e-3zm21.749 0c-4.9958 0-5.7687 0.0527-5.4364 0.37 0.21308 0.20342 8.3628 5.7994 18.11 12.435l17.722 12.065h8.0796v-24.871h-7.1365l-0.13952 17.069-25.376-17.069zm81.606 0.25786-3.4494 1.8919c-1.8971 1.0406-3.3961 1.9452-3.3311 2.0102s1.5866 0.69794 3.3812 1.4066c1.7946 0.70869 3.3819 1.2953 3.5274 1.3033s4.3093-1.4446 9.2527-3.2287l8.9876-3.2442-9.1839-0.0698zm-88.838 2.5476c-0.26237-0.15144-0.33073 2.1094-0.33073 10.937v11.128h14.288v-13.43l-6.813-4.222c-3.7472-2.3222-6.9618-4.3082-7.1438-4.4132zm57.705 8.352c-1.0506 0.0125-1.6826 0.0403-1.6428 0.0801 0.07961 0.0796 6.4442 3.3503 14.143 7.2683l13.998 7.1236 10.834 0.0176c5.9591 0.01 10.722-0.0824 10.583-0.20464-0.13824-0.1222-5.983-3.0331-12.989-6.4688l-12.738-6.2472-2.4107 0.96015-2.4112 0.96015-3.6365-1.7012-3.6365-1.7007-5.9407-0.076c-1.6338-0.0209-3.1032-0.0238-4.1538-0.0114zm-142.7 8.1571v5.5562h36.248v-5.5562h-18.124z"/>
 </g>
 <style type="text/css">.st0{fill:#FC0C18;}
	.st1{fill:#FC0C18;}</style>
</svg>
