<svg width="480" height="320" version="1.1" viewBox="0 0 480 320" xml:space="preserve" xmlns="http://www.w3.org/2000/svg"><defs><linearGradient id="a" x1="28.31" x2="28.31" y1="1.175e-16" y2="84.66" gradientTransform="scale(3.78)" gradientUnits="userSpaceOnUse"><stop stop-color="#f9bb40" offset="0"/><stop stop-color="#ad2128" offset="1"/></linearGradient></defs><rect width="480" height="320" ry="24" fill="url(#a)"/><path d="m40.12 137.6v31.63h25.54v-31.63h-25.54zm57.24 0 41.14 28.53 17.57-11.29-22.88-17.24h-35.83zm93.36 0-49.45 31.77v13.09h25.77v-14.24l44.22-30.62h-20.54zm31.8 0 69.82 44.87h14.45v-44.87h-12.77v31.3l-47.11-31.3h-24.39zm101 0 51.92 22.69 9.25-3.385 19.88 8.676 12.01-4.395-53.96-23.58h-39.1zm81.09 0-18.25 6.678 16.02 7 37.6-13.68h-35.38zm-181.2 0.5625 27.69 17.79-27.69-17.79zm-1.178 4.24-0.1133 40.07h27.8v-22.28l-27.69-17.79zm133.4 12.08-12.01 4.396 53.96 23.58h39.1l-51.92-22.69-9.25 3.385-19.88-8.678zm2.176 14.3-37.59 13.68h35.38l18.24-6.678-16.02-7zm-317.7 4.072v9.605h64.66v-9.605h-64.66z" fill="#fff"/></svg>
