<svg width="480" height="320" version="1.1" viewBox="0 0 480 320" xml:space="preserve" xmlns="http://www.w3.org/2000/svg"><defs><linearGradient id="a" x1="10.58" x2="39.33" y1="-15.33" y2="91.94" gradientTransform="scale(3.78)" gradientUnits="userSpaceOnUse"><stop stop-color="#fc0" offset="0"/><stop stop-color="#cc3b02" offset="1"/></linearGradient></defs><rect width="480" height="320" ry="24" fill="url(#a)"/><path d="m182.9 52.58 0.0039 0.01172h-0.01367l-38.68 163.6h40.89l19.29-81.57 13.95 53.25h34.97 5.906l8.912-37.67 5.781 22.06h27.93c-0.00146 0.00714-0.00244 0.01434-0.00391 0.02148h12.95l20.91-88.44h-40.88v-0.009766l-1.525 6.443-5.779-22.05h-39.93-0.9492l-8.904 37.66-13.96-53.26h-40.88zm1.332 5.082 18.82 71.84-19.9 84.17h-35.81l36.89-156zm63.73 15.59 18.83 71.83-8.912 37.67-18.82-71.84 8.906-37.66zm48.8 13.01h35.8l-19.12 80.86-18.82-71.81 2.139-9.053zm65.27 144.4 3.043 33.33c0.1771 1.896 1.761 3.345 3.668 3.355l23.88 0.01954 8.68-36.68h-12.27v-0.01172l-7.555 31.96h-4.533l-2.918-31.98h-11.99zm-313.4 0.00977-8.68 36.68h12.26l2.25-9.535h11.89l0.875 9.535h11.99l-3.043-33.32c-0.1771-1.896-1.761-3.355-3.668-3.355h-23.88zm31.22 0 0.4375 4.699h12.65l-6.492 27.44c-0.5522 2.313 1.208 4.531 3.584 4.531h7.607l7.564-31.98h12.74v0.00977l1.262-4.699h-39.36zm82.69 0-8.68 36.68h12.27l7.564-31.98h5.887l-7.564 31.99h12.27l7.564-31.99h5.887l-7.564 32h12.26l7.605-32.14c0.5522-2.313-1.208-4.531-3.584-4.531l-43.92-0.02149zm105.6 0-32.99 0.04102-3.146 13.29c-0.5522 2.313 1.208 4.533 3.584 4.533h16.06l-3.334 14.12h-20.71l-1.127 4.699h32.99l4.48-18.97c0.5418-2.313-1.21-4.533-3.586-4.533h-16.04v-0.00976l2-8.461h20.71l1.113-4.699zm60.38 0-8.68 36.68h12.28l2.26-9.535h11.89l0.8652 9.535h11.99l-3.041-33.32c-0.1771-1.896-1.761-3.355-3.668-3.355h-23.89zm84.02 0-5.355 0.03125-7.605 32.14c-0.5522 2.313 1.208 4.533 3.584 4.533h7.605l20.52-0.03126 1.115-4.699h-20.51l3.334-14.12h18.15l1.105-4.699h-18.15l2-8.461h20.51l1.104-4.678-27.4-0.02149zm-260.6 0.00977-28.33 0.03125-7.596 32.13c-0.5522 2.313 1.21 4.533 3.596 4.533l28.33-0.03126 7.596-32.13c0.5522-2.313-1.208-4.533-3.594-4.533zm122 0-7.607 32.14c-0.5522 2.313 1.208 4.533 3.584 4.533l43.92 0.02149 8.668-36.68h-12.26v-0.00976l-7.553 31.96h-5.889l7.555-31.96h-12.26l-7.555 31.96h-5.887l7.555-31.97h-12.26zm-57.03 0.01172-7.596 32.14c-0.5522 2.313 1.208 4.531 3.584 4.531h7.605l8.68-36.68h-12.27zm-157.2 4.668h4.533l1.625 17.74h-10.36l4.199-17.74zm279.9 0h4.531l1.615 17.74h-10.35l4.199-17.74zm-204.9 0.00977h8.451l-6.449 27.28h-8.451l6.449-27.28z" fill="#fff"/></svg>
