<svg width="480" height="320" version="1.1" viewBox="0 0 127 84.667" xmlns="http://www.w3.org/2000/svg" xmlns:xlink="http://www.w3.org/1999/xlink">
 <defs>
  <linearGradient id="a" x1="10.583" x2="32.945" y1="-15.333" y2="101.36" gradientUnits="userSpaceOnUse">
   <stop stop-color="#9bdb4d" offset="0"/>
   <stop stop-color="#cc3b02" offset="1"/>
  </linearGradient>
 </defs>
 <rect width="127" height="84.667" ry="4.2333" fill="url(#a)" stroke-linecap="square" stroke-linejoin="round" stroke-width=".52917" style="paint-order:stroke fill markers"/>
 <g transform="matrix(.26187 0 0 -.26187 -16.618 151.27)" fill="#fff">
  <g transform="scale(1,-1)" fill-opacity=".5">
   <g fill="#fff" fill-opacity=".5">
    <g fill="#fff" fill-opacity=".5">
     <g fill="#fff" fill-opacity=".5">
      <path d="m187.67-350.22 42.833-176.89s22.5 90.555 22.5 90.555-21.334 86.667-21.334 86.667l-44-0.33398z" fill="#fff" fill-opacity=".5"/>
     </g>
    </g>
   </g>
  </g>
  <g transform="scale(1,-1)">
   <g fill="#fff">
    <g fill="#fff">
     <g fill="#fff">
      <path d="m230.5-527.11h43.5l37.334 146.89h-44l-36.834-146.89z" fill="#fff"/>
     </g>
    </g>
   </g>
  </g>
  <g transform="scale(1,-1)" fill-opacity=".5">
   <g fill="#fff" fill-opacity=".5">
    <g fill="#fff" fill-opacity=".5">
     <g fill="#fff" fill-opacity=".5">
      <path d="m300.33-509.67s22.002 85.446 22.002 85.446l-11 44s-22.001-87-22.001-87l11-42.446z" fill="#fff" fill-opacity=".5"/>
     </g>
    </g>
   </g>
  </g>
  <g transform="scale(1,-1)">
   <g fill="#fff">
    <g fill="#fff">
     <g fill="#fff">
      <path d="m300.33-509.67 28.735 111.67h43.433l-29.23-111.67h-42.938z" fill="#fff"/>
     </g>
    </g>
   </g>
  </g>
  <g transform="scale(1,-1)" fill-opacity=".5">
   <g fill="#fff" fill-opacity=".5">
    <g fill="#fff" fill-opacity=".5">
     <g fill="#fff" fill-opacity=".5">
      <path d="m397-492.22s-24.5 94.222-24.5 94.222l-22.166-84.555 3.333-9.667h43.333z" fill="#fff" fill-opacity=".5"/>
     </g>
    </g>
   </g>
  </g>
  <g transform="matrix(1,0,0,-1,0,15)">
   <path d="m179.13-291.16c-1.1587-1.665-1.3164-2.5371 4.6748-23.165-10.084 0.083-11 0-11 0l2-5.4268h29.333l-1.6665 5.4268h-9s8e-3 0.0391-6.6665 24.186c-5.8413-0.0205-6.7319 0.33399-7.6748-1.0205z"/>
   <path d="m216.14-314.66-5.333 19.666h5.333l5.3335-19.666h-5.3335zm15.159-3.8359c0.9956 1.5029 0.5 2.334-6.8257 28.354-22.674 0.14551-22.174-0.0205-23.341-1.3545-1.3213-1.5107-0.5-2.5068 6.6748-28.258 23.042 3e-3 22.5-0.24024 23.492 1.2578z"/>
   <path d="m230.81-290.14c-0.57617-0.47656 0.75049-2.0498 8-29.612 36.792-0.12207 34.792-0.49024 36.042 1.3848 0.71485 1.0723 0.61719 1.7061-6.375 28.228-12-0.10254-10.25 0-10.25 0l6-25.519h-3.4165l-6.667 25.519h-10.333l7-25.519h-3.3335l-7 25.519h-9.6665z"/>
   <path d="m273.6-291.25c-0.375-1.375 0-1.1318 7.209-28.51 10.416-0.24707 9.999 0 9.999 0s-0.34082 1.7578-8.333 29.612c-7.125-0.10254-8.5215 0.19629-8.875-1.1025z"/>
   <path d="m288.14-290.14 1.583-5.5713h15.875s0.20801-1.1143 2.208-8.6143c-14.333-0.042-14.716 0.66895-15.833-1.167-0.50781-0.83593 0.15918-1.5088 3.5-14.26 22.325 0.084 26.333 0 26.333 0l-1.333 4.7598-15 0.125s-0.1748-0.29297-2 5.542c15-0.042 14.37 0.0781 15.125 0.83301 1.125 1.125 0.75 1.75-3.792 18.353-28.167 0.14746-26.666 0-26.666 0z"/>
   <path d="m327.22-319.75c-8.25 28.043-8.0488 27.697-7.125 28.885 0.875 1.125 2.25 0.64942 37.375 0.75196 7-27.103 7.833-29.637 7.833-29.637h-10.333l-7.167 25.927h-3.667l7.167-25.927h-10l-7.166 25.76h-3.667l7.167-25.76h-10.417z"/>
   <path d="m394.47-319.75c3.834 27.753 3.959 28.052 4.834 28.927 0.75 0.75 0.79101 0.70801 20.041 0.70801 7.125-28.125 0.375-1.5068 7.458-29.635h-10.333l-6.125 25.469h-2.208l-3-25.469s-2.542-0.12207-10.667 0z"/>
   <path d="m457.47-319.75s-1.125 3e-3 -25.333 0c-7.292 28.503-7.292 28.362-6.667 29.135s1.5 0.5 25.333 0.47754c0.54199-3.4775 0.66699-5.2275 0.66699-5.2275h-15.375l2.042-8.625 13.458-0.125 1.208-5.208h-13.333l1.5-5.667h15.5l1-4.7598z"/>
   <g transform="scale(1,-1)">
    <text transform="matrix(1 0 0 -1 456.31 289.83)" fill="#ffffff" font-family="Arial" font-size="10px" font-weight="bold"><tspan x="0 6.1100001" y="0">TM</tspan></text>
    <g transform="scale(1,-1)" fill="#fff">
     <path d="m378.47-314.9-2.9629 11.219h6.9131l-0.90039-11.219h-3.0498zm15.666 24.783h-10.333l-0.91699-7.377h-8.084s-2.165 7.377-2.165 7.377h-10.168s9.7e-4 -0.88477 8.167-29.637c16.709-0.12305 17.334-0.11524 18.209 1.3848 0.75 1.125 0.88086 2.7988 5.291 28.252z"/>
     <path d="m157.81-314.9-2.9629 11.219h6.9131l-0.90039-11.219h-3.0498zm15.666 24.783h-10.333l-0.91699-7.377h-8.084l-2.165 7.377h-10.168s9.8e-4 -0.88477 8.167-29.637c16.709-0.12305 17.334-0.11524 18.209 1.3848 0.75 1.125 0.88086 2.7988 5.291 28.252z"/>
    </g>
   </g>
  </g>
 </g>
 <style type="text/css">.st0{fill:#FC0C18;}
	.st1{fill:#FC0C18;}</style>
</svg>
