<svg version="1.1" viewBox="0 0 480 320" xmlns="http://www.w3.org/2000/svg"><defs><linearGradient id="a" x1="41.22" x2="63.15" y1="-15.72" y2="113.9" gradientTransform="scale(3.78)" gradientUnits="userSpaceOnUse"><stop stop-color="#8af12f" offset="0"/><stop stop-color="#007367" offset="1"/></linearGradient></defs><rect width="480" height="320" ry="24" fill="url(#a)"/><path d="m192 120h96c22.09 0 40 17.91 40 40s-17.91 40-40 40c-13.12 0-24.72-6.32-32-16h-32c-7.28 9.68-18.88 16-32 16-22.09 0-40-17.91-40-40s17.91-40 40-40m110 20c-5.523 0-10 4.477-10 10s4.477 10 10 10 10-4.477 10-10-4.477-10-10-10m-20 20c-5.523 0-10 4.477-10 10s4.477 10 10 10 10-4.477 10-10-4.477-10-10-10m-98-20v11a1 1 135 0 1-1 1h-11a4 4 135 0 0-4 4v8a4 4 45 0 0 4 4h11a1 1 45 0 1 1 1v11a4 4 45 0 0 4 4h8a4 4 135 0 0 4-4v-11a1 1 135 0 1 1-1h11a4 4 135 0 0 4-4v-8a4 4 45 0 0-4-4h-11a1 1 45 0 1-1-1v-11a4 4 45 0 0-4-4h-8a4 4 135 0 0-4 4z" fill="#fff"/></svg>
