<svg width="480" height="320" version="1.1" viewBox="0 0 127 84.667" xmlns="http://www.w3.org/2000/svg">
 <defs>
  <linearGradient id="a" x1="18.556" x2="120.69" y1="101.47" y2="-10.553" gradientUnits="userSpaceOnUse">
   <stop stop-color="#bc245d" offset="0"/>
   <stop stop-color="#c6262e" offset=".39847"/>
   <stop stop-color="#452981" offset="1"/>
  </linearGradient>
 </defs>
 <rect width="127" height="84.667" ry="4.2333" fill="url(#a)" stroke-linecap="square" stroke-linejoin="round" stroke-width=".52917" style="paint-order:stroke fill markers"/>
 <g transform="translate(9.5245)" stroke-width="2.1167">
  <g fill="none" stroke="#fff">
   <path d="m40.413 20.838-3.4542 32.407a1.9662 1.9662 123.04 0 1-0.97201 1.4944l-7.4334 4.2917a2.2851 2.2851 126.37 0 0-1.0864 1.4754l-2.3089 10.22a0.79928 0.79928 51.365 0 0 0.77963 0.97542l53.757 1e-6a1 1 135 0 0 1-1v-50.388a2.5409 2.5409 68.517 0 0-0.68157-1.7318l-4.5513-4.8865a2.298 2.298 23.517 0 0-1.6816-0.73176h-35.011a1 1 135 0 0-1 1v3.8a1.4667 1.4667 55.714 0 0 0.93087 1.3653l0.88789 0.34848a1.3114 1.3114 58.756 0 1 0.82488 1.3597z"/>
   <path d="m53.866 71.702 2.5293-11.195a2.2851 2.2851 126.37 0 1 1.0864-1.4754l7.3901-4.2667a1.963 1.963 123 0 0 0.9707-1.4945l3.2109-30.507a3.6035 3.6035 48.023 0 0-3.5813-3.9807l-26.703-0.017545a1.0007 1.0007 45.019 0 1-1-1.0007v-1.0472"/>
   <path d="m40.233 51.283c-0.17394 1.5919 1.0728 2.9823 2.6742 2.9823h19.751c1.7071 3.8e-5 3.1405-1.2853 3.3258-2.9823l2.8771-26.34c0.17394-1.5919-1.0728-2.9823-2.6742-2.9823h-19.75c-1.7071 8e-6 -3.1404 1.2853-3.3262 2.9823z"/>
  </g>
  <g transform="rotate(75 31.191 50.066)">
   <path d="m35.243 46.698a2.1167 2.1167 0 0 1-2.1167 2.1167 2.1167 2.1167 0 0 1-2.1167-2.1167 2.1167 2.1167 0 0 1 2.1167-2.1167 2.1167 2.1167 0 0 1 2.1167 2.1167z" fill="none" stroke="#fff" stroke-linecap="square" stroke-linejoin="round" stroke-width="2.1167" style="paint-order:stroke markers fill"/>
   <path d="m35.243 46.698h4.2333" fill="none" stroke="#fff" stroke-width="2.1167"/>
   <g fill="#fff">
    <path d="m39.931 44.316c-0.19813 2e-6 -0.36636 0.07869-0.46668 0.1543-0.10032 0.0756-0.15892 0.15274-0.20893 0.23065-0.10002 0.15581-0.16075 0.32591-0.21479 0.52492-0.10808 0.39802-0.16793 0.90713-0.16793 1.4714s0.05985 1.0749 0.16793 1.473c0.05404 0.19901 0.11477 0.36752 0.21479 0.52333 0.05001 0.07791 0.10862 0.15505 0.20893 0.23065 0.10032 0.0756 0.26856 0.15429 0.46668 0.1543s0.36636-0.07869 0.46668-0.1543c0.10032-0.0756 0.15892-0.15274 0.20893-0.23065 0.10002-0.15581 0.16075-0.32432 0.21479-0.52333 0.10807-0.39802 0.16793-0.90872 0.16793-1.473s-0.05986-1.0734-0.16793-1.4714c-0.05404-0.19901-0.11477-0.36911-0.21479-0.52492-0.05001-0.07791-0.10862-0.15505-0.20893-0.23065-0.10032-0.0756-0.26855-0.1543-0.46668-0.1543z" color="#000000" style="paint-order:stroke markers fill"/>
    <path d="m41.438 38.694c-0.19813 2e-6 -0.36636 0.07869-0.46668 0.1543-0.10032 0.0756-0.15892 0.15274-0.20893 0.23065-0.10002 0.15581-0.16075 0.32591-0.21479 0.52492-0.10808 0.39802-0.16793 0.90713-0.16793 1.4714s0.05985 1.0749 0.16793 1.473c0.05404 0.19901 0.11477 0.36752 0.21479 0.52333 0.05001 0.07791 0.10862 0.15505 0.20893 0.23065 0.10032 0.0756 0.26856 0.15429 0.46668 0.1543s0.36636-0.07869 0.46668-0.1543c0.10032-0.0756 0.15892-0.15274 0.20893-0.23065 0.10002-0.15581 0.16075-0.32432 0.21479-0.52333 0.10807-0.39802 0.16793-0.90872 0.16793-1.473s-0.05986-1.0734-0.16793-1.4714c-0.05404-0.19901-0.11477-0.36911-0.21479-0.52492-0.05001-0.07791-0.10862-0.15505-0.20893-0.23065-0.10032-0.0756-0.26855-0.1543-0.46668-0.1543z" color="#000000" style="paint-order:stroke markers fill"/>
    <path d="m42.944 33.071c-0.19813 2e-6 -0.36636 0.07869-0.46668 0.1543-0.10032 0.0756-0.15892 0.15274-0.20893 0.23065-0.10002 0.15581-0.16075 0.32591-0.21479 0.52492-0.10808 0.39802-0.16793 0.90713-0.16793 1.4714s0.05985 1.0749 0.16793 1.473c0.05404 0.19901 0.11477 0.36752 0.21479 0.52333 0.05001 0.07791 0.10862 0.15505 0.20893 0.23065 0.10032 0.0756 0.26856 0.15429 0.46668 0.1543s0.36636-0.07869 0.46668-0.1543c0.10032-0.0756 0.15892-0.15274 0.20893-0.23065 0.10002-0.15581 0.16075-0.32432 0.21479-0.52333 0.10807-0.39802 0.16793-0.90872 0.16793-1.473s-0.05986-1.0734-0.16793-1.4714c-0.05404-0.19901-0.11477-0.36911-0.21479-0.52492-0.05001-0.07791-0.10862-0.15505-0.20893-0.23065-0.10032-0.0756-0.26855-0.1543-0.46668-0.1543z" color="#000000" style="paint-order:stroke markers fill"/>
    <path d="m44.451 27.449c-0.19813 2e-6 -0.36636 0.07869-0.46668 0.1543-0.10032 0.0756-0.15892 0.15274-0.20893 0.23065-0.10002 0.15581-0.16075 0.32591-0.21479 0.52492-0.10808 0.39802-0.16793 0.90713-0.16793 1.4714s0.05985 1.0749 0.16793 1.473c0.05404 0.19901 0.11477 0.36752 0.21479 0.52333 0.05001 0.07791 0.10862 0.15505 0.20893 0.23065 0.10032 0.0756 0.26856 0.15429 0.46668 0.1543s0.36636-0.07869 0.46668-0.1543c0.10032-0.0756 0.15892-0.15274 0.20893-0.23065 0.10002-0.15581 0.16075-0.32432 0.21479-0.52333 0.10807-0.39802 0.16793-0.90872 0.16793-1.473s-0.05986-1.0734-0.16793-1.4714c-0.05404-0.19901-0.11477-0.36911-0.21479-0.52492-0.05001-0.07791-0.10862-0.15505-0.20893-0.23065-0.10032-0.0756-0.26855-0.1543-0.46668-0.1543z" color="#000000" style="paint-order:stroke markers fill"/>
   </g>
  </g>
 </g>
 <style type="text/css">.st0{fill:#FC0C18;}
	.st1{fill:#FC0C18;}</style>
</svg>
