<svg width="480" height="320" version="1.1" viewBox="0 0 127 84.667" xmlns="http://www.w3.org/2000/svg">
 <defs>
  <linearGradient id="a" x1="80.509" x2="10.583" y1="-15.147" y2="71.438" gradientUnits="userSpaceOnUse">
   <stop stop-color="#3689e6" offset="0"/>
   <stop stop-color="#273445" offset="1"/>
  </linearGradient>
 </defs>
 <rect width="127" height="84.667" ry="4.2333" fill="url(#a)" stroke-linecap="square" stroke-linejoin="round" stroke-width=".52917" style="paint-order:stroke fill markers"/>
 <g fill="#8cd5ff" stroke-width="1.9634" aria-label="2">
  <path d="m11.471 71.438h35.189l0.56077-3.2525h-30.142l0.028039-0.30843 18.59-17.973c10.907-10.486 14.468-15.113 15.505-21.506 1.458-8.6359-4.0656-15.169-13.178-15.169-9.3649 0-17.272 6.8414-18.73 15.73h3.3927c1.2057-7.0097 7.4022-12.505 14.917-12.505 7.1779 0 11.412 4.9348 10.234 11.944-0.89724 5.5797-4.2619 9.7294-13.823 18.954l-22.095 21.422z"/>
 </g>
 <g fill="#fff" stroke-width=".32899" aria-label="players">
  <path d="m56.274 71.438h1.4829l0.84739-5.0594h0.12462c0.243 0.52339 0.6667 1.6699 2.5173 1.6699 2.3864 0 4.3803-1.9191 4.885-4.9597 0.49224-3.0157-0.85362-4.9348-3.265-4.9348-1.8755 0-2.6481 1.1465-3.0406 1.6449h-0.17446l0.24923-1.5203h-1.4206zm2.8537-8.3742c0.3427-2.1434 1.539-3.589 3.3397-3.589 1.863 0 2.511 1.5702 2.1932 3.589-0.35516 2.0437-1.5515 3.6637-3.3896 3.6637-1.7758 0-2.4986-1.4954-2.1434-3.6637z"/>
  <path d="m71.165 55.088h-1.4705l-2.1185 12.761h1.4705z"/>
  <path d="m74.53 68.073c1.6699 0 2.6917-0.89724 3.0905-1.5203h0.07477l-0.22431 1.296h1.4705l1.0468-6.3056c0.49847-3.0406-1.7446-3.3896-2.9659-3.3896-1.4456 0-3.1902 0.49847-4.212 2.2431l1.296 0.49847c0.44862-0.69785 1.3957-1.4456 2.7914-1.4456 1.3459 0 1.8443 0.72278 1.6449 1.944v0.04985c-0.12462 0.69785-0.84739 0.64801-2.6169 0.87232-1.8194 0.22431-3.8133 0.62308-4.1871 2.8163-0.29908 1.8692 0.97201 2.9409 2.7914 2.9409zm0.4237-1.3209c-1.1714 0-1.9191-0.52339-1.7446-1.5452 0.17446-1.1215 1.2711-1.4705 2.4425-1.62 0.62308-0.07477 2.3179-0.24923 2.6169-0.54831l-0.22431 1.3459c-0.19939 1.1963-1.3459 2.3677-3.0905 2.3677z"/>
  <path d="m81.645 71.438c1.296 0 2.3677-0.67293 3.1902-2.2057l5.8694-10.954h-1.6574l-3.913 7.6515h-0.09969l-1.3708-7.6515h-1.5328l1.9191 9.5705-0.41123 0.7477c-0.79755 1.4518-1.4206 1.6449-2.4425 1.3708l-0.59816 1.296c0.13708 0.07477 0.54831 0.17446 1.0468 0.17446z"/>
  <path d="m94.693 68.048c1.9502 0 3.5204-0.97201 4.212-2.4176l-1.3459-0.39877c-0.54208 0.99693-1.4642 1.4954-2.6419 1.4954-1.8443 0-2.8288-0.82247-2.4736-3.1653h6.9598l0.09969-0.62308c0.60439-3.564-1.3147-4.7853-3.3148-4.7853-2.5858 0-4.6544 2.0437-5.1342 4.9847-0.49224 2.9409 0.87855 4.9099 3.6388 4.9099zm-2.0437-5.7573c0.29285-1.3583 1.7072-2.8163 3.3148-2.8163 1.6013 0 2.4238 1.1963 2.1434 2.8163z"/>
  <path d="m100.95 67.849h1.4705l0.99693-6.0564c0.22431-1.296 1.3957-2.2431 2.7914-2.2431 0.39877 0 0.79754 0.07477 0.89724 0.09969l0.24923-1.4954c-0.17446-0.02492-0.54831-0.02492-0.77262-0.02492-1.1465 0-2.268 0.64801-2.7665 1.5951h-0.0997l0.24923-1.4456h-1.4206z"/>
  <path d="m115.53 60.421c-0.24923-1.3708-1.1216-2.268-3.0157-2.268-2.0188 0-3.7136 1.1465-3.9877 2.7665-0.22431 1.3209 0.42369 2.1932 2.1185 2.6169l1.5203 0.37385c0.94708 0.22431 1.3209 0.67293 1.1963 1.3459-0.12462 0.82247-1.1216 1.4954-2.4923 1.4954-1.1963 0-1.8692-0.52339-1.944-1.5452l-1.4705 0.34893c0.0748 1.62 1.2711 2.4923 3.24 2.4923 2.2182 0 3.9379-1.2212 4.212-2.8662 0.22431-1.3459-0.47354-2.1683-2.1185-2.592l-1.3708-0.34893c-1.0717-0.27416-1.5203-0.67293-1.3957-1.3957 0.12462-0.82247 1.0966-1.4206 2.268-1.4206 1.296 0 1.6948 0.69785 1.8443 1.3708z"/>
 </g>
 <style type="text/css">.st0{fill:#FC0C18;}
	.st1{fill:#FC0C18;}</style>
</svg>
