<svg width="480" height="320" version="1.1" viewBox="0 0 127 84.667" xmlns="http://www.w3.org/2000/svg" xmlns:xlink="http://www.w3.org/1999/xlink">
 <defs>
  <linearGradient id="a" x1="41.216" x2="63.147" y1="-15.721" y2="113.91" gradientUnits="userSpaceOnUse">
   <stop stop-color="#68b723" offset="0"/>
   <stop stop-color="#007367" offset="1"/>
  </linearGradient>
 </defs>
 <rect width="127" height="84.667" ry="4.2333" fill="url(#a)" stroke-linecap="square" stroke-linejoin="round" stroke-width=".52917" style="paint-order:stroke fill markers"/>
 <g transform="matrix(2.1167 0 0 2.1167 38.1 16.933)">
  <rect width="24" height="24" fill="none"/>
  <g fill="#fff">
   <g fill="#fff">
    <path d="m21.58 16.09-1.09-7.66c-0.28-1.97-1.97-3.43-3.96-3.43h-9.06c-1.99 0-3.68 1.46-3.96 3.43l-1.09 7.66c-0.22 1.54 0.97 2.91 2.52 2.91 0.68 0 1.32-0.27 1.8-0.75l2.26-2.25h6l2.25 2.25c0.48 0.48 1.13 0.75 1.8 0.75 1.56 0 2.75-1.37 2.53-2.91zm-2.1 0.72c-0.08 0.09-0.21 0.19-0.42 0.19-0.15 0-0.29-0.06-0.39-0.16l-2.84-2.84h-7.66l-2.84 2.84c-0.1 0.1-0.24 0.16-0.39 0.16-0.21 0-0.34-0.1-0.42-0.19s-0.16-0.23-0.13-0.44l1.09-7.66c0.15-0.97 1-1.71 1.99-1.71h9.06c0.99 0 1.84 0.74 1.98 1.72l1.09 7.66c0.03 0.2-0.05 0.34-0.12 0.43z"/>
    <polygon points="8 11 8 13 9 13 9 11 11 11 11 10 9 10 9 8 8 8 8 10 6 10 6 11"/>
    <circle cx="17" cy="12" r="1"/>
    <circle cx="15" cy="9" r="1"/>
   </g>
  </g>
 </g>
 <style type="text/css">.st0{fill:#FC0C18;}
	.st1{fill:#FC0C18;}</style>
</svg>
