<svg version="1.1" viewBox="0 0 480 320" xmlns="http://www.w3.org/2000/svg"><defs><linearGradient id="a" x1="64.81" x2="106.8" y1="-26.6" y2="84.66" gradientTransform="scale(3.78)" gradientUnits="userSpaceOnUse"><stop stop-color="#2cedc1" offset="0"/><stop stop-color="#0d52bf" offset="1"/></linearGradient></defs><rect width="480" height="320" ry="24" fill="url(#a)"/><path d="m198 80h84a6 6 45 0 1 6 6v38a9.657 9.657 112.5 0 1-2.828 6.828l-28.46 28.46a1 1 90 0 0 0 1.414l28.46 28.46a9.657 9.657 67.5 0 1 2.828 6.828v38a6 6 135 0 1-6 6h-84a6 6 45 0 1-6-6v-38a9.657 9.657 112.5 0 1 2.828-6.828l28.46-28.46a1 1 90 0 0 0-1.414l-28.46-28.46a9.657 9.657 67.5 0 1-2.828-6.828v-38a6 6 135 0 1 6-6zm73.29 115.3-30.59-30.59a1 1 0 0 0-1.414 0l-30.59 30.59a2.414 2.414 112.5 0 0-0.7071 1.707v26a1 1 45 0 0 1 1h62a1 1 135 0 0 1-1v-26a2.414 2.414 67.5 0 0-0.7071-1.707zm-30.59-40 30.59-30.59a2.414 2.414 112.5 0 0 0.7071-1.707v-26a1 1 45 0 0-1-1h-62a1 1 135 0 0-1 1v26a2.414 2.414 67.5 0 0 0.7071 1.707l30.59 30.59a1 1 0 0 0 1.414 0zm-14.71-43.29h28a2 2 45 0 1 2 2v2a4.828 4.828 112.5 0 1-1.414 3.414l-13.17 13.17a2 2 0 0 1-2.828 0l-13.17-13.17a4.828 4.828 67.5 0 1-1.414-3.414v-2a2 2 135 0 1 2-2z" fill="#fff"/></svg>
