<svg version="1.1" viewBox="0 0 480 320" xmlns="http://www.w3.org/2000/svg"><defs><linearGradient id="a" x1="64.08" x2="64.08" y1="4.352" y2="71.84" gradientTransform="scale(3.78)" gradientUnits="userSpaceOnUse"><stop stop-color="#a60037" offset="0"/><stop stop-color="#a1051f" offset=".3173"/><stop stop-color="#7a0000" offset="1"/></linearGradient></defs><rect width="480" height="320" ry="24" fill="url(#a)"/><path d="m324 156v8a4 4 135 0 1-4 4h-7.4c-0.5523 0-1.047 0.4452-1.114 0.9934-3.976 32.56-29.93 58.52-62.49 62.49-0.5482 0.06693-0.9934 0.562-0.9934 1.114v7.4a4 4 135 0 1-4 4h-8a4 4 45 0 1-4-4v-7.4c0-0.5523-0.4452-1.047-0.9934-1.114-32.56-3.976-58.52-29.93-62.49-62.49-0.06693-0.5482-0.562-0.9934-1.114-0.9934h-7.4a4 4 45 0 1-4-4v-8a4 4 135 0 1 4-4h7.4c0.5523 0 1.047-0.4452 1.114-0.9934 3.976-32.56 29.93-58.52 62.49-62.49 0.5482-0.06694 0.9934-0.562 0.9934-1.114v-7.4a4 4 135 0 1 4-4h8a4 4 45 0 1 4 4v7.4c0 0.5523 0.4452 1.047 0.9934 1.114 32.56 3.976 58.52 29.93 62.49 62.49 0.0669 0.5482 0.562 0.9934 1.114 0.9934h7.4a4 4 45 0 1 4 4zm-128 0v8a4 4 135 0 1-4 4h-6.44c-0.5523 0-0.9388 0.4436-0.8524 0.989 3.765 23.76 22.54 42.54 46.3 46.3 0.5455 0.08641 0.989-0.3001 0.989-0.8524v-6.44a4 4 135 0 1 4-4h8a4 4 45 0 1 4 4v6.44c0 0.5523 0.4436 0.9388 0.989 0.8524 23.76-3.765 42.54-22.54 46.3-46.3 0.08641-0.5455-0.3001-0.989-0.8524-0.989h-6.44a4 4 45 0 1-4-4v-8a4 4 135 0 1 4-4h6.44c0.5523 0 0.9388-0.4436 0.8524-0.989-3.765-23.76-22.54-42.54-46.3-46.3-0.5455-0.08641-0.989 0.3001-0.989 0.8524v6.44a4 4 135 0 1-4 4h-8a4 4 45 0 1-4-4v-6.44c0-0.5523-0.4436-0.9388-0.989-0.8524-23.76 3.765-42.54 22.54-46.3 46.3-0.08641 0.5455 0.3001 0.989 0.8524 0.989h6.44a4 4 45 0 1 4 4zm12 32v-4c0-10.64 21.36-16 32-16s32 5.36 32 16v4a4 4 135 0 1-4 4h-56a4 4 45 0 1-4-4zm32-60c8.837 0 16 7.163 16 16s-7.163 16-16 16-16-7.163-16-16 7.163-16 16-16z" fill="#fff"/></svg>
