<svg width="480" height="320" version="1.1" viewBox="0 0 127 84.667" xmlns="http://www.w3.org/2000/svg" xmlns:xlink="http://www.w3.org/1999/xlink">
 <defs>
  <linearGradient id="a" x1="42.062" x2="10.583" y1="13.229" y2="94.157" gradientUnits="userSpaceOnUse">
   <stop stop-color="#f37329" offset="0"/>
   <stop stop-color="#a10705" offset="1"/>
  </linearGradient>
 </defs>
 <rect width="127" height="84.667" ry="4.2333" fill="url(#a)" stroke-linecap="square" stroke-linejoin="round" stroke-width=".52917" style="paint-order:stroke fill markers"/>
 <g transform="matrix(2.1167 0 0 2.1167 38.1 16.933)">
  <rect width="24" height="24" fill="none"/>
  <path d="m19 5h-2v-2h-10v2h-2c-1.1 0-2 0.9-2 2v1c0 2.55 1.92 4.63 4.39 4.94 0.63 1.5 1.98 2.63 3.61 2.96v3.1h-4v2h10v-2h-4v-3.1c1.63-0.33 2.98-1.46 3.61-2.96 2.47-0.31 4.39-2.39 4.39-4.94v-1c0-1.1-0.9-2-2-2zm-14 3v-1h2v3.82c-1.16-0.42-2-1.52-2-2.82zm7 6c-1.65 0-3-1.35-3-3v-6h6v6c0 1.65-1.35 3-3 3zm7-6c0 1.3-0.84 2.4-2 2.82v-3.82h2z" fill="#fff"/>
 </g>
 <style type="text/css">.st0{fill:#FC0C18;}
	.st1{fill:#FC0C18;}</style>
</svg>
