<svg width="480" height="320" version="1.1" viewBox="0 0 127 84.667" xmlns="http://www.w3.org/2000/svg">
 <defs>
  <linearGradient id="a" x1="80.509" x2="56.077" y1="-15.147" y2="84.667" gradientUnits="userSpaceOnUse">
   <stop stop-color="#28bca3" offset="0"/>
   <stop stop-color="#273445" offset="1"/>
  </linearGradient>
 </defs>
 <rect width="127" height="84.667" ry="4.2333" fill="url(#a)" stroke-linecap="square" stroke-linejoin="round" stroke-width=".52917" style="paint-order:stroke fill markers"/>
 <g transform="matrix(1.2434 0 0 1.2434 -10.474 10.625)" font-family="sans-serif">
  <g fill="#89ffdd" stroke-width="1.579" aria-label="4">
   <path d="m18.258 38.535h21.355l-1.7363 10.373h2.7511l1.7138-10.373h5.9757l0.45099-2.6158h-5.9757l5.5021-33.193h-3.2246l-26.451 33.554zm21.806-2.6158h-17.972v-0.24805l22.527-28.593h0.20295z"/>
  </g>
  <g fill="#fff" stroke-width=".26458" aria-label="players">
   <path d="m53.681 48.908h1.1926l0.6815-4.0689h0.10022c0.19543 0.42092 0.53618 1.343 2.0244 1.343 1.9192 0 3.5227-1.5434 3.9286-3.9888 0.39587-2.4253-0.68651-3.9687-2.6258-3.9687-1.5083 0-2.1297 0.92203-2.4454 1.3229h-0.14031l0.20044-1.2227h-1.1425zm2.295-6.7348c0.2756-1.7238 1.2377-2.8863 2.6859-2.8863 1.4983 0 2.0194 1.2628 1.7639 2.8863-0.28563 1.6436-1.2477 2.9465-2.726 2.9465-1.4281 0-2.0094-1.2026-1.7238-2.9465z"/>
   <path d="m65.657 35.759h-1.1826l-1.7037 10.263h1.1826z"/>
   <path d="m68.363 46.202c1.343 0 2.1648-0.72158 2.4855-1.2227h0.06013l-0.1804 1.0423h1.1826l0.84185-5.0711c0.40088-2.4454-1.4031-2.726-2.3852-2.726-1.1626 0-2.5656 0.40088-3.3874 1.804l1.0423 0.40088c0.36079-0.56123 1.1225-1.1626 2.2449-1.1626 1.0824 0 1.4833 0.58128 1.3229 1.5634v0.04009c-0.10022 0.56123-0.6815 0.52114-2.1046 0.70154-1.4632 0.1804-3.0667 0.5011-3.3674 2.265-0.24053 1.5033 0.78172 2.3652 2.2449 2.3652zm0.34075-1.0623c-0.94207 0-1.5434-0.42092-1.4031-1.2427 0.14031-0.90198 1.0222-1.1826 1.9643-1.3029 0.5011-0.06013 1.8641-0.20044 2.1046-0.44097l-0.1804 1.0824c-0.16035 0.96211-1.0824 1.9042-2.4855 1.9042z"/>
   <path d="m74.085 48.908c1.0423 0 1.9042-0.54119 2.5656-1.7739l4.7204-8.8094h-1.3329l-3.1469 6.1535h-0.08018l-1.1024-6.1535h-1.2327l1.5434 7.6969-0.33073 0.60132c-0.64141 1.1676-1.1425 1.3229-1.9643 1.1024l-0.48106 1.0423c0.11024 0.06013 0.44097 0.14031 0.84185 0.14031z"/>
   <path d="m84.578 46.182c1.5684 0 2.8312-0.78172 3.3874-1.9443l-1.0824-0.3207c-0.43596 0.80176-1.1776 1.2026-2.1247 1.2026-1.4833 0-2.275-0.66145-1.9894-2.5456h5.5973l0.08018-0.5011c0.48607-2.8663-1.0573-3.8485-2.6659-3.8485-2.0796 0-3.7432 1.6436-4.1291 4.0088-0.39587 2.3652 0.70655 3.9487 2.9264 3.9487zm-1.6436-4.6302c0.23552-1.0924 1.373-2.265 2.6659-2.265 1.2878 0 1.9493 0.96211 1.7238 2.265z"/>
   <path d="m89.609 46.021h1.1826l0.80176-4.8707c0.1804-1.0423 1.1225-1.804 2.2449-1.804 0.3207 0 0.64141 0.06013 0.72158 0.08018l0.20044-1.2026c-0.14031-0.02004-0.44097-0.02004-0.62136-0.02004-0.92202 0-1.824 0.52114-2.2249 1.2828h-0.08018l0.20044-1.1626h-1.1425z"/>
   <path d="m101.34 40.048c-0.20044-1.1024-0.90199-1.824-2.4253-1.824-1.6236 0-2.9866 0.92203-3.207 2.2249-0.1804 1.0623 0.34075 1.7639 1.7037 2.1046l1.2227 0.30066c0.76167 0.1804 1.0623 0.54119 0.96211 1.0824-0.10022 0.66145-0.90198 1.2026-2.0044 1.2026-0.96211 0-1.5033-0.42092-1.5634-1.2427l-1.1826 0.28062c0.06013 1.3029 1.0222 2.0044 2.6057 2.0044 1.7839 0 3.167-0.98216 3.3874-2.3051 0.1804-1.0824-0.38083-1.7438-1.7037-2.0846l-1.1024-0.28062c-0.86189-0.22048-1.2227-0.54119-1.1225-1.1225 0.10022-0.66145 0.88194-1.1425 1.824-1.1425 1.0423 0 1.363 0.56123 1.4833 1.1024z"/>
  </g>
 </g>
 <style type="text/css">.st0{fill:#FC0C18;}
	.st1{fill:#FC0C18;}</style>
</svg>
