<svg width="480" height="320" version="1.1" viewBox="0 0 127 84.667" xmlns="http://www.w3.org/2000/svg">
 <defs>
  <linearGradient id="a" x1="18.556" x2="120.69" y1="101.47" y2="-10.553" gradientUnits="userSpaceOnUse">
   <stop stop-color="#bc245d" offset="0"/>
   <stop stop-color="#c6262e" offset=".39847"/>
   <stop stop-color="#452981" offset="1"/>
  </linearGradient>
 </defs>
 <rect width="127" height="84.667" ry="4.2333" fill="url(#a)" stroke-linecap="square" stroke-linejoin="round" stroke-width=".52917" style="paint-order:stroke fill markers"/>
 <g transform="translate(-3.7003)" stroke-width="2.1167">
  <g transform="translate(10.58 .00013082)" fill="none" stroke="#fafafa">
   <path d="m70.978 71.703h-46.1c-0.5125 0-0.89257-0.47552-0.77963-0.97542l2.3089-10.22c0.14048-0.62181 0.53432-1.1567 1.0864-1.4754l7.4334-4.2917c0.54419-0.31419 0.90543-0.86956 0.97202-1.4944l3.4544-32.408c0.0626-0.58724-0.27519-1.1438-0.82501-1.3594l-0.88762-0.34799c-0.56157-0.22018-0.931-0.76181-0.93101-1.365v-3.8011c0-0.55228 0.44772-1 1-1h28.108l14.978 4.9772"/>
   <path d="m62.902 54.24h-21.933a1.7981 1.7981 48.042 0 1-1.788-1.9887l3.0189-28.321a2.2245 2.2245 138.04 0 1 2.212-1.9887h21.933a1.7981 1.7981 48.042 0 1 1.788 1.9887l-3.0188 28.321a2.2245 2.2245 138.04 0 1-2.212 1.9887z"/>
   <path d="m83.978 18.999c0.56659 0.18829 0.94895 0.71824 0.94898 1.3153v50.388c0 0.55228-0.44772 1-1 1l-29.941 1.3e-5c-0.5125 0-0.89257-0.47552-0.77963-0.97542l2.3089-10.22c0.14048-0.62181 0.53432-1.1567 1.0864-1.4754l7.4334-4.2917c0.54419-0.31419 0.90543-0.86956 0.97202-1.4944l3.4544-32.408c0.0626-0.58724-0.27519-1.1438-0.82501-1.3594l-0.88762-0.34799c-0.56157-0.22018-0.931-0.76181-0.93101-1.365v-3.8011c6e-6 -0.49216 0.48193-0.83985 0.94898-0.68465l17.211 5.7195-9.5e-5 -2.24e-4"/>
   <path d="m36.71 14.023v3.7416a1.0007 1.0007 45.019 0 0 1 1.0007l27.155 0.01833a5.3002 5.3002 10.723 0 1 1.931 0.36568l0.84043 0.32949a1.3109 1.3109 58.746 0 1 0.82502 1.3594l-0.11762 1.1034"/>
  </g>
  <g transform="rotate(75 35.953 56.272)">
   <path d="m35.243 46.698a2.1167 2.1167 0 0 1-2.1167 2.1167 2.1167 2.1167 0 0 1-2.1167-2.1167 2.1167 2.1167 0 0 1 2.1167-2.1167 2.1167 2.1167 0 0 1 2.1167 2.1167z" fill="none" stroke="#fafafa" stroke-linecap="square" stroke-linejoin="round" stroke-width="2.1167" style="paint-order:stroke markers fill"/>
   <path d="m35.243 46.698h4.2333" fill="none" stroke="#fafafa" stroke-width="2.1167"/>
   <g fill="#fafafa">
    <path d="m39.931 44.316c-0.19813 2e-6 -0.36636 0.07869-0.46668 0.1543-0.10032 0.0756-0.15892 0.15274-0.20893 0.23065-0.10002 0.15581-0.16075 0.32591-0.21479 0.52492-0.10808 0.39802-0.16793 0.90713-0.16793 1.4714s0.05985 1.0749 0.16793 1.473c0.05404 0.19901 0.11477 0.36752 0.21479 0.52333 0.05001 0.07791 0.10862 0.15505 0.20893 0.23065 0.10032 0.0756 0.26856 0.15429 0.46668 0.1543s0.36636-0.07869 0.46668-0.1543c0.10032-0.0756 0.15892-0.15274 0.20893-0.23065 0.10002-0.15581 0.16075-0.32432 0.21479-0.52333 0.10807-0.39802 0.16793-0.90872 0.16793-1.473s-0.05986-1.0734-0.16793-1.4714c-0.05404-0.19901-0.11477-0.36911-0.21479-0.52492-0.05001-0.07791-0.10862-0.15505-0.20893-0.23065-0.10032-0.0756-0.26855-0.1543-0.46668-0.1543z" color="#000000" style="paint-order:stroke markers fill"/>
    <path d="m41.438 38.694c-0.19813 2e-6 -0.36636 0.07869-0.46668 0.1543-0.10032 0.0756-0.15892 0.15274-0.20893 0.23065-0.10002 0.15581-0.16075 0.32591-0.21479 0.52492-0.10808 0.39802-0.16793 0.90713-0.16793 1.4714s0.05985 1.0749 0.16793 1.473c0.05404 0.19901 0.11477 0.36752 0.21479 0.52333 0.05001 0.07791 0.10862 0.15505 0.20893 0.23065 0.10032 0.0756 0.26856 0.15429 0.46668 0.1543s0.36636-0.07869 0.46668-0.1543c0.10032-0.0756 0.15892-0.15274 0.20893-0.23065 0.10002-0.15581 0.16075-0.32432 0.21479-0.52333 0.10807-0.39802 0.16793-0.90872 0.16793-1.473s-0.05986-1.0734-0.16793-1.4714c-0.05404-0.19901-0.11477-0.36911-0.21479-0.52492-0.05001-0.07791-0.10862-0.15505-0.20893-0.23065-0.10032-0.0756-0.26855-0.1543-0.46668-0.1543z" color="#000000" style="paint-order:stroke markers fill"/>
    <path d="m42.944 33.071c-0.19813 2e-6 -0.36636 0.07869-0.46668 0.1543-0.10032 0.0756-0.15892 0.15274-0.20893 0.23065-0.10002 0.15581-0.16075 0.32591-0.21479 0.52492-0.10808 0.39802-0.16793 0.90713-0.16793 1.4714s0.05985 1.0749 0.16793 1.473c0.05404 0.19901 0.11477 0.36752 0.21479 0.52333 0.05001 0.07791 0.10862 0.15505 0.20893 0.23065 0.10032 0.0756 0.26856 0.15429 0.46668 0.1543s0.36636-0.07869 0.46668-0.1543c0.10032-0.0756 0.15892-0.15274 0.20893-0.23065 0.10002-0.15581 0.16075-0.32432 0.21479-0.52333 0.10807-0.39802 0.16793-0.90872 0.16793-1.473s-0.05986-1.0734-0.16793-1.4714c-0.05404-0.19901-0.11477-0.36911-0.21479-0.52492-0.05001-0.07791-0.10862-0.15505-0.20893-0.23065-0.10032-0.0756-0.26855-0.1543-0.46668-0.1543z" color="#000000" style="paint-order:stroke markers fill"/>
    <path d="m44.451 27.449c-0.19813 2e-6 -0.36636 0.07869-0.46668 0.1543-0.10032 0.0756-0.15892 0.15274-0.20893 0.23065-0.10002 0.15581-0.16075 0.32591-0.21479 0.52492-0.10808 0.39802-0.16793 0.90713-0.16793 1.4714s0.05985 1.0749 0.16793 1.473c0.05404 0.19901 0.11477 0.36752 0.21479 0.52333 0.05001 0.07791 0.10862 0.15505 0.20893 0.23065 0.10032 0.0756 0.26856 0.15429 0.46668 0.1543s0.36636-0.07869 0.46668-0.1543c0.10032-0.0756 0.15892-0.15274 0.20893-0.23065 0.10002-0.15581 0.16075-0.32432 0.21479-0.52333 0.10807-0.39802 0.16793-0.90872 0.16793-1.473s-0.05986-1.0734-0.16793-1.4714c-0.05404-0.19901-0.11477-0.36911-0.21479-0.52492-0.05001-0.07791-0.10862-0.15505-0.20893-0.23065-0.10032-0.0756-0.26855-0.1543-0.46668-0.1543z" color="#000000" style="paint-order:stroke markers fill"/>
   </g>
  </g>
 </g>
 <style type="text/css">.st0{fill:#FC0C18;}
	.st1{fill:#FC0C18;}</style>
</svg>
