<svg version="1.1" viewBox="0 0 480 320" xmlns="http://www.w3.org/2000/svg" xmlns:xlink="http://www.w3.org/1999/xlink"><defs><linearGradient id="a" x1="81.11" x2="10.58" y1="-14.63" y2="71.43" gradientTransform="scale(3.78)" gradientUnits="userSpaceOnUse"><stop stop-color="#3689e6" offset="0"/><stop stop-color="#273445" offset="1"/></linearGradient><linearGradient id="b" x1="41.71" x2="222" y1="270" y2="50" gradientTransform="translate(-1.713)" gradientUnits="userSpaceOnUse"><stop stop-color="#3689e6" offset="0"/><stop stop-color="#9efaec" offset="1"/></linearGradient></defs><rect width="480" height="320" ry="24" fill="url(#a)"/><path d="m266.8 221.8-8.006 48.23h5.557l8.008-48.23zm139.4 11.49c-4.333 0-8.573 2.45-10.46 6.029h-0.377l0.9414-5.463h-5.369l-6.027 36.17h5.557l3.768-22.89c0.8478-4.898 5.276-8.479 10.55-8.479 1.507 0 3.014 0.2828 3.391 0.377l0.9434-5.65c-0.6594-0.0942-2.072-0.0957-2.92-0.0957zm22.42 0.0918c-7.63 0-14.04 4.334-15.07 10.46-0.8478 4.992 1.602 8.289 8.008 9.891l5.746 1.412c3.579 0.8478 4.992 2.542 4.521 5.086-0.471 3.109-4.239 5.652-9.42 5.652-4.521 0-7.065-1.978-7.348-5.84l-5.559 1.318c0.2827 6.123 4.805 9.42 12.25 9.42 8.384 0 14.88-4.615 15.92-10.83 0.8478-5.087-1.791-8.196-8.008-9.797l-5.18-1.318c-4.05-1.036-5.746-2.544-5.275-5.275 0.471-3.109 4.145-5.369 8.572-5.369 4.898 0 6.406 2.638 6.971 5.182l5.275-1.414c-0.942-5.181-4.24-8.572-11.4-8.572zm-134.1 2e-3c-5.464 0-12.06 1.885-15.92 8.479l4.898 1.883c1.696-2.638 5.274-5.463 10.55-5.463 5.087 0 6.97 2.732 6.217 7.348v0.1875c-0.471 2.638-3.203 2.449-9.891 3.297-6.876 0.8478-14.41 2.355-15.82 10.64-1.13 7.065 3.672 11.12 10.55 11.12 6.311 0 10.17-3.391 11.68-5.746h0.2812l-0.8477 4.898h5.559l3.957-23.83c1.884-11.49-6.595-12.81-11.21-12.81zm72.44 0c-9.773 0-17.59 7.724-19.4 18.84-1.86 11.12 3.322 18.56 13.75 18.56 7.371 0 13.3-3.673 15.92-9.137l-5.086-1.508c-2.049 3.768-5.533 5.652-9.984 5.652-6.971 0-10.69-3.108-9.35-11.96h26.3l0.377-2.355c2.284-13.47-4.97-18.09-12.53-18.09zm-125.9 2e-3c-7.088 0-10.01 4.333-11.49 6.217h-0.6602l0.9414-5.746h-5.369l-8.336 49.74h5.605l3.201-19.12h0.4727c0.9184 1.978 2.519 6.312 9.514 6.312 9.019 0 16.56-7.254 18.46-18.75 1.86-11.4-3.226-18.65-12.34-18.65zm72.81 0.4707 7.254 36.17-1.555 2.826c-3.014 5.487-5.37 6.218-9.232 5.182l-2.26 4.898c0.5181 0.2826 2.071 0.6582 3.955 0.6582l2e-3 2e-3c4.898 0 8.948-2.543 12.06-8.336l22.18-41.4h-6.264l-14.79 28.92h-0.377l-5.182-28.92zm52.28 4.52c6.052 0 9.159 4.522 8.1 10.64h-20.63c1.107-5.134 6.453-10.64 12.53-10.64zm-126.6 2e-3c7.041 0 9.49 5.934 8.289 13.56-1.342 7.724-5.863 13.85-12.81 13.85-6.712 0-9.444-5.653-8.102-13.85 1.295-8.101 5.817-13.56 12.62-13.56zm59.72 13.47-0.8477 5.088c-0.7536 4.521-5.088 8.947-11.68 8.947-4.427 0-7.253-1.978-6.594-5.84 0.6594-4.239 4.805-5.558 9.232-6.123 2.355-0.2826 8.761-0.9419 9.891-2.072z" fill="#fff"/><path d="m143.7 100.4-6.703 25.02h-59.97l8.815-32.9q11.39-42.49 61.76-42.49h41.46q51.06 0 39.67 42.49l-8.447 31.53q-4.591 17.13-13.72 29.47-8.697 11.99-25.14 26.04l-55.26 47.63h66.48l-11.48 42.83h-141.2l10.47-39.07 83.84-69.91q13.13-10.62 18.57-18.16 5.539-7.882 8.569-19.19l6.244-23.3q2.02-7.539-6.547-7.539h-6.854q-8.567 0-10.59 7.539z" fill="url(#b)"/></svg>
