<svg width="480" height="320" version="1.1" viewBox="0 0 127 84.667" xmlns="http://www.w3.org/2000/svg" xmlns:xlink="http://www.w3.org/1999/xlink">
 <defs>
  <linearGradient id="a" x1="64.079" x2="64.079" y1="4.3524" y2="71.838" gradientUnits="userSpaceOnUse">
   <stop stop-color="#a62100" offset="0"/>
   <stop stop-color="#a10705" offset=".31726"/>
   <stop stop-color="#7a0000" offset="1"/>
  </linearGradient>
 </defs>
 <rect width="127" height="84.667" ry="4.2333" fill="url(#a)" stroke-linecap="square" stroke-linejoin="round" stroke-width=".52917" style="paint-order:stroke fill markers"/>
 <g transform="matrix(8 0 0 8 -444.5 -296.33)">
  <rect x="60.325" y="39.158" width="6.35" height="6.35" fill="none" opacity=".5" style="paint-order:stroke markers fill"/>
  <path d="m65.868 42.069h0.4101v0.52917h-0.4101c-0.11906 1.1033-1.0001 1.9844-2.1034 2.1034v0.4101h-0.52917v-0.4101c-1.1033-0.11906-1.9844-1.0001-2.1034-2.1034h-0.4101v-0.52917h0.4101c0.11906-1.1033 1.0001-1.9844 2.1034-2.1034v-0.4101h0.52917v0.4101c1.1033 0.11906 1.9844 1.0001 2.1034 2.1034m-4.2016 0h0.37835v0.52917h-0.37835c0.11377 0.81227 0.75671 1.4552 1.569 1.569v-0.37835h0.52917v0.37835c0.81227-0.11377 1.4552-0.75671 1.569-1.569h-0.37836v-0.52917h0.37836c-0.11377-0.81227-0.75671-1.4552-1.569-1.569v0.37835h-0.52917v-0.37835c-0.81227 0.11377-1.4552 0.75671-1.569 1.569m2.8919 1.3229h-2.1167v-0.26458c0-0.3519 0.70644-0.52917 1.0583-0.52917s1.0583 0.17727 1.0583 0.52917v0.26458m-1.0583-2.1167a0.52917 0.52917 0 0 1 0.52917 0.52917 0.52917 0.52917 0 0 1-0.52917 0.52917 0.52917 0.52917 0 0 1-0.52917-0.52917 0.52917 0.52917 0 0 1 0.52917-0.52917z" fill="#fafafa" stroke-width=".26458"/>
 </g>
 <style type="text/css">.st0{fill:#FC0C18;}
	.st1{fill:#FC0C18;}</style>
</svg>
