<svg width="480" height="320" version="1.1" viewBox="0 0 127 84.667" xmlns="http://www.w3.org/2000/svg" xmlns:xlink="http://www.w3.org/1999/xlink">
 <defs>
  <linearGradient id="a" x1="81.805" x2="104.55" y1="-9.2879" y2="99.509" gradientUnits="userSpaceOnUse">
   <stop stop-color="#ffe16b" offset="0"/>
   <stop stop-color="#d48e15" offset="1"/>
  </linearGradient>
 </defs>
 <rect width="127" height="84.667" ry="4.2333" fill="url(#a)" stroke-linecap="square" stroke-linejoin="round" stroke-width=".52917" style="paint-order:stroke fill markers"/>
 <g transform="matrix(2.1167 0 0 2.1167 38.1 16.933)">
  <path d="m0 0h24v24h-24z" fill="none"/>
  <path d="m22 9.24-7.19-0.62-2.81-6.62-2.81 6.63-7.19 0.61 5.46 4.73-1.64 7.03 6.18-3.73 6.18 3.73-1.63-7.03zm-10 6.16-3.76 2.27 1-4.28-3.32-2.88 4.38-0.38 1.7-4.03 1.71 4.04 4.38 0.38-3.32 2.88 1 4.28z" fill="#fff"/>
 </g>
 <style type="text/css">.st0{fill:#FC0C18;}
	.st1{fill:#FC0C18;}</style>
</svg>
