<svg version="1.1" viewBox="0 0 480 320" xml:space="preserve" xmlns="http://www.w3.org/2000/svg"><defs><linearGradient id="a" x1="62.84" x2="86.47" y1="-31.29" y2="56.91" gradientTransform="scale(3.78)" gradientUnits="userSpaceOnUse"><stop stop-color="#ff2ad4" offset="0"/><stop stop-color="#452981" offset="1"/></linearGradient></defs><rect width="480" height="320" ry="24" fill="url(#a)"/><path d="m345.6 97.17-0.00586 0.007812h0.00586v-0.007812zm0 0.007812v70.31c-3.833-4.095-9.513-7.66-17.57-7.66-7.261 0-15.05 2.377-20.86 7.92-5.407 5.147-9.637 13.34-9.637 23.37 0 9.377 3.561 17.69 9.5 23.51 5.553 5.418 12.28 8.189 20.73 8.189 4.094 0 11.89-0.7931 17.83-8.451v6.471h21.13v-123.7h-21.12zm-101.5 0c-3.932 0-6.943 1.121-9.033 3.361-2.041 2.24-3.062 5.401-3.062 9.482v28.07c0 4.082 1.022 7.242 3.062 9.482 2.091 2.24 5.101 3.361 9.033 3.361 3.932 0 6.92-1.121 8.961-3.361 2.091-2.24 3.137-5.401 3.137-9.482v-7.393h-7.766v7.99c0 3.186-1.37 4.779-4.107 4.779s-4.107-1.594-4.107-4.779v-29.2c0-3.236 1.37-4.854 4.107-4.854s4.107 1.618 4.107 4.854v6.049h7.766v-5.525c0-4.082-1.046-7.242-3.137-9.482-2.041-2.24-5.028-3.361-8.961-3.361zm-194.1 0.748 7.914 52.27h10.9l7.914-52.27h-7.541l-5.377 40.54h-0.1484l-5.377-40.54h-8.287zm41.52 0v52.27h22.4v-7.467h-14.19v-16.05h11.28v-7.467h-11.28v-13.81h14.19v-7.467h-22.4zm37.19 0v52.27h8.215v-22.4h2.836c1.892 0 3.212 0.4741 3.959 1.42 0.7964 0.9458 1.193 2.613 1.193 5.002v9.559c0 1.941 0.0508 3.285 0.1504 4.031 0.0995 0.7467 0.297 1.542 0.5957 2.389h8.363c-0.3982-0.896-0.6465-1.792-0.7461-2.688-0.0995-0.9458-0.1504-2.165-0.1504-3.658v-9.184c0-3.086-0.4214-5.551-1.268-7.393-0.7964-1.842-2.191-3.061-4.182-3.658v-0.1504c3.584-1.444 5.375-4.877 5.375-10.3v-3.211c0-4.082-0.9708-7.094-2.912-9.035-1.941-1.991-5.027-2.986-9.258-2.986h-12.17zm40.1 0v7.467h8.586v44.8h8.213v-44.8h8.588v-7.467h-25.39zm40.17 0v52.27h8.213v-52.27h-8.213zm70.49 0-8.512 52.27h7.615l1.494-10.23h9.334v-0.1504l1.492 10.38h8.215l-8.514-52.27h-11.12zm34.43 0v52.27h21.73v-7.467h-13.51v-44.8h-8.213zm66.04 0v52.27h8.213v-52.27h-8.213zm23.44 0v52.27h8.213v-52.27h-8.213zm23.44 0v52.27h8.213v-52.27h-8.213zm-289.9 7.467h3.732c1.444 0 2.49 0.4233 3.137 1.27 0.6969 0.8462 1.045 2.214 1.045 4.105v4.033c0 1.991-0.4233 3.41-1.27 4.256-0.7964 0.8462-2.016 1.27-3.658 1.27h-2.986v-14.93zm147.7 1.643h0.1484l3.66 25.83h-7.393l3.584-25.83zm-214.3 52.79-0.01172 0.00586c-8.449 0-16.23 3.294-21.25 8.316-4.75 4.762-9.105 12.54-9.105 23.64 0 8.846 2.77 15.58 8.447 21.65 7.126 7.533 14.92 9.377 21.26 9.377 5.813 0 13.47-1.72 18.36-8.451v6.471h21.13v-59.03h-21.14v5.68c-2.511-2.772-8.191-7.66-17.69-7.66zm180.3 0-0.00391 0.00586c-8.449 0-16.23 3.294-21.26 8.316-4.75 4.762-9.107 12.54-9.107 23.64 0 8.846 2.774 15.58 8.451 21.65 7.126 7.533 14.92 9.377 21.26 9.377 5.813 0 13.47-1.72 18.36-8.451v6.471h21.13v-59.03h-21.14v5.68c-2.511-2.772-8.187-7.66-17.69-7.66zm-49.79 0.1309c-10.03 0-18.22 3.7-23.77 8.982-5.938 5.814-9.5 14.14-9.5 22.85s3.561 16.63 9.104 22.05c4.229 4.095 11.75 8.982 23.25 8.982 4.354 0 8.981-0.5309 14.66-3.303h-0.02148v-17.69c-3.823 3.303-7.791 3.961-10.82 3.961-5.407 0-8.845-2.377-10.83-4.492-2.511-2.782-3.697-6.603-3.697-9.906 0-3.438 1.186-7.265 4.092-10.17 2.115-2.115 5.283-4.094 10.3-4.094 4.49 0 8.189 1.854 10.96 3.834v-17.69c-5.282-2.647-10.04-3.305-13.73-3.305l0.00195-0.00781zm207.1 0.1367c-11.62 0-19.28 3.835-24.16 8.586-5.146 5.022-8.846 12.94-8.846 22.85 0 11.22 4.875 18.48 8.709 22.32 7.261 7.262 16.64 8.98 24.43 8.98 12.82 0 19.68-3.959 24.04-8.189 4.354-4.23 6.2-8.843 7.127-12.15h-20.2c-0.9272 1.844-2.375 3.167-3.697 3.959-2.636 1.448-6.334 1.584-6.865 1.584-4.75 0-7.388-1.583-8.711-2.906-2.511-2.511-3.697-6.743-3.697-9.91h43.96v-2.24c0-6.606-1.061-16.91-9.375-24.83-7.001-6.606-15.85-8.055-22.71-8.055zm-247.5 0.791c-3.958 0-7.793 0.6578-10.96 2.377-3.168 1.584-6.198 4.23-8.312 8.189v-9.639h-21.12v59.03h21.13v-25.22c0-3.167 0.2602-9.379 4.75-13.47 3.032-2.772 6.867-3.168 9.639-3.168 5.146 0 8.052 1.584 9.104 2.115v-19.94c-2.782-0.125-3.698-0.2617-4.229-0.2617v-0.01367zm248 12.68h0.00195c2.105 0 5.937 0.3945 8.709 3.166 1.594 1.584 2.906 4.096 3.438 6.336h-23.9c0.3958-2.636 1.718-4.752 3.166-6.336 2.251-2.24 5.023-3.166 8.586-3.166zm-333.2 4.221c4.479 0 7.522 1.99 9.502 3.834 3.302 3.167 4.094 6.867 4.094 9.639 0 4.751-2.114 7.658-3.957 9.502-2.636 2.647-6.066 4.096-9.504 4.096-3.562 0-7.26-1.844-9.5-3.959-2.647-2.511-4.094-6.2-4.094-9.639 0-3.032 1.323-6.867 4.229-9.639 3.032-2.907 6.605-3.834 9.23-3.834zm180.3 0c4.479 0 7.52 1.99 9.5 3.834 3.302 3.167 4.096 6.867 4.096 9.639 0 4.751-2.116 7.658-3.959 9.502-2.636 2.647-6.064 4.096-9.502 4.096-3.562 0-7.262-1.844-9.502-3.959-2.647-2.511-4.092-6.2-4.092-9.639 0-3.032 1.323-6.867 4.229-9.639 3.042-2.907 6.605-3.834 9.23-3.834zm77.35 0.01172c3.958 0 7.263 1.448 9.639 3.959 2.115 2.24 3.957 6.199 3.957 9.502 0 3.563-1.718 7.521-4.488 10.03-2.251 1.98-5.679 3.564-9.107 3.574-3.042 0-6.468-1.052-9.375-3.959-2.772-2.772-4.094-6.21-4.094-9.242 0-3.959 1.719-7.657 4.094-10.03 1.855-1.855 4.884-3.834 9.375-3.834z" fill="#fff"/></svg>
