<svg version="1.1" viewBox="0 0 480 320" xml:space="preserve" xmlns="http://www.w3.org/2000/svg"><defs><linearGradient id="a" x1="64.8" x2="76.57" y1="-23.97" y2="43.29" gradientTransform="scale(3.78)" gradientUnits="userSpaceOnUse"><stop stop-color="#ff7f2a" offset="0"/><stop stop-color="#452981" offset="1"/></linearGradient></defs><rect width="480" height="320" ry="24" fill="url(#a)"/><path d="m345.6 96.87v42.92c-3.833-4.095-9.513-7.66-17.57-7.66-7.261 0-15.05 2.377-20.86 7.92-5.407 5.147-9.636 13.34-9.636 23.37 0 9.377 3.562 17.69 9.501 23.51 5.553 5.418 12.28 8.189 20.73 8.189 4.094 0 11.89-0.7929 17.83-8.451v6.471h21.13v-96.26h-21.13zm-275.3 35.26c-8.449 0-16.23 3.294-21.25 8.316-4.75 4.762-9.106 12.54-9.106 23.64 0 8.846 2.771 15.58 8.448 21.65 7.126 7.533 14.92 9.377 21.26 9.377 5.813 0 13.47-1.72 18.36-8.451v6.471h21.13v-59.03h-21.14v5.68c-2.511-2.772-8.19-7.66-17.69-7.66zm180.3 0c-8.449 0-16.23 3.294-21.26 8.316-4.75 4.762-9.106 12.54-9.106 23.64 0 8.846 2.773 15.58 8.45 21.65 7.126 7.533 14.92 9.377 21.26 9.377 5.813 0 13.47-1.72 18.36-8.451v6.471h21.13v-59.03h-21.14v5.68c-2.511-2.772-8.188-7.66-17.69-7.66zm-49.78 0.125c-10.03 0-18.22 3.7-23.77 8.982-5.938 5.814-9.501 14.14-9.501 22.85s3.561 16.63 9.104 22.05c4.229 4.095 11.75 8.982 23.25 8.982 4.354 0 8.981-0.5312 14.66-3.303h-0.0215v-17.69c-3.823 3.303-7.791 3.961-10.82 3.961-5.407 0-8.845-2.377-10.83-4.492-2.511-2.782-3.698-6.605-3.698-9.908 0-3.438 1.187-7.263 4.093-10.17 2.115-2.115 5.282-4.094 10.3-4.094 4.49 0 8.19 1.854 10.96 3.834v-17.69c-5.282-2.647-10.04-3.305-13.73-3.305zm207.1 0.1367c-11.62 0-19.28 3.835-24.16 8.586-5.146 5.022-8.845 12.94-8.845 22.85 0 11.22 4.874 18.48 8.708 22.32 7.261 7.262 16.64 8.98 24.43 8.98 12.82 0 19.68-3.959 24.04-8.189 4.354-4.23 6.199-8.845 7.126-12.15h-20.2c-0.9272 1.844-2.376 3.167-3.698 3.959-2.636 1.448-6.335 1.584-6.866 1.584-4.75 0-7.387-1.583-8.71-2.906-2.511-2.511-3.698-6.743-3.698-9.91h43.96v-2.24c0-6.606-1.062-16.91-9.376-24.83-7.001-6.606-15.85-8.055-22.71-8.055zm-247.5 0.791c-3.958 0-7.792 0.6578-10.96 2.377-3.168 1.584-6.198 4.23-8.313 8.189v-9.639h-21.12v59.03h21.13v-25.22c0-3.167 0.2612-9.378 4.751-13.47 3.032-2.772 6.866-3.168 9.638-3.168 5.146 0 8.052 1.584 9.104 2.115v-19.94c-2.782-0.125-3.698-0.2617-4.229-0.2617zm248 12.68c2.105 0 5.938 0.3945 8.71 3.166 1.594 1.584 2.906 4.096 3.437 6.336h-23.9c0.3958-2.636 1.718-4.752 3.166-6.336 2.251-2.24 5.022-3.166 8.585-3.166zm-333.2 4.219c4.479 0 7.521 1.99 9.501 3.834 3.302 3.167 4.095 6.867 4.095 9.639 0 4.751-2.115 7.658-3.958 9.502-2.636 2.647-6.065 4.096-9.503 4.096-3.562 0-7.261-1.844-9.501-3.959-2.647-2.511-4.093-6.2-4.093-9.639 0-3.032 1.322-6.867 4.228-9.639 3.032-2.907 6.606-3.834 9.231-3.834zm180.3 0c4.479 0 7.521 1.99 9.501 3.834 3.302 3.167 4.095 6.867 4.095 9.639 0 4.751-2.115 7.658-3.958 9.502-2.636 2.647-6.065 4.096-9.503 4.096-3.562 0-7.261-1.844-9.501-3.959-2.647-2.511-4.093-6.2-4.093-9.639 0-3.032 1.322-6.867 4.228-9.639 3.042-2.907 6.606-3.834 9.231-3.834zm77.35 0.0117c3.958 0 7.262 1.448 9.638 3.959 2.115 2.24 3.958 6.199 3.958 9.502 0 3.563-1.719 7.522-4.489 10.03-2.251 1.98-5.678 3.564-9.106 3.574-3.042 0-6.469-1.052-9.376-3.959-2.772-2.772-4.093-6.21-4.093-9.242 0-3.959 1.718-7.658 4.093-10.03 1.855-1.855 4.885-3.834 9.376-3.834z" fill="#fff" stroke-width=".9999"/></svg>
