<svg version="1.1" viewBox="0 0 480 320" xmlns="http://www.w3.org/2000/svg" xmlns:xlink="http://www.w3.org/1999/xlink"><defs><linearGradient id="a" x1="306" x2="212" y1="-56" y2="320" gradientUnits="userSpaceOnUse"><stop stop-color="#28bca3" offset="0"/><stop stop-color="#273445" offset="1"/></linearGradient><linearGradient id="b" x1="40" x2="95" y1="270" y2="50" gradientTransform="translate(-8)" gradientUnits="userSpaceOnUse"><stop stop-color="#28bca3" offset="0"/><stop stop-color="#a3f5be" offset="1"/></linearGradient></defs><rect width="480" height="320" ry="24" fill="url(#a)"/><path d="m266.7 221.8-8.006 48.23h5.557l8.008-48.23zm139.4 11.49c-4.333 0-8.571 2.45-10.46 6.029h-0.377l0.9414-5.463h-5.369l-6.027 36.17h5.557l3.768-22.89c0.8478-4.898 5.276-8.479 10.55-8.479 1.507 0 3.014 0.2827 3.391 0.377l0.9414-5.65c-0.6594-0.0942-2.072-0.0957-2.92-0.0957zm22.44 0.0957c-7.63 0-14.03 4.332-15.07 10.46-0.8478 4.992 1.601 8.29 8.006 9.891l5.746 1.412c3.579 0.8478 4.992 2.545 4.521 5.088-0.471 3.108-4.239 5.65-9.42 5.65-4.521 0-7.063-1.978-7.346-5.84l-5.559 1.32c0.2826 6.123 4.804 9.418 12.25 9.418 8.383 0 14.88-4.615 15.92-10.83 0.8478-5.087-1.789-8.195-8.006-9.797l-5.18-1.318c-4.05-1.036-5.746-2.544-5.275-5.275 0.471-3.108 4.143-5.369 8.57-5.369 4.898 0 6.405 2.638 6.971 5.182l5.275-1.412c-0.942-5.181-4.24-8.572-11.4-8.572zm-187.7 2e-3c-7.088 0-10.01 4.333-11.49 6.217h-0.6602l0.9434-5.746h-5.369l-8.336 49.74h5.604l3.203-19.12h0.4707c0.9184 1.978 2.52 6.312 9.514 6.312 9.019 0 16.56-7.254 18.46-18.75 1.86-11.4-3.226-18.65-12.34-18.65zm53.5 0c-5.464 0-12.06 1.885-15.92 8.479l4.898 1.883c1.696-2.637 5.276-5.463 10.55-5.463 5.087 0 6.971 2.732 6.217 7.348v0.1875c-0.471 2.637-3.203 2.449-9.891 3.297-6.876 0.8478-14.41 2.355-15.83 10.64-1.13 7.065 3.675 11.12 10.55 11.12 6.311 0 10.17-3.391 11.68-5.746h0.2832l-0.8477 4.898h5.557l3.957-23.83c1.884-11.49-6.594-12.81-11.21-12.81zm72.43 0c-9.773 0-17.59 7.723-19.41 18.84-1.86 11.12 3.322 18.56 13.75 18.56v2e-3c7.371 0 13.31-3.675 15.92-9.139l-5.088-1.506c-2.049 3.768-5.533 5.65-9.984 5.65-6.971 0-10.69-3.109-9.35-11.96h26.3l0.377-2.354c2.284-13.47-4.968-18.09-12.53-18.09zm-53.13 0.4707 7.254 36.17-1.555 2.824c-3.014 5.487-5.368 6.218-9.23 5.182l-2.262 4.898c0.5181 0.2826 2.073 0.6582 3.957 0.6582v2e-3c4.898 0 8.948-2.545 12.06-8.338l22.18-41.4h-6.264l-14.79 28.92h-0.377l-5.182-28.92zm-74.32 4.521c7.041 0 9.492 5.935 8.291 13.56-1.342 7.724-5.865 13.85-12.81 13.85-6.711 0-9.442-5.652-8.1-13.85 1.295-8.101 5.815-13.56 12.62-13.56zm126.6 0c6.052 0 9.161 4.522 8.102 10.64h-20.63c1.107-5.134 6.451-10.64 12.53-10.64zm-66.88 13.47-0.8476 5.086c-0.7535 4.521-5.087 8.948-11.68 8.949h-2e-3c-4.426-5.9e-4 -7.251-1.979-6.592-5.84 0.6594-4.239 4.803-5.558 9.23-6.123 2.355-0.2826 8.76-0.9419 9.891-2.072z" fill="#fff"/><path d="m214 187.1-11.66 43.52h-23.3l-10.56 39.41h-56.2l10.56-39.41h-90.81l14.23-53.12 116.7-127.5h60.31l-125.1 137.1h36.32l11.66-43.52h56.2l-11.66 43.52z" fill="url(#b)" fill-rule="evenodd" stroke-width="28.56"/></svg>
