<svg version="1.1" viewBox="0 0 480 320" xmlns="http://www.w3.org/2000/svg"><defs><linearGradient id="a" x1="42.06" x2="10.58" y1="13.23" y2="94.16" gradientTransform="scale(3.78)" gradientUnits="userSpaceOnUse"><stop stop-color="#f67326" offset="0"/><stop stop-color="#a60300" offset="1"/></linearGradient></defs><rect width="480" height="320" ry="24" fill="url(#a)"/><path d="m271 96h-62c-0.5523 0-0.9958-0.4488-1.045-0.9987-0.6522-7.288-8.272-14.3-14.96-14.95-0.5494-0.05371-1.446-0.04958-1.998-0.04958h-27a4 4 135 0 0-4 4v67c0 0.5523-4e-3 1.449 0.041 1.999 0.5981 7.321 7.639 14.36 14.96 14.96 0.5503 0.045 1.447 0.041 1.999 0.041h15.6c0.5523 0 1.087 0.4393 1.205 0.9786 3.379 15.36 13.61 28.31 37.2 30.92 0.549 0.06075 0.9947 0.5508 0.9947 1.103v14.64c0 0.5523-0.4428 1.067-0.9867 1.163-19.85 3.502-22.58 18.22-22.95 22.2-0.05184 0.5496 0.3878 0.9977 0.9401 0.9977h62c0.5523 0 0.9919-0.4482 0.94-0.9979-0.3758-3.983-3.107-18.7-22.95-22.2-0.5437-0.09594-0.9864-0.6103-0.9864-1.163v-14.64c0-0.5523 0.4457-1.042 0.9947-1.103 23.58-2.609 33.82-15.56 37.2-30.92 0.1187-0.5394 0.6532-0.9786 1.205-0.9786h15.6c0.5523 0 1.449 4e-3 1.999-0.041 7.321-0.5981 14.36-7.639 14.96-14.96 0.045-0.5503 0.041-1.447 0.041-1.999v-67a4 4 45 0 0-4-4h-27c-0.5523 0-1.449-0.0041-1.998 0.04958-6.684 0.6534-14.3 7.664-14.96 14.95-0.04917 0.5499-0.4927 0.9986-1.045 0.9986zm-95 52v-51a1 1 135 0 1 1-1h11a4 4 45 0 1 4 4v51a1 1 135 0 1-1 1h-11a4 4 45 0 1-4-4zm124 4h-11a1 1 45 0 1-1-1v-51a4 4 135 0 1 4-4h11a1 1 45 0 1 1 1v51a4 4 135 0 1-4 4z" fill="#fff"/></svg>
