<svg width="480" height="320" version="1.1" viewBox="0 0 127 84.667" xmlns="http://www.w3.org/2000/svg">
 <defs>
  <linearGradient id="a" x1="18.556" x2="120.69" y1="101.47" y2="-10.553" gradientUnits="userSpaceOnUse">
   <stop stop-color="#bc245d" offset="0"/>
   <stop stop-color="#c6262e" offset=".39847"/>
   <stop stop-color="#452981" offset="1"/>
  </linearGradient>
 </defs>
 <rect width="127" height="84.667" ry="4.2333" fill="url(#a)" stroke-linecap="square" stroke-linejoin="round" stroke-width=".52917" style="paint-order:stroke fill markers"/>
 <g transform="translate(-3.7003)">
  <g transform="translate(10.58 .00013082)" fill="none" stroke="#fafafa" stroke-width="2.1167">
   <path d="m70.978 71.703h-46.1a0.79928 0.79928 51.365 0 1-0.77963-0.97542l2.3089-10.22a2.2851 2.2851 126.37 0 1 1.0864-1.4754l7.4334-4.2917a1.9662 1.9662 123.04 0 0 0.97202-1.4944l3.4544-32.408a1.3109 1.3109 58.746 0 0-0.82501-1.3594l-0.88762-0.34799a1.4662 1.4662 55.704 0 1-0.93101-1.365v-3.8011a1 1 135 0 1 1-1h28.108l19.109 6.35"/>
   <path d="m62.902 54.24h-21.933a1.7981 1.7981 48.042 0 1-1.788-1.9887l3.0189-28.321a2.2245 2.2245 138.04 0 1 2.212-1.9887h21.933a1.7981 1.7981 48.042 0 1 1.788 1.9887l-3.0188 28.321a2.2245 2.2245 138.04 0 1-2.212 1.9887z"/>
   <path d="m83.978 18.999-17.211-5.7193a0.72147 0.72147 144.19 0 0-0.94898 0.68465v3.8011a1.4662 1.4662 55.704 0 0 0.93101 1.365l0.88762 0.34799a1.3109 1.3109 58.746 0 1 0.82501 1.3594l-3.4544 32.408a1.9662 1.9662 123.04 0 1-0.97202 1.4944l-7.4334 4.2917a2.2851 2.2851 126.37 0 0-1.0864 1.4754l-2.3089 10.22a0.79928 0.79928 51.365 0 0 0.77963 0.97542l29.941-1.3e-5a1 1 135 0 0 1-1v-50.388a1.3861 1.3861 54.191 0 0-0.94898-1.3153z"/>
   <path d="m36.71 14.023v3.7416a1.0007 1.0007 45.019 0 0 1 1.0007l27.155 0.01833a5.3002 5.3002 10.723 0 1 1.931 0.36568l0.84043 0.32949a1.3109 1.3109 58.746 0 1 0.82502 1.3594l-0.11762 1.1034"/>
  </g>
  <g transform="rotate(75 35.953 56.272)" stroke-width="2.1167">
   <path d="m35.243 46.698a2.1167 2.1167 0 0 1-2.1167 2.1167 2.1167 2.1167 0 0 1-2.1167-2.1167 2.1167 2.1167 0 0 1 2.1167-2.1167 2.1167 2.1167 0 0 1 2.1167 2.1167z" fill="none" stroke="#fafafa" stroke-linecap="square" stroke-linejoin="round" stroke-width="2.1167" style="paint-order:stroke markers fill"/>
   <path d="m35.243 46.698h4.2333" fill="none" stroke="#fafafa" stroke-width="2.1167"/>
   <g fill="#fafafa">
    <path d="m39.931 44.316c-0.19813 2e-6 -0.36636 0.07869-0.46668 0.1543-0.10032 0.0756-0.15892 0.15274-0.20893 0.23065-0.10002 0.15581-0.16075 0.32591-0.21479 0.52492-0.10808 0.39802-0.16793 0.90713-0.16793 1.4714s0.05985 1.0749 0.16793 1.473c0.05404 0.19901 0.11477 0.36752 0.21479 0.52333 0.05001 0.07791 0.10862 0.15505 0.20893 0.23065 0.10032 0.0756 0.26856 0.15429 0.46668 0.1543s0.36636-0.07869 0.46668-0.1543c0.10032-0.0756 0.15892-0.15274 0.20893-0.23065 0.10002-0.15581 0.16075-0.32432 0.21479-0.52333 0.10807-0.39802 0.16793-0.90872 0.16793-1.473s-0.05986-1.0734-0.16793-1.4714c-0.05404-0.19901-0.11477-0.36911-0.21479-0.52492-0.05001-0.07791-0.10862-0.15505-0.20893-0.23065-0.10032-0.0756-0.26855-0.1543-0.46668-0.1543z" color="#000000" style="paint-order:stroke markers fill"/>
    <path d="m41.438 38.694c-0.19813 2e-6 -0.36636 0.07869-0.46668 0.1543-0.10032 0.0756-0.15892 0.15274-0.20893 0.23065-0.10002 0.15581-0.16075 0.32591-0.21479 0.52492-0.10808 0.39802-0.16793 0.90713-0.16793 1.4714s0.05985 1.0749 0.16793 1.473c0.05404 0.19901 0.11477 0.36752 0.21479 0.52333 0.05001 0.07791 0.10862 0.15505 0.20893 0.23065 0.10032 0.0756 0.26856 0.15429 0.46668 0.1543s0.36636-0.07869 0.46668-0.1543c0.10032-0.0756 0.15892-0.15274 0.20893-0.23065 0.10002-0.15581 0.16075-0.32432 0.21479-0.52333 0.10807-0.39802 0.16793-0.90872 0.16793-1.473s-0.05986-1.0734-0.16793-1.4714c-0.05404-0.19901-0.11477-0.36911-0.21479-0.52492-0.05001-0.07791-0.10862-0.15505-0.20893-0.23065-0.10032-0.0756-0.26855-0.1543-0.46668-0.1543z" color="#000000" style="paint-order:stroke markers fill"/>
    <path d="m42.944 33.071c-0.19813 2e-6 -0.36636 0.07869-0.46668 0.1543-0.10032 0.0756-0.15892 0.15274-0.20893 0.23065-0.10002 0.15581-0.16075 0.32591-0.21479 0.52492-0.10808 0.39802-0.16793 0.90713-0.16793 1.4714s0.05985 1.0749 0.16793 1.473c0.05404 0.19901 0.11477 0.36752 0.21479 0.52333 0.05001 0.07791 0.10862 0.15505 0.20893 0.23065 0.10032 0.0756 0.26856 0.15429 0.46668 0.1543s0.36636-0.07869 0.46668-0.1543c0.10032-0.0756 0.15892-0.15274 0.20893-0.23065 0.10002-0.15581 0.16075-0.32432 0.21479-0.52333 0.10807-0.39802 0.16793-0.90872 0.16793-1.473s-0.05986-1.0734-0.16793-1.4714c-0.05404-0.19901-0.11477-0.36911-0.21479-0.52492-0.05001-0.07791-0.10862-0.15505-0.20893-0.23065-0.10032-0.0756-0.26855-0.1543-0.46668-0.1543z" color="#000000" style="paint-order:stroke markers fill"/>
    <path d="m44.451 27.449c-0.19813 2e-6 -0.36636 0.07869-0.46668 0.1543-0.10032 0.0756-0.15892 0.15274-0.20893 0.23065-0.10002 0.15581-0.16075 0.32591-0.21479 0.52492-0.10808 0.39802-0.16793 0.90713-0.16793 1.4714s0.05985 1.0749 0.16793 1.473c0.05404 0.19901 0.11477 0.36752 0.21479 0.52333 0.05001 0.07791 0.10862 0.15505 0.20893 0.23065 0.10032 0.0756 0.26856 0.15429 0.46668 0.1543s0.36636-0.07869 0.46668-0.1543c0.10032-0.0756 0.15892-0.15274 0.20893-0.23065 0.10002-0.15581 0.16075-0.32432 0.21479-0.52333 0.10807-0.39802 0.16793-0.90872 0.16793-1.473s-0.05986-1.0734-0.16793-1.4714c-0.05404-0.19901-0.11477-0.36911-0.21479-0.52492-0.05001-0.07791-0.10862-0.15505-0.20893-0.23065-0.10032-0.0756-0.26855-0.1543-0.46668-0.1543z" color="#000000" style="paint-order:stroke markers fill"/>
   </g>
  </g>
 </g>
 <style type="text/css">.st0{fill:#FC0C18;}
	.st1{fill:#FC0C18;}</style>
</svg>
