<svg width="480" height="320" version="1.1" viewBox="0 0 127 84.667" xmlns="http://www.w3.org/2000/svg">
 <defs>
  <linearGradient id="a" x1="26.427" x2="41.373" y2="110.82" gradientUnits="userSpaceOnUse">
   <stop stop-color="#3689e6" offset="0"/>
   <stop stop-color="#002e99" offset="1"/>
  </linearGradient>
 </defs>
 <rect width="127" height="84.667" ry="4.2333" fill="url(#a)" stroke-linecap="square" stroke-linejoin="round" stroke-width=".52917" style="paint-order:stroke fill markers"/>
 <path d="m81.625 21.437v3.575c-0.51453-0.68649-0.97219-1.0578-2.8303-1.0578-2.973 0-3.5445 0.80036-3.5445 3.2029 0 2.4598 0.80043 3.1755 3.6876 3.1755 1.8295 0 2.3726-0.45796 2.8014-1.2588v1.1157h2.2298v-8.7525zm-41.622 2.4314c-1.6866 0-2.1446 0.57188-2.4304 1.573l0.02894-1.4015h-2.0867v6.1495h2.2293v-3.175c0-0.94384 0.45738-1.2583 1.7151-1.2583 1.172 0 1.4867 0.4289 1.4867 1.573v2.8319h2.2867v-3.2608c0-0.88665 0.68626-1.1725 1.7725-1.1725 1.0291 0 1.4867 0.28588 1.4867 1.1725v3.2608h2.2293v-3.6329c0-1.8306-1.1147-2.6598-3.1729-2.6598-1.7724 0-2.4295 0.65825-2.6582 1.3446-0.45737-0.80087-1.1148-1.3446-2.8872-1.3446zm15.036 0c-1.6294 0-2.0585 0.57188-2.373 1.573v-1.4015h-2.0867v6.1495h2.2298v-3.175c0-0.94384 0.57184-1.2583 1.6867-1.2583 1.172 0 1.4862 0.37171 1.4862 1.573v2.8319h2.2872v-3.2608c0-0.88665 0.65753-1.1725 1.7151-1.1725 1.0292 0 1.5436 0.31448 1.5436 1.1725v3.2608h2.2298v-3.6329c0-1.8306-1.1147-2.6598-3.1729-2.6598-1.7724 0-2.3729 0.60094-2.6588 1.3446-0.45737-0.80087-1.1148-1.3446-2.8872-1.3446zm44.709 0.02842c-1.3436 0-1.8291 0.28604-2.3151 1.3157v-1.1725h-2.1441v6.1495h2.2298v-3.204c0-0.82946 0.5144-1.2583 1.4578-1.2583 0.94332 0 1.1719 0.28607 1.2005 1.0583h2.0867c0-2.088-0.28593-2.8887-2.5156-2.8887zm-69.979 0.08578c-3.8592 0-4.3455 0.60062-4.3455 3.2034 0 2.66 0.65784 3.2034 4.3455 3.2034 3.9163 0.02826 4.2876-0.62922 4.2876-3.375 0-2.517-0.68575-3.0319-4.2876-3.0319zm39.735 0c-3.8592 0-4.3455 0.65806-4.3455 3.2608 0 2.6028 0.65786 3.175 4.3455 3.175 3.9163 0 4.3455-0.6582 4.3455-3.4039 0-2.517-0.74357-3.0319-4.3455-3.0319zm20.153 0c-3.8306 0-4.2881 0.60062-4.2881 3.2034 0 2.66 0.65771 3.2034 4.2881 3.2034 3.9163 0.02826 4.2881-0.62922 4.2881-3.375 0-2.517-0.68628-3.0319-4.2881-3.0319zm17.409 0.02842c-3.3446 0-4.0881 0.60128-4.0881 3.2613 0 2.4598 0.97194 3.0885 3.6876 3.1171 3.0302 0 4.4597-0.14293 4.4597-2.1451h-2.2009c-0.0857 0.48622-0.25761 0.71469-1.201 0.71469-2.144 0-2.4583-0.2001-2.4583-1.2583h5.8601c-0.0858-2.9746-0.0858-3.6897-4.0592-3.6897zm-86.846 0.02894c-3.5447 0-4.345 0.57214-4.345 3.175 0 2.6028 0.74317 3.2034 4.0592 3.2034 3.4875 0 4.2023-0.45795 4.2023-2.6603h-2.2298c0 0.6007-0.2289 0.88677-1.9441 0.88677-1.4865 0-1.8294-0.37225-1.8294-1.5736 0-1.1727 0.31436-1.1725 2.0867-1.1725 1.315 0 1.5438 0.14343 1.6867 0.74414h2.2298c-0.20016-2.088-0.80061-2.6029-3.9166-2.6029zm86.76 1.4873c1.6294 0 1.8581 0.08601 1.9725 0.88677h-3.745c0.0857-0.65789 0.28604-0.88677 1.7725-0.88677zm-26.985 0.17157c1.2578 0 1.6862 0.17138 1.6862 1.1725 0 1.4873-0.08547 1.6304-1.8578 1.6304-1.7724 0-2.2298-0.05707-2.2298-1.3152 0-1.4301 0.54325-1.4878 2.4014-1.4878zm-50.37 0.05736c1.8295 0 2.1441 0.05706 2.1441 1.401 0 1.2585-0.2289 1.4878-1.9441 1.4878-1.8295 0-2.0583-0.20068-2.0583-1.4878 0-1.2585 0.28605-1.401 1.8583-1.401zm39.764 0c1.8295 0 2.1435 0.05706 2.1435 1.401 0 1.2585-0.22837 1.4878-1.9436 1.4878-1.8867 0-2.1156-0.20068-2.1156-1.4878 0-1.2585 0.2863-1.401 1.9157-1.401zm20.125 0c1.8295 0 2.1435 0.05706 2.1435 1.401 0 1.2585-0.22837 1.4878-1.9436 1.4878-1.8867 0-2.1156-0.20068-2.1156-1.4878 0-1.2585 0.28631-1.401 1.9157-1.401zm-52.991 9.9565c-7.3298 0-13.769 6.1329-13.769 13.785 0 7.8621 6.4917 13.732 13.822 13.732 1.309 0 2.095-0.15752 3.7181-0.57671v-7.1278c-1.623 0.8386-2.4615 1.048-3.7703 1.048-4.0838 0-7.1722-3.4072-7.1722-7.181 0-3.931 3.0362-7.2854 7.12-7.2854 1.3613 0 2.566 0.36692 3.8225 1.1007v-6.9712c-1.4137-0.3668-2.3567-0.52348-3.7703-0.52348zm40.148 2.7518v5.16e-4c-4.9853 0-8.2256 2.7723-8.215 7.2818h5.518c-0.01039-1.7997 1.0875-2.8045 2.697-2.8045 1.5991 0 2.7378 0.99391 2.7378 2.6365 0 1.5171-0.97157 2.5007-2.5497 3.8086l-7.9851 6.6125v4.1853h16.43v-4.6457h-8.3608v-0.12557l2.0066-1.6738c4.8808-4.0701 6.1242-6.1834 6.1242-8.6631 0-3.9968-3.2711-6.6125-8.4026-6.6125zm18.587 5.16e-4c-4.7241 0-8.1938 2.4583-8.1938 5.8167 0 2.3855 1.7455 4.3104 4.1806 4.7289v0.16795c-2.7906 0.4185-4.9754 2.5423-4.9754 5.1894 0 3.4737 3.8049 6.1108 8.9886 6.1108 5.1839 0 8.9881-2.6371 8.9881-6.1108 0-2.6471-2.2262-4.7709-4.9749-5.1894v-0.16795c2.3933-0.41851 4.1801-2.333 4.1801-4.7289 0-3.348-3.4693-5.8167-8.1933-5.8167zm-34.75 0.29249-5.2674 3.2226v4.9382l4.6819-2.804h0.12558v16.071h5.811v-21.428zm34.75 3.8918c1.4527 0 2.5084 0.97347 2.5084 2.3022 0 1.3497-1.0556 2.3435-2.5084 2.3435-1.4528 0-2.5089-1.0043-2.5089-2.3435 0-1.3392 1.0561-2.3022 2.5089-2.3022zm-54.599 0.92604v5.3981h6.4921l5.3403-5.3981zm0 6.551v5.3992h11.832l-5.2359-5.3992zm54.599 1.1865c1.6409 0 2.8422 1.0776 2.8422 2.5528 0 1.4961-1.2014 2.5942-2.8422 2.5942-1.6408 0-2.8427-1.1085-2.8427-2.5942 0-1.4857 1.2019-2.5528 2.8427-2.5528z" fill="#fafafa" stroke-width=".34368"/>
 <style type="text/css">.st0{fill:#FC0C18;}
	.st1{fill:#FC0C18;}</style>
</svg>
