<svg width="480" height="320" version="1.1" viewBox="0 0 480 320" xml:space="preserve" xmlns="http://www.w3.org/2000/svg"><defs><linearGradient id="a" x1="26.43" x2="41.37" y2="110.8" gradientTransform="scale(3.78)" gradientUnits="userSpaceOnUse"><stop stop-color="#3689e6" offset="0"/><stop stop-color="#002e99" offset="1"/></linearGradient></defs><rect width="480" height="320" ry="24" fill="url(#a)"/><path d="m67.69 98.62c-15.29 0-27.69 12.4-27.69 27.7 0 15.3 12.4 27.7 27.7 27.7 2.479 0 4.874-0.3334 7.166-0.9375v-13.95h-0.009765c-2.125 1.187-4.562 1.875-7.166 1.875-8.094 0-14.69-6.584-14.69-14.69 0-8.104 6.584-14.69 14.69-14.69 2.604 0 5.041 0.6771 7.166 1.875v-13.95c-2.281-0.6146-4.687-0.9375-7.166-0.9375zm270.1 7.428v12.44c-1.771-2.427-3.386-3.709-9.844-3.709-10.33 0-12.27 2.751-12.27 11.15 0 8.562 2.75 10.98 12.76 10.98 6.302 0 8.24-1.614 9.688-4.354v3.875h7.75v-30.38h-8.084zm-262.9 8.178v11.08h7.957 3.656 1.449l11.08-11.08h-12.53-3.656-7.957zm118.7 0.375c-5.812 0-7.428 1.936-8.396 5.488l-0.00976-5h-7.262v21.31h7.75v-10.98c0-3.229 1.616-4.354 5.98-4.354 4.042 0 5.166 1.447 5.166 5.488v9.844h7.916v-11.3c0-3.073 2.416-4.029 6.135-4.029 3.552 0 5.168 0.9669 5.168 4.029v11.3h7.75v-12.59c0-6.292-3.876-9.207-10.98-9.207-6.135 0-8.395 2.26-9.207 4.688-1.615-2.75-3.875-4.688-10.01-4.688zm51.98 0c-5.646 0-7.104 1.936-8.229 5.488v-5h-7.271v21.31h7.75v-10.98c0-3.229 1.938-4.354 5.812-4.354 4.042 0 5.168 1.29 5.168 5.488v9.844h7.916v-11.3c0-3.073 2.26-4.029 5.979-4.029 3.552 0 5.322 1.123 5.322 4.029v11.3h7.75v-12.59c0-6.292-3.875-9.207-10.98-9.207-6.135 0-8.24 2.094-9.209 4.688-1.615-2.75-3.875-4.688-10.01-4.688zm155 0c-4.687 0-6.303 0.9676-8.074 4.52l-0.00976-4.031h-7.428v21.31h7.75v-11.13c0-2.906 1.783-4.365 5.012-4.365 3.229 0 4.041 0.9695 4.197 3.709h7.27c0-7.26-0.967-10.01-8.717-10.01zm-242.5 0.332c-13.41 0-15.02 2.095-15.02 11.15 0 9.208 2.259 11.14 15.02 11.14 13.56-0.0104 14.85-2.27 14.85-11.8 0-8.719-2.427-10.49-14.85-10.49zm137.7 0c-13.41 0-15.01 2.261-15.01 11.3s2.26 10.98 15.01 10.98c13.56 0 15.02-2.26 15.02-11.79 0-8.719-2.582-10.49-15.02-10.49zm69.76 0c-13.24 0-14.85 2.095-14.85 11.15 0 9.208 2.26 11.14 14.85 11.14 13.56-0.0104 14.85-2.27 14.85-11.8 0-8.719-2.427-10.49-14.85-10.49zm-240.6 0.1562c-12.27 0-15.02 1.937-15.02 10.98 0 9.041 2.582 11.15 14.05 11.15 12.11 0 14.53-1.615 14.53-9.209h-7.75c0 2.104-0.8022 3.074-6.781 3.074-5.167 0-6.301-1.292-6.301-5.49 0-4.042 1.124-4.041 7.27-4.041 4.521 0 5.323 0.4883 5.812 2.582h7.75c-0.6458-7.271-2.75-9.041-13.56-9.041zm301 0c-11.62 0-14.22 2.095-14.22 11.3 0 8.562 3.397 10.66 12.76 10.82 10.5 0 15.5-0.4904 15.5-7.428h-7.594c-0.3125 1.615-0.9584 2.418-4.188 2.418-7.427 0-8.551-0.6466-8.551-4.365h20.34c-0.3229-10.33-0.3239-12.75-14.05-12.75zm-0.3223 5.168c5.656 0 6.458 0.3223 6.781 3.072h-12.92c0.3229-2.26 0.9682-3.072 6.135-3.072zm-93.5 0.6445c4.354 0 5.812 0.6459 5.812 4.031 0 5.167-0.3237 5.656-6.459 5.656-6.135 0-7.748-0.1674-7.748-4.521 0-5 1.936-5.166 8.395-5.166zm-174.6 0.168c6.302 0 7.428 0.1544 7.428 4.842 0 4.364-0.8127 5.168-6.781 5.168-6.302 0-7.104-0.6473-7.104-5.168 0-4.364 0.9676-4.842 6.457-4.842zm137.7 0c6.302 0 7.426 0.1544 7.426 4.842 0 4.364-0.8127 5.168-6.781 5.168-6.469 0-7.27-0.6473-7.27-5.168 0-4.364 0.9689-4.842 6.625-4.842zm69.75 0c6.302 0 7.426 0.1544 7.426 4.842 0 4.364-0.8022 5.168-6.781 5.168-6.448 0-7.26-0.6473-7.26-5.168 0-4.364 0.9696-4.842 6.615-4.842zm-290.2 6.26v11.08h11.61v-0.00977h12.53l-11.08-11.07h-1.449-11.61zm-34.85 34.99v6.084h180.9v-6.084h-180.9zm285.9 0c-3.708 0-7.426 6.5e-4 -11.14 0.1777-5.271 0.2604-14.08 0.4363-18.06 4.582-3.552 3.719-3.635 10.29-3.635 15.04v2.334h17.03v-1.906c0-3.458-0.4361-6.312 3.543-6.916 5.271-0.8646 10.98-0.6055 16.25-0.6055 2.5 0 11.84-0.4368 14 1.209 1.469 1.042 1.469 2.854 1.469 4.5 0 2.417 5.8e-4 3.885-2.51 4.75-2.677 0.9479-5.698 0.9486-8.469 1.209l-21.78 1.729c-8.302 0.6979-16.6 1.907-18.15 11.5-0.7708 4.583-0.6875 9.249-0.6875 13.92 0 2.25 0.1758 4.584 0.1758 6.834h68.79v-13.23h-52.64c0-2.51-0.00123-4.406 2.77-5.447 1.385-0.5208 5.106-0.7819 6.574-0.8652 3.281-0.2604 6.572-0.5104 9.854-0.6875 4.156-0.2604 8.218-0.5208 12.36-0.7812 5.364-0.3438 14.44-1.031 17.63-6.135 2.427-3.802 2.512-8.384 2.512-12.71 0-4.239-0.00138-10.81-3.199-14.09-4.146-4.24-11.24-4.322-16.77-4.322l-14.26-0.08398h-1.646zm80.21 0c-7.26 0-14.78 0.08402-21.96 1.209-8.729 1.385-11.24 6.312-11.24 14.7 0 5.187 0.7808 10.9 6.572 12.45 1.302 0.3437 2.687 0.4382 3.979 0.5215-2.854 0.5208-6.05 0.9571-8.123 3.113-2.771 2.854-3.115 6.917-3.115 10.72 0 4.489 0.3439 10.02 4.406 12.79 6.052 4.062 17.73 3.543 24.81 3.543h7.863c6.833 0 20.57 0.6028 26.28-3.543 3.802-2.677 4.406-7.438 4.416-11.75 0-3.896-0.09449-8.906-3.115-11.76-2.333-2.25-5.011-2.592-8.125-3.113 3.021-0.1771 5.792-0.4389 7.865-2.855 2.24-2.594 2.678-6.479 2.678-9.854 0-4.406-0.6049-9.854-4.584-12.53-4.323-2.937-11.58-3.115-16.69-3.375-3.979-0.1771-7.947-0.2598-11.93-0.2598zm-151.9 0.6973-21 18.06 9.678 11.32 17.03-14.34h4.488v42.62h17.63v-57.66h-27.83zm147.3 12.27c0.902-3.3e-4 1.798 0.00586 2.684 0.00586 3.448 0 6.823 0.09248 10.28 0.1758 3.979 0.08333 8.042-0.1763 8.053 4.834 0 1.125-6.8e-4 2.77-0.8652 3.635-1.385 1.385-7.176 1.387-9.166 1.387-6.135 0-12.71 0.2604-18.84-0.3438-2.937-0.3437-3.979-1.385-3.979-4.406 0-2.854 0.7813-4.417 3.719-4.844 2.656-0.3906 5.411-0.4424 8.117-0.4434zm-361.5 0.2871v6.082h180.9v-6.082h-180.9zm0 13.25v6.072h180.9v-6.072h-180.9zm361.9 8.834c1.379 0.00277 2.546 0.01954 3.26 0.01954 3.114 0 6.219 0.09248 9.334 0.1758 1.646 0 6.406-0.08265 7.697 1.209 0.9479 0.8646 1.031 2.417 1.031 3.625 0 1.031 0.00129 2.333-0.4258 3.281-1.125 2.51-6.313 2.25-8.469 2.25-3.021 0.09377-6.053 0.1777-9.074 0.1777-2.5 0-13.13 0.4362-15.12-1.293-1.042-0.9479-1.125-2.427-1.125-3.719 0-1.469-6.2e-4 -3.634 1.291-4.582 1.422-1.039 7.466-1.153 11.6-1.145zm-361.9 4.414v6.074h180.9v-6.074h-180.9zm0 13.24v6.084h180.9v-6.084h-180.9z" fill="#fff"/></svg>
