<svg width="480" height="320" version="1.1" viewBox="0 0 127 84.667" xmlns="http://www.w3.org/2000/svg">
 <defs>
  <linearGradient id="a" x1="55.161" x2="45.045" y1="8.9333" y2="93.622" gradientUnits="userSpaceOnUse">
   <stop stop-color="#f9c440" offset="0"/>
   <stop stop-color="#cc3b02" offset="1"/>
  </linearGradient>
 </defs>
 <rect width="127" height="84.667" ry="4.2333" fill="url(#a)" stroke-linecap="square" stroke-linejoin="round" stroke-width=".52917" style="paint-order:stroke fill markers"/>
 <path transform="matrix(.26458 0 0 .26458 -.00025 0)" d="m308.5 81.023v13.514c-1.9447-2.5946-3.6744-4-10.697-4-11.236 0-13.396 3.027-13.396 12.107 0 9.2968 3.0252 12 13.938 12 6.9146 0 8.9672-1.7309 10.588-4.7578v4.2148h8.4277v-33.078h-8.8594zm-157.31 9.1895c-6.3745 0-8.1054 2.1634-9.1856 5.9473l0.10938-5.2988h-7.8867v23.244h8.4258v-12.004c0-3.5672 1.7287-4.7539 6.4824-4.7539 4.4296 0 5.6191 1.6231 5.6191 5.9473v10.701h8.6426v-12.326c0-3.3511 2.5937-4.4316 6.6992-4.4316 3.8895 0 5.6191 1.0805 5.6191 4.4316v12.326h8.4258v-13.729c0-6.9188-4.2132-10.055-11.992-10.055-6.6988 0-9.1825 2.4879-10.047 5.082-1.7286-3.0269-4.2133-5.082-10.912-5.082zm56.828 0c-6.1583 0-7.7801 2.1634-8.9688 5.9473v-5.2988h-7.8867v23.244h8.4277v-12.004c0-3.5672 2.1613-4.7539 6.375-4.7539 4.4296 0 5.6172 1.4069 5.6172 5.9473v10.701h8.6445v-12.326c0-3.3511 2.4851-4.4316 6.4824-4.4316 3.8899 0 5.834 1.1886 5.834 4.4316v12.326h8.4277v-13.729c0-6.9188-4.2132-10.055-11.992-10.055-6.6988 0-8.9683 2.2713-10.049 5.082-1.7286-3.0269-4.2133-5.082-10.912-5.082zm168.98 0.10547c-5.0782 0-6.9132 1.0811-8.75 4.9727v-4.4316h-8.1035v23.242h8.4277v-12.107c0-3.135 1.9442-4.7559 5.5098-4.7559 3.5653 0 4.4294 1.0812 4.5371 4h7.8867c0-7.8916-1.0807-10.92-9.5078-10.92zm-264.49 0.32422c-14.586 0-16.424 2.2701-16.424 12.107 0 10.054 2.4863 12.109 16.424 12.109 14.802 0.1068 16.205-2.3802 16.205-12.758 0-9.513-2.5918-11.459-16.205-11.459zm150.18 0c-14.586 0-16.424 2.4872-16.424 12.324 0 9.8373 2.4864 12 16.424 12 14.802 0 16.424-2.4877 16.424-12.865 0-9.513-2.8103-11.459-16.424-11.459zm76.17 0c-14.478 0-16.207 2.2701-16.207 12.107 0 10.054 2.4858 12.109 16.207 12.109 14.802 0.1068 16.207-2.3802 16.207-12.758 0-9.513-2.5938-11.459-16.207-11.459zm65.797 0.10938c-12.641 0-15.451 2.2705-15.451 12.324 0 9.2968 3.6734 11.675 13.938 11.783 11.453 0 16.855-0.54025 16.855-8.1074h-8.3184c-0.32428 1.8377-0.97362 2.7012-4.5391 2.7012-8.1033 0-9.291-0.75626-9.291-4.7558h22.148c-0.32428-11.243-0.3239-13.945-15.342-13.945zm-328.24 0.10742c-13.397 0-16.422 2.1624-16.422 12 0 9.8373 2.8088 12.107 15.342 12.107 13.181 0 15.883-1.7308 15.883-10.055h-8.4277c0 2.2704-0.86515 3.3516-7.3477 3.3516-5.6182 0-6.9141-1.4049-6.9141-5.9453 0-4.4322 1.1881-4.4316 7.8867-4.4316 4.9701 0 5.8349 0.54019 6.375 2.8106h8.4277c-0.75651-7.8916-3.0259-9.8379-14.803-9.8379zm327.91 5.623c6.1583 0 7.0227 0.32319 7.4551 3.3496h-14.154c0.32428-2.4865 1.0811-3.3496 6.6992-3.3496zm-101.99 0.64648c4.7539 0 6.373 0.64774 6.373 4.4316 0 5.6213-0.32304 6.1641-7.0215 6.1641-6.6988 0-8.4277-0.2177-8.4277-4.9727 0-5.4051 2.0532-5.623 9.0762-5.623zm-190.38 0.2168c6.9146 0 8.1035 0.2177 8.1035 5.2969 0 4.7565-0.86515 5.6211-7.3477 5.6211-6.9146 0-7.7793-0.75682-7.7793-5.6211 0-4.7565 1.0811-5.2969 7.0234-5.2969zm150.29 0c6.9146 0 8.1016 0.2177 8.1016 5.2969 0 4.7565-0.86317 5.6211-7.3457 5.6211-7.1308 0-7.9961-0.75682-7.9961-5.6211 0-4.7565 1.0821-5.2969 7.2402-5.2969zm76.062 0c6.9146 0 8.1016 0.2177 8.1016 5.2969 0 4.7565-0.86313 5.6211-7.3457 5.6211-7.1308 0-7.9961-0.75682-7.9961-5.6211 0-4.7565 1.0821-5.2969 7.2402-5.2969zm-166.39 37.631-0.00391 0.00391c-27.643 0-51.928 23.175-51.928 52.096 0 29.715 24.484 51.9 52.129 51.9 4.9367 0 7.8981-0.59142 14.02-2.1758v-26.943c-6.1209 3.1695-9.2806 3.9609-14.217 3.9609-15.402 0-27.051-12.876-27.051-27.139 0-14.857 11.452-27.535 26.854-27.535 5.134 0 9.6752 1.3848 14.414 4.1582v-26.346c-5.3314-1.3863-8.8854-1.9804-14.217-1.9805zm155.9 10.402c-21.167 0-35.079 16.294-35.158 42.551-0.07884 29.421 16.161 40.65 35.002 40.65 19.077 0 32.401-11.508 32.322-28.947 0.07899-14.829-9.816-25.623-24.439-25.623-9.2235 0-17.58 4.4268-20.654 11.861h-0.47266c0.07884-13.089 4.1769-21.826 13.4-21.826 4.6116 0 8.6318 2.0535 9.6172 6.6406h21.602c-1.3796-13.84-13.403-25.307-31.219-25.307zm-65.449 1.1074-19.865 12.18v18.666l17.658-10.6h0.47266v60.742h21.918v-80.988h-20.184zm-74.854 18.207v20.404h24.484l20.141-20.404h-44.625zm139.99 24.186c6.5431 0 11.272 4.864 11.193 11.547 0.07884 6.683-4.6506 11.545-11.193 11.545-6.3854 0-11.118-4.8622-11.197-11.545 0.07884-6.683 4.8118-11.547 11.197-11.547zm-139.99 0.57617v20.404h44.625l-19.746-20.404h-24.879z" fill="#fafafa" stroke-width="1.2976"/>
 <style type="text/css">.st0{fill:#FC0C18;}
	.st1{fill:#FC0C18;}</style>
</svg>
