<svg width="480" height="320" version="1.1" viewBox="0 0 480 320" xml:space="preserve" xmlns="http://www.w3.org/2000/svg"><defs><linearGradient id="a" x1="70.88" x2="45.04" y1="-2.781" y2="93.62" gradientTransform="scale(3.78)" gradientUnits="userSpaceOnUse"><stop stop-color="#f9c440" offset="0"/><stop stop-color="#cc3b02" offset="1"/></linearGradient></defs><rect width="480" height="320" ry="24" fill="url(#a)"/><path d="m68.73 93.07c-15.86 0-28.73 13.26-28.73 29.63s12.86 29.62 28.73 29.62c2.573 0 5.063-0.3555 7.428-1.012v-14.91c-2.198 1.271-4.73 2-7.428 2-8.396 0-15.23-7.051-15.23-15.71s6.833-15.71 15.23-15.71c2.698 0 5.23 0.7292 7.428 2v-14.91c-2.365-0.6562-4.855-1.01-7.428-1.01zm268.1 9.094v12.34h-0.3223c-0.6042-1.104-0.9798-1.73-2.053-2.355-2.146-1.302-4.802-1.25-7.219-1.25-3.208 0-7.124-0.1862-9.916 1.73-3.167 2.208-3.26 6.53-3.26 10.08 0 3.073-0.0417 7.438 2.375 9.646 2.698 2.448 7.311 2.396 10.71 2.396 2.333 0 5.772-0.1048 7.824-1.396 0.9271-0.5729 1.344-1.198 1.906-2.156h0.416v2.979h7.781v-32.02zm-260.7 7.604v11.84h13.55l11.49-11.84zm118.2 1.125c-3.302 0-7.396 0.4902-8.938 3.99h-0.375v-3.406h-7.781v22.71h8.24v-9.363c0-5.385 0.3737-7.543 6.238-7.543 3.729 0 5.449 0.584 5.449 4.709v12.2h8.238v-9.363c0-5.24 0.4284-7.543 6.105-7.543 5.073 0 5.582 1.397 5.582 6.293v10.6h8.24v-10.62c0-2.25 0.0527-4.604-0.6035-6.812-0.3229-1.146-0.9271-2.061-1.719-2.926-2.323-2.542-5.917-2.928-9.125-2.928-3.958 0-7.866 0.5208-9.543 4.75-2.146-4.031-5.822-4.75-10.01-4.75zm51.63 0c-3.302 0-7.396 0.4902-8.938 3.99h-0.375v-3.406h-7.781v22.71h8.24v-9.363c0-5.385 0.3757-7.543 6.24-7.543 3.729 0 5.447 0.584 5.447 4.709v12.2h8.24v-9.363c0-5.24 0.4264-7.543 6.104-7.543 5.073 0 5.584 1.397 5.584 6.293v10.6h8.238v-10.62c0-2.25 0.0527-4.604-0.6035-6.812-0.3229-1.146-0.9271-2.061-1.719-2.926-2.323-2.542-5.917-2.928-9.125-2.928-3.958 0-7.864 0.5208-9.541 4.75-2.146-4.031-5.824-4.75-10.01-4.75zm153.5 0c-3.594 0-6.666 0.4902-8.572 3.99h-0.375v-3.406h-7.781v22.71h8.238v-9.406c0-4.177 0.1458-7.488 5.219-7.488 3.26 0 4.334 0.905 4.334 4.27h7.729c0-0.2917 0.0423-0.6237 0.0527-0.9258 0-2.396 0.0514-5.23-1.49-7.199-1.719-2.208-4.791-2.541-7.354-2.541zm-242.5 8e-3c-3.531 2e-3 -8.932 0.1322-11.38 2.064-1.719 1.344-2.512 3.271-2.699 5.428-0.1354 1.25-0.1348 2.541-0.1348 3.791 0 2.49-0.1361 5.47 0.791 7.824 0.4167 1.01 0.9382 1.781 1.771 2.5 2.979 2.594 9.406 2.26 13.04 2.26 3.5 0 10.2 0.2819 13.04-2.26 1.667-1.49 2.229-3.46 2.416-5.668 0.0937-1.396 0.1348-2.833 0.1348-4.229 0-2.448 0.1361-5.282-1.072-7.49-0.4688-0.9062-0.9798-1.531-1.771-2.156-2.844-2.208-9.406-2.062-12.76-2.062-0.4141 0-0.8803-2e-3 -1.385-2e-3zm137.3 0c-3.531 2e-3 -8.934 0.1322-11.38 2.064-1.719 1.344-2.51 3.271-2.697 5.428-0.1354 1.25-0.1348 2.541-0.1348 3.791 0 2.49-0.1361 5.47 0.791 7.824 0.4167 1.01 0.9382 1.781 1.771 2.5 2.979 2.594 9.406 2.26 13.04 2.26 3.5 0 10.2 0.2819 13.04-2.26 1.667-1.49 2.23-3.46 2.418-5.668 0.0937-1.396 0.1348-2.833 0.1348-4.229 0-2.448 0.1361-5.282-1.072-7.49-0.4688-0.9062-0.9798-1.531-1.771-2.156-2.844-2.208-9.406-2.062-12.76-2.062-0.4141 0-0.8803-2e-3 -1.385-2e-3zm68.26 0c-3.531 2e-3 -8.932 0.1322-11.38 2.064-1.719 1.344-2.512 3.271-2.699 5.428-0.1354 1.25-0.1348 2.541-0.1348 3.791 0 2.49-0.1361 5.47 0.791 7.824 0.4167 1.01 0.9382 1.781 1.771 2.5 2.979 2.594 9.406 2.26 13.04 2.26 3.5 0 10.2 0.2819 13.04-2.26 1.667-1.49 2.229-3.46 2.416-5.668 0.0937-1.396 0.1348-2.833 0.1348-4.229 0-2.448 0.1361-5.282-1.072-7.49-0.4688-0.9062-0.9798-1.531-1.771-2.156-2.844-2.208-9.406-2.062-12.76-2.062-0.4141 0-0.8803-2e-3 -1.385-2e-3zm61.34 0c-3.426 4e-3 -8.159 0.1367-10.68 2.023-1.865 1.396-2.615 3.458-2.844 5.76-0.1354 1.385-0.1367 2.834-0.1367 4.271 0 2.354-0.0931 5.094 0.9277 7.303 0.4688 0.9583 1.032 1.717 1.865 2.395 2.698 2.167 8.146 2.115 11.41 2.115 3.594 0 10.38 0.1354 13.23-2.5 1.583-1.49 2-3.178 2.188-5.334h-8.197c-0.0937 0.5208-0.1875 1.052-0.5625 1.438-0.8854 1.01-4.658 0.959-6.012 0.959-1.344 0-4.467-0.0423-5.582-0.959-1.063-0.9167-1.021-2.406-1.021-3.697h21.52c0.0417-0.7604 0.041-1.532 0.041-2.303 0-4.562-0.3334-9.167-5.219-10.66-3.021-0.9062-6.416-0.8125-9.541-0.8125-0.4258 0-0.8895-2e-3 -1.379-2e-3zm-300.2 0.01c-3.563-4e-3 -8.479 0.1172-11 2.305-2.646 2.302-2.605 6.199-2.605 9.459 0 3.312-0.1354 7.834 2.844 9.99 3.073 2.208 8.198 2.113 11.78 2.113 2 0 3.959-0.0508 5.959-0.1445 2.656-0.1458 5.594-0.584 7.5-2.646 1.823-1.927 1.959-4.374 2.053-6.916h-8.387c-0.3229 2.25-1.53 2.874-3.582 3.166-1.031 0.1458-2.01 0.1465-3.031 0.1465-1.49 0-4.699-0.0937-5.865-1.25-0.9791-0.9687-1.021-2.699-1.021-3.99 0-1.344 6.4e-4 -3.844 1.115-4.803 1.167-1 4.187-1.051 5.635-1.051 2.656 0 6.428-0.0937 6.803 3.406v0.01h8.365c-0.0417-1.823-0.0951-3.458-0.793-5.135-0.4167-1.01-0.9271-1.678-1.719-2.355-2.927-2.448-9.072-2.301-12.61-2.301-0.4427 0-0.9247-3e-3 -1.434-4e-3zm301.7 5.273c1.344 0 4.699 1e-3 5.678 1.105 0.6146 0.6771 0.6562 1.342 0.6562 2.207v0.5215h-13.27c0.0417-2.396 0.8756-3.313 3.209-3.646 1.219-0.1875 2.468-0.1875 3.729-0.1875zm-94.63 1.09c2.031-4e-3 4.848 0.1048 5.705 2.119 0.4167 1.01 0.4584 2.313 0.4688 3.365 0 2.062 0.0521 4.27-2.188 4.988-1.583 0.5313-3.635 0.625-5.312 0.625-1.49 0-5.083-1e-5 -6.197-1.25-0.9688-1.062-0.9277-3.125-0.9277-4.469 0-1.01 0.043-2.26 0.418-3.219 1.021-2.396 5.167-2.156 7.219-2.156 0.25 0 0.5243-3e-3 0.8145-4e-3zm-172.3 0.0156c1.531 0 5.073 0.0521 6.281 1.25 0.9792 0.9583 1.02 2.635 1.01 3.938 0 2.344 0.0527 4.75-2.51 5.469-1.531 0.4271-3.208 0.4258-4.791 0.4258-1.677 0-5.302 1e-3 -6.562-1.395-0.875-0.9583-0.834-2.637-0.834-3.887 0-2.583 0.0521-4.896 2.938-5.469 1.438-0.2812 2.979-0.332 4.469-0.332zm137.3 0c1.531 0 5.073 0.0521 6.281 1.25 0.9687 0.9583 1.02 2.635 1.01 3.938 0 2.344 0.0527 4.75-2.51 5.469-1.531 0.4271-3.21 0.4258-4.793 0.4258-1.677 0-5.302 1e-3 -6.562-1.395-0.875-0.9583-0.832-2.637-0.832-3.887 0-2.583 0.0521-4.896 2.938-5.469 1.438-0.2812 2.979-0.332 4.469-0.332zm68.26 0c1.531 0 5.073 0.0521 6.281 1.25 0.9792 0.9583 1.02 2.635 1.01 3.938 0 2.344 0.0527 4.75-2.51 5.469-1.531 0.4271-3.208 0.4258-4.791 0.4258-1.677 0-5.302 1e-3 -6.562-1.395-0.875-0.9583-0.834-2.637-0.834-3.887 0-2.583 0.0521-4.896 2.938-5.469 1.437-0.2812 2.979-0.332 4.469-0.332zm-287.8 6.488v11.84h25.04l-11.49-11.84zm321 34.32c-9.277 0.018-26.04 0.3932-31.42 5.242-6.448 5.75-5.572 18.84-5.572 26.91 0 4.427 0.1036 8.959 0.1973 13.4 0.1875 5.75 0.4785 13.8 4.979 17.94 6.25 5.844 21.59 5.344 29.8 5.344 5.865 0 11.63-0.0931 17.49-0.1973 4-0.1042 8.103-0.4069 12.11-1.209 10.35-2.115 11.92-10.68 11.92-20.25 0-5.24-0.1055-12.8-4.012-16.73-1.76-1.812-3.719-2.928-6.062-3.73-6.354-2.115-14.46-2.219-21.1-2.219-6.156 0-17.1-0.3014-22.57 2.928-1.469 0.8021-2.635 1.813-3.812 3.021v-3.719c0-2.615-0.1992-7.656 2.051-9.469 0.875-0.7083 1.855-1.011 2.928-1.209 4.687-0.9062 9.865-0.9062 14.66-0.9062 5.188 0 10.46 0 15.54 0.5 0.9792 0.1042 2.355 0.1979 3.23 0.9062 0.8796 0.7037 0.9773 2.095 0.9785 3.104h18.58c0-4.333 0.0937-10.88-3.031-14.21-4.5-4.74-14.56-5.042-20.52-5.24-4.302-0.1979-8.594-0.1973-12.9-0.1973-0.9648 0-2.138-7e-3 -3.463-4e-3zm-357.2 0.7848v67.25h7.688v-67.25zm17.05 0v67.25h7.688v-67.25zm17.05 0v67.25h7.687v-67.25zm17.05 0v67.25h7.688v-67.25zm17.05 0v67.25h7.688v-67.25zm17.05 0v67.25h7.688v-67.25zm17.05 0v67.25h7.688v-67.25zm17.05 0v67.25h7.688v-67.25zm17.05 0v67.25h7.688v-67.25zm17.05 0v67.25h7.688v-67.25zm17.05 0v67.25h7.688v-67.25zm17.05 0v67.25h7.688v-67.25zm17.05 0v67.25h7.688v-67.25zm17.05 0v67.25h7.688v-67.25zm17.05 0v67.25h7.688v-67.25zm17.05 0v67.25h7.688v-67.25zm17.05 0v67.25h7.688v-67.25zm19.77 0.041v67.21h20.81v-67.21zm58 38.77c1.979-0.026 3.957 0.0234 5.91 0.0234 5.375 0 11.04-0.1966 16.32 0.6055 3.812 0.6042 4.594 2.823 4.594 6.562 0 1.615-0.1882 3.833-1.365 5.041-1.958 1.906-6.937 1.605-9.385 1.709-3.427 0.0937-6.751 0.1973-10.17 0.1973-2.542 0-13.58 0.4994-15.54-1.615-1.167-1.312-1.562-3.53-1.562-5.238 0-3.833 1.469-6.251 5.281-6.855 1.953-0.3021 3.933-0.4036 5.912-0.4297z" fill="#fff"/></svg>
