<svg width="480" height="320" version="1.1" viewBox="0 0 127 84.667" xmlns="http://www.w3.org/2000/svg">
 <defs>
  <linearGradient id="a" x1="57.51" x2="34.421" y1="-4.6215" y2="98.779" gradientUnits="userSpaceOnUse">
   <stop stop-color="#ed5353" offset="0"/>
   <stop stop-color="#a10705" offset="1"/>
  </linearGradient>
 </defs>
 <rect width="127" height="84.667" ry="4.2333" fill="url(#a)" stroke-linecap="square" stroke-linejoin="round" stroke-width=".52917" style="paint-order:stroke fill markers"/>
 <path d="m81.625 21.437v3.5755c-0.51453-0.68649-0.97219-1.0583-2.8303-1.0583-2.973 0-3.5445 0.80089-3.5445 3.2034 0 2.4598 0.80043 3.175 3.6876 3.175 1.8295 0 2.3726-0.45796 2.8014-1.2588v1.1157h2.2298v-8.7525zm-41.622 2.4314c-1.6866 0-2.1446 0.57241-2.4304 1.5736l0.02894-1.402h-2.0867v6.15h2.2293v-3.1755c0-0.94384 0.45738-1.2583 1.7151-1.2583 1.172 0 1.4867 0.42944 1.4867 1.5736v2.8314h2.2867v-3.2608c0-0.88665 0.68626-1.1725 1.7725-1.1725 1.0291 0 1.4867 0.28588 1.4867 1.1725v3.2608h2.2293v-3.6323c0-1.8306-1.1147-2.6603-3.1729-2.6603-1.7724 0-2.4295 0.65825-2.6582 1.3446-0.45737-0.80087-1.1148-1.3446-2.8872-1.3446zm15.036 0c-1.6294 0-2.0585 0.57241-2.373 1.5736v-1.402h-2.0867v6.15h2.2298v-3.1755c0-0.94384 0.57184-1.2583 1.6867-1.2583 1.172 0 1.4862 0.37225 1.4862 1.5736v2.8314h2.2872v-3.2608c0-0.88665 0.65753-1.1725 1.7151-1.1725 1.0292 0 1.5436 0.31448 1.5436 1.1725v3.2608h2.2298v-3.6323c0-1.8306-1.1147-2.6603-3.1729-2.6603-1.7724 0-2.3729 0.60094-2.6588 1.3446-0.45737-0.80087-1.1148-1.3446-2.8872-1.3446zm44.709 0.02842c-1.3436 0-1.8291 0.28604-2.3151 1.3157v-1.1725h-2.1441v6.1495h2.2298v-3.2034c0-0.82946 0.5144-1.2583 1.4578-1.2583 0.94332 0 1.172 0.28607 1.2005 1.0583h2.0867c0-2.088-0.28593-2.8892-2.5156-2.8892zm-69.979 0.08578c-3.8592 0-4.3455 0.60062-4.3455 3.2034 0 2.66 0.65784 3.204 4.3455 3.204 3.9163 0.02827 4.2876-0.62976 4.2876-3.3755 0-2.517-0.68575-3.0319-4.2876-3.0319zm39.735 0c-3.8592 0-4.3455 0.65808-4.3455 3.2608 0 2.6028 0.65786 3.175 4.3455 3.175 3.9163 0 4.3455-0.6582 4.3455-3.4039 0-2.517-0.74357-3.0319-4.3455-3.0319zm20.153 0c-3.8306 0-4.2881 0.60062-4.2881 3.2034 0 2.66 0.6577 3.204 4.2881 3.204 3.9163 0.02827 4.2881-0.62976 4.2881-3.3755 0-2.517-0.68628-3.0319-4.2881-3.0319zm17.409 0.02894c-3.3446 0-4.0881 0.60075-4.0881 3.2608 0 2.4598 0.97194 3.0891 3.6876 3.1177 3.0302 0 4.4597-0.14294 4.4597-2.1451h-2.2009c-0.0858 0.48622-0.2576 0.71469-1.201 0.71469-2.144 0-2.4583-0.2001-2.4583-1.2583h5.8601c-0.0858-2.9746-0.0857-3.6897-4.0592-3.6897zm-86.846 0.02842c-3.5447 0-4.345 0.57214-4.345 3.175 0 2.6028 0.74317 3.2034 4.0592 3.2034 3.4875 0 4.2023-0.45795 4.2023-2.6603h-2.2298c0 0.6007-0.2289 0.88677-1.9441 0.88677-1.4865 0-1.8294-0.37172-1.8294-1.573 0-1.1727 0.31436-1.1725 2.0867-1.1725 1.315 0 1.5438 0.14293 1.6867 0.74363h2.2298c-0.20016-2.088-0.80061-2.6029-3.9166-2.6029zm86.76 1.4878c1.6294 0 1.8581 0.08549 1.9725 0.88625h-3.745c0.0858-0.65789 0.28604-0.88625 1.7725-0.88625zm-26.985 0.17106c1.2578 0 1.6862 0.17138 1.6862 1.1725 0 1.4873-0.08547 1.6309-1.8578 1.6309-1.7724 0-2.2298-0.05761-2.2298-1.3157 0-1.4301 0.54325-1.4878 2.4014-1.4878zm-50.37 0.05736c1.8295 0 2.1441 0.0576 2.1441 1.4015 0 1.2585-0.2289 1.4873-1.9441 1.4873-1.8295 0-2.0583-0.20024-2.0583-1.4873 0-1.2585 0.28605-1.4015 1.8583-1.4015zm39.764 0c1.8295 0 2.1435 0.0576 2.1435 1.4015 0 1.2585-0.22838 1.4873-1.9436 1.4873-1.8867 0-2.1156-0.20024-2.1156-1.4873 0-1.2585 0.2863-1.4015 1.9157-1.4015zm20.125 0c1.8295 0 2.1435 0.0576 2.1435 1.4015 0 1.2585-0.22837 1.4873-1.9436 1.4873-1.8867 0-2.1156-0.20024-2.1156-1.4873 0-1.2585 0.28631-1.4015 1.9157-1.4015zm-47.164 9.9565-5.16e-4 5.19e-4c-7.3327 0-13.774 6.1324-13.774 13.784 0 7.8621 6.4946 13.732 13.828 13.732 1.3095 0 2.0954-0.157 3.7192-0.57619v-7.1283c-1.6236 0.8386-2.4625 1.048-3.7719 1.048-4.0854 0-7.1753-3.4068-7.1753-7.1805 0-3.931 3.0377-7.2859 7.1231-7.2859 1.3619 0 2.5671 0.36692 3.8241 1.1007v-6.9712c-1.4142-0.36679-2.3577-0.52348-3.7719-0.52348zm28.049 2.7523c-5.6146 0-9.3052 4.3105-9.3261 11.258-0.02092 7.7842 4.2871 10.756 9.2847 10.756 5.0604 0 8.5946-3.0449 8.5737-7.659 0.02093-3.9235-2.6038-6.7795-6.4828-6.7795-2.4466 0-4.6633 1.1713-5.4788 3.1383h-0.12557c0.02092-3.4632 1.1082-5.7754 3.5548-5.7754 1.2233 0 2.2899 0.54332 2.5513 1.757h5.7299c-0.36594-3.662-3.5553-6.6952-8.2812-6.6952zm18.198 0.29249-8.6145 13.56v4.5191h10.413v3.3486h5.5625v-3.3486h2.4676v-4.5191h-2.4676v-13.56zm-42.11 4.8178v5.3981h6.4947l5.3423-5.3981zm43.867 1.2092h0.16795v7.5329h-4.8095v-0.16743zm-20.038 5.1894c1.7356 0 2.9897 1.287 2.9688 3.0551 0.02092 1.7682-1.2333 3.0551-2.9688 3.0551-1.6938 0-2.948-1.287-2.9688-3.0551 0.02092-1.7682 1.2751-3.0551 2.9688-3.0551zm-23.83 0.15245v5.3992h11.837l-5.2374-5.3992z" fill="#fafafa" stroke-width=".34375"/>
 <style type="text/css">.st0{fill:#FC0C18;}
	.st1{fill:#FC0C18;}</style>
</svg>
