<svg width="480" height="320" version="1.1" viewBox="0 0 480 320" xml:space="preserve" xmlns="http://www.w3.org/2000/svg"><defs><linearGradient id="a" x1="57.51" x2="34.42" y1="-4.622" y2="98.78" gradientTransform="scale(3.78)" gradientUnits="userSpaceOnUse"><stop stop-color="#ed5353" offset="0"/><stop stop-color="#a10705" offset="1"/></linearGradient></defs><rect width="480" height="320" ry="24" fill="url(#a)"/><path d="m67.69 98.62c-15.29 0-27.69 12.4-27.69 27.7s12.4 27.7 27.7 27.7c2.479 0 4.876-0.3333 7.168-0.9375v-13.95h-0.01172c-2.125 1.188-4.562 1.875-7.166 1.875-8.094 0-14.69-6.583-14.69-14.69s6.583-14.69 14.69-14.69c2.604 0 5.041 0.6771 7.166 1.875v-13.95c-2.281-0.6146-4.687-0.9375-7.166-0.9375zm270.1 7.426v12.44c-1.771-2.427-3.385-3.707-9.844-3.707-10.33 0-12.27 2.749-12.27 11.14 0 8.562 2.751 10.98 12.76 10.98 6.302 0 8.24-1.616 9.688-4.355v3.875h7.75v-30.38zm-262.9 8.178v11.08h13.06l11.08-11.08h-12.53zm118.7 0.375c-5.812 0-7.428 1.938-8.396 5.49l-0.01-5h-7.262v21.31h7.75v-10.98c0-3.229 1.616-4.354 5.98-4.354 4.042 0 5.166 1.449 5.166 5.49v9.844h7.916v-11.3c0-3.073 2.418-4.031 6.137-4.031 3.552 0 5.166 0.9688 5.166 4.031v11.3h7.75v-12.59c0-6.292-3.874-9.209-10.98-9.209-6.135 0-8.396 2.26-9.209 4.688-1.615-2.75-3.874-4.688-10.01-4.688zm51.98 0c-5.646 0-7.104 1.938-8.229 5.49v-5h-7.271v21.31h7.75v-10.98c0-3.229 1.938-4.354 5.812-4.354 4.042 0 5.166 1.292 5.166 5.49v9.844h7.918v-11.3c0-3.073 2.26-4.031 5.979-4.031 3.552 0 5.322 1.125 5.322 4.031v11.3h7.75v-12.59c0-6.292-3.874-9.209-10.98-9.209-6.135 0-8.24 2.094-9.209 4.688-1.615-2.75-3.874-4.688-10.01-4.688zm155 0c-4.688 0-6.301 0.9694-8.072 4.521l-0.01-4.031h-7.428v21.31h7.75v-11.14c0-2.906 1.781-4.363 5.01-4.363s4.043 0.9674 4.199 3.707h7.27c0-7.26-0.9688-10.01-8.719-10.01zm-242.6 0.334c-13.41 0-15.02 2.092-15.02 11.14 0 9.208 2.261 11.15 15.02 11.15 13.56-0.0104 14.85-2.271 14.85-11.8 0-8.719-2.426-10.49-14.85-10.49zm137.7 0c-13.41 0-15.01 2.259-15.01 11.3 0 9.042 2.26 10.98 15.01 10.98 13.56 0 15.02-2.262 15.02-11.79 0-8.719-2.584-10.49-15.02-10.49zm69.76 0c-13.24 0-14.86 2.092-14.86 11.14 0 9.208 2.262 11.15 14.86 11.15 13.56-0.0104 14.85-2.271 14.85-11.8 0-8.719-2.426-10.49-14.85-10.49zm-240.6 0.1562c-12.27 0-15.02 1.937-15.02 10.98s2.582 11.15 14.05 11.15c12.11 0 14.53-1.615 14.53-9.209h-7.75c0 2.104-0.8021 3.072-6.781 3.072-5.167 0-6.301-1.29-6.301-5.488 0-4.042 1.124-4.043 7.27-4.043 4.521 0 5.323 0.4902 5.812 2.584h7.75c-0.6458-7.271-2.75-9.041-13.56-9.041zm301 0c-11.62 0-14.22 2.092-14.22 11.3 0 8.562 3.397 10.66 12.76 10.82 10.5 0 15.5-0.4902 15.5-7.428h-7.594c-0.3125 1.615-0.9583 2.416-4.188 2.416-7.427 0-8.553-0.6445-8.553-4.363h20.34c-0.3229-10.33-0.3236-12.75-14.05-12.75zm-0.3223 5.166c5.656 0 6.458 0.3223 6.781 3.072h-12.92c0.3229-2.26 0.9681-3.072 6.135-3.072zm-93.5 0.6465c4.354 0 5.812 0.6458 5.812 4.031 0 5.167-0.3236 5.656-6.459 5.656-6.135 0-7.75-0.1673-7.75-4.521 0-5 1.938-5.166 8.396-5.166zm-174.6 0.166c6.302 0 7.428 0.1563 7.428 4.844 0 4.365-0.8125 5.166-6.781 5.166-6.302 0-7.105-0.6452-7.105-5.166 0-4.365 0.9694-4.844 6.459-4.844zm137.8 0c6.302 0 7.428 0.1563 7.428 4.844 0 4.365-0.8125 5.166-6.781 5.166-6.469 0-7.271-0.6452-7.271-5.166 0-4.365 0.9688-4.844 6.625-4.844zm69.75 0c6.302 0 7.428 0.1563 7.428 4.844 0 4.365-0.8021 5.166-6.781 5.166-6.448 0-7.262-0.6452-7.262-5.166 0-4.365 0.9694-4.844 6.615-4.844zm-290.2 6.26v11.08h11.62v-0.01h12.53l-11.08-11.07h-5.104zm250.4 34.99c-8.204 0.0152-23.04 0.3366-27.8 4.502-5.708 4.927-4.926 16.17-4.926 23.08 0 3.802 0.0925 7.698 0.1758 11.5 0.1667 4.938 0.4271 11.85 4.406 15.39 5.542 5.021 19.11 4.584 26.38 4.584 5.188 0 10.29-0.0944 15.48-0.1777 3.542-0.0937 7.177-0.3535 10.72-1.041 9.167-1.812 10.55-9.156 10.55-17.38 0-4.5-0.0827-10.98-3.541-14.35-1.562-1.552-3.292-2.512-5.365-3.199-5.625-1.823-12.8-1.906-18.68-1.906-5.437 0-15.12-0.2591-19.97 2.512-1.302 0.6875-2.333 1.552-3.375 2.594v-3.199c0-2.25-0.1771-6.573 1.812-8.125 0.7812-0.6146 1.646-0.8639 2.594-1.041 4.146-0.7812 8.729-0.7812 12.97-0.7812 4.583 0 9.25 0 13.75 0.4375 0.8646 0.0937 2.072 0.1771 2.854 0.7812 0.7813 0.6042 0.8652 1.813 0.8652 2.678h16.42c0-3.719 0.0931-9.333-2.678-12.19-3.979-4.073-12.89-4.323-18.16-4.5-3.812-0.1771-7.614-0.1777-11.42-0.1777-0.8529 0-1.89-4e-3 -3.062-2e-3zm-285.2 2e-3v6.084h234.2v-6.084zm360.4 0.6973-34.24 24.91v22.04h46v10.72h16.69v-10.72h11.16v-12.97h-11.16v-33.98zm-360.4 12.55v6.084h234.2v-6.084zm368.6 0.8535h3.551v20.58h-30.35v-2.25zm-368.6 12.4v6.072h234.2v-6.072zm279.4 7.467c1.75-0.0208 3.499 0.0234 5.229 0.0234 4.75 0 9.771-0.168 14.44 0.5195 3.375 0.5104 4.072 2.417 4.072 5.615 0 1.385-0.1654 3.281-1.207 4.322-1.729 1.646-6.136 1.385-8.303 1.469-3.021 0.0938-5.959 0.1777-8.99 0.1777-2.25 0-12.02 0.4277-13.75-1.385-1.042-1.125-1.385-3.031-1.385-4.5 0-3.281 1.291-5.354 4.666-5.875 1.729-0.2604 3.48-0.3464 5.23-0.3672zm-279.4 5.783v6.072h234.2v-6.072zm0 13.24v6.082h234.2v-6.082z" fill="#fff"/></svg>
