<svg width="480" height="320" version="1.1" viewBox="0 0 480 320" xml:space="preserve" xmlns="http://www.w3.org/2000/svg" xmlns:xlink="http://www.w3.org/1999/xlink"><defs><linearGradient id="a" x1="147.4" x2="334.6" y1="291.2" y2="-32.92" gradientUnits="userSpaceOnUse"><stop stop-color="#0055d4" offset="0"/><stop stop-color="#37abc8" offset="1"/></linearGradient></defs><rect id="b" width="480" height="320" ry="24" fill="url(#a)"/><path d="m320.8 103.8c-8.021 0-14.7 2.926-14.7 9.76 0 11.76 16.26 9.199 16.26 15.17 0 2.104-0.6673 3.25-4.334 3.25-3.26 0-8.926-0.6263-11.92-2.168v7.584c3.385 0.4792 8.656 1.084 11.92 1.084 8.281 0 14.08-2.428 14.08-10.83 0-11.21-16.25-8.761-16.25-14.08v-1.082c0-1.823 2.562-2.167 5.416-2.178 3.125 0 6.354 0.1048 8.666 1.084v-6.5c-2.583-0.5625-3.467-1.084-9.145-1.084zm-172.9 0.00977v34.68h9.699l0.05079-8.666h4.334c9.24 0 14.08-4.458 14.08-13 0.0104-9.396-6.052-13.01-16.25-13.01-3.937 0-11.92 0.0417-11.92 0zm32.51 0v34.68h9.75v-14.08h9.76v14.08h9.75v-34.68h-9.75v14.09h-9.76v-14.09h-9.75zm36.84 0v34.68h9.76v-34.68h-1.094-8.666zm17.34 0v34.68h18.34l1.166-6.5h-9.76v-28.18h-9.75zm22.76 0v34.68h9.75v-34.68h-9.75zm17.34 0v34.68h9.697l0.0625-8.666h4.334c9.24 0 14.08-4.458 14.08-13-0.0104-9.396-6.074-13.01-16.26-13.01-3.948 0-11.92 0.0417-11.92 0zm-115.9 6.488c0.405 0.0039 0.8014 0.01172 1.057 0.01172 4.896 0 6.666 2.501 6.666 6.709 0 4.344-1.499 6.303-6.666 6.303h-2.168v-13.01c0.2917-0.0156 0.7064-0.01562 1.111-0.01172zm126.8 0c0.405 0.0039 0.7995 0.01172 1.055 0.01172 4.896 0 6.668 2.501 6.668 6.709 0 4.344-1.512 6.303-6.668 6.303h-2.166v-13.01c0.2917-0.0156 0.7064-0.01562 1.111-0.01172zm-161.1 41.73c-46.64 0-84.44 12.11-84.44 27.04 0 14.94 37.8 27.04 84.44 27.04 39.67 0 72.95-8.76 82-20.57h-18.96c-8.635 8.385-33.59 14.45-63.04 14.45-36.61 0-66.29-9.364-66.29-20.92 0-11.55 29.68-20.92 66.29-20.92 29.46 0 54.41 6.064 63.04 14.45h18.96c-9.052-11.81-42.32-20.57-82-20.57zm90.26 0.6992v50.44h16.91v-0.01171h40.84c46.64 0 84.44-11.29 84.44-25.22 0-13.92-37.8-25.21-84.44-25.21h-40.84-16.91zm208.4 0v10.08h16.91v-10.08h-16.91zm-191.5 5.707h40.84c36.61 0 66.29 8.729 66.29 19.5s-29.68 19.51-66.29 19.51h-40.84v-39.01zm191.5 11.73v32.99h16.91v-32.99h-16.91zm-56.85 0.6348v14.29l42.47-7.145-42.47-7.146zm-241.8 1.678c-11.37 0-20.59 2.948-20.59 6.594 0 3.646 9.219 6.594 20.59 6.594s20.59-2.948 20.59-6.594c0-3.646-9.219-6.594-20.59-6.594zm0 1.488c8.927 0 16.17 2.283 16.17 5.105 0 2.812-7.239 5.104-16.17 5.104s-16.17-2.281-16.17-5.104c0-2.823 7.239-5.105 16.17-5.105z" fill="#fff"/></svg>
