<svg width="480" height="320" version="1.1" viewBox="0 0 480 320" xml:space="preserve" xmlns="http://www.w3.org/2000/svg"><defs><linearGradient id="a" x1="10.58" x2="37.37" y1="84.67" y2="-15.29" gradientTransform="scale(3.78)" gradientUnits="userSpaceOnUse"><stop stop-color="#7a0000" offset="0"/><stop stop-color="#ed5353" offset="1"/></linearGradient></defs><rect width="480" height="320" ry="24" fill="url(#a)"/><path d="m391.9 125.2c-10.62 0-27.7 0.7707-38.62 3.803-2.907 0.8023-5.167 3.106-5.959 6.023-1.427 5.283-3.502 14.68-3.502 24.95s2.064 19.69 3.502 24.96c0.7919 2.917 3.042 5.211 5.959 6.023 10.92 3.032 28.01 3.803 38.62 3.803 10.62 0 27.69-0.7707 38.61-3.803 2.907-0.8023 5.169-3.106 5.961-6.023 1.438-5.283 3.5-14.68 3.5-24.96s-2.062-19.68-3.5-24.95c-0.7919-2.917-3.044-5.211-5.961-6.023-10.91-3.032-28-3.803-38.61-3.803zm-16.66 5.771h33.32v13.35h-19.97v9.43h19.98v13.34h-19.98v21.91h-13.35v-44.68zm-308.4 2.24c-7.137 0-14.36 3.106-19.35 8.232-4.866 4.98-7.492 11.66-7.492 18.61 0 7.554 2.563 14.16 8.158 19.22 5.262 4.793 12 7.492 19.09 7.492 4.116 0 7.283-1.011 11.67-2.365v-15.85c-2.761 3.303-7.085 5.396-11.4 5.396-8.231 0-13.76-5.803-13.76-13.83 0-7.887 5.459-14.1 13.55-14.1 4.522 0 8.909 1.949 11.61 5.596h0.01172v-15.85c-3.928-1.615-7.837-2.564-12.09-2.564zm16.46 0.6367v52.48h13.31v-19.99h14.93v19.99h9.514v0.01h14.86l9.096-19.17h11.39v19.16h13.32v-52.48h-23.77l-21.1 44.47v-44.47h-13.32v19.17h-14.92v-19.17zm90.77 0v52.48h13.31v-26.34l19.31 26.34h12.12v-52.48h-13.32v28.34l-20.78-28.34zm49.12 0v52.48h13.31v-26.34l19.31 26.34h12.11v-52.48h-13.31v28.34l-20.78-28.34zm49.12 0v52.47h2.709v0.01h26.57v-13.31h-15.96v-5.855h15.96v-13.31h-15.96v-6.701h15.96v-13.3h-26.57zm33.68 0v52.47h1.646v0.01h26.58v-13.31h-14.91v-39.18zm-149.6 9.324v10.68h-5.064z" fill="#fff"/></svg>
