<svg width="480" height="320" version="1.1" viewBox="0 0 127 84.667" xmlns="http://www.w3.org/2000/svg" xmlns:xlink="http://www.w3.org/1999/xlink">
 <defs>
  <linearGradient id="a" x1="10.583" x2="37.366" y1="84.667" y2="-15.286" gradientUnits="userSpaceOnUse">
   <stop stop-color="#7a0000" offset="0"/>
   <stop stop-color="#ed5353" offset="1"/>
  </linearGradient>
 </defs>
 <rect width="127" height="84.667" ry="4.2333" fill="url(#a)" stroke-linecap="square" stroke-linejoin="round" stroke-width=".52917" style="paint-order:stroke fill markers"/>
 <g transform="matrix(.71415 0 0 .71415 42.908 20.126)">
  <path d="m82.369 44.373c-4.1846-7.93e-4 -8.2397-0.6694-10.191-1.0732-1.0038-0.20611-1.9516-0.55404-2.7035-1.3258-0.75168-0.771-1.2626-1.9114-1.5375-3.5949-0.28125-1.7298-0.44609-5.04-0.44715-8.2854 0.0037-3.0837 0.14526-6.0542 0.52229-7.5819 0.19553-0.78687 0.53208-1.5116 1.0996-2.1238 0.567-0.61278 1.3481-1.1009 2.3926-1.4764 2.0918-0.74877 5.2636-1.089 10.267-1.0914h6.88c3.7523 2.65e-4 6.4754 0.19526 8.4833 0.6051 2.0042 0.40984 3.321 1.0417 4.1757 1.9627 0.56779 0.61225 0.90461 1.3369 1.1001 2.1238 0.37676 1.5277 0.51779 4.4982 0.52123 7.5819-1e-3 3.2454-0.16616 6.5561-0.44662 8.2854-0.27464 1.6835-0.78581 2.8239-1.5375 3.5949-0.75194 0.77179-1.6991 1.1195-2.703 1.3258-1.9518 0.40349-6.0063 1.0724-10.191 1.0732v-0.99589c4.0788 7.94e-4 8.091-0.65881 9.9891-1.052 0.92154-0.19182 1.6335-0.47413 2.1923-1.047 0.55907-0.57282 1.0107-1.4901 1.2676-3.0596 0.26379-1.6089 0.43471-4.9223 0.43312-8.1248 3e-3 -3.0348-0.15795-6.0246-0.49106-7.3403-0.1696-0.67363-0.43074-1.2181-0.86493-1.6888-0.43523-0.4699-1.0599-0.87762-1.9989-1.216-1.8743-0.67839-4.9758-1.0353-9.9295-1.0327h-6.88c-3.7163-2.64e-4 -6.3892 0.19685-8.2849 0.58499-1.9005 0.38841-2.9953 0.9607-3.6438 1.6637-0.43445 0.47069-0.69506 1.0152-0.86492 1.6888-0.33364 1.3163-0.4953 4.3056-0.4916 7.3403-0.0013 3.2023 0.16933 6.5156 0.43392 8.1248 0.25638 1.5698 0.70829 2.4868 1.2671 3.0596 0.55959 0.57282 1.2713 0.85513 2.1923 1.047 1.8989 0.39291 5.9108 1.0528 9.9896 1.052h5.6848v0.99589z" fill="#fafafa" stroke-width=".26458"/>
  <polygon transform="matrix(.26458 0 0 .26458 -46.245 15.843)" points="519.11 18.074 474.33 18.199 474.33 97.231 493.02 97.231 493.02 67.249 519.36 67.249 519.36 50.565 493.02 50.565 493.02 34.884 519.11 34.884" fill="#fafafa"/>
  <g transform="matrix(.26458 0 0 .26458 -46.245 15.843)" fill="#f9f9f9">
   <g fill="#f9f9f9">
    <path d="m123.56 84.678v-63.218h-18.064v27.841h-21.82v-27.841h-18.817v73.002h18.817v-27.848h22.573v27.849h32.365c7.858-15.046 8.046-15.61 15.054-27.849 5.156 0.067 9.8-0.053 14.293 0v27.849h18.817v-73.003h-28.602c-12.261 20.353-22.174 43.046-34.616 63.218zm42.332-45.592h2.258v9.778h-6.022c1.34-3.176 2.532-5.764 3.764-9.778zm-161.99 14.732-0.188 4.396 0.188 4.636c3.297 23.747 26.623 39.41 53.433 30.107v-22.58c-3.779 2.853-7.903 7.429-15.807 7.526-27.36 0.323-23.619-38.108-0.752-38.379 8.211-0.105 11.343 2.792 16.559 8.272v-23.325c-25.471-10.997-50.587 5.735-53.433 29.347zm233.3 5.268c-10.507-13.789-17.906-24.582-28.594-37.626h-15.806v73.002h18.817v-36.881c11.027 10.793 17.553 26.096 28.594 36.881h15.807v-73.002h-18.817v37.626zm158.79 19.57v-57.196h-18.81v73.002h39.885v-15.806zm-65.469 15.806h41.391v-16.558h-21.829v-10.538h21.828v-18.064h-21.828v-10.53h21.828v-17.312h-41.391v73.002zm-24.838-35.376c-11.381-14.293-17.522-23.325-28.602-37.626h-15.799v73.002h18.81v-36.881c10.952 12.803 17.597 23.717 28.602 36.881h15.806v-73.002h-18.817z" fill="#fafafa"/>
   </g>
  </g>
 </g>
 <style type="text/css">.st0{fill:#FC0C18;}
	.st1{fill:#FC0C18;}</style>
</svg>
