<svg width="480" height="320" version="1.1" viewBox="0 0 480 320" xml:space="preserve" xmlns="http://www.w3.org/2000/svg"><defs><linearGradient id="a" x1="240" x2="240" y1="320" gradientUnits="userSpaceOnUse"><stop stop-color="#3a4146" offset="0"/><stop stop-color="#6d8393" offset="1"/></linearGradient></defs><rect id="b" width="480" height="320" ry="24" fill="url(#a)"/><path d="m60 80v158h60v-32h-30v-62h-15v-32h45v-32h-60zm75 0v158h30v-63h15v63h15v-158h-15v64h-30v-64h-15zm90 0v158h30v-95h-15v-63h-15zm60 0v158h30v-63h30v-95h-60zm75 0v158h60v-158h-60zm-60 32h30v31h-30v-31zm75 0h30v31h-30v-31zm0 63h30v31h-30v-31z" fill="#fff"/></svg>
