<svg width="480" height="320" version="1.1" viewBox="0 0 127 84.667" xmlns="http://www.w3.org/2000/svg" xmlns:xlink="http://www.w3.org/1999/xlink">
 <defs>
  <linearGradient id="a" x1="37.235" x2="65.723" y1="-43.33" y2="71.438" gradientUnits="userSpaceOnUse">
   <stop stop-color="#68b723" offset="0"/>
   <stop stop-color="#007367" offset="1"/>
  </linearGradient>
 </defs>
 <rect width="127" height="84.667" ry="4.2333" fill="url(#a)" stroke-linecap="square" stroke-linejoin="round" stroke-width=".52917" style="paint-order:stroke fill markers"/>
 <g transform="matrix(.69507 0 0 .69507 -78.022 15.062)" fill="#fff">
  <path d="m146.81 61.119c-0.77198-1.3399-9.6157-16.251-10.867-18.322-0.61535-1.0186-1.2574-2.12-1.4267-2.4474l-0.30788-0.59531h8.4438l1.7892 3.1089c2.5862 4.4936 6.2351 10.771 6.3064 10.849 0.0337 0.03679 2.1892-3.0886 4.79-6.9453l4.7288-7.0122h3.3402c1.8371 0 3.4029 0.06268 3.4795 0.13929 0.0766 0.07661-1.2205 2.4281-2.8826 5.2255s-4.5921 7.7321-6.5113 10.966l-3.4895 5.8797-6.8974 0.0144zm21.724 0.68351c-0.097-0.09701-0.17639-5.0976-0.17639-11.112v-10.936h7.6729v22.225h-3.6601c-2.013 0-3.7394-0.07938-3.8365-0.17639zm9.4698-0.15416c-0.077-0.2007-0.10602-1.667-0.0644-3.2583l0.0756-2.8934 18.785-0.26458v-1.3229l-13.758-0.26458-1.5102-0.74162c-4.4854-2.2026-5.2639-8.1739-1.487-11.407 1.9326-1.6542 2.6013-1.7423 13.232-1.7423h9.477v6.35h-9.3738c-10.105 0-10.613 0.06777-9.9391 1.326 0.2477 0.46283 0.74878 0.50084 7.6062 0.57694 7.0307 0.07802 7.3883 0.1067 8.458 0.67829 5.2708 2.8165 5.1783 9.8965-0.16406 12.556-1.5268 0.75995-21.059 1.1332-21.337 0.4077zm26.602-10.782v-11.112h7.6729v22.225h-7.6729zm14.374 10.846c-2.4752-0.51101-4.5423-2.4338-5.2561-4.8892-0.64573-2.2212-0.46972-11.489 0.24378-12.836 0.91373-1.725 1.7794-2.6512 3.1564-3.3773l1.3727-0.72375h18.785l1.3902 0.77028c3.1588 1.7502 3.6369 3.0924 3.6369 10.21 0 7.1194-0.74004 8.9213-4.3287 10.54-1.0913 0.4922-16.868 0.74618-19.001 0.30588zm14.875-6.9973c1.0813-1.0813 0.99209-6.7215-0.12396-7.8376l-0.7734-0.7734h-4.9325c-6.8174 0-6.7292-0.06293-6.7414 4.8094-0.0117 4.6501-0.30939 4.451 6.6539 4.451 5.2404 0 5.2714-0.0034 5.9174-0.64943zm9.6453-3.859v-11.123l11.576 0.07664c13.045 0.08637 12.518 6e-3 14.671 2.237 1.7726 1.8366 1.7988 2.0038 1.7988 11.464v8.4824l-7.5406-0.14682-0.13229-7.203c-0.17047-9.2818 0.57496-8.3802-7.0182-8.4881l-5.6818-0.08073v15.904h-7.6729zm-111.18-12.511c-1.625-0.51419-3.1904-1.8176-4.0461-3.3692l-0.79375-1.4392v-5.8208c0-10.532 0.68721-11.068 14.354-11.197l9.062-0.08539v6.6517h-14.312l-0.64943 0.64943c-0.62001 0.62-0.64943 0.79876-0.64943 3.9452v3.2958l1.6281 1.37h13.982v6.35l-8.7974-0.02032c-5.9429-0.01373-9.1157-0.12105-9.7784-0.33073zm24.926 0.11018c-4.3671-1.3764-5.1594-3.0254-5.1594-10.739 0-10.569 0.69831-11.112 14.288-11.112 13.744 0 14.412 0.51432 14.417 11.095 3e-3 7.2198-0.46303 8.4716-3.8339 10.293-1.1158 0.60304-18.008 1.0001-19.711 0.46337zm15.102-6.8825c0.76974-0.76974 0.77339-0.78856 0.77339-3.9808 0-4.681 0.25796-4.5062-6.6516-4.5062-6.914 0-6.5775-0.22983-6.5775 4.4935 0 4.8277-0.11243 4.7479 6.7011 4.7589l4.9813 8e-3 0.7734-0.7734zm14.795 6.8762c-1.2062-0.3669-2.2348-1.0192-3.2265-2.0461-1.7725-1.8354-1.7988-2.0031-1.7988-11.464v-8.4824l7.5406 0.14682 0.13229 7.2332 0.1323 7.2332 0.74235 0.63814c0.72324 0.62171 0.86122 0.63814 5.3578 0.63814h4.6154v6.35l-6.4161-0.02275c-3.5289-0.01252-6.7146-0.11352-7.0793-0.22447zm18.624-0.18066c-4.0596-1.4397-4.5941-2.9973-4.5973-13.397l-3e-3 -8.4005h24.077v5.8208h-16.404v1.8521h16.404v5.5562h-8.2021c-9.1396 0-9.0954-0.01035-7.5639 1.7712l0.6382 0.74236 15.128 0.15552v6.3268l-9.1938-0.020895c-7.3438-0.01669-9.4134-0.09859-10.283-0.40698zm25.594 0.12292c-3.8859-1.1176-4.8846-3.1231-5.0111-10.063-0.19913-10.921 0.79448-11.725 14.504-11.725h8.8635v6.35l-7.1826 0.13229c-8.9487 0.16482-8.2955-0.18049-8.2955 4.385 0 5.14-0.47313 4.8754 8.7181 4.8754h6.8923v6.35l-8.7974-0.02387c-4.8386-0.01312-9.1999-0.13961-9.6918-0.28109zm24.215-0.12027c-3.7435-1.1689-4.738-3.5677-4.6203-11.144l0.0854-5.4962 0.77027-1.3902c1.9022-3.4331 2.6671-3.6369 13.65-3.6369h9.1281l1.3229 0.70293c3.384 1.7981 3.8232 2.9897 3.8306 10.392 7e-3 7.1363-0.59146 8.7291-3.8984 10.373-1.3811 0.68653-18.179 0.85183-20.268 0.19945zm15.726-6.6982c1.1141-1.1141 1.2022-6.6241 0.12458-7.7869l-0.64883-0.70009h-10.781l-0.64144 0.68228c-0.56934 0.6056-0.65192 0.96794-0.73478 3.224-0.18883 5.1411 0.0546 5.329 6.9267 5.3436l4.9813 0.01058 0.77339-0.7734z" fill="#fff" stroke-width=".26458"/>
 </g>
 <style type="text/css">.st0{fill:#FC0C18;}
	.st1{fill:#FC0C18;}</style>
</svg>
