<?xml version="1.0" encoding="UTF-8" standalone="no"?>
<!-- Created with Inkscape (http://www.inkscape.org/) -->

<svg
   width="480"
   height="320"
   viewBox="0 0 127 84.666667"
   version="1.1"
   id="svg1543"
   inkscape:export-filename="/home/vitor/Dev/es-theme-material-tv-3-2/assets/logos/pspminis.png"
   inkscape:export-xdpi="96"
   inkscape:export-ydpi="96"
   inkscape:version="1.1.1 (3bf5ae0d25, 2021-09-20)"
   sodipodi:docname="coleco.svg"
   xmlns:inkscape="http://www.inkscape.org/namespaces/inkscape"
   xmlns:sodipodi="http://sodipodi.sourceforge.net/DTD/sodipodi-0.dtd"
   xmlns:xlink="http://www.w3.org/1999/xlink"
   xmlns="http://www.w3.org/2000/svg"
   xmlns:svg="http://www.w3.org/2000/svg">
  <sodipodi:namedview
     id="namedview1545"
     pagecolor="#505050"
     bordercolor="#eeeeee"
     borderopacity="1"
     inkscape:pageshadow="0"
     inkscape:pageopacity="0"
     inkscape:pagecheckerboard="0"
     inkscape:document-units="px"
     showgrid="false"
     units="px"
     width="640px"
     inkscape:snap-page="true"
     showguides="true"
     inkscape:guide-bbox="true"
     inkscape:zoom="0.79107571"
     inkscape:cx="346.36381"
     inkscape:cy="288.21514"
     inkscape:window-width="1920"
     inkscape:window-height="1019"
     inkscape:window-x="0"
     inkscape:window-y="30"
     inkscape:window-maximized="1"
     inkscape:current-layer="layer1">
    <sodipodi:guide
       position="10.583333,76.729167"
       orientation="-1,0"
       id="guide2978"
       inkscape:label=""
       inkscape:locked="false"
       inkscape:color="rgb(0,0,255)" />
    <sodipodi:guide
       position="116.41667,7.9375"
       orientation="-1,0"
       id="guide2980"
       inkscape:label=""
       inkscape:locked="false"
       inkscape:color="rgb(0,0,255)" />
    <sodipodi:guide
       position="10.583333,71.4375"
       orientation="0,1"
       id="guide2982"
       inkscape:label=""
       inkscape:locked="false"
       inkscape:color="rgb(0,0,255)" />
    <sodipodi:guide
       position="116.41667,13.229167"
       orientation="0,1"
       id="guide2984"
       inkscape:label=""
       inkscape:locked="false"
       inkscape:color="rgb(0,0,255)" />
  </sodipodi:namedview>
  <defs
     id="defs1540">
    <linearGradient
       inkscape:collect="always"
       id="linearGradient2856">
      <stop
         style="stop-color:#68b723;stop-opacity:1"
         offset="0"
         id="stop2852" />
      <stop
         style="stop-color:#007367;stop-opacity:1"
         offset="1"
         id="stop12073" />
    </linearGradient>
    <linearGradient
       inkscape:collect="always"
       xlink:href="#linearGradient2856"
       id="linearGradient2858"
       x1="37.235184"
       y1="-43.329868"
       x2="65.723274"
       y2="71.4375"
       gradientUnits="userSpaceOnUse" />
    <clipPath
       id="clip1">
      <path
         d="m 249,0 h 75 v 124.51172 h -75 z m 0,0"
         id="path2" />
    </clipPath>
    <clipPath
       id="clip2">
      <path
         d="m 421,0 h 90 v 124.51172 h -90 z m 0,0"
         id="path5" />
    </clipPath>
    <clipPath
       id="clip3">
      <path
         d="m 513,0 h 28 v 124.51172 h -28 z m 0,0"
         id="path8" />
    </clipPath>
    <clipPath
       id="clip4">
      <path
         d="m 659,4 h 86.87109 V 124 H 659 Z m 0,0"
         id="path11" />
    </clipPath>
    <marker
       id="DefaultArrow2"
       markerUnits="strokeWidth"
       viewBox="0 0 1 1"
       markerWidth="1"
       markerHeight="1"
       overflow="visible"
       orient="auto">
      <!-- REF_ARROW_STRAIGHT (-2) -->
      <g
         transform="scale(0.0092592592)"
         id="g8989">
        <!-- 1/108 -->
        <path
           d="M -9 54 L -9 -54 L 117 0 z"
           id="path8987" />
      </g>
    </marker>
    <marker
       id="DefaultArrow3"
       markerUnits="strokeWidth"
       viewBox="0 0 1 1"
       markerWidth="1"
       markerHeight="1"
       overflow="visible"
       orient="auto">
      <!-- REF_ARROW_ANGLED -->
      <g
         transform="scale(0.0092592592)"
         id="g8994">
        <path
           d="M -27 54 L -9 0 L -27 -54 L 135 0 z"
           id="path8992" />
      </g>
    </marker>
    <marker
       id="DefaultArrow4"
       markerUnits="strokeWidth"
       viewBox="0 0 1 1"
       markerWidth="1"
       markerHeight="1"
       overflow="visible"
       orient="auto">
      <!-- REF_ARROW_ROUNDED -->
      <g
         transform="scale(0.0092592592)"
         id="g8999">
        <path
           d="M -9,0 L -9,-45 C -9,-51.708 2.808,-56.580 9,-54 L 117,-9 C 120.916,-7.369 126.000,-4.242 126,0 C 126,4.242 120.916,7.369 117,9 L 9,54 C 2.808,56.580 -9,51.708 -9,45 z"
           id="path8997" />
      </g>
    </marker>
    <marker
       id="DefaultArrow5"
       markerUnits="strokeWidth"
       viewBox="0 0 1 1"
       markerWidth="1"
       markerHeight="1"
       overflow="visible"
       orient="auto">
      <!-- REF_ARROW_SPOT -->
      <g
         transform="scale(0.0092592592)"
         id="g9004">
        <path
           d="M -54, 0 C -54,29.807 -29.807,54 0,54 C 29.807,54 54,29.807 54,0 C 54,-29.807 29.807,-54 0,-54 C -29.807,-54 -54,-29.807 -54,0 z"
           id="path9002" />
      </g>
    </marker>
    <marker
       id="DefaultArrow6"
       markerUnits="strokeWidth"
       viewBox="0 0 1 1"
       markerWidth="1"
       markerHeight="1"
       overflow="visible"
       orient="auto">
      <!-- REF_ARROW_DIAMOND -->
      <g
         transform="scale(0.0092592592)"
         id="g9009">
        <path
           d="M -63,0 L 0,63 L 63,0 L 0,-63 z"
           id="path9007" />
      </g>
    </marker>
    <marker
       id="DefaultArrow7"
       markerUnits="strokeWidth"
       viewBox="0 0 1 1"
       markerWidth="1"
       markerHeight="1"
       overflow="visible"
       orient="auto">
      <!-- REF_ARROW_FEATHER -->
      <g
         transform="scale(0.0092592592)"
         id="g9014">
        <path
           d="M 18,-54 L 108,-54 L 63,0 L 108,54 L 18, 54 L -36,0 z"
           id="path9012" />
      </g>
    </marker>
    <marker
       id="DefaultArrow8"
       markerUnits="strokeWidth"
       viewBox="0 0 1 1"
       markerWidth="1"
       markerHeight="1"
       overflow="visible"
       orient="auto">
      <!-- REF_ARROW_FEATHER2 -->
      <g
         transform="scale(0.0092592592)"
         id="g9019">
        <path
           d="M -36,0 L 18,-54 L 54,-54 L 18,-18 L 27,-18 L 63,-54 L 99,-54 L 63,-18 L 72,-18 L 108,-54 L 144,-54 L 90,0 L 144,54 L 108,54 L 72,18 L 63,18 L 99,54 L 63,54 L 27,18 L 18,18 L 54,54 L 18,54 z"
           id="path9017" />
      </g>
    </marker>
    <marker
       id="DefaultArrow9"
       markerUnits="strokeWidth"
       viewBox="0 0 1 1"
       markerWidth="1"
       markerHeight="1"
       overflow="visible"
       orient="auto">
      <!-- REF_ARROW_HOLLOWDIAMOND -->
      <g
         transform="scale(0.0092592592)"
         id="g9024">
        <path
           d="M 0,45 L -45,0 L 0, -45 L 45, 0 z M 0, 63 L-63, 0 L 0, -63 L 63, 0 z"
           id="path9022" />
      </g>
    </marker>
    <filter
       id="StainedFilter">
      <feBlend
         mode="multiply"
         in2="BackgroundImage"
         in="SourceGraphic"
         result="blend"
         id="feBlend9027" />
      <feComposite
         in="blend"
         in2="SourceAlpha"
         operator="in"
         result="comp"
         id="feComposite9029" />
    </filter>
    <filter
       id="BleachFilter">
      <feBlend
         mode="screen"
         in2="BackgroundImage"
         in="SourceGraphic"
         result="blend"
         id="feBlend9032" />
      <feComposite
         in="blend"
         in2="SourceAlpha"
         operator="in"
         result="comp"
         id="feComposite9034" />
    </filter>
    <filter
       id="InvertTransparencyBitmapFilter">
      <feComponentTransfer
         id="feComponentTransfer9043">
        <feFuncR
           type="gamma"
           amplitude="1.055"
           exponent=".416666666"
           offset="-0.055"
           id="feFuncR9037" />
        <feFuncG
           type="gamma"
           amplitude="1.055"
           exponent=".416666666"
           offset="-0.055"
           id="feFuncG9039" />
        <feFuncB
           type="gamma"
           amplitude="1.055"
           exponent=".416666666"
           offset="-0.055"
           id="feFuncB9041" />
      </feComponentTransfer>
      <feComponentTransfer
         id="feComponentTransfer9053">
        <feFuncR
           type="linear"
           slope="-1"
           intercept="1"
           id="feFuncR9045" />
        <feFuncG
           type="linear"
           slope="-1"
           intercept="1"
           id="feFuncG9047" />
        <feFuncB
           type="linear"
           slope="-1"
           intercept="1"
           id="feFuncB9049" />
        <feFuncA
           type="linear"
           slope="1"
           intercept="0"
           id="feFuncA9051" />
      </feComponentTransfer>
      <feComponentTransfer
         id="feComponentTransfer9061">
        <feFuncR
           type="gamma"
           amplitude="1"
           exponent="2.4"
           offset="0"
           id="feFuncR9055" />
        <feFuncG
           type="gamma"
           amplitude="1"
           exponent="2.4"
           offset="0"
           id="feFuncG9057" />
        <feFuncB
           type="gamma"
           amplitude="1"
           exponent="2.4"
           offset="0"
           id="feFuncB9059" />
      </feComponentTransfer>
    </filter>
    <inkscape:perspective
       sodipodi:type="inkscape:persp3d"
       inkscape:vp_x="0 : 526.18109 : 1"
       inkscape:vp_y="0 : 1000 : 0"
       inkscape:vp_z="744.09448 : 526.18109 : 1"
       inkscape:persp3d-origin="372.04724 : 350.78739 : 1"
       id="perspective10" />
    <inkscape:perspective
       id="perspective2824"
       inkscape:persp3d-origin="0.5 : 0.33333333 : 1"
       inkscape:vp_z="1 : 0.5 : 1"
       inkscape:vp_y="0 : 1000 : 0"
       inkscape:vp_x="0 : 0.5 : 1"
       sodipodi:type="inkscape:persp3d" />
    <clipPath
       clip-rule="nonzero"
       id="clp2">
      <path
         id="path5264"
         d="M 234.2,0.1382 L 5879.3,0.1382 L 5879.3,7919 L 234.2,7919 L 234.2,0.1382 z " />
    </clipPath>
    <clipPath
       clip-rule="nonzero"
       id="clp3">
      <path
         id="path5273"
         d="M 234.06,0 L 5879.3,0 L 5879.3,7919 L 234.06,7919 L 234.06,0 z " />
    </clipPath>
    <clipPath
       clip-rule="nonzero"
       id="clp4">
      <path
         id="path5282"
         d="M 437.5,278.39 L 1028,278.39 L 1028,456.94 L 437.5,456.94 L 437.5,278.39 z " />
    </clipPath>
    <clipPath
       clip-rule="nonzero"
       id="clp5">
      <path
         id="path5291"
         d="M 234.06,0 L 5879.3,0 L 5879.3,7919 L 234.06,7919 L 234.06,0 z " />
    </clipPath>
    <clipPath
       clip-rule="nonzero"
       id="clp6">
      <path
         id="path5330"
         d="M 437.5,278.39 L 1028,278.39 L 1028,456.94 L 437.5,456.94 L 437.5,278.39 z " />
    </clipPath>
    <clipPath
       clip-rule="nonzero"
       id="clp7">
      <path
         id="path5341"
         d="M 234.06,0 L 5879.3,0 L 5879.3,7919 L 234.06,7919 L 234.06,0 z " />
    </clipPath>
    <clipPath
       clip-rule="nonzero"
       id="clp8">
      <path
         id="path5418"
         d="M 4026.3,282.71 L 4726.1,282.71 L 4726.1,453.09 L 4026.3,453.09 L 4026.3,282.71 z " />
    </clipPath>
    <clipPath
       clip-rule="nonzero"
       id="clp9">
      <path
         id="path5427"
         d="M 234.06,0 L 5879.3,0 L 5879.3,7919 L 234.06,7919 L 234.06,0 z " />
    </clipPath>
    <clipPath
       clip-rule="nonzero"
       id="clp10">
      <path
         id="path5476"
         d="M 2444.9,428.65 L 2444.9,306.69 L 2950.9,306.69 L 2950.9,428.65" />
    </clipPath>
    <clipPath
       clip-rule="nonzero"
       id="clp11">
      <path
         id="path5485"
         d="M 234.06,0 L 5879.3,0 L 5879.3,7919 L 234.06,7919 L 234.06,0 z " />
    </clipPath>
    <clipPath
       clip-rule="nonzero"
       id="clp12">
      <path
         id="path5496"
         d="M 2444.9,428.65 L 2444.9,306.69 L 2950.9,306.69 L 2950.9,428.65" />
    </clipPath>
    <clipPath
       clip-rule="nonzero"
       id="clp13">
      <path
         id="path5505"
         d="M 234.06,0 L 5879.3,0 L 5879.3,7919 L 234.06,7919 L 234.06,0 z " />
    </clipPath>
    <clipPath
       clip-rule="nonzero"
       id="clp14">
      <path
         id="path5514"
         d="M 2444.9,428.65 L 2444.9,306.69 L 2950.9,306.69 L 2950.9,428.65" />
    </clipPath>
    <clipPath
       clip-rule="nonzero"
       id="clp15">
      <path
         id="path5523"
         d="M 234.06,0 L 5879.3,0 L 5879.3,7919 L 234.06,7919 L 234.06,0 z " />
    </clipPath>
    <clipPath
       clip-rule="nonzero"
       id="clipPath5767">
      <path
         id="path5769"
         d="M 234.2,0.1382 L 5879.3,0.1382 L 5879.3,7919 L 234.2,7919 L 234.2,0.1382 z " />
    </clipPath>
    <clipPath
       clip-rule="nonzero"
       id="clipPath5775">
      <path
         id="path5777"
         d="M 234.06,0 L 5879.3,0 L 5879.3,7919 L 234.06,7919 L 234.06,0 z " />
    </clipPath>
    <clipPath
       clip-rule="nonzero"
       id="clipPath5783">
      <path
         id="path5785"
         d="M 437.5,278.39 L 1028,278.39 L 1028,456.94 L 437.5,456.94 L 437.5,278.39 z " />
    </clipPath>
    <clipPath
       clip-rule="nonzero"
       id="clipPath5791">
      <path
         id="path5793"
         d="M 234.06,0 L 5879.3,0 L 5879.3,7919 L 234.06,7919 L 234.06,0 z " />
    </clipPath>
    <clipPath
       clip-rule="nonzero"
       id="clipPath5814">
      <path
         id="path5816"
         d="M 437.5,278.39 L 1028,278.39 L 1028,456.94 L 437.5,456.94 L 437.5,278.39 z " />
    </clipPath>
    <clipPath
       clip-rule="nonzero"
       id="clipPath5823">
      <path
         id="path5825"
         d="M 234.06,0 L 5879.3,0 L 5879.3,7919 L 234.06,7919 L 234.06,0 z " />
    </clipPath>
    <clipPath
       clip-rule="nonzero"
       id="clipPath5865">
      <path
         id="path5867"
         d="M 4026.3,282.71 L 4726.1,282.71 L 4726.1,453.09 L 4026.3,453.09 L 4026.3,282.71 z " />
    </clipPath>
    <clipPath
       clip-rule="nonzero"
       id="clipPath5873">
      <path
         id="path5875"
         d="M 234.06,0 L 5879.3,0 L 5879.3,7919 L 234.06,7919 L 234.06,0 z " />
    </clipPath>
    <clipPath
       clip-rule="nonzero"
       id="clipPath5901">
      <path
         id="path5903"
         d="M 2444.9,428.65 L 2444.9,306.69 L 2950.9,306.69 L 2950.9,428.65" />
    </clipPath>
    <clipPath
       clip-rule="nonzero"
       id="clipPath5909">
      <path
         id="path5911"
         d="M 234.06,0 L 5879.3,0 L 5879.3,7919 L 234.06,7919 L 234.06,0 z " />
    </clipPath>
    <clipPath
       clip-rule="nonzero"
       id="clipPath5918">
      <path
         id="path5920"
         d="M 2444.9,428.65 L 2444.9,306.69 L 2950.9,306.69 L 2950.9,428.65" />
    </clipPath>
    <clipPath
       clip-rule="nonzero"
       id="clipPath5926">
      <path
         id="path5928"
         d="M 234.06,0 L 5879.3,0 L 5879.3,7919 L 234.06,7919 L 234.06,0 z " />
    </clipPath>
    <clipPath
       clip-rule="nonzero"
       id="clipPath5934">
      <path
         id="path5936"
         d="M 2444.9,428.65 L 2444.9,306.69 L 2950.9,306.69 L 2950.9,428.65" />
    </clipPath>
    <clipPath
       clip-rule="nonzero"
       id="clipPath5942">
      <path
         id="path5944"
         d="M 234.06,0 L 5879.3,0 L 5879.3,7919 L 234.06,7919 L 234.06,0 z " />
    </clipPath>
    <clipPath
       id="clipPath14221"
       clip-rule="nonzero">
      <path
         d="M 234.06,0 L 5879.3,0 L 5879.3,7919 L 234.06,7919 L 234.06,0 z "
         id="path14223" />
    </clipPath>
    <clipPath
       id="clipPath14217"
       clip-rule="nonzero">
      <path
         d="M 2444.9,428.65 L 2444.9,306.69 L 2950.9,306.69 L 2950.9,428.65"
         id="path14219" />
    </clipPath>
    <clipPath
       id="clipPath14213"
       clip-rule="nonzero">
      <path
         d="M 234.06,0 L 5879.3,0 L 5879.3,7919 L 234.06,7919 L 234.06,0 z "
         id="path14215" />
    </clipPath>
    <clipPath
       id="clipPath14209"
       clip-rule="nonzero">
      <path
         d="M 2444.9,428.65 L 2444.9,306.69 L 2950.9,306.69 L 2950.9,428.65"
         id="path14211" />
    </clipPath>
    <clipPath
       id="clipPath14205"
       clip-rule="nonzero">
      <path
         d="M 234.06,0 L 5879.3,0 L 5879.3,7919 L 234.06,7919 L 234.06,0 z "
         id="path14207" />
    </clipPath>
    <clipPath
       id="clipPath14201"
       clip-rule="nonzero">
      <path
         d="M 2444.9,428.65 L 2444.9,306.69 L 2950.9,306.69 L 2950.9,428.65"
         id="path14203" />
    </clipPath>
    <clipPath
       id="clipPath14197"
       clip-rule="nonzero">
      <path
         d="M 234.06,0 L 5879.3,0 L 5879.3,7919 L 234.06,7919 L 234.06,0 z "
         id="path14199" />
    </clipPath>
    <clipPath
       id="clipPath14193"
       clip-rule="nonzero">
      <path
         d="M 4026.3,282.71 L 4726.1,282.71 L 4726.1,453.09 L 4026.3,453.09 L 4026.3,282.71 z "
         id="path14195" />
    </clipPath>
    <clipPath
       id="clipPath14189"
       clip-rule="nonzero">
      <path
         d="M 234.06,0 L 5879.3,0 L 5879.3,7919 L 234.06,7919 L 234.06,0 z "
         id="path14191" />
    </clipPath>
    <clipPath
       id="clipPath14185"
       clip-rule="nonzero">
      <path
         d="M 437.5,278.39 L 1028,278.39 L 1028,456.94 L 437.5,456.94 L 437.5,278.39 z "
         id="path14187" />
    </clipPath>
    <clipPath
       id="clipPath14181"
       clip-rule="nonzero">
      <path
         d="M 234.06,0 L 5879.3,0 L 5879.3,7919 L 234.06,7919 L 234.06,0 z "
         id="path14183" />
    </clipPath>
    <clipPath
       id="clipPath14177"
       clip-rule="nonzero">
      <path
         d="M 437.5,278.39 L 1028,278.39 L 1028,456.94 L 437.5,456.94 L 437.5,278.39 z "
         id="path14179" />
    </clipPath>
    <clipPath
       id="clipPath14173"
       clip-rule="nonzero">
      <path
         d="M 234.06,0 L 5879.3,0 L 5879.3,7919 L 234.06,7919 L 234.06,0 z "
         id="path14175" />
    </clipPath>
    <clipPath
       id="clipPath14169"
       clip-rule="nonzero">
      <path
         d="M 234.2,0.1382 L 5879.3,0.1382 L 5879.3,7919 L 234.2,7919 L 234.2,0.1382 z "
         id="path14171" />
    </clipPath>
    <clipPath
       id="clipPath14165"
       clip-rule="nonzero">
      <path
         d="M 234.06,0 L 5879.3,0 L 5879.3,7919 L 234.06,7919 L 234.06,0 z "
         id="path14167" />
    </clipPath>
    <clipPath
       id="clipPath14161"
       clip-rule="nonzero">
      <path
         d="M 2444.9,428.65 L 2444.9,306.69 L 2950.9,306.69 L 2950.9,428.65"
         id="path14163" />
    </clipPath>
    <clipPath
       id="clipPath14157"
       clip-rule="nonzero">
      <path
         d="M 234.06,0 L 5879.3,0 L 5879.3,7919 L 234.06,7919 L 234.06,0 z "
         id="path14159" />
    </clipPath>
    <clipPath
       id="clipPath14153"
       clip-rule="nonzero">
      <path
         d="M 2444.9,428.65 L 2444.9,306.69 L 2950.9,306.69 L 2950.9,428.65"
         id="path14155" />
    </clipPath>
    <clipPath
       id="clipPath14149"
       clip-rule="nonzero">
      <path
         d="M 234.06,0 L 5879.3,0 L 5879.3,7919 L 234.06,7919 L 234.06,0 z "
         id="path14151" />
    </clipPath>
    <clipPath
       id="clipPath14145"
       clip-rule="nonzero">
      <path
         d="M 2444.9,428.65 L 2444.9,306.69 L 2950.9,306.69 L 2950.9,428.65"
         id="path14147" />
    </clipPath>
    <clipPath
       id="clipPath14141"
       clip-rule="nonzero">
      <path
         d="M 234.06,0 L 5879.3,0 L 5879.3,7919 L 234.06,7919 L 234.06,0 z "
         id="path14143" />
    </clipPath>
    <clipPath
       id="clipPath14137"
       clip-rule="nonzero">
      <path
         d="M 4026.3,282.71 L 4726.1,282.71 L 4726.1,453.09 L 4026.3,453.09 L 4026.3,282.71 z "
         id="path14139" />
    </clipPath>
    <clipPath
       id="clipPath14133"
       clip-rule="nonzero">
      <path
         d="M 234.06,0 L 5879.3,0 L 5879.3,7919 L 234.06,7919 L 234.06,0 z "
         id="path14135" />
    </clipPath>
    <clipPath
       id="clipPath14129"
       clip-rule="nonzero">
      <path
         d="M 437.5,278.39 L 1028,278.39 L 1028,456.94 L 437.5,456.94 L 437.5,278.39 z "
         id="path14131" />
    </clipPath>
    <clipPath
       id="clipPath14125"
       clip-rule="nonzero">
      <path
         d="M 234.06,0 L 5879.3,0 L 5879.3,7919 L 234.06,7919 L 234.06,0 z "
         id="path14127" />
    </clipPath>
    <clipPath
       id="clipPath14121"
       clip-rule="nonzero">
      <path
         d="M 437.5,278.39 L 1028,278.39 L 1028,456.94 L 437.5,456.94 L 437.5,278.39 z "
         id="path14123" />
    </clipPath>
    <clipPath
       id="clipPath14117"
       clip-rule="nonzero">
      <path
         d="M 234.06,0 L 5879.3,0 L 5879.3,7919 L 234.06,7919 L 234.06,0 z "
         id="path14119" />
    </clipPath>
    <clipPath
       id="clipPath14113"
       clip-rule="nonzero">
      <path
         d="M 234.2,0.1382 L 5879.3,0.1382 L 5879.3,7919 L 234.2,7919 L 234.2,0.1382 z "
         id="path14115" />
    </clipPath>
  </defs>
  <g
     inkscape:label="Camada 1"
     inkscape:groupmode="layer"
     id="layer1">
    <rect
       style="opacity:1;fill:url(#linearGradient2858);fill-opacity:1;stroke-width:0.529167;stroke-linecap:square;stroke-linejoin:round;paint-order:stroke fill markers"
       id="rect1569"
       width="127"
       height="84.666664"
       x="0"
       y="0"
       ry="4.2333331"
       inkscape:export-filename="/home/vitor/Dev/es-theme-material-tv-3-2/assets/logo/fbn.png"
       inkscape:export-xdpi="96"
       inkscape:export-ydpi="96" />
    <g
       id="g9866"
       transform="matrix(0.69507389,0,0,0.69507389,-78.021718,15.061597)"
       style="fill:#ffffff">
      <path
         style="fill:#ffffff;fill-opacity:1;stroke-width:0.264583"
         d="m 146.80585,61.11875 c -0.77198,-1.33989 -9.61571,-16.250563 -10.86727,-18.322396 -0.61535,-1.018646 -1.25737,-2.119974 -1.42671,-2.447396 l -0.30788,-0.595312 h 4.22192 4.22193 l 1.78921,3.108854 c 2.58618,4.49363 6.23508,10.77069 6.30641,10.84866 0.0337,0.03679 2.18917,-3.0886 4.79005,-6.945313 l 4.72885,-7.012201 h 3.34019 c 1.83711,0 3.40287,0.06268 3.47949,0.139292 0.0766,0.07661 -1.22054,2.428095 -2.88255,5.225521 -1.66201,2.797426 -4.59211,7.732106 -6.51134,10.96596 l -3.4895,5.87973 -3.44869,0.0072 -3.44868,0.0072 z m 21.72439,0.683506 c -0.097,-0.09701 -0.17639,-5.097637 -0.17639,-11.1125 v -10.93611 h 3.83646 3.83646 v 11.1125 11.1125 h -3.66007 c -2.01304,0 -3.73944,-0.07938 -3.83646,-0.17639 z m 9.46975,-0.154157 c -0.077,-0.200705 -0.10602,-1.666954 -0.0644,-3.258333 l 0.0756,-2.893412 9.39271,-0.132292 9.39271,-0.132291 v -0.661459 -0.661458 l -6.87917,-0.132292 -6.87917,-0.132291 -1.51022,-0.741617 c -4.48542,-2.202635 -5.26386,-8.173918 -1.48703,-11.406748 1.93257,-1.65421 2.60128,-1.74226 13.23173,-1.74226 h 9.47698 v 3.175 3.175 h -9.37381 c -10.10452,0 -10.61251,0.06777 -9.93914,1.325969 0.2477,0.462828 0.74878,0.500838 7.60624,0.576938 7.03066,0.07802 7.38831,0.106703 8.45799,0.678293 5.27081,2.816493 5.1783,9.89647 -0.16406,12.555549 -1.52681,0.759949 -21.05854,1.133162 -21.33692,0.407704 z m 26.60178,-10.781953 v -11.1125 h 3.83646 3.83646 v 11.1125 11.1125 h -3.83646 -3.83646 z m 14.37386,10.8458 c -2.47524,-0.511006 -4.54229,-2.43376 -5.25611,-4.889194 -0.64573,-2.221245 -0.46972,-11.488803 0.24378,-12.835773 0.91373,-1.724983 1.77942,-2.651247 3.15644,-3.377295 l 1.37266,-0.723747 h 9.3927 9.39271 l 1.39021,0.770279 c 3.15877,1.750187 3.63688,3.092402 3.63688,10.20993 0,7.119387 -0.74004,8.921297 -4.3287,10.53992 -1.09127,0.492202 -16.86781,0.746181 -19.00057,0.30588 z m 14.87462,-6.997317 c 1.0813,-1.081291 0.99209,-6.721538 -0.12396,-7.837585 l -0.7734,-0.773398 h -4.93254 c -6.8174,0 -6.72919,-0.06293 -6.74142,4.809442 -0.0117,4.650137 -0.30939,4.450974 6.65388,4.450974 5.24042,0 5.27142,-0.0034 5.91744,-0.649433 z m 9.64527,-3.85898 V 39.732653 l 11.57552,0.07664 c 13.04533,0.08637 12.51812,0.006 14.67146,2.237037 1.77261,1.836581 1.79885,2.003822 1.79885,11.464414 v 8.482428 l -3.77031,-0.07341 -3.77031,-0.07341 -0.13229,-7.203019 c -0.17047,-9.281787 0.57496,-8.380238 -7.01825,-8.488125 l -5.68175,-0.08073 v 7.952081 7.952082 h -3.83646 -3.83646 z M 132.31559,38.34425 c -1.62504,-0.514191 -3.19038,-1.817637 -4.04611,-3.369162 l -0.79375,-1.439151 v -5.820833 c 0,-10.531692 0.68721,-11.067746 14.35365,-11.196524 l 9.06197,-0.08539 v 3.325852 3.325855 h -7.15577 -7.15578 l -0.64943,0.649433 c -0.62001,0.620003 -0.64943,0.798764 -0.64943,3.945228 v 3.295798 l 0.81405,0.68498 0.81405,0.684977 h 6.99116 6.99115 v 3.175 3.175 l -8.79739,-0.02032 c -5.94288,-0.01373 -9.1157,-0.121049 -9.77837,-0.330729 z m 24.92576,0.110175 c -4.36712,-1.376352 -5.15937,-3.025431 -5.15937,-10.739321 0,-10.569369 0.69831,-11.1125 14.2875,-11.1125 13.74417,0 14.41249,0.514321 14.41721,11.095112 0.003,7.219831 -0.46303,8.471611 -3.83388,10.293341 -1.11583,0.603039 -18.0083,1.000136 -19.71146,0.463368 z m 15.10161,-6.882511 c 0.76974,-0.769742 0.77339,-0.788556 0.77339,-3.980775 0,-4.680998 0.25796,-4.506243 -6.65164,-4.506243 -6.91395,0 -6.57752,-0.229831 -6.57752,4.493466 0,4.827741 -0.11243,4.7479 6.70108,4.758904 l 4.98129,0.008 0.7734,-0.773399 z m 14.7946,6.876187 c -1.20618,-0.366903 -2.23479,-1.01919 -3.22652,-2.046086 -1.77254,-1.835399 -1.79885,-2.003094 -1.79885,-11.463803 v -8.482428 l 3.77031,0.07341 3.77031,0.07341 0.13229,7.233214 0.1323,7.233216 0.74235,0.638138 c 0.72324,0.621707 0.86122,0.63814 5.35782,0.63814 h 4.61545 v 3.175 3.175 l -6.41614,-0.02275 c -3.52889,-0.01252 -6.71458,-0.113519 -7.07932,-0.22447 z m 18.6245,-0.180662 c -4.05957,-1.439736 -4.59409,-2.997335 -4.59729,-13.396606 l -0.003,-8.400521 h 12.03854 12.03854 v 2.910417 2.910417 h -8.20208 -8.20209 v 0.926041 0.926042 h 8.20209 8.20208 v 2.778125 2.778125 h -8.20208 c -9.13962,0 -9.09545,-0.01035 -7.56388,1.771184 l 0.6382,0.742358 7.56388,0.07776 7.56388,0.07776 v 3.163382 3.163382 L 216.045,38.67441 c -7.34385,-0.01669 -9.41337,-0.09859 -10.28294,-0.406985 z m 25.59428,0.122922 c -3.8859,-1.117571 -4.88458,-3.123088 -5.01112,-10.063077 -0.19913,-10.921495 0.79448,-11.72468 14.50447,-11.72468 h 8.86354 v 3.175 3.175 l -7.18264,0.132292 c -8.94874,0.164819 -8.29549,-0.180494 -8.29549,4.384992 0,5.140013 -0.47313,4.875424 8.71811,4.875424 h 6.89231 v 3.175 3.175 l -8.79739,-0.02387 c -4.83857,-0.01312 -9.19988,-0.139613 -9.69179,-0.281088 z m 24.21478,-0.120269 c -3.74349,-1.168892 -4.73803,-3.567686 -4.62034,-11.14416 l 0.0854,-5.496245 0.77027,-1.390208 c 1.90217,-3.433066 2.66709,-3.636875 13.64952,-3.636875 h 9.12812 l 1.32292,0.702932 c 3.38401,1.798098 3.82323,2.98967 3.83065,10.39218 0.007,7.136302 -0.59146,8.729054 -3.89845,10.372923 -1.3811,0.68653 -18.17875,0.851831 -20.26806,0.199453 z m 15.726,-6.698178 c 1.11407,-1.11406 1.20221,-6.624135 0.12458,-7.786926 l -0.64883,-0.700092 h -5.39047 -5.39047 l -0.64144,0.682283 c -0.56934,0.605605 -0.65192,0.967944 -0.73478,3.223969 -0.18883,5.141148 0.0546,5.328957 6.92673,5.34357 l 4.98129,0.01058 0.77339,-0.773398 z"
         id="path9868" />
    </g>
  </g>
  <style
     type="text/css"
     id="style3952">
	.st0{fill:#FC0C18;}
	.st1{fill:#FC0C18;}
</style>
</svg>
