<svg width="480" height="320" version="1.1" viewBox="0 0 480 320" xml:space="preserve" xmlns="http://www.w3.org/2000/svg"><defs><linearGradient id="a" x1="42.24" x2="69.76" y1="-24.65" y2="78.04" gradientTransform="scale(3.78)" gradientUnits="userSpaceOnUse"><stop stop-color="#68b723" offset="0"/><stop stop-color="#007367" offset="1"/></linearGradient></defs><rect width="480" height="320" ry="24" fill="url(#a)"/><path d="m121.8 101c-9.011-0.0104-16.32 7.292-16.32 16.3v24.15c0 9.011 7.303 16.3 16.3 16.3h42.64c9 0 16.3-7.303 16.3-16.3v-24.11c0-9-7.293-16.29-16.29-16.3zm112 0.1152v40.47c0 9.011 7.302 16.31 16.31 16.31h46.22v-14.3h-41.78c-2.333 0-4.23-1.895-4.23-4.229-1e-5 -2.333 1.897-4.229 4.23-4.229h37.83v-11.25h-37.71c-2.406 0-4.355-1.949-4.355-4.355-1e-5 -2.406 1.949-4.354 4.355-4.354h41.66v-14.02zm-177.5 0.0195c-9.011-0.0104-16.32 7.292-16.32 16.3v24.15c0 9 7.303 16.3 16.3 16.3h46.23v-14.29h-39.68c-3.49 0-6.324-2.833-6.324-6.322v-15.76c0-3.49 2.835-6.322 6.324-6.322h39.68v-14.02zm324.8 0c-9.011-0.0104-16.32 7.292-16.32 16.3v24.15c0 9 7.303 16.3 16.3 16.3h42.64c9 0 16.3-7.303 16.3-16.3v-24.11c0.0104-8.99-7.281-16.29-16.28-16.3zm-65.46 0.0117c-9.011-0.0104-16.32 7.29-16.32 16.3v24.15c0 9 7.303 16.3 16.3 16.3h46.23v-14.3h-39.68c-3.49 0-6.322-2.833-6.322-6.322v-15.76c0-3.49 2.833-6.322 6.322-6.322h39.68v-14.02zm-132 0.0508v40.28c0 9 7.301 16.3 16.3 16.3h30.97v-14.29h-24.42c-3.49 0-6.322-2.833-6.322-6.322v-35.97zm-55.31 13.84h29.54c3.49 0 6.322 2.835 6.322 6.324v15.76c0 3.49-2.833 6.324-6.322 6.324h-29.54c-3.49 0-6.324-2.835-6.324-6.324v-15.76c0-3.49 2.835-6.324 6.324-6.324zm259.3 0.1465h29.54c3.49 0 6.322 2.833 6.322 6.322v15.76c0 3.49-2.833 6.322-6.322 6.322h-29.54c-3.49 0-6.322-2.833-6.322-6.322v-15.76c0-3.49 2.833-6.322 6.322-6.322zm-107.7 47.21c-9.011-0.0104-16.32 7.273-16.32 16.26v24.08c0 8.977 7.303 16.26 16.3 16.26h42.64c9 0 16.3-7.283 16.3-16.26v-24.04c0.0104-8.977-7.283-16.25-16.28-16.26zm62.95 0v56.46h16.53v-36.14c0-3.481 2.833-6.307 6.322-6.307h29.54c3.49 0 6.322 2.826 6.322 6.307v35.96l16.53 0.1856v-40.15c-0.0104-8.977-7.303-16.25-16.3-16.26l-42.64-0.043c-0.125 0-0.2507 0.0111-0.3652 0.0215v-0.0215zm-155 0.1367c-9.125 0-16.53 7.376-16.53 16.49v2.203c0 9.101 7.396 16.49 16.53 16.49h31.06c1.969 0 3.574 1.588 3.574 3.562 0 1.964-1.595 3.564-3.574 3.564h-47.58v14.03h51.16c9.125 0 16.53-7.376 16.53-16.49v-2.203c-0.0104-9.112-7.418-16.49-16.54-16.49h-31.06c-1.969 0-3.572-1.592-3.572-3.566 0-1.964 1.593-3.563 3.572-3.562h45.77v-14.03zm-126.4 0.01 32.59 56.31h19.98l32.59-56.31h-19.08l-23.5 40.6-23.5-40.6zm89.2 0v56.31h16.62v-56.31zm92.37 0v56.31h16.53v-56.31zm43.4 13.86h29.54c3.49 0 6.324 2.826 6.324 6.307v15.72c0 3.481-2.835 6.305-6.324 6.305h-29.54c-3.49 0-6.324-2.824-6.324-6.305v-15.72c0-3.481 2.835-6.307 6.324-6.307z" fill="#fff"/></svg>
