<svg width="480" height="320" version="1.1" viewBox="0 0 480 320" xml:space="preserve" xmlns="http://www.w3.org/2000/svg"><defs><linearGradient id="a" x1="240" x2="40" y1="320" y2="-26.41" gradientUnits="userSpaceOnUse"><stop stop-color="#04a" offset="0"/><stop stop-color="#0cf" offset="1"/></linearGradient></defs><rect id="b" width="480" height="320" ry="24" fill="url(#a)"/><path d="m194.1 77.98v10.8l0.8806 0.1033c2.518 0.2957 5.556 0.8405 9.065 1.625 3.545 0.7935 6.212 1.567 7.943 2.285 2.746 1.156 4.463 2.619 5.323 4.321 0.9099 1.832 1.379 3.941 1.379 6.398v2.27c-3.286-0.7023-7.119-1.083-11.89-1.083h-36.51v18.28l0.0253 2.046 1.96 0.5728h4e-3c0.1434 0.0391 0.5866 0.2209 0.904 0.4325 0.1926 0.1284 0.3179 0.3302 0.3429 0.5553v0.012c0.0164 0.1231 0.0273 0.3015 0.0273 0.526 0 0.5394-0.0346 13.54-0.0565 23.18l-17.59-45.61h-27.87l-16.46 43.6v-0.263h-17.72l-1.944 0.0253-0.6351 1.829c-0.04637 0.1356-0.3966 1.051-1.28 1.9-0.8834 0.8488-2.286 1.662-4.576 1.662-5.192 0-11.04-4.239-11.41-13.98v-2e-3c-0.1792-4.78 2.393-7.778 4.553-8.902l0.0019-2e-3h0.0019c0.371-0.1953 0.7203-0.3406 1.011-0.4344l0.0116-4e-3c0.677-0.237 1.275 0.3614 1.038 1.038-0.1376 0.3864-0.4327 0.8945-0.9878 1.52l-2.394 2.293 17 11.71 21.58-22.89-0.8767-1.716-2e-3 -2e-3c-0.4148-0.7969-10.06-18.98-34.1-18.98-23.6 0-40.81 16.73-40.81 39.66 0 21.56 19.37 38.41 43.97 38.41h126.2l-0.0117-19.91-1.073-0.187c3.452-1.046 6.648-2.397 9.556-3.815l0.0175 27.26h-130c-8.866 0-16.05 7.18-16.05 16.05s7.18 16.05 16.05 16.05h130l2e-3 1.767c0 2.783-0.4899 4.978-1.414 6.659-0.8843 1.608-2.588 2.979-5.27 4.068-1.303 0.5223-4.026 1.003-7.984 1.301h-2e-3c-4 0.3117-7.023 0.5396-9.081 0.6955l-0.9235 0.0701v10.83h91.86v-10.82l-0.9098-0.0779c-2.048-0.1776-5.073-0.4072-9.073-0.7189h-2e-3c-3.958-0.2981-6.681-0.7791-7.984-1.301-2.682-1.089-4.384-2.458-5.268-4.066-0.9245-1.681-1.416-3.878-1.416-6.661l2e-3 -1.746h130c8.866 0 16.05-7.182 16.05-16.05s-7.192-16.05-16.06-16.05h-130l4e-3 -4.298c3.219 0.6145 6.572 0.9605 10.05 0.9605h25.26v-9.017c5.592 4.447 15.81 10.78 29.2 10.78 10.31 0 18.89-4.414 23.83-7.629v5.903h37.22v-13.14h13.89v13.07h39.25v-20.05l-0.0896-2.917-0.5163 0.037-2.396 0.1656-4e-3 2e-3c0.0281-3e-3 -0.0678-3e-3 -0.1325-0.0156-0.0646-0.013-0.1155-0.0524-0.0702-0.0136-0.1939-0.1702-0.3747-0.5215-0.4988-1.138-4.3e-4 -2e-3 -2e-3 -2e-3 -2e-3 -4e-3l-4.695-30.01c-0.1114-0.7086-0.1068-1.018 0.0195-1.233 0.1263-0.2151 0.5065-0.5003 1.379-0.9215l1.539-0.7501v-19.63h-38.38l-0.8904 3.033-1.192-3.033h-37.14v10.73c-7.405-7.947-18.1-12.58-30.08-12.58-12.62 0-24.43 4.651-32.38 12.55-6.698-8.17-17.07-12.46-30.16-12.46-0.9868 0-1.94 0.0796-2.901 0.1422 0.0532-2.273 0.505-4.253 1.362-5.975 0.8606-1.7 2.577-3.16 5.319-4.315l6e-3 -0.0019c1.732-0.7177 4.395-1.49 7.937-2.283 3.511-0.7847 6.537-1.329 9.065-1.625l0.8806-0.1033v-10.79zm3.055 3.035h85.79v5.136c-2.267 0.3301-4.731 0.7661-7.577 1.405-3.647 0.8174-6.466 1.622-8.438 2.443l-2e-3 0.0019h-2e-3c-3.254 1.371-5.617 3.288-6.854 5.751l-2e-3 0.0019v0.0019c-1.121 2.254-1.678 4.827-1.693 7.633-9.456 1.314-17.58 5.773-24.16 13.32-2.581-3.996-5.408-7.038-9.506-9.005-0.9205-0.4419-1.935-0.8081-2.989-1.149v-3.031c0-2.739-0.5536-5.244-1.59-7.452v-0.1031l-0.1072-0.2124c-1.246-2.457-3.597-4.378-6.852-5.749h-2e-3l-2e-3 -0.0019c-1.971-0.8213-4.792-1.624-8.438-2.441h-2e-3c-2.836-0.6386-5.308-1.075-7.577-1.405zm129.8 25.07c14.31 0 26.23 6.947 32.38 17.68l0.9313 1.623v-17.45h31.71l3.84 9.782 2.862-9.782h32.73v14.41c-1.07 0.5485-1.92 1.129-2.431 1.95-0.5605 0.8996-0.697 2.022-0.4734 3.45l4.699 30.04 4e-3 0.01c0.2064 1.021 0.5774 2.163 1.525 3.016h2e-3v2e-3c0.8026 0.7172 1.594 0.8074 2.12 0.8144v16.33h-32.79v-13.08h-20.35v13.11h-30.76v-9.12l-0.828 0.7326s-11.51 10.12-26.24 10.12c-18.9 0-31.56-13.97-31.56-13.97l-0.8689-0.9605v13.16h-22.02c-19.86 0-36.82-10.86-41.57-30.7l-0.2026-0.8455-0.6293 0.602c-1.071 1.027-4.147 3.38-8.416 5.775-4.27 2.395-9.756 4.855-15.72 6.197-0.5095 0.1135-0.9631 0.2779-1.301 0.6312-0.3389 0.354-0.491 0.858-0.491 1.444 0 0.642 0.3529 1.174 0.791 1.557 0.438 0.3823 0.976 0.655 1.502 0.867 0.8418 0.3392 1.37 0.4182 1.668 0.4754v14.01h-123c-22.65 0-40.75-15.53-40.75-35.18 0-19.72 14.07-36.43 37.58-36.43 21.84 0 30.58 16.06 31.04 16.93l-18.09 19.19-11.56-7.964c0.2954-0.3084 0.8595-0.8147 1.338-1.97 0.2997-0.7227 0.4878-1.571 0.3254-2.457-0.1625-0.8854-0.688-1.779-1.689-2.546v-2e-3h-0.0019c-0.8791-0.6704-2.088-0.784-3.343-0.489s-2.586 1.001-3.809 2.069c-2.445 2.137-4.448 5.754-4.271 10.5 0.4129 10.79 7.155 17.08 14.65 17.08 3.476 0 5.739-1.431 7.088-2.864 1.094-1.162 1.514-2.147 1.672-2.552h14.18v11.98l0.9663 0.1773 20.96-55.51h23.42l19.24 49.88 0.0156 0.0273s0.3628 0.6883 0.9098 1.467 1.253 1.667 2.124 2.102l0.7189 0.3604 2e-3 -0.8046s0.0838-32.89 0.0838-33.84c0-0.9693-0.1028-2.104-0.8183-2.924-0.8843-1.02-1.977-1.416-2.424-1.561v-14.69h33.28c8.711 0 14.11 1.189 17.95 3.464 3.839 2.275 6.176 5.665 8.705 10.24l0.376 0.6799 0.4617-0.6254c6.948-9.387 16.42-15.52 30.04-15.52 14.05 0 23.87 5.16 29.49 13.73l0.3682 0.563 0.4325-0.5182c7.872-9.449 20.61-13.86 32.25-13.86zm-1.331 6.308c-18.66 0-32.67 13.16-32.67 30.11s13.67 30.89 32.67 30.89c19.01 0 32.67-13.93 32.67-30.89s-14.01-30.11-32.67-30.11zm-245.1 0.1773c-14.89 0-31.32 10.52-31.32 29.49 0 12.37 12.15 29.51 33.97 29.52h18.29v-14.31h-3.347s-2.057 5.478-11.78 5.478c-16.71 0-21.82-15.2-21.82-23.5 0-8.304 4.761-18.38 15.49-18.38 10.74 0 11.08 6.974 11.08 8.658 0 1.673-0.9663 2.557-0.9663 2.911 0 0.1351 0.04024 0.2377 0.113 0.3l1.674 1.374c0.582 0.4677 1.425 0.4158 1.944-0.1247l9.821-10.34c0-1e-5 -8.709-11.06-23.15-11.07zm186.3 0.1247c-14.89 0-31.31 10.52-31.31 29.49 0 12.36 12.14 29.5 33.95 29.5h18.3v-14.31h-3.347c0-1e-5 -2.059 5.477-11.79 5.477-16.71 0-21.81-15.2-21.81-23.5 0-8.304 4.761-18.38 15.49-18.38 10.74 0 11.08 6.974 11.08 8.658 0 1.673-0.9663 2.557-0.9663 2.911 0 0.1351 0.0422 0.2396 0.115 0.302l1.674 1.372c0.582 0.4677 1.423 0.4158 1.942-0.1247l9.823-10.34s-8.711-11.07-23.15-11.05zm-132.4 1.446-17.94 48.93s-0.4471 1.415-1.767 2.745c-1.195 1.216-2.805 1.767-2.805 1.767v4.146h17.67v-4.146s-2.058-0.2198-2.64-1.685c-0.3534-0.8834-0.3534-2.296 0-3.18 0.3534-0.8834 4.052-10.78 4.052-10.78h18.04s3.69 9.812 4.22 11.05c0.5301 1.237 0.5295 2.214-0.1773 3.45-0.7068 1.237-2.11 1.06-2.11 1.06v4.241h22.09v-4.148s-2.121-0.7069-2.994-1.767c-0.8834-1.071-1.755-2.308-2.285-3.628l-18.3-48.06zm45.66 0v4.686s1.662 0.9668 2.369 1.674c0.7067 0.7068 0.6234 2.474 0.6234 2.474v41.51c1e-5 0-0.1764 1.061-1.06 1.944-0.873 0.873-2.11 1.142-2.11 1.142v4.148h20.41v-4.241s-0.9778-0.2588-1.851-1.319c-0.8835-1.06-0.9663-1.683-0.9663-1.683v-9.178s9.905-2.712 17.42-6.184c6.506-3.004 14.07-7.234 14.07-19.25 0-12.01-10.38-15.72-20.77-15.72zm223.3 0-8.085 23.5-7.567-23.46h-20.93v4.115s2.494 0.6252 2.952 1.374c0.4365 0.7067 0.0429 2.254 0.0429 2.254l-6.642 41.47s-0.177 1.59-1.237 2.827c-1.06 1.226-2.505 1.455-2.505 1.455v4.064h18.21v-3.795s-1.757 2e-3 -2.724-1.422c-0.7068-1.029-0.5299-2.911-0.5299-2.911l4.573-31.45 9.063 26.68h11.08l9.145-28.45s5.012 32.16 5.188 33.57c0.1767 1.414-0.0836 1.943-0.7072 2.827-0.6132 0.8834-2.465 1.153-2.465 1.153v3.826h21.03v-3.565s-1.673-0.8005-2.016-1.767c-0.3534-0.9666-0.5305-1.758-0.7072-3.182-0.1767-1.414-5.801-39.74-5.977-41.16-0.1767-1.414-0.1762-2.131 0.6137-3.098 0.6548-0.8003 2.11-1.412 2.11-1.412v-3.45zm-77.76 7.431c7.213 0 17.07 5.301 17.07 21.2 0 15.9-8.804 21.2-17.07 21.2-8.273 0-16.89-4.241-16.89-21.2 0-16.96 9.676-21.2 16.89-21.2zm-122.7 0.5747c4.847-0.1346 11.31 1.092 11.3 8.602 0 9.718-16.53 16.61-16.53 16.61v-24.56s2.327-0.57 5.235-0.6507zm-63.29 4.008 5.975 16.79h-11.61zm88.24 25.8c4.728 13.93 15.91 23.87 30.44 27.6l-6e-3 4.978h-36.52l-0.0175-28.83c2.348-1.292 4.476-2.589 6.102-3.746zm6.587 41.07c2.484 0 4.427 0.666 6.006 1.944l-2.026 2.858c-1.341-0.9354-2.796-1.446-4.095-1.446-0.977 0-1.465 0.4155-1.465 0.9352v0.0429c0 0.6652 0.4982 0.9545 2.525 1.422 3.357 0.7275 5.447 1.82 5.447 4.553v0.0409c0 2.983-2.359 4.762-5.903 4.762-2.578 0-5.042-0.8107-6.84-2.422l2.256-2.692c1.445 1.143 3.046 1.757 4.74 1.757 1.081 0 1.674-0.3739 1.674-0.9975v-0.0429c0-0.6028-0.4794-0.935-2.465-1.403-3.108-0.7068-5.508-1.59-5.508-4.594v-0.0409c0-2.713 2.151-4.678 5.654-4.678zm39.86 0c2.484 0 4.427 0.666 6.006 1.944l-2.016 2.858c-1.341-0.9354-2.796-1.446-4.095-1.446-0.977 0-1.465 0.4155-1.465 0.9352v0.0429c0 0.6652 0.4982 0.9545 2.525 1.422 3.357 0.7275 5.447 1.82 5.447 4.553v0.0409c0 2.983-2.359 4.762-5.903 4.762-2.588 0-5.052-0.8107-6.85-2.422l2.256-2.692c1.445 1.143 3.044 1.757 4.738 1.757 1.081 0 1.674-0.3739 1.674-0.9975v-0.0429c0-0.6028-0.4774-0.935-2.463-1.403-3.108-0.7068-5.51-1.59-5.51-4.594v-0.0409c0-2.713 2.153-4.678 5.656-4.678zm-94.01 0.1461h3.908l6.225 14.72h-4.345l-1.06-2.609h-5.654l-1.038 2.609h-4.261zm-44.49 0.1033h6.278c3.69 0 6.071 1.901 6.071 5.134v0.0429c0 3.44-2.651 5.258-6.289 5.258h-2.005v4.179h-4.054zm20.33 0h4.043v11.06h7.078v3.544h-11.12zm38.34 0h4.613l3.004 5.321 3.024-5.321h4.532l-5.549 9.085v5.529h-4.076v-5.467zm52.64 0h4.615l3.002 5.321 3.026-5.321h4.532l-5.551 9.085v5.529h-4.074v-5.467zm40.59 0h12.82v3.544h-4.387v11.06h-4.052v-11.06h-4.376zm20.85 0h11.76v3.441h-7.742v2.213h7.016v3.191h-7.016v2.318h7.846v3.439h-11.86zm20.19 0h4.292l3.482 5.654 3.482-5.654h4.282v14.61h-4.033v-8.399l-3.741 5.716h-0.0838l-3.711-5.673v8.344h-3.969zm-188.9 3.4v3.865h1.923c1.445 0 2.318-0.7478 2.318-1.901v-0.0429c0-1.247-0.8744-1.921-2.34-1.921zm42.34 1.288-1.654 4.158h3.285zm39.58 18.67h36.47l-2e-3 1.746c0 3.212 0.562 5.898 1.785 8.118v2e-3l2e-3 2e-3c1.276 2.328 3.612 4.127 6.786 5.42l4e-3 2e-3h2e-3c1.852 0.7383 4.712 1.199 8.88 1.514 3.041 0.2396 5.279 0.4066 7.205 0.5533v4.98h-85.79v-4.98c1.925-0.1467 4.163-0.3138 7.195-0.5533 4.177-0.3149 7.029-0.763 8.894-1.514l2e-3 -2e-3h2e-3c3.175-1.294 5.499-3.083 6.784-5.408v-2e-3c1.224-2.221 1.787-4.907 1.787-8.12z" fill="#fff"/></svg>
