<svg width="480" height="320" version="1.1" viewBox="0 0 127 84.667" xmlns="http://www.w3.org/2000/svg">
 <defs>
  <linearGradient id="a" x1="127" x2="0" y2="84.667" gradientUnits="userSpaceOnUse">
   <stop stop-color="#43d6b5" offset="0"/>
   <stop stop-color="#3689e6" offset=".3"/>
   <stop stop-color="#002e99" offset="1"/>
  </linearGradient>
 </defs>
 <rect width="127" height="84.667" ry="4.2333" fill="url(#a)" stroke-linecap="square" stroke-linejoin="round" stroke-width=".52917" style="paint-order:stroke fill markers"/>
 <path transform="matrix(.26458 0 0 .26458 -.00025 0)" d="m189 74.984v3.6973c0 4.145-0.28191 3.9484 6.7461 4.7305 5.7845 0.6435 15.476 2.7872 19.625 4.3418 6.7524 2.53 8.0291 5.3128 8.0352 17.508l0.00391 7.6758-2.1934-0.49805c-6.2112-1.4074-9.8697-1.6172-28.676-1.6543l-20.41-0.04102v7.5137c0 7.1474 0.08283 7.589 1.6875 9.0762l1.6856 1.5625v17.576c0 9.6665-0.26615 17.574-0.5918 17.574-1.3912 0-2.952-3.4885-12.332-27.574l-9.8867-25.391h-24.723l-9.8965 25.977c-5.4429 14.287-10.201 26.736-10.572 27.664-0.53318 1.3319-0.6894 0.44328-0.7461-4.2188l-0.07226-5.9043h-15.266l-1.4766 2c-3.8033 5.1442-13.616 3.6616-18.043-2.7266-3.2763-4.7278-4.4424-11.011-2.8828-15.533 2.3452-6.8004 9.3696-10.292 11.463-5.6973 0.52592 1.1543 0.4476 2.0239-0.3125 3.4746l-1.0137 1.9355 5.8379 3.8965c3.2106 2.1434 6.1465 3.8181 6.5254 3.7207 0.79974-0.2056 18.541-18.805 18.541-19.438 0-1.1157-5.2352-6.9425-8.3535-9.2969-7.5753-5.7191-13.604-7.6375-24.033-7.6484-5.7815-0.00601-8.0963 0.31472-12.588 1.7461-16.524 5.2656-25.809 18.856-25.041 36.65 0.27923 6.469 0.47857 7.2827 3.1094 12.592 4.8075 9.702 14.571 17.24 26.424 20.404 3.9912 1.0654 10.359 1.1919 70.676 1.4082l66.293 0.23828v-7.4668c0-7.2656-0.04527-7.4874-1.6504-8.2188-1.96-0.89302-2.6302-2.2634-1.5137-3.0898 0.44182-0.327 2.625-1.1438 4.8516-1.8144 2.2269-0.67049 6.4014-2.3874 9.2774-3.8164l5.2285-2.5976v32.311l-139.33 0.36719-2.6992 1.457c-5.7902 3.1245-8.681 7.9219-8.6777 14.398 0.003402 6.5832 2.9608 11.373 9.0156 14.598 2.2526 1.2002 5.5457 1.2679 72.027 1.4434l69.664 0.1836v3.2578c0 2.2634-0.46541 3.9485-1.5215 5.5156-3.1725 4.7077-8.6997 6.4259-22.938 7.1309l-9.2773 0.45898v4.2852l-0.00586 4.2852h101.88v-8.5723l-6.2402-0.44727c-8.7643-0.6274-18.235-2.7109-21.791-4.7949-3.3175-1.9442-5.7031-5.7448-5.7031-9.084v-2.0371l140-0.36718 2.6992-1.4551c5.7886-3.1234 8.6816-7.9227 8.6816-14.4s-2.8929-11.277-8.6816-14.4l-2.6992-1.4551-140-0.36914v-7.5586l2.1914 0.48242c4.845 1.0691 12.878 1.6394 23.615 1.6738l11.303 0.03515v-6.0723c0-3.3399 0.1349-6.0723 0.30078-6.0723 0.16592 0 2.3189 1.5278 4.7852 3.3945 16.737 12.667 35.367 13.4 51.879 2.0391l3.0859-2.125v8.8359h31.664l0.19141-6.5781 0.19336-6.5781 19.904-0.37304v13.529h33.736v-8.4668c0-8.1469-0.06186-8.5215-1.6621-9.9512-1.5024-1.3421-1.8938-2.9469-4.0488-16.625-2.8088-17.827-2.9131-19.954-1.0352-20.959 1.2236-0.65499 1.3496-1.4116 1.3496-8.1309v-7.4102l-34.074 0.36133-0.98242 3.8789c-0.54009 2.1338-1.1828 3.8789-1.4277 3.8789-0.24513 0-1.11-1.8203-1.9219-4.0469l-1.4766-4.0488h-32.988l-0.01368 15.855-1.7988-2.3613c-9.4518-12.416-24.862-17.817-41.227-14.449-8.5515 1.7601-15.934 5.4802-21.127 10.645l-2.4336 2.418-2.2129-2.7539c-2.9851-3.7149-9.3862-7.7348-15.16-9.5215-3.7682-1.166-6.4758-1.4745-13.094-1.4941l-8.3438-0.02539 0.29297-7.4219c0.33562-8.4998 1.4606-11.691 4.8652-13.795 2.9665-1.8333 8.5328-3.1906 16.746-4.082 3.8105-0.41355 8.2178-0.90587 9.7949-1.0938l2.8672-0.3418v-7.3379h-101.88zm138.39 40.691c1.3409 0.02651 2.7001 0.12538 4.0742 0.29883 11.623 1.4668 20.832 7.7064 25.564 17.32 2.0352 4.1344 2.3271 5.4106 2.541 11.133 0.28951 7.7495-1.0182 12.674-4.9277 18.564-4.1919 6.3152-12.541 11.676-20.551 13.195-19.711 3.7383-37.357-7.9107-40.014-26.414-2.6993-18.796 13.199-34.495 33.312-34.098zm-249.95 0.17969c1.4673-0.00113 2.9436 0.09796 4.4199 0.30664 4.9856 0.7045 12.453 4.2526 16.65 7.9102l2.9648 2.582-5.3516 5.6387c-4.774 5.0306-5.5032 5.5588-6.748 4.8926-1.1931-0.63833-1.3501-1.2197-1.082-4.0098 0.26766-2.7856 0.05847-3.567-1.4316-5.3379-2.4794-2.9462-5.0218-3.7962-10.438-3.4902-5.5188 0.31181-8.2956 1.9104-11.451 6.5898-4.2038 6.2336-4.5522 14.88-0.91016 22.584 3.7353 7.9011 9.317 11.874 17.43 12.404 6.6289 0.43294 9.303-0.2018 12.32-2.9277 1.4146-1.2779 3.2198-2.3242 4.0098-2.3242 1.3741 0 1.4355 0.30618 1.4355 7.084v7.084l-12.65-0.04688c-17.366-0.06614-22.755-1.6991-30.74-9.3144-4.6178-4.4039-6.8649-7.9566-8.6406-13.662-1.5491-4.9772-1.5869-7.3776-0.20508-13.453 2.9563-12.997 16.234-22.499 30.418-22.51zm188.17 0.37305c0.92675-0.01594 1.8826-0.00322 2.873 0.03906 5.6496 0.24113 7.1552 0.57618 11.039 2.4473 2.4733 1.1913 5.9506 3.4821 7.7285 5.0918l3.2324 2.9277-4.9902 5.5c-6.3436 6.9913-7.7382 7.124-7.7598 0.74609-0.02079-6.1792-4.0177-9.0662-11.93-8.6191-5.7551 0.32504-9.269 2.602-12.301 7.9746-1.9562 3.4666-2.0938 4.1567-2.0938 10.473 0 6.28 0.15696 7.0817 2.2168 11.266 4.0104 8.1464 10.683 12.278 19.74 12.223 4.8389-0.02949 8.2907-1.3007 10.803-3.9746 0.85193-0.90682 2.1037-1.6484 2.7812-1.6484 1.118 0 1.2305 0.68603 1.2305 7.4219l0.00196 7.4238-9.6152-0.08594c-5.2879-0.04709-11.448-0.3263-13.688-0.61914-12.07-1.5779-21.634-8.2808-26.807-18.787-2.0203-4.1038-2.1816-4.9352-2.1816-11.193 0-6.1632 0.18551-7.153 2.0938-11.18 2.6381-5.5668 5.5893-8.949 10.697-12.256 5.3876-3.488 10.44-5.0584 16.928-5.1699zm-132.96 1.2226 15.391 0.37891 9.3086 24.182c5.1194 13.3 9.7847 24.91 10.367 25.799 0.5825 0.88901 1.7494 2.0671 2.5918 2.6191 1.0324 0.67645 1.5044 1.6144 1.4492 2.877l-0.08203 1.873h-22.029l-0.08398-1.9082c-0.05277-1.2048 0.36027-2.1475 1.1211-2.5547 1.7257-0.92372 1.5023-3.1566-0.96875-9.6914l-2.1738-5.75h-18.412l-2.1133 5.6016c-2.4785 6.5669-2.66 8.9042-0.76562 9.918 0.88361 0.47289 1.3496 1.4128 1.3496 2.7227v2h-17.543v-2.0664c0-1.4426 0.57898-2.5544 1.9141-3.6777 1.5655-1.3175 3.6196-6.2214 11.297-26.967l9.3828-25.355zm46.227 0.04102h17.135c15.137 0 17.634 0.15335 21.422 1.3262 7.7634 2.4034 11.035 6.8331 10.984 14.867-0.07068 11.185-5.9123 16.574-24.707 22.795l-7.291 2.4141v4.5488c0 3.9019 0.24773 4.8422 1.7363 6.6113 1.0292 1.2232 1.6465 2.6855 1.5176 3.5938-0.21354 1.5062-0.38816 1.5336-10.508 1.7168l-10.289 0.1875v-1.9238c0-1.18 0.65305-2.5379 1.6875-3.5098l1.6875-1.584v-44.199l-1.6875-1.3262c-1.1524-0.90652-1.6875-1.99-1.6875-3.4219v-2.0957zm200.37 0h10.773l3.4688 10.965c1.9079 6.0306 3.6866 11.198 3.9512 11.484 0.26419 0.28611 2.2641-4.6482 4.4453-10.965l3.9668-11.484h10.998c10.86 0 10.998 0.01855 10.998 1.4746 0 0.81104-0.64948 2.1648-1.4414 3.0078l-1.4395 1.5332 3.4004 23.014c2.4168 16.359 3.7116 23.358 4.4766 24.203 0.59187 0.65401 1.0762 2.0009 1.0762 2.9922v1.8008h-20.916v-1.7188c0-0.99768 0.71473-2.3429 1.7051-3.2051l1.707-1.4844-1.3691-8.7734c-3.3138-21.213-4.0207-25.478-4.2539-25.711-0.20485-0.20485-1.9336 4.9264-8.9453 26.555-0.18973 0.58605-2.0004 0.84375-5.9375 0.84375h-5.666l-4.2012-12.314c-2.3106-6.7725-4.36-12.768-4.5547-13.324-0.52158-1.4925-0.62716-0.94997-2.8652 14.766-2.5471 17.885-2.559 18.608-0.33398 20.066 1.1156 0.73103 1.6487 1.6253 1.5176 2.5449l0.00195 0.00195c-0.19276 1.3521-0.63679 1.4265-9.4805 1.6055l-9.2773 0.1875v-2.0195c0-1.3211 0.46129-2.2673 1.334-2.7344 0.73368-0.39265 1.6104-1.238 1.9492-1.8789 0.33864-0.64101 2.218-11.158 4.1758-23.371l3.5606-22.207-1.7988-1.4336c-0.98925-0.78878-1.7988-2.1067-1.7988-2.9277 0-1.4784 0.10425-1.4922 10.773-1.4922zm-51.963 7.4746c-0.63346 2.8e-4 -1.305 0.0219-2.0234 0.0625-3.8114 0.21535-5.1444 0.62175-7.5195 2.291-6.0581 4.2576-8.317 10.291-7.7988 20.824 0.48832 9.9295 3.4826 15.405 9.9531 18.203 1.299 0.56171 4.3512 1.0325 6.7832 1.0469 11.511 0.06879 18.162-8.7539 17.367-23.035-0.39761-7.1505-2.334-11.79-6.4219-15.389-3.3596-2.9575-5.9056-4.0059-10.34-4.0039zm-124.72 0.30664c-0.77812 0.00411-1.59 0.05336-2.4336 0.14844l-2.9824 0.33593-0.19532 12.398c-0.10828 6.8198 0.06855 12.397 0.39454 12.396 1.2877-0.00151 7.9262-4.256 11.117-7.125 2.134-1.9185 3.8092-4.1717 4.5566-6.1289 1.0588-2.7724 1.0809-3.3776 0.2168-5.8223-1.4333-4.055-5.227-6.2319-10.674-6.2031zm-64.908 4.8887c-0.44031 0.50078-5.3359 15.078-5.3359 15.889 0 0.24971 2.582 0.45313 5.7363 0.45313 3.1542 0 5.7344-0.18068 5.7344-0.40235 0-1.313-5.7833-16.339-6.1348-15.939zm94.512 66.838c3.5978 0 6.0321 1.5858 6.0898 3.8262h-2.9473c-0.15679-1.1267-1.36-1.793-3.1836-1.793-1.9144 0-3.0546 0.73136-3.0625 1.7285-0.0165 1.1072 1.4848 1.5672 2.8711 1.8262l1.5859 0.31055c2.5415 0.47267 4.9589 1.5217 4.9668 3.8203-0.00825 2.3375-2.3605 3.9238-6.4121 3.9238-3.9361 0-6.4368-1.4819-6.5606-4.1172h3.0137c0.12377 1.3921 1.609 2.0644 3.5234 2.0644 1.9969 0 3.3671-0.7575 3.375-1.8906-0.00825-1.0295-1.2135-1.4753-3.0371-1.8379l-1.9238-0.38867c-2.7808-0.56333-4.5039-1.6588-4.5039-3.5625-0.00825-2.344 2.6568-3.9102 6.2051-3.9102zm36.553 0c3.5978 0 6.0321 1.5858 6.0898 3.8262h-2.9453c-0.15678-1.1267-1.3619-1.793-3.1855-1.793-1.9144 0-3.0546 0.73136-3.0625 1.7285-0.01651 1.1072 1.4868 1.5672 2.873 1.8262l1.584 0.31055c2.5415 0.47267 4.9588 1.5217 4.9668 3.8203-0.00827 2.3375-2.3605 3.9238-6.4121 3.9238-3.9361 0-6.4348-1.4819-6.5586-4.1172h3.0117c0.12378 1.3921 1.609 2.0644 3.5234 2.0644 1.9969 0 3.3671-0.7575 3.375-1.8906-0.00825-1.0295-1.2135-1.4753-3.0371-1.8379l-1.9219-0.38867c-2.7808-0.56333-4.5059-1.6588-4.5059-3.5625-0.00825-2.344 2.6568-3.9102 6.2051-3.9102zm-121.32 0.18164h6.3379c3.8866 0 5.957 1.8589 5.957 4.3906 0 2.5512-2.095 4.3887-5.998 4.3887h-3.2344v4.4805h-3.0625v-13.26zm17.502 0h3.0605v11.246h7.4434v2.0137h-10.504v-13.26zm21.189 0h3.7793l5.957 13.26h-3.2676l-1.4023-3.2695h-6.3555l-1.3945 3.2695h-3.2676l5.9512-13.26zm11.641 0h3.459l4.1328 5.8652h0.16602l4.1328-5.8652h3.459l-6.1484 8.3144v4.9453h-3.0527v-4.9453l-6.1484-8.3144zm44.871 0h3.457l4.1348 5.8652h0.16407l4.1348-5.8652h3.457l-6.1484 8.3144v4.9453h-3.0527v-4.9453l-6.1465-8.3144zm36.965 0h13.484v2.0137h-5.2246v11.246h-3.0371v-11.246h-5.2227v-2.0137zm18.623 0h10.992v2.0137h-7.9297v3.5996h7.3594v2.0137h-7.3594v3.6191h7.9941v2.0137h-11.057v-13.26zm16.668 0h3.7461l5.0176 9.6094h0.19726l5.0176-9.6094h3.7461v13.26h-2.9375v-9.1094h-0.15625l-4.6719 9.0703h-2.1953l-4.6699-9.0898h-0.15625v9.1289h-2.9375v-13.26zm-164.4 2.0078v4.7969h2.8203c2.2775 0 3.293-1.0025 3.293-2.4141s-1.0146-2.3828-3.3086-2.3828h-2.8047zm37.451 0.71094-2.2852 5.3418h4.7031l-2.2852-5.3418h-0.13281z" fill="#fafafa"/>
 <style type="text/css">.st0{fill:#FC0C18;}
	.st1{fill:#FC0C18;}</style>
</svg>
