<svg width="480" height="320" version="1.1" viewBox="0 0 480 320" xml:space="preserve" xmlns="http://www.w3.org/2000/svg"><defs><linearGradient id="a" x1="240" x2="240" y1="320" gradientUnits="userSpaceOnUse"><stop stop-color="#04a" offset="0"/><stop stop-color="#0cf" offset="1"/></linearGradient></defs><rect id="b" width="480" height="320" ry="24" fill="url(#a)"/><path d="m149.1 77.99v10.8l0.8806 0.1052c2.518 0.2957 5.556 0.8405 9.065 1.625 3.545 0.7935 6.212 1.567 7.943 2.285 2.746 1.156 4.463 2.617 5.323 4.319 0.9104 1.832 1.379 3.942 1.379 6.4v1.175h-3.462v18.28l0.0253 2.046 1.96 0.5728 4e-3 2e-3c0.1434 0.0391 0.5866 0.2209 0.904 0.4325 0.1926 0.1284 0.3179 0.3282 0.3429 0.5533v6e-3l2e-3 6e-3c0.0164 0.1231 0.0273 0.3016 0.0273 0.526 0 0.5396-0.0346 13.55-0.0565 23.19l-17.59-45.62h-27.88l-16.46 43.6v-0.263h-17.72l-1.944 0.0253-0.6351 1.827v2e-3c-0.04637 0.1356-0.3966 1.049-1.28 1.898-0.8834 0.8488-2.286 1.662-4.576 1.662-5.192 0-11.04-4.237-11.41-13.98-0.1801-4.782 2.392-7.78 4.553-8.904h0.0038c0.371-0.1953 0.7203-0.3406 1.011-0.4345l0.0116-4e-3c0.677-0.237 1.275 0.3595 1.038 1.036-0.138 0.3875-0.4334 0.8958-0.9917 1.524-0.0013 1e-3 -5.69e-4 2e-3 -0.0019 4e-3l-2.389 2.287 17 11.71 21.58-22.89-0.8767-1.718-2e-3 -2e-3c-0.4149-0.7972-10.06-18.98-34.1-18.98-23.6 0.01052-40.81 16.72-40.81 39.66 0 21.56 19.37 38.41 43.97 38.41h89.81l2e-3 3.369h-85.05c-8.866 0-16.05 7.18-16.05 16.05 0 8.866 7.18 16.05 16.05 16.05h85.07l2e-3 1.748c-2.5e-4 2.782-0.4902 4.979-1.414 6.659-0.8843 1.608-2.588 2.977-5.27 4.066-1.303 0.5223-4.024 1.003-7.982 1.301h-4e-3c-4 0.3117-7.023 0.5416-9.081 0.6975l-0.9215 0.0701v10.83h181.7v-10.82l-0.9176-0.074c-2.053-0.1668-5.077-0.3955-9.077-0.7072h-2e-3c-3.958-0.2981-6.681-0.7791-7.984-1.301l-4e-3 -2e-3c-2.679-1.088-4.38-2.459-5.264-4.066-0.9245-1.681-1.416-3.876-1.416-6.659l2e-3 -1.736h85.09c8.866 0 16.05-7.182 16.05-16.05-0.0104-8.866-7.192-16.05-16.06-16.05h-85.06l6e-3 -6.31c5.318 2.616 11.91 4.719 19.59 4.719 10.31 1e-5 18.89-4.412 23.83-7.627v5.903h37.22v-13.13h13.89v13.07h39.25v-20.06l-0.0896-2.907-0.5163 0.0351-2.396 0.1676h-4e-3c0.0281-3e-3 -0.0678-6.8e-4 -0.1325-0.0136-0.063-0.0126-0.1073-0.0474-0.0682-0.0136h-2e-3c-0.1946-0.1703-0.3765-0.5221-0.5007-1.142v-2e-3l-4.684-30.01c-0.1114-0.7086-0.1088-1.018 0.0175-1.233s0.5065-0.5023 1.379-0.9235l1.539-0.7501v-19.63h-38.38l-0.8903 3.035-1.192-3.035h-37.14v10.73c-7.405-7.947-18.1-12.58-30.08-12.58-7.33 0-14.36 1.611-20.55 4.475v-3.799c0-2.46 0.4716-4.571 1.383-6.404 0.8606-1.7 2.577-3.16 5.319-4.315l6e-3 -0.0019c1.732-0.7177 4.395-1.49 7.937-2.283 3.511-0.7847 6.537-1.329 9.065-1.625l0.8806-0.1033v-10.8zm3.055 3.033h175.6v5.138c-2.267 0.3301-4.731 0.7661-7.577 1.405-3.647 0.8174-6.466 1.622-8.438 2.443h-2e-3l-2e-3 0.0019c-3.254 1.371-5.617 3.288-6.854 5.751l-0.1072 0.2104v0.1052c-1.044 2.217-1.59 4.713-1.59 7.448v5.35c-3.254 1.822-6.244 3.983-8.802 6.523-6.296-7.681-15.87-11.89-27.87-12.37-0.0628-2.659-0.6088-5.113-1.668-7.251l-2e-3 -0.0058-2e-3 -0.0039c-1.246-2.457-3.597-4.376-6.852-5.747h-2e-3l-2e-3 -0.0019c-1.972-0.8215-4.793-1.626-8.44-2.443l-0.0117-0.0019-0.0935-0.01948-0.0117-0.0019c-3.112-0.6896-6.299-1.04-9.486-1.04-3.184 0-6.376 0.3499-9.476 1.038l-0.01 0.0019c-4e-3 8.54e-4 -8e-3 0.0011-0.0117 0.0019l-0.0935 0.01948-0.0117 0.0019c-3.647 0.8174-6.468 1.622-8.44 2.443l-2e-3 0.0019h-2e-3c-3.254 1.371-5.617 3.288-6.854 5.751l-0.1052 0.2104v0.1013c-1.046 2.218-1.59 4.716-1.59 7.452v1.469c-2.033-0.1825-4.196-0.3039-6.653-0.3039h-30.02v-1.165c0-2.855-0.5674-5.475-1.693-7.748l-4e-3 -0.0078c-1.246-2.457-3.597-4.378-6.852-5.749h-2e-3l-2e-3 -0.0019c-1.971-0.8213-4.792-1.624-8.438-2.441h-2e-3c-2.836-0.6386-5.308-1.075-7.577-1.405zm87.87 8.512c2.949 0 5.909 0.3226 8.808 0.9663 0.042 0.01485 0.1021 0.02701 0.1695 0.03702 3.53 0.7911 6.187 1.561 7.914 2.278 2.746 1.156 4.463 2.619 5.323 4.321 0.8347 1.68 1.25 3.629 1.321 5.831-11.73 0.1846-21.63 4.83-29.4 13.74-2.581-3.996-5.409-7.036-9.506-9.003-2.292-1.1-5.007-1.86-8.227-2.352v-1.822c0-2.457 0.4695-4.566 1.379-6.398 0.8605-1.703 2.578-3.167 5.327-4.323 1.729-0.7166 4.391-1.488 7.926-2.279h0.01l0.1072-0.02533c2.912-0.6493 5.872-0.9741 8.845-0.9741zm86.82 16.55c14.31 0 26.23 6.947 32.38 17.68l0.9313 1.625v-17.45h31.71l3.84 9.782 2.862-9.782h32.73v14.41c-1.07 0.5485-1.92 1.131-2.431 1.952-0.5605 0.8996-0.697 2.02-0.4734 3.448l4.699 30.04 4e-3 0.01c0.2064 1.021 0.5774 2.163 1.525 3.016l2e-3 2e-3c0.8026 0.7172 1.594 0.8074 2.12 0.8144v16.34h-32.79v-13.08h-20.35v13.11h-30.76v-9.118l-0.828 0.7306s-11.51 10.12-26.24 10.12c-18.9 0-31.56-13.97-31.56-13.97l-0.8689-0.9605v13.16h-22.02c-19.86 0-36.82-10.86-41.57-30.7l-0.2026-0.8455-0.6293 0.602c-1.071 1.027-4.147 3.38-8.416 5.775-4.27 2.395-9.756 4.855-15.72 6.197-0.5099 0.1135-0.9629 0.2796-1.301 0.6332-0.3389 0.354-0.491 0.858-0.491 1.444 0 0.642 0.3529 1.172 0.791 1.555 0.438 0.3823 0.976 0.6569 1.502 0.8689 0.8418 0.3392 1.37 0.4182 1.668 0.4754v14.01h-123c-22.65 0-40.75-15.53-40.75-35.18 0-19.72 14.07-36.43 37.58-36.43 21.85 0 30.58 16.07 31.04 16.93l-18.09 19.18-11.56-7.964c0.2958-0.3088 0.8597-0.8153 1.338-1.97 0.2997-0.7227 0.4878-1.571 0.3254-2.457-0.1625-0.8854-0.688-1.779-1.689-2.546l-0.0019-2e-3c-0.8791-0.6704-2.088-0.7821-3.343-0.4871s-2.586 0.9988-3.809 2.067c-2.445 2.137-4.448 5.754-4.271 10.5 0.4129 10.79 7.155 17.08 14.65 17.08 3.476 0 5.739-1.431 7.088-2.864 1.094-1.162 1.514-2.145 1.672-2.55h14.18v11.98l0.9663 0.1753 20.96-55.51h23.42l19.24 49.88 0.0156 0.0253s0.3628 0.6883 0.9098 1.467 1.253 1.667 2.124 2.102l0.7189 0.3604 2e-3 -0.8046s0.0838-32.89 0.0838-33.84c0-0.9698-0.1018-2.106-0.8183-2.926-0.8843-1.02-1.977-1.416-2.424-1.561v-14.69h33.28c8.711 0 14.11 1.189 17.95 3.464 3.839 2.275 6.176 5.665 8.705 10.24l0.376 0.6799 0.4617-0.6234c6.948-9.387 16.42-15.52 30.04-15.52 14.05 0 23.87 5.16 29.49 13.73l0.3682 0.563 0.4325-0.5182c7.872-9.449 20.61-13.86 32.25-13.86zm-1.331 6.32c-18.66 0-32.67 13.16-32.67 30.11s13.67 30.89 32.67 30.89c19.01 0 32.67-13.93 32.67-30.89s-14.01-30.11-32.67-30.11zm-245.1 0.1773c-14.89 0-31.32 10.52-31.32 29.48 0 12.37 12.15 29.5 33.97 29.52h18.29v-14.31h-3.347s-2.057 5.477-11.78 5.477c-16.71 0-21.82-15.19-21.82-23.5 0-8.304 4.761-18.38 15.49-18.38 10.74 0 11.08 6.974 11.08 8.658 0 1.673-0.9663 2.555-0.9663 2.909 0 0.1351 0.0402 0.2396 0.113 0.302l1.674 1.372c0.582 0.4677 1.425 0.4158 1.944-0.1247l9.821-10.34s-8.709-11.07-23.15-11.07zm186.3 0.1247c-14.89 0-31.31 10.52-31.31 29.48 0 12.36 12.14 29.5 33.95 29.5h18.3v-14.31h-3.347s-2.059 5.478-11.79 5.478c-16.71 0-21.81-15.2-21.81-23.5s4.761-18.38 15.49-18.38c10.74 0 11.08 6.974 11.08 8.658 0 1.673-0.9663 2.557-0.9663 2.911 0 0.1351 0.0422 0.2377 0.115 0.3l1.674 1.374c0.582 0.4677 1.423 0.4158 1.942-0.1247l9.823-10.34s-8.711-11.07-23.15-11.05zm-132.4 1.444-17.94 48.93s-0.4471 1.413-1.767 2.743c-1.195 1.216-2.805 1.767-2.805 1.767v4.148h17.67v-4.148s-2.058-0.2178-2.64-1.683c-0.3534-0.8834-0.3534-2.296 0-3.18 0.3534-0.8834 4.052-10.78 4.052-10.78h18.04s3.69 9.81 4.22 11.05c0.5301 1.237 0.5295 2.216-0.1773 3.452-0.7068 1.237-2.11 1.06-2.11 1.06v4.239h22.09v-4.146s-2.121-0.7069-2.994-1.767c-0.8834-1.071-1.755-2.308-2.285-3.628l-18.3-48.06zm45.66 0v4.688s1.662 0.9668 2.369 1.674c0.7067 0.7068 0.6234 2.474 0.6234 2.474v41.51s-0.1764 1.059-1.06 1.942c-0.873 0.873-2.11 1.144-2.11 1.144v4.148h20.41v-4.241s-0.9778-0.2608-1.851-1.321c-0.8835-1.06-0.9663-1.683-0.9663-1.683v-9.176s9.905-2.712 17.42-6.184c6.506-3.004 14.07-7.234 14.07-19.25s-10.38-15.73-20.77-15.73zm223.3 0-8.085 23.5-7.567-23.46h-20.93v4.115s2.494 0.6232 2.952 1.372c0.4366 0.7067 0.0429 2.256 0.0429 2.256l-6.642 41.47s-0.177 1.59-1.237 2.827c-1.06 1.226-2.505 1.455-2.505 1.455v4.064h18.21v-3.793s-1.757-2.7e-4 -2.724-1.424c-0.7068-1.029-0.5299-2.911-0.5299-2.911l4.573-31.45 9.063 26.68h11.08l9.145-28.45s5.012 32.16 5.188 33.57c0.1767 1.414-0.0836 1.943-0.7072 2.827-0.6132 0.8834-2.465 1.153-2.465 1.153v3.824h21.03v-3.565s-1.673-0.7985-2.016-1.765c-0.3534-0.9666-0.5305-1.758-0.7072-3.182-0.1767-1.413-5.801-39.74-5.977-41.16-0.1767-1.414-0.1762-2.131 0.6137-3.098 0.6548-0.8003 2.11-1.414 2.11-1.414v-3.45zm-77.76 7.421c7.213 0 17.07 5.301 17.07 21.2 0 15.9-8.804 21.2-17.07 21.2-8.273 0-16.89-4.241-16.89-21.2 0-16.96 9.676-21.2 16.89-21.2zm-122.7 0.5845c4.847-0.1346 11.31 1.094 11.3 8.603 0 9.718-16.53 16.61-16.53 16.61v-24.56s2.327-0.5719 5.235-0.6527zm-63.29 4.01 5.975 16.79h-11.61zm88.24 25.79c5.299 15.6 18.68 26.25 35.82 28.7l4e-3 3.902h-47.3l0.0175-26.21c4.663-2.064 8.689-4.415 11.46-6.386zm-14.49 7.635-0.0175 24.96h-36.49l-2e-3 -3.369h33.39l-0.0117-19.91-1.072-0.187c1.455-0.4406 2.828-0.9724 4.2-1.5zm83.27 12.59c1.742 1.386 3.983 2.946 6.579 4.45l-6e-3 7.926h-36.5v-3.577c1.533 0.1298 3.084 0.2182 4.668 0.2182h25.26zm-62.2 20.87c2.484 0 4.427 0.666 6.006 1.944l-2.026 2.858c-1.341-0.9354-2.796-1.446-4.095-1.446-0.977 0-1.465 0.4155-1.465 0.9352v0.0429c0 0.6652 0.4982 0.9565 2.525 1.424 3.357 0.7275 5.445 1.818 5.445 4.551v0.0409c0 2.983-2.359 4.762-5.903 4.762-2.578 0-5.04-0.8211-6.838-2.422l2.256-2.692c1.445 1.143 3.044 1.757 4.738 1.757 1.081 0 1.674-0.3739 1.674-0.9975v-0.0429c0-0.6028-0.4774-0.935-2.463-1.403-3.108-0.7067-5.51-1.59-5.51-4.594v-0.0409c0-2.713 2.153-4.678 5.656-4.678zm39.87 0c2.484 0 4.427 0.666 6.006 1.944l-2.026 2.858c-1.341-0.9354-2.796-1.446-4.095-1.446-0.977 0-1.465 0.4155-1.465 0.9352v0.0429c0 0.6652 0.4982 0.9565 2.525 1.424 3.357 0.7275 5.445 1.818 5.445 4.551v0.0409c0 2.983-2.359 4.762-5.903 4.762-2.578 0-5.04-0.8211-6.838-2.422l2.256-2.692c1.445 1.143 3.044 1.757 4.738 1.757 1.081 0 1.674-0.3739 1.674-0.9975v-0.0429c0-0.6028-0.4775-0.935-2.463-1.403-3.108-0.7067-5.51-1.59-5.51-4.594v-0.0409c0-2.713 2.153-4.678 5.656-4.678zm-94.01 0.1344h3.908l6.225 14.72h-4.345l-1.06-2.609h-5.654l-1.038 2.609h-4.261zm-24.16 0.1052h4.043v11.06h7.078v3.544h-11.12zm38.33 0h4.615l3.004 5.321 3.024-5.321h4.532l-5.551 9.083v5.529h-4.074v-5.467zm52.64 0h4.613l3.004 5.321 3.024-5.321h4.532l-5.549 9.083v5.529h-4.076v-5.467zm61.44 0h11.76v3.441h-7.742v2.213h7.016v3.191h-7.016v2.316h7.846v3.441h-11.86zm20.17 0h4.292l3.483 5.654 3.482-5.654h4.282v14.61h-4.033v-8.387l-3.743 5.716h-0.0818l-3.711-5.673v8.344h-3.971zm-192.9 0.01h6.278c3.69 0 6.069 1.901 6.069 5.134v0.0429c0 3.44-2.649 5.258-6.287 5.258h-2.007v4.179h-4.052zm151.9 0h12.81v3.544h-4.386v11.06h-4.052v-11.06h-4.376zm-147.8 3.388v3.867h1.923c1.445 0 2.316-0.7498 2.316-1.903v-0.0409c0-1.247-0.8724-1.923-2.338-1.923zm42.35 1.299-1.654 4.158h3.285zm-5.334 18.67h36.45l-2e-3 1.736c0 3.213 0.5626 5.899 1.787 8.12 1.276 2.328 3.611 4.128 6.786 5.422h4e-3l2e-3 2e-3c1.851 0.7382 4.712 1.199 8.88 1.514l0.037 2e-3h8e-3l0.0351 6e-3 0.0331 2e-3c3.017 0.2305 6.087 0.3565 9.118 0.3565 3.029 0 6.1-0.1152 9.122-0.3565l0.0234-2e-3 0.0429-6e-3h8e-3l0.037-2e-3c4.177-0.3149 7.027-0.765 8.892-1.516h4e-3c3.175-1.294 5.501-3.085 6.786-5.41 1.224-2.221 1.787-4.909 1.787-8.122v-1.746h36.47l-2e-3 1.736c0 3.213 0.5626 5.899 1.787 8.12 1.276 2.328 3.611 4.128 6.786 5.422h4e-3l2e-3 2e-3c1.851 0.7382 4.712 1.199 8.88 1.514l-4e-3 -2e-3c3.043 0.2398 5.282 0.4084 7.209 0.5552v4.978h-175.6v-4.978c1.926-0.1468 4.164-0.3154 7.199-0.5552l-4e-3 2e-3c4.177-0.3149 7.029-0.765 8.894-1.516h4e-3c3.175-1.294 5.499-3.085 6.784-5.41h2e-3c1.224-2.221 1.787-4.909 1.787-8.122zm39.49 0h47.35l2e-3 1.738c-2.6e-4 2.782-0.4921 4.977-1.416 6.657-0.8838 1.607-2.585 2.978-5.264 4.066-1.302 0.5227-4.028 1.005-7.988 1.303l0.076-2e-3c-0.2074 0-0.2493 0.01-0.1247 0.01h-0.039l-0.039 2e-3c-2.96 0.2269-5.927 0.3507-8.882 0.3507-2.968 0-5.925-0.1119-8.88-0.3487l-0.039-4e-3h-0.0409c0.1242 0 0.083-0.01-0.1247-0.01l0.076 2e-3c-3.958-0.2981-6.681-0.7791-7.984-1.301l-4e-3 -2e-3c-2.679-1.088-4.38-2.459-5.264-4.066-0.9245-1.681-1.416-3.876-1.416-6.659z" fill="#fff"/></svg>
