<svg width="480" height="320" version="1.1" viewBox="0 0 127 84.667" xmlns="http://www.w3.org/2000/svg">
 <defs>
  <linearGradient id="a" x1="74.646" x2="78.505" y1="3.7638" y2="97.112" gradientUnits="userSpaceOnUse">
   <stop stop-color="#f9c440" offset="0"/>
   <stop stop-color="#3689e6" offset=".27612"/>
   <stop stop-color="#002e99" offset="1"/>
  </linearGradient>
 </defs>
 <rect width="127" height="84.667" ry="4.2333" fill="url(#a)" stroke-linecap="square" stroke-linejoin="round" stroke-width=".52917" style="paint-order:stroke fill markers"/>
 <path transform="scale(.26458)" d="m145.15 74.984v3.6992c0 4.2398-1.1139 3.6595 10.367 5.4004 4.0317 0.61134 9.6951 1.7955 12.586 2.6328 9.8749 2.8602 11.083 4.593 11.105 15.932l0.01367 7.7598-3.541 0.20313-3.543 0.20508v7.4766c0 7.1098 0.08373 7.5567 1.6875 9.043l1.6855 1.5625v17.574c0 9.6662-0.25477 17.576-0.56836 17.576-1.7674 0-1.7035 0.15212-18.691-43.857l-3.5156-9.1094h-24.784l-10.463 27.59-10.463 27.588-0.19336-5.8281-0.19531-5.8301h-15.213l-1.4766 2c-3.8034 5.1444-13.616 3.6616-18.043-2.7266-3.2763-4.7277-4.4424-11.011-2.8828-15.533 2.3453-6.8003 9.3696-10.292 11.463-5.6973 0.52591 1.1543 0.4476 2.0239-0.3125 3.4746l-1.0137 1.9336 5.8379 3.8984c3.2107 2.1434 6.1465 3.8162 6.5254 3.7188 0.79983-0.20562 18.541-18.803 18.541-19.436 0-1.1159-5.2371-6.9425-8.3555-9.2969-7.5751-5.7193-13.603-7.6375-24.031-7.6484-5.7817-0.00601-8.0961 0.31473-12.588 1.7461-16.524 5.2655-25.809 18.856-25.041 36.65 0.27921 6.469 0.47857 7.2806 3.1094 12.59 4.8098 9.7067 14.597 17.262 26.424 20.398 3.9288 1.0418 9.8486 1.1877 56.844 1.4141l52.461 0.25391v5.2793l-47.736 0.18946c-47.443 0.18909-47.753 0.19911-50.436 1.6465-5.7886 3.1235-8.6816 7.9227-8.6816 14.4 0 6.4777 2.8931 11.275 8.6816 14.398 2.6823 1.4474 2.993 1.4574 50.436 1.6465l47.736 0.19141v3.252c0 2.2569-0.46641 3.9422-1.5215 5.5078-3.1725 4.7077-8.6996 6.4259-22.938 7.1309l-9.2774 0.46093v8.5704h190.27v-8.5723l-6.2402-0.44727c-8.7646-0.62735-18.235-2.7109-21.791-4.7949-3.3152-1.9428-5.7051-5.7449-5.7051-9.0781v-2.0293l47.736-0.19141c47.443-0.18909 47.753-0.19912 50.436-1.6465 5.7886-3.1235 8.6816-7.9208 8.6816-14.398 0-6.4776-2.8931-11.277-8.6816-14.4-2.6823-1.4473-2.993-1.4574-50.436-1.6465l-47.736-0.18946v-11.94l5.9043 2.959c3.2471 1.6277 7.714 3.4125 9.9258 3.9668 4.7588 1.1925 12.375 1.3061 17.367 0.25781 4.3021-0.90338 12.102-4.3943 16.344-7.3125l3.0879-2.123v8.836h31.662l0.38672-13.156 19.904-0.375v13.531h33.736v-8.4668c0-8.1468-0.06377-8.5215-1.6641-9.9512-1.5025-1.3424-1.8918-2.9469-4.0469-16.625-2.8088-17.827-2.9151-19.954-1.0371-20.959 1.2236-0.6549 1.3496-1.4116 1.3496-8.1309v-7.4102l-34.072 0.35937-0.98242 3.8809c-0.5401 2.1338-1.1828 3.8789-1.4277 3.8789-0.24518 0-1.11-1.8222-1.9219-4.0488l-1.4766-4.0469h-32.988l-0.01562 15.855-1.7988-2.3613c-9.4536-12.416-24.864-17.817-41.229-14.449-5.6018 1.1529-10.457 2.9885-14.465 5.4688-1.3842 0.85667-2.7052 1.5586-2.9356 1.5586-0.23032 0-0.30323-5.0869-0.16211-11.303 0.28088-12.371 0.71231-13.995 4.5625-17.234 2.4044-2.0232 8.5745-3.5588 18.418-4.582 12.426-1.2917 11.311-0.79452 11.311-5.0332v-3.6816h-190.27zm93.459 8.4355c1.7817 5.21e-4 3.4565 0.23302 6.1445 0.69727 8.1553 1.4085 15.815 3.5182 18.338 5.0527 3.3171 2.0172 4.4062 4.851 4.7285 12.289 0.22344 5.1572 0.08666 6.6271-0.63672 6.8359-0.50684 0.14633-3.8047 0.5946-7.3301 0.9961-8.6718 0.98759-15.698 4.3949-21.83 10.588-2.3751 2.3986-4.4589 4.3613-4.6309 4.3613-0.17199 0-0.66252-0.77072-1.0918-1.7129-0.42928-0.94215-2.1815-3.2098-3.8926-5.0391-3.2048-3.4262-8.5154-6.057-12.27-6.0781-3.5393-0.01998-3.714-0.4943-3.3926-9.1914 0.30859-8.3501 0.78433-10.006 3.8105-13.25 2.0912-2.2416 5.9724-3.4753 15.268-4.8555 3.115-0.46256 5.0034-0.69388 6.7852-0.69336zm88.789 32.256c1.3409 0.02651 2.7001 0.12538 4.0742 0.29883 11.615 1.466 20.832 7.707 25.557 17.305 1.9876 4.0378 2.3269 5.4778 2.5625 10.867 0.43182 9.8732-2.1253 16.684-8.752 23.311-3.7642 3.7642-11.384 7.7521-16.691 8.7363-19.85 3.6806-37.403-7.894-40.062-26.418-2.6989-18.796 13.199-34.497 33.312-34.1zm-249.95 0.17969c1.4673-0.00113 2.9455 0.09991 4.4219 0.30859 4.9736 0.70302 12.451 4.2503 16.621 7.8848l2.9355 2.5566-5.3145 5.668c-4.7575 5.0741-5.4627 5.5902-6.7188 4.918-1.2018-0.64317-1.3584-1.2186-1.0898-4.0137 0.26766-2.7856 0.058453-3.567-1.4316-5.3379-2.4791-2.9462-5.0219-3.7982-10.438-3.4922-5.5187 0.31183-8.2975 1.9106-11.453 6.5898-4.2039 6.2337-4.5522 14.882-0.91016 22.586 3.7352 7.9011 9.319 11.874 17.432 12.404 6.6288 0.43294 9.303-0.20374 12.32-2.9297 1.4145-1.2779 3.2178-2.3242 4.0078-2.3242 1.3741 0 1.4375 0.30829 1.4375 7.0859v7.084l-12.652-0.04883c-17.367-0.06598-22.753-1.6971-30.738-9.3125-4.6179-4.4039-6.8669-7.9587-8.6426-13.664-1.5491-4.9774-1.585-7.3756-0.20312-13.451 2.9562-12.997 16.232-22.501 30.416-22.512zm188.17 0.37305c0.92676-0.01594 1.8826-0.00322 2.873 0.03906 5.65 0.24115 7.1551 0.57422 11.039 2.4453 2.4733 1.1915 5.9506 3.4841 7.7285 5.0938l3.2324 2.9277-4.9902 5.5c-6.3437 6.9914-7.7363 7.1242-7.7578 0.74609-0.02082-6.1792-4.0197-9.0662-11.932-8.6191-5.7549 0.32518-9.267 2.6022-12.299 7.9746-1.9562 3.4665-2.0957 4.1566-2.0957 10.473 0 6.2802 0.15893 7.0815 2.2188 11.266 4.0238 8.1736 10.773 12.355 19.754 12.238 4.8466-0.06302 8.2979-1.3387 10.787-3.9883 0.85192-0.90683 2.1038-1.6504 2.7812-1.6504 1.118 0 1.2324 0.68596 1.2324 7.4219v7.4238l-9.6152-0.08594c-5.2881-0.04706-11.448-0.3263-13.688-0.61914-12.07-1.5781-21.634-8.2808-26.807-18.787-2.0202-4.1037-2.1816-4.937-2.1816-11.195 0-6.1633 0.18551-7.1508 2.0938-11.178 2.6379-5.5666 5.5893-8.949 10.697-12.256 5.3876-3.4879 10.44-5.0584 16.928-5.1699zm-132.98 1.2246 7.7051 0.1875 7.7031 0.18946 9.3086 24.182c5.1196 13.3 9.7847 24.91 10.367 25.799 0.58252 0.88903 1.7493 2.0691 2.5918 2.6211 1.0324 0.67647 1.5044 1.6144 1.4492 2.877l-0.08203 1.873h-22.03l-0.08398-1.9102c-0.05275-1.2048 0.36027-2.1456 1.1211-2.5527 1.7257-0.92359 1.5022-3.1585-0.96875-9.6934l-2.1738-5.748h-18.412l-2.1152 5.5996c-2.4785 6.5669-2.658 8.9042-0.76367 9.918 0.88361 0.4729 1.3496 1.4128 1.3496 2.7227v2.002h-17.543v-1.957c0-1.2941 0.74309-2.7219 2.1934-4.2168 1.8062-1.8617 3.7955-6.6381 11.287-27.078l9.0957-24.814zm46.246 0.03907h17.133c15.137 0 17.636 0.1553 21.424 1.3281 7.7636 2.4035 11.035 6.8312 10.984 14.865-0.07073 11.185-5.9122 16.576-24.707 22.797l-7.291 2.4121v4.5488c0 3.9019 0.24576 4.8422 1.7344 6.6113 1.0292 1.2232 1.6465 2.6874 1.5176 3.5957-0.21378 1.5063-0.38614 1.5336-10.506 1.7168l-10.289 0.1875v-1.9258c0-1.18 0.65109-2.536 1.6856-3.5078l1.6875-1.584v-44.2l-1.6875-1.3262c-1.1524-0.9065-1.6856-1.992-1.6856-3.4238v-2.0957zm200.37 0h10.773l3.4688 10.965c1.9079 6.0303 3.698 11.209 3.9766 11.51 0.27862 0.30068 2.2729-4.6319 4.4316-10.963l3.9238-11.512h11.014c10.875 0 11.014 0.01847 11.014 1.4746 0 0.81105-0.64948 2.1648-1.4414 3.0078l-1.4394 1.5332 3.4004 23.014c2.4168 16.359 3.7116 23.358 4.4766 24.203 0.59184 0.65401 1.0762 2.0009 1.0762 2.9922v1.8027h-20.916v-1.7207c0-0.99767 0.71469-2.3429 1.7051-3.2051l1.707-1.4844-1.3691-8.7715c-3.3323-21.333-4.0212-25.48-4.2676-25.727-0.14419-0.14421-2.1508 5.5855-4.459 12.732-2.3082 7.1469-4.3199 13.374-4.4707 13.838-0.19056 0.58598-2.0028 0.8418-5.9394 0.8418h-5.666l-4.2012-12.312c-2.3105-6.7725-4.36-12.77-4.5547-13.326-0.51401-1.4711-0.6002-1.0334-2.8594 14.582-2.5654 17.732-2.5828 18.78-0.33984 20.25 1.1157 0.731 1.6491 1.6272 1.5176 2.5469-0.19306 1.3521-0.63657 1.4266-9.4805 1.6055l-9.2773 0.1875v-2.0195c0-1.3211 0.4613-2.2654 1.334-2.7324 0.7337-0.39266 1.6123-1.24 1.9512-1.8809 0.33883-0.64092 2.218-11.158 4.1758-23.371l3.5586-22.207-1.7988-1.4336c-0.98924-0.7888-1.7988-2.1067-1.7988-2.9277 0-1.4784 0.10626-1.4922 10.775-1.4922zm-51.965 7.4766c-0.63347 2.8e-4 -1.307 0.02191-2.0254 0.0625-3.8114 0.21537-5.1425 0.62173-7.5176 2.291-6.058 4.2577-8.317 10.289-7.7988 20.822 0.48843 9.9296 3.4804 15.405 9.9512 18.203 1.2988 0.56171 4.3512 1.0345 6.7832 1.0488 11.511 0.06875 18.164-8.754 17.369-23.035-0.39777-7.1504-2.3338-11.792-6.4219-15.391-3.3598-2.9574-5.9056-4.0039-10.34-4.002zm-124.72 0.30469c-0.77814 0.00411-1.59 0.05336-2.4336 0.14844l-2.9824 0.33593-0.19727 12.398c-0.10829 6.8201 0.0705 12.399 0.39649 12.398 1.2878-0.00169 7.9262-4.256 11.117-7.125 2.1339-1.9186 3.8092-4.1717 4.5566-6.1289 1.0588-2.7724 1.0809-3.3795 0.21679-5.8242-1.4333-4.0552-5.2269-6.2319-10.674-6.2031zm-64.91 4.8906c-0.44047 0.50088-5.3359 15.076-5.3359 15.887 0 0.24972 2.582 0.45508 5.7363 0.45508s5.7344-0.18263 5.7344-0.4043c-1e-5 -1.3129-5.7833-16.337-6.1348-15.938zm91.414 21.168c0.09362 0.12854 0.71872 1.7519 1.3887 3.6074 4.5425 12.581 14.425 21.485 28.031 25.256 2.7697 0.76753 5.8783 1.3965 6.9062 1.3965 1.7654 0 1.8691 0.16736 1.8691 3.0352v3.0371h-53.978v-27.61l4.7969-2.4082c2.6384-1.3241 6.1514-3.3377 7.8066-4.4766 1.6553-1.1389 3.0861-1.9664 3.1797-1.8379zm3.0977 45.668c3.5978 0 6.032 1.5858 6.0898 3.8262h-2.9473c-0.15679-1.1266-1.36-1.793-3.1836-1.793-1.9144 0-3.0546 0.73137-3.0625 1.7285-0.0165 1.1072 1.4848 1.5672 2.8711 1.8262l1.5859 0.31055c2.5415 0.47267 4.9589 1.5217 4.9668 3.8203-0.00825 2.3375-2.3605 3.9238-6.4121 3.9238-3.9361 0-6.4368-1.4819-6.5606-4.1172h3.0137c0.12377 1.3921 1.609 2.0644 3.5234 2.0644 1.9969 0 3.3671-0.75749 3.375-1.8906-0.00825-1.0295-1.2135-1.4753-3.0371-1.8379l-1.9238-0.38867c-2.7808-0.56333-4.5039-1.6588-4.5039-3.5625-0.00825-2.344 2.6568-3.9102 6.2051-3.9102zm36.553 0c3.5978 0 6.0321 1.5858 6.0898 3.8262h-2.9453c-0.15678-1.1266-1.3619-1.793-3.1855-1.793-1.9144 0-3.0546 0.73137-3.0625 1.7285-0.01651 1.1072 1.4868 1.5672 2.873 1.8262l1.584 0.31055c2.5415 0.47267 4.9589 1.5217 4.9668 3.8203-0.00826 2.3375-2.3605 3.9238-6.4121 3.9238-3.9361 0-6.4348-1.4819-6.5586-4.1172h3.0117c0.12378 1.3921 1.609 2.0644 3.5234 2.0644 1.9969 0 3.3671-0.75749 3.375-1.8906-0.00825-1.0295-1.2135-1.4753-3.0371-1.8379l-1.9219-0.38867c-2.7808-0.56333-4.5059-1.6588-4.5059-3.5625-0.00825-2.344 2.6568-3.9102 6.2051-3.9102zm-121.32 0.18164h6.3379c3.8866 0 5.957 1.8589 5.957 4.3906 1e-5 2.5512-2.095 4.3887-5.998 4.3887h-3.2344v4.4805h-3.0625v-13.26zm17.502 0h3.0605v11.246h7.4434v2.0137h-10.504v-13.26zm21.188 0h3.7793l5.959 13.26h-3.2676l-1.4023-3.2695h-6.3555l-1.3945 3.2695h-3.2676l5.9492-13.26zm11.643 0h3.459l4.1328 5.8652h0.16602l4.1328-5.8652h3.459l-6.1484 8.3144v4.9453h-3.0527v-4.9453l-6.1484-8.3144zm44.871 0h3.457l4.1348 5.8652h0.16407l4.1348-5.8652h3.457l-6.1484 8.3144v4.9453h-3.0527v-4.9453l-6.1465-8.3144zm36.965 0h13.484v2.0137h-5.2246v11.246h-3.0371v-11.246h-5.2227v-2.0137zm18.623 0h10.992v2.0137h-7.9297v3.5996h7.3594v2.0137h-7.3594v3.6191h7.9941v2.0137h-11.057v-13.26zm16.668 0h3.7461l5.0176 9.6094h0.19726l5.0176-9.6094h3.7461v13.26h-2.9375v-9.1094h-0.15625l-4.6719 9.0703h-2.1934l-4.6719-9.0898h-0.15625v9.1289h-2.9375v-13.26zm-164.4 2.0078v4.7969h2.8203c2.2775 0 3.293-1.0025 3.293-2.4141s-1.0146-2.3828-3.3086-2.3828h-2.8047zm37.451 0.71094-2.2852 5.3418h4.7031l-2.2852-5.3418h-0.13281zm25.371 20.15h53.978v3.2734c0 5.932-4.3052 10.019-12.066 11.457-12.566 2.3278-28.809 0.68287-36.348-3.6816-3.183-1.8427-5.5644-5.6947-5.5644-8.998v-2.0508z" fill="#fafafa" stroke-width=".67472"/>
 <style type="text/css">.st0{fill:#FC0C18;}
	.st1{fill:#FC0C18;}</style>
</svg>
