<svg width="480" height="320" version="1.1" viewBox="0 0 127 84.667" xmlns="http://www.w3.org/2000/svg">
 <defs>
  <linearGradient id="a" x2="127" y2="84.667" gradientUnits="userSpaceOnUse">
   <stop stop-color="#43d6b5" offset="0"/>
   <stop stop-color="#3689e6" offset=".3"/>
   <stop stop-color="#002e99" offset="1"/>
  </linearGradient>
 </defs>
 <rect width="127" height="84.667" ry="4.2333" fill="url(#a)" stroke-linecap="square" stroke-linejoin="round" stroke-width=".52917" style="paint-order:stroke fill markers"/>
 <path transform="scale(.26458)" d="m101.15 75.084v3.6406c0 3.5646 0.0545 3.6382 2.6289 3.6484 3.7165 0.01439 22.363 4.3215 25.273 5.8379 5.0273 2.6189 5.6345 4.0144 5.9336 13.645l0.27343 8.8125h-7.0586l-5.3945 14.355c-10.859 28.898-15.155 40.067-15.57 40.482-0.23364 0.23364-0.42383-2.1834-0.42383-5.3711v-5.7969h-7.5898c-7.1711 0-7.6625 0.11-8.8945 1.9902-1.6672 2.5445-6.3598 3.84-10.496 2.8965-8.9287-2.0368-14.404-15.813-9.4629-23.809 3.534-5.7182 10.564-6.6682 10.564-1.4277 0 1.2298-0.37691 2.6113-0.83594 3.0703-0.57365 0.57366 0.94158 2.0146 4.8438 4.6094 3.1225 2.0763 6.0097 3.7754 6.416 3.7754 0.84212 0 18.689-18.634 18.689-19.514 0-0.3161-1.8105-2.5552-4.0234-4.9766-17.196-18.815-50.927-14.579-61.871 7.7715-7.4783 15.272-4.7633 30.582 7.4355 41.922 4.4294 4.1176 9.5119 6.9752 16.406 9.2246 3.8467 1.255 8.6554 1.5138 35.582 1.9102l31.137 0.45703 0.25 2.5859 0.25 2.5879-25.725 0.24414-24.984 0.23633c-0.19326-7e-3 -0.38701-0.00977-0.58203-0.00977-8.7416 0-15.779 7.0377-15.779 15.779 0 8.6436 6.8812 15.62 15.486 15.775l0.003906 0.00195 25.338 0.2461 25.338 0.24414v3.2461c0 8.486-5.6341 11.551-23.004 12.516-9.2768 0.51541-10.059 0.68412-10.482 2.2617-0.62651 2.3339-0.59553 5.7697 0.0586 6.4238 0.29653 0.29651 63.073 0.53907 139.5 0.53907h138.96v-4.0703c0-2.5618-0.37329-4.1752-1.0098-4.3574-0.55599-0.15908-5.0087-0.73798-9.8945-1.2871-11.345-1.275-16.035-2.6931-19.541-5.9062-2.0764-1.9029-2.9295-3.4648-3.2656-5.9707l-0.45704-3.3945 51.557-0.48828 0.00585-0.00391c8.6798-0.0711 15.646-7.0782 15.646-15.775 0-8.7416-7.0377-15.779-15.779-15.779-0.19701 0-0.39267 0.00502-0.58789 0.01172l-50.639-0.48242v-4.2852c0-4.2752 8e-3 -4.2908 4.0957-6.832 2.2535-1.4009 4.2564-2.5469 4.4492-2.5469 0.19291 0 0.34961 1.819 0.34961 4.043v4.0449h31.541v-12.94h20.216v12.94h33.966v-8.1738c0-7.7546-0.10319-8.2547-2.0215-9.7637-1.112-0.87469-2.0215-2.3782-2.0215-3.3418 0-0.96362-1.1455-8.643-2.5449-17.064l-2.5449-15.311 1.7363-1.4062c1.5444-1.2508 1.7363-2.2138 1.7363-8.7559v-7.3516h-33.818l-1.0352 4.043c-0.56999 2.224-1.2954 4.0449-1.6113 4.0449-0.31604 0-1.2296-1.821-2.0293-4.0449l-1.4531-4.043h-32.838v15.742l-3.7422-4.2774c-2.0581-2.3527-5.788-5.6366-8.2891-7.2969l-4.5469-3.0176 0.02149-9.4394c0.0179-8.2027 0.23499-9.7352 1.668-11.695 3.0968-4.236 11.592-6.9417 25.201-8.0273l6.6719-0.53125v-7.041h-277.4zm180.3 7.6699c4.3482 0.14294 21.904 4.0157 24.959 5.5957 4.0952 2.1177 5.9231 7.1433 5.6465 15.533l-0.23633 7.125-4.8516 2.7168c-2.6688 1.494-6.4968 4.098-8.5078 5.7871l-3.6582 3.0723-3.0371-3.4922c-5.7815-6.6462-19.918-11.384-30.691-10.285l-4.6504 0.47461v-7.875c0-6.8016 0.24282-8.2226 1.7793-10.426 3.1953-4.5818 6.1924-5.6722 22.562-8.2031 0.16427-0.0254 0.39567-0.032968 0.68555-0.023438zm-86.844 0.37109c2.4074 0.04751 4.7441 0.32874 7.2285 0.83594 13.104 2.6751 17.135 4.3453 20.105 8.3301 1.4549 1.9518 1.6766 3.433 1.7012 11.322 0.0236 7.5983-0.16808 9.0554-1.1836 8.9453-0.66719-0.0723-3.1744-0.52806-5.5703-1.0117-2.4422-0.49303-13.19-0.87891-24.463-0.87891h-20.107v7.5039c0 6.5023 0.21549 7.6866 1.6172 8.8867 1.5265 1.307 1.6172 2.3866 1.6172 19.186 0 9.7898-0.31864 17.799-0.70898 17.799-1.2314 0-2.4335-1.9867-4.4668-7.3887-1.9017-5.0524-1.9901-6.1958-2.4375-31.881-0.50334-28.897-0.23273-31.647 3.5059-35.74 1.7841-1.9534 3.6463-2.7635 9.5371-4.1465 5.4055-1.2691 9.6127-1.8409 13.625-1.7617zm131.97 32.549c0.89572 7e-3 1.8001 0.0454 2.7109 0.11523 11.362 0.87102 20.261 5.8145 25.748 14.305 11.774 18.217 0.11263 42.439-22.188 46.086-2.6688 0.43647-5.943 0.75708-7.2773 0.71093-12.41-0.42924-24.235-8.1381-29.361-19.141-1.8316-3.931-2.1543-5.7152-2.1543-11.902 0-6.1738 0.32448-7.9761 2.1387-11.869 5.3613-11.505 16.947-18.407 30.383-18.305zm-247.86 0.09961c0.82222 0.025 1.6431 0.08481 2.4609 0.17968 5.5891 0.64869 14.471 4.8297 17.93 8.4395l2.375 2.4785-5.2168 5.2637c-2.8691 2.8949-5.763 5.158-6.4316 5.0293-0.87831-0.16912-1.2236-1.3224-1.2402-4.1523-0.01956-3.3606-0.38482-4.2412-2.5762-6.1992-5.2642-4.7036-14.465-3.7184-19.568 2.0938-2.5863 2.9457-4.9238 9.4822-4.9238 13.768 0 4.5734 3.0462 12.769 6.0488 16.277 4.1606 4.8607 9.221 7.0588 16.262 7.0644 5.7514 4e-3 9.0883-1.2416 11.305-4.2226 0.47419-0.63777 1.5656-1.0238 2.4258-0.85742 1.3833 0.26758 1.5778 1.0727 1.6816 6.9668 0.06458 3.6653-0.11732 6.7527-0.4043 6.8613-0.28698 0.10863-6.708 0.0154-14.27-0.20703-13.384-0.39365-13.892-0.47292-19.186-2.9805-7.2485-3.4338-12.936-8.8806-16.203-15.52-2.2715-4.616-2.6156-6.1392-2.5801-11.408 0.03297-4.8892 0.48853-7.0669 2.3281-11.121 4.8894-10.775 17.45-18.128 29.783-17.754zm187.06 0.28515c7.7063-0.16339 15.47 2.4547 21.783 7.8887l3.2344 2.7852-5.2344 5.3106c-2.8783 2.9216-5.6256 5.3125-6.1055 5.3125-1.723 0-2.7717-1.7994-1.9473-3.3398 1.0478-1.9578-0.90424-6.6488-3.4258-8.2324-6.9837-4.386-16.793-1.1243-21.117 7.0234-2.5433 4.792-2.5056 14.672 0.07617 20.318 3.4842 7.6197 9.4188 12.092 17.273 13.014 5.3419 0.62664 10.431-0.67445 12.926-3.3047 1.0416-1.0981 2.5302-2.0038 3.3086-2.0117 1.244-0.0123 1.416 0.86759 1.416 7.2656v7.2773l-10.312-0.09375c-5.6711-0.052-12.268-0.42098-14.66-0.81836-10.099-1.6774-20.535-9.3983-24.998-18.496-1.8631-3.7976-2.176-5.4533-2.1484-11.322 0.0408-8.5456 2.424-14.103 8.4844-19.771 6.0905-5.697 13.741-8.6413 21.447-8.8047zm-125.51 1.0801h7.5742l9.0918 23.654c10.137 26.372 10.731 27.707 12.986 29.115 0.9587 0.59872 1.5938 1.8827 1.5938 3.2266v2.2305h-21.836v-1.9219c0-1.0575 0.54569-2.376 1.2129-2.9297 1.673-1.3884 1.5431-2.62-0.99219-9.4375l-2.2051-5.9277h-18.291l-1.5488 3.6094c-0.85117 1.9857-2.0037 5.1368-2.5625 7.002-0.95109 3.1744-0.90207 3.4656 0.76757 4.5742 1.007 0.66862 1.7832 2.0217 1.7832 3.1074 0 1.9084-0.0684 1.9238-8.8965 1.9238-8.6205 0-8.8945-0.055-8.8945-1.7754 0-0.97644 0.93732-2.7543 2.084-3.9512 1.421-1.4832 5.0265-10.092 11.322-27.037 5.0805-13.674 9.2383-24.997 9.2383-25.162 0-0.16531 3.4067-0.30078 7.5723-0.30078zm228.57 0h20.836l3.8477 11.928c2.1157 6.5607 3.9919 11.564 4.1699 11.119 0.17779-0.44479 2.0375-5.7199 4.1328-11.725l3.8106-10.918 11.119-0.22656c10.049-0.20334 11.119-0.0904 11.119 1.1621 0 0.76227-0.72309 2.1563-1.6074 3.0976-1.6069 1.7104-1.6059 1.7243 1.6133 23.908 1.7716 12.209 3.77 23.229 4.4394 24.488 0.66943 1.2592 1.2168 2.9882 1.2168 3.8418 0 1.4505-0.68747 1.5508-10.514 1.5508-10.377 0-10.514-0.0227-10.514-1.8262 0-1.005 0.72756-2.2823 1.6172-2.8379 0.90486-0.5651 1.6191-1.8858 1.6191-2.998 0-2.2349-4.7961-32.986-5.209-33.398-0.14585-0.14588-2.3187 6.1214-4.8301 13.928l-4.5664 14.193h-5.2734c-6.1489 0-5.1763 1.3809-10.969-15.562-1.9378-5.6683-3.7393-10.308-4.0039-10.311-0.26445-3e-3 -1.5119 7.3274-2.7715 16.289l-2.291 16.293 1.7617 1.4258c0.96801 0.78384 1.7598 2.1857 1.7598 3.1152 0 1.6102-0.41439 1.6894-8.7617 1.6894-4.8186 0-9.0043-0.24255-9.3008-0.53906-1.0638-1.0638-0.50913-3.4624 0.98437-4.2617 0.83726-0.44808 1.7634-1.4435 2.0586-2.2129 0.29524-0.76935 2.1502-11.243 4.123-23.273 3.5456-21.622 3.5684-21.888 1.9844-22.984-0.88137-0.61024-1.6016-1.9755-1.6016-3.0332v-1.9219zm-189.51 0.4043h17.723c20.053 0 23.347 0.67688 27.76 5.7031 5.8772 6.6938 4.6867 18.142-2.5215 24.252-3.2136 2.7239-11.859 6.7881-19.85 9.334l-5.8613 1.8691v4.9727c1e-5 3.9451 0.33387 5.2742 1.6172 6.4356 0.88959 0.80504 1.6172 2.3163 1.6172 3.3594 0 1.8923-0.0239 1.8965-10.514 1.8965-10.402 0-10.514-0.0193-10.514-1.8418 0-1.0131 0.72759-2.4649 1.6172-3.2266 1.5454-1.3232 1.6172-2.386 1.6172-23.857 0-20.835-0.10797-22.565-1.4902-23.748-0.81996-0.70208-1.4254-2.1481-1.3457-3.2129l0.14453-1.9356zm146.56 7.0156c-5.6819 0.0637-10.844 3.2608-13.854 9.0566-1.2758 2.4573-1.8226 5.2528-2.0742 10.615-0.5437 11.594 2.0106 17.817 8.7344 21.279 4.9234 2.5352 12.971 2.2504 17.139-0.60547 5.7436-3.9356 7.9258-9.0702 7.9258-18.652 0-10.525-2.8882-16.266-9.9551-19.787-2.6429-1.317-5.3334-1.9352-7.916-1.9062zm-123.75 0.74024c-0.49839 0.0116-1.0113 0.03456-1.541 0.07226l-3.6211 0.25782-0.22461 12.334c-0.17804 9.836-4e-3 12.332 0.85352 12.332 1.4087 0 8.4495-4.4324 11.371-7.1582 3.1948-2.9807 4.5781-5.9467 4.5781-9.8203 0-5.4366-3.9401-8.1914-11.416-8.0176zm-63.895 5.3027c-0.74658 0.29247-5.5606 13.227-5.5606 15.045 0 0.33253 2.585 0.60547 5.7461 0.60547 4.2516 0 5.654-0.26392 5.3867-1.0117-0.19875-0.55599-1.3874-3.9221-2.6426-7.4805s-2.548-6.7737-2.8711-7.1465c-0.0153-0.0177-0.03449-0.02122-0.05859-0.01172zm84.408 24.557c0.33358-5e-3 0.60742 7.2682 0.60742 16.164v16.174h-55.096l0.25391-2.6289 0.25195-2.627 37.492-0.43359 0.25976-7.2285c0.24731-6.8966 0.17194-7.2681-1.6191-8.082-3.2744-1.488-1.7748-3.3421 4.3027-5.3184 3.1136-1.0124 7.2992-2.779 9.3008-3.9258s3.9125-2.0881 4.2461-2.0938zm71.773 14.408 3.9883 3.1758c2.1937 1.7466 6.0146 4.2337 8.4902 5.5273 4.3866 2.2921 4.5003 2.4395 4.502 5.7891h0.00195v3.4375h-54.184v-3.7324c0-3.6692 0.039-3.7247 2.2246-3.1758 1.2232 0.30719 9.5925 0.75557 18.6 0.99609l16.377 0.4375v-12.455zm-62.258 27.434c3.5978 0 6.032 1.5858 6.0898 3.8262h-2.9473c-0.15679-1.1266-1.36-1.793-3.1836-1.793-1.9144 0-3.0546 0.73137-3.0625 1.7285-0.0165 1.1072 1.4848 1.5672 2.8711 1.8262l1.5859 0.31055c2.5415 0.47267 4.9589 1.5217 4.9668 3.8203-0.00825 2.3375-2.3605 3.9238-6.4121 3.9238-3.9361 0-6.4368-1.4819-6.5606-4.1172h3.0137c0.12377 1.3921 1.609 2.0644 3.5234 2.0644 1.9969 0 3.3671-0.75749 3.375-1.8906-0.00825-1.0295-1.2135-1.4753-3.0371-1.8379l-1.9238-0.38867c-2.7808-0.56333-4.5039-1.6588-4.5039-3.5625-0.00825-2.344 2.6568-3.9102 6.2051-3.9102zm36.553 0c3.5978 0 6.0321 1.5858 6.0898 3.8262h-2.9453c-0.15678-1.1266-1.3619-1.793-3.1855-1.793-1.9144 0-3.0546 0.73137-3.0625 1.7285-0.01651 1.1072 1.4868 1.5672 2.873 1.8262l1.584 0.31055c2.5415 0.47267 4.9589 1.5217 4.9668 3.8203-0.00826 2.3375-2.3605 3.9238-6.4121 3.9238-3.9361 0-6.4348-1.4819-6.5586-4.1172h3.0117c0.12378 1.3921 1.609 2.0644 3.5234 2.0644 1.9969 0 3.3671-0.75749 3.375-1.8906-0.00825-1.0295-1.2135-1.4753-3.0371-1.8379l-1.9219-0.38867c-2.7808-0.56333-4.5059-1.6588-4.5059-3.5625-0.00825-2.344 2.6568-3.9102 6.2051-3.9102zm-121.32 0.18164h6.3379c3.8866 0 5.957 1.8589 5.957 4.3906 1e-5 2.5512-2.095 4.3887-5.998 4.3887h-3.2344v4.4805h-3.0625v-13.26zm17.502 0h3.0605v11.246h7.4434v2.0137h-10.504v-13.26zm21.188 0h3.7793l5.959 13.26h-3.2676l-1.4023-3.2695h-6.3555l-1.3945 3.2695h-3.2676l5.9492-13.26zm11.643 0h3.459l4.1328 5.8652h0.16602l4.1328-5.8652h3.459l-6.1484 8.3144v4.9453h-3.0527v-4.9453l-6.1484-8.3144zm44.871 0h3.457l4.1348 5.8652h0.16407l4.1348-5.8652h3.457l-6.1484 8.3144v4.9453h-3.0527v-4.9453l-6.1465-8.3144zm36.965 0h13.484v2.0137h-5.2246v11.246h-3.0371v-11.246h-5.2227v-2.0137zm18.623 0h10.992v2.0137h-7.9297v3.5996h7.3594v2.0137h-7.3594v3.6191h7.9941v2.0137h-11.057v-13.26zm16.668 0h3.7461l5.0176 9.6094h0.19726l5.0176-9.6094h3.7461v13.26h-2.9375v-9.1094h-0.15625l-4.6719 9.0703h-2.1934l-4.6719-9.0898h-0.15625v9.1289h-2.9375v-13.26zm-164.4 2.0078v4.7969h2.8203c2.2775 0 3.293-1.0025 3.293-2.4141s-1.0146-2.3828-3.3086-2.3828h-2.8047zm37.451 0.71094-2.2852 5.3418h4.7031l-2.2852-5.3418h-0.13281zm69.309 19.943h54.184v2.4531c0 5.9492-3.1456 9.646-9.9551 11.695-8.8786 2.6721-26.733 1.8695-35.848-1.6113-4.6667-1.7822-8.3809-6.0968-8.3809-9.7344v-2.8027zm-89.088 0.00195h55.123l-0.00585 1.8184c-2e-3 1.0008-0.3858 3.1919-0.85157 4.8691-0.96446 3.473-4.8056 6.4326-10.061 7.75-5.9165 1.4832-18.217 1.7199-25.314 0.48633-12.218-2.1234-16.838-5.2225-18.334-12.297l-0.55664-2.627z" fill="#fafafa" stroke-width=".80872"/>
 <style type="text/css">.st0{fill:#FC0C18;}
	.st1{fill:#FC0C18;}</style>
</svg>
