<svg width="480" height="320" version="1.1" viewBox="0 0 480 320" xml:space="preserve" xmlns="http://www.w3.org/2000/svg" xmlns:xlink="http://www.w3.org/1999/xlink"><defs><linearGradient id="a" x1="240" x2="440" y1="320" y2="-26.41" gradientUnits="userSpaceOnUse"><stop stop-color="#04a" offset="0"/><stop stop-color="#0cf" offset="1"/></linearGradient></defs><rect id="b" width="480" height="320" ry="24" fill="url(#a)"/><path d="m104.2 77.99v10.8l0.8806 0.1033c2.518 0.2957 5.556 0.8405 9.065 1.625 3.545 0.7935 6.212 1.569 7.943 2.287 2.746 1.156 4.463 2.617 5.323 4.319 0.9099 1.832 1.379 3.943 1.379 6.4v1.175h-0.7929l-16.46 43.6v-0.2611h-17.72l-1.944 0.0273-0.6332 1.827h-0.0019c-0.04637 0.1356-0.3966 1.051-1.28 1.9-0.8834 0.8488-2.286 1.662-4.576 1.662-5.192 0-11.04-4.238-11.41-13.98v-2e-3c-0.1798-4.781 2.393-7.778 4.553-8.902l0.0019-2e-3h0.0019c0.371-0.1953 0.7203-0.3406 1.011-0.4344l0.0116-4e-3c0.6765-0.2368 1.274 0.3601 1.038 1.036-0.1376 0.3866-0.432 0.8959-0.9878 1.522l-2.394 2.293 17 11.71 21.58-22.89-0.8767-1.716-2e-3 -2e-3c-0.4146-0.7967-10.05-18.98-34.1-18.98-23.6 0.01048-40.81 16.73-40.81 39.66 0 21.56 19.37 38.41 43.97 38.41h44.88l2e-3 3.367h-40.12c-8.866 0-16.05 7.182-16.05 16.05s7.18 16.05 16.05 16.05h40.15l2e-3 1.736c0 2.783-0.4919 4.978-1.416 6.659-0.8843 1.608-2.586 2.979-5.268 4.068-1.303 0.5223-4.026 1.003-7.984 1.301h-2e-3c-4 0.3117-7.025 0.5396-9.083 0.6955l-0.9215 0.0701v10.83h271.6v-10.83l-0.9215-0.0701c-2.068-0.1559-5.092-0.3838-9.092-0.6955h-2e-3c-5e-3 -4.1e-4 -8e-3 -2e-3 -0.0136-2e-3l-0.0234-2e-3c-3.934-0.2984-6.648-0.7772-7.947-1.298l-4e-3 -2e-3c-2.679-1.088-4.38-2.459-5.264-4.066-0.9245-1.681-1.416-3.876-1.416-6.659l2e-3 -1.736h40.16c8.866 0 16.05-7.182 16.05-16.05-0.0104-8.866-7.192-16.05-16.06-16.05h-40.13l2e-3 -3.316h35.72v-13.13h13.89v13.07h39.25v-20.06l-0.0896-2.905-0.5163 0.0351-2.396 0.1676h-6e-3c0.0283-3e-3 -0.0658-3e-3 -0.1305-0.0156-0.0641-0.0128-0.1134-0.0488-0.0702-0.0117-0.1942-0.1706-0.3767-0.5236-0.5007-1.142l-4.684-30.02c-0.0658-0.4187-6e-3 -0.5258 0.01-0.7286 0.0313-0.3015 0.3089-0.6292 0.5358-0.8572 0.2196-0.172 0.3126-0.3089 0.8514-0.5689h2e-3l1.537-0.7501v-19.63h-38.38l-0.8903 3.033-1.192-3.033h-37.14v10.58c-1.722-1.838-3.639-3.472-5.695-4.931l0.01-6.829c0-2.457 0.4695-4.568 1.379-6.4 0.8605-1.703 2.578-3.165 5.327-4.321 1.732-0.7178 4.394-1.492 7.937-2.285 3.511-0.7847 6.537-1.329 9.065-1.625l0.8826-0.1033v-10.8zm3.055 3.033h265.5v5.138c-2.268 0.3301-4.733 0.7661-7.579 1.405-3.647 0.8174-6.466 1.622-8.438 2.443h-4e-3c-3.254 1.371-5.617 3.288-6.854 5.751l-0.1072 0.2124v0.1033c-1.044 2.216-1.59 4.714-1.59 7.448l-6e-3 4.902c-6.202-3.585-13.51-5.576-21.35-5.576-5.319 0-10.48 0.8662-15.29 2.408v-1.722c0-2.737-0.5549-5.239-1.59-7.446v-0.1091l-0.1091-0.2124c-1.246-2.457-3.597-4.376-6.852-5.747l-2e-3 -0.0019h-2e-3c-1.966-0.8192-4.782-1.622-8.415-2.437l-0.0468-0.0116-0.0429-0.01559-0.0507-0.0097c-3.116-0.6913-6.307-1.042-9.498-1.042-3.191 0-6.391 0.3507-9.498 1.042l-0.0507 0.0097-0.0584 0.02143c-3.645 0.8171-6.465 1.622-8.436 2.443h-2e-3l-2e-3 0.0019c-3.254 1.371-5.617 3.288-6.854 5.751v0.0019h-2e-3c-1.117 2.246-1.666 4.813-1.685 7.608-9.456 1.299-17.59 5.717-24.17 13.25-2.577-3.984-5.422-6.966-9.511-8.929-0.9242-0.4437-1.942-0.813-3-1.155v-3.037c0-2.855-0.5674-5.475-1.693-7.748l-4e-3 -0.0078c-1.246-2.457-3.597-4.378-6.852-5.749h-2e-3l-2e-3 -0.0019c-1.972-0.8215-4.793-1.624-8.44-2.441l-0.0117-0.0039-0.115-0.02338 0.0214 0.0058c-3.116-0.6913-6.307-1.042-9.498-1.042-3.191 0-6.391 0.3507-9.498 1.042l-0.0506 0.0097-0.0429 0.01559-0.0468 0.01169c-3.632 0.8151-6.448 1.618-8.415 2.437h-2e-3l-2e-3 0.0019c-3.254 1.371-5.617 3.288-6.854 5.751v0.0019h-2e-3c-1.137 2.285-1.695 4.9-1.695 7.752l-0.0253 33.8-12.58-32.62h-24.05v-1.175c0-2.855-0.5674-5.477-1.693-7.75l-4e-3 -0.0078c-1.246-2.457-3.597-4.376-6.852-5.747l-2e-3 -0.0019h-2e-3c-1.971-0.8213-4.792-1.626-8.438-2.443h-2e-3c-2.836-0.6386-5.308-1.075-7.577-1.405zm87.86 8.502c2.96 1e-6 5.908 0.3226 8.808 0.9663 0.0443 0.01558 0.1095 0.0271 0.1832 0.03702 3.52 0.7894 6.17 1.561 7.894 2.276 2.746 1.156 4.463 2.616 5.325 4.317 0.9108 1.832 1.383 3.944 1.383 6.402l-0.0273 2.264c-3.289-0.7043-7.128-1.087-11.91-1.087h-35.25v-1.175c0-2.457 0.4695-4.568 1.379-6.4 0.8598-1.702 2.576-3.163 5.321-4.319l6e-3 -0.0019c1.729-0.7165 4.39-1.49 7.924-2.281h0.01l0.1072-0.02338c2.912-0.6493 5.874-0.9741 8.847-0.9741zm89.82 0c2.958 0 5.906 0.3215 8.804 0.9644 0.0456 0.01614 0.1118 0.0286 0.189 0.03897 3.522 0.79 6.174 1.562 7.898 2.278 2.746 1.156 4.463 2.617 5.323 4.319 0.9099 1.832 1.379 3.943 1.379 6.4v2.786c-5.373 2.135-10.19 5.19-14.08 9.042-6.699-8.148-17.07-12.42-30.15-12.42-0.9997 0-1.966 0.0804-2.94 0.1442 0.0555-2.264 0.5062-4.239 1.36-5.956v-0.0019c0.8614-1.701 2.579-3.16 5.325-4.315 1.729-0.7165 4.39-1.49 7.924-2.281h0.01l0.1072-0.02338c2.912-0.6493 5.872-0.9741 8.845-0.9741zm41.94 16.56c14.31 0 26.23 6.947 32.38 17.68l0.9313 1.623v-17.45h31.71l3.84 9.782 2.862-9.782h32.73v14.4c-1.081 0.5515-1.917 1.142-2.431 1.968-0.5605 0.8996-0.697 2.022-0.4734 3.45l4.701 30.04 2e-3 0.01c0.2064 1.021 0.5774 2.163 1.525 3.016h2e-3l2e-3 2e-3c0.7365 0.6581 1.574 0.7992 2.12 0.8261v16.32h-32.79v-13.08h-20.35v13.11h-30.76v-9.12l-0.828 0.7326s-11.51 10.12-26.24 10.12c-18.9 0-31.56-13.97-31.56-13.97l-0.8689-0.9605v13.16h-22.02c-19.86 0-36.82-10.86-41.57-30.7l-0.2026-0.8455-0.6293 0.602c-1.071 1.027-4.147 3.38-8.416 5.775-4.27 2.395-9.756 4.855-15.72 6.197-0.5101 0.1135-0.9628 0.2776-1.301 0.6312-0.339 0.354-0.491 0.858-0.491 1.444 0 0.642 0.3529 1.174 0.791 1.557s0.976 0.655 1.502 0.867c0.714 0.2876 1.289 0.4264 1.668 0.5065v13.98h-123c-22.65 0-40.75-15.53-40.75-35.18 0-19.72 14.07-36.43 37.58-36.43 21.3 0 30.19 15.34 31.05 16.92l-18.1 19.2-11.5-7.92c0.3618-0.406 0.8706-1.041 1.274-2.014 0.2997-0.7227 0.4878-1.571 0.3254-2.457-0.1625-0.8854-0.688-1.781-1.689-2.548h-0.0019c-0.8791-0.6704-2.088-0.784-3.343-0.489-1.255 0.295-2.586 1.001-3.809 2.069-2.445 2.137-4.448 5.754-4.271 10.5 0.4129 10.79 7.155 17.08 14.65 17.08 3.476 0 5.739-1.431 7.088-2.864 0.9638-1.024 1.468-2.042 1.685-2.552h14.16v11.98l0.9663 0.1773 20.96-55.51h23.42l19.24 49.88 0.0136 0.0273s0.3648 0.6883 0.9118 1.467c0.547 0.7787 1.253 1.667 2.124 2.102l0.7189 0.3604 4e-3 -0.8046s0.0818-32.89 0.0818-33.84c0-0.9693-0.1029-2.104-0.8183-2.924-0.782-0.9019-1.87-1.377-2.424-1.578v-14.67h33.28c6.213 0 10.69 0.6316 14.18 1.804l0.7267 0.4189v-0.1909c1.118 0.4178 2.137 0.8891 3.053 1.432 3.839 2.275 6.174 5.665 8.703 10.24l0.376 0.6799 0.4617-0.6234c6.948-9.387 16.42-15.52 30.04-15.52 14.05 0 23.87 5.16 29.49 13.73l0.3682 0.563 0.4325-0.5182c7.872-9.449 20.61-13.86 32.25-13.86zm-83.62 6.273c-2.128 1.519-4.102 3.23-5.909 5.167 1.805-1.943 3.783-3.651 5.909-5.167zm82.29 0.0468c-18.66 0-32.67 13.16-32.67 30.11s13.67 30.89 32.67 30.89c19.01 0 32.67-13.93 32.67-30.89s-14.01-30.11-32.67-30.11zm-245.1 0.1753c-14.89 0-31.32 10.52-31.32 29.49 0 12.37 12.15 29.5 33.97 29.52h18.29v-14.31h-3.347s-2.057 5.477-11.78 5.477c-16.71 0-21.82-15.2-21.82-23.5 0-8.304 4.761-18.38 15.49-18.38 10.74 0 11.08 6.974 11.08 8.658 0 1.673-0.9663 2.557-0.9663 2.911 0 0.1351 0.04024 0.2396 0.113 0.302l1.674 1.372c0.582 0.4677 1.425 0.4158 1.944-0.1247l9.821-10.34s-8.709-11.07-23.15-11.07zm186.3 0.1247c-14.89 0-31.31 10.52-31.31 29.49 0 12.36 12.14 29.5 33.95 29.5h18.3v-14.31h-3.347s-2.059 5.477-11.79 5.477c-16.71 0-21.81-15.19-21.81-23.5 0-8.304 4.761-18.38 15.49-18.38 10.74 0 11.08 6.974 11.08 8.658 0 1.673-0.9663 2.555-0.9663 2.909 0 0.1351 0.0422 0.2396 0.115 0.302l1.674 1.372c0.582 0.4677 1.423 0.4158 1.942-0.1247l9.823-10.34s-8.711-11.07-23.15-11.05zm-132.4 1.446-17.94 48.93s-0.4471 1.413-1.767 2.743c-1.195 1.216-2.805 1.767-2.805 1.767v4.148h17.67v-4.148s-2.058-0.2178-2.64-1.683c-0.3534-0.8834-0.3534-2.298 0-3.182 0.3534-0.8834 4.052-10.78 4.052-10.78h18.04s3.69 9.812 4.22 11.05c0.5301 1.237 0.5295 2.214-0.1773 3.45-0.7068 1.237-2.11 1.06-2.11 1.06v4.241h22.09v-4.148s-2.121-0.7069-2.994-1.767c-0.8834-1.071-1.755-2.306-2.285-3.626l-18.3-48.06zm45.66 0v4.688s1.662 0.9668 2.369 1.674c0.7067 0.7068 0.6234 2.472 0.6234 2.472v41.51c1e-5 0-0.1764 1.061-1.06 1.944-0.873 0.873-2.11 1.144-2.11 1.144v4.146h20.41v-4.239s-0.9778-0.2608-1.851-1.321c-0.8835-1.06-0.9663-1.683-0.9663-1.683v-9.178s9.905-2.712 17.42-6.184c6.506-3.004 14.07-7.234 14.07-19.25s-10.38-15.72-20.77-15.72zm223.3 0-8.085 23.5-7.567-23.46h-20.93v4.117s2.494 0.6232 2.952 1.372c0.4365 0.7068 0.0429 2.256 0.0429 2.256l-6.642 41.47s-0.177 1.59-1.237 2.827c-1.06 1.226-2.505 1.455-2.505 1.455v4.064h18.21v-3.793s-1.757-2.7e-4 -2.724-1.424c-0.7068-1.029-0.5299-2.911-0.5299-2.911l4.573-31.45 9.063 26.68h11.08l9.145-28.45s5.012 32.16 5.188 33.57c0.1767 1.414-0.0836 1.943-0.7072 2.827-0.6132 0.8834-2.465 1.153-2.465 1.153v3.824h21.03v-3.565s-1.673-0.8005-2.016-1.767c-0.3534-0.9666-0.5305-1.756-0.7072-3.18-0.1767-1.414-5.801-39.75-5.977-41.16-0.1767-1.413-0.1762-2.129 0.6137-3.096 0.6548-0.8003 2.11-1.414 2.11-1.414v-3.45zm-77.76 7.421c7.213 0 17.07 5.301 17.07 21.2 0 15.9-8.804 21.2-17.07 21.2-8.273 0-16.89-4.241-16.89-21.2 0-16.96 9.676-21.2 16.89-21.2zm-122.7 0.5845c4.847-0.1346 11.31 1.094 11.3 8.603 0 9.718-16.53 16.61-16.53 16.61v-24.56s2.327-0.5719 5.235-0.6527zm-31.36 3.234 0.7423 0.2163h4e-3c0.1435 0.0391 0.5866 0.2209 0.904 0.4325 0.1926 0.1284 0.3179 0.3302 0.3429 0.5553l2e-3 6e-3v6e-3c0.0164 0.1228 0.0273 0.3014 0.0273 0.526 0 0.5395-0.0346 13.55-0.0565 23.19l-1.981-5.136zm-31.93 0.7754 5.975 16.78h-11.61zm88.22 25.85c4.735 13.9 15.92 23.82 30.45 27.54l-4e-3 4.997h-36.53l-0.0195-29.52c0.1546-0.0861 0.3171-0.1586 0.4715-0.2474 1.688-0.9911 4.38-1.886 5.632-2.772zm-9.108 4.557 0.0195 27.98h-47.3l4e-3 -3.367h38.8l-0.0117-19.91-0.902-0.1578c2.858-0.873 4.382-2.226 6.889-3.39 0.8988-0.4042 1.704-0.7786 2.505-1.157zm77.91 15.64c2.853 2.261 6.921 4.995 11.97 7.142l4e-3 5.192h-47.3l4e-3 -4.317c3.223 0.6144 6.579 0.9605 10.06 0.9605h25.26zm51.51 4.035-6e-3 8.3h-36.49l-2e-3 -4.035c4.198 1.454 8.947 2.445 14.19 2.445 9.369 0 17.21-3.63 22.3-6.71zm-216.2 4.933h36.49l-2e-3 3.367h-36.48zm102.5 11.86c2.484 0 4.427 0.664 6.006 1.942l-2.026 2.858c-1.341-0.9354-2.796-1.444-4.095-1.444-0.977 0-1.465 0.4155-1.465 0.9352v0.0409c0 0.6652 0.4982 0.9565 2.525 1.424 3.357 0.7275 5.445 1.82 5.445 4.553v0.0409c0 2.983-2.359 4.76-5.903 4.76-2.578 0-5.04-0.8211-6.838-2.422l2.256-2.691c1.445 1.143 3.044 1.755 4.738 1.755 1.081 0 1.674-0.3739 1.674-0.9975v-0.0409c0-0.6028-0.4774-0.935-2.463-1.403-3.108-0.7067-5.51-1.59-5.51-4.594v-0.0429c0-2.713 2.153-4.676 5.656-4.676zm39.87 0c2.484 0 4.427 0.664 6.006 1.942l-2.026 2.858c-1.341-0.9354-2.796-1.444-4.095-1.444-0.977 0-1.465 0.4155-1.465 0.9352v0.0409c0 0.6652 0.4982 0.9565 2.525 1.424 3.357 0.7275 5.445 1.82 5.445 4.553v0.0409c0 2.983-2.359 4.76-5.903 4.76-2.578 0-5.04-0.8211-6.838-2.422l2.256-2.691c1.445 1.143 3.044 1.755 4.738 1.755 1.081 0 1.674-0.3739 1.674-0.9975v-0.0409c0-0.6028-0.4774-0.935-2.463-1.403-3.108-0.7067-5.51-1.59-5.51-4.594v-0.0429c0-2.713 2.153-4.676 5.656-4.676zm-94.01 0.1344h3.908l6.225 14.72h-4.345l-1.06-2.609h-5.654l-1.038 2.609h-4.261zm-24.16 0.1033h4.043v11.06h7.078v3.544h-11.12zm38.33 0h4.615l3.004 5.323 3.024-5.323h4.532l-5.551 9.085v5.529h-4.074v-5.467zm52.64 0h4.613l3.004 5.323 3.024-5.323h4.532l-3.62 5.927c-0.0225 0.0206-0.0437 0.0418-0.0663 0.0624l-0.3254 0.2961v0.2825l-1.537 2.517v5.529h-4.076v-5.467zm61.44 0h0.074v6e-3l0.0273-6e-3h11.65v3.441h-7.742v2.215h7.016v3.189h-7.016v2.318h7.846v3.441h-11.86zm20.17 0h4.292l3.483 5.656 3.482-5.656h4.282v14.61h-4.033v-8.387l-3.743 5.716h-0.0818l-3.711-5.675v8.346h-3.971zm-192.9 0.0117h6.278c3.69 0 6.069 1.901 6.069 5.134v0.0409c0 3.44-2.649 5.26-6.287 5.26h-2.007v4.177h-4.052zm151.9 0h12.81v3.544h-4.386v11.06h-4.052v-11.06h-4.376zm-147.8 3.388v3.865h1.923c1.445 0 2.316-0.7478 2.316-1.902v-0.0409c0-1.247-0.8724-1.923-2.338-1.923zm42.35 1.299-1.654 4.158h3.285zm-50.26 18.67h36.44l-2e-3 1.736c0 3.213 0.5626 5.899 1.787 8.12 1.276 2.328 3.609 4.126 6.784 5.42l8e-3 4e-3c1.851 0.7382 4.712 1.197 8.88 1.512l0.037 4e-3h2e-3l0.0565 6e-3 0.0175 2e-3c3.017 0.2305 6.087 0.3546 9.118 0.3546 3.029 0 6.1-0.1152 9.122-0.3565h6e-3l0.1188-0.01h-0.0156c4.177-0.3149 7.029-0.763 8.894-1.514h2e-3l2e-3 -2e-3c3.175-1.294 5.499-3.083 6.784-5.408l2e-3 -2e-3c1.224-2.221 1.787-4.907 1.787-8.12l-2e-3 -1.746h36.48v1.736c0 3.213 0.5626 5.899 1.787 8.12 1.276 2.328 3.611 4.126 6.786 5.42l4e-3 2e-3 2e-3 2e-3c1.85 0.7377 4.709 1.197 8.872 1.512l0.1286 0.01 2e-3 2e-3c3.017 0.2305 6.088 0.3546 9.12 0.3546 3.029 0 6.1-0.1152 9.122-0.3565h4e-3l0.1208-0.01h-0.0156c4.177-0.3149 7.029-0.763 8.894-1.514h2e-3l2e-3 -2e-3c3.175-1.294 5.499-3.083 6.784-5.408v-2e-3c1.224-2.221 1.786-4.906 1.787-8.118v-2e-3l2e-3 -1.746h36.46l-2e-3 1.736c0 3.213 0.5626 5.899 1.787 8.12 1.276 2.328 3.611 4.126 6.786 5.42l4e-3 2e-3 2e-3 2e-3c1.851 0.7382 4.712 1.197 8.88 1.512 3.041 0.2396 5.279 0.4066 7.205 0.5533v4.98h-265.5v-4.98c1.925-0.1468 4.163-0.3137 7.195-0.5533 4.177-0.3149 7.029-0.763 8.894-1.514h2e-3l2e-3 -2e-3c3.175-1.294 5.499-3.083 6.784-5.408l2e-3 -2e-3c1.224-2.221 1.787-4.907 1.787-8.12zm39.48 0h47.35l2e-3 1.736c0 2.783-0.4899 4.978-1.414 6.659-0.8838 1.607-2.587 2.978-5.266 4.066-1.302 0.5227-4.026 1.005-7.986 1.303l0.074-4e-3c-0.2074 0-0.2493 0.0117-0.1247 0.0117h-0.037l-0.039 2e-3c-2.96 0.2269-5.927 0.3507-8.882 0.3507-2.957 0-5.925-0.1138-8.88-0.3507l-0.039-2e-3h-0.0409c0.1243 0 0.0829-0.0117-0.1247-0.0117l0.076 4e-3c-3.958-0.2981-6.681-0.7791-7.984-1.301l-4e-3 -2e-3c-2.679-1.088-4.382-2.459-5.266-4.066-0.9245-1.681-1.414-3.876-1.414-6.659zm89.87 0h47.35l2e-3 1.736c0 2.783-0.4919 4.978-1.416 6.659-0.8838 1.607-2.585 2.978-5.264 4.066-1.302 0.5227-4.028 1.005-7.988 1.303l0.076-4e-3c-0.2074 0-0.2493 0.0117-0.1247 0.0117h-0.039l-0.039 2e-3c-2.96 0.2269-5.927 0.3507-8.882 0.3507-2.957 0-5.925-0.1138-8.88-0.3507l-0.039-2e-3h-0.0409c0.1242 0 0.0827-0.0117-0.1247-0.0117l0.076 4e-3c-3.958-0.2981-6.681-0.7791-7.984-1.301l-4e-3 -2e-3c-2.679-1.088-4.38-2.459-5.264-4.066-0.9245-1.681-1.416-3.876-1.416-6.659z" fill="#fff"/></svg>
