<svg width="480" height="320" version="1.1" viewBox="0 0 127 84.667" xmlns="http://www.w3.org/2000/svg" xmlns:xlink="http://www.w3.org/1999/xlink">
 <defs>
  <linearGradient id="a" x1="10.583" x2="36.262" y1="-11.178" y2="84.657" gradientUnits="userSpaceOnUse">
   <stop stop-color="#ffe16b" offset="0"/>
   <stop stop-color="#d48e15" offset="1"/>
  </linearGradient>
 </defs>
 <rect width="127" height="84.667" ry="4.2333" fill="url(#a)" stroke-linecap="square" stroke-linejoin="round" stroke-width=".52917" style="paint-order:stroke fill markers"/>
 <g transform="matrix(.17639 0 0 .17585 10.583 25.785)" fill="#fff">
  <path d="m127.68 27.12c0.543 1.95 1.425 5.151 2.187 9.414 0.762 4.269 1.401 9.606 1.455 15.821 0.054 6.226-0.48 13.336-2.07 21.145-1.593 7.818-4.242 16.341-8.425 25.377-4.131 8.934-10.01 17.16-17.273 24.48-7.275 7.329-15.936 13.74-25.614 19.038-9.693 5.301-20.397 9.482-31.746 12.338-11.355 2.857-23.346 4.384-35.598 4.384h-0.498c-0.168 0-0.333 0-0.498-3e-3 -0.168 0-0.333 0-0.501-3e-3 -0.165 0-0.333-3e-3 -0.498-6e-3 1.992-1.422 3.6-2.635 4.866-3.979 1.269-1.344 2.202-2.817 2.847-4.761 0.644-1.943 1.004-4.355 1.127-7.577 0.127-3.216 0.015-7.239-0.279-12.402-0.294-5.16-0.65-12.511-1.046-20.808-0.39-8.283-0.822-17.505-1.257-26.433-0.435-8.91-0.879-17.529-1.305-24.639-0.423-7.102-0.831-12.702-1.194-15.597-0.306-2.463-0.678-4.608-1.149-6.438s-1.044-3.345-1.749-4.557c-0.708-1.209-1.554-2.109-2.571-2.709-1.02-0.6-2.214-0.897-3.615-0.897-0.246 0-0.498 9e-3 -0.759 0.03-0.258 0.018-0.525 0.045-0.798 0.081s-0.552 0.084-0.84 0.138-0.579 0.117-0.882 0.192c8.256-6.372 15.513-11.353 22.071-15.237 6.552-3.882 12.411-6.678 17.877-8.682 5.463-1.998 10.535-3.207 15.516-3.915 4.98-0.708 9.867-0.915 14.964-0.915 1.596 0 3.213 0.021 4.857 0.051 1.647 0.033 3.321 0.078 5.034 0.123s3.467 0.093 5.264 0.135c1.8 0.042 3.649 0.075 5.551 0.096 7.98 0.081 14.295 0.906 19.278 2.112 4.989 1.206 8.648 2.793 11.321 4.389 2.674 1.596 4.36 3.204 5.395 4.455 1.032 1.248 1.416 2.139 1.485 2.301-0.804 0.69-1.401 1.386-1.809 2.169s-0.63 1.649-0.681 2.67c-0.054 1.026 0.066 2.205 0.33 3.615 0.267 1.413 0.684 3.057 1.23 5.004zm-31.704 77.052c3.387-6.24 5.724-12.843 7.212-19.534 1.488-6.683 2.124-13.454 2.109-20.048-0.018-6.582-0.687-12.985-1.815-18.942-1.125-5.952-2.709-11.457-4.557-16.257-1.578-4.104-3.393-7.362-5.424-9.945-2.028-2.581-4.275-4.482-6.724-5.874-2.451-1.389-5.102-2.268-7.94-2.799s-5.868-0.717-9.066-0.717c-0.537 0-1.08 6e-3 -1.626 0.015-0.546 0.012-1.101 0.024-1.656 0.042s-1.119 0.039-1.683 0.063c-0.567 0.024-1.137 0.051-1.713 0.081-7.785 0.393-13.473 2.217-17.625 4.959-4.158 2.742-6.777 6.405-8.415 10.467-1.644 4.065-2.304 8.532-2.541 12.882-0.24 4.35-0.051 8.586 0 12.176 0.057 3.598 0.414 11.203 0.921 20.671 0.507 9.492 1.17 20.862 1.833 31.935 0.666 11.106 1.335 21.912 1.857 30.216 0.519 8.319 0.891 14.118 0.96 15.174 5.214-0.42 9.968-0.963 14.505-2.16 4.536-1.194 8.853-3.042 13.194-6.066s8.7-7.221 13.326-13.113c4.616-5.887 9.495-13.458 14.868-23.226"/>
  <path d="m195.06 150.91c0.09-0.042 0.594-0.261 1.302-0.708 0.708-0.449 1.623-1.127 2.532-2.09 0.909-0.96 1.815-2.205 2.511-3.783 0.696-1.575 1.179-3.486 1.248-5.781 0.066-2.292 0.096-7.578 0.096-14.277 3e-3 -6.685-0.021-14.772-0.06-22.683-0.033-7.899-0.084-15.622-0.129-21.612-0.048-5.982-0.093-10.239-0.123-11.223-0.396-0.012-0.798-0.021-1.209-0.027-0.411-9e-3 -0.828-0.015-1.254-0.021-0.426-3e-3 -0.858-6e-3 -1.296-9e-3 -0.435-3e-3 -0.882-3e-3 -1.329-3e-3 -3.126 0-6.511 0.057-9.901 0.141-3.387 0.087-6.785 0.204-9.938 0.327-3.15 0.123-6.06 0.249-8.475 0.354-2.412 0.105-4.332 0.186-5.508 0.222-1.182 2.994-3.174 7.542-4.965 13.344-1.792 5.811-3.382 12.885-3.748 20.919-0.369 8.055 0.492 17.075 3.607 26.766 3.12 9.711 8.508 20.099 17.196 30.858-3.171-0.501-6.447-2.274-9.666-4.894-3.219-2.619-6.375-6.084-9.304-9.98-2.925-3.894-5.625-8.217-7.934-12.552-2.307-4.329-4.221-8.673-5.586-12.622-1.359-3.945-2.481-8.183-3.294-12.638-0.813-4.446-1.311-9.102-1.431-13.881-0.12-4.776 0.141-9.676 0.855-14.61 0.711-4.929 1.875-9.9 3.561-14.82 1.68-4.914 3.324-8.523 4.869-11.31 1.542-2.788 2.984-4.752 4.256-6.375 1.272-1.62 2.376-2.901 3.243-4.314 0.87-1.413 1.503-2.964 1.83-5.121s0.07-3.774-0.513-4.989c-0.579-1.212-1.482-2.019-2.436-2.559-0.954-0.537-1.965-0.807-2.763-0.942-0.798-0.132-1.383-0.132-1.488-0.132 7.518-0.489 15.64-0.966 23.659-1.413 8.022-0.447 15.941-0.861 23.058-1.227 7.116-0.366 13.428-0.681 18.234-0.924 4.802-0.243 8.099-0.414 9.185-0.495 0.048-3e-3 0.096-6e-3 0.141-9e-3 0.048-3e-3 0.093-6e-3 0.138-9e-3 0.045 0 0.09-3e-3 0.135-3e-3 0.042-3e-3 0.087-3e-3 0.129-3e-3 0.921 0 1.536 0.21 1.899 0.546 0.366 0.339 0.48 0.804 0.399 1.317-0.081 0.516-0.357 1.08-0.774 1.611s-0.975 1.032-1.617 1.422c-0.672 0.408-1.146 0.873-1.479 1.416s-0.528 1.164-0.636 1.875c-0.111 0.711-0.138 1.512-0.141 2.424s0.018 1.929 9e-3 3.072c-9e-3 1.14-0.069 7.398-0.15 16.269-0.081 8.886-0.186 20.406-0.291 32.028-0.108 11.652-0.216 23.412-0.3 32.705-0.087 9.313-0.147 16.144-0.165 17.893-0.018 1.752 0.189 3.357 0.576 4.791 0.384 1.437 0.948 2.697 1.65 3.762 0.699 1.068 1.53 1.935 2.454 2.577 0.921 0.641 1.936 1.061 2.995 1.229-3.559 0-7.39 9e-3 -11.155 0.024-3.764 0.018-7.46 0.036-10.742 0.057-3.282 0.018-6.15 0.039-8.259 0.054-2.112 0.021-3.462 0.033-3.708 0.036zm7.722-97.721c0.054-1.102 0.132-2.407 0.204-3.774 0.069-1.371 0.135-2.802 0.162-4.158 0.024-1.356 0.015-2.634-0.063-3.696s-0.225-1.908-0.471-2.397c-0.249-0.495-0.552-0.987-0.924-1.446-0.375-0.459-0.816-0.888-1.347-1.248-0.528-0.363-1.143-0.666-1.857-0.876-0.717-0.213-1.533-0.33-2.463-0.33-0.36 0-0.741 0.018-1.137 0.057-0.396 0.036-0.813 0.093-1.248 0.174-0.435 0.078-0.888 0.177-1.362 0.3-0.472 0.123-0.967 0.27-1.483 0.441-1.845 0.609-3.588 1.371-5.346 2.43-1.758 1.062-3.524 2.421-5.417 4.221-1.896 1.806-3.921 4.053-6.186 6.894s-4.776 6.276-7.644 10.449c0.846 0.024 1.722 0.045 2.619 0.063 0.897 0.015 1.815 0.03 2.748 0.042 0.933 9e-3 1.884 0.018 2.838 0.024 0.957 3e-3 1.92 6e-3 2.883 6e-3 2.325 0 4.647-0.012 6.863-0.039 2.217-0.024 4.326-0.06 6.225-0.102 1.893-0.045 3.58-0.093 4.945-0.147s2.412-0.111 3.036-0.168c0.879-0.084 1.581-0.27 2.145-0.57 0.561-0.3 0.984-0.717 1.305-1.26 0.321-0.54 0.537-1.212 0.687-2.022 0.15-0.813 0.234-1.764 0.288-2.868"/>
  <path d="m267.11 76.953c7.122-4.431 13.077-8.403 18.077-12.006 4.995-3.6 9.039-6.84 12.352-9.813 3.315-2.977 5.892-5.685 7.956-8.235 2.064-2.547 3.615-4.932 4.869-7.257-1.053-1.536-2.127-2.994-3.297-4.32-1.17-1.329-2.433-2.52-3.864-3.519s-3.033-1.806-4.875-2.364c-1.843-0.558-3.928-0.864-6.331-0.864-0.465 0-0.942 9e-3 -1.431 0.033s-0.99 0.06-1.506 0.105c-0.516 0.048-1.044 0.108-1.584 0.183-0.54 0.072-1.095 0.159-1.665 0.258-3.503 0.606-6.695 1.536-9.515 2.76-2.817 1.221-5.265 2.742-7.275 4.527s-3.585 3.84-4.659 6.135c-1.074 2.298-1.647 4.839-1.659 7.592-0.015 2.758-0.027 9.538-0.043 18.175-0.014 8.655-0.032 19.178-0.044 29.388-0.015 10.236-0.027 20.15-0.036 27.528-9e-3 7.395-0.015 12.231-0.015 12.285-6e-3 1.251 0.036 2.298 0.233 3.249 0.193 0.951 0.541 1.803 1.141 2.667s1.452 1.734 2.664 2.715c1.209 0.984 2.775 2.082 4.803 3.399h-7.53-10.528-10.364-7.056c0.576-0.06 1.29-0.207 2.037-0.531s1.527-0.828 2.235-1.602c0.711-0.774 1.35-1.821 1.815-3.231s0.756-3.183 0.774-5.412c0.018-3 0.015-9.369-0.03-17.386-0.045-8.003-0.132-17.645-0.27-27.218-0.141-9.55-0.336-19.035-0.6-26.769-0.264-7.719-0.6-13.698-1.02-16.276-0.423-2.573-0.927-4.469-1.5-5.873-0.57-1.404-1.209-2.316-1.893-2.913-0.687-0.597-1.419-0.879-2.187-1.026-0.768-0.15-1.566-0.165-2.382-0.222 7.473-4.131 14.103-7.446 20.105-10.095 6-2.646 11.377-4.632 16.348-6.102 4.968-1.47 9.531-2.421 13.904-3.009 4.374-0.585 8.559-0.807 12.774-0.807h0.45c0.147 0 0.3 3e-3 0.447 3e-3 0.151 0 0.301 3e-3 0.451 3e-3 0.15 3e-3 0.3 3e-3 0.45 6e-3 4.374 0.06 8.328 0.453 12.003 1.221 3.672 0.768 7.064 1.908 10.322 3.459 3.255 1.554 6.372 3.519 9.495 5.934 3.124 2.418 6.253 5.286 9.526 8.643-5.991 6.546-12.259 11.795-18.604 16.068-6.347 4.278-12.767 7.572-19.052 10.2-6.289 2.628-12.436 4.593-18.238 6.204-5.807 1.617-11.267 2.88-16.178 4.11z"/>
  <path d="m338.53 23.865 41.529 1.959c-1.785 0.732-3.3 1.503-4.566 2.31-1.263 0.804-2.274 1.647-3.063 2.52-0.786 0.876-1.338 1.779-1.686 2.709-0.348 0.933-0.489 1.89-0.438 2.868s0.075 2.745 0.087 4.86c0.012 2.118 9e-3 4.584-3e-3 6.954-9e-3 2.375-0.027 4.656-0.039 6.396-0.018 1.743-0.027 2.946-0.03 3.165h37.164c3e-3 -0.165 0.015-1.062 0.021-2.418s3e-3 -3.163-0.024-5.146c-0.024-1.976-0.075-4.13-0.165-6.173-0.087-2.043-0.219-3.978-0.408-5.523-0.186-1.548-0.642-2.883-1.284-4.035s-1.476-2.124-2.415-2.949c-0.936-0.822-1.981-1.5-3.055-2.058-1.074-0.561-2.172-1.005-3.216-1.371 5.38 0.039 10.387 0.129 14.884 0.237 4.496 0.111 8.483 0.243 11.825 0.372 3.339 0.129 6.033 0.255 7.941 0.351s3.036 0.165 3.24 0.177c-1.197 1.017-2.193 1.86-3.039 2.835-0.849 0.978-1.539 2.094-2.124 3.651-0.579 1.557-1.053 3.558-1.455 6.309-0.402 2.754-0.738 6.264-1.047 10.839-0.306 4.578-0.69 11.709-1.095 19.962-0.408 8.271-0.837 17.667-1.23 26.748-0.39 9.096-0.747 17.87-1.011 24.858-0.264 6.996-0.429 12.189-0.444 14.109-0.012 1.917 0.105 3.597 0.354 5.067 0.252 1.467 0.627 2.727 1.131 3.804 0.501 1.077 1.128 1.968 1.872 2.708 0.747 0.738 1.614 1.326 2.592 1.785-4.569-0.039-9.042-0.084-13.193-0.12-4.152-0.042-7.983-0.078-11.274-0.108-3.286-0.033-6.034-0.06-8.008-0.081-1.98-0.021-3.189-0.03-3.408-0.033 0.129-9e-3 0.837-0.066 1.839-0.336 1.002-0.264 2.295-0.744 3.597-1.598 1.302-0.852 2.607-2.079 3.631-3.846 1.026-1.767 1.767-4.071 1.944-7.074 0.174-3 0.423-8.799 0.696-15.846 0.273-7.035 0.576-15.312 0.858-23.292 0.282-7.965 0.546-15.64 0.741-21.501 0.198-5.853 0.33-9.903 0.357-10.638-4.989 0.081-9.763 0.147-14.137 0.192-4.371 0.048-8.34 0.081-11.711 0.099-3.372 0.021-6.147 0.033-8.133 0.039-1.986 3e-3 -3.186 3e-3 -3.405 3e-3 -0.033 0.822-0.24 5.346-0.519 11.775-0.282 6.437-0.639 14.796-0.978 23.262-0.342 8.481-0.666 17.072-0.886 23.946-0.212 6.885-0.323 12.042-0.224 13.626 0.095 1.584 0.285 2.991 0.576 4.233 0.285 1.242 0.678 2.319 1.17 3.237 0.495 0.918 1.092 1.68 1.8 2.297 0.711 0.615 1.53 1.086 2.463 1.419h-12.682-10.962-7.859-3.36c0.093 0 0.618-0.015 1.359-0.234 0.741-0.225 1.698-0.657 2.664-1.502 0.966-0.846 1.938-2.1 2.706-3.972 0.768-1.869 1.332-4.35 1.485-7.644s0.453-10.494 0.792-19.594c0.339-9.08 0.72-20.045 1.035-30.905 0.315-10.83 0.567-21.558 0.654-30.219 0.087-8.646 9e-3 -15.243-0.339-17.85-0.354-2.607-1.014-4.824-1.845-6.702-0.828-1.875-1.827-3.408-2.856-4.647-1.026-1.239-2.085-2.184-3.03-2.88-0.945-0.69-1.779-1.14-2.361-1.386z"/>
  <path d="m455.45 29.04c0.393 0 0.798 0.036 1.212 0.111 0.42 0.075 0.852 0.189 1.299 0.339 0.447 0.153 0.912 0.342 1.398 0.57s0.99 0.492 1.518 0.798c2.109 1.221 5.475 3.12 9.477 5.565 4 2.445 8.638 5.436 13.287 8.829 4.653 3.396 9.318 7.199 13.371 11.268 4.056 4.074 7.5 8.412 9.708 12.879 0.246-5.247 0.301-9.804 0.163-13.728-0.138-3.925-0.472-7.221-1-9.954-0.525-2.733-1.245-4.902-2.163-6.57-0.915-1.668-2.031-2.838-3.339-3.57 0.6-9e-3 1.194-0.018 1.782-0.024 0.588-3e-3 1.167-9e-3 1.74-0.012 0.576-6e-3 1.14-6e-3 1.695-9e-3 0.556-3e-3 1.101-3e-3 1.639-3e-3 2.148 0 4.119 0.015 5.877 0.03 1.755 0.018 3.294 0.045 4.574 0.069 1.281 0.027 2.301 0.051 3.021 0.069 0.72 0.021 1.14 0.033 1.215 0.036-1.761 1.182-3.087 2.016-4.083 2.817-0.996 0.804-1.665 1.572-2.118 2.619-0.455 1.05-0.692 2.382-0.827 4.308-0.138 1.926-0.165 4.448-0.207 7.881-0.036 3.432-0.109 7.974-0.249 13.161-0.144 5.193-0.351 11.034-0.663 17.057-0.309 6.034-0.723 12.253-1.269 18.184-0.546 5.94-1.227 11.592-2.076 16.487-0.852 4.9-2.253 9.607-3.993 14.005-1.744 4.401-3.823 8.493-6.019 12.153-2.199 3.663-4.515 6.896-6.729 9.581s-4.326 4.819-6.111 6.286c3.495-6.655 6.402-12.873 8.724-18.729 2.322-5.85 4.062-11.34 5.226-16.548 1.164-5.203 1.752-10.122 1.773-14.838 0.018-4.707-0.528-9.216-1.641-13.593-1.113-4.374-3.519-8.946-6.627-13.395-3.102-4.443-6.903-8.757-10.803-12.618-3.899-3.855-7.898-7.257-11.408-9.876-3.508-2.622-6.526-4.461-8.467-5.196-0.633-0.24-1.218-0.465-1.761-0.669-0.543-0.201-1.041-0.381-1.503-0.531-0.459-0.15-0.882-0.267-1.269-0.351-0.387-0.081-0.738-0.126-1.059-0.126-0.66 0-1.188 0.189-1.623 0.636-0.435 0.444-0.771 1.146-1.047 2.166-0.276 1.023-0.495 2.364-0.687 4.092s-0.36 3.843-0.537 6.408c-0.267 3.816-0.642 9.933-1.05 17.039-0.411 7.114-0.861 15.226-1.278 22.996-0.42 7.791-0.81 15.24-1.101 21.006-0.288 5.775-0.483 9.858-0.504 10.902-0.024 1.041 0.102 2.25 0.363 3.51s0.654 2.568 1.161 3.813c0.51 1.242 1.134 2.415 1.857 3.404 0.723 0.99 1.542 1.797 2.439 2.295-2.412-0.081-5.229-0.252-8.111-0.465-2.88-0.21-5.826-0.462-8.496-0.708-2.671-0.246-5.065-0.483-6.844-0.666-1.782-0.183-2.946-0.309-3.159-0.33 1.857-0.251 3.519-0.617 4.986-1.187 1.467-0.573 2.734-1.35 3.796-2.427s1.917-2.448 2.562-4.209c0.642-1.761 1.071-3.909 1.281-6.537 0.207-2.625 0.591-8.802 1.041-16.678 0.453-7.856 0.975-17.399 1.467-26.78 0.492-9.357 0.951-18.561 1.284-25.782 0.33-7.209 0.534-12.453 0.507-13.924-0.027-1.476-0.099-2.69-0.279-3.689-0.177-0.999-0.465-1.776-0.915-2.379s-1.062-1.026-1.899-1.308c-0.837-0.285-1.896-0.429-3.237-0.471 1.713-2.538 3.195-4.773 4.527-6.702 1.332-1.926 2.517-3.546 3.633-4.848 1.115-1.302 2.165-2.289 3.23-2.949 1.065-0.657 2.145-0.99 3.318-0.99z"/>
  <path d="m533.02 37.131c0.948 0 2.061 0.042 3.396 0.132 1.332 0.087 2.883 0.228 4.711 0.414 1.823 0.192 3.921 0.432 6.345 0.732 2.426 0.3 5.174 0.657 8.303 1.077 4.29 0.573 8.31 1.074 12.015 1.506 3.702 0.432 7.092 0.789 10.117 1.074 3.024 0.288 5.684 0.504 7.934 0.645 2.253 0.144 4.092 0.216 5.469 0.216h0.267c0.09 0 0.174-3e-3 0.258-3e-3 0.081-3e-3 0.162-3e-3 0.243-6e-3 0.078 0 0.153-3e-3 0.228-6e-3 0.792-0.03 1.527-0.108 2.208-0.213 0.678-0.102 1.296-0.234 1.857-0.357 0.558-0.126 1.056-0.249 1.491-0.336 0.435-0.093 0.807-0.15 1.11-0.15 0.162 0 0.306 0.018 0.429 0.054 0.126 0.036 0.231 0.096 0.318 0.177 0.084 0.084 0.15 0.189 0.198 0.327 0.048 0.135 0.075 0.3 0.084 0.498 0.018 0.57-0.249 1.272-0.768 2.214-0.522 0.942-1.296 2.118-2.286 3.639-0.993 1.52-2.202 3.383-3.597 5.694-1.392 2.31-2.973 5.07-4.698 8.385-0.012-0.156-0.078-1.011-0.399-2.262s-0.9-2.898-1.941-4.635c-1.041-1.74-2.544-3.571-4.712-5.191-2.169-1.619-5.004-3.029-8.713-3.926-0.351-0.087-0.696-0.159-1.038-0.222s-0.681-0.114-1.017-0.153c-0.336-0.042-0.669-0.072-0.996-0.093-0.327-0.018-0.654-0.03-0.975-0.03-3.081 0-5.832 0.897-8.265 2.316-2.436 1.418-4.551 3.356-6.36 5.442-1.809 2.082-3.312 4.311-4.512 6.309-1.202 1.995-2.105 3.756-2.717 4.905-0.675 1.272-1.056 2.223-1.11 2.94-0.051 0.717 0.225 1.2 0.861 1.53 0.639 0.327 1.638 0.501 3.036 0.606 1.397 0.105 3.191 0.138 5.411 0.18 2.223 0.039 4.836 0.195 7.509 0.414 2.673 0.222 5.403 0.507 7.854 0.816 2.451 0.306 4.629 0.636 6.195 0.939 1.564 0.303 2.518 0.579 2.524 0.786 6e-3 0.204-0.078 0.534-0.321 0.999-0.24 0.468-0.639 1.071-1.269 1.83-0.625 0.762-1.476 1.674-2.622 2.754-1.144 1.086-2.581 2.34-4.384 3.78-1.08-1.245-2.319-2.238-3.687-3.027s-2.859-1.377-4.446-1.809-3.267-0.708-5.01-0.876c-1.74-0.168-3.543-0.228-5.373-0.228h-0.492c-0.168 3e-3 -0.33 3e-3 -0.495 6e-3s-0.33 3e-3 -0.498 6e-3c-0.165 3e-3 -0.33 6e-3 -0.498 9e-3 -2.009 0.045-3.515 0.117-4.655 0.339-1.14 0.219-1.911 0.591-2.448 1.227-0.538 0.639-0.843 1.542-1.051 2.832-0.206 1.29-0.317 2.963-0.464 5.144-0.16 10.645 0.969 20.059 3.09 28.384 2.127 8.343 5.25 15.588 9.068 21.876 3.819 6.294 8.34 11.628 13.248 16.142 4.914 4.521 10.222 8.218 15.615 11.236-1.919-0.294-4.76-0.807-8.235-1.878-3.474-1.068-7.578-2.691-12.006-5.206-4.425-2.511-9.177-5.91-13.952-10.526-4.77-4.611-9.562-10.437-14.077-17.805-4.5-7.354-7.35-15.039-9.018-22.578-1.665-7.527-2.154-14.907-1.932-21.676 0.219-6.755 1.149-12.899 2.319-17.969 1.167-5.064 2.577-9.057 3.765-11.511 1.188-2.451 2.07-4.597 2.649-6.474 0.576-1.881 0.852-3.495 0.822-4.893-0.027-1.395-0.357-2.571-0.987-3.573-0.63-0.999-1.563-1.824-2.793-2.517 0.237-0.063 0.489-0.12 0.759-0.171 0.27-0.048 0.561-0.09 0.876-0.126 0.318-0.033 0.657-0.06 1.029-0.078 0.369-0.021 0.768-0.027 1.206-0.027z"/>
 </g>
 <style type="text/css">.st0{fill:#FC0C18;}
	.st1{fill:#FC0C18;}</style>
</svg>
