<svg width="480" height="320" version="1.1" viewBox="0 0 480 320" xml:space="preserve" xmlns="http://www.w3.org/2000/svg"><defs><linearGradient id="a" x1="10.58" x2="39" y1="-11.18" y2="94.87" gradientTransform="scale(3.78)" gradientUnits="userSpaceOnUse"><stop stop-color="#ffcd2a" offset="0"/><stop stop-color="#d17d00" offset="1"/></linearGradient></defs><rect width="480" height="320" ry="16" fill="url(#a)"/><path d="m92.39 105.7c-2.594 0.01345-5.21 0.1633-7.816 0.4785-21.2 2.49-40.9 15.56-44.58 20.87 0.03126 0.198 0.06249 0.4055 0.09375 0.6035 3.887-0.6148 7.409 1.292 7.867 4.23 3.918 25.64 7.835 51.3 11.74 76.94 0.448 2.959-0.8128 4.126-4.449 4.699 0.04168 0.2605 0.08332 0.5201 0.125 0.791 9.68-1.521 19.36-2.916 29.06-4.197 0 0 4.627-2.606 11.96-6.836 26.59-15.32 38.03-46.09 36.68-64.29-0.4689-5.939-2.593-12.46-5.928-20.67 1.177-0.9794 2.803-1.656 4.637-1.812-0.0104-0.2084-0.03184-0.4068-0.05273-0.6152-4.157-3.674-21.18-10.28-39.34-10.19zm-2.25 7.314c22.47 0.1873 25.73 22.7 25.57 33.58-0.2501 16.53-10.96 40.41-37.48 56.29-2.094 1.25-3.783-0.5931-4.096-2.781-1.876-13.45-8.689-62.3-8.689-62.3-1.115-7.919-0.8021-21.93 19.94-24.52 1.673-0.196 3.256-0.284 4.754-0.2715zm145.6 7.586c-5.772 0.0208-12.63 1.656-18.93 3.75-10.79 3.574-19.97 8.482-19.97 8.482 0.1146 0.1876 0.2194 0.3756 0.334 0.5527 3.866-1.678 5.636-0.3246 5.678 1.02 0.6148 20.4 1.229 40.82 1.844 61.22 0.0625 2.292-2.156 4.209-4.959 4.303 0.0104 0.2084 0.01108 0.4068 0.02148 0.6152 1.698-0.0625 3.386-0.1159 5.084-0.168 3.928-0.1146 7.857-0.2181 11.79-0.291 1.698-0.0313 3.386-0.06245 5.084-0.09375 0-0.2084-0.00977-0.4068-0.00977-0.6152-2.803 0.0417-5.116-1.76-5.168-4.053-0.3647-18.19-0.7408-36.39-1.105-54.58-0.0208-4.668 1.521-8.461 4.168-11.36 2.647-2.886 6.514-4.367 11.56-4.408 7.679-0.0521 12.83 7.389 12.82 7.389-2.876 4.137-5.721 8.283-8.545 12.43-5.22 3.126-10.39 6.294-15.54 9.482 8.044-2.574 16.15-5.075 24.29-7.492-0.0521-0.0313 15.68-13.91 16.47-14.68 0.0417 0.0417-8.379-11.55-24.9-11.5zm25.08 1.281c0 0.2084-0.00977 0.4068-0.00977 0.6152 2.99 0.0417 5.376 1.948 5.334 4.24-0.4585 22.87-0.9165 45.74-1.375 68.61-0.0521 2.292-2.365 4.094-5.168 4.053 0 0.2084-0.00977 0.4068-0.00977 0.6152 1.698 0.0313 3.386 0.05205 5.084 0.09375 3.928 0.0833 7.857 0.1764 11.79 0.291 1.698 0.0521 3.386 0.1054 5.084 0.168 0.0104-0.2084 0.01108-0.4068 0.02148-0.6152-2.803-0.0938-5.022-2.021-4.959-4.303 0.4689-15.71 0.9374-31.44 1.406-47.15 7.908 0.2396 15.81 0.5539 23.71 0.9395-0.771 15.7-1.541 31.41-2.312 47.12-0.1146 2.292-2.48 4.031-5.283 3.906-0.0104 0.2084-0.02075 0.4068-0.03125 0.6152 1.698 0.0729 3.386 0.1569 5.084 0.2402 3.928 0.1876 7.858 0.4055 11.78 0.6348 1.688 0.1042 3.386 0.1979 5.074 0.3125 0.0104-0.2084 0.02012-0.4049 0.04102-0.6133-2.803-0.1771-4.969-2.167-4.834-4.449 1.344-22.84 2.687-45.67 4.031-68.51 0.1354-2.282 2.658-4.002 5.648-3.814 0.0104-0.2084 0.02012-0.4049 0.04102-0.6133-1.803-0.1146-3.606-0.2194-5.408-0.334-4.178-0.2709-8.367-0.5012-12.54-0.6992-1.803-0.0833-3.606-0.1771-5.408-0.25-0.0104 0.2084-0.02075 0.4068-0.03125 0.6152 2.99 0.1355 5.326 2.104 5.211 4.396-0.2605 5.314-0.5208 10.63-0.7812 15.95-7.94-0.3855-15.87-0.6978-23.82-0.9375 0.1563-5.324 0.3242-10.64 0.4805-15.96 0.0625-2.292 2.541-4.075 5.531-3.971 0.0104-0.2084 0.01109-0.4049 0.02149-0.6133-1.803-0.0625-3.605-0.1152-5.418-0.1777-4.189-0.125-8.378-0.2291-12.56-0.3125-1.803-0.0312-3.615-0.07285-5.418-0.09375zm-66.21 0.666c-4.345 0.1563-8.69 0.3346-13.04 0.543-1.636 0.0729-3.284 0.1452-4.92 0.2285-11.13 0.5627-22.26 1.271-33.38 2.125 0.0104 0.198 0.03257 0.4068 0.04297 0.6152 1.709-0.1355 3.271 0.3656 4.334 1.23 1.084 0.8961 1.126 2.48 0.1465 3.49-8.846 8.732-24.65 60.26 14.5 78.98-21-21.96-18.55-78.81 14.59-81.66 0.2605 5.116 0.511 10.22 0.7715 15.34 0.0104 0.198 0.02075 0.3958 0.03125 0.5938-5.96 0.3022-11.91 0.6457-17.86 1.031-1.417 2.584-2.554 5.407-3.43 8.377 0 0 1.106-2.73 5.117-2.99 5.481-0.3543 10.96-0.6666 16.45-0.9375 0.7919 15.7 1.583 31.4 2.375 47.12 0.1146 2.292-2.074 4.252-4.877 4.408 0.0104 0.2084 0.02075 0.4068 0.03125 0.6152 1.688-0.0938 3.386-0.1777 5.074-0.2715 3.928-0.198 7.857-0.375 11.79-0.5312 1.698-0.0729 3.386-0.1367 5.084-0.1992-0.0104-0.2084-0.00913-0.4049-0.01953-0.6133-2.803 0.1042-5.158-1.657-5.252-3.949-0.6356-15.71-1.271-31.43-1.906-47.14-0.0729-1.823-0.1458-3.657-0.2188-5.48-0.2188-5.314-0.4277-10.64-0.6465-15.95-0.0938-2.282 2.25-4.241 5.24-4.355-0.0104-0.2084-0.00913-0.4068-0.01953-0.6152zm139.1 0.8965c-0.0313-0.0208-11.96 11.41-11.93 11.43 1.823-0.0208 3.334 0.2193 4.543 0.709 1.771 0.6669 2.168 1.677 2.074 3.084-1.386 19.78-2.763 39.56-4.148 59.34-0.1563 2.282-2.562 3.981-5.365 3.793-0.0104 0.2084-0.03062 0.4068-0.04102 0.6152 1.688 0.1146 3.386 0.2291 5.074 0.3438 1.49 0.1042 2.979 0.2076 4.469 0.3223 1.688 0.125 3.386 0.2513 5.074 0.3867 0.0208-0.198 0.03193-0.4075 0.05273-0.6055-2.803-0.2188-4.938-2.24-4.771-4.521 1.48-20.07 2.959-40.15 4.428-60.21 8.513 0.5731 21.27 10.28 27.61 23.92 6.439 13.65 6.493 31.22-8.355 47.65 9.367-5.595 16.43-14.34 18.63-34.75 1.469-13.76 2.938-27.52 4.418-41.28 0.2397-2.271 2.854-3.867 5.834-3.533 0.0521-0.2188 0.07285-0.427 0.09375-0.625-1.792-0.198-3.594-0.3964-5.396-0.584-1.584-0.1667-3.168-0.3333-4.752-0.5-1.803-0.1876-3.596-0.3639-5.398-0.541-0.0208 0.198-0.0417 0.4055-0.0625 0.6035 2.98 0.2918 5.2 2.386 4.971 4.668-0.7189 7.002-1.447 14.02-2.166 21.02-4.512-12.63-15.19-24.34-34.89-30.73zm53.92 6.793c-0.0208 0.198-0.05147 0.4075-0.07227 0.6055 0.5939 0.0729 1.167 0.2076 1.688 0.416 1.803 0.6981 2.231 2.908 0.8242 4.127-3.022 2.626-7.961 9.148-9.086 19.18-4.074 37.95 18.86 54.13 40.9 59.13-23.72-7.929-30.67-27.91-27.97-50.08 0.2605-2.115 0.6151-4.156 1.053-6.115 6.012 0.7502 12.02 1.541 18.03 2.385 1.74 0.2397 2.282 1.939 1.021 2.814 3.334-1.886 6.7-4.209 9.867-6.793-9.117-1.344-18.24-2.596-27.38-3.742 3.47-9.753 10.21-16.14 21.81-14.51 13.48 1.938 11.5 12.89 11.5 12.88 4.72-4.772 8.502-9.941 10.21-14.65 0 0-1.531 1.303-2.938 1.084-13.09-2.042-26.19-3.876-39.31-5.512-1.709-0.2084-3.406-0.4166-5.115-0.625-1.678-0.198-3.346-0.3977-5.023-0.5957z" fill="#fff"/></svg>
