<svg width="480" height="320" version="1.1" viewBox="0 0 480 320" xml:space="preserve" xmlns="http://www.w3.org/2000/svg"><defs><linearGradient id="a" x1="68.54" x2="43.2" y2="84.67" gradientTransform="scale(3.78)" gradientUnits="userSpaceOnUse"><stop stop-color="#f9c440" offset="0"/><stop stop-color="#a10705" offset="1"/></linearGradient></defs><rect width="480" height="320" ry="24" fill="url(#a)"/><path d="m382.3 239.1-0.0659-66.16-10.58 36.96-10.56-36.79-0.0639 50.22-34.49-25.87 2.615-1.96-0.1197-128.8 32.79 0.08541 9.828 34.43 9.842-34.47 48.5 0.1576-15.92 11.89-0.0282 184.2zm-316.2-160.3-16.1-12.06 90.77 0.123 10.39 7.936 9e-3 120.7 2.752 1.993-87.8 65.88zm53.27 94.14-0.0346-69.64-2.433-1.987-18.88 0.0913-0.04142 87.57zm34.47 18.72-0.0162-116.9 10.65-7.979 63.72-0.0038 10.63 8.012 0.0392 135.3-30.13 22.66zm50.47-90.42-16.07 0.1114-2.51 1.929 0.0359 69.69 21.11 15.83 0.0564-85.48zm37.28 108.9-0.0771-135.4 10.61-7.971 63.8 0.06099 10.68 7.98-0.0734 116.6-54.59 41.27zm53.08-37.26-7e-3 -69.67-2.685-2.052-16.05 0.0526-2.58 1.986 0.1593 85.35z" fill="#fff"/></svg>
