<?xml version="1.0" encoding="UTF-8" standalone="no"?>
<!-- Created with Inkscape (http://www.inkscape.org/) -->

<svg
   width="480"
   height="320"
   viewBox="0 0 127 84.666667"
   version="1.1"
   id="svg1543"
   inkscape:export-filename="/home/vitor/Dev/es-theme-material-tv-3-2/assets/logos/msdos.png"
   inkscape:export-xdpi="96"
   inkscape:export-ydpi="96"
   inkscape:version="1.1.1 (3bf5ae0d25, 2021-09-20)"
   sodipodi:docname="msdos.svg"
   xmlns:inkscape="http://www.inkscape.org/namespaces/inkscape"
   xmlns:sodipodi="http://sodipodi.sourceforge.net/DTD/sodipodi-0.dtd"
   xmlns:xlink="http://www.w3.org/1999/xlink"
   xmlns="http://www.w3.org/2000/svg"
   xmlns:svg="http://www.w3.org/2000/svg">
  <sodipodi:namedview
     id="namedview1545"
     pagecolor="#505050"
     bordercolor="#eeeeee"
     borderopacity="1"
     inkscape:pageshadow="0"
     inkscape:pageopacity="0"
     inkscape:pagecheckerboard="0"
     inkscape:document-units="px"
     showgrid="false"
     units="px"
     width="640px"
     inkscape:snap-page="true"
     showguides="true"
     inkscape:guide-bbox="true"
     inkscape:zoom="0.79107571"
     inkscape:cx="77.110192"
     inkscape:cy="260.40491"
     inkscape:window-width="1920"
     inkscape:window-height="1019"
     inkscape:window-x="0"
     inkscape:window-y="30"
     inkscape:window-maximized="1"
     inkscape:current-layer="layer1">
    <sodipodi:guide
       position="10.583333,76.729167"
       orientation="-1,0"
       id="guide2978"
       inkscape:label=""
       inkscape:locked="false"
       inkscape:color="rgb(0,0,255)" />
    <sodipodi:guide
       position="116.41667,7.9375"
       orientation="-1,0"
       id="guide2980"
       inkscape:label=""
       inkscape:locked="false"
       inkscape:color="rgb(0,0,255)" />
    <sodipodi:guide
       position="10.583333,76.729167"
       orientation="0,-1"
       id="guide2982" />
    <sodipodi:guide
       position="116.41667,7.9375"
       orientation="0,-1"
       id="guide2984" />
  </sodipodi:namedview>
  <defs
     id="defs1540">
    <linearGradient
       inkscape:collect="always"
       id="linearGradient2856">
      <stop
         style="stop-color:#f9c440;stop-opacity:1"
         offset="0"
         id="stop2852" />
      <stop
         style="stop-color:#a10705;stop-opacity:1"
         offset="0.49626535"
         id="stop1694" />
      <stop
         style="stop-color:#452981;stop-opacity:1"
         offset="1"
         id="stop2854" />
    </linearGradient>
    <linearGradient
       inkscape:collect="always"
       xlink:href="#linearGradient2856"
       id="linearGradient2858"
       x1="89.699326"
       y1="-17.033401"
       x2="31.603395"
       y2="97.024055"
       gradientUnits="userSpaceOnUse" />
  </defs>
  <g
     inkscape:label="Camada 1"
     inkscape:groupmode="layer"
     id="layer1">
    <rect
       style="opacity:1;fill:url(#linearGradient2858);fill-opacity:1;stroke-width:0.529167;stroke-linecap:square;stroke-linejoin:round;paint-order:stroke fill markers"
       id="rect1569"
       width="127"
       height="84.666664"
       x="0"
       y="0"
       ry="4.2333331" />
    <g
       id="g1236"
       transform="matrix(0.33388698,0,0,0.33388698,56.392882,28.198786)"
       style="fill:#ffffff">
      <g
         id="g1223"
         transform="translate(0,-148.06329)"
         style="fill:#ffffff">
        <path
           id="path976"
           style="fill:#ffffff;stroke-width:0.999999"
           d="m 532.76953,617.5918 c -5.63344,0.0978 -11.20352,0.50203 -14.79101,1.25195 -12.63372,2.64091 -24.99658,10.04539 -27.50196,16.4707 -2.18033,5.59166 -0.82258,13.96954 5.62696,34.68555 7.93356,25.48286 9.47775,34.35238 9.45507,54.32227 -0.0166,14.22463 -0.67427,17.66403 -7.91211,41.43359 -6.07268,19.94313 -8.07421,27.70218 -8.07421,31.30078 0,3.57184 3.99601,10.34776 7.71484,13.08398 7.09973,5.22388 20.60298,10.54028 32.28516,12.71094 3.58635,0.66637 20.71553,0.27093 21.48046,-0.49609 0.35384,-0.35479 3.07187,-6.07772 6.03907,-12.7168 23.30611,-52.14742 26.80941,-104.6291 10.35547,-155.13867 -2.73638,-8.39992 -12.30748,-30.9525 -14.85352,-35 -0.86778,-1.37955 -10.43515,-2.07116 -19.82422,-1.9082 z m 56.11328,80.18164 c -0.33254,-0.0182 -0.5799,-3.9e-4 -0.72851,0.0566 -1.21546,0.46639 -1.59937,2.17897 -1.66211,7.38867 -0.0449,3.72979 -0.60741,17.73684 -1.25,31.12695 -0.64188,13.39008 -0.94507,24.66192 -0.66992,25.04883 0.27499,0.38687 3.74456,2.84072 7.70898,5.45313 13.93924,9.1855 18.93987,17.77418 18.07031,31.03125 -0.84756,12.92171 -7.33061,21.60884 -21.02539,28.17187 -12.15931,5.82716 -19.35479,6.9579 -43.7539,6.87891 -18.87175,-0.0611 -22.46683,-0.33609 -29.41016,-2.25 -15.25198,-4.20424 -24.80953,-10.0349 -31.88477,-19.45117 -5.84674,-7.78126 -8.31468,-13.37218 -11.6875,-26.47852 l -1.09375,-4.25 H 439.0957 406.69531 l -0.69336,4.62891 c -1.95299,13.02361 1.54514,28.30793 10.63672,46.47461 9.8188,19.61971 23.47121,32.89069 45.28321,44.01562 14.62692,7.4603 40.86294,14.65932 61.15039,16.7793 20.35642,2.12723 48.32497,0.70853 66.01562,-3.34766 31.15548,-7.14353 56.83251,-22.11309 71.83984,-41.88281 15.98382,-21.0562 22.01461,-48.64455 16.57032,-75.81055 -5.72629,-28.57311 -19.43844,-45.38414 -48.86524,-59.91015 -10.21191,-5.04096 -34.76183,-13.40041 -39.75,-13.67383 z M 388.76758,828.16211 c -7.15338,0.0839 -10.80117,0.76783 -11.85938,2.14258 -0.71764,0.93229 -3.7532,5.29593 -6.74609,9.69726 -4.98457,7.33032 -12.70903,15.4459 -32.33984,33.98047 -3.9875,3.76483 -7.25,7.14952 -7.25,7.51953 0,0.97739 16.87703,6.5666 28.5,9.43946 8.70551,2.15176 21.85856,4.48582 33.5,5.94336 6.7195,0.84128 31.57109,-0.29949 40.5,-1.85938 9.0864,-1.58736 24.15775,-5.19562 25.70898,-6.1543 0.46224,-0.28569 -2.88285,-3.17287 -7.43359,-6.41601 -20.45133,-14.57477 -36.77831,-32.47583 -44.875,-49.20508 l -2.29883,-4.75 -7.05078,-0.22461 c -3.19734,-0.10184 -5.97101,-0.14125 -8.35547,-0.11328 z"
           transform="scale(0.26458333)" />
        <path
           id="path1137"
           style="fill:#ffffff;stroke-width:0.999999"
           d="m 230.9043,552.26172 c -17.41577,-0.0884 -41.42895,0.51194 -77.83203,1.55859 l -41,1.17969 v 163.98633 163.98633 l 5,0.68359 c 2.75002,0.37572 25.92499,1.41377 51.5,2.30664 25.57499,0.89288 47.625,1.7937 49,2.00195 v -0.002 c 1.375,0.20939 10.375,0.21997 20,0.0234 35.10878,-0.71679 63.18354,-8.40719 87.58789,-23.99219 29.89198,-19.08945 52.4478,-50.41805 62.3789,-86.64062 11.31047,-41.25374 10.00593,-86.68274 -3.59179,-125.15625 C 380.00786,641.05102 371.51767,624.5 369.73828,624.5 c -3.43815,0 -16.14007,8.92851 -24.16601,16.98828 -10.01644,10.05865 -14.11149,16.6204 -18.60547,29.80664 -3.05322,8.95877 -3.54164,12.24194 -6.3418,42.70508 -1.66835,18.15001 -3.28992,36.15002 -3.60547,40 -0.78637,9.59365 -3.95806,21.71417 -7.71875,29.5 -8.06783,16.70298 -20.56111,31.31645 -31.26562,36.57227 -5.73436,2.81552 -6.73872,2.96285 -26.36719,3.84961 -16.35973,0.73908 -25.37314,0.58199 -45.45508,-0.78907 -13.77689,-0.94061 -25.12886,-1.80546 -25.22656,-1.92187 -0.0977,-0.11645 -0.37467,-45.32345 -0.61524,-100.46094 l -0.4375,-100.25 h 34.7793 c 26.58467,0 35.0341,-0.29457 35.85547,-1.25 0.59102,-0.6875 3.59864,-5.29999 6.68359,-10.25 7.54709,-12.1098 19.58965,-27.37434 28.77539,-36.47461 8.85871,-8.77625 9.62589,-11.39363 3.79493,-12.94531 -19.19149,-5.10711 -29.89169,-7.17095 -58.91797,-7.31836 z"
           transform="scale(0.26458333)" />
        <path
           id="path1135"
           style="fill:#ffffff;stroke-width:0.999999"
           d="m 393.1875,542.06641 c -41.58445,0.57535 -78.44635,15.21364 -105.99805,42.83007 -24.25753,24.31454 -39.63162,56.59622 -46.7207,98.10352 -2.978,17.43651 -3.28505,53.2384 -0.60156,70 3.09486,19.33115 7.44158,35.53785 13.91211,51.87305 l 3.11914,7.875 6.08789,-0.48828 c 9.39315,-0.75398 15.72837,-3.98445 21.84961,-11.13868 2.88072,-3.36684 5.76721,-6.683 6.41406,-7.36914 2.63066,-2.79042 8.6584,-13.71466 9.97852,-18.08398 0.77551,-2.56679 3.42127,-21.09297 5.8789,-41.16797 6.6718,-54.49833 7.40757,-59.60097 9.64258,-66.84375 5.92683,-19.20661 19.76063,-37.2497 37.32227,-48.67578 C 368.41335,609.6498 382.3841,605.5 399.45312,605.5 h 9.75 l 1.7754,-3.75 c 6.09312,-12.87311 24.58493,-34.65243 37.96484,-44.71289 3.96964,-2.98481 6.23902,-5.32738 5.69141,-5.875 -0.50091,-0.50094 -5.33229,-1.9617 -10.73633,-3.24609 -17.44395,-4.14591 -34.43877,-6.07475 -50.71094,-5.84961 z m 140.23438,3.14648 c -10.17504,0.0808 -20.22026,0.62955 -26.37305,1.61523 -26.1529,4.18965 -49.70699,14.66424 -65.35352,29.0625 -13.78446,12.68474 -25.30451,34.30944 -28.02539,52.60938 -7.96928,53.59963 12.8225,86.85058 65.40235,104.5918 5.50049,1.85593 10.50406,3.38306 11.11914,3.39062 1.49786,0.023 2.27118,-5.71175 3.03125,-22.48242 0.79751,-17.59635 -0.32313,-23.5394 -9.13086,-48.44531 -7.49382,-21.19049 -8.08995,-26.13937 -4.16211,-34.57422 4.05407,-8.7058 14.86922,-16.91386 28.4375,-21.58203 8.53753,-2.93734 25.63182,-5.11088 34.20508,-4.34961 29.5432,2.62325 48.38981,15.9187 56.875,40.12109 l 2.74609,7.83008 32.83398,0.26367 32.83594,0.26367 -0.64648,-6.96093 c -2.90094,-31.21323 -17.99631,-58.38784 -42.64453,-76.77539 -14.91496,-11.12659 -39.63573,-20.16126 -64,-23.38868 -6.67193,-0.8838 -16.97536,-1.27027 -27.15039,-1.18945 z"
           transform="scale(0.26458333)" />
      </g>
      <g
         id="g1227"
         transform="translate(-166.72093,-52.516301)"
         style="fill:#ffffff;fill-opacity:1">
        <path
           id="path1133"
           style="fill:#ffffff;stroke-width:0.999999;fill-opacity:1"
           d="m 111.57227,189.48047 v 169.84375 c 0,93.41355 0.30589,170.14769 0.67968,170.52148 0.37384,0.37395 15.78636,0.56273 34.25,0.41797 L 180.07227,530 l 0.50976,-89.5 c 0.27943,-49.22498 0.61692,-89.13715 0.75,-88.69336 0.56209,1.8748 9.43275,35.44005 13.26563,50.19336 2.28621,8.79999 5.86231,22.52501 7.94726,30.5 2.08496,7.97503 6.36398,24.40003 9.50781,36.5 3.14383,12.10001 7.48358,28.75001 9.64454,37 2.16096,8.24999 4.44471,17.14232 5.07617,19.76172 l 1.14844,4.76367 35.02929,-0.26367 35.0293,-0.26172 2.74023,-13.5 c 1.50768,-7.425 5.03177,-24.525 7.83203,-38 2.80026,-13.475 7.09009,-34.17499 9.53321,-46 2.44313,-11.82497 5.80379,-28.02497 7.46679,-36 1.663,-7.97499 4.66953,-22.82498 6.68165,-33 2.01212,-10.17498 3.97078,-18.86151 4.35156,-19.30273 0.77411,-0.897 1.53451,22.99756 2.98828,93.80273 0.54205,26.4 1.26347,58.01872 1.60351,70.26367 l 0.61915,22.26367 32.63867,-0.26367 L 407.07227,530 V 360 190 l -54.51368,-0.25781 -54.51367,-0.25977 -3.79492,18.75977 c -2.08624,10.31713 -5.80661,29.33281 -8.26953,42.25781 -2.46292,12.925 -8.07892,41.95 -12.47852,64.5 -14.35419,73.57181 -13.51572,70.34304 -15.78711,60.91406 -0.51849,-2.15236 -2.81416,-10.88907 -5.09961,-19.41406 -2.28543,-8.52499 -9.80423,-37.1 -16.70898,-63.5 -6.90474,-26.4 -15.02885,-57.45 -18.05469,-69 -3.02583,-11.55 -6.26722,-23.925 -7.20312,-27.5 l -1.70313,-6.5 -48.68554,-0.25977 z"
           transform="scale(0.26458333)" />
        <path
           id="path1131"
           style="fill:#ffffff;stroke-width:0.999999;fill-opacity:1"
           d="m 545.65234,183.96289 c -2.66334,-0.0189 -5.51193,-0.0101 -8.58007,0.0234 -17.87566,0.19556 -22.41337,0.56925 -30.5,2.50781 -38.4237,9.21112 -67.39509,31.22079 -79.95118,60.73828 -5.74681,13.50986 -7.43189,22.29508 -7.43945,38.76758 -0.008,21.45224 3.23293,33.74085 12.73633,48.30859 8.65349,13.26497 20.896,23.37406 38.98047,32.1875 13.90333,6.77579 30.15345,11.93091 63.17383,20.04102 42.72257,10.49303 54.00736,14.70344 63.77343,23.79101 17.39048,16.18228 11.09621,41.45721 -13.28711,53.35157 -11.05787,5.3941 -20.65972,7.18424 -35.36718,6.59179 -10.1229,-0.40777 -13.68282,-1.01072 -21.61914,-3.66406 C 509.88861,460.6953 496.38614,448.84669 487.84766,431.75 l -4.61914,-9.25 h -32.26954 c -17.74764,0 -32.49973,0.37526 -32.7832,0.83398 -0.80424,1.30133 1.23107,18.73131 2.98242,25.53907 2.24928,8.74344 6.07313,18.05958 10.67383,26.00781 5.06041,8.74246 6.24567,10.19919 17.21485,21.16016 20.34572,20.33045 49.25174,32.61125 85.82812,36.46289 10.53823,1.1097 32.41161,0.34924 42.98242,-1.49414 33.39833,-5.82422 62.69562,-22.10364 79.16797,-43.99024 14.00685,-18.61073 20.4893,-38.52033 20.51953,-63.01953 0.0454,-37.03332 -15.27169,-62.2332 -47.97265,-78.92578 -16.41385,-8.37868 -32.36826,-13.25148 -72.5,-22.14453 -32.44679,-7.19007 -48.83214,-13.63289 -58.00196,-22.80274 -8.64646,-8.64642 -11.3379,-19.06618 -7.9082,-30.61523 4.52991,-15.25385 29.45498,-28.27526 50.74219,-26.50977 27.16936,2.25334 47.40071,16.82043 55.08789,39.66211 l 2.4707,7.33594 9.80469,-0.01 c 5.39301,-0.006 20.33141,-0.11817 33.19726,-0.25 l 23.39258,-0.24023 -0.61328,-5.75 c -0.33728,-3.1625 -1.54676,-9.35 -2.6875,-13.75 -7.18636,-27.71879 -22.30745,-49.85173 -44.45703,-65.07422 -9.6861,-6.65688 -17.7303,-10.55336 -30.55469,-14.79883 -13.59953,-4.50207 -23.2492,-6.03182 -41.89258,-6.16406 z"
           transform="scale(0.26458333)" />
      </g>
    </g>
  </g>
  <style
     type="text/css"
     id="style3952">
	.st0{fill:#FC0C18;}
	.st1{fill:#FC0C18;}
</style>
</svg>
