<svg width="480" height="320" version="1.1" viewBox="0 0 127 84.667" xmlns="http://www.w3.org/2000/svg" xmlns:xlink="http://www.w3.org/1999/xlink">
 <defs>
  <linearGradient id="a" x1="50.724" x2="81.559" y1="-22.025" y2="84.667" gradientUnits="userSpaceOnUse">
   <stop stop-color="#ed5353" offset="0"/>
   <stop stop-color="#a10705" offset="1"/>
  </linearGradient>
 </defs>
 <g>
  <rect width="127" height="84.667" ry="4.2333" fill="url(#a)" stroke-linecap="square" stroke-linejoin="round" stroke-width=".52917" style="paint-order:stroke fill markers"/>
  <path transform="scale(.26458)" d="m235.02 50.004c-2.3383 0.050484-4.6123 0.6929-6.8555 0.83203-1.3462 0.52224-5.0833 1.0504-7.7676 2.0078-4.6421 1.9323-6.3457 2.7185-11.021 5.0488-2.3338 1.7234-4.4525 2.4185-6.9023 4.3125-1.4808 0.55357-2.8967 2.1635-3.1172 2.3027-2.1388 1.8905-3.245 2.1884-5.1309 4.0742-0.79728 0.91565-3.1366 3.5577-3.9629 4.6602-2.8897 3.5547-4.7746 7.6248-6.5723 11.162-1.2499 2.27-1.4867 3.9417-2.4453 5.9727-0.31798 1.2336-1.5002 4.0043-1.6406 4.9258-0.14391 2.1539-0.74076 3.1487-1.1934 5.5312-0.51524 2.8247-0.12125 5.2676-0.41602 7.8613 0.20423 1.1617 0.43153 3.2611 0.38282 4.1524 0.43404 3.7868 1.5478 6.2158 2.207 9.9922 0.6232 1.6178 1.6872 5.4052 3.2109 8.5352 0.57446 1.8499 3.2185 6.0701 3.9531 7.4824 3.3562 4.5562 8.554 9.4453 10.875 10.881 0.57446 0.55705 3.9646 2.8761 4.9766 3.3867 1.5516 0.84138 5.2543 2.3922 7.168 3.1094 3.4665 1.063 9.3342 2.7115 15.191 3.4102 5.856 0.69517 11.222 0.23521 16.443-0.23828 2.6947-0.55589 5.1971-1.3941 7.1816-2.0312 4.8754-1.9056 7.5211-3.2316 10.998-5.3066 2.5624-1.5272 3.9846-2.3369 5.6406-3.7168 2.1679-1.7617 4.0438-3.381 5.8066-5.4746 4.1524-4.7256 6.2578-9.6295 7.459-13.648 0.53846-2.1528 1.4573-9.1762 0.88281-12.617-0.33887-4.0096-1.1244-8.2972-1.584-10.568-0.51642-2.2073-0.7416-3.9371-1.2012-5.8926-0.36092-1.2325-0.91818-3.3416-1.1016-4.0762-0.39342-1.4669-2.8627-6.733-3.2422-7.2715-2.082-3.2146-3.7184-5.8318-7.1152-8.3223-1.3265-1.2267-3.337-2.7366-5.043-3.8379-2.0773-1.2522-3.5368-2.3803-6.0645-3.0859-2.3616-0.65918-4.3658-1.5014-7.8613-1.9668-1.8835-0.3412-5.7109-1.1699-8.3418-1.1934-5.8502-0.094-7.7061-0.61367-13.885 1.9023-4.974 2.3617-8.6489 4.2522-13.051 7.8301-1.7257 1.2383-3.0158 2.9933-4.7891 5.1426-1.1756 1.3949-1.844 2.6236-3.2285 4.5918-0.76827 1.0015-1.4338 2.9096-2.5723 5.0508-2.0182 5.3755-2.2472 13.751-1.877 15.752 0.33075 1.7814 0.57275 4.3864 1.0625 5.5469 0.36208 0.85879 0.80132 4.9244 3.0527 9.252 0.45028 0.6116 1.9912 3.5997 3.5625 5.25 2.8328 2.9976 6.5555 5.4554 9.8711 6.8516 4.8626 2.1458 13.026 2.6774 16.006 1.9277 3.0301-0.45144 4.8798-0.48862 7.2891-1.4414 2.2236-0.61739 3.9284-1.4024 5.3906-2.0918 1.6642-0.83558 2.7363-1.3407 4.332-2.3086 1.1246-0.58258 2.5097-1.5833 3.3848-2.3945 2.1795-1.6038 3.6245-3.7367 4.4531-5.4902 0.89477-1.9044 1.3416-3.3058 1.4356-4.7402 1.1559-8.5008-0.43338-14.811-3.207-20.486-1.3044-2.1888-3.641-4.834-5.9609-6.2695-2.7493-1.7338-3.7058-1.9726-7.0527-3.168-1.9578-0.65454-4.912-0.96016-7.4141-1.1992-3.0812-0.17988-6.4905 0.19834-8.4355 1.2266-2.2062 0.99921-4.4662 3.1474-6.2441 4.9531-1.3671 1.851-2.2149 3.476-2.8984 5.6113-0.34119 1.8812-0.68393 2.4309-0.79883 3.7168-0.16595 1.9067 0.27161 3.8164 0.48633 4.8144 0.17872 0.84022 0.53257 1.7912 1.2266 3.084 0.56982 1.0514 1.3982 2.5127 2.1328 3.1719 1.0201 0.9145 2.471 2.2645 3.418 2.8262 1.41 1.0572 7.8353 2.2966 10.365 1.873 2.8236-0.21354 5.474-0.54501 5.8906-3.3106 0.59419-1.4367-0.03596-3.4919-1.6758-4.4238-1.106-0.50601-4.421 0.35859-7.291-0.24024-4.179 0.21934-5.2615-2.7499-6.1562-5.5352-0.98761-3.08 1.4943-6.0578 2.75-7.4922 1.4472-1.4785 3.829-2.7725 6.6758-2.4336 1.5017 0.1764 5.0365 0.85761 6.5312 1.5957 2.6634 1.3172 5.004 2.9677 6.0938 4.6621 1.0758 1.6735 2.0662 4.3874 2.6465 6.7305 0.58375 2.3419 0.16796 3.9579 0.24805 6.8047 0.16827 2.0808-0.78751 5.4416-1.3457 6.1426-1.0584 1.3369-3.3887 3.1621-3.3887 3.1621-1.6978 1.251-3.348 1.6568-5.7852 2.7871-2.7156 1.1779-3.2004 1.1956-5.8359 1.8281-1.2986 0.3099-3.788 0.46195-4.7617 0.52344-1.9822-0.00464-5.5622-0.1997-7.6836-1.3672-2.3686-0.6789-5.5266-2.4315-7.1641-4.2188-2.2131-2.147-3.5286-4.2436-4.2168-5.707-0.1706-0.36208-1.3855-2.8425-1.498-3.3125-0.10909-0.47117-0.61997-2.814-0.82422-3.5684-0.20309-0.75201-0.71484-4.2067-0.71484-6.0879-0.17408-2.4731 0.19118-6.3162 1.3262-9.0469 1.0468-2.7446 2.6067-5.2894 4.0098-7.1973 1.0212-1.1663 1.9256-3.1525 3.1894-4.3223 1.5841-1.4831 2.7526-2.1709 4.3008-3.0703 3.3272-2.0367 4.5232-2.7631 7.7773-3.9062 1.1153-0.39109 4.1409-1.0108 5.4453-1.2383 3.7879-0.27617 4.4313-0.54205 8.3887-0.12891 1.8534 0.33887 4.7698 1.0191 6.5547 1.6191 6.333 2.4928 10.896 6.4829 12.367 8.1738 2.3744 2.7272 5.541 6.5434 6.6191 10.662 1.1431 3.658 1.8924 6.5135 2.7871 10.328 0.66499 2.8201 0.48502 5.3815 0.99219 8.2852 0.16728 0.53384 0.39452 3.6806 0.19141 4.6172-0.2147 3.2274-0.04068 3.081-1.1641 6.125-0.93886 2.0553-1.4918 3.7186-2.4551 5.2969-0.89012 1.135-1.8138 2.4172-2.3906 3.2539-1.0398 1.4866-1.8681 2.1801-3.2422 3.3789-0.94814 0.98877-1.9165 1.385-3.5215 2.4121-0.82861 0.68935-3.4948 2.263-5.2402 3.2285 0.05105-0.05919-4.3056 1.9104-8.0703 3.2949-3.4758 1.2824-9.2071 1.8438-13.365 1.7637-3.9528-0.07544-8.0579-0.45278-11.18-1.0156-1.829-0.48394-8.1522-2.1765-10.174-3.207-7.1732-3.2286-13.609-7.7026-18.4-18.031-1.0526-1.4321-2.7614-7.5799-3.127-9.3555-0.43056-2.574-1.4629-4.7534-1.4746-7.8984-0.32149-3.4932 0.05349-4.3746-0.03125-8.6465-0.1822-2.386 0.9154-7.2965 1.4922-9.9297 0.84486-2.5926 2.941-6.2662 4.0215-8.6406 2.4429-4.7999 4.2155-6.8323 7.7598-10.619 3.5175-3.3435 8.817-7.2617 12.312-9.1777 3.246-1.9067 6.5569-3.474 8.9394-4.4453 2.95-1.1269 6.2238-1.3504 8.293-1.9121 5.4626-0.63828 7.4787-0.26387 11.691 0.033203 3.4084 0.24023 5.7679 0.80628 9.3574 1.209 2.6414 0.35164 6.8992 1.6039 7.8926 1.9277 3.1183 0.95163 7.441 2.8014 10.117 4.4238 2.8909 1.9323 5.9426 4.6489 7.5801 6.6484 1.8545 2.3791 4.9652 6.0274 7.9512 10.623l1.6856 2.8535c2.1528 3.2425 2.7386 7.7522 4.0859 10.855 1.7292 3.839 1.5177 7.1938 3.0449 9.5566 1.1036 1.7083 3.4455 2.8722 5.9766 2.2676 2.5346-0.60348 2.4142-4.917 2.2715-6.0938l-1.5215-6.8027c-0.69747-3.8587-0.85573-5.1959-3.1582-9.8125-2.0588-4.1303-4.4878-8.6189-6.5547-11.633-1.2951-1.8278-3.3264-4.7919-4.3906-6.1602-1.0944-1.4042-3.9112-4.1964-5.2539-5.2617-2.8363-2.2514-10.864-6.9499-15.809-8.4609-2.4545-0.7497-7.1615-2.3611-11.768-3.0527-3.629-0.78918-6.306-0.88944-8.3555-1.0078-3.0417-0.27621-6.0898-0.49048-9.1152-0.46289-0.33684-0.020164-0.67181-0.02479-1.0059-0.017578zm-194.51 118c0.98657 1.2249 1.4102 4.1376 1.4102 6.3867v53.16c0 2.4125-0.70701 5.4697-1.918 7.7207 5.9102 0 22.567 0.05273 26.93 0.05273 19.89 0 34.564-14.351 34.564-33.617 0-25.96-20.787-33.66-34.564-33.66-5.988 0-19.956-0.04297-26.422-0.04297zm22.287 5.8496c1.6604-0.00888 3.3276 0.04055 5.0137 0.14062 10.339 0.61154 23.758 5.6121 23.859 27.488 0.10756 23.083-17.162 26.83-22.301 27.57-5.3112 0.76371-11.18 0.50859-17.539-0.32422l-0.001953-53.912c3.6973-0.64446 7.3158-0.94335 10.969-0.96289zm364.98 0.66016-9.123 2.5391c1.2573 1.1848 1.666 4.651 1.666 6.9375 0 0-0.00586 4.2354-0.00586 4.7461-0.40891 0-5.0437 0.02344-5.8106 0.02344v4.6699c0.80918 0 5.6353 0.00195 5.6387 0.00195v30.281c0 9.5073 6.5085 12.049 11.33 12.049 2.0371 0.0999 4.9266-0.37913 6.9434-0.83008l1.2402-5.8672c-2.3505 0.90563-5.0824 1.1172-6.7227 1.1172-3.0228 0-5.209-2.0213-5.209-5.1816 0-2.8355-0.07144-30.631 0-31.52 0.44674-1.8e-4 6.6447-0.02221 7.2754 0 2.0556 0.07283 3.6359 0.19916 4.9961 0.75l0.00781-5.5273s-12.04-0.01563-12.275-0.01563l0.04883-14.174zm-30.006 12.432c-7.7368 0-15.855 3.4398-15.855 12.582 0 13.521 24.129 11.754 24.129 22.41 0 5.7736-4.4855 8.8398-10.746 8.8398-4.5128 0-10.667-2.5037-14.588-5.3242l1.8262 8.2891c3.9138 1.1288 8.6179 1.9336 13.129 1.9336 9.2584 0 17.67-4.5598 17.67-14.336 0-15.117-24.111-14.689-24.111-22.053 0-5.0155 3.8456-7.5742 8.9648-7.5742 3.2249 0 8.1169 0.66687 11.324 3.4258l0.03125-6.2442c-3.6079-1.406-9.2857-1.9492-11.773-1.9492zm-280.7 0.17187-9.8984 1.5566c1.5457 1.2399 2.048 5.0799 2.0508 7.5606v34.199c0 1.1288-0.48299 3.5778-1.5215 4.8672h10.283c-0.66852-1.4612-0.91407-3.7384-0.91407-4.8672v-23.709c0-11.49 8.7577-15.798 19.033-10.887l2.6328-6.9394c-11.226-4.3993-19.127 0.67814-21.666 6.9961v-8.7773zm83.846 0.01172c-4.1466 0-10.756 0.75863-14.854 2.4121l0.00195 6.9102c3.9324-2.3687 8.6387-4.127 14.385-4.127 7.8286 0 11.658 4.045 10.557 9.4414-0.67039 3.2622-5.1136 4.2472-8.5703 4.7383-6.2468 0.89817-20.631 1.0735-20.631 16.289 0 4.263 2.8151 13.135 15.713 13.135 6.536 0 10.387-1.8752 13.607-6.0644l0.30859 5.3965h8.5098c-1.3445-2.5274-1.4023-6.1248-1.4023-9.9238v-20.516c0-12.366-7.036-17.691-17.625-17.691zm157.59 0c-4.1419 0-10.761 0.75863-14.857 2.4121l-0.00391 0.00195v6.9082c3.9333-2.3687 8.6406-4.127 14.385-4.127 7.8295 0 11.658 4.045 10.555 9.4414-0.66297 3.2622-5.1107 4.2472-8.5684 4.7383-6.2439 0.89817-20.627 1.0735-20.627 16.289 0 4.263 2.8186 13.135 15.709 13.135 6.536 0 10.383-1.8752 13.607-6.0644l0.30859 5.3965h8.5078c-2.2207-2.6049-1.3965-6.1248-1.3965-9.9238v-20.516c0-12.366-7.0358-17.691-17.619-17.691zm-111.05 0.13477c-6.5982-0.00281-10.495 3.8931-12.4 6.2617 0-0.55271 0.01953-5.5028 0.01953-6.1367l-10.021 1.5605c1.2082 1.2744 2.1348 5.2498 2.1348 8.0918v33.062c0 1.1288-0.48114 3.8697-1.5215 5.1562h10.926c-1.0366-1.2894-1.5176-4.0284-1.5176-5.1562v-24.877c0-9.103 5.5931-12.289 11.16-12.289 5.0385 0 9.5898 2.1945 9.5898 12.289v24.879c0 1.1288-0.48186 3.8668-1.5176 5.1543h10.596c-1.0413-1.2894-1.5176-4.0265-1.5176-5.1543v-24.879c0-10.094 6.1934-12.289 11.242-12.289 5.0349 0 10.301 3.1832 10.301 12.289v24.879c0 1.1288-0.47649 3.8668-1.5215 5.1543h10.207c-1.045-1.2894-1.5195-4.0265-1.5195-5.1543v-29.602c0-5.0454-5.1147-13.131-17.053-13.131-6.9468 0-10.958 3.1123-14.004 5.7891-2.5898-3.0437-6.8068-5.8984-13.582-5.8984zm-88.67 0.01367c-13.876 0-22.113 10.927-22.113 24.863 0 12.602 9.1707 23.863 24.879 23.863 4.9662 0 9.1184-1.2318 13.602-2.8125l1.5762-8.0566c-3.8341 3.1781-10.03 5.0586-15.623 5.0586-10.052 0-16.464-7.3287-16.42-18.494 0.00756-1.1521 0.15917-2.2501 0.28711-3.3144h32.826c0-11.362-5.6449-21.107-19.014-21.107zm163.04 0.05664c-14.435 0-25.102 9.7996-25.102 23.73 0 12.606 7.9524 24.723 24.916 24.723 4.9625 0 8.7104-0.63551 13.16-1.9688l1.7793-8.0234c-4.3719 2.7038-10.003 4.5781-14.141 4.5781-12.071 0-17.602-8.3529-17.602-19.258 0-11.009 5.6567-18.65 18-18.65 3.5151 0 8.5556 1.4887 11.748 3.3672l0.01367-6.4082c-1.8591-0.53217-6.4636-2.0898-12.773-2.0898zm-163.59 4.8516c9.289 0 11.977 7.2996 11.977 11.16-0.00185 0-24.201 0.01776-24.201 0 1.0654-5.5272 6.1457-11.16 12.225-11.16zm53.186 16.852h0.00195v7.7207c0 6.1452-2.7743 13.943-13.51 13.943-4.0529 0-9.1719-3.7202-9.1719-8.4473 0-7.9668 7.0377-9.3276 15.162-10.398 3.0914-0.4108 6.0869-1.4618 7.5176-2.8184zm157.58 0v7.7207c0 6.1452-2.7762 13.943-13.51 13.943-4.0529 0-9.166-3.7202-9.166-8.4473 0-7.9668 7.0357-9.3276 15.158-10.398 3.0932-0.4108 6.0887-1.4618 7.5176-2.8184z" fill="#fafafa" stroke-width="0" style="paint-order:stroke markers fill"/>
 </g>
 <style type="text/css">.st0{fill:#FC0C18;}
	.st1{fill:#FC0C18;}</style>
</svg>
