<svg width="480" height="320" version="1.1" viewBox="0 0 480 320" xml:space="preserve" xmlns="http://www.w3.org/2000/svg"><defs><linearGradient id="a" x1="50.724" x2="81.559" y1="-22.025" y2="84.667" gradientTransform="scale(3.7795)" gradientUnits="userSpaceOnUse"><stop stop-color="#ed5353" offset="0"/><stop stop-color="#a10705" offset="1"/></linearGradient></defs><rect width="480" height="320" ry="24" fill="url(#a)"/><path d="m241.31 50.031c-3.8817-0.23641-7.6269 0.94226-11.318 1.1719-1.9429 0.75269-7.3307 1.5149-11.193 2.8926-6.6859 2.7825-9.1408 3.9156-15.877 7.2715-3.36 2.4823-6.4128 3.4822-9.9453 6.209-2.129 0.79753-4.1637 3.1206-4.4844 3.3203-3.0828 2.7268-4.676 3.1557-7.3906 5.873-1.1494 1.322-4.5221 5.1299-5.7109 6.7168-4.1643 5.1194-6.8731 10.981-9.4668 16.076-1.8002 3.2689-2.1438 5.6789-3.5215 8.6055-0.4565 1.7758-2.1655 5.7683-2.3652 7.0957-0.20516 3.1032-1.0666 4.5348-1.7188 7.9668-0.74047 4.0678-0.1724 7.5885-0.59766 11.326 0.29211 1.6739 0.62223 4.6952 0.54883 5.9805 0.6277 5.4591 2.2294 8.9631 3.1777 14.4 0.90078 2.3287 2.4314 7.783 4.627 12.291 0.82471 2.6657 4.635 8.7508 5.6934 10.779 4.8341 6.5623 12.32 13.603 15.666 15.674 0.83014 0.80296 5.7096 4.1404 7.166 4.8809 2.2391 1.2051 7.5767 3.446 10.332 4.4785 4.993 1.5339 13.446 3.9102 21.875 4.9102 8.4386 1.0027 16.169 0.33686 23.691-0.35742 3.883-0.80432 7.4844-2.0112 10.346-2.9297 7.0229-2.7458 10.835-4.6541 15.846-7.6445 3.6888-2.201 5.7365-3.3617 8.125-5.3535 3.1236-2.5339 5.8252-4.8693 8.3672-7.8828 5.9849-6.8055 9.0158-13.872 10.748-19.662 0.77987-3.1045 2.0974-13.219 1.2754-18.174-0.49047-5.7756-1.6208-11.956-2.2852-15.23-0.74182-3.1779-1.0622-5.6718-1.7266-8.4883-0.51629-1.7758-1.3237-4.8127-1.5859-5.8711-0.56655-2.1141-4.1278-9.6994-4.6699-10.477-2.9986-4.6303-5.3594-8.4034-10.252-11.99-1.9116-1.7662-4.8032-3.943-7.2637-5.5312-2.9877-1.8056-5.0932-3.429-8.7344-4.4453-3.4075-0.9497-6.293-2.1642-11.328-2.834-2.7119-0.49455-8.2283-1.6842-12.018-1.7168-8.425-0.13451-11.098-0.8827-20 2.7422-7.1642 3.4048-12.46 6.1219-18.801 11.279-2.4891 1.7812-4.3487 4.3072-6.9043 7.4063-1.6942 2.0094-2.6553 3.7811-4.6484 6.6152-1.1073 1.4456-2.0665 4.1952-3.7051 7.2793-2.9048 7.747-3.2357 19.816-2.7031 22.695 0.47417 2.5651 0.82475 6.3164 1.5312 7.9902 0.51901 1.2309 1.1534 7.0946 4.3965 13.328 0.65215 0.88177 2.8679 5.1903 5.1328 7.5625 4.0773 4.3178 9.4423 7.8616 14.221 9.8711 7.0025 3.0882 18.759 3.8567 23.057 2.7793 4.364-0.64944 7.0267-0.70589 10.498-2.0781 3.2037-0.88991 5.6584-2.0226 7.7656-3.0117 2.4007-1.2065 3.9473-1.9328 6.2461-3.3281 1.6195-0.84237 3.6089-2.2769 4.8711-3.4453 3.133-2.3152 5.2219-5.3909 6.4121-7.918 1.2907-2.739 1.9344-4.7569 2.0703-6.8262 1.6657-12.243-0.62334-21.338-4.6191-29.512-1.8777-3.1548-5.2415-6.9626-8.5879-9.0332-3.9591-2.4958-5.3364-2.8397-10.158-4.5625-2.8178-0.94426-7.0818-1.3848-10.684-1.7285-4.4414-0.2595-9.3488 0.28469-12.15 1.7656-3.1765 1.4388-6.4317 4.5349-8.9941 7.1367-1.9673 2.6643-3.1888 5.0054-4.1738 8.0801-0.49455 2.7105-0.99066 3.5009-1.1523 5.3555-0.24049 2.7499 0.39217 5.5 0.69922 6.9375 0.25951 1.2133 0.76549 2.584 1.7695 4.4453 0.81655 1.5149 2.0125 3.6253 3.0723 4.5723 1.4701 1.3138 3.5597 3.2625 4.9238 4.0723 2.0353 1.5244 11.288 3.3073 14.932 2.6973 4.0719-0.30162 7.8885-0.7795 8.4863-4.7617 0.86139-2.0665-0.0475-5.0307-2.4102-6.373-1.5924-0.73094-6.3709 0.51764-10.504-0.34375-6.0202 0.31657-7.5753-3.9611-8.8633-7.9746-1.4239-4.4374 2.1487-8.7265 3.957-10.793 2.0842-2.1304 5.5192-3.9942 9.625-3.5078 2.1603 0.25679 7.253 1.2416 9.4023 2.3027 3.8396 1.8926 7.214 4.2733 8.7832 6.7148 1.5502 2.4102 2.9781 6.321 3.8164 9.6973 0.83829 3.3735 0.23803 5.7016 0.35352 9.8047 0.24592 2.9972-1.1338 7.8366-1.9395 8.8516-1.5244 1.9211-4.8789 4.5508-4.8789 4.5508-2.4456 1.8056-4.8246 2.3919-8.334 4.0195-3.9102 1.6983-4.6109 1.7225-8.4043 2.6328-1.8722 0.44972-5.4578 0.67101-6.8613 0.75391-2.8518-5e-3 -8.0108-0.29081-11.066-1.9688-3.4088-0.97823-7.9624-3.5015-10.318-6.0762-3.1915-3.0909-5.0871-6.1173-6.0762-8.2246-0.24184-0.51629-1.9973-4.089-2.1562-4.7656-0.16032-0.67661-0.89403-4.0523-1.1875-5.1406-0.29347-1.0883-1.0332-6.0588-1.0332-8.7734-0.24864-3.5624 0.27824-9.098 1.9141-13.031 1.5081-3.9523 3.757-7.6206 5.7773-10.369 1.4755-1.6793 2.7751-4.5405 4.5957-6.2266 2.2798-2.1385 3.9624-3.129 6.1934-4.4238 4.7947-2.9374 6.5197-3.9842 11.207-5.6309 1.6018-0.56384 5.9628-1.4538 7.8418-1.7812 5.4577-0.39808 6.3844-0.78395 12.084-0.1875 2.6698 0.4864 6.8774 1.4679 9.4453 2.332 9.1247 3.5923 15.701 9.342 17.82 11.775 3.4224 3.9292 7.9816 9.4273 9.5332 15.363 1.6521 5.2716 2.7247 9.3845 4.0195 14.879 0.95649 4.061 0.69814 7.7517 1.4277 11.934 0.24461 0.77036 0.56614 5.3032 0.27539 6.6524-0.3057 4.6547-0.0543 4.4412-1.6738 8.8242-1.3546 2.9619-2.1532 5.3559-3.5391 7.6289-1.2907 1.6345-2.6125 3.4816-3.4453 4.6894-1.4972 2.1412-2.6944 3.137-4.6699 4.8652-1.3709 1.4266-2.7618 1.9995-5.0742 3.4805-1.1929 0.99589-5.0346 3.2593-7.5508 4.6465 0.0734-0.0788-6.1981 2.7555-11.619 4.75-5.0121 1.8437-13.268 2.6559-19.258 2.5391-5.6941-0.11141-11.609-0.65177-16.104-1.4629-2.6358-0.6997-11.751-3.1388-14.662-4.6211-10.331-4.648-19.602-11.095-26.508-25.975-1.519-2.057-3.976-10.914-4.5059-13.475-0.61819-3.705-2.1068-6.8466-2.123-11.375-0.46332-5.0324 0.0766-6.3004-0.043-12.455-0.26901-3.436 1.317-10.509 2.1484-14.303 1.2133-3.7363 4.2287-9.0287 5.7871-12.451 3.5203-6.9142 6.0746-9.8419 11.178-15.297 5.0651-4.8178 12.704-10.461 17.736-13.221 4.6751-2.7458 9.447-5.0068 12.879-6.4062 4.2485-1.6263 8.9697-1.9455 11.949-2.7539 7.8652-0.91981 10.775-0.37974 16.84 0.04688 4.9102 0.3451 8.3088 1.164 13.479 1.7441 3.8083 0.50678 9.9371 2.3074 11.369 2.7734 4.4958 1.3722 10.722 4.0395 14.578 6.375 4.1684 2.7852 8.5628 6.6991 10.916 9.5781 2.6738 3.4279 7.1569 8.6834 11.457 15.303l2.4316 4.1113c3.1004 4.6751 3.9466 11.171 5.8867 15.641 2.489 5.5324 2.1857 10.366 4.3867 13.77 1.5883 2.4578 4.9594 4.1424 8.6074 3.2715 3.6493-0.87225 3.4772-7.089 3.2734-8.7832l-2.1934-9.8008c-1.0027-5.5569-1.229-7.4836-4.5469-14.133-2.97-5.9523-6.4687-12.421-9.4414-16.764-1.8668-2.6331-4.7969-6.9016-6.3281-8.873-1.5747-2.0244-5.6377-6.0442-7.5684-7.5781-4.0841-3.2472-15.651-10.015-22.773-12.193-3.5366-1.0828-10.318-3.3992-16.959-4.3965-5.2267-1.1345-9.0785-1.2768-12.057-1.4629-4.3803-0.39808-8.7743-0.71009-13.133-0.66797zm-146.52 170.81c0.71873 0.88584 1.0273 2.9895 1.0273 4.6172v38.434c0 1.7432-0.51667 3.9511-1.3984 5.5801 4.3015 0 16.43 0.0371 19.605 0.0371 14.479 0 25.158-10.377 25.158-24.305 0-18.766-15.13-24.332-25.158-24.332-4.3586 0-14.527-0.0312-19.234-0.0312zm16.945 4.2305c0.96882 8e-3 1.9422 0.0419 2.9238 0.0996 7.5269 0.44156 17.296 4.055 17.369 19.871 0.0788 16.69-12.491 19.396-16.232 19.93-3.8667 0.55297-8.1406 0.37065-12.77-0.22851v-38.977c2.9357-0.50946 5.8025-0.71963 8.709-0.69531zm264.95 0.47657-6.6445 1.8359c0.91845 0.85595 1.2168 3.3635 1.2168 5.0156 0 0-4e-3 3.0621-4e-3 3.4316-0.30026 0-3.6707 0.0137-4.2305 0.0137v3.377c0.58694 0 4.1035 2e-3 4.1035 2e-3v21.893c0 6.8694 4.7367 8.709 8.2461 8.709 1.485 0.0734 3.586-0.27354 5.0547-0.59961l0.90625-4.2422c-1.7133 0.65215-3.701 0.8086-4.8926 0.8086-2.201 0-3.793-1.4602-3.793-3.7441 0-2.0502-0.053-22.144 0-22.787 0.33035-1.5e-4 4.8331-0.0162 5.293 0 1.4986 0.053 2.6476 0.14292 3.6367 0.54101l4e-3 -3.9961s-8.7665-0.01-8.9336-0.01zm-21.846 8.9844c-5.6316 0-11.543 2.4853-11.543 9.0938 0 9.7741 17.568 8.4996 17.568 16.203 0 4.1752-3.2626 6.3926-7.8223 6.3926-3.2852 0-7.7646-1.8083-10.619-3.8476l1.332 5.9863c2.8518 0.81383 6.2714 1.3965 9.5566 1.3965 6.7376 0 12.861-3.2969 12.861-10.363-1e-5 -10.928-17.551-10.619-17.551-15.945 0-3.6249 2.798-5.4727 6.5234-5.4727 2.3478 0 5.9107 0.48342 8.2422 2.4766l0.0215-4.5117c-2.629-1.0149-6.7592-1.4082-8.5703-1.4082zm-204.32 0.12695-7.2051 1.125c1.1263 0.89535 1.4922 3.6714 1.4922 5.4648v24.727c0 0.81383-0.35064 2.5855-1.1074 3.5176h7.4863c-0.48912-1.0557-0.66602-2.7024-0.66602-3.5176v-17.141c0-8.3068 6.3747-11.419 13.855-7.8711l1.918-5.0156c-8.1736-3.1806-13.926 0.48885-15.773 5.0566zm61.033 6e-3c-3.0176 0-7.8289 0.54852-10.812 1.7441l-2e-3 4.9922c2.8613-1.7119 6.2868-2.9844 10.469-2.9844 5.6996 0 8.4899 2.9261 7.6856 6.8281-0.48504 2.3573-3.7234 3.0684-6.2383 3.4258-4.546 0.64672-15.016 0.77574-15.016 11.775 0 3.0842 2.0519 9.498 11.438 9.498 4.7594 0 7.5585-1.3563 9.9062-4.3848l0.22265 3.9004h6.1953c-0.97953-1.8274-1.0195-4.4259-1.0195-7.1758v-14.828c0-8.9413-5.1205-12.791-12.828-12.791zm114.71 0c-3.0176 0-7.827 0.54852-10.811 1.7441h-2e-3v4.9922c2.86-1.7119 6.2849-2.9844 10.467-2.9844 5.6995 0 8.4899 2.9261 7.6855 6.8281-0.48504 2.3573-3.7234 3.0684-6.2383 3.4258-4.546 0.64672-15.014 0.77574-15.014 11.775 0 3.0842 2.0486 9.498 11.436 9.498 4.7594 0 7.5585-1.3563 9.9062-4.3848l0.22265 3.9004h6.1953c-1.6195-1.8831-1.0176-4.4259-1.0176-7.1758v-14.828c0-8.9413-5.1211-12.791-12.83-12.791zm-80.826 0.0996c-4.8083-1e-3 -7.6441 2.8141-9.0312 4.5274 0-0.39944 0.0137-3.9796 0.0137-4.4375l-7.2949 1.1289c0.88041 0.92117 1.5547 3.7947 1.5547 5.8477v23.906c0 0.81519-0.3487 2.7939-1.1055 3.7246h7.9531c-0.75677-0.93203-1.1055-2.9108-1.1055-3.7246v-17.986c0-6.5813 4.0716-8.8828 8.123-8.8828 3.6684 0 6.9824 1.5882 6.9824 8.8828v17.986c0 0.81519-0.35065 2.7939-1.1074 3.7246h7.7148c-0.75677-0.93203-1.1055-2.9108-1.1055-3.7246v-17.986c0-7.296 4.5086-8.8828 8.1797-8.8828 3.667 0 7.5059 2.3029 7.5059 8.8828v17.986c0 0.81519-0.35006 2.7939-1.1055 3.7246h7.4258c-0.75677-0.93203-1.1055-2.9108-1.1055-3.7246v-21.4c0-3.648-3.7214-9.4922-12.414-9.4922-5.0542 0-7.9727 2.2462-10.191 4.1836-1.8844-2.201-4.9548-4.2637-9.8867-4.2637zm-64.549 0.01c-10.1 0-16.098 7.9002-16.098 17.975 0 9.1125 6.6769 17.252 18.111 17.252 3.614 0 6.6383-0.89193 9.9004-2.0332l1.1484-5.8242c-2.7893 2.2975-7.3006 3.6562-11.371 3.6562-7.3191 0-11.985-5.298-11.951-13.371 4e-3 -0.83285 0.11389-1.6263 0.20899-2.3926h23.891c0-8.2144-4.1065-15.262-13.84-15.262zm118.68 0.043c-10.505 0-18.268 7.0818-18.268 17.156 0 9.1125 5.786 17.869 18.135 17.869 3.614 0 6.343-0.45995 9.582-1.4219l1.2949-5.8008c-3.1806 1.9578-7.2828 3.3066-10.295 3.3066-8.7878 0-12.811-6.0351-12.811-13.918 0-7.9576 4.117-13.484 13.098-13.484 2.5597 0 6.2287 1.0763 8.5547 2.4336l0.0117-4.6309c-1.3546-0.3845-4.7105-1.5098-9.3027-1.5098zm-119.08 3.5059c6.762 0 8.7188 5.2757 8.7188 8.0664 0 0-17.617 0.0122-17.617 0 0.77443-3.9972 4.472-8.0664 8.8984-8.0664zm38.713 12.184v5.5801c0 4.4428-2.0171 10.08-9.832 10.08-2.951 0-6.6738-2.6918-6.6738-6.1074 0-5.7593 5.1223-6.7418 11.035-7.5176 2.2499-0.29482 4.43-1.0556 5.4707-2.0352zm114.71 0h2e-3v5.5801c0 4.4428-2.019 10.08-9.834 10.08-2.9524 0-6.6738-2.6918-6.6738-6.1074 0-5.7593 5.1223-6.7418 11.035-7.5176 2.2499-0.29482 4.43-1.0556 5.4707-2.0352z" fill="#fff"/></svg>
