<svg width="480" height="320" version="1.1" viewBox="0 0 127 84.667" xmlns="http://www.w3.org/2000/svg">
 <defs>
  <linearGradient id="a" x1="76.46" x2="58.089" y1="-26.808" y2="84.667" gradientUnits="userSpaceOnUse">
   <stop stop-color="#9bdb4d" offset="0"/>
   <stop stop-color="#007367" offset="1"/>
  </linearGradient>
 </defs>
 <rect width="127" height="84.667" ry="4.2333" fill="url(#a)" stroke-linecap="square" stroke-linejoin="round" stroke-width=".52917" style="paint-order:stroke fill markers"/>
 <path d="m19.298 47.939c-2.6668 0-4.7861 0.85454-6.3576 2.5634-1.5715 1.7092-2.3569 4.0189-2.3569 6.9288 0 2.815 0.82799 5.0478 2.4843 6.6988 1.6561 1.6509 3.9018 2.4758 6.738 2.4758 1.1323 0 2.2491-0.11629 3.3497-0.34902 1.1007-0.23266 2.1747-0.57136 3.2223-1.0157v-0.86537c0.17981 0.24846 0.38406 0.48158 0.61242 0.6987 1.0739 1.0213 2.521 1.5314 4.3412 1.5314 1.4391 0 2.6561-0.25592 3.651-0.76929 0.99462-0.51316 1.8255-1.31 2.4922-2.3896v2.6987h2.921v-0.60001c1.0836 0.34452 2.1173 0.60604 3.1 0.78236 1.0318 0.18497 2.0241 0.27778 2.9765 0.27778 2.2858 0 4.0819-0.48132 5.389-1.4445 1.3069-0.96285 1.9602-2.2696 1.9602-3.9203 0-1.4498-0.43612-2.5799-1.3092-3.3896-0.87304-0.80929-2.347-1.4359-4.421-1.8804l-1-0.22288c-1.5663-0.34903-2.6085-0.71626-3.1268-1.1026-0.5188-0.38637-0.77844-0.91822-0.77844-1.5954 0-0.88904 0.36261-1.5555 1.0876-2 0.72462-0.44434 1.8122-0.66668 3.2621-0.66668 0.95221 0 1.8726 0.10605 2.7615 0.31765 0.88904 0.21196 1.7465 0.52923 2.5719 0.9523v-0.11503l5.8877 14.322-0.52419 1.3334c-0.53965 1.418-1.032 2.3178-1.4765 2.6987-0.44456 0.38095-1.0686 0.57125-1.8726 0.57125h-1.7144v2.4445h2.3334c1.312 0 2.3594-0.32254 3.1425-0.96799 0.78295-0.64559 1.5878-2.0269 2.4131-4.1432l7.7583-19.3v17.649h4.5693v-6.706h1.2941c0.74368 0 1.339 0.16261 1.7863 0.48693 0.44683 0.32469 0.8882 0.9296 1.3235 1.8157l2.1602 4.4033h4.8667l-2.4811-5.0327c-0.50659-1.0206-1.007-1.7823-1.5013-2.285-0.49467-0.50231-1.0549-0.82425-1.6798-0.96668 1.1395-0.35596 1.9925-0.91029 2.5582-1.6621 0.56571-0.75168 0.84838-1.713 0.84838-2.8843 0-1.6929-0.54447-2.9311-1.632-3.7144-1.0882-0.78331-2.7995-1.1752-5.1334-1.1752h-6.9504l0.02288-0.05752h-3.0955l-5.5556 13.905-5.5556-13.905h-3.0955l0.04445 0.10784c-0.44016-0.11939-0.89915-0.21857-1.3765-0.29804-0.95244-0.15877-1.9683-0.23856-3.0478-0.23856-2.1801 0-3.8626 0.45528-5.0478 1.3654-1.1852 0.91009-1.7778 2.2013-1.7778 3.8732 0 1.3757 0.40218 2.4576 1.2066 3.2458 0.80401 0.78838 2.1113 1.3733 3.921 1.7543l1.0157 0.23791c1.8096 0.39151 2.9819 0.79917 3.5164 1.2222 0.53429 0.42328 0.80132 1.0319 0.80132 1.8255 0 0.85727-0.37051 1.5213-1.1111 1.9922-0.74083 0.47083-1.7991 0.70589-3.1746 0.70589-1.0266 0-2.0636-0.13977-3.1111-0.42027-0.9952-0.26623-2.005-0.6608-3.0288-1.1804v-6.5583c0-2.7087-0.63549-4.7302-1.9053-6.0635-1.2698-1.3334-3.1906-2-5.7622-2-0.95229 0-1.9306 0.10276-2.936 0.30915-1.0054 0.2064-2.0431 0.51606-3.1118 0.92877v2.6981c0.88904-0.48668 1.8153-0.8512 2.7785-1.0948 0.96278-0.2433 1.952-0.36536 2.968-0.36536 1.5975 0 2.8385 0.36795 3.7223 1.1033 0.8834 0.73583 1.3255 1.7753 1.3255 3.119v0.28628h-4.0955c-2.6563 0-4.6536 0.50751-5.9922 1.5235-0.11398 0.08649-0.22252 0.17697-0.3268 0.27059v-0.19085c0-2.6453-0.69605-4.7387-2.0876-6.2785-1.3917-1.5397-3.2832-2.3092-5.6746-2.3092zm90.021 0.16601c-3.0545 0-5.4598 0.81845-7.2164 2.4562-1.7566 1.6382-2.6353 3.8856-2.6353 6.7419 0 2.825 0.86259 5.0619 2.5876 6.7118 1.7252 1.6497 4.063 2.4752 7.0145 2.4752 1.3058 0 2.5723-0.13876 3.7987-0.41569s2.4096-0.69177 3.5491-1.2458v-8.5223h-7.1217v3.0628h2.7889v3.4419c-0.32469 0.12686-0.69013 0.21962-1.0974 0.27909-0.40759 0.0591-0.84879 0.08889-1.3236 0.08889-1.7492 0-3.0982-0.51078-4.0478-1.5314-0.94959-1.021-1.4242-2.469-1.4242-4.3445 0-1.8909 0.49273-3.3447 1.4778-4.3615 0.98505-1.0167 2.3872-1.5255 4.2072-1.5255 0.98099 0 1.9605 0.13877 2.9379 0.41569 0.97706 0.27707 1.9601 0.69641 2.9491 1.2582v-3.668c-0.95757-0.43499-1.9755-0.76331-3.0556-0.98498-1.0801-0.22153-2.2099-0.33203-3.3889-0.33203zm-24.215 0.32026v17.72h4.5693v-6.1484h3.0151c2.255 0 3.9859-0.50013 5.1929-1.5013 1.2064-1.0007 1.8098-2.4308 1.8098-4.2902 0-1.8517-0.60325-3.2779-1.8098-4.2791-1.207-1.0009-2.9378-1.5013-5.1929-1.5013zm-65.773 1.9896c1.4391 0 2.595 0.47635 3.468 1.4288 0.87326 0.95265 1.3199 2.2278 1.3412 3.8255l-10.413 0.01634c0.14806-1.672 0.7113-2.9683 1.6902-3.8889 0.97863-0.9208 2.2835-1.3817 3.9131-1.3817zm54.056 1.3216h1.9229c0.95714 0 1.6439 0.17413 2.0595 0.52223 0.41528 0.3481 0.62289 0.92628 0.62289 1.7334 0 0.81507-0.2076 1.4001-0.62289 1.7562-0.41557 0.35617-1.1023 0.53465-2.0595 0.53465h-1.9229zm16.287 0h2.5281c0.8861 0 1.5709 0.21384 2.0536 0.64119 0.48239 0.42728 0.72419 1.037 0.72419 1.8281 0 0.7913-0.2418 1.4021-0.72419 1.8334-0.48275 0.43127-1.1675 0.64707-2.0536 0.64707h-2.5281v-4.9491zm-55.103 5.4726h2.9053v0.65099c0 1.9049-0.48987 3.431-1.4686 4.5791-0.97899 1.1485-2.2776 1.7229-3.8968 1.7229-1.1746 0-2.103-0.30454-2.7857-0.91308-0.6825-0.60854-1.0242-1.4308-1.0242-2.468 0-1.3016 0.45507-2.2223 1.3654-2.7621 0.9101-0.53972 2.5447-0.80981 4.9046-0.80981zm-20.938 0.74576h12.441c-0.46225 0.83545-0.69347 1.8411-0.69347 3.0164 0 0.68065 0.08494 1.3064 0.25425 1.8778-0.79248 0.36901-1.5893 0.65857-2.3909 0.86798-1.053 0.27522-2.1406 0.41308-3.2621 0.41308-1.9365 0-3.4469-0.52666-4.5314-1.5798-1.0849-1.0529-1.6907-2.5847-1.8177-4.5955z" fill="#fafafa" stroke-width=".071391"/>
 <g transform="matrix(.30874 0 0 .30874 68.068 21.584)" fill="#fafafa">
  <path d="m-13.953-27.062c-7.8079 0-14.83 2.8295-20.217 8.2227-0.65569 0.65637-1.2363 1.3556-1.8164 2.0547-14.583 7.2658-24.621 22.295-24.621 39.654 0 0.45464 0.02881 0.89275 0.04297 1.3398-0.65362 0.97061-1.203 2.0092-1.5352 3.1328l-0.0118 0.04296c-2.1587 7.6221-1.2035 15.327 2.7559 22.186 3.9043 6.762 9.8663 11.428 17.23 13.396 3.0295 0.80999 6.0808 1.0531 9.0977 0.85547 5.1829 2.1233 10.821 3.3828 16.756 3.3828 7.0236 0 13.642-1.7205 19.555-4.6387 0.27849 0.19931 0.52827 0.4385 0.82422 0.60938 2.3021 1.3288 5.1328 1.5892 7.7031 0.9707l0.02344-0.0039 0.02149-0.0059c7.6803-1.9414 13.875-6.6221 17.834-13.48 3.9037-6.7613 4.9653-14.258 2.9883-21.619-0.95992-3.5751-2.6397-6.7658-4.8008-9.6074-1.0454-13.537-8.1668-25.356-18.658-32.758-0.44801-1.8496-1.238-3.6161-2.5488-4.9961l-0.015625-0.01758-0.015625-0.01563c-5.5216-5.6803-12.673-8.7051-20.592-8.7051z" color="#000000" fill-opacity=".3" style="-inkscape-stroke:none"/>
  <path transform="matrix(.85698 0 0 .85698 -220.47 -69.911)" d="m238.44 61.246a47.104 47.104 0 0 0-47.104 47.104 47.104 47.104 0 0 0 47.104 47.105 47.104 47.104 0 0 0 47.105-47.105 47.104 47.104 0 0 0-47.105-47.104zm0.83984 6.8086a42.254 42.254 0 0 1 42.254 42.254 42.254 42.254 0 0 1-42.254 42.256 42.254 42.254 0 0 1-42.254-42.256 42.254 42.254 0 0 1 42.254-42.254z" fill-opacity=".3"/>
  <path d="m28.986 30.139c-1.7251-6.4246-5.5838-11.365-11.573-14.823-5.9894-3.4578-12.21-4.3365-18.665-2.6345-0.72443 0.19103-1.4293 0.41037-2.1161 0.65537-0.58949-0.15002-1.2248-0.22648-1.9076-0.22648h-8.5368c-3.1975 0-5.9153-1.1377-8.1534-3.4147-2.2381-2.2757-3.3573-5.0173-3.3573-8.2246 0-3.2049 1.1179-5.9304 3.3547-8.1748 2.2357-2.2445 4.9525-3.3674 8.1484-3.3674 0.82947 0 1.66 0.087578 2.4918 0.26114l-6.8845 6.8345c-1.4153 1.3962-2.122 2.8866-2.122 4.4715 0 1.7759 0.65458 3.3298 1.9659 4.6612 1.3115 1.3314 2.8615 1.9971 4.6527 1.9971 1.5986 0 3.1012-0.64452 4.5088-1.9349l12.278-12.023c1.8537-1.41 2.7816-3.1737 2.7816-5.2909 0-1.6023-0.6395-3.0776-1.9185-4.4241-4.8609-5.0009-10.776-7.5028-17.746-7.5028-6.9072 0-12.71 2.3532-17.41 7.0593-4.7011 4.7064-7.0506 10.518-7.0506 17.433s2.3492 12.742 7.0506 17.481c0.56568 0.57044 1.148 1.106 1.7457 1.6076 0.16484 0.54398 0.40402 1.0906 0.72099 1.6396l4.2685 7.3933c1.5986 2.7689 1.9722 5.6917 1.1195 8.7683-0.85169 3.0763-2.6665 5.4163-5.4441 7.0199-2.7755 1.6023-5.6949 1.9968-8.7569 1.1819-3.0615-0.81412-5.3922-2.6051-6.9903-5.3732-0.4146-0.71808-0.75433-1.4811-1.0197-2.2884l9.3612 2.5453c1.9169 0.52705 3.5608 0.39449 4.9334-0.3982 1.538-0.88821 2.5564-2.2318 3.0538-4.033 0.49742-1.8018 0.29871-3.4769-0.59664-5.0279-0.79931-1.3846-2.1087-2.3638-3.9299-2.9377l-16.551-4.6212c-2.1482-0.90011-4.1391-0.8218-5.9727 0.23654-1.3877 0.80116-2.3455 2.0926-2.8721 3.8735-1.9005 6.7104-1.1094 13.084 2.3752 19.12 3.4536 5.9814 8.3928 9.8301 14.819 11.547 6.4265 1.7182 12.634 0.8472 18.623-2.6106 5.9888-3.4578 9.8605-8.4058 11.614-14.847 0.20426-0.75009 0.37147-1.4965 0.50509-2.2402 0.38576-0.41302 0.73686-0.89085 1.0517-1.4362l4.2685-7.393c1.5986-2.7689 3.9431-4.5537 7.0339-5.3536 3.0901-0.80036 6.0238-0.39899 8.8014 1.2049 2.7755 1.6023 4.577 3.933 5.4023 6.9927 0.82603 3.0581 0.44 5.9724-1.1581 8.7402-0.4146 0.71834-0.90593 1.3938-1.4719 2.0275l-2.4768-9.3792c-0.50165-1.9238-1.4385-3.2808-2.8112-4.0733-1.538-0.88821-3.211-1.0983-5.0197-0.62838-1.8087 0.47016-3.1604 1.4796-4.0558 3.0308-0.79931 1.3846-0.99272 3.0078-0.57891 4.872l4.2733 16.644c0.29448 2.3101 1.3576 3.9955 3.1911 5.0541 1.388 0.80116 2.985 0.98478 4.7905 0.55033 6.7614-1.7092 11.886-5.5811 15.37-11.617 3.4531-5.9809 4.3164-12.183 2.5911-18.606z" color="#000000" fill="#fafafa" style="-inkscape-stroke:none;paint-order:stroke fill markers"/>
 </g>
 <style type="text/css">.st0{fill:#FC0C18;}
	.st1{fill:#FC0C18;}</style>
</svg>
