<svg width="480" height="320" version="1.1" viewBox="0 0 480 320" xml:space="preserve" xmlns="http://www.w3.org/2000/svg"><defs><linearGradient id="a" x1="76.46" x2="58.09" y1="-26.81" y2="84.67" gradientTransform="scale(3.78)" gradientUnits="userSpaceOnUse"><stop stop-color="#9bdb4d" offset="0"/><stop stop-color="#007367" offset="1"/></linearGradient></defs><rect width="480" height="320" ry="24" fill="url(#a)"/><path d="m236.8 52c-11.05 0-21 4.006-28.62 11.64-0.0828 0.08288-0.1583 0.1705-0.2402 0.2539a64.8 64.8 0 0 0-37.13 58.54 64.8 64.8 0 0 0 0.1309 1.861c-1.006 1.427-1.78 3.023-2.273 4.691l-0.00977 0.03125-0.00976 0.03125c-3.056 10.79-1.701 21.7 3.904 31.41 5.526 9.571 13.97 16.18 24.39 18.97 3.541 0.9469 7.105 1.386 10.64 1.352a64.8 64.8 0 0 0 28.03 6.461 64.8 64.8 0 0 0 28.58-6.66c2.864 1.1 6.089 1.235 9.07 0.5176l0.0625-0.01562c10.87-2.748 19.64-9.378 25.25-19.09 5.526-9.572 7.03-20.19 4.23-30.61-0.6237-2.323-1.45-4.541-2.443-6.656a64.8 64.8 0 0 0 0.05859-2.295 64.8 64.8 0 0 0-33.14-56.52c-0.3973-0.5372-0.8153-1.059-1.273-1.541l-0.02344-0.02344-0.02148-0.02148c-7.816-8.04-17.94-12.32-29.15-12.32zm-1.193 13.42a57.01 57.01 0 0 1 57.01 57.01 57.01 57.01 0 0 1-57.01 57.01 57.01 57.01 0 0 1-57.01-57.01 57.01 57.01 0 0 1 57.01-57.01z" fill="none" stroke="#fff" stroke-width="4"/><path d="m236.8 57.64c-9.771 0-17.98 3.329-24.63 9.986-6.65 6.658-9.975 14.88-9.975 24.66 0 9.783 3.324 18.02 9.975 24.73 0.8004 0.8069 1.623 1.566 2.469 2.275 0.2332 0.7696 0.5711 1.542 1.02 2.318l6.039 10.46c2.262 3.917 2.79 8.052 1.584 12.4-1.205 4.352-3.772 7.661-7.701 9.93-3.926 2.267-8.057 2.825-12.39 1.672-4.331-1.152-7.628-3.684-9.889-7.6-0.5866-1.016-1.068-2.096-1.443-3.238l13.24 3.602c2.712 0.7456 5.039 0.5566 6.98-0.5644 2.176-1.256 3.617-3.157 4.32-5.705 0.7036-2.549 0.421-4.917-0.8457-7.111-1.131-1.959-2.982-3.344-5.559-4.156l-23.41-6.537c-3.039-1.273-5.856-1.163-8.449 0.334-1.963 1.133-3.318 2.961-4.062 5.48-2.688 9.493-1.568 18.51 3.361 27.05 4.885 8.462 11.87 13.91 20.96 16.34 9.091 2.431 17.87 1.198 26.34-3.693 8.472-4.892 13.95-11.89 16.43-21 0.2888-1.061 0.5258-2.118 0.7148-3.17 0.5457-0.5844 1.041-1.26 1.486-2.031l6.039-10.46c2.262-3.917 5.579-6.441 9.951-7.572 4.371-1.132 8.52-0.5655 12.45 1.703 3.926 2.267 6.475 5.564 7.643 9.893 1.168 4.326 0.622 8.448-1.639 12.36-0.5866 1.016-1.281 1.973-2.082 2.869l-3.504-13.27c-0.7095-2.721-2.035-4.642-3.977-5.764-2.176-1.256-4.543-1.553-7.102-0.8887-2.559 0.6651-4.47 2.093-5.736 4.287-1.131 1.959-1.404 4.255-0.8184 6.893l6.045 23.54c0.4166 3.268 1.92 5.653 4.514 7.15 1.964 1.134 4.223 1.394 6.777 0.7793 9.565-2.418 16.81-7.895 21.74-16.43 4.885-8.462 6.105-17.24 3.664-26.32-2.44-9.088-7.899-16.08-16.37-20.97-8.473-4.892-17.27-6.134-26.4-3.727-1.025 0.2703-2.023 0.581-2.994 0.9277-0.8341-0.2121-1.731-0.3203-2.697-0.3203h-12.08c-4.523 0-8.367-1.611-11.53-4.832-3.166-3.219-4.75-7.098-4.75-11.63 0-4.534 1.582-8.389 4.746-11.56 3.163-3.175 7.006-4.762 11.53-4.762 1.173 0 2.349 0.1235 3.525 0.3691l-9.74 9.668c-2.002 1.975-3.002 4.082-3.002 6.324 0 2.512 0.9261 4.71 2.781 6.594 1.855 1.883 4.048 2.826 6.582 2.826 2.262 0 4.388-0.911 6.379-2.736l17.37-17.01c2.622-1.995 3.934-4.49 3.934-7.484 0-2.267-0.9036-4.355-2.713-6.26-6.877-7.074-15.25-10.61-25.11-10.61zm-122.1 141.3c-7.559 0-13.56 2.432-18.02 7.291-4.455 4.86-6.682 11.43-6.682 19.7 0 8.004 2.346 14.35 7.041 19.05 4.695 4.694 11.06 7.041 19.1 7.041 3.21 0 6.374-0.3324 9.494-0.9941 3.12-0.6617 6.165-1.625 9.135-2.889v-2.469c0.5109 0.709 1.087 1.375 1.736 1.994 3.044 2.904 7.147 4.357 12.31 4.357 4.079 0 7.527-0.7297 10.35-2.189 2.819-1.459 5.175-3.723 7.064-6.793v7.672h8.279v-1.709c3.071 0.9796 6.004 1.727 8.789 2.229 2.925 0.5259 5.736 0.791 8.436 0.791 6.479 0 11.57-1.369 15.28-4.107 3.704-2.738 5.559-6.455 5.559-11.15 0-4.123-1.236-7.334-3.711-9.637-2.475-2.301-6.652-4.086-12.53-5.35l-2.836-0.6309c-4.44-0.9923-7.394-2.038-8.863-3.137-1.471-1.099-2.205-2.611-2.205-4.537 0-2.528 1.027-4.424 3.082-5.688 2.054-1.264 5.136-1.896 9.246-1.896 2.699 0 5.309 0.3006 7.828 0.9024 2.52 0.6027 4.949 1.506 7.289 2.709v-0.3281l16.69 40.72-1.484 3.793c-1.53 4.032-2.926 6.589-4.186 7.672-1.26 1.083-3.029 1.627-5.309 1.627h-4.859v6.949h6.615c3.719 0 6.688-0.9166 8.908-2.752 2.219-1.836 4.499-5.763 6.838-11.78l21.99-54.88v50.19h12.95v-19.07h3.668c2.108 0 3.797 0.4625 5.064 1.385 1.267 0.9232 2.516 2.644 3.75 5.164l6.125 12.52h13.79l-7.033-14.31c-1.436-2.902-2.855-5.069-4.256-6.498-1.402-1.428-2.988-2.345-4.76-2.75 3.23-1.012 5.646-2.587 7.25-4.725 1.604-2.137 2.406-4.872 2.406-8.203 0-4.814-1.544-8.335-4.627-10.56-3.085-2.227-7.935-3.342-14.55-3.342h-19.71l0.0664-0.1621h-8.773l-15.75 39.54-15.75-39.54h-8.773l0.125 0.3047c-1.247-0.3392-2.548-0.62-3.9-0.8457-2.7-0.4515-5.579-0.6777-8.639-0.6777-6.18 0-10.95 1.295-14.31 3.883-3.359 2.588-5.039 6.257-5.039 11.01 0 3.912 1.14 6.989 3.42 9.23 2.279 2.242 5.984 3.905 11.11 4.988l2.883 0.6758c5.129 1.113 8.45 2.272 9.965 3.475 1.514 1.204 2.273 2.935 2.273 5.191 0 2.438-1.051 4.327-3.15 5.666-2.1 1.339-5.099 2.008-8.998 2.008-2.91 0-5.851-0.3997-8.82-1.197-2.822-0.7572-5.684-1.885-8.586-3.363v-18.64c0-7.702-1.799-13.45-5.398-17.24-3.599-3.791-9.045-5.689-16.33-5.689-2.699 0-5.475 0.2941-8.324 0.8809-2.85 0.5868-5.789 1.467-8.818 2.641v7.672c2.52-1.384 5.143-2.421 7.873-3.113 2.729-0.6917 5.534-1.039 8.414-1.039 4.528 0 8.048 1.048 10.55 3.139 2.504 2.092 3.756 5.048 3.756 8.869v0.8125h-11.61c-7.529 0-13.19 1.445-16.98 4.334-0.3246 0.2471-0.6309 0.5078-0.9277 0.7754v-0.5508c0-7.522-1.972-13.47-5.916-17.85-3.945-4.378-9.307-6.568-16.09-6.568zm255.2 0.4727c-8.658 0-15.48 2.327-20.46 6.984-4.979 4.658-7.467 11.05-7.467 19.17 0 8.033 2.442 14.39 7.332 19.08 4.89 4.691 11.52 7.037 19.88 7.037 3.702 0 7.291-0.3923 10.77-1.18 3.477-0.7874 6.831-1.97 10.06-3.545v-24.23h-20.19v8.707h7.906v9.787c-0.9203 0.3606-1.957 0.6238-3.111 0.793-1.155 0.1682-2.406 0.2539-3.752 0.2539-4.958 0-8.783-1.451-11.47-4.354-2.692-2.903-4.037-7.021-4.037-12.35 0-5.377 1.397-9.513 4.189-12.4 2.792-2.891 6.769-4.336 11.93-4.336 2.781 0 5.556 0.3923 8.326 1.18 2.77 0.7879 5.558 1.983 8.361 3.58v-10.43c-2.714-1.237-5.602-2.17-8.664-2.801-3.062-0.6298-6.263-0.9434-9.605-0.9434zm-68.64 0.9102v50.39h12.95v-17.48h8.547c6.392 0 11.3-1.424 14.72-4.271 3.42-2.846 5.129-6.912 5.129-12.2 0-5.265-1.709-9.321-5.129-12.17-3.421-2.846-8.328-4.27-14.72-4.27zm-186.4 5.658c4.079 0 7.357 1.354 9.832 4.062 2.475 2.709 3.741 6.336 3.801 10.88l-29.52 0.0449c0.4197-4.754 2.016-8.439 4.791-11.06 2.774-2.618 6.472-3.93 11.09-3.93zm153.2 3.758h5.451c2.713 0 4.66 0.4964 5.838 1.486 1.177 0.9899 1.766 2.633 1.766 4.928 0 2.318-0.5885 3.982-1.766 4.994-1.178 1.013-3.125 1.52-5.838 1.52h-5.451zm46.17 0h7.166c2.512 0 4.454 0.6071 5.822 1.822 1.367 1.215 2.051 2.95 2.051 5.199 0 2.25-0.6833 3.989-2.051 5.215-1.368 1.226-3.31 1.84-5.822 1.84h-7.166zm-156.2 15.56h8.234v1.85c0 5.417-1.388 9.759-4.162 13.02-2.775 3.266-6.455 4.896-11.04 4.896-3.33 0-5.963-0.8633-7.898-2.594-1.935-1.73-2.902-4.072-2.902-7.021 0-3.701 1.289-6.316 3.869-7.852 2.58-1.535 7.215-2.303 13.9-2.303zm-59.35 2.121h35.27c-1.311 2.376-1.973 5.231-1.973 8.574 0 1.936 0.2446 3.715 0.7246 5.34-2.247 1.05-4.506 1.875-6.779 2.471-2.985 0.7826-6.067 1.174-9.246 1.174-5.489 0-9.773-1.498-12.85-4.492-3.075-2.994-4.79-7.349-5.15-13.07z" fill="#fff" stroke-width=".8889"/></svg>
