<svg width="480" height="320" version="1.1" viewBox="0 0 480 320" xml:space="preserve" xmlns="http://www.w3.org/2000/svg"><defs><linearGradient id="a" x1="70.4" x2="70.4" y1="1.175e-16" y2="84.67" gradientTransform="scale(3.78)" gradientUnits="userSpaceOnUse"><stop stop-color="#ed5353" offset="0"/><stop stop-color="#c6262e" offset=".3155"/><stop stop-color="#7a0000" offset="1"/></linearGradient></defs><rect width="480" height="320" ry="24" fill="url(#a)"/><path d="m193.8 102.3-15.38 10.26v92.31l15.38-10.26v-58.97l15.38-10.26h-15.38v-12.82l15.38-10.26h-15.38zm-20.51 12.82-15.38 10.26v92.31l15.38-10.26v-92.31zm164.1 0-15.38 10.26v79.49l15.38-10.26v-58.97l15.38-10.26h-15.38v-10.26zm61.54 0-15.38 10.26v10.26l15.38-10.26v-10.26zm-359 10.26 15.38 10.26v82.05l20.51-12.82v12.82l35.9-23.08v-69.23h-15.38v64.1l-5.129 2.564v-66.67h-15.38v64.1l-5.127 2.564v-66.67h-30.77zm76.92 0v69.23h35.9v-69.23h-35.9zm102.6 0-20.51 12.82v56.41h35.9v-15.38h-20.51v-33.33l5.127-3.205v31.41l15.38-10.26v-38.46h-15.38zm20.51 0v69.23h15.38v-53.85h5.129v53.85h15.38v-69.23h-35.9zm41.03 0v30.77l20.51 12.82v10.26h-5.129v-10.26l-15.38 10.26v15.38h35.9v-30.77l-20.51-12.82v-10.26h5.129v10.26l15.38-10.26v-15.38h-35.9zm82.05 0-20.51 12.82v56.41h35.9v-15.38h-20.51v-33.33l5.127-3.205v31.41l15.38-10.26v-38.46h-15.38zm41.03 0v69.23h15.38v-53.85h5.129v53.85h15.38v-69.23h-35.9zm-5.129 5.129-15.38 10.26v53.85h15.38v-64.1zm-266.7 10.26h5.127v38.46h-5.127v-38.46z" fill="#fff"/></svg>
