<svg width="480" height="320" version="1.1" viewBox="0 0 127 84.667" xmlns="http://www.w3.org/2000/svg" xmlns:xlink="http://www.w3.org/1999/xlink">
 <defs>
  <linearGradient id="a" x1="70.403" x2="70.403" y1="1.175e-16" y2="84.667" gradientUnits="userSpaceOnUse">
   <stop stop-color="#ed5353" offset="0"/>
   <stop stop-color="#c6262e" offset=".31549"/>
   <stop stop-color="#7a0000" offset="1"/>
  </linearGradient>
 </defs>
 <rect width="127" height="84.667" ry="4.2333" fill="url(#a)" stroke-linecap="square" stroke-linejoin="round" stroke-width=".52917" style="paint-order:stroke fill markers"/>
 <g transform="matrix(1.5152 0 0 1.5152 -32.635 -21.808)" fill="#fafafa" stroke-width=".26458">
  <path d="m71.069 56.644c-0.77152-0.28072-1.7537-0.64902-2.1746-0.8419l-0.77152-0.33311 1.1925-0.96441 1.2102-0.98213 1.3152 0.50853c1.5957 0.6313 1.9992 0.56118 2.4903-0.38576 0.91175-1.7888 0.07011-3.4724-2.3326-4.6823l-1.0171-0.50879 1.3327-1.5608c0.71914-0.85937 1.3155-1.6309 1.3155-1.701 0-0.07011-0.91202-0.14023-2.0344-0.14023-2.3148 0-2.2273 0.08758-1.2102-1.4907l0.61383-0.96467h5.9626l-1.4907 1.8764c-0.82418 1.0348-1.4907 1.9291-1.4907 1.9817 0 0.05265 0.35084 0.28072 0.78925 0.50853 1.7711 0.94721 2.3148 2.1045 1.9465 4.209-0.43842 2.4201-1.4205 4.3318-2.7707 5.3314-0.89456 0.64876-1.3155 0.68395-2.8763 0.14023z"/>
  <path d="m80.609 56.679c-0.6313-0.70141-2.1923-3.0337-2.4027-3.6126-0.1053-0.28046-0.19288-1.3854-0.19288-2.4903 0-1.9465 0.01746-1.9992 0.57864-2.8234 1.0522-1.5782 1.4205-1.9992 1.6835-1.9992 0.15796 0 0.75406 0.31565 1.3152 0.70141 0.57891 0.3683 1.1049 0.64902 1.1927 0.59637 0.07012-0.05265 0.14023-0.54372 0.14023-1.1049 0-0.91202-0.07011-1.0872-0.6313-1.7537l-0.64902-0.75406 0.9996-0.9996 0.9996-1.0173 0.96467 0.9996 0.94694 0.99986v11.013l-1.0697 1.3679-1.0522 1.3504h-1.1925c-1.0697 0-1.2277-0.05265-1.6309-0.4736zm1.5782-2.3498c0.40322-0.42095 0.52599-1.0697 0.68395-3.4372 0.1053-1.9291 0-2.3326-0.71914-2.3326-0.6313 0-1.6132 0.80671-2.0341 1.6661-0.31565 0.66649-0.3683 1.0345-0.31565 2.0518 0.07012 1.1573 0.10504 1.2626 0.71887 1.8238 0.7366 0.68395 1.1925 0.75406 1.6661 0.22807z"/>
  <path d="m52.532 41.597c-0.07011-0.05265-0.12277-2.1045-0.12277-4.5596v-4.4368h-0.52626c-0.40322 0-0.52599-0.07012-0.52599-0.35084 0-0.263 0.12277-0.35084 0.50853-0.35084 0.4736 0 0.50853-0.05239 0.59637-0.89429 0.07011-0.49107 0.22781-1.0697 0.35057-1.2803 0.28072-0.40322 2.771-1.5081 3.4197-1.5081 0.70141 0 1.5782 0.49107 1.859 1.0348 0.15769 0.28046 0.28046 0.59611 0.28046 0.68395 0 0.07011-0.36804 0.31565-0.80645 0.52599l-0.78925 0.38603-0.52626-0.3683c-0.71887-0.50879-1.0345-0.33338-1.0345 0.54346 0 0.66648 0.03492 0.70168 0.52599 0.70168 0.4736 0 0.52626 0.05239 0.52626 0.52599 0 0.49107-0.03519 0.52626-0.70168 0.52626h-0.70141v4.1386c0 2.5077-0.07011 4.2614-0.17542 4.472-0.15769 0.263-0.38576 0.33311-1.1224 0.33311-0.50853 0-0.98187-0.05265-1.0345-0.12277z"/>
  <path d="m78.329 39.878c-0.3683-0.24553-0.82418-0.77179-1.0348-1.1576-0.33311-0.64876-0.35057-0.96441-0.29792-3.6827l0.05239-2.9639h-0.47334c-0.42095 0-0.49107-0.07012-0.49107-0.52599 0-0.43842 0.07012-0.52626 0.43842-0.52626 0.38576 0 0.43841-0.07012 0.43841-0.59611 0-0.50853 0.12277-0.68395 0.96467-1.3152l0.96441-0.7366v2.648h0.78925c0.78899 0 0.78899 0 0.78899 0.61383s0 0.61383-0.78899 0.61383h-0.78925v5.1207l0.54372 0.50853c0.29818 0.28072 0.61383 0.50879 0.70141 0.50879 0.31565 0 0.12277 0.45588-0.50853 1.1925l-0.64902 0.75406z"/>
  <path d="m31.242 39.808c-0.57891-0.36804-1.4907-1.5608-1.7362-2.2971-0.07011-0.24553-0.12277-1.6486-0.08784-3.1218 0.03519-2.613 0.03519-2.7006-0.42069-3.5073l-0.4736-0.82418 0.9996-0.91202 1.0171-0.91176 0.64902 0.82418c0.96441 1.2099 1.0872 1.8412 0.84164 4.3315-0.10504 1.1576-0.14023 2.3852-0.08758 2.7358 0.17542 0.8419 0.7366 1.4205 1.3152 1.3504l0.4736-0.05265 0.01746-2.876c0.01746-2.6482-0.01746-2.9287-0.3683-3.6126l-0.40322-0.71914 0.98187-1.0345 0.98213-1.0173 0.8419 0.91202c0.47334 0.52626 0.87683 1.1398 0.92948 1.4732 0.07012 0.31565-0.01773 1.3327-0.15796 2.2622-0.40322 2.4728-0.3683 3.1567 0.15796 3.6478l0.42069 0.40322 0.35084-0.42095c0.19288-0.22781 0.52599-0.77152 0.7366-1.1925 0.33311-0.66622 0.3683-0.96441 0.29819-2.2974-0.07038-1.1573-0.19315-1.701-0.45614-2.1394l-0.3683-0.59637 0.57891-0.94694c0.31565-0.52599 0.68395-0.98213 0.84164-1.0171 0.35084-0.07011 1.2803 1.3854 1.5608 2.4551 0.19288 0.68395 0.17542 1.0874-0.05265 2.4027-0.28046 1.5433-1.1748 3.8407-1.6484 4.2439-0.45588 0.38576-0.263 0.54372 0.49107 0.42095l0.71887-0.12277-0.49107 0.84164c-0.263 0.4736-0.54345 0.92948-0.6313 1.0173-0.07012 0.08758-0.87683 0.263-1.7711 0.38576-1.701 0.22807-1.9643 0.17542-2.7009-0.49107-0.36804-0.31565-0.38576-0.31565-1.2274 0.1053-1.2629 0.6313-1.5081 0.66622-2.122 0.29792z"/>
  <path d="m82.152 39.773c-1.1573-0.91202-1.6658-3.3322-1.0872-5.2787 0.22807-0.78925 0.45588-1.1398 1.1925-1.8063 1.1398-1.0171 1.7714-1.3504 2.3148-1.2099 0.61383 0.14023 1.333 0.98187 1.438 1.6658 0.07038 0.57891 0 0.66648-1.6658 2.087-1.6312 1.3854-1.7539 1.5433-1.7539 2.1571l-0.01746 0.64876h1.8415c1.0522 0 1.8412 0.07012 1.8412 0.17542 0 0.08758-0.08758 0.56118-0.19288 1.0522l-0.19288 0.87683h-1.6134c-1.4028 0-1.701-0.05265-2.1045-0.3683zm1.4732-4.9279c0.38576-0.31565 0.70141-0.68395 0.70141-0.80672 0-0.28072-0.78899-0.57891-1.1573-0.43841-0.49107 0.17542-0.85937 1.8063-0.40349 1.8063 0.1053 0 0.49107-0.263 0.85937-0.56118z"/>
  <path d="m57.179 39.615c-0.70141-0.42069-1.0171-1.1398-1.175-2.5604-0.263-2.2095 0.70168-4.4894 2.2098-5.2787 1.2277-0.6313 1.6835-0.61357 2.2622 0.12277 0.89456 1.1049 0.87683 1.4383-0.22781 2.4553-0.52626 0.47334-1.2451 1.1049-1.596 1.3679-0.57864 0.43841-0.6313 0.54372-0.57864 1.2626l0.03493 0.78925 1.6309 0.05265c0.87709 0.01746 1.6134 0.10504 1.6134 0.19288 0 0.07011-0.12277 0.54345-0.263 1.0345l-0.28046 0.91202h-1.5259c-1.2277 0-1.6484-0.07012-2.1045-0.35084zm1.6312-4.998c0.68368-0.57864 0.68368-0.59611 0.36804-0.94694-0.61357-0.68395-0.9996-0.38576-1.2451 0.91202-0.07011 0.35057-0.05239 0.64876 0.01773 0.64876 0.08758-0.01746 0.47334-0.28072 0.85937-0.61383z"/>
  <path d="m62.686 39.072c-0.78925-0.87683-0.78925-0.89456-0.54372-1.3856 0.35084-0.68395 0.35084-3.4197 0-4.2614l-0.24553-0.61383 0.70141-0.6313c0.75406-0.68395 1.0874-0.66649 1.6134 0.07011 0.22807 0.33311 0.263 0.31565 1.1576-0.35084 1.0522-0.78899 1.4205-0.8591 2.1394-0.33311 0.87683 0.6313 1.0348 1.1398 1.0348 3.5425 0 2.1394 0.01746 2.1921 0.43841 2.4728 0.42095 0.28046 0.42095 0.31565 0.17542 0.78899-0.14049 0.28072-0.56118 0.75406-0.91202 1.07l-0.66648 0.54345-0.91175-1.0171c-0.89456-0.98213-0.91202-1.0348-0.57891-1.2626 0.31565-0.21061 0.35084-0.43842 0.35084-1.8764 0-1.824-0.12277-2.087-1.1398-2.2799-0.9996-0.17542-1.1401 0.07011-1.1401 1.9992 0 1.5782 0.03519 1.7187 0.45614 2.1571l0.45588 0.49107-0.7366 0.87683c-0.42095 0.49107-0.77152 0.89429-0.80672 0.89429-0.01746 0-0.40322-0.40322-0.84164-0.89429z"/>
  <path d="m69.841 39.79c-0.59637-0.24553-0.59637-0.38576 0.01746-1.1398l0.59637-0.68395 0.84164 0.24553c1.6134 0.45588 2.6831 0.1053 2.6831-0.87683 0-0.64902-0.28046-0.78925-2.0167-1.0348-1.438-0.21034-2.0518-0.61383-2.2625-1.4732-0.24527-0.96441 0.14049-1.9992 1.0348-2.876 0.91202-0.87683 1.859-1.1224 3.3496-0.89429 1.5608 0.24553 1.6134 0.31565 0.70141 1.1573l-0.78925 0.71914-0.73634-0.24553c-1.0874-0.38576-1.5259-0.35084-1.6661 0.15796-0.21061 0.87683-0.05265 1.0345 1.4205 1.4555 1.9114 0.54372 2.2447 0.91202 2.3323 2.5077l0.07012 1.2277-0.68395 0.68395c-0.45588 0.45588-0.9996 0.77152-1.6309 0.96467-0.9996 0.29792-2.648 0.35057-3.2618 0.10504z"/>
  <path d="m91.692 39.089-0.75406-0.89429 0.28046-0.61383c0.42095-0.87683 0.38576-3.0866-0.05265-4.051l-0.33311-0.75406 0.77152-0.61383c0.68395-0.56118 0.80671-0.61383 1.1224-0.40349 0.21061 0.12277 0.3683 0.263 0.3683 0.31565 0 0.05265 0.07012 0.19288 0.15796 0.33338 0.12277 0.19288 0.31565 0.12277 0.92948-0.38603 0.43841-0.35057 1.0345-0.70141 1.3327-0.75406 0.49107-0.10504 0.64902-0.01746 1.2626 0.59637l0.70168 0.70141v2.2447c0 2.1746 0.01746 2.2625 0.45588 2.7183l0.43841 0.45588-0.33311 0.56118c-0.38603 0.64902-1.4557 1.4907-1.6134 1.2978-0.07012-0.08758-0.45614-0.50853-0.87683-0.98213l-0.75406-0.84164 0.36804-0.38576c0.33338-0.35084 0.38603-0.61383 0.38603-1.7362 0-0.7366-0.05265-1.4732-0.1053-1.6312-0.14023-0.35057-0.98214-0.78899-1.5433-0.78899-0.6313 0-0.80672 0.47334-0.80672 2.1045 0 1.2626 0.05265 1.4907 0.45614 2.0167l0.45588 0.61383-0.54372 0.66649c-0.94694 1.1925-0.94694 1.1925-1.7711 0.21034z"/>
  <path d="m42.676 39.545c-0.75406-0.31565-1.6309-1.3854-1.7711-2.1394-0.29818-1.596 0.31565-3.8232 1.4205-5.1385 0.57864-0.66622 2.0341-1.4203 2.7707-1.4203 0.85937 0 1.6835 0.50853 2.1921 1.3854 0.42095 0.71887 0.4736 0.96441 0.45614 2.385-0.01773 2.35-0.8419 4.2265-2.1921 4.9104-0.61383 0.31565-2.1746 0.33311-2.8763 0.01746zm2.6831-2.2447c0.31591-0.31565 0.24553-1.8939-0.12277-2.7006-0.36804-0.78925-1.1398-1.5081-1.5081-1.3679-0.28046 0.12277-0.61383 0.9996-0.61383 1.6309 0.01773 0.68395 0.59637 1.8415 1.1401 2.2622 0.54345 0.43841 0.80671 0.4736 1.1046 0.17542z"/>
  <path d="m48.762 39.019-0.71887-0.78925 0.29792-0.57864c0.22807-0.43842 0.31565-1.1576 0.35084-3.0866 0.08758-3.0337 0-3.5425-0.68395-4.3315l-0.54372-0.59637 0.92948-1.0697c0.52626-0.57864 0.96467-1.0522 0.9996-1.0522 0.03519 0 0.263 0.45588 0.52626 1.0171 0.47334 0.98213 0.47334 1.0348 0.47334 4.7702 0 3.3846 0.03519 3.823 0.33338 4.2439l0.31565 0.49107-0.64902 0.87683c-0.35057 0.4736-0.70141 0.87683-0.78899 0.87683-0.07038 0-0.45614-0.35057-0.8419-0.77152z"/>
  <path d="m87.834 39.001-0.77179-0.78925 0.29818-0.61383c0.22807-0.49107 0.29818-1.1224 0.29818-2.7884v-2.1746l0.68395-0.54345 0.66649-0.52626 0.21034 0.43842c0.1053 0.263 0.19288 1.3854 0.19288 2.7358 0 2.0344 0.03519 2.3675 0.3683 2.8937l0.38576 0.61357-0.77152 0.77179-0.78925 0.77152z"/>
  <path d="m88.15 29.882-0.8419-0.56118 0.43842-0.19288c0.3683-0.17542 0.56118-0.14023 1.2277 0.28046 0.43842 0.26326 0.78925 0.52626 0.78925 0.57891 0 0.05265-0.17542 0.17542-0.40349 0.28046-0.31565 0.15796-0.52599 0.08784-1.2099-0.38576z"/>
 </g>
 <style type="text/css">.st0{fill:#FC0C18;}
	.st1{fill:#FC0C18;}</style>
</svg>
