<svg width="480" height="320" version="1.1" viewBox="0 0 480 320" xmlns="http://www.w3.org/2000/svg" xmlns:xlink="http://www.w3.org/1999/xlink"><defs><linearGradient id="a" x1="240" x2="240" y1="270" y2="-60.14" gradientUnits="userSpaceOnUse"><stop stop-color="#33424d" offset="0"/><stop stop-color="#1ae55e" offset="1"/></linearGradient></defs><rect id="b" width="480" height="320" ry="24" fill="url(#a)"/><path d="m40 120v9.337h5.281v48h-5.281v9.332h14.52v-66.67zm17.17 0v9.337h9.238v7.995h9.244v-17.33zm22.44 0v9.337h4.617l28.38 57.33h10.56v-9.332h-4.617l-28.38-57.33zm29.04 0v33.33l9.244 17.33v-41.33h5.277v-9.337zm18.48 0v18.67h9.244v-9.332h5.281v-9.337zm17.16 0v57.33h-5.277v9.332h19.8v-9.332h-5.282v-57.33zm11.88 0v9.337h5.281v9.332h9.238v-18.67zm18.48 0v9.337h5.281v48h-5.281v9.332h14.52v-66.67zm17.16 0v9.337h9.244v7.995h9.238v-17.33zm22.44 0v9.337h5.282v48h-5.282v9.332h14.52v-66.67zm17.16 0v9.337h7.439l4.446 4.109v10.44l-4.446 4.115h-7.439v9.337h10.56l10.56-9.783v-17.77l-10.56-9.782zm25.08 0v9.337h5.281v48h-5.281v9.332h19.8v-9.332h-5.281v-57.33zm17.16 0v9.337h7.439l4.446 4.109v10.44l-4.446 4.115h-7.439v9.337h10.56l10.56-9.783v-17.77l-10.56-9.782zm25.08 0v9.337h5.282v48h-5.282v9.332h14.52v-66.67zm17.16 0v9.337h7.438l4.446 4.109v10.44l-4.446 4.115h-7.438v9.337h10.56l10.56-9.783v-17.77l-10.56-9.782zm26.4 0v9.337h6.602v48h-6.602v9.332h21.12v-9.332h-6.602v-48h6.602v-9.337zm35.64 0-10.56 9.782v17.77l10.56 9.783h8.759l4.446 4.109v11.78l-4.446 4.115h-7.439v9.332h10.56l10.56-9.782v-19.1l-10.56-9.783h-8.76l-4.445-4.115v-10.44l4.445-4.109h7.438v-9.337zm13.2 0v17.33h9.238v-17.33zm13.2 0v9.337h5.283v48h-5.283v9.332h14.52v-66.67zm17.16 0v9.337h9.244v7.995h9.237v-17.33zm-336.6 16v41.33h-5.277v9.332h14.52v-33.33zm-27.72 12v9.337h13.2v-9.337zm134.7 0v9.337h13.2v-9.337zm229.7 0v9.337h13.2v-9.337zm-187.5 12 7.923 26.66h10.56v-9.332h-4.088l-5.15-17.33zm84.49 0 7.923 26.66h10.56v-9.332h-4.093l-5.144-17.33zm48.85 6.664v20h9.237v-20zm-301 1.331v9.337h-9.238v9.332h18.48v-18.67zm134.7 0v9.337h-9.244v9.332h18.48v-18.67zm229.7 0v9.337h-9.244v9.332h18.48v-18.67zm-390.8 22.67v9.336h63.37v-9.336zm67.33 0v9.336h63.37v-9.336zm67.33 0v9.336h63.37v-9.336zm67.33 0v9.336h63.37v-9.336zm67.33 0v9.336h63.37v-9.336zm67.32 0v9.336h63.37v-9.336z" fill="#fff"/></svg>
