<svg width="480" height="320" version="1.1" viewBox="0 0 127 84.667" xmlns="http://www.w3.org/2000/svg" xmlns:xlink="http://www.w3.org/1999/xlink">
 <defs>
  <linearGradient id="a" x1="21.096" x2="139.51" y1="22.923" y2="63.143" gradientUnits="userSpaceOnUse">
   <stop stop-color="#cc3b02" offset="0"/>
   <stop stop-color="#a10705" offset="1"/>
  </linearGradient>
 </defs>
 <rect width="127" height="84.667" ry="4.2333" fill="url(#a)" stroke-linecap="square" stroke-linejoin="round" stroke-width=".52917" style="paint-order:stroke fill markers"/>
 <path d="m26.302 51.633-3.1419-0.29048-0.01165-0.48466-0.01165-0.48466 0.13567 1.66e-4c0.19382 2.07e-4 6.1604 0.5331 6.1792 0.55188 0.0086 0.0086 0.01036 0.2367 0.0039 0.50693l-0.01165 0.49131zm-14.945-0.3503v-0.57878h1.5003c1.6518 0 1.7753-0.01411 2.2263-0.25451 0.30267-0.16132 0.62724-0.50204 0.77152-0.80992 0.10316-0.22012 0.11244-0.28475 0.1247-0.86827l0.01325-0.63045h-5.2975v-1.1576h6.3252v1.0512c0 1.1596-0.03773 1.5478-0.19198 1.9754-0.31448 0.87182-1.0472 1.5777-1.8566 1.7885-0.19845 0.05169-0.5494 0.06319-1.9289 0.06319h-1.6863zm6.0771 0.10335v-0.47542l0.83716-2.48e-4c0.46044-1.24e-4 0.90501-0.01908 0.98794-0.04211 0.23499-0.06526 0.2833-0.17763 0.2833-0.65899v-0.41487h1.8667l0.12084-0.12084c0.09404-0.09404 0.12084-0.15822 0.12084-0.28939v-0.16854h-4.2168v-0.99219h5.085l-4.14e-4 0.8785c-3.72e-4 0.83726-5e-3 0.8882-0.09812 1.0852-0.11745 0.24844-0.27176 0.40033-0.52159 0.51342-0.1643 0.07437-0.27127 0.08432-0.91542 0.08512-0.78379 9.76e-4 -0.779-3.72e-4 -0.77996 0.22133-6.45e-4 0.14896-0.22922 0.49969-0.40507 0.62156-0.29468 0.20422-0.47457 0.23289-1.4615 0.23289h-0.90294zm13.353-0.10335v-0.57878h1.6108c1.5278 0 1.6225-0.0044 1.8395-0.0856 0.3211-0.12014 0.64942-0.43168 0.81794-0.77616l0.13459-0.27512 0.01248-1.3126 0.01248-1.3126h0.86387l-6.11e-4 1.3953c-6.78e-4 1.5468-0.02192 1.7267-0.25702 2.1769-0.20031 0.38361-0.67462 0.83284-1.1066 1.0481-0.58551 0.29178-0.64553 0.29931-2.3858 0.29931h-1.5416zm14.387 0v-0.57878h5.5409l-0.01093-1.2712-0.01093-1.2712-5.519-0.02126v-1.157h6.4492v4.8783h-6.4492zm6.9453 0.0017v-0.58051h2.022c1.8684 0 2.0412-6e-3 2.2737-0.07832 0.49363-0.15364 0.8424-0.4584 1.0004-0.87418 0.07076-0.18622 0.07825-0.33061 0.07825-1.5077v-1.3018h0.86816v1.4176c0 1.5501-0.01525 1.6835-0.24671 2.1584-0.24473 0.50213-0.82821 1.0067-1.4162 1.2248-0.25746 0.09547-0.27584 0.0963-2.4195 0.10924l-2.1601 0.01303v-0.58051zm7.7264 0.47972c-0.40402-0.1662-0.60633-0.35146-0.81433-0.74573l-0.1114-0.21115-0.01188-1.9327-0.01189-1.9327h0.87126v1.2402h3.4637l0.02731 0.10882c0.01502 0.05985 0.13482 0.21633 0.26622 0.34772 0.18301 0.18301 0.29066 0.25427 0.4601 0.30459 0.39815 0.11824 0.7682 0.05679 1.1021-0.18302l0.17894-0.1285v0.74928h-5.4984v0.43541c0 0.50767 0.05534 0.68149 0.25589 0.80376 0.13335 0.0813 0.2021 0.08344 2.6897 0.08359l2.5528 1.55e-4v1.1576l-5.1883-0.00196-0.23182-0.09536zm5.8335-0.48145v-0.57878h3.4334l-0.01138-0.65112-0.01139-0.65112-2.8732-0.02174v-1.0325h3.5553v2.3564h1.0749v1.1576h-5.1676zm11.741 0v-0.57878h1.915c1.6515 0 1.9419-0.0092 2.1102-0.06653 0.23003-0.07838 0.48095-0.2994 0.48095-0.42363 0-0.08761-7.03e-4 -0.08765-1.602-0.09847l-1.602-0.01082v-1.1576l3.7414-0.02152v-0.78464h-3.8341l-0.02674 0.2016c-0.04059 0.30601-0.24059 0.66412-0.51941 0.93008-0.31447 0.29995-0.60514 0.43835-0.92178 0.43889l-0.23771 4.14e-4v-1.1497l0.22024-0.1243c0.44337-0.25022 0.80105-0.77844 0.8434-1.2455l0.02271-0.25038h5.3262l-0.02534 3.0386-0.10906 0.29832c-0.20879 0.57112-0.65324 1.06-1.2139 1.3351-0.49103 0.241-0.56124 0.24755-2.6545 0.24755h-1.9137zm-51.304-1.284c-1.6257-0.15507-2.9605-0.28307-2.9662-0.28445-0.0057-0.0014-0.01034-0.22398-0.01034-0.49466v-0.49216l0.15503 0.01809c0.08527 0.01 1.4201 0.12878 2.9662 0.26407s2.8996 0.25735 3.0076 0.27124l0.19637 0.02526v0.98443l-0.19637-0.0049c-0.108-0.0027-1.5265-0.13182-3.1523-0.28688zm3.762-1.4652v-1.5916h0.86816v3.1833h-0.86816zm6.7799 0.99219v-0.59945h5.9945v1.1989h-5.9945zm33.693-0.08268v-0.51676h6.2012v1.0335h-6.2012zm-44.008-1.015c-1.6371-0.15552-3.0277-0.28377-3.0903-0.28501l-0.11369-0.0022v-0.49614c0-0.36936 0.0132-0.49608 0.05168-0.49602 0.02842 4.1e-5 1.4097 0.1209 3.0696 0.26857s3.0598 0.26856 3.1109 0.26864c0.09149 1.24e-4 0.09302 0.0086 0.09302 0.51691 0 0.46627-0.0071 0.51634-0.07235 0.51238-0.03979-0.0024-1.4118-0.13162-3.0489-0.28714zm37.683 0.16432c-0.23084-0.10471-0.31988-0.18425-0.4151-0.37081-0.18932-0.37093-0.13643-0.73104 0.14934-1.0168 0.33019-0.33019 0.81456-0.3485 1.1615-0.0439 0.39975 0.35098 0.39756 0.96592-0.0046 1.2974-0.27556 0.22714-0.58375 0.27352-0.8911 0.1341zm0.65233-0.44954c0.31271-0.31271 0.12053-0.7887-0.31758-0.78659-0.29219 0.0014-0.45951 0.17471-0.45951 0.47592 0 0.11722 0.03183 0.18338 0.14056 0.29211 0.11842 0.11842 0.17002 0.14056 0.32755 0.14056 0.15195 0 0.20985-0.02286 0.30898-0.122zm-12.601-0.5808v-0.57878h3.5967v1.1576h-3.5967zm-41.465-2.4185v-0.51676h104.84l-0.54723 0.51603-0.54724 0.51603-103.75 0.001471zm53.309-1.7383c-2.1948-0.41172-3.8676-2.086-4.3067-4.3106-0.10544-0.53419-0.09496-1.5114 0.02214-2.0636 0.46189-2.178 2.1476-3.8361 4.2846-4.2144 0.54048-0.09569 1.3799-0.08483 1.9114 0.02473 2.1062 0.4342 3.7034 2.0345 4.1707 4.1787 0.09458 0.43402 0.1083 1.6955 0.0227 2.0877-0.24131 1.1058-0.68937 1.9708-1.4113 2.7246-0.73711 0.76964-1.522 1.2295-2.5609 1.5003-0.51185 0.13345-1.6088 0.17073-2.1326 0.07248zm1.5324-1.8414c0.77364-0.14222 1.552-0.63221 2.0465-1.2883 0.73341-0.97312 0.92005-2.1376 0.53073-3.3113-0.17836-0.53774-0.40617-0.8993-0.8398-1.3328-0.43656-0.43648-0.78618-0.65732-1.3474-0.85109-0.37801-0.13052-0.41677-0.1356-1.0335-0.1356-0.61676 0-0.65552 0.0051-1.0335 0.1356-0.56123 0.19377-0.91085 0.41461-1.3474 0.85109-0.50235 0.50226-0.76267 0.9607-0.95286 1.6781-0.10759 0.4058-0.09967 1.2435 0.01584 1.6743 0.34888 1.3015 1.3507 2.2916 2.5945 2.5642 0.30795 0.0675 1.0399 0.07599 1.367 0.01585zm-11.6 1.8032c-1.6305-0.27484-3.1017-1.3799-3.8544-2.895-0.60529-1.2184-0.71169-2.7468-0.28261-4.0599 0.48452-1.4827 1.6084-2.6945 3.0421-3.28 2.3259-0.95 4.9854-0.11378 6.3827 2.0069l0.29964 0.45475-2.285 0.02199-0.27495-0.22822c-0.3193-0.26503-0.77532-0.51171-1.1867-0.64193-0.44018-0.13933-1.2448-0.16098-1.7243-0.04639-1.3016 0.31105-2.2505 1.2812-2.5822 2.6399-0.10231 0.41914-0.09238 1.1364 0.0222 1.6032 0.24981 1.0178 0.91775 1.8484 1.8452 2.2944 0.54683 0.26298 0.91383 0.34815 1.4883 0.34538 0.48853-0.0024 0.85158-0.07346 1.2816-0.25101 0.29272-0.12087 0.85871-0.48841 1.0309-0.66945l0.12142-0.12765h2.2597l-0.10035 0.19637c-0.16892 0.33056-0.51922 0.79658-0.84854 1.1289-0.78588 0.79295-1.7836 1.318-2.8539 1.5019-0.4608 0.07915-1.3288 0.082-1.7807 0.0058zm38.18-0.10833c-1.3149-0.32036-2.3317-1.4257-2.5387-2.7597-0.03011-0.19407-0.04513-1.523-0.04513-3.9933v-3.7024h2.024l0.01118 3.7724 0.01118 3.7724 0.11454 0.23323c0.12816 0.26097 0.38632 0.52044 0.6565 0.65981 0.12855 0.06631 0.27634 0.09806 0.5184 0.11134 0.31053 0.01705 0.3602 0.0084 0.59945-0.10483 0.3208-0.15178 0.5483-0.37332 0.69027-0.67217l0.10802-0.22738 0.01098-3.7724 0.01097-3.7724h2.0244l-0.0014 3.731c-0.0015 4.0076-0.0035 4.0497-0.21647 4.6299-0.37389 1.0186-1.3069 1.8382-2.3866 2.0965-0.46421 0.11104-1.1313 0.11024-1.5916-0.0019zm-81.421-5.2051v-5.2503h5.4984v1.9421l-3.452 0.02158v2.3978l3.452 0.02158v1.9412l-3.452 0.02158-0.01072 2.0774-0.01072 2.0774h-2.025zm3.185 5.22c9.41e-4 -0.01742 1.6152-2.3757 3.5873-5.2407l3.5856-5.209 1.6724-0.02238v10.502h-1.8999l-0.01121-0.81649-0.01121-0.81649-3.5707-0.02154-1.1041 1.6338-1.125 0.011c-0.61873 6e-3 -1.1242-0.0033-1.1232-0.02067zm6.9337-5.1476c0.0059-0.92656-0.0034-1.6846-0.02067-1.6845-0.03195 1.28e-4 -2.2305 3.2259-2.2716 3.3329-0.01897 0.04943 0.15238 0.0566 1.1295 0.04727l1.1519-0.011zm2.4903-0.07299v-5.251l2.325 0.02196 1.5557 3.6043c0.85563 1.9824 1.5688 3.5914 1.5849 3.5757 0.01607-0.01571 0.72421-1.6376 1.5736-3.6043l1.5444-3.5757 2.3304-0.02196v10.502h-2.0257v-5.2917h-0.11892c-0.12788 0-0.11149-0.03586-2.0404 4.4648l-0.3455 0.80615h-1.8558l-1.1345-2.6355c-1.117-2.5949-1.1363-2.6355-1.251-2.6355h-0.11655v5.2917h-2.0257zm11.451 6.44e-4v-5.2503h1.943v10.501h-1.943zm2.5218 0v-5.2503h2.0671v8.5576h2.6872v1.943h-4.7542zm5.8291 3.2411v-2.0092l-3.272-6.4823 2.1351 0.001581 1.0309 2.0276c0.567 1.1152 1.0516 2.0559 1.0769 2.0905 0.03701 0.05061 0.25661-0.34494 1.1204-2.018l1.0744-2.081 1.063-0.01103c0.58463-0.0061 1.063-1e-3 1.063 0.01118 0 0.01222-0.73484 1.473-1.633 3.2462l-1.633 3.224v4.0097h-2.0257zm27.657-3.2411v-5.2503h2.3l1.5026 3.483c0.82641 1.9156 1.5343 3.547 1.5731 3.6252l0.07052 0.14221 0.08001-0.18355c0.04401-0.10095 0.74858-1.7323 1.5657-3.6252l1.4857-3.4417h2.2951v10.501h-2.0257v-5.2917h-0.10563c-0.08778 0-0.1217 0.03667-0.20078 0.21704-0.05233 0.11937-0.56521 1.31-1.1397 2.6458l-1.0446 2.4288h-1.835l-1.1341-2.6355c-1.0845-2.5202-1.1391-2.6361-1.2478-2.6486l-0.11369-0.01308v5.2972h-2.0257zm11.493-0.0022v-5.2525l1.9947 0.01515c2.247 0.01707 2.1869 0.0098 2.8691 0.3447 0.428 0.21008 0.8488 0.54379 1.1436 0.90688 0.26402 0.32524 0.58291 0.9897 0.67387 1.4042 0.08501 0.38733 0.09327 1.0425 0.01771 1.4056-0.2186 1.0505-0.96524 1.9867-1.9352 2.4265-0.52923 0.23997-0.81132 0.28835-1.8182 0.31186l-0.91984 0.02148v3.6687h-2.0257zm4.0425-0.62968c0.28571-0.15054 0.53344-0.4086 0.66339-0.69105 0.08303-0.18047 0.1052-0.29579 0.10747-0.55898 0.0026-0.2946-0.01232-0.36244-0.13323-0.60805-0.14801-0.30066-0.35952-0.51064-0.66693-0.66213-0.17577-0.08662-0.25281-0.0941-1.0883-0.10579l-0.89917-0.01257v2.7801l0.89917-0.01323c0.89199-0.01312 0.90092-0.01414 1.1176-0.12833zm12.287 1.6447v-4.2375h-1.695v-2.0257h5.457v2.0257h-1.7363v8.4749h-2.0257zm4.2995-1.0129v-5.2503h5.3744v1.943h-3.3486v2.4391h3.3486v1.943h-3.3486v2.2324h3.3486v1.943h-5.3744zm6.0042 0.01033 0.0109-5.24h2.3771c2.362 0 2.3792 6.07e-4 2.7078 0.09569 1.1757 0.34017 2.0924 1.282 2.4015 2.4675 0.11413 0.43768 0.106 1.2602-0.0167 1.6899-0.27198 0.95239-0.90082 1.7276-1.744 2.15-0.19327 0.09682-0.3946 0.18728-0.4474 0.20102-0.0894 0.02327-0.0918 0.03161-0.0356 0.1211 0.0332 0.05286 0.51102 0.87746 1.0618 1.8324 0.55074 0.95498 1.0276 1.7782 1.0597 1.8293l0.0584 0.09302-2.1723-8.2e-5 -1.6123-2.6853c-0.88677-1.4769-1.6263-2.6861-1.6433-2.6871-0.0171-1e-3 -0.031 1.2074-0.031 2.6853v2.6872h-1.9856zm4.8328-0.62246c0.30977-0.15412 0.51647-0.35943 0.66443-0.65998 0.1197-0.24315 0.13609-0.3165 0.13609-0.60892 0-0.29231-0.0164-0.36581-0.13587-0.60848-0.16312-0.33133-0.4219-0.57409-0.7381-0.69239-0.20813-0.07787-0.3189-0.08406-1.5047-0.08406h-1.28v2.7741l1.3332-0.01246c1.2967-0.01212 1.3385-0.01507 1.5249-0.10781z" fill="#fff" stroke-width=".041341"/>
 <style type="text/css">.st0{fill:#FC0C18;}
	.st1{fill:#FC0C18;}</style>
</svg>
