<?xml version="1.0" encoding="UTF-8" standalone="no"?>
<!-- Created with Inkscape (http://www.inkscape.org/) -->

<svg
   width="480"
   height="320"
   viewBox="0 0 127 84.666667"
   version="1.1"
   id="svg1543"
   inkscape:export-filename="/home/vitor/Dev/es-theme-material-tv-3-2/assets/logo/famicom.png"
   inkscape:export-xdpi="96"
   inkscape:export-ydpi="96"
   inkscape:version="1.1.1 (3bf5ae0d25, 2021-09-20)"
   sodipodi:docname="famicon.svg"
   xmlns:inkscape="http://www.inkscape.org/namespaces/inkscape"
   xmlns:sodipodi="http://sodipodi.sourceforge.net/DTD/sodipodi-0.dtd"
   xmlns:xlink="http://www.w3.org/1999/xlink"
   xmlns="http://www.w3.org/2000/svg"
   xmlns:svg="http://www.w3.org/2000/svg">
  <sodipodi:namedview
     id="namedview1545"
     pagecolor="#505050"
     bordercolor="#eeeeee"
     borderopacity="1"
     inkscape:pageshadow="0"
     inkscape:pageopacity="0"
     inkscape:pagecheckerboard="0"
     inkscape:document-units="px"
     showgrid="false"
     units="px"
     width="640px"
     inkscape:snap-page="true"
     showguides="true"
     inkscape:guide-bbox="true"
     inkscape:zoom="1.4039016"
     inkscape:cx="260.70203"
     inkscape:cy="269.96194"
     inkscape:window-width="1920"
     inkscape:window-height="1019"
     inkscape:window-x="0"
     inkscape:window-y="30"
     inkscape:window-maximized="1"
     inkscape:current-layer="layer1">
    <sodipodi:guide
       position="10.583333,76.729167"
       orientation="-1,0"
       id="guide2978"
       inkscape:label=""
       inkscape:locked="false"
       inkscape:color="rgb(0,0,255)" />
    <sodipodi:guide
       position="116.41667,7.9375"
       orientation="-1,0"
       id="guide2980"
       inkscape:label=""
       inkscape:locked="false"
       inkscape:color="rgb(0,0,255)" />
    <sodipodi:guide
       position="10.583333,76.729167"
       orientation="0,-1"
       id="guide2982" />
    <sodipodi:guide
       position="116.41667,7.9375"
       orientation="0,-1"
       id="guide2984" />
  </sodipodi:namedview>
  <defs
     id="defs1540">
    <linearGradient
       inkscape:collect="always"
       id="linearGradient2856">
      <stop
         style="stop-color:#cc3b02;stop-opacity:1"
         offset="0"
         id="stop2852" />
      <stop
         style="stop-color:#a10705;stop-opacity:1"
         offset="1"
         id="stop2854" />
    </linearGradient>
    <linearGradient
       inkscape:collect="always"
       xlink:href="#linearGradient2856"
       id="linearGradient2858"
       x1="21.095604"
       y1="22.922602"
       x2="139.51451"
       y2="63.143272"
       gradientUnits="userSpaceOnUse" />
  </defs>
  <g
     inkscape:label="Camada 1"
     inkscape:groupmode="layer"
     id="layer1">
    <rect
       style="opacity:1;fill:url(#linearGradient2858);fill-opacity:1;stroke-width:0.529167;stroke-linecap:square;stroke-linejoin:round;paint-order:stroke fill markers"
       id="rect1569"
       width="127"
       height="84.666664"
       x="0"
       y="0"
       ry="4.2333331" />
    <path
       style="fill:#ffffff;stroke-width:0.0413411"
       d="m 26.302455,51.633035 -3.141927,-0.290482 -0.01165,-0.484664 -0.01165,-0.484665 0.135671,1.66e-4 c 0.193818,2.07e-4 6.160404,0.533104 6.179182,0.551883 0.0086,0.0086 0.01036,0.2367 0.0039,0.506932 l -0.01165,0.491312 z M 11.35763,51.28273 v -0.578776 h 1.500266 c 1.651817,0 1.775275,-0.01411 2.226297,-0.254506 0.302674,-0.161324 0.627243,-0.502045 0.771524,-0.80992 0.103155,-0.220119 0.112437,-0.284746 0.124696,-0.868273 l 0.01325,-0.630452 H 13.344915 10.696171 V 47.562026 46.98325 h 3.162598 3.162598 v 1.051208 c 0,1.159576 -0.03773,1.547751 -0.191984,1.97539 -0.314484,0.871823 -1.047191,1.577657 -1.856565,1.788472 -0.198448,0.05169 -0.549403,0.06319 -1.928887,0.06319 H 11.35763 Z m 6.077148,0.103353 v -0.475424 l 0.837159,-2.48e-4 c 0.460437,-1.24e-4 0.905008,-0.01908 0.987937,-0.04211 0.234994,-0.06526 0.283303,-0.177628 0.283303,-0.658987 v -0.414866 h 0.933356 0.933356 l 0.120843,-0.120843 c 0.09404,-0.09404 0.120844,-0.158223 0.120844,-0.289388 v -0.168545 h -2.108399 -2.108399 v -0.496093 -0.496094 h 2.542481 2.542481 l -4.14e-4,0.878499 c -3.72e-4,0.837265 -0.005,0.888202 -0.09812,1.085205 -0.117448,0.248436 -0.27176,0.400331 -0.521589,0.51342 -0.164296,0.07437 -0.271267,0.08432 -0.915417,0.08512 -0.783792,9.76e-4 -0.778998,-3.72e-4 -0.779958,0.22133 -6.45e-4,0.148962 -0.229217,0.499693 -0.405072,0.621561 -0.294683,0.204222 -0.474567,0.232887 -1.461453,0.232887 H 17.434782 Z M 30.787969,51.28273 v -0.578776 h 1.610755 c 1.527836,0 1.622531,-0.0044 1.839543,-0.0856 0.321102,-0.12014 0.649417,-0.431685 0.817942,-0.776163 l 0.134593,-0.275118 0.01248,-1.312581 0.01248,-1.312582 h 0.431934 0.431933 l -6.11e-4,1.395264 c -6.78e-4,1.546786 -0.02192,1.726676 -0.257015,2.176898 -0.200314,0.383608 -0.674618,0.832835 -1.106631,1.048124 -0.585509,0.291781 -0.645531,0.299311 -2.385802,0.299311 h -1.541608 z m 14.38672,0 v -0.578776 h 2.770454 2.770455 l -0.01093,-1.271241 -0.01093,-1.27124 -2.759521,-0.01063 -2.759522,-0.01063 V 47.56173 46.983247 h 3.22461 3.224609 v 2.439128 2.439128 h -3.224609 -3.22461 z m 6.945313,0.0017 v -0.580507 h 2.022033 c 1.868409,0 2.041153,-0.006 2.273684,-0.07832 0.493634,-0.153637 0.842401,-0.458401 1.000382,-0.874176 0.07076,-0.186219 0.07825,-0.330608 0.07825,-1.507744 v -1.301774 h 0.434082 0.434082 v 1.417584 c 0,1.550116 -0.01525,1.683532 -0.246707,2.158425 -0.244731,0.502132 -0.828208,1.00674 -1.41622,1.224782 -0.257464,0.09547 -0.27584,0.0963 -2.419511,0.109235 l -2.160075,0.01303 v -0.580506 z m 7.726351,0.47972 c -0.404019,-0.166198 -0.606326,-0.351461 -0.814334,-0.745727 l -0.111398,-0.211149 -0.01188,-1.932698 -0.01189,-1.932699 h 0.435632 0.435628 v 0.620117 0.620118 h 1.731847 1.731847 l 0.02731,0.10882 c 0.01502,0.05985 0.134822,0.216327 0.266216,0.347724 0.183014,0.183011 0.290658,0.254273 0.460099,0.304592 0.398148,0.118237 0.768197,0.05679 1.102117,-0.18302 l 0.178937,-0.128501 v 0.374639 0.374639 h -2.749183 -2.749187 v 0.43541 c 0,0.507672 0.05534,0.681489 0.255894,0.803765 0.13335,0.0813 0.2021,0.08344 2.689663,0.08359 l 2.552816,1.55e-4 v 0.578776 0.578776 l -2.594157,-9.8e-4 -2.594157,-9.8e-4 -0.23182,-0.09536 z m 5.833546,-0.481452 v -0.578776 h 1.716707 1.716708 l -0.01138,-0.651123 -0.01139,-0.651123 -1.436604,-0.01087 -1.436605,-0.01087 v -0.516228 -0.516229 h 1.777669 1.777669 v 1.178223 1.178223 h 0.537435 0.537435 v 0.578776 0.578776 H 68.263721 65.6799 Z m 11.740886,0 v -0.578776 h 1.915 c 1.651526,0 1.94186,-0.0092 2.110239,-0.06653 0.230026,-0.07838 0.480946,-0.299395 0.480946,-0.423629 0,-0.08761 -7.03e-4,-0.08765 -1.601969,-0.09847 l -1.60197,-0.01082 v -0.578776 -0.578776 l 1.870687,-0.01076 1.870687,-0.01076 v -0.39232 -0.392319 h -1.917039 -1.917034 l -0.02674,0.201595 c -0.04059,0.306006 -0.240589,0.664125 -0.51941,0.930076 -0.31447,0.299953 -0.605139,0.43835 -0.921775,0.438888 l -0.237712,4.14e-4 v -0.57483 -0.57483 l 0.220245,-0.124298 c 0.443371,-0.250223 0.801051,-0.778436 0.843405,-1.245516 l 0.02271,-0.250383 h 2.663093 2.663093 l -0.01267,1.519287 -0.01267,1.519287 -0.109058,0.298319 c -0.208786,0.571119 -0.653236,1.059977 -1.213859,1.335145 -0.491034,0.241002 -0.561239,0.247549 -2.654519,0.247549 h -1.91368 z M 26.11642,49.998719 c -1.625741,-0.155071 -2.960543,-0.283073 -2.966228,-0.28445 -0.0057,-0.0014 -0.01034,-0.223975 -0.01034,-0.494663 v -0.49216 l 0.155029,0.01809 c 0.08527,0.01 1.420069,0.128783 2.966228,0.264072 1.546159,0.135289 2.899564,0.257348 3.007568,0.271242 l 0.196371,0.02526 v 0.492214 0.492214 l -0.196371,-0.0049 c -0.108004,-0.0027 -1.526522,-0.131815 -3.152262,-0.286885 z m 3.762044,-1.465176 v -1.591634 h 0.434082 0.434082 v 1.591634 1.591635 h -0.434082 -0.434082 z m 6.779949,0.992188 v -0.599447 h 2.997233 2.997233 v 0.599447 0.599447 h -2.997233 -2.997233 z m 33.693035,-0.08268 v -0.516765 h 3.100587 3.100586 v 0.516765 0.516764 H 73.452035 70.351448 Z M 26.343796,48.428055 c -1.637109,-0.155517 -3.027722,-0.28377 -3.090251,-0.285006 l -0.113688,-0.0022 v -0.49614 c 0,-0.369355 0.0132,-0.496075 0.05168,-0.496018 0.02842,4.1e-5 1.409734,0.120899 3.069581,0.268571 1.659847,0.147672 3.059761,0.268561 3.110921,0.268642 0.09149,1.24e-4 0.09302,0.0086 0.09302,0.51691 0,0.466266 -0.0071,0.516336 -0.07235,0.512382 -0.03979,-0.0024 -1.411801,-0.131623 -3.04891,-0.287141 z m 37.683201,0.164319 c -0.230845,-0.104711 -0.319881,-0.184246 -0.415102,-0.370812 -0.189322,-0.370933 -0.13643,-0.731038 0.149336,-1.016809 0.330192,-0.33019 0.814561,-0.348499 1.161476,-0.0439 0.399748,0.350982 0.397565,0.96592 -0.0046,1.297423 -0.275555,0.227135 -0.583749,0.273515 -0.891104,0.1341 z m 0.652326,-0.449544 c 0.312709,-0.312709 0.12053,-0.788701 -0.317583,-0.78659 -0.292186,0.0014 -0.459511,0.174707 -0.459511,0.47592 0,0.117225 0.03183,0.183379 0.14056,0.292106 0.118418,0.118418 0.170016,0.14056 0.32755,0.14056 0.151954,0 0.209848,-0.02286 0.308984,-0.121996 z M 52.078661,47.562026 V 46.98325 h 1.79834 1.79834 v 0.578776 0.578777 h -1.79834 -1.79834 z M 10.613489,45.143569 v -0.516764 h 52.420043 52.420038 l -0.54723,0.516029 -0.54724,0.516029 -51.872805,7.36e-4 -51.872806,7.35e-4 z M 63.9229,43.405221 c -2.194798,-0.411717 -3.867601,-2.086035 -4.306702,-4.310596 -0.10544,-0.534192 -0.09496,-1.511413 0.02214,-2.06358 0.461893,-2.17799 2.147586,-3.836096 4.28456,-4.214442 0.540482,-0.09569 1.37991,-0.08483 1.911354,0.02473 2.10617,0.4342 3.703444,2.034531 4.170723,4.178702 0.09458,0.434017 0.108301,1.695458 0.0227,2.087728 -0.241312,1.105817 -0.689368,1.970812 -1.411329,2.724636 -0.737108,0.76964 -1.522011,1.229493 -2.560861,1.500342 -0.511849,0.133448 -1.608828,0.170732 -2.132587,0.07248 z m 1.532363,-1.841413 c 0.773642,-0.142217 1.552017,-0.632211 2.046478,-1.28828 0.733413,-0.973118 0.920047,-2.137559 0.53073,-3.311329 -0.178359,-0.537735 -0.406169,-0.899297 -0.839796,-1.332847 -0.436563,-0.43648 -0.786181,-0.657318 -1.347412,-0.851091 -0.378011,-0.130515 -0.416772,-0.1356 -1.033528,-0.1356 -0.616757,0 -0.655518,0.0051 -1.033529,0.1356 -0.561231,0.193773 -0.910849,0.414611 -1.347411,0.851091 -0.502349,0.502258 -0.762666,0.960698 -0.95286,1.67807 -0.107586,0.405799 -0.09967,1.243453 0.01584,1.674317 0.348878,1.301459 1.350689,2.29158 2.594492,2.564218 0.307946,0.0675 1.039862,0.07599 1.366998,0.01585 z M 53.85526,43.36699 c -1.630471,-0.274841 -3.101707,-1.379851 -3.854427,-2.89497 -0.605293,-1.218371 -0.711691,-2.746846 -0.282611,-4.059882 0.484519,-1.482687 1.608369,-2.694459 3.042055,-3.280041 2.325874,-0.949995 4.985362,-0.113777 6.382739,2.006915 l 0.299644,0.454753 -1.142495,0.01099 -1.1425,0.011 -0.274952,-0.228222 c -0.319298,-0.265031 -0.77532,-0.51171 -1.186702,-0.641927 -0.44018,-0.139334 -1.244798,-0.16098 -1.72431,-0.04639 -1.301572,0.311049 -2.250534,1.281235 -2.582181,2.639931 -0.102309,0.419143 -0.09238,1.136427 0.0222,1.60325 0.249812,1.017808 0.917752,1.848356 1.845163,2.294362 0.546831,0.262981 0.913833,0.34815 1.488281,0.345385 0.488532,-0.0024 0.851578,-0.07346 1.281576,-0.251013 0.29272,-0.12087 0.858709,-0.488407 1.030928,-0.669453 l 0.121423,-0.127647 h 1.129841 1.129846 l -0.100348,0.19637 c -0.16892,0.330559 -0.519216,0.796584 -0.848543,1.128876 -0.785875,0.792954 -1.783648,1.318033 -2.853929,1.501882 -0.460796,0.07915 -1.328849,0.082 -1.780699,0.0058 z m 38.179621,-0.108326 c -1.314897,-0.320364 -2.331719,-1.425691 -2.53869,-2.759658 -0.03011,-0.194074 -0.04513,-1.522982 -0.04513,-3.99332 v -3.702449 h 1.012015 1.01201 l 0.01118,3.77238 0.01118,3.772379 0.114536,0.233227 c 0.128157,0.260967 0.386324,0.520435 0.656501,0.659809 0.128546,0.06631 0.276345,0.09806 0.518402,0.111344 0.31053,0.01705 0.360205,0.0084 0.599446,-0.104831 0.320795,-0.151779 0.5483,-0.373317 0.690273,-0.672172 l 0.108017,-0.227377 0.01098,-3.772379 0.01097,-3.77238 h 1.012221 1.012217 l -0.0014,3.731039 c -0.0015,4.007585 -0.0035,4.049704 -0.21647,4.629859 -0.373894,1.018615 -1.306868,1.838174 -2.386579,2.096456 -0.464212,0.111045 -1.131268,0.110237 -1.591634,-0.0019 z M 10.613489,38.053563 v -5.250326 h 2.749186 2.749187 v 0.971064 0.971063 l -1.725993,0.01079 -1.725993,0.01079 v 1.198893 1.198893 l 1.725993,0.01079 1.725993,0.01079 v 0.97061 0.97061 l -1.725993,0.01079 -1.725993,0.01079 -0.01072,2.077393 -0.01072,2.077392 H 11.62596 10.613484 Z m 3.184981,5.219984 c 9.41e-4,-0.01742 1.615239,-2.375713 3.587327,-5.240655 l 3.585616,-5.208984 0.836175,-0.01119 0.836175,-0.01119 v 5.251182 5.251181 h -0.949972 -0.949973 l -0.01121,-0.816487 -0.01121,-0.816488 -1.785326,-0.01077 -1.785325,-0.01077 -0.552034,0.816925 -0.552034,0.816925 -1.124962,0.011 c -0.618729,0.006 -1.124191,-0.0033 -1.123249,-0.02067 z m 6.933729,-5.147637 c 0.0059,-0.926559 -0.0034,-1.684595 -0.02067,-1.684526 -0.03195,1.28e-4 -2.230504,3.225923 -2.271558,3.332907 -0.01897,0.04943 0.152378,0.0566 1.129536,0.04727 l 1.151894,-0.011 z m 2.49034,-0.07299 v -5.250969 l 1.162486,0.01098 1.162485,0.01098 1.555695,3.604296 c 0.855633,1.982363 1.568845,3.59144 1.584916,3.575727 0.01607,-0.01571 0.724209,-1.637646 1.57364,-3.604296 l 1.544419,-3.575727 1.165211,-0.01098 1.165211,-0.01098 v 5.250969 5.250969 h -1.012858 -1.012858 v -2.645833 -2.645833 h -0.11892 c -0.127877,0 -0.111488,-0.03586 -2.040368,4.464844 l -0.345495,0.806152 H 28.678194 27.750286 L 26.61582,40.64772 c -1.117009,-2.594946 -1.136258,-2.635498 -1.251015,-2.635498 h -0.116549 v 2.645833 2.645833 h -1.012859 -1.012858 z m 11.451498,6.44e-4 v -5.250326 h 0.971517 0.971517 v 5.250326 5.250325 h -0.971517 -0.971517 z m 2.52181,0 v -5.250326 h 1.033529 1.033529 v 4.278809 4.278809 h 1.343587 1.343588 v 0.971516 0.971517 h -2.377117 -2.377116 z m 5.829102,3.241142 v -2.009184 l -1.635983,-3.241142 -1.635982,-3.241142 1.067542,7.91e-4 1.067542,7.9e-4 1.030916,2.027585 c 0.567004,1.115172 1.051628,2.055911 1.076942,2.090531 0.03701,0.05061 0.256611,-0.344944 1.120395,-2.018041 l 1.074368,-2.080985 1.062964,-0.01103 c 0.58463,-0.0061 1.062963,-0.001 1.062963,0.01118 0,0.01222 -0.734839,1.472997 -1.632975,3.246174 l -1.632975,3.223958 v 2.00485 2.00485 h -1.012858 -1.012859 z m 27.657229,-3.241142 v -5.250326 h 1.150015 1.15002 l 1.502573,3.482992 c 0.826414,1.915645 1.534307,3.546987 1.573089,3.625203 l 0.07052,0.142213 0.08001,-0.183554 c 0.04401,-0.100954 0.748577,-1.732296 1.565709,-3.625203 l 1.485694,-3.441651 h 1.147547 1.147544 v 5.250326 5.250325 h -1.012858 -1.012859 v -2.645833 -2.645833 h -0.105626 c -0.08778,0 -0.121704,0.03667 -0.200782,0.217041 -0.05233,0.119372 -0.565208,1.309997 -1.139726,2.645833 l -1.044579,2.428792 h -0.917517 -0.917513 l -1.134087,-2.635498 c -1.084477,-2.520222 -1.139056,-2.63607 -1.247771,-2.648579 l -0.113688,-0.01308 v 2.648579 2.648579 h -1.012858 -1.012858 z m 11.492839,-0.0022 v -5.252517 l 1.99471,0.01515 c 2.246999,0.01707 2.186856,0.0098 2.869068,0.344698 0.427996,0.210076 0.8488,0.543788 1.14355,0.906878 0.264021,0.325235 0.582906,0.989704 0.673873,1.404157 0.08501,0.387331 0.09327,1.042509 0.01771,1.405599 -0.218604,1.050517 -0.965242,1.986732 -1.935151,2.426511 -0.529233,0.239966 -0.811316,0.288349 -1.818208,0.31186 l -0.919841,0.02148 v 1.834349 1.83435 H 83.18787 82.175012 Z m 4.042519,-0.629677 c 0.285709,-0.150538 0.533442,-0.408597 0.663389,-0.691048 0.08303,-0.180468 0.105201,-0.295786 0.107471,-0.558975 0.0026,-0.294602 -0.01232,-0.362443 -0.13323,-0.608047 -0.148014,-0.300658 -0.359515,-0.510637 -0.666932,-0.662127 -0.17577,-0.08662 -0.252814,-0.0941 -1.088331,-0.105788 l -0.89917,-0.01257 v 1.390057 1.390057 l 0.89917,-0.01323 c 0.891989,-0.01312 0.900915,-0.01414 1.117633,-0.128329 z m 12.287235,1.644726 v -4.237468 h -0.847494 -0.847494 v -1.012858 -1.012858 h 2.728516 2.728511 v 1.012858 1.012858 h -0.86816 -0.86816 v 4.237468 4.237467 h -1.012861 -1.012858 z m 4.299479,-1.012858 v -5.250326 h 2.68717 2.68718 v 0.971517 0.971517 h -1.67432 -1.67431 v 1.219564 1.219564 h 1.67431 1.67432 v 0.971517 0.971517 h -1.67432 -1.67431 v 1.116211 1.116211 h 1.67431 1.67432 v 0.971516 0.971517 h -2.68718 -2.68717 z m 6.0042,0.01033 0.0109,-5.23999 h 2.37711 c 2.36203,0 2.37922,6.07e-4 2.70785,0.09569 1.1757,0.340173 2.0924,1.282049 2.4015,2.467459 0.11413,0.437675 0.106,1.260248 -0.0167,1.689887 -0.27198,0.952388 -0.90082,1.727623 -1.74401,2.15002 -0.19327,0.09682 -0.3946,0.187279 -0.4474,0.201023 -0.0894,0.02327 -0.0918,0.03161 -0.0356,0.121099 0.0332,0.05286 0.51102,0.877457 1.06175,1.832437 0.55074,0.954981 1.02761,1.778186 1.05973,1.829346 l 0.0584,0.09302 -1.08616,-4.1e-5 -1.08616,-4.1e-5 -1.6123,-2.685288 c -0.88677,-1.476909 -1.62626,-2.686113 -1.64331,-2.687121 -0.0171,-10e-4 -0.031,1.207371 -0.031,2.685317 v 2.687174 h -0.99279 -0.99279 z m 4.83281,-0.622457 c 0.30977,-0.154121 0.51647,-0.359434 0.66443,-0.659984 0.1197,-0.243146 0.13609,-0.316499 0.13609,-0.608916 0,-0.29231 -0.0164,-0.365806 -0.13587,-0.608475 -0.16312,-0.331332 -0.4219,-0.574087 -0.7381,-0.692393 -0.20813,-0.07787 -0.3189,-0.08406 -1.50469,-0.08406 h -1.28003 v 1.38705 1.38705 l 1.33325,-0.01246 c 1.29674,-0.01212 1.33851,-0.01507 1.52492,-0.107814 z"
       id="path4930" />
  </g>
  <style
     type="text/css"
     id="style3952">
	.st0{fill:#FC0C18;}
	.st1{fill:#FC0C18;}
</style>
</svg>
