<svg width="480" height="320" version="1.1" viewBox="0 0 480 320" xml:space="preserve" xmlns="http://www.w3.org/2000/svg"><defs><linearGradient id="a" x1="21.096" x2="139.51" y1="22.923" y2="63.143" gradientTransform="scale(3.7795)" gradientUnits="userSpaceOnUse"><stop stop-color="#cc3b02" offset="0"/><stop stop-color="#a10705" offset="1"/></linearGradient></defs><rect width="480" height="320" ry="24" fill="url(#a)"/><path d="m206.83 123.63c-11.138 0.11461-20.057 9.2101-19.963 20.338-0.0938 11.117 8.8352 20.234 19.963 20.359 7.4498-0.0313 14.254-4.2301 17.619-10.867l0.08399-0.15625h-8.7734c-2.3756 2.3548-5.5747 3.6882-8.9297 3.709-7.1997-0.19796-12.878-6.1675-12.68-13.367 0.17713-6.9288 5.7613-12.515 12.68-12.682 3.3133 0.0104 6.4916 1.3236 8.8359 3.668l8.8672 0.02148-0.08399-0.15625c-3.3654-6.6475-10.169-10.836-17.619-10.867zm38.072 0.09375c-11.138 0.12503-20.066 9.2316-19.973 20.359 0.2188 11.024 9.3254 19.785 20.359 19.566 11.024-0.2188 19.785-9.3254 19.566-20.359-0.21881-10.857-9.0859-19.556-19.953-19.566zm163.78 0.15625v0.00977h-20.109v40.094h20.203v-7.7207h-12.639v-8.043h12.639v-7.7207h-12.639v-8.8984h12.639v-7.7207h-0.09375zm-329.31 0.00977-27.643 40.104h8.5645s4.2721-6.2194 4.3242-6.3027h13.523v6.3027h7.2734v-40.104h-0.09375-5.9492zm187.74 0.00976v40.105h7.543v-19.965c0.12503-0.0313 0.71872-0.1556 0.84375-0.19727l8.7637 20.162h6.7402s8.6797-19.986 8.7422-20.152c0.12503 0.0208 0.71807 0.15689 0.85352 0.17773v19.953h7.5449v-40.084h-0.09375-8.4394s-11.775 27.205-11.963 27.643c-0.19796-0.44803-12.012-27.643-12.012-27.643h-8.5234zm70.943 0v27.07c-0.11461 7.0538 5.5126 12.868 12.566 12.982 7.0538 0.11461 12.868-5.5126 12.982-12.566v-0.40625-27.068l-0.09375-0.01172h-7.4805v27.07c0.0417 2.8653-2.2512 5.2298-5.127 5.2715-2.8653 0.0417-5.2298-2.2493-5.2715-5.125v-0.14648-27.07h-7.5762zm89.273 0-16.141 0.01172h-0.11328v40.229h7.5742v-21.172c0.37509 0.63557 12.504 21.025 12.504 21.025h8.502s-8.5332-14.388-8.6582-14.617c0.15629-0.0521 0.5-0.17774 0.5-0.17774 6.7621-2.5319 10.189-10.055 7.668-16.807-1.8546-4.97-6.5326-8.3255-11.836-8.4922zm-387.34 0.01172v40.082h7.6992v-15.785h13.076v-7.668h-13.076v-9.2422h13.076v-7.377l-0.10352-0.00977h-20.672zm47.752 0v40.082h7.543v-19.963c0.12503-0.0208 0.71872-0.15689 0.84375-0.17773 0.07294 0.15629 8.7637 20.152 8.7637 20.152h6.7402l8.752-20.152c0.12504 0.0313 0.71872 0.15754 0.84375 0.19922v19.953h7.5449v-40.094h-0.10547-8.4492s-11.773 27.183-11.961 27.621l-12.004-27.621h-8.5117zm43.344 0v40.082h7.1992v-40.082h-0.10351-7.0957zm9.502 0v40.082h17.807v-7.7207h-10.242v-32.361h-0.10352-7.4609zm9.5137 0 12.451 24.641-0.01172 15.451h7.5957l0.02149-15.492c0.0104 0 12.346-24.443 12.346-24.443l0.08399-0.15625h-0.17774-7.834s-8.0449 15.69-8.2324 16.055c-0.17712-0.35426-8.2305-16.055-8.2305-16.055h-8.0117zm160.36 0v40.092h7.5762v-14.273h5.3965c7.1268-0.13545 12.795-6.0217 12.67-13.148-0.13545-6.9392-5.73-12.534-12.68-12.67h-12.857-0.10546zm55.316 0v7.6992h6.5215v32.383h7.5762v-32.383h6.5527v-7.6992h-0.10351-20.547zm-120.63 7.668c7.0434 0.14587 12.65 5.98 12.504 13.023-0.14587 6.9392-5.814 12.504-12.764 12.504-7.1163-0.0729-12.826-5.9071-12.764-13.023 0.14587-7.0434 5.98-12.65 13.023-12.504zm72.883 0.02149h5.3984v0.00976c2.8757 0.0521 5.1563 2.4387 5.0938 5.3145-0.0521 2.7923-2.3118 5.0416-5.0938 5.0937h-5.3984v-10.418zm100.63 0.00976h8.6894c2.8549 0.10419 5.127 2.4589 5.0957 5.3242 0.0417 2.8653-2.2304 5.2409-5.0957 5.293h-8.6894v-10.617zm-340.52 6.3047v12.617h-8.6055c0.14587-0.22922 0.46875-0.70899 0.46875-0.70899l8.1367-11.908zm-38.145 30.736v4.168h392.1l4.4375-4.168h-396.54zm182.55 8.8242v13.588c0.20839 3.1362 2.9289 5.4903 6.0547 5.2715h18.098v-4.6777h-18.107s-2.6894 0.33326-2.6894-2.0215v-2.7402h20.85v-3.6895c-1.74 2.8028-5.9494 2.8545-7.6895-0.99023h-13.148v-4.7402h-3.3672zm-109.81 0.02148v12.127h3.3652v-12.127h-3.3652zm20.264 0v7.4394c0 1.5212-0.67639 6.709-6.1152 6.709h-10.773v4.7207h10.732c1.8234 0 9.4492-2.021 9.4492-9.0644v-9.8047h-3.293zm37.678 0v4.709h20.879v9.4395h-20.879v4.7305h24.244v-18.879h-24.244zm26.266 0v4.709h13.473v-4.709h-13.473zm20.256 0v8.7207c0 4.7929-5.0121 5.4277-6.0645 5.4277h-14.191v4.6797h13.525c7.1997 0 10.064-5.3565 10.064-9.2637v-9.5644h-3.334zm77.508 0c0.11461 2.6882-1.5424 5.1365-4.0742 6.043v4.7207c5.3868 0 6.6582-6.1172 6.6582-6.1172h14.182v2.7813h-14.107v4.6797h12.074c0 1.813-3.4902 2.0215-3.4902 2.0215h-13.346v4.668h12.836c4.8033 0.0938 8.8775-3.4806 9.4297-8.2422v-10.555h-20.162zm-254.72 0.05274v4.666h20.213v3.3555c0 2.1568-2.1458 6.0742-7.418 6.0742h-10.096v4.6797h11.533c6.0119 0 10.014-5.5534 10.014-10.742v-8.0332h-24.246zm203.07 0.07226c-1.7504 0.03126-3.1465 1.4898-3.1152 3.2402 0.0312 1.7471 1.4844 3.141 3.2305 3.1152v-1.4277c-0.96899 0-1.75-0.78102-1.75-1.75 0-0.96899 0.78101-1.75 1.75-1.75v-1.4277h-0.11524zm0.11524 6.3555v0.00977h0.00976 0.01172v-0.00977c-0.0039-6e-5 -0.00781 7e-5 -0.01172 0-0.00329 6e-5 -0.00647-5e-5 -0.00976 0zm0.02148 0c1.7452 0.02478 3.1973-1.3687 3.2285-3.1152 0.0313-1.7504-1.3648-3.209-3.1152-3.2402h-0.11328v1.4277c0.96899 0 1.75 0.78101 1.75 1.75 0 0.96898-0.78101 1.75-1.75 1.75v1.4277zm-156.02-5.793v4.0215l24.162 2.1152v-4.043l-24.162-2.0938zm-21.547 4.0742 0.041016 4.0215h16.066v0.09375c0.031257 1.0628-0.81354 1.948-1.8867 1.9688h-6.1367v2.4707c0.01042 0.0521 0.011719 0.10415 0.011719 0.15625 0 0.78144-0.62546 1.4062-1.3965 1.4062h-6.752v3.959h6.0645c0 0.04168 4.709-0.13575 4.709-4.043h4.0938c1.3128 0 4.6797-0.30228 4.6797-4.7617v-5.2715h-19.494zm184.54 0.63476v3.9805h10.824v4.8242h-12.805v4.627h19.453v-4.5645h-4.002v-8.8672h-13.471zm-162.99 1.3027v4.0332l24.162 2.1152v-4.043l-24.162-2.1055zm51.158 0.70898v4.709h22.869v-4.709h-22.869zm127.33 0.10352v4.0527h23.588v-4.0527h-23.588zm-178.49 5.209v4.0234l24.162 2.1348v-4.0527l-24.162-2.1055z" fill="#fff"/></svg>
