<?xml version="1.0" encoding="UTF-8" standalone="no"?>
<!-- Created with Inkscape (http://www.inkscape.org/) -->

<svg
   width="480"
   height="320"
   viewBox="0 0 127 84.666667"
   version="1.1"
   id="svg1543"
   inkscape:export-filename="/home/vitor/Dev/es-theme-material-tv-3-2/assets/logo/fbn.png"
   inkscape:export-xdpi="96"
   inkscape:export-ydpi="96"
   inkscape:version="1.1.1 (3bf5ae0d25, 2021-09-20)"
   sodipodi:docname="fbn.svg"
   xmlns:inkscape="http://www.inkscape.org/namespaces/inkscape"
   xmlns:sodipodi="http://sodipodi.sourceforge.net/DTD/sodipodi-0.dtd"
   xmlns:xlink="http://www.w3.org/1999/xlink"
   xmlns="http://www.w3.org/2000/svg"
   xmlns:svg="http://www.w3.org/2000/svg">
  <sodipodi:namedview
     id="namedview1545"
     pagecolor="#505050"
     bordercolor="#eeeeee"
     borderopacity="1"
     inkscape:pageshadow="0"
     inkscape:pageopacity="0"
     inkscape:pagecheckerboard="0"
     inkscape:document-units="px"
     showgrid="false"
     units="px"
     width="640px"
     inkscape:snap-page="true"
     showguides="true"
     inkscape:guide-bbox="true"
     inkscape:zoom="1.4039016"
     inkscape:cx="158.13074"
     inkscape:cy="227.2239"
     inkscape:window-width="1920"
     inkscape:window-height="1019"
     inkscape:window-x="0"
     inkscape:window-y="30"
     inkscape:window-maximized="1"
     inkscape:current-layer="layer1">
    <sodipodi:guide
       position="10.583333,76.729167"
       orientation="-1,0"
       id="guide2978"
       inkscape:label=""
       inkscape:locked="false"
       inkscape:color="rgb(0,0,255)" />
    <sodipodi:guide
       position="116.41667,7.9375"
       orientation="-1,0"
       id="guide2980"
       inkscape:label=""
       inkscape:locked="false"
       inkscape:color="rgb(0,0,255)" />
    <sodipodi:guide
       position="10.583333,71.4375"
       orientation="0,1"
       id="guide2982"
       inkscape:label=""
       inkscape:locked="false"
       inkscape:color="rgb(0,0,255)" />
    <sodipodi:guide
       position="116.41667,13.229167"
       orientation="0,1"
       id="guide2984"
       inkscape:label=""
       inkscape:locked="false"
       inkscape:color="rgb(0,0,255)" />
  </sodipodi:namedview>
  <defs
     id="defs1540">
    <linearGradient
       inkscape:collect="always"
       id="linearGradient2856">
      <stop
         style="stop-color:#f37329;stop-opacity:1"
         offset="0"
         id="stop2852" />
      <stop
         style="stop-color:#a62100;stop-opacity:1"
         offset="1"
         id="stop2854" />
    </linearGradient>
    <linearGradient
       inkscape:collect="always"
       xlink:href="#linearGradient2856"
       id="linearGradient2858"
       x1="10.583333"
       y1="-15.333026"
       x2="32.944653"
       y2="101.35889"
       gradientUnits="userSpaceOnUse" />
  </defs>
  <g
     inkscape:label="Camada 1"
     inkscape:groupmode="layer"
     id="layer1">
    <rect
       style="opacity:1;fill:url(#linearGradient2858);fill-opacity:1;stroke-width:0.529167;stroke-linecap:square;stroke-linejoin:round;paint-order:stroke fill markers"
       id="rect1569"
       width="127"
       height="84.666664"
       x="0"
       y="0"
       ry="4.2333331"
       inkscape:export-filename="/home/vitor/Dev/es-theme-material-tv-3-2/assets/logo/fbn.png"
       inkscape:export-xdpi="96"
       inkscape:export-ydpi="96" />
    <g
       id="g5401"
       transform="matrix(0.84740515,0,0,0.84740515,9.6897886,6.4169101)">
      <path
         id="path2895"
         style="fill:#ffffff;stroke-width:0.661527"
         d="m 381.70508,30.019531 -55.64453,0.0293 -45.15821,0.02148 c 12.19011,6.938338 21.50327,18.712793 26.22852,32.962891 l 2.27344,6.865235 0.0117,3.783203 h 31.6582 36.4043 l 2.83203,2.955078 c 3.17956,3.318361 4.41999,6.718861 4.46875,12.259765 0.0422,4.778004 -1.10966,8.493999 -3.61133,11.652347 -3.97767,5.02179 -2.45593,4.82643 -37.81836,4.85742 l -31.58789,0.0273 v 14.72657 14.72656 l 14.22656,7.10351 14.22656,7.10547 h 19.42188 c 22.2342,0 21.36328,-0.21645 24.5039,6.08594 1.41888,2.84759 1.71094,4.35332 1.71094,8.80859 0,4.5515 -0.27775,5.92376 -1.81836,8.96485 -1.05713,2.08668 -2.7602,4.21476 -4.0664,5.08008 l -2.24805,1.49023 h -36.61719 -36.61718 v -9.26172 -4.92383 h -43.66016 -3.3086 v 17.16211 16.5 h 36.0918 v 14.58594 8.40039 c 3.1958,-11.0983 12.8365,-19.97546 24.81055,-22.18164 1.35103,-0.24893 2.56483,-0.29288 4.49609,-0.38476 1.93126,-0.0919 4.34972,-0.16756 7.11524,-0.22852 5.53104,-0.12189 12.43597,-0.18536 19.33984,-0.19141 6.90387,-0.006 13.80029,0.0499 19.3125,0.16211 2.75611,0.0561 5.16798,0.1243 7.08594,0.21289 1.91796,0.0886 3.0909,0.12576 4.4668,0.38477 7.79471,1.4673 15.0851,5.93202 19.8125,12.12305 5.12064,-5.77786 11.47345,-17.80156 13.55859,-26.07422 4.83987,-19.202 3.17843,-37.93 -4.87695,-54.96289 l -2.8418,-6.00782 1.30469,-2.54296 c 6.90969,-13.46836 8.83077,-37.378494 4.37304,-54.414069 C 407.3694,51.850987 397.54226,37.944137 386.50781,32.423828 Z"
         transform="scale(0.26458333)" />
      <path
         style="fill:#ffffff;stroke-width:0.175029"
         d="m 62.314768,27.9405 c 1.082991,-0.03071 2.855153,-0.03071 3.938144,0 1.082991,0.03071 0.19691,0.05583 -1.969072,0.05583 -2.165982,0 -3.052063,-0.02512 -1.969072,-0.05583 z"
         id="path2893" />
      <path
         style="fill:#ffffff;stroke-width:0.175029"
         d="m 71.252607,42.467488 c 1.763105,-0.02857 4.598571,-0.02853 6.301036,1.03e-4 1.702463,0.02863 0.259923,0.05201 -3.205647,0.05195 -3.46557,-5.8e-5 -4.858496,-0.02348 -3.095389,-0.05206 z"
         id="path2887" />
      <path
         style="fill:#ffffff;stroke-width:0.175029"
         d="m 71.153721,27.940155 c 1.708718,-0.02866 4.504803,-0.02866 6.213521,0 1.708719,0.02866 0.310677,0.0521 -3.106761,0.0521 -3.417436,0 -4.815478,-0.02344 -3.10676,-0.0521 z"
         id="path2883" />
      <path
         id="path4078"
         style="color:#000000;fill:#ffffff;stroke-width:9.99999;-inkscape-stroke:none"
         d="m 63.6875,30 0.01172,11.751953 0.01172,11.751953 52.41601,16.525391 c 28.82798,9.088883 65.66071,20.75168 81.85157,25.917969 l 29.43554,9.394534 38.54883,0.0469 38.54883,0.0449 -0.0527,-17.359371 -0.0508,-17.361328 -2.02734,-6.107422 C 297.70213,50.49565 288.2222,39.168889 276.03711,33.134766 l -5.62305,-2.783204 -103.36328,-0.175781 z m 80.54297,54.267578 c -0.27289,-8.99e-4 -0.49609,21.716062 -0.49609,48.259762 v 48.25977 l -13.72657,6.90625 -13.72656,6.90625 -0.18555,4.42773 23.23047,0.11328 39.72852,0.19922 6.06836,2.99805 c 6.60599,3.2656 12.14317,8.62582 15.32422,14.9707 l -0.55274,-18.30664 h 30.5 v -13.02734 -18.02539 h -10.41992 -10.41992 l -0.33008,-31.71484 -0.33008,-31.7129 -32.08398,-10.126949 C 159.16434,88.825227 144.50335,84.268504 144.23047,84.267578 Z m 72.93164,27.781252 v 24.14648 24.14649 h 43.66211 43.66016 v -24.14649 -24.14648 h -43.66016 z"
         transform="scale(0.26458333)" />
      <path
         style="color:#000000;fill:#ffffff;stroke-width:2.64583;-inkscape-stroke:none"
         d="M 26.652656,65.345632 V 53.9621 l 10.204808,0.05041 10.204807,0.05041 1.330997,0.657967 c 1.498172,0.740605 2.804388,2.015556 3.488605,3.405118 l 0.412494,0.837723 0.05127,8.882708 0.05127,8.882708 H 49.676447 46.95598 V 68.489323 60.249506 L 46.460673,59.754202 C 45.778805,59.072334 45.17716,59.024684 38.029509,59.086517 l -6.038489,0.05226 -0.04538,8.795195 -0.04538,8.795195 h -2.623811 -2.623811 z m 27.829147,3.813533 c -1.79e-4,-4.163493 -0.05219,-9.283084 -0.11539,-11.376867 l -0.11496,-3.806875 h 11.05469 11.054684 v 2.536203 2.536205 l -8.270109,0.04545 -8.270109,0.04545 v 1.837798 1.837806 l 7.920049,0.04551 7.920054,0.04551 v 2.536132 2.536133 h -7.969933 -7.969934 l 0.04988,1.794045 0.04988,1.794039 8.357621,0.04545 8.357625,0.04545 v 2.536225 2.536218 H 65.509033 54.482226 l -3.51e-4,-7.569989 z m 29.755319,7.330338 c -2.135712,-0.466614 -4.0604,-1.964534 -5.010517,-3.899518 l -0.50289,-1.024175 -0.08751,-5.338377 c -0.04813,-2.936104 -0.03429,-5.758809 0.03075,-6.27267 0.350244,-2.766972 2.835264,-5.237856 5.821104,-5.787987 1.338193,-0.246564 14.57405,-0.258134 15.871591,-0.01389 2.0103,0.378426 4.03039,1.805642 4.95173,3.498445 0.8944,1.643317 0.97522,2.281505 0.97522,7.700945 0,5.41944 -0.0808,6.057634 -0.97522,7.700944 -0.92134,1.692806 -2.94143,3.120016 -4.95173,3.498448 -1.370701,0.258028 -14.895658,0.205867 -16.122522,-0.06218 z m 15.084981,-5.017299 c 0.35481,-0.09855 0.847077,-0.419202 1.093927,-0.712569 l 0.44883,-0.533395 v -4.773976 c 0,-4.682004 -0.008,-4.785441 -0.39988,-5.368708 -0.22848,-0.339813 -0.659855,-0.68427 -1.006415,-0.803635 -0.766343,-0.263949 -12.90472,-0.311136 -13.831163,-0.05378 -0.342402,0.09512 -0.854361,0.414763 -1.137687,0.710327 l -0.515136,0.537384 -0.05209,4.658222 c -0.03677,3.2884 0.0086,4.804816 0.154388,5.156702 0.218345,0.52713 0.889078,1.090089 1.47296,1.236286 0.697841,0.174722 13.124573,0.12702 13.772265,-0.05286 z"
         id="path4084" />
    </g>
  </g>
  <style
     type="text/css"
     id="style3952">
	.st0{fill:#FC0C18;}
	.st1{fill:#FC0C18;}
</style>
</svg>
