<svg width="480" height="320" version="1.1" viewBox="0 0 127 84.667" xmlns="http://www.w3.org/2000/svg" xmlns:xlink="http://www.w3.org/1999/xlink">
 <defs>
  <linearGradient id="a" x1="10.583" x2="32.945" y1="-15.333" y2="101.36" gradientUnits="userSpaceOnUse">
   <stop stop-color="#f37329" offset="0"/>
   <stop stop-color="#a62100" offset="1"/>
  </linearGradient>
 </defs>
 <rect width="127" height="84.667" ry="4.2333" fill="url(#a)" stroke-linecap="square" stroke-linejoin="round" stroke-width=".52917" style="paint-order:stroke fill markers"/>
 <g transform="matrix(.84741 0 0 .84741 9.6898 6.4169)" fill="#fff">
  <path transform="scale(.26458)" d="m381.71 30.02-55.645 0.0293-45.158 0.02148c12.19 6.9383 21.503 18.713 26.229 32.963l2.2734 6.8652 0.0117 3.7832h68.062l2.832 2.9551c3.1796 3.3184 4.42 6.7189 4.4688 12.26 0.0422 4.778-1.1097 8.494-3.6113 11.652-3.9777 5.0218-2.4559 4.8264-37.818 4.8574l-31.588 0.0273v29.453l14.227 7.1035 14.227 7.1055h19.422c22.234 0 21.363-0.21645 24.504 6.0859 1.4189 2.8476 1.7109 4.3533 1.7109 8.8086 0 4.5515-0.27775 5.9238-1.8184 8.9648-1.0571 2.0867-2.7602 4.2148-4.0664 5.0801l-2.248 1.4902h-73.234v-14.186h-46.969v33.662h36.092v22.986c3.1958-11.098 12.836-19.975 24.811-22.182 1.351-0.24893 2.5648-0.29288 4.4961-0.38476 1.9313-0.0919 4.3497-0.16756 7.1152-0.22852 5.531-0.12189 12.436-0.18536 19.34-0.19141 6.9039-6e-3 13.8 0.0499 19.312 0.16211 2.7561 0.0561 5.168 0.1243 7.0859 0.21289 1.918 0.0886 3.0909 0.12576 4.4668 0.38477 7.7947 1.4673 15.085 5.932 19.812 12.123 5.1206-5.7779 11.473-17.802 13.559-26.074 4.8399-19.202 3.1784-37.93-4.877-54.963l-2.8418-6.0078 1.3047-2.543c6.9097-13.468 8.8308-37.378 4.373-54.414-4.195-16.032-14.022-29.939-25.057-35.459z" stroke-width=".66153"/>
  <g stroke-width=".17503">
   <path d="m62.315 27.94c1.083-0.03071 2.8552-0.03071 3.9381 0s0.19691 0.05583-1.9691 0.05583-3.0521-0.02512-1.9691-0.05583z"/>
   <path d="m71.253 42.467c1.7631-0.02857 4.5986-0.02853 6.301 1.03e-4 1.7025 0.02863 0.25992 0.05201-3.2056 0.05195-3.4656-5.8e-5 -4.8585-0.02348-3.0954-0.05206z"/>
   <path d="m71.154 27.94c1.7087-0.02866 4.5048-0.02866 6.2135 0 1.7087 0.02866 0.31068 0.0521-3.1068 0.0521-3.4174 0-4.8155-0.02344-3.1068-0.0521z"/>
  </g>
  <path transform="scale(.26458)" d="m63.688 30 0.02344 23.504 52.416 16.525c28.828 9.0889 65.661 20.752 81.852 25.918l29.436 9.3945 38.549 0.0469 38.549 0.0449-0.0527-17.359-0.0508-17.361-2.0273-6.1074c-4.6788-14.11-14.159-25.437-26.344-31.471l-5.623-2.7832-103.36-0.17578zm80.543 54.268c-0.27289-8.99e-4 -0.49609 21.716-0.49609 48.26v48.26l-27.453 13.812-0.18555 4.4277 23.23 0.11328 39.729 0.19922 6.0684 2.998c6.606 3.2656 12.143 8.6258 15.324 14.971l-0.55274-18.307h30.5v-31.053h-20.84l-0.33008-31.715-0.33008-31.713-32.084-10.127c-17.646-5.5693-32.307-10.126-32.58-10.127zm72.932 27.781v48.293h87.322v-48.293h-43.66z" color="#000000" stroke-width="10" style="-inkscape-stroke:none"/>
  <path d="m26.653 65.346v-11.384l20.41 0.10082 1.331 0.65797c1.4982 0.7406 2.8044 2.0156 3.4886 3.4051l0.41249 0.83772 0.10254 17.765h-5.4409v-16.48l-0.49531-0.4953c-0.68187-0.68187-1.2835-0.72952-8.4312-0.66768l-6.0385 0.05226-0.09076 17.59h-5.2476zm27.829 3.8135c-1.79e-4 -4.1635-0.05219-9.2831-0.11539-11.377l-0.11496-3.8069h22.109v5.0724l-16.54 0.0909v3.6756l15.84 0.09102v5.0723h-15.94l0.04988 1.794 0.04988 1.794 16.715 0.0909v5.0724h-22.054l-3.51e-4 -7.57zm29.755 7.3303c-2.1357-0.46661-4.0604-1.9645-5.0105-3.8995l-0.50289-1.0242-0.08751-5.3384c-0.04813-2.9361-0.03429-5.7588 0.03075-6.2727 0.35024-2.767 2.8353-5.2379 5.8211-5.788 1.3382-0.24656 14.574-0.25813 15.872-0.01389 2.0103 0.37843 4.0304 1.8056 4.9517 3.4984 0.8944 1.6433 0.97522 2.2815 0.97522 7.7009s-0.0808 6.0576-0.97522 7.7009c-0.92134 1.6928-2.9414 3.12-4.9517 3.4984-1.3707 0.25803-14.896 0.20587-16.123-0.06218zm15.085-5.0173c0.35481-0.09855 0.84708-0.4192 1.0939-0.71257l0.44883-0.5334v-4.774c0-4.682-8e-3 -4.7854-0.39988-5.3687-0.22848-0.33981-0.65986-0.68427-1.0064-0.80364-0.76634-0.26395-12.905-0.31114-13.831-0.05378-0.3424 0.09512-0.85436 0.41476-1.1377 0.71033l-0.51514 0.53738-0.05209 4.6582c-0.03677 3.2884 0.0086 4.8048 0.15439 5.1567 0.21834 0.52713 0.88908 1.0901 1.473 1.2363 0.69784 0.17472 13.125 0.12702 13.772-0.05286z" color="#000000" stroke-width="2.6458" style="-inkscape-stroke:none"/>
 </g>
 <style type="text/css">.st0{fill:#FC0C18;}
	.st1{fill:#FC0C18;}</style>
</svg>
