<svg width="480" height="320" version="1.1" viewBox="0 0 480 320" xml:space="preserve" xmlns="http://www.w3.org/2000/svg"><defs><linearGradient id="a" x1="10.58" x2="32.94" y1="-15.33" y2="101.4" gradientTransform="scale(3.78)" gradientUnits="userSpaceOnUse"><stop stop-color="#f37329" offset="0"/><stop stop-color="#a62100" offset="1"/></linearGradient></defs><rect width="480" height="320" ry="24" fill="url(#a)"/><path d="m40 113.9v11.76l71.02 24.98h40.47v-12.54c0-13.36-10.83-24.19-24.2-24.19h-87.29zm37.18 28.09v43.92l-13.61 4.875v15.35h54.06v-25.82h-9.857v-27.57l-30.59-10.75zm150.1 11.73-9.93 23.34h5.189l2.115-5.199h9.805l2.115 5.199h5.334l-9.93-23.34h-4.699zm200.7 0.04102c-6.981 0-12.06 5.272-12.06 11.71v0.0625c0 6.439 5.011 11.64 12 11.64 6.981 0 12.07-5.272 12.07-11.71v-0.0625c0-6.429-5.012-11.64-12-11.64zm-262.7 0.1152v23.18h5.105v-8.982h11.05v-4.627h-11.05v-4.938h12.54v-4.637h-17.65zm20.3 0v23.17h5.096v-23.17h-5.096zm9.242 0v23.18h5.033v-14.73l11.22 14.73h4.334v-23.18h-5.031v14.27l-10.86-14.27h-4.699zm48.99 0v23.18h16.66v-4.637h-11.55v-18.55h-5.105zm49 0v13.24c0 6.825 3.802 10.29 10.03 10.29 6.22 0 10.17-3.438 10.17-10.46v-13.08h-0.00977-5.096v13.27c0 3.678-1.887 5.564-5.002 5.564-3.115 0-5-1.948-5-5.73v-13.11h-5.096zm46.02 0v23.18h5.031v-14.73l11.22 14.73h4.334v-23.18h-5.033v14.27l-10.86-14.27h-4.697zm32.77 0v23.18h5.033v-14.73l11.23 14.73h4.334v-23.18h-5.033v14.27l-10.86-14.27h-4.711zm24.51 0v23.18h17.64v-4.543h-12.58v-4.867h10.92v-4.531h-10.92v-4.699h12.41v-4.543h-17.47zm-285.1 0.00977v23.17h0.00977 40.47v-23.17h-40.47-0.00977zm160 0v23.17h11.02c5.241 0 8.68-2.127 8.68-6.357v-0.0625c0-3.115-1.656-4.668-4.334-5.699 1.657-0.9273 3.041-2.385 3.041-5v-0.0625c0-3.647-2.916-5.992-7.646-5.992h-10.76zm45.64 0v23.17h5.096v-7.42h4l4.971 7.42h5.959l-5.658-8.273c2.949-1.094 4.971-3.438 4.971-7.189v-0.0625c0-4.772-3.282-7.648-8.742-7.648h-10.6zm-40.67 4.459h5.033c2.157 0 3.346 0.8655 3.346 2.387v0.0625c0 1.719-1.429 2.449-3.68 2.449h-4.699v-4.898zm152 0.01172c4.011 0 6.857 3.229 6.857 7.115v0.0625c0 3.886-2.783 7.055-6.795 7.055-4.011 0-6.855-3.231-6.855-7.117v-0.0625c0-3.876 2.782-7.053 6.793-7.053zm-106.2 0.125h0.01172 5.062c2.48 0 4.002 1.124 4.002 3.312v0.0625c0 1.948-1.428 3.283-3.908 3.283h-5.168v-6.658zm-92.1 1.354 3.084 7.514h-6.168l3.084-7.514zm46.34 7.648h5.898c2.615 0 3.771 0.9592 3.771 2.512v0.0625c0 1.719-1.355 2.51-3.605 2.51h-6.064v-5.084z" fill="#fff"/></svg>
