<svg width="480" height="320" version="1.1" viewBox="0 0 127 84.667" xmlns="http://www.w3.org/2000/svg">
 <defs>
  <linearGradient id="a" x1="34.237" x2="34.237" y2="84.667" gradientUnits="userSpaceOnUse">
   <stop stop-color="#f9c440" offset="0"/>
   <stop stop-color="#cd3e30" offset=".40829"/>
   <stop stop-color="#7a0000" offset="1"/>
  </linearGradient>
 </defs>
 <rect x="-3.5527e-15" y="9.1553e-8" width="127" height="84.667" ry="4.2333" fill="url(#a)" stroke-linecap="square" stroke-linejoin="round" stroke-width=".52917" style="paint-order:stroke fill markers"/>
 <path d="m96.54 54.449-3.2766-0.0154v-16.166l7.5925 0.0296 0.0302 4.2438h-3.0615v1.8476h2.9446v4.2149h-3.0631l0.01595 0.8805 0.01593 0.8805 3.0312 0.0308v4.0975l-0.47634-0.0139c-0.26198-8e-3 -1.9508-0.0209-3.753-0.0293zm15.488-5.7754c0-6.4641 0.024-6.0753-0.37437-6.0753-0.14149 0-0.2273 0.0415-0.31429 0.15213-0.11925 0.1516-0.11967 0.17225-0.11967 5.9181v5.766h-4.3303v-5.7949c0-5.7751-6.5e-4 -5.7954-0.11967-5.947-0.0794-0.10088-0.17519-0.15213-0.2845-0.15213-0.1093 0-0.20514 0.0512-0.28449 0.15213-0.11925 0.1516-0.11967 0.17225-0.11967 5.9181v5.766h-4.2149v-16.055l6.2646 0.0326 0.32472 0.15954c0.1786 0.0877 0.44676 0.26695 0.59592 0.39825l0.2712 0.23872 0.20266-0.20865c0.11147-0.11476 0.34995-0.28098 0.52997-0.36938 0.32731-0.16074 0.32731-0.16074 2.2804-0.17737 2.0857-0.0178 2.3609 9e-3 2.8969 0.28343 0.29889 0.15296 0.69149 0.53258 0.87963 0.85058 0.30834 0.52113 0.30212 0.35832 0.30309 7.933l8.8e-4 7.0296h-4.388zm-83.847 5.6801c-0.74495-0.20055-1.4748-1.0598-1.6596-1.9537-0.0414-0.20042-0.0576-1.2292-0.0476-3.0225l0.0153-2.7187 4.0994 2.5005 0.0289 0.59292c0.0274 0.56164 0.0374 0.60028 0.19087 0.73226 0.0891 0.0766 0.1983 0.13934 0.24267 0.13934 0.12143 0 0.36555-0.12241 0.38981-0.19547 0.0118-0.0354 0.0104-0.36798-3e-3 -0.73909l-0.0243-0.67474-1.8168-1.0863c-0.99926-0.59744-1.9566-1.2107-2.1275-1.3627-0.37176-0.33087-0.8404-1.0122-0.98842-1.4371-0.0973-0.27918-0.10707-0.51597-0.10707-2.5879 0-2.0059 0.0121-2.3198 0.10066-2.6058 0.19925-0.64356 0.72191-1.196 1.3585-1.436 0.56997-0.21483 1.0162-0.2432 3.3833-0.21511 1.8524 0.022 2.3259 0.044 2.6295 0.12253 1.048 0.27093 1.7766 1.0221 1.9658 2.0269 0.0445 0.23631 0.0598 1.252 0.0482 3.1951l-0.017 2.8487-4.4169-2.9124v-0.512c0-0.44041-0.0167-0.52868-0.11924-0.63124-0.0928-0.0928-0.16-0.11058-0.30312-0.0802-0.35044 0.0744-0.38602 0.15095-0.38553 0.82905l4.5e-4 0.61173 1.0244 0.66205c0.56343 0.36413 1.5051 0.96937 2.0926 1.345 1.5055 0.96255 1.9327 1.4466 2.076 2.3522 0.0771 0.48723 0.0771 3.7276 0 4.2149-0.0828 0.52303-0.28742 0.9101-0.67836 1.283-0.35446 0.33809-0.64537 0.51065-1.1585 0.68721-0.29059 0.1-0.51631 0.10806-2.9185 0.10446-1.9065-3e-3 -2.6762-0.0234-2.8748-0.0769zm26.855 2e-3c-0.74483-0.20082-1.3316-0.82479-1.658-1.7629-0.0786-0.22604-0.0954-0.68962-0.11312-3.1144-0.0114-1.5669 0-2.8371 0.0256-2.8226 0.0255 0.0144 0.97519 0.59108 2.1105 1.2815l2.0641 1.2552v0.57404c0 0.53249 0.0103 0.5843 0.14172 0.71576 0.16273 0.16273 0.35371 0.18112 0.53829 0.0518 0.12085-0.0846 0.12822-0.13083 0.12657-0.7939l-2e-3 -0.70401-1.74-1.0393c-0.95702-0.5716-1.8851-1.1473-2.0624-1.2794-0.37732-0.28105-0.85532-0.88828-1.0844-1.3776-0.16175-0.34542-0.16175-0.34542-0.16175-2.7993 0-2.433 1e-3 -2.4567 0.13399-2.7857 0.26036-0.64473 0.92632-1.1898 1.6848-1.3789 0.24414-0.0609 0.88487-0.0791 2.7714-0.079 2.4037 2.1e-4 2.4636 3e-3 2.9301 0.13621 0.92992 0.26555 1.6069 0.91436 1.8289 1.7528 0.08468 0.31982 0.09399 0.71057 0.07903 3.317l-0.01696 2.9545-4.3303-2.8558-0.0289-0.52488c-0.0353-0.64127-0.12785-0.78985-0.45714-0.73365-0.35645 0.0608-0.41518 0.18712-0.39641 0.85231l0.0164 0.57978 1.5012 0.97261c3.0818 1.9967 2.8957 1.8641 3.2075 2.285 0.49807 0.67227 0.5166 0.78635 0.5166 3.1807 0 2.2798-0.02721 2.511-0.3559 3.0232-0.32 0.49869-0.90869 0.91049-1.6019 1.1206-0.35001 0.10607-5.2734 0.10451-5.6676-2e-3zm9.1844-1.8841v-1.9631h4.3303v-0.75059h-1.5194c-0.84944 0-1.6695-0.0277-1.8597-0.0629-0.6461-0.11943-1.1268-0.47367-1.4194-1.0459-0.28263-0.55282-0.28097-0.52004-0.2817-5.5743l-6.55e-4 -4.7489h4.3872l0.02972 7.3616h0.75059l0.02972-7.3616h4.3872l-6.55e-4 7.0584c-6.54e-4 7.7319 0.01397 7.3928-0.34513 7.9524-0.32952 0.51351-0.74608 0.81635-1.3824 1.005-0.27277 0.0809-0.75587 0.093-3.7097 0.093h-3.3961v-1.9631zm11.406 1.8685c-0.55369-0.17203-1.1109-0.68027-1.388-1.2659-0.30562-0.64603-0.32072-0.83165-0.30444-3.743l0.01501-2.6845 4.186 2.551v0.5935c0 0.5724 0.0054 0.59775 0.15213 0.71316 0.18592 0.14625 0.37188 0.1527 0.53655 0.0186 0.11635-0.0947 0.12306-0.14429 0.10744-0.7939l-0.01667-0.69285-1.8765-1.1284c-2.0239-1.217-2.361-1.4802-2.7682-2.1613-0.40298-0.67405-0.40354-0.67841-0.40463-3.1481-0.0011-2.3999 0.02375-2.6574 0.3012-3.1264 0.20611-0.34834 0.59131-0.70584 0.9572-0.88836 0.53233-0.26555 0.99811-0.31139 3.1861-0.3136 2.7658-3e-3 3.3065 0.0799 4.0272 0.61594 0.41755 0.31057 0.70345 0.70852 0.8751 1.218 0.11677 0.34664 0.11996 0.44825 0.10546 3.3581l-0.01495 3.0007-4.3472-2.8702-0.02043-0.53112c-0.01816-0.47227-0.03522-0.5431-0.15403-0.63927-0.16443-0.1331-0.45378-0.0968-0.60447 0.0758-0.08687 0.0995-0.10041 0.20876-0.08661 0.69888l0.01637 0.58094 1.2702 0.82765c0.69863 0.45521 1.6434 1.0647 2.0996 1.3544 0.97952 0.62218 1.3189 0.94604 1.6115 1.5379l0.21507 0.43498 0.01765 2.1544c0.01997 2.4359-0.0041 2.6399-0.37571 3.1826-0.2751 0.40182-0.58251 0.64778-1.1456 0.91664l-0.4594 0.21933-2.7137 0.0115c-2.3019 0.01-2.757-2e-3 -2.9993-0.0772zm-65.045-8.0183v-8.0577l3.623 0.0168c3.5709 0.0166 3.6284 0.0187 3.9983 0.14515 0.46288 0.15829 1.1074 0.63664 1.3635 1.012 0.10316 0.15119 0.24779 0.424 0.32139 0.60625 0.13383 0.33137 0.13383 0.33137 0.14934 6.1862 0.0136 5.1394 5e-3 5.8978-0.0742 6.2068-0.54335 1.2631-1.0931 1.6008-2.29 1.911l-3.3498 0.0157-3.7416 0.0157zm4.8754 3.8407c0.11726-0.11724 0.11915-0.17064 0.13461-3.8157l0.0157-3.6968-0.17356-0.17356c-0.14203-0.14204-0.21304-0.17029-0.39097-0.15559l-0.21742 0.018-0.0148 3.9514c-0.0117 3.1216 4.3e-4 3.9617 0.0577 4.0004 0.1144 0.0773 0.4581 3e-3 0.58876-0.12807zm5.6329-3.811v-8.0256h4.4458v16.051h-4.4458zm15.474-0.0296v-8.0551l4.3015 0.0302 0.0578 4.9991 0.27425-0.32624 0.27425-0.32623v-4.3755h4.2726v6.0919l-0.8058 0.92353c-0.44319 0.50794-0.80647 0.94952-0.8073 0.98127-8.1e-4 0.0318 0.36179 0.49909 0.80581 1.0385l0.80729 0.98077v6.0929h-4.2726v-4.4888l-0.5485-0.50548-0.0302 4.9943h-4.3291zm49.366 2.1659v-5.8892h-1.9053l-5.6e-5 -4.3014 1.3713 0.0138c0.75422 8e-3 2.6772 0.0301 4.2733 0.0502l2.902 0.0364-0.01514 2.0861-0.01515 2.0861-1.992 0.0316v11.776h-4.619zm-48.442-12.82c-0.39349-0.0699-0.72054-0.20283-1.0706-0.43516-0.41045-0.27244-0.6776-0.58918-0.93395-1.1073-0.18476-0.37343-0.21008-0.48029-0.23463-0.99002-0.0227-0.47151-6e-3 -0.64181 0.0948-0.97403 0.23647-0.77854 0.76163-1.3672 1.5399-1.7262 0.45657-0.21057 1.291-0.25836 1.8534-0.10613 1.2839 0.34754 2.1488 1.6973 1.9423 3.0314-0.23694 1.5308-1.682 2.5756-3.1913 2.3075zm1.2466-1.2266c1.0008-0.50961 1.2186-1.828 0.43499-2.6324-0.82229-0.84421-2.1815-0.62279-2.7015 0.44008-0.40477 0.82733-0.0454 1.8039 0.81738 2.2212 0.30517 0.14759 0.39562 0.16497 0.75112 0.14433 0.28597-0.0166 0.4901-0.0672 0.69805-0.17312zm12.835 1.2067c-0.32275-0.11534-0.60714-0.31022-0.82627-0.56623-0.36575-0.42729-0.37943-0.52822-0.37943-2.7997v-2.0394h1.097v3.9955l0.19631 0.19631c0.16756 0.16756 0.23604 0.1963 0.46768 0.1963 0.23163 0 0.30011-0.0287 0.46767-0.1963l0.19631-0.19631v-3.9955h1.097v4.1387l-0.17716 0.35453c-0.21037 0.42097-0.53444 0.71644-0.96075 0.87594-0.3545 0.13264-0.86471 0.14833-1.1784 0.0362zm-19.522-0.0901c-0.43496-0.13905-0.85002-0.41038-1.1669-0.76284-1.5828-1.7605-0.34383-4.5545 2.0178-4.5503 0.49744 8.7e-4 0.81385 0.071 1.2348 0.27339 0.35321 0.16989 0.97083 0.73983 1.1252 1.0383l0.0969 0.18736h-0.63276c-0.60177 0-0.64638-8e-3 -0.91085-0.17236-0.56676-0.35127-1.273-0.33119-1.83 0.052-0.49588 0.34117-0.78257 1.0335-0.67119 1.6208 0.22562 1.1897 1.5629 1.7483 2.5621 1.0702 0.19717-0.1338 0.26605-0.14562 0.84862-0.14562h0.63403l-0.0943 0.18229c-0.25341 0.49004-0.92559 1.0212-1.5306 1.2095-0.46164 0.14368-1.2288 0.14243-1.6829-3e-3zm22.82-2.053v-2.1652h-0.86607v-1.097h2.8292v1.097h-0.92381v4.3303h-1.0393zm2.1363-0.54851v-2.7137h2.8292v1.0363l-1.761 0.0318-0.0165 0.59181-0.0164 0.59181h1.7939v1.097h-1.7944l0.0167 0.5052 0.0167 0.50521 1.761 0.0318v1.0363h-2.8292zm3.0024-4e-3v-2.7177l1.2558 0.0185c1.2389 0.0182 1.2602 0.0206 1.5826 0.17897 0.64504 0.31676 0.99214 0.8767 0.99214 1.6005 0 0.66364-0.32564 1.2479-0.85415 1.5325-0.11274 0.0607-0.20499 0.12701-0.20499 0.1473 0 0.0203 0.24683 0.45684 0.54851 0.97012s0.54851 0.94545 0.54851 0.96039c0 0.0149-0.2574 0.0272-0.57202 0.0272h-0.57201l-0.79926-1.3673-0.79925-1.3673-0.01547 1.3673-0.0155 1.3673h-1.0949zm2.5441-0.44298c0.19082-0.21372 0.25593-0.41261 0.20348-0.62158-0.01999-0.0796-0.11156-0.22903-0.20348-0.33199-0.16689-0.18691-0.16813-0.18723-0.80712-0.20674l-0.63997-0.0196v1.4062l0.63997-0.0196c0.63899-0.0195 0.64023-0.0198 0.80712-0.20674zm-51.941 3.0308c-0.0152-0.0397-0.0209-1.2544-0.0126-2.6992l0.0151-2.6271h2.8869v1.0393l-1.8187 0.0318v1.0941h1.8476v1.097h-1.8476v2.1363h-0.52145c-0.36391 0-0.52981-0.0218-0.54913-0.0722zm1.5325 0.0266c0-0.0251 0.8384-1.2397 1.8631-2.6992l1.8631-2.6537 0.83507-0.034v5.4369l-1.0104-0.0334-0.034-0.8372h-1.7708l-0.28125 0.43229-0.28126 0.43228-0.59181 6.6e-4c-0.3255 4.3e-4 -0.59181-0.0198-0.59181-0.0448zm3.522-2.5238c0-0.3652-0.0101-0.66399-0.0225-0.66399-0.0277 0-0.95905 1.2633-0.95905 1.3009 0 0.0149 0.22085 0.0271 0.49078 0.0271h0.49076zm1.3544 2.4972c-0.0152-0.0397-0.0209-1.2544-0.0126-2.6992l0.0151-2.6271 1.1674-0.0328 0.59244 1.3443c0.32584 0.73939 0.67707 1.5262 0.7805 1.7485l0.18805 0.40417 0.18282-0.40417c0.10055-0.22229 0.44895-1.0018 0.77421-1.7321l0.59139-1.328 0.5897-0.0164 0.5897-0.0165v5.4314h-1.037l-0.0312-2.5116-0.57496 1.2558-0.57497 1.2558h-1.053l-0.54406-1.2426-0.54405-1.2426-0.0312 2.4852h-0.52033c-0.36301 0-0.52869-0.0218-0.548-0.0722zm5.7169 2e-3c-0.0157-0.0409-0.0217-1.2565-0.0135-2.7014l0.0151-2.6271h1.097v5.3696l-0.53505 0.0166c-0.39554 0.0123-0.54248-3e-3 -0.56356-0.0577zm1.3007-2.6437v-2.7137h1.0956l0.0302 4.3592 1.2991 0.0326v1.0355h-2.425zm2.9446 1.7229v-0.99077l-0.86607-1.6905c-0.47633-0.92977-0.86606-1.7051-0.86606-1.7229s0.27267-0.0324 0.60594-0.0324h0.60594l0.52025 1.0393c0.28614 0.5716 0.53336 1.0393 0.54939 1.0393 0.016 0 0.25375-0.46768 0.52826-1.0393l0.4991-1.0393h0.59733c0.32854 0 0.59733 0.0132 0.59733 0.0292 0 0.0161-0.38973 0.80836-0.86606 1.7606l-0.86607 1.7314v1.9061h-1.0393zm13.973-1.7249v-2.7157l0.58589 0.0165 0.5859 0.0164 0.75441 1.7177c0.41492 0.94474 0.76835 1.7176 0.78538 1.7175 0.017-1.4e-4 0.3736-0.7731 0.79238-1.7177l0.76141-1.7175h1.1909v5.3696l-1.0659 0.0332-0.0312-2.4897-1.1208 2.4565h-1.0691l-1.1011-2.4767-0.0312 2.5055h-1.037zm5.716-3e-3v-2.7192l1.0537 0.0212c0.92232 0.0186 1.087 0.0365 1.3206 0.14335 0.36538 0.1672 0.7223 0.50332 0.90598 0.85319 0.20724 0.39474 0.22083 1.1285 0.0286 1.5464-0.30048 0.65337-0.93752 1.0266-1.7522 1.0266h-0.45974v1.8476h-1.097zm2.0227-0.31303c0.20777-0.10744 0.34453-0.35836 0.34453-0.63212 0-0.15355-0.0498-0.26018-0.19635-0.42005-0.18833-0.20551-0.21426-0.21516-0.63512-0.23642l-0.43876-0.0221v1.3983h0.37817c0.22509 0 0.44672-0.0354 0.54753-0.0876z" fill="#fff" stroke-width=".057738"/>
 <style type="text/css">.st0{fill:#FC0C18;}
	.st1{fill:#FC0C18;}</style>
</svg>
