<svg width="480" height="320" version="1.1" viewBox="0 0 480 320" xml:space="preserve" xmlns="http://www.w3.org/2000/svg"><defs><linearGradient id="a" x1="86.86" x2="44.616" y1="-7.9206" y2="118.76" gradientTransform="scale(3.7795)" gradientUnits="userSpaceOnUse"><stop stop-color="#f9c440" offset="0"/><stop stop-color="#cd3e30" offset=".40829"/><stop stop-color="#7a0000" offset="1"/></linearGradient></defs><rect width="480" height="320" ry="24" fill="url(#a)"/><path d="m132.49 114.9c-6.125 0.0625-11.042 5.0742-10.99 11.199-0.0521 6.125 4.8652 11.134 10.99 11.207 4.1042-0.0208 7.8431-2.332 9.6973-5.9883l0.04102-0.08398h-4.832c-1.3125 1.3021-3.0742 2.0306-4.918 2.041-3.9583-0.10417-7.0827-3.3952-6.9785-7.3535 0.10416-3.8125 3.166-6.8848 6.9785-6.9785 1.8229 0.0104 3.5736 0.72786 4.8652 2.0195l4.8848 0.01172-0.04102-0.08399c-1.8438-3.6666-5.5931-5.9694-9.6973-5.9902zm20.957 0.04297c-6.125 0.0729-11.04 5.0938-10.988 11.219 0.11458 6.0625 5.1341 10.895 11.207 10.77 6.0625-0.11458 10.896-5.1341 10.771-11.207-0.11459-5.9896-5.0006-10.771-10.99-10.781zm90.168 0.09375 0.00977 0.00977h-11.072v22.072h11.125v-4.25h-6.959v-4.4258h6.959v-4.25h-6.959v-4.9062h6.959v-4.25h-0.0625zm10.281 0-8.8867 0.01953h-0.0625v22.146h4.168v-11.656c0.20834 0.35416 6.8848 11.572 6.8848 11.572h4.6777s-4.6986-7.9258-4.7715-8.0508c0.0833-0.0312 0.28125-0.10547 0.28125-0.10547 3.7188-1.3958 5.6035-5.5312 4.2285-9.25-1.0208-2.7396-3.5924-4.582-6.5195-4.6758zm-191.58 0.00977-15.209 22.084h4.709s2.3535-3.4271 2.3848-3.4688h7.4492v3.4688h4v-22.084h-0.052734-3.2812zm103.37 0v22.084h4.1562v-10.99c0.0729-0.02079 0.39454-0.08265 0.45704-0.10351l4.8242 11.104h3.707s4.7812-11 4.8125-11.094c0.0729 0.01039 0.39583 0.08264 0.46875 0.10351v10.99h4.1562v-22.094h-0.04102-4.6465s-6.4779 14.979-6.582 15.219c-0.10416-0.23957-6.6152-15.219-6.6152-15.219h-4.6973zm39.072 0v14.906c-0.0625 3.8854 3.0306 7.084 6.916 7.1465 3.8854 0.0625 7.084-3.0326 7.1465-6.918v-0.22852-14.896l-0.05273-0.00976h-4.1133v14.906c0.0208 1.5833-1.2409 2.875-2.8242 2.9063-1.5833 0.02079-2.875-1.2389-2.9062-2.8223v-0.08399-14.906h-4.166zm-164.1 0.00976v22.074h4.2383v-8.6992h7.1992v-4.2285h-7.209v-5.0723h7.209v-4.0625l-0.0625-0.01172h-11.375zm26.291 0v22.074h4.1562v-11c0.07292-0.0104 0.39648-0.0846 0.45898-0.10547 0.04167 0.0833 4.8223 11.094 4.8223 11.094h3.709l4.8125-11.082c0.07292 0.0208 0.39453 0.08266 0.45703 0.10351v10.99h4.1562v-22.074h-0.041016-4.6465s-6.4779 14.969-6.582 15.209l-6.6152-15.209h-4.6875zm23.854 0v22.074h3.959v-22.074h-0.052734-3.9062zm5.2402 0v22.074h9.8027v-4.25h-5.6465v-17.824h-0.05273-4.1035zm5.2285 0 6.8652 13.574-0.00977 8.5h4.1758l0.01171-8.5312c0.0104 0 6.8008-13.459 6.8008-13.459l0.04296-0.08398h-0.09375-4.3125s-4.4271 8.6361-4.5312 8.834c-0.10417-0.1979-4.5312-8.834-4.5312-8.834h-4.418zm88.293 0v22.074h4.166v-7.8555h2.9688c3.9271-0.0729 7.041-3.3112 6.9785-7.2383-0.0729-3.8229-3.1556-6.8971-6.9785-6.9805h-7.084-0.05079zm30.457 0v4.2402h3.5938v17.834h4.168v-17.834h3.6133v-4.2402h-0.0625-11.312zm-66.426 4.2188c3.875 0.0833 6.9577 3.293 6.8848 7.168-0.0833 3.8229-3.1986 6.8848-7.0215 6.8848-3.9167-0.04169-7.0625-3.2494-7.0312-7.166 0.0833-3.875 3.293-6.9596 7.168-6.8867zm40.135 0.02149h2.9688c1.5833 0.03119 2.8438 1.3444 2.8125 2.9277-0.0312 1.5312-1.2708 2.7812-2.8125 2.8125h-2.9688v-5.7402zm55.406 0h4.7812c1.5729 0.05209 2.8229 1.3542 2.8125 2.9375 0.0208 1.5833-1.2292 2.8848-2.8125 2.916h-4.7812v-5.8535zm-187.48 3.4785v6.9492h-4.7402c0.08333-0.13542 0.25977-0.39649 0.25977-0.39649l4.4805-6.5527zm47.082 21.605c-5.0625 0-9.166 4.1035-9.166 9.166v13.312c0 3.0521 1.5208 5.9069 4.0625 7.6152l15.406 10.322v4.0723c0 0.94792-0.8444 1.7096-1.834 1.543-0.77083-0.125-1.3008-0.84375-1.3008-1.625v-2.3965-0.94726l-16.324-10.969v21.457c0 5.0625 4.1055 9.168 9.168 9.168h17.469c5.0625 0 9.166-4.1055 9.166-9.168v-8.9883-2.9277-1.4062c-0.0104-3.0521-1.5306-5.9056-4.0723-7.6035l-15.406-10.324v-4.0723c0-0.94791 0.84246-1.7077 1.832-1.541 0.77083 0.125 1.3027 0.84311 1.3027 1.6348v2.3965 0.94727l16.334 10.959v-21.459c0-5.0625-4.1055-9.166-9.168-9.166h-17.469zm101.28 0c-5.0625 0-9.166 4.1035-9.166 9.166v13.312c0 3.0521 1.5208 5.9069 4.0625 7.6152l15.406 10.322v4.0723c0 0.94792-0.8444 1.7096-1.834 1.543-0.77083-0.125-1.3008-0.84375-1.3008-1.625v-2.3965-0.94726l-16.324-10.969v21.457c0 5.0625 4.1055 9.168 9.168 9.168h17.469c5.0625 0 9.166-4.1055 9.166-9.168v-8.9883-2.9277-1.4062c-0.0104-3.0521-1.5306-5.9056-4.0723-7.6035l-15.406-10.324v-4.0723c0-0.94791 0.84246-1.7077 1.832-1.541 0.77083 0.125 1.3027 0.84311 1.3027 1.6348v2.3965 0.94727l16.334 10.959v-21.459c0-5.0625-4.1055-9.166-9.168-9.166h-17.469zm77.865 0c-5.0625 0-9.166 4.1035-9.166 9.166v13.312c0 3.0521 1.5208 5.9069 4.0625 7.6152l15.406 10.322v4.0723c0 0.94792-0.84439 1.7096-1.834 1.543-0.77083-0.125-1.3027-0.84375-1.3027-1.625v-2.3965-0.94726l-16.322-10.969v21.457c0 5.0625 4.1035 9.168 9.166 9.168h17.469c5.0625 0 9.168-4.1055 9.168-9.168v-8.9883-2.9277-1.4062c-0.0104-3.0521-1.5326-5.9056-4.0742-7.6035l-15.406-10.324v-4.0723c0-0.94791 0.8444-1.7077 1.834-1.541 0.77084 0.125 1.3027 0.84311 1.3027 1.6348v2.3965 0.94727l16.332 10.959v-21.459c0-5.0625-4.1035-9.166-9.166-9.166h-17.469zm-247.88 0.00976v60.697h26.635c5.0625 0 9.168-4.1035 9.168-9.166v-42.365c-0.01042-5.0625-4.1159-9.166-9.168-9.166h-26.635zm39.906 0v60.697h16.334v-60.697h-16.334zm58.156 0v60.697h16.334v-18.969l3.1348 3.1367v15.832h16.322v-22.613l-7.7285-7.7305 7.7285-7.7285v-22.625h-16.332v15.834l-3.1367 3.1348v-18.969h-16.322zm101.54 0v21.875 8.8125 3.0723c0 5.0625 4.1055 9.168 9.168 9.168h10.301v3.1348h-16.332v14.646h23.51c5.0625 0 9.166-4.1055 9.166-9.168v-51.541h-16.344v26.584h-3.1348v-26.584h-16.334zm77.688 0v14.666h7.9492v46.031h16.332v-46.031h7.9492v-14.666h-7.9492-16.332-7.9492zm34.928 0v60.697h28.303v-14.645h-11.98v-8.3652h11.98v-14.666h-11.98v-8.3555h11.98v-14.666h-28.303zm32.49 0v60.697h16.332v-44.447c0-0.87499 0.70964-1.584 1.5742-1.584 0.875 0 1.582 0.70899 1.582 1.584v44.459h16.324v-44.459c0-0.87499 0.70768-1.5723 1.5723-1.5723 0.875 0 1.5723 0.70769 1.5723 1.5723v44.459h16.334v-51.543c0-5.0625-4.1035-9.166-9.166-9.166h-12.459c-2.3125 0-4.4173 0.86524-6.0215 2.2715-1.6146-1.4062-3.7175-2.2715-6.0195-2.2715h-21.625zm-328.37 14.666h1.1562c1.0833 0 1.959 0.875 1.959 1.9688v27.459h0.009766c0 1.0833-0.87565 1.9687-1.959 1.9687h-1.166v-31.396z" fill="#fff"/></svg>
