<svg width="480" height="320" version="1.1" viewBox="0 0 480 320" xml:space="preserve" xmlns="http://www.w3.org/2000/svg" xmlns:xlink="http://www.w3.org/1999/xlink"><defs><linearGradient id="a" x1="240" x2="135.4" y1="320" y2="-70.55" gradientUnits="userSpaceOnUse"><stop stop-color="#04a" offset="0"/><stop stop-color="#2aff80" offset="1"/></linearGradient></defs><rect id="b" width="480" height="320" ry="24" fill="url(#a)"/><path d="m253.7 114.6-5.995 77.94c-0.325 0.5849-0.8286 0.9424-1.511 1.072v0.8286h8.384v-0.8286c-0.4874-0.13-1.024-0.4874-1.608-1.072l0.8286-15.94h5.167l0.5849 15.94c-0.1625 0.4874-0.6824 0.8449-1.56 1.072v0.8286h10.28v-0.8286c-0.7799-0.065-1.397-0.4224-1.852-1.072l-5.898-77.94zm100.6 0-5.995 77.94c-0.3249 0.5849-0.8286 0.9424-1.511 1.072v0.8286h8.384v-0.8286c-0.4874-0.13-1.024-0.4874-1.608-1.072l0.8286-15.94h5.167l0.5849 15.94c-0.1625 0.4874-0.6824 0.8449-1.56 1.072v0.8286h10.28v-0.8286c-0.7799-0.065-1.397-0.4224-1.852-1.072l-5.898-77.94zm33.53 0c-6.531 7e-5 -9.797 5.622-9.797 16.86 0 3.315 0.3493 6.556 1.048 9.724 0.6986 3.168 1.462 5.695 2.291 7.579 0.8286 1.885 2.396 4.891 4.704 9.017 2.112 3.737 3.534 7.068 4.265 9.992 0.7311 2.925 1.097 6.515 1.097 10.77-1e-5 7.539-1.219 11.31-3.656 11.31-1.267 0-2.08-0.6824-2.437-2.047-0.3574-1.365-0.5362-4.549-0.5362-9.554 0-4.842 0.3737-8.27 1.121-10.28l-0.6336-0.5849-7.263 8.481v3.509c0 10.43 3.233 15.65 9.7 15.65 6.986 0 10.48-5.882 10.48-17.64-2e-5 -4.192-0.4306-7.977-1.292-11.36-0.8611-3.379-2.884-7.815-6.068-13.31-2.47-4.257-4.094-7.661-4.874-10.21-0.7799-2.551-1.17-6.767-1.17-12.65 0-6.661 1.072-9.992 3.217-9.992 1.365 8e-5 2.21 1.146 2.535 3.436 0.3249 2.291 0.4874 5.63 0.4874 10.02-1e-5 3.022-0.3737 5.8-1.121 8.335l0.4874 0.5849 7.36-5.703v-3.168c-2e-5 -12.51-3.314-18.77-9.943-18.77zm-246.8 2e-3 -5.995 78.51c-0.325 0.5892-0.8286 0.9487-1.511 1.08v0.8359h8.384v-0.8359c-0.4874-0.1309-1.024-0.4905-1.608-1.08l0.8286-16.06h5.167l0.5849 16.06c-0.1625 0.491-0.6824 0.8505-1.56 1.08v0.8359h10.28v-0.8359c-0.7799-0.0655-1.397-0.425-1.852-1.08l-5.898-78.51zm75.18 0.5825v0.8286c0.6824 0.0326 1.511 0.3738 2.486 1.024v75.5c-0.8449 0.6174-1.674 0.9749-2.486 1.072v0.8286h11.75v-0.8286c-1.202-0.1625-2.031-0.5199-2.486-1.072v-35.34h1.511c0.9098 4e-5 1.535 0.2519 1.877 0.7555 0.3412 0.5037 0.9342 2.153 1.779 4.947l2.34 7.653h0.8286v-29.73h-0.8286l-1.706 5.557c-0.7799 2.535-1.422 4.119-1.925 4.752-0.5037 0.6337-1.292 0.9505-2.364 0.9505h-1.511v-31.78h1.901c0.8774 6e-5 1.617 0.26 2.218 0.7799 0.6011 0.52 1.438 2.063 2.51 4.631 1.072 2.567 2.031 5.199 2.876 7.896l1.998 6.385h0.8774l-2.096-24.81zm60.73 0v0.8286c0.8774 0.0326 1.706 0.3738 2.486 1.024v75.5c-0.8124 0.6824-1.641 1.04-2.486 1.072v0.8286h10.58v-0.8286c-0.8449-0.0325-1.673-0.3899-2.486-1.072l-2.583-73.45 3.071 23.69c0.6499 4.972 1.625 10.64 2.925 17.01l7.068 34.66h5.069v-77.4c0.4549-0.5848 1.3-0.926 2.535-1.024v-0.8286h-10.63v0.8286c0.8124 0.0326 1.625 0.3738 2.437 1.024l2.096 58.54-2.827-18.96c-0.8774-5.784-1.82-11.05-2.827-15.79l-5.459-25.64zm36.6 0-1.316 25.44h0.8286c0.7474-3.769 1.527-7.254 2.34-10.46 0.8124-3.201 1.552-5.597 2.218-7.19 0.6661-1.592 1.17-2.526 1.511-2.803 0.3412-0.2761 0.7555-0.4142 1.243-0.4143h1.365v72.77c-0.6824 0.5849-1.527 0.9424-2.535 1.072v0.8286h11.75v-0.8286c-0.9099-0.13-1.738-0.4874-2.486-1.072v-72.77h1.072c1.04 7e-5 2.039 1.056 2.998 3.168 0.9586 2.112 2.559 8.01 4.801 17.69h0.8286l-1.511-25.44zm93.19 0v0.8286c1.56 0.13 2.388 0.4713 2.486 1.024l6.775 40.36v35.14c-0.325 0.5199-1.121 0.8774-2.388 1.072v0.8286h11.7v-0.8286c-0.9424-0.13-1.787-0.4874-2.535-1.072v-35.53l6.385-39.97c0.4874-0.6173 1.332-0.9586 2.535-1.024v-0.8286h-10.48v0.8286c0.7474 0.0651 1.576 0.4063 2.486 1.024l-3.363 36.07-4.338-36.07c0.3899-0.6173 1.186-0.9586 2.388-1.024v-0.8286zm-364 5e-3v0.8359c0.6824 0.0328 1.511 0.3763 2.486 1.031v76.06c-0.8449 0.6219-1.673 0.9814-2.486 1.08v0.8359h11.75v-0.8359c-1.202-0.1637-2.031-0.5232-2.486-1.08v-35.6h1.511c0.9098 4e-5 1.535 0.2531 1.877 0.7604 0.3412 0.5074 0.9342 2.169 1.779 4.984l2.34 7.709h0.8286v-29.95h-0.8286l-1.706 5.598c-0.7799 2.553-1.422 4.148-1.925 4.787-0.5037 0.6383-1.292 0.9578-2.364 0.9578h-1.511v-32.01h1.901c0.8773 7e-5 1.617 0.2611 2.218 0.7848 0.6011 0.5238 1.438 2.079 2.51 4.665 1.072 2.586 2.031 5.238 2.876 7.955l1.998 6.432h0.8774l-2.096-24.99zm32.06 0v0.8359c0.8449 0.0656 1.641 0.409 2.388 1.031v76.06c-0.6499 0.5892-1.446 0.9487-2.388 1.08v0.8359h11.65v-0.8359c-1.007-0.1309-1.836-0.4905-2.486-1.08v-76.06c0.6824-0.6218 1.511-0.9654 2.486-1.031v-0.8359zm22.31 0v0.8359c0.8774 0.0328 1.706 0.3763 2.486 1.031v76.06c-0.8124 0.6874-1.641 1.047-2.486 1.08v0.8359h10.58v-0.8359c-0.8449-0.0327-1.674-0.3923-2.486-1.08l-2.583-73.99 3.071 23.86c0.6499 5.008 1.625 10.72 2.925 17.14l7.068 34.91h5.069v-77.97c0.4549-0.5891 1.3-0.9326 2.535-1.031v-0.8359h-10.63v0.8359c0.8124 0.0328 1.625 0.3763 2.437 1.031l2.096 58.97-2.827-19.1c-0.8774-5.826-1.82-11.13-2.827-15.91l-5.459-25.83zm68.6 0v0.8359c0.8774 0.0328 1.706 0.3763 2.486 1.031v76.06c-0.6174 0.5565-1.446 0.916-2.486 1.08v0.8359h20.03l1.414-26.32h-0.6336l-1.365 5.647c-2.567 10.34-5.232 15.51-7.994 15.51h-2.193v-72.81c0.7149-0.6546 1.511-0.9981 2.388-1.031v-0.8359zm90.6 4.431 2.388 51.86h-4.874zm100.6 0 2.388 51.86h-4.874zm-213.3 0.039 2.388 52.24h-4.874zm290.3 68.01c-0.6174 1e-5 -1.22 0.1584-1.808 0.4752-0.5882 0.3168-1.047 0.7701-1.377 1.36-0.3298 0.5898-0.4947 1.205-0.4947 1.845 0 0.6336 0.1625 1.243 0.4874 1.828 0.3249 0.5849 0.7791 1.039 1.362 1.362 0.5833 0.3233 1.193 0.485 1.83 0.485s1.247-0.1617 1.83-0.485c0.5833-0.3233 1.037-0.7774 1.36-1.362 0.3233-0.5849 0.485-1.194 0.485-1.828 0-0.6402-0.1641-1.255-0.4923-1.845-0.3282-0.5898-0.7864-1.043-1.375-1.36-0.5882-0.3168-1.191-0.4752-1.808-0.4752zm0 0.6093c0.5134 1e-5 1.015 0.1324 1.506 0.3972 0.4907 0.2648 0.8733 0.6434 1.148 1.136 0.2746 0.4923 0.4119 1.005 0.4119 1.538 0 0.5297-0.1349 1.037-0.4046 1.523-0.2697 0.4858-0.6483 0.8644-1.136 1.136-0.4874 0.2713-0.996 0.407-1.526 0.407s-1.038-0.1357-1.526-0.407c-0.4874-0.2713-0.8668-0.6499-1.138-1.136-0.2713-0.4858-0.407-0.9935-0.407-1.523 0-0.5329 0.1381-1.046 0.4143-1.538 0.2762-0.4923 0.6588-0.8709 1.148-1.136 0.489-0.2648 0.9919-0.3972 1.509-0.3972zm0.0439 1.004c-0.3867 1e-5 -0.7304 0.0804-1.031 0.2413-0.3006 0.1608-0.5321 0.3997-0.6946 0.7165-0.1625 0.3168-0.2437 0.6897-0.2437 1.119 0 0.6564 0.1787 1.17 0.5362 1.54 0.3574 0.3704 0.8221 0.5557 1.394 0.5557 0.4517 0 0.8359-0.121 1.153-0.3631 0.3168-0.2421 0.524-0.5662 0.6215-0.9724l-0.5995-0.1755c-0.0715 0.2892-0.2177 0.5183-0.4387 0.6873-0.221 0.169-0.4777 0.2534-0.7701 0.2534-0.3639 0-0.6605-0.1275-0.8895-0.3826-0.2291-0.2551-0.3436-0.6312-0.3436-1.128 0-0.4972 0.121-0.879 0.3631-1.145 0.2421-0.2664 0.55-0.3997 0.9237-0.3997 0.2567 1e-5 0.4801 0.0642 0.6702 0.1925 0.1901 0.1284 0.3339 0.3128 0.4314 0.5532l0.58-0.1414c-0.104-0.3542-0.299-0.6345-0.5849-0.8408-0.286-0.2063-0.645-0.3095-1.077-0.3095zm-393.8 13.06v3.088h400v-3.088z" fill="#fff"/><path d="m275.2 237.7c-1.76 0-2.959 1.28-2.959 3 0 1.68 1.199 2.959 2.959 2.959 1.8 0 2.961-1.279 2.961-2.959 0-1.72-1.161-3-2.961-3zm-68.48 1.559-4.92 0.5215v25.32c0 3 1.8 4.92 4.68 4.92 1.2 0 2.321-0.3598 3.041-0.7598l-0.9609-3.359c-0.2 0.04-0.5189 0.1602-0.8789 0.1602-0.64 0-0.9609-0.4802-0.9609-1.16zm10.76 0-4.92 0.5215v25.32c0 3 1.802 4.92 4.682 4.92 1.2 0 2.319-0.3598 3.039-0.7598l-0.9609-3.359c-0.2 0.04-0.5189 0.1602-0.8789 0.1602-0.64 0-0.9609-0.4802-0.9609-1.16zm-45.6 1.961c-5.76 0-10.2 4.52-10.2 14.32 0 9.92 4.239 14.48 10.2 14.48 3.2 0 5.601-1.598 7.121-3.318l-2.441-2.801c-1.24 1.04-2.438 2.039-4.318 2.039-3.12 0-5.201-2.638-5.201-10.4 0-7.96 2.161-10.44 5.121-10.44 1.6 0 2.838 0.6809 4.158 1.881l2.441-2.92c-1.92-1.8-3.961-2.84-6.881-2.84zm92.72 1.76-4.92 0.5996v4.68h-2.48v3.561h2.48v12.32c0 3.48 1.839 5.879 5.639 5.879 1.64 0 3.282-0.5186 4.602-1.559l-1.721-3.041c-0.72 0.4-1.199 0.6406-1.959 0.6406-1.12 0-1.641-0.7199-1.641-1.92v-12.32h3.52l0.4805-3.561h-4zm-75.48 4.721c-5.24 0-8.439 3.879-8.439 11.12 0 7.28 3.199 11.2 8.439 11.2 5.24 0 8.439-4.159 8.439-11.2 0-7.52-3.199-11.12-8.439-11.12zm41.4 0c-5.28 0-8.121 4.438-8.121 11.32 0 6.96 3.042 11 8.602 11 2.84 0 5.039-1.079 6.719-2.719l-2.039-2.801c-1.48 1.2-2.72 1.76-4.4 1.76-2.2 0-3.68-1.239-3.92-5.879h10.92c0.04-0.56 0.1191-1.361 0.1191-2.041 0-7.12-2.999-10.64-7.879-10.64zm19.72 0c-5.16 0-8.521 4.158-8.521 11.32 0 7.4 3.28 11 8.6 11 2.28 0 4.161-0.9594 5.721-2.439l-2.199-2.84c-1.16 0.84-2.041 1.32-3.281 1.32-2.16 0-3.639-1.561-3.639-7.121 0-5.6 1.359-7.439 3.639-7.439 1.24 0 2.241 0.4804 3.361 1.4l2.119-2.801c-1.68-1.64-3.479-2.398-5.799-2.398zm40.32 0c-5.24 0-8.439 3.879-8.439 11.12 0 7.28 3.199 11.2 8.439 11.2 5.24 0 8.441-4.159 8.441-11.2 0-7.52-3.201-11.12-8.441-11.12zm22.76 0c-2.4 0-3.878 1.238-5.238 3.318l-0.3613-2.76h-4.279v21.16h4.92v-14.8c1-1.92 2.12-3.16 3.32-3.16 1.04 0 1.639 0.7598 1.639 2.84v15.12h4.92v-15.68c0-3.68-1.88-6.039-4.92-6.039zm-40.56 0.5586v21.16h4.92v-21.16zm-42.2 2.881c2.16 0 3.041 1.76 3.041 5.76v0.2793h-6.24c0.2-4.68 1.359-6.039 3.199-6.039zm-41.44 0.2793c2.2 0 3.32 1.88 3.32 7.4 0 5.52-1.12 7.439-3.32 7.439-2.2 0-3.32-1.879-3.32-7.439 0-5.48 1.12-7.4 3.32-7.4zm101.4 0c2.2 0 3.32 1.88 3.32 7.4 0 5.52-1.12 7.439-3.32 7.439-2.2 0-3.318-1.879-3.318-7.439 0-5.48 1.118-7.4 3.318-7.4z" fill="#fff"/></svg>
