<svg width="480" height="320" version="1.1" viewBox="0 0 480 320" xml:space="preserve" xmlns="http://www.w3.org/2000/svg" xmlns:xlink="http://www.w3.org/1999/xlink"><defs><linearGradient id="a" x1="240" x2="440" y1="270" y2="-76.41" gradientUnits="userSpaceOnUse"><stop stop-color="#1e4148" offset="0"/><stop stop-color="#d4ff00" offset="1"/></linearGradient></defs><rect id="b" width="480" height="320" ry="24" fill="url(#a)"/><path d="m74.53 137.8c-8.782 0.0921-16.21 2.118-22.29 6.076-6.075 3.959-9.964 9.297-11.67 16.02-0.8659 3.755-0.7424 7.151 0.373 10.19 1.115 3.037 3.128 5.533 6.035 7.488 4.302 2.83 10.47 4.241 18.49 4.23 3.763 5e-3 7.06-0.3535 9.893-1.074 2.833-0.7207 5.251-1.836 7.254-3.346l0.873 3.473h7.457l2.467-10.42c0.5389-2.165 0.912-3.517 1.119-4.057 0.207-0.5392 0.4968-0.9133 0.8691-1.121 0.3016-0.2525 0.7514-0.4401 1.352-0.5664 0.6001-0.1262 1.424-0.1894 2.471-0.1894h2.543l1.359-5.746h-30.85l-1.361 5.746h3.561c1.048-4e-3 1.842 0.04965 2.385 0.1641 0.5431 0.1144 0.9025 0.3117 1.078 0.5918 0.2738 0.2078 0.388 0.5819 0.3398 1.121-0.04824 0.5392-0.3149 1.892-0.8008 4.057l-0.1055 0.4414c-0.3911 1.697-1.236 2.943-2.537 3.74-1.301 0.797-3.132 1.191-5.492 1.184-1.575-1e-3 -3.014-0.219-4.316-0.6543-1.302-0.4353-2.428-1.08-3.377-1.934-1.601-1.427-2.604-3.182-3.012-5.264-0.4076-2.082-0.2471-4.641 0.4824-7.678 1.283-5.354 3.446-9.433 6.488-12.24 3.042-2.805 6.84-4.219 11.39-4.238 2.131 7e-3 3.955 0.3252 5.473 0.9551 1.517 0.63 2.653 1.533 3.406 2.707 0.6139 0.897 0.9954 1.881 1.145 2.951 0.149 1.071 0.1233 2.527-0.08008 4.371h8.812l3.795-16.03h-8.812l-2.148 3.346c-1.144-1.56-2.812-2.67-5.006-3.33-2.194-0.6602-5.215-0.9813-9.062-0.9629zm299.2 0.7402-47.38 0.207-6.771 13.55 8.172 2.865c0.8261-3.684 2.365-6.4 4.619-8.15 2.254-1.75 5.257-2.59 9.008-2.518l-5.844 24.68c-0.539 2.165-0.9121 3.517-1.119 4.057-0.2072 0.5392-0.4969 0.9133-0.8691 1.121-0.3017 0.2525-0.7534 0.4421-1.354 0.5684-0.6002 0.1262-1.422 0.1895-2.469 0.1894h-4.746l-1.361 5.744h35.17l1.359-5.744h-4.746c-1.047 1e-5 -1.841-0.06317-2.381-0.1894-0.5404-0.1262-0.9019-0.3158-1.084-0.5684-0.2739-0.2078-0.3861-0.5819-0.3379-1.121 0.0481-0.5392 0.3148-1.892 0.8008-4.057l5.844-24.68h1.779c3.138 3e-3 5.323 0.7713 6.553 2.305 1.229 1.533 1.486 3.815 0.7715 6.848l-0.3574 1.516 9.271-1.797-2.531-14.82zm-242.4 0.207-21.91 31.69c-1.272 1.907-2.409 3.174-3.41 3.803-1.002 0.6286-2.352 0.9191-4.051 0.8691h-2.713l-1.359 5.744h25.76l1.361-5.744h-3.645c-1.428 5e-3 -2.423-0.116-2.986-0.3633-0.5629-0.2472-0.7704-0.652-0.623-1.215 0.0123-0.1565 0.1185-0.3965 0.3184-0.7188 0.1998-0.3222 0.7325-1.114 1.6-2.375l2.219-3.283h17.37l0.6641 3.283c0.2299 1.259 0.363 2.055 0.3984 2.391 0.0353 0.3354 0.0157 0.6111-0.0586 0.8281-0.1015 0.5852-0.4586 0.9772-1.072 1.176-0.6138 0.1986-1.728 0.2918-3.34 0.2773h-3.305l-1.359 5.744h32.2l1.359-5.744h-2.797c-0.8204-3e-3 -1.558-0.06072-2.215-0.1738-0.6565-0.1131-1.14-0.267-1.449-0.459-0.3008-0.2433-0.6109-0.7342-0.9316-1.475-0.3209-0.7404-0.567-1.595-0.7383-2.564l-5.635-31.69h-19.66zm43.17 0-1.361 5.744h4.746c1.047 4e-5 1.84 0.06327 2.381 0.1894 0.5403 0.1263 0.9019 0.3159 1.084 0.5684 0.2739 0.2078 0.3861 0.58 0.3379 1.119-0.0483 0.5392-0.3148 1.892-0.8008 4.057l-4.438 18.75c-0.5315 2.133-0.9003 3.471-1.107 4.01-0.2072 0.5392-0.5011 0.9286-0.8809 1.168-0.3017 0.2525-0.7534 0.4421-1.354 0.5684s-1.424 0.1895-2.471 0.1894h-4.744l-1.361 5.744h26.02l1.359-5.744h-2.881c-1.047 1e-5 -1.841-0.06317-2.381-0.1894-0.5404-0.1262-0.9019-0.3158-1.084-0.5684-0.2739-0.2078-0.3881-0.5819-0.3398-1.121 0.04809-0.5392 0.3167-1.892 0.8027-4.057l5.588-23.61 4.781 35.29h13.3l21.32-35.29-5.59 23.61c-0.539 2.165-0.9121 3.517-1.119 4.057-0.2072 0.5392-0.495 0.9133-0.8672 1.121-0.3017 0.2525-0.7534 0.4421-1.354 0.5684-0.6002 0.1262-1.424 0.1895-2.471 0.1894h-2.881l-1.359 5.744h32.96l1.359-5.744h-4.746c-1.047 1e-5 -1.841-0.06317-2.381-0.1894-0.5404-0.1262-0.902-0.3158-1.084-0.5684-0.2665-0.2394-0.3744-0.6288-0.3262-1.168 0.0481-0.5392 0.3105-1.877 0.7891-4.01l4.439-18.75c0.5388-2.165 0.912-3.517 1.119-4.057 0.207-0.5392 0.4968-0.9113 0.8691-1.119 0.3016-0.2525 0.7513-0.4421 1.352-0.5684 0.6001-0.1262 1.424-0.1894 2.471-0.1894h4.746l1.359-5.744h-32.96l-15.04 25.57-2.846-25.57h-32.96zm108.4 0-21.91 31.69c-1.272 1.907-2.409 3.174-3.41 3.803-1.002 0.6286-2.352 0.9191-4.051 0.8691h-2.713l-1.359 5.744h25.76l1.361-5.744h-3.645c-1.428 5e-3 -2.423-0.116-2.986-0.3633-0.5629-0.2472-0.7705-0.652-0.623-1.215 0.0127-0.1565 0.1185-0.3965 0.3184-0.7188 0.1998-0.3222 0.7325-1.114 1.6-2.375l2.219-3.283h17.37l0.6641 3.283c0.2299 1.259 0.363 2.055 0.3984 2.391 0.0354 0.3354 0.0147 0.6111-0.0586 0.8281-0.1015 0.5852-0.4586 0.9772-1.072 1.176-0.6138 0.1986-1.728 0.2918-3.34 0.2773h-3.305l-1.359 5.744h32.2l1.359-5.744h-2.797c-0.8204-3e-3 -1.558-0.06072-2.215-0.1738-0.6565-0.1131-1.14-0.267-1.449-0.459-0.3009-0.2433-0.6109-0.7342-0.9316-1.475-0.3209-0.7404-0.567-1.595-0.7383-2.564l-5.635-31.69h-19.66zm99.28 0-1.359 5.744h4.746c1.047 4e-5 1.84 0.06327 2.381 0.1894 0.5404 0.1263 0.8999 0.3159 1.082 0.5684 0.2739 0.2078 0.388 0.58 0.3398 1.119-0.0483 0.5392-0.3148 1.892-0.8008 4.057l-4.439 18.75c-0.539 2.165-0.9121 3.517-1.119 4.057-0.2072 0.5392-0.4969 0.9133-0.8691 1.121-0.3017 0.2525-0.7514 0.4421-1.352 0.5684-0.6001 0.1262-1.424 0.1895-2.471 0.1894h-4.746l-1.359 5.744h56.18l8.844-14.98-11.62-2.252c-0.4798 1.706-0.8858 2.983-1.215 3.828-0.3291 0.8456-0.7218 1.632-1.182 2.359-0.7338 1.19-1.751 2.233-3.051 3.131-1.3 0.8982-2.684 1.517-4.148 1.855-0.6873 0.1512-1.418 0.2425-2.193 0.2754-0.7758 0.0329-2.528 0.04751-5.254 0.04101h-9.32l3.092-13.07h2.629c2.359-0.01579 3.967 0.4113 4.824 1.279 0.8573 0.868 1.047 2.272 0.5703 4.213l-0.2988 1.262h7.457l4.482-18.94h-7.457c-0.2804 1.192-0.5315 2.059-0.7539 2.604-0.2225 0.5445-0.4834 1.002-0.7812 1.373-0.6323 0.8812-1.486 1.534-2.561 1.957-1.075 0.4235-2.374 0.6355-3.898 0.6328h-2.883l2.826-11.93h11.19c1.402-1e-3 2.449 0.01658 3.143 0.05468 0.6936 0.0382 1.265 0.1039 1.713 0.1973 1.021 0.1934 1.908 0.5017 2.662 0.9238 0.7545 0.4222 1.339 0.9354 1.754 1.539 0.6188 0.9653 0.991 2.081 1.115 3.346 0.1242 1.265-0.01735 2.76-0.4258 4.482l12.3-1.803-1.588-14.48h-56.18zm-246.8 8.773 2.824 14.21h-12.8l9.973-14.21zm151.6 0 2.824 14.21h-12.8l9.973-14.21z" fill="#fff"/></svg>
