<svg width="480" height="320" version="1.1" viewBox="0 0 127 84.667" xmlns="http://www.w3.org/2000/svg" xmlns:xlink="http://www.w3.org/1999/xlink">
 <defs>
  <linearGradient id="a" x1="26.292" x2="94.685" y2="96.493" gradientUnits="userSpaceOnUse">
   <stop stop-color="#f37329" offset="0"/>
   <stop stop-color="#c6262e" offset="1"/>
  </linearGradient>
 </defs>
 <rect width="127" height="84.667" ry="4.2333" fill="url(#a)" stroke-linecap="square" stroke-linejoin="round" stroke-width=".52917" style="paint-order:stroke fill markers"/>
 <g transform="matrix(.86182 0 0 .86182 38.325 -11.273)" fill="#fff" fill-rule="evenodd" stroke-miterlimit="79.84">
  <g id="b" transform="matrix(.17202 0 0 -.17202 33.212 78.66)">
   <path d="m61.82 112.44c-6.731-9.14-13.132-10.857-16.565-12.771-3.398-1.915-7.062-2.871-10.923-2.871-10.823 0-19.271 3.53-25.344 10.559-6.072 7.062-9.108 16.962-9.108 29.799 0 15.18 3.829 28.05 11.518 38.677 7.688 10.593 17.886 15.871 30.59 15.871 9.637 0 17.522-2.705 23.693-8.149 6.172-5.413 9.242-13.927 9.242-25.51h-18.646c0 5.545-1.22 9.438-3.663 11.682-2.441 2.211-5.939 3.333-10.527 3.333-7.49 0-13.266-3.663-17.391-10.956-4.092-7.326-6.171-15.642-6.171-24.98 0-6.37 1.353-11.584 3.993-15.609 2.673-4.061 6.666-6.073 11.98-6.073 5.543 0 9.834 1.584 12.936 4.72 3.068 3.102 5.345 7.128 6.798 12.044h-17.359l2.806 16.896h33.856l-2.87-16.367s-2.146-11.156-8.845-20.295z"/>
   <path d="m141.25 15.292c-6.698-9.142-13.134-10.858-16.532-12.771-3.432-1.914-7.063-2.871-10.957-2.871-10.823 0-19.272 3.531-25.343 10.593-6.039 7.028-9.075 16.962-9.075 29.765 0 15.181 3.829 28.083 11.516 38.676 7.689 10.594 17.887 15.907 30.559 15.907 9.668 0 17.555-2.708 23.727-8.152 6.137-5.445 9.239-13.925 9.239-25.509h-18.677c0 5.545-1.222 9.439-3.664 11.649-2.409 2.244-5.939 3.366-10.527 3.366-7.457 0-13.232-3.663-17.357-10.988-4.125-7.294-6.172-15.609-6.172-24.949 0-6.402 1.32-11.615 3.994-15.641 2.672-4.025 6.666-6.038 11.978-6.038 5.512 0 9.834 1.55 12.903 4.686 3.07 3.134 5.347 7.16 6.831 12.076h-17.391l2.839 16.895h33.857l-2.871-16.367s-2.145-11.152-8.877-20.327z"/>
   <path d="m145.18 189.37h23.134l5.18-63.624 26.006 63.79 23.297-0.166-15.147-90.354h-16.303l12.838 70.027-28.314-70.027h-13.366l-6.17 69.993-9.736-69.993h-16.5z"/>
   <path d="m228.54 189.46h46.827l-2.871-18.744h-29.469l-2.972-16.334h26.633l-2.773-17.523h-26.63l-3.433-19.24h30.063l-2.97-18.612h-47.388z"/>
   <path d="m98.121 189.53-36.432-90.52h17.753l6.502 17.655h23.232l1.518-17.655h17.193l-10.297 90.52h-19.469m-6.534-57.42 13.2 36.002 3.069-36.002z"/>
   <path d="m164.55 92.346h46.828l-2.87-18.743h-29.47l-2.97-16.37h26.598l-2.739-17.489h-26.632l-3.464-19.238h30.096l-2.969-18.645h-47.39z"/>
   <path d="m234.94 92.38-36.432-90.519h17.787l6.467 17.656h23.265l1.519-17.656h17.16l-10.297 90.519h-19.469m-6.503-57.388 13.168 36.004 3.103-36.004z"/>
   <path d="m292.23 52.582 3.96 22.274h9.504c3.499 0 6.106-0.627 7.855-1.881 1.749-1.286 2.606-3.828 2.606-7.656 0-4.29-1.418-7.458-4.224-9.57-2.837-2.112-6.434-3.167-10.791-3.167h-8.91m-10.724 39.764-14.983-90.485h17.325l5.809 34.485h8.02l13.396-34.485h19.866l-14.849 38.18c5.181 2.641 9.636 7.029 12.738 11.616 3.234 4.72 4.85 10.23 4.85 16.533 0 8.546-1.914 14.684-5.775 18.481-3.826 3.795-9.273 5.675-16.267 5.675z"/>
  </g>
  <g transform="matrix(1.0471 0 0 1.0471 -70.312 37.412)" stroke-width=".17202">
   <path d="m41.815 20.335c4.7683-5.4668 10.513-8.396 12.835-6.5567 2.3161 1.845 0.32926 7.7715-4.4451 13.233-4.7683 5.4668-10.513 8.396-12.829 6.5567-2.3216-1.8451-0.32908-7.7715 4.4394-13.233z"/>
   <path d="m60.77 20.352c4.8992-5.427 10.797-8.3449 13.182-6.5113 2.3788 1.8334 0.3351 7.7204-4.564 13.147-4.8991 5.4327-10.797 8.3506-13.176 6.517-2.3784-1.8336-0.34061-7.7204 4.5585-13.153z"/>
   <path d="m79.18 20.352c4.8989-5.427 10.803-8.3449 13.182-6.5113 2.3786 1.8334 0.33476 7.7204-4.5586 13.147-4.8991 5.4327-10.803 8.3506-13.181 6.517-2.3784-1.8336-0.33493-7.7204 4.5585-13.153z"/>
  </g>
 </g>
 <style type="text/css">.st0{fill:#FC0C18;}
	.st1{fill:#FC0C18;}</style>
</svg>
