<svg width="480" height="320" version="1.1" viewBox="0 0 480 320" xml:space="preserve" xmlns="http://www.w3.org/2000/svg"><defs><linearGradient id="a" x1="26.292" x2="94.685" y2="96.493" gradientTransform="scale(3.7795)" gradientUnits="userSpaceOnUse"><stop stop-color="#f37329" offset="0"/><stop stop-color="#c6262e" offset="1"/></linearGradient></defs><rect width="480" height="320" ry="24" fill="url(#a)"/><path d="m205.97 60c-9.3469 0-23.909 10.079-36.1 25.845-15.072 19.49-20.806 40.296-12.821 46.475 1.5285 1.1765 3.4368 1.7416 5.6415 1.7416 9.3562 0 23.919-10.079 36.109-25.845 15.072-19.49 20.806-40.296 12.821-46.475-1.5285-1.1765-3.4368-1.7416-5.6508-1.7416zm64.687 0c-9.3469 0-23.909 10.079-36.109 25.845-15.063 19.49-20.806 40.296-12.821 46.466 1.5285 1.1765 3.4366 1.7416 5.6414 1.7416 9.3469 0 23.909-10.079 36.109-25.845 15.072-19.481 20.815-40.287 12.821-46.466-1.5192-1.1765-3.4368-1.7416-5.6415-1.7416zm64.687 0c-9.3469 0-23.909 10.079-36.109 25.845-15.072 19.49-20.806 40.296-12.821 46.475 1.5285 1.1765 3.4368 1.7416 5.6415 1.7416 9.3469 0 23.919-10.079 36.109-25.845 15.072-19.49 20.806-40.296 12.821-46.475-1.5285-1.1765-3.4366-1.7416-5.6414-1.7416zm-174.57 91.941c-14.933 0-24.799 14.97-25.327 26.114-0.89855 19.111 14.173 24.928 20.741 24.928 13.201 0 20.463-12.061 23.288-21.491 0.88929-2.9829-1.3432-5.975-4.4557-5.975h-14.97l-3.9649 9.5786h11.172c-2.4548 4.4002-6.8459 7.6424-12.006 7.6424-2.6123 0-10.468-2.3716-9.9212-13.923 0.37054-7.7536 6.4938-17.258 15.461-17.258 5.9472 0 9.9028 7.0866 9.9028 7.0866l8.5132-4.4373s-6.4011-12.265-18.434-12.265zm41.408 2.3901c-2.6772 0-5.3637 1.4173-6.6421 4.465l-17.86 43.177h10.366l3.6962-8.9301h10.94l0.7968 8.9301h9.6155l-3.6499-41.047c-0.37981-4.2334-3.8072-6.5956-7.2625-6.5956zm28.708 0.16664c-3.0384 0-6.0676 1.9083-6.6419 5.7063l-6.2808 41.769h9.6804l3.4462-22.844 3.2978 18.898c0.45391 2.5845 2.6122 4.0018 4.7892 4.0018 1.7138 0 3.4461-0.87071 4.3354-2.7512l8.7911-18.472-3.1775 21.167h9.6896l6.0029-39.944c0.69477-4.5762-2.9458-7.5313-6.5863-7.5313-2.2603 0-4.5392 1.1486-5.7713 3.761l-11.19 23.474-3.7796-21.677c-0.63918-3.7054-3.6221-5.5581-6.605-5.5581zm47.244 0c-2.7698 0-5.1134 2.0103-5.521 4.743l-5.4563 36.332c-0.50023 3.3627 2.1122 6.4011 5.5212 6.4011h18.583l1.4266-9.5878h-15.35l1.3618-9.0691h12.895l1.408-9.5878h-12.876l1.4545-9.6804h15.387l1.4174-9.5507zm-77.388 16.804 1.0838 12.172h-6.1232zm7.1051 37.656c-14.933 0-24.799 14.97-25.327 26.114-0.89857 19.111 14.173 24.928 20.741 24.928 13.201 0 20.463-12.061 23.289-21.491 0.88929-2.9829-1.3432-5.975-4.4557-5.975h-14.97l-3.9739 9.5878h11.172c-2.4548 4.4002-6.8457 7.6424-12.006 7.6424-2.6123 0-10.468-2.3716-9.9214-13.923 0.37054-7.7536 6.4938-17.258 15.461-17.258 5.9472 0 9.9028 7.0866 9.9028 7.0866l8.5225-4.4465s-6.4011-12.265-18.434-12.265zm76.962 2.3993c-2.6679 0-5.3637 1.4172-6.6421 4.465l-17.86 43.177h10.366l3.6962-8.9299h10.94l0.79681 8.9299h9.6154l-3.6499-41.047c-0.37054-4.2427-3.8072-6.5956-7.2625-6.5956zm-43.437 0.16663c-2.7698 0-5.1134 2.0103-5.521 4.743l-5.4563 36.332c-0.50023 3.3627 2.112 6.4011 5.521 6.4011h18.583l1.4266-9.5878h-15.35l1.3617-9.0689h12.895l1.4082-9.5878h-12.876l1.4543-9.6804h15.387l1.4174-9.5509zm72.32 0c-2.742 0-5.0672 1.9826-5.5026 4.6875l-6.9106 42.798h9.699l2.742-16.934h4.3539c1.8249 0 3.3996 1.2784 3.7794 3.0478l3.0014 13.895h9.8657l-2.8809-13.358-0.12973-0.58349-9e-3 -0.0279c-0.0926-0.4076-0.23151-1.0931-0.48163-2.2233-0.61139-2.8439-2.7514-3.483-2.7514-3.483 7.9296-4.4372 7.5406-12.645 7.5406-13.191 0-8.1148-7.5776-14.627-13.858-14.627h-3.5017zm3.3998 9.5601h3.9926c1.899 0 3.7702 1.899 4.1871 4.1594 0.62991 3.3812-1.973 7.2348-5.7711 7.2348h-4.2336zm-33.701 7.2348 1.0838 12.172h-6.1232z" fill="#fff"/></svg>
