<svg width="480" height="320" version="1.1" viewBox="0 0 480 320" xml:space="preserve" xmlns="http://www.w3.org/2000/svg"><defs><linearGradient id="a" x1="34.237" x2="34.237" y1="-10.3" y2="111.53" gradientTransform="scale(3.7795)" gradientUnits="userSpaceOnUse"><stop stop-color="#f9c440" offset="0"/><stop stop-color="#cd3e30" offset=".40829"/><stop stop-color="#7a0000" offset="1"/></linearGradient></defs><rect width="480" height="320" ry="24" fill="url(#a)"/><path d="m125.61 50c-9.3602 0-16.979 7.6184-16.979 16.979v186.04c0 9.3602 7.6183 16.978 16.979 16.978h228.78c9.3602 0 16.978-7.6188 16.988-16.969v-186.05c0-9.3602-7.6184-16.979-16.979-16.979zm30.168 16.408c12.232 0 22.733 7.3537 27.357 17.875l-10.348 0.0098c-3.7685-5.337-9.982-8.8203-17.01-8.8203-11.509 0-20.828 9.3193-20.828 20.818 0 11.499 9.3189 20.818 20.828 20.818 8.3518 0 15.553-4.9185 18.873-12.018h-18.385v-9.4727h29.354c0.0102 0.22407 0.0215 0.43804 0.0215 0.66211 0 3.0657-0.4589 6.0198-1.3144 8.8106-3.7583 12.202-15.115 21.072-28.549 21.072-16.5 0-29.873-13.383-29.873-29.883 0-16.5 13.373-29.873 29.873-29.873zm61.549 0.60156h9.7383v56.863h-9.7383v-12.16h-17.996l-8.0664 12.141h-11.684zm50.193 0h9.7363v39.182l26.033-39.182h9.7383v56.854h-9.7383v-39.264l-26.033 39.203v0.0703h-9.7363v-39.264l-26.055 39.244h-11.691zm53.381 0h29.576v9.7363h-19.84v14.381h19.84v9.7383h-19.84v13.25h19.84v9.7383h-19.84l-9.7363 0.0391zm-103.58 17.6-11.529 17.365h11.529zm17.051 46.719c3.7074 0 7.2818 1.458 9.8281 3.9941 2.2204 2.2407 3.4531 5.1841 3.4531 8.3008 0 5.8157-3.0051 9.2988-6.4375 12.049l7.4863 6.916 5.0312-11.338h9.5527s-4.6939 10.552-7.8106 17.58l13.453 12.426-5.9277 6.4062-11.324-10.469c-3.5037 6.9157-8.0886 11.377-17.316 11.377-4.8685 0-9.2992-1.7422-12.467-4.9199-3.1472-3.137-4.877-7.4962-4.877-12.283 0-8.4333 4.7256-12.527 10.154-16.367-2.9231-2.5667-5.877-6.0313-5.877-11.389 0-7.6898 6.6513-12.283 13.078-12.283zm0 8.7402c-1.2833 0-2.6086 0.50898-3.4336 1.334-0.6111 0.62131-0.91601 1.355-0.91601 2.2207 0 2.3426 1.7104 3.9112 4.5215 6.1621 3.2185-2.3732 4.3906-3.7075 4.3906-6.1621 0-0.825-0.29513-1.5178-0.90624-2.1289-0.88611-0.87593-2.2812-1.4258-3.6562-1.4258zm-0.36719 20.828c-0.0204 0.0204-0.0514 0.0401-0.082 0.0606-5.8055 4.0232-8.168 5.8362-8.168 10.43 0 2.4852 0.79492 4.6035 2.3125 6.1211 1.5481 1.538 3.7176 2.3535 6.3047 2.3535 5.2657 0 7.4032-1.7411 10.418-8.4531l0.17383-0.38867zm53.758 33.184c11.468 0 21.43 6.7012 26.41 16.184h-11.408c-3.7278-4.0944-9.0742-6.7637-15.002-6.7637-11.285 0-20.432 9.1469-20.432 20.422 0 11.265 9.1465 20.412 20.432 20.412 6.0296 0 11.438-2.6081 15.176-6.7637h11.346c-4.9602 9.5944-14.972 16.184-26.521 16.184-16.469 0-29.834-13.362-29.834-29.842 0-16.469 13.354-29.832 29.834-29.832zm-162.13 1.9453h9.7383v39.264l26.021-39.182v-0.0723h9.7383v39.264l26.053-39.232h11.684l-37.746 56.844h-9.7383v-39.193l-26.012 39.193-9.7383-0.0117zm99.113 0v56.873h-9.7383v-12.16h-17.996l-8.0664 12.141h-11.684l37.746-56.844zm3.8086 0.01h31.777v9.7363h-11.02v47.127h-9.7383v-47.127h-11.02zm88.133 0h9.7363v22.896h17.58v-22.896h9.7363v56.863h-9.7363v-24.221h-17.58v24.221h-9.7363zm-101.68 17.609-11.529 17.367h11.529z" fill="#fff"/></svg>
