<svg width="480" height="320" version="1.1" viewBox="0 0 480 320" xml:space="preserve" xmlns="http://www.w3.org/2000/svg" xmlns:xlink="http://www.w3.org/1999/xlink"><defs><linearGradient id="a" x1="240" x2="136.7" y1="270" y2="-115.6" gradientUnits="userSpaceOnUse"><stop stop-color="#26485a" offset="0"/><stop stop-color="#00a6ff" offset="1"/></linearGradient></defs><rect id="b" width="480" height="320" ry="24" fill="url(#a)"/><g transform="translate(0,1)" fill="#fff"><path d="m40 126v17c0 4 3 6 8 6h32c5 0 8-2 8-6v-11h-25v5h16v7h-30v-19h30v3c3-0.3333 6-0.6667 9-1v-1c0-4-3-6-8-6h-32c-5 0-8 2-8 6z"/><path d="m113 120c-7.667 9.667-15.33 19.33-23 29h10c1.725-2.333 3.449-4.667 5.174-7h23.65c1.725 2.333 3.449 4.667 5.174 7h10c-7.667-9.667-15.33-19.33-23-29h-8zm4 6c2.71 3.667 5.421 7.333 8.131 11h-16.26c2.71-3.667 5.421-7.333 8.131-11z"/><path d="m149 120v29h8v-19.64c5.667 5.214 11.33 10.43 17 15.64h2c5.667-5.214 11.33-10.43 17-15.64v19.64h8v-29h-8c-6 5.667-12 11.33-18 17-6-5.667-12-11.33-18-17h-8z"/><path d="m212 120v29h41v-5h-32v-8h19v-5h-19v-6h32v-5h-41z"/><path d="m262 120v29h9v-13c8 4.333 16 8.667 24 13h15c-9.667-5-19.33-10-29-15v-1c8.333-4.333 16.67-8.667 25-13h-13c-7.333 4-14.67 8-22 12v-12h-9z"/><path d="m314 120h9v29h-9z"/><path d="m335 120v29h8v-20c11 6.667 22 13.33 33 20h6v-29h-8v20c-11-6.667-22-13.33-33-20h-6z"/><path d="m392 126v17c0 4 3 6 8 6h32c5 0 8-2 8-6v-11h-25v5h16v7h-30v-19h30v3c3-0.3333 6-0.6667 9-1v-1c0-4-3-6-8-6h-32c-5 0-8 2-8 6z"/><path d="m393 166v3h19v9h-16v3.5h16v11h-22v3.5h50v-3.5h-22v-11h16v-3.5h-16v-9h19v-3h-44z"/><path d="m353 167c-1.54 8.332-7.136 16.14-12.25 22.99-2.477 7e-3 -5.048 0.01-7.752 0.01l1 5c13.23-1.686 31.91-1.975 39.79-5.404 1.774 1.639 3.515 3.426 5.213 5.404l4-4c-4.694-5.855-10-9-15-12l-4 3c2.46 1.628 4.889 3.393 7.268 5.383-4.173 1.969-12.96 2.454-25.19 2.574 6.146-6.135 10.74-14.14 12.92-21.96z"/><path d="m276 177h47v4h-47z"/><path d="m261.6 160.2-1.199 1.602 4 3 1.199-1.602zm-30.6 3.801c-3 12-10.21 14.95-16 20l5 2c5.663-3.176 9.052-6.072 11.41-9h13.59c-0.0811 11.19-8.259 14.89-16 19l6 2c8.863-2.439 14.8-8.338 15-21h16v-4h-31.92c1.391-2.491 2.467-5.099 3.918-8zm25.6 0.1992-1.199 1.602 4 3 1.199-1.602z"/></g></svg>
