<svg width="480" height="320" version="1.1" viewBox="0 0 480 320" xml:space="preserve" xmlns="http://www.w3.org/2000/svg"><defs><linearGradient id="a" x1="240" x2="240" y1="320" y2="50" gradientUnits="userSpaceOnUse"><stop stop-color="#846106" offset="0"/><stop stop-color="#db9a00" offset="1"/></linearGradient></defs><rect id="b" width="480" height="320" ry="24" fill="url(#a)"/><g transform="translate(0 -12.25)" fill="#fff"><g transform="translate(-4.583 191.5)"><path d="m162.7-52.45c-1.398 0.05888-2.85-0.1417-4.203 0.2906-0.7012 0.4902-1.443 0.8902-2.276 1.097-0.9727 0.457-2.004 0.9214-2.706 1.783-0.8595 0.8969-1.468 2.095-1.378 3.365-0.0459 1.028-0.6663 1.916-1.173 2.776-0.4614 0.7411-1.066 1.478-1.267 2.316-0.4015 0.8515-0.0876 1.647 0.5028 2.388 0.8087 1.178 0.9908 2.755 0.447 4.08-0.6098 2.011-1.878 3.757-3.27 5.302-0.9078 0.8841-1.845 1.764-2.917 2.444-0.2883 0.7664 0.9302 1.656-0.0778 2.299-0.9974 0.9747-2.272 1.616-3.502 2.242-1.433 0.5762-2.903 1.041-4.398 1.433-1.097 0.07752-0.9923 1.331-1.533 2.002-0.9029 1.435-2.577 2.102-3.625 3.389 0.0512 0.9487 0.8103 1.669 1.548 2.201 1.871 1.217 3.937 2.117 6.01 2.932 2.345 0.7636 4.839 0.971 7.288 0.7316 1.144-0.04641 2.234-0.4918 3.375-0.5485 1.34 0.1609 2.639 0.5982 3.999 0.6211 1.11 0.2238 2.036-0.448 2.881-1.058 1.157-0.927 2.455-1.72 3.938-1.979 2.713-0.6469 5.526-0.3193 8.276-0.6464 1.452-0.2751 2.946-0.7459 4.427-0.4017 1.695 0.6382 2.766 2.234 4.33 3.097 1.888 1.203 4.202 0.959 6.333 1.005 2.752 0.03616 5.525-0.1816 8.187-0.9108 1.519-0.4571 3.134-1.277 3.795-2.805 0.419-1.672 0.0498-3.398-0.5074-4.989-0.5189-1.544-0.9288-3.382-2.415-4.298-0.7002-0.3857-2.533 0.8674-2.189-0.7066 0.1574-0.9897 0.9685-1.746 1.027-2.752-0.2304-0.8865-0.7366-1.689-1.541-2.17-0.9275-0.6453-1.771-1.406-2.752-1.961-1.712-0.7933-3.615-1.028-5.451-1.383-2.481-0.3883-5.07-0.7634-7.542-0.1288-1.75 0.6805-3.283 1.986-4.156 3.656-0.5051 1.092 0.4368 2.123 0.3947 3.229 0.2122 0.9826-0.4172 1.93-1.476 1.842-1.043 0.0359-2.07-0.2369-3.099 0.1392-0.9123 0.1496-1.745 0.6093-2.685 0.593-0.9823-0.02717-1.868 0.3252-2.786 0.5873-0.5724 0.206-1.358 0.1026-0.6004-0.5434 1.139-1.5 2.499-2.836 3.504-4.434 0.254-0.826 0.5981-1.648 1.34-2.171 1.641-1.278 3.808-1.875 5.078-3.605 1.596-2.122 2.391-4.745 4.123-6.772 0.903-1.345 2.303-2.198 3.517-3.224 0.8271-0.5883 0.8356-1.7 1.038-2.602 0.3716-1.064-0.6348-1.686-1.316-2.273-0.5006-0.7412-1.095-1.435-1.661-2.143-0.7847-0.4091-1.783-0.3395-2.629-0.1245-1.139 0.1699-2.033 1.091-3.18 1.193-0.098-0.8136 0.4802-1.655 0.6016-2.487 0.3675-1.21-1.289-1.337-2.103-1.406-0.9824-0.1471-1.928-0.4945-2.94-0.4627-0.867-0.03926-1.736-0.04803-2.603-0.04868z"/><path d="m257.5-31.48c-0.5151 0.03188-0.946 0.3731-1.466 0.3864-1.009 0.128-2.023-0.027-3.036-3e-3 -2.435-0.0053-4.872-0.01448-7.306 0.08219-0.6429 0.07991-1.329 0.1017-1.91 0.4161-0.5854 0.5609-1.026 1.255-1.466 1.932-0.6585 1.003-0.9032 2.218-0.8749 3.404 0.0147 0.5683-9e-3 1.156 0.1764 1.701 0.6959 0.9235 1.605 1.664 2.307 2.585 0.8675 1.041 1.311 2.348 2.1 3.439 0.467 0.5891 1.011 1.138 1.681 1.492 0.4157 0.3104 0.8592 0.7178 0.872 1.276 0.104 0.6675 0.0329 1.366 0.2546 2.011 0.2965 0.7156 0.8898 1.257 1.548 1.641 1.264 0.851 2.608 1.6 3.73 2.644 0.5188 0.4656 1.045 0.9851 1.752 1.136 0.6035 0.2071 1.25 0.08982 1.869 0.03665 0.4135-0.05744 0.6449-0.4778 0.9565-0.7173 0.6685-0.6229 1.253-1.347 2.007-1.872 0.661-0.3549 1.291-0.7664 1.982-1.066 0.7324-0.3433 1.49-0.6327 2.195-1.032 0.3003-0.09585 0.5319-0.4112 0.3452-0.604-0.2679-0.1988 0.2386-0.2263 0.0714-0.5132-0.0983-0.5035-0.5483-0.8256-0.8724-1.19-0.2869-0.299-0.6199-0.5878-0.7847-0.9686-0.1912-0.1639-0.2655-0.4292-0.2796-0.6685-0.1801-0.3327-0.2212-0.7393-0.3588-1.098-0.1367-1.201-0.2045-2.41-0.3171-3.613-0.0619-0.83-0.1671-1.655-0.3046-2.476-0.0161-0.4243-0.1574-0.8821 7.2e-4 -1.289 0.2232-0.3106 0.1887-0.7226 0.25-1.077-6e-3 -0.4477-0.4803-0.6042-0.7059-0.9289-0.2085-0.3405-0.4965-0.6304-0.7452-0.9459-0.6953-0.7892-1.397-1.573-2.032-2.413-0.4658-0.5585-0.8738-1.175-1.405-1.673-0.0687-0.04708-0.157-0.03798-0.2347-0.03453z"/><path d="m437-33.39c-1.564 0.1707-3 0.8864-4.489 1.353-3.785 1.378-7.643 2.536-11.46 3.816-1.058 0.3564-2.054 0.8693-3.155 1.092-2.022 0.5846-4.105 0.9097-6.145 1.414-0.8806 0.1664-1.322 0.9649-2.021 1.451-0.6328 0.7315-1.529 1.201-2.51 1.201-2.488 0.03533-4.898 0.775-7.228 1.586-0.9559 0.3496-2.08 0.8123-3.034 0.1938-0.942-0.2819-1.958-0.06412-2.928-0.05524-3.549 0.2448-7.081 0.7546-10.56 1.513-1.314 0.3455-2.935 0.5159-3.677 1.817-1.335 2.734-1.006 5.862-1.654 8.767-0.1468 0.8631-0.487 1.684-0.6179 2.548 0.4759 0.8723 1.503 1.345 2.302 1.913 1.929 1.143 4.103 1.873 6.349 1.999 1.154 0.07263 2.303 0.204 3.458 0.06549 2.246-0.08317 4.388-0.8215 6.515-1.468 0.9924-0.2398 2.013-0.239 3.024-0.2031 1.009 0.00917 1.448-0.9474 1.821-1.716 1.29-2.066 3.506-3.325 5.689-4.259 1.559-0.6729 3.24-0.9843 4.819-1.595 0.9118-0.4507 1.768-1.023 2.603-1.59 0.597-0.2881 1.133-0.5611 1.718-0.9044 0.992-0.3593 1.949-0.822 2.951-1.168 2.461-0.9001 4.873-1.945 7.166-3.218 0.7911-0.3804 1.212-1.453 2.084-1.58 0.7139 0.01747 1.468-0.3747 2.176-0.6269 0.6227-0.4075 1.817-0.5037 1.769-1.474 0.3046-0.6644-0.166-2.151 0.9575-2.031 0.4937 0.01831 1.285-0.01664 1.498 0.05574 0.7454-0.1231 1.749 0.1576 2.532-0.2203 0.6492 0.5672 1.484-0.3547 1.931-0.8446 0.632-0.657 1.014-0.9288 1.615-1.534 0.787-0.3336 1.306-1.105 2.043-1.548 0.7233-0.3979 1.379-0.9314 1.969-1.486 0.2668-0.9837-1.294-0.6582-1.903-0.8322-0.9432 0.0354-1.42-0.7928-1.97-1.403-0.2039-0.9612-1.146-0.7968-1.912-0.8882-0.5687-0.1043-1.155-0.1214-1.731-0.1401z"/><path d="m366.6-45.57c-1.693 0.06555-3.372 0.3473-5.04 0.6319-1.105 0.2892-2.256 0.2962-3.386 0.2501-1.239 0.2286-2.443 0.6254-3.694 0.795-0.867 0.2538-1.794 0.2228-2.69 0.3113-1.689 0.02861-3.386-0.07678-5.055-0.3348-1.163-0.2837-2.383-0.187-3.561-0.3937-1.603-0.1516-3.223-0.1995-4.816-0.4151-0.7434 0.01221-1.628-0.08489-2.425-0.1492-2.463-0.06851-5.071-0.325-7.386 0.7084-1.296 0.4992-2.37 1.536-3.794 1.689-0.7061 0.1511-1.88 0.2313-1.667 1.262-0.0584 0.9203-0.4055 1.779-0.668 2.649-0.2732 0.9478 0.7033 1.566 1.222 2.201 0.5968 0.675 1.34 1.419 1.376 2.371-0.0547 0.6921-0.475 1.362-0.277 2.036-0.0868 0.7831 1.341 0.4901 1.891 0.6873 1.71 0.2554 3.444 0.3008 5.153 0.5592 0.9217 0.1797 1.84 0.3964 2.712 0.7433 0.8779 0.2577 1.811 0.1916 2.659-0.158 1.707-0.5768 3.401-1.203 5.138-1.683 2.216-0.4269 4.46-0.8252 6.724-0.7828 1.55 0.02426 3.248 0.3317 4.334 1.536 0.5522 0.834 0.4709 2.009-0.2572 2.715-0.33 0.5506 0.0808 1.004 0.0164 1.32-0.1619 0.675 0.1537 1.228 0.3215 1.996 0.3715 1.474 0.7698 3.093 0.2527 4.58-0.4604 1.189-1.853 1.436-2.952 1.681-1.649 0.3412-3.32 0.603-4.999 0.7437-2.275 0.08224-4.535-0.2381-6.782-0.5507-2.591-0.3368-5.2-0.721-7.82-0.5973-2.266 0.2823-4.427 1.082-6.567 1.845-0.9102 0.3425-1.822 0.689-2.687 1.138-0.1414 0.8587-0.0654 1.737-0.1788 2.594-0.2972 0.6369-1.18 1.483-0.3283 2.085 0.9503 0.7462 2.324 0.7145 3.147 1.645 0.4111 0.7359 0.9653 1.389 1.723 1.79 1.488 0.8861 3.156 1.419 4.786 1.98 1.921 0.6347 3.939 1.007 5.967 0.894 1.342 0.02661 2.646-0.3189 3.876-0.833 0.7967-0.1984 1.729-0.9839 2.519-0.4467 0.69 0.481 1.627 0.1633 2.418 0.2126 1.889-0.1122 3.769-0.3568 5.663-0.417 5.194-0.27 10.39 0.2091 15.59 0.03758 1.475-0.03078 2.973-0.05421 4.383-0.5451 1.097-0.2895 2.194-0.7723 2.869-1.73 0.6649-1 1.198-2.116 1.371-3.313 0.1882-1.021 0.2136-2.143-0.3879-3.043-0.6795-1.308-1.782-2.318-2.504-3.598-0.6747-0.9614-1.119-2.077-1.185-3.256-0.0779-1.364 0.091-2.74 0.3581-4.077 0.5191-1.92 1.174-3.807 1.963-5.633 0.1397-0.8102 0.4805-1.624 1.201-2.082 0.6169-0.5846 1.251-1.162 1.776-1.833 0.1404-0.7559 0.2632-1.589 0.08-2.342-0.2027-0.7493-0.5564-1.461-0.894-2.153-1.022-1.175-1.883-2.565-3.303-3.315-1.88-1.092-3.98-2.003-6.179-2.006z"/><path d="m396.2-50.49c-1.013 0.024-2.038 0.03103-3.022 0.3067-1.939 0.4925-3.873 1.023-5.851 1.338-1.425 0.2512-2.885 0.4783-4.2 1.111-0.4137 0.2132-0.7996 0.4775-1.215 0.6994-0.7477 0.4278-1.583 0.7442-2.205 1.358-0.2311 0.3522-0.2198 0.7507-0.1461 1.068 3.8e-4 0.7859 0.0617 1.595-0.1529 2.359-0.2599 0.4493-0.1954 0.9751-0.1716 1.471 0.0346 1.018 0.4306 2.041 1.147 2.773 0.7216 0.6431 1.508 1.21 2.337 1.708 0.564 0.4125 1.223 0.7886 1.521 1.453 0.256 0.3232 0.4309 0.7917 0.8649 0.9064 0.4246 0.1982 0.8833 0.2671 1.349 0.3082 0.8858 0.1339 1.777 0.2416 2.659 0.3938 1.021 0.2148 2.07 0.2761 3.089 0.5076 0.883 0.1506 1.737 0.4235 2.623 0.5539 1.755 0.2931 3.508 0.6304 5.288 0.737 1.82 0.1525 3.65 0.08724 5.473 0.01698 0.6663-0.06957 1.336-0.1644 1.978-0.353 0.7531-0.1144 1.46-0.4889 2.04-0.9763 0.872-0.823 1.634-1.782 2.18-2.852 0.1595-0.4136 0.2164-0.83 0.3447-1.251 0.1128-0.5178 0.5762-0.8886 0.6359-1.414 0.2673-0.4491 0.1758-1.058-0.3654-1.244-0.4179-0.1731-0.6595-0.6143-0.5847-1.059-0.0839-0.5272 0.2297-0.9437 0.4507-1.386 0.2023-0.5985 0.7594-1.022 0.8449-1.674 0.1181-0.4753 8e-3 -0.9852-0.324-1.35-0.2942-0.3512-0.5902-0.7148-0.9554-0.9931-0.3993-0.2586-0.7048-0.6588-1.148-0.8595-0.352-0.3308-0.8066-0.5144-1.185-0.8-0.3772-0.2239-0.8196-0.3531-1.242-0.4784-0.8023-0.3666-1.676-0.5307-2.533-0.7196-0.4972-0.09541-0.968-0.2272-1.461-0.3283-0.3849-0.0757-0.7549-0.1826-1.152-0.2585-0.4436-0.2053-0.9591-0.1229-1.409-0.3382-0.4706-0.07222-0.8712-0.358-1.344-0.4335-1.364-0.288-2.77-0.3296-4.16-0.3019z"/><path d="m283.3-52.9c-1.055-0.1302-1.728 0.7774-2.624 1.114-1.053 0.4204-2.114 0.8948-3.251 1.081-1.203 0.3117-2.431 0.5587-3.602 0.9763-0.3858 0.2609-1.171 0.4463-1.101 1.027 1e-5 0.8722 0.0492 1.752 0.0188 2.62-0.4844 1.547-1.369 2.932-2.249 4.276-0.5349 1.079-0.3575 2.352-0.8384 3.449-0.7604 0.5426-1.663 0.8651-2.318 1.556-0.6435 0.708-0.6581 1.795-0.8026 2.714-0.2985 0.8027-1.295 0.8917-2.003 1.15-0.9216 0.4401-2.138 0.6615-2.602 1.683 0.4006 0.8151 0.7861 1.614 1.84 1.638 1.85 0.1374 3.738 0.3991 5.574-0.0098 0.933 0.1774-0.2245 1.612-0.4137 2.152-0.2877 0.997 0.2932 1.873 1.158 2.331 1.139 0.8746 2.683 1.013 4.035 0.6434 1.285-0.4119 2.408-1.192 3.327-2.17 1.259-1.211 2.453-2.491 3.748-3.663 0.6998-0.5795 1.505-1.094 2.278-1.63 0.8237-0.557 1.633-1.187 2.561-1.546 0.7539 0.01497 1.74-0.1733 2.153 0.6345 0.2037 1.191 0.0687 2.418 0.1298 3.623 0.1925 1.019-0.4306 1.837-0.7992 2.711-0.2142 1.037 0.5454 1.89 0.5533 2.9 0.1039 1.064-0.6477 1.959-1.267 2.742-0.8196 0.8251-1.775 1.47-2.756 2.087-1.807 1.137-3.355 2.627-4.702 4.275-1.446 1.754-3.15 3.303-4.34 5.257-0.6458 0.8862-1.179 1.846-1.878 2.691-0.2543 0.4079-0.1671 1.381 0.7266 1.53 1.499 0.509 3.104 0.6097 4.669 0.7855 1.943 0.154 3.9 0.2506 5.847 0.1586 1.765-0.2568 3.34-1.242 4.69-2.356 0.2615-0.1288 1.575-0.5061 2.174-0.796 1.272-0.5999 2.34-1.543 3.457-2.382 1.51-1.267 2.969-2.644 4.022-4.325 1.013-1.305 2.541-2.043 3.81-3.062 0.8438-0.691 1.867-1.32 2.301-2.361 0.2382-1.193-0.4516-2.529 0.3487-3.597 0.4567-0.9104 1.259-1.53 1.922-2.271 0.688-0.8893-0.421-1.883-0.0347-2.847 0.2863-1.027-0.1475-2.058-0.04-3.087 0.2399-1.002 1.159-1.732 2.091-2.052 0.8686-0.2927 1.825-0.1216 2.727-0.2482 1.875-0.2134 3.762-0.3099 5.651-0.3474 0.9906 0.01641 2.367-0.04352 1.997-1.398-0.0615-0.8135-0.8771-1.094-1.516-1.587-0.6688-0.6018-1.584-0.8358-2.263-1.417-0.0897-0.953 1.399-1.323 1.893-2.068 0.8631-0.7436 1.872-1.395 2.361-2.468-0.315-0.5306-1.384-0.2306-1.988-0.41-2.922-0.1021-5.87 0.0989-8.769-0.3542-1.014-0.3444-2.107-0.3283-3.156-0.1833-1.867 0.4814-3.824 0.351-5.732 0.2881-1.295-0.1563-2.604-0.1493-3.898-0.2867-0.7831-0.5036 0.919-1.274 1.006-1.905-0.3461-1.285-0.6014-2.611-1.113-3.842-0.4723-1.088-1.788-1.292-2.845-1.295-1.157-0.06357-2.312-0.2674-3.382-0.7215-1.508-0.459-2.987-1.064-4.573-1.205-0.7265-0.1555-1.478-0.1775-2.214-0.2011z"/><path d="m69.3-54.16c1.144 0.8475 2.712 0.9018 3.741 1.931 1.008 1.052 2.451 1.083 3.775 1.358 1.534 0.3393 3.287 2.252 1.752 3.643-0.2887 1.738 2.107 1.984 3.376 1.968 3.486 0.03404 6.975-0.06674 10.45-0.3208 5.3-0.04562 10.59-0.4753 15.89-0.4719 0.9314-0.03048 2.241 0.4377 2.219 0.777-9e-3 0.0929-0.2023 0.5673 0.4864 0.6543-1.149 0.4864-2.446 0.7338-3.661 1.136-1.704 0.05587-2.073 1.814-0.5526 2.554 1.378 0.993 0.0937 1.84-0.8691 2.456-1.224 0.4268-1.333 1.967 0.1595 1.93 2.538 0.7272 5.167 1.169 7.814 1.012 1.031-0.09235 2.06-0.02571 3.035 0.336 2.712-0.04627 5.44 0.1369 8.137-0.1858 2.219-0.3185 4.481-0.0815 6.717-0.2027 3.203-0.1084 6.422-0.1637 9.616 0.1206 1.051-0.0025 3.211 0.5053 1.666 1.735-1.012 1.489 0.8808 2.383 1.517 3.461 0.8229 1.201-0.8872 2.147-1.915 2.288-1.399 0.307-2.876 0.3583-4.249 0.7938-1.115 0.8115-2.43 1.218-3.812 1.146-5.047 0.2527-10.12 0.1693-15.15 0.6363-2.505 0.4814-5.066 0.5739-7.576 0.991-2.576 0.4655-5.166 1.2-7.809 1.001-2.045-0.7756-4.057-1.669-6.043-2.598-1.348-0.7786-2.992-0.5244-4.153 0.4852-0.8606 0.7426-2.166 1.619-1.986 2.894 0.611 1.358 0.5772 2.693-0.1348 3.994-0.1541 1.364-0.5107 2.723-1.566 3.687-1.771 2.023-4.406 2.914-6.527 4.489-1.938 1.411-4.176 2.336-6.063 3.819-2.65 1.802-5.729 2.974-8.879 3.529-2.381 0.3474-4.804 0.4225-7.204 0.3099-0.1626-1.22 1.572-1.758 1.799-2.956-0.06125-1.265-1.841 0.346-2.521 0.5696-2.268 1.076-4.797 1.421-7.097 2.425-1.062 0.6695-2.07-0.0732-1.421-1.286 0.4559-1.677 1.529-3.214 3.164-3.913 2.309-1.225 4.548-2.66 6.222-4.705 0.9487-1.289 2.43-1.964 3.575-3.033 1.022-0.7672 0.7839-2.697 2.207-2.881 1.507-0.0021 2.814-0.8004 3.388-2.208 0.7225-1.22 1.752-2.371 1.956-3.811-0.1935-1.878-1.366-3.459-1.882-5.249-0.2877-0.6899-0.5836-2.403-1.564-2.056-1.08 0.8681-1.612 2.236-2.458 3.315-0.8286 1.153-1.41 2.511-2.43 3.509-1.39 1.194-3.368 0.6571-5.021 1.052-1.378 0.2073-2.298 1.467-3.613 1.819-1.541-0.2403-2.805-1.464-4.412-1.562-2.258-0.3202-4.563-0.05129-6.815-0.3391 0.04369-1.026 0.2322-1.511 0.6888-2.415 1.316-1.884 2.576-3.812 4.129-5.518 1.267-1.42 1.947-3.261 2.024-5.153 0.4196-1.556 2.339-2.506 2.119-4.291-0.4423-2.841 1.327-5.389 1.322-8.199-0.1898-1.556 1.096-2.483 2.327-3.096 2.432-1.228 4.825-2.805 7.586-3.115 1.646 6e-3 3.181 0.8648 4.524 1.743z"/><path d="m96.73-56.53c-1.126 0.04434-2.26 0.07071-3.373 0.2496-1.251 0.2277-2.421 0.7751-3.453 1.51-0.455 0.2896-0.8902 0.6053-1.308 0.9451-0.4136 0.2925-1.006 0.6109-0.9333 1.206 0.03388 0.4459-0.0247 0.9476 0.2396 1.312 0.2636 0.4346 0.4626 0.9076 0.791 1.299 0.7454 0.9143 1.792 1.7 3.014 1.743 0.6273 0.08341 1.259 0.08796 1.892 0.08603 3.584 0.01042 7.173 0.02293 10.75-0.02782 0.6348 0.123 0.8017-0.4554 0.778-0.9644 0.2346-1.519 0.2934-3.075 0.0567-4.598-0.0453-0.5531-0.3885-1.046-0.9008-1.263-0.9866-0.4734-2.013-0.8659-3.043-1.234-1.157-0.3152-2.361-0.2626-3.548-0.2768-0.3222 5.81e-4 -0.6445 0.0057-0.9664 0.01276z"/><path d="m230.6-57.26c-1.364-0.01102-2.706 0.3624-3.86 1.082-1.333 0.7-2.702 1.35-4.191 1.644-1.486 0.425-3.009 0.6911-4.507 1.056-1.093 0.2702-1.933 1.218-2.452 2.166 0.4404 0.1628 0.3565 1.181 0.7584 1.492 0.6696 1.187 1.852 2.12 2.433 3.414 0.1675 0.6018 1.191 1.691 0.7516 2.072-2.644 8.8e-4 -5.323 0.4242-7.934-0.178-1.342-0.3395-2.744-0.7623-4.128-0.3771-1.528 0.2907-3.076 0.493-4.638 0.415-1.109 0.0238-1.734 1.209-2.876 1.213-1.018 0.1589-2.226 0.2511-2.931 1.096-0.7211 0.7597-1.19 1.756-2.174 2.235-0.6502 0.5662-1.89 1.36-1.265 2.356 0.6666 0.9401 0.5011 2.323 1.583 3.01 1.186 0.9095 2.545 1.611 3.935 2.156 2.107 0.3864 4.272 0.1744 6.397 0.3453 0.8029 1.072-0.6921 2.171-1.754 2.258-0.941 0.4188-0.251 1.872-0.9106 2.642-0.2875 0.6148-0.555 1.51 0.0471 1.902 0.6364 0.6935 1.191 1.748 0.8328 2.735-0.4992 1.376-1.567 2.448-2.461 3.577-1.173 1.327-2.24 2.771-2.976 4.385-0.3065 0.9656-0.5096 2.199 0.3282 2.967 0.7302 0.9259 1.876 1.307 2.967 1.564 0.7333 0.7913 0.8677 2.025 1.628 2.846 0.795 1.004 2.001 1.737 3.262 1.941 1.747-0.00237 2.774-1.622 3.75-2.837 1.204-1.535 2.13-3.255 3.161-4.902 1.498-2.069 3.074-4.098 4.346-6.317 0.4735-1.049 0.5341-2.411 1.632-3.061 1.25 0.7803 1.703 2.301 2.316 3.561 0.4756 1.118 0.5519 2.324 0.2416 3.491-0.2737 1.026 0.3388 1.702 0.7333 2.476-0.0589 1.206-0.3646 2.381-0.3638 3.603-0.4492 0.9436-0.7711 1.922-0.6488 2.957-0.2496 0.7685 0.3381 1.568 0.922 2.089 0.8374 0.5625 1.789 1.671 2.883 1.044 0.9953-0.5466 1.472-1.586 1.208-2.695 0.0189-0.9787-0.5164-2.178-0.1012-3.026 0.8857 0.7188 0.2333 2.199 1.202 2.943 0.792 0.8901 2.139 0.6694 3.211 0.8238 1.162 0.02855 2.383 0.168 3.498-0.2239 1.229-0.8599 1.579-2.428 2.312-3.664 0.5207-1.128 1.237-2.167 1.628-3.346-0.5438-0.7575-1.231-1.769-0.724-2.768 0.5007-1.515 1.306-2.937 2.499-4.013 0.7072-1.073-0.7757-1.705-0.4872-2.742 0.2981-1.041-0.451-1.818-0.617-2.773 0.0658-1.114 1.059-1.979 0.8666-3.154 0.2281-1.043-0.6985-1.422-0.4652-2.473 0.239-1.299 0.7461-2.737 1.907-3.481 1.322-0.4613 2.771-0.2428 4.15-0.3184 3.305-0.0034 6.615-0.06814 9.912 0.2109 1.089-0.0444 2.442 0.545 3.195-0.554 1.959-1.829 3.965-3.636 5.645-5.732 0.8198-1.155-0.7291-2.278-1.754-2.537-0.5978-0.3106-1.005-0.9519-1.487-1.456-0.6905-0.9076-1.972-0.8667-2.952-1.286-2.175-0.5373-4.39-0.9111-6.528-1.595-1.044-0.2736-2.202-0.6184-3.218-0.05885-1.833 0.7853-3.861 0.8603-5.801 1.21-0.7874 0.1522-2.906 0.2216-1.774-1.042 0.8964-0.728 1.324-1.887 0.7229-2.948-0.2817-1.629-1.693-2.653-2.93-3.575-1.314-0.9501-2.771-1.756-3.79-3.053-1.004-0.8077-2.383-0.6904-3.593-0.8027-0.1886-9.26e-4 -0.3908 7.35e-4 -0.5684 0.01001z"/><path d="m114.4-57.53c-1.667-0.0054-3.387 0.1347-4.909 0.8712-0.7911 0.3008-1.346 0.9667-1.913 1.563-0.3692 0.3775-0.2966 0.9633-0.2552 1.445 0.1824 1.035 0.8066 1.931 1.463 2.726 0.6037 0.7452 1.561 1.074 2.471 1.259 0.6508 0.112 1.314 0.1549 1.97 0.2035 1.676-0.04128 3.347-0.183 5.023-0.2233 0.6599-0.02885 1.32-0.1042 1.969-0.223 0.8323-0.246 1.579-0.8114 2.025-1.557 0.136-0.3227 0.0407-0.6657 0.0444-1.058 0.0202-0.4894 7e-3 -1.065-0.4052-1.403-0.1826-0.5348-0.6567-0.9071-1.037-1.304-0.8002-0.7758-1.822-1.267-2.836-1.699-0.8504-0.3491-1.76-0.5179-2.676-0.5664-0.3107-0.0203-0.6223-0.03282-0.9335-0.03455z"/><path d="m257.5-60.48c-1.611-0.01903-3.161 0.4666-4.71 0.8417-1.437 0.368-2.893 0.7106-4.236 1.356-0.799 0.3589-1.551 0.8113-2.336 1.199-0.3541 0.1882-0.6784 0.4251-1.023 0.6281-0.2469 0.1999-0.5196 0.4204-0.6242 0.7299 0.2948 0.262-0.2866 0.3162-0.0797 0.5964 0.2379 0.7667 0.8106 1.362 1.19 2.057 0.4663 0.7421 0.5653 1.625 0.815 2.447 0.1464 0.4684 0.4718 0.8625 0.8164 1.201 0.348 0.1662 0.7625 0.1017 1.139 0.1367 1.085 0.0497 2.168 0.1636 3.236 0.3669 0.416 0.07433 0.8176 0.2137 1.242 0.2455 1.388 0.2602 2.502 1.198 3.806 1.68 0.7686 0.06249 1.544 0.0083 2.313-0.03446 0.4301-0.05112 0.8605-0.1 1.293-0.1148 0.2576-0.19 0.6099-0.2007 0.9265-0.2611 0.704-0.1769 1.421-0.2856 2.141-0.3752 0.8826-0.1522 1.731-0.4634 2.55-0.8195 0.3074-0.1721 0.6603-0.2436 0.9292-0.4836 0.3505-0.2214 0.5866-0.5854 0.9651-0.7643 0.7241-0.5724 1.362-1.248 1.99-1.922 0.4946-0.5613 0.8872-1.232 1.02-1.976 0.1242-0.7141 0.2113-1.522-0.1904-2.168-0.1456-0.3039-0.2906-0.626-0.5211-0.8819-0.2264-0.3973-0.5915-0.7-0.9047-1.03-0.5692-0.5712-1.215-1.057-1.816-1.592-0.3494-0.2622-0.7583-0.4255-1.172-0.5524-0.3544-0.1348-0.7602-0.06616-1.113-0.2232-0.2-0.1148-0.3623-0.1161-0.5622-0.01712-0.9329-0.02433-1.866-0.09104-2.794-0.2007-1.429-0.04243-2.863-0.0693-4.29-0.0689z"/></g><g transform="translate(2.543 12.71)"><g transform="translate(0 .2496)"><path d="m53.11 188.3v5a5.5 5.5 45 0 0 5.5 5.5h10a4.5 4.5 135 0 0 4.5-4.5v-1a4.5 4.5 45 0 0-4.5-4.5h-4.5a1.5 1.5 135 0 0-1.5 1.5v1a1.5 1.5 45 0 0 1.5 1.5h4.2a0.8 0.8 45 0 1 0.8 0.8v0.4a0.8 0.8 135 0 1-0.8 0.8h-7.7a2.5 2.5 45 0 1-2.5-2.5v-3a2.5 2.5 135 0 1 2.5-2.5h10.5a1.5 1.5 135 0 0 1.5-1.5v-1a1.5 1.5 45 0 0-1.5-1.5h-12.5a5.5 5.5 135 0 0-5.5 5.5z"/><path d="m95.11 188.3v5a5.5 5.5 135 0 1-5.5 5.5h-10a4.5 4.5 45 0 1-4.5-4.5v-1a4.5 4.5 135 0 1 4.5-4.5h8a1.5 1.5 45 0 1 1.5 1.5v1a1.5 1.5 135 0 1-1.5 1.5h-7.699a0.8 0.8 135 0 0-0.8 0.8v0.4a0.8 0.8 45 0 0 0.8 0.8h7.7a2.5 2.5 135 0 0 2.5-2.5v-3a2.5 2.5 45 0 0-2.5-2.5h-10.5a1.5 1.5 45 0 1-1.5-1.5v-1a1.5 1.5 135 0 1 1.5-1.5h12.5a5.5 5.5 45 0 1 5.5 5.5z"/><path d="m97.11 183.8v13.5a1.5 1.5 45 0 0 1.5 1.5h2a1.5 1.5 135 0 0 1.5-1.5v-8.5a2 2 135 0 1 2-2h2a2 2 45 0 1 2 2v8.5a1.5 1.5 45 0 0 1.5 1.5h2a1.5 1.5 135 0 0 1.5-1.5v-8.5a2 2 135 0 1 2-2h2a2 2 45 0 1 2 2v8.5a1.5 1.5 45 0 0 1.5 1.5h2a1.5 1.5 135 0 0 1.5-1.5v-10.5a4 4 45 0 0-4-4h-22a1 1 135 0 0-1 1z"/><path d="m126.1 193.3v-5a5.5 5.5 135 0 1 5.5-5.5h10a4.5 4.5 45 0 1 4.5 4.5v1a4.5 4.5 135 0 1-4.5 4.5h-8a1.5 1.5 45 0 1-1.5-1.5v-1a1.5 1.5 135 0 1 1.5-1.5h7.699a0.8 0.8 135 0 0 0.8-0.8v-0.4a0.8 0.8 45 0 0-0.8-0.8h-7.7a2.5 2.5 135 0 0-2.5 2.5v3a2.5 2.5 45 0 0 2.5 2.5h10.6a1.5 1.5 45 0 1 1.5 1.5v1a1.5 1.5 135 0 1-1.5 1.5h-12.6a5.5 5.5 45 0 1-5.5-5.5z"/></g><g transform="translate(-.1348)"><path d="m152.2 187.3v10a1.5 1.5 45 0 0 1.5 1.5h2a1.5 1.5 135 0 0 1.5-1.5v-8.5a2 2 135 0 1 2-2h5.5a1 1 45 0 1 1 1v2a1 1 135 0 1-1 1h-5a1.5 1.5 135 0 0-1.5 1.5v1a1.5 1.5 45 0 0 1.5 1.5h6a4.5 4.5 135 0 0 4.5-4.5v-3a4.5 4.5 45 0 0-4.5-4.5h-9a4.5 4.5 135 0 0-4.5 4.5z"/><path d="m172.2 187.3v7a4.5 4.5 45 0 0 4.5 4.5h12a4.5 4.5 135 0 0 4.5-4.5v-7a4.5 4.5 45 0 0-4.5-4.5h-12a4.5 4.5 135 0 0-4.5 4.5zm7.5-0.5h6a2.5 2.5 45 0 1 2.5 2.5v3a2.5 2.5 135 0 1-2.5 2.5h-6a2.5 2.5 45 0 1-2.5-2.5v-3a2.5 2.5 135 0 1 2.5-2.5z"/><path d="m198.8 182.8c-2.727-0.0961-4.746 2.53-4.5 5.107v6.393c-0.0962 2.727 2.53 4.746 5.107 4.5h10.89a1 1 135 0 0 1-1v-2a1 1 45 0 0-1-1h-8.5c-1.72 0.0628-2.655-1.64-2.5-3.154 0.0344-1.04-0.0937-2.093 0.1224-3.119 0.3772-1.371 1.818-1.817 3.078-1.727h7.8a1 1 135 0 0 1-1v-2a1 1 45 0 0-1-1z"/><path d="m213.3 181.3a1 1 0 0 0-1 1v15.5a1 1 0 0 0 1 1h3a1 1 0 0 0 1-1v-15.5a1 1 0 0 0-1-1zm13.7 2.5a1.57 1.57 0 0 0-1.422 0.9062l-2.842 6.094h-3.432a1 1 0 0 0-1 1v2a1 1 0 0 0 1 1h3.432l1.443 3.094a1.57 1.57 0 0 0 1.422 0.9062h3.5a0.9557 0.9557 0 0 0 0.8672-1.359l-1.951-4.188a1.073 1.073 0 0 1 0-0.9062l3.35-7.188a0.9557 0.9557 0 0 0-0.8672-1.359z"/><path d="m232.4 193.3v-5a5.5 5.5 135 0 1 5.5-5.5h10a4.5 4.5 45 0 1 4.5 4.5v1a4.5 4.5 135 0 1-4.5 4.5h-8a1.5 1.5 45 0 1-1.5-1.5v-1a1.5 1.5 135 0 1 1.5-1.5h7.699a0.8 0.8 135 0 0 0.8-0.8v-0.4a0.8 0.8 45 0 0-0.8-0.8h-7.7a2.5 2.5 135 0 0-2.5 2.5v3a2.5 2.5 45 0 0 2.5 2.5h10.6a1.5 1.5 45 0 1 1.5 1.5v1a1.5 1.5 135 0 1-1.5 1.5h-12.6a5.5 5.5 45 0 1-5.5-5.5z"/><path d="m253.4 182.3v12.5a4 4 45 0 0 4 4h4.5a1 1 135 0 0 1-1v-2a1 1 45 0 0-1-1h-2.5a1 1 45 0 1-1-1v-6.5h3.5a1 1 135 0 0 1-1v-2a1 1 45 0 0-1-1h-3.5v-1a1 1 45 0 0-1-1h-3a1 1 135 0 0-1 1z"/></g><g transform="translate(-1.193)"><path d="m274.5 182.8c-2.727-0.0961-4.746 2.53-4.5 5.107v6.393c-0.0962 2.727 2.53 4.746 5.107 4.5h10.89a1 1 135 0 0 1-1v-2a1 1 45 0 0-1-1h-8.5c-1.72 0.0628-2.655-1.64-2.5-3.154 0.0344-1.04-0.0937-2.093 0.1224-3.119 0.3772-1.371 1.818-1.817 3.078-1.727h7.8a1 1 135 0 0 1-1v-2a1 1 45 0 0-1-1z"/><path d="m288 187.3v7a4.5 4.5 45 0 0 4.5 4.5h12a4.5 4.5 135 0 0 4.5-4.5v-7a4.5 4.5 45 0 0-4.5-4.5h-12a4.5 4.5 135 0 0-4.5 4.5zm7.5-0.5h6a2.5 2.5 45 0 1 2.5 2.5v3a2.5 2.5 135 0 1-2.5 2.5h-6a2.5 2.5 45 0 1-2.5-2.5v-3a2.5 2.5 135 0 1 2.5-2.5z"/><path d="m310 183.8v13.5a1.5 1.5 45 0 0 1.5 1.5h2a1.5 1.5 135 0 0 1.5-1.5v-8.5a2 2 135 0 1 2-2h2a2 2 45 0 1 2 2v8.5a1.5 1.5 45 0 0 1.5 1.5h2a1.5 1.5 135 0 0 1.5-1.5v-8.5a2 2 135 0 1 2-2h2a2 2 45 0 1 2 2v8.5a1.5 1.5 45 0 0 1.5 1.5h2a1.5 1.5 135 0 0 1.5-1.5v-10.5a4 4 45 0 0-4-4h-22a1 1 135 0 0-1 1z"/><path d="m339 187.3v12.5a1 1 45 0 0 1 1h3a1 1 135 0 0 1-1v-9.5a3 3 135 0 1 3-3h5a3 3 45 0 1 3 3v1.5a3 3 135 0 1-3 3h-6a1 1 135 0 0-1 1v2a1 1 45 0 0 1 1h9a4.5 4.5 135 0 0 4.5-4.5v-7a4.5 4.5 45 0 0-4.5-4.5h-11.5a4.5 4.5 135 0 0-4.5 4.5z"/><path d="m392 193.3v-5a5.5 5.5 135 0 1 5.5-5.5h10a4.5 4.5 45 0 1 4.5 4.5v1a4.5 4.5 135 0 1-4.5 4.5h-8a1.5 1.5 45 0 1-1.5-1.5v-1a1.5 1.5 135 0 1 1.5-1.5h7.699a0.8 0.8 135 0 0 0.8-0.8v-0.4a0.8 0.8 45 0 0-0.8-0.8h-7.7a2.5 2.5 135 0 0-2.5 2.5v3a2.5 2.5 45 0 0 2.5 2.5h10.6a1.5 1.5 45 0 1 1.5 1.5v1a1.5 1.5 135 0 1-1.5 1.5h-12.6a5.5 5.5 45 0 1-5.5-5.5z"/><path d="m381.5 182.3v12.5a4 4 45 0 0 4 4h4.5a1 1 135 0 0 1-1v-2a1 1 45 0 0-1-1h-2.5a1 1 45 0 1-1-1v-6.5h3.5a1 1 135 0 0 1-1v-2a1 1 45 0 0-1-1h-3.5v-1a1 1 45 0 0-1-1h-3a1 1 135 0 0-1 1z"/><path d="m361.5 184.3v10a4.5 4.5 45 0 0 4.5 4.5h10a4.5 4.5 135 0 0 4.5-4.5v-10a1.5 1.5 45 0 0-1.5-1.5h-2a1.5 1.5 135 0 0-1.5 1.5v8.5a2 2 135 0 1-2 2h-5a2 2 45 0 1-2-2v-8.5a1.5 1.5 45 0 0-1.5-1.5h-2a1.5 1.5 135 0 0-1.5 1.5z"/><path d="m413 187.8v9.5a1.5 1.5 45 0 0 1.5 1.5h2a1.5 1.5 135 0 0 1.5-1.5v-7.5a3 3 135 0 1 3-3h0.5a1.5 1.5 135 0 0 1.5-1.5v-1a1.5 1.5 45 0 0-1.5-1.5h-3.5a5 5 135 0 0-5 5z"/></g></g></g></svg>
