<svg width="480" height="320" version="1.1" viewBox="0 0 480 320" xml:space="preserve" xmlns="http://www.w3.org/2000/svg" xmlns:xlink="http://www.w3.org/1999/xlink"><defs><linearGradient id="a" x1="277.8" x2="128.3" y1="461.1" y2="-96.7" gradientUnits="userSpaceOnUse"><stop stop-color="#570f0f" offset="0"/><stop stop-color="#f53d4c" offset="1"/></linearGradient></defs><rect id="b" width="480" height="320" ry="24" fill="url(#a)"/><path d="m421.5 135c-10.24 0-18.54 8.301-18.54 18.54 0 0.2037 5e-3 0.4073 0.0117 0.6094v30.16h11.13v-24.95l3.197 12.22c6e-3 1e-3 0.0117 3e-3 0.0176 4e-3l0.0254 0.0996 13.31 13.31 7.875-7.875-7.627-7.621c5.461-3.227 9.127-9.171 9.127-15.97 0.0104-10.23-8.291-18.53-18.53-18.53zm-358.2 1.426c-12.84 0-23.26 10.42-23.26 23.26 0 12.84 10.42 23.26 23.26 23.26 12.84 0 23.26-10.42 23.26-23.26 0-1.74-0.1862-3.428-0.5508-5.053h-3.561v-4e-3h-23.58v11.14h14.92c-2.099 3.612-6.001 6.045-10.48 6.045-6.698 0-12.13-5.427-12.13-12.12s5.429-12.12 12.13-12.12c3.927 0 7.394 1.874 9.613 4.76l7.918-7.916c-4.261-4.886-10.53-7.98-17.53-7.98zm116.8 0.8027v38.1c0 4.958 4.02 8.979 8.979 8.979h14.38v-11.13h-12.22v-6.822h12.22v-11.14h-12.22v-6.83h12.22v-11.14h-12.22v-0.0137zm193.9 0v38.1c0 4.958 4.022 8.979 8.98 8.979h14.38v-11.13h-12.22v-6.83h12.22v-11.13h-12.22v-6.832h12.22v-11.13h-12.22v-8e-3zm-267.7 8e-3c-7.384 0-14.77 4.924-14.76 14.77h-0.0098v32.3h11.13v-12.98h7.271v12.98h11.13v-32.3c0-9.849-7.385-14.77-14.77-14.77zm32.3 0c-5.894 0-11.78 4.767-11.97 14.29h-0.01v32.78h11.13v-32.3c0-4.844 7.262-4.844 7.262 0v32.3h11.13v-32.3h0.0117c0-4.844 7.26-4.844 7.26 0v32.3h11.13v-32.78h-8e-3c-0.385-19.06-23.57-19.06-23.95 0h-0.0195c-0.1925-9.528-6.081-14.29-11.97-14.29zm93.29 0c-5.895 0-11.79 4.767-11.97 14.29h-0.0195v32.78h11.14v-32.3h0.01c0-4.844 7.26-4.844 7.26 0v32.3h11.14v-32.3h0.01c0-4.761 7.01-4.839 7.25-0.2402v32.54h11.14v-32.3h0.01c0-19.54-23.57-19.69-23.96-0.4785h-0.0195c-0.1926-9.528-6.084-14.29-11.98-14.29zm56.27 0c-7.383 0-14.77 4.924-14.77 14.77v32.3h11.14v-12.97h7.26v12.97h11.14v-32.3c0-9.849-7.383-14.77-14.77-14.77zm45.38 2e-3c-6.511 0-12.07 4.709-13.14 11.14l-3.426 20.66c-0.3958 2.385-2.46 4.146-4.887 4.146h-4.938v11.13h7.293c6.511 0 12.07-4.708 13.13-11.13l3.428-20.66c0.3958-2.385 2.458-4.146 4.885-4.146h4.199v-11.14zm10.78 4e-3v11.14h7.178v35.93h11.13v-35.93h7.168v-11.14zm77.15 8.883c4.094 0 7.406 3.312 7.406 7.406 0 4.094-3.312 7.406-7.406 7.406-4.016 0-7.29-3.206-7.396-7.207v-0.1894h-0.01v-0.01c0-4.083 3.312-7.406 7.406-7.406zm-315.2 2.252c1.815 0 3.631 1.211 3.631 3.633v8.189h-7.271v-8.189h0.01c0-2.422 1.816-3.633 3.631-3.633zm181.8 0c1.815 0 3.629 1.211 3.629 3.633v8.193h-7.26v-8.193c0-2.422 1.816-3.633 3.631-3.633z" fill="#fff"/></svg>
