<svg width="480" height="320" version="1.1" viewBox="0 0 127 84.667" xmlns="http://www.w3.org/2000/svg" xmlns:xlink="http://www.w3.org/1999/xlink">
 <defs>
  <linearGradient id="a" x1="34.237" x2="34.237" y2="84.667" gradientUnits="userSpaceOnUse">
   <stop stop-color="#f9c440" offset="0"/>
   <stop stop-color="#cd3e30" offset=".40829"/>
   <stop stop-color="#7a0000" offset="1"/>
  </linearGradient>
 </defs>
 <g>
  <rect width="127" height="84.667" ry="4.2333" fill="url(#a)" stroke-linecap="square" stroke-linejoin="round" stroke-width=".52917" style="paint-order:stroke fill markers"/>
  <path d="m33.377 13.229c-0.03063 2e-3 -1.1086-0.0024-2.2299 0.55594-0.55948 0.27969-1.1316 0.70737-1.5612 1.3528-0.37947 0.5683-0.62809 1.3123-0.68372 2.2282h-0.02344v50.031c2e-3 0.03383-0.0017 1.0052 0.56356 2.0166 0.28298 0.50414 0.71574 1.0174 1.3592 1.3985 0.64294 0.38153 1.4889 0.62573 2.5754 0.6251h60.694c0.0304-2e-3 0.9962 2e-3 2.0057-0.49792 0.50356-0.25071 1.0202-0.63456 1.4079-1.2147 0.38873-0.57934 0.63862-1.3486 0.63742-2.3275v-49.664c-0.0017-0.02781 0.0028-1.1005-0.49206-2.2179-0.24848-0.55758-0.62759-1.1306-1.2092-1.5661-0.58039-0.43654-1.3607-0.72136-2.3498-0.71976h-58.237zm-0.01759 0.73354h60.711c0.85308 0.0016 1.4545 0.23392 1.9105 0.57323 0.68142 0.50736 1.0439 1.2994 1.2256 1.9826 0.09083 0.34011 0.13662 0.64884 0.15943 0.87011 0.0114 0.11044 0.01701 0.19896 0.01962 0.25878l0.0023 0.06711 3e-4 0.01846v49.664c-0.0011 0.8577-0.21144 1.4661-0.51374 1.9199-0.45195 0.67802-1.144 1.0292-1.7434 1.2086-0.2981 0.08925-0.56909 0.1343-0.76255 0.1565-0.09683 0.01118-0.17414 0.0164-0.22596 0.01905l-0.05744 0.0023-0.01469 3.01e-4h-60.693c-0.97922-5.38e-4 -1.6825-0.21573-2.2015-0.52278-0.77564-0.45999-1.1639-1.1464-1.3648-1.7387-0.09949-0.2947-0.1496-0.56262-0.17437-0.75347-0.01235-0.09527-0.0185-0.17134-0.02139-0.22214l-0.0026-0.05627-2.93e-4 -0.01231v-49.665c0.0011-0.97392 0.23967-1.6696 0.58408-2.1886 0.51524-0.77565 1.3013-1.1755 1.9791-1.3792 0.33729-0.10143 0.64352-0.15268 0.86249-0.17789 0.1095-0.0126 0.19728-0.01898 0.25614-0.02198zm8.5038 3.716c-4.298 0-7.7826 3.4832-7.7826 7.782 0 4.2974 3.4846 7.7838 7.7826 7.7838 3.4993 0 6.4584-2.3124 7.4368-5.4897 0.22367-0.72544 0.34288-1.4966 0.34288-2.2941 0-0.05742-2e-3 -0.1144-0.0044-0.17262h-7.6472v2.4667h4.7884c-0.86598 1.848-2.7421 3.1296-4.9164 3.1296-2.9976 0-5.4252-2.4286-5.4252-5.4237 0-2.9958 2.4276-5.4243 5.4252-5.4243 1.8315 0 3.4502 0.90743 4.4317 2.2991l3e-4 -3e-4h2.6944c-1.2046-2.7409-3.9412-4.6565-7.1265-4.6565zm16.035 0.15386v5.84e-4l-9.8332 14.807h3.0443l2.1004-3.1622h4.6884v3.1686h2.5362v-14.814zm13.079 0v3e-4l-9.8335 14.808h3.047l6.7865-10.223v10.229h2.5365v-0.01759l6.7812-10.211v10.229h2.5353v-14.814h-2.5353v5.84e-4l-6.7812 10.208v-10.208zm13.905 0v14.818l2.5356-0.01h5.1682v-2.5368h-5.1682v-3.4528h5.1682v-2.5356h-5.1682v-3.7462h5.1682v-2.5368zm-26.983 4.5853v4.5237h-3.0048zm4.4261 12.651c-1.6739 0-3.4069 1.1973-3.4069 3.2011 0 1.3959 0.76889 2.298 1.5321 2.9658-1.4135 1.0011-2.6443 2.0666-2.6443 4.265 0 1.2472 0.45157 2.3823 1.2704 3.2011 0.82567 0.82687 1.9786 1.2822 3.2486 1.2822 2.4042 0 3.5973-1.1634 4.5108-2.9626l2.9494 2.7261 1.5447-1.6696-3.5071-3.2401c0.81266-1.8298 2.0339-4.5806 2.0339-4.5806h-2.4878l-1.3097 2.9523-1.9503-1.8009c0.89289-0.71743 1.6769-1.6248 1.6769-3.1387 0-0.81206-0.32121-1.5798-0.9-2.1616-0.66242-0.66061-1.5947-1.0395-2.5608-1.0395zm0 2.2745c0.35752 0 0.7211 0.1432 0.95158 0.37307 0.15945 0.15885 0.23709 0.33913 0.23709 0.5536 0 0.63861-0.30598 0.98622-1.1427 1.6048-0.73164-0.58559-1.179-0.99362-1.179-1.6048 0-0.22727 0.07829-0.41794 0.23914-0.57939 0.21447-0.21507 0.55834-0.34728 0.89384-0.34728zm-0.09583 5.4237 2.8544 2.6373-0.04513 0.10257c-0.78466 1.7484-1.3422 2.2012-2.7135 2.2012-0.67342 0-1.2393-0.21328-1.6414-0.61221-0.39533-0.39673-0.60312-0.94794-0.60312-1.5951 0-1.1954 0.61427-1.6689 2.1268-2.717zm14.246 8.5305c-4.2926 0-7.7726 3.4803-7.7726 7.7729 0 4.2919 3.48 7.7741 7.7726 7.7741 3.0086 0 5.6169-1.7161 6.9087-4.2169h-2.9555c-0.97412 1.0824-2.3826 1.7613-3.9531 1.7613-2.9396 0-5.3217-2.3814-5.3217-5.3185 0-2.9384 2.3822-5.32 5.3217-5.32 1.5455 0 2.9381 0.6948 3.9086 1.7625h2.9714c-1.2986-2.4702-3.8928-4.2154-6.88-4.2154zm-42.238 0.50964v14.816h2.5373v-9.24e-4l6.7783-10.211v10.212h2.5362v-9.07e-4l9.8338-14.808h-3.0455l-6.7882 10.221v-10.228h-2.5362v0.01963l-6.7783 10.208v-10.228zm23.285 0-9.8326 14.808h3.0441l2.1004-3.1619h4.6881v3.1692h2.5373v-14.816zm3.5285 0v2.5356h2.8717v12.278h2.5368v-12.278h2.87v-2.5356zm22.962 0v14.813h2.5356v-6.3105h4.5791v6.3105h2.5368v-14.813h-2.5368v5.9647h-4.5791v-5.9647zm-26.49 4.5879v4.5229h-3.0051zm35.198 10.886v0.33058h0.56063v1.5351h0.38684v-1.5351h0.5618v-0.33058zm1.7352 0v1.8656h0.36076v-1.2622c0-0.0354 2.8e-5 -0.08712-5.67e-4 -0.15269 0-0.06486-0.0017-0.11504-0.0017-0.15122l0.35138 1.5661h0.38099l0.35314-1.5661c0 0.03618-0.0017 0.08636-0.0023 0.15122-0.0011 0.06557-0.0017 0.11728-0.0017 0.15269v1.2622h0.36164v-1.8656h-0.55827l-0.33849 1.4671-0.34025-1.4671z" fill="#fafafa"/>
 </g>
 <style type="text/css">.st0{fill:#FC0C18;}
	.st1{fill:#FC0C18;}</style>
</svg>
