<svg width="480" height="320" version="1.1" viewBox="0 0 480 320" xml:space="preserve" xmlns="http://www.w3.org/2000/svg"><defs><linearGradient id="a" x1="58.769" x2="71.208" y2="103.75" gradientTransform="scale(3.7795)" gradientUnits="userSpaceOnUse"><stop stop-color="#68b723" offset="0"/><stop stop-color="#206b00" offset="1"/></linearGradient></defs><rect width="480" height="320" ry="24" fill="url(#a)"/><path d="m85.078 124.44c-11.084-0.10944-20.086 3.7561-26.812 7.918-13.295 8.2521-19.703 20.797-17.994 37.885 1.9797 19.818 27.632 32.29 49.377 19.734 0.21923-0.12648 0.3039-0.18896 0.45898-0.28516l-2.0312 4.6094h14.586l9.1582-20.338h16.15l3.5742 20.338h23.725l12.117-38.031 7.7734 38.031h9.3144l18.172-42.062 1.875 42.062h13.963l-2.9492-67.996h-16.775l-15.816 37.248-6.8242-37.248h-13.816l-17.859 54.961-9.168-54.961h-17.234l-26.057 59.129 3.8848-24.641h-25.945l-1.9883 12.721h10.836l-1.2402 6.8359c-6.2099 2.4798-16.765 1.5522-21.256-6.5332-2.8445-5.1159-5.4907-16.536 6.5332-27.008 9.7838-8.5439 26.695-10.085 36.479-5.584 0 0 1.24-7.1474 2.1777-13.826-5.8804-2.0383-11.349-2.9092-16.387-2.959zm280.91 1.8496c-13.5 0.22906-26.276 11.721-30.078 28.168-4.3449 18.807 4.7108 36.937 20.184 40.5 15.473 3.5634 31.538-8.7516 35.883-27.559 4.3345-18.786-4.688-36.916-20.182-40.5-1.9341-0.44543-3.878-0.6421-5.8066-0.60937zm-135.56 0.01562-10.846 67.996h38.969l2.3242-14.588h-24.393l1.9492-12.117h21.203l2.334-14.598h-21.434l1.8555-12.096h24.371l2.3223-14.598h-38.656zm154.78 0 16.451 35.852-5.0625 32.145h13.971l4.293-28.414 25.143-39.582h-16.285l-13.816 22.203-8.7109-22.203h-15.982zm-76.111 0.32813c-8.3385-0.01885-18.526 0.05503-18.748 0.05664l-10.793 67.477h31.424c12.951 0 31.862-19.079 14.639-34.666 17.723-18.338 0.15803-32.654-9.2402-32.811-1.8885-0.03387-4.4714-0.05029-7.2812-0.05664zm57.322 12.906c1.456-0.03583 2.9 0.24202 4.2852 0.86328 7.3977 3.3029 10.336 15.16 6.5644 26.465-3.7718 11.315-12.817 17.806-20.215 14.492-7.3873-3.3029-10.315-15.16-6.5644-26.465 3.0731-9.1853 9.6203-15.2 15.93-15.355zm-64.035 1.4883h9.0859c9.8567 0 7.8553 12.639-1.543 12.639h-9.6992l2.1562-12.639zm-179.07 6.5527 2.5625 13.191v0.00976h-8.4609l5.8984-13.201zm174.74 19.934h11.701c11.086 0 10.794 13.564-1.543 13.564h-12.336l2.1777-13.564z" fill="#fff"/></svg>
