<svg width="480" height="320" version="1.1" viewBox="0 0 127 84.667" xmlns="http://www.w3.org/2000/svg">
 <defs>
  <linearGradient id="a" x1="58.769" x2="71.208" y2="103.75" gradientUnits="userSpaceOnUse">
   <stop stop-color="#68b723" offset="0"/>
   <stop stop-color="#206b00" offset="1"/>
  </linearGradient>
 </defs>
 <rect width="127" height="84.667" ry="4.2333" fill="url(#a)" stroke-linecap="square" stroke-linejoin="round" stroke-width=".52917" style="paint-order:stroke fill markers"/>
 <g fill="#d1ff82" fill-opacity=".5">
  <g stroke-width="1.9634" aria-label="2">
   <path d="m11.471 71.438h35.189l0.56077-3.2525h-30.142l0.02804-0.30843 18.59-17.973c10.907-10.486 14.468-15.113 15.505-21.506 1.458-8.6359-4.0656-15.169-13.178-15.169-9.3649 0-17.272 6.8414-18.73 15.73h3.3927c1.2057-7.0097 7.4022-12.505 14.917-12.505 7.1779 0 11.412 4.9348 10.234 11.944-0.89724 5.5797-4.2619 9.7294-13.823 18.954l-22.095 21.422z" fill="#d1ff82" fill-opacity=".5"/>
  </g>
  <g stroke-width=".32899" aria-label="players">
   <path d="m56.274 71.438h1.4829l0.84739-5.0594h0.12462c0.243 0.52339 0.6667 1.6699 2.5173 1.6699 2.3864 0 4.3803-1.9191 4.885-4.9597 0.49224-3.0157-0.85362-4.9348-3.265-4.9348-1.8755 0-2.6481 1.1465-3.0406 1.6449h-0.17446l0.24923-1.5203h-1.4206zm2.8537-8.3742c0.3427-2.1434 1.539-3.589 3.3397-3.589 1.863 0 2.511 1.5702 2.1932 3.589-0.35516 2.0437-1.5515 3.6637-3.3896 3.6637-1.7758 0-2.4986-1.4954-2.1434-3.6637z"/>
   <path d="m71.165 55.088h-1.4705l-2.1185 12.761h1.4705z"/>
   <path d="m74.53 68.073c1.6699 0 2.6917-0.89724 3.0905-1.5203h0.07477l-0.22431 1.296h1.4705l1.0468-6.3056c0.49847-3.0406-1.7446-3.3896-2.9659-3.3896-1.4456 0-3.1902 0.49847-4.212 2.2431l1.296 0.49847c0.44862-0.69785 1.3957-1.4456 2.7914-1.4456 1.3459 0 1.8443 0.72278 1.6449 1.944v0.04985c-0.12462 0.69785-0.84739 0.64801-2.6169 0.87232-1.8194 0.22431-3.8133 0.62308-4.1871 2.8163-0.29908 1.8692 0.97201 2.9409 2.7914 2.9409zm0.4237-1.3209c-1.1714 0-1.9191-0.52339-1.7446-1.5452 0.17446-1.1215 1.2711-1.4705 2.4425-1.62 0.62308-0.07477 2.3179-0.24923 2.6169-0.54831l-0.22431 1.3459c-0.19939 1.1963-1.3459 2.3677-3.0905 2.3677z"/>
   <path d="m81.645 71.438c1.296 0 2.3677-0.67293 3.1902-2.2057l5.8694-10.954h-1.6574l-3.913 7.6515h-0.09969l-1.3708-7.6515h-1.5328l1.9191 9.5705-0.41123 0.7477c-0.79755 1.4518-1.4206 1.6449-2.4425 1.3708l-0.59816 1.296c0.13708 0.07477 0.54831 0.17446 1.0468 0.17446z"/>
   <path d="m94.693 68.048c1.9502 0 3.5204-0.97201 4.212-2.4176l-1.3459-0.39877c-0.54208 0.99693-1.4642 1.4954-2.6419 1.4954-1.8443 0-2.8288-0.82247-2.4736-3.1653h6.9598l0.09969-0.62308c0.60439-3.564-1.3147-4.7853-3.3148-4.7853-2.5858 0-4.6544 2.0437-5.1342 4.9847-0.49224 2.9409 0.87855 4.9099 3.6388 4.9099zm-2.0437-5.7573c0.29285-1.3583 1.7072-2.8163 3.3148-2.8163 1.6013 0 2.4238 1.1963 2.1434 2.8163z"/>
   <path d="m100.95 67.849h1.4705l0.99693-6.0564c0.22431-1.296 1.3957-2.2431 2.7914-2.2431 0.39877 0 0.79754 0.07477 0.89724 0.09969l0.24923-1.4954c-0.17446-0.02492-0.54831-0.02492-0.77262-0.02492-1.1465 0-2.268 0.64801-2.7665 1.5951h-0.0997l0.24923-1.4456h-1.4206z"/>
   <path d="m115.53 60.421c-0.24923-1.3708-1.1216-2.268-3.0157-2.268-2.0188 0-3.7136 1.1465-3.9877 2.7665-0.22431 1.3209 0.42369 2.1932 2.1185 2.6169l1.5203 0.37385c0.94708 0.22431 1.3209 0.67293 1.1963 1.3459-0.12462 0.82247-1.1216 1.4954-2.4923 1.4954-1.1963 0-1.8692-0.52339-1.944-1.5452l-1.4705 0.34893c0.0748 1.62 1.2711 2.4923 3.24 2.4923 2.2182 0 3.9379-1.2212 4.212-2.8662 0.22431-1.3459-0.47354-2.1683-2.1185-2.592l-1.3708-0.34893c-1.0717-0.27416-1.5203-0.67293-1.3957-1.3957 0.12462-0.82247 1.0966-1.4206 2.268-1.4206 1.296 0 1.6948 0.69785 1.8443 1.3708z"/>
  </g>
 </g>
 <path transform="matrix(.26458 0 0 .26458 -.00025 0)" d="m84.43 124.98c-10.906-0.103-19.77 3.6958-26.387 7.7969-13.173 8.0602-19.495 20.453-17.754 37.283 1.9529 19.494 27.199 31.815 48.609 19.387 0.24854-0.1065 0.35532-0.21256 0.56836-0.24805l-2.0586 4.5449h14.381l9.0547-20.062h15.906l3.4805 20.062h23.434l11.932-37.463 9.8008 37.463h9.1602l15.73-41.473 6.2129 41.721h13.742l-5.0078-67.25-16.541-0.00195-15.803 36.75-6.9941-36.75h-13.6l-19.354 54.15-9.0547-54.15h-16.973l-25.707 58.375 3.834-24.393h-25.529l-2.0254 12.568h10.725l-1.2422 6.7109c-6.1073 2.521-16.478 1.5632-20.916-6.3906-2.8051-5.0421-5.4315-16.263 6.3926-26.596 9.6582-8.4153 26.346-9.942 35.969-5.5391 0 0 1.2077-7.0655 2.1309-13.6-5.7812-1.9973-11.16-2.8497-16.117-2.8965zm301.53 1.2988 16.262 35.33-5.041 31.637h13.812l4.1895-27.979 24.82-38.988h-16.121l-13.564 21.838-8.5918-21.838h-15.766zm-19.189 0.46485c-13.325 0.22233-25.948 11.544-29.707 27.73-4.2254 18.535 4.6533 36.396 19.887 39.947 15.268 3.4798 31.105-8.6639 35.436-27.164 4.2254-18.535-4.687-36.395-19.885-39.91-1.9085-0.43941-3.8269-0.63527-5.7305-0.60351zm-135.84 0.3164-10.688 66.967h38.383l2.3086-14.344h-24.004l1.8828-11.967h20.914l2.2715-14.381h-21.09l1.8105-11.895h24.037l2.2734-14.381h-38.1zm78.305 0.41602c-8.1619-0.01474-18.158 0.04308-18.479 0.04492l-10.652 66.506h30.998c12.783 0 31.425-18.784 14.416-34.123 17.399-18.073 0.14257-32.169-9.125-32.383-1.8553-0.02663-4.3936-0.03993-7.1582-0.04492zm57.92 12.309c1.4304-0.0348 2.8468 0.23587 4.2051 0.8418 7.2792 3.2668 10.226 14.948 6.498 26.098-3.6929 11.078-12.641 17.54-19.92 14.238-7.2436-3.2312-10.191-14.913-6.4629-26.062 3.0292-9.0878 9.4813-14.964 15.68-15.115zm-64.574 1.9043h8.9473c9.7292 0 7.7421 12.428-1.5254 12.428h-9.5176l2.0957-12.428zm-180.48 6.0371 2.5566 12.996h-8.3789l5.8223-12.996zm176.22 20.098h11.506c10.972 0 10.651 13.35-1.4922 13.35h-12.143l2.1289-13.35z" fill="#fff"/>
 <style type="text/css">.st0{fill:#FC0C18;}
	.st1{fill:#FC0C18;}</style>
 <style type="text/css">.st0{fill:#FC0C18;}
	.st1{fill:#FC0C18;}</style>
 <style type="text/css">.st0{fill:#FC0C18;}
	.st1{fill:#FC0C18;}</style>
</svg>
