<?xml version="1.0" encoding="UTF-8" standalone="no"?>
<!-- Created with Inkscape (http://www.inkscape.org/) -->

<svg
   width="480"
   height="320"
   viewBox="0 0 127 84.666667"
   version="1.1"
   id="svg1543"
   inkscape:export-filename="/home/vitor/Dev/es-theme-material-tv-3-2/assets/logo/gba.png"
   inkscape:export-xdpi="96"
   inkscape:export-ydpi="96"
   inkscape:version="1.1.1 (3bf5ae0d25, 2021-09-20)"
   sodipodi:docname="gba.svg"
   xmlns:inkscape="http://www.inkscape.org/namespaces/inkscape"
   xmlns:sodipodi="http://sodipodi.sourceforge.net/DTD/sodipodi-0.dtd"
   xmlns:xlink="http://www.w3.org/1999/xlink"
   xmlns="http://www.w3.org/2000/svg"
   xmlns:svg="http://www.w3.org/2000/svg">
  <sodipodi:namedview
     id="namedview1545"
     pagecolor="#505050"
     bordercolor="#eeeeee"
     borderopacity="1"
     inkscape:pageshadow="0"
     inkscape:pageopacity="0"
     inkscape:pagecheckerboard="0"
     inkscape:document-units="px"
     showgrid="false"
     units="px"
     width="640px"
     inkscape:snap-page="true"
     showguides="true"
     inkscape:guide-bbox="true"
     inkscape:zoom="0.79107571"
     inkscape:cx="-84.694801"
     inkscape:cy="144.10757"
     inkscape:window-width="1920"
     inkscape:window-height="1019"
     inkscape:window-x="0"
     inkscape:window-y="30"
     inkscape:window-maximized="1"
     inkscape:current-layer="layer1">
    <sodipodi:guide
       position="10.583333,76.729167"
       orientation="-1,0"
       id="guide2978"
       inkscape:label=""
       inkscape:locked="false"
       inkscape:color="rgb(0,0,255)" />
    <sodipodi:guide
       position="116.41667,7.9375"
       orientation="-1,0"
       id="guide2980"
       inkscape:label=""
       inkscape:locked="false"
       inkscape:color="rgb(0,0,255)" />
    <sodipodi:guide
       position="10.583333,76.729167"
       orientation="0,-1"
       id="guide2982" />
    <sodipodi:guide
       position="116.41667,7.9375"
       orientation="0,-1"
       id="guide2984" />
  </sodipodi:namedview>
  <defs
     id="defs1540">
    <linearGradient
       inkscape:collect="always"
       id="linearGradient2856">
      <stop
         style="stop-color:#a56de2;stop-opacity:1"
         offset="0"
         id="stop2852" />
      <stop
         style="stop-color:#452981;stop-opacity:1"
         offset="1"
         id="stop2854" />
    </linearGradient>
    <linearGradient
       inkscape:collect="always"
       xlink:href="#linearGradient2856"
       id="linearGradient2858"
       x1="130.78307"
       y1="-41.36763"
       x2="71.208481"
       y2="84.666664"
       gradientUnits="userSpaceOnUse" />
    <clipPath
       id="clip1">
      <path
         d="m 249,0 h 75 v 124.51172 h -75 z m 0,0"
         id="path2" />
    </clipPath>
    <clipPath
       id="clip2">
      <path
         d="m 421,0 h 90 v 124.51172 h -90 z m 0,0"
         id="path5" />
    </clipPath>
    <clipPath
       id="clip3">
      <path
         d="m 513,0 h 28 v 124.51172 h -28 z m 0,0"
         id="path8" />
    </clipPath>
    <clipPath
       id="clip4">
      <path
         d="m 659,4 h 86.87109 V 124 H 659 Z m 0,0"
         id="path11" />
    </clipPath>
  </defs>
  <g
     inkscape:label="Camada 1"
     inkscape:groupmode="layer"
     id="layer1">
    <rect
       style="opacity:1;fill:url(#linearGradient2858);fill-opacity:1;stroke-width:0.529167;stroke-linecap:square;stroke-linejoin:round;paint-order:stroke fill markers"
       id="rect1569"
       width="127"
       height="84.666664"
       x="0"
       y="0"
       ry="4.2333331"
       inkscape:export-filename="/home/vitor/Dev/es-theme-material-tv-3-2/assets/logo/fbn.png"
       inkscape:export-xdpi="96"
       inkscape:export-ydpi="96" />
    <path
       style="fill:#ffffff;fill-opacity:1;stroke-width:0.128127"
       d="m 10.583333,60.806898 c 0,-0.05742 0.229,-0.449109 0.508888,-0.870418 0.279888,-0.421308 0.510518,-0.838087 0.51251,-0.926174 0.002,-0.08809 0.05203,-0.16016 0.111183,-0.16016 0.05916,0 0.174225,-0.146311 0.255703,-0.325135 0.08148,-0.178825 0.209329,-0.39504 0.284113,-0.480478 0.270608,-0.30916 1.658919,-2.53097 1.658919,-2.65488 0,-0.0699 0.05766,-0.12708 0.128127,-0.12708 0.07047,0 0.128127,-0.0589 0.128127,-0.13087 0,-0.11205 0.494824,-0.93979 0.802602,-1.34259 0.209614,-0.27434 0.734929,-1.10359 0.734929,-1.16015 0,-0.0328 0.201801,-0.3468 0.448446,-0.6977 0.246646,-0.35091 0.448447,-0.66228 0.448447,-0.69194 0,-0.0704 1.352285,-2.14432 1.529481,-2.34568 0.0749,-0.0851 0.136176,-0.18654 0.136176,-0.2254 0,-0.0388 0.317116,-0.56221 0.704702,-1.16302 0.716141,-1.11011 0.813272,-1.3397 0.566763,-1.3397 -0.07587,0 -0.638025,-0.21399 -1.249243,-0.47553 -2.367558,-1.01308 -4.107671,-2.56302 -5.07622,-4.52144 -0.191683,-0.38759 -0.400817,-0.80387 -0.464745,-0.92508 -0.06393,-0.1212 -0.238183,-0.78325 -0.387234,-1.47121 -0.215262,-0.99355 -0.256887,-1.51484 -0.202372,-2.53436 0.08255,-1.54375 0.393407,-3.49969 0.586976,-3.69326 0.07701,-0.077 0.140017,-0.21867 0.140017,-0.31479 0,-0.2621 0.61558,-1.55688 1.037766,-2.18279 0.2044,-0.30303 0.371637,-0.59819 0.371637,-0.6559 0,-0.0577 0.475673,-0.5911 1.057052,-1.1853 1.590586,-1.62566 4.303393,-3.30564 5.861834,-3.63011 0.246646,-0.0514 0.506104,-0.13927 0.576574,-0.19536 0.07047,-0.0561 0.445243,-0.16793 0.832829,-0.24855 2.875084,-0.59796 4.965141,-0.47659 7.815779,0.45385 1.169106,0.38159 1.189244,0.38193 1.346988,0.0224 l 0.126479,-0.28829 4.243141,-0.0337 4.243141,-0.0338 0.07343,0.48219 c 0.04039,0.2652 0.107111,0.62632 0.148277,0.8025 0.04117,0.17618 0.130908,0.74772 0.199424,1.2701 0.130837,0.99752 0.191705,1.15985 0.361334,0.96359 0.08121,-0.094 0.913573,-2.582 1.122337,-3.35481 0.03438,-0.12726 4.176576,-0.16016 20.167349,-0.16016 20.014441,0 20.128373,0.001 20.911695,0.26533 1.241584,0.41826 1.728407,0.7165 2.612218,1.60031 0.453773,0.45377 0.872693,0.82504 0.93094,0.82504 0.05824,0 0.210252,-0.11531 0.337801,-0.25625 0.12755,-0.14095 0.303288,-0.25626 0.390533,-0.25626 0.08725,0 0.191811,-0.0865 0.232378,-0.19219 0.04058,-0.10571 0.154983,-0.19219 0.254271,-0.19219 0.09929,0 0.257288,-0.0925 0.351109,-0.20554 0.09382,-0.11305 0.288266,-0.25705 0.432102,-0.32001 0.143835,-0.063 0.348009,-0.16861 0.453714,-0.23478 0.448,-0.28044 1.149346,-0.54956 2.04214,-0.78361 0.912296,-0.23916 1.467114,-0.24985 12.972909,-0.24985 6.61092,0 12.01986,0.0326 12.01986,0.0725 0,0.10949 -0.28235,0.62328 -0.38263,0.69628 -0.0484,0.0352 -0.25233,0.35235 -0.45318,0.7047 -0.20085,0.35235 -0.60343,1.01541 -0.89463,1.47347 -0.2912,0.45805 -0.72728,1.14474 -0.96907,1.52597 -0.24179,0.38123 -0.78556,1.231 -1.20838,1.88837 -0.42282,0.65738 -0.97057,1.52232 -1.21721,1.92209 -0.7151,1.15906 -1.51524,2.39419 -1.7268,2.66556 -0.10731,0.13766 -0.19512,0.29865 -0.19512,0.35777 0,0.0591 -0.0597,0.17711 -0.13263,0.26222 -0.073,0.0851 -0.44297,0.65024 -0.82228,1.25583 -0.6514,1.04004 -0.69437,1.1608 -0.77498,2.17817 -0.0469,0.5924 -0.1629,1.53835 -0.25769,2.10211 -0.0948,0.56376 -0.20878,1.44303 -0.25329,1.95394 l -0.0809,0.92893 4.20393,0.002 c 2.31217,10e-4 4.26159,0.0443 4.33206,0.0961 0.0831,0.061 0.12813,2.96688 0.12813,8.26786 0,8.067632 -0.003,8.174535 -0.25625,8.235772 -0.55283,0.133843 -33.385804,-0.008 -33.478003,-0.144634 -0.07901,-0.117077 -0.774498,-0.671927 -2.671414,-2.131212 -0.982043,-0.755475 -1.224779,-0.945499 -1.48275,-1.16074 -0.147802,-0.123322 -0.317564,-0.224222 -0.377254,-0.224222 -0.05969,0 -0.108523,0.836296 -0.108523,1.858437 V 60.90142 L 63.863013,60.8688 50.38825,60.83618 49.993209,60.253329 c -0.48491,-0.715447 -0.613177,-0.919253 -1.064416,-1.691281 -0.195604,-0.334662 -0.384473,-0.607816 -0.419708,-0.60701 -0.03524,7.75e-4 -0.303216,0.223625 -0.595514,0.49515 -0.597306,0.554859 -1.969072,1.425036 -2.246458,1.425036 -0.10001,0 -0.236612,0.05468 -0.303559,0.12152 -0.109491,0.109309 -0.555419,0.249085 -2.171761,0.680734 -0.616433,0.16462 -32.608455,0.29165 -32.608455,0.129478 z m 15.183111,-4.134919 v -1.217216 l -1.641672,-0.0359 -1.641673,-0.0359 0.249398,-0.41252 c 0.13717,-0.22689 0.497473,-0.87379 0.800673,-1.43755 0.3032,-0.56376 0.683716,-1.25565 0.845588,-1.53753 0.161874,-0.28188 0.346093,-0.62799 0.409375,-0.76913 0.06328,-0.14114 0.314007,-0.58688 0.557168,-0.99054 l 0.442108,-0.73392 0.630155,1.11579 c 0.346585,0.61368 0.701142,1.26122 0.787902,1.43898 0.08676,0.17776 0.216275,0.40969 0.287807,0.51539 0.17247,0.25487 1.849243,3.21364 1.96051,3.45945 0.04785,0.1057 0.232432,0.422818 0.410185,0.704699 0.177754,0.281881 0.386416,0.671068 0.463695,0.864861 l 0.140504,0.35235 5.528982,-0.002 c 4.973561,-0.0018 5.647044,-0.02693 6.704255,-0.25011 2.028923,-0.428312 3.419977,-1.290611 4.166596,-2.58283 0.505744,-0.87533 0.793956,-2.27435 0.699276,-3.39441 -0.04397,-0.52018 -0.05637,-0.94578 -0.02755,-0.94578 0.02882,0 0.446099,0.66791 0.927291,1.48426 0.481191,0.81634 0.975914,1.63796 1.099384,1.82581 0.123469,0.18786 0.312469,0.51453 0.419998,0.72594 0.10753,0.21141 0.422912,0.73033 0.70085,1.15315 0.277938,0.422825 0.590378,0.941742 0.694311,1.153152 0.390817,0.794965 0.464803,0.832829 1.627322,0.832829 1.247169,0 1.04202,0.176003 2.165509,-1.857851 0.233563,-0.42282 0.472653,-0.78799 0.53131,-0.81147 0.05866,-0.0235 0.10665,-0.0959 0.10665,-0.16091 0,-0.065 0.961138,-1.77551 2.135864,-3.80111 1.174725,-2.02561 2.269521,-3.91356 2.43288,-4.19544 0.163357,-0.28188 0.297709,-0.55738 0.298557,-0.61222 9.2e-4,-0.0548 -0.78506,-0.0837 -1.746466,-0.0641 -1.398444,0.0285 -1.767914,0.0741 -1.84754,0.22784 -0.05474,0.1057 -0.362976,0.6574 -0.684966,1.226 -0.72227,1.27545 -1.560375,2.81043 -1.814102,3.32252 -0.10475,0.21141 -0.422315,0.78799 -0.705704,1.28128 -0.283387,0.49329 -0.548035,0.99779 -0.588105,1.12111 -0.09914,0.30511 -0.260399,0.28163 -0.439918,-0.0641 -0.495545,-0.95424 -4.033051,-6.96726 -4.144653,-7.04505 -0.211701,-0.14756 -3.658559,-0.11887 -3.658559,0.0304 0,0.0707 0.169516,0.40086 0.376703,0.73373 0.399482,0.64183 0.415068,0.88524 0.03034,0.47378 -0.225973,-0.24167 -0.624354,-0.45965 -1.594133,-0.87222 -0.806013,-0.3429 -2.531674,-0.46164 -6.724783,-0.46275 l -4.003985,-10e-4 v 4.68422 c 0,2.81461 -0.04699,4.65517 -0.117738,4.61144 -0.06475,-0.04 -0.338628,-0.45462 -0.608605,-0.92135 -0.269978,-0.46672 -0.591769,-1.01395 -0.715092,-1.21607 -0.123322,-0.20211 -0.325123,-0.53285 -0.448446,-0.73497 -0.123323,-0.20212 -0.454853,-0.75542 -0.736734,-1.22955 -0.28188,-0.47414 -0.598996,-0.9958 -0.704701,-1.15925 -0.105705,-0.16346 -0.592743,-0.97952 -1.082308,-1.81348 -0.489564,-0.83396 -0.936409,-1.53551 -0.992989,-1.559 -0.05658,-0.0235 -0.102871,-0.12236 -0.102871,-0.21971 0,-0.32507 -0.484698,-0.44228 -1.828985,-0.44228 h -1.333324 l -1.156033,1.95394 c -1.143428,1.93264 -1.684585,2.84318 -2.120066,3.56716 -0.488951,0.81287 -0.719439,1.20217 -1.940928,3.27824 -0.697543,1.185561 -1.353356,2.286114 -1.457364,2.445674 l -0.189105,0.290107 4.083978,-0.03386 4.083978,-0.03385 z m 10.600199,-4.437646 0.03439,-3.05781 2.498487,-0.0353 c 3.454683,-0.0489 4.239766,0.16221 4.888932,1.31441 0.377615,0.67022 0.411848,2.43064 0.06141,3.1578 -0.604565,1.25448 -1.460765,1.53593 -4.920662,1.61751 l -2.596936,0.0612 z m 27.773994,4.437646 c 0,-0.935726 -0.0432,-1.283236 -0.160159,-1.288556 -0.08809,-0.004 -0.808805,-9.2e-4 -1.601594,0.007 -1.343557,0.0131 -1.441435,-0.003 -1.441435,-0.23329 0,-0.13603 0.08425,-0.31726 0.187229,-0.40273 0.102976,-0.0855 0.224629,-0.27321 0.270337,-0.41723 0.04571,-0.14401 0.272062,-0.58565 0.503008,-0.98141 0.484805,-0.8308 1.516205,-2.70523 1.823607,-3.31416 0.256369,-0.50784 0.348897,-0.5181 0.578151,-0.0641 0.09785,0.19379 0.641387,1.15955 1.207855,2.14613 0.56647,0.98658 1.188088,2.08207 1.381377,2.43442 0.193289,0.35236 0.703573,1.26046 1.133965,2.018013 l 0.782533,1.377371 h 2.856728 2.856728 v -3.395384 c 0,-1.86745 0.03114,-3.39537 0.06915,-3.39537 0.07084,0 2.89492,2.19427 3.288044,2.55477 0.312591,0.28664 0.355201,0.32087 2.808479,2.25595 1.224673,0.965992 2.245899,1.806677 2.269385,1.86819 0.02349,0.06151 0.586247,0.111844 1.250562,0.111844 h 1.207855 l -0.03337,-5.733704 -0.03337,-5.73371 h -1.473467 -1.473462 v 3.29933 c 0,2.26092 -0.0432,3.29932 -0.137288,3.29929 -0.07551,-3e-5 -1.055686,-0.72287 -2.17817,-1.60632 -1.122484,-0.88346 -2.357995,-1.84398 -2.745584,-2.13451 -0.387583,-0.29052 -0.802832,-0.61995 -0.92277,-0.73205 -0.29321,-0.27405 -0.446256,-0.39313 -1.159302,-0.90201 -0.334731,-0.23889 -0.608606,-0.48223 -0.608606,-0.54075 0,-0.0585 -0.08362,-0.10641 -0.18582,-0.10641 -0.102204,0 -0.231937,-0.0781 -0.288291,-0.17348 -0.198707,-0.33645 -0.673123,-0.46715 -1.695631,-0.46715 h -1.033405 v 4.67665 c 0,2.57216 -0.04698,4.67665 -0.104397,4.67665 -0.05742,0 -0.202099,-0.18738 -0.321514,-0.41641 -0.119415,-0.22903 -0.331894,-0.6038 -0.472177,-0.83283 -0.140283,-0.22903 -0.35596,-0.58488 -0.479282,-0.79078 -0.123323,-0.2059 -0.598997,-0.9958 -1.057053,-1.75534 -0.458055,-0.75954 -0.920623,-1.52801 -1.027927,-1.70771 -0.107304,-0.1797 -0.453248,-0.749 -0.768765,-1.26512 -0.733921,-1.20054 -0.967236,-1.59108 -1.25735,-2.10464 l -0.235236,-0.41641 h -1.517617 -1.517616 l -0.995055,1.66566 c -0.547282,0.91611 -1.084497,1.83863 -1.193813,2.05004 -0.109317,0.21141 -0.313581,0.55735 -0.453919,0.76876 -0.140339,0.21141 -0.326673,0.52853 -0.414073,0.7047 -0.0874,0.17618 -0.191649,0.34915 -0.231659,0.38439 -0.04001,0.0352 -0.756452,1.24604 -1.592091,2.69067 -0.835639,1.44464 -1.596866,2.717645 -1.691615,2.828899 -0.09475,0.111255 -0.172271,0.240983 -0.172271,0.288287 0,0.0473 1.845036,0.08601 4.100081,0.08601 h 4.10008 z m 34.08216,0.947104 c 0.890334,-0.416918 1.152911,-1.051645 1.152911,-2.78696 v -1.36333 l -0.928925,-10e-4 c -0.510911,-6.3e-4 -1.228819,-0.0371 -1.595351,-0.0812 l -0.666427,-0.08 -0.03826,0.88196 -0.03826,0.88201 -3.171157,0.0343 -3.171153,0.0343 v -2.94917 -2.94917 h 3.203187 3.203186 v 0.75591 0.75591 l 1.601598,-0.004 1.601593,-0.004 v -1.28766 c 0,-1.98837 -0.446271,-2.67562 -1.891128,-2.91227 -0.98445,-0.16124 -8.273642,-0.15582 -9.131099,0.007 -0.708518,0.13437 -1.416291,0.57827 -1.692712,1.06164 -0.178116,0.31148 -0.314789,7.49904 -0.162068,8.5234 0.102722,0.689019 0.598363,1.265467 1.355782,1.576826 0.516097,0.212154 0.975409,0.230318 5.178911,0.204801 4.391961,-0.02666 4.640179,-0.04092 5.189404,-0.298106 z m 14.734423,-1.011168 v -1.345342 h -4.54852 -4.54853 v -1.02655 -1.02655 l 2.56824,0.0336 c 2.97631,0.0389 2.72148,0.18307 2.65892,-1.5044 l -0.038,-1.02459 -2.59459,-0.0347 -2.59458,-0.0347 v -0.76445 -0.76445 l 4.45243,-0.0337 4.45243,-0.0337 v -1.28128 -1.28127 h -6.08605 -6.08606 l -0.0334,5.73371 -0.0334,5.733703 h 6.2155 6.21551 z M 94.058415,43.489563 c 3.839235,-1.19645 6.388785,-5.55571 5.832789,-9.97297 -0.312228,-2.48054 -1.6383,-4.73368 -3.348567,-5.68956 -1.508968,-0.84338 -3.481835,-1.05497 -4.883767,-0.52379 -3.363279,1.27432 -5.51678,4.38608 -5.690901,8.22322 -0.09553,2.10527 0.223429,3.5049 1.157288,5.07828 0.916974,1.54492 1.985811,2.39946 3.60184,2.87966 1.022514,0.30384 2.366223,0.30592 3.331318,0.005 z m -2.498489,-3.15796 c -1.123206,-0.34766 -1.898615,-1.49942 -2.184867,-3.24533 -0.174451,-1.064 0.08809,-2.56669 0.685864,-3.9257 0.325569,-0.74015 0.348417,-0.77357 1.112082,-1.6266 1.046795,-1.16928 2.250151,-1.54426 3.397918,-1.05883 0.873777,0.36955 1.367671,1.03502 1.743482,2.34917 0.843317,2.94892 -0.868232,6.80619 -3.326053,7.49581 -0.407293,0.11429 -0.765579,0.20377 -0.796194,0.19886 -0.03061,-0.005 -0.315114,-0.0892 -0.632232,-0.18738 z m -67.843522,3.1403 c 0.915052,-0.12853 2.232445,-0.54629 2.687156,-0.8521 0.451707,-0.3038 0.611841,-0.21864 0.391195,0.20804 -0.107514,0.20791 -0.195482,0.40971 -0.195482,0.44845 0,0.0387 0.803319,0.0704 1.785151,0.0704 1.739157,0 1.787473,-0.007 1.875241,-0.28828 0.04955,-0.15856 0.280406,-0.69189 0.513015,-1.18518 0.232611,-0.49329 0.630098,-1.35815 0.883306,-1.92192 0.25321,-0.56376 0.508106,-1.1115 0.566438,-1.21721 0.144915,-0.2626 3.829239,-0.35605 3.924342,-0.0995 0.03336,0.09 0.113236,0.50954 0.177502,0.93236 0.06427,0.42282 0.185808,1.14354 0.270095,1.6016 0.08429,0.45805 0.209085,1.13553 0.277328,1.50549 l 0.12408,0.67267 h 2.863188 2.863187 l 0.193076,-0.54454 c 0.106191,-0.2995 0.28426,-0.83283 0.395707,-1.18518 0.851655,-2.69255 1.318423,-4.15392 1.691029,-5.29432 0.237634,-0.7273 0.432061,-1.40478 0.432061,-1.5055 0,-0.10072 0.075,-0.18313 0.166676,-0.18313 0.107422,0 0.221061,0.33023 0.319657,0.92893 0.188147,1.14246 0.401452,2.22725 0.862901,4.38836 0.195612,0.91612 0.420092,2.04044 0.498844,2.49849 l 0.143188,0.83283 1.246599,0.0367 c 0.866088,0.0255 1.246598,-0.008 1.246598,-0.10876 0,-0.08 0.09413,-0.35595 0.209178,-0.61325 0.475247,-1.06285 0.718981,-1.62366 1.901748,-4.37569 1.435138,-3.33926 1.493714,-3.4739 1.822806,-4.18975 l 0.247378,-0.5381 0.21912,4.18974 c 0.120517,2.30436 0.2176,4.52127 0.215741,4.92647 l -0.0034,0.73674 h 1.680709 1.680709 l -0.08674,-3.1071 c -0.04771,-1.7089 -0.140882,-4.20258 -0.207052,-5.54152 -0.06617,-1.33893 -0.151916,-3.38576 -0.190545,-4.54852 -0.03863,-1.16276 -0.100123,-2.36059 -0.136651,-2.66186 l -0.06642,-0.54775 -2.005261,0.0353 -2.00526,0.0353 -0.47192,1.08908 c -0.259557,0.599 -0.560577,1.29089 -0.668936,1.53753 -0.363484,0.82737 -0.579618,1.34019 -0.918016,2.17817 -0.386822,0.95789 -0.647673,1.56792 -0.904006,2.1141 -0.09922,0.21142 -0.317012,0.72221 -0.483983,1.1351 -0.352399,0.87141 -0.38409,0.83321 -0.662415,-0.79842 -0.103711,-0.60799 -0.300719,-1.71084 -0.437795,-2.45078 -0.137076,-0.73994 -0.315975,-1.72011 -0.397554,-2.17817 -0.08158,-0.45805 -0.233551,-1.25084 -0.337716,-1.76175 l -0.189389,-0.92893 h -1.589887 c -1.508118,0 -1.599491,0.0148 -1.776368,0.28829 -0.102558,0.15856 -0.227364,0.46126 -0.277347,0.67267 -0.04998,0.21141 -0.478924,1.56636 -0.953201,3.011 -0.474278,1.44463 -1.190735,3.66445 -1.592127,4.93291 -0.401393,1.26846 -0.808687,2.48787 -0.905098,2.7098 -0.09641,0.22193 -0.214242,0.61112 -0.261844,0.86486 -0.112105,0.59758 -0.283109,0.58889 -0.37639,-0.0191 -0.04054,-0.26427 -0.157082,-0.97057 -0.258975,-1.56956 -0.101894,-0.599 -0.219208,-1.31972 -0.2607,-1.6016 -0.04149,-0.28188 -0.156314,-0.94494 -0.255162,-1.47346 -0.09885,-0.52853 -0.298929,-1.71051 -0.444625,-2.62662 -0.145696,-0.91611 -0.351503,-2.15575 -0.457348,-2.75474 -0.105846,-0.599 -0.23483,-1.37738 -0.286634,-1.72972 l -0.09419,-0.64064 -1.855034,-0.0368 c -1.917288,-0.038 -2.431607,0.0121 -2.431607,0.23676 0,0.0721 -0.176022,0.51781 -0.391163,0.99055 -0.21514,0.47273 -0.44211,0.97483 -0.504379,1.11577 -0.06227,0.14094 -0.294687,0.65986 -0.516483,1.15315 -0.221796,0.49329 -0.66376,1.50229 -0.98214,2.24223 -0.31838,0.73994 -0.745971,1.70585 -0.950203,2.14648 -0.204231,0.44062 -0.37133,0.8264 -0.37133,0.85728 0,0.0309 -0.230629,0.54613 -0.51251,1.14499 -0.28188,0.59886 -0.51251,1.11992 -0.51251,1.15791 0,0.038 -0.192494,0.48836 -0.427763,1.00081 -0.23527,0.51246 -0.501723,1.11912 -0.592118,1.34815 -0.232792,0.58981 -0.374813,0.51638 -0.247802,-0.12813 0.05902,-0.2995 0.169688,-0.94814 0.245926,-1.44143 0.07624,-0.4933 0.222008,-1.39525 0.323931,-2.00434 0.101924,-0.6091 0.185316,-1.20009 0.185316,-1.31331 0,-0.18341 -0.339283,-0.20586 -3.110926,-0.20586 h -3.110926 l -0.22128,1.31331 c -0.324924,1.92843 -0.418606,1.76175 0.99015,1.76175 0.665307,0 1.240471,0.0499 1.278141,0.11082 0.03767,0.061 0.0016,0.42991 -0.08024,0.81992 -0.141821,0.67614 -0.169967,0.71261 -0.605472,0.78466 -0.251204,0.0416 -0.92158,0.0762 -1.489722,0.077 -1.597236,0.002 -2.458423,-0.52605 -3.235518,-1.98457 -0.303996,-0.57057 -0.34148,-0.78115 -0.342708,-1.92523 -0.0016,-1.42276 0.157046,-1.94713 0.919355,-3.04011 0.979801,-1.40483 2.22594,-2.22824 4.233823,-2.79758 1.313784,-0.37254 4.02226,-0.40366 4.871161,-0.056 0.687385,0.28153 0.929185,0.19429 0.929185,-0.33523 0,-0.22575 0.0917,-0.89982 0.203778,-1.49795 0.243522,-1.29958 0.3068,-1.22614 -1.420989,-1.64937 -2.47545,-0.60636 -4.990071,-0.2951 -7.559524,0.93573 -0.734064,0.35164 -0.87013,0.43353 -1.92682,1.15968 -1.011721,0.69524 -1.629638,1.32775 -2.311496,2.36608 -0.717962,1.0933 -1.019869,1.87481 -1.264478,3.27322 -0.250583,1.43257 -0.250671,2.32793 -3.46e-4,3.53837 0.320019,1.54746 1.090663,2.76424 2.378191,3.75497 1.8137,1.39561 3.851959,1.91758 6.20001,1.58775 z m 10.381663,-9.19021 c 0.237726,-0.54614 0.542578,-1.21801 0.677449,-1.49304 l 0.245222,-0.50006 0.141845,0.62818 c 0.152355,0.67473 0.405617,2.08166 0.405617,2.25331 0,0.0575 -0.42803,0.1046 -0.95118,0.1046 h -0.951179 z m 33.548175,8.8408 c 0.03489,-0.12332 0.101029,-0.54134 0.146983,-0.92892 0.04595,-0.38759 0.130829,-0.90651 0.18861,-1.15315 0.05778,-0.24665 0.140767,-0.60701 0.184412,-0.8008 l 0.07935,-0.35235 h -2.949371 c -2.72278,0 -2.949521,-0.0172 -2.951288,-0.22422 -10e-4,-0.12333 0.09985,-0.75745 0.224223,-1.40916 l 0.226137,-1.18494 0.704702,-0.014 c 0.387585,-0.008 1.501116,-0.0136 2.474511,-0.0131 1.735747,9.7e-4 1.771995,-0.005 1.883287,-0.29751 0.101537,-0.26706 0.511048,-2.76475 0.511048,-3.11698 0,-0.0967 -0.795877,-0.15194 -2.530519,-0.17575 -2.4383,-0.0335 -2.530064,-0.0441 -2.518053,-0.291 0.01399,-0.28747 0.314013,-2.21839 0.383241,-2.46645 0.03409,-0.12214 0.738489,-0.16016 2.967365,-0.16016 h 2.922669 l 0.174944,-1.05705 c 0.29461,-1.78009 0.364374,-2.33428 0.306459,-2.43442 -0.03057,-0.0529 -2.100433,-0.0961 -4.599709,-0.0961 h -4.544136 l -0.127582,0.33556 c -0.07017,0.18457 -0.183299,0.74672 -0.251399,1.24925 -0.12682,0.93583 -0.416466,2.74843 -0.657859,4.11686 -0.07459,0.42283 -0.213758,1.28769 -0.309273,1.92192 -0.09551,0.63423 -0.293006,1.90269 -0.43887,2.8188 -0.145864,0.91611 -0.350152,2.22875 -0.453972,2.91698 -0.103822,0.68822 -0.245095,1.49542 -0.313941,1.79378 -0.06885,0.29836 -0.126585,0.70103 -0.128307,0.89482 l -0.0031,0.35235 h 4.66802 c 4.336152,0 4.672531,-0.0159 4.731451,-0.22422 z m 14.577311,-0.26641 c 0.965152,-0.48449 2.084145,-1.50382 2.567753,-2.33903 0.923724,-1.5953 0.750469,-3.42355 -0.464988,-4.90686 -0.445961,-0.54423 -0.567177,-0.84802 -0.338373,-0.84802 0.141075,0 1.009356,-1.28134 1.345758,-1.98598 0.357545,-0.74891 0.347002,-2.25793 -0.02068,-2.96204 -0.338581,-0.64837 -1.52892,-1.97086 -1.773908,-1.97086 -0.09863,0 -0.179337,-0.053 -0.179337,-0.11769 0,-0.0647 -0.36369,-0.23871 -0.808203,-0.38663 -0.749109,-0.24929 -1.0463,-0.26645 -4.064392,-0.23467 l -3.256184,0.0343 -0.290887,1.85785 c -0.159985,1.02182 -0.376523,2.34794 -0.481191,2.94693 -0.104663,0.599 -0.222954,1.34855 -0.262867,1.66566 -0.0399,0.31712 -0.152736,1.06666 -0.250721,1.66566 -0.09799,0.599 -0.267293,1.63683 -0.376233,2.3063 -0.108939,0.66946 -0.310765,1.9091 -0.4485,2.75474 -0.137737,0.84564 -0.289969,1.87126 -0.338293,2.27916 l -0.08787,0.74164 4.33968,-0.0369 4.33968,-0.0369 z m -5.518073,-2.70882 c -0.0929,-0.0586 0.05066,-1.15701 0.352155,-2.69441 l 0.08795,-0.44845 h 1.797244 c 1.688756,0 1.820242,0.0181 2.17817,0.29905 0.713825,0.5604 0.855883,1.09769 0.492,1.86076 -0.377177,0.79095 -0.909748,0.97194 -2.983642,1.01401 -0.99906,0.0203 -1.864804,0.006 -1.923874,-0.031 z m 1.077627,-7.28019 c 0.04736,-0.40807 0.153923,-1.08555 0.236804,-1.5055 l 0.150692,-0.76354 1.381889,0.0202 c 1.546823,0.0227 1.914673,0.16376 2.200726,0.84408 0.320369,0.76193 -0.252658,1.71589 -1.201462,2.00016 -0.268935,0.0806 -1.021274,0.1465 -1.671869,0.1465 h -1.182891 z m 26.522723,9.87104 c 0.0423,-0.33474 0.15968,-1.12752 0.26077,-1.76176 0.10108,-0.63423 0.21892,-1.44143 0.26186,-1.79378 0.23736,-1.94795 0.46191,-2.77705 0.94832,-3.50148 0.88619,-1.31982 1.66632,-2.56234 1.81846,-2.89625 0.0824,-0.18093 0.1859,-0.32896 0.22991,-0.32896 0.044,0 0.25097,-0.31692 0.45991,-0.70426 0.20894,-0.38734 0.42314,-0.70446 0.47599,-0.7047 0.0529,-2.5e-4 0.0961,-0.0586 0.0961,-0.12974 0,-0.11507 0.46097,-0.8604 1.87494,-3.03155 0.23724,-0.36429 0.43135,-0.72465 0.43135,-0.80079 0,-0.20905 -3.66199,-0.18837 -3.84548,0.0217 -0.0769,0.0881 -0.3752,0.53493 -0.6628,0.99299 -0.2876,0.45806 -0.71701,1.13464 -0.95425,1.50353 -0.23723,0.36888 -0.43133,0.701 -0.43133,0.73804 0,0.0371 -0.18738,0.34349 -0.41642,0.681 -0.22902,0.33751 -0.47818,0.72267 -0.55369,0.85592 -0.1946,0.34343 -0.43929,0.38998 -0.43929,0.0836 0,-0.14266 -0.0513,-0.29106 -0.11394,-0.32979 -0.0627,-0.0387 -0.15361,-0.22853 -0.20211,-0.42177 -0.0485,-0.19325 -0.40084,-1.13789 -0.78296,-2.0992 -0.38213,-0.96132 -0.69478,-1.80659 -0.69478,-1.87838 0,-0.23596 -0.3834,-0.28608 -2.188645,-0.28608 -1.807119,0 -1.91109,0.0302 -1.659439,0.48222 0.06813,0.12237 0.305444,0.62609 0.527361,1.11937 0.221918,0.4933 0.604252,1.32933 0.849632,1.85785 0.245375,0.52853 0.592261,1.27808 0.770851,1.66566 1.12355,2.4384 1.35006,2.91951 1.52632,3.24189 0.16181,0.29595 0.17093,0.46474 0.0519,0.96095 -0.1359,0.56661 -0.21385,1.04782 -0.70976,4.38171 -0.11006,0.73993 -0.25591,1.54714 -0.3241,1.79378 -0.25724,0.93045 -0.31698,0.89689 1.59646,0.89689 h 1.72187 z"
       id="path5685" />
  </g>
  <style
     type="text/css"
     id="style3952">
	.st0{fill:#FC0C18;}
	.st1{fill:#FC0C18;}
</style>
</svg>
