<svg width="480" height="320" version="1.1" viewBox="0 0 480 320" xml:space="preserve" xmlns="http://www.w3.org/2000/svg"><defs><linearGradient id="a" x1="130.78" x2="71.208" y1="-41.368" y2="84.667" gradientTransform="scale(3.7795)" gradientUnits="userSpaceOnUse"><stop stop-color="#a56de2" offset="0"/><stop stop-color="#452981" offset="1"/></linearGradient></defs><rect width="480" height="320" ry="24" fill="url(#a)"/><path d="m85.074 90.787c-11.073-0.10636-20.068 3.7639-26.787 7.9258-13.316 8.2417-19.724 20.798-18.016 37.875 1.9797 19.818 27.631 32.289 49.355 19.713 0.19797-0.11461 0.35608-0.20766 0.50195-0.29101l-2.043 4.6367h14.588l9.1582-20.34h16.139l3.5742 20.34h23.756l12.107-38.031 7.7734 38.031h9.3144l18.15-42.064 1.8555 42.064h13.973l-2.9394-67.986h-16.775l-15.826 37.248-6.8359-37.248h-13.816l-17.848 54.961-9.1582-54.961h-17.234l-26.09 59.213 3.8965-24.756h-25.924l-1.9785 12.742h10.836l-1.2402 6.8242c-6.2099 2.4798-16.764 1.5431-21.266-6.5215-2.8445-5.1159-5.4914-16.536 6.5117-27.018 9.7734-8.5439 26.705-10.087 36.479-5.5859 0 0 1.24-7.148 2.1777-13.816-5.8739-2.0383-11.336-2.9067-16.369-2.9551zm280.9 1.8438c-13.507 0.22408-26.282 11.725-30.074 28.172-4.3449 18.797 4.6991 36.926 20.172 40.5 15.473 3.5738 31.55-8.7536 35.885-27.561 4.3449-18.776-4.6887-36.926-20.172-40.5-1.9354-0.44673-3.881-0.64334-5.8106-0.61133zm-135.54 0.029297-10.867 67.986h38.957l2.334-14.588h-24.381l1.9375-12.107h21.203l2.3242-14.586h-21.422l1.8652-12.119h24.371l2.3223-14.586h-38.645zm154.76 0 16.453 35.852-5.0527 32.135h13.971l4.293-28.404 25.143-39.582h-16.307l-13.805 22.193-8.7012-22.193h-15.994zm-76.084 0.33203c-8.3425-0.017405-18.554 0.051338-18.764 0.052734l-10.783 67.465h31.426c12.941 0 31.862-19.068 14.639-34.645 17.723-18.338 0.15608-32.664-9.2422-32.82-1.8859-0.031258-4.4661-0.046875-7.2754-0.052734zm57.295 12.896c1.4565-0.036 2.9 0.23812 4.2852 0.85742 7.3978 3.3029 10.336 15.16 6.5645 26.465-3.7718 11.315-12.815 17.807-20.213 14.494-7.3873-3.3029-10.327-15.149-6.5547-26.465 3.0561-9.1938 9.6066-15.196 15.918-15.352zm-64.045 1.4727h9.0859c9.8671 0 7.867 12.639-1.5312 12.639h-9.7109l2.1563-12.639zm-179.04 6.5644 2.5625 13.191h-8.4609l5.8984-13.191zm174.74 19.932h11.711c11.086 0 10.773 13.566-1.5527 13.566h-12.324l2.166-13.566zm-192.04 47.637v39.543l-23.402-38.812-0.40625-0.67773h-12.086l-0.40625 0.6875-26.633 44.855-1.25 2.1055h10.461v0.01953h23.268v-10.533h-13.682l13.701-24.705 19.35 34.52 0.39648 0.70899h15.598l-0.02148-0.04102h23.953c20.651 0 31.135-8.0656 31.135-23.986 0-2.7611-0.3553-5.3132-1.043-7.6367l18.744 30.945 0.40625 0.66601h9.1289l0.39453-0.69726 26.018-44.855 1.2188-2.0938h-14.607l-0.39648 0.71875-16.754 30.414-17.766-30.445-0.40625-0.69922h-15.701l1.291 2.127 3.0215 4.9805c-4.845-4.6053-12.263-7.1074-21.922-7.1074h-31.602zm159.06 0.01172v39.572l-23.443-38.875-0.41797-0.67773h-12.086l-0.39648 0.67773-26.631 44.867-1.25 2.1133h14.201l0.03125-0.05078h19.535v-10.535h-13.689l13.68-24.652 19.35 34.52 0.39453 0.71875h15.598l-0.00977-0.03125h7.877v-28.736l35.697 28.436 0.38477 0.30078h9.377v-47.646h-11.199-1.4082v28.34l-35.82-28.049-0.375-0.29102h-9.3984zm75.436 0.00976c-9.8046 0-13.107 3.0316-13.107 12.023v23.611c0 8.9606 3.3028 12.002 13.107 12.002h27.934c9.815 0 13.129-3.0309 13.129-12.002v-6.6894l-1.3965-0.00977-10.992-0.02148h-1.3965v7.3359h-26.621v-25.164h26.621v6.6172l1.3965 0.00977 10.992 0.04296h1.4082v-5.7422c0-9.0961-3.2006-12.014-13.141-12.014h-27.934zm45.543 0v47.637h51.451v-11.105h-1.3965-36.26v-8.3574h21.643v-10.512h-21.643v-6.877h37.135v-10.785h-50.93zm-266.25 10.795h17.922c9.69 0 14.201 3.9178 14.201 12.326 0 10.013-4.9084 13.41-19.412 13.41h-12.711v-25.736z" fill="#fff"/></svg>
