<svg width="480" height="320" version="1.1" viewBox="0 0 480 320" xml:space="preserve" xmlns="http://www.w3.org/2000/svg"><defs><linearGradient id="a" x1="130.8" x2="71.21" y1="-41.37" y2="84.67" gradientTransform="matrix(3.78 0 0 3.78 2.766e-5 0)" gradientUnits="userSpaceOnUse"><stop stop-color="#2a7329" offset="0"/><stop stop-color="#29332d" offset="1"/></linearGradient></defs><rect width="480" height="320" ry="24" fill="url(#a)"/><path d="m85.07 90.79c-11.07-0.1064-20.07 3.764-26.79 7.926-13.32 8.242-19.72 20.8-18.02 37.88 1.98 19.82 27.63 32.29 49.36 19.71 0.198-0.1146 0.3561-0.2077 0.502-0.291l-2.043 4.637h14.59l9.158-20.34h16.14l3.574 20.34h23.76l12.11-38.03 7.773 38.03h9.314l18.15-42.06 1.856 42.06h13.97l-2.939-67.99h-16.78l-15.83 37.25-6.836-37.25h-13.82l-17.85 54.96-9.158-54.96h-17.23l-26.09 59.21 3.896-24.76h-25.92l-1.978 12.74h10.84l-1.24 6.824c-6.21 2.48-16.76 1.543-21.27-6.522-2.844-5.116-5.491-16.54 6.512-27.02 9.773-8.544 26.7-10.09 36.48-5.586 0 0 1.24-7.148 2.178-13.82-5.874-2.038-11.34-2.907-16.37-2.955zm280.9 1.844c-13.51 0.2241-26.28 11.72-30.07 28.17-4.345 18.8 4.699 36.93 20.17 40.5 15.47 3.574 31.55-8.754 35.88-27.56 4.345-18.78-4.689-36.93-20.17-40.5-1.935-0.4467-3.881-0.6433-5.811-0.6113zm-135.5 0.0293-10.87 67.99h38.96l2.334-14.59h-24.38l1.938-12.11h21.2l2.324-14.59h-21.42l1.865-12.12h24.37l2.322-14.59h-38.64zm154.8 0 16.45 35.85-5.053 32.14h13.97l4.293-28.4 25.14-39.58h-16.31l-13.8 22.19-8.701-22.19h-15.99zm-76.08 0.332c-8.342-0.0174-18.55 0.05134-18.76 0.05273l-10.78 67.46h31.43c12.94 0 31.86-19.07 14.64-34.64 17.72-18.34 0.1561-32.66-9.242-32.82-1.886-0.03126-4.466-0.04687-7.275-0.05273zm57.3 12.9c1.456-0.036 2.9 0.2381 4.285 0.8574 7.398 3.303 10.34 15.16 6.564 26.46-3.772 11.32-12.82 17.81-20.21 14.49-7.387-3.303-10.33-15.15-6.555-26.46 3.056-9.194 9.607-15.2 15.92-15.35zm-64.04 1.473h9.086c9.867 0 7.867 12.64-1.531 12.64h-9.711l2.156-12.64zm-179 6.564 2.562 13.19h-8.461l5.898-13.19zm174.7 19.93h11.71c11.09 0 10.77 13.57-1.553 13.57h-12.32l2.166-13.57zm-192 47.64v39.54l-23.4-38.81-0.4062-0.6777h-12.09l-0.4062 0.6875-27.88 46.96h10.46v0.01953h23.27v-10.53h-13.68l13.7-24.7 19.35 34.52 0.3965 0.709h15.6l-0.02148-0.04102h23.95c20.65 0 31.14-8.066 31.14-23.99 0-2.761-0.3553-5.313-1.043-7.637l18.74 30.94 0.4062 0.666h9.129l0.3945-0.6973 26.02-44.86 1.219-2.094h-14.61l-0.3965 0.7188-16.75 30.41-17.77-30.44-0.4062-0.6992h-15.7l1.291 2.127 3.022 4.98c-4.845-4.605-12.26-7.107-21.92-7.107h-31.6zm159.1 0.01172v39.57l-23.44-38.88-0.418-0.6777h-12.09l-0.3965 0.6777-26.63 44.87-1.25 2.113h14.2l0.03125-0.05078h19.54v-10.54h-13.69l13.68-24.65 19.35 34.52 0.3945 0.7188h15.6l-0.00977-0.03125h7.877v-28.74l35.7 28.44 0.3848 0.3008h9.377v-47.65h-12.61v28.34l-35.82-28.05-0.375-0.291h-9.398zm75.44 0.00976c-9.805 0-13.11 3.032-13.11 12.02v23.61c0 8.961 3.303 12 13.11 12h27.93c9.815 0 13.13-3.031 13.13-12v-6.689l-1.396-0.00977-10.99-0.02148h-1.396v7.336h-26.62v-25.16h26.62v6.617l1.396 0.00977 10.99 0.04296h1.408v-5.742c0-9.096-3.201-12.01-13.14-12.01h-27.93zm45.54 0v47.64h51.45v-11.1h-37.66v-8.357h21.64v-10.51h-21.64v-6.877h37.14v-10.78h-50.93zm-266.2 10.8h17.92c9.69 0 14.2 3.918 14.2 12.33 0 10.01-4.908 13.41-19.41 13.41h-12.71v-25.74z" fill="#afa"/><path d="m192.6 256v23.97h6.422v-9.482h4.703v9.482h6.422v-23.97h-6.422v9.82h-4.703v-9.82zm25.2 0-6.16 23.97h6.422l0.7851-3.584h5.748l0.748 3.584h6.57l-6.16-23.97h-7.953zm20.91 0c-3.659 0-5.488 1.545-5.488 4.631v14.71c0 3.086 1.83 4.629 5.488 4.629h5.264c3.659 0 5.488-1.543 5.488-4.629v-4.182h-6.533v3.695c0 0.5476-0.3114 0.8223-0.9336 0.8223h-1.307c-0.6222 0-0.9336-0.2747-0.9336-0.8223v-13.74c0-0.5476 0.3114-0.8203 0.9336-0.8203h1.307c0.6222 0 0.9336 0.2728 0.9336 0.8203v3.846h6.533v-4.33c0-3.086-1.83-4.631-5.488-4.631h-5.264zm13.18 0v23.97h6.533v-23.97zm11.01 0-4.443 11.72 4.48 12.25h7.018l-4.703-12.25 4.666-11.72zm13.85 0c-3.634 0-5.449 1.545-5.449 4.631v4.928c0 1.518 0.3725 2.688 1.119 3.51 0.7716 0.7964 2.078 1.193 3.92 1.193h3.584c0.6222 0 0.9336 0.2747 0.9336 0.8223v3.396c0 0.5476-0.3114 0.8223-0.9336 0.8223h-1.082c-0.6222 0-0.9336-0.2747-0.9336-0.8223v-2.016h-6.533v2.875c0 3.086 1.83 4.629 5.488 4.629h5.076c3.634 0 5.451-1.543 5.451-4.629v-4.928c0-1.493-0.3989-2.627-1.195-3.398-0.7716-0.7716-2.078-1.156-3.92-1.156h-3.508c-0.6222 0-0.9336-0.2747-0.9336-0.8223v-3.547c0-0.5476 0.3114-0.8203 0.9336-0.8203h1.082c0.6222 0 0.9336 0.2728 0.9336 0.8203v2.016h6.533v-2.873c0-3.086-1.817-4.631-5.451-4.631h-5.115zm-54.99 7.131 1.828 8.625h-3.732z" fill="#afa"/></svg>
