<svg width="480" height="320" version="1.1" viewBox="0 0 127 84.667" xmlns="http://www.w3.org/2000/svg">
 <defs>
  <linearGradient id="a" x1="116.42" x2="71.208" y1="7.9375" y2="84.667" gradientUnits="userSpaceOnUse">
   <stop stop-color="#00594f" offset="0"/>
   <stop stop-color="#002934" offset="1"/>
  </linearGradient>
 </defs>
 <rect width="127" height="84.667" ry="4.2333" fill="url(#a)" stroke-linecap="square" stroke-linejoin="round" stroke-width=".52917" style="paint-order:stroke fill markers"/>
 <path d="m10.583 58.161c0-0.05742 0.229-0.44911 0.50889-0.87042s0.51052-0.83809 0.51251-0.92617c2e-3 -0.08809 0.05203-0.16016 0.11118-0.16016 0.05916 0 0.17422-0.14631 0.2557-0.32514 0.08148-0.17882 0.20933-0.39504 0.28411-0.48048 0.27061-0.30916 1.6589-2.531 1.6589-2.6549 0-0.0699 0.05766-0.12708 0.12813-0.12708s0.12813-0.0589 0.12813-0.13087c0-0.11205 0.49482-0.93979 0.8026-1.3426 0.20961-0.27434 0.73493-1.1036 0.73493-1.1602 0-0.0328 0.2018-0.3468 0.44845-0.6977 0.24665-0.35091 0.44845-0.66228 0.44845-0.69194 0-0.0704 1.3523-2.1443 1.5295-2.3457 0.0749-0.0851 0.13618-0.18654 0.13618-0.2254 0-0.0388 0.31712-0.56221 0.7047-1.163 0.71614-1.1101 0.81327-1.3397 0.56676-1.3397-0.07587 0-0.63802-0.21399-1.2492-0.47553-2.3676-1.0131-4.1077-2.563-5.0762-4.5214-0.19168-0.38759-0.40082-0.80387-0.46474-0.92508-0.06393-0.1212-0.23818-0.78325-0.38723-1.4712-0.21526-0.99355-0.25689-1.5148-0.20237-2.5344 0.08255-1.5438 0.39341-3.4997 0.58698-3.6933 0.07701-0.077 0.14002-0.21867 0.14002-0.31479 0-0.2621 0.61558-1.5569 1.0378-2.1828 0.2044-0.30303 0.37164-0.59819 0.37164-0.6559 0-0.0577 0.47567-0.5911 1.0571-1.1853 1.5906-1.6257 4.3034-3.3056 5.8618-3.6301 0.24665-0.0514 0.5061-0.13927 0.57657-0.19536 0.07047-0.0561 0.44524-0.16793 0.83283-0.24855 2.8751-0.59796 4.9651-0.47659 7.8158 0.45385 1.1691 0.38159 1.1892 0.38193 1.347 0.0224l0.12648-0.28829 8.4863-0.0675 0.07343 0.48219c0.04039 0.2652 0.10711 0.62632 0.14828 0.8025s0.13091 0.74772 0.19942 1.2701c0.13084 0.99752 0.1917 1.1598 0.36133 0.96359 0.08121-0.094 0.91357-2.582 1.1223-3.3548 0.03438-0.12726 4.1766-0.16016 20.167-0.16016 20.014 0 20.128 1e-3 20.912 0.26533 1.2416 0.41826 1.7284 0.7165 2.6122 1.6003 0.45377 0.45377 0.87269 0.82504 0.93094 0.82504 0.05824 0 0.21025-0.11531 0.3378-0.25625 0.12755-0.14095 0.30329-0.25626 0.39053-0.25626 0.08725 0 0.19181-0.0865 0.23238-0.19219 0.04058-0.10571 0.15498-0.19219 0.25427-0.19219s0.25729-0.0925 0.35111-0.20554c0.09382-0.11305 0.28827-0.25705 0.4321-0.32001 0.14384-0.063 0.34801-0.16861 0.45371-0.23478 0.448-0.28044 1.1493-0.54956 2.0421-0.78361 0.9123-0.23916 1.4671-0.24985 12.973-0.24985 6.6109 0 12.02 0.0326 12.02 0.0725 0 0.10949-0.28235 0.62328-0.38263 0.69628-0.0484 0.0352-0.25233 0.35235-0.45318 0.7047s-0.60343 1.0154-0.89463 1.4735c-0.2912 0.45805-0.72728 1.1447-0.96907 1.526s-0.78556 1.231-1.2084 1.8884c-0.42282 0.65738-0.97057 1.5223-1.2172 1.9221-0.7151 1.1591-1.5152 2.3942-1.7268 2.6656-0.10731 0.13766-0.19512 0.29865-0.19512 0.35777 0 0.0591-0.0597 0.17711-0.13263 0.26222-0.073 0.0851-0.44297 0.65024-0.82228 1.2558-0.6514 1.04-0.69437 1.1608-0.77498 2.1782-0.0469 0.5924-0.1629 1.5384-0.25769 2.1021-0.0948 0.56376-0.20878 1.443-0.25329 1.9539l-0.0809 0.92893 4.2039 2e-3c2.3122 1e-3 4.2616 0.0443 4.3321 0.0961 0.0831 0.061 0.12813 2.9669 0.12813 8.2679 0 8.0676-3e-3 8.1745-0.25625 8.2358-0.55283 0.13384-33.386-8e-3 -33.478-0.14463-0.07901-0.11708-0.7745-0.67193-2.6714-2.1312-0.98204-0.75548-1.2248-0.9455-1.4828-1.1607-0.1478-0.12332-0.31756-0.22422-0.37725-0.22422s-0.10852 0.8363-0.10852 1.8584v1.8584l-26.95-0.06524-0.39504-0.58285c-0.48491-0.71545-0.61318-0.91925-1.0644-1.6913-0.1956-0.33466-0.38447-0.60782-0.41971-0.60701-0.03524 7.75e-4 -0.30322 0.22362-0.59551 0.49515-0.59731 0.55486-1.9691 1.425-2.2465 1.425-0.10001 0-0.23661 0.05468-0.30356 0.12152-0.10949 0.10931-0.55542 0.24908-2.1718 0.68073-0.61643 0.16462-32.608 0.29165-32.608 0.12948zm15.183-4.1349v-1.2172l-3.2833-0.0718 0.2494-0.41252c0.13717-0.22689 0.49747-0.87379 0.80067-1.4376s0.68372-1.2556 0.84559-1.5375c0.16187-0.28188 0.34609-0.62799 0.40938-0.76913 0.06328-0.14114 0.31401-0.58688 0.55717-0.99054l0.44211-0.73392 0.63016 1.1158c0.34658 0.61368 0.70114 1.2612 0.7879 1.439s0.21628 0.40969 0.28781 0.51539c0.17247 0.25487 1.8492 3.2136 1.9605 3.4594 0.04785 0.1057 0.23243 0.42282 0.41018 0.7047s0.38642 0.67107 0.4637 0.86486l0.1405 0.35235 5.529-2e-3c4.9736-0.0018 5.647-0.02693 6.7043-0.25011 2.0289-0.42831 3.42-1.2906 4.1666-2.5828 0.50574-0.87533 0.79396-2.2744 0.69928-3.3944-0.04397-0.52018-0.05637-0.94578-0.02755-0.94578s0.4461 0.66791 0.92729 1.4843c0.48119 0.81634 0.97591 1.638 1.0994 1.8258 0.12347 0.18786 0.31247 0.51453 0.42 0.72594s0.42291 0.73033 0.70085 1.1532c0.27794 0.42282 0.59038 0.94174 0.69431 1.1532 0.39082 0.79496 0.4648 0.83283 1.6273 0.83283 1.2472 0 1.042 0.176 2.1655-1.8579 0.23356-0.42282 0.47265-0.78799 0.53131-0.81147 0.05866-0.0235 0.10665-0.0959 0.10665-0.16091 0-0.065 0.96114-1.7755 2.1359-3.8011 1.1747-2.0256 2.2695-3.9136 2.4329-4.1954 0.16336-0.28188 0.29771-0.55738 0.29856-0.61222 9.2e-4 -0.0548-0.78506-0.0837-1.7465-0.0641-1.3984 0.0285-1.7679 0.0741-1.8475 0.22784-0.05474 0.1057-0.36298 0.6574-0.68497 1.226-0.72227 1.2754-1.5604 2.8104-1.8141 3.3225-0.10475 0.21141-0.42232 0.78799-0.7057 1.2813-0.28339 0.49329-0.54804 0.99779-0.5881 1.1211-0.09914 0.30511-0.2604 0.28163-0.43992-0.0641-0.49554-0.95424-4.0331-6.9673-4.1447-7.045-0.2117-0.14756-3.6586-0.11887-3.6586 0.0304 0 0.0707 0.16952 0.40086 0.3767 0.73373 0.39948 0.64183 0.41507 0.88524 0.03034 0.47378-0.22597-0.24167-0.62435-0.45965-1.5941-0.87222-0.80601-0.3429-2.5317-0.46164-6.7248-0.46275l-4.004-1e-3v4.6842c0 2.8146-0.04699 4.6552-0.11774 4.6114-0.06475-0.04-0.33863-0.45462-0.6086-0.92135-0.26998-0.46672-0.59177-1.014-0.71509-1.2161-0.12332-0.20211-0.32512-0.53285-0.44845-0.73497s-0.45485-0.75542-0.73673-1.2296c-0.28188-0.47414-0.599-0.9958-0.7047-1.1592-0.1057-0.16346-0.59274-0.97952-1.0823-1.8135-0.48956-0.83396-0.93641-1.5355-0.99299-1.559s-0.10287-0.12236-0.10287-0.21971c0-0.32507-0.4847-0.44228-1.829-0.44228h-1.3333l-1.156 1.9539c-1.1434 1.9326-1.6846 2.8432-2.1201 3.5672-0.48895 0.81287-0.71944 1.2022-1.9409 3.2782-0.69754 1.1856-1.3534 2.2861-1.4574 2.4457l-0.1891 0.29011 8.168-0.06771zm10.6-4.4376 0.03439-3.0578 2.4985-0.0353c3.4547-0.0489 4.2398 0.16221 4.8889 1.3144 0.37762 0.67022 0.41185 2.4306 0.06141 3.1578-0.60456 1.2545-1.4608 1.5359-4.9207 1.6175l-2.5969 0.0612zm27.774 4.4376c0-0.93573-0.0432-1.2832-0.16016-1.2886-0.08809-4e-3 -0.8088-9.2e-4 -1.6016 7e-3 -1.3436 0.0131-1.4414-3e-3 -1.4414-0.23329 0-0.13603 0.08425-0.31726 0.18723-0.40273 0.10298-0.0855 0.22463-0.27321 0.27034-0.41723 0.04571-0.14401 0.27206-0.58565 0.50301-0.98141 0.4848-0.8308 1.5162-2.7052 1.8236-3.3142 0.25637-0.50784 0.3489-0.5181 0.57815-0.0641 0.09785 0.19379 0.64139 1.1596 1.2079 2.1461 0.56647 0.98658 1.1881 2.0821 1.3814 2.4344 0.19329 0.35236 0.70357 1.2605 1.134 2.018l0.78253 1.3774h5.7135v-3.3954c0-1.8674 0.03114-3.3954 0.06915-3.3954 0.07084 0 2.8949 2.1943 3.288 2.5548 0.31259 0.28664 0.3552 0.32087 2.8085 2.256 1.2247 0.96599 2.2459 1.8067 2.2694 1.8682 0.02349 0.06151 0.58625 0.11184 1.2506 0.11184h1.2079l-0.06674-11.467h-2.9469v3.2993c0 2.2609-0.0432 3.2993-0.13729 3.2993-0.07551-3e-5 -1.0557-0.72287-2.1782-1.6063-1.1225-0.88346-2.358-1.844-2.7456-2.1345-0.38758-0.29052-0.80283-0.61995-0.92277-0.73205-0.29321-0.27405-0.44626-0.39313-1.1593-0.90201-0.33473-0.23889-0.60861-0.48223-0.60861-0.54075 0-0.0585-0.08362-0.10641-0.18582-0.10641s-0.23194-0.0781-0.28829-0.17348c-0.19871-0.33645-0.67312-0.46715-1.6956-0.46715h-1.0334v4.6766c0 2.5722-0.04698 4.6766-0.1044 4.6766s-0.2021-0.18738-0.32151-0.41641-0.33189-0.6038-0.47218-0.83283-0.35596-0.58488-0.47928-0.79078-0.599-0.9958-1.0571-1.7553c-0.45806-0.75954-0.92062-1.528-1.0279-1.7077s-0.45325-0.749-0.76876-1.2651c-0.73392-1.2005-0.96724-1.5911-1.2574-2.1046l-0.23524-0.41641h-3.0352l-0.99506 1.6657c-0.54728 0.91611-1.0845 1.8386-1.1938 2.05-0.10932 0.21141-0.31358 0.55735-0.45392 0.76876s-0.32667 0.52853-0.41407 0.7047c-0.0874 0.17618-0.19165 0.34915-0.23166 0.38439-0.04001 0.0352-0.75645 1.246-1.5921 2.6907-0.83564 1.4446-1.5969 2.7176-1.6916 2.8289-0.09475 0.11126-0.17227 0.24098-0.17227 0.28829 0 0.0473 1.845 0.08601 4.1001 0.08601h4.1001zm34.082 0.9471c0.89033-0.41692 1.1529-1.0516 1.1529-2.787v-1.3633l-0.92892-1e-3c-0.51091-6.3e-4 -1.2288-0.0371-1.5954-0.0812l-0.66643-0.08-0.03826 0.88196-0.03826 0.88201-6.3423 0.0686v-5.8983h6.4064v1.5118l3.2032-8e-3v-1.2877c0-1.9884-0.44627-2.6756-1.8911-2.9123-0.98445-0.16124-8.2736-0.15582-9.1311 7e-3 -0.70852 0.13437-1.4163 0.57827-1.6927 1.0616-0.17812 0.31148-0.31479 7.499-0.16207 8.5234 0.10272 0.68902 0.59836 1.2655 1.3558 1.5768 0.5161 0.21215 0.97541 0.23032 5.1789 0.2048 4.392-0.02666 4.6402-0.04092 5.1894-0.29811zm14.734-1.0112v-1.3453h-9.097v-2.0531l2.5682 0.0336c2.9763 0.0389 2.7215 0.18307 2.6589-1.5044l-0.038-1.0246-5.1892-0.0694v-1.5289l8.9049-0.0674v-2.5626h-12.172l-0.0668 11.467h12.431zm-18.899-13.118c3.8392-1.1964 6.3888-5.5557 5.8328-9.973-0.31223-2.4805-1.6383-4.7337-3.3486-5.6896-1.509-0.84338-3.4818-1.055-4.8838-0.52379-3.3633 1.2743-5.5168 4.3861-5.6909 8.2232-0.09553 2.1053 0.22343 3.5049 1.1573 5.0783 0.91697 1.5449 1.9858 2.3995 3.6018 2.8797 1.0225 0.30384 2.3662 0.30592 3.3313 5e-3zm-2.4985-3.158c-1.1232-0.34766-1.8986-1.4994-2.1849-3.2453-0.17445-1.064 0.08809-2.5667 0.68586-3.9257 0.32557-0.74015 0.34842-0.77357 1.1121-1.6266 1.0468-1.1693 2.2502-1.5443 3.3979-1.0588 0.87378 0.36955 1.3677 1.035 1.7435 2.3492 0.84332 2.9489-0.86823 6.8062-3.3261 7.4958-0.40729 0.11429-0.76558 0.20377-0.79619 0.19886-0.03061-5e-3 -0.31511-0.0892-0.63223-0.18738zm-67.844 3.1403c0.91505-0.12853 2.2324-0.54629 2.6872-0.8521 0.45171-0.3038 0.61184-0.21864 0.3912 0.20804-0.10751 0.20791-0.19548 0.40971-0.19548 0.44845 0 0.0387 0.80332 0.0704 1.7852 0.0704 1.7392 0 1.7875-7e-3 1.8752-0.28828 0.04955-0.15856 0.28041-0.69189 0.51302-1.1852 0.23261-0.49329 0.6301-1.3582 0.88331-1.9219 0.25321-0.56376 0.50811-1.1115 0.56644-1.2172 0.14492-0.2626 3.8292-0.35605 3.9243-0.0995 0.03336 0.09 0.11324 0.50954 0.1775 0.93236 0.06427 0.42282 0.18581 1.1435 0.2701 1.6016 0.08429 0.45805 0.20908 1.1355 0.27733 1.5055l0.12408 0.67267h5.7264l0.19308-0.54454c0.10619-0.2995 0.28426-0.83283 0.39571-1.1852 0.85166-2.6926 1.3184-4.1539 1.691-5.2943 0.23763-0.7273 0.43206-1.4048 0.43206-1.5055s0.075-0.18313 0.16668-0.18313c0.10742 0 0.22106 0.33023 0.31966 0.92893 0.18815 1.1425 0.40145 2.2272 0.8629 4.3884 0.19561 0.91612 0.42009 2.0404 0.49884 2.4985l0.14319 0.83283 1.2466 0.0367c0.86609 0.0255 1.2466-8e-3 1.2466-0.10876 0-0.08 0.09413-0.35595 0.20918-0.61325 0.47525-1.0628 0.71898-1.6237 1.9017-4.3757 1.4351-3.3393 1.4937-3.4739 1.8228-4.1898l0.24738-0.5381 0.21912 4.1897c0.12052 2.3044 0.2176 4.5213 0.21574 4.9265l-0.0034 0.73674h3.3614l-0.08674-3.1071c-0.04771-1.7089-0.14088-4.2026-0.20705-5.5415s-0.15192-3.3858-0.19054-4.5485c-0.03863-1.1628-0.10012-2.3606-0.13665-2.6619l-0.06642-0.54775-4.0105 0.0706-0.47192 1.0891c-0.25956 0.599-0.56058 1.2909-0.66894 1.5375-0.36348 0.82737-0.57962 1.3402-0.91802 2.1782-0.38682 0.95789-0.64767 1.5679-0.90401 2.1141-0.09922 0.21142-0.31701 0.72221-0.48398 1.1351-0.3524 0.87141-0.38409 0.83321-0.66242-0.79842-0.10371-0.60799-0.30072-1.7108-0.4378-2.4508s-0.31598-1.7201-0.39755-2.1782c-0.08158-0.45805-0.23355-1.2508-0.33772-1.7618l-0.18939-0.92893h-1.5899c-1.5081 0-1.5995 0.0148-1.7764 0.28829-0.10256 0.15856-0.22736 0.46126-0.27735 0.67267-0.04998 0.21141-0.47892 1.5664-0.9532 3.011s-1.1907 3.6644-1.5921 4.9329c-0.40139 1.2685-0.80869 2.4879-0.9051 2.7098-0.09641 0.22193-0.21424 0.61112-0.26184 0.86486-0.1121 0.59758-0.28311 0.58889-0.37639-0.0191-0.04054-0.26427-0.15708-0.97057-0.25898-1.5696-0.10189-0.599-0.21921-1.3197-0.2607-1.6016-0.04149-0.28188-0.15631-0.94494-0.25516-1.4735-0.09885-0.52853-0.29893-1.7105-0.44462-2.6266s-0.3515-2.1558-0.45735-2.7547c-0.10585-0.599-0.23483-1.3774-0.28663-1.7297l-0.09419-0.64064-1.855-0.0368c-1.9173-0.038-2.4316 0.0121-2.4316 0.23676 0 0.0721-0.17602 0.51781-0.39116 0.99055-0.21514 0.47273-0.44211 0.97483-0.50438 1.1158-0.06227 0.14094-0.29469 0.65986-0.51648 1.1532s-0.66376 1.5023-0.98214 2.2422-0.74597 1.7058-0.9502 2.1465c-0.20423 0.44062-0.37133 0.8264-0.37133 0.85728 0 0.0309-0.23063 0.54613-0.51251 1.145-0.28188 0.59886-0.51251 1.1199-0.51251 1.1579s-0.19249 0.48836-0.42776 1.0008c-0.23527 0.51246-0.50172 1.1191-0.59212 1.3482-0.23279 0.58981-0.37481 0.51638-0.2478-0.12813 0.05902-0.2995 0.16969-0.94814 0.24593-1.4414 0.07624-0.4933 0.22201-1.3952 0.32393-2.0043s0.18532-1.2001 0.18532-1.3133c0-0.18341-0.33928-0.20586-3.1109-0.20586h-3.1109l-0.22128 1.3133c-0.32492 1.9284-0.41861 1.7618 0.99015 1.7618 0.66531 0 1.2405 0.0499 1.2781 0.11082 0.03767 0.061 0.0016 0.42991-0.08024 0.81992-0.14182 0.67614-0.16997 0.71261-0.60547 0.78466-0.2512 0.0416-0.92158 0.0762-1.4897 0.077-1.5972 2e-3 -2.4584-0.52605-3.2355-1.9846-0.304-0.57057-0.34148-0.78115-0.34271-1.9252-0.0016-1.4228 0.15705-1.9471 0.91936-3.0401 0.9798-1.4048 2.2259-2.2282 4.2338-2.7976 1.3138-0.37254 4.0223-0.40366 4.8712-0.056 0.68738 0.28153 0.92918 0.19429 0.92918-0.33523 0-0.22575 0.0917-0.89982 0.20378-1.498 0.24352-1.2996 0.3068-1.2261-1.421-1.6494-2.4754-0.60636-4.9901-0.2951-7.5595 0.93573-0.73406 0.35164-0.87013 0.43353-1.9268 1.1597-1.0117 0.69524-1.6296 1.3278-2.3115 2.3661-0.71796 1.0933-1.0199 1.8748-1.2645 3.2732-0.25058 1.4326-0.25067 2.3279-3.46e-4 3.5384 0.32002 1.5475 1.0907 2.7642 2.3782 3.755 1.8137 1.3956 3.852 1.9176 6.2 1.5878zm10.382-9.1902c0.23773-0.54614 0.54258-1.218 0.67745-1.493l0.24522-0.50006 0.14184 0.62818c0.15236 0.67473 0.40562 2.0817 0.40562 2.2533 0 0.0575-0.42803 0.1046-0.95118 0.1046h-0.95118zm33.548 8.8408c0.03489-0.12332 0.10103-0.54134 0.14698-0.92892 0.04595-0.38759 0.13083-0.90651 0.18861-1.1532 0.05778-0.24665 0.14077-0.60701 0.18441-0.8008l0.07935-0.35235h-2.9494c-2.7228 0-2.9495-0.0172-2.9513-0.22422-1e-3 -0.12333 0.09985-0.75745 0.22422-1.4092l0.22614-1.1849 0.7047-0.014c0.38758-8e-3 1.5011-0.0136 2.4745-0.0131 1.7357 9.7e-4 1.772-5e-3 1.8833-0.29751 0.10154-0.26706 0.51105-2.7648 0.51105-3.117 0-0.0967-0.79588-0.15194-2.5305-0.17575-2.4383-0.0335-2.5301-0.0441-2.5181-0.291 0.01399-0.28747 0.31401-2.2184 0.38324-2.4664 0.03409-0.12214 0.73849-0.16016 2.9674-0.16016h2.9227l0.17494-1.057c0.29461-1.7801 0.36437-2.3343 0.30646-2.4344-0.03057-0.0529-2.1004-0.0961-4.5997-0.0961h-4.5441l-0.12758 0.33556c-0.07017 0.18457-0.1833 0.74672-0.2514 1.2492-0.12682 0.93583-0.41647 2.7484-0.65786 4.1169-0.07459 0.42283-0.21376 1.2877-0.30927 1.9219-0.09551 0.63423-0.29301 1.9027-0.43887 2.8188s-0.35015 2.2288-0.45397 2.917c-0.10382 0.68822-0.2451 1.4954-0.31394 1.7938-0.06885 0.29836-0.12658 0.70103-0.12831 0.89482l-0.0031 0.35235h4.668c4.3362 0 4.6725-0.0159 4.7315-0.22422zm14.577-0.26641c0.96515-0.48449 2.0841-1.5038 2.5678-2.339 0.92372-1.5953 0.75047-3.4236-0.46499-4.9069-0.44596-0.54423-0.56718-0.84802-0.33837-0.84802 0.14108 0 1.0094-1.2813 1.3458-1.986 0.35754-0.74891 0.347-2.2579-0.02068-2.962-0.33858-0.64837-1.5289-1.9709-1.7739-1.9709-0.09863 0-0.17934-0.053-0.17934-0.11769 0-0.0647-0.36369-0.23871-0.8082-0.38663-0.74911-0.24929-1.0463-0.26645-4.0644-0.23467l-3.2562 0.0343-0.29089 1.8578c-0.15998 1.0218-0.37652 2.3479-0.48119 2.9469-0.10466 0.599-0.22295 1.3486-0.26287 1.6657-0.0399 0.31712-0.15274 1.0667-0.25072 1.6657-0.09799 0.599-0.26729 1.6368-0.37623 2.3063-0.10894 0.66946-0.31076 1.9091-0.4485 2.7547-0.13774 0.84564-0.28997 1.8713-0.33829 2.2792l-0.08787 0.74164 8.6794-0.0738zm-5.5181-2.7088c-0.0929-0.0586 0.05066-1.157 0.35216-2.6944l0.08795-0.44845h1.7972c1.6888 0 1.8202 0.0181 2.1782 0.29905 0.71382 0.5604 0.85588 1.0977 0.492 1.8608-0.37718 0.79095-0.90975 0.97194-2.9836 1.014-0.99906 0.0203-1.8648 6e-3 -1.9239-0.031zm1.0776-7.2802c0.04736-0.40807 0.15392-1.0856 0.2368-1.5055l0.15069-0.76354 1.3819 0.0202c1.5468 0.0227 1.9147 0.16376 2.2007 0.84408 0.32037 0.76193-0.25266 1.7159-1.2015 2.0002-0.26894 0.0806-1.0213 0.1465-1.6719 0.1465h-1.1829zm26.523 9.871c0.0423-0.33474 0.15968-1.1275 0.26077-1.7618 0.10108-0.63423 0.21892-1.4414 0.26186-1.7938 0.23736-1.948 0.46191-2.777 0.94832-3.5015 0.88619-1.3198 1.6663-2.5623 1.8185-2.8962 0.0824-0.18093 0.1859-0.32896 0.22991-0.32896 0.044 0 0.25097-0.31692 0.45991-0.70426s0.42314-0.70446 0.47599-0.7047c0.0529-2.5e-4 0.0961-0.0586 0.0961-0.12974 0-0.11507 0.46097-0.8604 1.8749-3.0316 0.23724-0.36429 0.43135-0.72465 0.43135-0.80079 0-0.20905-3.662-0.18837-3.8455 0.0217-0.0769 0.0881-0.3752 0.53493-0.6628 0.99299s-0.71701 1.1346-0.95425 1.5035c-0.23723 0.36888-0.43133 0.701-0.43133 0.73804 0 0.0371-0.18738 0.34349-0.41642 0.681-0.22902 0.33751-0.47818 0.72267-0.55369 0.85592-0.1946 0.34343-0.43929 0.38998-0.43929 0.0836 0-0.14266-0.0513-0.29106-0.11394-0.32979-0.0627-0.0387-0.15361-0.22853-0.20211-0.42177-0.0485-0.19325-0.40084-1.1379-0.78296-2.0992-0.38213-0.96132-0.69478-1.8066-0.69478-1.8784 0-0.23596-0.3834-0.28608-2.1886-0.28608-1.8071 0-1.9111 0.0302-1.6594 0.48222 0.06813 0.12237 0.30544 0.62609 0.52736 1.1194 0.22192 0.4933 0.60425 1.3293 0.84963 1.8578 0.24538 0.52853 0.59226 1.2781 0.77085 1.6657 1.1236 2.4384 1.3501 2.9195 1.5263 3.2419 0.16181 0.29595 0.17093 0.46474 0.0519 0.96095-0.1359 0.56661-0.21385 1.0478-0.70976 4.3817-0.11006 0.73993-0.25591 1.5471-0.3241 1.7938-0.25724 0.93045-0.31698 0.89689 1.5965 0.89689h1.7219z" fill="#0f6" stroke-width=".12813"/>
 <g transform="matrix(1.0173 0 0 1.0173 -2.711 -1.2087)" fill="#0f6" stroke-width=".26458" aria-label="hacks">
  <path d="m51.481 68.059c0.0038-0.57126 0.33449-0.91702 0.84185-0.91702 0.52992 0 0.83058 0.34576 0.82682 0.91702v3.2471h2.0746v-3.6831c0.0038-1.2628-0.793-2.1648-2.0144-2.1648-0.85313 0-1.4845 0.43596-1.7438 1.1726h-0.06013v-3.0217h-1.9994v7.6969h2.0746z"/>
  <path d="m57.855 71.396c0.75165 0 1.3192-0.25556 1.6687-0.90199h0.0451v0.81179h1.9393v-3.9537c0-1.0673-1.011-1.8942-2.6609-1.8942-1.725 0-2.5744 0.90199-2.6458 1.9543h1.9092c0.04886-0.35704 0.31194-0.52616 0.70656-0.52616 0.36079 0 0.61636 0.16536 0.61636 0.46603v0.01503c0 0.33449-0.36831 0.43972-1.3379 0.51112-1.1914 0.08644-2.1197 0.5675-2.1197 1.834 0 1.15 0.7742 1.6837 1.8791 1.6837zm0.67649-1.3079c-0.35328 0-0.60132-0.17288-0.60132-0.49609 0-0.2969 0.21046-0.52616 0.69152-0.60132 0.33073-0.05262 0.60884-0.12026 0.82682-0.21046v0.48106c0 0.52616-0.44724 0.82682-0.91702 0.82682z"/>
  <path d="m65.281 71.411c1.71 0 2.7586-0.98091 2.7811-2.5105h-1.9242c-0.0451 0.60508-0.37207 0.93205-0.82682 0.93205-0.54495 0-0.90199-0.46603-0.90199-1.4131s0.35704-1.4131 0.90199-1.4131c0.45851 0 0.77045 0.32697 0.82682 0.93205h1.9242c-0.01128-1.5033-1.0824-2.4805-2.7811-2.4805-1.8791 0-2.9916 1.2026-2.9916 2.9766 0 1.7739 1.1124 2.9766 2.9916 2.9766z"/>
  <path d="m68.919 71.306h2.0746v-1.6386l0.31194-0.39462 1.1763 2.0332h2.3752l-2.022-3.2434 1.9618-2.5293h-2.3301l-1.3981 1.9393h-0.07517v-3.8635h-2.0746z"/>
  <path d="m80.615 67.413c-0.05262-1.2214-1.0674-1.9543-2.736-1.9543-1.6499 0-2.6684 0.67649-2.6609 1.8791-0.0075 0.9095 0.58253 1.492 1.7589 1.6987l1.0222 0.1804c0.45099 0.08268 0.65394 0.20295 0.66146 0.42093-0.0075 0.24053-0.28187 0.37583-0.66146 0.37583-0.46978 0-0.80051-0.20295-0.85689-0.57126h-2.0595c0.11275 1.1839 1.135 1.9693 2.9014 1.9693 1.5973 0 2.7736-0.77796 2.7811-2.0144-0.0075-0.85313-0.57877-1.3492-1.7589-1.5634l-1.1726-0.21046c-0.43972-0.07892-0.56374-0.23677-0.55622-0.40589-0.0075-0.24053 0.28939-0.37583 0.64642-0.37583 0.40965 0 0.75166 0.21798 0.78172 0.57126z"/>
 </g>
 <style type="text/css">.st0{fill:#FC0C18;}
	.st1{fill:#FC0C18;}</style>
 <style type="text/css">.st0{fill:#FC0C18;}
	.st1{fill:#FC0C18;}</style>
 <style type="text/css">.st0{fill:#FC0C18;}
	.st1{fill:#FC0C18;}</style>
</svg>
