<svg width="480" height="320" version="1.1" viewBox="0 0 480 320" xml:space="preserve" xmlns="http://www.w3.org/2000/svg"><defs><linearGradient id="a" x1="23.998" x2="71.208" y1="-30.914" y2="103.75" gradientTransform="scale(3.7795)" gradientUnits="userSpaceOnUse"><stop stop-color="#f9c440" offset="0"/><stop stop-color="#cc3b02" offset="1"/></linearGradient></defs><rect width="480" height="320" ry="24" fill="url(#a)"/><path d="m71.451 74.301c-6.3544-0.069371-11.519 2.1419-15.379 4.5195-7.6459 4.7188-11.334 11.927-10.365 21.719 1.1146 11.365 15.824 18.551 28.303 11.354 0.13836-0.08038 0.19461-0.12249 0.28906-0.18164l-1.1855 2.6816 8.375 0.00976 5.2715-11.656 9.2598 0.01172 2.0312 11.666 13.625 0.02148 6.9785-21.812 4.4277 21.822 5.3438 0.00976 10.459-24.125 1.0312 24.137 8.0098 0.00977-1.6348-39.021-9.6152-0.009766-9.1152 21.365-3.8848-21.375-7.9277-0.011718-10.291 31.512-5.209-31.531-9.8848-0.011718-15.02 33.949 2.2598-14.199-14.875-0.019532-1.1465 7.3008 6.2188 0.01172-0.71875 3.916c-3.5625 1.4167-9.6243 0.87566-12.197-3.7598-1.625-2.9375-3.1361-9.4798 3.7598-15.49 5.6146-4.8958 15.323-5.7715 20.938-3.1777 0 0 0.7181-4.1029 1.2598-7.9258-3.3692-1.1719-6.5023-1.6755-9.3906-1.707zm83.393 1.1953-6.293 39 22.365 0.03125 1.3438-8.375-13.99-0.01953 1.125-6.9375 12.168 0.009766 1.3438-8.3652-12.293-0.019532 1.084-6.9492 13.979 0.021484 1.3438-8.3652-22.176-0.03125zm77.77 0.091797c-7.7533 0.11749-15.094 6.705-17.281 16.139-2.5 10.781 2.668 21.197 11.543 23.26 8.8854 2.0625 18.113-5 20.613-15.781 2.5104-10.781-2.666-21.197-11.541-23.26-1.1107-0.25781-2.2264-0.37421-3.334-0.35742zm11.031 0.033203 9.4062 20.584-2.9258 18.438 8.0098 0.00976 2.4902-16.301 14.457-22.688-9.3535-0.011718-7.9375 12.719-4.9785-12.738-9.168-0.011718zm-48.629 0.11523c-3.1596 0.005117-5.6954 0.020953-5.7871 0.021484l-6.2402 38.707s12.812 0.02149 18.031 0.02149c7.4167 0.0208 18.293-10.917 8.418-19.875 10.177-10.5 0.1146-18.74-5.2812-18.834-2.1667-0.041665-5.9245-0.046225-9.1406-0.041016zm37.838 7.4492c0.83548-0.019272 1.6641 0.14062 2.459 0.49805 4.2396 1.9063 5.905 8.7096 3.7383 15.199-2.1667 6.4792-7.3639 10.197-11.604 8.291-4.2396-1.8958-5.9173-8.6979-3.7402-15.188 1.7689-5.2728 5.5261-8.7173 9.1465-8.8008zm-36.75 0.80078s0.17706-6.54e-4 5.2188 0.009766c5.6563 0.01042 4.4994 7.2604-0.89649 7.25-4.4167-0.01042-5.5723-0.009766-5.5723-0.009766l1.25-7.25zm-102.73 3.6152 1.459 7.5723-4.8535-0.009766 3.3945-7.5625zm100.24 11.594s1.6771-6.54e-4 6.7188 0.009766c6.3646 0.01042 6.1784 7.7813-0.89453 7.7813-4.4167-0.0104-7.0742-0.00977-7.0742-0.00977l1.25-7.7812zm-93.758 27.383c-7.9013-0.13345-16.021 1.8613-22.252 6.5234-12.521 9.375-38.157 36.874-37.584 69.582-0.27083 9.0104 2.375 15.562 2.375 15.562s4.6451 16.178 20.822 22.543c9.8438 4.0938 24.688 3.375 24.688 3.375s27.908 0.05274 27.98 0.05274c6.011 0.01133 11.704-8.0302 11.121-14.98 7.7125 7.6852 19.054 11.738 32.057 12.021 29.469 0.63907 50.112-18.034 52.854-43.717 0.68804 11.28 1.2261 20.101 1.6348 26.801 0.05612 0.91969 0.03796 2.089 0.01172 3.3379-0.03111 1.4592-0.07391 3.0716-0.04297 4.7246 3e-4 -0.02562 0.00164-0.05062 0.00195-0.07618 0.09471 5.0828 0.92512 10.435 5.248 12.023 10.583 3.8854 27.927-10.73 48.844-11.303 2.3826-0.06584 4.579-1.4243 6.291-3.4766 7.0428 7.7077 17.415 12.147 31.012 11.758 18.976-0.54712 48.668-15.89 53.252-40.666 0.07373 4.4758 0.06986 9.5159-0.04297 15.385-0.0833 4.3438-3.0827 6.1888-3.4473 10.449-0.39583 4.6042 1.2396 16.79 14.156 17.332 11.125 0.46875 13.094-9.0931 13.094-13.041 0.0104-6.5313 0.03125-18.355 0.03125-18.355s30.104 25.345 35.281 29.793c2.7917 2.3958 6.4154 3.7507 10.082 3.4277 2.7917-0.23958 6.0013-1.3965 9.1367-4.4902 6.4063-6.2813 2.6042-13.636 0.34375-16.865-0.66666-0.94792-1.459-1.7923-2.334-2.5527-4.1042-3.5208-19.708-16.895-31.416-26.51 9.1459-4.9792 13.551-8.4062 13.551-8.4062s12.72-8.4069 15.449-21.303c2.0938-12.375-0.22911-18.833-18.094-27.625-14.188-6.9792-43.781-13.238-59.562 8.7305-3.6458 5.0729-3.6667 12.917-2.1562 16.906 1.7117 4.5241 3.3034 8.6237 4.416 15.693-5.1326-16.963-19.389-29.505-41.271-29.652-29.115-0.19791-52.583 16.437-52.5 47.385 0.00839 3.4992 0.28302 6.8684 0.80468 10.086-3.7946-0.33251-8.4862 0.04004-14.242 1.4043-8.3438 1.9792-14.979 5.4062-14.979 5.4062l-1.1875-48.281c-0.0625-2.3334-0.24089-4.6465-0.54297-6.959-0.8125-6.2292-2.7493-18.104-6.1035-22.75-5.625-7.7708-17.385-8.1348-21.188-0.63476-2.5833 5.1042-2.2598 13.823 1.7715 24.156 2.0417 5.25 3.0938 10.822 3.375 16.447 0 0 0.24145 3.9545 0.27734 4.543-4.429-18.636-19.383-33.133-39.715-33.834-26-0.89584-51.273 21.99-54.314 48.021-0.125 1.0313-0.21874 2.0508-0.28125 3.0508-0.61859 9.1672 0.9817 16.913 4.2773 23.225-2.8193-1.2455-6.716-1.8388-11.934-1.4102-11.792 0.96875-46.228 9.853-45.488-19.949 0.58333-23.938 23.5-45.312 33.938-47.822 1.9375-0.46875 3.8333 0.69661 4.4688 2.582 2.8438 8.3854 14.301 12.677 21.926 5.5938 2.7604-2.5625 3.6152-5.8952 4.3027-12.979 1.1758-12.018-13.111-20.028-28.195-20.283zm282.19 29.23 15.678 0.02149c7.2084 0.0104 11.124 8.5527 6.3223 13.928-3.3542 3.7708-9.8437 6.8118-22.094 6.791l0.09375-20.74zm-212.87 15.031c11.688 0.0208 16.99 11.501 16.688 24.449-0.4375 17.969-12.396 21.895-24.094 21.885-11.688-0.0208-19.509-10.406-17.457-23.197 2.0417-12.792 13.176-23.158 24.863-23.137zm143.62 2.4805c13.156 0.0104 22.844 9.3014 21.615 20.76s-12.896 20.739-26.062 20.729c-13.167-0.0104-22.844-9.3014-21.615-20.76 1.2292-11.458 12.896-20.739 26.062-20.729z" fill="#fff"/></svg>
