<?xml version="1.0" encoding="UTF-8" standalone="no"?>
<!-- Created with Inkscape (http://www.inkscape.org/) -->

<svg
   width="480"
   height="320"
   viewBox="0 0 127 84.666667"
   version="1.1"
   id="svg1543"
   inkscape:export-filename="/home/vitor/Dev/es-theme-material-tv-3-2/assets/logos/gbc.png"
   inkscape:export-xdpi="96"
   inkscape:export-ydpi="96"
   inkscape:version="1.1.1 (3bf5ae0d25, 2021-09-20)"
   sodipodi:docname="gbc.svg"
   xmlns:inkscape="http://www.inkscape.org/namespaces/inkscape"
   xmlns:sodipodi="http://sodipodi.sourceforge.net/DTD/sodipodi-0.dtd"
   xmlns:xlink="http://www.w3.org/1999/xlink"
   xmlns="http://www.w3.org/2000/svg"
   xmlns:svg="http://www.w3.org/2000/svg">
  <sodipodi:namedview
     id="namedview1545"
     pagecolor="#505050"
     bordercolor="#eeeeee"
     borderopacity="1"
     inkscape:pageshadow="0"
     inkscape:pageopacity="0"
     inkscape:pagecheckerboard="0"
     inkscape:document-units="px"
     showgrid="false"
     units="px"
     width="640px"
     inkscape:snap-page="true"
     showguides="true"
     inkscape:guide-bbox="true"
     inkscape:zoom="0.559375"
     inkscape:cx="51.843575"
     inkscape:cy="-55.418994"
     inkscape:window-width="1920"
     inkscape:window-height="1019"
     inkscape:window-x="0"
     inkscape:window-y="30"
     inkscape:window-maximized="1"
     inkscape:current-layer="layer1">
    <sodipodi:guide
       position="10.583333,76.729167"
       orientation="-1,0"
       id="guide2978"
       inkscape:label=""
       inkscape:locked="false"
       inkscape:color="rgb(0,0,255)" />
    <sodipodi:guide
       position="116.41667,7.9375"
       orientation="-1,0"
       id="guide2980"
       inkscape:label=""
       inkscape:locked="false"
       inkscape:color="rgb(0,0,255)" />
    <sodipodi:guide
       position="10.583333,76.729167"
       orientation="0,-1"
       id="guide2982" />
    <sodipodi:guide
       position="116.41667,7.9375"
       orientation="0,-1"
       id="guide2984" />
  </sodipodi:namedview>
  <defs
     id="defs1540">
    <linearGradient
       inkscape:collect="always"
       id="linearGradient2856">
      <stop
         style="stop-color:#f9c440;stop-opacity:1"
         offset="0"
         id="stop2852" />
      <stop
         style="stop-color:#cc3b02;stop-opacity:1"
         offset="1"
         id="stop2854" />
    </linearGradient>
    <linearGradient
       inkscape:collect="always"
       xlink:href="#linearGradient2856"
       id="linearGradient2858"
       x1="23.998051"
       y1="-30.914454"
       x2="71.208481"
       y2="103.74517"
       gradientUnits="userSpaceOnUse" />
    <clipPath
       id="clip1">
      <path
         d="m 249,0 h 75 v 124.51172 h -75 z m 0,0"
         id="path2" />
    </clipPath>
    <clipPath
       id="clip2">
      <path
         d="m 421,0 h 90 v 124.51172 h -90 z m 0,0"
         id="path5" />
    </clipPath>
    <clipPath
       id="clip3">
      <path
         d="m 513,0 h 28 v 124.51172 h -28 z m 0,0"
         id="path8" />
    </clipPath>
    <clipPath
       id="clip4">
      <path
         d="m 659,4 h 86.87109 V 124 H 659 Z m 0,0"
         id="path11" />
    </clipPath>
  </defs>
  <g
     inkscape:label="Camada 1"
     inkscape:groupmode="layer"
     id="layer1">
    <rect
       style="opacity:1;fill:url(#linearGradient2858);fill-opacity:1;stroke-width:0.529167;stroke-linecap:square;stroke-linejoin:round;paint-order:stroke fill markers"
       id="rect1569"
       width="127"
       height="84.666664"
       x="0"
       y="0"
       ry="4.2333331"
       inkscape:export-filename="/home/vitor/Dev/es-theme-material-tv-3-2/assets/logo/fbn.png"
       inkscape:export-xdpi="96"
       inkscape:export-ydpi="96" />
    <g
       fill-rule="evenodd"
       clip-rule="evenodd"
       id="g7288"
       transform="matrix(0.56568359,0,0,0.56568359,8.9800151,-12.185743)"
       style="fill:#ffffff">
      <path
         d="M 81.535,101.953 C 80.54,98.937 77.914,96.07 77.914,96.07 c 0,0 -3.951,-5.129 -11.705,-6.877 -6.638,-1.389 -11.857,1.538 -11.857,1.538 0,0 -4.736,1.9 -8.297,5.822 -5.671,5.461 -7.301,13.426 -7.301,13.426 0,0 -2.171,6.939 1.268,12.43 l 3.741,4.525 c 5.28,4.406 10.922,4.857 10.922,4.857 0,0 4.556,1.025 9.866,-0.361 4.645,-0.936 8.025,-3.23 8.025,-3.23 0,0 7.693,-4.252 9.805,-12.941 -0.268946,-4.4358 1.777788,-8.95514 -0.846,-13.306 z m -11.977,14.451 c 0,0 -3.078,5.371 -9.835,4.736 -7.934,-0.814 -8.869,-7.783 -8.869,-7.783 0,0 -1.086,-5.129 3.801,-9.594 4.948,-4.164 10.107,-3.531 10.107,-3.531 0,0 3.469,0.334 5.25,6.066 2.291,7.302 -0.454,10.106 -0.454,10.106 z"
         fill="#5456a1"
         id="path7270"
         style="fill:#ffffff"
         sodipodi:nodetypes="cccccccccccccccccccc" />
      <path
         d="m 149.627,100.355 c -5.279,-8.628 -14.57,-9.926 -14.57,-9.926 0,0 -2.957,-0.996 -9.293,-0.152 -11.887,2.263 -16.02,11.404 -16.02,11.404 0,0 -4.256,6.697 -2.564,14.812 l 5.189,10.258 c 3.83,3.59 5.398,3.59 5.641,3.803 5.068,2.293 10.951,0.965 10.951,0.965 0,0 7.422,-0.725 14.211,-6.004 5.43,-3.982 7.785,-9.834 7.785,-9.834 0.054,-4.84036 7.1827,-5.86348 -1.33,-15.326 z m -14.451,17.62 c -8.537,5.127 -13.908,-0.484 -13.908,-0.484 0,0 -2.383,-1.568 -2.896,-6.336 -0.361,-5.52 5.129,-8.387 5.129,-8.387 0,0 2.898,-1.779 6.518,-1.508 3.621,0.271 4.766,0.029 7.693,2.203 2.773,2.504 2.594,4.344 2.594,4.344 0,0 0.995,6.214 -5.13,10.168 z"
         fill="#d1af2c"
         id="path7272"
         style="fill:#ffffff"
         sodipodi:nodetypes="ccccccccccccccccccc" />
      <path
         d="m 150.957,115.682 c 0,0 0.18,4.826 -0.576,6.004 -1.025,2.201 -0.875,4.344 -0.875,4.344 0,0 -0.693,6.516 6.85,7.604 5.189,-0.031 5.822,-4.346 5.912,-6.186 0.303,-1.447 0.182,-8.176 0.182,-8.176 l 6.729,5.49 c 0,0 4.889,4.104 7.754,6.486 2.988,2.354 3.738,2.775 3.738,2.775 0,0 0.637,0.754 2.928,0.482 1.842,0.031 3.531,-1.629 3.531,-1.629 0,0 2.141,-1.568 2.682,-4.314 0.666,-3.258 -1.867,-4.855 -1.867,-4.855 0,0 -9.352,-7.543 -15.688,-12.732 4.252,-2.322 6.305,-3.922 6.305,-3.922 0,0 5.914,-3.922 7.18,-9.926 1.752,-6.607 -3.227,-9.202 -3.227,-9.202 0,0 -3.109,-2.233 -5.734,-3.41 -6.607,-3.228 -12.76,-2.564 -12.76,-2.564 0,0 -8.75,-0.603 -14.453,6.427 -2.623,3.408 -0.994,7.874 -0.994,7.874 0,0 0.324,0.717 1.055,4.104 1.465,6.812 1.328,15.326 1.328,15.326 z m 11.463,-13.397 -0.574,-7.874 c 0,0 5.521,-0.121 7.814,0.271 4.527,0.694 4.283,1.961 4.283,1.961 0,0 -0.15,1.598 -3.59,3.168 -3.74,1.81 -7.933,2.474 -7.933,2.474 z"
         fill="#1b9389"
         id="path7274"
         style="fill:#ffffff" />
      <path
         d="m 107.18,116.496 c -2.543,-0.559 -6.607,0.482 -6.607,0.482 0,0 -5.671,2.08 -6.548,2.051 -0.331,-0.482 -1.054,-9.744 -0.843,-13.455 0.121,-6.547 -0.423,-11.887 -0.423,-11.887 0,0 -0.271,-6.305 -3.651,-10.046 C 85.126,79.628 82.35,81.348 80.753,82.313 76.92,85.752 78.7,89.945 78.7,89.945 l 1.991,5.644 c 0,0 0.966,2.414 0.845,6.365 l 0.845,13.305 c 0,1.781 1.448,13.758 1.448,13.758 0,0 0.15,3.893 3.892,4.586 3.831,0.633 7.602,-1.268 9.201,-2.02 1.598,-0.756 3.711,-1.42 3.711,-1.42 0,0 1.75,-0.391 3.498,-0.543 4.105,-0.393 5.582,-1.115 5.582,-1.115 0,0 1.59,-0.24 2.656,-1.752 1.065,-1.513 2.358,-8.599 -5.189,-10.257 z"
         fill="#89ac43"
         id="path7276"
         style="fill:#ffffff" />
      <path
         d="m 40.022,122.406 c -2.695,-0.805 -5.792,-0.271 -5.792,-0.271 0,0 -8.75,0.846 -13.305,-0.119 -7.06,-1.236 -6.82,-8.84 -6.82,-8.84 0,0 -0.24,-5.039 4.014,-11.855 5.249,-8.418 11.041,-9.927 11.041,-9.927 0,0 1.449,-0.542 2.807,0.181 0.844,4.887 5.581,4.857 5.581,4.857 0,0 6.82,0.453 6.486,-7.812 -0.784,-6.79 -7.332,-7.725 -10.077,-8.357 -8.235,-1.479 -13.575,2.926 -13.575,2.926 0,0 -5.521,2.988 -12.128,13.395 -4.497,6.457 -5.039,11.525 -5.039,11.525 0,0 -0.543,1.207 -0.332,6.578 -0.119,4.193 1.449,7.238 1.449,7.238 0,0 2.384,7.213 9.925,10.17 4.585,1.9 11.284,1.869 11.284,1.869 0,0 6.486,-0.09 11.464,-0.361 2.716,0.211 4.013,-1.207 4.013,-1.207 0,0 3.046,-1.99 2.745,-5.461 0,-0.001 3.018765,-6.9308 -3.741,-4.529 z"
         fill="#9d0c46"
         id="path7278"
         style="fill:#ffffff"
         sodipodi:nodetypes="ccccccccccccccccccccc" />
      <path
         d="M 59.837,78.088 H 55.859 L 55.327,66.107 50.155,78.088 h -2.653 l -2.21,-10.832 -3.449,10.832 h -6.764 l -1.017,-5.791 h -4.598 l -2.609,5.791 h -4.156 l 8.533,-19.364 h 4.907 l 2.608,15.651 5.084,-15.651 h 3.934 l 1.946,10.611 4.511,-10.611 h 4.775 z m -26.374,-9.55 -0.728,-3.756 -1.68,3.756 z m 37.781,9.55 0.664,-4.155 h -6.943 l 0.551,-3.449 h 6.037 l 0.664,-4.155 h -6.102 l 0.531,-3.45 h 6.939 L 74.25,58.724 H 63.242 l -3.096,19.364 z m 51.684,-19.364 h -4.643 l -3.935,6.321 -2.475,-6.321 h -4.555 l 4.688,10.212 -1.446,9.152 h 3.981 l 1.221,-8.09 z"
         fill="#33348e"
         id="path7280"
         style="fill:#ffffff" />
      <path
         d="m 93.279,66.741 c 1.236,-5.354 5.811,-8.868 10.219,-7.849 4.412,1.019 6.984,6.184 5.75,11.538 -1.236,5.353 -5.812,8.867 -10.221,7.848 -4.41,-1.019 -6.983,-6.185 -5.748,-11.537 z m 6.022,7.66 c 2.105,0.941 4.684,-0.906 5.756,-4.126 1.072,-3.221 0.238,-6.597 -1.867,-7.538 -2.105,-0.942 -4.68,0.905 -5.754,4.127 -1.075,3.222 -0.239,6.595 1.865,7.537 z M 14.211,60.449 c -3.792,2.346 -5.615,5.923 -5.129,10.787 0.564,5.641 7.87,9.196 14.06,5.615 0.541,-0.313 0.33,-0.263 0.531,-0.442 l 1.238,-7.87 h -7.385 l -0.565,3.625 h 3.086 l -0.354,1.946 c -1.768,0.707 -4.774,0.441 -6.056,-1.857 -0.812,-1.456 -1.564,-4.706 1.858,-7.693 2.783,-2.432 7.604,-2.873 10.389,-1.591 0,0 0.354,-2.034 0.618,-3.936 -5.35,-1.857 -9.507,-0.309 -12.291,1.416 z"
         fill="#33348e"
         id="path7282"
         style="fill:#ffffff" />
      <path
         d="m 83.728,62.913 h 2.59 c 2.808,0 2.238,3.598 -0.438,3.598 H 83.115 Z M 82.5,70.459 h 3.334 c 3.16,0 3.073,3.861 -0.438,3.861 h -3.51 z M 80.306,58.832 77.235,78.05 h 8.95 c 3.686,0 9.075,-5.433 4.169,-9.872 5.045,-5.222 0.042,-9.302 -2.633,-9.347 -2.149,-0.035 -7.458,0 -7.458,0 h 0.043 z"
         fill="#33348e"
         id="path7284"
         style="fill:#ffffff" />
      <path
         d="m 118.129,79.864 h -0.752 l 0.629,-2.675 h -1.084 l 0.135,-0.575 h 2.922 l -0.137,0.575 h -1.084 z m 4.976,0 h -0.701 l 0.639,-2.716 h -0.01 l -1.308,2.716 h -0.735 l -0.017,-2.716 h -0.01 l -0.639,2.716 h -0.701 l 0.764,-3.25 h 1.095 l 0.049,2.563 h 0.01 l 1.242,-2.563 h 1.086 z"
         id="path7286"
         style="fill:#ffffff" />
    </g>
  </g>
  <style
     type="text/css"
     id="style3952">
	.st0{fill:#FC0C18;}
	.st1{fill:#FC0C18;}
</style>
</svg>
