<svg width="480" height="320" version="1.1" viewBox="0 0 127 84.667" xmlns="http://www.w3.org/2000/svg" xmlns:xlink="http://www.w3.org/1999/xlink">
 <defs>
  <linearGradient id="a" x1="23.998" x2="71.208" y1="-30.914" y2="103.75" gradientUnits="userSpaceOnUse">
   <stop stop-color="#f9c440" offset="0"/>
   <stop stop-color="#cc3b02" offset="1"/>
  </linearGradient>
 </defs>
 <rect width="127" height="84.667" ry="4.2333" fill="url(#a)" stroke-linecap="square" stroke-linejoin="round" stroke-width=".52917" style="paint-order:stroke fill markers"/>
 <g transform="matrix(.56568 0 0 .56568 8.98 -12.186)" clip-rule="evenodd" fill="#fff" fill-rule="evenodd">
  <path d="m81.535 101.95c-0.995-3.016-3.621-5.883-3.621-5.883s-3.951-5.129-11.705-6.877c-6.638-1.389-11.857 1.538-11.857 1.538s-4.736 1.9-8.297 5.822c-5.671 5.461-7.301 13.426-7.301 13.426s-2.171 6.939 1.268 12.43l3.741 4.525c5.28 4.406 10.922 4.857 10.922 4.857s4.556 1.025 9.866-0.361c4.645-0.936 8.025-3.23 8.025-3.23s7.693-4.252 9.805-12.941c-0.26895-4.4358 1.7778-8.9551-0.846-13.306zm-11.977 14.451s-3.078 5.371-9.835 4.736c-7.934-0.814-8.869-7.783-8.869-7.783s-1.086-5.129 3.801-9.594c4.948-4.164 10.107-3.531 10.107-3.531s3.469 0.334 5.25 6.066c2.291 7.302-0.454 10.106-0.454 10.106z"/>
  <path d="m149.63 100.36c-5.279-8.628-14.57-9.926-14.57-9.926s-2.957-0.996-9.293-0.152c-11.887 2.263-16.02 11.404-16.02 11.404s-4.256 6.697-2.564 14.812l5.189 10.258c3.83 3.59 5.398 3.59 5.641 3.803 5.068 2.293 10.951 0.965 10.951 0.965s7.422-0.725 14.211-6.004c5.43-3.982 7.785-9.834 7.785-9.834 0.054-4.8404 7.1827-5.8635-1.33-15.326zm-14.451 17.62c-8.537 5.127-13.908-0.484-13.908-0.484s-2.383-1.568-2.896-6.336c-0.361-5.52 5.129-8.387 5.129-8.387s2.898-1.779 6.518-1.508c3.621 0.271 4.766 0.029 7.693 2.203 2.773 2.504 2.594 4.344 2.594 4.344s0.995 6.214-5.13 10.168z"/>
  <path d="m150.96 115.68s0.18 4.826-0.576 6.004c-1.025 2.201-0.875 4.344-0.875 4.344s-0.693 6.516 6.85 7.604c5.189-0.031 5.822-4.346 5.912-6.186 0.303-1.447 0.182-8.176 0.182-8.176l6.729 5.49s4.889 4.104 7.754 6.486c2.988 2.354 3.738 2.775 3.738 2.775s0.637 0.754 2.928 0.482c1.842 0.031 3.531-1.629 3.531-1.629s2.141-1.568 2.682-4.314c0.666-3.258-1.867-4.855-1.867-4.855s-9.352-7.543-15.688-12.732c4.252-2.322 6.305-3.922 6.305-3.922s5.914-3.922 7.18-9.926c1.752-6.607-3.227-9.202-3.227-9.202s-3.109-2.233-5.734-3.41c-6.607-3.228-12.76-2.564-12.76-2.564s-8.75-0.603-14.453 6.427c-2.623 3.408-0.994 7.874-0.994 7.874s0.324 0.717 1.055 4.104c1.465 6.812 1.328 15.326 1.328 15.326zm11.463-13.397-0.574-7.874s5.521-0.121 7.814 0.271c4.527 0.694 4.283 1.961 4.283 1.961s-0.15 1.598-3.59 3.168c-3.74 1.81-7.933 2.474-7.933 2.474z"/>
  <path d="m107.18 116.5c-2.543-0.559-6.607 0.482-6.607 0.482s-5.671 2.08-6.548 2.051c-0.331-0.482-1.054-9.744-0.843-13.455 0.121-6.547-0.423-11.887-0.423-11.887s-0.271-6.305-3.651-10.046c-3.982-4.013-6.758-2.293-8.355-1.328-3.833 3.439-2.053 7.632-2.053 7.632l1.991 5.644s0.966 2.414 0.845 6.365l0.845 13.305c0 1.781 1.448 13.758 1.448 13.758s0.15 3.893 3.892 4.586c3.831 0.633 7.602-1.268 9.201-2.02 1.598-0.756 3.711-1.42 3.711-1.42s1.75-0.391 3.498-0.543c4.105-0.393 5.582-1.115 5.582-1.115s1.59-0.24 2.656-1.752c1.065-1.513 2.358-8.599-5.189-10.257z"/>
  <path d="m40.022 122.41c-2.695-0.805-5.792-0.271-5.792-0.271s-8.75 0.846-13.305-0.119c-7.06-1.236-6.82-8.84-6.82-8.84s-0.24-5.039 4.014-11.855c5.249-8.418 11.041-9.927 11.041-9.927s1.449-0.542 2.807 0.181c0.844 4.887 5.581 4.857 5.581 4.857s6.82 0.453 6.486-7.812c-0.784-6.79-7.332-7.725-10.077-8.357-8.235-1.479-13.575 2.926-13.575 2.926s-5.521 2.988-12.128 13.395c-4.497 6.457-5.039 11.525-5.039 11.525s-0.543 1.207-0.332 6.578c-0.119 4.193 1.449 7.238 1.449 7.238s2.384 7.213 9.925 10.17c4.585 1.9 11.284 1.869 11.284 1.869s6.486-0.09 11.464-0.361c2.716 0.211 4.013-1.207 4.013-1.207s3.046-1.99 2.745-5.461c0-1e-3 3.0188-6.9308-3.741-4.529z"/>
  <path d="m59.837 78.088h-3.978l-0.532-11.981-5.172 11.981h-2.653l-2.21-10.832-3.449 10.832h-6.764l-1.017-5.791h-4.598l-2.609 5.791h-4.156l8.533-19.364h4.907l2.608 15.651 5.084-15.651h3.934l1.946 10.611 4.511-10.611h4.775zm-26.374-9.55-0.728-3.756-1.68 3.756zm37.781 9.55 0.664-4.155h-6.943l0.551-3.449h6.037l0.664-4.155h-6.102l0.531-3.45h6.939l0.665-4.155h-11.008l-3.096 19.364zm51.684-19.364h-4.643l-3.935 6.321-2.475-6.321h-4.555l4.688 10.212-1.446 9.152h3.981l1.221-8.09z"/>
  <path d="m93.279 66.741c1.236-5.354 5.811-8.868 10.219-7.849 4.412 1.019 6.984 6.184 5.75 11.538-1.236 5.353-5.812 8.867-10.221 7.848-4.41-1.019-6.983-6.185-5.748-11.537zm6.022 7.66c2.105 0.941 4.684-0.906 5.756-4.126 1.072-3.221 0.238-6.597-1.867-7.538-2.105-0.942-4.68 0.905-5.754 4.127-1.075 3.222-0.239 6.595 1.865 7.537zm-85.09-13.952c-3.792 2.346-5.615 5.923-5.129 10.787 0.564 5.641 7.87 9.196 14.06 5.615 0.541-0.313 0.33-0.263 0.531-0.442l1.238-7.87h-7.385l-0.565 3.625h3.086l-0.354 1.946c-1.768 0.707-4.774 0.441-6.056-1.857-0.812-1.456-1.564-4.706 1.858-7.693 2.783-2.432 7.604-2.873 10.389-1.591 0 0 0.354-2.034 0.618-3.936-5.35-1.857-9.507-0.309-12.291 1.416z"/>
  <path d="m83.728 62.913h2.59c2.808 0 2.238 3.598-0.438 3.598h-2.765zm-1.228 7.546h3.334c3.16 0 3.073 3.861-0.438 3.861h-3.51zm-2.194-11.627-3.071 19.218h8.95c3.686 0 9.075-5.433 4.169-9.872 5.045-5.222 0.042-9.302-2.633-9.347-2.149-0.035-7.458 0-7.458 0h0.043z"/>
  <path d="m118.13 79.864h-0.752l0.629-2.675h-1.084l0.135-0.575h2.922l-0.137 0.575h-1.084zm4.976 0h-0.701l0.639-2.716h-0.01l-1.308 2.716h-0.735l-0.017-2.716h-0.01l-0.639 2.716h-0.701l0.764-3.25h1.095l0.049 2.563h0.01l1.242-2.563h1.086z"/>
 </g>
 <style type="text/css">.st0{fill:#FC0C18;}
	.st1{fill:#FC0C18;}</style>
</svg>
