<svg width="480" height="320" version="1.1" viewBox="0 0 127 84.667" xmlns="http://www.w3.org/2000/svg">
 <defs>
  <linearGradient id="a" x1="32.282" x2="54.831" y1="-1.175e-16" y2="84.155" gradientUnits="userSpaceOnUse">
   <stop stop-color="#009912" offset="0"/>
   <stop stop-color="#004b04" offset="1"/>
  </linearGradient>
 </defs>
 <rect x="1.25e-7" y="1.3549e-6" width="127" height="84.667" ry="4.2333" fill="url(#a)" stroke-linecap="square" stroke-linejoin="round" stroke-width=".52917" style="paint-order:stroke fill markers"/>
 <g transform="matrix(1.0173 0 0 1.0173 -2.7113 -1.2087)" fill="#0f6" stroke-width=".26458" aria-label="hacks">
  <path d="m51.481 68.059c0.0038-0.57126 0.33449-0.91702 0.84185-0.91702 0.52992 0 0.83058 0.34576 0.82682 0.91702v3.2471h2.0746v-3.6831c0.0038-1.2628-0.793-2.1648-2.0144-2.1648-0.85313 0-1.4845 0.43596-1.7438 1.1726h-0.06013v-3.0217h-1.9994v7.6969h2.0746z"/>
  <path d="m57.855 71.396c0.75165 0 1.3192-0.25556 1.6687-0.90199h0.0451v0.81179h1.9393v-3.9537c0-1.0673-1.011-1.8942-2.6609-1.8942-1.725 0-2.5744 0.90199-2.6458 1.9543h1.9092c0.04886-0.35704 0.31194-0.52616 0.70656-0.52616 0.36079 0 0.61636 0.16536 0.61636 0.46603v0.01503c0 0.33449-0.36831 0.43972-1.3379 0.51112-1.1914 0.08644-2.1197 0.5675-2.1197 1.834 0 1.15 0.7742 1.6837 1.8791 1.6837zm0.67649-1.3079c-0.35328 0-0.60132-0.17288-0.60132-0.49609 0-0.2969 0.21046-0.52616 0.69152-0.60132 0.33073-0.05262 0.60884-0.12026 0.82682-0.21046v0.48106c0 0.52616-0.44724 0.82682-0.91702 0.82682z"/>
  <path d="m65.281 71.411c1.71 0 2.7586-0.98091 2.7811-2.5105h-1.9242c-0.0451 0.60508-0.37207 0.93205-0.82682 0.93205-0.54495 0-0.90199-0.46603-0.90199-1.4131s0.35704-1.4131 0.90199-1.4131c0.45851 0 0.77045 0.32697 0.82682 0.93205h1.9242c-0.01128-1.5033-1.0824-2.4805-2.7811-2.4805-1.8791 0-2.9916 1.2026-2.9916 2.9766 0 1.7739 1.1124 2.9766 2.9916 2.9766z"/>
  <path d="m68.919 71.306h2.0746v-1.6386l0.31194-0.39462 1.1763 2.0332h2.3752l-2.022-3.2434 1.9618-2.5293h-2.3301l-1.3981 1.9393h-0.07517v-3.8635h-2.0746z"/>
  <path d="m80.615 67.413c-0.05262-1.2214-1.0674-1.9543-2.736-1.9543-1.6499 0-2.6684 0.67649-2.6609 1.8791-0.0075 0.9095 0.58253 1.492 1.7589 1.6987l1.0222 0.1804c0.45099 0.08268 0.65394 0.20295 0.66146 0.42093-0.0075 0.24053-0.28187 0.37583-0.66146 0.37583-0.46978 0-0.80051-0.20295-0.85689-0.57126h-2.0595c0.11275 1.1839 1.135 1.9693 2.9014 1.9693 1.5973 0 2.7736-0.77796 2.7811-2.0144-0.0075-0.85313-0.57877-1.3492-1.7589-1.5634l-1.1726-0.21046c-0.43972-0.07892-0.56374-0.23677-0.55622-0.40589-0.0075-0.24053 0.28939-0.37583 0.64642-0.37583 0.40965 0 0.75166 0.21798 0.78172 0.57126z"/>
 </g>
 <path transform="scale(.26458)" d="m80.637 66.357c-6.7421-0.06484-12.22 2.2926-16.312 4.8281-8.1074 5.0158-12.006 12.663-10.967 23.062 1.2058 12.061 16.826 19.66 30.061 12.004 0.14349-0.083 0.20202-0.124 0.30078-0.18554l-1.248 2.8301h8.8867l5.5781-12.381h9.8301l2.1738 12.381h14.461l7.375-23.158 4.7246 23.158h5.6719l11.059-25.615 1.1367 25.615h8.5059l-1.7969-41.4h-10.209l-9.6445 22.688-4.1602-22.688h-8.4102l-10.871 33.463-5.5762-33.463h-10.49l-15.885 36.045 2.3711-15.061h-15.791l-1.207 7.752h6.5977l-0.75586 4.1602c-3.78 1.5116-10.208 0.94246-12.949-3.9707-1.7361-3.113-3.3436-10.061 3.9727-16.447 5.9501-5.1997 16.259-6.1433 22.213-3.4023 0 0 0.75587-4.3495 1.3203-8.416-3.5745-1.2407-6.9003-1.7694-9.9648-1.7988zm171.05 1.125c-8.222 0.13502-15.998 7.1382-18.311 17.154-2.6405 11.443 2.8604 22.487 12.289 24.666 9.4265 2.1786 19.209-5.3345 21.852-16.779 2.6383-11.447-2.86-22.489-12.293-24.668-1.178-0.27233-2.3625-0.39234-3.5371-0.37305zm-82.531 0.01367-6.6191 41.4h23.729l1.4199-8.8828h-14.846l1.1777-7.375h12.908l1.4199-8.8828h-13.047l1.1348-7.375h14.836l1.4219-8.8848h-23.535zm94.24 0 10.023 21.834-3.0918 19.566h8.5117l2.6094-17.297 15.316-24.104h-9.9258l-8.4141 13.516-5.291-13.516h-9.7383zm-46.334 0.19726c-5.0439-0.01035-11.211 0.02988-11.422 0.03125v2e-3l-6.5664 41.09h19.135c7.8807 0 19.403-11.617 8.9141-21.107 10.786-11.165 0.0883-19.888-5.6309-19.984-1.1486-0.01871-2.7194-0.02774-4.4297-0.03125zm34.895 7.8594c0.88673-0.02171 1.7655 0.14581 2.6094 0.52344 4.5005 2.0119 6.2841 9.2306 3.9922 16.117-2.292 6.8844-7.8061 10.832-12.307 8.8203-4.4984-2.014-6.2866-9.2246-3.9883-16.113 1.8657-5.5971 5.8509-9.2536 9.6934-9.3477zm-39.002 0.90039h5.5391c6.0036 0 4.7838 7.6914-0.9375 7.6914h-5.9121l1.3106-7.6914zm-109.02 3.9961 1.5566 8.0293h-5.1484zm106.4 12.137h7.1289c6.7561 0 6.5691 8.2559-0.9375 8.2559h-7.5039zm73.885 13.16-0.28906 1.2285h2.3164l-1.3438 5.7188h1.6074l1.3457-5.7188h2.3164l0.29297-1.2285h-6.2461zm7.1191 0-1.6348 6.9473h1.5l1.3652-5.8066h0.0215l0.0371 5.8066h1.5703l2.7969-5.8066h0.0215l-1.3652 5.8066h1.498l1.6328-6.9473h-2.3203l-2.6562 5.4785h-0.0215l-0.10547-5.4785h-2.3398zm-192.57 7.1562c-13.116 0.19583-21.244 6.9004-21.244 6.9004s-11.804 6.3883-25.93 28.639c-9.6147 13.805-10.773 24.641-10.773 24.641s-1.1621 2.5812-0.71094 14.064c-0.25444 8.9647 3.0977 15.475 3.0977 15.475s5.0979 15.422 21.221 21.744c9.8028 4.0622 24.125 3.9961 24.125 3.9961s13.867-0.19208 24.51-0.77149c5.8069 0.45112 8.5801-2.582 8.5801-2.582s6.5127-4.2547 5.8691-11.676v-2e-3c11.289 9.4201 23.352 10.385 23.352 10.385s9.7409 2.1918 21.094-0.77148c9.9311-2.0012 17.158-6.9062 17.158-6.9062s16.447-9.0907 20.963-27.668c0 3.8078 3.0957 29.414 3.0957 29.414s0.31985 8.325 8.3203 9.8066c8.1907 1.3534 16.253-2.7125 19.672-4.3203 3.4166-1.6163 7.9355-3.0352 7.9355-3.0352s3.7413-0.83518 7.4785-1.1602c8.7766-0.84024 11.934-2.3848 11.934-2.3848s3.4006-0.51341 5.6797-3.7461l2e-3 -2e-3c8.1871 7.6735 11.539 7.6736 12.059 8.1289 10.835 4.9025 23.412 2.0625 23.412 2.0625s15.87-1.5494 30.385-12.836c11.605-8.5104 16.641-21.014 16.645-21.023 0 0 0.38392 10.317-1.2324 12.836-2.1915 4.7058-1.8711 9.2891-1.8711 9.2891s-1.4806 13.932 14.646 16.258c11.094-0.0663 12.446-9.2926 12.639-13.227 0.64781-3.0937 0.39063-17.48 0.39063-17.48l14.387 11.738s10.453 8.7744 16.578 13.867c6.3884 5.0329 7.9922 5.9316 7.9922 5.9316s1.3616 1.6128 6.2598 1.0312c3.9382 0.0663 7.5488-3.4824 7.5488-3.4824s4.5777-3.3536 5.7344-9.2246c1.4239-6.9657-3.9922-10.379-3.9922-10.379s-19.995-16.127-33.541-27.221c9.0909-4.9645 13.48-8.3867 13.48-8.3867s12.645-8.384 15.352-21.221c3.7458-14.126-6.9004-19.674-6.9004-19.674s-6.6475-4.7746-12.26-7.291c-14.126-6.9015-27.281-5.4824-27.281-5.4824s-18.707-1.29-30.9 13.74c-5.608 7.2864-2.125 16.836-2.125 16.836s0.69297 1.532 2.2559 8.7734c2.7e-4 1e-3 -2.7e-4 3e-3 0 4e-3 -2e-3 -2e-3 -2e-3 -4e-3 -4e-3 -6e-3 -11.287-18.447-31.15-21.221-31.15-21.221s-6.3227-2.1307-19.869-0.32617c-25.415 4.8383-34.252 24.383-34.252 24.383s-9.098 14.318-5.4805 31.668l4e-3 6e-3c-1e-3 -2.7e-4 -3e-3 2.8e-4 -4e-3 0-5.437-1.1952-14.127 1.0312-14.127 1.0312s-12.125 4.4468-14 4.3848c-0.70769-1.0305-2.2539-20.833-1.8027-28.768 0.25871-13.998-0.90429-25.414-0.90429-25.414s-0.57819-13.48-7.8047-21.479c-8.5136-8.5799-14.449-4.903-17.863-2.8398-8.195 7.3526-4.3906 16.318-4.3906 16.318l4.2578 12.066s2.0654 5.1621 1.8066 13.609c-7.5e-4 -1e-3 -1e-3 -3e-3 -2e-3 -4e-3 -2.1273-6.4483-7.7422-12.576-7.7422-12.576s-8.4472-10.966-25.025-14.703c-14.192-2.9697-25.35 3.2871-25.35 3.2871s-10.127 4.062-17.74 12.447c-12.125 11.676-15.609 28.705-15.609 28.705s-4.639 14.83 2.707 26.568c-5.761-1.7193-12.379-0.57813-12.379-0.57813s-18.709 1.8093-28.447-0.2539c-15.094-2.6426-14.58-18.9-14.58-18.9s-0.51309-10.773 8.582-25.346c11.222-17.998 23.605-21.225 23.605-21.225s3.0985-1.1591 6.002 0.38672c1.8045 10.448 11.932 10.385 11.932 10.385s14.581 0.96758 13.867-16.703c-1.6762-14.517-15.676-16.516-21.545-17.867-2.751-0.49409-5.3504-0.6808-7.7793-0.64454zm285.2 30.855c3.8891-2e-3 9.6488 0.0934 12.713 0.61719 9.6788 1.4838 9.1582 4.1934 9.1582 4.1934s-0.32116 3.4168-7.6758 6.7734c-7.9962 3.8698-16.961 5.2891-16.961 5.2891l-1.2285-16.834s1.6607-0.0378 3.9941-0.0391zm-213.45 12.412c1.1994-0.0122 1.8887 0.0723 1.8887 0.0723s7.4168 0.71364 11.225 12.969c4.8982 15.612-0.9707 21.605-0.9707 21.605s-6.5808 11.485-21.027 10.127c-16.963-1.7403-18.963-16.641-18.963-16.641s-2.3215-10.965 8.127-20.512c7.9342-6.677 16.123-7.5844 19.721-7.6211zm139.98 2.2109c0.47054 4e-3 0.94987 0.0224 1.4336 0.0586 7.7418 0.57941 10.189 0.0609 16.447 4.709 5.9287 5.3536 5.5449 9.2891 5.5449 9.2891s2.1286 13.285-10.967 21.738c-18.252 10.962-29.736-1.0352-29.736-1.0352s-5.0946-3.3508-6.1914-13.545c-0.77182-11.802 10.967-17.932 10.967-17.932s5.444-3.3427 12.502-3.2832z" clip-rule="evenodd" fill="#0f6" fill-rule="evenodd" stroke-width="2.138"/>
 <style type="text/css">.st0{fill:#FC0C18;}
	.st1{fill:#FC0C18;}</style>
 <style type="text/css">.st0{fill:#FC0C18;}
	.st1{fill:#FC0C18;}</style>
</svg>
