<svg width="480" height="320" version="1.1" viewBox="0 0 480 320" xml:space="preserve" xmlns="http://www.w3.org/2000/svg"><defs><linearGradient id="a" x1="24" x2="71.21" y1="-30.91" y2="103.8" gradientTransform="matrix(3.78 0 0 3.78 -8.828e-6 -4.232e-8)" gradientUnits="userSpaceOnUse"><stop stop-color="#2a7329" offset="0"/><stop stop-color="#29332d" offset="1"/></linearGradient></defs><rect width="480" height="320" ry="24" fill="url(#a)"/><path d="m71.45 54.3c-6.354-0.06937-11.52 2.142-15.38 4.52-7.646 4.719-11.33 11.93-10.36 21.72 1.115 11.36 15.82 18.55 28.3 11.35 0.1384-0.08038 0.1946-0.1225 0.2891-0.1816l-1.186 2.682 8.375 0.0098 5.272-11.66 9.26 0.01172 2.031 11.67 13.62 0.02148 6.978-21.81 4.428 21.82 5.344 0.0098 10.46-24.12 1.031 24.14 8.01 0.0098-1.635-39.02-9.615-0.0098-9.115 21.36-3.885-21.38-7.928-0.01172-10.29 31.51-5.209-31.53-9.885-0.01172-15.02 33.95 2.26-14.2-14.88-0.01953-1.146 7.301 6.219 0.01172-0.7188 3.916c-3.562 1.417-9.624 0.8757-12.2-3.76-1.625-2.938-3.136-9.48 3.76-15.49 5.615-4.896 15.32-5.772 20.94-3.178 0 0 0.7181-4.103 1.26-7.926-3.369-1.172-6.502-1.676-9.391-1.707zm83.39 1.195-6.293 39 22.36 0.03125 1.344-8.375-13.99-0.01953 1.125-6.938 12.17 0.0098 1.344-8.365-12.29-0.01953 1.084-6.949 13.98 0.02148 1.344-8.365zm77.77 0.0918c-7.753 0.1175-15.09 6.705-17.28 16.14-2.5 10.78 2.668 21.2 11.54 23.26 8.885 2.062 18.11-5 20.61-15.78 2.51-10.78-2.666-21.2-11.54-23.26-1.111-0.2578-2.226-0.3742-3.334-0.3574zm11.03 0.0332 9.406 20.58-2.926 18.44 8.01 0.0098 2.49-16.3 14.46-22.69-9.354-0.01172-7.938 12.72-4.978-12.74zm-48.63 0.1152c-3.16 0.0051-5.695 0.02095-5.787 0.02148l-6.24 38.71s12.81 0.02149 18.03 0.02149c7.417 0.0208 18.29-10.92 8.418-19.88 10.18-10.5 0.1146-18.74-5.281-18.83-2.167-0.04167-5.924-0.04622-9.141-0.04102zm37.84 7.449c0.8355-0.01927 1.664 0.1406 2.459 0.498 4.24 1.906 5.905 8.71 3.738 15.2-2.167 6.479-7.364 10.2-11.6 8.291-4.24-1.896-5.917-8.698-3.74-15.19 1.769-5.273 5.526-8.717 9.146-8.801zm-36.75 0.8008s0.1771-6.54e-4 5.219 0.0098c5.656 0.01042 4.499 7.26-0.8965 7.25-4.417-0.01042-5.572-0.0098-5.572-0.0098zm-102.7 3.615 1.459 7.572-4.854-0.0098zm100.2 11.59s1.677-6.54e-4 6.719 0.0098c6.365 0.01042 6.178 7.781-0.8945 7.781-4.417-0.0104-7.074-0.0098-7.074-0.0098zm-93.76 27.38c-7.901-0.1334-16.02 1.861-22.25 6.523-12.52 9.375-38.16 36.87-37.58 69.58-0.2708 9.01 2.375 15.56 2.375 15.56s4.645 16.18 20.82 22.54c9.844 4.094 24.69 3.375 24.69 3.375s27.91 0.0527 27.98 0.0527c6.011 0.0113 11.7-8.03 11.12-14.98 7.712 7.685 19.05 11.74 32.06 12.02 29.47 0.6391 50.11-18.03 52.85-43.72 0.688 11.28 1.226 20.1 1.635 26.8 0.0561 0.9197 0.038 2.089 0.0117 3.338-0.0311 1.459-0.0739 3.072-0.043 4.725 3e-4 -0.0256 2e-3 -0.0506 2e-3 -0.0762 0.0947 5.083 0.9251 10.44 5.248 12.02 10.58 3.885 27.93-10.73 48.84-11.3 2.383-0.0658 4.579-1.424 6.291-3.477 7.043 7.708 17.42 12.15 31.01 11.76 18.98-0.5471 48.67-15.89 53.25-40.67 0.0737 4.476 0.0699 9.516-0.043 15.38-0.0833 4.344-3.083 6.189-3.447 10.45-0.3958 4.604 1.24 16.79 14.16 17.33 11.12 0.4688 13.09-9.093 13.09-13.04 0.0104-6.531 0.0312-18.36 0.0312-18.36s30.1 25.34 35.28 29.79c2.792 2.396 6.415 3.751 10.08 3.428 2.792-0.2396 6.001-1.396 9.137-4.49 6.406-6.281 2.604-13.64 0.3438-16.86-0.6667-0.9479-1.459-1.792-2.334-2.553-4.104-3.521-19.71-16.9-31.42-26.51 9.146-4.979 13.55-8.406 13.55-8.406s12.72-8.407 15.45-21.3c2.094-12.38-0.2291-18.83-18.09-27.62-14.19-6.979-43.78-13.24-59.56 8.73-3.646 5.073-3.667 12.92-2.156 16.91 1.712 4.524 3.303 8.624 4.416 15.69-5.133-16.96-19.39-29.5-41.27-29.65-29.12-0.1979-52.58 16.44-52.5 47.38 8e-3 3.499 0.283 6.868 0.8047 10.09-3.795-0.3325-8.486 0.04-14.24 1.404-8.344 1.979-14.98 5.406-14.98 5.406l-1.188-48.28c-0.0625-2.333-0.2409-4.646-0.543-6.959-0.8125-6.229-2.749-18.1-6.104-22.75-5.625-7.771-17.38-8.135-21.19-0.6348-2.583 5.104-2.26 13.82 1.772 24.16 2.042 5.25 3.094 10.82 3.375 16.45 0 0 0.2414 3.954 0.2773 4.543-4.429-18.64-19.38-33.13-39.72-33.83-26-0.8958-51.27 21.99-54.31 48.02-0.125 1.031-0.2187 2.051-0.2812 3.051-0.6186 9.167 0.9817 16.91 4.277 23.22-2.819-1.246-6.716-1.839-11.93-1.41-11.79 0.9688-46.23 9.853-45.49-19.95 0.5833-23.94 23.5-45.31 33.94-47.82 1.938-0.4688 3.833 0.6966 4.469 2.582 2.844 8.385 14.3 12.68 21.93 5.594 2.76-2.562 3.615-5.895 4.303-12.98 1.176-12.02-13.11-20.03-28.2-20.28zm282.2 29.23 15.68 0.0215c7.208 0.0104 11.12 8.553 6.322 13.93-3.354 3.771-9.844 6.812-22.09 6.791zm-212.9 15.03c11.69 0.0208 16.99 11.5 16.69 24.45-0.4375 17.97-12.4 21.9-24.09 21.88-11.69-0.0208-19.51-10.41-17.46-23.2 2.042-12.79 13.18-23.16 24.86-23.14zm143.6 2.48c13.16 0.0104 22.84 9.301 21.62 20.76s-12.9 20.74-26.06 20.73c-13.17-0.0104-22.84-9.301-21.62-20.76 1.229-11.46 12.9-20.74 26.06-20.73z" fill="#afa"/><path d="m192.6 256v23.97h6.422v-9.482h4.703v9.482h6.422v-23.97h-6.422v9.82h-4.703v-9.82zm25.2 0-6.16 23.97h6.422l0.7851-3.584h5.748l0.748 3.584h6.57l-6.16-23.97h-7.953zm20.91 0c-3.659 0-5.488 1.545-5.488 4.631v14.71c0 3.086 1.83 4.629 5.488 4.629h5.264c3.659 0 5.488-1.543 5.488-4.629v-4.182h-6.533v3.695c0 0.5476-0.3114 0.8223-0.9336 0.8223h-1.307c-0.6222 0-0.9336-0.2747-0.9336-0.8223v-13.74c0-0.5476 0.3114-0.8203 0.9336-0.8203h1.307c0.6222 0 0.9336 0.2728 0.9336 0.8203v3.846h6.533v-4.33c0-3.086-1.83-4.631-5.488-4.631h-5.264zm13.18 0v23.97h6.533v-23.97zm11.01 0-4.443 11.72 4.48 12.25h7.018l-4.703-12.25 4.666-11.72zm13.85 0c-3.634 0-5.449 1.545-5.449 4.631v4.928c0 1.518 0.3725 2.688 1.119 3.51 0.7716 0.7964 2.078 1.193 3.92 1.193h3.584c0.6222 0 0.9336 0.2747 0.9336 0.8223v3.396c0 0.5476-0.3114 0.8223-0.9336 0.8223h-1.082c-0.6222 0-0.9336-0.2747-0.9336-0.8223v-2.016h-6.533v2.875c0 3.086 1.83 4.629 5.488 4.629h5.076c3.634 0 5.451-1.543 5.451-4.629v-4.928c0-1.493-0.3989-2.627-1.195-3.398-0.7716-0.7716-2.078-1.156-3.92-1.156h-3.508c-0.6222 0-0.9336-0.2747-0.9336-0.8223v-3.547c0-0.5476 0.3114-0.8203 0.9336-0.8203h1.082c0.6222 0 0.9336 0.2728 0.9336 0.8203v2.016h6.533v-2.873c0-3.086-1.817-4.631-5.451-4.631h-5.115zm-54.99 7.131 1.828 8.625h-3.732z" fill="#afa"/></svg>
