<svg width="480" height="320" version="1.1" viewBox="0 0 127 84.667" xmlns="http://www.w3.org/2000/svg" xmlns:xlink="http://www.w3.org/1999/xlink">
 <defs>
  <linearGradient id="a" x1="32.282" x2="54.831" y1="-1.175e-16" y2="84.155" gradientUnits="userSpaceOnUse">
   <stop stop-color="#009912" offset="0"/>
   <stop stop-color="#004b04" offset="1"/>
  </linearGradient>
 </defs>
 <g>
  <rect x="1.25e-7" y="1.3549e-6" width="127" height="84.667" ry="4.2333" fill="url(#a)" stroke-linecap="square" stroke-linejoin="round" stroke-width=".52917" style="paint-order:stroke fill markers"/>
  <path transform="scale(.26458)" d="m80.637 66.357c-6.7421-0.064836-12.22 2.2926-16.312 4.8281-8.1074 5.0158-12.006 12.663-10.967 23.062 1.2058 12.061 16.826 19.66 30.061 12.004 0.14349-0.08302 0.20202-0.124 0.30078-0.18554l-1.248 2.8301h8.8867l5.5781-12.381h9.8301l2.1738 12.381h14.461l7.375-23.158 4.7246 23.158h5.6719l11.059-25.615 1.1367 25.615h8.5059l-1.7969-41.4h-10.209l-9.6445 22.688-4.1602-22.688h-8.4102l-10.871 33.463-5.5762-33.463h-10.49l-15.885 36.045 2.3711-15.061h-15.791l-1.207 7.752h6.5977l-0.75586 4.1602c-3.78 1.5116-10.208 0.94246-12.949-3.9707-1.7361-3.113-3.3436-10.061 3.9727-16.447 5.9501-5.1997 16.259-6.1433 22.213-3.4023 0 0 0.75587-4.3495 1.3203-8.416-3.5745-1.2407-6.9003-1.7694-9.9648-1.7988zm171.05 1.125c-8.222 0.13502-15.998 7.1382-18.311 17.154-2.6405 11.443 2.8604 22.487 12.289 24.666 9.4265 2.1786 19.209-5.3345 21.852-16.779 2.6383-11.447-2.86-22.489-12.293-24.668-1.178-0.27233-2.3625-0.39234-3.5371-0.37305zm-82.531 0.013672-6.6191 41.4h23.729l1.4199-8.8828h-14.846l1.1777-7.375h12.908l1.4199-8.8828h-13.047l1.1348-7.375h14.836l1.4219-8.8848h-23.535zm94.24 0 10.023 21.834-3.0918 19.566h8.5117l2.6094-17.297 15.316-24.104h-9.9258l-8.4141 13.516-5.291-13.516h-9.7383zm-46.334 0.19726c-5.0439-0.010345-11.211 0.029876-11.422 0.03125v0.001953l-6.5664 41.09h19.135c7.8807 0 19.403-11.617 8.9141-21.107 10.786-11.165 0.08834-19.888-5.6309-19.984-1.1486-0.018708-2.7194-0.027742-4.4297-0.03125zm34.895 7.8594c0.88673-0.021713 1.7655 0.14581 2.6094 0.52344 4.5005 2.0119 6.2841 9.2306 3.9922 16.117-2.292 6.8844-7.8061 10.832-12.307 8.8203-4.4984-2.014-6.2866-9.2246-3.9883-16.113 1.8657-5.5971 5.8509-9.2536 9.6934-9.3477zm-39.002 0.90039h5.5391c6.0036 0 4.7838 7.6914-0.9375 7.6914h-5.9121l1.3106-7.6914zm-109.02 3.9961 1.5566 8.0293h-5.1484l3.5918-8.0293zm106.4 12.137h7.1289c6.7561 0 6.5691 8.2559-0.9375 8.2559h-7.5039l1.3125-8.2559zm73.885 13.16-0.28906 1.2285h2.3164l-1.3438 5.7188h1.6074l1.3457-5.7188h2.3164l0.29297-1.2285h-6.2461zm7.1191 0-1.6348 6.9473h1.5l1.3652-5.8066h0.02148l0.03711 5.8066h1.5703l2.7969-5.8066h0.02148l-1.3652 5.8066h1.498l1.6328-6.9473h-2.3203l-2.6562 5.4785h-0.02149l-0.10547-5.4785h-2.3398zm-192.57 7.1562c-13.116 0.19583-21.244 6.9004-21.244 6.9004s-11.804 6.3883-25.93 28.639c-9.6147 13.805-10.773 24.641-10.773 24.641s-1.1621 2.5812-0.71094 14.064c-0.25444 8.9647 3.0977 15.475 3.0977 15.475s5.0979 15.422 21.221 21.744c9.8028 4.0622 24.125 3.9961 24.125 3.9961s13.867-0.19208 24.51-0.77149c5.8069 0.45112 8.5801-2.582 8.5801-2.582s6.5127-4.2547 5.8691-11.676v-0.00195c11.289 9.4201 23.352 10.385 23.352 10.385s9.7409 2.1918 21.094-0.77148c9.9311-2.0012 17.158-6.9062 17.158-6.9062 0 0 16.447-9.0907 20.963-27.668 0 3.8078 3.0957 29.414 3.0957 29.414s0.31985 8.325 8.3203 9.8066c8.1907 1.3534 16.253-2.7125 19.672-4.3203 3.4166-1.6163 7.9355-3.0352 7.9355-3.0352s3.7413-0.83518 7.4785-1.1602c8.7766-0.84024 11.934-2.3848 11.934-2.3848s3.4006-0.51341 5.6797-3.7461l0.00195-0.00195c8.1871 7.6735 11.539 7.6736 12.059 8.1289 10.835 4.9025 23.412 2.0625 23.412 2.0625s15.87-1.5494 30.385-12.836c11.605-8.5104 16.641-21.014 16.645-21.023 0 0 0.38392 10.317-1.2324 12.836-2.1915 4.7058-1.8711 9.2891-1.8711 9.2891s-1.4806 13.932 14.646 16.258c11.094-0.06629 12.446-9.2926 12.639-13.227 0.64781-3.0937 0.39063-17.48 0.39063-17.48l14.387 11.738s10.453 8.7744 16.578 13.867c6.3884 5.0329 7.9922 5.9316 7.9922 5.9316s1.3616 1.6128 6.2598 1.0312c3.9382 0.06629 7.5488-3.4824 7.5488-3.4824s4.5777-3.3536 5.7344-9.2246c1.4239-6.9657-3.9922-10.379-3.9922-10.379s-19.995-16.127-33.541-27.221c9.0909-4.9645 13.48-8.3867 13.48-8.3867s12.645-8.384 15.352-21.221c3.7458-14.126-6.9004-19.674-6.9004-19.674s-6.6475-4.7746-12.26-7.291c-14.126-6.9015-27.281-5.4824-27.281-5.4824s-18.707-1.29-30.9 13.74c-5.608 7.2864-2.125 16.836-2.125 16.836s0.69297 1.532 2.2559 8.7734c2.7e-4 0.00124-2.7e-4 0.00267 0 0.00391-0.00162-0.00181-0.00228-0.00406-0.00391-0.00586-11.287-18.447-31.15-21.221-31.15-21.221s-6.3227-2.1307-19.869-0.32617c-25.415 4.8383-34.252 24.383-34.252 24.383s-9.098 14.318-5.4805 31.668l0.00391 0.00586c-0.00126-2.7e-4 -0.00265 2.8e-4 -0.00391 0-5.437-1.1952-14.127 1.0312-14.127 1.0312s-12.125 4.4468-14 4.3848c-0.70769-1.0305-2.2539-20.833-1.8027-28.768 0.25871-13.998-0.90429-25.414-0.90429-25.414s-0.57819-13.48-7.8047-21.479c-8.5136-8.5799-14.449-4.903-17.863-2.8398-8.195 7.3526-4.3906 16.318-4.3906 16.318l4.2578 12.066s2.0654 5.1621 1.8066 13.609c-7.5e-4 -0.00126-0.00119-0.00265-0.00195-0.00391-2.1273-6.4483-7.7422-12.576-7.7422-12.576s-8.4472-10.966-25.025-14.703c-14.192-2.9697-25.35 3.2871-25.35 3.2871s-10.127 4.062-17.74 12.447c-12.125 11.676-15.609 28.705-15.609 28.705 0 0-4.639 14.83 2.707 26.568-5.761-1.7193-12.379-0.57813-12.379-0.57813s-18.709 1.8093-28.447-0.2539c-15.094-2.6426-14.58-18.9-14.58-18.9s-0.51309-10.773 8.582-25.346c11.222-17.998 23.605-21.225 23.605-21.225s3.0985-1.1591 6.002 0.38672c1.8045 10.448 11.932 10.385 11.932 10.385s14.581 0.96758 13.867-16.703c-1.6762-14.517-15.676-16.516-21.545-17.867-2.751-0.49409-5.3504-0.6808-7.7793-0.64454zm285.2 30.855c3.8891-0.00213 9.6488 0.09337 12.713 0.61719 9.6788 1.4838 9.1582 4.1934 9.1582 4.1934s-0.32116 3.4168-7.6758 6.7734c-7.9962 3.8698-16.961 5.2891-16.961 5.2891l-1.2285-16.834s1.6607-0.03779 3.9941-0.03907zm-213.45 12.412c1.1994-0.01222 1.8887 0.07227 1.8887 0.07227s7.4168 0.71364 11.225 12.969c4.8982 15.612-0.9707 21.605-0.9707 21.605s-6.5808 11.485-21.027 10.127c-16.963-1.7403-18.963-16.641-18.963-16.641s-2.3215-10.965 8.127-20.512c7.9342-6.677 16.123-7.5844 19.721-7.6211zm139.98 2.2109c0.47054 0.00397 0.94987 0.02238 1.4336 0.05859 7.7418 0.57941 10.189 0.06092 16.447 4.709 5.9287 5.3536 5.5449 9.2891 5.5449 9.2891s2.1286 13.285-10.967 21.738c-18.252 10.962-29.736-1.0352-29.736-1.0352 0 0-5.0946-3.3508-6.1914-13.545-0.77182-11.802 10.967-17.932 10.967-17.932s5.444-3.3427 12.502-3.2832zm-122.41 82.031v29.092h2.5293v-13.637c0-3.8068 2.5565-6.1504 6.0508-6.1504 3.3807 0 5.5391 2.2148 5.5391 5.8086v13.979h2.543v-14.135c0-5.1988-3.0116-7.9688-7.4434-7.9688-3.2954 0-5.4402 1.4505-6.4629 3.709h-0.22656v-10.697h-2.5293zm67.855 0v29.092h2.5273v-8.4531l2.5156-2.3574 8.5508 10.811h3.2383l-9.9004-12.473 9.332-9.3457h-3.1953l-10.229 10.27h-0.3125v-17.543h-2.5273zm-36.719 6.9746c-3.3381 0-6.7766 1.3214-8.2539 4.8867l2.4024 0.86718c0.79545-1.875 2.7685-3.4805 5.9219-3.4805 3.3096 0 5.1426 1.8178 5.1426 4.8008v0.51172c0 1.6477-2.0462 1.6763-5.7109 2.1309-4.929 0.61079-8.3809 1.9885-8.3809 6.3066 0 4.2045 3.2108 6.5898 7.1738 6.5898 3.6364 0 5.8526-2.0174 6.7617-3.9492h0.15625v3.4531h2.5293v-14.816c0-5.8522-4.4041-7.3008-7.7422-7.3008zm22.939 0c-5.7102 0-9.6016 4.7442-9.6016 11.307 0 6.5057 3.7781 11.264 9.6445 11.264 4.5454 0 7.7418-2.8676 8.3242-6.8164h-2.5566c-0.58239 2.7841-2.8699 4.502-5.7676 4.502-4.2756 0-7.1016-3.7207-7.1016-9.0332 0-5.2841 2.9112-8.9219 7.1016-8.9219 3.1108 0 5.2141 2.003 5.7539 4.4746h2.5566c-0.59659-4.0483-3.9785-6.7754-8.3535-6.7754zm42.061 0c-4.4034 0-7.5996 2.5137-7.5996 6.1074 0 2.9261 1.7758 4.9151 5.5684 5.8242l3.5644 0.85352c2.4006 0.56818 3.5508 1.8036 3.5508 3.5508 0 2.2727-2.1731 3.9629-5.5254 3.9629-2.9829 0-4.8423-1.3503-5.4531-3.9356l-2.4297 0.59766c0.76705 3.6364 3.6502 5.6094 7.9258 5.6094 4.8011 0 8.0957-2.6403 8.0957-6.3476 0-2.9119-1.8319-4.859-5.4824-5.7539l-3.2949-0.80859c-2.7131-0.68182-3.9766-1.7768-3.9766-3.666 0-2.2159 2.1163-3.7637 5.0566-3.7637s4.3885 1.5476 5.0703 3.5078l2.3145-0.65234c-1.0653-3.1534-3.3933-5.0859-7.3848-5.0859zm-59.787 10.598v3.1523c0 3.5795-2.5421 6.5488-6.5762 6.5488-2.8551 0-4.9863-1.5201-4.9863-4.1621 0-2.642 2.1584-3.7505 5.8516-4.2051 1.7898-0.21305 4.9723-0.60956 5.7109-1.334z" clip-rule="evenodd" fill="#0f6" fill-rule="evenodd" stroke-width="2.138"/>
 </g>
 <style type="text/css">.st0{fill:#FC0C18;}
	.st1{fill:#FC0C18;}</style>
 <style type="text/css">.st0{fill:#FC0C18;}
	.st1{fill:#FC0C18;}</style>
</svg>
