<svg width="480" height="320" version="1.1" viewBox="0 0 127 84.667" xmlns="http://www.w3.org/2000/svg">
 <defs>
  <linearGradient id="a" x1="58.769" x2="71.208" y2="103.75" gradientTransform="translate(1.3711e-6)" gradientUnits="userSpaceOnUse">
   <stop stop-color="#68b723" offset="0"/>
   <stop stop-color="#206b00" offset="1"/>
  </linearGradient>
  <linearGradient id="b" x1="80.364" x2="71.062" y1="84.667" gradientUnits="userSpaceOnUse">
   <stop stop-color="#005402" offset="0"/>
   <stop stop-color="#007d09" offset="1"/>
  </linearGradient>
 </defs>
 <rect x="1.25e-7" y="1.3549e-6" width="127" height="84.667" ry="4.2333" fill="url(#a)" stroke-linecap="square" stroke-linejoin="round" stroke-width=".52917" style="paint-order:stroke fill markers"/>
 <rect x="-1.123e-6" width="127" height="84.667" ry="4.2333" fill="url(#b)" style="paint-order:stroke markers fill"/>
 <g transform="matrix(.35508 0 0 .35508 90.408 63.307)" fill="#0f6">
  <path d="m-167.97-58.526 4.3392-9.6838 1.905 9.6838h-6.2442m61.41-25.321-11.774 27.384-5.2123-27.384h-10.134l-14.42 40.349-6.7469-40.349h-12.647l-19.156 43.498 2.8575-18.177h-19.024l-1.5081 9.3662h7.9904l-0.92604 5.0006c-4.5508 1.8785-12.277 1.1642-15.584-4.7625-2.0902-3.7571-4.0481-12.118 4.7625-19.817 7.1967-6.2706 19.632-7.4083 26.802-4.1275 0 0 0.89959-5.2652 1.5875-10.134-13.785-4.7625-24.5-0.79375-31.671 3.6512-9.816 6.006-14.526 15.24-13.229 27.781 1.4552 14.526 20.267 23.707 36.221 14.446 0.18521-0.07937 0.26458-0.15875 0.42333-0.18521l-1.5346 3.3867h10.716l6.7469-14.949h11.853l2.5929 14.949h17.462l8.89-27.914 7.3025 27.914h6.8262l11.721-30.903 4.6302 31.089h10.239l-3.7306-50.112z" stroke-width=".26458"/>
  <polyline transform="matrix(.26458 0 0 .26458 -225.04 -85.143)" points="508.5 194.4 616.6 194.4 623.1 154 555.5 154 560.8 120.3 619.7 120.3 626.1 79.8 566.7 79.8 571.8 46.3 639.5 46.3 645.9 5.8 538.6 5.8 508.5 194.4"/>
  <polyline transform="matrix(.26458 0 0 .26458 -225.04 -85.143)" points="1043.8 65.1 1019.6 3.6 975.2 3.6 1021 103.1 1006.8 192.2 1045.7 192.2 1057.5 113.4 1127.4 3.6 1082 3.6 1043.8 65.1"/>
  <path d="m26.944-54.054c-2.7517 8.255-9.4192 13.07-14.843 10.61-5.3975-2.4077-7.5935-11.112-4.8154-19.42 2.7781-8.3344 9.4192-13.044 14.817-10.636 5.424 2.4342 7.62 11.139 4.8419 19.447m-3.9952-29.342c-11.377-2.6194-23.204 6.4294-26.405 20.214-3.1485 13.811 3.466 27.12 14.817 29.766 11.377 2.5929 23.178-6.4558 26.405-20.241 3.1485-13.811-3.4925-27.12-14.817-29.739z" stroke-width=".26458"/>
  <path d="m-23.618-63.447h-7.0908l1.561-9.2604h6.6675c7.2496 0 5.7679 9.2604-1.1377 9.2604m-1.2435 20.161h-9.0487l1.5875-9.9483h8.5725c8.1756 0 7.9375 9.9483-1.1112 9.9483zm6.006-39.979c-5.5298-0.07937-19.209 0-19.209 0h0.10583l-7.9375 49.556h23.098c9.525 0 23.416-13.996 10.742-25.426 12.965-13.467 0.10583-23.971-6.7998-24.13z" stroke-width=".26458"/>
 </g>
 <g transform="matrix(1.0173 0 0 1.0173 -2.7113 -1.2087)" fill="#0f6" stroke-width=".26458" aria-label="hacks">
  <path d="m51.481 68.059c0.0038-0.57126 0.33449-0.91702 0.84185-0.91702 0.52992 0 0.83058 0.34576 0.82682 0.91702v3.2471h2.0746v-3.6831c0.0038-1.2628-0.793-2.1648-2.0144-2.1648-0.85313 0-1.4845 0.43596-1.7438 1.1726h-0.06013v-3.0217h-1.9994v7.6969h2.0746z"/>
  <path d="m57.855 71.396c0.75165 0 1.3192-0.25556 1.6687-0.90199h0.0451v0.81179h1.9393v-3.9537c0-1.0673-1.011-1.8942-2.6609-1.8942-1.725 0-2.5744 0.90199-2.6458 1.9543h1.9092c0.04886-0.35704 0.31194-0.52616 0.70656-0.52616 0.36079 0 0.61636 0.16536 0.61636 0.46603v0.01503c0 0.33449-0.36831 0.43972-1.3379 0.51112-1.1914 0.08644-2.1197 0.5675-2.1197 1.834 0 1.15 0.7742 1.6837 1.8791 1.6837zm0.67649-1.3079c-0.35328 0-0.60132-0.17288-0.60132-0.49609 0-0.2969 0.21046-0.52616 0.69152-0.60132 0.33073-0.05262 0.60884-0.12026 0.82682-0.21046v0.48106c0 0.52616-0.44724 0.82682-0.91702 0.82682z"/>
  <path d="m65.281 71.411c1.71 0 2.7586-0.98091 2.7811-2.5105h-1.9242c-0.0451 0.60508-0.37207 0.93205-0.82682 0.93205-0.54495 0-0.90199-0.46603-0.90199-1.4131s0.35704-1.4131 0.90199-1.4131c0.45851 0 0.77045 0.32697 0.82682 0.93205h1.9242c-0.01128-1.5033-1.0824-2.4805-2.7811-2.4805-1.8791 0-2.9916 1.2026-2.9916 2.9766 0 1.7739 1.1124 2.9766 2.9916 2.9766z"/>
  <path d="m68.919 71.306h2.0746v-1.6386l0.31194-0.39462 1.1763 2.0332h2.3752l-2.022-3.2434 1.9618-2.5293h-2.3301l-1.3981 1.9393h-0.07517v-3.8635h-2.0746z"/>
  <path d="m80.615 67.413c-0.05262-1.2214-1.0674-1.9543-2.736-1.9543-1.6499 0-2.6684 0.67649-2.6609 1.8791-0.0075 0.9095 0.58253 1.492 1.7589 1.6987l1.0222 0.1804c0.45099 0.08268 0.65394 0.20295 0.66146 0.42093-0.0075 0.24053-0.28187 0.37583-0.66146 0.37583-0.46978 0-0.80051-0.20295-0.85689-0.57126h-2.0595c0.11275 1.1839 1.135 1.9693 2.9014 1.9693 1.5973 0 2.7736-0.77796 2.7811-2.0144-0.0075-0.85313-0.57877-1.3492-1.7589-1.5634l-1.1726-0.21046c-0.43972-0.07892-0.56374-0.23677-0.55622-0.40589-0.0075-0.24053 0.28939-0.37583 0.64642-0.37583 0.40965 0 0.75166 0.21798 0.78172 0.57126z"/>
 </g>
 <style type="text/css">.st0{fill:#FC0C18;}
	.st1{fill:#FC0C18;}</style>
 <style type="text/css">.st0{fill:#FC0C18;}
	.st1{fill:#FC0C18;}</style>
</svg>
