<svg width="480" height="320" version="1.1" viewBox="0 0 480 320" xml:space="preserve" xmlns="http://www.w3.org/2000/svg"><defs><linearGradient id="a" x1="58.77" x2="71.21" y2="103.8" gradientTransform="scale(3.78)" gradientUnits="userSpaceOnUse"><stop stop-color="#2a7329" offset="0"/><stop stop-color="#29332d" offset="1"/></linearGradient></defs><rect width="480" height="320" ry="24" fill="url(#a)"/><path d="m85.08 124.4c-11.08-0.1094-20.09 3.756-26.81 7.918-13.3 8.252-19.7 20.8-17.99 37.88 1.98 19.82 27.63 32.29 49.38 19.73 0.2192-0.1265 0.3039-0.189 0.459-0.2852l-2.031 4.609h14.59l9.158-20.34h16.15l3.574 20.34h23.72l12.12-38.03 7.773 38.03h9.314l18.17-42.06 1.875 42.06h13.96l-2.949-68h-16.78l-15.82 37.25-6.824-37.25h-13.82l-17.86 54.96-9.168-54.96h-17.23l-26.06 59.13 3.885-24.64h-25.94l-1.988 12.72h10.84l-1.24 6.836c-6.21 2.48-16.76 1.552-21.26-6.533-2.844-5.116-5.491-16.54 6.533-27.01 9.784-8.544 26.7-10.08 36.48-5.584 0 0 1.24-7.147 2.178-13.83-5.88-2.038-11.35-2.909-16.39-2.959zm280.9 1.85c-13.5 0.2291-26.28 11.72-30.08 28.17-4.345 18.81 4.711 36.94 20.18 40.5 15.47 3.563 31.54-8.752 35.88-27.56 4.334-18.79-4.688-36.92-20.18-40.5-1.934-0.4454-3.878-0.6421-5.807-0.6094zm-135.6 0.0156-10.85 68h38.97l2.324-14.59h-24.39l1.949-12.12h21.2l2.334-14.6h-21.43l1.856-12.1h24.37l2.322-14.6h-38.66zm154.8 0 16.45 35.85-5.062 32.14h13.97l4.293-28.41 25.14-39.58h-16.28l-13.82 22.2-8.711-22.2h-15.98zm-76.11 0.3281c-8.338-0.0188-18.53 0.055-18.75 0.0566l-10.79 67.48h31.42c12.95 0 31.86-19.08 14.64-34.67 17.72-18.34 0.158-32.65-9.24-32.81-1.888-0.0339-4.471-0.0503-7.281-0.0566zm57.32 12.91c1.456-0.0358 2.9 0.242 4.285 0.8633 7.398 3.303 10.34 15.16 6.564 26.46-3.772 11.32-12.82 17.81-20.22 14.49-7.387-3.303-10.32-15.16-6.564-26.46 3.073-9.185 9.62-15.2 15.93-15.36zm-64.04 1.488h9.086c9.857 0 7.855 12.64-1.543 12.64h-9.699l2.156-12.64zm-179.1 6.553 2.562 13.19v0.01h-8.461zm174.7 19.93h11.7c11.09 0 10.79 13.56-1.543 13.56h-12.34l2.178-13.56z" fill="#afa"/><path d="m192.6 256v23.97h6.422v-9.482h4.703v9.482h6.422v-23.97h-6.422v9.82h-4.703v-9.82zm25.2 0-6.16 23.97h6.422l0.7851-3.584h5.748l0.748 3.584h6.57l-6.16-23.97h-7.953zm20.91 0c-3.659 0-5.488 1.545-5.488 4.631v14.71c0 3.086 1.83 4.629 5.488 4.629h5.264c3.659 0 5.488-1.543 5.488-4.629v-4.182h-6.533v3.695c0 0.5476-0.3114 0.8223-0.9336 0.8223h-1.307c-0.6222 0-0.9336-0.2747-0.9336-0.8223v-13.74c0-0.5476 0.3114-0.8203 0.9336-0.8203h1.307c0.6222 0 0.9336 0.2728 0.9336 0.8203v3.846h6.533v-4.33c0-3.086-1.83-4.631-5.488-4.631h-5.264zm13.18 0v23.97h6.533v-23.97zm11.01 0-4.443 11.72 4.48 12.25h7.018l-4.703-12.25 4.666-11.72zm13.85 0c-3.634 0-5.449 1.545-5.449 4.631v4.928c0 1.518 0.3725 2.688 1.119 3.51 0.7716 0.7964 2.078 1.193 3.92 1.193h3.584c0.6222 0 0.9336 0.2747 0.9336 0.8223v3.396c0 0.5476-0.3114 0.8223-0.9336 0.8223h-1.082c-0.6222 0-0.9336-0.2747-0.9336-0.8223v-2.016h-6.533v2.875c0 3.086 1.83 4.629 5.488 4.629h5.076c3.634 0 5.451-1.543 5.451-4.629v-4.928c0-1.493-0.3989-2.627-1.195-3.398-0.7716-0.7716-2.078-1.156-3.92-1.156h-3.508c-0.6222 0-0.9336-0.2747-0.9336-0.8223v-3.547c0-0.5476 0.3114-0.8203 0.9336-0.8203h1.082c0.6222 0 0.9336 0.2728 0.9336 0.8203v2.016h6.533v-2.873c0-3.086-1.817-4.631-5.451-4.631h-5.115zm-54.99 7.131 1.828 8.625h-3.732z" fill="#afa"/></svg>
