<?xml version="1.0" encoding="UTF-8" standalone="no"?>
<svg
   width="480"
   height="320"
   version="1.1"
   viewBox="0 0 480 320"
   xml:space="preserve"
   id="svg218"
   sodipodi:docname="cdi.svg"
   inkscape:version="1.1.1 (3bf5ae0d25, 2021-09-20)"
   xmlns:inkscape="http://www.inkscape.org/namespaces/inkscape"
   xmlns:sodipodi="http://sodipodi.sourceforge.net/DTD/sodipodi-0.dtd"
   xmlns="http://www.w3.org/2000/svg"
   xmlns:svg="http://www.w3.org/2000/svg"><sodipodi:namedview
     id="namedview220"
     pagecolor="#ffffff"
     bordercolor="#666666"
     borderopacity="1.0"
     inkscape:pageshadow="2"
     inkscape:pageopacity="0.0"
     inkscape:pagecheckerboard="0"
     showgrid="false"
     inkscape:zoom="0.96459612"
     inkscape:cx="271.09792"
     inkscape:cy="186.08825"
     inkscape:window-width="1680"
     inkscape:window-height="987"
     inkscape:window-x="-8"
     inkscape:window-y="-8"
     inkscape:window-maximized="1"
     inkscape:current-layer="svg218" /><defs
     id="defs213"><linearGradient
       id="a"
       x1="147.4"
       x2="334.6"
       y1="291.2"
       y2="-32.92"
       gradientUnits="userSpaceOnUse"><stop
         stop-color="#0055d4"
         offset="0"
         id="stop208"
         style="stop-color:#5846b5;stop-opacity:1" /><stop
         stop-color="#37abc8"
         offset="1"
         id="stop210"
         style="stop-color:#a297d7;stop-opacity:1" /></linearGradient></defs><rect
     id="b"
     width="480"
     height="320"
     ry="24"
     fill="url(#a)" /><style
     type="text/css"
     id="style1022">
	.st0{fill:#C2C3C4;}
	.st1{fill:url(#SVGID_1_);}
	.st2{fill:url(#SVGID_2_);}
	.st3{fill:none;stroke:#000000;stroke-width:4.2148;stroke-miterlimit:10;}
	.st4{fill:url(#SVGID_3_);}
	.st5{fill:url(#SVGID_4_);}
	.st6{fill:url(#SVGID_5_);}
	.st7{fill:url(#SVGID_6_);}
	.st8{fill:url(#SVGID_7_);}
	.st9{fill:url(#SVGID_8_);}
	.st10{fill:url(#SVGID_9_);}
	.st11{opacity:0.7;fill:url(#SVGID_10_);enable-background:new    ;}
	.st12{opacity:0.7;fill:url(#SVGID_11_);enable-background:new    ;}
	.st13{opacity:0.7;}
	.st14{opacity:0.7;fill:url(#SVGID_12_);enable-background:new    ;}
	.st15{opacity:0.7;fill:url(#SVGID_13_);enable-background:new    ;}
	.st16{fill:url(#SVGID_14_);}
	.st17{fill:url(#SVGID_15_);}
	.st18{opacity:0.7;fill:url(#SVGID_16_);enable-background:new    ;}
	.st19{opacity:0.7;fill:url(#SVGID_17_);enable-background:new    ;}
	.st20{opacity:0.7;fill:url(#SVGID_18_);enable-background:new    ;}
	.st21{opacity:0.7;fill:url(#SVGID_19_);enable-background:new    ;}
	.st22{opacity:0.7;fill:url(#SVGID_20_);enable-background:new    ;}
	.st23{opacity:0.7;fill:url(#SVGID_21_);enable-background:new    ;}
	.st24{opacity:0.7;fill:url(#SVGID_22_);enable-background:new    ;}
	.st25{fill:url(#SVGID_23_);}
	.st26{fill:url(#SVGID_24_);}
	.st27{fill:none;stroke:#000000;stroke-width:8.0882;stroke-miterlimit:10;}
	.st28{fill:url(#SVGID_25_);}
	.st29{fill:url(#SVGID_26_);}
	.st30{fill:url(#SVGID_27_);}
	.st31{fill:url(#SVGID_28_);}
	.st32{fill:url(#SVGID_29_);}
	.st33{fill:url(#SVGID_30_);}
	.st34{fill:url(#SVGID_31_);}
	.st35{opacity:0.7;fill:url(#SVGID_32_);enable-background:new    ;}
	.st36{opacity:0.7;fill:url(#SVGID_33_);enable-background:new    ;}
	.st37{opacity:0.7;fill:url(#SVGID_34_);enable-background:new    ;}
	.st38{opacity:0.7;fill:url(#SVGID_35_);enable-background:new    ;}
	.st39{fill:url(#SVGID_36_);}
	.st40{fill:url(#SVGID_37_);}
	.st41{opacity:0.7;fill:url(#SVGID_38_);enable-background:new    ;}
	.st42{opacity:0.7;fill:url(#SVGID_39_);enable-background:new    ;}
	.st43{opacity:0.7;fill:url(#SVGID_40_);enable-background:new    ;}
	.st44{opacity:0.7;fill:url(#SVGID_41_);enable-background:new    ;}
	.st45{opacity:0.7;fill:url(#SVGID_42_);enable-background:new    ;}
	.st46{opacity:0.7;fill:url(#SVGID_43_);enable-background:new    ;}
	.st47{opacity:0.7;fill:url(#SVGID_44_);enable-background:new    ;}
	.st48{fill:url(#SVGID_45_);}
	.st49{fill:url(#SVGID_46_);}
	.st50{fill:none;stroke:#000000;stroke-width:8.0632;stroke-miterlimit:10;}
	.st51{fill:url(#SVGID_47_);}
	.st52{fill:url(#SVGID_48_);}
	.st53{fill:url(#SVGID_49_);}
	.st54{fill:url(#SVGID_50_);}
	.st55{fill:url(#SVGID_51_);}
	.st56{fill:url(#SVGID_52_);}
	.st57{fill:url(#SVGID_53_);}
	.st58{opacity:0.7;fill:url(#SVGID_54_);enable-background:new    ;}
	.st59{opacity:0.7;fill:url(#SVGID_55_);enable-background:new    ;}
	.st60{opacity:0.7;fill:url(#SVGID_56_);enable-background:new    ;}
	.st61{opacity:0.7;fill:url(#SVGID_57_);enable-background:new    ;}
	.st62{fill:url(#SVGID_58_);}
	.st63{fill:url(#SVGID_59_);}
	.st64{opacity:0.7;fill:url(#SVGID_60_);enable-background:new    ;}
	.st65{opacity:0.7;fill:url(#SVGID_61_);enable-background:new    ;}
	.st66{opacity:0.7;fill:url(#SVGID_62_);enable-background:new    ;}
	.st67{opacity:0.7;fill:url(#SVGID_63_);enable-background:new    ;}
	.st68{opacity:0.7;fill:url(#SVGID_64_);enable-background:new    ;}
	.st69{opacity:0.7;fill:url(#SVGID_65_);enable-background:new    ;}
	.st70{opacity:0.7;fill:url(#SVGID_66_);enable-background:new    ;}
	.st71{fill:url(#SVGID_67_);}
	.st72{fill:url(#SVGID_68_);}
	.st73{fill:none;stroke:#000000;stroke-width:4.35;stroke-miterlimit:10;}
	.st74{fill:url(#SVGID_69_);}
	.st75{fill:url(#SVGID_70_);}
	.st76{fill:url(#SVGID_71_);}
	.st77{fill:url(#SVGID_72_);}
	.st78{fill:url(#SVGID_73_);}
	.st79{fill:url(#SVGID_74_);}
	.st80{fill:url(#SVGID_75_);}
	.st81{opacity:0.7;fill:url(#SVGID_76_);enable-background:new    ;}
	.st82{opacity:0.7;fill:url(#SVGID_77_);enable-background:new    ;}
	.st83{opacity:0.7;fill:url(#SVGID_78_);enable-background:new    ;}
	.st84{opacity:0.7;fill:url(#SVGID_79_);enable-background:new    ;}
	.st85{fill:url(#SVGID_80_);}
	.st86{fill:url(#SVGID_81_);}
	.st87{opacity:0.7;fill:url(#SVGID_82_);enable-background:new    ;}
	.st88{opacity:0.7;fill:url(#SVGID_83_);enable-background:new    ;}
	.st89{opacity:0.7;fill:url(#SVGID_84_);enable-background:new    ;}
	.st90{opacity:0.7;fill:url(#SVGID_85_);enable-background:new    ;}
	.st91{opacity:0.7;fill:url(#SVGID_86_);enable-background:new    ;}
	.st92{opacity:0.7;fill:url(#SVGID_87_);enable-background:new    ;}
	.st93{opacity:0.7;fill:url(#SVGID_88_);enable-background:new    ;}
	.st94{fill:#FFFFFF;}
	.st95{fill:url(#SVGID_89_);}
	.st96{fill:url(#SVGID_90_);}
	.st97{fill:url(#SVGID_91_);}
	.st98{fill:url(#SVGID_92_);}
	.st99{fill:url(#SVGID_93_);}
	.st100{fill:url(#SVGID_94_);}
	.st101{fill:url(#SVGID_95_);}
	.st102{fill:url(#SVGID_96_);}
	.st103{fill:url(#SVGID_97_);}
	.st104{opacity:0.7;fill:url(#SVGID_98_);enable-background:new    ;}
	.st105{opacity:0.7;fill:url(#SVGID_99_);enable-background:new    ;}
	.st106{opacity:0.7;fill:url(#SVGID_100_);enable-background:new    ;}
	.st107{opacity:0.7;fill:url(#SVGID_101_);enable-background:new    ;}
	.st108{fill:url(#SVGID_102_);}
	.st109{fill:url(#SVGID_103_);}
	.st110{opacity:0.7;fill:url(#SVGID_104_);enable-background:new    ;}
	.st111{opacity:0.7;fill:url(#SVGID_105_);enable-background:new    ;}
	.st112{opacity:0.7;fill:url(#SVGID_106_);enable-background:new    ;}
	.st113{opacity:0.7;fill:url(#SVGID_107_);enable-background:new    ;}
	.st114{opacity:0.7;fill:url(#SVGID_108_);enable-background:new    ;}
	.st115{opacity:0.7;fill:url(#SVGID_109_);enable-background:new    ;}
	.st116{opacity:0.7;fill:url(#SVGID_110_);enable-background:new    ;}
	.st117{fill:url(#SVGID_111_);}
	.st118{fill:url(#SVGID_112_);}
	.st119{fill:url(#SVGID_113_);}
	.st120{fill:url(#SVGID_114_);}
	.st121{fill:url(#SVGID_115_);}
	.st122{fill:url(#SVGID_116_);}
	.st123{fill:url(#SVGID_117_);}
	.st124{fill:url(#SVGID_118_);}
	.st125{fill:url(#SVGID_119_);}
	.st126{opacity:0.7;fill:url(#SVGID_120_);enable-background:new    ;}
	.st127{opacity:0.7;fill:url(#SVGID_121_);enable-background:new    ;}
	.st128{opacity:0.7;fill:url(#SVGID_122_);enable-background:new    ;}
	.st129{opacity:0.7;fill:url(#SVGID_123_);enable-background:new    ;}
	.st130{fill:url(#SVGID_124_);}
	.st131{fill:url(#SVGID_125_);}
	.st132{opacity:0.7;fill:url(#SVGID_126_);enable-background:new    ;}
	.st133{opacity:0.7;fill:url(#SVGID_127_);enable-background:new    ;}
	.st134{opacity:0.7;fill:url(#SVGID_128_);enable-background:new    ;}
	.st135{opacity:0.7;fill:url(#SVGID_129_);enable-background:new    ;}
	.st136{opacity:0.7;fill:url(#SVGID_130_);enable-background:new    ;}
	.st137{opacity:0.7;fill:url(#SVGID_131_);enable-background:new    ;}
	.st138{opacity:0.7;fill:url(#SVGID_132_);enable-background:new    ;}
	.st139{fill:url(#SVGID_133_);}
	.st140{fill:url(#SVGID_134_);}
	.st141{fill:url(#SVGID_135_);}
	.st142{fill:url(#SVGID_136_);}
	.st143{fill:url(#SVGID_137_);}
	.st144{fill:url(#SVGID_138_);}
	.st145{fill:url(#SVGID_139_);}
	.st146{fill:url(#SVGID_140_);}
	.st147{fill:url(#SVGID_141_);}
	.st148{opacity:0.7;fill:url(#SVGID_142_);enable-background:new    ;}
	.st149{opacity:0.7;fill:url(#SVGID_143_);enable-background:new    ;}
	.st150{opacity:0.7;fill:url(#SVGID_144_);enable-background:new    ;}
	.st151{opacity:0.7;fill:url(#SVGID_145_);enable-background:new    ;}
	.st152{fill:url(#SVGID_146_);}
	.st153{fill:url(#SVGID_147_);}
	.st154{opacity:0.7;fill:url(#SVGID_148_);enable-background:new    ;}
	.st155{opacity:0.7;fill:url(#SVGID_149_);enable-background:new    ;}
	.st156{opacity:0.7;fill:url(#SVGID_150_);enable-background:new    ;}
	.st157{opacity:0.7;fill:url(#SVGID_151_);enable-background:new    ;}
	.st158{opacity:0.7;fill:url(#SVGID_152_);enable-background:new    ;}
	.st159{opacity:0.7;fill:url(#SVGID_153_);enable-background:new    ;}
	.st160{opacity:0.7;fill:url(#SVGID_154_);enable-background:new    ;}
	.st161{fill:url(#SVGID_155_);}
	.st162{fill:url(#SVGID_156_);}
	.st163{fill:url(#SVGID_157_);}
	.st164{fill:url(#SVGID_158_);}
	.st165{fill:url(#SVGID_159_);}
	.st166{fill:url(#SVGID_160_);}
	.st167{fill:url(#SVGID_161_);}
	.st168{fill:url(#SVGID_162_);}
	.st169{fill:url(#SVGID_163_);}
	.st170{opacity:0.7;fill:url(#SVGID_164_);enable-background:new    ;}
	.st171{opacity:0.7;fill:url(#SVGID_165_);enable-background:new    ;}
	.st172{opacity:0.7;fill:url(#SVGID_166_);enable-background:new    ;}
	.st173{opacity:0.7;fill:url(#SVGID_167_);enable-background:new    ;}
	.st174{fill:url(#SVGID_168_);}
	.st175{fill:url(#SVGID_169_);}
	.st176{opacity:0.7;fill:url(#SVGID_170_);enable-background:new    ;}
	.st177{opacity:0.7;fill:url(#SVGID_171_);enable-background:new    ;}
	.st178{opacity:0.7;fill:url(#SVGID_172_);enable-background:new    ;}
	.st179{opacity:0.7;fill:url(#SVGID_173_);enable-background:new    ;}
	.st180{opacity:0.7;fill:url(#SVGID_174_);enable-background:new    ;}
	.st181{opacity:0.7;fill:url(#SVGID_175_);enable-background:new    ;}
	.st182{opacity:0.7;fill:url(#SVGID_176_);enable-background:new    ;}
</style><g
     id="g1066"
     transform="matrix(0.11384215,0,0,0.11384215,19.162203,114.97069)"
     style="fill:#ffffff">
	<polyline
   points="1461.3,424.5 1291.2,720.2 1504,720.2 1504,653 1409.1,653 1496.9,506.2 1615.7,720.2 1703.9,720.2 1532.3,424.5    1461.3,424.5  "
   id="polyline1024"
   style="fill:#ffffff" />
	<polyline
   points="1896.8,720.2 1987.8,562.1 1987.8,720.2 2060.9,720.2 2061.1,424.5 1988.1,424.5 1867.4,633.9 1746.6,424.5    1673.8,424.5 1673.9,720.2 1746.9,720.2 1746.9,562.1 1838.1,720.2 1896.8,720.2  "
   id="polyline1026"
   style="fill:#ffffff" />
	<path
   d="M 1300.7,542.2 H 1116 v 62.4 h 107.1 V 653 H 1032 V 488.6 h 265.5 v -64.1 h -268 c -58,0 -76.8,17.8 -76.8,73.5 v 148.6 c 0,55.9 18.7,73.7 76.8,73.7 h 194.6 c 58,0 76.7,-17.8 76.7,-73.7 V 542.2"
   id="path1028"
   style="fill:#ffffff" />
	<path
   d="M 2708.8,424.5 H 2535 c -58.3,0 -76.8,17.8 -76.8,73.5 v 148.5 c 0,55.9 18.5,73.6 76.8,73.6 h 173.8 c 58,0 76.9,-17.7 76.9,-73.6 v -53.9 h -79.5 V 653 H 2537.5 V 488.6 h 168.7 v 53.5 h 79.5 V 498 c 0,-55.7 -18.9,-73.5 -76.9,-73.5"
   id="path1030"
   style="fill:#ffffff" />
	<path
   d="M 3069.7,653 H 2896.8 V 424.5 h -79.4 v 222 c 0,55.9 18.7,73.7 76.8,73.7 h 178 c 58.2,0 76.9,-17.8 76.9,-73.7 v -222 h -79.4 V 653"
   id="path1032"
   style="fill:#ffffff" />
	<path
   d="m 3430.8,637 c 0,14.3 -3.2,18.1 -24.7,18.1 h -142.6 v -57.2 h 142.6 c 21.5,0 24.7,4 24.7,18 V 637 M 3263.5,483.9 h 142.3 c 22,0 23,4.7 23,13.3 v 26.9 c 0,8.5 -1,13.4 -23,13.4 h -142.3 z m 209.2,84.3 c 19.1,-9.1 29.6,-25.9 29.6,-47.8 v -34.6 c 0,-41.9 -22.4,-61.3 -70.4,-61.3 H 3184 v 295.7 h 230.6 c 60.1,0 90.3,-20.8 90.3,-62.5 v -35.9 c 0.1,-25.2 -11.3,-43.8 -32.2,-53.6 z"
   id="path1034"
   style="fill:#ffffff" />
	<polyline
   points="3614.3,597.8 3744.3,597.8 3744.3,535.7 3614.3,535.7 3614.3,486.7 3837.3,486.7 3837.3,424.5 3534.8,424.5    3534.8,720.2 3840,720.2 3840,653 3614.3,653 3614.3,597.8  "
   id="polyline1036"
   style="fill:#ffffff" />
	<polyline
   points="2175.6,597.8 2305.5,597.8 2305.5,535.7 2175.6,535.7 2175.6,486.7 2398.5,486.7 2398.5,424.5 2096.2,424.5    2096.2,720.2 2401.2,720.2 2401.2,653 2175.6,653 2175.6,597.8  "
   id="polyline1038"
   style="fill:#ffffff" />
	<polyline
   points="3016.9,342.8 3016.9,115.6 2973.6,115.6 2973.6,260.4 2900.2,115.6 2841.9,115.6 2841.9,342.8 2885,342.8    2885,165.7 2974,342.8 3016.9,342.8  "
   id="polyline1040"
   style="fill:#ffffff" />
	<polyline
   points="1764.6,165.7 1853.7,342.8 1896.5,342.8 1896.5,115.6 1853.3,115.6 1853.3,260.4 1779.7,115.6 1721.4,115.6    1721.4,342.8 1764.6,342.8 1764.6,165.7  "
   id="polyline1042"
   style="fill:#ffffff" />
	<polyline
   points="1056.4,165.7 1145.4,342.8 1188.2,342.8 1188.2,115.6 1144.9,115.6 1144.9,260.4 1071.5,115.6 1013.2,115.6    1013.2,342.8 1056.4,342.8 1056.4,165.7  "
   id="polyline1044"
   style="fill:#ffffff" />
	<rect
   x="1430.4"
   y="115.6"
   width="48.700001"
   height="227.2"
   id="rect1046"
   style="fill:#ffffff" />
	<polyline
   points="2163.5,342.8 2209.8,342.8 2209.8,151.8 2282.7,151.8 2282.7,115.7 2090.4,115.7 2090.4,151.8 2163.5,151.8    2163.5,342.8  "
   id="polyline1048"
   style="fill:#ffffff" />
	<path
   d="m 3271.8,150.5 h 61 c 14.9,0 30.3,11.4 30.3,25.2 V 283 c 0,14.7 -15.8,24.9 -30.3,24.9 h -61 V 150.5 m 62.3,192.3 c 39.8,0 71.9,-26.3 71.9,-58.6 V 174.3 c 0,-32.5 -32.1,-58.8 -71.9,-58.8 H 3229 v 227.2 h 105.1 z"
   id="path1050"
   style="fill:#ffffff" />
	<path
   d="m 3742.1,284.6 c 0,13.7 -15.5,25 -30.3,25 h -36 c -14.9,0 -30.3,-11.3 -30.3,-25 V 173.9 c 0,-14.1 15.4,-25.1 30.3,-25.1 h 36 c 14.8,0 30.3,11 30.3,25.1 v 110.7 m 42.9,-112 c 0,-32.4 -32.4,-58.6 -71.8,-58.6 h -38.8 c -39.6,0 -71.8,26.3 -71.8,58.6 v 113.2 c 0,32.5 32.2,58.7 71.8,58.7 h 38.8 c 39.5,0 71.8,-26.2 71.8,-58.7 z"
   id="path1052"
   style="fill:#ffffff" />
	<path
   d="m 2461.4,284.4 c 0,31.6 30.5,57.1 68.6,58.4 h 100.1 v -36 h -95.8 c -15,0 -30.3,-9.8 -30.3,-23.6 v -41.1 h 126.1 V 205.7 H 2504 v -30.4 c 0,-13.7 15.3,-23.7 30.3,-23.7 h 95.8 v -35.9 h -98.5 c -38.8,0.8 -70.1,26.6 -70.1,58.5 l -0.1,110.2"
   id="path1054"
   style="fill:#ffffff" />
	<polyline
   points="192.4,546 362.2,644 362.3,447.9 192.4,349.9 192.4,546  "
   id="polyline1056"
   style="fill:#ffffff" />
	<polyline
   points="119.5,588.1 362.3,728.3 362.3,866.1 0,657 0,238.8 119.5,307.8 119.5,588.1  "
   id="polyline1058"
   style="fill:#ffffff" />
	<polyline
   points="379.6,221.9 209.9,319.9 379.6,417.9 549.4,319.9 379.6,221.9  "
   id="polyline1060"
   style="fill:#ffffff" />
	<polyline
   points="379.6,137.6 583.9,255.8 703.4,186.9 379.6,0 17.8,208.9 137,277.8 379.6,137.6  "
   id="polyline1062"
   style="fill:#ffffff" />
	<polyline
   points="639.7,588.1 639.7,445.6 566.7,487.7 566.7,546 396.9,644.1 396.9,644.3 396.9,447.9 759.1,238.8 759.1,657    396.9,866.1 396.9,728.4 639.7,588.1  "
   id="polyline1064"
   style="fill:#ffffff" />
</g></svg>
