<svg width="480" height="320" version="1.1" viewBox="0 0 480 320" xml:space="preserve" xmlns="http://www.w3.org/2000/svg"><defs><linearGradient id="a" x1="95.956" x2="68.019" y1="-14.236" y2="95.695" gradientTransform="scale(3.7795)" gradientUnits="userSpaceOnUse"><stop stop-color="#a56de2" offset="0"/><stop stop-color="#452981" offset=".7"/><stop stop-color="#273445" offset="1"/></linearGradient></defs><rect width="480" height="320" ry="24" fill="url(#a)"/><path d="m197.38 117.98-18.521 30.219h-114.65l-24.209 13.387v27.043l24.209 13.385h351.59l24.211-13.385v-27.043l-24.211-13.387h-114.65l-18.512-30.219h-85.262zm1.8008 3.2285h81.648l18.512 30.221h115.63l21.812 12.062v23.23l-21.812 12.062h-349.93l-21.814-12.062v-23.23l21.814-12.062h115.63l18.51-30.221zm71.773 4.1992c-2.5834 0-4.7187 1.6972-5.3438 4.0098l-6.5 19.053v-13.98h-9.793v3.4688h6.4082v9.4395h-8.0117c-1.9584 0-3.4688-1.6041-3.4688-3.4688v-11.127c0-1.9584 1.6041-3.4688 3.4688-3.4688h11.49v-3.4688h-11.574c-3.8334 0-6.9473 3.1145-6.9473 6.9375h0.00977v11.127c0 3.823 3.1262 6.9375 6.9492 6.9375h14.334l7.207-20.918c0.26042-0.80211 0.97979-1.334 1.8652-1.334 0.88544 0 1.5944 0.53188 1.8652 1.334l5.875 17.449h-9.2617v3.4688h14.064l-7.209-21.365c-0.70835-2.3126-2.8443-4.0938-5.4277-4.0938zm-63.293 0.44727c-4.5418 0-8.1875 3.6457-8.1875 8.1875s3.6457 8.1875 8.1875 8.1875h2.8438c0.27084 0 0.44726 0.17642 0.44726 0.44726 1e-5 0.27084-0.17642 0.44922-0.35351 0.44922h-11.137v3.4688h11.125c2.1355 0 3.918-1.7825 3.918-3.918s-1.7825-3.916-3.918-3.916h-2.8438c-2.5834 0-4.7188-2.1353-4.7188-4.7188 0-2.5834 2.1353-4.7188 4.7188-4.7188h11.043v-3.4688h-11.125zm19.76 0.00976c-3.823 0-6.9375 3.1145-6.9375 6.9375v11.127c0 3.823 3.1145 6.9375 6.9375 6.9375h11.928v-3.4688h-11.928c-1.9584 0-3.4688-1.6041-3.4688-3.4688v-11.127c1e-5 -1.9584 1.6041-3.4688 3.4688-3.4688h11.928v-3.4688h-11.928zm43.627 3.5527c-0.44793 0-0.88477 0.3548-1.0723 0.70898l-7.125 20.74h4.0938l2.4883-7.3867v3.1152h8.1992l-5.5215-16.375c-0.17709-0.44793-0.53123-0.80273-1.0625-0.80273zm-63.377 0.70898c-2.1355 0-3.916 1.7805-3.916 3.916s1.7805 3.916 3.916 3.916h2.8437c2.5834 0 4.7188 2.1353 4.7188 4.7188s-2.1353 4.7207-4.7188 4.7207h-11.031v3.4688h11.125c4.5418 0 8.1875-3.6476 8.1875-8.1895-1e-5 -4.5418-3.6457-8.1875-8.1875-8.1875h-2.8438c-0.27083 0-0.44726-0.17641-0.44726-0.44726 0-0.17709 0.17643-0.35352 0.35352-0.35352h11.125v-3.5625h-11.125zm19.75 0c-1.5105 0-2.666 1.1556-2.666 2.666v5.166h12.105v-3.4688h-8.6367c0-0.44793 0.3548-0.80078 0.80273-0.80078h10.24v-3.5625h-11.846zm20.209 0.00977c-1.5105 0-2.666 1.1556-2.666 2.666v11.127c0 1.5105 1.1556 2.666 2.666 2.666h7.209v-7.834h-5.5215v3.4688h2.0527v0.80273h-2.0527c-0.43752 0-0.80142-0.35545-0.79102-0.79297v-7.832c0-0.44793 0.3548-0.80273 0.80274-0.80273h9.875v-3.4688h-11.574zm-22.875 8.709v5.166c0 1.5105 1.1556 2.668 2.666 2.668h11.928v-3.4688h-10.322c-0.44793-0.08333-0.80273-0.43879-0.80273-0.88672h8.6367v-3.4786h-12.105zm46.199 0.26953 1.1562 3.5625h-2.4062l1.25-3.5625zm-24.949 20.23-12.229 6.293v25.209h33.281l9.4707-4.877c-0.00435 3e-5 -0.00735 0.00196-0.01172 0.00196h-30.5v-8.6992h14.25l9.4902-4.8848h-23.74v-8.1562h21.041l9.4902-4.8867h-30.543zm30.523 26.625c0.02667-1.7e-4 0.05438-8.2e-4 0.07226-0.00976h-0.05273l-0.01953 0.00976zm54.719-26.625c-0.0208 0.0104-0.05083 0.00977-0.08203 0.00977h-36.324l-12.23 6.293v11.625h36.367v8.6992h-26.867l-9.457 4.8633c-0.0208 0.0104-0.05342 0.02085-0.07422 0.03125l0.04297-0.00977h36.365l12.229-6.291v-12.178h-36.354v-8.1465h26.854l9.4902-4.8867 0.04102-0.00977zm-254.82 0.00977-12.229 6.293v25.209h12.229v-0.00976h24.127l12.24-6.293v-13.428h-15.293l-9.5 4.8867h12.553v9.959h-24.127v-21.73h26.865l9.502-4.8867h-36.367zm57.68 0-12.23 6.293v25.199h33.273l9.5-4.875h-30.543v-8.6992h14.25l9.4902-4.8848h-23.74v-8.1465h21.043l4.8125-2.4805 1.1445-0.59375 0.38672-0.1875 3.1562-1.625h-30.543zm41.98 0v31.502h12.24v-25.605l24.125 12.418v13.178h12.23v-31.492h-12.23v11.627l-22.605-11.627h-13.76zm164.79 0v31.502h12.229v-31.502h-12.229zm34.135 0-12.229 6.293v11.625h36.365v8.6992h-26.865l-9.459 4.8633c-0.0208 0.0104-0.05147 0.02085-0.07227 0.03125 0.0208-0.0104 0.05278-0.00977 0.08398-0.00977h36.324l12.229-6.291v-12.168h-36.355v-8.1562h26.855l9.4902-4.8867h-36.367z" fill="#fff"/></svg>
