<svg width="480" height="320" version="1.1" viewBox="0 0 480 320" xml:space="preserve" xmlns="http://www.w3.org/2000/svg"><defs><linearGradient id="a" x1="95.96" x2="68.02" y1="-14.24" y2="95.7" gradientTransform="matrix(3.78 0 0 3.78 -2.245e-5 5.452e-7)" gradientUnits="userSpaceOnUse"><stop stop-color="#2a7329" offset="0"/><stop stop-color="#29332d" offset="1"/></linearGradient></defs><rect width="480" height="320" ry="24" fill="url(#a)"/><path d="m197.4 118-18.52 30.22h-114.6l-24.21 13.38v27.04l24.21 13.38h351.6l24.21-13.38v-27.04l-24.21-13.38h-114.6l-18.51-30.22h-85.26zm1.803 3.228h81.64l18.51 30.22h115.6l21.81 12.06v23.23l-21.81 12.06h-349.9l-21.81-12.06v-23.23l21.81-12.06h115.6l18.51-30.22zm71.77 4.199c-2.583 0-4.719 1.697-5.344 4.01l-6.5 19.05v-13.98h-9.791v3.469h6.406v9.438h-8.01c-1.958 0-3.469-1.604-3.469-3.469v-11.12c0-1.958 1.604-3.469 3.469-3.469h11.49v-3.469h-11.57c-3.833 0-6.947 3.115-6.947 6.938h0.00977v11.12c0 3.823 3.124 6.938 6.947 6.938h14.33l7.209-20.92c0.2604-0.8021 0.9779-1.334 1.863-1.334 0.8854 0 1.594 0.5319 1.865 1.334l5.875 17.45h-9.26v3.469h14.06l-7.209-21.36c-0.7083-2.312-2.844-4.094-5.428-4.094zm-63.29 0.4473c-4.542 0-8.188 3.646-8.188 8.188s3.646 8.188 8.188 8.188h2.844c0.2708 0 0.4473 0.1764 0.4473 0.4473 0 0.2708-0.1764 0.4492-0.3535 0.4492h-11.14v3.469h11.12c2.135 0 3.916-1.783 3.916-3.918s-1.781-3.916-3.916-3.916h-2.844c-2.583 0-4.719-2.135-4.719-4.719s2.135-4.719 4.719-4.719h11.04v-3.469h-11.12zm19.76 0.00976c-3.823 0-6.938 3.115-6.938 6.938v11.12c0 3.823 3.115 6.938 6.938 6.938h11.93v-3.469h-11.93c-1.958 0-3.469-1.604-3.469-3.469v-11.12c0-1.958 1.604-3.469 3.469-3.469h11.93v-3.469h-11.93zm43.62 3.553c-0.4479 0-0.8848 0.3548-1.072 0.709l-7.125 20.74h4.094l2.49-7.385v3.115h8.197l-5.522-16.38c-0.1771-0.4479-0.5312-0.8027-1.062-0.8027zm-63.38 0.709c-2.135 0-3.916 1.781-3.916 3.916s1.781 3.916 3.916 3.916h2.844c2.583 0 4.719 2.135 4.719 4.719 0 2.583-2.135 4.719-4.719 4.719h-11.03v3.469h11.12c4.542 0 8.188-3.646 8.188-8.188s-3.646-8.188-8.188-8.188h-2.844c-0.2708 0-0.4473-0.1764-0.4473-0.4473 0-0.1771 0.1764-0.3535 0.3535-0.3535h11.12v-3.562h-11.12zm19.75 0c-1.51 0-2.666 1.156-2.666 2.666v5.166h12.1v-3.469h-8.635c0-0.4479 0.3548-0.8008 0.8027-0.8008h10.24v-3.562h-11.84zm20.21 0.00976c-1.51 1e-5 -2.666 1.156-2.666 2.666v11.12c0 1.51 1.156 2.668 2.666 2.668h7.209v-7.834h-5.522v3.469h2.053v0.8027h-2.053c-0.4375 0-0.8014-0.3555-0.791-0.793v-7.832c0-0.4479 0.3529-0.8027 0.8008-0.8027h9.875v-3.469h-11.57zm-22.88 8.709v5.166c0 1.51 1.156 2.666 2.666 2.666h11.93v-3.469h-10.32c-0.4479-0.08334-0.8027-0.4368-0.8027-0.8848h8.635v-3.478h-12.1zm46.2 0.2695 1.156 3.562h-2.406l1.25-3.562zm-24.95 20.23-12.23 6.291v25.21h33.28l9.469-4.877c-0.00434 2e-5 -0.00734 0.00195-0.01171 0.00195h-30.5v-8.699h14.25l9.49-4.885h-23.74v-8.156h21.04l9.488-4.885h-30.54zm30.52 26.62c0.02668-1.8e-4 0.05438-8.3e-4 0.07227-0.00977h-0.05273l-0.01954 0.00977zm54.72-26.62c-0.0208 0.0104-0.05278 0.00977-0.08398 0.00977h-36.32l-12.23 6.291v11.62h36.36v8.699h-26.86l-9.457 4.863c-0.0208 0.0104-0.05341 0.02085-0.07421 0.03125l0.04296-0.00976h36.36l12.23-6.291v-12.18h-36.36v-8.146h26.86l9.488-4.885 0.04296-0.00977zm-254.8 0.00977-12.23 6.291v25.21h12.23v-0.00977h24.12l12.24-6.293v-13.43h-15.29l-9.5 4.885h12.55v9.959h-24.12v-21.73h26.86l9.5-4.885h-36.36zm57.68 0-12.23 6.291v25.2h33.27l9.5-4.875h-30.54v-8.699h14.25l9.49-4.885h-23.74v-8.146h21.04l4.812-2.478 1.144-0.5937 0.3867-0.1875 3.156-1.625h-30.54zm41.98 0v31.5h12.24v-25.6l24.12 12.42v13.18h12.23v-31.49h-12.23v11.62l-22.6-11.62h-13.76zm164.8 0v31.5h12.23v-31.5h-12.23zm34.14 0-12.23 6.291v11.62h36.36v8.699h-26.86l-9.459 4.863c-0.0208 0.0104-0.05147 0.02085-0.07227 0.03125 0.0208-0.0104 0.05084-0.00976 0.08204-0.00976h36.32l12.23-6.291v-12.17h-36.35v-8.156h26.85l9.49-4.885h-36.36z" fill="#afa"/><path d="m192.6 256v23.97h6.422v-9.482h4.703v9.482h6.422v-23.97h-6.422v9.82h-4.703v-9.82h-6.422zm25.2 0-6.16 23.97h6.422l0.7852-3.584h5.748l0.748 3.584h6.57l-6.16-23.97h-7.953zm20.91 0c-3.659 0-5.488 1.545-5.488 4.631v14.71c0 3.086 1.83 4.629 5.488 4.629h5.264c3.659 0 5.488-1.543 5.488-4.629v-4.182h-6.533v3.695c0 0.5476-0.3114 0.8223-0.9336 0.8223h-1.307c-0.6222 0-0.9336-0.2747-0.9336-0.8223v-13.74c0-0.5476 0.3114-0.8203 0.9336-0.8203h1.307c0.6222 0 0.9336 0.2728 0.9336 0.8203v3.846h6.533v-4.33c0-3.086-1.83-4.631-5.488-4.631h-5.264zm13.18 0v23.97h6.533v-23.97h-6.533zm11.01 0-4.443 11.72 4.48 12.25h7.018l-4.703-12.25 4.666-11.72h-7.018zm13.85 0c-3.634 0-5.449 1.545-5.449 4.631v4.928c0 1.518 0.3725 2.688 1.119 3.51 0.7716 0.7964 2.078 1.193 3.92 1.193h3.584c0.6222 0 0.9336 0.2747 0.9336 0.8223v3.396c0 0.5476-0.3114 0.8223-0.9336 0.8223h-1.082c-0.6222 0-0.9336-0.2747-0.9336-0.8223v-2.016h-6.533v2.875c0 3.086 1.83 4.629 5.488 4.629h5.076c3.634 0 5.451-1.543 5.451-4.629v-4.928c0-1.493-0.3989-2.627-1.195-3.398-0.7716-0.7716-2.078-1.156-3.92-1.156h-3.508c-0.6222 0-0.9336-0.2747-0.9336-0.8223v-3.547c0-0.5476 0.3114-0.8203 0.9336-0.8203h1.082c0.6222 0 0.9336 0.2728 0.9336 0.8203v2.016h6.533v-2.873c0-3.086-1.817-4.631-5.451-4.631h-5.115zm-54.99 7.131 1.828 8.625h-3.732l1.904-8.625z" fill="#afa"/></svg>
