<svg width="480" height="320" version="1.1" viewBox="0 0 127 84.667" xmlns="http://www.w3.org/2000/svg">
 <defs>
  <linearGradient id="a" x1="95.956" x2="68.019" y1="-14.236" y2="95.695" gradientTransform="translate(22.456 -51.865)" gradientUnits="userSpaceOnUse">
   <stop stop-color="#006656" offset="0"/>
   <stop stop-color="#002d36" offset=".69626"/>
   <stop stop-color="#005a2b" offset="1"/>
  </linearGradient>
 </defs>
 <g transform="translate(-22.456 51.865)">
  <rect x="22.456" y="-51.865" width="127" height="84.667" ry="4.2333" fill="url(#a)" stroke-linecap="square" stroke-linejoin="round" stroke-width=".52917" style="paint-order:stroke fill markers"/>
  <path d="m33.084-1.6439c-0.04162-0.10841-0.05692-2.0083-0.03403-4.2219l0.04162-4.0247 4.0476-2.77 13.044 0.08307-3.7033 2.4908-8.5621 0.15571v5.76l5.9935 0.08457v-1.711l-4.716-0.08598 3.6241-2.413h5.9179v4.3528l-3.727 2.4969h-5.9251c-4.6375 0-5.9416-0.04287-6.0008-0.19716zm17.002 0.09338c-0.05709-0.05709-0.10379-1.9788-0.10379-4.2704v-4.1666l4.3659-2.6716 11.402 0.08166-3.7033 2.4908-7.161 0.15571v1.5567l8.3741 0.15575-3.6115 2.4048-4.7626 0.08598v1.5568l10.728 0.15575-3.9568 2.5686h-5.7338c-3.1536 0-5.7805-0.04675-5.8376-0.10383zm16.865-5.4965v-5.6084h4.7784l2.9427 1.6138c1.6185 0.88758 2.9952 1.584 3.0594 1.5476 0.06421-0.03641 0.11675-0.76443 0.11675-1.6178v-1.5516l4.7481 0.0859v11.053l-4.7481 0.08598v-1.7959c0-1.5186-0.04205-1.8315-0.27243-2.0266-0.14984-0.12692-1.4984-0.9895-2.9967-1.9168l-2.7243-1.686-0.15568 7.3394-4.7481 0.08598zm17.072 5.4965c-0.05707-0.05709-0.10379-1.9788-0.10379-4.2704v-4.1666l4.3659-2.6716 11.402 0.08166-3.7033 2.4908-7.161 0.15571v1.5567l8.3741 0.15575-3.6115 2.4048-4.7626 0.08598v1.5568l10.728 0.15575-3.9568 2.5686h-5.7338c-3.1536 0-5.7805-0.04675-5.8376-0.10383zm15.308 0.02901c0-0.04111 0.83858-0.63658 1.8635-1.3232l1.8635-1.2485h7.0146v-1.7124h-10.742l0.0036-4.1254 4.0255-2.7281 11.772 0.0816-3.8049 2.5686h-7.1702v1.7124h10.742l-8e-3 4.281-3.8823 2.5686h-5.8387c-3.2113 0-5.8387-0.03359-5.8387-0.0747zm17.124-5.5295v-5.6043h4.8259v11.209h-4.8259zm6.694 5.5483c0-0.03089 0.86086-0.62628 1.913-1.3232l1.913-1.2672h7.0875l-0.0942-1.6346-10.828-0.08198 0.0868-4.1214 4.0359-2.7243h5.8381c4.9367 0 5.8029 0.03277 5.6102 0.21221-0.12538 0.11672-0.96733 0.71217-1.871 1.3232l-1.643 1.111h-7.2382l0.0471 0.8173 0.0471 0.81729 10.819 0.08198v4.1781l-3.9697 2.6692-5.8767-5.88e-4c-3.2322-5.4e-4 -5.8767-0.02608-5.8767-0.05697zm-49.232-14.527c-0.87256-0.06421-0.89513-0.07745-0.89513-0.52513v-0.45925h2.0118c1.9165 0 2.0337-0.01836 2.4723-0.38748 0.55697-0.46866 0.69797-1.0719 0.41105-1.7586-0.26068-0.6239-0.99353-0.96741-2.0639-0.96741-0.56317 0-0.83249-0.08093-1.0428-0.31336-0.43084-0.47608-0.36537-1.2223 0.14583-1.662 0.40636-0.34953 0.52686-0.36702 2.2443-0.32563l1.8149 0.04373v0.93405l-1.7513 0.04401c-1.9109 0.04803-2.3529 0.2706-0.74113 0.37322 1.1225 0.07147 1.6296 0.35104 2.2338 1.2317 0.30053 0.43799 0.35348 0.6817 0.3035 1.3969-0.07221 1.0333-0.4897 1.7011-1.3054 2.0882-0.59453 0.28212-2.2362 0.40492-3.8378 0.28706zm7.6995-0.04548c-0.28178-0.06809-0.65673-0.25449-0.83323-0.41422-0.66365-0.6006-0.75609-1.021-0.75548-3.4358 4.67e-4 -2.009 0.03941-2.3676 0.30392-2.8014 0.56335-0.92392 0.93918-1.0535 3.2299-1.1135l2.0699-0.0542v1.1203h-1.9188c-2.6329 0-2.5958-0.0415-2.5958 2.9018 0 2.8983-0.03685 2.8582 2.6275 2.8582h1.9068l-0.04878 0.50594-0.04878 0.50595-1.7124 0.02542c-0.94183 0.01394-1.943-0.0303-2.2247-0.0984zm6.3827-4.7e-4c-0.28177-0.06783-0.65673-0.25403-0.83323-0.41376-0.66365-0.60059-0.75609-1.021-0.75548-3.4358 5.06e-4 -2.009 0.03941-2.3676 0.30392-2.8014 0.57718-0.9466 0.92483-1.0593 3.2687-1.0593h2.109l0.09756 1.0119h-1.9348c-1.7217 0-1.98 0.03554-2.345 0.32265-0.40885 0.3216-0.41018 0.32986-0.41018 2.5415 0 2.1181 0.01637 2.2342 0.3603 2.5573 0.31594 0.29681 0.53635 0.33849 1.7903 0.33849h1.43v-3.1135h-1.8681v-0.93405h2.9495l0.08616 4.5731 1.1384-3.4569c1.2041-3.6564 1.2895-3.8046 2.312-4.0091 0.56894-0.11378 1.3606 0.24915 1.6263 0.74556 0.2749 0.51365 2.3179 6.6905 2.3179 7.008 0 0.25084-0.18853 0.2766-2.0238 0.2766h-2.0238v-1.0897h1.3232c0.96074 0 1.3202-0.0533 1.3121-0.19459-0.0061-0.10703-0.44395-1.4556-0.97297-2.9967-0.88852-2.5885-0.99038-2.8021-1.3361-2.8021-0.34905 0-0.45376 0.2356-1.5568 3.5027l-1.1825 3.5027-2.3351 0.02495c-1.2843 0.01371-2.5657-0.03054-2.8474-0.0984zm5.7274-0.05467c0-0.37344 2.0192-6.4668 2.1748-6.563 0.10854-0.06708 1.8727 4.923 1.8727 5.2971 0 0.03895-0.48594 0.07078-1.0799 0.07078h-1.0799l-0.04915-0.50595c-0.04373-0.45025-0.09327-0.37741-0.44996 0.66162-0.3768 1.0976-0.4304 1.1705-0.89477 1.2163-0.35012 0.03459-0.49396-0.01695-0.49395-0.17692zm2.4489-2.8335c-0.182-0.59301-0.34198-0.5551-0.50886 0.1206-0.09424 0.38156-0.06317 0.42811 0.28576 0.42811 0.37601 0 0.38483-0.0217 0.22309-0.5487zm-23.089 1.4267c-0.05005-0.13041-0.06672-0.3638-0.03705-0.51864 0.04761-0.24846 0.25943-0.28669 1.8034-0.32554 0.99271-0.02497 1.7495-0.10916 1.7495-0.19459 0-0.08282-0.33276-0.15212-0.73946-0.154-1.4618-0.0068-2.5121-0.83713-2.7616-2.1833-0.13192-0.71203 0.26693-1.7317 0.87875-2.2465 0.66463-0.55925 1.4712-0.72022 3.3591-0.67043l1.6761 0.04421v0.93405l-1.9459 0.08243c-1.0703 0.04534-2.0711 0.1414-2.2241 0.21346-0.35389 0.16668-0.7337 0.89469-0.7337 1.4063 0 0.21695 0.19688 0.61482 0.43752 0.88414 0.39077 0.43734 0.55907 0.50081 1.5749 0.59393 0.85494 0.07837 1.1909 0.17739 1.3527 0.39875 0.30322 0.41467 0.26747 1.0701-0.0819 1.5021-0.27922 0.34522-0.41615 0.37065-2.2573 0.41913-1.6443 0.04331-1.9747 0.01341-2.051-0.1855zm8.6878-0.0306c-0.29154-0.2042-0.34599-0.38794-0.34599-1.1676v-0.92526h3.5805v0.93405h-1.2362c-0.67992 0-1.2795 0.07005-1.3324 0.15567-0.06182 0.10003 0.49135 0.15568 1.5476 0.15568h1.6438v1.0897h-1.7556c-1.337 0-1.8381-0.05778-2.1016-0.24234zm6.3827 0c-0.32824-0.2299-0.34599-0.34927-0.34599-2.3263 0-2.6388-0.06898-2.5686 2.5254-2.5686h1.8335v1.0897h-3.4248v2.9578h0.46702c0.25686 0 0.46703-0.07005 0.46703-0.15568 0-0.08562-0.10508-0.15567-0.23351-0.15567-0.15568 0-0.23351-0.15568-0.23351-0.46702 0-0.45665 0.0173-0.46703 0.77838-0.46703h0.77837v2.3351h-1.1329c-0.77343 0-1.2427-0.0769-1.4789-0.24234zm-6.7287-3.4851c0-1.3013 0.18848-1.4099 2.4476-1.4099h1.7556v1.0897h-1.6438c-1.0562 0-1.6094 0.05565-1.5476 0.15568 0.05291 0.08561 0.65251 0.15568 1.3324 0.15568h1.2362v0.93405h-3.5805z" fill="#0f6" stroke-width=".15568"/>
 </g>
 <g transform="matrix(1.0173 0 0 1.0173 -1.0979 -1.2087)" fill="#0f6" stroke-width=".26458" aria-label="hacks">
  <path d="m49.895 68.059c0.0038-0.57126 0.33449-0.91702 0.84185-0.91702 0.52992 0 0.83058 0.34576 0.82682 0.91702v3.2471h2.0746v-3.6831c0.0038-1.2628-0.793-2.1648-2.0144-2.1648-0.85313 0-1.4845 0.43596-1.7438 1.1726h-0.06013v-3.0217h-1.9994v7.6969h2.0746z"/>
  <path d="m56.269 71.396c0.75165 0 1.3192-0.25556 1.6687-0.90199h0.0451v0.81179h1.9393v-3.9537c0-1.0673-1.011-1.8942-2.6609-1.8942-1.725 0-2.5744 0.90199-2.6458 1.9543h1.9092c0.04886-0.35704 0.31194-0.52616 0.70656-0.52616 0.36079 0 0.61636 0.16536 0.61636 0.46603v0.01503c0 0.33449-0.36831 0.43972-1.3379 0.51112-1.1914 0.08644-2.1197 0.5675-2.1197 1.834 0 1.15 0.7742 1.6837 1.8791 1.6837zm0.67649-1.3079c-0.35328 0-0.60132-0.17288-0.60132-0.49609 0-0.2969 0.21046-0.52616 0.69152-0.60132 0.33073-0.05262 0.60884-0.12026 0.82682-0.21046v0.48106c0 0.52616-0.44724 0.82682-0.91702 0.82682z"/>
  <path d="m63.695 71.411c1.71 0 2.7586-0.98091 2.7811-2.5105h-1.9242c-0.0451 0.60508-0.37207 0.93205-0.82682 0.93205-0.54495 0-0.90199-0.46603-0.90199-1.4131s0.35704-1.4131 0.90199-1.4131c0.45851 0 0.77045 0.32697 0.82682 0.93205h1.9242c-0.01127-1.5033-1.0824-2.4805-2.7811-2.4805-1.8791 0-2.9916 1.2026-2.9916 2.9766 0 1.7739 1.1124 2.9766 2.9916 2.9766z"/>
  <path d="m67.333 71.306h2.0746v-1.6386l0.31194-0.39462 1.1763 2.0332h2.3752l-2.022-3.2434 1.9618-2.5293h-2.3301l-1.3981 1.9393h-0.07516v-3.8635h-2.0746z"/>
  <path d="m79.029 67.413c-0.05262-1.2214-1.0674-1.9543-2.736-1.9543-1.6499 0-2.6684 0.67649-2.6609 1.8791-0.0075 0.9095 0.58253 1.492 1.7589 1.6987l1.0222 0.1804c0.45099 0.08268 0.65394 0.20295 0.66146 0.42093-0.0075 0.24053-0.28187 0.37583-0.66146 0.37583-0.46978 0-0.80051-0.20295-0.85689-0.57126h-2.0595c0.11275 1.1839 1.135 1.9693 2.9014 1.9693 1.5973 0 2.7736-0.77796 2.7811-2.0144-0.0075-0.85313-0.57877-1.3492-1.7589-1.5634l-1.1726-0.21046c-0.43972-0.07892-0.56374-0.23677-0.55622-0.40589-0.0075-0.24053 0.28939-0.37583 0.64642-0.37583 0.40965 0 0.75166 0.21798 0.78172 0.57126z"/>
 </g>
 <style type="text/css">.st0{fill:#FC0C18;}
	.st1{fill:#FC0C18;}</style>
 <style type="text/css">.st0{fill:#FC0C18;}
	.st1{fill:#FC0C18;}</style>
</svg>
