<?xml version="1.0" encoding="UTF-8" standalone="no"?>
<!-- Created with Inkscape (http://www.inkscape.org/) -->

<svg
   width="480"
   height="320"
   viewBox="0 0 127 84.666667"
   version="1.1"
   id="svg1543"
   inkscape:export-filename="/home/vitor/Dev/es-theme-material-tv-3-2/assets/logos/genh.png"
   inkscape:export-xdpi="96"
   inkscape:export-ydpi="96"
   inkscape:version="1.1.1 (3bf5ae0d25, 2021-09-20)"
   sodipodi:docname="genh.svg"
   xmlns:inkscape="http://www.inkscape.org/namespaces/inkscape"
   xmlns:sodipodi="http://sodipodi.sourceforge.net/DTD/sodipodi-0.dtd"
   xmlns:xlink="http://www.w3.org/1999/xlink"
   xmlns="http://www.w3.org/2000/svg"
   xmlns:svg="http://www.w3.org/2000/svg">
  <sodipodi:namedview
     id="namedview1545"
     pagecolor="#505050"
     bordercolor="#eeeeee"
     borderopacity="1"
     inkscape:pageshadow="0"
     inkscape:pageopacity="0"
     inkscape:pagecheckerboard="0"
     inkscape:document-units="px"
     showgrid="false"
     units="px"
     width="640px"
     inkscape:snap-page="true"
     showguides="true"
     inkscape:guide-bbox="true"
     inkscape:zoom="0.7910757"
     inkscape:cx="327.4023"
     inkscape:cy="136.52296"
     inkscape:window-width="1920"
     inkscape:window-height="1019"
     inkscape:window-x="0"
     inkscape:window-y="30"
     inkscape:window-maximized="1"
     inkscape:current-layer="layer1">
    <sodipodi:guide
       position="10.583333,76.729167"
       orientation="-1,0"
       id="guide2978"
       inkscape:label=""
       inkscape:locked="false"
       inkscape:color="rgb(0,0,255)" />
    <sodipodi:guide
       position="116.41667,7.9375"
       orientation="-1,0"
       id="guide2980"
       inkscape:label=""
       inkscape:locked="false"
       inkscape:color="rgb(0,0,255)" />
    <sodipodi:guide
       position="10.583333,76.729167"
       orientation="0,-1"
       id="guide2982" />
    <sodipodi:guide
       position="116.41667,7.9375"
       orientation="0,-1"
       id="guide2984" />
  </sodipodi:namedview>
  <defs
     id="defs1540">
    <clipPath
       clipPathUnits="userSpaceOnUse"
       id="clipPath2468">
      <path
         id="path2470"
         style="fill:#ff0000;fill-opacity:0.533212;stroke-width:2;stroke-linecap:square;stroke-linejoin:round;paint-order:stroke fill markers"
         d="m 200,0 h 96 l -16,160 h -96 z"
         sodipodi:nodetypes="ccccc" />
    </clipPath>
    <clipPath
       clipPathUnits="userSpaceOnUse"
       id="clipPath2484">
      <path
         id="path2486"
         style="fill:#ffff00;fill-opacity:0.364615;stroke-width:2;stroke-linecap:square;stroke-linejoin:round;paint-order:stroke fill markers"
         d="M 8,0 C 3.568,0 0,3.568 0,8 V 160 H 108 L 124,0 Z" />
    </clipPath>
    <clipPath
       clipPathUnits="userSpaceOnUse"
       id="clipPath2500">
      <path
         id="path2502"
         style="fill:#00ffff;fill-opacity:0.483071;stroke-width:2;stroke-linecap:square;stroke-linejoin:round;paint-order:stroke fill markers"
         d="M 104,0 H 220 L 204,160 H 88 Z"
         sodipodi:nodetypes="ccccc" />
    </clipPath>
    <clipPath
       clipPathUnits="userSpaceOnUse"
       id="clipPath2785">
      <path
         id="path2787"
         style="fill:#00ff00;fill-opacity:0.338442;stroke-width:2;stroke-linecap:square;stroke-linejoin:round;paint-order:stroke fill markers"
         d="M 276,0 H 392 L 376,160 H 260 Z"
         sodipodi:nodetypes="ccccc" />
    </clipPath>
    <clipPath
       clipPathUnits="userSpaceOnUse"
       id="clipPath2801">
      <path
         id="path2803"
         style="fill:#ff00ff;fill-opacity:0.431544;stroke-width:2;stroke-linecap:square;stroke-linejoin:round;paint-order:stroke fill markers"
         d="M 372,0 356,160 H 480 V 8 c 0,-4.432 -3.568,-8 -8,-8 z" />
    </clipPath>
    <clipPath
       id="clip1">
      <path
         d="m 249,0 h 75 v 124.51172 h -75 z m 0,0"
         id="path2" />
    </clipPath>
    <clipPath
       id="clip2">
      <path
         d="m 421,0 h 90 v 124.51172 h -90 z m 0,0"
         id="path5" />
    </clipPath>
    <clipPath
       id="clip3">
      <path
         d="m 513,0 h 28 v 124.51172 h -28 z m 0,0"
         id="path8" />
    </clipPath>
    <clipPath
       id="clip4">
      <path
         d="m 659,4 h 86.87109 V 124 H 659 Z m 0,0"
         id="path11" />
    </clipPath>
    <linearGradient
       inkscape:collect="always"
       xlink:href="#linearGradient2856"
       id="linearGradient2858"
       x1="95.956238"
       y1="-14.235659"
       x2="68.018951"
       y2="95.694702"
       gradientUnits="userSpaceOnUse"
       gradientTransform="translate(22.45627,-51.865448)" />
    <linearGradient
       inkscape:collect="always"
       id="linearGradient2856">
      <stop
         style="stop-color:#a56de2;stop-opacity:1"
         offset="0"
         id="stop2852" />
      <stop
         style="stop-color:#452981;stop-opacity:1"
         offset="0.69625694"
         id="stop2579" />
      <stop
         style="stop-color:#485a6c;stop-opacity:1"
         offset="1"
         id="stop2854" />
    </linearGradient>
  </defs>
  <g
     inkscape:label="Camada 1"
     inkscape:groupmode="layer"
     id="layer1"
     style="display:inline">
    <g
       id="g965"
       transform="translate(-22.45627,51.865449)">
      <rect
         style="fill:url(#linearGradient2858);fill-opacity:1;stroke-width:0.529167;stroke-linecap:square;stroke-linejoin:round;paint-order:stroke fill markers"
         id="rect1569"
         width="127"
         height="84.666664"
         x="22.45627"
         y="-51.865448"
         ry="4.2333331"
         inkscape:export-filename="/home/vitor/Dev/es-theme-material-tv-3-2/assets/logo/fbn.png"
         inkscape:export-xdpi="96"
         inkscape:export-ydpi="96" />
      <path
         style="fill:#ffffff;stroke-width:0.155675"
         d="m 33.084255,-0.585557 c -0.04162,-0.108414 -0.05692,-2.008285 -0.03403,-4.2219 l 0.04162,-4.024747 2.023775,-1.385006 2.023775,-1.385 6.521889,0.04153 6.521891,0.04154 -1.851641,1.245402 -1.85164,1.245395 -4.281063,0.07784 -4.281061,0.07787 v 2.879994 2.879981 l 2.996743,0.04229 2.996743,0.04228 v -0.855523 -0.85551 l -2.358022,-0.04299 -2.358024,-0.04299 1.81204,-1.206477 1.812039,-1.206477 h 2.958946 2.958946 v 2.176369 2.176381 l -1.863512,1.248468 -1.863513,1.248481 h -5.925123 c -4.637463,0 -5.941565,-0.04287 -6.000778,-0.197155 z m 17.002108,0.09338 c -0.05709,-0.05709 -0.103787,-1.978757 -0.103787,-4.270399 v -4.166613 l 2.182972,-1.335815 2.182972,-1.335824 5.701098,0.04083 5.7011,0.04083 -1.851665,1.245401 -1.851665,1.245396 -3.580525,0.07784 -3.580525,0.07787 v 0.778364 0.778375 l 4.187046,0.07788 4.187044,0.07787 -1.805735,1.202389 -1.805732,1.20239 -2.381312,0.04299 -2.381311,0.04299 v 0.778375 0.778375 l 5.364081,0.07787 5.364079,0.07788 -1.978411,1.284328 -1.978411,1.284317 H 55.92391 c -3.153572,0 -5.780471,-0.04675 -5.83755,-0.103833 z m 16.864788,-5.496469 v -5.608351 h 2.389183 2.389185 l 2.942683,1.613767 c 1.618477,0.887575 2.995226,1.583979 3.059441,1.547567 0.06421,-0.03641 0.116754,-0.764435 0.116754,-1.617825 v -1.551616 l 2.374044,0.04295 2.374044,0.04295 v 5.526473 5.526456 l -2.374044,0.04299 -2.374044,0.04299 v -1.79585 c 0,-1.518612 -0.04205,-1.831463 -0.27243,-2.026621 -0.149837,-0.126925 -1.498372,-0.989495 -2.996744,-1.916832 l -2.724313,-1.686037 -0.07784,3.669692 -0.07784,3.669704 -2.374044,0.04299 -2.374044,0.04299 z m 17.072357,5.496469 c -0.05707,-0.05709 -0.103786,-1.978757 -0.103786,-4.270399 v -4.166613 l 2.182971,-1.335815 2.182973,-1.335824 5.701098,0.04083 5.701099,0.04083 -1.851665,1.245401 -1.851666,1.245396 -3.580524,0.07784 -3.580524,0.07787 v 0.778364 0.778375 l 4.187045,0.07788 4.187045,0.07787 -1.805735,1.202389 -1.805733,1.20239 -2.381312,0.04299 -2.38131,0.04299 v 0.778375 0.778375 l 5.36408,0.07787 5.36408,0.07788 -1.97841,1.284328 -1.978411,1.284317 h -5.733767 c -3.153571,0 -5.78047,-0.04675 -5.83755,-0.103833 z m 15.308039,0.02901 c 0,-0.04111 0.838583,-0.636579 1.863513,-1.323243 l 1.86351,-1.248468 h 3.50728 3.50727 v -0.856214 -0.856203 h -5.37078 -5.370793 l 0.0018,-2.062693 0.0018,-2.062692 2.012753,-1.36404 2.01276,-1.364043 5.88601,0.04083 5.88601,0.04077 -1.90244,1.284318 -1.90243,1.284314 h -3.58511 -3.58512 v 0.856216 0.856215 h 5.37079 5.37079 l -0.004,2.140521 -0.004,2.140532 -1.94115,1.284329 -1.94114,1.284317 h -5.8387 c -3.21129,0 -5.838705,-0.03359 -5.838705,-0.0747 z M 116.4558,-5.9927 v -5.604299 h 2.41296 2.41296 v 5.604299 5.604296 h -2.41296 -2.41296 z m 6.69402,5.548268 c 0,-0.03089 0.86086,-0.626278 1.91302,-1.323243 l 1.91302,-1.267203 h 3.54375 3.54374 l -0.0471,-0.81729 -0.0471,-0.817289 -5.41422,-0.04099 -5.41421,-0.04099 0.0434,-2.060673 0.0434,-2.060672 2.01793,-1.362158 2.01793,-1.362153 h 5.8381 c 4.93668,0 5.8029,0.03277 5.61015,0.21221 -0.12538,0.116719 -0.96733,0.712173 -1.871,1.323238 l -1.64305,1.111023 h -3.61912 -3.61912 l 0.0471,0.817302 0.0471,0.817289 5.40971,0.04099 5.4097,0.04099 v 2.089074 2.089074 l -1.98485,1.334601 -1.98487,1.334613 -5.87672,-5.88e-4 c -3.2322,-5.4e-4 -5.87673,-0.02608 -5.87673,-0.05697 z M 73.917606,-14.971514 c -0.872556,-0.06421 -0.89513,-0.07745 -0.89513,-0.525128 v -0.459253 h 2.011829 c 1.916468,0 2.03366,-0.01836 2.472326,-0.387482 0.556968,-0.46866 0.697972,-1.07192 0.411054,-1.758613 -0.260684,-0.623905 -0.993534,-0.967406 -2.063931,-0.967406 -0.563166,0 -0.832488,-0.08093 -1.042834,-0.313359 -0.430845,-0.476079 -0.36537,-1.222319 0.145828,-1.662033 0.406357,-0.349533 0.526864,-0.367018 2.244314,-0.32563 l 1.8149,0.04373 v 0.467025 0.467025 l -1.751343,0.04401 c -1.9109,0.04803 -2.352868,0.270596 -0.741132,0.373224 1.122533,0.07147 1.629569,0.351041 2.233821,1.231659 0.300532,0.437986 0.353483,0.681705 0.303495,1.396942 -0.07221,1.0333 -0.489701,1.701121 -1.305443,2.088214 -0.594531,0.282122 -2.236208,0.404922 -3.837754,0.287064 z m 7.699536,-0.04548 c -0.281775,-0.06809 -0.656729,-0.254491 -0.833232,-0.414217 -0.66365,-0.6006 -0.756089,-1.020995 -0.755478,-3.435846 4.67e-4,-2.009015 0.03941,-2.367619 0.303918,-2.801422 0.563352,-0.923925 0.939175,-1.053483 3.229914,-1.113457 l 2.069885,-0.0542 v 0.560136 0.560137 h -1.918802 c -2.632897,0 -2.595772,-0.0415 -2.595772,2.901804 0,2.898255 -0.03685,2.858174 2.627453,2.858174 h 1.906848 l -0.04878,0.505941 -0.04878,0.505946 -1.712425,0.02542 c -0.941834,0.01394 -1.942969,-0.0303 -2.224745,-0.0984 z m 6.382674,-4.7e-4 c -0.281774,-0.06783 -0.656729,-0.254033 -0.833232,-0.413765 -0.66365,-0.600593 -0.756088,-1.020989 -0.755477,-3.435842 5.06e-4,-2.009001 0.03941,-2.367605 0.303917,-2.801408 0.577181,-0.946605 0.924829,-1.059264 3.268685,-1.059264 h 2.108952 l 0.04878,0.505943 0.04878,0.505944 h -1.934803 c -1.721671,0 -1.979992,0.03554 -2.344989,0.322648 -0.408848,0.321601 -0.410181,0.329861 -0.410181,2.541501 0,2.118056 0.01637,2.234231 0.360302,2.557339 0.315945,0.296813 0.536346,0.338487 1.790262,0.338487 h 1.42996 v -1.556763 -1.55675 h -0.934049 -0.934051 v -0.467024 -0.467025 h 1.474751 1.47475 l 0.04308,2.286549 0.04308,2.286547 1.138369,-3.456893 c 1.204081,-3.656438 1.289512,-3.804581 2.311977,-4.009073 0.568941,-0.113782 1.360621,0.24915 1.62629,0.745558 0.274897,0.513649 2.317925,6.690518 2.317925,7.007983 0,0.250838 -0.188532,0.276603 -2.023774,0.276603 h -2.023775 v -0.544862 -0.544861 h 1.323237 c 0.960737,0 1.320191,-0.0533 1.312117,-0.194594 -0.0061,-0.107029 -0.44395,-1.455563 -0.972968,-2.996746 -0.888522,-2.588528 -0.990378,-2.802149 -1.336065,-2.802149 -0.349047,0 -0.453757,0.235596 -1.55675,3.502687 l -1.182534,3.502688 -2.335125,0.02495 c -1.284318,0.01371 -2.565668,-0.03054 -2.847444,-0.0984 z m 5.727432,-0.05467 c 0,-0.373437 2.019201,-6.466849 2.17482,-6.563026 0.108543,-0.06708 1.87273,4.923035 1.87273,5.297149 0,0.03895 -0.485939,0.07078 -1.079861,0.07078 h -1.079862 l -0.04915,-0.505946 c -0.04373,-0.450247 -0.09327,-0.377414 -0.449958,0.661619 -0.376804,1.097624 -0.430402,1.170484 -0.894768,1.216348 -0.350117,0.03459 -0.493955,-0.01695 -0.493953,-0.17692 z m 2.448931,-2.833527 c -0.182001,-0.593013 -0.341978,-0.5551 -0.508855,0.120595 -0.09424,0.381564 -0.06317,0.428106 0.285763,0.428106 0.376011,0 0.384834,-0.0217 0.223092,-0.548701 z m -23.089046,1.426704 c -0.05005,-0.130414 -0.06672,-0.3638 -0.03705,-0.518643 0.04761,-0.248456 0.25943,-0.286692 1.803428,-0.325539 0.992707,-0.02497 1.749481,-0.109155 1.749481,-0.194594 0,-0.08282 -0.332756,-0.152115 -0.739457,-0.153996 -1.461849,-0.0068 -2.512136,-0.837133 -2.761553,-2.183326 -0.13192,-0.712026 0.266928,-1.731665 0.878747,-2.246476 0.664628,-0.559247 1.471191,-0.720225 3.359092,-0.670427 l 1.676132,0.04421 v 0.467025 0.467025 l -1.945937,0.08243 c -1.070265,0.04534 -2.071122,0.141397 -2.224127,0.213459 -0.353886,0.166676 -0.733697,0.894691 -0.733697,1.406344 0,0.216954 0.196884,0.614815 0.437523,0.884136 0.390768,0.437345 0.55907,0.500813 1.574923,0.593928 0.854945,0.07837 1.190873,0.177387 1.352739,0.398748 0.303215,0.414672 0.267474,1.070082 -0.0819,1.502058 -0.279216,0.345225 -0.416148,0.370649 -2.257302,0.419131 -1.644284,0.04331 -1.974713,0.01341 -2.051044,-0.185498 z m 8.687781,-0.0306 c -0.291542,-0.204203 -0.34599,-0.387941 -0.34599,-1.167561 v -0.925264 h 1.790264 1.790261 v 0.467025 0.467026 h -1.236212 c -0.679916,0 -1.279508,0.07005 -1.332425,0.155674 -0.06182,0.100027 0.491353,0.155675 1.547562,0.155675 h 1.643775 v 0.544864 0.544861 h -1.755624 c -1.337022,0 -1.838118,-0.05778 -2.101611,-0.242341 z m 6.382674,0 c -0.328236,-0.229903 -0.345989,-0.349267 -0.345989,-2.326296 0,-2.638803 -0.06898,-2.568637 2.525438,-2.568637 h 1.83346 v 0.544863 0.544862 h -1.712423 -1.712426 v 1.478912 1.478912 h 0.467025 c 0.256865,0 0.467026,-0.07005 0.467026,-0.155675 0,-0.08562 -0.105079,-0.155674 -0.233513,-0.155674 -0.155675,0 -0.233513,-0.155676 -0.233513,-0.467025 0,-0.456647 0.0173,-0.467026 0.778376,-0.467026 h 0.778374 v 1.167563 1.167562 h -1.132922 c -0.773432,0 -1.242712,-0.0769 -1.478913,-0.242341 z m -6.728664,-3.485072 c 0,-1.30133 0.188483,-1.409902 2.447601,-1.409902 h 1.755624 v 0.544863 0.544862 h -1.643775 c -1.056209,0 -1.609384,0.05565 -1.547562,0.155675 0.05291,0.08561 0.652509,0.155675 1.332425,0.155675 h 1.236212 v 0.467025 0.467024 h -1.790261 -1.790264 z"
         id="path8373"
         sodipodi:nodetypes="cscccccccccccccccccccccccccscccscccccccccccccccccccccccsccccccssscccccccssccccccccscccccccccccccccccccccccscccscccccccccccccccccccccccccsccccccccccccscccccccccccsssccccccccccccccsscssssssscccssssssscccsscccsssccccccssssscccssssscccccccccccssssscccsssssccsssssscssssssssssssscssscccsssssssssscscccccssscccsccssscccccccssssscccsssscccssscccccs" />
    </g>
  </g>
  <g
     inkscape:groupmode="layer"
     id="layer3"
     inkscape:label="Camada 3"
     sodipodi:insensitive="true"
     style="display:inline">
    <text
       xml:space="preserve"
       style="font-style:normal;font-weight:normal;font-size:10.5833px;line-height:1.25;font-family:sans-serif;display:inline;fill:#ffffff;fill-opacity:1;stroke:none;stroke-width:0.264583"
       x="48.880257"
       y="71.306084"
       id="text2121"><tspan
         sodipodi:role="line"
         id="tspan2119"
         style="font-style:normal;font-variant:normal;font-weight:300;font-stretch:normal;font-size:10.5833px;font-family:Inter;-inkscape-font-specification:'Inter, Light';font-variant-ligatures:normal;font-variant-caps:normal;font-variant-numeric:normal;font-variant-east-asian:normal;fill:#ffffff;stroke-width:0.264583"
         x="48.880257"
         y="71.306084">hacks</tspan></text>
  </g>
  <g
     inkscape:groupmode="layer"
     id="layer2"
     inkscape:label="Camada 2"
     style="display:inline;mix-blend-mode:multiply"
     sodipodi:insensitive="true">
    <rect
       style="fill:#00ff66;fill-opacity:1;stroke:none;stroke-width:1.00012;stroke-linecap:square;stroke-linejoin:round;paint-order:stroke markers fill"
       id="rect10353"
       width="127"
       height="84.666664"
       x="0"
       y="0"
       ry="4.2333331" />
  </g>
  <style
     type="text/css"
     id="style3952">
	.st0{fill:#FC0C18;}
	.st1{fill:#FC0C18;}
</style>
  <style
     type="text/css"
     id="style3952-7">
	.st0{fill:#FC0C18;}
	.st1{fill:#FC0C18;}
</style>
</svg>
