<svg width="480" height="320" version="1.1" viewBox="0 0 480 320" xml:space="preserve" xmlns="http://www.w3.org/2000/svg"><defs><linearGradient id="a" x1="26.29" x2="94.68" y2="96.49" gradientTransform="matrix(3.78 0 0 3.78 -1.502e-5 0)" gradientUnits="userSpaceOnUse"><stop stop-color="#2a7329" offset="0"/><stop stop-color="#29332d" offset="1"/></linearGradient></defs><rect width="480" height="320" ry="24" fill="url(#a)"/><path d="m192.6 256v23.97h6.422v-9.482h4.703v9.482h6.422v-23.97h-6.422v9.82h-4.703v-9.82zm25.2 0-6.16 23.97h6.422l0.7851-3.584h5.748l0.748 3.584h6.57l-6.16-23.97h-7.953zm20.91 0c-3.659 0-5.488 1.545-5.488 4.631v14.71c0 3.086 1.83 4.629 5.488 4.629h5.264c3.659 0 5.488-1.543 5.488-4.629v-4.182h-6.533v3.695c0 0.5476-0.3114 0.8223-0.9336 0.8223h-1.307c-0.6222 0-0.9336-0.2747-0.9336-0.8223v-13.74c0-0.5476 0.3114-0.8203 0.9336-0.8203h1.307c0.6222 0 0.9336 0.2728 0.9336 0.8203v3.846h6.533v-4.33c0-3.086-1.83-4.631-5.488-4.631h-5.264zm13.18 0v23.97h6.533v-23.97zm11.01 0-4.443 11.72 4.48 12.25h7.018l-4.703-12.25 4.666-11.72zm13.85 0c-3.634 0-5.449 1.545-5.449 4.631v4.928c0 1.518 0.3725 2.688 1.119 3.51 0.7716 0.7964 2.078 1.193 3.92 1.193h3.584c0.6222 0 0.9336 0.2747 0.9336 0.8223v3.396c0 0.5476-0.3114 0.8223-0.9336 0.8223h-1.082c-0.6222 0-0.9336-0.2747-0.9336-0.8223v-2.016h-6.533v2.875c0 3.086 1.83 4.629 5.488 4.629h5.076c3.634 0 5.451-1.543 5.451-4.629v-4.928c0-1.493-0.3989-2.627-1.195-3.398-0.7716-0.7716-2.078-1.156-3.92-1.156h-3.508c-0.6222 0-0.9336-0.2747-0.9336-0.8223v-3.547c0-0.5476 0.3114-0.8203 0.9336-0.8203h1.082c0.6222 0 0.9336 0.2728 0.9336 0.8203v2.016h6.533v-2.873c0-3.086-1.817-4.631-5.451-4.631h-5.115zm-54.99 7.131 1.828 8.625h-3.732z" fill="#afa"/><path d="m206 40c-9.347 0-23.91 10.08-36.1 25.84-15.07 19.49-20.81 40.3-12.82 46.48 1.528 1.176 3.437 1.742 5.642 1.742 9.356 0 23.92-10.08 36.11-25.84 15.07-19.49 20.81-40.3 12.82-46.48-1.528-1.176-3.437-1.742-5.651-1.742zm64.69 0c-9.347 0-23.91 10.08-36.11 25.84-15.06 19.49-20.81 40.3-12.82 46.47 1.528 1.176 3.437 1.742 5.642 1.742 9.347 0 23.91-10.08 36.11-25.84 15.07-19.48 20.82-40.29 12.82-46.47-1.519-1.176-3.437-1.742-5.642-1.742zm64.69 0c-9.347 0-23.91 10.08-36.11 25.84-15.07 19.49-20.81 40.3-12.82 46.48 1.528 1.176 3.437 1.742 5.642 1.742 9.347 0 23.92-10.08 36.11-25.84 15.07-19.49 20.81-40.3 12.82-46.48-1.528-1.176-3.437-1.742-5.642-1.742zm-174.6 91.94c-14.93 0-24.8 14.97-25.33 26.11-0.8986 19.11 14.17 24.93 20.74 24.93 13.2 0 20.46-12.06 23.29-21.49 0.8893-2.983-1.343-5.975-4.456-5.975h-14.97l-3.965 9.579h11.17c-2.455 4.4-6.846 7.642-12.01 7.642-2.612 0-10.47-2.372-9.921-13.92 0.3705-7.754 6.494-17.26 15.46-17.26 5.947 0 9.903 7.087 9.903 7.087l8.513-4.437s-6.401-12.26-18.43-12.26zm41.41 2.39c-2.677 0-5.364 1.417-6.642 4.465l-17.86 43.18h10.37l3.696-8.93h10.94l0.7966 8.93h9.615l-3.65-41.05c-0.3798-4.233-3.807-6.596-7.263-6.596zm28.71 0.1666c-3.038 0-6.068 1.908-6.642 5.706l-6.281 41.77h9.68l3.446-22.84 3.298 18.9c0.4539 2.584 2.612 4.002 4.789 4.002 1.714 0 3.446-0.8707 4.335-2.751l8.791-18.47-3.178 21.17h9.69l6.003-39.94c0.6948-4.576-2.946-7.531-6.586-7.531-2.26 0-4.539 1.149-5.771 3.761l-11.19 23.47-3.78-21.68c-0.6392-3.705-3.622-5.558-6.605-5.558zm47.24 0c-2.77 0-5.114 2.01-5.521 4.743l-5.456 36.33c-0.5002 3.363 2.112 6.401 5.521 6.401h18.58l1.427-9.588h-15.35l1.362-9.069h12.9l1.408-9.588h-12.88l1.454-9.68h15.39l1.417-9.551zm-77.39 16.8 1.084 12.17h-6.123zm7.105 37.66c-14.93 0-24.8 14.97-25.33 26.11-0.8986 19.11 14.17 24.93 20.74 24.93 13.2 0 20.46-12.06 23.29-21.49 0.8893-2.983-1.343-5.975-4.456-5.975h-14.97l-3.974 9.588h11.17c-2.455 4.4-6.846 7.642-12.01 7.642-2.612 0-10.47-2.372-9.921-13.92 0.3705-7.754 6.494-17.26 15.46-17.26 5.947 0 9.903 7.087 9.903 7.087l8.522-4.446s-6.401-12.26-18.43-12.26zm76.96 2.399c-2.668 0-5.364 1.417-6.642 4.465l-17.86 43.18h10.37l3.696-8.93h10.94l0.7966 8.93h9.615l-3.65-41.05c-0.3705-4.243-3.807-6.596-7.263-6.596zm-43.44 0.1666c-2.77 0-5.113 2.01-5.521 4.743l-5.456 36.33c-0.5002 3.363 2.112 6.401 5.521 6.401h18.58l1.427-9.588h-15.35l1.362-9.069h12.9l1.408-9.588h-12.88l1.454-9.68h15.39l1.417-9.551zm72.32 0c-2.742 0-5.067 1.983-5.502 4.688l-6.911 42.8h9.699l2.742-16.93h4.354c1.825 0 3.4 1.278 3.78 3.048l3.001 13.9h9.866l-2.881-13.36-0.1297-0.5835-9e-3 -0.0279c-0.0926-0.4076-0.2315-1.093-0.4816-2.223-0.6114-2.844-2.751-3.483-2.751-3.483 7.93-4.437 7.541-12.64 7.541-13.19 0-8.115-7.578-14.63-13.86-14.63h-3.502zm3.4 9.56h3.993c1.899 0 3.77 1.899 4.187 4.159 0.6299 3.381-1.973 7.235-5.771 7.235h-4.234zm-33.7 7.235 1.084 12.17h-6.123z" fill="#afa"/></svg>
