<svg width="480" height="320" version="1.1" viewBox="0 0 480 320" xml:space="preserve" xmlns="http://www.w3.org/2000/svg" xmlns:xlink="http://www.w3.org/1999/xlink"><defs><linearGradient id="a" x1="240" x2="120.6" y1="320" y2="-125.7" gradientUnits="userSpaceOnUse"><stop stop-color="#540" offset="0"/><stop stop-color="#ffd42a" offset="1"/></linearGradient></defs><rect id="b" width="480" height="320" ry="24" fill="url(#a)"/><path d="m73.5 120c-18.5 0-33.5 15-33.5 33.5s15 33.5 33.5 33.5c15.96-0.0391 29.68-11.34 32.78-27h5.719v25h15v-38h-45.26c-1.99-2.525-5.027-3.999-8.242-4-5.799 0-10.5 4.701-10.5 10.5s4.701 10.5 10.5 10.5c3.206-9e-3 6.232-1.482 8.217-4h9.051c-2.702 7.2-9.577 11.98-17.27 12-10.22 0-18.5-8.283-18.5-18.5s8.283-18.5 18.5-18.5c4.124 0.0308 8.119 1.439 11.35 4h18.84c-5.575-11.61-17.31-19-30.19-19zm38.5 4v14h27a4.5 4.5 0 0 1 4.5 4.5 4.5 4.5 0 0 1-4.5 4.5h-7v15l10 23h18l-13-26v-0.4394a18 18 0 0 0 9.314-8.953 18 18 0 0 0-2.525-19.18 18 18 0 0 0-13.78-6.42l-0.00781-0.00977h-0.1738zm78 0a30.5 30.5 0 0 0-30.5 30.5 30.5 30.5 0 0 0 30.5 30.5 30.5 30.5 0 0 0 30.5-30.5 30.5 30.5 0 0 0-30.5-30.5zm33 0v37a23.5 23.5 0 0 0 11.75 20.35 23.5 23.5 0 0 0 23.5 0 23.5 23.5 0 0 0 11.75-20.35v-14h-16v14h-0.0234a7.5 7.5 0 0 1 0.0234 0.5 7.5 7.5 0 0 1-7.5 7.5 7.5 7.5 0 0 1-7.5-7.5 7.5 7.5 0 0 1 0.0664-0.5h-0.0664v-37zm31 0v15h43l-6-15zm70 0-7.225 15h123.2v-15zm-134 14.5a16 16 0 0 1 16 16 16 16 0 0 1-16 16 16 16 0 0 1-16-16 16 16 0 0 1 16-16zm-115.2 6.961c1.028-7.3e-4 2.117 0.1641 3.242 0.5391 1 1-7e-6 3-1 3-5-2-8 0-10 2 0-2.438 3.302-5.536 7.758-5.539zm238.2 1.377-6.82 14.16-5.744-14h-16.44l14 38h16l15-38zm30 0.1621v38h41v-14h-26v-10h26v-14zm56 0v38h41v-14h-26v-10h26v-14z" fill="#fff"/><path d="m171.6 240.9v29.16h6v-10.4h7.479c2.667 0 4.8-0.8806 6.4-2.641s2.4-4.12 2.4-7.08c0-2.933-0.8128-5.172-2.439-6.719-1.6-1.547-3.921-2.32-6.961-2.32h-12.88zm26.48 0v29.16h5.602v-29.16h-5.602zm55.6 0v5h5.6v-5h-5.6zm-76.08 5h5.6c1.6 0 2.773 0.3601 3.52 1.08 0.7733 0.72 1.16 1.827 1.16 3.32 0 2.907-1.56 4.359-4.68 4.359h-5.6v-8.76zm40 2.199c-5.813 0-8.894 2.494-9.24 7.48h5.4c0.1333-1.12 0.4791-1.894 1.039-2.32 0.56-0.4267 1.533-0.6387 2.92-0.6387 2.16 0 3.24 0.7202 3.24 2.16 0 0.2933-0.03914 0.5588-0.1191 0.7988-0.08 0.2133-0.2405 0.4129-0.4805 0.5996-0.2133 0.16-0.4005 0.2937-0.5605 0.4004-0.16 0.1067-0.4398 0.1993-0.8398 0.2793-0.3733 0.08-0.6264 0.1478-0.7598 0.2012-0.1333 0.02666-0.4399 0.08015-0.9199 0.1602-0.48 0.05334-0.7474 0.08008-0.8008 0.08008l-2.24 0.4004c-4.24 0.72-6.359 2.986-6.359 6.799 0 1.947 0.6008 3.521 1.801 4.721 1.2 1.173 2.786 1.76 4.76 1.76 2.4 0 4.587-1.027 6.561-3.08 0 0.9067 0.212 1.627 0.6387 2.16h6.08v-0.6797c-0.8533-0.7733-1.279-1.654-1.279-2.641v-12c0-4.427-2.947-6.641-8.84-6.641zm59.16 0c-2.773 0-4.934 1.16-6.48 3.48v-3.119h-5.6v21.6h5.6v-12.96c0-1.28 0.4136-2.307 1.24-3.08 0.8267-0.7733 1.919-1.16 3.279-1.16 2.4 0 3.6 1.294 3.6 3.881v13.32h5.602v-14.48c0-2.373-0.6419-4.213-1.922-5.52-1.253-1.307-3.025-1.961-5.318-1.961zm20.4 0c-2.56 0-4.692 1.121-6.398 3.361-1.707 2.213-2.561 4.987-2.561 8.32 0 3.36 0.8004 6.066 2.4 8.119 1.627 2.053 3.773 3.08 6.439 3.08 1.253 0 2.319-0.2264 3.199-0.6797 0.9067-0.4533 1.88-1.268 2.92-2.441v2.922c0 1.307-0.4384 2.358-1.318 3.158-0.88 0.8267-2.028 1.24-3.441 1.24-2.187 0-3.506-0.8395-3.959-2.52h-5.801c0.02667 1.867 0.9073 3.346 2.641 4.439 1.733 1.12 4.04 1.682 6.92 1.682 3.253 0 5.774-0.7078 7.561-2.121 1.813-1.387 2.719-3.346 2.719-5.879v-22.32h-5.32v3.32c-1.6-2.453-3.6-3.682-6-3.682zm-67.84 0.3613 8.041 22.48v0.1602c0 1.013-0.3333 1.867-1 2.561-0.6667 0.6933-1.494 1.041-2.48 1.041-0.4 0-0.8938-0.08023-1.48-0.2402v4.199c0.7467 0.1067 1.413 0.1602 2 0.1602 0.6667 0 1.28-0.03914 1.84-0.1191 0.56-0.05333 1.054-0.1603 1.48-0.3203 0.4267-0.16 0.8011-0.3205 1.121-0.4805 0.3467-0.1333 0.6533-0.3473 0.9199-0.6406l0.6387-0.6387c0.16-0.1333 0.3081-0.374 0.4414-0.7207 0.16-0.32 0.265-0.5464 0.3184-0.6797 0.08-0.1067 0.1746-0.333 0.2812-0.6797 0.1067-0.32 0.1602-0.4948 0.1602-0.5215l8.879-25.56h-5.76l-4.48 15.72-4.76-15.72h-6.16zm24.36 0v21.6h5.6v-21.6h-5.6zm44.68 4.32c1.413 0 2.574 0.6523 3.48 1.959 0.9333 1.307 1.398 2.961 1.398 4.961 0 1.947-0.4651 3.533-1.398 4.76-0.9067 1.227-2.094 1.84-3.561 1.84-1.333 0-2.414-0.6132-3.24-1.84-0.8267-1.227-1.24-2.813-1.24-4.76 0-2.053 0.4136-3.72 1.24-5 0.8533-1.28 1.96-1.92 3.32-1.92zm-77.4 7.078v1.521c0 1.627-0.3868 2.88-1.16 3.76-0.7733 0.88-1.866 1.32-3.279 1.32-0.9333 0-1.68-0.2264-2.24-0.6797-0.5333-0.48-0.8008-1.122-0.8008-1.922 0-0.8267 0.2407-1.467 0.7207-1.92s1.307-0.7991 2.48-1.039l1.92-0.3594c1.067-0.2133 1.853-0.4416 2.359-0.6816z" fill="#fff"/></svg>
