<svg width="480" height="320" version="1.1" viewBox="0 0 480 320" xmlns="http://www.w3.org/2000/svg"><defs><linearGradient id="a" x1="230.8" x2="368.8" y1="339.2" y2="-72.59" gradientUnits="userSpaceOnUse"><stop stop-color="#424852" offset="0"/><stop stop-color="#fa0" offset="1"/></linearGradient></defs><rect width="480" height="320" ry="24" fill="url(#a)"/><path d="m248 204v-16a4 4 135 0 1 4-4h56a4 4 45 0 1 4 4v16a4 4 135 0 1-4 4h-56a4 4 45 0 1-4-4zm-37.17-44.71-41.86-41.65a3.302 3.302 112.4 0 1 2.329-5.643h21.92a9.671 9.671 22.47 0 1 6.831 2.826l36.85 36.77c4.64 4.72 4.64 12.4 0 16.96l-36.61 36.61a9.657 9.657 157.5 0 1-6.828 2.828h-21.92a3.314 3.314 67.5 0 1-2.343-5.657l41.64-41.64a0.9975 0.9975 89.93 0 0-2e-3 -1.412z" fill="#fff"/></svg>
