<svg width="480" height="320" version="1.1" viewBox="0 0 127 84.667" xmlns="http://www.w3.org/2000/svg" xmlns:xlink="http://www.w3.org/1999/xlink">
 <defs>
  <linearGradient id="a" x1="41.659" x2="62.19" y1="-12.675" y2="84.667" gradientUnits="userSpaceOnUse">
   <stop stop-color="#95a3ab" offset="0"/>
   <stop stop-color="#0e9a83" offset=".39146"/>
   <stop stop-color="#007367" offset="1"/>
  </linearGradient>
 </defs>
 <rect width="127" height="84.667" ry="4.2333" fill="url(#a)" stroke-linecap="square" stroke-linejoin="round" stroke-width=".52917" style="paint-order:stroke fill markers"/>
 <g transform="matrix(0 2.1167 -2.1167 0 88.9 16.933)">
  <path d="m0 0h24v24h-24z" fill="none"/>
  <path d="m17 1.01-10-0.01c-1.1 0-2 0.9-2 2v18c0 1.1 0.9 2 2 2h10c1.1 0 2-0.9 2-2v-18c0-1.1-0.9-1.99-2-1.99zm0 19.99h-10v-1h10zm0-3h-10v-12h10zm0-14h-10v-1h10zm-7.5 4.5h2.5v-1.5h-4v4h1.5zm2.5 8.5h4v-4h-1.5v2.5h-2.5z" fill="#fff"/>
 </g>
 <style type="text/css">.st0{fill:#FC0C18;}
	.st1{fill:#FC0C18;}</style>
</svg>
