<svg width="480" height="320" version="1.1" viewBox="0 0 480 320" xmlns="http://www.w3.org/2000/svg"><defs><linearGradient id="a" x1="58.3" x2="82.88" y1="-40.99" y2="105.4" gradientTransform="scale(3.78)" gradientUnits="userSpaceOnUse"><stop stop-color="#80ffe6" offset="0"/><stop stop-color="#37c871" offset=".4"/><stop stop-color="#006680" offset="1"/></linearGradient></defs><rect width="480" height="320" ry="24" fill="url(#a)"/><path d="m328 120c0-8.837-7.163-16-16-16h-144c-8.837 0-16 7.163-16 16v80c0 8.837 7.163 16 16 16h144c8.837 0 16-7.163 16-16v-80m-24 2v76a2 2 135 0 1-2 2h-124a2 2 45 0 1-2-2v-76a2 2 135 0 1 2-2h124a2 2 45 0 1 2 2zm-22 14h-24c-1.105 0-2 0.8954-2 2v8c0 1.105 0.8954 2 2 2h17c0.5523 0 1 0.4477 1 1v17c0 1.105 0.8954 2 2 2h8c1.105 0 2-0.8954 2-2v-24c0-3.314-2.686-6-6-6zm-60 36h-17c-0.5523 0-1-0.4477-1-1v-17c0-1.105-0.8954-2-2-2h-8c-1.105 0-2 0.8954-2 2v24c0 3.314 2.686 6 6 6h24c1.105 0 2-0.8954 2-2v-8c0-1.105-0.8954-2-2-2z" fill="#fff"/></svg>
