<svg width="480" height="320" version="1.1" viewBox="0 0 480 320" xml:space="preserve" xmlns="http://www.w3.org/2000/svg"><defs><linearGradient id="a" x1="116.4" x2="116.4" y1="84" y2="-1.175e-16" gradientTransform="scale(3.78)" gradientUnits="userSpaceOnUse"><stop stop-color="#002e99" offset="0"/><stop stop-color="#f4679d" offset="1"/></linearGradient></defs><rect width="480" height="320" ry="24" fill="url(#a)"/><path d="m324.7 129.3-1.959 0.01953h-1.459-4.803-1.459-1.939c-0.4064 0-0.7285 0.3241-0.7285 0.7305v1.803c0 0.4064 0.3222 0.7285 0.7285 0.7285h1.221c0.4064 0 0.7285 0.3241 0.7285 0.7305v6.094c0 0.4063 0.3131 0.7513 0.709 0.7617 0.4168 0.0104 0.75-0.3137 0.75-0.7305v-6.125c0-0.4064 0.3222-0.7305 0.7285-0.7305h3.346c0.4063 0 0.7285 0.3241 0.7285 0.7305v6.094c0 0.4063 0.3131 0.7513 0.709 0.7617 0.4168 0.0104 0.75-0.3137 0.75-0.7305v-6.125c0-0.4064 0.3222-0.7305 0.7285-0.7305h1.221c0.4063 0 0.7285-0.3222 0.7285-0.7285v-1.824c0-0.4063-0.3222-0.7285-0.7285-0.7285zm65.63 0.00977c-0.4063 0-0.7285 0.3241-0.7285 0.7305v9.396c0 0.4064 0.3222 0.7305 0.7285 0.7305h1.812c0.4063 0 0.7305-0.3241 0.7305-0.7305v-3c0-0.4064 0.3222-0.7285 0.7285-0.7285h2.48c0.4063 0 0.7285 0.3222 0.7285 0.7285v3c0 0.4064 0.3241 0.7305 0.7305 0.7305 0.4064 0 0.7285-0.3241 0.7285-0.7305v-4.469c0-0.4064-0.3222-0.7305-0.7285-0.7305-0.3959 0.0208-0.7305-0.3111-0.7305-0.707v-3.49c0-0.4064-0.3222-0.7305-0.7285-0.7305h-5.752zm-61.92 0.00976c-0.4064 0-0.7305 0.3241-0.7305 0.7305v3.48c0 0.4063-0.3222 0.7285-0.7285 0.7285h-1.031c-0.4063 0-0.7305 0.3222-0.7305 0.7285v4.471c0 0.4064 0.3241 0.7285 0.7305 0.7285h7.209c0.4064 0 0.7305-0.3222 0.7305-0.7285 0-0.4063-0.3241-0.7285-0.7305-0.7285h-5.752c-0.4063 0-0.7285-0.3241-0.7285-0.7305v-1.562c0-0.4064 0.3222-0.7285 0.7285-0.7285h5.752c0.4064 0 0.7305-0.3241 0.7305-0.7305 0-0.4063-0.3241-0.7285-0.7305-0.7285h-1.447c-0.4064 0-0.7305-0.3241-0.7305-0.7305v-2.031c0-0.4063 0.3241-0.7285 0.7305-0.7285h1.459c0.4064 0.0208 0.7285-0.3131 0.7285-0.709 0-0.4064-0.3222-0.7305-0.7285-0.7305h-4.73zm7.834 0c-0.4064 0-0.7285 0.3241-0.7285 0.7305v9.398c0 0.4064 0.3222 0.7285 0.7285 0.7285h4.752c0.4064 0 0.7285-0.3222 0.7285-0.7285v-1.814c0-0.4064-0.3326-0.7285-0.7285-0.7285h-3.293c-0.4063 0-0.7285-0.3222-0.7285-0.7285v-6.127c0-0.4064-0.3241-0.7305-0.7305-0.7305zm13.3 0c-0.4064 0-0.7285 0.3241-0.7285 0.7305v3.48c0 0.4063-0.3222 0.7285-0.7285 0.7285h-1.031c-0.4063 0-0.7305 0.3222-0.7305 0.7285v4.471c0 0.4064 0.3241 0.7285 0.7305 0.7285h7.209c0.4063 0 0.7285-0.3222 0.7285-0.7285 0-0.4063-0.3222-0.7285-0.7285-0.7285h-5.752c-0.4064 0-0.7285-0.3241-0.7285-0.7305v-1.562c0-0.4064 0.3222-0.7285 0.7285-0.7285h5.752c0.4063 0 0.7285-0.3241 0.7285-0.7305 0-0.4063-0.3222-0.7285-0.7285-0.7285h-1.447c-0.4064 0-0.7305-0.3241-0.7305-0.7305v-2.031c0-0.4063 0.3241-0.7285 0.7305-0.7285h1.457c0.4064 0.0208 0.7305-0.3131 0.7305-0.709 0-0.4064-0.3241-0.7305-0.7305-0.7305h-4.73zm7.523 0c-0.4064 0-0.7285 0.3241-0.7285 0.7305v9.398c0 0.4064 0.3222 0.7285 0.7285 0.7285h4.752c0.4063 0 0.7285-0.3222 0.7285-0.7285v-1.814c0-0.4064-0.3222-0.7188-0.7285-0.7188h-3.293c-0.4063 0-0.7305-0.3222-0.7305-0.7285v-6.137c0-0.4064-0.3222-0.7305-0.7285-0.7305zm9.764 0c-0.4063 0-0.7305 0.3241-0.7305 0.7305v3.48c0 0.4063-0.3222 0.7285-0.7285 0.7285h-1.031c-0.4063 0-0.7305 0.3222-0.7305 0.7285v4.471c0 0.4064 0.3241 0.7285 0.7305 0.7285h7.209c0.4063 0 0.7305-0.3222 0.7305-0.7285 0-0.4063-0.3241-0.7285-0.7305-0.7285h-5.74c-0.4064 0-0.7305-0.3241-0.7305-0.7305v-1.562c0-0.4064 0.3241-0.7285 0.7305-0.7285h5.75c0.4063 0 0.7305-0.3241 0.7305-0.7305 0-0.4063-0.3241-0.7285-0.7305-0.7285h-1.457c-0.4063 0-0.7305-0.3241-0.7305-0.7305v-2.031c0-0.4063 0.3241-0.7285 0.7305-0.7285h1.457c0.4063 0.0208 0.7305-0.3131 0.7305-0.709 0-0.4064-0.3241-0.7305-0.7305-0.7305h-4.729zm7.688 0c-0.4063 0-0.7285 0.3241-0.7285 0.7305v9.398c0 0.4064 0.3222 0.7285 0.7285 0.7285h5.377c0.4064 0 0.7305-0.3222 0.7305-0.7285 0-0.4063-0.3241-0.7305-0.7305-0.7305h-3.928c-0.4064 0-0.7285-0.3222-0.7285-0.7285v-4.689c0-0.4064 0.3222-0.7285 0.7285-0.7285h3.928c0.3959 0.0208 0.7305-0.313 0.7305-0.709v-1.812c0-0.4064-0.3241-0.7305-0.7305-0.7305h-5.377zm7.92 0c-0.4064 0-0.7305 0.3241-0.7305 0.7305v1.812c0 0.4064 0.3241 0.7305 0.7305 0.7305h1.24c0.4064 0 0.7285 0.3222 0.7285 0.7285v6.127c0 0.4064 0.3222 0.7285 0.7285 0.7285 0.4063 0 0.7305-0.3222 0.7305-0.7285v-6.127c0-0.4064 0.3222-0.7285 0.7285-0.7285h1.24c0.4064 0 0.7305-0.3241 0.7305-0.7305v-1.812h-0.01172c0-0.4064-0.3222-0.7305-0.7285-0.7305h-1.959-1.459-1.969zm17.78 0c-0.4064 0-0.7305 0.3345-0.7305 0.7305v9.398c0 0.4064 0.3241 0.7285 0.7305 0.7285h6.293c0.4063 0 0.7285-0.3222 0.7285-0.7285v-9.398c0-0.4064-0.3222-0.7305-0.7285-0.7305h-6.18-0.1133zm9.262 0c-0.4063 0-0.7285 0.3241-0.7285 0.7305v9.398c0 0.4064 0.3222 0.7285 0.7285 0.7285 0.4064 0 0.7285-0.3222 0.7285-0.7285v-6.127c0-0.4064 0.3241-0.7285 0.7305-0.7285h3.365c0.4064 0 0.7285 0.3222 0.7285 0.7285v6.127c0 0.4064 0.3241 0.7285 0.7305 0.7285 0.4063 0 0.7285-0.3222 0.7285-0.7285v-9.398c0-0.4064-0.3222-0.7305-0.7285-0.7305h-0.7305-4.824-0.7285zm10.97 0c-0.323 0-0.582 0.2714-0.582 0.584v6.398c0 0.323-0.2714 0.582-0.584 0.582h-0.8242c-0.323 0-0.582 0.2714-0.582 0.584v2.084c0 0.323 0.2694 0.584 0.582 0.584h3.471c0.323 0 0.584-0.2714 0.584-0.584v-2.084c0-0.323-0.2714-0.584-0.584-0.584-0.3542 0.0313-0.625-0.2499-0.625-0.5625v-6.418c0-0.323-0.2714-0.584-0.584-0.584h-0.2715zm3.752 0c-0.4063 0-0.7305 0.3241-0.7305 0.7305v9.398c0 0.4064 0.3241 0.7285 0.7305 0.7285h5.375c0.4064 0 0.7305-0.3222 0.7305-0.7285 0-0.4063-0.3241-0.7305-0.7305-0.7305h-3.928c-0.4063 0-0.7285-0.3222-0.7285-0.7285v-4.689c0-0.4064 0.3222-0.7285 0.7285-0.7285h3.928c0.4064 0.0208 0.7305-0.313 0.7305-0.709v-1.812c0-0.4064-0.3241-0.7305-0.7305-0.7305h-5.375zm8.74 0c-0.4064 0-0.7285 0.3241-0.7285 0.7305v4.949c0 0.4064 0.3222 0.7285 0.7285 0.7285h3.023c0.4063 0 0.7285 0.3241 0.7285 0.7305v1.551c0 0.4063-0.3222 0.7305-0.7285 0.7305h-3.939c-0.4064 0-0.7285 0.3222-0.7285 0.7285 0 0.4064 0.3222 0.7305 0.7285 0.7305h7.211c0.4063 0 0.7285-0.3241 0.7285-0.7305v-4.469c0-0.4063-0.3222-0.7305-0.7285-0.7305h-4.846c-0.4168-0.0104-0.7402-0.3424-0.7402-0.7383v-2.021c0-0.4063 0.3241-0.7305 0.7305-0.7305h3.875c0.4064 0 0.7305-0.3222 0.7305-0.7285 0-0.4064-0.3241-0.7305-0.7305-0.7305h-5.314zm-142.4 0.01172c-0.4064 0-0.7285 0.3222-0.7285 0.7285v2.543 6.834c0 0.4064 0.3131 0.7513 0.709 0.7617 0.4168 0.0104 0.75-0.3137 0.75-0.7305v-6.137c0-0.4064 0.3222-0.7285 0.7285-0.7285h0.9902c0.3542 0 0.6666 0.2714 0.7188 0.6152l0.5625 3.365c0.0625 0.3542 0.3645 0.6133 0.7188 0.6133h1.303c0.2917 0 0.5527-0.1659 0.6777-0.4473l2.104-4.908c0.1667-0.4168 0.8027-0.2905 0.8027 0.168v7.459c0 0.4064 0.3241 0.7305 0.7305 0.7305h1.26c0.2917 0 0.5527-0.1679 0.6777-0.4492l1.406-3.291c0.1146-0.2709 0.3756-0.4492 0.6777-0.4492h2.406c0.4063 0 0.7285 0.3241 0.7285 0.7305v2.719c0 0.4064 0.3241 0.7285 0.7305 0.7285h1.812c0.4063 0 0.7305-0.3222 0.7305-0.7285v-8.658-0.7285c0-0.4063-0.3241-0.7305-0.7305-0.7305h-4.406c-0.2709-0.01039-0.5319 0.1568-0.6465 0.4277l-3.096 7.221c-0.1667 0.4168-0.8008 0.2905-0.8008-0.168v-6.762c0-0.4063-0.3241-0.7285-0.7305-0.7285h-1.572c-0.2917 0-0.5527 0.166-0.6777 0.4473l-2.137 5.012c-0.1667 0.3855-0.7278 0.323-0.8008-0.09375l-0.8027-4.75c-0.0625-0.3542-0.3645-0.6152-0.7188-0.6152h-3.377zm16.34 1.447h1.98c0.4064 0 0.7285 0.3241 0.7285 0.7305v2.312c0 0.4064-0.3222 0.7285-0.7285 0.7285h-2.959c-0.521 0-0.8653-0.5298-0.6777-1.02l0.9902-2.314c0.1146-0.2605 0.3743-0.4375 0.666-0.4375zm84.96 0h2.834c0.4064 0 0.7305 0.3241 0.7305 0.7305v2.021c0 0.4063-0.3241 0.7285-0.7305 0.7285h-2.834c-0.4064 0-0.7285-0.3222-0.7285-0.7285v-2.012c0-0.4168 0.3222-0.7402 0.7285-0.7402zm9.877 0h3.365c0.4064 0 0.7305 0.3241 0.7305 0.7305v4.678c0 0.4064-0.3241 0.7285-0.7305 0.7285h-3.365c-0.4063 0-0.7285-0.343-0.7285-0.7285v-4.678c0-0.4063 0.3222-0.7305 0.7285-0.7305zm-126.2 0.9375-12.08 47.02-9.387-33.81h-15.61l11.47 38.33c3.042 10.16 17.54 9.877 20.17-0.3965l13.14-51.15h-7.711zm-235.5 2.908v55.1h15.04v-55.1h-15.04zm80.49 0-24.29 16.17v-5.861h-7.449v21.78l-14.19-19.57c-4.501-6.21-14.33-3.022-14.33 4.646v37.93h7.471v-26.39l17.95 24.77c3.313 4.584 10.54 2.231 10.54-3.416v-32.27h7.158c1.157 0 2.094 0.9372 2.094 2.094v25.62c0 5.303 4.303 9.596 9.596 9.596h5.439 10.65v-7.471l-8.555-0.01172c-1.157 0-2.084-0.9359-2.084-2.082v-25.65c0-1.157 0.9372-2.094 2.094-2.094h8.564v-7.471h-10.67v-10.3zm291.3 9.232c-3.977 0.09198-7.816 3.135-7.816 7.928v37.93h7.471v-26.39l17.95 24.77c3.313 4.584 10.54 2.231 10.54-3.416v-39.74h-7.449v21.78l-14.19-19.57c-1.688-2.329-4.123-3.336-6.51-3.281zm-96.68 1.061c-8.71 0-15.46 6.054-15.46 14.91 0 9.127 10.06 12.02 15.39 12.6 3.345 0.3542 6.574 1.749 6.574 5.031 0 2.636-2.271 4.783-4.74 4.783h-17.22v7.387s19.41 0.09449 19.68 0.08399c8.335-0.4063 14.96-7.211 14.96-15.46 0-1.375-0.07284-2.573-0.25-3.656-0.0417-0.2709-0.1042-0.5208-0.1562-0.7812-1.49-6.908-6.908-8.242-15.35-10.48 0 0-0.04165-0.01035-0.09375-0.03125l-1.938-0.5215c-3.657-0.9794-2.949-6.387 0.8438-6.387h1.656 1.656 8.877l-0.05273-7.471h-14.38zm-172.6 0.01172c-5.303 0-9.605 4.302-9.605 9.605v25.58c0 5.303 4.302 9.605 9.605 9.605h5.439 16.51v-7.471h-14.42c-1.157 0-2.094-0.9372-2.094-2.094v-9.096h13.7v-7.471h-13.7v-9.086c0-1.157 0.9372-2.094 2.094-2.094l14.42-0.00976v-7.471h-16.51-5.439zm24.25 0v35.17c0 5.303 4.303 9.596 9.596 9.596h5.439 10.65v-7.471h-8.564c-1.157 0-2.084-0.9359-2.084-2.082v-35.22h-15.04zm26.19 0v35.17c0 5.303 4.303 9.596 9.596 9.596h5.439 10.65v-7.471h-8.564c-1.157 0-2.084-0.9359-2.084-2.082v-35.22h-15.04zm27.06 0v7.471h15.04v-7.471h-15.04zm61.63 0v7.471h15.04v-7.471h-15.04zm55.27 0v7.471h15.04v-7.471h-15.04zm41.08 0.166c-8.335 0-23.32 1.885-23.32 22.78 0 20.89 14.98 22.78 23.32 22.78 8.335 0 23.32-1.887 23.32-22.78 0-20.89-14.98-22.78-23.32-22.78zm0 6.146c4.011 0 6.814 4.93 6.814 8.451v16.36c0 3.511-2.803 8.449-6.814 8.449-4.011 0-6.814-4.928-6.814-8.449v-16.36c0-3.511 2.803-8.451 6.814-8.451zm-158 4.918v33.54h15.04v-33.54h-15.04zm61.63 0v33.54h15.04v-33.54h-15.04zm55.27 0v33.54h15.04v-33.54h-15.04z" fill="#fff"/></svg>
