<svg width="480" height="320" version="1.1" viewBox="0 0 127 84.667" xmlns="http://www.w3.org/2000/svg" xmlns:xlink="http://www.w3.org/1999/xlink">
 <defs>
  <linearGradient id="a" x1="116.42" x2="116.42" y1="84.005" y2="-1.175e-16" gradientUnits="userSpaceOnUse">
   <stop stop-color="#002e99" offset="0"/>
   <stop stop-color="#f4679d" offset="1"/>
  </linearGradient>
 </defs>
 <g>
  <rect width="127" height="84.667" ry="4.2333" fill="url(#a)" stroke-linecap="square" stroke-linejoin="round" stroke-width=".52917" style="paint-order:stroke fill markers"/>
  <g transform="matrix(.17639 0 0 .17808 10.583 31.798)" fill="#fafafa">
   <path d="m446.82 0c-0.672 0-1.056 0.573-1.056 1.284l-0.141 13.848c0 0.672 0.573 1.023 1.284 1.023l6.36-0.054c0.714 0 1.284-0.381 1.284-1.056v-2.565c0-0.675-0.57-1.041-1.284-1.041l-4.107 0.018c-0.708 0-1.299-0.351-1.299-1.023v-9.15c0-0.711-0.366-1.284-1.041-1.284zm31.113 0c-0.087 0-0.168 0.018-0.243 0.036-0.525 0.12-0.816 0.624-0.816 1.248l-0.156 13.848c0 0.42 0.231 0.702 0.573 0.864 0.066 0.033 0.15 0.066 0.225 0.087 0.078 0.024 0.159 0.042 0.243 0.054 0.084 9e-3 0.171 0.018 0.261 0.018l6.342-0.054c0.711 0 1.281-0.381 1.281-1.056v-2.565c0-0.675-0.57-1.041-1.281-1.041l-4.11 0.018c-0.708 0-1.281-0.351-1.281-1.023l-0.018-9.15c0-0.711-0.348-1.284-1.02-1.284zm-99.486 0.018c-0.711 0-1.299 0.399-1.299 1.074l0.069 2.079-0.069 11.631c0 0.711 0.366 1.281 1.038 1.281 0.084 0 0.15 0 0.225-0.015 0.525-0.12 0.834-0.645 0.834-1.266v-9.15c0-0.675 0.573-1.059 1.281-1.059h0.885c0.711 0 1.281 0.384 1.281 1.059l0.867 4.869c0 0.711 0.348 1.284 1.023 1.284h2.271c0.084 0 0.168-3e-3 0.243-0.018 0.522-0.105 0.816-0.558 1.143-1.197 0 0 2.613-6.243 2.721-6.48 0.234-0.513 0.885-0.429 0.885 0.069v9.303l0.033 1.371c0 0.711 0.348 1.302 1.023 1.302l2.616 0.015c0.087 0 0.156 0 0.228-0.015 0.069-0.018 0.132-0.042 0.189-0.072 0.342-0.177 0.501-0.606 0.834-1.194l1.959-4.281c0.318-0.621 0.744-1.047 1.281-1.059h3.243c0.711 0 1.281 0.384 1.281 1.059l0.174 4.557c-9e-3 0.462 0.234 0.72 0.606 0.867 0.126 0.051 0.267 0.093 0.417 0.123 0.6 0.111 1.368 0.066 1.995 0.084 0.597 0.018 1.524-0.378 1.524-1.038l0.033-14.142c0-0.675-0.57-1.041-1.281-1.041h-6.864c-0.708 0-1.08 0.36-1.281 1.041 0 0-4.515 11.403-4.629 11.664-0.015 0.03-0.036 0.057-0.066 0.087-0.066 0.054-0.174 0.096-0.279 0.12-0.258 0.06-0.57 0-0.57-0.33 0-0.525-0.021-11.16-0.021-11.16 0-0.711-0.294-1.371-0.969-1.371h-2.427c-0.675 0-0.921 0.453-1.404 1.284 0 0-2.862 7.059-3.033 7.383-0.042 0.081-0.114 0.156-0.192 0.207-0.072 0.054-0.144 0.093-0.225 0.105-0.162 0.024-0.321-0.051-0.366-0.276-0.084-0.456-1.401-7.677-1.401-7.677 0-0.675-0.573-1.077-1.281-1.077zm125.29 0c-0.711 0-1.299 0.366-1.299 1.041l-0.069 14.001c0 0.252 0.087 0.459 0.225 0.627 0.141 0.165 0.324 0.291 0.555 0.363 0.075 0.021 0.156 0.039 0.243 0.051 0.081 0.012 0.168 0.018 0.258 0.018l2.184 0.018v0.018h5.337c0.09 0 0.18-9e-3 0.261-0.018 0.084-0.012 0.165-0.03 0.243-0.054 0.462-0.129 0.78-0.447 0.78-0.951 0-0.675-0.573-1.077-1.284-1.077h-5.337v0.036c-0.684-0.018-1.23-0.417-1.23-1.074l0.087-7.383c0-0.675 0.57-1.023 1.281-1.023h5.271c0.711 0 1.299-0.351 1.299-1.023v-2.463c0-0.672-0.591-1.056-1.299-1.056zm22.896 0c-0.09 0-0.177 6e-3 -0.258 0.018-0.588 0.075-1.038 0.432-1.038 1.023-3e-3 0.351 3e-3 0.69 0 1.038-0.027 3.981-0.111 7.98-0.054 11.958 3e-3 0.246-0.039 0.507-0.054 0.765-6e-3 0.129 0 0.258 0.021 0.381 0.018 0.123 0.057 0.237 0.12 0.345 0.168 0.285 0.411 0.468 0.675 0.573 0.267 0.108 0.57 0.132 0.867 0.123 0.468-0.012 0.912 0.036 1.335 0.015 0.141-6e-3 0.285-0.027 0.417-0.051 0.522-0.093 0.957-0.351 1.248-1.038l0.174-4.56c0-0.672 0.57-1.056 1.281-1.056h3.465c0.711 0 1.284 0.381 1.284 1.056l0.054 4.281c0 0.711 0.345 1.284 1.02 1.284 0.084 0 0.168 0 0.243-0.018 0.525-0.12 0.831-0.645 0.831-1.266v-5.874c0-1.011-0.885-1.338-1.542-1.665-0.198-0.099-0.375-0.198-0.504-0.312-0.126-0.114-0.192-0.246-0.192-0.417 0-0.891-0.015-5.562-0.015-5.562 0-0.675-0.576-1.041-1.284-1.041zm15.375 0c-0.09 0-0.177 6e-3 -0.261 0.018-0.585 0.075-1.038 0.432-1.038 1.023l-0.069 14.004c0 0.336 0.15 0.597 0.381 0.777 0.06 0.048 0.12 0.087 0.192 0.123 0.204 0.105 0.444 0.156 0.711 0.156h8.925c0.711 0 1.284-0.384 1.284-1.056l-0.069-14.004c0-0.675-0.573-1.041-1.284-1.041zm13.881 0c-0.087 0-0.177 6e-3 -0.258 0.018-0.168 0.024-0.315 0.069-0.453 0.138-0.342 0.171-0.57 0.498-0.57 0.918l0.066 2.079-0.066 11.631c0 0.621 0.276 1.146 0.798 1.266 0.072 0.015 0.141 0.015 0.225 0.015s0.168 0 0.243-0.015c0.525-0.12 0.831-0.645 0.831-1.266v-9.15c0-0.675 0.573-1.059 1.281-1.059h4.698c0.711 0 1.284 0.384 1.284 1.059l0.051 9.114c0 0.711 0.348 1.284 1.023 1.284 0.084 0 0.165 0 0.243-0.018 0.522-0.12 0.831-0.642 0.831-1.266l-0.021-10.137 0.021-3.537c0-0.675-0.591-1.074-1.302-1.074zm22.047 0c-0.534 0-1.002 0.204-1.197 0.591-0.066 0.126-0.087 0.282-0.087 0.45l-0.087 14.004c0 0.252 0.087 0.456 0.228 0.624 0.231 0.276 0.612 0.432 1.056 0.432l7.521 0.036c0.708 0 1.281-0.348 1.281-1.023 0-0.672-0.573-1.074-1.281-1.074l-5.271 0.036c-0.708 0-1.299-0.402-1.299-1.077l0.087-7.383c0-0.672 0.57-1.023 1.281-1.023h5.271c0.711 0 1.299-0.348 1.299-1.023v-2.46c0-0.675-0.588-1.059-1.299-1.059zm-6.309 0.018c-0.42 0-0.723 0.213-0.882 0.555-0.066 0.135-0.117 0.3-0.141 0.468-0.012 0.084-0.018 0.171-0.018 0.258l0.069 9.24c0 0.504-0.264 0.837-0.693 0.972-0.072 0.021-0.147 0.039-0.225 0.051-0.081 0.012-0.171 0-0.261 0h-0.486c-0.708 0-1.401 0.348-1.401 1.023v2.46c0 0.336 0.171 0.597 0.432 0.78 0.066 0.045 0.132 0.087 0.207 0.12 0.225 0.105 0.498 0.156 0.762 0.156h4.23c0.711 0 1.284-0.384 1.284-1.056v-2.46c0-0.108-6e-3 -0.195-0.021-0.279-0.093-0.585-0.501-0.657-0.9-0.729-0.174-0.03-0.339-0.063-0.486-0.138-0.246-0.123-0.417-0.354-0.417-0.9v-9.24c3e-3 -0.708-0.378-1.281-1.053-1.281zm-159.22 0.033c-0.711 0-1.302 0.384-1.302 1.059v2.46c0 0.675 0.591 1.023 1.302 1.023h1.611c0.708 0 1.281 0.351 1.281 1.023l-0.066 9.237c0 0.711 0.366 1.284 1.038 1.284 0.084 0 0.15 0 0.225-0.018 0.525-0.12 0.831-0.642 0.831-1.266v-9.237c0-0.591 0.435-0.927 1.023-1.005 0.084-0.012 0.171-0.018 0.261-0.018h4.437c0.708 0 1.281 0.351 1.281 1.023v9.237c0 0.711 0.384 1.284 1.056 1.284 0.087 0 0.171 0 0.243-0.018 0.519-0.12 0.78-0.642 0.78-1.266l-0.069-9.237c0-0.591 0.456-0.927 1.038-1.005 0.084-0.012 0.171-0.018 0.261-0.018h1.611c0.711 0 1.281-0.348 1.281-1.023v-2.46c0-0.675-0.57-1.059-1.281-1.059zm102.41 0c-0.177 0-0.348 0.024-0.501 0.069-0.078 0.024-0.159 0.051-0.225 0.087-0.342 0.171-0.573 0.48-0.573 0.9v2.463c0 0.672 0.591 1.023 1.299 1.023h1.614c0.708 0 1.281 0.348 1.281 1.023l-0.069 9.237c0 0.354 0.087 0.687 0.261 0.918 0.042 0.06 0.102 0.111 0.153 0.156 0.108 0.093 0.234 0.156 0.381 0.189 0.075 0.018 0.159 0.018 0.243 0.018s0.15 0 0.225-0.018c0.525-0.12 0.831-0.642 0.831-1.263v-9.24c0-0.588 0.438-0.927 1.023-1.005 0.084-9e-3 0.171-0.018 0.261-0.018h1.611c0.708 0 1.281-0.348 1.281-1.02v-2.463c0-0.675-0.573-1.056-1.281-1.056zm83.001 0-7.608 0.054c-0.087 0-0.174 3e-3 -0.258 0.015-0.588 0.084-1.023 0.453-1.023 1.041l0.087 7.071c0 0.672 0.573 1.038 1.281 1.038l3.726 0.069c0.711 0 1.284 0.402 1.284 1.074l-0.087 2.583c0 0.168-0.039 0.321-0.105 0.45-0.129 0.258-0.369 0.432-0.675 0.519-0.078 0.024-0.159 0.024-0.243 0.036s-0.171 0.018-0.261 0.018l-5.304 0.018c-0.09 0-0.174 6e-3 -0.258 0.015-0.588 0.078-1.023 0.435-1.023 1.023 0 0.339 0.132 0.6 0.363 0.78 0.234 0.183 0.564 0.279 0.918 0.279h9.999c0.357 0 0.672-0.087 0.903-0.261 0.234-0.171 0.381-0.423 0.381-0.762l0.087-6.951c0-0.672-0.591-1.02-1.299-1.02h-6.171c-0.711 0-1.281-0.351-1.281-1.026l-0.087-2.928c0-0.672 0.588-1.056 1.299-1.056l5.358 0.018c0.711 0 1.281-0.387 1.281-1.059s-0.573-1.038-1.284-1.038zm-162.48 0.123c-0.708 0-1.281 0.348-1.281 1.023v4.872c0 0.708-0.348 1.281-1.023 1.281l-1.389 0.036c-0.708 0-1.284 0.348-1.284 1.023l-0.084 6.636c0 0.507 0.336 0.846 0.798 0.987 0.075 0.024 0.141 0.039 0.225 0.051s0.171 0.018 0.258 0.018l10.419 0.036c0.708 0 1.281-0.351 1.281-1.023s-0.573-1.074-1.281-1.074l-8.163 0.036c-0.714 0-1.284-0.402-1.284-1.077l0.066-2.478c0-0.672 0.573-1.023 1.284-1.023l8.094 0.018c0.087 0 0.177-6e-3 0.258-0.018 0.084-0.012 0.15-0.03 0.225-0.051 0.465-0.132 0.798-0.465 0.798-0.972 0-0.588-0.435-0.954-1.023-1.038-0.081-0.012-0.171-0.018-0.258-0.018l-1.803-0.018c-0.09 0-0.177-6e-3 -0.261-0.018-0.333-0.045-0.609-0.174-0.795-0.399-0.141-0.165-0.228-0.387-0.228-0.639l0.069-3.033c0-0.675 0.591-1.041 1.302-1.041h1.716c0.711 0 1.281-0.366 1.281-1.038 0-0.675-0.57-1.059-1.281-1.059zm31.095 0c-0.444 0-0.828 0.129-1.059 0.399-0.045 0.051-0.09 0.126-0.12 0.189-0.066 0.126-0.105 0.264-0.105 0.432v4.872c0 0.708-0.348 1.281-1.02 1.281l-1.389 0.036c-0.711 0-1.284 0.348-1.284 1.023l-0.087 6.636c0 0.252 0.087 0.459 0.225 0.624 0.141 0.168 0.342 0.294 0.573 0.363 0.078 0.024 0.159 0.042 0.243 0.054 0.081 9e-3 0.168 0.018 0.258 0.018l10.398 0.033c0.711 0 1.284-0.348 1.284-1.023 0-0.672-0.573-1.074-1.284-1.074l-8.163 0.036c-0.711 0-1.281-0.402-1.281-1.074l0.066-2.481c0-0.672 0.591-1.02 1.302-1.02l8.076 0.015c0.09 0 0.177-6e-3 0.261-0.015 0.084-0.012 0.165-0.033 0.243-0.054 0.459-0.129 0.777-0.465 0.777-0.969 0-0.591-0.435-0.957-1.023-1.041-0.084-0.012-0.171-0.018-0.261-0.018l-1.8-0.018c-0.09 0-0.177-3e-3 -0.261-0.015-0.333-0.048-0.612-0.177-0.798-0.399-0.138-0.168-0.225-0.39-0.225-0.642l0.087-3.033c0-0.672 0.573-1.041 1.281-1.041h1.716c0.711 0 1.284-0.366 1.284-1.038 0-0.675-0.573-1.056-1.284-1.056zm25.806 0c-0.447 0-0.846 0.129-1.077 0.399-0.045 0.051-0.087 0.126-0.12 0.189-0.066 0.126-0.105 0.264-0.105 0.432l0.018 4.872c0 0.708-0.366 1.281-1.038 1.281l-1.371 0.036c-0.711 0-1.281 0.348-1.281 1.023l-0.087 6.636c0 0.252 0.087 0.459 0.225 0.624 0.141 0.168 0.324 0.294 0.555 0.363 0.075 0.024 0.159 0.042 0.24 0.054 0.084 9e-3 0.171 0.018 0.261 0.018l10.398 0.033c0.711 0 1.299-0.348 1.299-1.023 0-0.672-0.591-1.074-1.299-1.074l-8.145 0.036c-0.711 0-1.302-0.402-1.302-1.074l0.087-2.481c0-0.672 0.573-1.02 1.284-1.02l8.076 0.015c0.09 0 0.174-6e-3 0.261-0.015 0.081-0.012 0.165-0.033 0.24-0.054 0.465-0.129 0.798-0.465 0.798-0.969 0-0.591-0.456-0.957-1.038-1.041-0.084-0.012-0.171-0.018-0.261-0.018l-1.785-0.018c-0.087 0-0.177-3e-3 -0.261-0.015-0.333-0.048-0.63-0.177-0.816-0.399-0.138-0.168-0.204-0.39-0.204-0.642l0.066-3.033c0-0.672 0.573-1.041 1.284-1.041h1.716c0.708 0 1.299-0.366 1.299-1.038 0-0.675-0.591-1.056-1.299-1.056zm-89.379 2.13h2.859c0.708 0 1.284 0.351 1.284 1.023l0.087 3.015c0 0.675-0.576 1.059-1.284 1.059h-4.248c-1.458-0.021-1.266-1.041-1.176-1.386l1.194-2.688c0.345-0.588 0.573-1.023 1.284-1.023zm126.05 0h3.537c0.711 0 1.284 0.351 1.284 1.023l0.087 3.015c0 0.675-0.594 1.059-1.302 1.059h-3.675c-0.711 0-1.281-0.384-1.281-1.059l0.069-3.015c0-0.672 0.573-1.023 1.281-1.023zm15.15 0h4.659c0.711 0 1.284 0.351 1.284 1.023l0.069 7.401c0 0.675-0.573 1.059-1.284 1.059h-4.8c-0.711 0-1.281-0.384-1.281-1.059l0.069-7.401c0-0.672 0.573-1.023 1.284-1.023z"/>
   <path d="m353.44 6.165s-16.401 63.003-16.839 64.431c-0.573 1.863-2.346 2.472-3.276 0.324-1.143-2.292-13.563-44.847-13.563-44.847h-22.629s16.896 55.425 17.661 57.066c8.019 17.181 25.689 10.317 29.319-2.28 3.735-12.969 19.704-74.694 19.704-74.694zm-233.64 4.707-35.109 22.392c-3e-3 -4.332 0-7.074 0-7.074h-11.169v30.903c0 0.771-1.452 2.184-2.748 0.291 0 0-14.871-21.327-20.262-27.774-4.473-5.358-20.082-5.082-20.139 7.602-0.042 8.049 0.027 55.194 0.027 55.194h11.169v-38.967c0-2.16 1.911-1.401 3.099-0.063 0.549 0.624 24.471 37.047 25.548 38.505 2.442 3.288 14.502 5.721 14.502-6.726 0-8.919-0.024-35.328-0.03-49.581h10.905c1.143 0 2.601 1.284 2.601 1.287-9e-3 1.08-0.177 35.07-0.177 39.555 0 10.083 8.358 16.896 17.397 16.896h20.142v-9.795h-9.267c-3.321 0-5.934-2.439-5.934-5.757v-38.211c0-2.055 1.65-4.968 4.941-4.968s10.317-0.09 10.317-0.09v-8.418h-13.857c-1.287 0-1.959-1.014-1.959-1.959zm-119.62 0.378s-0.177 77.577-0.177 82.206l21.663-0.027v-82.176zm506.6 14.034c-10.413 0-19.758 4.341-26.253 11.256-0.381 0.408-0.75 0.831-1.11 1.257-5.064 5.937-8.127 13.536-8.127 21.837 0 4.743 1.008 9.282 2.805 13.389 0.225 0.513 0.453 1.02 0.699 1.521 4.239 8.511 11.982 15.078 21.429 17.922 0.558 0.168 1.131 0.297 1.698 0.438 2.835 0.708 5.796 1.08 8.859 1.08 19.605 0 35.52-15.375 35.52-34.35s-15.912-34.35-35.52-34.35zm-94.746 0.495c-13.026 0-23.124 9.318-23.124 22.569 0 13.65 15.057 17.991 23.007 18.828 5.001 0.525 9.822 3.984 9.822 8.886 0 3.945-3.408 7.134-7.077 7.134l-23.241-0.09v9.795h25.728c0.405 0 0.795-9e-3 1.197-0.03 12.462-0.612 22.365-10.626 22.365-22.977 0-2.037-0.114-3.843-0.378-5.466-0.069-0.405-0.156-0.786-0.234-1.17-2.229-10.329-10.326-12.327-22.95-15.669 0 0-6.696-2.082-6.696-6.108 0-2.52 1.458-4.248 3.45-5.175 0.201-0.093 0.405-0.186 0.615-0.264 1.041-0.384 2.184-0.555 3.333-0.555l15.756 0.057v-9.765zm-141.61 0.09s-0.177 6.888-0.177 11.517l21.663-0.06v-11.46h-21.486zm91.998 0s-0.147 6.888-0.147 11.517l21.633-0.06v-11.46h-21.486zm82.848 0s-0.144 6.888-0.144 11.517l21.63-0.06v-11.46h-21.486zm-290.61 0.057c-6.213 0-10.734 3.219-12.951 8.508-0.201 0.483-0.363 0.978-0.525 1.494-0.654 2.055-0.993 4.377-0.993 6.9v33.006c0 10.083 5.433 17.274 14.469 17.274h32.451v-9.765h-19.326c-3.318 0-5.901-2.811-5.874-6.138v-12.921h22.188v-9.765l-22.218-0.06-0.057-12.981c0-3.321 2.643-5.757 5.961-5.757h19.326v-9.795zm37.011 0.117s-0.177 45.741-0.177 50.37c0 1.89 0.291 3.654 0.789 5.292 0.165 0.546 0.339 1.092 0.555 1.608 2.364 5.658 7.602 9.333 13.683 9.912 0.552 0.051 1.131 0.087 1.695 0.087h20.142v-9.795h-8.886c-3.321 0-5.934-2.439-5.934-5.757v-51.717zm38.355 0s-0.147 45.741-0.147 50.37c0 9.456 6.735 16.026 15.024 16.812 0.552 0.051 1.104 0.087 1.668 0.087h20.142v-9.795h-9.24c-3.318 0-5.964-2.439-5.964-5.757v-51.717zm358.79 0.147v30.903c0 0.771-1.449 2.184-2.748 0.291 0 0-14.841-21.327-20.229-27.774-4.476-5.358-20.109-5.082-20.175 7.602-0.036 8.049 0.03 55.194 0.03 55.194h11.169v-38.967c0-2.16 1.908-1.401 3.099-0.063 0.552 0.624 24.501 37.047 25.578 38.505 0.459 0.615 1.233 1.2 2.223 1.665 0.333 0.153 0.684 0.315 1.053 0.438 4.413 1.485 11.196 0.507 11.196-8.829 0-12.447-0.03-58.965-0.03-58.965zm-82.032 7.104c8.604 0 12.045 11.793 12.045 26.34 0 14.544-4.044 26.322-12.045 26.34-2.184 6e-3 -4.014-0.714-5.553-2.046-0.192-0.168-0.372-0.342-0.555-0.528-0.549-0.552-1.056-1.188-1.521-1.899-0.153-0.237-0.324-0.48-0.468-0.732-2.769-4.803-3.915-12.501-3.915-21.135 0-0.909 0.012-1.803 0.027-2.691 0.153-7.965 1.044-14.886 3.771-19.149 0.153-0.237 0.306-0.45 0.468-0.672 1.794-2.418 4.284-3.828 7.746-3.828zm-236.36 8.304s-0.177 47.229-0.177 51.858l21.663-0.027v-51.831zm91.998 0s-0.147 47.229-0.147 51.858l21.633-0.027v-51.831zm82.848 0s-0.144 47.229-0.144 51.858l21.63-0.027v-51.831z"/>
  </g>
 </g>
 <style type="text/css">.st0{fill:#FC0C18;}
	.st1{fill:#FC0C18;}</style>
</svg>
