<?xml version="1.0" encoding="UTF-8" standalone="no"?>
<!-- Created with Inkscape (http://www.inkscape.org/) -->

<svg
   width="480"
   height="320"
   viewBox="0 0 127 84.666667"
   version="1.1"
   id="svg1543"
   inkscape:export-filename="/home/vitor/Dev/es-theme-material-tv-3-2/assets/logos/atarilynx.png"
   inkscape:export-xdpi="96"
   inkscape:export-ydpi="96"
   inkscape:version="1.1.1 (3bf5ae0d25, 2021-09-20)"
   sodipodi:docname="j2me.svg"
   xmlns:inkscape="http://www.inkscape.org/namespaces/inkscape"
   xmlns:sodipodi="http://sodipodi.sourceforge.net/DTD/sodipodi-0.dtd"
   xmlns="http://www.w3.org/2000/svg"
   xmlns:svg="http://www.w3.org/2000/svg">
  <sodipodi:namedview
     id="namedview1545"
     pagecolor="#505050"
     bordercolor="#eeeeee"
     borderopacity="1"
     inkscape:pageshadow="0"
     inkscape:pageopacity="0"
     inkscape:pagecheckerboard="0"
     inkscape:document-units="px"
     showgrid="false"
     units="px"
     width="640px"
     inkscape:snap-page="true"
     showguides="true"
     inkscape:guide-bbox="true"
     inkscape:zoom="1.9854167"
     inkscape:cx="256.62119"
     inkscape:cy="151.10178"
     inkscape:window-width="1920"
     inkscape:window-height="1049"
     inkscape:window-x="1920"
     inkscape:window-y="0"
     inkscape:window-maximized="1"
     inkscape:current-layer="layer1">
    <sodipodi:guide
       position="10.583333,71.4375"
       orientation="-1,0"
       id="guide2978"
       inkscape:label=""
       inkscape:locked="false"
       inkscape:color="rgb(0,0,255)" />
    <sodipodi:guide
       position="116.41667,13.229167"
       orientation="-1,0"
       id="guide2980"
       inkscape:label=""
       inkscape:locked="false"
       inkscape:color="rgb(0,0,255)" />
    <sodipodi:guide
       position="10.583333,71.4375"
       orientation="0,1"
       id="guide2982"
       inkscape:label=""
       inkscape:locked="false"
       inkscape:color="rgb(0,0,255)" />
    <sodipodi:guide
       position="116.41667,13.229167"
       orientation="0,1"
       id="guide2984"
       inkscape:label=""
       inkscape:locked="false"
       inkscape:color="rgb(0,0,255)" />
  </sodipodi:namedview>
  <defs
     id="defs1540">
    <clipPath
       id="clip1">
      <path
         d="m 249,0 h 75 v 124.51172 h -75 z m 0,0"
         id="path2" />
    </clipPath>
    <clipPath
       id="clip2">
      <path
         d="m 421,0 h 90 v 124.51172 h -90 z m 0,0"
         id="path5" />
    </clipPath>
    <clipPath
       id="clip3">
      <path
         d="m 513,0 h 28 v 124.51172 h -28 z m 0,0"
         id="path8" />
    </clipPath>
    <clipPath
       id="clip4">
      <path
         d="m 659,4 h 86.87109 V 124 H 659 Z m 0,0"
         id="path11" />
    </clipPath>
    <marker
       id="DefaultArrow2"
       markerUnits="strokeWidth"
       viewBox="0 0 1 1"
       markerWidth="1"
       markerHeight="1"
       overflow="visible"
       orient="auto">
      <!-- REF_ARROW_STRAIGHT (-2) -->
      <g
         transform="scale(0.0092592592)"
         id="g8989">
        <!-- 1/108 -->
        <path
           d="M -9 54 L -9 -54 L 117 0 z"
           id="path8987" />
      </g>
    </marker>
    <marker
       id="DefaultArrow3"
       markerUnits="strokeWidth"
       viewBox="0 0 1 1"
       markerWidth="1"
       markerHeight="1"
       overflow="visible"
       orient="auto">
      <!-- REF_ARROW_ANGLED -->
      <g
         transform="scale(0.0092592592)"
         id="g8994">
        <path
           d="M -27 54 L -9 0 L -27 -54 L 135 0 z"
           id="path8992" />
      </g>
    </marker>
    <marker
       id="DefaultArrow4"
       markerUnits="strokeWidth"
       viewBox="0 0 1 1"
       markerWidth="1"
       markerHeight="1"
       overflow="visible"
       orient="auto">
      <!-- REF_ARROW_ROUNDED -->
      <g
         transform="scale(0.0092592592)"
         id="g8999">
        <path
           d="M -9,0 L -9,-45 C -9,-51.708 2.808,-56.580 9,-54 L 117,-9 C 120.916,-7.369 126.000,-4.242 126,0 C 126,4.242 120.916,7.369 117,9 L 9,54 C 2.808,56.580 -9,51.708 -9,45 z"
           id="path8997" />
      </g>
    </marker>
    <marker
       id="DefaultArrow5"
       markerUnits="strokeWidth"
       viewBox="0 0 1 1"
       markerWidth="1"
       markerHeight="1"
       overflow="visible"
       orient="auto">
      <!-- REF_ARROW_SPOT -->
      <g
         transform="scale(0.0092592592)"
         id="g9004">
        <path
           d="M -54, 0 C -54,29.807 -29.807,54 0,54 C 29.807,54 54,29.807 54,0 C 54,-29.807 29.807,-54 0,-54 C -29.807,-54 -54,-29.807 -54,0 z"
           id="path9002" />
      </g>
    </marker>
    <marker
       id="DefaultArrow6"
       markerUnits="strokeWidth"
       viewBox="0 0 1 1"
       markerWidth="1"
       markerHeight="1"
       overflow="visible"
       orient="auto">
      <!-- REF_ARROW_DIAMOND -->
      <g
         transform="scale(0.0092592592)"
         id="g9009">
        <path
           d="M -63,0 L 0,63 L 63,0 L 0,-63 z"
           id="path9007" />
      </g>
    </marker>
    <marker
       id="DefaultArrow7"
       markerUnits="strokeWidth"
       viewBox="0 0 1 1"
       markerWidth="1"
       markerHeight="1"
       overflow="visible"
       orient="auto">
      <!-- REF_ARROW_FEATHER -->
      <g
         transform="scale(0.0092592592)"
         id="g9014">
        <path
           d="M 18,-54 L 108,-54 L 63,0 L 108,54 L 18, 54 L -36,0 z"
           id="path9012" />
      </g>
    </marker>
    <marker
       id="DefaultArrow8"
       markerUnits="strokeWidth"
       viewBox="0 0 1 1"
       markerWidth="1"
       markerHeight="1"
       overflow="visible"
       orient="auto">
      <!-- REF_ARROW_FEATHER2 -->
      <g
         transform="scale(0.0092592592)"
         id="g9019">
        <path
           d="M -36,0 L 18,-54 L 54,-54 L 18,-18 L 27,-18 L 63,-54 L 99,-54 L 63,-18 L 72,-18 L 108,-54 L 144,-54 L 90,0 L 144,54 L 108,54 L 72,18 L 63,18 L 99,54 L 63,54 L 27,18 L 18,18 L 54,54 L 18,54 z"
           id="path9017" />
      </g>
    </marker>
    <marker
       id="DefaultArrow9"
       markerUnits="strokeWidth"
       viewBox="0 0 1 1"
       markerWidth="1"
       markerHeight="1"
       overflow="visible"
       orient="auto">
      <!-- REF_ARROW_HOLLOWDIAMOND -->
      <g
         transform="scale(0.0092592592)"
         id="g9024">
        <path
           d="M 0,45 L -45,0 L 0, -45 L 45, 0 z M 0, 63 L-63, 0 L 0, -63 L 63, 0 z"
           id="path9022" />
      </g>
    </marker>
    <filter
       id="StainedFilter">
      <feBlend
         mode="multiply"
         in2="BackgroundImage"
         in="SourceGraphic"
         result="blend"
         id="feBlend9027" />
      <feComposite
         in="blend"
         in2="SourceAlpha"
         operator="in"
         result="comp"
         id="feComposite9029" />
    </filter>
    <filter
       id="BleachFilter">
      <feBlend
         mode="screen"
         in2="BackgroundImage"
         in="SourceGraphic"
         result="blend"
         id="feBlend9032" />
      <feComposite
         in="blend"
         in2="SourceAlpha"
         operator="in"
         result="comp"
         id="feComposite9034" />
    </filter>
    <filter
       id="InvertTransparencyBitmapFilter">
      <feComponentTransfer
         id="feComponentTransfer9043">
        <feFuncR
           type="gamma"
           amplitude="1.055"
           exponent=".416666666"
           offset="-0.055"
           id="feFuncR9037" />
        <feFuncG
           type="gamma"
           amplitude="1.055"
           exponent=".416666666"
           offset="-0.055"
           id="feFuncG9039" />
        <feFuncB
           type="gamma"
           amplitude="1.055"
           exponent=".416666666"
           offset="-0.055"
           id="feFuncB9041" />
      </feComponentTransfer>
      <feComponentTransfer
         id="feComponentTransfer9053">
        <feFuncR
           type="linear"
           slope="-1"
           intercept="1"
           id="feFuncR9045" />
        <feFuncG
           type="linear"
           slope="-1"
           intercept="1"
           id="feFuncG9047" />
        <feFuncB
           type="linear"
           slope="-1"
           intercept="1"
           id="feFuncB9049" />
        <feFuncA
           type="linear"
           slope="1"
           intercept="0"
           id="feFuncA9051" />
      </feComponentTransfer>
      <feComponentTransfer
         id="feComponentTransfer9061">
        <feFuncR
           type="gamma"
           amplitude="1"
           exponent="2.4"
           offset="0"
           id="feFuncR9055" />
        <feFuncG
           type="gamma"
           amplitude="1"
           exponent="2.4"
           offset="0"
           id="feFuncG9057" />
        <feFuncB
           type="gamma"
           amplitude="1"
           exponent="2.4"
           offset="0"
           id="feFuncB9059" />
      </feComponentTransfer>
    </filter>
    <inkscape:perspective
       sodipodi:type="inkscape:persp3d"
       inkscape:vp_x="0 : 526.18109 : 1"
       inkscape:vp_y="0 : 1000 : 0"
       inkscape:vp_z="744.09448 : 526.18109 : 1"
       inkscape:persp3d-origin="372.04724 : 350.78739 : 1"
       id="perspective10" />
    <inkscape:perspective
       id="perspective2824"
       inkscape:persp3d-origin="0.5 : 0.33333333 : 1"
       inkscape:vp_z="1 : 0.5 : 1"
       inkscape:vp_y="0 : 1000 : 0"
       inkscape:vp_x="0 : 0.5 : 1"
       sodipodi:type="inkscape:persp3d" />
  </defs>
  <g
     inkscape:label="Camada 1"
     inkscape:groupmode="layer"
     id="layer1">
    <rect
       style="opacity:1;fill:#00ff00;fill-opacity:1;stroke-width:0.529167;stroke-linecap:square;stroke-linejoin:round;paint-order:stroke fill markers"
       id="rect1569"
       width="127"
       height="84.666664"
       x="0"
       y="0"
       ry="4.2333331"
       inkscape:export-filename="/home/vitor/Dev/es-theme-material-tv-3-2/assets/logo/fbn.png"
       inkscape:export-xdpi="96"
       inkscape:export-ydpi="96" />
    <g
       id="g11683"
       transform="matrix(0.97100526,0,0,0.97100526,1.8368691,1.2274497)">
      <g
         id="path11161"
         transform="scale(0.26458333)">
        <path
           style="color:#000000;-inkscape-font-specification:'Inter Italic';fill:#ffffff;stroke-width:8;stroke-linejoin:round;-inkscape-stroke:none"
           d="m 92.808594,124.61523 -8.650391,52.11329 h 2.332031 l -0.332031,2 h 2.332031 l -0.332031,2 h 6.003906 l 8.652341,-52.11329 h -2.33203 l 0.33203,-2 h -2.332028 l 0.332031,-2 z m 139.236326,0 -8.65039,52.11329 h 2.33203 l -0.33203,2 h 2.33203 l -0.33203,2 h 6.00391 l 3.86914,-23.51172 c 1.22138,-6.81936 6.208,-10.6875 12.11133,-10.6875 1.19511,0 2.26355,0.16465 3.19726,0.48047 0.47881,1.44759 0.57171,3.22136 0.23242,5.29101 l -4.07031,24.42774 h 2.33399 l -0.33399,2 h 2.33203 l -0.33203,2 h 6.00391 l 4.17383,-24.83594 c 1.02261,-6.3274 -0.4042,-10.52577 -3.57227,-12.77539 -0.55574,-0.7852 -1.22589,-1.45031 -2,-2 -1.90331,-2.68916 -5.1465,-3.98242 -9.31836,-3.98242 -3.07737,0 -5.60407,0.62562 -7.66797,1.75195 l 1.69336,-10.27149 h -2.33008 l 0.33008,-2 h -2.33008 l 0.33008,-2 z m 85.08985,0 -8.65039,52.11329 h 2.33203 l -0.33203,2 h 2.33203 l -0.33203,2 h 6.0039 l 8.65234,-52.11329 h -2.33203 l 0.33203,-2 h -2.33203 l 0.33203,-2 z m 43.71484,0 -3.07617,18.45704 c -0.0698,-0.0526 -0.14011,-0.10503 -0.21289,-0.15625 -0.50114,-0.69988 -1.14419,-1.39768 -2,-2 -1.35854,-1.8973 -3.7614,-3.78125 -8.60352,-3.78125 -9.87281,0 -17.9897,7.83678 -20.05078,20.15234 -1.33024,8.11446 0.5672,14.27261 4.77539,17.56641 0.59221,0.7517 1.25978,1.42062 2,2 2.37752,3.01782 5.9851,4.68945 10.50586,4.68945 5.24825,0 8.45309,-2.28892 10.48242,-4.39649 l -0.26758,1.58204 h 2.33985 l -0.33985,2 h 5.80078 l 8.65235,-52.11329 h -2.33203 l 0.33203,-2 h -2.33203 l 0.33203,-2 z m 73.99609,12.41797 c -3.26634,0 -6.48248,1.28873 -8.82031,3.38086 l 0.13281,-0.76953 h -2.3457 l 0.3457,-2 h -5.80273 l -6.51367,39.08399 h 2.33398 l -0.33398,2 h 2.33398 l -0.33398,2 h 6.00586 l 4.07031,-24.73438 c 0.91601,-5.29264 5.70064,-9.16016 11.40039,-9.16016 1.62852,0 3.25693,0.30643 3.66406,0.40821 L 442,141.13477 c -0.52241,-0.0746 -1.4802,-0.0943 -2.31641,-0.0996 L 440,139.13477 c -0.52241,-0.0746 -1.4802,-0.0943 -2.31641,-0.0996 L 438,137.13477 c -0.71248,-0.10179 -2.23829,-0.10157 -3.1543,-0.10157 z m -369.923825,0.10157 c -5.298262,0 -8.44139,2.23985 -10.40625,4.29492 l 0.292969,-1.78516 h -2.328125 l 0.328125,-2 H 47.007812 L 38,191.38477 h 2.335938 l -0.335938,2 h 2.335938 l -0.335938,2 h 6.056641 l 3.326171,-19.86915 c 0.08582,0.0663 0.171413,0.133 0.261719,0.19727 0.508234,0.70057 1.152935,1.39712 2,2 1.400827,1.93094 3.84803,3.83008 8.660157,3.83008 9.745579,0 17.888144,-7.83852 19.949218,-20.25586 1.310961,-8.03171 -0.570545,-14.15661 -4.769531,-17.44727 -0.591503,-0.75151 -1.259593,-1.41976 -2,-2 -2.380694,-3.02469 -6.004792,-4.70507 -10.5625,-4.70507 z m 57.810545,0 c -5.90332,0 -13.02813,2.03545 -17.20117,9.16015 l 2.62109,1.00781 c -0.21369,0.3192 -0.42057,0.64983 -0.62109,0.99219 l 2.62109,1.00781 c -0.21369,0.3192 -0.42057,0.64983 -0.62109,0.99219 l 5.29297,2.03516 c 1.83207,-2.84988 5.70063,-5.90235 11.40039,-5.90235 1.02975,0 1.9377,0.10349 2.72851,0.30469 0.22015,1.0449 0.21231,2.26261 -0.0117,3.63477 v 0.20312 c -0.50891,2.84988 -3.46102,2.64647 -10.6875,3.5625 -7.43005,0.91604 -15.57289,2.54323 -17.09961,11.5 -0.70611,4.41318 0.73395,7.74009 3.50781,9.75977 0.54938,0.76542 1.22328,1.43446 2,2 1.98109,2.76015 5.55522,4.25195 9.89258,4.25195 4.51969,0 7.87517,-1.61113 10.09961,-3.4375 l -0.0899,0.52149 h 2.34571 l -0.34571,2 h 6.00586 l 4.27539,-25.75196 c 1.02057,-6.22544 -0.77434,-9.68664 -3.44531,-11.59179 -0.56889,-0.80767 -1.24971,-1.46483 -2,-2 -2.58319,-3.66739 -7.47868,-4.25 -10.66797,-4.25 z m 41.22266,0 c -10.61072,0 -19.06035,8.34547 -20.96875,20.2539 -1.26264,7.54306 0.48764,13.7331 4.83984,17.18164 0.58946,0.7421 1.25662,1.41097 2,2 2.49353,3.13923 6.38141,4.97266 11.51172,4.97266 8.62598,0 15.13966,-5.2937 17.4043,-12.21485 h -2.79492 c 0.30484,-0.64879 0.57106,-1.31583 0.79492,-2 h -2.79492 c 0.30484,-0.64879 0.57106,-1.31583 0.79492,-2 h -6.00391 c -1.85751,4.27483 -5.82787,6.82032 -10.48437,6.82032 -1.63905,0 -3.09387,-0.31113 -4.34571,-0.89844 -1.25739,-2.5483 -1.6147,-5.98685 -0.91601,-10.06445 1.3995,-8.85499 7.10007,-14.65625 14.14843,-14.65625 1.43907,0 2.68036,0.24387 3.73438,0.66992 0.27046,0.68613 0.44117,1.40972 0.50977,2.14844 h 1.54687 c 0.23734,0.64189 0.38947,1.31446 0.45313,2 h 1.54687 c 0.23734,0.64189 0.38947,1.31446 0.45313,2 h 6.0039 c 0.0975,-4.01136 -1.47448,-7.29061 -4.26562,-9.4375 -0.57026,-0.74468 -1.23979,-1.41526 -2,-2 -2.30149,-3.00547 -6.22263,-4.77539 -11.16797,-4.77539 z m 40,0 c -10.55983,0 -19.00946,8.34525 -20.96875,20.35546 -1.26573,7.56232 0.48718,13.55079 4.77148,16.94922 0.58873,0.74121 1.25588,1.40975 2,2 2.58239,3.25121 6.68247,5.10352 12.08985,5.10352 7.9644,0 14.37673,-3.96972 17.20117,-9.87305 l -2.65039,-0.78711 c 0.23294,-0.39465 0.45211,-0.79847 0.65039,-1.21289 l -2.65039,-0.78515 c 0.23326,-0.39512 0.45187,-0.79992 0.65039,-1.21485 l -5.4961,-1.6289 c -2.21374,4.07125 -5.97988,6.10742 -10.78906,6.10742 -2.202,0 -4.10348,-0.2882 -5.65625,-0.9336 -0.78445,-1.96168 -0.9623,-4.58383 -0.44531,-7.99414 h 28.42187 l 0.40625,-2.54297 c 1.46026,-8.61101 -0.68657,-13.87257 -4.375,-16.73437 -0.59532,-0.76643 -1.2665,-1.43089 -2,-2 -2.66166,-3.42665 -6.8636,-4.80859 -11.16015,-4.80859 z m 83.8164,0 c -10.40716,0 -18.65214,7.83744 -20.56054,19.84765 -1.27905,7.83621 0.6266,14.02169 4.96679,17.48633 0.59391,0.7422 1.26127,1.41029 2,2 2.58847,3.23479 6.58494,5.07422 11.68946,5.07422 10.35627,0 18.60125,-7.83766 20.56054,-19.74609 1.2637,-7.90618 -0.66114,-14.11992 -5.0039,-17.5918 -0.59407,-0.74237 -1.26273,-1.41058 -2,-2 -2.59071,-3.23744 -6.5786,-5.07031 -11.65235,-5.07031 z m 104.63086,0 c -10.55985,0 -19.0075,8.34525 -20.96679,20.35546 -1.26558,7.5614 0.48441,13.55058 4.76757,16.94922 0.58851,0.74107 1.25619,1.40979 2,2 2.58235,3.2518 6.68389,5.10352 12.0918,5.10352 7.96441,0 14.37673,-3.96972 17.20117,-9.87305 l -2.65039,-0.78515 c 0.23346,-0.39539 0.45173,-0.79962 0.65039,-1.21485 l -2.64843,-0.78515 c 0.23326,-0.39512 0.44991,-0.79992 0.64843,-1.21485 L 398,166.04102 c -2.21374,4.07125 -5.97988,6.10742 -10.78906,6.10742 -2.202,0 -4.10349,-0.2882 -5.65625,-0.9336 -0.78446,-1.96168 -0.96229,-4.58383 -0.44531,-7.99414 h 28.42187 l 0.4082,-2.54297 c 1.46025,-8.61101 -0.68657,-13.87257 -4.375,-16.73437 -0.59387,-0.76455 -1.26468,-1.42791 -1.99609,-1.99609 -2.66149,-3.42982 -6.86766,-4.8125 -11.16602,-4.8125 z M 67.292969,146.5293 c 1.575497,0 2.936715,0.27589 4.095703,0.78515 1.212538,2.58304 1.466321,6.02761 0.861328,9.8711 -1.450386,8.34608 -6.337366,14.96289 -13.84375,14.96289 -1.496418,0 -2.808181,-0.26141 -3.9375,-0.75196 -1.211111,-2.58957 -1.487164,-6.10385 -0.814453,-10.21093 1.399495,-8.75321 6.284958,-14.65625 13.638672,-14.65625 z m 139.746091,0 c 1.56982,0 2.95569,0.28136 4.14063,0.80078 0.82261,1.85594 1.053,4.14926 0.61133,6.70117 h -16.67383 c 2.41722,-4.07564 6.94199,-7.50195 11.92187,-7.50195 z m 84.63086,0 c 1.56995,0 2.91879,0.27522 4.0625,0.77734 1.23202,2.61401 1.46204,6.05339 0.89453,9.67578 -1.32316,8.06619 -6.43934,15.16602 -14.6582,15.16602 -1.59969,0 -2.97005,-0.27788 -4.12891,-0.78516 -1.20512,-2.58236 -1.41314,-5.97269 -0.82617,-9.5664 1.27227,-8.04074 6.38651,-15.26758 14.65625,-15.26758 z m 58.87891,0 c 1.60507,0 3.00806,0.27982 4.20508,0.81054 1.18082,2.51091 1.45908,5.88461 0.80273,9.84571 -1.47583,8.85499 -6.66609,14.96289 -13.89258,14.96289 -1.4872,0 -2.78074,-0.26001 -3.88867,-0.73828 -1.24398,-2.66285 -1.4815,-6.24659 -0.81445,-10.22461 1.3486,-8.24431 5.97972,-14.65625 13.58789,-14.65625 z m 44.9375,0 c 1.57087,0 2.95712,0.28265 4.14258,0.80273 0.82185,1.85557 1.05284,4.14827 0.61132,6.69922 h -16.67382 c 2.41726,-4.07554 6.94015,-7.50195 11.91992,-7.50195 z m -155.6836,0.5957 c -0.13642,0.20472 -0.27049,0.41175 -0.39843,0.625 h -0.31641 c 0.23071,-0.21985 0.46906,-0.42677 0.71484,-0.625 z m -112.89257,15.43164 -0.004,0.0234 c -0.81425,4.88551 -5.49639,9.66992 -12.62109,9.66992 -1.17177,0 -2.23961,-0.12977 -3.17383,-0.38477 -0.0828,-0.58492 -0.0707,-1.22584 0.0488,-1.92578 0.71247,-4.58016 5.19088,-6.0065 9.97461,-6.61718 1.25993,-0.1512 3.59264,-0.40244 5.77539,-0.76563 z"
           id="path11774" />
        <path
           style="color:#000000;-inkscape-font-specification:'Inter Italic';fill:#000000;stroke-linejoin:round;-inkscape-stroke:none"
           d="m 92.808594,120.61523 a 4.0004,4.0004 0 0 0 -3.945313,3.34571 l -3.949219,23.79687 c -1.115578,-2.78441 -2.666243,-5.26657 -4.96289,-7.0664 -0.416255,-0.46853 -0.856317,-0.91088 -1.324219,-1.32618 l -0.144531,-0.14257 c -3.162083,-3.90817 -8.093908,-6.08789 -13.560547,-6.08789 -3.616037,0 -6.532582,0.97746 -8.886719,2.25781 a 4.0004,4.0004 0 0 0 -3.226562,-1.74805 h -5.800782 a 4.0004,4.0004 0 0 0 -3.945312,3.33789 l -9.007813,53.74024 a 4.0004,4.0004 0 0 0 2.554688,4.01757 4.0004,4.0004 0 0 0 2,2 A 4.0004,4.0004 0 0 0 42,199.38477 h 6.056641 a 4.0004,4.0004 0 0 0 3.945312,-3.33985 l 2.130859,-12.73437 c 2.122109,1.28494 4.814027,2.23242 8.171875,2.23242 7.156611,0 13.486429,-3.58595 17.921875,-9.41992 a 4.0004,4.0004 0 0 0 2.541016,3.96093 4.0004,4.0004 0 0 0 2,2 4.0004,4.0004 0 0 0 3.390625,2.64454 h 6.003906 a 4.0004,4.0004 0 0 0 3.945313,-3.34571 l 1.052734,-6.34375 c 0.850774,1.38087 1.852774,2.64451 3.148434,3.58789 l -0.89648,-0.90234 c 0.59107,0.82351 1.35981,1.46914 2.11523,2.12109 2.92498,3.96123 7.83276,5.79883 13.02735,5.79883 3.63824,0 6.70662,-0.92424 9.23242,-2.20703 a 4.0004,4.0004 0 0 0 2.77734,1.29102 h 6.00586 a 4.0004,4.0004 0 0 0 3.94531,-3.34571 l 1.80079,-10.85156 c 1.11327,2.78961 2.67226,5.30929 5.02539,7.17383 0.42365,0.47652 0.87311,0.92803 1.35156,1.35351 0.0198,0.025 0.0484,0.0416 0.0684,0.0664 3.28537,4.08458 8.52964,6.41797 14.57617,6.41797 9.2038,0 16.68142,-5.21897 20.14063,-12.42578 1.00903,1.68529 2.22969,3.21699 3.79296,4.45703 0.42398,0.47686 0.87494,0.92783 1.35352,1.35351 3.40467,4.28646 8.90181,6.61524 15.22266,6.61524 7.39242,0 13.84035,-3.08606 17.99609,-8.03906 a 4.0004,4.0004 0 0 0 2.16016,2.58007 4.0004,4.0004 0 0 0 2,2 4.0004,4.0004 0 0 0 3.39062,2.64454 h 6.00391 a 4.0004,4.0004 0 0 0 3.94726,-3.34961 l 3.85938,-23.45704 c 2.8e-4,-0.002 0.002,-0.002 0.002,-0.004 0.89177,-4.97027 3.76673,-7.11468 7.62891,-7.31055 -0.0158,0.40327 0.10615,0.55426 0.0254,1.04688 l -4.06836,24.41601 a 4.0004,4.0004 0 0 0 2.55469,4.01367 4.0004,4.0004 0 0 0 2,2 4.0004,4.0004 0 0 0 3.39062,2.64454 h 6.00391 a 4.0004,4.0004 0 0 0 3.94531,-3.3379 l 1.87305,-11.14257 c 1.1403,2.87719 2.74713,5.4526 5.12109,7.34765 0.43108,0.48424 0.88832,0.94164 1.37305,1.37305 3.38117,4.22543 8.74704,6.57422 14.8125,6.57422 7.5401,0 14.14411,-3.63038 18.67383,-9.47461 l -0.002,0.006 a 4.0004,4.0004 0 0 0 2.55469,4.00976 4.0004,4.0004 0 0 0 2,2 4.0004,4.0004 0 0 0 3.39062,2.64454 h 6.00391 a 4.0004,4.0004 0 0 0 3.94531,-3.34571 l 1.75782,-10.58398 c 1.11764,2.8475 2.69122,5.3781 5.02539,7.20508 0.4149,0.46694 0.85479,0.90919 1.32226,1.32421 0.042,0.0533 0.0999,0.0899 0.14258,0.14258 3.15659,3.89852 8.07249,6.07227 13.50586,6.07227 3.71919,0 6.70402,-1.06055 9.10742,-2.42383 a 4.0004,4.0004 0 0 0 3.10742,1.60938 h 5.80078 a 4.0004,4.0004 0 0 0 3.94532,-3.34571 l 2.02343,-12.18164 c 1.06003,3.33304 2.8585,6.23945 5.54493,8.3711 0.42457,0.47755 0.87463,0.92955 1.35351,1.35546 0.015,0.0189 0.0357,0.032 0.0508,0.0508 3.40854,4.25192 8.88065,6.56445 15.17383,6.56445 7.39243,0 13.84036,-3.08606 17.9961,-8.03906 a 4.0004,4.0004 0 0 0 2.16015,2.58007 4.0004,4.0004 0 0 0 2,2 4.0004,4.0004 0 0 0 3.39063,2.64454 h 6.00586 a 4.0004,4.0004 0 0 0 3.94726,-3.34961 l 4.06445,-24.70313 c 2.6e-4,-10e-4 0.002,-0.002 0.002,-0.004 0.57457,-3.30683 3.56844,-5.83789 7.45703,-5.83789 1.12675,0 2.88825,0.33779 2.69336,0.28907 a 4.0004,4.0004 0 0 0 4.91601,-3.22266 l 1.01758,-6.10742 a 4.0004,4.0004 0 0 0 -2.36523,-4.25781 4.0004,4.0004 0 0 0 -2,-2 4.0004,4.0004 0 0 0 -3.01367,-2.35938 c -1.50481,-0.21499 -2.80534,-0.14258 -3.72071,-0.14258 -2.76016,0 -5.39081,0.72951 -7.75976,1.9336 a 4.0004,4.0004 0 0 0 -2.92774,-1.32227 h -5.80273 a 4.0004,4.0004 0 0 0 -3.94531,3.3418 l -1.72852,10.36914 c -1.09626,-2.67529 -2.60432,-4.97263 -4.66602,-6.57227 -0.40876,-0.45958 -0.83617,-0.88977 -1.2871,-1.28906 l -0.0723,-0.0703 c -3.59563,-4.56908 -9.1285,-6.28906 -14.25391,-6.28906 -8.3967,0 -15.57859,4.53108 -20.15039,11.48828 l 2.54883,-15.35352 a 4.0004,4.0004 0 0 0 -2.4043,-4.31445 4.0004,4.0004 0 0 0 -2,-2 4.0004,4.0004 0 0 0 -3.54101,-2.33985 h -6.00586 a 4.0004,4.0004 0 0 0 -3.94531,3.3418 l -1.88868,11.33008 c -2.09647,-1.24233 -4.75281,-2.15234 -8.05859,-2.15234 -7.25329,0 -13.63804,3.6138 -18.08594,9.47656 l 2.21485,-13.3418 a 4.0004,4.0004 0 0 0 -2.4043,-4.31445 4.0004,4.0004 0 0 0 -2,-2 4.0004,4.0004 0 0 0 -3.54102,-2.33985 h -6.00585 a 4.0004,4.0004 0 0 0 -3.94532,3.34571 l -4.08398,24.60156 c -1.14366,-2.9372 -2.77623,-5.55782 -5.1836,-7.48242 -0.43241,-0.4856 -0.89037,-0.94368 -1.375,-1.375 -3.38169,-4.22589 -8.73832,-6.57031 -14.77539,-6.57031 -9.19669,0 -17.02067,5.34615 -21.34179,13.5996 -0.85755,-2.82653 -2.4306,-5.1657 -4.69532,-6.80468 -0.35153,-0.40265 -0.72807,-0.77149 -1.125,-1.12305 l -0.0293,-0.0312 c -2.79543,-3.91913 -7.57134,-5.64062 -12.55469,-5.64062 -0.9579,0 -1.81241,0.19154 -2.71484,0.29687 l 0.6875,-4.16602 a 4.0004,4.0004 0 0 0 -2.40625,-4.31054 4.0004,4.0004 0 0 0 -2,-2 4.0004,4.0004 0 0 0 -3.54102,-2.33985 H 232.045 a 4.0004,4.0004 0 0 0 -3.94531,3.34571 l -3.87891,23.36914 c -1.0962,-2.66323 -2.59937,-4.95249 -4.65429,-6.54688 -0.40982,-0.46105 -0.83995,-0.89195 -1.29297,-1.29297 -3.59315,-4.62585 -9.16411,-6.35546 -14.31836,-6.35546 -8.67627,0 -16.04687,4.84394 -20.58594,12.20117 -0.9715,-1.76659 -2.2079,-3.36598 -3.80664,-4.59571 -0.39486,-0.44594 -0.81612,-0.86482 -1.26367,-1.26171 -3.17397,-4.14483 -8.44403,-6.34375 -14.34375,-6.34375 -9.36979,0 -17.27022,5.55656 -21.65235,13.85156 -0.89275,-2.97545 -2.48433,-5.36257 -4.58007,-6.85742 l 0.94726,0.95312 c -0.84585,-1.20088 -1.86799,-2.1833 -2.94726,-2.95312 l 0.94726,0.95312 c -3.83843,-5.44948 -10.26107,-5.94726 -13.9375,-5.94726 -5.69184,0 -12.74605,1.85617 -17.8457,7.41796 l 1.87305,-11.2832 a 4.0004,4.0004 0 0 0 -2.4043,-4.31445 4.0004,4.0004 0 0 0 -2,-2 4.0004,4.0004 0 0 0 -3.541017,-2.33985 z m 271.283206,8.87305 a 4.0004,4.0004 0 0 0 1.04101,0.48242 4.0004,4.0004 0 0 0 1.17578,1.61719 l -7.29882,43.95703 a 4.0004,4.0004 0 0 0 -1.14063,-0.5664 4.0004,4.0004 0 0 0 -6.08008,-0.60743 c -1.57352,1.6342 -3.51633,3.17188 -7.60156,3.17188 -2.43593,0 -4.10802,-0.70538 -5.52539,-1.70508 0.96614,0.19847 1.96728,0.31055 3.00195,0.31055 4.74019,0 9.04031,-2.13307 12.06836,-5.47657 3.02805,-3.34349 4.93113,-7.79769 5.76953,-12.82812 a 4.0004,4.0004 0 0 0 0,-0.004 c 0.673,-4.06156 0.50525,-7.81834 -0.74414,-11.11914 a 4.0004,4.0004 0 0 0 2.96094,-2.99023 z m -268.039066,0.002 a 4.0004,4.0004 0 0 0 1.039063,0.48047 4.0004,4.0004 0 0 0 1.175781,1.61719 l -7.324219,44.09961 a 4.0004,4.0004 0 0 0 -0.912109,-0.61914 4.0004,4.0004 0 0 0 -1.289063,-1.5332 z m 139.236326,0 a 4.0004,4.0004 0 0 0 1.03906,0.48047 4.0004,4.0004 0 0 0 1.17774,1.61914 l -1.0957,6.64649 a 4.0004,4.0004 0 0 0 5.86328,4.16211 c 1.40562,-0.76709 3.21671,-1.26367 5.75195,-1.26367 3.13141,0 4.74248,0.80576 5.77734,2.07812 -1.39638,-0.46522 -2.88038,-0.68359 -4.42382,-0.68359 -2.56894,0 -4.94944,0.82085 -7.17188,1.97265 a 4.0004,4.0004 0 0 0 -4.91601,-0.49023 c -0.32091,0.25882 -0.64355,0.53749 -0.9629,0.8418 a 4.0004,4.0004 0 0 0 -0.0937,0.42968 c -0.0868,0.13529 -0.16901,0.25694 -0.25976,0.40821 l 0.19531,-0.11133 a 4.0004,4.0004 0 0 0 -0.0547,4.1582 c -1.3247,1.95634 -2.32636,4.21187 -2.78515,6.77344 a 4.0004,4.0004 0 0 0 -0.01,0.0547 l -3.14648,19.11718 a 4.0004,4.0004 0 0 0 -0.90625,-0.61523 4.0004,4.0004 0 0 0 -1.28906,-1.5332 z m 85.08985,0 a 4.0004,4.0004 0 0 0 1.03906,0.48047 4.0004,4.0004 0 0 0 1.17578,1.61719 l -7.32422,44.09961 a 4.0004,4.0004 0 0 0 -0.91211,-0.61914 4.0004,4.0004 0 0 0 -1.28906,-1.5332 z m 114.10546,11.61329 a 4.0004,4.0004 0 0 0 1.80469,1.28906 4.0004,4.0004 0 0 0 0.16211,0.58984 c -7.12804,0.39681 -13.26594,5.34649 -14.47461,12.33008 a 4.0004,4.0004 0 0 0 -0.006,0.0312 l -3.34765,20.33984 a 4.0004,4.0004 0 0 0 -0.90821,-0.61523 4.0004,4.0004 0 0 0 -1.28515,-1.5332 l 5.15429,-30.92774 a 4.0004,4.0004 0 0 0 2.22852,1.03711 h 0.14648 a 4.0004,4.0004 0 0 0 4.73438,-0.25 c 1.50101,-1.34326 3.68603,-2.19525 5.79101,-2.29101 z m -369.562495,0.0312 c 2.498059,0 4.19566,0.73038 5.628906,1.76171 -1.04599,-0.22749 -2.129241,-0.36718 -3.257812,-0.36718 -4.747158,0 -9.044664,2.06115 -12.023438,5.36718 -2.977501,3.30463 -4.769806,7.70024 -5.5625,12.65235 -0.675765,4.13288 -0.526279,7.95159 0.705078,11.3125 a 4.0004,4.0004 0 0 0 -2.974609,2.99414 l -2.599609,15.52539 a 4.0004,4.0004 0 0 0 -0.962891,-0.65625 4.0004,4.0004 0 0 0 -1.283203,-1.5332 l 7.640625,-45.58789 a 4.0004,4.0004 0 0 0 1.662109,0.76953 4.0004,4.0004 0 0 0 5.511719,0.82031 c 1.495632,-1.5643 3.344705,-3.05859 7.515625,-3.05859 z m 57.810545,0 c 2.1758,0 4.73095,0.47002 6.35742,1.62304 -0.9308,-0.17268 -1.86428,-0.33008 -2.86523,-0.33008 -5.48707,0 -9.75242,2.27677 -12.58789,5.10547 a 4.0004,4.0004 0 0 0 -1.93555,-1.88867 4.0004,4.0004 0 0 0 -0.23242,-0.39648 c 3.22919,-3.12409 7.36443,-4.11328 11.26367,-4.11328 z m 41.22266,0 c 2.88237,0 5.0017,0.71302 6.50781,1.80468 -1.05692,-0.24446 -2.15507,-0.41015 -3.32227,-0.41015 -9.23414,0 -16.46544,7.77354 -18.09375,18.00195 -0.60274,3.53262 -0.5582,6.83913 0.25782,9.78125 -2.21661,-2.50744 -3.33293,-6.52928 -2.37305,-12.26367 a 4.0004,4.0004 0 0 0 0.004,-0.0274 c 1.66269,-10.37521 8.50618,-16.88671 17.01953,-16.88671 z m 40,0 c 2.57452,0 4.80754,0.58038 6.49414,1.80664 -1.09617,-0.25147 -2.22909,-0.41211 -3.41016,-0.41211 -6.81462,0 -12.32864,4.34756 -15.36133,9.46093 a 4.0004,4.0004 0 0 0 3.43946,6.04102 h 16.67383 a 4.0004,4.0004 0 0 0 3.9414,-3.31836 c 0.41384,-2.3911 0.20728,-4.68252 -0.34765,-6.85742 1.90773,1.89117 3.13934,5.09211 2.23046,11.36523 h -24.95312 a 4.0004,4.0004 0 0 0 -3.95508,3.40039 c -0.39335,2.59472 -0.31005,4.87636 0.0371,7.0293 -1.85409,-2.47271 -2.70323,-6.17819 -1.8125,-11.5 a 4.0004,4.0004 0 0 0 0.002,-0.0156 c 1.71246,-10.49718 8.56909,-17 17.02149,-17 z m 83.8164,0 c 2.67285,0 4.66726,0.60629 6.26368,1.61523 -0.77182,-0.11785 -1.55039,-0.2207 -2.36524,-0.2207 -5.30005,0 -9.86472,2.46015 -12.95703,5.97851 -3.08959,3.51527 -4.9087,8.00189 -5.64648,12.65235 -0.47021,2.88319 -0.51143,5.75169 0.0586,8.46289 -1.92477,-2.57637 -2.86834,-6.47271 -1.9668,-11.9961 a 4.0004,4.0004 0 0 0 0.004,-0.0176 c 1.67051,-10.5131 8.21044,-16.4746 16.60937,-16.4746 z m 59.18555,0 c 3.0126,0 3.98905,0.688 4.70899,1.49804 -0.37565,-0.0253 -0.73452,-0.10351 -1.11719,-0.10351 -4.92778,0 -9.25442,2.25221 -12.16602,5.61914 -2.91069,3.36588 -4.60146,7.70937 -5.36719,12.38672 -0.60646,3.62414 -0.58498,7.11058 0.33204,10.28125 -2.23978,-2.36576 -3.5438,-6.45955 -2.4961,-12.86914 l 0.002,-0.006 c 1.82595,-10.89775 8.34895,-16.80664 16.10351,-16.80664 z m 45.44531,0 c 2.57865,0 4.81781,0.58263 6.50586,1.8125 -1.0996,-0.25368 -2.23553,-0.41797 -3.42187,-0.41797 -6.81461,0 -12.32713,4.34851 -15.35938,9.46093 a 4.0004,4.0004 0 0 0 3.43946,6.04102 h 16.67382 a 4.0004,4.0004 0 0 0 3.94141,-3.31836 c 0.41394,-2.39161 0.20737,-4.683 -0.34766,-6.85742 1.90774,1.89117 3.13934,5.09211 2.23047,11.36523 h -24.95508 a 4.0004,4.0004 0 0 0 -3.95507,3.40039 c -0.39346,2.59548 -0.31041,4.87779 0.0371,7.03125 -1.85289,-2.47265 -2.7013,-6.18004 -1.81055,-11.50195 a 4.0004,4.0004 0 0 0 0.002,-0.0156 c 1.71253,-10.4976 8.56711,-17 17.01953,-17 z M 254.00977,143.375 c 0.0164,0.0224 0.0523,0.0301 0.0684,0.0527 a 4.0004,4.0004 0 0 0 0.94922,0.95118 c 0.42076,0.29877 0.75571,0.63191 1.05078,1.04882 a 4.0004,4.0004 0 0 0 0.94922,0.95118 c 1.71482,1.21768 2.82411,3.40123 1.93946,8.875 l -3.43555,20.43945 a 4.0004,4.0004 0 0 0 -0.91992,-0.625 4.0004,4.0004 0 0 0 -1.28516,-1.5332 l 3.42774,-20.57618 a 4.0004,4.0004 0 0 0 0.002,-0.0117 c 0.41717,-2.54474 0.35348,-4.96731 -0.38281,-7.19336 a 4.0004,4.0004 0 0 0 -2.36328,-2.37891 z m -14.86329,0.52148 0.78125,1.94922 c -0.44869,0.33593 -0.92696,0.6051 -1.34179,0.98828 l -1.77149,-1.61718 z m -106.22265,2.58985 a 4.0004,4.0004 0 0 0 0.15429,0.15429 c 1.49606,1.06711 2.68147,2.43646 1.82032,7.68946 l -3.54492,21.34961 a 4.0004,4.0004 0 0 0 -2.44336,-0.95117 h -0.92578 a 4.0004,4.0004 0 0 0 -3.86915,0.38671 c -1.59137,1.3066 -3.99144,2.5293 -7.56054,2.5293 -2.70162,0 -4.41462,-0.79542 -5.6211,-1.81055 1.08978,0.22464 2.18822,0.41602 3.35157,0.41602 8.91542,0 15.41298,-6.09118 16.5664,-13.01172 l 0.004,-0.0234 a 4.0004,4.0004 0 0 0 -4.60156,-4.60351 c -2.02221,0.33648 -4.27632,0.5819 -5.59571,0.74023 a 4.0004,4.0004 0 0 0 -0.0293,0.002 c -2.62437,0.33502 -5.37898,0.86037 -7.95313,2.29296 -2.56596,1.42804 -4.90705,4.17664 -5.45898,7.64649 -0.16883,1.00308 -0.19042,2.0135 -0.0645,3.0039 a 4.0004,4.0004 0 0 0 -0.13671,-0.13867 c -1.61327,-1.17464 -2.42794,-2.62563 -1.91211,-5.87695 0.5747,-3.33674 1.90309,-4.65388 4.23242,-5.86523 2.33562,-1.21463 5.80252,-1.86797 9.4082,-2.3125 a 4.0004,4.0004 0 0 0 0.0137,-0.002 c 3.50918,-0.44482 5.96924,-0.56257 8.31641,-1.14062 1.17359,-0.28903 2.43195,-0.72069 3.60351,-1.72657 1.17157,-1.00587 1.95485,-2.58154 2.20118,-3.96093 a 4.0004,4.0004 0 0 0 0.0625,-0.70313 v -0.15234 c 0.17426,-1.32655 0.18553,-2.63584 -0.0176,-3.93164 z m -57.113283,1.38281 c 2.237714,2.36064 3.531279,6.42669 2.496094,12.77148 -1.17e-4,7.2e-4 1.16e-4,10e-4 0,0.002 -1.829336,11.00017 -8.403594,16.90039 -16.001954,16.90039 -2.876586,0 -3.904149,-0.66721 -4.664062,-1.46485 0.258714,0.0125 0.503654,0.0703 0.765625,0.0703 4.928508,0 9.257119,-2.32512 12.212891,-5.73047 2.955771,-3.40535 4.74785,-7.80288 5.572265,-12.54688 a 4.0004,4.0004 0 0 0 0.0098,-0.0645 c 0.551173,-3.50158 0.505306,-6.86721 -0.390625,-9.9375 z m 224.652343,1.16992 c 1.94031,2.58794 2.90724,6.52094 2.01758,12.10938 -2.3e-4,0.001 -0.002,0.002 -0.002,0.004 -1.71421,10.40935 -8.27438,16.39063 -16.61133,16.39063 -2.69111,0 -4.69353,-0.60934 -6.29297,-1.61719 0.78072,0.11844 1.56907,0.22266 2.39453,0.22266 5.26122,0 9.80937,-2.41527 12.90625,-5.90235 3.09688,-3.48707 4.93468,-7.95446 5.69922,-12.61523 a 4.0004,4.0004 0 0 0 0.004,-0.0293 c 0.45667,-2.91488 0.47943,-5.82006 -0.11523,-8.5625 z m -197.03516,0.30078 a 4.0004,4.0004 0 0 0 0.66797,0.68946 l 0.0957,0.0371 a 4.0004,4.0004 0 0 0 1.90429,1.96289 l 0.0957,0.0371 a 4.0004,4.0004 0 0 0 0.76367,0.78515 c -0.43276,0.18979 -0.88468,0.24533 -1.31055,0.4668 -1.15491,0.6006 -2.23924,1.40847 -3.26367,2.32422 z m -36.134761,1.18946 c 0.386654,0 0.553323,0.11546 0.867187,0.15625 0.347845,1.54367 0.514461,3.43774 0.140625,5.84179 -0.628378,3.58927 -2.000515,6.66241 -3.722656,8.64649 -1.726907,1.98957 -3.594007,2.97461 -6.171875,2.97461 -0.309098,0 -0.442386,-0.0964 -0.703125,-0.125 -0.358424,-1.5852 -0.53233,-3.56146 -0.101563,-6.19141 a 4.0004,4.0004 0 0 0 0.002,-0.0156 c 0.607317,-3.7985 1.95712,-6.73068 3.609375,-8.56446 1.652255,-1.83378 3.473529,-2.72265 6.080078,-2.72265 z m 99.847651,0 c 0.32099,0 0.46012,0.0924 0.72657,0.12304 a 4.0004,4.0004 0 0 0 2.0664,2.13477 4.0004,4.0004 0 0 0 2,2 4.0004,4.0004 0 0 0 3.45118,2.56055 h 3.62109 c -0.34449,2.27937 -0.40072,4.47438 -0.24414,6.58984 a 4.0004,4.0004 0 0 0 -0.48633,-0.24023 4.0004,4.0004 0 0 0 -3.5332,-2.36915 h -6.00391 a 4.0004,4.0004 0 0 0 -3.66797,2.40625 c -1.25853,2.89636 -3.61765,4.41407 -6.8164,4.41407 -0.49572,0 -0.76282,-0.15567 -1.15821,-0.22657 -0.40027,-1.54062 -0.60618,-3.45752 -0.16015,-6.06054 a 4.0004,4.0004 0 0 0 0.008,-0.0508 c 1.18009,-7.46672 5.34375,-11.28125 10.19726,-11.28125 z m 124.5293,0 c 0.37714,0 0.53409,0.11148 0.83985,0.15039 0.35021,1.54863 0.51498,3.421 0.16601,5.66406 -0.55975,3.40123 -1.93843,6.51264 -3.7832,8.58984 -1.84671,2.07939 -3.9662,3.21485 -6.92383,3.21485 -0.40248,0 -0.571,-0.11572 -0.89453,-0.15821 -0.32608,-1.51496 -0.47382,-3.34145 -0.11328,-5.54882 a 4.0004,4.0004 0 0 0 0.004,-0.0195 c 0.53575,-3.3859 1.90751,-6.52757 3.75782,-8.63281 1.85031,-2.10524 3.97758,-3.25976 6.94726,-3.25976 z m 58.87891,0 c 0.43169,0 0.63077,0.12629 0.97851,0.17578 0.33398,1.50002 0.49457,3.34827 0.084,5.82617 -0.63776,3.82264 -2.06656,6.84797 -3.8086,8.77148 -1.74265,1.9242 -3.65237,2.84571 -6.13867,2.84571 -0.28748,0 -0.40454,-0.0903 -0.64844,-0.11524 -0.36604,-1.62595 -0.53631,-3.63947 -0.10937,-6.18554 a 4.0004,4.0004 0 0 0 0.002,-0.0156 c 0.58321,-3.5653 1.88224,-6.5491 3.52539,-8.44922 1.64316,-1.90011 3.43485,-2.85351 6.11524,-2.85351 z m -171.50781,6.30078 c -5.6e-4,0.003 5.5e-4,0.006 0,0.01 -3.4e-4,0.002 -0.002,0.004 -0.002,0.006 z m 188.44921,0 c -5.5e-4,0.003 5.6e-4,0.006 0,0.01 -3.3e-4,0.002 -0.002,0.004 -0.002,0.006 z M 196.41602,167.2207 h 6.77734 c -1.16271,0.6442 -2.58836,0.92774 -4.42969,0.92774 -1.0389,0 -1.57093,-0.21462 -2.31055,-0.35157 -0.0173,-0.1901 -0.0289,-0.36497 -0.0371,-0.57617 z m 23.68164,0 h 0.82031 l -0.1543,0.9336 a 4.0004,4.0004 0 0 0 -0.043,-0.0254 4.0004,4.0004 0 0 0 -0.62304,-0.90821 z m 164.76562,0 h 6.77734 c -1.1627,0.6442 -2.58835,0.92774 -4.42968,0.92774 -1.03891,0 -1.57093,-0.21462 -2.31055,-0.35157 -0.0173,-0.1901 -0.0289,-0.36497 -0.0371,-0.57617 z m 23.68164,0 h 0.82617 l -0.15625,0.93555 a 4.0004,4.0004 0 0 0 -0.0469,-0.0273 4.0004,4.0004 0 0 0 -0.62305,-0.90821 z m -237.79297,2.35157 a 4.0004,4.0004 0 0 0 1.75977,0.96679 4.0004,4.0004 0 0 0 0.57812,1.21875 c -2.42913,3.43966 -6.48318,5.78516 -11.75195,5.78516 -2.98848,0 -5.09167,-0.69446 -6.68555,-1.86328 1.16042,0.28538 2.35746,0.46875 3.60157,0.46875 5.05522,0 9.63612,-2.53492 12.49804,-6.57617 z m 228.73242,1.10546 a 4.0004,4.0004 0 0 0 1.6504,1.51563 4.0004,4.0004 0 0 0 0.67773,0.78906 c -2.56414,2.76118 -6.53675,4.56055 -11.51758,4.56055 -2.93633,0 -5.05318,-0.63346 -6.69726,-1.6582 1.16932,0.18258 2.37265,0.26367 3.61328,0.26367 4.78108,0 9.20954,-1.98558 12.27343,-5.47071 z m -188.44921,0.002 a 4.0004,4.0004 0 0 0 1.65234,1.51562 4.0004,4.0004 0 0 0 0.67969,0.78516 c -2.56408,2.76233 -6.5375,4.5625 -11.51953,4.5625 -2.93574,0 -5.05155,-0.63337 -6.69532,-1.6582 1.16874,0.18237 2.37137,0.26367 3.61133,0.26367 4.78016,0 9.20763,-1.98492 12.27149,-5.46875 z"
           id="path11776" />
      </g>
      <g
         aria-label="placeholder"
         id="text10723"
         style="font-size:18.9585px;letter-spacing:0px;fill:#ffffff;stroke-width:0.473962">
        <path
           d="m 10.054103,50.637103 h 1.602317 l 0.915609,-5.466727 h 0.134648 c 0.262565,0.565524 0.72037,1.804289 2.719899,1.804289 2.578517,0 4.732892,-2.073586 5.278219,-5.359008 0.531861,-3.258492 -0.922342,-5.332078 -3.527789,-5.332078 -2.026459,0 -2.86128,1.238766 -3.285422,1.77736 h -0.188508 l 0.269297,-1.642711 h -1.534992 z m 3.083449,-9.048375 c 0.370284,-2.315953 1.662909,-3.877875 3.608579,-3.877875 2.012994,0 2.713166,1.69657 2.369812,3.877875 -0.383748,2.208234 -1.676373,3.958664 -3.662437,3.958664 -1.918741,0 -2.699702,-1.615781 -2.315954,-3.958664 z"
           style="-inkscape-font-specification:'Inter Italic'"
           id="path11685" />
        <path
           d="m 26.144579,32.971228 h -1.588852 l -2.289023,13.788 h 1.588851 z"
           style="-inkscape-font-specification:'Inter Italic'"
           id="path11687" />
        <path
           d="m 29.780071,47.001595 c 1.804289,0 2.908406,-0.969469 3.339281,-1.642711 h 0.08079 l -0.242367,1.400344 h 1.588851 l 1.131047,-6.813211 c 0.538594,-3.285422 -1.885078,-3.662438 -3.204633,-3.662438 -1.561921,0 -3.447,0.538594 -4.551117,2.423672 l 1.400344,0.538594 c 0.484734,-0.754031 1.508062,-1.561922 3.016125,-1.561922 1.454203,0 1.992797,0.780961 1.777359,2.100516 v 0.05386 c -0.134648,0.754031 -0.915609,0.700172 -2.827617,0.942539 -1.965867,0.242367 -4.120242,0.673242 -4.524187,3.043055 -0.323157,2.019726 1.050258,3.177703 3.016125,3.177703 z m 0.457804,-1.427273 c -1.265695,0 -2.073586,-0.565524 -1.885078,-1.669641 0.188508,-1.211836 1.373414,-1.588852 2.63911,-1.75043 0.673242,-0.08079 2.504461,-0.269297 2.827617,-0.592453 l -0.242367,1.454203 c -0.215438,1.292625 -1.454204,2.558321 -3.339282,2.558321 z"
           style="-inkscape-font-specification:'Inter Italic'"
           id="path11689" />
        <path
           d="m 41.629106,46.974665 c 2.282291,0 4.005791,-1.400343 4.604977,-3.231562 h -1.588852 c -0.491466,1.131047 -1.541724,1.804289 -2.773757,1.804289 -1.891811,0 -2.86128,-1.561922 -2.450602,-3.958664 0.370283,-2.342883 1.878346,-3.877875 3.743227,-3.877875 1.393611,0 2.093783,0.86175 2.181304,1.804289 h 1.588852 c 0.04713,-1.938938 -1.380147,-3.231563 -3.554719,-3.231563 -2.80742,0 -5.042584,2.208235 -5.547516,5.359008 -0.518396,3.096914 0.881948,5.332078 3.797086,5.332078 z"
           style="-inkscape-font-specification:'Inter Italic'"
           id="path11691" />
        <path
           d="m 52.347091,46.974665 c 2.107248,0 3.803818,-1.050258 4.551117,-2.612179 l -1.454203,-0.430875 c -0.585721,1.077187 -1.582119,1.615781 -2.854547,1.615781 -1.992797,0 -3.05652,-0.88868 -2.672772,-3.42007 h 7.520116 l 0.107718,-0.673243 c 0.653045,-3.850945 -1.420541,-5.1705 -3.581648,-5.1705 -2.793955,0 -5.029119,2.208235 -5.547516,5.385938 -0.531861,3.177703 0.949272,5.305148 3.931735,5.305148 z m -2.208235,-6.220758 c 0.316424,-1.467667 1.844684,-3.043054 3.581649,-3.043054 1.730232,0 2.618912,1.292625 2.315953,3.043054 z"
           style="-inkscape-font-specification:'Inter Italic'"
           id="path11693" />
        <path
           d="m 61.71859,40.53847 c 0.323156,-1.804289 1.642711,-2.827617 3.204633,-2.827617 1.481132,0 2.235164,0.942539 1.965867,2.58525 l -1.077188,6.463125 h 1.588852 l 1.104117,-6.570844 c 0.430875,-2.666039 -0.780961,-3.904805 -2.881477,-3.904805 -1.64271,0 -2.692968,0.673243 -3.339281,1.75043 h -0.134648 l 0.83482,-5.062781 h -1.588851 l -2.289024,13.788 h 1.588852 z"
           style="-inkscape-font-specification:'Inter Italic'"
           id="path11695" />
        <path
           d="m 74.577498,46.974665 c 2.740095,0 4.9214,-2.073586 5.439797,-5.224359 0.525128,-3.285422 -1.030061,-5.466727 -3.877875,-5.466727 -2.753561,0 -4.934866,2.073586 -5.439797,5.251289 -0.531862,3.258493 1.016595,5.439797 3.877875,5.439797 z m 0.02693,-1.427273 c -2.080318,0 -2.699701,-1.77736 -2.369812,-3.797086 0.336621,-2.127445 1.689838,-4.039453 3.877875,-4.039453 2.066853,0 2.686236,1.804289 2.369812,3.824015 -0.350086,2.134178 -1.703302,4.012524 -3.877875,4.012524 z"
           style="-inkscape-font-specification:'Inter Italic'"
           id="path11697" />
        <path
           d="m 85.497465,32.971228 h -1.588852 l -2.289023,13.788 h 1.588851 z"
           style="-inkscape-font-specification:'Inter Italic'"
           id="path11699" />
        <path
           d="m 90.008176,46.974665 c 1.986064,0 2.868011,-1.238765 3.312351,-1.804289 h 0.188508 l -0.269297,1.588852 h 1.534992 l 2.289024,-13.788 h -1.588852 l -0.848285,5.089711 h -0.134649 c -0.255832,-0.538594 -0.673242,-1.77736 -2.692968,-1.77736 -2.61218,0 -4.759822,2.073586 -5.305149,5.332078 -0.538593,3.285422 0.922342,5.359008 3.514325,5.359008 z m 0.39048,-1.427273 c -1.992797,0 -2.672771,-1.75043 -2.302488,-3.958664 0.356818,-2.181305 1.582119,-3.877875 3.595113,-3.877875 1.94567,0 2.767025,1.561922 2.383277,3.877875 -0.39048,2.342883 -1.763894,3.958664 -3.675902,3.958664 z"
           style="-inkscape-font-specification:'Inter Italic'"
           id="path11701" />
        <path
           d="m 102.20732,46.974665 c 2.10724,0 3.80381,-1.050258 4.55111,-2.612179 l -1.4542,-0.430875 c -0.58572,1.077187 -1.58212,1.615781 -2.85455,1.615781 -1.99279,0 -3.056516,-0.88868 -2.672768,-3.42007 h 7.520118 l 0.10772,-0.673243 c 0.65304,-3.850945 -1.42055,-5.1705 -3.58165,-5.1705 -2.79396,0 -5.029122,2.208235 -5.547518,5.385938 -0.531861,3.177703 0.949271,5.305148 3.931738,5.305148 z m -2.208238,-6.220758 c 0.316428,-1.467667 1.844688,-3.043054 3.581648,-3.043054 1.73023,0 2.61891,1.292625 2.31595,3.043054 z"
           style="-inkscape-font-specification:'Inter Italic'"
           id="path11703" />
        <path
           d="m 108.96664,46.759228 h 1.58885 l 1.07718,-6.543914 c 0.24237,-1.400344 1.50807,-2.423672 3.01613,-2.423672 0.43087,0 0.86175,0.08079 0.96947,0.107719 l 0.2693,-1.615782 c -0.18851,-0.02693 -0.59246,-0.02693 -0.83482,-0.02693 -1.23877,0 -2.45061,0.700172 -2.9892,1.7235 h -0.10772 l 0.2693,-1.561922 h -1.53499 z"
           style="-inkscape-font-specification:'Inter Italic'"
           id="path11705" />
      </g>
      <g
         aria-label="placeholder"
         id="text10745"
         style="font-size:18.9585px;letter-spacing:0px;fill:#ff0000;stroke-width:0.473962">
        <path
           d="m 11.112436,51.695437 h 1.602316 l 0.915609,-5.466726 h 0.134649 c 0.262564,0.565523 0.720369,1.804289 2.719898,1.804289 2.578518,0 4.732893,-2.073586 5.278219,-5.359008 0.531861,-3.258492 -0.922342,-5.332078 -3.527789,-5.332078 -2.026459,0 -2.861279,1.238765 -3.285422,1.777359 h -0.188508 l 0.269297,-1.642711 h -1.534992 z m 3.083449,-9.048375 c 0.370283,-2.315953 1.662908,-3.877875 3.608578,-3.877875 2.012994,0 2.713166,1.69657 2.369812,3.877875 -0.383748,2.208234 -1.676373,3.958664 -3.662437,3.958664 -1.91874,0 -2.699701,-1.615781 -2.315953,-3.958664 z"
           style="-inkscape-font-specification:'Inter Italic'"
           id="path11708" />
        <path
           d="M 27.202911,34.029562 H 25.61406 l -2.289024,13.788 h 1.588852 z"
           style="-inkscape-font-specification:'Inter Italic'"
           id="path11710" />
        <path
           d="m 30.838403,48.059929 c 1.804289,0 2.908406,-0.969468 3.339281,-1.642711 h 0.08079 l -0.242367,1.400344 h 1.588852 l 1.131047,-6.813211 c 0.538593,-3.285422 -1.885078,-3.662437 -3.204633,-3.662437 -1.561922,0 -3.447,0.538593 -4.551117,2.423672 l 1.400343,0.538593 c 0.484735,-0.754031 1.508063,-1.561922 3.016125,-1.561922 1.454204,0 1.992797,0.780961 1.77736,2.100516 v 0.05386 c -0.134649,0.754032 -0.91561,0.700172 -2.827617,0.94254 -1.965868,0.242367 -4.120243,0.673242 -4.524188,3.043054 -0.323156,2.019727 1.050258,3.177703 3.016125,3.177703 z m 0.457805,-1.427273 c -1.265695,0 -2.073586,-0.565524 -1.885078,-1.669641 0.188508,-1.211836 1.373414,-1.588851 2.639109,-1.750429 0.673242,-0.08079 2.504461,-0.269297 2.827617,-0.592454 l -0.242367,1.454204 c -0.215437,1.292625 -1.454203,2.55832 -3.339281,2.55832 z"
           style="-inkscape-font-specification:'Inter Italic'"
           id="path11712" />
        <path
           d="m 42.687439,48.033 c 2.282291,0 4.005791,-1.400344 4.604976,-3.231563 h -1.588851 c -0.491467,1.131047 -1.541725,1.804289 -2.773758,1.804289 -1.891811,0 -2.861279,-1.561922 -2.450602,-3.958664 0.370284,-2.342883 1.878346,-3.877875 3.743227,-3.877875 1.393611,0 2.093783,0.86175 2.181305,1.804289 h 1.588851 c 0.04713,-1.938937 -1.380146,-3.231562 -3.554719,-3.231562 -2.807419,0 -5.042583,2.208234 -5.547515,5.359008 C 38.371956,45.797836 39.7723,48.033 42.687439,48.033 Z"
           style="-inkscape-font-specification:'Inter Italic'"
           id="path11714" />
        <path
           d="m 53.405423,48.033 c 2.107248,0 3.803818,-1.050258 4.551117,-2.61218 l -1.454203,-0.430875 c -0.585721,1.077187 -1.582119,1.615781 -2.854547,1.615781 -1.992797,0 -3.056519,-0.88868 -2.672771,-3.42007 h 7.520115 l 0.107719,-0.673242 c 0.653045,-3.850946 -1.420541,-5.1705 -3.581649,-5.1705 -2.793955,0 -5.029119,2.208234 -5.547515,5.385937 -0.531862,3.177703 0.949271,5.305149 3.931734,5.305149 z m -2.208234,-6.220758 c 0.316424,-1.467668 1.844683,-3.043055 3.581648,-3.043055 1.730233,0 2.618912,1.292625 2.315953,3.043055 z"
           style="-inkscape-font-specification:'Inter Italic'"
           id="path11716" />
        <path
           d="m 62.776922,41.596804 c 0.323157,-1.804289 1.642711,-2.827617 3.204633,-2.827617 1.481133,0 2.235164,0.942539 1.965867,2.58525 l -1.077187,6.463125 h 1.588851 l 1.104117,-6.570844 c 0.430875,-2.666039 -0.78096,-3.904804 -2.881476,-3.904804 -1.642711,0 -2.692969,0.673242 -3.339281,1.750429 h -0.134649 l 0.834821,-5.062781 h -1.588852 l -2.289023,13.788 h 1.588851 z"
           style="-inkscape-font-specification:'Inter Italic'"
           id="path11718" />
        <path
           d="m 75.63583,48.033 c 2.740096,0 4.9214,-2.073586 5.439797,-5.22436 0.525129,-3.285422 -1.030061,-5.466726 -3.877875,-5.466726 -2.753561,0 -4.934865,2.073586 -5.439797,5.251289 -0.531861,3.258492 1.016596,5.439797 3.877875,5.439797 z m 0.02693,-1.427274 c -2.080319,0 -2.699701,-1.777359 -2.369813,-3.797086 0.336621,-2.127445 1.689838,-4.039453 3.877875,-4.039453 2.066854,0 2.686237,1.804289 2.369813,3.824016 -0.350086,2.134177 -1.703303,4.012523 -3.877875,4.012523 z"
           style="-inkscape-font-specification:'Inter Italic'"
           id="path11720" />
        <path
           d="m 86.555797,34.029562 h -1.588851 l -2.289024,13.788 h 1.588852 z"
           style="-inkscape-font-specification:'Inter Italic'"
           id="path11722" />
        <path
           d="m 91.066508,48.033 c 1.986064,0 2.868012,-1.238766 3.312352,-1.804289 h 0.188507 l -0.269297,1.588851 h 1.534993 l 2.289023,-13.788 h -1.588851 l -0.848286,5.089711 h -0.134648 c -0.255832,-0.538594 -0.673242,-1.777359 -2.692969,-1.777359 -2.612179,0 -4.759822,2.073586 -5.305148,5.332078 -0.538594,3.285422 0.922342,5.359008 3.514324,5.359008 z m 0.39048,-1.427274 c -1.992796,0 -2.672771,-1.75043 -2.302488,-3.958664 0.356819,-2.181305 1.582119,-3.877875 3.595113,-3.877875 1.94567,0 2.767026,1.561922 2.383278,3.877875 -0.390481,2.342883 -1.763895,3.958664 -3.675903,3.958664 z"
           style="-inkscape-font-specification:'Inter Italic'"
           id="path11724" />
        <path
           d="m 103.26565,48.033 c 2.10725,0 3.80382,-1.050258 4.55112,-2.61218 l -1.45421,-0.430875 c -0.58572,1.077187 -1.58212,1.615781 -2.85454,1.615781 -1.9928,0 -3.05652,-0.88868 -2.67278,-3.42007 h 7.52012 l 0.10772,-0.673242 c 0.65304,-3.850946 -1.42054,-5.1705 -3.58165,-5.1705 -2.79396,0 -5.029119,2.208234 -5.547516,5.385937 -0.531861,3.177703 0.949276,5.305149 3.931736,5.305149 z m -2.20824,-6.220758 c 0.31643,-1.467668 1.84469,-3.043055 3.58165,-3.043055 1.73024,0 2.61891,1.292625 2.31596,3.043055 z"
           style="-inkscape-font-specification:'Inter Italic'"
           id="path11726" />
        <path
           d="m 110.02497,47.817562 h 1.58885 l 1.07719,-6.543914 c 0.24236,-1.400344 1.50806,-2.423672 3.01612,-2.423672 0.43088,0 0.86175,0.08079 0.96947,0.107719 l 0.2693,-1.615781 c -0.18851,-0.02693 -0.59246,-0.02693 -0.83482,-0.02693 -1.23877,0 -2.4506,0.700172 -2.9892,1.7235 h -0.10772 l 0.2693,-1.561922 h -1.53499 z"
           style="-inkscape-font-specification:'Inter Italic'"
           id="path11728" />
      </g>
      <g
         aria-label="placeholder"
         id="text2025"
         style="font-size:18.9585px;letter-spacing:0px;stroke-width:0.473962">
        <path
           d="m 10.583269,51.16627 h 1.602317 l 0.915609,-5.466727 h 0.134649 c 0.262564,0.565524 0.720369,1.804289 2.719898,1.804289 2.578518,0 4.732893,-2.073586 5.278219,-5.359007 0.531861,-3.258493 -0.922342,-5.332078 -3.527789,-5.332078 -2.026459,0 -2.86128,1.238765 -3.285422,1.777359 h -0.188508 l 0.269297,-1.642711 h -1.534992 z m 3.08345,-9.048375 c 0.370283,-2.315953 1.662908,-3.877875 3.608578,-3.877875 2.012994,0 2.713166,1.69657 2.369812,3.877875 -0.383748,2.208234 -1.676373,3.958664 -3.662437,3.958664 -1.91874,0 -2.699701,-1.615781 -2.315953,-3.958664 z"
           style="-inkscape-font-specification:'Inter Italic';fill:#ffff00"
           id="path11731" />
        <path
           d="m 26.673745,33.500395 h -1.588852 l -2.289023,13.788 h 1.588852 z"
           style="-inkscape-font-specification:'Inter Italic';fill:#ffff00"
           id="path11733" />
        <path
           d="m 30.309237,47.530762 c 1.804289,0 2.908406,-0.969469 3.339281,-1.642711 h 0.08079 l -0.242367,1.400344 h 1.588852 l 1.131046,-6.813211 c 0.538594,-3.285422 -1.885078,-3.662437 -3.204632,-3.662437 -1.561922,0 -3.447,0.538593 -4.551118,2.423671 l 1.400344,0.538594 c 0.484735,-0.754031 1.508063,-1.561922 3.016125,-1.561922 1.454203,0 1.992797,0.780961 1.77736,2.100516 v 0.05386 c -0.134649,0.754032 -0.91561,0.700172 -2.827618,0.942539 -1.965867,0.242368 -4.120242,0.673243 -4.524187,3.043055 -0.323156,2.019727 1.050258,3.177703 3.016125,3.177703 z m 0.457805,-1.427273 c -1.265696,0 -2.073586,-0.565524 -1.885079,-1.669641 0.188508,-1.211836 1.373415,-1.588851 2.63911,-1.75043 0.673242,-0.08079 2.504461,-0.269296 2.827617,-0.592453 l -0.242367,1.454203 c -0.215438,1.292625 -1.454203,2.558321 -3.339281,2.558321 z"
           style="-inkscape-font-specification:'Inter Italic';fill:#ffff00"
           id="path11735" />
        <path
           d="m 42.158273,47.503832 c 2.282291,0 4.005791,-1.400343 4.604976,-3.231562 h -1.588851 c -0.491467,1.131047 -1.541725,1.804289 -2.773758,1.804289 -1.891811,0 -2.86128,-1.561922 -2.450602,-3.958664 0.370283,-2.342883 1.878346,-3.877875 3.743227,-3.877875 1.393611,0 2.093783,0.86175 2.181304,1.804289 h 1.588852 c 0.04713,-1.938937 -1.380146,-3.231562 -3.554719,-3.231562 -2.80742,0 -5.042584,2.208234 -5.547515,5.359007 -0.518397,3.096914 0.881947,5.332078 3.797086,5.332078 z"
           style="-inkscape-font-specification:'Inter Italic';fill:#ffff00"
           id="path11737" />
        <path
           d="m 52.876257,47.503832 c 2.107248,0 3.803818,-1.050257 4.551117,-2.612179 l -1.454203,-0.430875 c -0.585721,1.077187 -1.582119,1.615781 -2.854547,1.615781 -1.992797,0 -3.056519,-0.88868 -2.672771,-3.42007 h 7.520115 l 0.107719,-0.673242 c 0.653044,-3.850946 -1.420541,-5.1705 -3.581649,-5.1705 -2.793955,0 -5.029119,2.208234 -5.547515,5.385937 -0.531862,3.177703 0.949271,5.305148 3.931734,5.305148 z m -2.208234,-6.220757 c 0.316423,-1.467668 1.844683,-3.043055 3.581648,-3.043055 1.730232,0 2.618912,1.292625 2.315953,3.043055 z"
           style="-inkscape-font-specification:'Inter Italic';fill:#ffff00"
           id="path11739" />
        <path
           d="m 62.247756,41.067637 c 0.323156,-1.804289 1.642711,-2.827617 3.204633,-2.827617 1.481133,0 2.235164,0.942539 1.965867,2.58525 l -1.077187,6.463125 h 1.588851 l 1.104117,-6.570844 c 0.430875,-2.666039 -0.780961,-3.904804 -2.881476,-3.904804 -1.642711,0 -2.692969,0.673242 -3.339282,1.750429 h -0.134648 l 0.83482,-5.062781 H 61.9246 l -2.289024,13.788 h 1.588852 z"
           style="-inkscape-font-specification:'Inter Italic';fill:#ffff00"
           id="path11741" />
        <path
           d="m 75.106664,47.503832 c 2.740096,0 4.9214,-2.073586 5.439797,-5.224359 0.525129,-3.285422 -1.030061,-5.466726 -3.877875,-5.466726 -2.753561,0 -4.934865,2.073585 -5.439797,5.251289 -0.531861,3.258492 1.016596,5.439796 3.877875,5.439796 z m 0.02693,-1.427273 c -2.080319,0 -2.699702,-1.777359 -2.369813,-3.797086 0.336621,-2.127445 1.689838,-4.039453 3.877875,-4.039453 2.066854,0 2.686236,1.804289 2.369813,3.824016 -0.350086,2.134177 -1.703303,4.012523 -3.877875,4.012523 z"
           style="-inkscape-font-specification:'Inter Italic';fill:#ffff00"
           id="path11743" />
        <path
           d="M 86.026631,33.500395 H 84.43778 l -2.289024,13.788 h 1.588852 z"
           style="-inkscape-font-specification:'Inter Italic';fill:#ffff00"
           id="path11745" />
        <path
           d="m 90.537342,47.503832 c 1.986064,0 2.868011,-1.238765 3.312351,-1.804289 h 0.188508 l -0.269297,1.588852 h 1.534992 l 2.289024,-13.788 h -1.588852 l -0.848285,5.089711 h -0.134648 c -0.255832,-0.538594 -0.673242,-1.777359 -2.692969,-1.777359 -2.61218,0 -4.759822,2.073585 -5.305148,5.332078 -0.538594,3.285421 0.922341,5.359007 3.514324,5.359007 z m 0.39048,-1.427273 c -1.992797,0 -2.672771,-1.75043 -2.302488,-3.958664 0.356818,-2.181305 1.582119,-3.877875 3.595113,-3.877875 1.94567,0 2.767026,1.561922 2.383278,3.877875 -0.390481,2.342883 -1.763895,3.958664 -3.675903,3.958664 z"
           style="-inkscape-font-specification:'Inter Italic';fill:#ffff00"
           id="path11747" />
        <path
           d="m 102.73648,47.503832 c 2.10725,0 3.80382,-1.050257 4.55112,-2.612179 l -1.4542,-0.430875 c -0.58572,1.077187 -1.58212,1.615781 -2.85455,1.615781 -1.9928,0 -3.05652,-0.88868 -2.67277,-3.42007 h 7.52011 l 0.10772,-0.673242 c 0.65305,-3.850946 -1.42054,-5.1705 -3.58165,-5.1705 -2.79395,0 -5.029115,2.208234 -5.547512,5.385937 -0.531861,3.177703 0.949272,5.305148 3.931732,5.305148 z m -2.20823,-6.220757 c 0.31642,-1.467668 1.84468,-3.043055 3.58165,-3.043055 1.73023,0 2.61891,1.292625 2.31595,3.043055 z"
           style="-inkscape-font-specification:'Inter Italic';fill:#ffff00"
           id="path11749" />
        <path
           d="m 109.4958,47.288395 h 1.58885 l 1.07719,-6.543914 c 0.24237,-1.400344 1.50806,-2.423672 3.01613,-2.423672 0.43087,0 0.86175,0.08079 0.96946,0.107719 l 0.2693,-1.615781 c -0.18851,-0.02693 -0.59245,-0.02693 -0.83482,-0.02693 -1.23876,0 -2.4506,0.700172 -2.98919,1.7235 H 112.485 l 0.26929,-1.561922 h -1.53499 z"
           style="-inkscape-font-specification:'Inter Italic';fill:#ffff00"
           id="path11751" />
      </g>
    </g>
  </g>
  <style
     type="text/css"
     id="style3952">
	.st0{fill:#FC0C18;}
	.st1{fill:#FC0C18;}
</style>
</svg>
