<svg width="480" height="320" version="1.1" viewBox="0 0 127 84.667" xmlns="http://www.w3.org/2000/svg">
 <defs>
  <linearGradient id="a" x1="35.05" x2="60.885" y2="88.014" gradientUnits="userSpaceOnUse">
   <stop stop-color="#f37329" offset="0"/>
   <stop stop-color="#7a0000" offset="1"/>
  </linearGradient>
 </defs>
 <rect width="127" height="84.667" ry="4.2333" fill="url(#a)" stroke-linecap="square" stroke-linejoin="round" stroke-width=".52917" style="paint-order:stroke fill markers"/>
 <path d="m30.717 16.853c1.7831 7.0243-6.3178 9.154-9.2414 13.552-2.0156 2.9806 0.92287 6.1743 5.0095 9.7919-1.5775-3.5474-6.9537-6.6713 0-12.133 8.6763-6.7396 4.232-11.211 4.232-11.211zm5.3673 8.7286s-14.696 3.6185-7.6708 11.636l0.0078-7.82e-4c2.0794 2.3416-0.57157 4.4716-0.57157 4.4716s5.3038-2.6975 2.868-6.032c-2.2229-3.1934-3.9436-4.7544 5.3665-10.075zm15.098 6.8322v18.293c0 1.0611-0.08973 1.8245-0.27013 2.2839-0.1808 0.4546-0.50011 0.75483-0.95992 0.90355-0.46582 0.14151-1.2501 0.2114-2.3481 0.2114v2.1634c1.4985 0 2.6499-0.10061 3.4553-0.30144 0.79816-0.20044 1.4215-0.6716 1.8737-1.4148 0.45099-0.75005 0.67649-1.918 0.67649-3.5015l-0.02271-18.637zm25.376 0v21.603h2.439v-19.04h0.44003l6.3554 18.259h2.7083l6.3562-18.259h0.44003v19.04h2.4382v-21.603h-4.3909l-6.1972 18.293-6.1964-18.293zm26.549 0v21.603h13.309v-2.1179h-10.87v-7.8023h8.9729v-2.096h-8.9729v-7.4578h10.87v-2.1289zm-38.399 0.69137c-2.1523 0-4.2185 0.28155-6.1965 0.8464l0.19026 1.995 0.82447-0.15503c1.7222-0.35638 3.251-0.53556 4.5827-0.53556 1.6035 0 2.7608 0.27525 3.4772 0.82526 0.71437 0.55683 1.0727 1.4903 1.0727 2.7976 0 0.78854-0.1885 1.5574-0.56452 2.3074-0.38324 0.75045-0.84328 1.4348-1.3773 2.0522-0.54159 0.60854-1.2948 1.4144-2.2581 2.4178l-6.1064 6.3311v2.0295h13.343v-2.0952h-10.464l5.5654-5.585c1.6404-1.5602 2.7769-2.8792 3.4091-3.9572 0.63259-1.0848 0.94818-2.3338 0.94818-3.7457 0-1.8946-0.53065-3.2913-1.5918-4.1913-1.0692-0.89196-2.6861-1.3373-4.8537-1.3373zm-26.004 6.7391c-0.51368-6.89e-4 -1.0584 0.08781-1.6161 0.28187-0.5011 0.14111-0.71564 0.56609-0.71564 0.56609s0.28832-0.14153 0.93174-0.28344c2.5729-0.49669 6.3083 3.4766-1.721 7.5925l-7.81e-4 0.0016c-0.07177 0.14151-0.14328 0.21219-0.14328 0.21219 9.5786-2.4739 7.4478-8.3652 3.265-8.3708zm-17.645 0.41732c-1.0416 0.02328-3.4739 0.2363-6.27 1.5667-4.3728 2.1287 10.898 3.0509 18.856 0.9936 0.78894-0.4975 1.9363-0.9936 1.9363-0.9936s-3.2258 0.56767-6.4517 0.85109c-3.9419 0.28382-8.1728 0.35467-10.323 0.07125-5.0182-0.6378 2.7952-2.4836 2.7952-2.4836h-0.0023s-0.19306-0.01324-0.54025-0.0055zm-1.3232 4.8411c-7.2368 2.412 4.0898 5.1084 14.197 2.1281-0.64902-0.21688-1.2387-0.581-1.7202-1.0641-4.9477 0.99018-7.8141 0.92007-11.471 0.56609-2.784-0.28216-1.0212-1.6182-1.0053-1.6302zm-3.2243 7.7233c-2.8033-0.08169-9.2588 2.6898-3.8092 3.5586 17.11 2.7637 31.216-1.1947 26.831-3.1851 0.05548 0.04693 1.1461 1.0043-1.3718 1.7656-4.8034 1.4191-20.145 1.8445-24.446 0-1.5061-0.63741 1.3625-1.5611 2.2941-1.703 0.93245-0.21207 1.4344-0.21219 1.4344-0.21219-0.20605-0.14196-0.53206-0.21226-0.93252-0.22393zm23.022 0.37348c-0.0014-0.0012-0.0094-0.0086-0.0094-0.0086h-0.0086c0.0064 0.0029 0.01169 0.0057 0.01801 0.0086zm2.7161 2.1101s-0.57287 1.4193-6.3805 2.4828c-6.5961 1.2067-14.76 1.0651-19.572 0.28422 0 0 1.0031 0.8507 6.0931 1.1345l7.86e-4 7.86e-4c7.7426 0.49629 19.572-0.28278 19.859-3.9023z" fill="#fafafa"/>
 <style type="text/css">.st0{fill:#FC0C18;}
	.st1{fill:#FC0C18;}</style>
</svg>
