<svg width="480" height="320" version="1.1" viewBox="0 0 480 320" xml:space="preserve" xmlns="http://www.w3.org/2000/svg"><defs><linearGradient id="a" x1="45.43" x2="45.43" y1="-14.6" y2="66.11" gradientTransform="scale(3.78)" gradientUnits="userSpaceOnUse"><stop stop-color="#f35029" offset="0"/><stop stop-color="#0c386e" offset="1"/></linearGradient></defs><rect width="480" height="320" ry="24" fill="url(#a)"/><path d="m262.1 45.23c1.122 5.405 1.712 11.02 0.4805 16.48-1.498 7.439-5.832 13.91-11.08 19.32-9.472 9.847-21.41 16.96-31.09 26.65-3.48 3.639-6.958 7.545-8.51 12.42-1.552 4.763-0.6426 10.01 1.391 14.5 2.997 6.423 7.547 11.88 12.36 17.02 4.603 4.869 9.525 9.472 14.56 13.91-0.2843-0.6121-0.5826-1.216-0.8945-1.812-4.679-8.955-12.23-16.34-15.59-26.07-2.194-6.048-1.444-12.9 1.768-18.46 3.799-6.851 9.739-12.1 15.79-16.97 5.19-4.175 10.17-8.67 14.5-13.75 5.405-6.316 10.01-13.65 11.56-21.94 1.444-7.385-0.2167-15.57-5.244-21.3zm26.92 44.9c-12.31 3.532-24.46 8.402-34.84 16.06-6.582 4.923-12.68 11.77-13.59 20.28-0.9098 8.509 3.532 16.54 8.83 22.85 2.569 2.838 4.763 6.316 4.871 10.28 0.1054 5.299-2.89 10.22-6.744 13.7 0.1137-0.0134 0.224-0.0373 0.3301-0.0703 0.7427-0.2311 1.316-0.8926 1.973-1.268 5.781-3.692 11.34-8.348 14.18-14.72 1.871-4.335 1.444-9.473-1.02-13.49-2.89-4.71-6.687-8.884-8.936-14.02-1.233-2.89-1.661-6.263-0.6426-9.314 1.338-4.12 4.225-7.493 7.277-10.44 8.403-7.975 18.57-13.65 28.31-19.86zm14.29 73.88c-1.076-0.0156-2.155 0.049-3.219 0.1895-3.263 0.4286-6.85 1.124-9.096 3.854 0.3344-0.0669 0.6688-0.1427 1.002-0.2227 2.332-0.5599 4.641-1.349 7.078-1.115 5.835 0.3204 11.56 4.602 12.63 10.49 1.017 5.084-1.446 10.12-4.602 13.97-5.192 6.209-12.2 10.65-19.27 14.45-0.6948 0.4286-1.284 0.9633-1.82 1.553 9.313-2.355 18.63-5.887 26.17-11.93 4.172-3.478 7.866-8.083 8.668-13.6 0.7503-4.763-1.229-9.687-4.762-12.84-3.479-3.174-8.122-4.723-12.79-4.791zm-88.59 2.113c-10.76-0.1595-21.46 2.57-31.31 6.797-2.194 1.071-4.656 1.927-6.422 3.748-0.6963 0.7475-0.6975 2.034 0.1055 2.676 1.606 1.445 3.747 2.086 5.781 2.674 7.011 1.874 14.24 2.409 21.41 2.891 6.423 0.4285 12.84 0.5364 19.32 0.4824 16.7-0.2663 33.5-1.392 49.88-5.031 1.552-0.3745 3.264-0.6416 4.656-1.605 2.728-1.766 5.726-3.156 8.668-4.549-13.32 2.141-26.71 3.961-40.19 4.816-13.65 0.8571-27.4 1.392-41.1 0.4824-3.907-0.3745-7.923-0.5887-11.56-2.088-0.8557-0.3745-2.031-1.125-1.604-2.248 0.803-1.445 2.41-2.14 3.801-2.889 5.887-2.783 12.31-4.337 18.57-6.156zm-9.254 25.05c-3.317 1.177-6.636 2.409-9.42 4.604-1.176 0.9098-2.354 2.354-2.033 3.959 0.4826 1.874 2.302 2.996 3.908 3.854 3.96 2.033 8.401 2.943 12.74 3.744 9.601 1.547 19.36 1.782 29.04 1.314 1.382-0.0668 2.763-0.1486 4.141-0.2422 11.67-0.9098 23.28-2.837 34.57-6.154-3.212-1.445-6.262-3.105-8.83-5.514-9.367 1.659-18.79 3.212-28.26 3.693-10.38 0.6962-20.77 0.1078-31.04-0.9629-1.982-0.2663-3.963-0.5882-5.729-1.498-0.9084-0.5353-1.818-1.392-1.766-2.516 0.1068-1.765 1.606-2.997 2.676-4.281zm5.303 24.08c-2.998 0.8557-6.048 1.873-8.51 3.854-1.232 0.9639-2.193 2.622-1.604 4.174 0.7489 1.98 2.62 3.159 4.387 4.174 4.602 2.517 9.793 3.694 14.88 4.604 11.51 1.82 23.34 1.553 34.79-0.4805 5.946-1.125 11.89-2.659 17.52-4.924 0.8033-0.3236 1.6-0.6632 2.389-1.018-4.119-1.714-8.133-3.639-11.98-5.889-6.692 1.179-13.43 2.409-20.28 2.836-9.045 0.6962-18.2-0.0518-27.24-1.174-2.141-0.4826-4.817-0.6972-6.262-2.572-0.7503-1.552 0.9619-2.676 1.926-3.584zm-23.02 15.84c-5.191 0.1595-10.28 1.498-15.2 3.156-4.227 1.553-8.563 3.267-11.94 6.371-1.337 1.176-2.567 3.423-1.176 5.029 2.141 2.299 5.459 2.892 8.402 3.588 16.48 2.835 33.18 4.438 49.88 5.029 22.16 0.6421 44.47-0.3222 66.26-4.604 7.493-1.551 15.04-3.317 21.89-6.797 2.14-1.23 4.765-2.568 5.461-5.137 0.3731-2.462-2.195-3.746-4.014-4.764 1.125 1.284 1.871 3.158 0.7461 4.656-1.874 2.517-5.084 3.478-7.92 4.441-8.884 2.516-18.09 3.532-27.24 4.549-24.24 2.195-48.65 2.728-72.89 0.6953-8.135-0.8571-16.43-1.766-24.19-4.656-1.23-0.534-3.104-1.07-3.104-2.729 0.4812-1.445 1.873-2.247 3.104-2.943 5.566-2.836 11.77-4.389 17.98-4.764-1.82-1.071-3.96-1.177-6.047-1.123zm133.4 13.33c-4.014 4.281-9.792 6.261-15.2 8.135-10.06 3.211-20.5 4.978-30.88 6.422-17.93 2.25-36.02 2.946-54.05 2.41-10.97-0.4272-21.94-1.178-32.75-2.998 2.514 1.711 5.62 2.249 8.51 3.051 12.15 2.57 24.62 3.05 36.98 3.426 18.14 0.319 36.29-0.3753 54.16-3.213 8.453-1.498 16.96-3.317 24.56-7.279 3.961-2.086 7.976-5.297 8.672-9.953z" fill="#fff"/></svg>
