<svg width="480" height="320" version="1.1" viewBox="0 0 480 320" xml:space="preserve" xmlns="http://www.w3.org/2000/svg"><defs><linearGradient id="a" x1="10.58" x2="39" y1="-11.18" y2="94.87" gradientTransform="scale(3.78)" gradientUnits="userSpaceOnUse"><stop stop-color="#8f9aa3" offset="0"/><stop stop-color="#2b303b" offset="1"/></linearGradient></defs><rect width="480" height="320" ry="24" fill="url(#a)"/><path d="m53.08 118.1-7.568 48.52h22.37l8.26-48.52h-23.06zm227.4 0.00195-2.926 22.02c-3.441 0.6874-11.87 1.72-16.34 7.742-0.8603 0.858-1.376 0.5177-1.203-0.5156l0.8594-5.506h-19.79l-3.785 25.46h20.99c0.8603-3.613 10.32-8.945 16.17-6.193l-0.9805 6.174 21.89 0.0332 4.381-28.23c8.945 0 11.01 6.881 9.291 19.27-0.4302 3.096-1.03 6.365-1.838 9.01l23.27 0.02539c0.8421-3.484 1.212-7.354 1.619-11.44 3.098-30.97-13.76-37.85-30.62-37.85h-20.99zm59.53 4.127-2.066 13.77h20.99l2.064-13.77h-20.99zm-172.7 17.28c-13.94 0-23.22 6.268-24.95 18.62-0.5039 3.609 0.0263 6.642 1.295 9.174l32.63-0.02539c-2.088-1.773-4.706-3.123-7.785-4.211-3.724-1.315-6.787-2.818-6.082-5.551 0.4855-1.883 2.457-2.256 4.043-2.256 3.739-1e-5 10.05 1.55 13.54 4.465l2.285-15.86c-4.8-2.947-8.973-4.355-14.98-4.355zm45.15 0c-16.84 0.1138-25.13 11.93-28.4 27.79l50.85 0.01172c0.5635-7.353 0.2978-14.48-1.924-17.71-3.876-5.64-8.98-10.17-20.53-10.09zm170.3 0c-13.94 0-23.22 6.268-24.95 18.62-0.5053 3.609 0.02492 6.642 1.295 9.174l32.63-0.02539c-2.089-1.773-4.708-3.122-7.785-4.209-3.724-1.315-6.788-2.82-6.082-5.553 0.4848-1.883 2.457-2.256 4.043-2.256 3.739-1e-5 10.05 1.55 13.54 4.465l2.287-15.86c-4.8-2.947-8.976-4.355-14.98-4.355zm48.87 0c-0.25-0.00531-0.503-0.00388-0.7598 0.00195-20.94 0.478-28.27 12.76-31 27.79l22.96 0.02149c1.595-6 6.114-12.61 14.42-9.244l2.709-16.28c-1.602-0.9303-4.576-2.211-8.326-2.291zm-321.3 1.205c-13.83 0.2846-20.18 14.45-23 26.57l21.25 0.01562c0.6393-1.16 0.7816-1.65 0.9453-2.162 1.138-3.286 2.765-6.006 5.484-6.006 2.606 0 3.421 2.265 3.623 4.871 0.06897 1.01 0.08683 1.863 0.07227 3.303h19.83l3.924-25.51h-17.04l-0.8926 4.875-0.6016-0.1172c-2.76-5.396-9.813-5.909-13.59-5.832zm226.8 1.125-3.785 25.46h20.99l3.783-25.46h-20.99zm-124.3 10.95c3.965 0 4.612 4.306 4.266 7.592h-10.31c0.3148-3.058 2.306-7.592 6.045-7.592zm-75.44 20.95-19.56 0.05078c-0.2872 1.445-0.6824 2.715-1.236 4.244-0.9789 2.946-2.686 5.439-5.52 5.439-2.152 0-3.032-1.813-3.281-4.08-0.1832-1.858-0.06084-3.926 0.1152-5.551l-21.07 0.00781c-0.8774 11.58 1.335 26.95 15.18 26.95 7.25 0 10.7-1.318 15.01-6.803l-1.02 5.039h17.39l3.984-25.29zm190.9 0.05469-24.01 0.05859c-2.504 4.053-5.005 7.045-10.68 6.529l0.9824-6.547-22.11 0.01368-3.994 25.11h22.37c18.51 0 31.21-8.1 37.44-25.17zm-145 0.03515c-1.07 16.03 7.652 27.89 22.22 28 13.37 0.09796 24.61-3.382 27.86-22.56h-18.66c-0.9388 6.102-4.035 8.509-7.006 8.148-4.612-0.5619-4.42-8.504-3.584-13.56l-20.83-0.02344zm215.8 0.00391c-0.931 14.47 5.621 26.22 21.61 26.45 4.201 0.05848 7.297-0.4563 10.54-1.312l2.662-18.22-4.57 0.3438c-4.204 0-6.358-3.493-6.918-7.238l-23.32-0.02148zm-354.9 0.00977-4.129 25.12h42.32l2.752-19.61h-18.92l0.6875-5.506h-22.71zm192.2 0-3.785 25.12h20.99l3.785-25.12h-20.99zm96 0-3.787 25.12h20.99l3.783-25.12h-20.99zm-151.2 0.05468-31.17 0.0586c1.903 1.173 4.052 1.931 6.314 2.65 4.833 1.537 5.757 3.123 5.457 5.275-0.3006 2.153-4.185 3.476-6.109 3.574-5.01 0.257-12.49-4.259-14.71-7.092l-2.9 17.75c6.487 3.852 9.918 5.373 18.08 5.373 12.35 0 23.92-5.069 25.8-18.55 0.4616-3.303 0.1784-6.434-0.7695-9.033zm215.4 0-31.17 0.0586c1.905 1.173 4.05 1.931 6.314 2.65 4.832 1.537 5.759 3.123 5.459 5.275-0.3027 2.153-4.186 3.476-6.111 3.574-5.009 0.257-12.5-4.259-14.71-7.092l-2.9 17.75c6.487 3.852 9.919 5.373 18.08 5.373 12.35 0 23.92-5.069 25.8-18.55 0.462-3.303 0.1812-6.434-0.7656-9.033z" fill="#fff"/></svg>
