<svg width="480" height="320" version="1.1" viewBox="0 0 480 320" xml:space="preserve" xmlns="http://www.w3.org/2000/svg"><defs><linearGradient id="a" x1="217.2" x2="337" y1="366.8" y2="-80.44" gradientUnits="userSpaceOnUse"><stop stop-color="#006366" offset="0"/><stop stop-color="#00e0e0" offset="1"/></linearGradient></defs><rect id="b" width="480" height="320" ry="24" fill="url(#a)"/><path d="m341.3 137v46h92.67v-20.12l-5.792-5.75 5.792-5.75v-14.38zm-295.3 5.75v34.5h34.75v-5.75h-23.17v-28.75zm52.13 0-5.792 5.75v23l5.792 5.75h23.17l5.792-5.75v-23l-5.792-5.75zm40.54 0v34.5h5.792l11.58-11.5 11.58 11.5h5.792v-34.5h-11.58v17.25l-5.792-5.75-5.792 5.75v-17.25zm92.67 0v34.5h34.75v-5.75h-23.17v-11.5h11.58v-5.75h-11.58v-5.75h23.17v-5.75zm52.13 0-5.792 5.75v5.75l5.792 5.75h17.38v11.5h-23.17v5.75h28.96l5.792-5.75v-11.5l-5.792-5.75h-17.38v-5.75h23.17v-5.75zm63.71 0h11.58l11.58 11.5v-11.5h11.58v34.5h-11.58v-5.75l-11.58-11.5v17.25h-11.58zm46.33 0h11.58l5.792 5.75 5.792-5.75h11.58v5.75l-8.688 8.625 8.688 8.625v11.5h-11.58v-8.625l-5.792-5.75-5.792 5.75v8.625h-11.58v-11.5l8.688-8.625-8.688-8.625zm-208.6 0.0508v34.5h11.58v-14.38l14.49 14.38h8.688v-5.75l-11.58-11.5h5.792l5.792-5.75v-5.75l-5.798-5.75zm-81.03 5.699h11.58v23h-11.58zm92.67 0h11.58v5.75h-11.58z" fill="#fff"/></svg>
