<svg width="480" height="320" version="1.1" viewBox="0 0 480 320" xml:space="preserve" xmlns="http://www.w3.org/2000/svg"><defs><linearGradient id="a" x1="43.9" x2="17.19" y1="-12.85" y2="86.81" gradientTransform="scale(3.78)" gradientUnits="userSpaceOnUse"><stop stop-color="#28bca3" offset="0"/><stop stop-color="#0d52bf" offset="1"/></linearGradient></defs><rect width="480" height="320" ry="24" fill="url(#a)"/><path d="m222.1 164 0.0104-61.14-58.18 58.18v-58.18l-36.28 36.28v-36.28l-87.68 87.68h36.28l32.75-32.74v36.28l29.27-29.27v21.9l-30.46 30.46h36.28l52.36-52.35v25.73h35.4l32.74-32.74v36.28l29.27-29.27v21.9l-3.834 3.844h89.6l24.02-24.03h-53.31l5.834-5.834h14.96l24.03-24.02h-14.97l5.834-5.834h29.9l24.03-24.03h-66.19l-54.27 54.27v-58.18l-36.28 36.28v-36.28z" fill="#fff"/></svg>
