<svg width="480" height="320" version="1.1" viewBox="0 0 480 320" xml:space="preserve" xmlns="http://www.w3.org/2000/svg"><defs><linearGradient id="a" x1="240" x2="240" y1="320" y2="-95" gradientUnits="userSpaceOnUse"><stop stop-color="#d40000" offset="0"/><stop stop-color="#ff2a7f" offset="1"/></linearGradient></defs><rect id="b" width="480" height="320" ry="24" fill="url(#a)"/><path d="m275.2 237.7c-1.76 0-2.959 1.28-2.959 3 0 1.68 1.199 2.959 2.959 2.959 1.8 0 2.961-1.279 2.961-2.959 0-1.72-1.161-3-2.961-3zm-68.48 1.559-4.92 0.5215v25.32c0 3 1.8 4.92 4.68 4.92 1.2 0 2.321-0.3598 3.041-0.7598l-0.9609-3.359c-0.2 0.04-0.5189 0.1602-0.8789 0.1602-0.64 0-0.9609-0.4802-0.9609-1.16zm10.76 0-4.92 0.5215v25.32c0 3 1.802 4.92 4.682 4.92 1.2 0 2.319-0.3598 3.039-0.7598l-0.9609-3.359c-0.2 0.04-0.5189 0.1602-0.8789 0.1602-0.64 0-0.9609-0.4802-0.9609-1.16zm-45.6 1.961c-5.76 0-10.2 4.52-10.2 14.32 0 9.92 4.239 14.48 10.2 14.48 3.2 0 5.601-1.598 7.121-3.318l-2.441-2.801c-1.24 1.04-2.438 2.039-4.318 2.039-3.12 0-5.201-2.638-5.201-10.4 0-7.96 2.161-10.44 5.121-10.44 1.6 0 2.838 0.6809 4.158 1.881l2.441-2.92c-1.92-1.8-3.961-2.84-6.881-2.84zm92.72 1.76-4.92 0.5996v4.68h-2.48v3.561h2.48v12.32c0 3.48 1.839 5.879 5.639 5.879 1.64 0 3.282-0.5186 4.602-1.559l-1.721-3.041c-0.72 0.4-1.199 0.6406-1.959 0.6406-1.12 0-1.641-0.7199-1.641-1.92v-12.32h3.52l0.4805-3.561h-4zm-75.48 4.721c-5.24 0-8.439 3.879-8.439 11.12 0 7.28 3.199 11.2 8.439 11.2s8.439-4.159 8.439-11.2c0-7.52-3.199-11.12-8.439-11.12zm41.4 0c-5.28 0-8.121 4.438-8.121 11.32 0 6.96 3.042 11 8.602 11 2.84 0 5.039-1.079 6.719-2.719l-2.039-2.801c-1.48 1.2-2.72 1.76-4.4 1.76-2.2 0-3.68-1.239-3.92-5.879h10.92c0.04-0.56 0.1191-1.361 0.1191-2.041 0-7.12-2.999-10.64-7.879-10.64zm19.72 0c-5.16 0-8.521 4.158-8.521 11.32 0 7.4 3.28 11 8.6 11 2.28 0 4.161-0.9594 5.721-2.439l-2.199-2.84c-1.16 0.84-2.041 1.32-3.281 1.32-2.16 0-3.639-1.561-3.639-7.121 0-5.6 1.359-7.439 3.639-7.439 1.24 0 2.241 0.4804 3.361 1.4l2.119-2.801c-1.68-1.64-3.479-2.398-5.799-2.398zm40.32 0c-5.24 0-8.439 3.879-8.439 11.12 0 7.28 3.199 11.2 8.439 11.2s8.441-4.159 8.441-11.2c0-7.52-3.201-11.12-8.441-11.12zm22.76 0c-2.4 0-3.878 1.238-5.238 3.318l-0.3613-2.76h-4.279v21.16h4.92v-14.8c1-1.92 2.12-3.16 3.32-3.16 1.04 0 1.639 0.7598 1.639 2.84v15.12h4.92v-15.68c0-3.68-1.88-6.039-4.92-6.039zm-40.56 0.5586v21.16h4.92v-21.16zm-42.2 2.881c2.16 0 3.041 1.76 3.041 5.76v0.2793h-6.24c0.2-4.68 1.359-6.039 3.199-6.039zm-41.44 0.2793c2.2 0 3.32 1.88 3.32 7.4s-1.12 7.439-3.32 7.439-3.32-1.879-3.32-7.439c0-5.48 1.12-7.4 3.32-7.4zm101.4 0c2.2 0 3.32 1.88 3.32 7.4s-1.12 7.439-3.32 7.439-3.318-1.879-3.318-7.439c0-5.48 1.118-7.4 3.318-7.4z" fill="#fff"/><path d="m159.1 60.01-24.46 2.333c-0.6594 0.06274-1.258 0.4187-1.629 0.9745l-13.15 19.63c-0.3799 0.5683-0.584 1.238-0.584 1.926v9.238c0 0.65 0.3419 1.26 0.8977 1.602l4.168 2.533-6.594 8.787c-0.4114 0.5432-0.6274 1.208-0.6274 1.892l7e-3 9.097c0 0.6657 0.327 1.261 0.8043 1.729l6.224 5.303-17.32-2.306c-0.7191-0.0973-1.416 0.2988-1.695 0.9645l-28.95 67.72c-0.323 0.7442-0.4801 1.542-0.4801 2.349v7.989c0 0.7411 0.4401 1.413 1.125 1.702l33.4 14.26c0.5998 0.2575 1.287-0.0658 1.482-0.6875l9.101-29.71 8.003 14.38c0.2857 0.5087 1.001 0.5755 1.365 0.12l10.43-12.81 1.782 29.8c0.0408 0.6469 0.637 1.103 1.268 0.9712l28.55-5.9 19.68 3.721c0.6594 0.1226 1.292-0.3153 1.398-0.9778l2.473-14.65 10.28-1.542 3.294 15.87c0.1382 0.6626 0.7827 1.097 1.448 0.9712l22.53-4.262 0.3337 2.857c0.0754 0.6751 0.6767 1.164 1.355 1.105l27.04-2.44c0.6876-0.0628 1.221-0.6376 1.215-1.332l-0.0167-7.833 7.789 11.89c0.3862 0.5903 1.145 0.8126 1.789 0.5206l19.83-8.877-0.1235 7.082c-0.01 0.6562 0.5383 1.182 1.191 1.135l26.2-1.795c0.7191-0.0471 1.313-0.5817 1.435-1.288l3.364-18.96 4.492 12.96c0.2512 0.7254 0.8336 1.293 1.565 1.535l31.46 10.26c0.7442 0.2449 1.56 0.1997 2.273-0.1268l29.88-13.63c0.7034-0.3203 1.223-0.9446 1.412-1.692l8.21-32.48c0.1978-0.7913 0.297-1.599 0.297-2.406v-6.114c-7e-3 -0.7913-0.2557-1.569-0.7142-2.219l-19.35-27.35c-0.4459-0.6343-1.15-1.05-1.922-1.145l-19.18-2.333 5.293-2.243c0.584-0.2449 0.9678-0.8274 0.9678-1.462v-9.815c0-0.6625-0.2954-1.299-0.801-1.732l-6.691-5.703c0.2073-0.135 0.3561-0.3491 0.3938-0.594l3.958-23.91c0.113-0.6908 0.1702-1.392 0.1702-2.089v-5.723c0-0.65-0.3457-1.252-0.9078-1.582l-21.49-12.65c-0.5841-0.3454-1.271-0.4774-1.946-0.3738l-31.87 4.872c-0.5997 0.088-1.038 0.6086-1.038 1.211v2.029l-32.58-5.677c-0.5903-0.1005-1.165 0.2597-1.328 0.8343l-2.009 7.058-15.49-8.357c-0.5935-0.3234-1.29-0.4297-1.959-0.3104l-31.6 5.82c-0.5998 0.1131-1.035 0.6356-1.035 1.245v5.72c0 0.1035 0.01 0.2067 0.01 0.3104l-19.37-2.573v-4.489c0-0.5966-0.4511-1.095-1.045-1.151l-28.63-2.68c-0.5746-0.05325-1.074 0.3798-1.115 0.9545l-0.1469 2.353-11.89-9.097c-0.5338-0.4082-1.207-0.6034-1.876-0.5407zm-0.7842 4.826c0.3993 0.03712 0.7843 0.1899 1.105 0.4372l15.33 11.75c0.3643 0.2795 0.4357 0.8038 0.1468 1.168l-7.259 9.211c-0.2889 0.3674-0.8252 0.4505-1.211 0.1836l-14.9-10.22-4.312 7.072 25.63 16.87c0.405 0.27 0.5616 0.789 0.3638 1.235l-8.457 19.15c-0.2073 0.4679-0.6694 0.7707-1.178 0.7809l-24.63 0.4338c-0.5401 0.01-1.07-0.1789-1.482-0.5306l-14.85-12.62c-0.3579-0.3077-0.4161-0.8415-0.1335-1.221l8.433-11.24c0.27-0.361 0.7959-0.4253 1.141-0.1302l14.43 12.15 5.537-7.532-27.08-16.49c-0.3894-0.2386-0.5015-0.7581-0.2503-1.138l11.09-16.55c0.2983-0.4365 0.7742-0.7276 1.305-0.7809l20.82-1.982c0.1342-0.01337 0.2674-0.01576 0.4005-0.0037zm183.4 2.473c0.4018 0.0074 0.7981 0.1165 1.151 0.3237l17.64 10.39c0.4365 0.2575 0.6693 0.7555 0.5907 1.255l-3.054 18.4c-0.0817 0.5275-0.3957 0.9923-0.851 1.275l-8.567 5.336 14.47 12.33c0.2982 0.2512 0.2249 0.724-0.1268 0.881l-15.8 6.688c-0.4522 0.1916-0.9679 0.0311-1.235-0.3771l-11.69-17.99-0.6208 0.1201 0.5106 16.54c0.0126 0.4742-0.3433 0.8736-0.8143 0.9144l-12.78 1.121c-0.4647 0.0408-0.8675-0.2995-0.9178-0.7642l-3.524-34.32 2.7-16.09c0.0911-0.5746-0.2897-1.117-0.8644-1.215l-3.264-0.5707c0.1193-0.09726 0.2571-0.1784 0.4205-0.2036l26.22-4.015c0.1334-0.02038 0.2698-0.02924 0.4038-0.02676zm-86.12 1.669c0.404-5e-3 0.8077 0.09624 1.168 0.287l17.79 9.595c0.4428 0.2386 0.6891 0.7355 0.6074 1.235l-2.59 17.62c-0.0817 0.537-0.3352 1.035-0.7309 1.412l-9.548 9.134c-0.3925 0.3768-0.9083 0.6026-1.448 0.6308l-12.5 0.6875 0.7542 12.28c0.0313 0.4679-0.3162 0.8739-0.7809 0.9211l-13.08 1.315c-0.4647 0.0471-0.8845-0.2862-0.9378-0.7509l-3.624-29.97 2.316-13.78c0.0942-0.5684-0.2994-1.099-0.8677-1.175l-3.317-0.4439-0.3805-3.18c-0.0597-0.4679 0.2561-0.8998 0.7209-0.9878l26.04-4.799c0.1334-0.02513 0.2691-0.03838 0.4038-0.04zm23.88 1.208 33.49 5.834c0.3298 0.05962 0.5506 0.3749 0.4972 0.7109l-2.109 12.59c-0.0533 0.3203-0.3766 0.5182-0.6875 0.4272l-17.49-5.293-2.393 8.764 15.76 0.2336c0.3234 0.0037 0.5746 0.294 0.5306 0.6174l-1.332 10.18c-0.0471 0.3297-0.3513 0.5639-0.6841 0.5106l-15.31-2.313 1.355 9.318 18.97-2.803c0.3328-0.0533 0.6506 0.178 0.7008 0.514l2.052 13.49c0.044 0.3109-0.2068 0.5943-0.5239 0.584l-38.16-1.355c-0.358-0.0126-0.6575-0.2722-0.7109-0.6207l-2.446-15.12 5.123-4.899c0.4899-0.4679 0.8106-1.093 0.9111-1.765l3.247-22.06c0.088-0.6249-0.2218-1.244-0.7776-1.542l-2.036-1.098 1.255-4.415c0.0973-0.336 0.4286-0.5438 0.7709-0.4872zm-101.2 1.265 19.23 1.799c0.4553 0.044 0.7795 0.4556 0.7041 0.9077l-5.373 33.17 15.19-0.9812-1.158-25.7c-0.022-0.4427 0.3607-0.7905 0.7909-0.7309l19.24 2.553c0.4616 0.05962 0.7727 0.4856 0.6941 0.9378l-4.716 28.01c-0.091 0.5401-0.333 1.05-0.6942 1.462l-8.517 9.718c-0.3517 0.3956-0.8645 0.6193-1.398 0.6074l-24.22-0.6174c-0.5401-0.0158-1.06-0.2229-1.462-0.584l-11.05-9.928c-0.3956-0.3517-0.6085-0.871-0.574-1.402l0.0435-0.6541 3.184-7.215c0.2732-0.6217 0.333-1.323 0.1635-1.982l-0.1936-0.7642c-0.1633-0.6563-0.5695-1.228-1.135-1.599l-1.248-0.8243 0.8844-14.14 3.354-4.255c0.4177-0.5275 0.6054-1.203 0.5206-1.869l-0.1202-0.9611c-0.0786-0.6626-0.424-1.271-0.9578-1.682l-2.139-1.639 0.0533-0.8777c0.0315-0.4615 0.4295-0.8048 0.8911-0.7609zm154.6 8.964 0.5139 17.43 9.995-1.605 1.735-11.5zm-86.21 1.248 1.031 16.69 9.932-1.739 1.699-10.59zm-136.6 47.1 14.75 1.962c0.5903 0.0754 1.09 0.4894 1.278 1.055l7.272 21.68 10.57-20.45c0.2732-0.5181 0.8441-0.8128 1.425-0.7342l15.94 2.149c0.5746 0.0754 1.045 0.5198 1.158 1.091l12.64 62.56c0.1037 0.5275-0.2336 1.045-0.7642 1.155l-25.72 5.316c-0.5055 0.1037-0.9831-0.2626-1.015-0.7776l-2.266-37.86-14.4 17.69c-0.2983 0.3643-0.865 0.3114-1.088-0.0968l-10.48-18.82-11.19 36.51c-0.1539 0.4993-0.7043 0.7546-1.185 0.5473l-23.74-10.13c-0.4932-0.2167-0.7273-0.7919-0.5106-1.285l25.98-60.79c0.2261-0.5275 0.7866-0.8429 1.355-0.7676zm157.2 0.2236c0.4684 4e-3 0.9342 0.1302 1.342 0.3704l24.77 14.46c0.5056 0.2983 0.7706 0.8837 0.6575 1.458l-4.255 22.13c-0.113 0.6092-0.4878 1.144-1.028 1.455l-12.2 7.122 19.22 15.94c0.3454 0.2889 0.271 0.8393-0.1435 1.025l-20.96 9.388c-0.5087 0.2292-1.117 0.0539-1.425-0.4172l-15.68-23.93-0.8176 0.1668 0.7676 21.69c0.0189 0.5464-0.3914 1.014-0.9378 1.065l-12.29 1.108-8.467-24.31-4.862-41.9c-0.066-0.5432 0.3109-1.04 0.851-1.128l35-5.667c0.1546-0.0259 0.3111-0.0383 0.4672-0.0368zm34.7 1.992c0.0606 5.7e-4 0.1216 9e-3 0.1836 0.0233l24.9 5.954c0.537 0.1287 0.8751 0.6547 0.781 1.195l-11.06 62.35c-0.1004 0.5621-0.5734 0.987-1.148 1.028l-16.2 1.111c-0.5213 0.0313-0.9565-0.39-0.9411-0.9144l0.1535-4.041 2.556-1.141c0.694-0.3078 1.178-0.9582 1.282-1.709l0.4038-2.867c0.1037-0.7473-0.1935-1.502-0.7776-1.989l-3.067-2.55 2.119-55.68c0.0165-0.4424 0.3842-0.7715 0.8076-0.7676zm-116.8 1.225 29.06 2.984c0.5935 0.0597 1.1 0.4623 1.298 1.021l21.23 60.98c0.1664 0.4898-0.1352 1.014-0.6408 1.108l-21.19 4.005c-0.5307 0.1036-1.048-0.2438-1.158-0.7776l-3.301-15.91-19.46 2.923-2.239 13.27c-0.0881 0.5307-0.594 0.8814-1.125 0.7809l-6.194-1.175-7.118-35.29 9.585-33.09c0.1601-0.5432 0.6858-0.8943 1.245-0.841zm161.7 1.762 32.62 3.968c0.6217 0.0754 1.181 0.4091 1.542 0.9177l16.74 23.65c0.361 0.5024 0.4814 1.146 0.3337 1.749l-7.042 27.89c-0.1539 0.5966-0.5724 1.094-1.131 1.352l-25.93 11.83c-0.5715 0.2575-1.225 0.2948-1.819 0.1001l-27.25-8.887c-0.5872-0.1884-1.05-0.6439-1.248-1.225l-6.811-19.64 4.041-22.87 14.39-18.18c0.3768-0.4773 0.9757-0.7261 1.579-0.6508zm-91.24 12.95 0.7375 20.61 12.79-2.98 1.635-13.53zm-58.51 5.31-3.167 18.79 13.57 0.4806-3.905-18.75zm159.3 4.779-7.873 13.52 10.94 11.58 13.33-6.625-1.809-14.56z" fill="#fff"/></svg>
