<svg width="480" height="320" version="1.1" viewBox="0 0 127 84.667" xmlns="http://www.w3.org/2000/svg" xmlns:xlink="http://www.w3.org/1999/xlink">
 <defs>
  <linearGradient id="a" x1="64.19" x2="64.19" y1="-29.291" y2="45.636" gradientUnits="userSpaceOnUse">
   <stop stop-color="#ed5353" offset="0"/>
   <stop stop-color="#a10705" offset="1"/>
  </linearGradient>
 </defs>
 <rect width="127" height="84.667" ry="4.2333" fill="url(#a)" stroke-linecap="square" stroke-linejoin="round" stroke-width=".52917" style="paint-order:stroke fill markers"/>
 <path d="m68.661 56.7c-0.37493-0.21105-0.51762-0.47929-0.51762-0.97301 0-0.57057 0.42382-0.97114 0.93904-0.88753 0.44907 0.0729 0.61767 0.1982 1.0298 0.76548l0.30668 0.42214 0.36921-0.39148c0.45992-0.48766 1.4535-2.1838 1.5359-2.6219 0.06049-0.32164-0.1293-0.82463-2.3923-6.3403-0.2813-0.68563-0.58705-1.3762-0.67943-1.5345-0.1776-0.3044-0.85623-0.74192-1.1508-0.74192-0.12611 0-0.17494-0.10118-0.17494-0.36244 0-0.7216-0.617-2.1635-1.2194-2.8495-1.0514-1.1975-3.1663-1.2129-3.9499-0.0289-0.50258 0.75945-0.43693 1.8985 0.14961 2.5956 0.41745 0.49612 0.8816 0.75484 2.6218 1.4614 3.0199 1.2262 3.7357 2.0017 3.7202 4.0309-0.0076 0.99862-0.37291 1.8581-1.0865 2.5562-1.4369 1.4059-3.696 1.6638-5.9278 0.67673-0.34224-0.15135-0.63932-0.27519-0.66018-0.27519s-0.1136 0.14634-0.2061 0.3252c-0.1293 0.25004-0.24221 0.3252-0.48852 0.3252-0.41415 0-0.41927-0.0276-0.45671-2.4662l-0.03037-1.9784 0.33514 6e-5c0.30065 4e-5 0.34915 0.0475 0.47126 0.46075 0.22232 0.75242 0.8772 1.9077 1.3672 2.4119 0.77727 0.79975 1.2272 0.97565 2.4955 0.97565 1.0159 0 1.124-0.0213 1.5532-0.30528 0.5977-0.39554 0.87233-0.98872 0.8755-1.891 5e-3 -1.433-0.62144-2.1232-2.635-2.9031-2.6566-1.0289-3.574-1.7131-3.9276-2.9293-0.27182-0.93502-0.17561-2.0245 0.24484-2.7726 1.0831-1.9271 3.8533-2.5129 5.9915-1.267l0.37597 0.21909 0.22431-0.28131c0.15778-0.19788 0.32758-0.28131 0.57253-0.28131h0.34823v3.9024h3.3604v0.31135c0 0.27767-0.04537 0.3186-0.41952 0.37843-0.78237 0.1251-0.78571 0.10288 0.4887 3.2512 0.64026 1.5817 1.1979 2.8549 1.2392 2.8294 0.09263-0.0572 1.6147-3.734 1.9612-4.7376 0.29994-0.86871 0.2433-1.0264-0.46249-1.2877-0.37686-0.13949-0.48366-0.23581-0.51078-0.4607l-0.0343-0.28434h1.6332c0.95799 0 1.6332 0.0425 1.6332 0.10287 0 0.0566 0.17437 0.03 0.38749-0.059 0.84974-0.35505 1.7064-0.32231 3.2561 0.12443 0.17197 0.0496 0.24366 0.01 0.28796-0.15953 0.07243-0.27701 0.72967-0.3337 0.72967-0.0629 0 0.12483 0.13851 0.1626 0.5962 0.1626h0.5962v-2.8184h1.626v2.8184h2.6016v0.7588h-2.6016l0.0061 3.0623c0.0066 3.3239 0.05213 3.6438 0.57255 4.0278 0.26443 0.19507 0.4443 0.22416 1.2802 0.20708l0.97255-0.0199-0.0336 0.28669c-0.0487 0.41549-1.1169 0.77609-2.31 0.77981-1.0318 3e-3 -1.5129-0.19449-1.8391-0.75576-0.20622-0.35484-0.224-0.61097-0.27469-3.9566l-0.0542-3.5772h-1.084l0.03945 0.84849 0.03945 0.8485-0.30146-0.0355c-0.22756-0.0268-0.33023-0.12009-0.41885-0.38065-0.47518-1.3971-1.9087-2.1132-3.1401-1.5686-0.59411 0.2628-0.88707 0.78789-0.78625 1.4092 0.11138 0.68633 0.62982 1.0604 2.1829 1.5748 1.2359 0.40941 2.1067 0.92198 2.4914 1.4666 0.27369 0.38736 0.32967 0.58113 0.36394 1.2599 0.03331 0.65941-0.0016 0.88954-0.19747 1.2937-0.3396 0.70151-0.99092 1.2158-1.8828 1.4867-1.1761 0.35723-2.0918 0.21928-3.5657-0.53719-0.04435-0.0228-0.12851 0.0845-0.18702 0.23843-0.082 0.21569-0.18151 0.27981-0.43426 0.27981h-0.32788v-1.5718c0-1.5634 0.0013-1.5718 0.24688-1.5718 0.2001 0 0.30504 0.1335 0.55379 0.70451 0.38356 0.88044 1.2175 1.6882 1.9564 1.8951 0.58894 0.16489 1.488 0.0865 1.8688-0.16302 0.61782-0.40481 0.8388-1.21 0.53297-1.9419-0.19251-0.46075-0.7408-0.78223-2.2321-1.3088-1.2618-0.44553-1.6488-0.65054-2.081-1.1024-0.6-0.62738-0.79193-1.6652-0.47318-2.5587 0.13066-0.36625 0.12856-0.39548-0.01957-0.27254-0.19351 0.1606-0.14313 0.047-2.1063 4.7478-2.0334 4.8688-2.671 6.0642-3.6211 6.7889-0.33072 0.25225-0.52694 0.31148-1.1177 0.33739-0.49302 0.0216-0.80871-0.0204-1.0119-0.13484zm-40.626-3.7323c-0.98606-0.29995-1.503-0.92738-1.5943-1.9353-0.0699-0.77082 0.08856-1.3139 0.5301-1.8168 0.45934-0.52315 0.84915-0.73408 2.2573-1.2214 0.68563-0.2373 1.5337-0.53996 1.8845-0.67259l0.63794-0.24115-0.06059-0.80115c-0.10651-1.4082-0.67346-2.0991-1.7226-2.0991-0.52831 0-1.1956 0.20724-1.3211 0.41029-0.03644 0.059-0.01154 0.3797 0.05534 0.71274 0.10465 0.5211 0.09614 0.64441-0.06104 0.88429-0.38746 0.59133-1.34 0.6221-1.6344 0.0528-0.50157-0.96993 0.30416-2.0174 1.9321-2.5119 0.60941-0.18511 0.92101-0.21687 1.6339-0.16656 1.3517 0.0954 2.0211 0.44715 2.4779 1.3021 0.2313 0.43285 0.2454 0.60409 0.2971 3.6088 0.04219 2.4518 0.08742 3.1942 0.20305 3.3333 0.3252 0.3911 0.39402 0.20575 0.359-0.96694l-0.03423-1.1463 0.29687 0.035c0.23798 0.0281 0.32552 0.121 0.44131 0.46859 0.21149 0.63486 0.88377 1.4635 1.4922 1.8394 0.46204 0.28539 0.63293 0.32844 1.2988 0.3272 1.2286-2e-3 1.7966-0.4909 1.7966-1.5454 0-0.90227-0.48516-1.2982-2.341-1.9102-1.0983-0.36222-1.968-0.8773-2.2897-1.356-0.99605-1.4821-0.25921-3.3225 1.548-3.8664 0.83353-0.25085 1.5075-0.19439 2.8825 0.24145 0.11704 0.0371 0.20422-0.0219 0.2512-0.1699 0.08755-0.27583 0.70775-0.33201 0.70775-0.0641 0 0.12483 0.13851 0.16261 0.5962 0.16261h0.5962v-2.8184h1.626v2.8184h2.6016v0.75192l-2.5474 0.061v3.1436c0 2.833 0.01945 3.1793 0.1969 3.5044 0.28981 0.5311 0.80709 0.71102 1.7886 0.62208l0.79416-0.072-0.0348 0.30332c-0.05104 0.44478-1.0042 0.77592-2.2587 0.78467-1.1111 8e-3 -1.5589-0.18571-1.8898-0.81649-0.20884-0.39806-0.22416-0.63822-0.25358-3.9738l-0.03131-3.5501h-1.0756v0.86721c0 0.83945-0.0082 0.8672-0.25627 0.8672-0.20473 0-0.29462-0.1004-0.44692-0.4992-0.38277-1.0023-1.2532-1.6616-2.2-1.6664-1.0178-5e-3 -1.6496 0.53854-1.6496 1.4197 0 0.82043 0.30613 1.0806 2.0178 1.7152 0.78188 0.28985 1.6194 0.6519 1.8613 0.80456 1.8134 1.1448 1.4981 3.6993-0.57285 4.6401-0.43287 0.19664-0.73844 0.24676-1.5176 0.24891-0.86967 2e-3 -1.053-0.0339-1.688-0.33432-0.70904-0.33544-0.71282-0.33595-0.813-0.10814-0.11583 0.26338-0.47757 0.36115-1.4015 0.3788-0.82758 0.0158-1.306-0.25111-1.5462-0.8627l-0.16992-0.43259-0.33434 0.31186c-0.95758 0.89319-2.3219 1.3062-3.316 1.0038zm2.5475-1.0908c0.246-0.11909 0.58813-0.36355 0.76028-0.54324 0.31141-0.32503 0.31324-0.33498 0.35913-1.9505l0.04613-1.6238-0.36569 0.11799c-2.3934 0.77229-3.166 1.4279-3.166 2.6868 0 0.33487 0.06002 0.721 0.13338 0.85808 0.34538 0.64536 1.3967 0.85945 2.2328 0.45471zm17.305 1.0822c-1.1223-0.23678-2.0683-0.93865-2.5937-1.9244-1.0698-2.0071-0.82412-4.6775 0.56967-6.1922 1.0647-1.157 2.4502-1.5518 4.0195-1.1453 1.5743 0.40782 2.3156 1.437 2.4999 3.4704l0.07309 0.80659h-6.1003l8.61e-4 0.2439c0.0022 0.64761 0.25405 1.7192 0.54491 2.3183 0.6254 1.2882 1.942 1.8424 3.4109 1.4358 0.42434-0.11747 1.2203-0.81341 1.5781-1.3797 0.1604-0.25391 0.16115-0.25399 0.42128-0.0433l0.2606 0.21102-0.2291 0.36854c-0.37786 0.60784-1.125 1.2613-1.788 1.5639-0.70003 0.31947-1.8649 0.43583-2.6675 0.26649zm2.7115-5.6871c0.13227-0.13227-0.14461-1.7491-0.36919-2.1559-0.77819-1.4095-2.6363-1.2124-3.4392 0.36493-0.23 0.45189-0.47793 1.5772-0.38176 1.7328 0.06754 0.10928 4.0832 0.16496 4.1901 0.0581zm39.336 5.6303c-1.9648-0.55115-3.0378-2.1781-3.0378-4.6059 0-2.0383 0.88532-3.6301 2.4449-4.3959 0.57558-0.28261 0.7546-0.31633 1.6743-0.31533 0.87784 8.2e-4 1.1179 0.0423 1.6267 0.28 1.2395 0.57916 1.8348 1.5522 1.9258 3.1476l0.05482 0.96147h-6.0239l0.06788 0.80298c0.17289 2.0454 1.2728 3.3123 2.8782 3.3152 1.0974 2e-3 1.8025-0.39333 2.56-1.4354 0.21504-0.29583 0.21891-0.2966 0.47619-0.0962l0.25939 0.202-0.33433 0.48594c-0.76993 1.119-1.811 1.7073-3.1443 1.7767-0.54447 0.0284-1.0403-0.0144-1.4278-0.1231zm2.9242-6.0434c0-0.6178-0.2777-1.657-0.54195-2.0281-0.45362-0.63705-1.4897-0.83505-2.2745-0.43467-0.73902 0.37702-1.2414 1.229-1.37 2.3236l-0.07101 0.6042h4.2575zm-82.276 5.6784c0-0.29459 0.03415-0.31973 0.52656-0.38744 0.69869-0.0961 1.1807-0.4051 1.4021-0.8988 0.15996-0.35672 0.18145-0.93822 0.18318-4.9569 0.0019-4.3993-0.0056-4.5656-0.22071-4.9318-0.28266-0.48117-0.78142-0.81842-1.3432-0.90825-0.37718-0.0603-0.43954-0.10854-0.43954-0.34v-0.26972l4.3902 0.00164 1.8321 4.8232c1.0076 2.6527 1.8629 4.8231 1.9006 4.8231 0.09284 0 3.2556-8.125 3.4812-8.943l0.17936-0.6504 4.1514-0.059v0.25924c0 0.23017-0.07245 0.27349-0.64617 0.38636-1.1577 0.22777-1.0882-0.14424-1.0882 5.8284v5.1393l0.25716 0.25716c0.25901 0.25902 0.89017 0.49007 1.3417 0.49119 0.1986 4.1e-4 0.2439 0.061 0.2439 0.3258v0.3252h-5.7452v-0.30975c0-0.29886 0.02295-0.31216 0.65192-0.3779 0.77159-0.0806 1.1321-0.28864 1.2912-0.74488 0.1664-0.47734 0.16215-9.9828-0.0044-9.9272-0.06652 0.0222-1.1202 2.5384-2.3416 5.5916-1.7753 4.4382-2.2596 5.5513-2.4149 5.5513-0.10684 0-0.22813-0.0854-0.26954-0.1897-0.04141-0.10433-0.96906-2.5799-2.0614-5.5013-1.0924-2.9214-2.0202-5.397-2.0617-5.5013-0.24425-0.61323-0.28328 0.0886-0.25017 4.4986 0.03432 4.5707 0.04122 4.7013 0.27488 5.2074 0.25582 0.5541 0.70934 0.84242 1.576 1.002 0.35865 0.066 0.4065 0.11169 0.4065 0.38797v0.31313h-5.2032zm41.192 0.0556c0-0.27564 0.17852-0.391 0.60507-0.391 0.14417 0 0.35969-0.0976 0.47894-0.2168 0.20728-0.20728 0.2168-0.36134 0.2168-3.5084 0-3.1678-0.0085-3.3023-0.22508-3.5777-0.1358-0.17264-0.41528-0.33404-0.7046-0.40689-0.39162-0.0986-0.47952-0.16606-0.47952-0.36796 0-0.24059 0.03701-0.24918 1.3821-0.32052 0.76016-0.0403 1.4553-0.0818 1.5447-0.0922 0.1265-0.0147 0.16982 0.13368 0.19513 0.66836l0.03253 0.68725 0.54013-0.50522c1.3325-1.2464 2.8361-1.2808 3.2262-0.0737 0.12212 0.37781 0.12212 0.52572 0 0.91093-0.19128 0.6034-0.58583 0.81362-1.1883 0.63313-0.49583-0.14855-0.66411-0.41534-0.62281-0.98736 0.01675-0.23189-0.0025-0.4546-0.04285-0.49491-0.12891-0.12891-1.2462 0.49283-1.5907 0.88518l-0.33261 0.37882v2.923c0 2.7505 0.01244 2.9355 0.21075 3.1338 0.11592 0.11592 0.3964 0.24068 0.6233 0.27725 0.86835 0.13995 0.90035 0.15543 0.90035 0.43547v0.26893h-4.7696zm42.276 0c0-0.27191 0.17853-0.391 0.58617-0.391 0.13378 0 0.3493-0.1129 0.47893-0.25089 0.23104-0.24593 0.2357-0.3143 0.2357-3.4605v-3.2096l-0.27891-0.33147c-0.15936-0.18938-0.46139-0.3806-0.7046-0.44609-0.34286-0.0923-0.42568-0.16446-0.42568-0.37076 0-0.25067 0.02716-0.25765 1.2737-0.32736 0.70054-0.0392 1.3713-0.0806 1.4905-0.092 0.19478-0.0186 0.22006 0.054 0.24895 0.71511l0.03216 0.73587 0.6086-0.54244c1.036-0.92335 2.0732-1.2479 3.1573-0.98783 0.59975 0.14388 1.3332 0.70047 1.5981 1.2128l0.1652 0.31946 0.56365-0.50951c1.7512-1.583 3.9796-1.4514 4.7822 0.28242 0.2089 0.45125 0.22798 0.71111 0.25463 3.4688 0.0159 1.6396 0.0537 3.0922 0.0841 3.228 0.0557 0.24866 0.4747 0.49377 1.0524 0.61563 0.22819 0.0481 0.2981 0.12595 0.2981 0.33183v0.26893h-4.4444v-0.26972c0-0.2325 0.0621-0.27965 0.45009-0.34169 0.93218-0.14906 1.0016-0.4349 0.93737-3.8568-0.0501-2.6686-0.11037-2.9552-0.73064-3.4772-0.28125-0.23666-0.45727-0.29304-0.91485-0.29304-0.69928 0-1.5822 0.41102-1.9672 0.91574l-0.26797 0.35132v2.8654c0 3.247-2e-3 3.2391 0.80952 3.4434 0.41783 0.1052 0.49129 0.16398 0.49129 0.39314v0.26944h-4.336v-0.2594c0-0.27564 0.17852-0.391 0.60507-0.391 0.14417 0 0.35969-0.0976 0.47893-0.2168 0.20613-0.20612 0.21668-0.35963 0.21442-3.1165-2e-3 -3.1948-0.0581-3.5119-0.70322-4.0193-0.68396-0.53801-2.1568-0.1623-2.864 0.73057l-0.34316 0.43328 0.03224 2.8331c0.03216 2.8232 0.03315 2.8338 0.28642 3.0388 0.13979 0.11311 0.44467 0.25696 0.6775 0.31965 0.34666 0.0933 0.42334 0.16233 0.42334 0.38082v0.26682h-4.336zm17.046-6.7529c0.1628-0.0426 0.1897-0.18681 0.1897-1.0172 0-0.95902-2e-3 -0.96765-0.27008-0.96765-0.15268 0-0.32893 0.0942-0.40547 0.21679-0.18346 0.29377-0.30005 0.27271-0.30005-0.0542v-0.27101h2.3848v0.27101c0 0.3269-0.11659 0.34796-0.30005 0.0542-0.0765-0.12256-0.25279-0.21679-0.40547-0.21679-0.26674 0-0.27009 0.0114-0.27009 0.92489 0 0.85784 0.0177 0.93201 0.24391 1.0229 0.18423 0.074 0.0848 0.0966-0.4065 0.0923-0.35773-3e-3 -0.56504-0.028-0.46071-0.0553zm2.2222-0.0371c0.22467-0.0903 0.2439-0.16697 0.2439-0.97222s-0.0192-0.88192-0.2439-0.97223c-0.1975-0.0794-0.14466-0.0993 0.27775-0.1049l0.52166-7e-3 0.36455 0.7859 0.36456 0.7859 0.72078-1.5631 0.4878 2e-3c0.39972 2e-3 0.44376 0.0202 0.2439 0.10056-0.22187 0.0892-0.24375 0.16934-0.24224 0.88743 2e-3 0.82075 0.0508 0.98595 0.32354 1.0898 0.0894 0.034-0.13008 0.0626-0.4878 0.0636-0.49412 1e-3 -0.59179-0.0219-0.4065-0.0963 0.22411-0.0901 0.24362-0.16651 0.24045-0.94163-4e-3 -0.97584-0.0749-0.94804-0.60418 0.23679-0.17257 0.38631-0.34827 0.7037-0.39042 0.7053-0.0422 2e-3 -0.26964-0.39952-0.5055-0.89138l-0.42884-0.8943-9e-3 0.84359c-9e-3 0.77787 0.01 0.85123 0.2345 0.94163 0.18939 0.0761 0.11066 0.098-0.35231 0.098s-0.5417-0.0219-0.3523-0.098zm-66.992-7.2147c-0.04446-0.0445-0.08083-0.341-0.08083-0.65897v-0.57813l2.3035-2e-3c2.5702-2e-3 2.9057-0.0748 3.4704-0.74593 0.59667-0.7091 0.61089-1.5832 0.03798-2.3343-0.411-0.53884-0.8779-0.71134-1.9259-0.71154-0.64736-1.2e-4 -1.0108-0.0541-1.2767-0.1897-1.0357-0.52809-1.135-1.8726-0.18969-2.5666 0.28746-0.21103 0.44918-0.2245 2.6949-0.2245h2.3891l0.01508 0.62126 0.01509 0.62125-2.2222 0.0291c-1.8901 0.0248-2.2222 0.0534-2.2222 0.19175 0 0.12972 0.2192 0.17465 1.084 0.2222 0.92676 0.051 1.1683 0.10549 1.6649 0.37595 1.108 0.60342 1.6422 1.5358 1.6402 2.8629-0.0019 1.2601-0.65622 2.2614-1.8411 2.8172-0.57733 0.27084-0.67668 0.28117-3.0363 0.31567-1.3417 0.0196-2.4758-8.2e-4 -2.5203-0.0452zm10.34-0.0647c-0.62615-0.10778-1.0163-0.34139-1.5136-0.90635-0.63002-0.71574-0.69392-1.1304-0.65077-4.2226 0.03378-2.4207 0.05257-2.6318 0.27028-3.0352 0.3063-0.56763 0.7364-0.96559 1.3378-1.2378 0.44666-0.20219 0.70719-0.22103 3.0894-0.22339l2.6016-2e-3 -0.07346 1.3012h-2.5232c-3.5498 0-3.4196-0.13504-3.4196 3.5464 0 3.6892-0.07992 3.608 3.5484 3.608h2.4136v1.1842l-2.3247 0.0312c-1.2786 0.0172-2.5187-2e-3 -2.7559-0.043zm10.709 0.02-3.2066-0.0542-0.53029-0.32806c-0.32805-0.20295-0.65541-0.53031-0.85836-0.85836l-0.32807-0.53029-0.03381-2.8062c-0.03918-3.252 0.01373-3.5476 0.76731-4.2864 0.73652-0.7221 1.0438-0.78409 3.8871-0.78409h2.4796v1.3008h-5.0119l-0.8417 0.8417 4.51e-4 2.6415c3.25e-4 2.3932 0.01954 2.6728 0.204 2.9753 0.36059 0.59138 0.75982 0.69593 2.6575 0.69593h1.6909v-3.794h-2.4932v-1.3008h3.7903l0.02896 2.7371 0.02896 2.7371 1.3434-3.9566c0.73889-2.1761 1.4381-4.0919 1.5538-4.2572 0.71152-1.0164 2.7101-1.0164 3.4186 0 0.14679 0.21056 3.1691 8.8533 3.1691 9.0624 0 0.0102-1.2195 0.0185-2.71 0.0185h-2.71v-1.2466h1.7886c1.4076 0 1.7886-0.0304 1.7886-0.14284 0-0.0786-0.16351-0.60294-0.36335-1.1653s-0.71812-2.0895-1.1517-3.3937c-0.4336-1.3042-0.87985-2.4627-0.99165-2.5745-0.25739-0.25739-0.7949-0.26206-1.0479-9e-3 -0.1068 0.10679-0.8205 2.0458-1.586 4.3089-0.76551 2.2631-1.422 4.1391-1.4589 4.1689-0.0369 0.0298-1.5101 0.0298-3.2737 0zm3.7572-0.1084c0.03592-0.0894 0.67144-1.9407 1.4123-4.1139 1.1903-3.4919 1.4451-4.1212 1.6685-4.1212 0.21852 0 0.44365 0.53597 1.4053 3.3458 0.59833 1.7482 1.0879 3.222 1.0879 3.2751 0 0.0531-0.68292 0.0966-1.5176 0.0966h-1.5176v-0.56007c0-0.30804-0.03659-0.52415-0.0813-0.48025-0.04472 0.0439-0.27803 0.66653-0.51847 1.3836l-0.43717 1.3038-0.78359 0.0165c-0.65736 0.0139-0.77307-0.01-0.71828-0.14604zm3.5927-2.9739c0.04615-0.0368-0.44812-1.4705-0.50695-1.4705-0.03257 0-0.1536 0.29538-0.26895 0.6564-0.11535 0.36102-0.24949 0.68097-0.29808 0.711-0.23764 0.14687-0.03185 0.2216 0.48076 0.17457 0.313-0.0287 0.57996-0.0609 0.59322-0.0714zm-28.479 0.80589v-0.65041h2.2764c1.9382 0 2.2764-0.0238 2.2764-0.16053 0-0.1994-0.24231-0.25154-1.4092-0.30322-1.0592-0.0469-1.5572-0.25365-2.1898-0.90916-1.2541-1.2995-1.1648-3.3788 0.19645-4.5771 0.79897-0.70328 1.1437-0.77079 3.9367-0.77087l2.4468-7e-5 -0.02926 1.2467-2.4786 0.0542c-2.6518 0.058-2.7367 0.0752-3.2228 0.65289-0.6431 0.76429-0.58821 1.78 0.1353 2.5035 0.46736 0.46736 0.93456 0.61017 2.0724 0.63347 0.94806 0.0194 1.3381 0.20011 1.6472 0.76299 0.37142 0.67651 0.1133 1.5234-0.59617 1.956-0.31527 0.19223-0.55838 0.21126-2.7041 0.21163l-2.3577 4e-4zm10.29 0.33354c-0.31027-0.31028-0.31686-0.34071-0.31686-1.4634v-1.1465h4.5528v1.1924h-1.634c-1.4978 0-1.6309 0.0158-1.5975 0.1897 0.03297 0.17159 0.23555 0.19251 2.1218 0.21914l2.0853 0.0294v1.2961h-4.8947zm8.0842 0.19168c-0.47467-0.25962-0.4878-0.34235-0.4878-3.0744v-2.6162l0.2795-0.2628c0.27623-0.25972 0.30792-0.26318 2.71-0.29566l2.4305-0.0329v1.3123h-1.9837c-1.3984 0-2.0221 0.0384-2.1138 0.13009-0.08969 0.0897-0.13008 0.63836-0.13008 1.7669 0 1.1286 0.04039 1.6772 0.13008 1.7669 0.07154 0.0716 0.33984 0.13008 0.5962 0.13008 0.39385 0 0.46612-0.0336 0.46612-0.21679 0-0.17551-0.07227-0.21681-0.3794-0.21681h-0.3794v-1.1924h2.0596v2.9268l-1.4905-3e-3c-0.86805-2e-3 -1.581-0.0528-1.7073-0.12188zm-8.401-4.4216c0-1.0975 0.01958-1.2091 0.26143-1.4905l0.26143-0.30415 4.9857-0.0654 0.07402 1.308-2.1124 0.0291c-1.9122 0.0263-2.1159 0.0471-2.1489 0.21879-0.03342 0.1739 0.09973 0.18971 1.5975 0.18971h1.634v1.3008h-4.5528zm21.734-2.4933c-0.67343-0.27563-0.87362-1.187-0.37111-1.6895 0.1509-0.15089 0.45337-0.30341 0.67216-0.33891 0.35184-0.0571 0.44196-0.0204 0.78008 0.31772 0.5145 0.5145 0.51854 0.93978 0.01372 1.4446-0.36995 0.36995-0.66555 0.44179-1.0948 0.26608zm0.74361-0.15519c0.47765-0.19957 0.69231-0.69447 0.50128-1.1557-0.37907-0.91516-1.7327-0.65786-1.7327 0.32934 0 0.45724 0.3159 0.81938 0.84358 0.96704 0.01682 5e-3 0.19134-0.0586 0.38783-0.14071zm-0.79781-0.81473c0-0.57736 0.13604-0.71361 0.59697-0.59792 0.332 0.0833 0.42814 0.35194 0.21158 0.59123-0.11399 0.12596-0.13321 0.21451-0.05681 0.26173 0.0635 0.0392 0.1129 0.12945 0.10978 0.20046-0.0031 0.071-0.08225 0.0193-0.17582-0.1148-0.21086-0.30229-0.46889-0.3172-0.46889-0.0271 0 0.11924-0.04878 0.2168-0.1084 0.2168s-0.1084-0.23868-0.1084-0.5304zm0.73854-0.2555c0.02685-0.14089-0.03562-0.1897-0.24279-0.1897-0.20981 0-0.27895 0.0556-0.27895 0.22434 0 0.17039 0.05839 0.21601 0.24279 0.1897 0.13354-0.0191 0.25906-0.12001 0.27895-0.22434z" fill="#fff" stroke-width=".1084"/>
 <style type="text/css">.st0{fill:#FC0C18;}
	.st1{fill:#FC0C18;}</style>
</svg>
