<svg width="480" height="320" version="1.1" viewBox="0 0 480 320" xml:space="preserve" xmlns="http://www.w3.org/2000/svg"><defs><linearGradient id="a" x1="64.19" x2="64.19" y1="-29.291" y2="45.636" gradientTransform="scale(3.7795)" gradientUnits="userSpaceOnUse"><stop stop-color="#ed5353" offset="0"/><stop stop-color="#a10705" offset="1"/></linearGradient></defs><rect width="480" height="320" ry="24" fill="url(#a)"/><path d="m289.77 102.34c-4.4792 0-8.1981 2.9374-9.2814 6.9582l-11.292 33.094v-24.281h-17.01v6.0311h11.135v16.396h-13.917c-3.4062 0-6.0313-2.7813-6.0313-6.0313v-19.333c0-3.4062 2.7813-6.0313 6.0313-6.0313h19.948v-6.0311h-20.104c-6.6458 0-12.063 5.4166-12.063 12.062v19.333c0 6.6458 5.4168 12.063 12.063 12.063h24.896l12.531-36.344c0.46875-1.3958 1.698-2.3228 3.2501-2.3228 1.5417 0 2.7812 0.92696 3.2499 2.3228l10.208 30.312h-16.094v6.0313h24.438l-12.531-37.115c-1.2292-4.0208-4.9479-7.1144-9.4271-7.1144zm-109.97 0.77087c-7.8854 0-14.229 6.3437-14.229 14.229s6.3438 14.229 14.229 14.229h4.9479c0.46875 0 0.77083 0.31255 0.77083 0.77088s-0.30208 0.78125-0.61458 0.78125h-19.333v6.0313h19.333c3.7082 0 6.8021-3.0938 6.8021-6.8022 0-3.7083-3.0938-6.8022-6.8021-6.8022h-4.9479c-4.4896 0-8.1979-3.7082-8.1979-8.1978 0-4.4896 3.7083-8.1978 8.1979-8.1978h19.177v-6.0417zm34.333 0c-6.6458 0-12.062 5.4166-12.062 12.062v19.333c0 6.6458 5.4166 12.063 12.062 12.063h20.729v-6.0313h-20.729c-3.4062 0-6.0311-2.7813-6.0311-6.0313v-19.333c0-3.4062 2.7811-6.0313 6.0311-6.0313h20.729v-6.0311zm75.781 6.1873c-0.77083 0-1.5416 0.61463-1.8541 1.2396l-12.375 36.031h7.1146l4.3333-12.833v5.4167h14.229l-9.5938-28.458c-0.3125-0.77083-0.92717-1.3959-1.8542-1.3959zm-110.11 1.2396c-3.7083 0-6.802 3.0938-6.802 6.8022s3.0937 6.802 6.802 6.802h4.9479c4.4895 0 8.198 3.7085 8.198 8.198 0 4.4896-3.7085 8.1978-8.198 8.1978h-19.177v6.0313h19.333c7.8853 0 14.229-6.3437 14.229-14.229s-6.3438-14.229-14.229-14.229h-4.9479c-0.46875 0-0.77092-0.31254-0.77092-0.77087 0-0.3125 0.31259-0.61463 0.61467-0.61463h19.333v-6.1875zm34.333 0c-2.625 0-4.6354 2.0104-4.6354 4.6354v8.9687h21.031v-6.0311h-15c0-0.77083 0.61458-1.3959 1.3958-1.3959h17.781v-6.1772zm35.115 0c-2.625 0-4.6354 2.0104-4.6354 4.6354v19.333c0 2.625 2.0104 4.6354 4.6354 4.6354h12.521v-13.604h-9.5833v6.0313h3.5521v1.3959h-3.5521c-0.77084 0-1.3958-0.61463-1.3958-1.3959v-13.604c0-0.77083 0.61459-1.3959 1.3958-1.3959h17.167v-6.0313zm-39.75 15.156v8.9687c0 2.625 2.0104 4.6354 4.6354 4.6354h20.729v-6.0311h-17.937c-0.78125-0.14583-1.3958-0.77091-1.3958-1.5418h15v-6.0313zm80.271 0.45838 2.0103 6.1875h-4.1771zm-33.185 27.472c-7.6798 0.0979-13.887 5.5689-14.2 12.966-0.19783 6.7396 2.9479 11.615 10.583 13.729l12.896 3.5313c3.9688 1.1562 6.6041 3.9167 6.9895 7.9584 0.64584 5.5208-4.4271 9.625-10.198 10.01-8.6042 0.58333-15.531-5.323-17.458-13.667l-0.70833-3.2707h-3.0208v19.375h2.8855l3.0208-4.6875 3.2707 2.1145c4.1771 2.8854 10.656 3.7187 15.083 2.8229 6.9271-1.4062 12.26-5.7083 12.469-13.281 0.0625-6.8021-3.0207-12.896-9.6248-14.76l-14.698-4.1042c-4.1042-1.0938-6.8645-4.9479-6.1562-9.177 0.70833-4.2292 5.1353-6.4168 8.9166-6.5418 7.6979-0.38542 13.219 5.0627 15.396 12.511l0.83333 2.6978h2.948l-0.70842-17.708h-2.5625l-2.6354 4.2397-2.5-1.8646c-3.3333-2.3125-6.0938-2.7603-10.073-2.8853-0.25058-8e-3 -0.49992-0.0107-0.74767-7e-3zm-216.34 0.32003v3.2707l4.75-0.0625c0.90625 0 1.6771 0.125 2.25 0.83334 0.51042 0.63541 0.51042 1.2189 0.51042 2.0522v34.146c0 1.7292-0.25 3.0209-1.3438 4.3646-1.2918 1.4688-2.6355 1.9897-4.6251 2.1147l-1.7916 0.12491v3.2084h19.187v-3.146l-1.8644-0.12492c-1.9896-0.0625-3.4689-0.57304-4.7502-2.0522-1.0938-1.3542-1.2812-2.6352-1.2812-4.3644v-36.573l16.302 46.261h2.5l15.406-46.073v39.792c0 0.83333-0.07333 1.4791-0.64592 2.052-0.57292 0.70833-1.2187 1.0313-2.1145 1.0313h-4.7502v3.2084h22.604v-3.146h-3.8542c-1.0312 0-1.8645 1.2e-4 -2.6353-0.70821-0.57292-0.52084-0.83333-1.0938-0.83333-1.8646v-38.438c0-0.83333 0.31242-1.4791 0.95833-2.052 0.77083-0.63541 1.6041-0.51046 2.5624-0.51046v-0.0104h4.0418v-3.2084h-17.469l-12.448 37.219-13.406-37.344zm126.08 4.8124v1.4166c0 1.6042-0.77083 4.9375-1.9271 7.7604s-3.7813 3.9166-6.8647 4.4895v3.0208h5.4584v22.781c0 3.9167 3.6562 6.4167 7.5103 6.8646 4.7233 0.57123 8.9352-2.6756 10.264-7.4996 2.4222 4.2754 6.7363 6.9568 11.997 7.2392 5.9062 0.38542 10.656-1.8542 13.604-6.9271l1.3542-2.323-2.4373-1.4062-1.0938 1.9895c-2.0521 3.6562-5.4584 5.3959-9.6251 5.1355-5.3958-0.32291-9.0521-5.0105-9.0521-10.333v-2.5624h22.01l-0.18758-3.9791c-0.26042-6.7396-5.8438-12.583-12.323-13.094-9.8229-0.83333-16.24 8.021-16.364 17.261-0.0225 1.0673 0.0392 2.0952 0.17291 3.0833h-0.24583v1.6667c0 4.3021-1.9897 7.823-5.3855 7.698-2.8229-0.0625-4.1667-2.0521-4.1667-4.4271v-21.24h10.198v-2.8853h-10.01v-13.729zm176.52 0v1.4166c0 1.6042-0.77075 4.9375-1.9271 7.7604-1.1562 2.8229-3.7812 3.9166-6.8646 4.4895v3.0208h5.448v22.781c0 3.9167 3.6562 6.4167 7.5103 6.8646 4.7333 0.57141 8.9408-2.6778 10.271-7.5043 2.4218 4.2781 6.7372 6.9614 11.999 7.2438 5.9062 0.38542 10.656-1.8542 13.604-6.9271l1.3542-2.323-2.4376-1.4062-1.0938 1.9895c-2.0521 3.6562-5.4583 5.3959-9.625 5.1355-5.3958-0.32291-9.0521-5.0105-9.0521-10.333v-2.5624h22.01l-0.1875-3.9791c-0.26042-6.7396-5.8437-12.583-12.323-13.094-9.8229-0.83333-16.24 8.021-16.365 17.261-0.0225 1.0673 0.0392 2.0952 0.17316 3.0833h-0.246v1.6667c0 4.3021-1.9895 7.823-5.3853 7.698-2.8229-0.0625-4.1667-2.0521-4.1667-4.4271v-21.24h10.198v-2.8853h-10.01v-13.729zm-198.96 12.406c-4.9374-0.0625-9.75 3.4583-9.625 9.75 0.0625 5.3854 2.2501 7.5001 7.8959 8.9793l8.5311 2.1771c2.25 0.51041 3.5938 2.2395 3.8542 4.552 0.19791 3.2812-2.8853 5.2709-6.5416 5.4584-5.3958 0.32292-9.3125-3.271-11.042-8.4064l-0.77084-2.1875h-2.3751v8.4658c-0.8975 0.14868-2.7268 1.3298-4.2708 0.25309-1.0938-0.70833-1.2187-1.8647-1.2187-3.2084v-17.448c0-5.9687-6.9896-8.5417-13.021-8.2812-6.0312 0.1875-13.479 3.4063-12.385 9.625 0.32283 1.8542 1.9271 3.073 3.8542 2.948 1.802-0.0625 3.5313-1.1564 3.4688-3.146-0.0625-2.1771-1.3438-2.8855-1.3438-4.1042-0.0625-1.6771 3.3438-2.375 5.8438-2.25l2.0522 0.0625c1.0312 0.0625 2.8853 0.44792 3.9791 1.6667 0.96875 1.0208 1.4167 1.9271 1.4167 3.2709v5.073l-3.8542 0.64575c-8.1562 1.2812-17.844 4.6147-17.583 12.063 0.26041 5.5833 5.9688 8.2811 11.104 7.6353 2.8854-0.38541 5.9688-1.2188 8.8542-3.5313l1.9271-1.604c0.44792 2.7604 2.5 4.6875 5.3854 5.0104 1.898 0.12698 4.5258-0.85848 5.7916-2.1741v2.049h2.1147l2.5-2.8853 1.7916 1.2813c2.5 1.7292 7.3127 2.177 10.073 1.7291 4.8125-0.95834 8.1459-5 8.2188-9.6458 0-4.5625-2.5-8.5418-6.9271-9.5001l-8.9792-1.9895c-2.375-0.51042-4.4376-1.1563-4.6251-4.1042-0.19792-2.9479 2.9481-5.5208 5.3231-5.5833 4.6875-0.0625 8.2188 2.5625 9.9479 6.9271l0.83333 2.1147 2.5 0.12492-0.12508-11.49h-1.9896l-2.1147 2.4375-1.9895-1.2187c-2.2396-1.2812-3.9792-1.4792-6.4792-1.5418zm176.5 0c-4.9375-0.0625-9.7501 3.4583-9.6251 9.75 0.0733 5.3854 2.2499 7.5001 7.8958 8.9793l8.5313 2.1771c2.2499 0.51041 3.5938 2.2395 3.8542 4.552 0.19792 3.2812-2.8853 5.2709-6.5416 5.4584-5.3854 0.32292-9.3022-3.271-11.031-8.4064l-0.77083-2.1875h-2.3751v13.021h2.1147l2.5-2.8853 1.7916 1.2813c2.5 1.7292 7.3126 2.177 10.073 1.7291 4.8126-0.95834 8.1458-5 8.2082-9.6458 0-4.5625-2.5-8.5418-6.9271-9.5001l-8.9791-1.9895c-2.375-0.51042-4.4271-1.1563-4.625-4.1042-0.19792-2.9479 2.9478-5.5208 5.3228-5.5833 4.6875-0.0625 8.2188 2.5625 9.9479 6.9271l0.83333 2.1147 2.5 0.12491-0.12491-11.49h-1.9896l-2.1146 2.4375-1.9896-1.2187c-2.2396-1.2812-3.9791-1.4792-6.4791-1.5418zm-91.764 0.12452c-3.6167-0.12219-7.5395 2.6008-9.4444 7.0943l-1.2187 2.8853v-8.9791l-12.51 0.64575v3.0208h3.0208c1.0208 0 1.8542 0 2.5 0.57292 0.95834 0.77083 0.83334 1.8646 0.83334 3.0833v19.25c0 0.69792 8e-5 1.1562-0.32284 1.7291-0.44791 0.63541-1.0209 0.89579-1.7918 0.89579h-3.5938v2.5h17.646v-2.4373h-2.948c-0.89584 0-1.6666 0.12492-2.3124-0.448-0.57292-0.57291-0.51042-1.2187-0.51042-1.9895v-5.1355c0-0.38541-8e-5 -6.2812 1.4166-9.75 1.8542-4.6146 3.146-9.0417 8.0835-9.6875l0.51025-0.12491c-1.2188 0.95833-1.3436 2.1146-1.3436 3.5938 0 1.9896 1.8646 3.3333 3.8542 3.3333 2.5104 0 3.9791-2.6251 3.8228-5.073-0.0625-2.5-1.7917-4.177-4.1667-4.75-0.49742-0.13672-1.0078-0.21224-1.5244-0.22969zm176.4 0.0679c-3.4092-0.0639-6.367 1.2268-8.7823 4.0887l-1.5418 1.6667 0.0625-4.75-11.875 0.77087v2.8229h2.5624c0.95842 0 1.7292-0.0729 2.5 0.57291 0.89592 0.77084 0.70825 1.8646 0.70825 3.0833v19.26c0 0.69792 0.125 1.1562-0.26041 1.7291-0.38542 0.63541-0.95825 0.896-1.7291 0.896h-3.4687v2.5h16.937v-2.4375h-2.5c-0.90625 0-1.7395 0.12487-2.2499-0.64596-0.44792-0.51042-0.448-1.0832-0.448-1.7916v-14.052c0-5.0104 4.4272-10.844 9.0521-9.4999 2.9479 0.89584 4.4896 3.5207 4.4896 6.5415v16.834c0 0.77084 0.12492 1.4791-0.448 1.9896-0.44791 0.51041-1.0208 0.57291-1.7916 0.57291h-3.0208v2.5h16.687v-2.3751h-2.7604c-0.69792 0-1.2812 1.2e-4 -1.7916-0.44779-0.70833-0.64584-0.64575-1.4168-0.64575-2.3126v-13.542c0-5.3333 4.5521-11.552 10.01-9.4999 2.8855 1.0833 3.5313 4.2291 3.5313 7.3124v16.115c0 0.69792 0.0625 1.2187-0.3855 1.7291-0.448 0.63542-1.1563 0.51046-1.8647 0.51046h-2.9478v2.4894h16.938v-2.3749h-2.948c-0.83333 0-1.6041 0.0729-2.1145-0.57292-0.38533-0.44791-0.3855-0.90637-0.3855-1.4793v-17c0-5.5833-3.7812-10.906-9.302-10.969-3.9167-0.0625-7.1249 1.4063-9.177 4.0418l-2.1772 2.7604c-1.0832-3.7812-3.6563-6.4167-7.375-6.9271-0.50525-0.0638-1.0014-0.10052-1.4885-0.10965zm-106.01 0.81809v2.3749h1.9895c0.83333 0 1.6043 0.0625 2.2502 0.77087 0.90625 0.89583 0.32291 3.0834 0.26041 3.2709l-6.9898 17.073-7.7604-18.479c-0.26042-0.64584-0.32275-1.2812 0.0625-1.9271 0.52083-0.69791 1.3542-0.57291 2.2499-0.57291h1.9896v-2.5h-15.844v2.3749h1.9271c0.64583 0 1.0313 0.1875 1.6042 0.57292 0.58333 0.44791 0.83333 0.89587 1.0938 1.6042l11.417 26.562-1.0938 2.1771c-0.0997 0.19933-0.27683 0.54988-0.41725 0.83333h-251.76v2.7083h237.49c-0.67542 0.47351-1.1738 1.1648-1.3623 2.0416-0.83333 3.9688 1.9271 5.646 3.8542 6.2189 5.436 1.5556 10.01-1.7704 13.657-8.2605h146.36v-2.7083h-144.98c0.2065-0.44305 0.41192-0.88968 0.61159-1.3542l11.354-26.177c0.52084-1.2187 0.70834-1.9895 1.8646-2.9478 0.44791-0.38542 1.9896-1.2189 2.5625-1.2189h1.0105v-2.4373zm-105.54 1.686c0.31166 7e-3 0.63191 0.0412 0.96075 0.10559 3.6562 0.70834 5.9688 3.9792 5.9688 8.0208v1.4062c0 0.63541-9e-5 1.2188-0.3855 1.6667-0.44792 0.58334-1.0208 0.64575-1.7291 0.64575h-12.708l0.1875-1.9271c0.30275-3.9062 3.0316-10.019 7.7059-9.918zm176.52 0c0.31166 7e-3 0.63175 0.0412 0.9605 0.10559 3.6562 0.70834 5.9688 3.9792 5.9688 8.0208v1.4062c0 0.63541 8e-5 1.2188-0.38533 1.6667-0.44792 0.58334-1.021 0.64575-1.7293 0.64575h-12.708l0.18758-1.9271c0.30275-3.9062 3.0318-10.019 7.7061-9.918zm-247.74 13.137v5.9585c0 4.3646-3.5937 7.6979-7.6353 8.3437-5.0104 0.83333-7.3854-2.1771-7.125-5.7709 0.32291-4.0416 4.4896-6.4167 8.0833-7.1875zm160.07 22.021h7.9496c-1.0168 1.6716-2.3672 3.5061-4.073 4.802-1.0938 0.83333-2.6978 1.1562-3.2082 0.32287-0.32292-0.70833 0.83317-1.6041 0.51025-3.1458-0.18675-0.90345-0.6045-1.5454-1.1786-1.9792z" fill="#fff"/></svg>
