<?xml version="1.0" encoding="UTF-8" standalone="no"?>
<!-- Created with Inkscape (http://www.inkscape.org/) -->

<svg
   width="480"
   height="320"
   viewBox="0 0 127 84.666667"
   version="1.1"
   id="svg1543"
   inkscape:export-filename="/home/vitor/Dev/es-theme-material-tv-3-2/assets/logo/mastersystem.png"
   inkscape:export-xdpi="96"
   inkscape:export-ydpi="96"
   inkscape:version="1.1.1 (3bf5ae0d25, 2021-09-20)"
   sodipodi:docname="mastersystem.svg"
   xmlns:inkscape="http://www.inkscape.org/namespaces/inkscape"
   xmlns:sodipodi="http://sodipodi.sourceforge.net/DTD/sodipodi-0.dtd"
   xmlns:xlink="http://www.w3.org/1999/xlink"
   xmlns="http://www.w3.org/2000/svg"
   xmlns:svg="http://www.w3.org/2000/svg">
  <sodipodi:namedview
     id="namedview1545"
     pagecolor="#505050"
     bordercolor="#eeeeee"
     borderopacity="1"
     inkscape:pageshadow="0"
     inkscape:pageopacity="0"
     inkscape:pagecheckerboard="0"
     inkscape:document-units="px"
     showgrid="false"
     units="px"
     width="640px"
     inkscape:snap-page="true"
     showguides="true"
     inkscape:guide-bbox="true"
     inkscape:zoom="1"
     inkscape:cx="159"
     inkscape:cy="257"
     inkscape:window-width="1920"
     inkscape:window-height="1019"
     inkscape:window-x="0"
     inkscape:window-y="30"
     inkscape:window-maximized="1"
     inkscape:current-layer="layer1">
    <sodipodi:guide
       position="10.583333,76.729167"
       orientation="-1,0"
       id="guide2978"
       inkscape:label=""
       inkscape:locked="false"
       inkscape:color="rgb(0,0,255)" />
    <sodipodi:guide
       position="116.41667,7.9375"
       orientation="-1,0"
       id="guide2980"
       inkscape:label=""
       inkscape:locked="false"
       inkscape:color="rgb(0,0,255)" />
    <sodipodi:guide
       position="10.583333,71.4375"
       orientation="0,1"
       id="guide2982"
       inkscape:label=""
       inkscape:locked="false"
       inkscape:color="rgb(0,0,255)" />
    <sodipodi:guide
       position="116.41667,13.229167"
       orientation="0,1"
       id="guide2984"
       inkscape:label=""
       inkscape:locked="false"
       inkscape:color="rgb(0,0,255)" />
  </sodipodi:namedview>
  <defs
     id="defs1540">
    <linearGradient
       inkscape:collect="always"
       id="linearGradient2856">
      <stop
         style="stop-color:#ed5353;stop-opacity:1"
         offset="0"
         id="stop2852" />
      <stop
         style="stop-color:#a10705;stop-opacity:1"
         offset="1"
         id="stop2854" />
    </linearGradient>
    <linearGradient
       inkscape:collect="always"
       xlink:href="#linearGradient2856"
       id="linearGradient2858"
       x1="64.189682"
       y1="-29.291231"
       x2="64.189682"
       y2="45.636032"
       gradientUnits="userSpaceOnUse" />
    <clipPath
       id="clip1">
      <path
         d="m 249,0 h 75 v 124.51172 h -75 z m 0,0"
         id="path2" />
    </clipPath>
    <clipPath
       id="clip2">
      <path
         d="m 421,0 h 90 v 124.51172 h -90 z m 0,0"
         id="path5" />
    </clipPath>
    <clipPath
       id="clip3">
      <path
         d="m 513,0 h 28 v 124.51172 h -28 z m 0,0"
         id="path8" />
    </clipPath>
    <clipPath
       id="clip4">
      <path
         d="m 659,4 h 86.87109 V 124 H 659 Z m 0,0"
         id="path11" />
    </clipPath>
    <marker
       id="DefaultArrow2"
       markerUnits="strokeWidth"
       viewBox="0 0 1 1"
       markerWidth="1"
       markerHeight="1"
       overflow="visible"
       orient="auto">
      <!-- REF_ARROW_STRAIGHT (-2) -->
      <g
         transform="scale(0.0092592592)"
         id="g8989">
        <!-- 1/108 -->
        <path
           d="M -9 54 L -9 -54 L 117 0 z"
           id="path8987" />
      </g>
    </marker>
    <marker
       id="DefaultArrow3"
       markerUnits="strokeWidth"
       viewBox="0 0 1 1"
       markerWidth="1"
       markerHeight="1"
       overflow="visible"
       orient="auto">
      <!-- REF_ARROW_ANGLED -->
      <g
         transform="scale(0.0092592592)"
         id="g8994">
        <path
           d="M -27 54 L -9 0 L -27 -54 L 135 0 z"
           id="path8992" />
      </g>
    </marker>
    <marker
       id="DefaultArrow4"
       markerUnits="strokeWidth"
       viewBox="0 0 1 1"
       markerWidth="1"
       markerHeight="1"
       overflow="visible"
       orient="auto">
      <!-- REF_ARROW_ROUNDED -->
      <g
         transform="scale(0.0092592592)"
         id="g8999">
        <path
           d="M -9,0 L -9,-45 C -9,-51.708 2.808,-56.580 9,-54 L 117,-9 C 120.916,-7.369 126.000,-4.242 126,0 C 126,4.242 120.916,7.369 117,9 L 9,54 C 2.808,56.580 -9,51.708 -9,45 z"
           id="path8997" />
      </g>
    </marker>
    <marker
       id="DefaultArrow5"
       markerUnits="strokeWidth"
       viewBox="0 0 1 1"
       markerWidth="1"
       markerHeight="1"
       overflow="visible"
       orient="auto">
      <!-- REF_ARROW_SPOT -->
      <g
         transform="scale(0.0092592592)"
         id="g9004">
        <path
           d="M -54, 0 C -54,29.807 -29.807,54 0,54 C 29.807,54 54,29.807 54,0 C 54,-29.807 29.807,-54 0,-54 C -29.807,-54 -54,-29.807 -54,0 z"
           id="path9002" />
      </g>
    </marker>
    <marker
       id="DefaultArrow6"
       markerUnits="strokeWidth"
       viewBox="0 0 1 1"
       markerWidth="1"
       markerHeight="1"
       overflow="visible"
       orient="auto">
      <!-- REF_ARROW_DIAMOND -->
      <g
         transform="scale(0.0092592592)"
         id="g9009">
        <path
           d="M -63,0 L 0,63 L 63,0 L 0,-63 z"
           id="path9007" />
      </g>
    </marker>
    <marker
       id="DefaultArrow7"
       markerUnits="strokeWidth"
       viewBox="0 0 1 1"
       markerWidth="1"
       markerHeight="1"
       overflow="visible"
       orient="auto">
      <!-- REF_ARROW_FEATHER -->
      <g
         transform="scale(0.0092592592)"
         id="g9014">
        <path
           d="M 18,-54 L 108,-54 L 63,0 L 108,54 L 18, 54 L -36,0 z"
           id="path9012" />
      </g>
    </marker>
    <marker
       id="DefaultArrow8"
       markerUnits="strokeWidth"
       viewBox="0 0 1 1"
       markerWidth="1"
       markerHeight="1"
       overflow="visible"
       orient="auto">
      <!-- REF_ARROW_FEATHER2 -->
      <g
         transform="scale(0.0092592592)"
         id="g9019">
        <path
           d="M -36,0 L 18,-54 L 54,-54 L 18,-18 L 27,-18 L 63,-54 L 99,-54 L 63,-18 L 72,-18 L 108,-54 L 144,-54 L 90,0 L 144,54 L 108,54 L 72,18 L 63,18 L 99,54 L 63,54 L 27,18 L 18,18 L 54,54 L 18,54 z"
           id="path9017" />
      </g>
    </marker>
    <marker
       id="DefaultArrow9"
       markerUnits="strokeWidth"
       viewBox="0 0 1 1"
       markerWidth="1"
       markerHeight="1"
       overflow="visible"
       orient="auto">
      <!-- REF_ARROW_HOLLOWDIAMOND -->
      <g
         transform="scale(0.0092592592)"
         id="g9024">
        <path
           d="M 0,45 L -45,0 L 0, -45 L 45, 0 z M 0, 63 L-63, 0 L 0, -63 L 63, 0 z"
           id="path9022" />
      </g>
    </marker>
    <filter
       id="StainedFilter">
      <feBlend
         mode="multiply"
         in2="BackgroundImage"
         in="SourceGraphic"
         result="blend"
         id="feBlend9027" />
      <feComposite
         in="blend"
         in2="SourceAlpha"
         operator="in"
         result="comp"
         id="feComposite9029" />
    </filter>
    <filter
       id="BleachFilter">
      <feBlend
         mode="screen"
         in2="BackgroundImage"
         in="SourceGraphic"
         result="blend"
         id="feBlend9032" />
      <feComposite
         in="blend"
         in2="SourceAlpha"
         operator="in"
         result="comp"
         id="feComposite9034" />
    </filter>
    <filter
       id="InvertTransparencyBitmapFilter">
      <feComponentTransfer
         id="feComponentTransfer9043">
        <feFuncR
           type="gamma"
           amplitude="1.055"
           exponent=".416666666"
           offset="-0.055"
           id="feFuncR9037" />
        <feFuncG
           type="gamma"
           amplitude="1.055"
           exponent=".416666666"
           offset="-0.055"
           id="feFuncG9039" />
        <feFuncB
           type="gamma"
           amplitude="1.055"
           exponent=".416666666"
           offset="-0.055"
           id="feFuncB9041" />
      </feComponentTransfer>
      <feComponentTransfer
         id="feComponentTransfer9053">
        <feFuncR
           type="linear"
           slope="-1"
           intercept="1"
           id="feFuncR9045" />
        <feFuncG
           type="linear"
           slope="-1"
           intercept="1"
           id="feFuncG9047" />
        <feFuncB
           type="linear"
           slope="-1"
           intercept="1"
           id="feFuncB9049" />
        <feFuncA
           type="linear"
           slope="1"
           intercept="0"
           id="feFuncA9051" />
      </feComponentTransfer>
      <feComponentTransfer
         id="feComponentTransfer9061">
        <feFuncR
           type="gamma"
           amplitude="1"
           exponent="2.4"
           offset="0"
           id="feFuncR9055" />
        <feFuncG
           type="gamma"
           amplitude="1"
           exponent="2.4"
           offset="0"
           id="feFuncG9057" />
        <feFuncB
           type="gamma"
           amplitude="1"
           exponent="2.4"
           offset="0"
           id="feFuncB9059" />
      </feComponentTransfer>
    </filter>
    <inkscape:perspective
       sodipodi:type="inkscape:persp3d"
       inkscape:vp_x="0 : 526.18109 : 1"
       inkscape:vp_y="0 : 1000 : 0"
       inkscape:vp_z="744.09448 : 526.18109 : 1"
       inkscape:persp3d-origin="372.04724 : 350.78739 : 1"
       id="perspective10" />
    <inkscape:perspective
       id="perspective2824"
       inkscape:persp3d-origin="0.5 : 0.33333333 : 1"
       inkscape:vp_z="1 : 0.5 : 1"
       inkscape:vp_y="0 : 1000 : 0"
       inkscape:vp_x="0 : 0.5 : 1"
       sodipodi:type="inkscape:persp3d" />
  </defs>
  <g
     inkscape:label="Camada 1"
     inkscape:groupmode="layer"
     id="layer1">
    <rect
       style="opacity:1;fill:url(#linearGradient2858);fill-opacity:1;stroke-width:0.529167;stroke-linecap:square;stroke-linejoin:round;paint-order:stroke fill markers"
       id="rect1569"
       width="127"
       height="84.666664"
       x="0"
       y="0"
       ry="4.2333331"
       inkscape:export-filename="/home/vitor/Dev/es-theme-material-tv-3-2/assets/logo/fbn.png"
       inkscape:export-xdpi="96"
       inkscape:export-ydpi="96" />
    <path
       style="fill:#ffffff;stroke-width:0.1084"
       d="m 68.661457,56.69978 c -0.374926,-0.21105 -0.517625,-0.47929 -0.517625,-0.97301 0,-0.57057 0.423815,-0.97114 0.939038,-0.88753 0.449074,0.0729 0.61767,0.1982 1.029786,0.76548 l 0.306677,0.42214 0.369208,-0.39148 c 0.459925,-0.48766 1.453513,-2.1838 1.535907,-2.62192 0.06049,-0.32164 -0.129299,-0.82463 -2.392288,-6.3403 -0.281303,-0.68563 -0.587046,-1.37615 -0.67943,-1.53448 -0.177602,-0.3044 -0.856231,-0.74192 -1.150757,-0.74192 -0.126107,0 -0.174942,-0.10118 -0.174942,-0.36244 0,-0.7216 -0.617004,-2.16346 -1.219378,-2.84953 -1.051377,-1.19746 -3.16632,-1.21292 -3.949875,-0.0289 -0.502585,0.75945 -0.436929,1.89854 0.149609,2.59559 0.417451,0.49612 0.8816,0.75484 2.621804,1.46144 3.019949,1.22623 3.735691,2.00174 3.720225,4.03087 -0.0076,0.99862 -0.372912,1.85807 -1.086496,2.55622 -1.436947,1.40586 -3.695996,1.66375 -5.927824,0.67673 -0.342239,-0.15135 -0.63932,-0.27519 -0.66018,-0.27519 -0.02086,0 -0.113603,0.14634 -0.206096,0.3252 -0.129298,0.25004 -0.242211,0.3252 -0.488519,0.3252 -0.414149,0 -0.419274,-0.0276 -0.45671,-2.46615 l -0.03037,-1.97836 0.335142,6e-5 c 0.300651,4e-5 0.349151,0.0475 0.471264,0.46075 0.222315,0.75242 0.877199,1.9077 1.367181,2.41186 0.777273,0.79975 1.227169,0.97565 2.495537,0.97565 1.015931,0 1.12402,-0.0213 1.553212,-0.30528 0.5977,-0.39554 0.87233,-0.98872 0.875495,-1.89101 0.005,-1.43304 -0.621436,-2.12324 -2.634982,-2.90308 -2.656635,-1.02892 -3.574011,-1.71313 -3.927565,-2.92931 -0.271819,-0.93502 -0.175608,-2.02453 0.244841,-2.77263 1.083094,-1.92713 3.853328,-2.51294 5.991452,-1.26699 l 0.375966,0.21909 0.224307,-0.28131 c 0.157785,-0.19788 0.327579,-0.28131 0.572534,-0.28131 h 0.348229 v 1.9512 1.95121 h 1.680203 1.680203 v 0.31135 c 0,0.27767 -0.04537,0.3186 -0.419522,0.37843 -0.782372,0.1251 -0.785713,0.10288 0.488705,3.25117 0.64026,1.58168 1.197909,2.85489 1.239224,2.82936 0.09263,-0.0572 1.614664,-3.73402 1.961174,-4.73761 0.299942,-0.86871 0.243295,-1.02643 -0.462493,-1.28766 -0.376864,-0.13949 -0.483655,-0.23581 -0.510784,-0.4607 l -0.0343,-0.28434 h 1.633202 c 0.95799,0 1.633203,0.0425 1.633203,0.10287 0,0.0566 0.174369,0.03 0.387488,-0.059 0.849744,-0.35505 1.706436,-0.32231 3.256088,0.12443 0.171969,0.0496 0.243658,0.01 0.287955,-0.15953 0.07243,-0.27701 0.729674,-0.3337 0.729674,-0.0629 0,0.12483 0.138512,0.1626 0.596202,0.1626 h 0.596202 v -1.4092 -1.40921 h 0.813003 0.812999 v 1.40921 1.4092 h 1.300801 1.300803 v 0.3794 0.3794 h -1.300803 -1.300802 l 0.0061,3.06231 c 0.0066,3.32387 0.05213,3.64385 0.572546,4.02775 0.264433,0.19507 0.444296,0.22416 1.280202,0.20708 l 0.972546,-0.0199 -0.0336,0.28669 c -0.0487,0.41549 -1.116871,0.77609 -2.310004,0.77981 -1.031812,0.003 -1.512937,-0.19449 -1.839117,-0.75576 -0.206215,-0.35484 -0.223996,-0.61097 -0.274688,-3.9566 l -0.0542,-3.57721 h -0.542003 -0.541998 l 0.03945,0.84849 0.03945,0.8485 -0.301459,-0.0355 c -0.227564,-0.0268 -0.330231,-0.12009 -0.418846,-0.38065 -0.47518,-1.39713 -1.908732,-2.11323 -3.140063,-1.56856 -0.59411,0.2628 -0.887074,0.78789 -0.786249,1.4092 0.111376,0.68633 0.62982,1.06035 2.182919,1.57485 1.235892,0.40941 2.106651,0.92198 2.491443,1.46657 0.273692,0.38736 0.32967,0.58113 0.363942,1.25986 0.03331,0.65941 -0.0016,0.88954 -0.197468,1.29368 -0.339598,0.70151 -0.990921,1.21581 -1.882832,1.48672 -1.176103,0.35723 -2.091762,0.21928 -3.565722,-0.53719 -0.04435,-0.0228 -0.128507,0.0845 -0.187018,0.23843 -0.082,0.21569 -0.18151,0.27981 -0.434263,0.27981 h -0.327883 v -1.5718 c 0,-1.56338 0.0013,-1.57181 0.246879,-1.57181 0.200097,0 0.305036,0.1335 0.553793,0.70451 0.383565,0.88044 1.217473,1.68821 1.956443,1.89511 0.588937,0.16489 1.488019,0.0865 1.868778,-0.16302 0.617818,-0.40481 0.838799,-1.20998 0.532969,-1.94194 -0.192514,-0.46075 -0.740801,-0.78223 -2.232057,-1.30877 -1.261834,-0.44553 -1.64882,-0.65054 -2.080953,-1.1024 -0.600003,-0.62738 -0.791933,-1.66525 -0.473183,-2.55873 0.130661,-0.36625 0.128562,-0.39548 -0.01957,-0.27254 -0.193508,0.1606 -0.14313,0.047 -2.106345,4.74778 -2.033404,4.8688 -2.671023,6.06422 -3.621095,6.78887 -0.330724,0.25225 -0.526942,0.31148 -1.11771,0.33739 -0.493025,0.0216 -0.808708,-0.0204 -1.011939,-0.13484 z M 28.035062,52.96749 c -0.986058,-0.29995 -1.502953,-0.92738 -1.594348,-1.93529 -0.0699,-0.77082 0.08856,-1.31389 0.530103,-1.81678 0.459339,-0.52315 0.849153,-0.73408 2.257349,-1.22145 0.685631,-0.2373 1.533677,-0.53996 1.884545,-0.67259 l 0.637944,-0.24115 -0.06059,-0.80115 c -0.106506,-1.40824 -0.673464,-2.09912 -1.72261,-2.09912 -0.528314,0 -1.19559,0.20724 -1.321086,0.41029 -0.03644,0.059 -0.01154,0.3797 0.05534,0.71274 0.104651,0.5211 0.09614,0.64441 -0.06104,0.88429 -0.387455,0.59133 -1.340044,0.6221 -1.634442,0.0528 -0.501569,-0.96993 0.304159,-2.01743 1.932131,-2.51191 0.609413,-0.18511 0.921008,-0.21687 1.633905,-0.16656 1.351668,0.0954 2.021068,0.44715 2.477924,1.30213 0.231299,0.43285 0.245396,0.60409 0.2971,3.6088 0.04219,2.45176 0.08742,3.19424 0.203053,3.33331 0.325202,0.3911 0.394016,0.20575 0.358998,-0.96694 l -0.03423,-1.14632 0.296871,0.035 c 0.23798,0.0281 0.325525,0.121 0.441313,0.46859 0.211488,0.63486 0.88377,1.46354 1.492237,1.83937 0.462036,0.28539 0.632933,0.32844 1.298843,0.3272 1.228572,-0.002 1.796606,-0.4909 1.796606,-1.54538 0,-0.90227 -0.485161,-1.29816 -2.340972,-1.91022 -1.09826,-0.36222 -1.967994,-0.8773 -2.289734,-1.35605 -0.996048,-1.48212 -0.259208,-3.32248 1.548008,-3.86638 0.833531,-0.25085 1.507545,-0.19439 2.882547,0.24145 0.11704,0.0371 0.204223,-0.0219 0.251205,-0.1699 0.08755,-0.27583 0.707747,-0.33201 0.707747,-0.0641 0,0.12483 0.138511,0.16261 0.596201,0.16261 h 0.596202 v -1.40921 -1.4092 h 0.813001 0.813001 v 1.4092 1.40921 h 1.300803 1.300802 v 0.37596 0.37596 l -1.273702,0.0305 -1.273702,0.0305 v 3.14361 c 0,2.833 0.01945,3.17926 0.1969,3.50445 0.28981,0.5311 0.80709,0.71102 1.788553,0.62208 l 0.794159,-0.072 -0.0348,0.30332 c -0.05104,0.44478 -1.004224,0.77592 -2.258699,0.78467 -1.111104,0.008 -1.558909,-0.18571 -1.889839,-0.81649 -0.20884,-0.39806 -0.224165,-0.63822 -0.253581,-3.97377 l -0.03131,-3.55011 h -0.537792 -0.537793 v 0.86721 c 0,0.83945 -0.0082,0.8672 -0.256273,0.8672 -0.204734,0 -0.294616,-0.1004 -0.446919,-0.4992 -0.382771,-1.00227 -1.253169,-1.66157 -2.199995,-1.66643 -1.017818,-0.005 -1.649621,0.53854 -1.649621,1.41974 0,0.82043 0.306133,1.08065 2.017793,1.71519 0.781875,0.28985 1.619444,0.6519 1.861263,0.80456 1.813446,1.14478 1.498075,3.69928 -0.57285,4.64007 -0.432866,0.19664 -0.738445,0.24676 -1.517603,0.24891 -0.86967,0.002 -1.05295,-0.0339 -1.68795,-0.33432 -0.709038,-0.33544 -0.712816,-0.33595 -0.813001,-0.10814 -0.115828,0.26338 -0.477569,0.36115 -1.401456,0.3788 -0.827575,0.0158 -1.305955,-0.25111 -1.546196,-0.8627 l -0.169924,-0.43259 -0.334342,0.31186 c -0.957583,0.89319 -2.321918,1.30618 -3.316048,1.00378 z m 2.547537,-1.09084 c 0.246004,-0.11909 0.588131,-0.36355 0.760283,-0.54324 0.311406,-0.32503 0.313238,-0.33498 0.359132,-1.9505 l 0.04613,-1.6238 -0.365687,0.11799 c -2.393414,0.77229 -3.166026,1.42794 -3.166026,2.68676 0,0.33487 0.06002,0.721 0.133385,0.85808 0.345385,0.64536 1.396683,0.85945 2.232783,0.45471 z m 17.304679,1.08215 c -1.122308,-0.23678 -2.068293,-0.93865 -2.593681,-1.92438 -1.069785,-2.00712 -0.82412,-4.67746 0.569669,-6.19219 1.064656,-1.15704 2.450164,-1.55183 4.01946,-1.14531 1.574291,0.40782 2.315621,1.43696 2.499891,3.47045 l 0.07309,0.80659 H 49.40555 46.355393 l 8.61e-4,0.2439 c 0.0022,0.64761 0.254046,1.71919 0.544907,2.3183 0.625405,1.2882 1.942005,1.8424 3.410881,1.43576 0.424345,-0.11747 1.220328,-0.81341 1.578068,-1.37971 0.160396,-0.25391 0.161146,-0.25399 0.421285,-0.0433 l 0.260603,0.21102 -0.229099,0.36854 c -0.377859,0.60784 -1.124952,1.26127 -1.788036,1.56388 -0.700034,0.31947 -1.86487,0.43583 -2.667545,0.26649 z m 2.711459,-5.68711 c 0.132267,-0.13227 -0.144612,-1.74907 -0.369192,-2.15586 -0.77819,-1.40954 -2.636335,-1.21238 -3.43915,0.36493 -0.230005,0.45189 -0.477931,1.57724 -0.381764,1.73284 0.06754,0.10928 4.083243,0.16496 4.190106,0.0581 z m 39.336161,5.6303 c -1.964797,-0.55115 -3.037834,-2.17808 -3.037834,-4.60593 0,-2.03833 0.885324,-3.63011 2.44491,-4.39586 0.575585,-0.28261 0.7546,-0.31633 1.674298,-0.31533 0.877839,8.2e-4 1.117875,0.0423 1.626662,0.28 1.239523,0.57916 1.834824,1.55215 1.925794,3.14762 l 0.05482,0.96147 h -3.011945 -3.011949 l 0.06788,0.80298 c 0.172894,2.04536 1.272787,3.31226 2.878165,3.31517 1.097439,0.002 1.80249,-0.39333 2.559979,-1.43539 0.21504,-0.29583 0.218907,-0.2966 0.476192,-0.0962 l 0.259394,0.202 -0.334333,0.48594 c -0.769931,1.11905 -1.810979,1.7073 -3.144278,1.77668 -0.544469,0.0284 -1.040327,-0.0144 -1.427753,-0.1231 z m 2.924174,-6.04345 c 0,-0.6178 -0.277695,-1.657 -0.541949,-2.02811 -0.453617,-0.63705 -1.489691,-0.83505 -2.274494,-0.43467 -0.739024,0.37702 -1.241351,1.229 -1.370001,2.3236 l -0.07101,0.6042 h 2.128727 2.128727 z m -82.275738,5.6784 c 0,-0.29459 0.03415,-0.31973 0.526555,-0.38744 0.698693,-0.0961 1.180722,-0.4051 1.402118,-0.8988 0.159964,-0.35672 0.181452,-0.93822 0.183177,-4.95694 0.0019,-4.39932 -0.0056,-4.56559 -0.220708,-4.93184 -0.282658,-0.48117 -0.781415,-0.81842 -1.343205,-0.90825 -0.377184,-0.0603 -0.439537,-0.10854 -0.439537,-0.34 v -0.26972 l 2.195104,8.2e-4 2.195104,8.2e-4 1.832076,4.8232 c 1.007643,2.65267 1.86292,4.82311 1.900615,4.82311 0.09284,0 3.255581,-8.12503 3.48115,-8.94301 l 0.179356,-0.6504 2.075712,-0.0295 2.07571,-0.0295 v 0.25924 c 0,0.23017 -0.07245,0.27349 -0.646169,0.38636 -1.157691,0.22777 -1.088234,-0.14424 -1.088234,5.82844 v 5.13931 L 25.149313,51.71 c 0.259013,0.25902 0.890173,0.49007 1.341748,0.49119 0.198599,4.1e-4 0.2439,0.061 0.2439,0.3258 v 0.3252 h -2.872605 -2.872604 v -0.30975 c 0,-0.29886 0.02295,-0.31216 0.65192,-0.3779 0.771593,-0.0806 1.132128,-0.28864 1.291172,-0.74488 0.166404,-0.47734 0.16215,-9.98277 -0.0044,-9.92723 -0.06652,0.0222 -1.120225,2.53841 -2.341554,5.59164 -1.775318,4.43816 -2.25955,5.55132 -2.414851,5.55132 -0.106839,0 -0.228132,-0.0854 -0.269539,-0.1897 -0.04141,-0.10433 -0.969056,-2.57992 -2.061441,-5.50131 -1.092384,-2.92138 -2.020155,-5.39697 -2.061712,-5.5013 -0.244251,-0.61323 -0.28328,0.0886 -0.250167,4.4986 0.03432,4.57072 0.04122,4.70133 0.274878,5.20744 0.255821,0.5541 0.709339,0.84242 1.576028,1.00197 0.358651,0.066 0.406501,0.11169 0.406501,0.38797 v 0.31313 h -2.601605 -2.601604 z m 41.19207,0.0556 c 0,-0.27564 0.178521,-0.391 0.605067,-0.391 0.144173,0 0.359694,-0.0976 0.478935,-0.2168 0.20728,-0.20728 0.2168,-0.36134 0.2168,-3.50839 0,-3.16781 -0.0085,-3.30234 -0.22508,-3.57773 -0.135802,-0.17264 -0.415284,-0.33404 -0.704601,-0.40689 -0.391624,-0.0986 -0.479521,-0.16606 -0.479521,-0.36796 0,-0.24059 0.03701,-0.24918 1.382102,-0.32052 0.760156,-0.0403 1.455272,-0.0818 1.544702,-0.0922 0.126501,-0.0147 0.169823,0.13368 0.195126,0.66836 l 0.03253,0.68725 0.540128,-0.50522 c 1.332489,-1.24639 2.836081,-1.28075 3.226213,-0.0737 0.122116,0.37781 0.122116,0.52572 0,0.91093 -0.191282,0.6034 -0.585831,0.81362 -1.188255,0.63313 -0.495826,-0.14855 -0.664109,-0.41534 -0.622808,-0.98736 0.01675,-0.23189 -0.0025,-0.4546 -0.04285,-0.49491 -0.128909,-0.12891 -1.246184,0.49283 -1.590663,0.88518 l -0.332614,0.37882 v 2.92304 c 0,2.75054 0.01244,2.93546 0.210753,3.13378 0.115916,0.11592 0.396401,0.24068 0.623301,0.27725 0.868349,0.13995 0.900348,0.15543 0.900348,0.43547 V 52.852 H 54.160214 51.77541 Z m 42.276072,0 c 0,-0.27191 0.178531,-0.391 0.586172,-0.391 0.13378,0 0.349299,-0.1129 0.478933,-0.25089 0.231039,-0.24593 0.235697,-0.3143 0.235697,-3.46049 v -3.2096 l -0.278912,-0.33147 c -0.159358,-0.18938 -0.46139,-0.3806 -0.704605,-0.44609 -0.342863,-0.0923 -0.425684,-0.16446 -0.425684,-0.37076 0,-0.25067 0.02716,-0.25765 1.2737,-0.32736 0.700537,-0.0392 1.371263,-0.0806 1.490503,-0.092 0.194784,-0.0186 0.220063,0.054 0.248946,0.71511 l 0.03216,0.73587 0.608599,-0.54244 c 1.035984,-0.92335 2.07325,-1.24789 3.157285,-0.98783 0.59975,0.14388 1.33321,0.70047 1.59812,1.21276 l 0.1652,0.31946 0.56365,-0.50951 c 1.75121,-1.58301 3.9796,-1.45141 4.78225,0.28242 0.2089,0.45125 0.22798,0.71111 0.25463,3.4688 0.0159,1.63956 0.0537,3.09216 0.0841,3.22802 0.0557,0.24866 0.4747,0.49377 1.05235,0.61563 0.22819,0.0481 0.2981,0.12595 0.2981,0.33183 v 0.26893 h -2.22221 -2.2222 v -0.26972 c 0,-0.2325 0.0621,-0.27965 0.45009,-0.34169 0.93218,-0.14906 1.00165,-0.4349 0.93737,-3.85681 -0.0501,-2.66859 -0.11037,-2.95523 -0.73064,-3.47715 -0.28125,-0.23666 -0.45727,-0.29304 -0.91485,-0.29304 -0.69928,0 -1.58224,0.41102 -1.96721,0.91574 l -0.26797,0.35132 v 2.86536 c 0,3.24705 -0.002,3.23909 0.80952,3.44341 0.41783,0.1052 0.49129,0.16398 0.49129,0.39314 v 0.26944 h -2.16801 -2.168 v -0.2594 c 0,-0.27564 0.17852,-0.391 0.60507,-0.391 0.14417,0 0.35969,-0.0976 0.47893,-0.2168 0.20613,-0.20612 0.21668,-0.35963 0.21442,-3.1165 -0.002,-3.19477 -0.0581,-3.51188 -0.70322,-4.01933 -0.683961,-0.53801 -2.156797,-0.1623 -2.863967,0.73057 l -0.343157,0.43328 0.03224,2.83312 c 0.03216,2.82323 0.03315,2.83383 0.286422,3.03877 0.139791,0.11311 0.444666,0.25696 0.677499,0.31965 0.346657,0.0933 0.423341,0.16233 0.423341,0.38082 v 0.26682 H 96.219437 94.051432 Z M 111.0974,45.83961 c 0.1628,-0.0426 0.1897,-0.18681 0.1897,-1.01723 0,-0.95902 -0.002,-0.96765 -0.27008,-0.96765 -0.15268,0 -0.32893,0.0942 -0.40547,0.21679 -0.18346,0.29377 -0.30005,0.27271 -0.30005,-0.0542 v -0.27101 h 1.19241 1.1924 v 0.27101 c 0,0.3269 -0.11659,0.34796 -0.30005,0.0542 -0.0765,-0.12256 -0.25279,-0.21679 -0.40547,-0.21679 -0.26674,0 -0.27009,0.0114 -0.27009,0.92489 0,0.85784 0.0177,0.93201 0.24391,1.02293 0.18423,0.074 0.0848,0.0966 -0.4065,0.0923 -0.35773,-0.003 -0.56504,-0.028 -0.46071,-0.0553 z m 2.22221,-0.0371 c 0.22467,-0.0903 0.2439,-0.16697 0.2439,-0.97222 0,-0.80525 -0.0192,-0.88192 -0.2439,-0.97223 -0.1975,-0.0794 -0.14466,-0.0993 0.27775,-0.1049 l 0.52166,-0.007 0.36455,0.7859 0.36456,0.7859 0.36039,-0.78156 0.36039,-0.78156 0.4878,0.002 c 0.39972,0.002 0.44376,0.0202 0.2439,0.10056 -0.22187,0.0892 -0.24375,0.16934 -0.24224,0.88743 0.002,0.82075 0.0508,0.98595 0.32354,1.08979 0.0894,0.034 -0.13008,0.0626 -0.4878,0.0636 -0.49412,10e-4 -0.59179,-0.0219 -0.4065,-0.0963 0.22411,-0.0901 0.24362,-0.16651 0.24045,-0.94163 -0.004,-0.97584 -0.0749,-0.94804 -0.60418,0.23679 -0.17257,0.38631 -0.34827,0.7037 -0.39042,0.7053 -0.0422,0.002 -0.26964,-0.39952 -0.5055,-0.89138 l -0.42884,-0.8943 -0.009,0.84359 c -0.009,0.77787 0.01,0.85123 0.2345,0.94163 0.18939,0.0761 0.11066,0.098 -0.35231,0.098 -0.46297,0 -0.5417,-0.0219 -0.3523,-0.098 z M 46.327828,38.5878 c -0.04446,-0.0445 -0.08083,-0.341 -0.08083,-0.65897 V 37.3507 l 2.303504,-0.002 c 2.570177,-0.002 2.905703,-0.0748 3.47044,-0.74593 0.596669,-0.7091 0.610891,-1.5832 0.03798,-2.33433 -0.410998,-0.53884 -0.877897,-0.71134 -1.9259,-0.71154 -0.647358,-1.2e-4 -1.010842,-0.0541 -1.276715,-0.1897 -1.035661,-0.52809 -1.135032,-1.87263 -0.189693,-2.56663 0.287461,-0.21103 0.449184,-0.2245 2.69492,-0.2245 h 2.389106 l 0.01508,0.62126 0.01509,0.62125 -2.222204,0.0291 c -1.890073,0.0248 -2.222204,0.0534 -2.222204,0.19175 0,0.12972 0.219201,0.17465 1.084002,0.2222 0.926762,0.051 1.168263,0.10549 1.664897,0.37595 1.108047,0.60342 1.642222,1.53577 1.640249,2.86287 -0.0019,1.26008 -0.656219,2.26135 -1.841083,2.81719 -0.577333,0.27084 -0.676677,0.28117 -3.036332,0.31567 -1.341708,0.0196 -2.475845,-8.2e-4 -2.520304,-0.0452 z m 10.339819,-0.0647 c -0.626149,-0.10778 -1.016285,-0.34139 -1.513581,-0.90635 -0.630018,-0.71574 -0.693921,-1.13039 -0.650766,-4.22262 0.03378,-2.42074 0.05257,-2.63175 0.270281,-3.03521 0.306295,-0.56763 0.736402,-0.96559 1.33783,-1.23783 0.446665,-0.20219 0.707191,-0.22103 3.089405,-0.22339 l 2.601605,-0.002 -0.03673,0.6506 -0.03673,0.6506 h -2.523157 c -3.549811,0 -3.419597,-0.13504 -3.419597,3.54642 0,3.68925 -0.07992,3.60799 3.548415,3.60799 h 2.413596 v 0.5921 0.59209 l -2.324651,0.0312 c -1.278558,0.0172 -2.518723,-0.002 -2.755923,-0.043 z m 10.708542,0.02 -3.206648,-0.0542 -0.530293,-0.32806 C 63.311201,37.95789 62.983834,37.63053 62.780889,37.30248 L 62.452822,36.77219 62.419012,33.966 c -0.03918,-3.25203 0.01373,-3.5476 0.767311,-4.28643 0.736525,-0.7221 1.043825,-0.78409 3.887133,-0.78409 h 2.479575 v 0.6504 0.6504 h -2.505958 -2.505956 l -0.420849,0.42085 -0.420847,0.42085 4.51e-4,2.64146 c 3.25e-4,2.39316 0.01954,2.67284 0.204002,2.97533 0.360593,0.59138 0.759822,0.69593 2.657451,0.69593 h 1.690921 v -1.897 -1.89701 h -1.246602 -1.246602 v -0.6504 -0.6504 h 1.895142 1.895141 l 0.02896,2.73711 0.02896,2.7371 1.34343,-3.95661 c 0.738886,-2.17613 1.43811,-4.09186 1.553831,-4.25716 0.711517,-1.01639 2.710066,-1.01639 3.418616,0 0.146789,0.21056 3.169139,8.85326 3.169139,9.06245 0,0.0102 -1.219502,0.0185 -2.710005,0.0185 h -2.710004 v -0.6233 -0.6233 h 1.788603 c 1.407595,0 1.788603,-0.0304 1.788603,-0.14284 0,-0.0786 -0.163508,-0.60294 -0.363351,-1.1653 -0.199843,-0.56236 -0.718118,-2.08952 -1.151723,-3.39369 -0.433605,-1.30418 -0.879847,-2.46271 -0.991651,-2.57451 -0.257391,-0.25739 -0.794899,-0.26206 -1.047854,-0.009 -0.106795,0.10679 -0.820501,2.0458 -1.586015,4.3089 -0.765512,2.2631 -1.42203,4.13912 -1.458929,4.16893 -0.0369,0.0298 -1.510079,0.0298 -3.273735,0 z m 3.75724,-0.1084 c 0.03592,-0.0894 0.671445,-1.9407 1.412276,-4.11393 1.190335,-3.49186 1.445123,-4.12116 1.668537,-4.12116 0.218519,0 0.443647,0.53597 1.405332,3.34577 0.598329,1.74817 1.087872,3.22197 1.087872,3.2751 0,0.0531 -0.682922,0.0966 -1.517603,0.0966 h -1.517602 v -0.56007 c 0,-0.30804 -0.03659,-0.52415 -0.0813,-0.48025 -0.04472,0.0439 -0.278026,0.66653 -0.518469,1.38361 l -0.437169,1.30379 -0.783592,0.0165 c -0.657359,0.0139 -0.773071,-0.01 -0.718282,-0.14604 z m 3.592736,-2.97389 c 0.04615,-0.0368 -0.448117,-1.47052 -0.506946,-1.47052 -0.03257,0 -0.1536,0.29538 -0.268954,0.6564 -0.115353,0.36102 -0.249489,0.68097 -0.298079,0.711 -0.237643,0.14687 -0.03185,0.2216 0.480756,0.17457 0.313005,-0.0287 0.579956,-0.0609 0.593223,-0.0714 z M 46.246994,36.2667 v -0.65041 h 2.276404 c 1.938188,0 2.276404,-0.0238 2.276404,-0.16053 0,-0.1994 -0.242311,-0.25154 -1.409202,-0.30322 -1.059227,-0.0469 -1.557169,-0.25365 -2.189755,-0.90916 -1.254078,-1.29952 -1.164832,-3.37885 0.196451,-4.5771 0.798971,-0.70328 1.143707,-0.77079 3.936717,-0.77087 l 2.446794,-7e-5 -0.01463,0.62337 -0.01463,0.62337 -2.478576,0.0542 c -2.651781,0.058 -2.736744,0.0752 -3.222835,0.65289 -0.643103,0.76429 -0.588209,1.77996 0.135304,2.50347 0.467357,0.46736 0.934561,0.61017 2.072357,0.63347 0.948055,0.0194 1.338148,0.20011 1.647185,0.76299 0.371423,0.67651 0.113302,1.52337 -0.596173,1.95597 -0.315267,0.19223 -0.558382,0.21126 -2.704115,0.21163 l -2.357704,4e-4 z m 10.289679,0.33354 c -0.310272,-0.31028 -0.316862,-0.34071 -0.316862,-1.46341 v -1.14654 h 2.276404 2.276404 v 0.5962 0.59621 h -1.633951 c -1.497764,0 -1.630913,0.0158 -1.597499,0.1897 0.03297,0.17159 0.235547,0.19251 2.121752,0.21914 l 2.0853,0.0294 v 0.64807 0.64805 h -2.447343 -2.447343 z m 8.084152,0.19168 c -0.474674,-0.25962 -0.4878,-0.34235 -0.4878,-3.07445 v -2.61619 l 0.279499,-0.2628 c 0.27623,-0.25972 0.307923,-0.26318 2.710004,-0.29566 l 2.430506,-0.0329 v 0.65617 0.65616 h -1.983723 c -1.398363,0 -2.022108,0.0384 -2.113804,0.13009 -0.08969,0.0897 -0.13008,0.63836 -0.13008,1.76692 0,1.12857 0.04039,1.67724 0.13008,1.76692 0.07154,0.0716 0.339835,0.13008 0.596201,0.13008 0.393854,0 0.466121,-0.0336 0.466121,-0.21679 0,-0.17551 -0.07227,-0.21681 -0.379401,-0.21681 h -0.379401 v -0.5962 -0.5962 h 1.029802 1.029802 v 1.4634 1.4634 l -1.490502,-0.003 c -0.868051,-0.002 -1.581041,-0.0528 -1.707304,-0.12188 z m -8.401014,-4.42159 c 0,-1.09753 0.01958,-1.20913 0.26143,-1.4905 l 0.26143,-0.30415 2.492865,-0.0327 2.492863,-0.0327 0.03701,0.654 0.03701,0.654 -2.112396,0.0291 c -1.912172,0.0263 -2.115852,0.0471 -2.148852,0.21879 -0.03342,0.1739 0.09973,0.18971 1.597496,0.18971 h 1.63395 v 0.6504 0.6504 H 58.496214 56.21981 Z M 77.954048,29.877 c -0.673434,-0.27563 -0.873619,-1.18698 -0.37111,-1.68949 0.150899,-0.15089 0.453371,-0.30341 0.67216,-0.33891 0.351842,-0.0571 0.441962,-0.0204 0.780075,0.31772 0.514503,0.5145 0.518542,0.93978 0.01372,1.4446 -0.369948,0.36995 -0.66555,0.44179 -1.094842,0.26608 z m 0.743609,-0.15519 c 0.477647,-0.19957 0.692312,-0.69447 0.501277,-1.15567 -0.379068,-0.91516 -1.732687,-0.65786 -1.732687,0.32934 0,0.45724 0.315904,0.81938 0.843583,0.96704 0.01682,0.005 0.191342,-0.0586 0.387827,-0.14071 z m -0.797809,-0.81473 c 0,-0.57736 0.136037,-0.71361 0.596972,-0.59792 0.332005,0.0833 0.428135,0.35194 0.211581,0.59123 -0.113991,0.12596 -0.133212,0.21451 -0.05681,0.26173 0.0635,0.0392 0.112903,0.12945 0.109776,0.20046 -0.0031,0.071 -0.08225,0.0193 -0.175822,-0.1148 -0.210865,-0.30229 -0.468893,-0.3172 -0.468893,-0.0271 0,0.11924 -0.04878,0.2168 -0.1084,0.2168 -0.05962,0 -0.108401,-0.23868 -0.108401,-0.5304 z m 0.738542,-0.2555 c 0.02685,-0.14089 -0.03562,-0.1897 -0.242793,-0.1897 -0.209807,0 -0.278949,0.0556 -0.278949,0.22434 0,0.17039 0.05839,0.21601 0.242793,0.1897 0.133537,-0.0191 0.259063,-0.12001 0.278949,-0.22434 z"
       id="path9480" />
  </g>
  <style
     type="text/css"
     id="style3952">
	.st0{fill:#FC0C18;}
	.st1{fill:#FC0C18;}
</style>
</svg>
