<svg width="480" height="320" version="1.1" viewBox="0 0 127 84.667" xmlns="http://www.w3.org/2000/svg">
 <defs>
  <linearGradient id="a" x1="46.091" x2="68.777" y1="1.175e-16" y2="84.667" gradientUnits="userSpaceOnUse">
   <stop stop-color="#28bca3" offset="0"/>
   <stop stop-color="#0d52bf" offset="1"/>
  </linearGradient>
 </defs>
 <rect width="127" height="84.667" ry="4.2333" fill="url(#a)" stroke-linecap="square" stroke-linejoin="round" stroke-width=".52917" style="paint-order:stroke fill markers"/>
 <path d="m38.055 70.997c-0.27223-0.70942 0.60492-8.393 1.6585-14.528 0.4235-2.466 0.42663-2.9776 0.02543-4.1551-0.51433-1.5095-0.25979-3.8569 0.46824-4.3182 1.1747-0.74425 2.0619-0.06801 3.1561 2.4056 0.60841 1.3754 0.66453 1.8961 0.48287 4.4804-0.11305 1.6083-0.42388 4.3843-0.69073 6.169-0.57184 3.8245-0.48736 4.2431 0.80419 3.9848 1.2779-0.25558 4.7922-2.0247 7.3852-3.7177 2.4784-1.6182 2.9158-2.565 2.7061-5.8581-0.10832-1.7012-0.30214-2.1812-1.6349-4.0489-0.92616-1.2979-1.9656-2.3492-2.6826-2.7132-1.2369-0.62799-4.7708-1.4493-7.6437-1.7765-0.94536-0.10766-1.9779-0.33442-2.2946-0.50391-0.74038-0.39624-1.5332-1.9309-1.5332-2.9677 0-0.70964 0.13292-0.80812 1.0907-0.80812 1.8523 0 12.292 2.2005 13.921 2.9344 3.1704 1.4278 4.6139 4.2308 4.9363 9.5852 0.23467 3.8983 0.01198 6.1367-0.72203 7.2569-0.82738 1.2627-3.5071 2.8484-6.7208 3.9769-1.5612 0.5482-4.7054 1.9176-6.9872 3.043-4.2544 2.0985-5.3987 2.4102-5.7252 1.5594zm36.201-3.1828c-0.27508-0.27508-0.64686-0.77428-0.82617-1.1093-0.41545-0.77627-1.3067-0.76975-3.3974 0.02488-0.91707 0.34856-2.272 0.63062-3.0111 0.62679-2.8634-0.01483-5.5872-2.0702-6.4191-4.8438-0.64221-2.1411-1.2025-10.973-0.73212-11.54 0.49536-0.59688 1.4382-0.49832 2.1626 0.22605 0.55473 0.55473 0.63438 1.0595 0.63767 4.0412 0.0056 5.1137 0.83607 7.7242 2.7057 8.5053 2.2924 0.95782 4.7944 0.23053 5.6885-1.6535 0.28768-0.60625 0.66755-2.4137 0.84414-4.0167 0.53614-4.8665 0.54979-4.9212 1.288-5.1555 0.49885-0.15833 0.84208-0.01945 1.2758 0.51609 0.50003 0.61751 0.55982 1.0454 0.38028 2.7219-0.17734 1.6559-0.03789 2.7024 0.83235 6.2462 1.0045 4.0906 1.0242 4.2894 0.50371 5.0837-0.61926 0.94511-1.2138 1.0456-1.9328 0.32654zm8.9231-0.78345c-1.8421-0.45409-2.9122-1.1138-4.1469-2.5561-1.6186-1.891-2.2575-3.987-2.2595-7.4121-0.0013-2.4639 0.11947-3.1117 0.88715-4.7543 2.0292-4.3419 4.763-5.6945 8.9789-4.4425 1.9472 0.57826 4.1216 2.3499 3.8269 3.1181-0.26848 0.69965-1.1143 0.67166-3.0766-0.10184-3.0326-1.1953-4.4177-0.73242-6.3913 2.1361-0.83332 1.2112-1.0238 1.8294-1.1402 3.7002-0.12887 2.071-0.05697 2.4039 0.92256 4.2726 1.7209 3.2831 3.2918 3.771 8.1696 2.5375 2.3986-0.60654 2.6766-0.62119 3.1328-0.16501 0.45618 0.45618 0.43342 0.57213-0.2564 1.3064-1.7656 1.8793-5.9576 3.024-8.6469 2.361zm11.33-0.31942c-0.11395-0.18436-0.34085-2.0742-0.50423-4.1996-0.4139-5.3843-0.8269-9.6578-1.0791-11.166-0.34874-2.0853 1.1565-4.7278 2.2829-4.0077 0.18549 0.11858 0.41526 1.7132 0.5106 3.5436 0.1902 3.6515 0.64969 5.6439 1.365 5.9183 0.25533 0.09798 1.8458-0.27995 3.5343-0.83985 2.7237-0.90317 3.206-0.97725 4.2756-0.6568 1.6998 0.50926 3.3509 2.0523 3.5964 3.361 0.16441 0.87637 0.0476 1.2621-0.62408 2.0603-0.4545 0.54014-0.82456 1.0781-0.82236 1.1955 2e-3 0.11736 0.79449 0.90672 1.7607 1.7541 2.1108 1.8513 2.2594 2.8379 0.45058 2.9905-0.8193 0.06911-1.9477-0.31761-4.2789-1.4664-1.7414-0.85815-4.0762-1.889-5.1885-2.2908-1.9662-0.71027-2.0344-0.71408-2.4564-0.13699-0.23872 0.32646-0.43403 1.0562-0.43403 1.6217 0 1.6824-0.5125 2.6542-1.3997 2.6542-0.42984 0-0.87475-0.15084-0.98869-0.3352zm10.039-6.9545c0.73429-0.62187 0.73677-0.64257 0.13301-1.1093-1.2921-0.99892-4.8679-0.23705-4.4159 0.94086 0.16657 0.43407 0.96006 0.65601 2.6981 0.75468 0.46008 0.02611 1.1732-0.23767 1.5848-0.5862zm-46.318-15.132c-1.3054-0.15745-1.903-0.5814-1.903-1.35 0-0.96047 1.6296-1.373 4.4511-1.1269 4.2188 0.36801 6.6438-0.83088 7.1512-3.5354 0.2605-1.3886-0.08009-1.6245-2.0691-1.4334-2.5883 0.2487-5.7812-0.46017-7.1482-1.587-3.0176-2.4873-2.7295-6.955 0.66218-10.271 2.6513-2.5923 7.4091-4.4849 7.921-3.151 0.27242 0.70992-0.52353 1.5388-3.2478 3.3822-2.4777 1.6765-3.5998 3.1438-3.5998 4.707 0 2.749 2.0649 3.9195 5.3657 3.0417 2.6802-0.71278 2.8269-0.9772 2.9962-5.3978 0.14894-3.8903 0.824-6.5188 2.0147-7.8446 0.50143-0.55832 1.8242-0.75888 2.0905-0.31695 0.07878 0.13074 0.02323 2.6624-0.12345 5.6259s-0.3461 7.5157-0.44316 10.116c-0.13997 3.7499-0.29441 4.9298-0.74661 5.7041-1.654 2.832-6.9987 4.206-13.371 3.4374zm-6.0234-4.8467c-1.7138-0.40751-6.2421-2.13-7.1313-2.7126-1.0344-0.67779-1.637-2.8748-1.861-6.7855-0.22439-3.917 0.11212-5.6718 1.246-6.4975 0.47874-0.34865 1.5936-1.1688 2.4774-1.8225 1.444-1.0681 1.803-1.1886 3.5412-1.1886 1.6021 0 2.0458 0.12245 2.5838 0.71314 1.5196 1.6684 1.7179 3.0695 0.73925 5.2254-0.63299 1.3945-0.68859 1.4308-5.161 3.3762-1.7167 0.74674-1.8225 0.8566-1.8225 1.8937 0 1.7445 0.26103 2.0675 2.6379 3.2645 1.5718 0.79156 3.2392 1.3056 5.5858 1.7222 4.8839 0.86701 4.7714 0.82673 4.7714 1.7076 0 0.44202-0.26349 0.91621-0.61307 1.1033-0.71626 0.38333-5.3826 0.38376-6.9938 6.34e-4zm-1.9667-13.792c0.97736-1.1362 0.73972-1.5749-0.83547-1.5424-1.5405 0.03184-2.5861 0.82647-2.5861 1.9655 0 0.74051 0.0763 0.77476 1.3466 0.60438 0.92034-0.12344 1.5771-0.44866 2.075-1.0275zm-10.728 12.991c-0.30734-0.37032-0.51835-2.1434-0.70916-5.9589-0.1494-2.9874-0.4395-7.6409-0.64468-10.341-0.32316-4.2528-0.44738-4.9235-0.92891-5.0155-0.40448-0.07729-0.73504 0.31019-1.2137 1.4228-1.256 2.9191-5.2605 13.582-5.683 15.132-0.49041 1.7993-2.6598 4.3052-3.727 4.3052-0.8592 0-1.6565-1.1382-1.6591-2.3684-0.0011-0.52776-0.44475-2.5998-0.98586-4.6045s-1.1631-4.3678-1.3823-5.2514c-0.52148-2.1024-1.0849-3.1477-1.4823-2.7502-0.169 0.169-0.3838 3.3578-0.47735 7.0862-0.0975 3.8863-0.30854 6.948-0.49456 7.1752-0.49642 0.60612-1.3884 0.47442-2.3419-0.3458-0.85388-0.73448-0.86543-0.79785-1.141-6.2598-0.15314-3.0348-0.19788-6.7302-0.09943-8.2119 0.53712-8.0839 0.57469-8.2145 2.6122-9.0769 1.2975-0.54918 4.0899-0.57228 4.2889-0.03549 0.08079 0.2179 0.32537 1.3946 0.5435 2.6149 0.77643 4.3434 3.4324 12.995 3.9893 12.995 0.14894 0 0.51378-0.64183 0.81076-1.4263 0.29697-0.78446 0.84371-2.1901 1.215-3.1236s0.88607-2.7006 1.144-3.9268c0.53602-2.5481 1.9763-5.4576 3.356-6.7795 0.87678-0.84 1.1448-0.90976 3.7728-0.98205 3.8336-0.10544 3.9057 0.0017 3.5162 5.2297-0.15669 2.1031-0.16543 4.442-0.01943 5.1975 0.31585 1.6344 0.32497 13.707 0.01126 14.844-0.26756 0.96961-1.6186 1.2408-2.2701 0.45572zm47.813-1.0104c-0.44852-0.47939-1.0494-1.3352-1.3353-1.9017-0.28586-0.56655-0.62733-1.0301-0.75882-1.0301s-0.69259 0.48082-1.2469 1.0685c-1.7991 1.9074-4.7862 2.12-6.8606 0.48832-2.526-1.987-4.1176-8.4028-2.9179-11.763 0.52317-1.4652 2.8222-4.2451 4.0254-4.8673 1.7743-0.91754 3.5375-0.92688 5.4985-0.02913l1.7963 0.82239 0.44676-1.0692c0.50472-1.208 1.2793-2.0856 1.8343-2.0784 1.1828 0.01537 1.233 0.35502 1.3182 8.9099 0.05684 5.7128 0.21516 8.8281 0.50008 9.8402 0.34361 1.2206 0.34396 1.5689 0.0019 1.981-0.61094 0.73614-1.382 0.61166-2.302-0.37165zm-5.7487-5.0719c0.55156-0.8277 1.298-2.1008 1.6587-2.829 0.63182-1.2755 2.2515-6.4489 2.2509-7.1898-2.57e-4 -0.35798-5.168-0.54886-5.4757-0.20226-0.07737 0.08716-0.64915 0.83295-1.2706 1.6573-1.8586 2.4653-1.9813 6.1674-0.29086 8.7744 1.1302 1.743 1.8583 1.694 3.1275-0.21063z" fill="#fafafa" stroke-width=".31695"/>
 <style type="text/css">.st0{fill:#FC0C18;}
	.st1{fill:#FC0C18;}</style>
</svg>
