<svg width="480" height="320" version="1.1" viewBox="0 0 480 320" xml:space="preserve" xmlns="http://www.w3.org/2000/svg"><defs><linearGradient id="a" x1="95.956" x2="68.019" y1="-14.236" y2="95.695" gradientTransform="matrix(3.7795 0 0 3.7795 0 -3.766e-6)" gradientUnits="userSpaceOnUse"><stop stop-color="#a56de2" offset="0"/><stop stop-color="#452981" offset=".69626"/><stop stop-color="#273445" offset="1"/></linearGradient></defs><rect width="480" height="320" ry="24" fill="url(#a)"/><path d="m240.01 130.46c-24.594 0-44.533 5.4908-44.533 12.262s19.939 12.26 44.533 12.26c24.594 0 44.531-5.4888 44.531-12.26s-19.937-12.262-44.531-12.262zm-1.2812 4.6367v2.166c-2.2709 0-4.5319 0.02011-6.8027 0.04101-1.1042 0.0104-2.0098 0.96872-2.0098 2.125v6.7715c0 1.1979 0.90558 2.1458 2.0098 2.1562 2.2604 0.0208 4.511 0.04296 6.7715 0.04296v2.1445c-2.2605-0.0104-4.5215-0.0312-6.7715-0.0625-2.2084-0.0417-4.0098-1.9778-4.0098-4.3008v-6.7207c0-2.3334 1.791-4.2591 4.0098-4.3008 2.2709-0.0312 4.5318-0.0521 6.8027-0.0625zm4.75 0.03125c2.198 0.0104 4.4056 0.04043 6.6035 0.08203v2.125c-2.1979-0.0312-4.3958-0.0521-6.5937-0.0625-1.0938-0.0104-2 0.94854-2 2.1465v6.834c0 1.1875 0.89581 2.1549 2 2.1445 1.5312-0.0104 3.0527-0.02011 4.584-0.04101v-5.7812h-3.6562v-2.1465c1.8855 0 3.7702 0.01109 5.666 0.02149v8.5312c1.2604-3.948 2.5208-7.8638 3.7813-11.729 0.37497-1.2709 1.5839-2.1771 3.0215-2.125 1.4375 0.0521 2.6569 1.0195 3.0215 2.2695 1.4063 4.2918 2.8008 8.5006 4.207 12.584-2.6876 0.13542-5.3841 0.24023-8.082 0.33398v-2.084c1.7709-0.0417 3.541-0.08395 5.3223-0.14649-1.1459-3.3959-2.2916-6.8645-3.4375-10.375-0.17708-0.4271-0.58333-0.71809-1.0312-0.72851-0.44793-0.0104-0.85416 0.26041-1.0312 0.6875-1.375 4.1876-2.75 8.4491-4.125 12.762-0.5521 0.0104-1.1048 0.0189-1.6465 0.0293-2.1979 0.0417-4.3958 0.07359-6.5937 0.08399-2.2188 0.0104-4.0215-1.916-4.0215-4.291v-6.834c0-2.3751 1.7929-4.3014 4.0117-4.291zm-16.502 0.14453v2.1152c-2.1251 0.0417-4.2383 0.08394-6.3633 0.14648-1.4896 0.0417-2.6992 1.3007-2.6992 2.8008s1.2096 2.7298 2.6992 2.7402c0.55206 0.0104 1.1139 0.01108 1.666 0.02148 1.2292 0 2.2285 1.0403 2.2285 2.332s-0.99932 2.3125-2.2285 2.2812c-2.1251-0.0521-4.2499-0.10351-6.375-0.16601v-1.9902c2.1146 0.0417 4.2402 0.07285 6.3652 0.09375 0.125 0 0.22852-0.1035 0.22852-0.22851 0-0.13542-0.10352-0.24024-0.22852-0.24024-0.55206-0.0104-1.0944-0.00913-1.6465-0.01953-2.6042-0.0417-4.7188-2.1881-4.7188-4.7715-0.0104-2.6042 2.1048-4.8118 4.709-4.916 2.125-0.0729 4.2382-0.14714 6.3633-0.19922zm29.867 2.1953c0.08529-0.00309 0.17383 0.01107 0.25977 0.04493 0.18751 0.0729 0.34439 0.22981 0.39648 0.42773 1.0625 3.2918 2.1347 6.5312 3.1973 9.7188-1.5626 0.0417-3.1256 0.08394-4.6777 0.11523v-1.8555c-0.46872 1.4583-0.9466 2.9375-1.4258 4.4375-0.79169 0.0208-1.5735 0.0417-2.3652 0.0625 1.3438-4.2293 2.6973-8.4055 4.041-12.51 0.08594-0.26563 0.31836-0.43213 0.57422-0.44141zm-18.137 0.30469c0.0208 0.71877 0.02149 1.4375 0.02149 2.1562-1.9584 0-3.9069 0.01109-5.8652 0.02149-0.46877 0-0.47852 0.5-0.47852 0.5 1.625-0.0104 3.2598-0.00977 4.8848-0.00977v2.1445h-6.8848v-3.125c0-0.89585 0.67576-1.6341 1.5195-1.6445 2.2709-0.0208 4.5319-0.03247 6.8027-0.04297zm4.8027 0.01172c2.198 0.0104 4.3958 0.02988 6.5938 0.05078v2.1152l-5.6562-0.03125c-0.46876 0.0104-0.46875 0.50976-0.46875 0.50976-0.0208 1.6042-0.01172 3.209-0.01172 4.8027 0 0.27084 0.20832 0.5 0.46875 0.5h1.1777v-0.5h-1.1777v-2.1465h3.1875v4.7832c-1.375 0.0104-2.7382 0.0189-4.1133 0.0293-0.84377 0-1.5312-0.73826-1.5312-1.6445v-6.834c0-0.90628 0.68748-1.6452 1.5312-1.6348zm-16.533 0.09375v2.1035c-2.1251 0.0208-4.2383 0.04106-6.3633 0.07226-0.12501 0-0.24024 0.11458-0.24024 0.25s0.10482 0.24024 0.24024 0.24024l1.6562-0.03125c2.6042-0.0313 4.7188 2.1777 4.7188 4.9277s-2.1145 4.916-4.7188 4.8223c-2.125-0.0729-4.2506-0.15624-6.3652-0.25v-2.0195c2.1251 0.0729 4.2499 0.13542 6.375 0.1875 1.4896 0.0417 2.6973-1.1992 2.6973-2.7617 0-1.5625-1.2076-2.8229-2.6973-2.8125-0.5521-0.0104-1.1035-0.01109-1.666-0.02149-1.2292 0-2.2305-1.0098-2.2305-2.2598 0-1.2396 1.0013-2.2806 2.2305-2.3223 2.125-0.0521 4.2382-0.0937 6.3633-0.125zm3.4277 5.207h6.8867v2.1465c-1.625 0-3.2617-0.01109-4.8867-0.02149 0 0.51043 0.46875 0.52149 0.46875 0.52149 1.948 0.0104 3.886 0.02148 5.834 0.02148v2.1348c-2.2604 0-4.511-0.00972-6.7715-0.04102-0.84377-0.0104-1.5312-0.74086-1.5312-1.6367v-3.125zm26.48 0.16797c-0.23959 0.72919-0.4694 1.4583-0.70898 2.1875 0.46876-0.0104 0.93878-0.01108 1.418-0.02148-0.23959-0.71877-0.46939-1.4472-0.70898-2.166zm36.217 0.70312c-0.28907 0.056-0.55925 0.20247-0.76758 0.43165-10.25 11.229-37.501 12.531-52.324 12.531-14.823 0-42.074-1.3025-52.324-12.521-0.41668-0.45834-1.084-0.58269-1.6465-0.32226-11.354 5.3126-35.022 11.209-55.449 11.209h-49.146c-22.886-0.0104-41.439 7.6665-41.439 17.125s18.554 17.137 41.439 17.137h317.12c22.886 0 41.439-7.6678 41.439-17.137 0.0104-9.4585-18.542-17.135-41.428-17.135h-49.148c-20.428 0-44.095-5.8964-55.449-11.209-0.28126-0.13021-0.58788-0.16534-0.87695-0.10938zm-204.31 15.141h302.46c21.844 0 39.553 5.9582 39.553 13.312s-17.718 13.312-39.562 13.312h-302.45c-21.844 0-39.555-5.9582-39.555-13.312s17.71-13.312 39.555-13.312zm-11.418 3.6152v4.6562h43.834c0-2.573-2.0833-4.6562-4.6562-4.6562h-39.178zm48.564 0v4.6562h29.084v-4.6562h-29.084zm37.656 0c-2.573 0-4.6562 2.0833-4.6562 4.6562h32.314 0.00977v-4.6562h-27.668zm37.834 0c-2.573 0-4.6562 2.0833-4.6562 4.6562h32.512c0-2.573-2.0833-4.6562-4.6562-4.6562h-23.199zm46.721 0v4.6562h33.928c0-2.573-2.0735-4.6562-4.6465-4.6562h-29.281zm43.637 0c-2.5626 0-4.6465 2.0833-4.6465 4.6562h24.355v4.1348c0 0.66668-0.54231 1.209-1.209 1.209h-13.771v5.5h11.793l3.8965 3.8965h10.688l-5.3008-5.3008c1.6206-1.2422 2.6758-3.1898 2.6758-5.377v-1.9375c0-3.7397-3.0312-6.7812-6.7812-6.7812h-21.699zm33.271 0v4.6562h8.1562v-4.6562h-8.1562zm10.824 0 2.9883 4.6562h9.6992l-2.9902-4.6562h-9.6973zm26.781 0-2.9902 4.6562h9.6992l2.9883-4.6562h-9.6973zm12.771 0v4.6562h29.084v-4.6562h-29.084zm-316.41 3.9258a5.2085 5.2085 0 0 0-5.209 5.209 5.2085 5.2085 0 0 0 5.209 5.209 5.2085 5.2085 0 0 0 5.207-5.209 5.2085 5.2085 0 0 0-5.207-5.209zm361.43 0a5.2085 5.2085 0 0 0-5.209 5.209 5.2085 5.2085 0 0 0 5.209 5.209 5.2085 5.2085 0 0 0 5.207-5.209 5.2085 5.2085 0 0 0-5.207-5.209zm-343.07 1.9375v13.533h8.1562v-13.533h-8.1562zm17.938 0v13.533h8.1582v-13.533h-8.1582zm17.939 0v13.533h8.1562v-13.533h-8.1562zm12.688 0v1.8027 4.6562 1.3965c0 3.1355 2.5409 5.666 5.666 5.666h23.418v-4.6562h-19.719c-0.66669 0.0104-1.209-0.53058-1.209-1.1973v-1.209h19.271v-4.6562h-18.062c-0.66669 0-1.209-0.5423-1.209-1.209v-0.59375h-8.1562zm33 0v7.8555c0 3.1355 2.5422 5.6777 5.6777 5.6777h2.4785 19.918c3.2396 0 5.8652-2.6256 5.8652-5.8652 0-3.2397-2.6256-5.8652-5.8652-5.8652h-13.719v4.6562h10.209c0.66668 0 1.207 0.54231 1.207 1.209 0 0.66669-0.54035 1.209-1.207 1.209h-15.199c-0.66669 0-1.209-0.5423-1.209-1.209v-7.668h-8.1562zm37.834 0v13.533h8.1582v-13.533h-8.1582zm24.355 0v4.1367h-14.979v5.5h14.979v3.8965h8.1562v-13.533h-8.1562zm27.021 0v13.533h8.1563v-13.533h-8.1563zm25.771 0v7.668c0 0.66669-0.5423 1.209-1.209 1.209h-15.188v4.6562h18.887c3.1355 0 5.6777-2.5422 5.6777-5.6777v-7.8555h-8.168zm13.219 0v13.533h8.1562v-13.533h-8.1562zm37.918 0v13.533h8.1562v-13.533h-8.1562zm14.594 0 8.709 13.533h11.521l8.709-13.533h-9.6992l-4.7695 7.418-4.7617-7.418h-9.709zm35.783 0v1.8027 4.6562 1.3965c0 3.1355 2.5409 5.666 5.666 5.666h23.418v-4.6562h-19.719c-0.66669 0.0104-1.209-0.53058-1.209-1.1973v-1.209h19.271v-4.6562h-18.062c-0.66669 0-1.209-0.5423-1.209-1.209v-0.59375h-8.1562z" fill="#fff"/></svg>
