<svg width="480" height="320" version="1.1" viewBox="0 0 127 84.667" xmlns="http://www.w3.org/2000/svg" xmlns:xlink="http://www.w3.org/1999/xlink">
 <defs>
  <linearGradient id="a" x1="84.247" x2="52.604" y1="-28.455" y2="53.418" gradientUnits="userSpaceOnUse">
   <stop stop-color="#64baff" offset="0"/>
   <stop stop-color="#3689e6" offset="1"/>
  </linearGradient>
 </defs>
 <rect width="127" height="84.667" ry="4.2333" fill="url(#a)" stroke-linecap="square" stroke-linejoin="round" stroke-width=".52917" style="paint-order:stroke fill markers"/>
 <path d="m108.08 14.763c-6.1448 0.04991-14.689 3.9743-22.356 10.911-3.0533 2.655-5.5757 5.5755-7.6997 8.4961l11.151-8.363-15.266 15.133c0 0.13275-0.13308 0.26541-0.13308 0.39816l15.399-11.682-15.665 16.328 15.665-11.947-15.001 15.93 15.001-12.213-14.47 16.328c5.1773 4.3808 17.523 0.5308 28.276-9.0273 0.64973-0.58786 1.2756-1.1846 1.8849-1.786-0.26967 0.1214-0.54915 0.19338-0.82239 0.19338h-12.877v-21.904h12.877c1.1948 0.13275 2.522 1.1951 2.522 2.5226v16.859c0 0.24291-0.0573 0.49116-0.1548 0.73277 8.7484-9.3277 12.509-19.648 8.2527-24.495-1.4934-1.6594-3.7909-2.4372-6.584-2.4145zm-57.004 0.42315c-0.79651 0-1.8582 0.66402-2.2564 1.195-0.53101 0.79651-1.0624 1.4604-0.79686 2.6551v6.7703c0 0.92926 0.66371 1.991 1.7257 1.8583 4.1153-0.13275 8.0978 2.14e-4 12.213-0.13254 0.13275-0.39825 0.26562-0.79677 0.26562-1.195v-6.2391h-5.3097c-0.39825 0.92926-0.92964 1.7259-1.4606 2.6551 2.124 0 1.8587-2.14e-4 2.9207 0.13254-0.13275 0.66375 2.11e-4 1.3276-0.13254 1.9913-3.186 0.13275-3.7174 0.13275-6.2396 0-0.2655-2.2568 0.13308-2.2567 0.13308-4.1152 0.39825-1.1948 1.0618-2.9204 2.522-2.7877h6.6378v-2.7882zm12.081 0v12.479h4.2483v-4.3808l1.1945 1.9913h4.1152c0.79651 0.66376 1.195 1.593 1.8588 2.3895h4.6459c-2.124-3.5843-4.3807-7.0356-6.5047-10.62-0.53101-0.92926-1.4604-1.9916-2.6551-1.8588zm-26.289 0.12493c-0.94741 0.07441-1.9205 0.7713-2.3852 1.4682-0.66376 0.92926-0.92928 1.9914-0.66378 3.3189v7.5667h13.143v-2.6551h-8.7617v-2.3895h7.169c0.531-0.79651 1.1947-1.593 1.7257-2.3895h-8.8948c0.53101-0.66376 0.66392-1.8584 1.5932-2.1239 2.2568 0 4.6464 0.13275 7.036 0v-2.7877h-9.558c-0.13275-0.0166-0.2677-0.01878-0.40305-0.0082zm-17.386 0.0082c-0.79651 0-1.46 0.53072-1.8583 1.1945-2.3895 3.717-4.7792 7.4345-7.036 11.284h4.5134c1.8585-2.7878 3.5845-5.7083 5.3102-8.4961 0.79651-0.79651 1.9915-0.53124 2.9207-0.53124-1.8585 3.0533-3.7173 5.974-5.5759 9.0273h4.5134c1.4603-2.5223 3.0534-5.0449 4.6465-7.5672 0.39825-0.66376 0.79667-1.4603 1.5932-1.3276v8.8948h4.2478v-12.346h-6.3716c-0.92926-0.13275-1.5932 0.79634-2.257 1.4601v-1.5926zm48.056 2.6551c0.53101 0.13275 1.0618 0.26531 1.4601 0.79632 0.79651 1.1948 1.4605 2.6548 2.257 3.8496h-3.7171zm28.807 7.6992v13.275h5.3102v-13.275zm-25.256 3.1125c-6.1213 0.0355-14.673 3.9565-22.402 10.826-0.87234 0.78926-1.695 1.596-2.4938 2.4085 0.40079-0.29175 0.9329-0.41717 1.5649-0.41717h12.877v8.7617h-5.0446v-4.5134h-5.1777v13.275h5.3102v-3.5845h5.0446v7.5982c1.7451-1.2296 3.4825-2.6129 5.1772-4.1462 3.0533-2.655 5.5757-5.5755 7.6997-8.4961l-11.151 8.3629 15.266-15.133c0-0.13275 0.13254-0.26595 0.13254-0.3987l-15.399 11.682 15.665-16.328-15.665 11.947 15.001-15.93-15.001 12.213 14.47-16.328c-1.4561-1.2321-3.4793-1.8135-5.8746-1.7996zm-25.3 13.655c-9.1235 9.47-13.124 20.105-8.7834 25.049 3.9521 4.3913 13.533 2.604 23.037-3.8501h-12.151c-1.3275 0-2.522-1.3273-2.522-2.522v-16.992c0-0.74129 0.14949-1.2901 0.41989-1.685z" fill="#fafafa" stroke-width=".27811"/>
 <style type="text/css">.st0{fill:#FC0C18;}
	.st1{fill:#FC0C18;}</style>
</svg>
