<?xml version="1.0" encoding="UTF-8" standalone="no"?>
<!-- Created with Inkscape (http://www.inkscape.org/) -->

<svg
   width="480"
   height="320"
   viewBox="0 0 127 84.666667"
   version="1.1"
   id="svg1543"
   inkscape:export-filename="/home/vitor/Dev/es-theme-material-tv-3-2/assets/logo/megadrive.png"
   inkscape:export-xdpi="96"
   inkscape:export-ydpi="96"
   inkscape:version="1.1.1 (3bf5ae0d25, 2021-09-20)"
   sodipodi:docname="megadrive.svg"
   xmlns:inkscape="http://www.inkscape.org/namespaces/inkscape"
   xmlns:sodipodi="http://sodipodi.sourceforge.net/DTD/sodipodi-0.dtd"
   xmlns:xlink="http://www.w3.org/1999/xlink"
   xmlns="http://www.w3.org/2000/svg"
   xmlns:svg="http://www.w3.org/2000/svg">
  <sodipodi:namedview
     id="namedview1545"
     pagecolor="#505050"
     bordercolor="#eeeeee"
     borderopacity="1"
     inkscape:pageshadow="0"
     inkscape:pageopacity="0"
     inkscape:pagecheckerboard="0"
     inkscape:document-units="px"
     showgrid="false"
     units="px"
     width="640px"
     inkscape:snap-page="true"
     showguides="true"
     inkscape:guide-bbox="true"
     inkscape:zoom="1"
     inkscape:cx="159"
     inkscape:cy="177"
     inkscape:window-width="1920"
     inkscape:window-height="1019"
     inkscape:window-x="0"
     inkscape:window-y="30"
     inkscape:window-maximized="1"
     inkscape:current-layer="layer1">
    <sodipodi:guide
       position="10.583333,76.729167"
       orientation="-1,0"
       id="guide2978"
       inkscape:label=""
       inkscape:locked="false"
       inkscape:color="rgb(0,0,255)" />
    <sodipodi:guide
       position="116.41667,7.9375"
       orientation="-1,0"
       id="guide2980"
       inkscape:label=""
       inkscape:locked="false"
       inkscape:color="rgb(0,0,255)" />
    <sodipodi:guide
       position="10.583333,71.4375"
       orientation="0,1"
       id="guide2982"
       inkscape:label=""
       inkscape:locked="false"
       inkscape:color="rgb(0,0,255)" />
    <sodipodi:guide
       position="116.41667,13.229167"
       orientation="0,1"
       id="guide2984"
       inkscape:label=""
       inkscape:locked="false"
       inkscape:color="rgb(0,0,255)" />
  </sodipodi:namedview>
  <defs
     id="defs1540">
    <linearGradient
       inkscape:collect="always"
       id="linearGradient2856">
      <stop
         style="stop-color:#f4679d;stop-opacity:1"
         offset="0"
         id="stop2852" />
      <stop
         style="stop-color:#bc245d;stop-opacity:1"
         offset="1"
         id="stop2854" />
    </linearGradient>
    <linearGradient
       inkscape:collect="always"
       xlink:href="#linearGradient2856"
       id="linearGradient2858"
       x1="10.583333"
       y1="-20.997528"
       x2="68.018951"
       y2="95.694702"
       gradientUnits="userSpaceOnUse" />
    <clipPath
       id="clip1">
      <path
         d="m 249,0 h 75 v 124.51172 h -75 z m 0,0"
         id="path2" />
    </clipPath>
    <clipPath
       id="clip2">
      <path
         d="m 421,0 h 90 v 124.51172 h -90 z m 0,0"
         id="path5" />
    </clipPath>
    <clipPath
       id="clip3">
      <path
         d="m 513,0 h 28 v 124.51172 h -28 z m 0,0"
         id="path8" />
    </clipPath>
    <clipPath
       id="clip4">
      <path
         d="m 659,4 h 86.87109 V 124 H 659 Z m 0,0"
         id="path11" />
    </clipPath>
    <marker
       id="DefaultArrow2"
       markerUnits="strokeWidth"
       viewBox="0 0 1 1"
       markerWidth="1"
       markerHeight="1"
       overflow="visible"
       orient="auto">
      <!-- REF_ARROW_STRAIGHT (-2) -->
      <g
         transform="scale(0.0092592592)"
         id="g8989">
        <!-- 1/108 -->
        <path
           d="M -9 54 L -9 -54 L 117 0 z"
           id="path8987" />
      </g>
    </marker>
    <marker
       id="DefaultArrow3"
       markerUnits="strokeWidth"
       viewBox="0 0 1 1"
       markerWidth="1"
       markerHeight="1"
       overflow="visible"
       orient="auto">
      <!-- REF_ARROW_ANGLED -->
      <g
         transform="scale(0.0092592592)"
         id="g8994">
        <path
           d="M -27 54 L -9 0 L -27 -54 L 135 0 z"
           id="path8992" />
      </g>
    </marker>
    <marker
       id="DefaultArrow4"
       markerUnits="strokeWidth"
       viewBox="0 0 1 1"
       markerWidth="1"
       markerHeight="1"
       overflow="visible"
       orient="auto">
      <!-- REF_ARROW_ROUNDED -->
      <g
         transform="scale(0.0092592592)"
         id="g8999">
        <path
           d="M -9,0 L -9,-45 C -9,-51.708 2.808,-56.580 9,-54 L 117,-9 C 120.916,-7.369 126.000,-4.242 126,0 C 126,4.242 120.916,7.369 117,9 L 9,54 C 2.808,56.580 -9,51.708 -9,45 z"
           id="path8997" />
      </g>
    </marker>
    <marker
       id="DefaultArrow5"
       markerUnits="strokeWidth"
       viewBox="0 0 1 1"
       markerWidth="1"
       markerHeight="1"
       overflow="visible"
       orient="auto">
      <!-- REF_ARROW_SPOT -->
      <g
         transform="scale(0.0092592592)"
         id="g9004">
        <path
           d="M -54, 0 C -54,29.807 -29.807,54 0,54 C 29.807,54 54,29.807 54,0 C 54,-29.807 29.807,-54 0,-54 C -29.807,-54 -54,-29.807 -54,0 z"
           id="path9002" />
      </g>
    </marker>
    <marker
       id="DefaultArrow6"
       markerUnits="strokeWidth"
       viewBox="0 0 1 1"
       markerWidth="1"
       markerHeight="1"
       overflow="visible"
       orient="auto">
      <!-- REF_ARROW_DIAMOND -->
      <g
         transform="scale(0.0092592592)"
         id="g9009">
        <path
           d="M -63,0 L 0,63 L 63,0 L 0,-63 z"
           id="path9007" />
      </g>
    </marker>
    <marker
       id="DefaultArrow7"
       markerUnits="strokeWidth"
       viewBox="0 0 1 1"
       markerWidth="1"
       markerHeight="1"
       overflow="visible"
       orient="auto">
      <!-- REF_ARROW_FEATHER -->
      <g
         transform="scale(0.0092592592)"
         id="g9014">
        <path
           d="M 18,-54 L 108,-54 L 63,0 L 108,54 L 18, 54 L -36,0 z"
           id="path9012" />
      </g>
    </marker>
    <marker
       id="DefaultArrow8"
       markerUnits="strokeWidth"
       viewBox="0 0 1 1"
       markerWidth="1"
       markerHeight="1"
       overflow="visible"
       orient="auto">
      <!-- REF_ARROW_FEATHER2 -->
      <g
         transform="scale(0.0092592592)"
         id="g9019">
        <path
           d="M -36,0 L 18,-54 L 54,-54 L 18,-18 L 27,-18 L 63,-54 L 99,-54 L 63,-18 L 72,-18 L 108,-54 L 144,-54 L 90,0 L 144,54 L 108,54 L 72,18 L 63,18 L 99,54 L 63,54 L 27,18 L 18,18 L 54,54 L 18,54 z"
           id="path9017" />
      </g>
    </marker>
    <marker
       id="DefaultArrow9"
       markerUnits="strokeWidth"
       viewBox="0 0 1 1"
       markerWidth="1"
       markerHeight="1"
       overflow="visible"
       orient="auto">
      <!-- REF_ARROW_HOLLOWDIAMOND -->
      <g
         transform="scale(0.0092592592)"
         id="g9024">
        <path
           d="M 0,45 L -45,0 L 0, -45 L 45, 0 z M 0, 63 L-63, 0 L 0, -63 L 63, 0 z"
           id="path9022" />
      </g>
    </marker>
    <filter
       id="StainedFilter">
      <feBlend
         mode="multiply"
         in2="BackgroundImage"
         in="SourceGraphic"
         result="blend"
         id="feBlend9027" />
      <feComposite
         in="blend"
         in2="SourceAlpha"
         operator="in"
         result="comp"
         id="feComposite9029" />
    </filter>
    <filter
       id="BleachFilter">
      <feBlend
         mode="screen"
         in2="BackgroundImage"
         in="SourceGraphic"
         result="blend"
         id="feBlend9032" />
      <feComposite
         in="blend"
         in2="SourceAlpha"
         operator="in"
         result="comp"
         id="feComposite9034" />
    </filter>
    <filter
       id="InvertTransparencyBitmapFilter">
      <feComponentTransfer
         id="feComponentTransfer9043">
        <feFuncR
           type="gamma"
           amplitude="1.055"
           exponent=".416666666"
           offset="-0.055"
           id="feFuncR9037" />
        <feFuncG
           type="gamma"
           amplitude="1.055"
           exponent=".416666666"
           offset="-0.055"
           id="feFuncG9039" />
        <feFuncB
           type="gamma"
           amplitude="1.055"
           exponent=".416666666"
           offset="-0.055"
           id="feFuncB9041" />
      </feComponentTransfer>
      <feComponentTransfer
         id="feComponentTransfer9053">
        <feFuncR
           type="linear"
           slope="-1"
           intercept="1"
           id="feFuncR9045" />
        <feFuncG
           type="linear"
           slope="-1"
           intercept="1"
           id="feFuncG9047" />
        <feFuncB
           type="linear"
           slope="-1"
           intercept="1"
           id="feFuncB9049" />
        <feFuncA
           type="linear"
           slope="1"
           intercept="0"
           id="feFuncA9051" />
      </feComponentTransfer>
      <feComponentTransfer
         id="feComponentTransfer9061">
        <feFuncR
           type="gamma"
           amplitude="1"
           exponent="2.4"
           offset="0"
           id="feFuncR9055" />
        <feFuncG
           type="gamma"
           amplitude="1"
           exponent="2.4"
           offset="0"
           id="feFuncG9057" />
        <feFuncB
           type="gamma"
           amplitude="1"
           exponent="2.4"
           offset="0"
           id="feFuncB9059" />
      </feComponentTransfer>
    </filter>
    <inkscape:perspective
       sodipodi:type="inkscape:persp3d"
       inkscape:vp_x="0 : 526.18109 : 1"
       inkscape:vp_y="0 : 1000 : 0"
       inkscape:vp_z="744.09448 : 526.18109 : 1"
       inkscape:persp3d-origin="372.04724 : 350.78739 : 1"
       id="perspective10" />
    <inkscape:perspective
       id="perspective2824"
       inkscape:persp3d-origin="0.5 : 0.33333333 : 1"
       inkscape:vp_z="1 : 0.5 : 1"
       inkscape:vp_y="0 : 1000 : 0"
       inkscape:vp_x="0 : 0.5 : 1"
       sodipodi:type="inkscape:persp3d" />
  </defs>
  <g
     inkscape:label="Camada 1"
     inkscape:groupmode="layer"
     id="layer1">
    <rect
       style="opacity:1;fill:url(#linearGradient2858);fill-opacity:1;stroke-width:0.529167;stroke-linecap:square;stroke-linejoin:round;paint-order:stroke fill markers"
       id="rect1569"
       width="127"
       height="84.666664"
       x="0"
       y="0"
       ry="4.2333331"
       inkscape:export-filename="/home/vitor/Dev/es-theme-material-tv-3-2/assets/logo/fbn.png"
       inkscape:export-xdpi="96"
       inkscape:export-ydpi="96" />
    <path
       style="fill:#ffffff;stroke-width:0.132342"
       d="m 23.194002,50.772608 c -3.715897,-0.20486 -7.830236,-1.17776 -9.917908,-2.34525 -4.9168727,-2.74968 -2.889826,-6.346227 4.365962,-7.746453 2.575664,-0.49705 5.206477,-0.66646 10.37061,-0.6678 9.862517,-0.0025 14.841205,-0.474897 18.738264,-1.777736 0.727883,-0.24334 2.425173,-1.002519 3.771756,-1.687064 3.427079,-1.742179 5.300956,-2.296186 8.8944,-2.629611 2.084572,-0.193421 6.227068,-0.08987 8.541345,0.213501 3.434063,0.450166 5.550089,1.077705 8.437173,2.502169 2.288381,1.129069 3.177221,1.478525 5.175835,2.034932 3.927116,1.093298 5.224156,1.21547 14.278484,1.344884 8.859947,0.126639 10.372297,0.218619 13.432747,0.816963 3.58046,0.700013 6.1638,2.001165 6.87016,3.460315 0.32946,0.68057 0.34705,1.11999 0.0713,1.78182 -0.93748,2.25036 -5.36869,4.05716 -11.42208,4.65728 -1.24595,0.12352 -79.399838,0.16379 -81.60809,0.0421 z m 79.405378,-1.10083 c 3.78046,-0.25103 6.344,-0.80985 8.48872,-1.85045 2.06308,-1.00098 2.7596,-2.00276 2.22177,-3.19546 -0.58262,-1.29202 -2.85497,-2.40891 -6.01234,-2.955154 -2.03438,-0.35196 -4.61743,-0.464623 -10.660186,-0.464948 -7.51752,-4.1e-4 -10.184751,-0.194619 -13.797357,-1.004649 -2.074505,-0.465153 -3.562959,-0.902871 -4.944044,-1.453911 l -1.146509,-0.457445 -0.970968,0.730979 c -0.534033,0.402044 -1.389319,0.905322 -1.900637,1.118408 -3.171277,1.321576 -11.043021,1.814534 -16.804199,1.052348 -2.57802,-0.341066 -5.451105,-1.339503 -6.626815,-2.302906 -0.310318,-0.254283 -0.627085,-0.462332 -0.703926,-0.462332 -0.07684,0 -0.602803,0.184175 -1.168807,0.409276 -2.186646,0.869643 -5.504253,1.612847 -8.837293,1.979718 -0.727883,0.08011 -4.896665,0.19713 -9.263961,0.260029 -8.319432,0.119816 -9.386957,0.191128 -11.98457,0.800566 -1.438402,0.33747 -2.734343,0.799101 -3.510548,1.250481 -1.139846,0.66287 -1.821276,1.78845 -1.574247,2.60033 0.478285,1.57194 3.410579,2.96255 7.673062,3.63886 1.332978,0.2115 3.509653,0.23729 25.806748,0.3057 44.32577,0.13599 53.675217,0.13608 55.716107,5e-4 z m -66.700518,-0.93265 c -14.538832,-0.0892 -14.304483,-0.0792 -16.729842,-0.71317 -1.207158,-0.31553 -2.526462,-1.01795 -3.096006,-1.64837 -1.674214,-1.85316 1.136714,-3.6468 6.444293,-4.112091 0.997243,-0.08742 15.648632,-0.136548 41.801305,-0.140159 35.901788,-0.005 40.394988,0.01681 41.456988,0.200927 2.97472,0.515683 5.16883,1.579073 5.43344,2.633343 0.21742,0.86627 -0.81677,1.9608 -2.43637,2.57855 -2.05178,0.78258 -3.54085,1.03004 -7.2982,1.21283 -2.783135,0.13541 -42.753539,0.12817 -65.575608,-0.0118 z m 37.538419,-1.13262 c 0.365354,-0.33064 0.532992,-1.05538 0.485733,-2.09994 l -0.04191,-0.9264 -0.959482,-0.0389 -0.959481,-0.0389 v 0.9719 c 0,0.57946 -0.06413,1.03602 -0.158811,1.13071 -0.108713,0.10871 -0.755822,0.15881 -2.051306,0.15881 h -1.892495 v 0.59241 0.59242 l 2.282904,0.0362 c 2.412878,0.0383 2.895755,-0.0172 3.29485,-0.37835 z m -48.919856,-1.37206 v -1.65428 h -0.926396 -0.926396 l -0.0371,1.61297 -0.03709,1.61297 0.500291,0.0551 c 0.275159,0.0303 0.70873,0.0489 0.963489,0.0413 l 0.463198,-0.0138 z m 9.065447,0 v -1.72045 H 32.656476 31.73008 v 1.72045 1.72045 h 0.926396 0.926396 z m 8.444431,1.158 -0.0407,-0.56246 -2.448332,-0.0348 c -2.112038,-0.03 -2.471056,-0.0653 -2.61376,-0.25689 -0.09099,-0.12217 -0.165428,-0.2703 -0.165428,-0.32918 0,-0.0589 1.101749,-0.10704 2.448332,-0.10704 h 2.448333 v -0.52937 -0.52937 h -2.314869 c -2.171541,0 -2.325103,-0.0164 -2.480166,-0.26469 -0.140639,-0.2252 -0.308626,-0.26468 -1.126032,-0.26468 h -0.960732 v 1.13148 c 0,0.76772 0.06657,1.26022 0.207077,1.53193 0.359896,0.69595 0.731953,0.76658 4.068571,0.77231 l 3.018397,0.005 z m 9.168157,0.0641 c 0.423183,-0.47388 0.50504,-1.08062 0.227857,-1.68897 -0.280216,-0.61501 -0.70431,-0.72419 -2.813022,-0.72419 h -1.925536 v 0.52937 0.52937 h 1.389594 c 1.375872,0 1.389594,0.003 1.389594,0.31542 0,0.21523 -0.09458,0.34077 -0.29777,0.39522 -0.484084,0.12973 -3.361387,0.0945 -3.730054,-0.0457 -0.322236,-0.12252 -0.339471,-0.17885 -0.339471,-1.10948 0,-1.1204 -0.02047,-1.13851 -1.290337,-1.14182 l -0.694798,-0.002 v 1.29398 c 0,1.38134 0.141134,1.78326 0.708958,2.01898 0.155985,0.0648 1.792328,0.10514 3.636315,0.0897 l 3.352706,-0.028 z m 3.429837,-1.22208 v -1.72045 H 53.63273 52.640163 v 1.72045 1.72045 h 0.992567 0.992567 z m 6.087746,0 v -1.72045 h -0.980934 -0.980935 l -0.08944,0.52937 -0.08944,0.52937 h -1.774988 -1.774988 v 0.64816 0.64815 l 1.783587,0.0955 1.78359,0.0955 0.08393,0.44739 0.08393,0.4474 h 0.977838 0.977839 z m 6.749457,-0.006 v -1.72625 l -0.959482,0.0389 -0.959481,0.0389 -0.03704,1.68737 -0.03704,1.68736 h 0.996519 0.996522 z m 9.89654,0.0389 -0.03704,-1.68736 -1.025653,-0.0387 -1.025653,-0.0387 v 1.72601 1.72602 h 1.062693 1.062691 z m 6.010101,0.98537 -0.693277,-0.70199 0.335342,-0.31504 c 0.350568,-0.32934 0.665645,-1.21989 0.543871,-1.53723 -0.05248,-0.13675 -0.346526,-0.18464 -1.133745,-0.18464 h -1.062891 v 0.37056 c 0,0.62434 -0.180447,0.68818 -1.945433,0.68818 h -1.62781 v 0.66171 0.66171 h 1.362736 1.362735 l 0.516916,0.52937 0.516915,0.52937 h 1.258958 1.258958 z m 3.415334,-1.01845 v -1.72045 h -1.05874 -1.058737 v 1.72045 1.72045 h 1.058737 1.05874 z m 7.599973,0.069 c 0.624038,-0.90832 1.134619,-1.68252 1.134619,-1.72045 0,-0.0379 -0.491323,-0.0669 -1.091823,-0.0643 l -1.091828,0.004 -0.595538,0.88038 c -0.32755,0.48421 -0.655095,0.89672 -0.727883,0.91669 -0.07279,0.02 -0.400333,-0.3634 -0.727883,-0.85195 l -0.595538,-0.88827 -1.042064,-0.039 c -1.24171,-0.0464 -1.246942,-0.19416 0.06773,1.91188 l 0.937474,1.5018 h 1.299057 1.299062 z m 10.133892,1.05594 v -0.59554 l -2.41524,-0.002 c -2.516137,-0.002 -2.923218,-0.077 -2.665669,-0.49049 0.129734,-0.20828 0.407675,-0.23954 2.415239,-0.27158 l 2.26865,-0.0362 v -0.52624 -0.52625 h -2.23362 c -1.82398,0 -2.263828,-0.0364 -2.398365,-0.19852 -0.1192,-0.14362 -0.434686,-0.19851 -1.141116,-0.19851 H 97.37186 v 1.16164 c 0,1.28533 0.126144,1.58856 0.842583,2.02542 0.375323,0.22887 0.69404,0.2529 3.359287,0.25335 l 2.94461,4.9e-4 z m -75.435106,-1.19108 v -1.65428 h -0.992567 -0.992568 v 1.65428 1.65427 h 0.992568 0.992567 z m -10.644541,0.26944 c 0.648317,-0.27088 0.931929,-0.94498 0.665678,-1.58222 -0.222173,-0.53172 -0.551839,-0.73853 -1.177314,-0.73853 -1.263022,0 -1.611967,1.81459 -0.446439,2.32158 0.520546,0.22644 0.413943,0.22653 0.958075,-10e-4 z m 91.039577,-0.23636 c 0.48833,-0.42431 0.57344,-1.11819 0.196,-1.59803 -0.39801,-0.50598 -0.84952,-0.66281 -1.3924,-0.48364 -0.86321,0.28488 -1.11357,1.25422 -0.50938,1.97226 0.43578,0.51789 1.18067,0.56567 1.70578,0.10941 z m -69.708396,-2.08368 2.282905,-6.8e-4 v -0.52937 -0.52937 h -3.558763 -3.558763 l -0.0622,0.49628 c -0.03421,0.27296 -0.03201,0.54936 0.0049,0.61423 0.03725,0.0655 0.63236,0.0805 1.338058,0.0338 0.699038,-0.0463 2.298285,-0.0845 3.553882,-0.0849 z m 11.414524,-0.46987 v -0.60152 l -3.628976,0.0391 -3.628974,0.0391 -0.341295,0.32084 c -0.187711,0.17646 -0.341294,0.42956 -0.341294,0.56245 0,0.22856 0.214587,0.24162 3.97027,0.24162 h 3.970269 z m 9.396303,0.41673 c 0,-0.10165 -0.210512,-0.36964 -0.467804,-0.59555 l -0.467802,-0.41073 h -2.96687 c -2.018365,0 -3.077808,0.0506 -3.313877,0.15811 -0.291974,0.13303 -0.724185,0.70612 -0.724185,0.96022 0,0.04 1.78662,0.0727 3.970268,0.0727 3.309997,0 3.97027,-0.0307 3.97027,-0.1848 z m 13.234228,0.0545 c 0,-0.0716 -0.173696,-0.32474 -0.385992,-0.56245 l -0.385992,-0.4322 -3.78279,-0.0389 -3.78279,-0.0389 v 0.51312 c 0,0.28222 0.0397,0.55283 0.08823,0.60135 0.146221,0.14622 8.249335,0.10494 8.249335,-0.042 z m 9.528646,-0.0108 c 0,-0.31908 -0.312836,-0.68663 -0.734284,-0.86273 -0.526151,-0.21984 -5.77471,-0.27218 -6.324705,-0.0631 -0.179719,0.0683 -0.45159,0.25823 -0.604155,0.42199 -0.595525,0.63922 -0.563199,0.64486 3.692875,0.64486 2.721892,0 3.970269,-0.0444 3.970269,-0.14104 z m 3.4409,-0.4545 v -0.59554 h -1.05874 -1.058737 v 0.52058 c 0,0.58352 0.0619,0.61183 1.422681,0.65067 l 0.694796,0.0198 v -0.59554 z m 3.573242,0.52653 c 0,-0.038 -0.1568,-0.30595 -0.348443,-0.59554 l -0.348443,-0.52653 H 88.61332 87.565814 l 0.409742,0.59554 0.409742,0.59554 h 0.986207 c 0.542417,0 0.986212,-0.0311 0.986212,-0.069 z m 5.823063,-0.52653 0.409741,-0.59554 H 95.47684 94.363159 l -0.345382,0.52191 -0.345387,0.52191 0.559399,0.0505 c 1.531871,0.13831 1.506111,0.14491 1.948991,-0.49879 z m -62.597908,0.34168 c 0,-0.29858 -0.192808,-0.56467 -0.538834,-0.7436 -0.309107,-0.15985 -1.241252,-0.19362 -5.343826,-0.19362 h -4.969408 v 0.52937 0.52937 h 5.426034 c 3.206921,0 5.426034,-0.0497 5.426034,-0.12152 z m 70.935468,-0.40783 v -0.52937 h -3.57324 -3.57324 v 0.52937 0.52937 h 3.57324 3.57324 z m -38.379263,-2.65011 c 3.878378,-0.293302 6.577652,-1.035366 7.642767,-2.101093 1.779245,-1.780268 -2.045575,-3.493271 -8.572017,-3.839105 -5.993412,-0.317589 -11.75007,0.65523 -12.957012,2.189608 -1.850103,2.352025 5.637558,4.374394 13.886262,3.75059 z m -8.116994,-1.540584 c -0.220069,-0.220069 -0.03377,-0.308798 0.648354,-0.308798 0.940495,0 1.248552,-0.162487 1.248552,-0.658557 0,-0.440513 -0.135144,-0.553317 -0.789558,-0.659041 -0.341503,-0.05517 -0.478344,-0.149618 -0.507166,-0.350041 -0.06106,-0.424594 0.270518,-0.601305 1.043979,-0.556382 1.008067,0.05855 1.033877,0.3672 0.03217,0.384777 -0.682553,0.01197 -0.720314,0.02575 -0.325925,0.118891 0.986762,0.233036 1.324954,1.207412 0.627343,1.807471 -0.287912,0.24765 -0.513897,0.309909 -1.124909,0.309909 -0.420539,0 -0.80432,-0.03971 -0.852844,-0.08823 z m 2.883458,-0.23661 c -0.283812,-0.283809 -0.32484,-0.44337 -0.32484,-1.263267 0,-0.819898 0.04103,-0.979456 0.32484,-1.263267 0.278721,-0.278722 0.447824,-0.324841 1.191081,-0.324841 0.681762,0 0.86624,0.04228 0.86624,0.198514 0,0.155449 -0.180868,0.198513 -0.833757,0.198513 -0.472021,0 -0.902657,0.0689 -0.992567,0.158811 -0.09222,0.09222 -0.15881,0.534216 -0.15881,1.054082 0,1.061011 0.115596,1.169267 1.248551,1.169267 0.566512,0 0.736583,0.04582 0.736583,0.198516 0,0.156235 -0.184478,0.198511 -0.86624,0.198511 -0.743257,0 -0.91236,-0.04612 -1.191081,-0.324839 z m 2.520078,0.0056 c -0.290196,-0.290196 -0.330415,-0.444645 -0.330415,-1.268844 0,-0.824753 0.04011,-0.97854 0.331148,-1.269575 0.293141,-0.293141 0.424842,-0.326626 1.147491,-0.291754 0.505418,0.02439 0.837146,0.1024 0.870961,0.20482 0.03987,0.12077 -0.173438,0.165428 -0.790167,0.165428 -0.480598,0 -0.913248,0.06846 -1.003595,0.158811 -0.09222,0.09222 -0.158811,0.534216 -0.158811,1.054082 0,1.010361 0.133712,1.169267 0.983867,1.169267 h 0.471898 v -0.661708 c 0,-0.647009 -0.0088,-0.661713 -0.397027,-0.661713 -0.270903,0 -0.397027,-0.06537 -0.397027,-0.205765 0,-0.162907 0.130935,-0.197363 0.628626,-0.165428 l 0.628626,0.04034 0.06617,0.7236 0.06617,0.723604 0.310903,-0.988288 c 0.170997,-0.543557 0.395697,-1.122282 0.499335,-1.286056 0.252575,-0.399134 0.908385,-0.407422 1.118864,-0.01414 0.204282,0.381704 0.916257,2.499324 0.916257,2.725216 0,0.240697 -1.607408,0.179534 -1.687888,-0.06423 -0.03838,-0.116224 0.125794,-0.165428 0.55195,-0.165428 0.333613,0 0.606569,-0.04447 0.606569,-0.0988 0,-0.263501 -0.719317,-2.228971 -0.845747,-2.310933 -0.225822,-0.146396 -0.316331,0.01729 -0.787697,1.424567 l -0.440801,1.316026 -1.014624,0.03866 c -0.931813,0.03551 -1.041591,0.01171 -1.345039,-0.291751 z m 2.581115,0.220334 c 0,-0.239787 0.8255,-2.547917 0.91126,-2.547917 0.0838,0 0.676848,1.660623 0.676848,1.895267 0,0.04942 -0.23176,0.08987 -0.515022,0.08987 -0.438985,0 -0.527282,0.04887 -0.598062,0.330851 -0.07328,0.291962 -0.475024,0.488112 -0.475024,0.231929 z m 1.058739,-1.08434 c 0,-0.06849 -0.05955,-0.161339 -0.132342,-0.206325 -0.07279,-0.04499 -0.132343,0.01105 -0.132343,0.124532 0,0.11348 0.05955,0.206326 0.132343,0.206326 0.07279,0 0.132342,-0.05604 0.132342,-0.124533 z m -9.101157,0.362474 c 0.03121,-0.09447 0.260455,-0.2086 0.509428,-0.253607 0.248972,-0.04502 0.357688,-0.08967 0.241591,-0.09926 -0.341835,-0.02821 -0.693252,-0.518126 -0.693252,-0.966469 0,-0.290884 0.110603,-0.511401 0.367202,-0.732119 0.314598,-0.270605 0.482148,-0.310264 1.169549,-0.276825 0.494462,0.02405 0.823304,0.102509 0.856963,0.204457 0.03998,0.121082 -0.178121,0.165428 -0.813584,0.165428 -0.773664,0 -0.891176,0.03506 -1.079173,0.321981 -0.306386,0.467605 -0.07087,0.825165 0.635527,0.964862 0.479209,0.09477 0.561909,0.159201 0.561909,0.43779 0,0.3117 -0.04155,0.328481 -0.906455,0.366106 -0.696843,0.03031 -0.893332,-2.91e-4 -0.849705,-0.132346 z m 3.233982,0.07086 c -0.04852,-0.04852 -0.08823,-0.227187 -0.08823,-0.397027 0,-0.286074 0.05357,-0.3088 0.727882,-0.3088 0.533932,0 0.727883,0.04912 0.727883,0.184355 0,0.101396 0.08933,0.218631 0.198513,0.260532 0.109183,0.04192 0.198514,0.137598 0.198514,0.212672 0,0.149847 -1.618707,0.194124 -1.764564,0.04827 z m 2.514504,0 c -0.174312,-0.174312 -0.09375,-1.595233 0.09954,-1.755649 0.238968,-0.198325 1.559635,-0.130982 1.630158,0.08313 0.03502,0.106334 -0.178547,0.171428 -0.651309,0.198514 l -0.703421,0.0403 -0.04069,0.562455 c -0.02335,0.322723 0.01719,0.562457 0.0951,0.562457 0.07469,0 0.101518,-0.08933 0.05962,-0.198516 -0.05571,-0.145172 0.01653,-0.198514 0.268837,-0.198514 0.295122,0 0.345015,0.05741 0.345015,0.39703 0,0.372092 -0.03186,0.397027 -0.507311,0.397027 -0.279023,0 -0.547016,-0.03972 -0.59554,-0.08823 z m -2.602732,-1.2749 c 0,-0.475396 0.255792,-0.622009 1.085206,-0.622009 0.59407,0 0.767586,0.04487 0.767586,0.198514 0,0.148423 -0.175316,0.204127 -0.694797,0.220761 -0.571586,0.0183 -0.606789,0.03145 -0.198514,0.07416 0.319624,0.03343 0.496284,0.119732 0.496284,0.242437 0,0.14271 -0.182669,0.190525 -0.727883,0.190525 -0.671301,0 -0.727882,-0.02366 -0.727882,-0.304388 z m 7.642767,-0.489432 c 0.09099,-0.102032 0.165428,-0.304093 0.165428,-0.449024 0,-0.260283 -0.0025,-0.260364 -0.205815,-0.0066 -0.200052,0.249702 -0.202035,0.249045 -0.07083,-0.02347 0.07424,-0.154203 0.09242,-0.330901 0.04039,-0.392663 -0.05203,-0.06176 0.0096,-0.03252 0.136998,0.06497 0.12738,0.0975 0.231599,0.281794 0.231599,0.409546 0,0.127751 -0.104219,0.311137 -0.231599,0.407525 -0.197027,0.14909 -0.206905,0.147557 -0.06617,-0.01026 z m -0.475388,-0.397286 c 0,-0.181971 0.03004,-0.256413 0.06675,-0.165428 0.03671,0.09099 0.03671,0.239871 0,0.330856 -0.03671,0.09099 -0.06675,0.01654 -0.06675,-0.165428 z"
       id="path7444" />
  </g>
  <style
     type="text/css"
     id="style3952">
	.st0{fill:#FC0C18;}
	.st1{fill:#FC0C18;}
</style>
</svg>
