<svg width="480" height="320" version="1.1" viewBox="0 0 480 320" xml:space="preserve" xmlns="http://www.w3.org/2000/svg"><defs><linearGradient id="a" x1="84.247" x2="52.604" y1="-28.455" y2="53.418" gradientTransform="scale(3.7795)" gradientUnits="userSpaceOnUse"><stop stop-color="#1facff" offset="0"/><stop stop-color="#1c76d9" offset="1"/></linearGradient></defs><rect width="480" height="320" ry="24" fill="url(#a)"/><path d="m141.21 134.84c-1.1878 0-2.3026 0.67716-2.9695 1.792l-6.9079 11.659v36.863h47.157v-10.669h-32.758v-9.0752h26.444l6.3139-10.669h-32.758v-1.4587l3.4904-5.8868c0.6668-1.1253 1.7817-1.8026 2.9695-1.8026h26.298v-10.659l-21.828-0.0936zm54.033 0c-1.542 0-2.9902 0.87504-3.855 2.3337l-8.3249 14.066v28.225c0 3.1466 2.24 5.6994 5.0115 5.6994h42.822c2.7715 0 5.0116-2.5528 5.0116-5.6994v-24.672h-18.973l-6.2931 10.627h6.1472v0.0415h4.72v9.0335h-24.047v-18.275l5.2201-8.8249c0.6668-1.1253 1.7817-1.8026 2.9695-1.8026h27.371v-10.659h-22.964l0.052-0.0936zm-121.71 0.0936c-2.3652 0-4.5846 1.3442-5.9078 3.5738l-27.631 46.646h17.348l22.193-37.477h8.7832l-22.193 37.477h17.348l23.172-39.124c0.2917-0.50011 0.9794-0.26035 0.9794 0.33354v38.79h14.399v-50.22h-22.359c-2.3652 0-4.5844 1.3337-5.9076 3.5738l-2.9487 4.9804v-8.5542zm169.77 0v50.231h14.399v-39.572h2.3964c1.3962 0 2.709 0.79193 3.4904 2.1152l10.513 17.744h-16.4l6.3139 10.669h16.4l5.3448 9.0333h17.358l-27.6-46.605c-1.3337-2.2609-3.5842-3.6156-5.9806-3.6156zm95.293 0c-3.1257 0-6.0535 1.7713-7.804 4.7199l-10.211 17.254c-0.3751 0.62515-0.573 1.365-0.573 2.1152v2.0421c0 0.75017 0.1979 1.49 0.573 2.1152l10.221 17.254c1.7504 2.9486 4.6783 4.7197 7.804 4.7197h39.384v-10.669h-33.372l-7.2099-12.17c-0.8127-1.3753-0.8127-3.1674 0-4.5427l7.2099-12.17h33.362v-10.669h-27.038zm43.416 0v50.231h39.384c3.1257 0 6.0535-1.7713 7.8039-4.7199l10.221-17.254c0.3751-0.62515 0.5731-1.365 0.5731-2.1152v-2.0421c0-0.75017-0.198-1.49-0.5731-2.1152l-10.221-17.264c-1.7504-2.9486-4.6782-4.7199-7.8039-4.7199h-12.347zm14.399 10.669h18.963l7.2101 12.17c0.8127 1.3753 0.8127 3.1674 0 4.5427l-7.2101 12.17h-18.963zm-100.95 7.6684v13.805h17.858v-13.805z" fill="#fff"/></svg>
