<svg width="480" height="320" version="1.1" viewBox="0 0 127 84.667" xmlns="http://www.w3.org/2000/svg">
 <defs>
  <linearGradient id="a" x1="95.956" x2="68.019" y1="-14.236" y2="95.695" gradientUnits="userSpaceOnUse">
   <stop stop-color="#a56de2" offset="0"/>
   <stop stop-color="#452981" offset=".69626"/>
   <stop stop-color="#273445" offset="1"/>
  </linearGradient>
 </defs>
 <rect x="1.25e-7" y="1.3549e-6" width="127" height="84.667" ry="4.2333" fill="url(#a)" stroke-linecap="square" stroke-linejoin="round" stroke-width=".52917" style="paint-order:stroke fill markers"/>
 <path transform="matrix(.26458 0 0 .26458 -.00025 0)" d="m192.49 240v20.289c-0.02873 2.2833-0.98347 3.4688-2.7754 3.4688-1.763 0-2.7453-1.1702-2.832-3.4102h-8.0352c-0.02872 6.8209 4.654 9.6524 10.348 9.6524 6.5608 0 11.184-3.9305 11.213-9.7109v-20.289h-7.918zm21.85 7.1113c-6.633 0-9.8993 3.4674-10.174 7.5137h7.3418c0.18788-1.3728 1.1994-2.0234 2.7168-2.0234 1.3873 0 2.3691 0.63689 2.3691 1.793v0.05664c0 1.2861-1.4162 1.6903-5.1445 1.9648-4.581 0.33237-8.1504 2.1828-8.1504 7.0527 0 4.422 2.978 6.4746 7.2266 6.4746 2.8902 0 5.0721-0.98318 6.416-3.4688h0.17188v3.1211h7.457v-15.201c0-4.1041-3.8865-7.2832-10.23-7.2832zm28.381 0c-3.2948 0-5.3751 1.9058-6.2422 4.1602h-0.17383v-3.8711h-7.918v30.52h7.9766v-11.965h0.11523c0.92486 2.2544 3.0641 3.9297 6.1856 3.9297 4.7399 0 8.7285-3.6988 8.7285-11.387 0-8.0348-4.2788-11.387-8.6719-11.387zm22.023 0c-6.633 0-9.8993 3.4674-10.174 7.5137h7.3418c0.18788-1.3728 1.1994-2.0234 2.7168-2.0234 1.3873 0 2.3691 0.63689 2.3691 1.793v0.05664c0 1.2861-1.4162 1.6903-5.1445 1.9648-4.581 0.33237-8.1504 2.1828-8.1504 7.0527 0 4.422 2.978 6.4746 7.2266 6.4746 2.8902 0 5.0721-0.98318 6.416-3.4688h0.17382v3.1211h7.457v-15.201c0-4.1041-3.8884-7.2832-10.232-7.2832zm28.672 0c-3.2659 0-5.854 1.7043-6.8223 4.5078h-0.23046v-4.2188h-7.5723v22.195h7.9766v-12.484c0.01436-2.1966 1.2585-3.5274 3.2383-3.5274 2.0087 0 3.1922 1.3308 3.1777 3.5274v12.484h7.9766v-14.162c0.01436-4.8266-3.0331-8.3223-7.7441-8.3223zm-53.701 6.127c2.1966 0 3.4688 1.9649 3.4688 5.2598 0 3.2948-1.2722 5.2598-3.4688 5.2598-2.1966 0-3.5254-2.0227-3.5254-5.2598 0-3.2948 1.3288-5.2598 3.5254-5.2598zm-23.062 6.6465v1.8496c0 2.0231-1.721 3.1797-3.5274 3.1797-1.3584 0-2.3105-0.66542-2.3105-1.9082 0-1.1416 0.80847-2.0215 2.6582-2.3106 1.2717-0.20232 2.3415-0.46372 3.1797-0.81055zm50.404 0v1.8496c0 2.0231-1.719 3.1797-3.5254 3.1797-1.3584 0-2.3125-0.66542-2.3125-1.9082 0-1.1416 0.80848-2.0215 2.6582-2.3106 1.2717-0.20232 2.3415-0.46372 3.1797-0.81055z" fill="#fff" stroke-width="1.0173"/>
 <path transform="matrix(.26458 0 0 .26458 -.00025 0)" d="m240 128.08s-8.295 0.14293-10.512 0.35742c-4.2905 0.35754-8.5793 0.78723-12.727 1.7168-4.1473 0.85806-8.0816 2.0016-12.086 3.4316-2.9317 1.0726-5.8619 2.5026-8.6504 3.8613-1.2156 0.64353-2.3606 1.3591-3.5762 2.0742-1.2871 0.78656-2.5744 1.6443-3.8613 2.3594-1.6446 0.92957-3.2887 1.7166-5.0762 2.4316-2.7887 1.1441-5.792 2.0736-8.6523 2.9316-2.9317 0.85806-5.2906 1.5721-8.9375 2.2871-3.6468 0.71505-8.5103 1.5014-12.801 2.002-3.7897 0.42905-7.5794 0.78819-11.369 1.0742-6.2925 0.42905-12.656 0.64218-19.02 0.78516-4.2901 0.07151-8.438-0.14138-12.729-0.21289-5.5774-0.14302-11.369-0.35786-16.875-0.21485-5.7917 0.14302-11.441 0.28571-17.232 1.0723-5.2199 0.71505-10.296 1.4292-15.373 2.8594-3.8612 1.0726-7.7948 2.4319-11.299 4.291-4.5048 2.5742-9.2246 5.2907-9.2246 10.582 0 4.2901 4.0767 8.8672 8.8672 11.441 4.1473 2.2166 7.3654 3.5043 11.227 4.6484 5.077 1.4301 10.511 2.1443 15.73 2.8594 5.7917 0.78655 11.585 0.92925 17.377 1.0723 50.052 0.28603 146.8 0 146.8 0s96.749 0.28603 146.8 0c5.7917-0.14302 11.583-0.28572 17.375-1.0723 5.2199-0.71505 10.656-1.4292 15.732-2.8594 3.8612-1.0726 7.0793-2.4317 11.227-4.6484 4.7909-2.5742 8.8652-7.1513 8.8652-11.441 0-5.2913-4.7198-8.0078-9.2246-10.582-3.5037-1.7876-7.5072-3.2184-11.297-4.291-5.077-1.4301-10.153-2.2158-15.373-2.8594-5.7917-0.78656-11.371-1.0008-17.234-1.0723-5.5774-0.14301-11.369 0.14338-16.875 0.21485-4.2905 0.07151-8.4361 0.2844-12.727 0.21289-6.2925-0.07151-12.658-0.35615-19.021-0.78516-3.7897-0.28603-7.6512-0.64517-11.369-1.0742-4.2905-0.50052-9.152-1.2869-12.799-2.002-3.6467-0.71505-6.0077-1.4291-8.9395-2.2871-2.9317-0.85806-5.8619-1.7876-8.6504-2.9316-1.7876-0.71505-3.3622-1.5021-5.0781-2.4316-1.2871-0.71505-2.5744-1.5728-3.8613-2.3594-1.2156-0.71504-2.2871-1.4306-3.5742-2.0742-2.8602-1.3586-5.7206-2.7886-8.6523-3.8613-3.933-1.4301-7.9367-2.5736-12.084-3.4316-4.2187-0.85807-8.5094-1.2878-12.729-1.7168-2.1451-0.21453-10.51-0.35742-10.51-0.35742h-0.00195zm1.6113 6.5078c22.166 0 40.188 4.2176 40.188 9.4375 0 5.2199-18.019 9.4394-40.188 9.4394-22.168 0-40.188-4.2196-40.188-9.4394 0-5.2199 18.019-9.4375 40.188-9.4375zm16.947 2.5742c-1.3586 0-2.5741 0.92777-2.9316 2.2148l-3.5762 10.859v-7.998h-5.4336v1.7168h3.5039v5.2188h-4.791c-0.85803 0-1.5742-0.7142-1.5742-1.5723v-6.6504c0.07143-0.85806 0.78647-1.5742 1.6445-1.5742h6.6504v-1.9297h-6.8633c-1.8591 0-3.3613 1.5022-3.3613 3.3613v7.0078c0 1.8591 1.5022 3.3594 3.3613 3.3594h6.8633v-0.07031h1.6445l3.8613-11.299c0.14287-0.50052 0.57175-0.92969 1.0723-0.92969 0.50055 0 0.93124 0.35766 1.0742 0.92969l3.2891 9.582h-5.2207v1.7168h7.6504l-3.8613-11.727c-0.35755-1.2871-1.5719-2.2168-3.002-2.2168zm-34.822 0.21289c-2.4312 0-4.4336 2.0026-4.4336 4.4336 0 2.431 2.145 4.4336 4.5762 4.4336h1.4297c0.14287 0 0.28516 0.14409 0.28516 0.28711 0 0.14301-0.14229 0.28515-0.28516 0.28515l-2.002 0.14258h-4.0039v1.7168h6.2207c1.1441-0.07151 2.0723-1.0004 2.0723-2.1445 0-1.2156-0.92892-2.1465-2.1445-2.1465h-2.4316c-1.0011-0.35754-1.7871-1.3591-1.7871-2.4316 0-1.4301 1.359-2.6445 2.7891-2.6445h5.9336v-1.9316h-6.2188zm10.439 0.07227c-1.8591 0-3.3613 1.5022-3.3613 3.3613v6.8633c0 1.8591 1.5022 3.3613 3.3613 3.3613h6.8633v-1.9297h-6.6504c-0.85806 0-1.5723-0.71616-1.5723-1.5742v-6.5781c0-0.85806 0.7142-1.5742 1.5723-1.5742h6.6504v-1.9297h-6.8633zm24.453 1.7168c-0.50052 0.07151-0.92929 1.2858-1.0723 1.7148l-3.4316 10.154h2.2168l1.4297-4.2188v2.002h4.5059l-2.6465-7.9375c-0.14287-0.42902-0.5729-1.7148-1.002-1.7148zm-23.738 0.64258c-0.85806 0-1.5742 0.71616-1.5742 1.5742v2.502h6.3652v-1.6445h-4.4336c0-0.28603 0.21415-0.5 0.5-0.5h5.4336v-1.9316h-6.291zm11.012 0c-0.85806 0-1.5742 0.71616-1.5742 1.5742v5.7188c0 0.85806 0.71616 1.5742 1.5742 1.5742h3.7891v-4.291l-3.002 0.07227v1.9297h1.1426v0.50195h-1.1426c-0.28611 0-0.50195-0.21592-0.50195-0.50195v-4.1465c0-0.28603 0.21573-0.50195 0.50195-0.50195h5.4336v-1.9297h-6.2207zm-22.166 0.07227c-1.1441 0.0715-2.0742 1.0004-2.0742 2.1445 0 1.2156 0.92896 2.1445 2.1445 2.1445h2.4316c1.0011 0.35754 1.7871 1.3591 1.7871 2.4316 0 1.4301-1.359 2.6465-2.7891 2.6465h-5.9336v1.9297h6.2207c2.4312 0 4.4336-2.0023 4.4336-4.4336 0-2.4313-2.1458-4.4336-4.6484-4.4336h-1.4297c-0.14287 0-0.28711-0.14214-0.28711-0.28515 0-0.14302 0.14424-0.28711 0.28711-0.28711l2.0742-0.14258h4.0039v-1.7148h-6.2207zm15.945 4.7188-6.3652 0.07226v2.502c0 0.85806 0.71615 1.5723 1.5742 1.5723h6.291v-1.9297h-5.4336c-0.28611 0-0.5-0.21396-0.5-0.5h4.4336v-1.7168zm18.805 0.07226 0.71679 2.002h-1.3594l0.64258-2.002zm-70.287 1.4297h0.00195c0.71389 0.07286 1.1433 0.9288 1.7148 1.3574 2.4312 1.6446 4.9333 3.2904 7.6504 4.5059 2.2882 1.0726 4.7913 1.7166 7.2226 2.4316 1.2871 0.35751 2.6447 0.57139 3.9316 0.85742 2.0737 0.42905 4.0766 0.85854 6.1504 1.1445 4.0044 0.57203 8.0077 1.0003 12.012 1.2148 4.2187 0.28603 7.6524 0.21484 12.443 0.21484 4.4334 0-4.2e-4 0.07119 14.086-0.21484 4.0044-0.28604 8.0077-0.64282 12.012-1.2148 2.0736-0.28603 4.0766-0.71551 6.1504-1.1445 1.2871-0.21452 2.6447-0.49988 3.9316-0.85742 2.4312-0.71504 4.9345-1.3591 7.2227-2.4316 2.7172-1.2156 5.2214-2.8614 7.6523-4.5059 0.57203-0.42901 0.99976-1.2859 1.7148-1.3574 0.6435-0.07151 1.1448 0.50032 1.7168 0.71484 3.2892 1.2871 6.5776 2.6454 10.01 3.6465 4.3619 1.2871 8.8674 2.2884 13.301 3.1465 4.4334 0.78656 8.8667 1.3589 13.371 1.8594 5.2199 0.50052 10.44 0.85774 15.66 1.0723 4.3619 0.21453 8.7947 0.2156 13.156 0.28711 6.0064 0 11.941-0.14377 17.947-0.07226 5.7203 0.0715 11.441 7e-4 17.09 0.42968 5.2199 0.42902 10.441 1.0004 15.518 2.1445 3.8612 0.85807 7.2922 1.7166 11.439 3.7188 3.8612 1.8591 9.0098 5.1478 9.0098 9.5098 0 4.2901-5.0052 7.3645-8.7949 9.5098-2.0022 1.0726-8.0801 3.0028-12.299 4.0039-4.8623 1.1441-9.867 1.7174-14.801 2.1465-5.935 0.57203-11.942 0.4988-17.877 0.57031-22.595 0.3575-56.561 0.35902-110.9 0.14453 0 0-113.12 0.57052-161.89-0.14453-5.935-0.14302-11.942-0.06979-17.877-0.57031-5.0052-0.42905-9.9384-1.0024-14.801-2.1465-4.2187-0.92957-10.297-2.8598-12.299-4.0039-3.7897-2.1451-8.7949-5.2196-8.7949-9.5098 0.071433-4.3619 5.1482-7.6506 9.0098-9.5098 4.1473-2.0021 7.5069-2.7892 11.439-3.7188 5.0766-1.2156 10.298-1.7155 15.518-2.1445 5.7203-0.42905 11.369-0.35818 17.09-0.42968 6.0064-0.07151 11.941 0.14377 17.947 0.07226 4.3619-0.07151 8.7947-0.07258 13.156-0.28711 5.2199-0.21452 10.44-0.5002 15.66-1.0723 4.5048-0.42905 8.9381-1.0014 13.371-1.8594 4.5048-0.85806 8.9388-1.8594 13.301-3.1465 3.3607-1.0726 6.7205-2.3594 10.01-3.6465 0.57138-0.21428 1.1434-0.78483 1.7148-0.71484zm143.51 17.305 3.1465 4.7188h8.5801l-3.1465-4.7188h-8.5801zm26.029 0-3.1465 4.7188h8.5801l3.1465-4.7188h-8.5801zm-272.72 0.42773v4.291h41.832c0-2.3597-1.7173-4.2196-3.791-4.291h-38.041zm46.193 0v4.291h27.529v-4.291h-27.529zm35.322 0c-2.1451 0-3.8613 1.9314-3.8613 4.291h32.535v-4.291h-28.674zm36.396 0c-2.1452 0-3.7891 1.9314-3.7891 4.291h30.818c0-2.3597-1.7161-4.291-3.8613-4.291h-23.168zm45.049 0v4.291h32.176c0-2.3597-1.7153-4.291-3.7891-4.291h-28.387zm40.83 0c-2.0021 0.21453-3.5762 2.0029-3.5762 4.291h31.463c0-2.3597-1.7173-4.291-3.791-4.291h-24.096zm32.463 0v4.291h7.7227v-4.291h-7.7227zm47.98 0v4.291h27.529v-4.291h-27.529zm-301.82 3.7188c-2.7172 0-4.9336 2.2164-4.9336 4.9336 0 2.7172 2.2164 5.0058 4.9336 5.0058s4.9336-2.217 4.9336-5.0058c0-2.7887-2.2163-4.9336-4.9336-4.9336zm344.87 0c-2.7172 0-5.0059 2.2164-5.0059 4.9336 0 2.7172 2.217 5.0058 5.0059 5.0058 2.7888 0 4.9336-2.217 4.9336-5.0058 0-2.7887-2.2164-4.9336-4.9336-4.9336zm-327.28 2.002v12.729h7.6504v-12.729h-7.6504zm17.018 0v12.729h7.6523v-12.729h-7.6523zm17.02 0v12.729h7.7227v-12.729h-7.7227zm12.156 0v8.1524c0.07143 2.5742 2.4306 4.5762 5.291 4.5762h22.238v-4.291h-18.092c-0.92957 0-1.7148-0.78527-1.7148-1.7148v-1.0723h18.447v-3.9336h-16.732c-0.92957 0-1.7148-0.78722-1.7148-1.7168h-7.7227zm31.461 0v8.2949c0.14286 2.3597 2.2166 4.2189 4.791 4.4336h22.596c2.8602-0.21453 5.1484-2.5742 5.1484-5.5059 0-3.0747-2.4311-5.5059-5.5059-5.5059h-13.301v3.9316h9.5117c0.78656 0 1.3574 0.64509 1.3574 1.4316 0 0.78656-0.64237 1.3574-1.3574 1.3574h-14.16c-0.78656 0-1.3574-0.64237-1.3574-1.3574v-7.0801h-7.7226zm36.396 0v12.729h7.7227v-12.729h-7.7227zm23.096 0v3.791h-14.014v5.0039h14.014v3.9336h7.7226v-12.729h-7.7226zm25.814 0v12.729h7.7207v-12.729h-7.7207zm24.453 0v7.0801c0 0.78656-0.64237 1.3574-1.3574 1.3574h-14.301v4.291h18.52c2.7172-0.21453 4.8613-2.2179 4.8613-4.7207v-8.0078h-7.7227zm12.801 0v12.729h7.7227v-12.729h-7.7227zm36.039 0v12.729h7.7207v-12.729h-7.7207zm14.516 0 8.5078 12.729h9.4395l8.4375-12.729h-8.5801l-4.6484 7.0078-4.6484-7.0078h-8.5078zm33.463 0v8.1524c0.07144 2.5742 2.431 4.5762 5.291 4.5762h22.238v-4.291h-18.09c-0.92961 0-1.7168-0.78527-1.7168-1.7148v-1.0723h18.449v-3.9336h-16.732c-0.92961 0-1.7168-0.78722-1.7168-1.7168h-7.7227zm-60.279 0.07227v2.4316c0 0.71505-0.64238 1.3574-1.3574 1.3574h-12.943v5.0059h10.797l3.9336 3.9336h9.1524l-5.291-5.3633c2.0021-0.78655 3.4316-2.7882 3.4316-5.0762v-2.2891h-7.7226z" fill="#fff" stroke-linecap="round" stroke-linejoin="round" stroke-width="8" style="paint-order:stroke markers fill"/>
 <style type="text/css">.st0{fill:#FC0C18;}
	.st1{fill:#FC0C18;}</style>
</svg>
