<svg width="480" height="320" version="1.1" viewBox="0 0 480 320" xml:space="preserve" xmlns="http://www.w3.org/2000/svg"><defs><linearGradient id="a" x1="47.63" x2="70.32" y2="84.67" gradientTransform="scale(3.78)" gradientUnits="userSpaceOnUse"><stop stop-color="#69a649" offset="0"/><stop stop-color="#11424d" offset="1"/></linearGradient></defs><rect width="480" height="320" ry="24" fill="url(#a)"/><path d="m122.8 50c-2.133 0-4.145 1.016-5.404 2.73 0 0-10.79 11.59-12.55 15.98-2.926 7.286-0.9859 8.452-2.561 12.52-1.91 4.922-5.283 15.02-7.549 19.8-1.951 4.11-2.874 11.29-3.564 13.93-0.2946 1.147-1.932 1.168-2.236 0.0215-1.432-5.206-2.844-16.5-9.803-32.54-1.107-2.547-3.688-20.69-4.785-28.69-0.2946-2.151-2.164-3.744-4.338-3.684-4.409 0.1319-11.26 0.3867-13.08 0.8535-3.241 0.8423-6.625 3.998-8.84 6.434-1.595 1.745-2.468 4.028-2.488 6.402l-0.5996 71.85c0 5.317 8.93 10.11 8.93 10.11 2.276 1.492 6.816-0.6695 6.918-3.379l1.25-65.34c0.01016-0.6596 0.5287-1.207 1.199-1.248h0.04102c0.7416-0.05074 1.371 0.5385 1.361 1.279-0.02032 3.349 0.03992 11.94 1.178 14.63 2.184 5.165 9.509 29.56 10.68 38.05 0.5689 4.13-2.062 10.96 4.135 15.72 1.158 0.893 4.083 1.907 5.811 0.5274 2.682-2.141 7.142-6.127 9.621-8.086 1.544-1.228 2.559-3.004 2.803-4.963 0 0-0.02972-2.465 1.494-5.977 6.238-14.33 20.01-49.47 22.58-55.29 1.93-4.374 4.49-6.049 4.49-6.049 0.8534-0.7712 2.224-0.2014 2.285 0.9453l3.566 79.5c0.0406 7.479 13.98 7.012 13.62-0.5176l0.3457-91.43c-4e-6 -2.253-1.838-4.08-4.094-4.08zm220.1 18.61c-1.115-0.02014-2.328 0.01563-3.539 0.01563-2.936 0-5.598 4.516-7.111 7.773-1.991 4.272-2.652 16.56-2.652 16.56 0 1.887-3.739 8.403-4.937 11.24-0.9956 2.375-0.0498 4.932-2.041 6.018-1.94 1.066-1.951 5.093-3.373 7.082-3.667 5.135-8.057 15.32-12.54 15.32-3.2 0-11.35-6.077-11.35-13.57v-9.164c0-1.989-0.477-5.449 0.9961-7.986 5.923-10.18 8.93-13.78 13.87-14.07 10.79-0.6494 11.09 6.403 17.27 0.4258 4.876-4.729 1.616-13.57-16.24-13.57-7.396 0-10.28-0.7203-25.38 14.47-5.76 5.794-5.202 10.39-5.395 15.52-0.132 3.278-0.0308 5.46-0.041 10.73 0 13.57 11.4 30.93 27.86 30.93 15.36 0 19.23-13.09 19.75-13.52 0.6197-0.5175 1.545 0.0112 1.453 0.8027-0.4064 3.45 1.971 8.807 7.6 14.51 6.553 6.647 8.248 3.795 11.57 0.4766 2.133-2.131 0.1934-7.408-1.473-10.9-1.493-3.146-2.052-6.859-2.164-10.35-0.2235-6.647-0.0605-29.65-0.0605-38.38 0-6.241-0.6716-5.651 2.65-16.28 1.09-3.478-1.374-4.035-4.719-4.096zm-68.5 5.51c-3.205-0.04478-7.373 1.585-8.805 5.617-0.5994 1.674-3.779 8.676-3.779 8.676-1.686 3.917-2.998 7.774-2.855 12.03 0.2641 7.55 0.6098 19.1-1.066 22.06-2.001 3.552-15.59 8.291-26.14 4.912-4.165-1.329-7.477-3.785-7.619-10.32-0.3454-15.14 26.77-21.15 30.89-28.37 2.052-3.592-0.5681-8.321-11.47-5.125-6.024 1.766-6.706 1.483-12.59 4.273-5.394 2.557-17.78 13.22-19.26 15.86-5.699 10.18-4.135 10.68-4.135 22.55 0 12 23.52 18.43 46.1 15.8 0 0 4.49-0.9239 2.783 3.125-1.707 4.059-2.549 5.885-4.703 8.828-2.205 3.014-12.64 9.335-23.07 6.555-2.641-0.7002-5.324-1.186-8.057-1.217-6.248-0.0812-15.88 1.177-15.88 5.195 0 5.977 7.904 6.119 7.904 6.119s16.6 1.42 21.02 1.42c11.75 0 40.04-3.917 40.04-18.57 0-14.65 1.351-61.63 3.342-68.95 1.107-4.079 3.047-7.356 0.7715-9.426-0.7111-0.6437-1.969-1.011-3.426-1.031zm-88.33 4.064c-4.612 0.05074-14.61-0.3041-18.74 4.557-4.419 5.196-16.67 6.149-16.67 15.57l1.492 31.69c0.2641 5.409 2.724 9.701 7.691 11.88 9.895 4.343 28.06 11.53 33.2 11.38 7.619-0.2131 15.93-0.1214 20.16 0.9238 12.71 3.125 13.65-11.42 4.012-11.75-16.09-0.5581-35.32-6.17-48.4-12.87-1.3-0.6596-1.921-2.193-2.043-3.645l-0.7715-4.414c-0.1422-1.756 0.7414-3.419 2.275-4.281 3.109-1.745 10.36-2.973 15.71-4.82 7.579-2.628 16.02-8.85 15.71-18.86-0.2946-9.529-6.634-15.44-13.61-15.37zm-4.547 13.46c2.969-0.03345 2.281 3.043 2.281 3.043 0 0-1.352 3.826-3.566 5.693-2.205 1.867-3.769 1.35-7.264 2.639-3.373 1.238-6.704 2.639-7.629 1.137-1.107-1.786 2.194-7.044 5.414-9.824 2.062-1.776 6.411-2.131 10.12-2.639 0.2318-0.03171 0.4466-0.0466 0.6445-0.04883zm-48.01 67.27c-2.23 0.159-3.999 2.191-3.715 4.535 0.701 5.703 3.474 13.77 9.996 13.33 9.885-0.6697 35.28 5.125 39.97 7.875 5.953 3.491 10.83 11.26 14.48 16.86 1.239 1.887 1.89 4.089 1.91 6.342 0.0406 6.535-0.1214 19.29-4.652 20.31-4.44 0.9945-8.971 4.048-11.83 6.311-1.737 1.38-5.668 3.197-7.781 3.887l-21.52 7.691c-1.036 0.345-2.072-0.5474-1.879-1.623 1.575-8.93 6.988-40.23 6.988-46.48 0-7.306-7.404-17.75-11.49-18.12-9.753-0.9031-8.769 5.51-9.338 9.396-0.5689 3.887 0.2844 5.328 3.129 9.691 1.758 2.699 1.128 5.905 0.3867 7.955-0.7213 1.999-1.616 4.638-1.951 6.738l-7.162 49.96c-0.6908 4.353 3.719 7.743 7.752 5.957l32.52-14.41c4.602-2.03 9.479-3.359 14.47-3.988 11.43-1.431 21.21-9 26.59-12.18 6.268-3.704 4.014-11.39 4.014-28.18 0-16.79-3.11-20.15-4.969-26.47-0.8635-2.933-6.888-7.396-11.5-10.46-3.322-2.202-7.031-3.745-10.93-4.557-7.822-1.624-26.99-4.912-34.26-6.576-7.193-1.644-12.09-2.638-18.25-3.734-0.3327-0.0584-0.66-0.0735-0.9785-0.0508zm187.8 21.36c-15.12 0.2328-30.83 17.85-30.83 38.08 0 20.87 16.24 39.18 36.29 39.18 20.04 0 32.87-10.91 32.21-14.61-0.2337-1.279-1.251-2.841-4.562-2.852-6.278-0.0203-19.12 4.689-27.45 5.055-11.4 0.4972-22.42-14.54-22.42-24.31 0-10.06 7.376-28.05 22.34-27.92 8.046 0.071 11.64 3.247 15.84 6.189 3.251 2.283 13.03-1.349 7.029-7.742-5.394-5.744-12.75-10.18-26.97-11.03-0.486-0.0292-0.9731-0.0388-1.461-0.0312zm47.16 0.0996c-1.483-6e-3 -3.222 0.5522-5.086 1.982-7.599 5.835-2.947 20.87-2.947 23.72 0 6.687 1.615 14.63 1.615 21.39-0.0102 6.119 1.514 15.82 1.564 22.72 0.0914 11.95 12.89 9.824 12.89 2.771v-12.79c0-1.502 1.514-2.536 2.916-1.998 0 0 30.69 11.58 33.46 14.56 2.784 2.983 14.86 7.927 19.64 4.791 4.785-3.125 1.818-7.59-1.148-10.48-1.585-1.542-10.15-7.074-11.47-7.967-1.036-0.7002-0.9746-2.822 1.951-3.461 2.926-0.6393 6.481-6.139 5.699-9.203-0.7822-3.065-7.782-15.02-21.68-15.02-10.19 0-10.1 3.916-18.38 4.91-2.611 0.3146-6.207 1.958-9.478 3.277-1.107 0.4465-2.348-0.1912-2.643-1.338 0 0-1.148-7.693-1.971-10.14-2.184-6.545-2.956-14-0.3144-22.8 0.6565-2.184-1.362-4.923-4.625-4.936zm-143.5 10.99c-1.054-0.0492-2.075 0.0249-2.967 0.1289-1.879 0.2232-3.211 1.937-2.998 3.814 0.508 4.384 1.087 12.8 1.32 15.65 0.9956 11.67-0.9241 31.63 11.24 38.74 0 0 10.81 7.021 20.31 7.021 10.8 0 16.67-4.129 21.3-6.139 1.361-0.5886 2.906 0.1614 3.312 1.582 0.9448 3.288 3.129 8.545 7.223 8.545 2.519 0 8.057-1.796 8.057-5.551 0-5.216-5.294-21.97-6.838-26.27-2.276-6.352-0.375-20.21-0.375-20.21 0.955-5.977-3.798-8.545-9.406-8.545-5.608 0-2.357 16.27-3.922 23.15-5.039 22.1-11.77 19.74-21.82 19.74-9.814 0-15.58-14.03-16.32-21.44-0.7619-7.682 1.597-14.14-0.4961-24.01-1.013-4.802-4.457-6.05-7.619-6.197zm181.5 33.01c3.657 0.0102 9.681 3.033 4.297 6.453-5.486 3.491-12.38 0.548-16.98 0-9.255-1.086-6.846-4.182-4.002-4.182 4.196 0 7.061-2.271 16.68-2.271z" fill="#fff"/></svg>
