<svg width="480" height="320" version="1.1" viewBox="0 0 480 320" xml:space="preserve" xmlns="http://www.w3.org/2000/svg"><defs><linearGradient id="a" x1="249.6" x2="135.2" y1="356" y2="-71.11" gradientUnits="userSpaceOnUse"><stop stop-color="#a00" offset="0"/><stop stop-color="#f95" offset="1"/></linearGradient></defs><rect id="b" width="480" height="320" ry="24" fill="url(#a)"/><path d="m275.2 237.7c-1.76 0-2.959 1.28-2.959 3 0 1.68 1.199 2.959 2.959 2.959 1.8 0 2.961-1.279 2.961-2.959 0-1.72-1.161-3-2.961-3zm-68.48 1.559-4.92 0.5215v25.32c0 3 1.8 4.92 4.68 4.92 1.2 0 2.321-0.3598 3.041-0.7598l-0.9609-3.359c-0.2 0.04-0.5189 0.1602-0.8789 0.1602-0.64 0-0.9609-0.4802-0.9609-1.16zm10.76 0-4.92 0.5215v25.32c0 3 1.802 4.92 4.682 4.92 1.2 0 2.319-0.3598 3.039-0.7598l-0.9609-3.359c-0.2 0.04-0.5189 0.1602-0.8789 0.1602-0.64 0-0.9609-0.4802-0.9609-1.16zm-45.6 1.961c-5.76 0-10.2 4.52-10.2 14.32 0 9.92 4.239 14.48 10.2 14.48 3.2 0 5.601-1.598 7.121-3.318l-2.441-2.801c-1.24 1.04-2.438 2.039-4.318 2.039-3.12 0-5.201-2.638-5.201-10.4 0-7.96 2.161-10.44 5.121-10.44 1.6 0 2.838 0.6809 4.158 1.881l2.441-2.92c-1.92-1.8-3.961-2.84-6.881-2.84zm92.72 1.76-4.92 0.5996v4.68h-2.48v3.561h2.48v12.32c0 3.48 1.839 5.879 5.639 5.879 1.64 0 3.282-0.5186 4.602-1.559l-1.721-3.041c-0.72 0.4-1.199 0.6406-1.959 0.6406-1.12 0-1.641-0.7199-1.641-1.92v-12.32h3.52l0.4805-3.561h-4zm-75.48 4.721c-5.24 0-8.439 3.879-8.439 11.12 0 7.28 3.199 11.2 8.439 11.2s8.439-4.159 8.439-11.2c0-7.52-3.199-11.12-8.439-11.12zm41.4 0c-5.28 0-8.121 4.438-8.121 11.32 0 6.96 3.042 11 8.602 11 2.84 0 5.039-1.079 6.719-2.719l-2.039-2.801c-1.48 1.2-2.72 1.76-4.4 1.76-2.2 0-3.68-1.239-3.92-5.879h10.92c0.04-0.56 0.1191-1.361 0.1191-2.041 0-7.12-2.999-10.64-7.879-10.64zm19.72 0c-5.16 0-8.521 4.158-8.521 11.32 0 7.4 3.28 11 8.6 11 2.28 0 4.161-0.9594 5.721-2.439l-2.199-2.84c-1.16 0.84-2.041 1.32-3.281 1.32-2.16 0-3.639-1.561-3.639-7.121 0-5.6 1.359-7.439 3.639-7.439 1.24 0 2.241 0.4804 3.361 1.4l2.119-2.801c-1.68-1.64-3.479-2.398-5.799-2.398zm40.32 0c-5.24 0-8.439 3.879-8.439 11.12 0 7.28 3.199 11.2 8.439 11.2s8.441-4.159 8.441-11.2c0-7.52-3.201-11.12-8.441-11.12zm22.76 0c-2.4 0-3.878 1.238-5.238 3.318l-0.3613-2.76h-4.279v21.16h4.92v-14.8c1-1.92 2.12-3.16 3.32-3.16 1.04 0 1.639 0.7598 1.639 2.84v15.12h4.92v-15.68c0-3.68-1.88-6.039-4.92-6.039zm-40.56 0.5586v21.16h4.92v-21.16zm-42.2 2.881c2.16 0 3.041 1.76 3.041 5.76v0.2793h-6.24c0.2-4.68 1.359-6.039 3.199-6.039zm-41.44 0.2793c2.2 0 3.32 1.88 3.32 7.4s-1.12 7.439-3.32 7.439-3.32-1.879-3.32-7.439c0-5.48 1.12-7.4 3.32-7.4zm101.4 0c2.2 0 3.32 1.88 3.32 7.4s-1.12 7.439-3.32 7.439-3.318-1.879-3.318-7.439c0-5.48 1.118-7.4 3.318-7.4z" fill="#fff"/><path d="m50.63 184.9c0.3433-0.3958 0.7432-0.8321 0.8846-0.9734 0.1454-0.1454 1.163-1.268 2.266-2.5l2.003-2.242v-72.69l-2.852-3.155-2.852-3.151 6.992-0.0687c3.845-0.0405 10.13-0.0405 13.98 0l6.984 0.0687-3.643 4.055 2.69 5.231c1.482 2.876 3.664 7.097 4.847 9.379 1.188 2.282 2.88 5.546 3.764 7.254 0.8805 1.705 1.705 3.134 1.826 3.175 0.1212 0.0405 0.828-1.123 1.567-2.585 0.7392-1.462 2.193-4.29 3.235-6.289 4.823-9.254 8.256-15.93 8.264-16.09 9e-3 -0.0929-0.7594-1.022-1.7-2.064-0.9452-1.046-1.713-1.967-1.713-2.048 0-0.0808 6.224-0.1454 13.83-0.1454 7.61 0 13.84 0.0646 13.84 0.1494 0 0.1414-4.253 4.944-5.215 5.889-0.4564 0.4443-0.4766 1.919-0.4726 36.68l9e-3 36.22 2.88 3.243 2.88 3.239-6.782 0.0687c-3.732 0.0405-9.73 0.0405-13.33 0l-6.551-0.0687 2.94-3.239 2.941-3.243 9e-3 -25.08c4e-3 -13.79-0.0807-25.08-0.1898-25.08-0.206 9e-3 -1.022 1.519-5.178 9.589-1.434 2.783-3.603 6.98-4.823 9.334-1.22 2.351-3.122 6.055-4.221 8.232-1.103 2.173-2.08 3.95-2.169 3.954-0.08887 0-1.01-1.664-2.04-3.696-1.034-2.032-1.959-3.813-2.064-3.954-0.101-0.1414-1.381-2.593-2.844-5.445-3.486-6.798-6.491-12.6-8.191-15.81l-1.373-2.593-4e-3 25.33-4e-3 25.33 1.49 1.632c0.8159 0.9007 1.951 2.153 2.52 2.783 0.5695 0.6341 1.236 1.361 1.486 1.624 0.4362 0.4564 0.01617 0.4726-13.04 0.4726h-13.5zm77.83 0.5736c0-0.0768 1.28-1.567 2.844-3.308l2.844-3.167v-72.33l-2.844-3.163c-1.563-1.745-2.844-3.231-2.844-3.308 0-0.0768 11.29-0.1373 25.1-0.1373 19.84 0 25.12 0.0646 25.22 0.3231 0.0687 0.1777 0.0969 5.364 0.0565 11.52l-0.0646 11.2-2.848-3.74-2.844-3.744-23.93-9e-3 0.0687 9.007 0.0687 9.011 11.96 0.0646 11.96 0.0687v15.29h-24.05v21l23.92-0.013 2.844-3.688 2.848-3.688 0.0646 11.15c0.0405 6.131 0.0121 11.29-0.0565 11.47-0.0969 0.2544-5.38 0.3231-25.22 0.3231-13.81 0-25.1-0.0646-25.1-0.1373zm67.41-0.9654c1.83-1.931 3.643-3.926 4.338-4.766l0.6786-0.8159v-63.31h-12.05l-2.9 3.789-2.9 3.793v-23.14h50.7v23.13l-1.818-2.379c-0.9977-1.313-2.282-3.017-2.852-3.789l-1.038-1.41h-12.14v63.58l2.383 2.625c1.309 1.446 2.609 2.888 2.888 3.211l0.5089 0.5816h-26.84zm41.22 0.9573c0-0.0768 1.28-1.559 2.844-3.296l2.848-3.151v-72.37l-2.848-3.155c-1.563-1.733-2.844-3.223-2.844-3.308 0-0.0849 8.236-0.1171 18.3-0.0687 18.18 0.0889 18.31 0.0929 20.24 0.6786 4.096 1.248 7.238 3.421 10.13 7.004 3.837 4.754 5.82 10.38 6.091 17.28 0.3433 8.777-2.803 16.81-8.692 22.2l-1.834 1.676 4.811 14.25c2.646 7.832 4.92 14.61 5.049 15.05 0.1737 0.6018 1.078 1.478 3.53 3.437 1.814 1.442 3.643 2.916 4.071 3.272l0.7755 0.6463-14.68 4e-3c-9.225 0-14.68-0.0929-14.68-0.2504 0-0.1373 0.9734-1.624 2.165-3.3l2.165-3.054-4.496-13.36c-2.476-7.343-5.618-16.68-6.984-20.74-1.369-4.063-2.541-7.533-2.609-7.707-0.093-0.2424 1.006-0.3353 4.617-0.3918l4.734-0.0687 2.278-3.239c3.655-5.19 4.855-6.996 4.855-7.299 0-0.2424-1.349-2.254-6.358-9.48l-0.7553-1.091-6.014-0.0121-6.01-9e-3 4e-3 31.7 9e-3 31.69 2.831 3.114c1.555 1.709 2.835 3.195 2.84 3.304 4e-3 0.105-5.929 0.1939-13.18 0.1939-7.254 0-13.19-0.0646-13.19-0.1454zm72.22-0.1414c-5.166-0.8644-9.662-4.928-11.63-10.52l-0.7149-2.028v-59.89l0.727-2.064c0.8967-2.549 2.577-5.126 4.475-6.867 1.733-1.587 3.033-2.367 5.271-3.171 1.676-0.6018 1.721-0.6018 14.87-0.6018 13.13 0 13.2 0 14.99 0.6018 2.537 0.8523 3.878 1.709 5.966 3.797 2.121 2.125 3.777 5.166 4.391 8.062 0.5655 2.678 0.5655 57.67 0 60.39-1.244 5.962-6.079 11-11.7 12.19-1.389 0.2949-4.197 0.3676-13.52 0.3433-6.471-0.0121-12.38-0.1252-13.12-0.2504zm18.55-19.41 5.178-4.011v-38.14l-5.182-4.011c-2.848-2.205-5.267-4.043-5.376-4.08-0.105-0.0364-1.24 0.7513-2.512 1.749-1.276 0.9977-3.627 2.827-5.227 4.059l-2.912 2.242v38.24l1.652 1.256c4.148 3.163 8.163 6.341 8.317 6.592 0.0929 0.1494 0.3312 0.2343 0.5251 0.1898 0.1979-0.0405 2.69-1.882 5.538-4.088zm20.85 19.11c0.2706-0.3191 1.571-1.761 2.884-3.207l2.395-2.621v-72.68l-2.86-3.171-2.856-3.167 6.753-0.0687c3.716-0.0405 9.722-0.0405 13.35 0l6.596 0.0687-2.864 3.183-2.86 3.187v72.62l2.528 2.763c1.389 1.519 2.686 2.965 2.876 3.215 0.3312 0.4282-0.3312 0.4524-13.05 0.4524h-13.39zm31.43-1.499c1.05-1.155 2.399-2.65 3.001-3.316l1.087-1.216 0.0121-36.14 9e-3 -36.14-2.117-2.359c-1.163-1.297-2.528-2.799-3.037-3.34l-0.9214-0.9856 39.83 0.1535 1.713 0.6866c3.797 1.531 6.741 4.221 8.462 7.739 1.943 3.983 1.87 2.561 1.793 35.13l-0.0727 29.03-0.5938 1.757c-1.62 4.79-5 8.414-9.549 10.24l-1.753 0.7028-19.89 0.0768-19.89 0.0727zm27.13-16.54 7.63-3.05v-42.19l-7.63-3.062c-4.197-1.684-7.715-3.066-7.824-3.07-0.105-4e-3 -0.1939 12.24-0.1939 27.21 0 14.97 0.0889 27.22 0.1939 27.22 0.1091-4e-3 3.627-1.381 7.824-3.058z" fill="#fff" stroke-width=".95"/></svg>
