<svg width="480" height="320" version="1.1" viewBox="0 0 480 320" xml:space="preserve" xmlns="http://www.w3.org/2000/svg"><defs><linearGradient id="a" x1="61.99" x2="61.99" y1="-10.52" y2="94.54" gradientTransform="matrix(3.78 0 0 3.78 -1.807e-6 6.694e-7)" gradientUnits="userSpaceOnUse"><stop stop-color="#abacae" offset="0"/><stop stop-color="#3a4654" offset=".6"/><stop stop-color="#273445" offset="1"/></linearGradient></defs><rect width="480" height="320" ry="24" fill="url(#a)"/><g fill="#fff"><path d="m128 75.07v77.68l54.93-54.93a85 85 0 0 0-54.93-22.75zm-6 0.1426a85 85 0 0 0-54.83 22.71l54.83 54.83zm65.17 26.86-54.93 54.93h77.68a85 85 0 0 0-22.75-54.93zm-124.2 0.1016a85 85 0 0 0-22.71 54.83h77.54zm-22.71 60.83a85 85 0 0 0 22.71 54.83l54.83-54.83zm92.03 0 54.83 54.83a85 85 0 0 0 22.71-54.83zm-10.24 4.244-54.83 54.83a85 85 0 0 0 54.83 22.71zm6 0v77.54a85 85 0 0 0 54.83-22.71z"/><path d="m364.5 119c-0.7815 0-1.453 0.2656-2.016 0.7969-0.5625 0.5313-0.8438 1.172-0.8438 1.922 0 0.7501 0.2812 1.391 0.8438 1.922 0.5627 0.5313 1.234 0.7969 2.016 0.7969 0.7815 0 1.453-0.2656 2.016-0.7969 0.5625-0.5313 0.8438-1.172 0.8438-1.922 0-0.7501-0.2812-1.391-0.8438-1.922-0.5627-0.5313-1.234-0.7969-2.016-0.7969zm35.9 1.027v34.92h3.984v-15.75c0-1.531 0.2969-2.828 0.8906-3.891 0.6093-1.063 1.43-1.875 2.461-2.438 1.031-0.5625 2.211-0.8438 3.539-0.8438 1.907 0 3.399 0.5703 4.477 1.711 1.078 1.141 1.617 2.758 1.617 4.852v16.36h4.031v-16.64c0-2.25-0.375-4.101-1.125-5.555-0.75-1.469-1.797-2.556-3.141-3.26-1.344-0.7187-2.906-1.076-4.688-1.076-2.062 0-3.711 0.4061-4.945 1.219-1.219 0.7967-2.133 1.873-2.742 3.232h-0.375v-12.84h-3.984zm-170.4 0.0703 6e-3 34.92h3.984v-26.53h0.3281l10.85 26.53h3.797l10.99-26.53h0.3281v26.53h4.148v-34.92h-5.229l-11.86 28.97h-0.4219l-11.86-28.97h-5.062zm122.6 0v34.92h3.984v-34.92zm77.78 2.467v6.234h-3.941v3.422h3.941v16.36c1e-5 2 0.6561 3.625 1.969 4.875 1.328 1.25 3.047 1.875 5.156 1.875 0.5467 0 1.086-0.0469 1.617-0.1406 0.547-0.0781 1.008-0.1875 1.383-0.3281l-0.8437-3.609c-0.3437 0.0625-0.6641 0.1094-0.9609 0.1406-0.2813 0.0313-0.5547 0.0469-0.8203 0.0469-1.219 0-2.109-0.3125-2.672-0.9375-0.5625-0.6407-0.8438-1.641-0.8438-3v-15.28h5.625v-3.422h-5.625v-6.234h-3.984zm-91.62 5.855c-1.985 6.6e-4 -3.602 0.4068-4.852 1.219-1.25 0.812-2.18 1.89-2.789 3.234h-0.375v-4.125h-3.844v26.2h3.984v-15.75l2e-3 2e-3c0-1.531 0.2891-2.828 0.8672-3.891 0.594-1.063 1.399-1.875 2.414-2.438 1.015-0.5625 2.164-0.8438 3.445-0.8438 1.859 0 3.328 0.5858 4.406 1.758 1.078 1.157 1.617 2.758 1.617 4.805v16.36h3.984v-16.64c0-2.234-0.375-4.078-1.125-5.531-0.7347-1.469-1.766-2.563-3.094-3.281-1.329-0.7187-2.877-1.078-4.643-1.078zm-57.47 0.084c-2.359 0-4.43 0.5622-6.211 1.688-1.781 1.125-3.172 2.711-4.172 4.758-0.9847 2.031-1.479 4.414-1.479 7.148 0 2.687 0.4938 5.047 1.479 7.078 1 2.031 2.391 3.609 4.172 4.734s3.852 1.688 6.211 1.688c2.375 0 4.451-0.5622 6.232-1.688 1.781-1.125 3.172-2.703 4.172-4.734s1.5-4.391 1.5-7.078c0-2.734-0.5-5.117-1.5-7.148-1-2.047-2.391-3.632-4.172-4.758s-3.858-1.688-6.232-1.688zm28.7 0c-2.359 0-4.43 0.5622-6.211 1.688s-3.172 2.711-4.172 4.758c-0.9847 2.031-1.477 4.414-1.477 7.148 0 2.687 0.4919 5.047 1.477 7.078 1 2.031 2.391 3.609 4.172 4.734s3.852 1.688 6.211 1.688c2.375 0 4.453-0.5622 6.234-1.688 1.781-1.125 3.172-2.703 4.172-4.734s1.5-4.391 1.5-7.078c0-2.734-0.5-5.117-1.5-7.148-1-2.047-2.391-3.632-4.172-4.758-1.781-1.125-3.86-1.688-6.234-1.688zm73.59 4e-3c-2.203 0-4.149 0.5547-5.836 1.664-1.687 1.094-3.008 2.641-3.961 4.641-0.9373 1.985-1.406 4.32-1.406 7.008 0 2.719 0.4845 5.032 1.453 6.938 0.984 1.906 2.312 3.359 3.984 4.359s3.563 1.5 5.672 1.5c1.719 0 3.078-0.2656 4.078-0.7969 1.015-0.5473 1.789-1.164 2.32-1.852 0.5467-0.7033 0.9609-1.289 1.242-1.758h0.375v5.297c0 2.188-0.6953 3.789-2.086 4.805-1.375 1.015-3.119 1.523-5.229 1.523-1.578 0-2.85-0.2266-3.818-0.6797-0.9688-0.453-1.736-0.9922-2.299-1.617-0.5626-0.6096-1.023-1.156-1.383-1.641l-3.188 2.25c0.8127 1.375 2.063 2.594 3.75 3.656 1.703 1.063 4.016 1.594 6.938 1.594l4e-3 -4e-3c2.093 0 3.992-0.3358 5.695-1.008 1.719-0.656 3.078-1.695 4.078-3.117 1.015-1.406 1.521-3.234 1.521-5.484v-26.95h-3.844v4.172h-0.4219c-0.2971-0.4527-0.7188-1.031-1.266-1.734-0.5313-0.7188-1.305-1.359-2.32-1.922-1-0.5625-2.351-0.8438-4.055-0.8438zm-21.09 0.291v26.2h3.984v-26.2zm-81.2 3.314c1.813 0 3.297 0.4689 4.453 1.406 1.156 0.922 2.014 2.141 2.576 3.656 0.5625 1.516 0.8438 3.157 0.8438 4.922 0 1.735-0.2812 3.36-0.8438 4.875-0.5627 1.5-1.42 2.711-2.576 3.633s-2.64 1.383-4.453 1.383c-1.781 0-3.25-0.4608-4.406-1.383-1.156-0.922-2.016-2.133-2.578-3.633-0.5625-1.515-0.8438-3.14-0.8438-4.875 0-1.766 0.2812-3.407 0.8438-4.922 0.5627-1.515 1.422-2.734 2.578-3.656 1.156-0.9373 2.625-1.406 4.406-1.406zm28.7 0c1.813 0 3.297 0.4689 4.453 1.406 1.156 0.922 2.016 2.141 2.578 3.656 0.5625 1.516 0.8438 3.157 0.8438 4.922 0 1.735-0.2812 3.36-0.8438 4.875-0.5627 1.5-1.422 2.711-2.578 3.633s-2.64 1.383-4.453 1.383c-1.781 0-3.25-0.4608-4.406-1.383-1.156-0.922-2.016-2.133-2.578-3.633-0.5625-1.515-0.8437-3.14-0.8437-4.875-1e-5 -1.766 0.2812-3.407 0.8437-4.922 0.5627-1.515 1.422-2.734 2.578-3.656 1.156-0.9373 2.625-1.406 4.406-1.406zm74.06 4e-3c1.641 0 3.016 0.4142 4.125 1.242 1.125 0.8127 1.967 1.938 2.529 3.375 0.5625 1.437 0.8438 3.102 0.8438 4.992 0 2.906-0.6467 5.18-1.943 6.82-1.281 1.64-3.134 2.46-5.555 2.461h-2e-3c-1.671-3.1e-4 -3.079-0.3909-4.219-1.172-1.141-0.7967-2-1.891-2.578-3.281-0.5625-1.406-0.8438-3.015-0.8438-4.828 0-1.765 0.2812-3.375 0.8438-4.828 0.562-1.453 1.406-2.609 2.531-3.469 1.141-0.8747 2.564-1.312 4.268-1.312z"/><path d="m239.2 178.4c-1.805 0-3.395 0.4484-4.77 1.346-1.375 0.8973-2.456 2.168-3.238 3.811-0.7733 1.642-1.16 3.58-1.16 5.814 0 2.215 0.3868 4.144 1.16 5.787 0.7733 1.643 1.858 2.911 3.252 3.809 1.403 0.8973 3.036 1.348 4.898 1.348 1.661 0 3.136-0.3582 4.426-1.074 1.289-0.7253 2.295-1.746 3.021-3.064 0.7353-1.327 1.104-2.903 1.104-4.727v-1.748h-8.092v1.748h6.182c-0.0243 1.422-0.3 2.652-0.8379 3.682-0.5633 1.079-1.347 1.91-2.35 2.492-0.9933 0.5825-2.145 0.873-3.453 0.873-1.442 0-2.721-0.3619-3.838-1.088-1.117-0.726-1.995-1.773-2.635-3.139-0.6397-1.365-0.9609-2.996-0.9609-4.896 0-1.919 0.3212-3.562 0.9609-4.928 0.64-1.365 1.509-2.411 2.607-3.137s2.338-1.09 3.723-1.09c0.8785 1.3e-4 1.676 0.1351 2.393 0.4023s1.35 0.6378 1.904 1.115c0.5536 0.468 1.016 1.014 1.389 1.635 0.3819 0.6113 0.6684 1.274 0.8594 1.99h2.006c-0.1719-0.9453-0.4972-1.833-0.9746-2.664-0.4773-0.8403-1.083-1.581-1.818-2.221-0.7353-0.6491-1.59-1.155-2.564-1.518-0.9647-0.3724-2.029-0.5586-3.193-0.5586zm83.63 0.0137c-1.308 0-2.488 0.2476-3.539 0.7441-1.05 0.4867-1.885 1.17-2.506 2.049-0.6111 0.8687-0.916 1.875-0.916 3.021 0 1.366 0.4627 2.493 1.389 3.381 0.926 0.8877 2.225 1.574 3.896 2.061l2.535 0.7461c0.888 0.2578 1.665 0.5525 2.334 0.8867 0.6683 0.3343 1.19 0.7454 1.562 1.232 0.3819 0.4867 0.5723 1.094 0.5723 1.82 0 0.8596-0.2393 1.608-0.7168 2.248-0.468 0.6398-1.117 1.141-1.947 1.504-0.8307 0.3533-1.78 0.5293-2.85 0.5293-0.9553 0-1.825-0.1474-2.607-0.4434-0.783-0.3055-1.419-0.7496-1.906-1.332-0.4774-0.582-0.7537-1.298-0.8301-2.148h-1.99c0.0762 1.127 0.4201 2.121 1.031 2.98 0.6113 0.8592 1.45 1.526 2.52 2.004 1.069 0.4774 2.33 0.7168 3.781 0.7168l2e-3 -2e-3c1.547 0 2.869-0.2619 3.967-0.7871 1.107-0.5347 1.957-1.257 2.549-2.164 0.592-0.9167 0.8887-1.938 0.8887-3.064 0-0.8878-0.176-1.647-0.5293-2.277-0.3437-0.6395-0.8021-1.178-1.375-1.617-0.5633-0.4395-1.185-0.8034-1.863-1.09-0.678-0.296-1.355-0.5436-2.033-0.7441l-2.25-0.6445c-0.6873-0.2101-1.355-0.472-2.004-0.7871-0.6492-0.3148-1.183-0.7222-1.604-1.219-0.4201-0.506-0.6309-1.13-0.6309-1.875 0-0.7637 0.2107-1.447 0.6309-2.049 0.4293-0.6016 1.021-1.074 1.775-1.418 0.7547-0.3437 1.624-0.5156 2.607-0.5156 1.423 0 2.595 0.3539 3.521 1.061 0.9261 0.6973 1.448 1.638 1.562 2.822h1.904c-0.0478-1.079-0.3731-2.039-0.9746-2.879-0.6013-0.8497-1.412-1.519-2.434-2.006-1.021-0.4965-2.196-0.7441-3.523-0.7441zm84.44 0.1856c-0.3819 0-0.7114 0.1289-0.9883 0.3867-0.2673 0.2578-0.4004 0.5688-0.4004 0.9316 0 0.3724 0.133 0.6916 0.4004 0.959 0.2769 0.2578 0.6064 0.3867 0.9883 0.3867 0.382 0 0.7073-0.1289 0.9746-0.3867 0.2673-0.2673 0.4004-0.5866 0.4004-0.959 7e-5 -0.3629-0.133-0.6738-0.4004-0.9316s-0.5927-0.3867-0.9746-0.3867zm-72.37 1.604v3.811h-2.391v1.617h2.391v10.66c0 1.184 0.3912 2.144 1.174 2.879 0.7833 0.726 1.767 1.09 2.951 1.09 0.3055 0 0.6022-0.0245 0.8887-0.0723 0.2865-0.0477 0.5402-0.1152 0.7598-0.2012l-0.4023-1.676c-0.2005 0.0477-0.3909 0.0866-0.5723 0.1152-0.1719 0.0191-0.3438 0.0274-0.5156 0.0274-0.7637 0-1.361-0.2129-1.791-0.6426-0.4297-0.4393-0.6445-1.094-0.6445-1.963v-10.21h3.395v-1.617h-3.395v-3.811h-1.848zm-38.17 3.537c-1.384-6.6e-4 -2.602 0.3576-3.652 1.074-1.051 0.7167-1.873 1.701-2.465 2.951-0.5825 1.251-0.873 2.683-0.873 4.297s0.2947 3.042 0.8867 4.283 1.437 2.215 2.535 2.922c1.099 0.6973 2.393 1.047 3.883 1.047l2e-3 -2e-3c1.06 0 2.001-0.1719 2.822-0.5156 0.8304-0.3533 1.518-0.8117 2.062-1.375 0.5537-0.5727 0.9549-1.193 1.203-1.861l-1.762-0.5879c-0.2005 0.4774-0.4972 0.9214-0.8887 1.332-0.3917 0.401-0.8743 0.7222-1.447 0.9609s-1.236 0.3574-1.99 0.3574c-1.107 0-2.073-0.2619-2.895-0.7871-0.8119-0.5253-1.442-1.262-1.891-2.207-0.4093-0.8902-0.6244-1.922-0.6524-3.094h11.91v-0.8301c0-1.375-0.1862-2.559-0.5586-3.553-0.3727-1.003-0.8839-1.829-1.533-2.479-0.6493-0.6495-1.378-1.13-2.189-1.445-0.8113-0.3247-1.647-0.4883-2.506-0.4883zm61.4 0c-1.384-6.6e-4 -2.6 0.3576-3.65 1.074-1.051 0.7167-1.873 1.701-2.465 2.951-0.5825 1.251-0.873 2.683-0.873 4.297s0.2947 3.042 0.8867 4.283 1.437 2.215 2.535 2.922c1.099 0.6973 2.393 1.047 3.883 1.047l4e-3 -2e-3c1.06 0 1.999-0.1719 2.82-0.5156 0.8304-0.3533 1.518-0.8117 2.062-1.375 0.5537-0.5727 0.9549-1.193 1.203-1.861l-1.762-0.5879c-0.2005 0.4774-0.4972 0.9214-0.8887 1.332-0.3917 0.401-0.8743 0.7222-1.447 0.9609s-1.236 0.3574-1.99 0.3574c-1.107 0-2.071-0.2619-2.893-0.7871-0.8119-0.5253-1.442-1.262-1.891-2.207-0.4093-0.8902-0.6264-1.922-0.6543-3.094h11.91v-0.8301c0-1.375-0.1862-2.559-0.5586-3.553-0.3727-1.003-0.8839-1.829-1.533-2.479-0.6493-0.6495-1.38-1.13-2.191-1.445-0.812-0.3247-1.648-0.4883-2.508-0.4883zm74.8 0.0137c-1.317 0-2.472 0.3496-3.465 1.047-0.9929 0.6873-1.767 1.647-2.32 2.879-0.5538 1.222-0.8301 2.644-0.8301 4.268 0 1.623 0.2804 3.027 0.8438 4.211 0.5733 1.174 1.353 2.077 2.336 2.707 0.9933 0.6302 2.129 0.9453 3.408 0.9453 0.9647-1e-5 1.773-0.1575 2.422-0.4727 0.6496-0.3246 1.175-0.7257 1.576-1.203 0.4011-0.487 0.7059-0.9739 0.916-1.461h0.1856v3.609c0 1.489-0.4377 2.588-1.316 3.295-0.8693 0.7067-2.017 1.059-3.439 1.059-0.9073 0-1.67-0.1289-2.291-0.3867-0.6205-0.2483-1.126-0.5675-1.518-0.959-0.3915-0.3821-0.6984-0.7788-0.918-1.189l-1.518 1.004c0.468 0.9169 1.217 1.68 2.248 2.291 1.031 0.6109 2.364 0.9177 3.996 0.918 1.269-2.2e-4 2.4-0.209 3.393-0.6289 0.9933-0.42 1.773-1.071 2.336-1.949 0.5729-0.8687 0.8594-1.98 0.8594-3.336v-16.43h-1.777v3.066h-0.1992c-0.2198-0.4771-0.5266-0.9683-0.918-1.475-0.3913-0.5063-0.9112-0.9317-1.561-1.275-0.6493-0.3533-1.466-0.5312-2.449-0.5312zm-83.47 0.0352c-1.003 0-1.905 0.2476-2.707 0.7441-0.7927 0.4873-1.351 1.138-1.676 1.949h-0.1426v-2.479h-1.791v16.01l1.848 6e-3v-10.33c0-0.7922 0.1862-1.494 0.5586-2.105 0.3727-0.6207 0.8839-1.108 1.533-1.461 0.6587-0.3533 1.397-0.5293 2.219-0.5293 0.2578 0 0.4931 0.0143 0.7031 0.043 0.2101 0.0191 0.3533 0.0334 0.4297 0.043v-1.877c-0.1241-0.01-0.2816-0.0137-0.4726-0.0137h-0.502zm69.01 0.0117c-1.175 0-2.158 0.2476-2.951 0.7441-0.7923 0.4967-1.374 1.16-1.746 1.99h-0.1856v-2.535h-1.791v16.01h1.848v-9.996l-2e-3 8e-3c0-0.9353 0.1862-1.738 0.5586-2.406 0.3818-0.6778 0.9017-1.198 1.561-1.561 0.6593-0.3724 1.41-0.5586 2.25-0.5586 1.232 0 2.216 0.3868 2.951 1.16s1.104 1.813 1.104 3.121v10.24h1.848v-10.36c0-1.27-0.2292-2.34-0.6875-3.209-0.458-0.8692-1.099-1.528-1.92-1.977-0.812-0.4488-1.757-0.6719-2.836-0.6719zm-145.9 2e-3c-1.05 0-1.952 0.2394-2.707 0.7168-0.7449 0.4773-1.275 1.132-1.59 1.963h-0.1856v-2.479h-1.789v16.01l1.848 6e-3v-10.24c0-0.8403 0.1678-1.581 0.502-2.221 0.3435-0.6398 0.8062-1.141 1.389-1.504 0.592-0.3724 1.255-0.5586 1.99-0.5586 1.098 0 1.947 0.3352 2.549 1.004 0.6016 0.6687 0.9024 1.542 0.9024 2.621v10.9h1.906v-10.53c0-1.145 0.3294-2.095 0.9883-2.85 0.6593-0.764 1.6-1.146 2.822-1.146 1.06 0 1.909 0.3212 2.549 0.9609 0.6493 0.63 0.9727 1.575 0.9727 2.836v10.73h1.863v-10.73c0-1.785-0.4341-3.146-1.303-4.082-0.8693-0.936-2.05-1.404-3.539-1.404-1.155 0-2.144 0.266-2.965 0.8008-0.8118 0.5247-1.399 1.227-1.762 2.105h-0.1426c-0.3533-0.8977-0.8851-1.604-1.592-2.119-0.7067-0.5252-1.609-0.7891-2.707-0.7891zm116.1 0c-1.05 0-1.952 0.2394-2.707 0.7168-0.7449 0.4773-1.275 1.132-1.59 1.963h-0.1875v-2.479h-1.789v16.01l1.848 6e-3v-10.24c0-0.8403 0.1678-1.581 0.502-2.221 0.3435-0.6398 0.8062-1.141 1.389-1.504 0.592-0.3724 1.255-0.5586 1.99-0.5586 1.098 0 1.949 0.3352 2.551 1.004 0.6015 0.6687 0.9023 1.542 0.9023 2.621v10.9h1.904v-10.53c0-1.145 0.3294-2.095 0.9883-2.85 0.6593-0.764 1.6-1.146 2.822-1.146 1.06 0 1.909 0.3212 2.549 0.9609 0.6493 0.63 0.9746 1.575 0.9746 2.836v10.73h1.861v-10.73c0-1.785-0.4341-3.146-1.303-4.082-0.8693-0.936-2.05-1.404-3.539-1.404-1.155 0-2.144 0.266-2.965 0.8008-0.8118 0.5247-1.399 1.227-1.762 2.105h-0.1426c-0.3533-0.8977-0.8832-1.604-1.59-2.119-0.7067-0.5252-1.609-0.7891-2.707-0.7891zm-131.2 0.0254c-0.8113 0-1.614 0.1187-2.406 0.3574-0.7923 0.2295-1.509 0.6076-2.148 1.133-0.6398 0.5253-1.141 1.221-1.504 2.09l1.777 0.6445c0.286-0.6873 0.7916-1.283 1.518-1.789s1.667-0.7598 2.822-0.7598c1.213 0 2.144 0.3151 2.793 0.9453 0.6493 0.6207 0.9726 1.48 0.9726 2.578v0.373c0 0.4011-0.1617 0.6916-0.4863 0.873-0.3247 0.1814-0.7973 0.3144-1.418 0.4004-0.6207 0.0764-1.38 0.1725-2.277 0.2871-0.9067 0.105-1.738 0.2626-2.492 0.4726-0.7449 0.2005-1.393 0.4768-1.947 0.8301-0.554 0.344-0.9794 0.7837-1.275 1.318s-0.4434 1.198-0.4434 1.99c0 1.031 0.2333 1.911 0.7012 2.637 0.4773 0.7161 1.118 1.265 1.92 1.646 0.802 0.3724 1.684 0.5586 2.648 0.5586v4e-3c0.8978 0 1.675-0.1432 2.334-0.4297 0.6588-0.2868 1.209-0.6506 1.648-1.09 0.4393-0.4488 0.7626-0.9071 0.9727-1.375h0.1152v2.535h1.861v-10.86c0-1.069-0.1801-1.953-0.543-2.65-0.3529-0.7065-0.8175-1.255-1.391-1.646-0.5731-0.3915-1.189-0.6697-1.848-0.832s-1.293-0.2422-1.904-0.2422zm116.1 0c-0.8113 0-1.614 0.1187-2.406 0.3574-0.7923 0.2295-1.509 0.6076-2.148 1.133-0.6398 0.5253-1.141 1.221-1.504 2.09l1.777 0.6445c0.286-0.6873 0.7916-1.283 1.518-1.789s1.667-0.7598 2.822-0.7598c1.213 0 2.144 0.3151 2.793 0.9453 0.6493 0.6207 0.9746 1.48 0.9746 2.578v0.373c0 0.4011-0.1636 0.6916-0.4883 0.873s-0.7973 0.3144-1.418 0.4004c-0.6207 0.0764-1.38 0.1725-2.277 0.2871-0.9067 0.105-1.738 0.2626-2.492 0.4726-0.7449 0.2005-1.393 0.4768-1.947 0.8301-0.554 0.344-0.9794 0.7837-1.275 1.318s-0.4434 1.198-0.4434 1.99c0 1.031 0.2333 1.911 0.7012 2.637 0.4773 0.7161 1.118 1.265 1.92 1.646 0.802 0.3724 1.686 0.5586 2.65 0.5586l-2e-3 4e-3c0.8978 0 1.677-0.1432 2.336-0.4297 0.6587-0.2868 1.207-0.6506 1.646-1.09 0.4393-0.4488 0.7645-0.9071 0.9746-1.375h0.1133v2.535h1.863v-10.86c0-1.069-0.182-1.953-0.5449-2.65-0.3531-0.7065-0.8157-1.255-1.389-1.646-0.5731-0.3915-1.189-0.6697-1.848-0.832-0.6589-0.1623-1.295-0.2422-1.906-0.2422zm32.76 0.1758v16.01h1.848v-16.01zm-109.6 1.428c1.031 0 1.913 0.268 2.648 0.8027 0.7352 0.5347 1.3 1.259 1.691 2.176 0.3272 0.7477 0.5178 1.579 0.5781 2.492h-10.04c0.0481-0.9004 0.2545-1.735 0.6191-2.506 0.43-0.8973 1.031-1.614 1.805-2.148 0.7733-0.5443 1.671-0.8164 2.693-0.8164zm61.4 0c1.031 7e-5 1.915 0.2681 2.65 0.8027 0.7352 0.5347 1.298 1.259 1.689 2.176 0.3272 0.7477 0.5178 1.579 0.5781 2.492h-10.04c0.0481-0.9004 0.2545-1.735 0.6191-2.506 0.43-0.8973 1.031-1.614 1.805-2.148 0.7733-0.5443 1.671-0.8164 2.693-0.8164zm75 0.0137c1.041 0 1.924 0.2804 2.65 0.8438 0.7349 0.554 1.288 1.319 1.66 2.293 0.3819 0.9647 0.5723 2.072 0.5723 3.322 0 1.929-0.4297 3.447-1.289 4.555s-2.056 1.662-3.594 1.662c-1.06 0-1.962-0.2639-2.707-0.7891-0.7354-0.5247-1.294-1.255-1.676-2.191-0.3819-0.936-0.5723-2.014-0.5723-3.236 0-1.203 0.1862-2.292 0.5586-3.266 0.382-0.9737 0.9404-1.747 1.676-2.32 0.7353-0.5825 1.642-0.873 2.721-0.873zm-171.8 6.16v2.307c0 0.8687-0.1945 1.669-0.5859 2.404-0.3913 0.7355-0.9517 1.324-1.678 1.764-0.716 0.4297-1.566 0.6445-2.549 0.6445-1.059 0-1.937-0.268-2.635-0.8027-0.6873-0.5347-1.031-1.283-1.031-2.248 0-0.6494 0.1678-1.181 0.502-1.592 0.3436-0.4106 0.8349-0.7339 1.475-0.9727 0.6493-0.2387 1.423-0.4166 2.32-0.5312 0.3245-0.0382 0.6971-0.0853 1.117-0.1426 0.4294-0.0573 0.8492-0.1228 1.26-0.1992 0.4203-0.0763 0.7884-0.1684 1.104-0.2734 0.3247-0.1051 0.558-0.2238 0.7012-0.3574zm116.1 0v2.307c0 0.8687-0.1945 1.669-0.5859 2.404-0.3913 0.7355-0.9498 1.324-1.676 1.764-0.716 0.4297-1.565 0.6445-2.549 0.6445-1.059 0-1.937-0.268-2.635-0.8027-0.6873-0.5347-1.031-1.283-1.031-2.248 0-0.6494 0.1658-1.181 0.5-1.592 0.3436-0.4106 0.8368-0.7339 1.477-0.9727 0.6493-0.2387 1.421-0.4166 2.318-0.5312 0.3245-0.0382 0.697-0.0853 1.117-0.1426 0.4294-0.0573 0.8492-0.1228 1.26-0.1992 0.4202-0.0763 0.7884-0.1684 1.104-0.2734 0.3247-0.1051 0.558-0.2238 0.7012-0.3574z"/></g></svg>
