<svg width="480" height="320" version="1.1" viewBox="0 0 480 320" xmlns="http://www.w3.org/2000/svg"><defs><linearGradient id="a" x1="51.57" x2="69.36" y1="72.35" y2="-46.38" gradientTransform="scale(3.78)" gradientUnits="userSpaceOnUse"><stop stop-color="#3e203c" offset="0"/><stop stop-color="#f01" offset="1"/></linearGradient></defs><rect width="480" height="320" ry="24" fill="url(#a)"/><path d="m308.5 74.78-25.55 5.072a1.237 1.237 110.5 0 0-0.7376 1.971l19.47 25.16a3.217 3.217 20.39 0 0 3.184 1.184l9.88-2.006a4.016 4.016 123.6 0 0 3.139-4.719l-4.679-23.51a4.002 4.002 33.76 0 0-4.704-3.144zm-53 10.49-11.84 2.343a1.232 1.232 110.4 0 0-0.7328 1.966l19.54 25.08a3.242 3.242 20.41 0 0 3.191 1.187l11.76-2.339a1.236 1.236 110.5 0 0 0.7352-1.97l-19.47-25.08a3.24 3.24 20.49 0 0-3.188-1.192zm-39.2 7.699-11.84 2.465a1.246 1.246 110.2 0 0-0.7289 1.985l19.54 25.08a3.242 3.242 20.41 0 0 3.191 1.187l11.76-2.339a1.24 1.24 110.5 0 0 0.7395-1.974l-19.48-25.23a3.195 3.195 20.29 0 0-3.18-1.176zm-46.14 9.338c-7.778 2.059-12.83 9.614-11.75 17.59 0.0738 0.5472 0.2515 1.425 0.3593 1.967l2.73 13.72a1.001 1.001 33.77 0 0 1.176 0.7866l36.26-7.177a1.235 1.235 110.5 0 0 0.7356-1.968l-19.47-25.08a3.254 3.254 20.6 0 0-3.19-1.199l-4.895 0.949c-0.5422 0.1051-1.422 0.275-1.956 0.4162zm-8.466 35.25v79c0 8.88 7.2 16 16 16h128c8.88 0 16-7.12 16-16v-76a4 4 45 0 0-4-4h-155a1 1 135 0 0-1 1z" fill="#fff"/></svg>
