<svg width="480" height="320" version="1.1" viewBox="0 0 127 84.667" xmlns="http://www.w3.org/2000/svg" xmlns:xlink="http://www.w3.org/1999/xlink">
 <defs>
  <linearGradient id="a" x1="47.887" x2="59.432" y1="84.667" y2="-33.672" gradientUnits="userSpaceOnUse">
   <stop stop-color="#0e141f" offset="0"/>
   <stop stop-color="#7a0000" offset=".19819"/>
   <stop stop-color="#452981" offset="1"/>
  </linearGradient>
 </defs>
 <rect width="127" height="84.667" ry="4.2333" fill="url(#a)" stroke-linecap="square" stroke-linejoin="round" stroke-width=".52917" style="paint-order:stroke fill markers"/>
 <path d="m57.895 29.862-4.8602 1.0806v0.99477l2.3301 0.36949-2.8133 15.121c-0.11369 0.65374-0.19895 1.1374-0.19895 1.5069 0 1.3643 0.9094 2.1032 2.5296 2.1032 0.93798 0 2.4157-0.39786 4.4623-1.1369v-1.1085c-0.88114 0.28424-1.6484 0.42633-2.3022 0.42633-0.65375 0-1.1653-0.56839-1.1653-1.4495 0-0.56848 0.1421-1.251 0.31264-2.0753l2.9559-15.832zm-43.751 0.5116-5.16e-4 1e-3 -3.56 20.615h3.8266l2.2562-13.02 4.33 13.02h3.4613l4.3868-13.02 2.2149 13.018h3.7837l-3.4758-20.614h-3.7837l-4.8354 14.378-4.764-14.378zm23.837 1e-3v20.614h3.9238v-8.7302c1.9998 0 3.378-0.10725 4.1346-0.32246 1.2892-0.37357 2.3073-1.0372 3.0551-1.9901 0.75594-0.95287 1.1353-2.1486 1.1353-3.5874 0-1.2987-0.29005-2.4106-0.86868-3.3357-0.57051-0.93389-1.3553-1.6065-2.3549-2.0179-0.9901-0.42027-2.611-0.62994-4.8633-0.62994zm3.9243 3.8396h1.1069c1.2155 0 2.0464 0.13548 2.4944 0.40618 0.6172 0.3641 0.92501 0.94352 0.92501 1.7374 0 0.45817-0.1124 0.85083-0.33641 1.1777a1.7941 1.7941 0 0 1-0.89659 0.68678c-0.38304 0.14009-1.0651 0.21032-2.0464 0.21032h-1.247zm26.723 2.5265c-2.5297 0-4.889 1.2794-6.3102 3.4396-1.137 1.7339-1.7053 3.6095-1.7053 5.656 0 3.2687 1.5346 5.1733 4.0928 5.1733 1.3928 0 2.9279-0.7673 4.5196-2.2738v0.14211c0 1.3643 0.73888 2.0748 2.1317 2.0748 1.0801 0 2.5015-0.34102 4.2922-0.99477v-1.0516c-0.68217 0.19896-1.3079 0.31264-1.8764 0.31264-0.65374 0-1.1937-0.56838-1.1937-1.5348 0-0.36951 0.08525-1.0521 0.2558-1.9901l0.85266-4.6044c0.42636-2.3592 0.79632-3.809 0.96687-4.3207h-1.6774l-1.0516 0.68213c-1.1654-0.45475-2.2453-0.71052-3.297-0.71052zm11.718 0-4.3775 0.99477v0.93793l2.4727 0.22738c0.31266 0.5969 0.56895 1.3363 0.71107 2.1322l1.7053 9.0103h1.08c-1.5349 2.9277-2.9563 4.4623-4.2354 4.5759l-1.9043-1.7906c-1.0233 0.19896-1.6485 0.93787-1.6485 1.9043 0 1.137 1.0231 2.189 2.3874 2.189 2.3308 0 4.69-2.2456 7.1913-6.7365 2.1886-3.9225 3.3258-8.0159 5.5428-10.972l1.6769-0.93793v-0.7674l-2.2453-0.73897h-0.88108c-1.4996 3.4943-2.9496 7.0095-4.3491 10.545l-0.96635-6.196c-0.42636-2.7287-0.93785-4.1501-2.1601-4.3775zm28.907 0.02842-4.8891 1.1653v0.96635l2.3595 0.34106-2.2743 11.54h3.4964l1.1085-6.5944c0.42636-2.5297 1.4783-4.0932 3.7806-5.0596l0.76739 2.1606h0.0568c1.677 0 2.7569-1.052 2.7569-2.4164 0-1.2506-0.88101-2.0748-2.1032-2.0748-1.3359 0-3.0416 1.2509-4.8607 3.7806l0.79582-3.8091zm-10.115 0.05684c-1.7054 0-3.5248 0.68205-4.9744 1.9043-2.1034 1.7907-3.2117 4.2352-3.2117 6.9071 0 3.3824 1.8757 5.4007 5.0307 5.4007 1.7054 0 3.7521-0.76729 5.827-2.3875l0.0568-1.7343c-1.7054 1.3359-3.2405 1.9901-4.4628 1.9901-1.9044 0-3.0412-1.3078-3.0412-3.7238 0-0.25582 0.02841-0.54 0.05684-0.85266 0.31266 0 0.59685 0.02842 0.88108 0.02842 4.7468 0 7.3618-1.7336 7.3618-4.4338 0-1.876-1.3073-3.0985-3.5243-3.0985zm-30.027 1.279c0.92825 0 1.7041 0.75544 1.5064 1.7343l-1.3358 7.5318c-1.0801 0.88114-1.9895 1.3364-2.8706 1.3364-1.3928 0-2.1606-1.1088-2.1606-3.269 0-4.3204 2.2173-7.3334 4.8607-7.3334zm29.288 0.14211c0.85272 0 1.3927 0.5689 1.3927 1.45 0 1.6486-1.9614 3.2969-5.1449 3.4391 0.79587-3.2119 2.2742-4.8891 3.7522-4.8891z" fill="#fafafa" stroke-width=".67676"/>
 <style type="text/css">.st0{fill:#FC0C18;}
	.st1{fill:#FC0C18;}</style>
</svg>
