<?xml version="1.0" encoding="UTF-8" standalone="no"?>
<!-- Created with Inkscape (http://www.inkscape.org/) -->

<svg
   width="480"
   height="320"
   viewBox="0 0 127 84.666667"
   version="1.1"
   id="svg1543"
   inkscape:export-filename="/home/vitor/Dev/es-theme-material-tv-3-2/assets/logos/atarilynx.png"
   inkscape:export-xdpi="96"
   inkscape:export-ydpi="96"
   inkscape:version="1.1.1 (3bf5ae0d25, 2021-09-20)"
   sodipodi:docname="mplayer.svg"
   xmlns:inkscape="http://www.inkscape.org/namespaces/inkscape"
   xmlns:sodipodi="http://sodipodi.sourceforge.net/DTD/sodipodi-0.dtd"
   xmlns:xlink="http://www.w3.org/1999/xlink"
   xmlns="http://www.w3.org/2000/svg"
   xmlns:svg="http://www.w3.org/2000/svg">
  <sodipodi:namedview
     id="namedview1545"
     pagecolor="#505050"
     bordercolor="#eeeeee"
     borderopacity="1"
     inkscape:pageshadow="0"
     inkscape:pageopacity="0"
     inkscape:pagecheckerboard="0"
     inkscape:document-units="px"
     showgrid="false"
     units="px"
     width="640px"
     inkscape:snap-page="true"
     showguides="true"
     inkscape:guide-bbox="true"
     inkscape:zoom="1.4039016"
     inkscape:cx="181.63666"
     inkscape:cy="157.41844"
     inkscape:window-width="1920"
     inkscape:window-height="1019"
     inkscape:window-x="0"
     inkscape:window-y="30"
     inkscape:window-maximized="1"
     inkscape:current-layer="layer1">
    <sodipodi:guide
       position="10.583333,71.4375"
       orientation="-1,0"
       id="guide2978"
       inkscape:label=""
       inkscape:locked="false"
       inkscape:color="rgb(0,0,255)" />
    <sodipodi:guide
       position="116.41667,13.229167"
       orientation="-1,0"
       id="guide2980"
       inkscape:label=""
       inkscape:locked="false"
       inkscape:color="rgb(0,0,255)" />
    <sodipodi:guide
       position="10.583333,71.4375"
       orientation="0,1"
       id="guide2982"
       inkscape:label=""
       inkscape:locked="false"
       inkscape:color="rgb(0,0,255)" />
    <sodipodi:guide
       position="116.41667,13.229167"
       orientation="0,1"
       id="guide2984"
       inkscape:label=""
       inkscape:locked="false"
       inkscape:color="rgb(0,0,255)" />
  </sodipodi:namedview>
  <defs
     id="defs1540">
    <linearGradient
       inkscape:collect="always"
       id="linearGradient1694">
      <stop
         style="stop-color:#0e141f;stop-opacity:1"
         offset="0"
         id="stop1690" />
      <stop
         style="stop-color:#7a0000;stop-opacity:1"
         offset="0.1981864"
         id="stop2116" />
      <stop
         style="stop-color:#a10705;stop-opacity:1"
         offset="0.33015168"
         id="stop2374" />
      <stop
         style="stop-color:#3689e6;stop-opacity:1"
         offset="0.73249131"
         id="stop2568" />
      <stop
         style="stop-color:#273445;stop-opacity:1"
         offset="1"
         id="stop1692" />
    </linearGradient>
    <clipPath
       id="clip1">
      <path
         d="m 249,0 h 75 v 124.51172 h -75 z m 0,0"
         id="path2" />
    </clipPath>
    <clipPath
       id="clip2">
      <path
         d="m 421,0 h 90 v 124.51172 h -90 z m 0,0"
         id="path5" />
    </clipPath>
    <clipPath
       id="clip3">
      <path
         d="m 513,0 h 28 v 124.51172 h -28 z m 0,0"
         id="path8" />
    </clipPath>
    <clipPath
       id="clip4">
      <path
         d="m 659,4 h 86.87109 V 124 H 659 Z m 0,0"
         id="path11" />
    </clipPath>
    <marker
       id="DefaultArrow2"
       markerUnits="strokeWidth"
       viewBox="0 0 1 1"
       markerWidth="1"
       markerHeight="1"
       overflow="visible"
       orient="auto">
      <!-- REF_ARROW_STRAIGHT (-2) -->
      <g
         transform="scale(0.0092592592)"
         id="g8989">
        <!-- 1/108 -->
        <path
           d="M -9 54 L -9 -54 L 117 0 z"
           id="path8987" />
      </g>
    </marker>
    <marker
       id="DefaultArrow3"
       markerUnits="strokeWidth"
       viewBox="0 0 1 1"
       markerWidth="1"
       markerHeight="1"
       overflow="visible"
       orient="auto">
      <!-- REF_ARROW_ANGLED -->
      <g
         transform="scale(0.0092592592)"
         id="g8994">
        <path
           d="M -27 54 L -9 0 L -27 -54 L 135 0 z"
           id="path8992" />
      </g>
    </marker>
    <marker
       id="DefaultArrow4"
       markerUnits="strokeWidth"
       viewBox="0 0 1 1"
       markerWidth="1"
       markerHeight="1"
       overflow="visible"
       orient="auto">
      <!-- REF_ARROW_ROUNDED -->
      <g
         transform="scale(0.0092592592)"
         id="g8999">
        <path
           d="M -9,0 L -9,-45 C -9,-51.708 2.808,-56.580 9,-54 L 117,-9 C 120.916,-7.369 126.000,-4.242 126,0 C 126,4.242 120.916,7.369 117,9 L 9,54 C 2.808,56.580 -9,51.708 -9,45 z"
           id="path8997" />
      </g>
    </marker>
    <marker
       id="DefaultArrow5"
       markerUnits="strokeWidth"
       viewBox="0 0 1 1"
       markerWidth="1"
       markerHeight="1"
       overflow="visible"
       orient="auto">
      <!-- REF_ARROW_SPOT -->
      <g
         transform="scale(0.0092592592)"
         id="g9004">
        <path
           d="M -54, 0 C -54,29.807 -29.807,54 0,54 C 29.807,54 54,29.807 54,0 C 54,-29.807 29.807,-54 0,-54 C -29.807,-54 -54,-29.807 -54,0 z"
           id="path9002" />
      </g>
    </marker>
    <marker
       id="DefaultArrow6"
       markerUnits="strokeWidth"
       viewBox="0 0 1 1"
       markerWidth="1"
       markerHeight="1"
       overflow="visible"
       orient="auto">
      <!-- REF_ARROW_DIAMOND -->
      <g
         transform="scale(0.0092592592)"
         id="g9009">
        <path
           d="M -63,0 L 0,63 L 63,0 L 0,-63 z"
           id="path9007" />
      </g>
    </marker>
    <marker
       id="DefaultArrow7"
       markerUnits="strokeWidth"
       viewBox="0 0 1 1"
       markerWidth="1"
       markerHeight="1"
       overflow="visible"
       orient="auto">
      <!-- REF_ARROW_FEATHER -->
      <g
         transform="scale(0.0092592592)"
         id="g9014">
        <path
           d="M 18,-54 L 108,-54 L 63,0 L 108,54 L 18, 54 L -36,0 z"
           id="path9012" />
      </g>
    </marker>
    <marker
       id="DefaultArrow8"
       markerUnits="strokeWidth"
       viewBox="0 0 1 1"
       markerWidth="1"
       markerHeight="1"
       overflow="visible"
       orient="auto">
      <!-- REF_ARROW_FEATHER2 -->
      <g
         transform="scale(0.0092592592)"
         id="g9019">
        <path
           d="M -36,0 L 18,-54 L 54,-54 L 18,-18 L 27,-18 L 63,-54 L 99,-54 L 63,-18 L 72,-18 L 108,-54 L 144,-54 L 90,0 L 144,54 L 108,54 L 72,18 L 63,18 L 99,54 L 63,54 L 27,18 L 18,18 L 54,54 L 18,54 z"
           id="path9017" />
      </g>
    </marker>
    <marker
       id="DefaultArrow9"
       markerUnits="strokeWidth"
       viewBox="0 0 1 1"
       markerWidth="1"
       markerHeight="1"
       overflow="visible"
       orient="auto">
      <!-- REF_ARROW_HOLLOWDIAMOND -->
      <g
         transform="scale(0.0092592592)"
         id="g9024">
        <path
           d="M 0,45 L -45,0 L 0, -45 L 45, 0 z M 0, 63 L-63, 0 L 0, -63 L 63, 0 z"
           id="path9022" />
      </g>
    </marker>
    <filter
       id="StainedFilter">
      <feBlend
         mode="multiply"
         in2="BackgroundImage"
         in="SourceGraphic"
         result="blend"
         id="feBlend9027" />
      <feComposite
         in="blend"
         in2="SourceAlpha"
         operator="in"
         result="comp"
         id="feComposite9029" />
    </filter>
    <filter
       id="BleachFilter">
      <feBlend
         mode="screen"
         in2="BackgroundImage"
         in="SourceGraphic"
         result="blend"
         id="feBlend9032" />
      <feComposite
         in="blend"
         in2="SourceAlpha"
         operator="in"
         result="comp"
         id="feComposite9034" />
    </filter>
    <filter
       id="InvertTransparencyBitmapFilter">
      <feComponentTransfer
         id="feComponentTransfer9043">
        <feFuncR
           type="gamma"
           amplitude="1.055"
           exponent=".416666666"
           offset="-0.055"
           id="feFuncR9037" />
        <feFuncG
           type="gamma"
           amplitude="1.055"
           exponent=".416666666"
           offset="-0.055"
           id="feFuncG9039" />
        <feFuncB
           type="gamma"
           amplitude="1.055"
           exponent=".416666666"
           offset="-0.055"
           id="feFuncB9041" />
      </feComponentTransfer>
      <feComponentTransfer
         id="feComponentTransfer9053">
        <feFuncR
           type="linear"
           slope="-1"
           intercept="1"
           id="feFuncR9045" />
        <feFuncG
           type="linear"
           slope="-1"
           intercept="1"
           id="feFuncG9047" />
        <feFuncB
           type="linear"
           slope="-1"
           intercept="1"
           id="feFuncB9049" />
        <feFuncA
           type="linear"
           slope="1"
           intercept="0"
           id="feFuncA9051" />
      </feComponentTransfer>
      <feComponentTransfer
         id="feComponentTransfer9061">
        <feFuncR
           type="gamma"
           amplitude="1"
           exponent="2.4"
           offset="0"
           id="feFuncR9055" />
        <feFuncG
           type="gamma"
           amplitude="1"
           exponent="2.4"
           offset="0"
           id="feFuncG9057" />
        <feFuncB
           type="gamma"
           amplitude="1"
           exponent="2.4"
           offset="0"
           id="feFuncB9059" />
      </feComponentTransfer>
    </filter>
    <inkscape:perspective
       sodipodi:type="inkscape:persp3d"
       inkscape:vp_x="0 : 526.18109 : 1"
       inkscape:vp_y="0 : 1000 : 0"
       inkscape:vp_z="744.09448 : 526.18109 : 1"
       inkscape:persp3d-origin="372.04724 : 350.78739 : 1"
       id="perspective10" />
    <inkscape:perspective
       id="perspective2824"
       inkscape:persp3d-origin="0.5 : 0.33333333 : 1"
       inkscape:vp_z="1 : 0.5 : 1"
       inkscape:vp_y="0 : 1000 : 0"
       inkscape:vp_x="0 : 0.5 : 1"
       sodipodi:type="inkscape:persp3d" />
    <linearGradient
       inkscape:collect="always"
       xlink:href="#linearGradient1694"
       id="linearGradient1696"
       x1="47.886734"
       y1="84.666664"
       x2="94.809586"
       y2="-76.14106"
       gradientUnits="userSpaceOnUse" />
  </defs>
  <g
     inkscape:label="Camada 1"
     inkscape:groupmode="layer"
     id="layer1">
    <rect
       style="opacity:1;fill:url(#linearGradient1696);fill-opacity:1;stroke-width:0.529167;stroke-linecap:square;stroke-linejoin:round;paint-order:stroke fill markers"
       id="rect1569"
       width="127"
       height="84.666664"
       x="0"
       y="0"
       ry="4.2333331"
       inkscape:export-filename="/home/vitor/Dev/es-theme-material-tv-3-2/assets/logo/fbn.png"
       inkscape:export-xdpi="96"
       inkscape:export-ydpi="96" />
    <path
       id="path3371"
       style="font-weight:700;line-height:125%;text-align:start;fill:#fafafa;stroke-width:0.676757"
       d="m 57.89468,29.861744 -4.860168,1.080555 v 0.99477 l 2.33009,0.369488 -2.813265,15.121041 c -0.113694,0.653745 -0.198953,1.137375 -0.198953,1.506884 0,1.364342 0.909405,2.103231 2.52956,2.103231 0.937984,0 2.415746,-0.397862 4.462261,-1.136883 v -1.108459 c -0.881139,0.284237 -1.648436,0.426332 -2.302185,0.426332 -0.653748,0 -1.165304,-0.568386 -1.165304,-1.449526 0,-0.568475 0.1421,-1.251034 0.312642,-2.075325 l 2.955893,-15.832108 z m -43.750817,0.511598 -5.16e-4,10e-4 -3.55999,20.614761 h 3.82664 l 2.256193,-13.019875 4.329968,13.019875 h 3.461288 l 4.386812,-13.019875 2.214851,13.018325 h 3.783748 L 31.3671,30.373342 H 27.583352 L 22.747989,44.75179 17.983939,30.373342 Z m 23.837304,10e-4 v 20.61373 h 3.923792 v -8.730218 c 1.999819,0 3.378018,-0.107252 4.134631,-0.322461 1.289224,-0.373568 2.307296,-1.037186 3.055112,-1.990059 0.755938,-0.952873 1.135329,-2.148591 1.135329,-3.587377 0,-1.298699 -0.290052,-2.410587 -0.868679,-3.335715 -0.570508,-0.933892 -1.355323,-1.606463 -2.354895,-2.017932 -0.990095,-0.420267 -2.611022,-0.629936 -4.863269,-0.629936 z m 3.924308,3.839559 h 1.106911 c 1.215456,0 2.046407,0.135475 2.49442,0.406178 0.617204,0.364096 0.925007,0.943525 0.925007,1.73736 0,0.458166 -0.112405,0.850834 -0.336412,1.177705 a 1.7940835,1.7940835 0 0 1 -0.896586,0.686782 c -0.383045,0.140091 -1.065088,0.210322 -2.046388,0.210322 h -1.246952 z m 26.723435,2.526461 c -2.529721,0 -4.889021,1.279375 -6.310209,3.439584 -1.136954,1.733851 -1.705324,3.609472 -1.705324,5.655984 0,3.268737 1.534633,5.173329 4.092773,5.173329 1.392767,0 2.92789,-0.767302 4.519621,-2.273763 v 0.142111 c 0,1.36434 0.738885,2.074807 2.131655,2.074807 1.080103,0 2.501543,-0.341024 4.292243,-0.99477 v -1.051616 c -0.682173,0.198964 -1.307894,0.312643 -1.876373,0.312643 -0.653745,0 -1.193723,-0.568381 -1.193723,-1.53479 0,-0.369512 0.08525,-1.052073 0.255797,-1.990061 l 0.852662,-4.604369 c 0.426357,-2.359176 0.796324,-3.809037 0.966867,-4.320667 H 72.97748 l -1.051615,0.68213 c -1.165376,-0.45475 -2.245276,-0.71052 -3.296955,-0.71052 z m 11.718147,0 -4.37751,0.99477 v 0.93793 l 2.472717,0.227375 c 0.31266,0.5969 0.568949,1.336304 0.711067,2.132168 l 1.705322,9.010303 h 1.080037 c -1.534885,2.927652 -2.95633,4.462254 -4.2354,4.575948 L 75.799015,52.82827 c -1.023257,0.198964 -1.648478,0.937866 -1.648478,1.904275 0,1.136951 1.023106,2.189014 2.387449,2.189014 2.330754,0 4.689999,-2.245579 7.191293,-6.73654 2.188633,-3.922485 3.325757,-8.015864 5.542814,-10.97194 l 1.6769,-0.937927 v -0.767395 l -2.245341,-0.738973 h -0.881084 c -1.499611,3.494251 -2.949615,7.009545 -4.349088,10.545093 l -0.966349,-6.195973 c -0.426357,-2.728684 -0.937852,-4.150121 -2.160074,-4.37751 z m 28.906753,0.02842 -4.8891,1.165304 v 0.966349 l 2.35954,0.341063 -2.27428,11.540382 h 3.49643 l 1.10846,-6.59443 c 0.42636,-2.529718 1.47832,-4.093229 3.78065,-5.059638 l 0.76739,2.16059 h 0.0568 c 1.677,0 2.75694,-1.052047 2.75694,-2.416389 0,-1.250648 -0.88101,-2.07481 -2.10324,-2.07481 -1.33592,0 -3.04155,1.250932 -4.86068,3.780648 l 0.79582,-3.809069 z m -10.114619,0.05684 c -1.705427,0 -3.52476,0.682054 -4.974373,1.904278 -2.103363,1.7907 -3.211689,4.235233 -3.211689,6.907072 0,3.382433 1.875657,5.400704 5.0307,5.400704 1.705427,0 3.752098,-0.767294 5.827031,-2.387452 l 0.0568,-1.734262 c -1.70543,1.335921 -3.240546,1.990061 -4.46277,1.990061 -1.904394,0 -3.041158,-1.307782 -3.041158,-3.723804 0,-0.255815 0.02841,-0.539998 0.05684,-0.852662 0.312663,0 0.596847,0.02842 0.881084,0.02842 4.746784,0 7.361824,-1.733577 7.361824,-4.433837 0,-1.87597 -1.30728,-3.09852 -3.524332,-3.09852 z m -30.027107,1.27903 c 0.928246,0 1.704055,0.755444 1.506368,1.734262 l -1.335836,7.531838 c -1.080106,0.881139 -1.989489,1.336352 -2.870626,1.336352 -1.392766,0 -2.160592,-1.108842 -2.160592,-3.269049 0,-4.320418 2.217271,-7.333403 4.860686,-7.333403 z m 29.288134,0.142111 c 0.852715,0 1.392679,0.568901 1.392679,1.450041 0,1.648579 -1.961438,3.296946 -5.144904,3.439064 0.795866,-3.211888 2.274186,-4.889105 3.752225,-4.889105 z" />
  </g>
  <style
     type="text/css"
     id="style3952">
	.st0{fill:#FC0C18;}
	.st1{fill:#FC0C18;}
</style>
</svg>
