<svg width="480" height="320" version="1.1" viewBox="0 0 480 320" xml:space="preserve" xmlns="http://www.w3.org/2000/svg"><defs><linearGradient id="a" x1="10.58" x2="94.68" y1="-40.25" y2="96.49" gradientTransform="scale(3.78)" gradientUnits="userSpaceOnUse"><stop stop-color="#0e9a83" offset="0"/><stop stop-color="#0d52bf" offset="1"/></linearGradient></defs><rect width="480" height="320" ry="24" fill="url(#a)"/><path d="m50 82.91v154.2h380v-154.2zm315.8 131.2-22.56-31.75-22.55 31.75h-34.18l39.64-55.82-17.47-24.6h-70.39c-8.226 0-8.226 12.34 0 12.34h24.46c45.38 0 45.38 68.07 0 68.07h-75.52l-13.3-48.77-13.31 48.77h-25.12l-13.3-48.77-13.3 48.77h-28.88l29.54-108.3h25.29l13.22 48.47 13.22-48.47h25.3l21.92 80.41h54.25c8.226 0 8.226-12.34 0-12.34h-24.46c-45.38 0-45.38-68.07 0-68.07h84.76l20.18 28.41 20.18-28.41h34.18l-37.27 52.47 39.64 55.81h-34.18z" fill="#fff"/></svg>
