<?xml version="1.0" encoding="UTF-8" standalone="no"?>
<!-- Created with Inkscape (http://www.inkscape.org/) -->

<svg
   width="480"
   height="320"
   viewBox="0 0 127 84.666667"
   version="1.1"
   id="svg1543"
   inkscape:export-filename="/home/vitor/Dev/es-theme-material-tv-3-2/assets/logo/msx2.png"
   inkscape:export-xdpi="96"
   inkscape:export-ydpi="96"
   inkscape:version="1.1.1 (3bf5ae0d25, 2021-09-20)"
   sodipodi:docname="msx2.svg"
   xmlns:inkscape="http://www.inkscape.org/namespaces/inkscape"
   xmlns:sodipodi="http://sodipodi.sourceforge.net/DTD/sodipodi-0.dtd"
   xmlns:xlink="http://www.w3.org/1999/xlink"
   xmlns="http://www.w3.org/2000/svg"
   xmlns:svg="http://www.w3.org/2000/svg">
  <sodipodi:namedview
     id="namedview1545"
     pagecolor="#505050"
     bordercolor="#eeeeee"
     borderopacity="1"
     inkscape:pageshadow="0"
     inkscape:pageopacity="0"
     inkscape:pagecheckerboard="0"
     inkscape:document-units="px"
     showgrid="false"
     units="px"
     width="640px"
     inkscape:snap-page="true"
     showguides="true"
     inkscape:guide-bbox="true"
     inkscape:zoom="0.79107571"
     inkscape:cx="185.82292"
     inkscape:cy="-60.676872"
     inkscape:window-width="1920"
     inkscape:window-height="1019"
     inkscape:window-x="0"
     inkscape:window-y="30"
     inkscape:window-maximized="1"
     inkscape:current-layer="layer1">
    <sodipodi:guide
       position="10.583333,76.729167"
       orientation="-1,0"
       id="guide2978"
       inkscape:label=""
       inkscape:locked="false"
       inkscape:color="rgb(0,0,255)" />
    <sodipodi:guide
       position="116.41667,7.9375"
       orientation="-1,0"
       id="guide2980"
       inkscape:label=""
       inkscape:locked="false"
       inkscape:color="rgb(0,0,255)" />
    <sodipodi:guide
       position="10.583333,71.4375"
       orientation="0,1"
       id="guide2982"
       inkscape:label=""
       inkscape:locked="false"
       inkscape:color="rgb(0,0,255)" />
    <sodipodi:guide
       position="116.41667,13.229167"
       orientation="0,1"
       id="guide2984"
       inkscape:label=""
       inkscape:locked="false"
       inkscape:color="rgb(0,0,255)" />
  </sodipodi:namedview>
  <defs
     id="defs1540">
    <linearGradient
       inkscape:collect="always"
       id="linearGradient2856">
      <stop
         style="stop-color:#89ffdd;stop-opacity:1"
         offset="0"
         id="stop2852" />
      <stop
         style="stop-color:#002e99;stop-opacity:1"
         offset="1"
         id="stop2854" />
    </linearGradient>
    <linearGradient
       inkscape:collect="always"
       xlink:href="#linearGradient2856"
       id="linearGradient2858"
       x1="70.674187"
       y1="-100.94778"
       x2="94.684792"
       y2="96.492844"
       gradientUnits="userSpaceOnUse" />
    <clipPath
       id="clip1">
      <path
         d="m 249,0 h 75 v 124.51172 h -75 z m 0,0"
         id="path2" />
    </clipPath>
    <clipPath
       id="clip2">
      <path
         d="m 421,0 h 90 v 124.51172 h -90 z m 0,0"
         id="path5" />
    </clipPath>
    <clipPath
       id="clip3">
      <path
         d="m 513,0 h 28 v 124.51172 h -28 z m 0,0"
         id="path8" />
    </clipPath>
    <clipPath
       id="clip4">
      <path
         d="m 659,4 h 86.87109 V 124 H 659 Z m 0,0"
         id="path11" />
    </clipPath>
    <marker
       id="DefaultArrow2"
       markerUnits="strokeWidth"
       viewBox="0 0 1 1"
       markerWidth="1"
       markerHeight="1"
       overflow="visible"
       orient="auto">
      <!-- REF_ARROW_STRAIGHT (-2) -->
      <g
         transform="scale(0.0092592592)"
         id="g8989">
        <!-- 1/108 -->
        <path
           d="M -9 54 L -9 -54 L 117 0 z"
           id="path8987" />
      </g>
    </marker>
    <marker
       id="DefaultArrow3"
       markerUnits="strokeWidth"
       viewBox="0 0 1 1"
       markerWidth="1"
       markerHeight="1"
       overflow="visible"
       orient="auto">
      <!-- REF_ARROW_ANGLED -->
      <g
         transform="scale(0.0092592592)"
         id="g8994">
        <path
           d="M -27 54 L -9 0 L -27 -54 L 135 0 z"
           id="path8992" />
      </g>
    </marker>
    <marker
       id="DefaultArrow4"
       markerUnits="strokeWidth"
       viewBox="0 0 1 1"
       markerWidth="1"
       markerHeight="1"
       overflow="visible"
       orient="auto">
      <!-- REF_ARROW_ROUNDED -->
      <g
         transform="scale(0.0092592592)"
         id="g8999">
        <path
           d="M -9,0 L -9,-45 C -9,-51.708 2.808,-56.580 9,-54 L 117,-9 C 120.916,-7.369 126.000,-4.242 126,0 C 126,4.242 120.916,7.369 117,9 L 9,54 C 2.808,56.580 -9,51.708 -9,45 z"
           id="path8997" />
      </g>
    </marker>
    <marker
       id="DefaultArrow5"
       markerUnits="strokeWidth"
       viewBox="0 0 1 1"
       markerWidth="1"
       markerHeight="1"
       overflow="visible"
       orient="auto">
      <!-- REF_ARROW_SPOT -->
      <g
         transform="scale(0.0092592592)"
         id="g9004">
        <path
           d="M -54, 0 C -54,29.807 -29.807,54 0,54 C 29.807,54 54,29.807 54,0 C 54,-29.807 29.807,-54 0,-54 C -29.807,-54 -54,-29.807 -54,0 z"
           id="path9002" />
      </g>
    </marker>
    <marker
       id="DefaultArrow6"
       markerUnits="strokeWidth"
       viewBox="0 0 1 1"
       markerWidth="1"
       markerHeight="1"
       overflow="visible"
       orient="auto">
      <!-- REF_ARROW_DIAMOND -->
      <g
         transform="scale(0.0092592592)"
         id="g9009">
        <path
           d="M -63,0 L 0,63 L 63,0 L 0,-63 z"
           id="path9007" />
      </g>
    </marker>
    <marker
       id="DefaultArrow7"
       markerUnits="strokeWidth"
       viewBox="0 0 1 1"
       markerWidth="1"
       markerHeight="1"
       overflow="visible"
       orient="auto">
      <!-- REF_ARROW_FEATHER -->
      <g
         transform="scale(0.0092592592)"
         id="g9014">
        <path
           d="M 18,-54 L 108,-54 L 63,0 L 108,54 L 18, 54 L -36,0 z"
           id="path9012" />
      </g>
    </marker>
    <marker
       id="DefaultArrow8"
       markerUnits="strokeWidth"
       viewBox="0 0 1 1"
       markerWidth="1"
       markerHeight="1"
       overflow="visible"
       orient="auto">
      <!-- REF_ARROW_FEATHER2 -->
      <g
         transform="scale(0.0092592592)"
         id="g9019">
        <path
           d="M -36,0 L 18,-54 L 54,-54 L 18,-18 L 27,-18 L 63,-54 L 99,-54 L 63,-18 L 72,-18 L 108,-54 L 144,-54 L 90,0 L 144,54 L 108,54 L 72,18 L 63,18 L 99,54 L 63,54 L 27,18 L 18,18 L 54,54 L 18,54 z"
           id="path9017" />
      </g>
    </marker>
    <marker
       id="DefaultArrow9"
       markerUnits="strokeWidth"
       viewBox="0 0 1 1"
       markerWidth="1"
       markerHeight="1"
       overflow="visible"
       orient="auto">
      <!-- REF_ARROW_HOLLOWDIAMOND -->
      <g
         transform="scale(0.0092592592)"
         id="g9024">
        <path
           d="M 0,45 L -45,0 L 0, -45 L 45, 0 z M 0, 63 L-63, 0 L 0, -63 L 63, 0 z"
           id="path9022" />
      </g>
    </marker>
    <filter
       id="StainedFilter">
      <feBlend
         mode="multiply"
         in2="BackgroundImage"
         in="SourceGraphic"
         result="blend"
         id="feBlend9027" />
      <feComposite
         in="blend"
         in2="SourceAlpha"
         operator="in"
         result="comp"
         id="feComposite9029" />
    </filter>
    <filter
       id="BleachFilter">
      <feBlend
         mode="screen"
         in2="BackgroundImage"
         in="SourceGraphic"
         result="blend"
         id="feBlend9032" />
      <feComposite
         in="blend"
         in2="SourceAlpha"
         operator="in"
         result="comp"
         id="feComposite9034" />
    </filter>
    <filter
       id="InvertTransparencyBitmapFilter">
      <feComponentTransfer
         id="feComponentTransfer9043">
        <feFuncR
           type="gamma"
           amplitude="1.055"
           exponent=".416666666"
           offset="-0.055"
           id="feFuncR9037" />
        <feFuncG
           type="gamma"
           amplitude="1.055"
           exponent=".416666666"
           offset="-0.055"
           id="feFuncG9039" />
        <feFuncB
           type="gamma"
           amplitude="1.055"
           exponent=".416666666"
           offset="-0.055"
           id="feFuncB9041" />
      </feComponentTransfer>
      <feComponentTransfer
         id="feComponentTransfer9053">
        <feFuncR
           type="linear"
           slope="-1"
           intercept="1"
           id="feFuncR9045" />
        <feFuncG
           type="linear"
           slope="-1"
           intercept="1"
           id="feFuncG9047" />
        <feFuncB
           type="linear"
           slope="-1"
           intercept="1"
           id="feFuncB9049" />
        <feFuncA
           type="linear"
           slope="1"
           intercept="0"
           id="feFuncA9051" />
      </feComponentTransfer>
      <feComponentTransfer
         id="feComponentTransfer9061">
        <feFuncR
           type="gamma"
           amplitude="1"
           exponent="2.4"
           offset="0"
           id="feFuncR9055" />
        <feFuncG
           type="gamma"
           amplitude="1"
           exponent="2.4"
           offset="0"
           id="feFuncG9057" />
        <feFuncB
           type="gamma"
           amplitude="1"
           exponent="2.4"
           offset="0"
           id="feFuncB9059" />
      </feComponentTransfer>
    </filter>
    <inkscape:perspective
       sodipodi:type="inkscape:persp3d"
       inkscape:vp_x="0 : 526.18109 : 1"
       inkscape:vp_y="0 : 1000 : 0"
       inkscape:vp_z="744.09448 : 526.18109 : 1"
       inkscape:persp3d-origin="372.04724 : 350.78739 : 1"
       id="perspective10" />
    <inkscape:perspective
       id="perspective2824"
       inkscape:persp3d-origin="0.5 : 0.33333333 : 1"
       inkscape:vp_z="1 : 0.5 : 1"
       inkscape:vp_y="0 : 1000 : 0"
       inkscape:vp_x="0 : 0.5 : 1"
       sodipodi:type="inkscape:persp3d" />
  </defs>
  <g
     inkscape:label="Camada 1"
     inkscape:groupmode="layer"
     id="layer1">
    <rect
       style="opacity:1;fill:url(#linearGradient2858);fill-opacity:1;stroke-width:0.529167;stroke-linecap:square;stroke-linejoin:round;paint-order:stroke fill markers"
       id="rect1569"
       width="127"
       height="84.666664"
       x="0"
       y="0"
       ry="4.2333331"
       inkscape:export-filename="/home/vitor/Dev/es-theme-material-tv-3-2/assets/logo/fbn.png"
       inkscape:export-xdpi="96"
       inkscape:export-ydpi="96" />
    <g
       id="g11347"
       style="stroke-width:1.00013;stroke-miterlimit:4;stroke-dasharray:none;fill:#ffffff"
       transform="matrix(0.23518863,0,0,0.23518863,73.120141,38.644892)">
      <path
         style="fill:#ffffff;fill-opacity:1;stroke-width:1.00013;stroke-miterlimit:4;stroke-dasharray:none"
         d="m -265.8353,90.655127 c -0.0819,-0.213482 -0.0876,-0.540904 -0.0126,-0.727604 0.075,-0.186701 0.14576,-0.07157 0.15725,0.255854 l 0.0209,0.595313 H -80.725997 104.21775 V 15.659071 c 0,-51.037336 -0.0869,-75.162735 -0.27119,-75.254115 -0.14915,-0.07397 -0.11938,-0.103737 0.0661,-0.06614 0.27226,0.05516 0.3502,14.598374 0.40394,75.386406 l 0.0666,75.318056 H -80.60155 c -162.42595,0 -185.10304,-0.04752 -185.23375,-0.388146 z m 397.39181,0.189735 c 9.28825,-0.03856 24.40919,-0.03855 33.60209,1.6e-5 9.19289,0.03857 1.59342,0.07012 -16.88772,0.07011 -18.48115,-1.1e-5 -26.00262,-0.03156 -16.71437,-0.07012 z m -16.66861,-7.87138 c 0,-1.018646 0.049,-1.402943 0.10628,-0.853996 0.0573,0.54895 0.0563,1.382387 -0.003,1.852083 -0.0584,0.469699 -0.1053,0.02056 -0.10414,-0.998087 z m 0.21955,-3.042709 c 0,-0.363802 0.0601,-0.51263 0.13345,-0.330729 0.0734,0.181901 0.0734,0.479557 0,0.661458 -0.0734,0.181902 -0.13345,0.03307 -0.13345,-0.330729 z m 0.24368,-2.271006 c 0.0127,-0.308226 0.0754,-0.370919 0.15986,-0.159853 0.0764,0.190995 0.067,0.4192 -0.0209,0.507119 -0.0879,0.08792 -0.15047,-0.06835 -0.13899,-0.347266 z m 0.28548,-1.697744 c 0,-0.363802 0.0601,-0.51263 0.13346,-0.330729 0.0734,0.181901 0.0734,0.479557 0,0.661458 -0.0734,0.181902 -0.13346,0.03307 -0.13346,-0.330729 z m 0.24369,-1.477256 c 0.0127,-0.308226 0.0754,-0.370919 0.15986,-0.159853 0.0764,0.190995 0.067,0.419201 -0.0209,0.507119 -0.0879,0.08792 -0.15046,-0.06835 -0.13898,-0.347266 z m -273.45074,-4.950301 c 0.0993,-0.260937 0.2473,-0.407781 0.32876,-0.326319 0.0815,0.08146 1.7e-4,0.294955 -0.18065,0.474433 -0.26131,0.25936 -0.2917,0.22897 -0.14811,-0.148114 z m -29.49717,-0.605949 c 0.0127,-0.308226 0.0754,-0.370919 0.15985,-0.159853 0.0764,0.190995 0.067,0.419201 -0.0209,0.507119 -0.0879,0.08792 -0.15046,-0.06835 -0.13897,-0.347266 z m -52.65208,-1.322916 c 0.0127,-0.308227 0.0754,-0.37092 0.15985,-0.159854 0.0764,0.190995 0.067,0.419201 -0.0209,0.507119 -0.0879,0.08792 -0.15045,-0.06835 -0.13896,-0.347265 z m 52.3875,0 c 0.0127,-0.308227 0.0754,-0.37092 0.15985,-0.159854 0.0764,0.190995 0.067,0.419201 -0.0209,0.507119 -0.0879,0.08792 -0.15045,-0.06835 -0.13896,-0.347265 z M -207.9488,66.96619 c 0,-0.363802 0.0601,-0.51263 0.13345,-0.330729 0.0734,0.181901 0.0734,0.479557 0,0.661458 -0.0734,0.181901 -0.13345,0.03307 -0.13345,-0.330729 z m -31.50631,-0.418923 c 0.0127,-0.308226 0.0754,-0.370919 0.15985,-0.159853 0.0764,0.190995 0.067,0.419201 -0.0209,0.507119 -0.0879,0.08792 -0.15046,-0.06835 -0.13897,-0.347266 z m 82.81459,-0.264583 c 0.0127,-0.308226 0.0754,-0.370919 0.15985,-0.159853 0.0764,0.190994 0.067,0.4192 -0.0209,0.507119 -0.0879,0.08792 -0.15045,-0.06835 -0.13896,-0.347266 z m 19.57916,-0.264583 c 0.0127,-0.308227 0.0754,-0.37092 0.15985,-0.159854 0.0764,0.190995 0.067,0.419201 -0.0209,0.507119 -0.0879,0.08792 -0.15046,-0.06835 -0.13897,-0.347265 z m -70.64375,-0.264584 c 0.0127,-0.308226 0.0754,-0.370919 0.15985,-0.159853 0.0764,0.190995 0.067,0.4192 -0.0209,0.507119 -0.0879,0.08792 -0.15046,-0.06835 -0.13897,-0.347266 z m 51.35006,-0.63941 c 0,-0.363802 0.0601,-0.512631 0.13345,-0.33073 0.0734,0.181902 0.0734,0.479558 0,0.661459 -0.0734,0.181901 -0.13345,0.03307 -0.13345,-0.330729 z m 19.02911,-0.15434 c 0.0127,-0.308226 0.0754,-0.370919 0.15985,-0.159853 0.0764,0.190995 0.067,0.419201 -0.0209,0.507119 -0.0879,0.08792 -0.15045,-0.06835 -0.13896,-0.347266 z m -50.8,-0.529166 c 0.0127,-0.308227 0.0754,-0.37092 0.15985,-0.159854 0.0764,0.190995 0.067,0.419201 -0.0209,0.507119 -0.0879,0.08792 -0.15045,-0.06835 -0.13896,-0.347265 z m -50.53542,-0.529167 c 0.0127,-0.308226 0.0754,-0.370919 0.15985,-0.159853 0.0764,0.190994 0.067,0.4192 -0.0209,0.507119 -0.0879,0.08792 -0.15046,-0.06835 -0.13897,-0.347266 z m 50.13236,-1.050986 c -0.0996,-0.530976 -0.1282,-1.018331 -0.0635,-1.083006 0.0647,-0.06468 0.1991,0.316844 0.29871,0.847823 0.0996,0.530977 0.1282,1.018331 0.0635,1.083006 -0.0647,0.06468 -0.19909,-0.316844 -0.2987,-0.847823 z m -18.36605,0.411575 c 0,-0.218281 0.10232,-0.635 0.22739,-0.926041 0.14333,-0.333545 0.22739,-0.38245 0.22739,-0.132292 0,0.218281 -0.10233,0.635 -0.22739,0.926042 -0.14333,0.333544 -0.22739,0.38245 -0.22739,0.132291 z m -31.50172,-0.418922 c 0.0127,-0.308227 0.0754,-0.37092 0.15985,-0.159854 0.0764,0.190995 0.067,0.419201 -0.0209,0.507119 -0.0879,0.08792 -0.15045,-0.06835 -0.13896,-0.347265 z m 202.914523,-0.21014 c 0,-0.05494 0.20836,-0.263301 0.463021,-0.463021 0.419656,-0.329108 0.428996,-0.319749 0.09991,0.0999 -0.345652,0.44073 -0.562928,0.580887 -0.562928,0.363125 z M -155.55811,62.20369 c 0.004,-0.218281 0.1031,-0.694531 0.21961,-1.058333 0.1703,-0.531741 0.21336,-0.557686 0.21962,-0.132292 0.004,0.291042 -0.0945,0.767292 -0.21962,1.058333 -0.13931,0.324197 -0.22437,0.375439 -0.21961,0.132292 z m 17.43842,-0.154339 c 0.0127,-0.308227 0.0754,-0.37092 0.15985,-0.159854 0.0764,0.190995 0.067,0.419201 -0.0209,0.507119 -0.0879,0.08792 -0.15045,-0.06835 -0.13896,-0.347265 z m -100.0125,-0.264584 c 0.0127,-0.308226 0.0754,-0.370919 0.15985,-0.159853 0.0764,0.190995 0.067,0.4192 -0.0209,0.507119 -0.0879,0.08792 -0.15045,-0.06835 -0.13896,-0.347266 z m 204.502027,-0.771702 c 0.493659,-0.509323 0.957077,-0.926042 1.029837,-0.926042 0.07276,0 -0.271594,0.416719 -0.765254,0.926042 -0.49366,0.509323 -0.957077,0.926042 -1.029838,0.926042 -0.07276,0 0.271595,-0.416719 0.765255,-0.926042 z m -172.752027,0.242536 c 0.0127,-0.308227 0.0754,-0.37092 0.15985,-0.159854 0.0764,0.190995 0.067,0.419201 -0.0209,0.507119 -0.0879,0.08792 -0.15045,-0.06835 -0.13896,-0.347265 z m 355.57911,-0.242536 c 0.34176,-0.363802 0.68093,-0.661458 0.75369,-0.661458 0.0728,0 -0.14734,0.297656 -0.48911,0.661458 -0.34176,0.363802 -0.68093,0.661458 -0.75369,0.661458 -0.0728,0 0.14735,-0.297656 0.48911,-0.661458 z m -287.58119,-0.02204 c 0.0127,-0.308226 0.0754,-0.370919 0.15985,-0.159853 0.0764,0.190995 0.067,0.4192 -0.0209,0.507119 -0.0879,0.08792 -0.15045,-0.06835 -0.13896,-0.347266 z m -98.95417,-1.852083 c 0.0127,-0.308226 0.0754,-0.370919 0.15985,-0.159853 0.0764,0.190994 0.067,0.4192 -0.0209,0.507118 -0.0879,0.08792 -0.15045,-0.06835 -0.13896,-0.347265 z m 47.88958,0 c 0.0127,-0.308226 0.0754,-0.370919 0.15985,-0.159853 0.0764,0.190994 0.067,0.4192 -0.0209,0.507118 -0.0879,0.08792 -0.15046,-0.06835 -0.13897,-0.347265 z M -30.852038,58.23494 c 0.263392,-0.291042 0.538427,-0.529167 0.611187,-0.529167 0.07276,0 -0.08321,0.238125 -0.346604,0.529167 -0.263393,0.291042 -0.538427,0.529167 -0.611188,0.529167 -0.07276,0 0.08321,-0.238125 0.346605,-0.529167 z m 182.430208,0.446376 c 0,-0.04554 0.38695,-0.432488 0.8599,-0.859896 l 0.85989,-0.777105 -0.77711,0.859896 c -0.72437,0.801544 -0.94268,0.981511 -0.94268,0.777105 z m -388.65203,-0.600715 c 0.0127,-0.308227 0.0754,-0.37092 0.15985,-0.159854 0.0764,0.190995 0.067,0.419201 -0.0209,0.507119 -0.0879,0.08792 -0.15046,-0.06835 -0.13897,-0.347265 z m 47.36042,0 c 0.0127,-0.308227 0.0754,-0.37092 0.15985,-0.159854 0.0764,0.190995 0.067,0.419201 -0.0209,0.507119 -0.0879,0.08792 -0.15045,-0.06835 -0.13896,-0.347265 z m -15.61042,-0.264584 c 0.0127,-0.308226 0.0754,-0.370919 0.15985,-0.159853 0.0764,0.190995 0.067,0.4192 -0.0209,0.507119 -0.0879,0.08792 -0.15046,-0.06835 -0.13897,-0.347266 z m 65.88125,-0.79375 c 0.0127,-0.308226 0.0754,-0.370919 0.15985,-0.159853 0.0764,0.190995 0.067,0.419201 -0.0209,0.507119 -0.0879,0.08792 -0.15046,-0.06835 -0.13897,-0.347266 z m -0.26458,-1.058333 c 0.0127,-0.308226 0.0754,-0.370919 0.15985,-0.159853 0.0764,0.190994 0.067,0.4192 -0.0209,0.507119 -0.0879,0.08792 -0.15045,-0.06835 -0.13896,-0.347266 z m -51.32917,-3.175 c 0.0127,-0.308226 0.0754,-0.370919 0.15985,-0.159853 0.0764,0.190994 0.067,0.4192 -0.0209,0.507119 -0.0879,0.08792 -0.15046,-0.06835 -0.13897,-0.347266 z m 38.36459,-1.852083 c 0.0127,-0.308227 0.0754,-0.37092 0.15985,-0.159854 0.0764,0.190995 0.067,0.419201 -0.0209,0.507119 -0.0879,0.08792 -0.15045,-0.06835 -0.13896,-0.347265 z m 11.64166,0 c 0.0127,-0.308227 0.0754,-0.37092 0.15985,-0.159854 0.0764,0.190995 0.067,0.419201 -0.0209,0.507119 -0.0879,0.08792 -0.15046,-0.06835 -0.13897,-0.347265 z m 114.957584,0.07678 c 0.09935,-0.260938 0.247306,-0.407781 0.328772,-0.326319 0.08146,0.08146 1.58e-4,0.294955 -0.180658,0.474432 -0.261302,0.259361 -0.291703,0.228971 -0.148114,-0.148113 z m 152.250696,-0.02234 c 0,-0.05494 0.20836,-0.2633 0.46302,-0.463021 0.41966,-0.329107 0.429,-0.319749 0.0999,0.0999 -0.34565,0.44073 -0.56293,0.580888 -0.56293,0.363125 z M -25.684567,50.165148 c 0,-0.145521 0.115411,-0.443177 0.256487,-0.661458 0.141076,-0.218281 0.256487,-0.277812 0.256487,-0.132292 0,0.145521 -0.115411,0.443177 -0.256487,0.661459 -0.141076,0.218281 -0.256487,0.277812 -0.256487,0.132291 z M 127.2365,49.668377 c 0,-0.05494 0.20836,-0.2633 0.46302,-0.463021 0.41966,-0.329107 0.429,-0.319749 0.0999,0.0999 -0.34565,0.440729 -0.56293,0.580887 -0.56293,0.363124 z m -319.59577,-1.906526 c 0.0127,-0.308227 0.0754,-0.37092 0.15985,-0.159854 0.0764,0.190995 0.067,0.419201 -0.0209,0.507119 -0.0879,0.08792 -0.15045,-0.06835 -0.13896,-0.347265 z M 130.27921,46.32869 c 0.56838,-0.582083 1.09297,-1.058333 1.16573,-1.058333 0.0728,0 -0.33277,0.47625 -0.90115,1.058333 -0.56837,0.582083 -1.09296,1.058333 -1.16572,1.058333 -0.0728,0 0.33276,-0.47625 0.90114,-1.058333 z m -154.628081,0.110244 c 0.0127,-0.308226 0.07541,-0.370919 0.159861,-0.159853 0.07644,0.190994 0.06705,0.4192 -0.0209,0.507119 -0.08792,0.08792 -0.150468,-0.06835 -0.138986,-0.347266 z M -142.35302,46.174351 c 0.0127,-0.308227 0.0754,-0.37092 0.15985,-0.159854 0.0764,0.190995 0.067,0.419201 -0.0209,0.507119 -0.0879,0.08792 -0.15045,-0.06835 -0.13896,-0.347265 z M 170.099,44.905877 c 0,-0.05494 0.20836,-0.2633 0.46302,-0.463021 0.41966,-0.329107 0.429,-0.319749 0.0999,0.0999 -0.34565,0.44073 -0.56293,0.580888 -0.56293,0.363125 z m 1.5875,-1.322916 c 0,-0.05494 0.20836,-0.263301 0.46302,-0.463021 0.41966,-0.329108 0.429,-0.319749 0.0999,0.0999 -0.34565,0.44073 -0.56293,0.580887 -0.56293,0.363125 z m -37.57083,-0.529167 c 0,-0.05494 0.20836,-0.2633 0.46302,-0.463021 0.41966,-0.329107 0.429,-0.319749 0.0999,0.0999 -0.34565,0.44073 -0.56293,0.580888 -0.56293,0.363125 z m 1.32292,-1.058333 c 0,-0.05494 0.20836,-0.263301 0.46302,-0.463021 0.41965,-0.329108 0.42899,-0.319749 0.0999,0.0999 -0.34565,0.44073 -0.56292,0.580887 -0.56292,0.363125 z m 39.14727,-1.024584 c 1.09643,-1.168185 1.33398,-1.378238 1.33398,-1.179568 0,0.04246 -0.56555,0.60801 -1.25677,1.256771 l -1.25678,1.179568 z m -197.590912,-0.46302 c 0,-0.363802 0.06006,-0.512631 0.133456,-0.33073 0.0734,0.181902 0.0734,0.479558 0,0.661459 -0.0734,0.181901 -0.133456,0.03307 -0.133456,-0.330729 z m 44.041271,-0.04841 c 0.07641,-0.12364 0.249767,-0.156302 0.385234,-0.07258 0.346181,0.213948 0.307207,0.297381 -0.138933,0.297381 -0.211878,0 -0.322712,-0.10116 -0.246301,-0.224803 z M 138.08442,39.878794 c 0,-0.05494 0.20836,-0.2633 0.46302,-0.463021 0.41966,-0.329107 0.429,-0.319749 0.0999,0.0999 -0.34565,0.44073 -0.56293,0.580888 -0.56293,0.363125 z M -99.180684,39.515717 c 7.821745,-0.03893 20.620963,-0.03893 28.442708,0 7.821745,0.03894 1.422136,0.07079 -14.221354,0.07079 -15.64349,0 -22.0431,-0.03186 -14.221354,-0.07079 z m -95.559836,-0.7497 c 0.0127,-0.308226 0.0754,-0.370919 0.15985,-0.159853 0.0764,0.190995 0.067,0.419201 -0.0209,0.507119 -0.0879,0.08792 -0.15045,-0.06835 -0.13896,-0.347266 z m 45.77291,-0.529166 c 0.0127,-0.308227 0.0754,-0.37092 0.15985,-0.159854 0.0764,0.190995 0.067,0.419201 -0.0209,0.507119 -0.0879,0.08792 -0.15046,-0.06835 -0.13897,-0.347265 z m 288.63953,0.319026 c 0,-0.05494 0.20836,-0.2633 0.46302,-0.463021 0.41966,-0.329107 0.429,-0.319749 0.0999,0.0999 -0.34565,0.44073 -0.56293,0.580888 -0.56293,0.363125 z m -284.40619,-1.112776 c 0.0127,-0.308227 0.0754,-0.37092 0.15985,-0.159854 0.0764,0.190995 0.067,0.419201 -0.0209,0.507119 -0.0879,0.08792 -0.15045,-0.06835 -0.13896,-0.347265 z m 90.615908,0.07678 c 0.09936,-0.260938 0.247304,-0.407781 0.328766,-0.326319 0.08146,0.08146 1.7e-4,0.294955 -0.180652,0.474432 -0.261308,0.259361 -0.291698,0.228971 -0.148114,-0.148113 z m 195.377782,-0.28692 c 0,-0.05494 0.20836,-0.263301 0.46302,-0.463021 0.41966,-0.329108 0.429,-0.319749 0.0999,0.0999 -0.34565,0.44073 -0.56293,0.580887 -0.56293,0.363125 z m 1.5875,-1.322917 c 0,-0.05494 0.20836,-0.2633 0.46302,-0.463021 0.41966,-0.329107 0.429,-0.319749 0.0999,0.0999 -0.34565,0.44073 -0.56293,0.580888 -0.56293,0.363125 z M -53.432138,35.21619 c 0,-0.363802 0.06005,-0.51263 0.133453,-0.330729 0.0734,0.181901 0.0734,0.479557 0,0.661458 -0.0734,0.181901 -0.133453,0.03307 -0.133453,-0.330729 z m 31.003428,-2.38125 c 0,-1.091406 0.0467,-1.537891 0.103796,-0.992187 0.05707,0.545703 0.05707,1.438671 0,1.984375 -0.0571,0.545703 -0.103796,0.09922 -0.103796,-0.992188 z m 167.26,1.322917 c 0.2634,-0.291042 0.53843,-0.529167 0.61119,-0.529167 0.0728,0 -0.0832,0.238125 -0.3466,0.529167 -0.26339,0.291041 -0.53843,0.529166 -0.61119,0.529166 -0.0728,0 0.0832,-0.238125 0.3466,-0.529166 z m -340.89473,-0.418923 c 0.0127,-0.308226 0.0754,-0.370919 0.15985,-0.159853 0.0764,0.190994 0.067,0.4192 -0.0209,0.507119 -0.0879,0.08792 -0.15045,-0.06835 -0.13896,-0.347266 z m 141.246584,-1.102432 -0.641432,-0.727604 0.727604,0.641432 c 0.680056,0.599517 0.848939,0.813777 0.641432,0.813777 -0.04739,0 -0.374814,-0.327422 -0.727604,-0.727605 z M 146.41879,32.83494 c 0.2634,-0.291042 0.53843,-0.529167 0.61119,-0.529167 0.0728,0 -0.0832,0.238125 -0.3466,0.529167 -0.26339,0.291042 -0.53843,0.529167 -0.61119,0.529167 -0.0728,0 0.0832,-0.238125 0.3466,-0.529167 z m -293.53431,-0.418923 c 0.0127,-0.308226 0.0754,-0.370919 0.15985,-0.159853 0.0764,0.190995 0.067,0.419201 -0.0209,0.507119 -0.0879,0.08792 -0.15045,-0.06835 -0.13896,-0.347266 z m -50.00625,-0.529166 c 0.0127,-0.308227 0.0754,-0.37092 0.15985,-0.159854 0.0764,0.190995 0.067,0.419201 -0.0209,0.507119 -0.0879,0.08792 -0.15045,-0.06835 -0.13896,-0.347265 z m 81.75625,0 c 0.0127,-0.308227 0.0754,-0.37092 0.15985,-0.159854 0.0764,0.190995 0.067,0.419201 -0.0209,0.507119 -0.0879,0.08792 -0.15045,-0.06835 -0.13896,-0.347265 z m -114.3,-0.264584 c 0.0127,-0.308226 0.0754,-0.370919 0.15985,-0.159853 0.0764,0.190995 0.067,0.4192 -0.0209,0.507119 -0.0879,0.08792 -0.15045,-0.06835 -0.13896,-0.347266 z m 377.27494,0.319027 c 0,-0.05494 0.20836,-0.2633 0.46302,-0.463021 0.41966,-0.329107 0.429,-0.319749 0.0999,0.0999 -0.34565,0.44073 -0.56293,0.580888 -0.56293,0.363125 z m 33.3456,-0.0324 c 0,-0.14552 0.11541,-0.443177 0.25648,-0.661458 0.14108,-0.218281 0.25649,-0.277812 0.25649,-0.132292 0,0.145521 -0.11541,0.443177 -0.25649,0.661459 -0.14107,0.218281 -0.25648,0.277812 -0.25648,0.132291 z M -77.881726,31.578349 c 3.965443,-0.04116 10.454349,-0.04116 14.419792,0 3.965443,0.04116 0.720989,0.07483 -7.209896,0.07483 -7.930885,0 -11.175339,-0.03367 -7.209896,-0.07483 z m -9.12309,-0.249679 c 0.257432,-0.06708 0.614619,-0.06267 0.79375,0.0098 0.179131,0.07248 -0.03149,0.127362 -0.468056,0.12197 -0.436562,-0.0054 -0.583125,-0.06469 -0.325694,-0.131773 z m -28.625294,-0.500153 c 0.0127,-0.308226 0.0754,-0.370919 0.15985,-0.159853 0.0764,0.190995 0.067,0.419201 -0.0209,0.507119 -0.0879,0.08792 -0.15046,-0.06835 -0.13897,-0.347266 z m 26.106718,0.232199 c 0.327421,-0.06307 0.863203,-0.06307 1.190625,0 0.327421,0.06306 0.05953,0.114662 -0.595313,0.114662 -0.654844,0 -0.922734,-0.0516 -0.595312,-0.114662 z m 238.191142,0.08683 c 0,-0.05494 0.20836,-0.2633 0.46302,-0.463021 0.41966,-0.329107 0.429,-0.319749 0.0999,0.0999 -0.34565,0.44073 -0.56293,0.580888 -0.56293,0.363125 z m -378.06869,-0.58361 c 0.0127,-0.308226 0.0754,-0.370919 0.15985,-0.159853 0.0764,0.190994 0.067,0.4192 -0.0209,0.507119 -0.0879,0.08792 -0.15045,-0.06835 -0.13896,-0.347266 z m 138.306584,0.238183 c 0.190995,-0.07643 0.4192,-0.06703 0.507119,0.02088 0.08792,0.08792 -0.06835,0.150452 -0.347266,0.138964 -0.308226,-0.0127 -0.370919,-0.07539 -0.159853,-0.15985 z M 181.49696,30.299351 c 0.0127,-0.308227 0.0754,-0.37092 0.15986,-0.159854 0.0764,0.190995 0.067,0.419201 -0.0209,0.507119 -0.0879,0.08792 -0.15047,-0.06835 -0.13898,-0.347265 z m -275.782853,-0.02089 c 0.181902,-0.0734 0.479558,-0.0734 0.661459,0 0.181901,0.0734 0.03307,0.133453 -0.330729,0.133453 -0.363802,0 -0.512631,-0.06006 -0.33073,-0.133453 z m -134.850467,-0.77286 c 0.0127,-0.308227 0.0754,-0.37092 0.15985,-0.159854 0.0764,0.190995 0.067,0.419201 -0.0209,0.507119 -0.0879,0.08792 -0.15046,-0.06835 -0.13897,-0.347265 z m 132.750337,0.238183 c 0.190995,-0.07643 0.419201,-0.06703 0.507119,0.02088 0.08792,0.08792 -0.06835,0.150453 -0.347265,0.138965 -0.308227,-0.0127 -0.37092,-0.07539 -0.159854,-0.159851 z M 151.049,29.312566 c 0,-0.04554 0.38696,-0.432488 0.8599,-0.859896 l 0.85989,-0.777105 -0.7771,0.859896 c -0.72438,0.801544 -0.94269,0.981511 -0.94269,0.777105 z m 31.24171,-1.394465 c 0.0127,-0.308227 0.0754,-0.37092 0.15986,-0.159854 0.0764,0.190995 0.067,0.419201 -0.0209,0.507119 -0.0879,0.08792 -0.15047,-0.06835 -0.13898,-0.347265 z m -298.97915,-1.058334 c 0.0127,-0.308226 0.0754,-0.370919 0.15985,-0.159853 0.0764,0.190995 0.067,0.419201 -0.0209,0.507119 -0.0879,0.08792 -0.15045,-0.06835 -0.13896,-0.347266 z m 299.24374,0 c 0.0127,-0.308226 0.0754,-0.370919 0.15986,-0.159853 0.0764,0.190995 0.067,0.419201 -0.0209,0.507119 -0.0879,0.08792 -0.15046,-0.06835 -0.13898,-0.347266 z m -410.89791,-0.264583 c 0.0127,-0.308226 0.0754,-0.370919 0.15985,-0.159853 0.0764,0.190994 0.067,0.4192 -0.0209,0.507119 -0.0879,0.08792 -0.15046,-0.06835 -0.13897,-0.347266 z m 111.38959,-0.79375 c 0.0127,-0.308226 0.0754,-0.370919 0.15985,-0.159853 0.0764,0.190994 0.067,0.4192 -0.0209,0.507119 -0.0879,0.08792 -0.15045,-0.06835 -0.13896,-0.347266 z m 299.7729,0 c 0.0127,-0.308226 0.0754,-0.370919 0.15986,-0.159853 0.0764,0.190994 0.067,0.4192 -0.0209,0.507119 -0.0879,0.08792 -0.15047,-0.06835 -0.13899,-0.347266 z m -410.8979,-0.264583 c 0.0127,-0.308227 0.0754,-0.37092 0.15985,-0.159854 0.0764,0.190995 0.067,0.419201 -0.0209,0.507119 -0.0879,0.08792 -0.15045,-0.06835 -0.13896,-0.347265 z M -105.366,24.963586 c -0.3291,-0.419645 -0.31975,-0.429004 0.0999,-0.0999 0.25466,0.19972 0.46302,0.40808 0.46302,0.463021 0,0.217762 -0.21727,0.07761 -0.56292,-0.363125 z m -2.3475,-2.050521 c -0.64268,-0.654844 -1.10898,-1.190625 -1.03622,-1.190625 0.0728,0 0.65813,0.535781 1.30081,1.190625 0.64268,0.654844 1.10898,1.190625 1.03622,1.190625 -0.0728,0 -0.65813,-0.535781 -1.30081,-1.190625 z m 291.06255,0.507119 c 0.0127,-0.308226 0.0754,-0.370919 0.15986,-0.159853 0.0764,0.190994 0.067,0.4192 -0.0209,0.507119 -0.0879,0.08792 -0.15046,-0.06835 -0.13898,-0.347266 z m -62.3964,-0.573048 c 3.60164,-0.04158 9.49523,-0.04158 13.09687,0 3.60164,0.04158 0.65485,0.07561 -6.54843,0.07561 -7.20328,0 -10.15008,-0.03402 -6.54844,-0.07561 z m 62.69167,-0.992404 c 0.005,-0.436563 0.0647,-0.583126 0.13179,-0.325694 0.0671,0.257431 0.0627,0.614619 -0.01,0.79375 -0.0725,0.17913 -0.12734,-0.03149 -0.12197,-0.468056 z m -410.66401,-0.02204 c 0.0127,-0.308226 0.0754,-0.370919 0.15985,-0.159853 0.0764,0.190994 0.067,0.4192 -0.0209,0.507118 -0.0879,0.08792 -0.15045,-0.06835 -0.13896,-0.347265 z m 0.26458,-1.058333 c 0.0127,-0.308227 0.0754,-0.37092 0.15985,-0.159854 0.0764,0.190995 0.067,0.419201 -0.0209,0.507119 -0.0879,0.08792 -0.15046,-0.06835 -0.13897,-0.347265 z m 382.32291,0 c 0.0127,-0.308227 0.0754,-0.37092 0.15986,-0.159854 0.0764,0.190995 0.067,0.419201 -0.0209,0.507119 -0.0879,0.08792 -0.15046,-0.06835 -0.13898,-0.347265 z m -265.43171,-0.30869 c -0.32911,-0.419645 -0.31975,-0.429003 0.0999,-0.0999 0.25466,0.199721 0.46302,0.40808 0.46302,0.463021 0,0.217763 -0.21727,0.07761 -0.56291,-0.363125 z m 224.48722,-1.256771 c 0,-1.018646 0.049,-1.402942 0.10629,-0.853995 0.0573,0.548949 0.0563,1.382387 -0.003,1.852083 -0.0585,0.469699 -0.1053,0.02056 -0.10414,-0.998088 z m 69.31872,-0.396875 c 0,-0.945885 0.048,-1.332838 0.10671,-0.859895 0.0587,0.472942 0.0587,1.246848 0,1.719791 -0.0587,0.472943 -0.10671,0.08599 -0.10671,-0.859896 z m -28.10965,0.639411 c 0.0127,-0.308226 0.0754,-0.370919 0.15986,-0.159853 0.0764,0.190994 0.067,0.4192 -0.0209,0.507119 -0.0879,0.08792 -0.15047,-0.06835 -0.13899,-0.347266 z m -15.34583,-1.852083 c 0.0127,-0.308227 0.0754,-0.37092 0.15986,-0.159854 0.0764,0.190995 0.067,0.419201 -0.0209,0.507119 -0.0879,0.08792 -0.15046,-0.06835 -0.13898,-0.347265 z m 15.65092,-0.903994 c 0,-0.509323 0.0545,-0.717683 0.12099,-0.463021 0.0666,0.254661 0.0666,0.67138 0,0.926041 -0.0665,0.254662 -0.12099,0.0463 -0.12099,-0.46302 z M 114.6185,15.240148 c 0.003,-0.873125 0.0509,-1.198414 0.10975,-0.722865 0.0589,0.475549 0.0577,1.189924 -0.003,1.5875 -0.0603,0.397576 -0.10853,0.0085 -0.10705,-0.864635 z m -340.05069,0.771703 c 0.0127,-0.308227 0.0754,-0.37092 0.15985,-0.159854 0.0764,0.190995 0.067,0.419201 -0.0209,0.507119 -0.0879,0.08792 -0.15045,-0.06835 -0.13896,-0.347265 z m 267.703682,-0.0441 c -0.329088,-0.419646 -0.319748,-0.429004 0.09991,-0.0999 0.254662,0.199721 0.463021,0.408081 0.463021,0.463021 0,0.217763 -0.217276,0.0776 -0.562928,-0.363124 z M 183.93663,14.57869 c 0,-0.800365 0.0496,-1.127786 0.11023,-0.727604 0.0606,0.400182 0.0606,1.055026 0,1.455208 -0.0606,0.400182 -0.11023,0.07276 -0.11023,-0.727604 z M 2.4854617,14.181815 c 0,-0.33601 0.089297,-0.555739 0.1984375,-0.488286 0.1091406,0.06745 0.1984375,0.287182 0.1984375,0.488286 0,0.201105 -0.089297,0.420833 -0.1984375,0.488286 -0.1091407,0.06745 -0.1984375,-0.152276 -0.1984375,-0.488286 z M 155.83238,14.159775 c 0.0127,-0.308226 0.0754,-0.370919 0.15986,-0.159853 0.0764,0.190995 0.067,0.4192 -0.0209,0.507119 -0.0879,0.08792 -0.15047,-0.06835 -0.13899,-0.347266 z M -29.959758,13.851086 c -0.329088,-0.419645 -0.319748,-0.429004 0.09991,-0.0999 0.254662,0.19972 0.463021,0.40808 0.463021,0.463021 0,0.217762 -0.217276,0.07761 -0.562928,-0.363125 z M 155.5678,13.101434 c 0.0127,-0.308226 0.0754,-0.370919 0.15986,-0.159853 0.0764,0.190994 0.067,0.4192 -0.0209,0.507119 -0.0879,0.08792 -0.15046,-0.06835 -0.13898,-0.347266 z m -187.101326,-1.102431 -0.641429,-0.727605 0.727604,0.641432 c 0.680059,0.599517 0.848942,0.813777 0.64143,0.813777 -0.04739,0 -0.374809,-0.327422 -0.727605,-0.727604 z M 114.84286,12.19744 c 0,-0.363802 0.0601,-0.51263 0.13346,-0.330729 0.0734,0.181901 0.0734,0.479557 0,0.661458 -0.0734,0.181901 -0.13346,0.03307 -0.13346,-0.330729 z m 68.80146,-0.396875 c 0.005,-0.436562 0.0647,-0.583126 0.13179,-0.325694 0.0671,0.257432 0.0627,0.614619 -0.01,0.79375 -0.0725,0.179131 -0.12734,-0.03149 -0.12197,-0.468056 z m -41.06198,-1.008832 c 0,-0.04554 0.38695,-0.432488 0.85989,-0.8598963 l 0.8599,-0.777105 -0.77711,0.8598963 c -0.72438,0.801544 -0.94268,0.981511 -0.94268,0.777105 z m 11.21965,-0.777105 -0.50403,-0.595313 0.59531,0.5040286 c 0.55944,0.4736624 0.71576,0.6865964 0.50404,0.6865964 -0.0502,0 -0.31811,-0.267891 -0.59532,-0.595312 z M -34.043681,9.4854608 -34.820788,8.625565 l 0.859896,0.7771051 c 0.801555,0.7243709 0.981524,0.9426869 0.777107,0.9426869 -0.04554,0 -0.432488,-0.3869535 -0.859896,-0.8598962 z m 33.4526735,0.1322917 c -0.32908875,-0.419645 -0.31974896,-0.4290034 0.0999067,-0.099896 0.25466146,0.1997207 0.46302083,0.4080801 0.46302083,0.4630209 0,0.2177626 -0.21727583,0.077605 -0.56292753,-0.3631249 z M 115.61571,8.3389339 c 0.0127,-0.3082263 0.0754,-0.3709193 0.15986,-0.1598533 0.0764,0.1909948 0.067,0.4192006 -0.0209,0.507119 -0.0879,0.087918 -0.15047,-0.068352 -0.13898,-0.3472657 z M -35.780591,8.0302525 c -0.329089,-0.419645 -0.319749,-0.4290034 0.09991,-0.099896 0.440716,0.3456437 0.580893,0.5629169 0.363114,0.5629169 -0.05493,0 -0.263287,-0.2083593 -0.463021,-0.4630208 z M 146.22036,8.3180451 c 0.1819,-0.073398 0.47955,-0.073398 0.66146,0 0.1819,0.073398 0.0331,0.1334532 -0.33073,0.1334532 -0.36381,0 -0.51263,-0.060055 -0.33073,-0.1334532 z m 4.24987,-0.0055 c 0.191,-0.07643 0.4192,-0.067032 0.50712,0.020876 0.0879,0.087918 -0.0684,0.1504526 -0.34726,0.1389644 -0.30824,-0.0127 -0.37092,-0.07539 -0.15986,-0.1598506 z m -2.13321,-0.259072 c 0.18191,-0.073398 0.47956,-0.073398 0.66146,0 0.1819,0.073398 0.0331,0.1334532 -0.33073,0.1334532 -0.3638,0 -0.51263,-0.060055 -0.33073,-0.1334532 z M -223.05094,7.2806006 c 0.0127,-0.3082263 0.0754,-0.3709194 0.15985,-0.1598533 0.0764,0.1909948 0.067,0.4192005 -0.0209,0.5071189 -0.0879,0.087918 -0.15045,-0.068352 -0.13896,-0.3472656 z M 182.5553,7.5227261 c -0.0114,-0.1700001 -0.0894,-0.5271876 -0.17315,-0.79375 -0.14475,-0.4606978 -0.13726,-0.4612746 0.15103,-0.011668 0.16679,0.2601436 0.24471,0.6173311 0.17314,0.79375 -0.0939,0.2315077 -0.13594,0.2347568 -0.15102,0.011668 z M -116.42386,6.7514339 c 0.0127,-0.3082263 0.0754,-0.3709193 0.15985,-0.1598533 0.0764,0.1909948 0.067,0.4192006 -0.0209,0.507119 -0.0879,0.087918 -0.15046,-0.068352 -0.13897,-0.3472657 z M -116.93214,4.25994 c 0,-0.3638021 0.0601,-0.5126302 0.13345,-0.3307292 0.0734,0.1819011 0.0734,0.4795573 0,0.6614584 -0.0734,0.181901 -0.13345,0.033073 -0.13345,-0.3307292 z m -0.55005,-3.59392273 c 0.0127,-0.30822635 0.0754,-0.37091937 0.15985,-0.15985331 0.0764,0.19099477 0.067,0.41920054 -0.0209,0.50711894 -0.0879,0.087918 -0.15045,-0.0683525 -0.13896,-0.34726563 z m 67.133667,0.23818321 c 0.190995,-0.0764302 0.419201,-0.0670322 0.507119,0.0208756 0.08792,0.0879184 -0.06835,0.15045272 -0.347265,0.13896452 -0.308227,-0.0127 -0.37092,-0.0753904 -0.159854,-0.15985072 z M -173.04469,0.40143394 c 0.0127,-0.30822636 0.0754,-0.37091938 0.15985,-0.15985332 0.0764,0.19099478 0.067,0.41920055 -0.0209,0.50711894 -0.0879,0.0879184 -0.15045,-0.0683525 -0.13896,-0.34726562 z m 121.356714,0.24369448 c 0.181901,-0.0733981 0.479557,-0.0733981 0.661458,0 0.181902,0.0733981 0.03307,0.13345318 -0.330729,0.13345318 -0.363802,0 -0.51263,-0.0600551 -0.330729,-0.13345318 z m -6.879167,-0.28581086 c 1.055027,-0.0502206 2.781433,-0.0502206 3.836459,0 1.055026,0.0502232 0.191823,0.091313 -1.918229,0.091313 -2.110052,0 -2.973256,-0.0410898 -1.91823,-0.091313 z m -23.006187,-0.265176 c 1.207458,-0.04913841 3.112458,-0.04886325 4.233333,5.2917e-4 1.120878,0.04947179 0.132959,0.08967523 -2.195375,0.08933921 -2.328333,-2.6459e-4 -3.245413,-0.040812 -2.037958,-0.08994775 z m -4.045585,-0.59367208 c -0.09269,-0.14998171 0.01352,-0.19433646 0.248968,-0.1039839 0.458369,0.17589236 0.542234,0.36553775 0.161649,0.36553775 -0.136932,0 -0.321712,-0.11769989 -0.410617,-0.26155385 z M -117.66666,-3.8098517 c 5.3e-4,-1.74625 0.0433,-2.4261947 0.0952,-1.5109851 0.0518,0.915207 0.0514,2.343957 -0.001,3.175 -0.0523,0.8310404 -0.0947,0.082235 -0.0942,-1.6640149 z m 30.9624,2.4473959 -0.504028,-0.5953125 0.595312,0.5040286 c 0.327422,0.2772145 0.595313,0.54510514 0.595313,0.59531247 0,0.21173281 -0.212934,0.055417 -0.686597,-0.50402857 z m 263.6624,-0.9260417 -0.64143,-0.7276042 0.72761,0.6414321 c 0.40018,0.3527901 0.7276,0.680212 0.7276,0.7276041 0,0.2075074 -0.21426,0.038624 -0.81378,-0.641432 z m -56.07164,0.098541 c 0,-0.054941 0.20836,-0.2633001 0.46302,-0.4630208 0.41966,-0.3291073 0.429,-0.319749 0.0999,0.099896 -0.34565,0.4407297 -0.56293,0.5808874 -0.56293,0.3631247 z m -245.51244,-0.58361 c 0.0127,-0.3082263 0.0754,-0.3709193 0.15985,-0.1598533 0.0764,0.1909948 0.067,0.4192006 -0.0209,0.507119 -0.0879,0.087918 -0.15045,-0.068353 -0.13896,-0.3472657 z m -0.26458,-1.0583333 c 0.0127,-0.3082263 0.0754,-0.3709194 0.15985,-0.1598533 0.0764,0.1909948 0.067,0.4192005 -0.0209,0.5071189 -0.0879,0.087918 -0.15045,-0.068352 -0.13896,-0.3472656 z m -49.47709,-0.79375 c 0.0127,-0.3082263 0.0754,-0.3709194 0.15985,-0.1598533 0.0764,0.1909948 0.067,0.4192005 -0.0209,0.5071189 -0.0879,0.087918 -0.15046,-0.068352 -0.13897,-0.3472656 z m 348.67992,-0.3086814 -0.64143,-0.7276042 0.7276,0.641432 c 0.40018,0.3527901 0.72761,0.680212 0.72761,0.7276042 0,0.2075074 -0.21426,0.038624 -0.81378,-0.641432 z m -261.896584,0.044098 c 0.0127,-0.3082264 0.07539,-0.3709194 0.15985,-0.1598533 0.07643,0.1909947 0.06703,0.4192005 -0.02088,0.5071189 -0.08792,0.087918 -0.150453,-0.068352 -0.138965,-0.3472656 z M -219.34677,-5.9485661 c 0.0127,-0.3082263 0.0754,-0.3709193 0.15985,-0.1598533 0.0764,0.1909948 0.067,0.4192006 -0.0209,0.507119 -0.0879,0.087918 -0.15045,-0.068352 -0.13896,-0.3472657 z m 132.270773,-0.1930347 c 0,-0.045535 0.386953,-0.4324879 0.859896,-0.8598958 l 0.859896,-0.7771051 -0.777105,0.8598959 c -0.724371,0.8015446 -0.942687,0.9815115 -0.942687,0.777105 z m -82.264523,-0.6007153 c 0.0127,-0.3082263 0.0754,-0.3709193 0.15985,-0.1598533 0.0764,0.1909948 0.067,0.4192006 -0.0209,0.507119 -0.0879,0.087918 -0.15045,-0.068353 -0.13896,-0.3472657 z m 43.65625,0 c 0.0127,-0.3082263 0.0754,-0.3709193 0.15985,-0.1598533 0.0764,0.1909948 0.067,0.4192006 -0.0209,0.507119 -0.0879,0.087918 -0.15045,-0.068353 -0.13896,-0.3472657 z m -93.39792,-0.2645833 c 0.0127,-0.3082263 0.0754,-0.3709194 0.15985,-0.1598533 0.0764,0.1909948 0.067,0.4192005 -0.0209,0.5071189 -0.0879,0.087918 -0.15045,-0.068352 -0.13896,-0.3472656 z m 93.13333,-0.79375 c 0.0127,-0.3082263 0.0754,-0.3709194 0.15985,-0.1598533 0.0764,0.1909948 0.067,0.4192005 -0.0209,0.5071189 -0.0879,0.087918 -0.15046,-0.068352 -0.13897,-0.3472656 z m 8.48756,-0.6394106 c 0,-0.3638021 0.06,-0.5126302 0.13345,-0.3307292 0.0734,0.1819011 0.0734,0.4795573 0,0.6614584 -0.0734,0.181901 -0.13345,0.033073 -0.13345,-0.3307292 z m -51.35006,-0.1543394 c 0.0127,-0.3082263 0.0754,-0.3709194 0.15985,-0.1598533 0.0764,0.1909948 0.067,0.4192005 -0.0209,0.5071189 -0.0879,0.087918 -0.15046,-0.068352 -0.13897,-0.3472656 z m 337.96874,0.00746 c -0.49319,-0.3951261 -0.48993,-0.4000104 0.0817,-0.122981 0.32742,0.158668 0.59531,0.3438287 0.59531,0.4114694 0,0.2024645 -0.13721,0.1439968 -0.67704,-0.2884884 z m -344.8479,-1.0657946 c 0.0127,-0.3082264 0.0754,-0.370919 0.15985,-0.1598533 0.0764,0.1909947 0.067,0.4192005 -0.0209,0.5071189 -0.0879,0.087918 -0.15045,-0.068352 -0.13896,-0.3472656 z m 305.50229,0.1215072 c 0.1795,-0.1808215 0.39299,-0.2621148 0.47445,-0.1806522 0.0814,0.081463 -0.0654,0.229407 -0.32633,0.328766 -0.37709,0.1435841 -0.40746,0.113194 -0.14812,-0.1481138 z m -305.76688,-1.1798402 c 0.0127,-0.308226 0.0754,-0.370919 0.15985,-0.159853 0.0764,0.190994 0.067,0.4192 -0.0209,0.507119 -0.0879,0.08792 -0.15046,-0.06835 -0.13897,-0.347266 z m 49.2125,0 c 0.0127,-0.308226 0.0754,-0.370919 0.15985,-0.159853 0.0764,0.190994 0.067,0.4192 -0.0209,0.507119 -0.0879,0.08792 -0.15046,-0.06835 -0.13897,-0.347266 z m 258.67105,0.121507 c 0.17949,-0.180821 0.39298,-0.262115 0.47445,-0.180652 0.0814,0.08146 -0.0654,0.229407 -0.32634,0.328766 -0.37708,0.143584 -0.40746,0.113194 -0.14811,-0.148114 z m -349.9523,-0.38609 c 0.0127,-0.308227 0.0754,-0.37092 0.15985,-0.159854 0.0764,0.190995 0.067,0.419201 -0.0209,0.507119 -0.0879,0.08792 -0.15046,-0.06835 -0.13897,-0.347265 z m 50.00625,-0.264584 c 0.0127,-0.308226 0.0754,-0.370919 0.15985,-0.159853 0.0764,0.190995 0.067,0.419201 -0.0209,0.507119 -0.0879,0.08792 -0.15046,-0.06835 -0.13897,-0.347266 z m 41.01042,-0.529166 c 0.0127,-0.308227 0.0754,-0.37092 0.15985,-0.159854 0.0764,0.190995 0.067,0.419201 -0.0209,0.507119 -0.0879,0.08792 -0.15045,-0.06835 -0.13896,-0.347265 z m 10.08486,-0.242536 c 0.005,-0.436563 0.0647,-0.583126 0.13177,-0.325694 0.0671,0.257431 0.0627,0.614619 -0.01,0.79375 -0.0725,0.179131 -0.12736,-0.03149 -0.12197,-0.468056 z m -100.83518,0.132292 c -0.008,-0.218282 0.10086,-0.575469 0.24193,-0.79375 0.31256,-0.483651 0.31256,-0.0659 0,0.661458 -0.14993,0.348917 -0.23234,0.39398 -0.24193,0.132292 z m 50.00449,-0.418923 c 0.0127,-0.308226 0.0754,-0.370919 0.15985,-0.159853 0.0764,0.190994 0.067,0.4192 -0.0209,0.507119 -0.0879,0.08792 -0.15045,-0.06835 -0.13896,-0.347266 z m 40.48125,-0.529167 c 0.0127,-0.308226 0.0754,-0.370919 0.15985,-0.159853 0.0764,0.190995 0.067,0.4192 -0.0209,0.507119 -0.0879,0.08792 -0.15045,-0.06835 -0.13896,-0.347266 z m 269.78796,-0.814639 c 0.1819,-0.0734 0.47956,-0.0734 0.66146,0 0.1819,0.0734 0.0331,0.133454 -0.33073,0.133454 -0.3638,0 -0.51263,-0.06006 -0.33073,-0.133454 z m 11.6582,-0.0055 c 0.19101,-0.07643 0.41921,-0.06703 0.50713,0.02088 0.0879,0.08792 -0.0684,0.150452 -0.34726,0.138964 -0.30824,-0.0127 -0.37092,-0.07539 -0.15987,-0.159851 z m -9.27695,-0.259072 c 0.1819,-0.0734 0.47956,-0.0734 0.66146,0 0.1819,0.0734 0.0331,0.133453 -0.33073,0.133453 -0.3638,0 -0.51263,-0.06006 -0.33073,-0.133453 z m 6.48732,-0.0081 c 0.25744,-0.06708 0.61463,-0.06267 0.79375,0.0098 0.17915,0.07248 -0.0315,0.127363 -0.46805,0.121971 -0.43656,-0.0054 -0.58311,-0.06469 -0.3257,-0.131773 z m -328.3982,-0.500163 c 0.0127,-0.308226 0.0754,-0.370919 0.15985,-0.159853 0.0764,0.190995 0.067,0.419201 -0.0209,0.507119 -0.0879,0.08792 -0.15045,-0.06835 -0.13896,-0.347266 z m 60.58958,-0.264583 c 0.0127,-0.308226 0.0754,-0.370919 0.15985,-0.159853 0.0764,0.190994 0.067,0.4192 -0.0209,0.507119 -0.0879,0.08792 -0.15046,-0.06835 -0.13897,-0.347266 z m 138.753072,-0.374827 c 0.263392,-0.291042 0.538427,-0.529167 0.611187,-0.529167 0.07276,0 -0.08321,0.238125 -0.346604,0.529167 -0.263393,0.291041 -0.538427,0.529166 -0.611187,0.529166 -0.07276,0 0.08321,-0.238125 0.346604,-0.529166 z m -199.607232,-0.418923 c 0.0127,-0.308226 0.0754,-0.370919 0.15985,-0.159853 0.0764,0.190994 0.067,0.4192 -0.0209,0.507119 -0.0879,0.08792 -0.15045,-0.06835 -0.13896,-0.347266 z m 200.533273,-0.739307 c 0,-0.05494 0.20836,-0.2633 0.463021,-0.463021 0.419656,-0.329107 0.428996,-0.319749 0.09991,0.0999 -0.345652,0.440729 -0.562928,0.580887 -0.562928,0.363124 z m 1.058334,-1.322916 c 0,-0.05494 0.208359,-0.263301 0.463021,-0.463021 0.419655,-0.329108 0.428995,-0.319749 0.09991,0.0999 -0.345651,0.44073 -0.562927,0.580887 -0.562927,0.363125 z M -109.16871,-29.07756 c 0.2634,-0.291042 0.53843,-0.529167 0.61119,-0.529167 0.0728,0 -0.0832,0.238125 -0.3466,0.529167 -0.26339,0.291042 -0.53842,0.529167 -0.61118,0.529167 -0.0728,0 0.0832,-0.238125 0.34659,-0.529167 z m -71.81348,-0.154339 c 0.0127,-0.308227 0.0754,-0.37092 0.15985,-0.159854 0.0764,0.190995 0.067,0.419201 -0.0209,0.507119 -0.0879,0.08792 -0.15045,-0.06835 -0.13896,-0.347265 z m 74.85619,-2.888369 c 0.34178,-0.363802 0.68094,-0.661459 0.7537,-0.661459 0.0728,0 -0.14734,0.297657 -0.48911,0.661459 -0.34178,0.363802 -0.68094,0.661458 -0.7537,0.661458 -0.0728,0 0.14734,-0.297656 0.48911,-0.661458 z m -75.91452,-1.344965 c 0.0127,-0.308226 0.0754,-0.370919 0.15985,-0.159853 0.0764,0.190995 0.067,0.419201 -0.0209,0.507119 -0.0879,0.08792 -0.15045,-0.06835 -0.13896,-0.347266 z m 21.69583,-3.96875 c 0.0127,-0.308226 0.0754,-0.370919 0.15985,-0.159853 0.0764,0.190995 0.067,0.419201 -0.0209,0.507119 -0.0879,0.08792 -0.15045,-0.06835 -0.13896,-0.347266 z m -50.02714,-0.491503 c 0,-0.209693 0.10796,-0.447982 0.23991,-0.529532 0.13195,-0.08155 0.17759,0.09002 0.10143,0.38126 -0.16156,0.617799 -0.34134,0.695893 -0.34134,0.148272 z m 7.32383,-0.610661 c 3.51878,-0.04166 9.35284,-0.0417 12.96458,-9e-5 3.61174,0.04161 0.73274,0.07569 -6.39778,0.07574 -7.13053,4.8e-5 -10.08559,-0.03399 -6.5668,-0.07565 z m 49.91054,-7.7e-5 c 3.46613,-0.0418 9.06207,-0.04176 12.43541,9.8e-5 3.37334,0.04186 0.53741,0.07606 -6.30207,0.076 -6.83948,-5.3e-5 -9.59948,-0.0343 -6.13334,-0.0761 z m 85.045318,-1.72e-4 c 13.278776,-0.03792 35.007682,-0.03792 48.286458,0 13.2787759,0.03792 2.414323,0.06895 -24.143229,0.06895 -26.557552,0 -37.422006,-0.03102 -24.143229,-0.06895 z m 116.568167,8.5e-5 c 4.776364,-0.04044 12.515426,-0.04042 17.197916,5.3e-5 4.68249,0.04047 0.774542,0.07356 -8.684313,0.07353 -9.458854,-2.9e-5 -13.289968,-0.03314 -8.513603,-0.07358 z M -265.88275,-57.520268 c 0.005,-0.436563 0.0647,-0.583126 0.13177,-0.325694 0.0671,0.257431 0.0627,0.614619 -0.01,0.79375 -0.0725,0.17913 -0.12736,-0.03149 -0.12197,-0.468056 z"
         id="path11351" />
      <path
         style="fill:#ffffff;fill-opacity:1;stroke-width:1.00013;stroke-miterlimit:4;stroke-dasharray:none"
         d="m -265.66975,16.052798 c 0,-67.579852 0.0398,-74.765655 0.41578,-75.141667 0.37718,-0.377182 17.54382,-0.415774 184.943748,-0.415774 H 104.21775 V 15.637023 90.77869 H -80.725997 -265.66975 Z m 57.4599,52.300192 c 0.2432,-0.835501 0.73623,-2.531123 1.09561,-3.76805 0.35938,-1.236927 1.15679,-3.975365 1.77202,-6.085417 0.61523,-2.110052 1.3552,-4.669896 1.64439,-5.688541 0.96209,-3.388924 3.33105,-10.782377 5.20452,-16.243091 1.55279,-4.526016 1.87963,-5.27194 2.02886,-4.630209 0.0978,0.420733 0.59198,2.312779 1.09811,4.20455 0.50613,1.89177 1.13885,4.27302 1.40605,5.291666 0.26719,1.018646 0.80156,3.042709 1.18749,4.497917 0.38593,1.455208 0.87416,3.360208 1.08496,4.233333 0.21081,0.873125 0.55653,2.182813 0.76827,2.910417 0.30812,1.058786 3.42441,13.773862 3.97234,16.207949 l 0.13451,0.59753 14.73411,-0.06836 14.7341,-0.06837 0.18216,-0.79375 c 0.10019,-0.436562 0.56211,-2.2225 1.02648,-3.96875 0.46438,-1.74625 1.18377,-4.544219 1.59863,-6.217708 2.03703,-8.216945 4.15114,-15.623585 6.70413,-23.487404 0.67423,-2.07677 1.23383,-3.862708 1.24356,-3.96875 0.0338,-0.368507 0.78944,2.131602 2.66055,8.803029 1.09326,3.898064 4.30106,15.954629 5.80763,21.828125 0.57856,2.255573 1.21707,4.636823 1.41892,5.291666 0.20184,0.654844 0.43971,1.519444 0.52858,1.921336 l 0.1616,0.73071 43.319698,-0.06925 43.3197,-0.06925 3.162496,-1.261769 C -35.39549,64.167637 -28.567705,57.91449 -25.054118,49.106815 -23.09726,44.20144 -21.952963,35.455032 -22.501947,29.598919 -22.80262,26.391645 -23.27707,24.94116 -25.424614,20.664107 -30.070247,11.411802 -38.411713,4.416232 -48.486488,1.3232793 L -51.224955,0.48257106 -67.49683,0.26437183 c -13.950926,-0.18707364 -16.431194,-0.27891052 -17.388829,-0.64386618 -1.277144,-0.48671692 -2.331948,-1.60669025 -2.580958,-2.74042185 -0.42092,-1.9164327 1.085982,-4.1886982 3.168745,-4.7781634 0.770091,-0.2179531 10.602183,-0.278503 36.100137,-0.2223188 l 35.041797,0.077213 2.545451,3.571875 c 7.0577337,9.9036875 10.42786387,14.5789094 11.634258,16.1395834 0.7311496,0.945886 1.4009953,1.940973 1.4885459,2.211306 0.1138237,0.351486 -1.3847498,2.801249 -5.2602077,8.598958 -2.9806636,4.459094 -9.4425032,14.179632 -14.3595992,21.601195 -4.917096,7.421562 -10.675964,16.113125 -12.797472,19.314583 -2.121509,3.201458 -3.895831,5.969661 -3.942927,6.151563 -0.06789,0.262104 3.531605,0.330729 17.347115,0.330729 H 0.93198708 L 3.1912112,66.635461 C 4.433774,64.852831 8.8054315,58.512752 12.905997,52.546398 17.006562,46.580044 20.573331,41.408453 20.83212,41.053975 l 0.470561,-0.644509 1.042432,1.514893 c 1.199515,1.743149 9.698858,13.747718 17.037553,24.064034 l 2.765954,3.888214 h 18.362877 c 14.582431,0 18.336419,-0.06809 18.234395,-0.330729 C 78.527717,68.984328 73.344027,61.186992 69.02817,54.928426 68.082285,53.556771 65.522441,49.806932 63.339628,46.595456 61.156816,43.383978 57.445214,37.932278 55.09164,34.480569 52.738039,31.028857 48.949417,25.466294 46.672439,22.119315 44.395488,18.772336 42.020456,15.319523 41.39461,14.446398 l -1.137946,-1.5875 3.123327,-4.4979163 c 7.159863,-10.3110242 8.981149,-12.9428611 12.267538,-17.7270834 1.899285,-2.7648953 3.952902,-5.7414583 4.563587,-6.6145833 0.610711,-0.873125 2.615829,-3.790156 4.455821,-6.482292 1.840018,-2.692135 5.048356,-7.335573 7.129648,-10.31875 2.081292,-2.983177 3.702023,-5.514094 3.60164,-5.624261 -0.100383,-0.110167 -8.259815,-0.169698 -18.132081,-0.132291 l -17.949545,0.06801 -1.759161,2.513541 c -0.967555,1.382448 -3.054959,4.418542 -4.638675,6.746875 -3.576532,5.258097 -5.054865,7.274568 -8.563108,11.680299 l -2.769658,3.478218 -4.233518,-5.99176 C 11.972679,-27.657187 6.9032096,-35.139003 5.8030456,-37.088376 L 4.9484944,-38.60256 H -43.283484 c -42.216366,0 -48.498503,0.05056 -50.368962,0.405379 -5.351134,1.015095 -10.374674,3.810897 -14.337624,7.979463 -7.39771,7.781554 -10.99949,20.2506841 -9.27829,32.1208237 0.76638,5.285285 2.13842,9.7158683 4.17111,13.4693343 3.19577,5.901156 7.4687,10.162963 12.92438,12.890751 2.964932,1.482437 4.787991,1.950742 12.170832,3.126415 0.582083,0.09269 8.126531,0.247454 16.765442,0.343913 l 15.707111,0.175379 1.027784,1.158508 c 0.821341,0.925803 1.027788,1.366369 1.027788,2.193353 0,1.516571 -0.869458,3.02332 -2.109687,3.656036 -1.027303,0.524092 -1.503283,0.532728 -29.360149,0.532728 h -28.315921 l -0.16301,-0.727604 c -0.0897,-0.400182 -0.27888,-1.144323 -0.4205,-1.653646 -0.14162,-0.509323 -0.89055,-3.366823 -1.66429,-6.35 -0.77374,-2.983177 -2.24301,-8.519583 -3.26505,-12.303125 -1.91998,-7.107639 -3.67135,-13.6567991 -7.60611,-28.442708 -1.25858,-4.729427 -2.818,-10.56349 -3.46539,-12.964583 -0.64738,-2.401094 -1.40064,-5.199063 -1.67391,-6.217709 -0.27327,-1.018646 -0.81328,-2.983177 -1.20003,-4.365625 -0.38674,-1.382448 -0.85009,-3.049323 -1.02966,-3.704166 l -0.3265,-1.190625 h -12.94729 -12.9473 l -0.30679,1.058333 c -0.16874,0.582083 -0.92562,3.141927 -1.68195,5.688542 -0.75633,2.546614 -1.65674,5.582708 -2.0009,6.746875 -0.34417,1.164166 -1.29864,4.378854 -2.12105,7.14375 -0.82241,2.764895 -1.7072,5.800989 -1.9662,6.746875 -0.25899,0.945885 -1.25632,4.4508999 -2.21628,7.7889203 -0.95995,3.33802032 -1.75447,6.1359891 -1.76559,6.2177083 -0.0111,0.081719 -0.25939,-0.6253269 -0.55171,-1.5712123 -0.51197,-1.65661972 -0.85101,-2.9150892 -2.56611,-9.525 -0.43423,-1.6734896 -1.08469,-4.1142713 -1.44548,-5.4239583 -1.63703,-5.94255 -4.50461,-16.588931 -4.95292,-18.388542 -0.54228,-2.176817 -1.24477,-5.086749 -1.45313,-6.019271 l -0.13301,-0.595312 h -13.49701 c -10.56539,0 -13.51975,0.07184 -13.6017,0.330729 -0.0576,0.181901 -0.60797,2.116667 -1.2231,4.299479 -0.61513,2.182813 -1.40709,4.980782 -1.75992,6.217709 -0.35283,1.236927 -0.86088,3.022864 -1.12902,3.96875 -0.26814,0.945885 -0.77843,2.731823 -1.13398,3.96875 -1.67938,5.842383 -2.13039,7.444734 -2.71823,9.657291 -1.0995,4.1384303 -2.54025,9.41535435 -3.93701,14.419792 -0.38585,1.3824479 -0.98867,3.5851042 -1.33961,4.8947917 -0.62141,2.3190863 -0.91853,3.3906143 -2.38437,8.5989583 -1.63679,5.815756 -2.02427,7.235206 -3.17792,11.641667 -0.66672,2.546614 -1.44773,5.463645 -1.73558,6.482291 -0.68291,2.416657 -1.3895,4.963943 -2.23848,8.069792 -0.77397,2.831423 -1.19332,4.306073 -2.7839,9.789583 -0.61205,2.110052 -1.34262,4.669896 -1.62347,5.688542 -1.50908,5.473338 -1.79794,6.509425 -2.30429,8.26488 -0.30378,1.053184 -0.55233,1.975918 -0.55233,2.05052 0,0.0746 7.11399,0.134623 15.80886,0.133379 l 15.80885,-0.0024 0.44219,-1.519092 z M 114.9133,86.214627 c 0.29974,-11.471521 2.37413,-19.479185 7.3793,-28.486179 3.8902,-7.000539 7.03483,-10.780681 12.74911,-15.32569 1.74625,-1.388928 5.2586,-4.263131 7.80521,-6.387124 2.54661,-2.123991 5.65571,-4.658204 6.90909,-5.631582 2.55953,-1.987759 3.22985,-2.768831 4.44892,-5.184053 1.24388,-2.464372 1.9042,-5.284933 1.92915,-8.240059 0.0243,-2.898484 -0.26424,-4.149706 -1.35387,-5.867863 -1.43095,-2.2563931 -4.34345,-3.3378246 -7.70842,-2.8621884 -4.27675,0.6045147 -6.24039,3.8845414 -6.53312,10.9128634 l -0.15153,3.638021 h -12.89142 -12.89143 l 0.0875,-4.034896 c 0.10805,-4.982442 0.29974,-7.210972 0.77838,-9.0486013 0.20383,-0.7825317 0.42489,-1.7009825 0.49127,-2.0409985 0.6993,-3.5823472 4.44662,-9.6592972 7.86249,-12.7504984 6.91161,-6.2546418 17.72751,-9.6205538 27.91537,-8.6872758 13.71968,1.256813 24.47661,7.7117121 29.40421,17.644562 0.7797,1.5717017 1.99982,5.0746184 2.30684,6.622984 0.40357,2.035114 0.58283,6.338414 0.3782,9.079912 -0.34761,4.657591 -2.20123,11.594463 -3.89911,14.591896 -2.71516,4.793239 -7.66114,9.48482 -15.75964,14.948958 -8.87767,5.989854 -13.52807,9.908971 -16.60838,13.996704 l -1.61477,2.142879 17.83088,0.132292 17.83085,0.132292 0.0687,12.633854 0.0687,12.633854 H 148.26991 114.794 Z"
         id="path11349" />
    </g>
  </g>
  <style
     type="text/css"
     id="style3952">
	.st0{fill:#FC0C18;}
	.st1{fill:#FC0C18;}
</style>
</svg>
