<svg width="480" height="320" version="1.1" viewBox="0 0 480 320" xml:space="preserve" xmlns="http://www.w3.org/2000/svg"><defs><linearGradient id="a" x1="70.67" x2="94.68" y1="-101" y2="96.49" gradientTransform="scale(3.78)" gradientUnits="userSpaceOnUse"><stop stop-color="#89ffdd" offset="0"/><stop stop-color="#002e99" offset="1"/></linearGradient></defs><rect width="480" height="320" ry="24" fill="url(#a)"/><path d="m39.19 92v136h335.2v-136h-335.2zm166.1 20.22h46.61 4.33 23.82l17.8 25.08 17.8-25.07h30.14l-32.87 46.28 34.96 49.23h-30.14l-19.9-28.01-19.89 28.01h-30.15l34.97-49.23-15.42-21.7h-11.13-4.332-46.61c-7.26 0-7.26 10.89 0 10.89h21.57c40.03 0 40.03 60.05 0 60.05h-41.14-8.641-16.83l-11.74-43.02-11.73 43.02h-22.17l-11.74-43.03-11.74 43.02h-25.47l26.05-95.51h22.31l11.67 42.76 11.66-42.76h22.3l19.34 70.93h47.85c7.26 0 7.26-10.89 0-10.89h-21.57c-40.03 0-40.03-60.05 0-60.05zm206.6 25.92c-12.18 0-19.53 3.044-23.85 8.379-4.321 5.314-5.46 12.81-5.586 22.07v0.00977h22.1v-3.807c0-10.16 3.304-11.94 6.6-11.94 3.672 0 6.09 2.417 6.09 10.03 0 6.727-1.778 10.15-6.35 14.72l-15.75 16c-10.28 10.53-13.45 21.95-13.45 34.39h59.14v-17.77h-30.98c0.8892-2.668 3.808-5.336 5.838-7.365l13.96-13.58c6.727-6.716 11.17-14.46 11.17-26.64 0-13.44-5.325-24.49-28.93-24.49z" fill="#fff"/></svg>
