<svg width="480" height="320" version="1.1" viewBox="0 0 127 84.667" xmlns="http://www.w3.org/2000/svg" xmlns:xlink="http://www.w3.org/1999/xlink">
 <defs>
  <linearGradient id="a" x1="70.674" x2="94.685" y1="-100.95" y2="96.493" gradientUnits="userSpaceOnUse">
   <stop stop-color="#89ffdd" offset="0"/>
   <stop stop-color="#002e99" offset="1"/>
  </linearGradient>
 </defs>
 <g>
  <rect width="127" height="84.667" ry="4.2333" fill="url(#a)" stroke-linecap="square" stroke-linejoin="round" stroke-width=".52917" style="paint-order:stroke fill markers"/>
  <g transform="matrix(.23519 0 0 .23519 73.12 38.645)" fill="#fff" stroke-width="1.0001">
   <path d="m-265.84 90.655c-0.0819-0.21348-0.0876-0.5409-0.0126-0.7276 0.075-0.1867 0.14576-0.07157 0.15725 0.25585l0.0209 0.59531h369.89v-75.12c0-51.037-0.0869-75.163-0.27119-75.254-0.14915-0.07397-0.11938-0.10374 0.0661-0.06614 0.27226 0.05516 0.3502 14.598 0.40394 75.386l0.0666 75.318h-185.08c-162.43 0-185.1-0.04752-185.23-0.38815zm397.39 0.18974c9.2882-0.03856 24.409-0.03855 33.602 1.6e-5 9.1929 0.03857 1.5934 0.07012-16.888 0.07011-18.481-1.1e-5 -26.003-0.03156-16.714-0.07012zm-16.669-7.8714c0-1.0186 0.049-1.4029 0.10628-0.854 0.0573 0.54895 0.0563 1.3824-3e-3 1.8521-0.0584 0.4697-0.1053 0.02056-0.10414-0.99809zm0.21955-3.0427c0-0.3638 0.0601-0.51263 0.13345-0.33073 0.0734 0.1819 0.0734 0.47956 0 0.66146-0.0734 0.1819-0.13345 0.03307-0.13345-0.33073zm0.24368-2.271c0.0127-0.30823 0.0754-0.37092 0.15986-0.15985 0.0764 0.191 0.067 0.4192-0.0209 0.50712-0.0879 0.08792-0.15047-0.06835-0.13899-0.34727zm0.28548-1.6977c0-0.3638 0.0601-0.51263 0.13346-0.33073 0.0734 0.1819 0.0734 0.47956 0 0.66146-0.0734 0.1819-0.13346 0.03307-0.13346-0.33073zm0.24369-1.4773c0.0127-0.30823 0.0754-0.37092 0.15986-0.15985 0.0764 0.191 0.067 0.4192-0.0209 0.50712-0.0879 0.08792-0.15046-0.06835-0.13898-0.34727zm-273.45-4.9503c0.0993-0.26094 0.2473-0.40778 0.32876-0.32632 0.0815 0.08146 1.7e-4 0.29496-0.18065 0.47443-0.26131 0.25936-0.2917 0.22897-0.14811-0.14811zm-29.497-0.60595c0.0127-0.30823 0.0754-0.37092 0.15985-0.15985 0.0764 0.191 0.067 0.4192-0.0209 0.50712-0.0879 0.08792-0.15046-0.06835-0.13897-0.34727zm-52.652-1.3229c0.0127-0.30823 0.0754-0.37092 0.15985-0.15985 0.0764 0.191 0.067 0.4192-0.0209 0.50712-0.0879 0.08792-0.15045-0.06835-0.13896-0.34726zm52.388 0c0.0127-0.30823 0.0754-0.37092 0.15985-0.15985 0.0764 0.191 0.067 0.4192-0.0209 0.50712-0.0879 0.08792-0.15045-0.06835-0.13896-0.34726zm-20.617-0.63941c0-0.3638 0.0601-0.51263 0.13345-0.33073 0.0734 0.1819 0.0734 0.47956 0 0.66146s-0.13345 0.03307-0.13345-0.33073zm-31.506-0.41892c0.0127-0.30823 0.0754-0.37092 0.15985-0.15985 0.0764 0.191 0.067 0.4192-0.0209 0.50712-0.0879 0.08792-0.15046-0.06835-0.13897-0.34727zm82.815-0.26458c0.0127-0.30823 0.0754-0.37092 0.15985-0.15985 0.0764 0.19099 0.067 0.4192-0.0209 0.50712-0.0879 0.08792-0.15045-0.06835-0.13896-0.34727zm19.579-0.26458c0.0127-0.30823 0.0754-0.37092 0.15985-0.15985 0.0764 0.191 0.067 0.4192-0.0209 0.50712-0.0879 0.08792-0.15046-0.06835-0.13897-0.34726zm-70.644-0.26458c0.0127-0.30823 0.0754-0.37092 0.15985-0.15985 0.0764 0.191 0.067 0.4192-0.0209 0.50712-0.0879 0.08792-0.15046-0.06835-0.13897-0.34727zm51.35-0.63941c0-0.3638 0.0601-0.51263 0.13345-0.33073 0.0734 0.1819 0.0734 0.47956 0 0.66146s-0.13345 0.03307-0.13345-0.33073zm19.029-0.15434c0.0127-0.30823 0.0754-0.37092 0.15985-0.15985 0.0764 0.191 0.067 0.4192-0.0209 0.50712-0.0879 0.08792-0.15045-0.06835-0.13896-0.34727zm-50.8-0.52917c0.0127-0.30823 0.0754-0.37092 0.15985-0.15985 0.0764 0.191 0.067 0.4192-0.0209 0.50712-0.0879 0.08792-0.15045-0.06835-0.13896-0.34726zm-50.535-0.52917c0.0127-0.30823 0.0754-0.37092 0.15985-0.15985 0.0764 0.19099 0.067 0.4192-0.0209 0.50712-0.0879 0.08792-0.15046-0.06835-0.13897-0.34727zm50.132-1.051c-0.0996-0.53098-0.1282-1.0183-0.0635-1.083 0.0647-0.06468 0.1991 0.31684 0.29871 0.84782 0.0996 0.53098 0.1282 1.0183 0.0635 1.083-0.0647 0.06468-0.19909-0.31684-0.2987-0.84782zm-18.366 0.41158c0-0.21828 0.10232-0.635 0.22739-0.92604 0.14333-0.33354 0.22739-0.38245 0.22739-0.13229 0 0.21828-0.10233 0.635-0.22739 0.92604-0.14333 0.33354-0.22739 0.38245-0.22739 0.13229zm-31.502-0.41892c0.0127-0.30823 0.0754-0.37092 0.15985-0.15985 0.0764 0.191 0.067 0.4192-0.0209 0.50712-0.0879 0.08792-0.15045-0.06835-0.13896-0.34726zm202.91-0.21014c0-0.05494 0.20836-0.2633 0.46302-0.46302 0.41966-0.32911 0.429-0.31975 0.09991 0.0999-0.34565 0.44073-0.56293 0.58089-0.56293 0.36312zm-120.08-0.42927c4e-3 -0.21828 0.1031-0.69453 0.21961-1.0583 0.1703-0.53174 0.21336-0.55769 0.21962-0.13229 4e-3 0.29104-0.0945 0.76729-0.21962 1.0583-0.13931 0.3242-0.22437 0.37544-0.21961 0.13229zm17.438-0.15434c0.0127-0.30823 0.0754-0.37092 0.15985-0.15985 0.0764 0.191 0.067 0.4192-0.0209 0.50712-0.0879 0.08792-0.15045-0.06835-0.13896-0.34726zm-100.01-0.26458c0.0127-0.30823 0.0754-0.37092 0.15985-0.15985 0.0764 0.191 0.067 0.4192-0.0209 0.50712-0.0879 0.08792-0.15045-0.06835-0.13896-0.34727zm204.5-0.7717c0.49366-0.50932 0.95708-0.92604 1.0298-0.92604s-0.27159 0.41672-0.76525 0.92604-0.95708 0.92604-1.0298 0.92604c-0.07276 0 0.2716-0.41672 0.76526-0.92604zm-172.75 0.24254c0.0127-0.30823 0.0754-0.37092 0.15985-0.15985 0.0764 0.191 0.067 0.4192-0.0209 0.50712-0.0879 0.08792-0.15045-0.06835-0.13896-0.34726zm355.58-0.24254c0.34176-0.3638 0.68093-0.66146 0.75369-0.66146 0.0728 0-0.14734 0.29766-0.48911 0.66146-0.34176 0.3638-0.68093 0.66146-0.75369 0.66146-0.0728 0 0.14735-0.29766 0.48911-0.66146zm-287.58-0.02204c0.0127-0.30823 0.0754-0.37092 0.15985-0.15985 0.0764 0.191 0.067 0.4192-0.0209 0.50712-0.0879 0.08792-0.15045-0.06835-0.13896-0.34727zm-98.954-1.8521c0.0127-0.30823 0.0754-0.37092 0.15985-0.15985 0.0764 0.19099 0.067 0.4192-0.0209 0.50712-0.0879 0.08792-0.15045-0.06835-0.13896-0.34726zm47.89 0c0.0127-0.30823 0.0754-0.37092 0.15985-0.15985 0.0764 0.19099 0.067 0.4192-0.0209 0.50712-0.0879 0.08792-0.15046-0.06835-0.13897-0.34726zm158.6-0.904c0.26339-0.29104 0.53843-0.52917 0.61119-0.52917s-0.08321 0.23812-0.3466 0.52917c-0.26339 0.29104-0.53843 0.52917-0.61119 0.52917-0.07276 0 0.08321-0.23812 0.3466-0.52917zm182.43 0.44638c0-0.04554 0.38695-0.43249 0.8599-0.8599l0.85989-0.7771-0.77711 0.8599c-0.72437 0.80154-0.94268 0.98151-0.94268 0.7771zm-388.65-0.60072c0.0127-0.30823 0.0754-0.37092 0.15985-0.15985 0.0764 0.191 0.067 0.4192-0.0209 0.50712-0.0879 0.08792-0.15046-0.06835-0.13897-0.34726zm47.36 0c0.0127-0.30823 0.0754-0.37092 0.15985-0.15985 0.0764 0.191 0.067 0.4192-0.0209 0.50712-0.0879 0.08792-0.15045-0.06835-0.13896-0.34726zm-15.61-0.26458c0.0127-0.30823 0.0754-0.37092 0.15985-0.15985 0.0764 0.191 0.067 0.4192-0.0209 0.50712-0.0879 0.08792-0.15046-0.06835-0.13897-0.34727zm65.881-0.79375c0.0127-0.30823 0.0754-0.37092 0.15985-0.15985 0.0764 0.191 0.067 0.4192-0.0209 0.50712-0.0879 0.08792-0.15046-0.06835-0.13897-0.34727zm-0.26458-1.0583c0.0127-0.30823 0.0754-0.37092 0.15985-0.15985 0.0764 0.19099 0.067 0.4192-0.0209 0.50712-0.0879 0.08792-0.15045-0.06835-0.13896-0.34727zm-51.329-3.175c0.0127-0.30823 0.0754-0.37092 0.15985-0.15985 0.0764 0.19099 0.067 0.4192-0.0209 0.50712-0.0879 0.08792-0.15046-0.06835-0.13897-0.34727zm38.365-1.8521c0.0127-0.30823 0.0754-0.37092 0.15985-0.15985 0.0764 0.191 0.067 0.4192-0.0209 0.50712-0.0879 0.08792-0.15045-0.06835-0.13896-0.34726zm11.642 0c0.0127-0.30823 0.0754-0.37092 0.15985-0.15985 0.0764 0.191 0.067 0.4192-0.0209 0.50712-0.0879 0.08792-0.15046-0.06835-0.13897-0.34726zm114.96 0.07678c0.09935-0.26094 0.24731-0.40778 0.32877-0.32632 0.08146 0.08146 1.58e-4 0.29496-0.18066 0.47443-0.2613 0.25936-0.2917 0.22897-0.14811-0.14811zm152.25-0.02234c0-0.05494 0.20836-0.2633 0.46302-0.46302 0.41966-0.32911 0.429-0.31975 0.0999 0.0999-0.34565 0.44073-0.56293 0.58089-0.56293 0.36312zm-151.86-0.82614c0-0.14552 0.11541-0.44318 0.25649-0.66146s0.25649-0.27781 0.25649-0.13229c0 0.14552-0.11541 0.44318-0.25649 0.66146-0.14108 0.21828-0.25649 0.27781-0.25649 0.13229zm152.92-0.49677c0-0.05494 0.20836-0.2633 0.46302-0.46302 0.41966-0.32911 0.429-0.31975 0.0999 0.0999-0.34565 0.44073-0.56293 0.58089-0.56293 0.36312zm-319.6-1.9065c0.0127-0.30823 0.0754-0.37092 0.15985-0.15985 0.0764 0.191 0.067 0.4192-0.0209 0.50712-0.0879 0.08792-0.15045-0.06835-0.13896-0.34726zm322.64-1.4332c0.56838-0.58208 1.093-1.0583 1.1657-1.0583 0.0728 0-0.33277 0.47625-0.90115 1.0583-0.56837 0.58208-1.093 1.0583-1.1657 1.0583-0.0728 0 0.33276-0.47625 0.90114-1.0583zm-154.63 0.11024c0.0127-0.30823 0.07541-0.37092 0.15986-0.15985 0.07644 0.19099 0.06705 0.4192-0.0209 0.50712-0.08792 0.08792-0.15047-0.06835-0.13899-0.34727zm-118-0.26458c0.0127-0.30823 0.0754-0.37092 0.15985-0.15985 0.0764 0.191 0.067 0.4192-0.0209 0.50712-0.0879 0.08792-0.15045-0.06835-0.13896-0.34726zm312.45-1.2685c0-0.05494 0.20836-0.2633 0.46302-0.46302 0.41966-0.32911 0.429-0.31975 0.0999 0.0999-0.34565 0.44073-0.56293 0.58089-0.56293 0.36312zm1.5875-1.3229c0-0.05494 0.20836-0.2633 0.46302-0.46302 0.41966-0.32911 0.429-0.31975 0.0999 0.0999-0.34565 0.44073-0.56293 0.58089-0.56293 0.36312zm-37.571-0.52917c0-0.05494 0.20836-0.2633 0.46302-0.46302 0.41966-0.32911 0.429-0.31975 0.0999 0.0999-0.34565 0.44073-0.56293 0.58089-0.56293 0.36312zm1.3229-1.0583c0-0.05494 0.20836-0.2633 0.46302-0.46302 0.41965-0.32911 0.42899-0.31975 0.0999 0.0999-0.34565 0.44073-0.56292 0.58089-0.56292 0.36312zm39.147-1.0246c1.0964-1.1682 1.334-1.3782 1.334-1.1796 0 0.04246-0.56555 0.60801-1.2568 1.2568l-1.2568 1.1796zm-197.59-0.46302c0-0.3638 0.06006-0.51263 0.13346-0.33073 0.0734 0.1819 0.0734 0.47956 0 0.66146s-0.13346 0.03307-0.13346-0.33073zm44.041-0.04841c0.07641-0.12364 0.24977-0.1563 0.38523-0.07258 0.34618 0.21395 0.30721 0.29738-0.13893 0.29738-0.21188 0-0.32271-0.10116-0.2463-0.2248zm117.05-0.58065c0-0.05494 0.20836-0.2633 0.46302-0.46302 0.41966-0.32911 0.429-0.31975 0.0999 0.0999-0.34565 0.44073-0.56293 0.58089-0.56293 0.36312zm-237.27-0.36308c7.8217-0.03893 20.621-0.03893 28.443 0 7.8217 0.03894 1.4221 0.07079-14.221 0.07079s-22.043-0.03186-14.221-0.07079zm-95.56-0.7497c0.0127-0.30823 0.0754-0.37092 0.15985-0.15985 0.0764 0.191 0.067 0.4192-0.0209 0.50712-0.0879 0.08792-0.15045-0.06835-0.13896-0.34727zm45.773-0.52917c0.0127-0.30823 0.0754-0.37092 0.15985-0.15985 0.0764 0.191 0.067 0.4192-0.0209 0.50712-0.0879 0.08792-0.15046-0.06835-0.13897-0.34726zm288.64 0.31903c0-0.05494 0.20836-0.2633 0.46302-0.46302 0.41966-0.32911 0.429-0.31975 0.0999 0.0999-0.34565 0.44073-0.56293 0.58089-0.56293 0.36312zm-284.41-1.1128c0.0127-0.30823 0.0754-0.37092 0.15985-0.15985 0.0764 0.191 0.067 0.4192-0.0209 0.50712-0.0879 0.08792-0.15045-0.06835-0.13896-0.34726zm90.616 0.07678c0.09936-0.26094 0.2473-0.40778 0.32877-0.32632 0.08146 0.08146 1.7e-4 0.29496-0.18065 0.47443-0.26131 0.25936-0.2917 0.22897-0.14811-0.14811zm195.38-0.28692c0-0.05494 0.20836-0.2633 0.46302-0.46302 0.41966-0.32911 0.429-0.31975 0.0999 0.0999-0.34565 0.44073-0.56293 0.58089-0.56293 0.36312zm1.5875-1.3229c0-0.05494 0.20836-0.2633 0.46302-0.46302 0.41966-0.32911 0.429-0.31975 0.0999 0.0999-0.34565 0.44073-0.56293 0.58089-0.56293 0.36312zm-196.28-0.69385c0-0.3638 0.06005-0.51263 0.13345-0.33073 0.0734 0.1819 0.0734 0.47956 0 0.66146s-0.13345 0.03307-0.13345-0.33073zm31.003-2.3812c0-1.0914 0.0467-1.5379 0.1038-0.99219 0.05707 0.5457 0.05707 1.4387 0 1.9844-0.0571 0.5457-0.1038 0.09922-0.1038-0.99219zm167.26 1.3229c0.2634-0.29104 0.53843-0.52917 0.61119-0.52917 0.0728 0-0.0832 0.23812-0.3466 0.52917-0.26339 0.29104-0.53843 0.52917-0.61119 0.52917-0.0728 0 0.0832-0.23812 0.3466-0.52917zm-340.89-0.41892c0.0127-0.30823 0.0754-0.37092 0.15985-0.15985 0.0764 0.19099 0.067 0.4192-0.0209 0.50712-0.0879 0.08792-0.15045-0.06835-0.13896-0.34727zm141.25-1.1024-0.64143-0.7276 0.7276 0.64143c0.68006 0.59952 0.84894 0.81378 0.64143 0.81378-0.04739 0-0.37481-0.32742-0.7276-0.7276zm201.24 0.19844c0.2634-0.29104 0.53843-0.52917 0.61119-0.52917 0.0728 0-0.0832 0.23812-0.3466 0.52917-0.26339 0.29104-0.53843 0.52917-0.61119 0.52917-0.0728 0 0.0832-0.23812 0.3466-0.52917zm-293.53-0.41892c0.0127-0.30823 0.0754-0.37092 0.15985-0.15985 0.0764 0.191 0.067 0.4192-0.0209 0.50712-0.0879 0.08792-0.15045-0.06835-0.13896-0.34727zm-50.006-0.52917c0.0127-0.30823 0.0754-0.37092 0.15985-0.15985 0.0764 0.191 0.067 0.4192-0.0209 0.50712-0.0879 0.08792-0.15045-0.06835-0.13896-0.34726zm81.756 0c0.0127-0.30823 0.0754-0.37092 0.15985-0.15985 0.0764 0.191 0.067 0.4192-0.0209 0.50712-0.0879 0.08792-0.15045-0.06835-0.13896-0.34726zm-114.3-0.26458c0.0127-0.30823 0.0754-0.37092 0.15985-0.15985 0.0764 0.191 0.067 0.4192-0.0209 0.50712-0.0879 0.08792-0.15045-0.06835-0.13896-0.34727zm377.27 0.31903c0-0.05494 0.20836-0.2633 0.46302-0.46302 0.41966-0.32911 0.429-0.31975 0.0999 0.0999-0.34565 0.44073-0.56293 0.58089-0.56293 0.36312zm33.346-0.0324c0-0.14552 0.11541-0.44318 0.25648-0.66146 0.14108-0.21828 0.25649-0.27781 0.25649-0.13229 0 0.14552-0.11541 0.44318-0.25649 0.66146-0.14107 0.21828-0.25648 0.27781-0.25648 0.13229zm-258.84-0.33054c3.9654-0.04116 10.454-0.04116 14.42 0s0.72099 0.07483-7.2099 0.07483-11.175-0.03367-7.2099-0.07483zm-9.1231-0.24968c0.25743-0.06708 0.61462-0.06267 0.79375 0.0098 0.17913 0.07248-0.03149 0.12736-0.46806 0.12197-0.43656-0.0054-0.58312-0.06469-0.32569-0.13177zm-28.625-0.50015c0.0127-0.30823 0.0754-0.37092 0.15985-0.15985 0.0764 0.191 0.067 0.4192-0.0209 0.50712-0.0879 0.08792-0.15046-0.06835-0.13897-0.34727zm26.107 0.2322c0.32742-0.06307 0.8632-0.06307 1.1906 0 0.32742 0.06306 0.05953 0.11466-0.59531 0.11466-0.65484 0-0.92273-0.0516-0.59531-0.11466zm238.19 0.08683c0-0.05494 0.20836-0.2633 0.46302-0.46302 0.41966-0.32911 0.429-0.31975 0.0999 0.0999-0.34565 0.44073-0.56293 0.58089-0.56293 0.36312zm-378.07-0.58361c0.0127-0.30823 0.0754-0.37092 0.15985-0.15985 0.0764 0.19099 0.067 0.4192-0.0209 0.50712-0.0879 0.08792-0.15045-0.06835-0.13896-0.34727zm138.31 0.23818c0.191-0.07643 0.4192-0.06703 0.50712 0.02088 0.08792 0.08792-0.06835 0.15045-0.34727 0.13896-0.30823-0.0127-0.37092-0.07539-0.15985-0.15985zm272.59-0.50277c0.0127-0.30823 0.0754-0.37092 0.15986-0.15985 0.0764 0.191 0.067 0.4192-0.0209 0.50712-0.0879 0.08792-0.15047-0.06835-0.13898-0.34726zm-275.78-0.02089c0.1819-0.0734 0.47956-0.0734 0.66146 0s0.03307 0.13345-0.33073 0.13345c-0.3638 0-0.51263-0.06006-0.33073-0.13345zm-134.85-0.77286c0.0127-0.30823 0.0754-0.37092 0.15985-0.15985 0.0764 0.191 0.067 0.4192-0.0209 0.50712-0.0879 0.08792-0.15046-0.06835-0.13897-0.34726zm132.75 0.23818c0.191-0.07643 0.4192-0.06703 0.50712 0.02088 0.08792 0.08792-0.06835 0.15045-0.34726 0.13896-0.30823-0.0127-0.37092-0.07539-0.15985-0.15985zm247.44-0.43122c0-0.04554 0.38696-0.43249 0.8599-0.8599l0.85989-0.7771-0.7771 0.8599c-0.72438 0.80154-0.94269 0.98151-0.94269 0.7771zm31.242-1.3945c0.0127-0.30823 0.0754-0.37092 0.15986-0.15985 0.0764 0.191 0.067 0.4192-0.0209 0.50712-0.0879 0.08792-0.15047-0.06835-0.13898-0.34726zm-298.98-1.0583c0.0127-0.30823 0.0754-0.37092 0.15985-0.15985 0.0764 0.191 0.067 0.4192-0.0209 0.50712-0.0879 0.08792-0.15045-0.06835-0.13896-0.34727zm299.24 0c0.0127-0.30823 0.0754-0.37092 0.15986-0.15985 0.0764 0.191 0.067 0.4192-0.0209 0.50712-0.0879 0.08792-0.15046-0.06835-0.13898-0.34727zm-410.9-0.26458c0.0127-0.30823 0.0754-0.37092 0.15985-0.15985 0.0764 0.19099 0.067 0.4192-0.0209 0.50712-0.0879 0.08792-0.15046-0.06835-0.13897-0.34727zm111.39-0.79375c0.0127-0.30823 0.0754-0.37092 0.15985-0.15985 0.0764 0.19099 0.067 0.4192-0.0209 0.50712-0.0879 0.08792-0.15045-0.06835-0.13896-0.34727zm299.77 0c0.0127-0.30823 0.0754-0.37092 0.15986-0.15985 0.0764 0.19099 0.067 0.4192-0.0209 0.50712-0.0879 0.08792-0.15047-0.06835-0.13899-0.34727zm-410.9-0.26458c0.0127-0.30823 0.0754-0.37092 0.15985-0.15985 0.0764 0.191 0.067 0.4192-0.0209 0.50712-0.0879 0.08792-0.15045-0.06835-0.13896-0.34726zm122.71-0.57326c-0.3291-0.41964-0.31975-0.429 0.0999-0.0999 0.25466 0.19972 0.46302 0.40808 0.46302 0.46302 0 0.21776-0.21727 0.07761-0.56292-0.36312zm-2.3475-2.0505c-0.64268-0.65484-1.109-1.1906-1.0362-1.1906 0.0728 0 0.65813 0.53578 1.3008 1.1906s1.109 1.1906 1.0362 1.1906c-0.0728 0-0.65813-0.53578-1.3008-1.1906zm291.06 0.50712c0.0127-0.30823 0.0754-0.37092 0.15986-0.15985 0.0764 0.19099 0.067 0.4192-0.0209 0.50712-0.0879 0.08792-0.15046-0.06835-0.13898-0.34727zm-62.396-0.57305c3.6016-0.04158 9.4952-0.04158 13.097 0s0.65485 0.07561-6.5484 0.07561-10.15-0.03402-6.5484-0.07561zm62.692-0.9924c5e-3 -0.43656 0.0647-0.58313 0.13179-0.32569 0.0671 0.25743 0.0627 0.61462-0.01 0.79375-0.0725 0.17913-0.12734-0.03149-0.12197-0.46806zm-410.66-0.02204c0.0127-0.30823 0.0754-0.37092 0.15985-0.15985 0.0764 0.19099 0.067 0.4192-0.0209 0.50712-0.0879 0.08792-0.15045-0.06835-0.13896-0.34726zm0.26458-1.0583c0.0127-0.30823 0.0754-0.37092 0.15985-0.15985 0.0764 0.191 0.067 0.4192-0.0209 0.50712-0.0879 0.08792-0.15046-0.06835-0.13897-0.34726zm382.32 0c0.0127-0.30823 0.0754-0.37092 0.15986-0.15985 0.0764 0.191 0.067 0.4192-0.0209 0.50712-0.0879 0.08792-0.15046-0.06835-0.13898-0.34726zm-265.43-0.30869c-0.32911-0.41964-0.31975-0.429 0.0999-0.0999 0.25466 0.19972 0.46302 0.40808 0.46302 0.46302 0 0.21776-0.21727 0.07761-0.56291-0.36312zm224.49-1.2568c0-1.0186 0.049-1.4029 0.10629-0.854 0.0573 0.54895 0.0563 1.3824-3e-3 1.8521-0.0585 0.4697-0.1053 0.02056-0.10414-0.99809zm69.319-0.39688c0-0.94588 0.048-1.3328 0.10671-0.8599 0.0587 0.47294 0.0587 1.2468 0 1.7198s-0.10671 0.08599-0.10671-0.8599zm-28.11 0.63941c0.0127-0.30823 0.0754-0.37092 0.15986-0.15985 0.0764 0.19099 0.067 0.4192-0.0209 0.50712-0.0879 0.08792-0.15047-0.06835-0.13899-0.34727zm-15.346-1.8521c0.0127-0.30823 0.0754-0.37092 0.15986-0.15985 0.0764 0.191 0.067 0.4192-0.0209 0.50712-0.0879 0.08792-0.15046-0.06835-0.13898-0.34726zm15.651-0.90399c0-0.50932 0.0545-0.71768 0.12099-0.46302 0.0666 0.25466 0.0666 0.67138 0 0.92604-0.0665 0.25466-0.12099 0.0463-0.12099-0.46302zm-41.519-1.4552c3e-3 -0.87312 0.0509-1.1984 0.10975-0.72286 0.0589 0.47555 0.0577 1.1899-3e-3 1.5875-0.0603 0.39758-0.10853 0.0085-0.10705-0.86464zm-340.05 0.7717c0.0127-0.30823 0.0754-0.37092 0.15985-0.15985 0.0764 0.191 0.067 0.4192-0.0209 0.50712-0.0879 0.08792-0.15045-0.06835-0.13896-0.34726zm267.7-0.0441c-0.32909-0.41965-0.31975-0.429 0.09991-0.0999 0.25466 0.19972 0.46302 0.40808 0.46302 0.46302 0 0.21776-0.21728 0.0776-0.56293-0.36312zm141.67-1.3891c0-0.80036 0.0496-1.1278 0.11023-0.7276 0.0606 0.40018 0.0606 1.055 0 1.4552s-0.11023 0.07276-0.11023-0.7276zm-181.45-0.39688c0-0.33601 0.089297-0.55574 0.19844-0.48829 0.10914 0.06745 0.19844 0.28718 0.19844 0.48829 0 0.2011-0.089297 0.42083-0.19844 0.48829-0.10914 0.06745-0.19844-0.15228-0.19844-0.48829zm153.35-0.02204c0.0127-0.30823 0.0754-0.37092 0.15986-0.15985 0.0764 0.191 0.067 0.4192-0.0209 0.50712-0.0879 0.08792-0.15047-0.06835-0.13899-0.34727zm-185.79-0.30869c-0.32909-0.41964-0.31975-0.429 0.09991-0.0999 0.25466 0.19972 0.46302 0.40808 0.46302 0.46302 0 0.21776-0.21728 0.07761-0.56293-0.36312zm185.53-0.74965c0.0127-0.30823 0.0754-0.37092 0.15986-0.15985 0.0764 0.19099 0.067 0.4192-0.0209 0.50712-0.0879 0.08792-0.15046-0.06835-0.13898-0.34727zm-187.1-1.1024-0.64143-0.7276 0.7276 0.64143c0.68006 0.59952 0.84894 0.81378 0.64143 0.81378-0.04739 0-0.37481-0.32742-0.7276-0.7276zm146.38 0.19844c0-0.3638 0.0601-0.51263 0.13346-0.33073 0.0734 0.1819 0.0734 0.47956 0 0.66146s-0.13346 0.03307-0.13346-0.33073zm68.801-0.39688c5e-3 -0.43656 0.0647-0.58313 0.13179-0.32569 0.0671 0.25743 0.0627 0.61462-0.01 0.79375-0.0725 0.17913-0.12734-0.03149-0.12197-0.46806zm-41.062-1.0088c0-0.04554 0.38695-0.43249 0.85989-0.8599l0.8599-0.7771-0.77711 0.8599c-0.72438 0.80154-0.94268 0.98151-0.94268 0.7771zm11.22-0.7771-0.50403-0.59531 0.59531 0.50403c0.55944 0.47366 0.71576 0.6866 0.50404 0.6866-0.0502 0-0.31811-0.26789-0.59532-0.59531zm-187.85-0.52917-0.77711-0.8599 0.8599 0.77711c0.80156 0.72437 0.98152 0.94269 0.77711 0.94269-0.04554 0-0.43249-0.38695-0.8599-0.8599zm33.453 0.13229c-0.32909-0.41964-0.31975-0.429 0.099907-0.099896 0.25466 0.19972 0.46302 0.40808 0.46302 0.46302 0 0.21776-0.21728 0.077605-0.56293-0.36312zm116.21-1.2788c0.0127-0.30823 0.0754-0.37092 0.15986-0.15985 0.0764 0.19099 0.067 0.4192-0.0209 0.50712-0.0879 0.087918-0.15047-0.068352-0.13898-0.34727zm-151.4-0.30868c-0.32909-0.41964-0.31975-0.429 0.09991-0.099896 0.44072 0.34564 0.58089 0.56292 0.36311 0.56292-0.05493 0-0.26329-0.20836-0.46302-0.46302zm182 0.28779c0.1819-0.073398 0.47955-0.073398 0.66146 0 0.1819 0.073398 0.0331 0.13345-0.33073 0.13345-0.36381 0-0.51263-0.060055-0.33073-0.13345zm4.2499-0.0055c0.191-0.07643 0.4192-0.067032 0.50712 0.020876 0.0879 0.087918-0.0684 0.15045-0.34726 0.13896-0.30824-0.0127-0.37092-0.07539-0.15986-0.15985zm-2.1332-0.25907c0.18191-0.073398 0.47956-0.073398 0.66146 0s0.0331 0.13345-0.33073 0.13345c-0.3638 0-0.51263-0.060055-0.33073-0.13345zm-371.39-0.77287c0.0127-0.30823 0.0754-0.37092 0.15985-0.15985 0.0764 0.19099 0.067 0.4192-0.0209 0.50712-0.0879 0.087918-0.15045-0.068352-0.13896-0.34727zm405.61 0.24213c-0.0114-0.17-0.0894-0.52719-0.17315-0.79375-0.14475-0.4607-0.13726-0.46127 0.15103-0.011668 0.16679 0.26014 0.24471 0.61733 0.17314 0.79375-0.0939 0.23151-0.13594 0.23476-0.15102 0.011668zm-298.98-0.77129c0.0127-0.30823 0.0754-0.37092 0.15985-0.15985 0.0764 0.19099 0.067 0.4192-0.0209 0.50712-0.0879 0.087918-0.15046-0.068352-0.13897-0.34727zm-0.50828-2.4915c0-0.3638 0.0601-0.51263 0.13345-0.33073 0.0734 0.1819 0.0734 0.47956 0 0.66146-0.0734 0.1819-0.13345 0.033073-0.13345-0.33073zm-0.55005-3.5939c0.0127-0.30823 0.0754-0.37092 0.15985-0.15985 0.0764 0.19099 0.067 0.4192-0.0209 0.50712-0.0879 0.087918-0.15045-0.068352-0.13896-0.34727zm67.134 0.23818c0.191-0.07643 0.4192-0.067032 0.50712 0.020876 0.08792 0.087918-0.06835 0.15045-0.34726 0.13896-0.30823-0.0127-0.37092-0.07539-0.15985-0.15985zm-122.7-0.50277c0.0127-0.30823 0.0754-0.37092 0.15985-0.15985 0.0764 0.19099 0.067 0.4192-0.0209 0.50712-0.0879 0.087918-0.15045-0.068352-0.13896-0.34727zm121.36 0.24369c0.1819-0.073398 0.47956-0.073398 0.66146 0 0.1819 0.073398 0.03307 0.13345-0.33073 0.13345-0.3638 0-0.51263-0.060055-0.33073-0.13345zm-6.8792-0.28581c1.055-0.050221 2.7814-0.050221 3.8365 0 1.055 0.050223 0.19182 0.091313-1.9182 0.091313s-2.9733-0.04109-1.9182-0.091313zm-23.006-0.26518c1.2075-0.049138 3.1125-0.048863 4.2333 5.2917e-4 1.1209 0.049472 0.13296 0.089675-2.1954 0.089339-2.3283-2.6459e-4 -3.2454-0.040812-2.038-0.089948zm-4.0456-0.59367c-0.09269-0.14998 0.01352-0.19434 0.24897-0.10398 0.45837 0.17589 0.54223 0.36554 0.16165 0.36554-0.13693 0-0.32171-0.1177-0.41062-0.26155zm-32.048-3.3103c5.3e-4 -1.7462 0.0433-2.4262 0.0952-1.511 0.0518 0.91521 0.0514 2.344-1e-3 3.175-0.0523 0.83104-0.0947 0.082235-0.0942-1.664zm30.962 2.4474-0.50403-0.59531 0.59531 0.50403c0.32742 0.27721 0.59531 0.54511 0.59531 0.59531 0 0.21173-0.21293 0.055417-0.6866-0.50403zm263.66-0.92604-0.64143-0.7276 0.72761 0.64143c0.40018 0.35279 0.7276 0.68021 0.7276 0.7276 0 0.20751-0.21426 0.038624-0.81378-0.64143zm-56.072 0.098541c0-0.054941 0.20836-0.2633 0.46302-0.46302 0.41966-0.32911 0.429-0.31975 0.0999 0.099896-0.34565 0.44073-0.56293 0.58089-0.56293 0.36312zm-245.51-0.58361c0.0127-0.30823 0.0754-0.37092 0.15985-0.15985 0.0764 0.19099 0.067 0.4192-0.0209 0.50712-0.0879 0.087918-0.15045-0.068353-0.13896-0.34727zm-0.26458-1.0583c0.0127-0.30823 0.0754-0.37092 0.15985-0.15985 0.0764 0.19099 0.067 0.4192-0.0209 0.50712-0.0879 0.087918-0.15045-0.068352-0.13896-0.34727zm-49.477-0.79375c0.0127-0.30823 0.0754-0.37092 0.15985-0.15985 0.0764 0.19099 0.067 0.4192-0.0209 0.50712-0.0879 0.087918-0.15046-0.068352-0.13897-0.34727zm348.68-0.30868-0.64143-0.7276 0.7276 0.64143c0.40018 0.35279 0.72761 0.68021 0.72761 0.7276 0 0.20751-0.21426 0.038624-0.81378-0.64143zm-261.9 0.044098c0.0127-0.30823 0.07539-0.37092 0.15985-0.15985 0.07643 0.19099 0.06703 0.4192-0.02088 0.50712-0.08792 0.087918-0.15045-0.068352-0.13896-0.34727zm-131.76-1.0583c0.0127-0.30823 0.0754-0.37092 0.15985-0.15985 0.0764 0.19099 0.067 0.4192-0.0209 0.50712-0.0879 0.087918-0.15045-0.068352-0.13896-0.34727zm132.27-0.19303c0-0.045535 0.38695-0.43249 0.8599-0.8599l0.8599-0.77711-0.7771 0.8599c-0.72437 0.80154-0.94269 0.98151-0.94269 0.7771zm-82.265-0.60072c0.0127-0.30823 0.0754-0.37092 0.15985-0.15985 0.0764 0.19099 0.067 0.4192-0.0209 0.50712-0.0879 0.087918-0.15045-0.068353-0.13896-0.34727zm43.656 0c0.0127-0.30823 0.0754-0.37092 0.15985-0.15985 0.0764 0.19099 0.067 0.4192-0.0209 0.50712-0.0879 0.087918-0.15045-0.068353-0.13896-0.34727zm-93.398-0.26458c0.0127-0.30823 0.0754-0.37092 0.15985-0.15985 0.0764 0.19099 0.067 0.4192-0.0209 0.50712-0.0879 0.087918-0.15045-0.068352-0.13896-0.34727zm93.133-0.79375c0.0127-0.30823 0.0754-0.37092 0.15985-0.15985 0.0764 0.19099 0.067 0.4192-0.0209 0.50712-0.0879 0.087918-0.15046-0.068352-0.13897-0.34727zm8.4876-0.63941c0-0.3638 0.06-0.51263 0.13345-0.33073 0.0734 0.1819 0.0734 0.47956 0 0.66146-0.0734 0.1819-0.13345 0.033073-0.13345-0.33073zm-51.35-0.15434c0.0127-0.30823 0.0754-0.37092 0.15985-0.15985 0.0764 0.19099 0.067 0.4192-0.0209 0.50712-0.0879 0.087918-0.15046-0.068352-0.13897-0.34727zm337.97 0.00746c-0.49319-0.39513-0.48993-0.40001 0.0817-0.12298 0.32742 0.15867 0.59531 0.34383 0.59531 0.41147 0 0.20246-0.13721 0.144-0.67704-0.28849zm-344.85-1.0658c0.0127-0.30823 0.0754-0.37092 0.15985-0.15985 0.0764 0.19099 0.067 0.4192-0.0209 0.50712-0.0879 0.087918-0.15045-0.068352-0.13896-0.34727zm305.5 0.12151c0.1795-0.18082 0.39299-0.26211 0.47445-0.18065 0.0814 0.081463-0.0654 0.22941-0.32633 0.32877-0.37709 0.14358-0.40746 0.11319-0.14812-0.14811zm-305.77-1.1798c0.0127-0.30823 0.0754-0.37092 0.15985-0.15985 0.0764 0.19099 0.067 0.4192-0.0209 0.50712-0.0879 0.08792-0.15046-0.06835-0.13897-0.34727zm49.212 0c0.0127-0.30823 0.0754-0.37092 0.15985-0.15985 0.0764 0.19099 0.067 0.4192-0.0209 0.50712-0.0879 0.08792-0.15046-0.06835-0.13897-0.34727zm258.67 0.12151c0.17949-0.18082 0.39298-0.26212 0.47445-0.18065 0.0814 0.08146-0.0654 0.22941-0.32634 0.32877-0.37708 0.14358-0.40746 0.11319-0.14811-0.14811zm-349.95-0.38609c0.0127-0.30823 0.0754-0.37092 0.15985-0.15985 0.0764 0.191 0.067 0.4192-0.0209 0.50712-0.0879 0.08792-0.15046-0.06835-0.13897-0.34726zm50.006-0.26458c0.0127-0.30823 0.0754-0.37092 0.15985-0.15985 0.0764 0.191 0.067 0.4192-0.0209 0.50712-0.0879 0.08792-0.15046-0.06835-0.13897-0.34727zm41.01-0.52917c0.0127-0.30823 0.0754-0.37092 0.15985-0.15985 0.0764 0.191 0.067 0.4192-0.0209 0.50712-0.0879 0.08792-0.15045-0.06835-0.13896-0.34726zm10.085-0.24254c5e-3 -0.43656 0.0647-0.58313 0.13177-0.32569 0.0671 0.25743 0.0627 0.61462-0.01 0.79375-0.0725 0.17913-0.12736-0.03149-0.12197-0.46806zm-100.84 0.13229c-8e-3 -0.21828 0.10086-0.57547 0.24193-0.79375 0.31256-0.48365 0.31256-0.0659 0 0.66146-0.14993 0.34892-0.23234 0.39398-0.24193 0.13229zm50.004-0.41892c0.0127-0.30823 0.0754-0.37092 0.15985-0.15985 0.0764 0.19099 0.067 0.4192-0.0209 0.50712-0.0879 0.08792-0.15045-0.06835-0.13896-0.34727zm40.481-0.52917c0.0127-0.30823 0.0754-0.37092 0.15985-0.15985 0.0764 0.191 0.067 0.4192-0.0209 0.50712-0.0879 0.08792-0.15045-0.06835-0.13896-0.34727zm269.79-0.81464c0.1819-0.0734 0.47956-0.0734 0.66146 0s0.0331 0.13345-0.33073 0.13345c-0.3638 0-0.51263-0.06006-0.33073-0.13345zm11.658-0.0055c0.19101-0.07643 0.41921-0.06703 0.50713 0.02088 0.0879 0.08792-0.0684 0.15045-0.34726 0.13896-0.30824-0.0127-0.37092-0.07539-0.15987-0.15985zm-9.277-0.25907c0.1819-0.0734 0.47956-0.0734 0.66146 0s0.0331 0.13345-0.33073 0.13345c-0.3638 0-0.51263-0.06006-0.33073-0.13345zm6.4873-0.0081c0.25744-0.06708 0.61463-0.06267 0.79375 0.0098 0.17915 0.07248-0.0315 0.12736-0.46805 0.12197-0.43656-0.0054-0.58311-0.06469-0.3257-0.13177zm-328.4-0.50016c0.0127-0.30823 0.0754-0.37092 0.15985-0.15985 0.0764 0.191 0.067 0.4192-0.0209 0.50712-0.0879 0.08792-0.15045-0.06835-0.13896-0.34727zm60.59-0.26458c0.0127-0.30823 0.0754-0.37092 0.15985-0.15985 0.0764 0.19099 0.067 0.4192-0.0209 0.50712-0.0879 0.08792-0.15046-0.06835-0.13897-0.34727zm138.75-0.37483c0.26339-0.29104 0.53843-0.52917 0.61119-0.52917s-0.08321 0.23812-0.3466 0.52917c-0.26339 0.29104-0.53843 0.52917-0.61119 0.52917s0.08321-0.23812 0.3466-0.52917zm-199.61-0.41892c0.0127-0.30823 0.0754-0.37092 0.15985-0.15985 0.0764 0.19099 0.067 0.4192-0.0209 0.50712-0.0879 0.08792-0.15045-0.06835-0.13896-0.34727zm200.53-0.73931c0-0.05494 0.20836-0.2633 0.46302-0.46302 0.41966-0.32911 0.429-0.31975 0.09991 0.0999-0.34565 0.44073-0.56293 0.58089-0.56293 0.36312zm1.0583-1.3229c0-0.05494 0.20836-0.2633 0.46302-0.46302 0.41966-0.32911 0.429-0.31975 0.09991 0.0999-0.34565 0.44073-0.56293 0.58089-0.56293 0.36312zm-133.48-11.542c0.2634-0.29104 0.53843-0.52917 0.61119-0.52917 0.0728 0-0.0832 0.23812-0.3466 0.52917-0.26339 0.29104-0.53842 0.52917-0.61118 0.52917-0.0728 0 0.0832-0.23812 0.34659-0.52917zm-71.813-0.15434c0.0127-0.30823 0.0754-0.37092 0.15985-0.15985 0.0764 0.191 0.067 0.4192-0.0209 0.50712-0.0879 0.08792-0.15045-0.06835-0.13896-0.34726zm74.856-2.8884c0.34178-0.3638 0.68094-0.66146 0.7537-0.66146 0.0728 0-0.14734 0.29766-0.48911 0.66146-0.34178 0.3638-0.68094 0.66146-0.7537 0.66146-0.0728 0 0.14734-0.29766 0.48911-0.66146zm-75.915-1.345c0.0127-0.30823 0.0754-0.37092 0.15985-0.15985 0.0764 0.191 0.067 0.4192-0.0209 0.50712-0.0879 0.08792-0.15045-0.06835-0.13896-0.34727zm21.696-3.9688c0.0127-0.30823 0.0754-0.37092 0.15985-0.15985 0.0764 0.191 0.067 0.4192-0.0209 0.50712-0.0879 0.08792-0.15045-0.06835-0.13896-0.34727zm-50.027-0.4915c0-0.20969 0.10796-0.44798 0.23991-0.52953s0.17759 0.09002 0.10143 0.38126c-0.16156 0.6178-0.34134 0.69589-0.34134 0.14827zm7.3238-0.61066c3.5188-0.04166 9.3528-0.0417 12.965-9e-5s0.73274 0.07569-6.3978 0.07574c-7.1305 4.8e-5 -10.086-0.03399-6.5668-0.07565zm49.911-7.7e-5c3.4661-0.0418 9.0621-0.04176 12.435 9.8e-5 3.3733 0.04186 0.53741 0.07606-6.3021 0.076-6.8395-5.3e-5 -9.5995-0.0343-6.1333-0.0761zm85.045-1.72e-4c13.279-0.03792 35.008-0.03792 48.286 0 13.279 0.03792 2.4143 0.06895-24.143 0.06895s-37.422-0.03102-24.143-0.06895zm116.57 8.5e-5c4.7764-0.04044 12.515-0.04042 17.198 5.3e-5 4.6825 0.04047 0.77454 0.07356-8.6843 0.07353-9.4589-2.9e-5 -13.29-0.03314-8.5136-0.07358zm-314.36-18.984c5e-3 -0.43656 0.0647-0.58313 0.13177-0.32569 0.0671 0.25743 0.0627 0.61462-0.01 0.79375-0.0725 0.17913-0.12736-0.03149-0.12197-0.46806z"/>
   <path d="m-265.67 16.053c0-67.58 0.0398-74.766 0.41578-75.142 0.37718-0.37718 17.544-0.41577 184.94-0.41577h184.53v150.28h-369.89zm57.46 52.3c0.2432-0.8355 0.73623-2.5311 1.0956-3.768s1.1568-3.9754 1.772-6.0854 1.3552-4.6699 1.6444-5.6885c0.96209-3.3889 3.331-10.782 5.2045-16.243 1.5528-4.526 1.8796-5.2719 2.0289-4.6302 0.0978 0.42073 0.59198 2.3128 1.0981 4.2046 0.50613 1.8918 1.1388 4.273 1.406 5.2917 0.26719 1.0186 0.80156 3.0427 1.1875 4.4979s0.87416 3.3602 1.085 4.2333c0.21081 0.87312 0.55653 2.1828 0.76827 2.9104 0.30812 1.0588 3.4244 13.774 3.9723 16.208l0.13451 0.59753 29.468-0.13673 0.18216-0.79375c0.10019-0.43656 0.56211-2.2225 1.0265-3.9688 0.46438-1.7462 1.1838-4.5442 1.5986-6.2177 2.037-8.2169 4.1511-15.624 6.7041-23.487 0.67423-2.0768 1.2338-3.8627 1.2436-3.9688 0.0338-0.36851 0.78944 2.1316 2.6606 8.803 1.0933 3.8981 4.3011 15.955 5.8076 21.828 0.57856 2.2556 1.2171 4.6368 1.4189 5.2917 0.20184 0.65484 0.43971 1.5194 0.52858 1.9213l0.1616 0.73071 86.639-0.1385 3.1625-1.2618c10.815-4.3149 17.643-10.568 21.156-19.376 1.9569-4.9054 3.1012-13.652 2.5522-19.508-0.30067-3.2073-0.77512-4.6578-2.9227-8.9348-4.6456-9.2523-12.987-16.248-23.062-19.341l-2.7385-0.84071-16.272-0.2182c-13.951-0.18707-16.431-0.27891-17.389-0.64387-1.2771-0.48672-2.3319-1.6067-2.581-2.7404-0.42092-1.9164 1.086-4.1887 3.1687-4.7782 0.77009-0.21795 10.602-0.2785 36.1-0.22232l35.042 0.077213 2.5455 3.5719c7.0577 9.9037 10.428 14.579 11.634 16.14 0.73115 0.94589 1.401 1.941 1.4885 2.2113 0.11382 0.35149-1.3847 2.8012-5.2602 8.599-2.9807 4.4591-9.4425 14.18-14.36 21.601-4.9171 7.4216-10.676 16.113-12.797 19.315-2.1215 3.2015-3.8958 5.9697-3.9429 6.1516-0.06789 0.2621 3.5316 0.33073 17.347 0.33073h17.433l2.2592-3.2411c1.2426-1.7826 5.6142-8.1227 9.7148-14.089 4.1006-5.9664 7.6673-11.138 7.9261-11.492l0.47056-0.64451 1.0424 1.5149c1.1995 1.7431 9.6989 13.748 17.038 24.064l2.766 3.8882h18.363c14.582 0 18.336-0.06809 18.234-0.33073-0.21818-0.56155-5.4019-8.3589-9.7177-14.617-0.94588-1.3717-3.5057-5.1215-5.6885-8.333-2.1828-3.2115-5.8944-8.6632-8.248-12.115-2.3536-3.4517-6.1422-9.0143-8.4192-12.361-2.277-3.347-4.652-6.7998-5.2778-7.6729l-1.1379-1.5875 3.1233-4.4979c7.1599-10.311 8.9811-12.943 12.268-17.727 1.8993-2.7649 3.9529-5.7415 4.5636-6.6146 0.61071-0.87312 2.6158-3.7902 4.4558-6.4823 1.84-2.6921 5.0484-7.3356 7.1296-10.319s3.702-5.5141 3.6016-5.6243-8.2598-0.1697-18.132-0.13229l-17.95 0.06801-1.7592 2.5135c-0.96756 1.3824-3.055 4.4185-4.6387 6.7469-3.5765 5.2581-5.0549 7.2746-8.5631 11.68l-2.7697 3.4782-4.2335-5.9918c-5.3798-7.6141-10.449-15.096-11.549-17.045l-0.85455-1.5142h-48.232c-42.216 0-48.499 0.05056-50.369 0.40538-5.3511 1.0151-10.375 3.8109-14.338 7.9795-7.3977 7.7816-10.999 20.251-9.2783 32.121 0.76638 5.2853 2.1384 9.7159 4.1711 13.469 3.1958 5.9012 7.4687 10.163 12.924 12.891 2.9649 1.4824 4.788 1.9507 12.171 3.1264 0.58208 0.09269 8.1265 0.24745 16.765 0.34391l15.707 0.17538 1.0278 1.1585c0.82134 0.9258 1.0278 1.3664 1.0278 2.1934 0 1.5166-0.86946 3.0233-2.1097 3.656-1.0273 0.52409-1.5033 0.53273-29.36 0.53273h-28.316l-0.16301-0.7276c-0.0897-0.40018-0.27888-1.1443-0.4205-1.6536s-0.89055-3.3668-1.6643-6.35-2.243-8.5196-3.265-12.303c-1.92-7.1076-3.6714-13.657-7.6061-28.443-1.2586-4.7294-2.818-10.563-3.4654-12.965-0.64738-2.4011-1.4006-5.1991-1.6739-6.2177s-0.81328-2.9832-1.2-4.3656c-0.38674-1.3824-0.85009-3.0493-1.0297-3.7042l-0.3265-1.1906h-25.895l-0.30679 1.0583c-0.16874 0.58208-0.92562 3.1419-1.682 5.6885-0.75633 2.5466-1.6567 5.5827-2.0009 6.7469-0.34417 1.1642-1.2986 4.3789-2.121 7.1438-0.82241 2.7649-1.7072 5.801-1.9662 6.7469-0.25899 0.94588-1.2563 4.4509-2.2163 7.7889-0.95995 3.338-1.7545 6.136-1.7656 6.2177-0.0111 0.081719-0.25939-0.62533-0.55171-1.5712-0.51197-1.6566-0.85101-2.9151-2.5661-9.525-0.43423-1.6735-1.0847-4.1143-1.4455-5.424-1.637-5.9426-4.5046-16.589-4.9529-18.389-0.54228-2.1768-1.2448-5.0867-1.4531-6.0193l-0.13301-0.59531h-13.497c-10.565 0-13.52 0.07184-13.602 0.33073-0.0576 0.1819-0.60797 2.1167-1.2231 4.2995-0.61513 2.1828-1.4071 4.9808-1.7599 6.2177s-0.86088 3.0229-1.129 3.9688c-0.26814 0.94588-0.77843 2.7318-1.134 3.9688-1.6794 5.8424-2.1304 7.4447-2.7182 9.6573-1.0995 4.1384-2.5402 9.4154-3.937 14.42-0.38585 1.3824-0.98867 3.5851-1.3396 4.8948-0.62141 2.3191-0.91853 3.3906-2.3844 8.599-1.6368 5.8158-2.0243 7.2352-3.1779 11.642-0.66672 2.5466-1.4477 5.4636-1.7356 6.4823-0.68291 2.4167-1.3895 4.9639-2.2385 8.0698-0.77397 2.8314-1.1933 4.3061-2.7839 9.7896-0.61205 2.1101-1.3426 4.6699-1.6235 5.6885-1.5091 5.4733-1.7979 6.5094-2.3043 8.2649-0.30378 1.0532-0.55233 1.9759-0.55233 2.0505 0 0.0746 7.114 0.13462 15.809 0.13338l15.809-0.0024 0.44219-1.5191zm323.12 17.862c0.29974-11.472 2.3741-19.479 7.3793-28.486 3.8902-7.0005 7.0348-10.781 12.749-15.326 1.7462-1.3889 5.2586-4.2631 7.8052-6.3871 2.5466-2.124 5.6557-4.6582 6.9091-5.6316 2.5595-1.9878 3.2298-2.7688 4.4489-5.1841 1.2439-2.4644 1.9042-5.2849 1.9292-8.2401 0.0243-2.8985-0.26424-4.1497-1.3539-5.8679-1.431-2.2564-4.3434-3.3378-7.7084-2.8622-4.2768 0.60451-6.2404 3.8845-6.5331 10.913l-0.15153 3.638h-25.783l0.0875-4.0349c0.10805-4.9824 0.29974-7.211 0.77838-9.0486 0.20383-0.78253 0.42489-1.701 0.49127-2.041 0.6993-3.5823 4.4466-9.6593 7.8625-12.75 6.9116-6.2546 17.728-9.6206 27.915-8.6873 13.72 1.2568 24.477 7.7117 29.404 17.645 0.7797 1.5717 1.9998 5.0746 2.3068 6.623 0.40357 2.0351 0.58283 6.3384 0.3782 9.0799-0.34761 4.6576-2.2012 11.594-3.8991 14.592-2.7152 4.7932-7.6611 9.4848-15.76 14.949-8.8777 5.9899-13.528 9.909-16.608 13.997l-1.6148 2.1429 35.662 0.26458 0.1374 25.268h-66.952z"/>
  </g>
 </g>
 <style type="text/css">.st0{fill:#FC0C18;}
	.st1{fill:#FC0C18;}</style>
</svg>
