<svg width="480" height="320" version="1.1" viewBox="0 0 127 84.667" xmlns="http://www.w3.org/2000/svg" xmlns:xlink="http://www.w3.org/1999/xlink">
 <defs>
  <linearGradient id="a" x1="52.004" x2="85.533" y1="-27.607" y2="48.736" gradientUnits="userSpaceOnUse">
   <stop stop-color="#c6262e" offset="0"/>
   <stop stop-color="#452981" offset="1"/>
  </linearGradient>
 </defs>
 <rect width="127" height="84.667" ry="4.2333" fill="url(#a)" stroke-linecap="square" stroke-linejoin="round" stroke-width=".52917" style="paint-order:stroke fill markers"/>
 <g transform="matrix(.13028 0 0 -.13028 -20.85 123.33)">
  <g fill="#fff">
   <g>
    <path d="m902.15 853.62-15.164-23.977v-10.821h19.053v-11.341h11.146v11.341h5.5064v10.821h-5.5064v23.977zm3.8891-9.5259v-14.451h-9.331z"/>
    <path d="m871.85 854.87c-1.4419 0.0485-2.9813-0.0174-4.6334-0.2124-11.6-1.49-20.866-12.312-21.319-26.892-0.39-10.821 7.4524-21.255 18.338-20.996 10.822 0.324 16.33 6.7394 16.589 17.172 0.19395 8.748-4.8608 14.905-13.739 15.229-2.98 0.13-6.5453-0.97223-9.0074-3.2402 3.499 9.072 9.7198 11.599 17.82 9.9785v8.4888c-1.2635 0.26001-2.6069 0.42318-4.0488 0.47168zm-7.875-23.864c3.694 0 6.7412-3.1749 6.7412-7.1279 0-3.888-3.0472-7.0635-6.7412-7.0635-3.692 0-6.7383 3.1755-6.7383 7.0635 0 3.953 3.0463 7.1279 6.7383 7.1279z"/>
    <path d="m802.94 837.36c-13.867 0-25.208-10.691-25.208-23.716v-11.665c0-13.025 11.342-23.717 25.208-23.717h8.3584c13.867 0 25.271 10.692 25.271 23.717v11.665c0 13.025-11.404 23.716-25.271 23.716zm4.2115-12.895c3.564 0 6.4804-1.4908 6.4804-16.654s-2.9164-16.654-6.4804-16.654-6.4805 1.2958-6.4805 16.654c0 15.357 2.9165 16.654 6.4805 16.654z"/>
    <path d="m587.41 627.66-24.106 48.666 28.706 52.488 51.841-18.922-43.416-74.585-13.025-5.184v-2.463"/>
    <path d="m682.28 637.06 18.08-7.452 72.834-103.49v133.36l-50.543 19.18-40.371-41.601"/>
   </g>
   <path d="m682.28 637.06 10.239 10.562v81.324l-48.665-19.051-43.416-74.585 43.481 17.431 38.361-15.681" fill-opacity=".2"/>
   <g fill-opacity=".7">
    <path d="m643.86 709.9-51.841 18.922 49.897 17.496 50.609-17.367-48.665-19.051"/>
    <path d="m514.9 659.87-53.849 22.033 49.509 16.329 51.515-19.311-47.175-19.051"/>
    <path d="m722.65 678.66 53.459 22.163 51.841-18.922-54.757-22.421-50.543 19.18"/>
    <path d="m587.41 630.13 56.506 22.615 56.441-23.133-55.859-22.875-57.088 23.393"/>
   </g>
   <path d="m776.05 444.09-77.695 100.5v-56.182l17.755-23.522 59.94-20.801" fill-opacity=".4"/>
   <path d="m562.08 464.56-49.507 90.136v-110.42z" fill-opacity=".2"/>
   <path d="m644.5 606.73 55.859 22.875 72.834-103.49v133.36l54.757 22.421v-216.5l-51.905-21.319-77.695 100.5v-132.32l-53.85-22.095v216.56" fill-opacity=".2"/>
   <path d="m587.41 630.13 57.088-23.393v-216.56l-53.589 21.965-78.343 142.56v-110.42l-51.517 21.125v216.5l53.849-22.033 72.512-140.68v110.94"/>
   <path d="m587.41 519.19-72.512 140.68 47.175 19.051 25.337-51.257v-108.48" fill-opacity=".4"/>
  </g>
  <path d="m773.2 659.48v-133.36l-72.834 103.49 72.834-103.49v133.36"/>
  <g fill="#fff">
   <path d="m440.25 836.97h21.514v-58.774h-21.514v58.774"/>
   <path d="m715.72 836.97v-58.774h31.233c14.061 0 24.04 11.209 23.911 29.03-0.0652 19.31-11.598 29.744-24.429 29.744zm21.514-11.988h4.5996c4.666 0 7.6465-7.0624 7.6465-11.793v-12.766c0-4.471-3.8234-10.563-8.3584-10.563h-3.8877z"/>
   <path d="m411.29 836.97h16.717v-58.774h-23.846l-15.293 35.835v-35.835h-16.652v58.774h25.465l13.609-31.493v31.493"/>
   <path d="m513.54 836.97h16.719v-58.774h-23.846l-15.293 35.835v-35.835h-16.654v58.774h25.467l13.607-31.493v31.493"/>
   <path d="m687.98 836.97h16.653v-58.774h-23.846l-15.293 35.835v-35.835h-16.589v58.774h25.402l13.673-31.493v31.493"/>
   <path d="m574 822v-43.805h-21.514v43.805h-14.839v14.969h51.257v-14.969h-14.904"/>
   <path d="m616.57 793.16h22.874v-14.969h-44.388v58.774h44.388v-15.034h-22.874v-6.869h21.319v-15.033h-21.319v-6.869"/>
  </g>
 </g>
 <style type="text/css">.st0{fill:#FC0C18;}
	.st1{fill:#FC0C18;}</style>
</svg>
