<svg width="480" height="320" version="1.1" viewBox="0 0 480 320" xml:space="preserve" xmlns="http://www.w3.org/2000/svg"><defs><linearGradient id="a" x1="52.004" x2="85.533" y1="-27.607" y2="48.736" gradientTransform="scale(3.7795)" gradientUnits="userSpaceOnUse"><stop stop-color="#c6262e" offset="0"/><stop stop-color="#452981" offset="1"/></linearGradient></defs><rect width="480" height="320" ry="24" fill="url(#a)"/><path d="m349.99 41.171c-0.20319 0.0019-0.42742 0.0091-0.6765 0.02235-3.7626 0.08479-6.8358 1.2084-9.2312 3.4129-2.5119 2.3529-4.0386 5.9982-4.0386 10.312 0 5.2994 2.8203 10.249 9.2962 10.249 4.9178 0 8.575-3.7207 8.575-8.4795 0-4.9814-3.3404-7.6202-6.9864-7.6202-1.9078 0-3.3165 0.4664-4.4612 1.4627h-0.10566c0.63594-2.2151 2.4901-4.1655 7.09-4.3881 0.78432-0.04239 1.347-0.05256 1.9299-0.01019v-4.8959c-0.35771-0.0318-0.78199-0.07047-1.3916-0.06501zm13.42 0.35145-7.7786 13.863v4.1646h9.6964v5.2149h5.8304v-5.2149h2.4703v-4.7801h-2.4703v-13.247zm1.9502 4.6318h0.12797c-0.0741 1.6216-0.16048 3.1586-0.16048 4.6318v3.9939h-4.0691l0.0203-0.07313 1.9096-3.868c0.81611-1.6216 1.4404-3.116 2.1717-4.6847zm-47.684 3.0737c-9.4965 0-14.234 6.2312-14.212 15.293 0 9.0408 4.7159 15.283 14.212 15.283 9.4859 0 14.212-6.2317 14.212-15.283 0-9.0514-4.7159-15.293-14.212-15.293zm-103 0.76182v29.04h21.908v-7.6202h-11.161v-3.2524h9.9646v-7.4516h-9.9646v-3.0432h10.822v-7.673zm-108.31 0.0102v29.042h8.8513v-16.768h0.0731l5.8203 16.768h13.079v-29.042h-8.8411v16.652h-0.0731l-5.8406-16.652zm33.175 0v29.053h10.907v-29.053zm16.153 0v29.042h8.8391v-16.768h0.0752l5.8284 16.768h13.081v-29.042h-8.8411v16.652h-0.0833l-5.8304-16.652zm30.97 0v7.8863h6.9417v21.156h10.907v-21.156h6.9416v-7.8863zm53.959 0v29.042h8.8391v-16.768h0.0731l5.8304 16.768h13.079v-29.042h-8.8391v16.652h-0.0853l-5.8406-16.652zm32.516 0-0.0104 29.042h13.566c8.4578 0 13.873-5.4265 13.873-14.202 0-8.5956-3.4964-14.84-14.519-14.84zm71.743 3.5734c2.0032 0 2.7563 1.7904 2.7669 3.4332 0 1.9396-0.90071 3.4658-2.3951 3.4658l-0.0325 0.01019c-2.0456 0-2.9343-1.9604-3.0615-3.8152 0-0.68892 0.0531-1.1014 0.19094-1.3875 0.36037-0.94329 1.3124-1.7065 2.5313-1.7065zm-27.206 3.0087c1.7594 0 2.9355 0.98633 2.9355 7.9391 0 7.1012-1.2609 7.9269-2.9355 7.9269s-2.9461-0.81516-2.9355-7.9269c0-6.9528 1.1761-7.9391 2.9355-7.9391zm-33.873 0.01219h1.0706c1.7594 0 2.9251 0.5406 3.614 1.7065 0.72074 1.1977 0.80447 3.4012 0.80447 6.2205s-0.0731 5.0142-0.80447 6.2225c-0.68892 1.1659-1.8546 1.7044-3.614 1.7044h-1.0706zm-45.492 37.053-24.642 9.4851-13.619 24.356 11.777 23.923v55.06l-36.789-69.327 25.012-9.6557-25.012-9.6131-25.024 9.6131v105.33l25.024 10.503v-55.95l36.789 71.414 26.485 11.214v-108.44l26.497-10.153-26.497-10.143-20.358 7.7969 20.358-36.34 24.654-9.5603zm26.497 57.764 36.778 52.59v-66.857l25.024-9.6558-25.024-9.6131-25.012 9.6131 8e-3 2e-3 -18.822 21.217zm0 43.899v26.233l7.5146 10.546 29.264 11.234z" fill="#fff"/></svg>
