<svg width="480" height="320" version="1.1" viewBox="0 0 480 320" xml:space="preserve" xmlns="http://www.w3.org/2000/svg"><defs><linearGradient id="a" x1="70.354" x2="53.695" y1="9.5233" y2="90.753" gradientTransform="scale(3.7795)" gradientUnits="userSpaceOnUse"><stop stop-color="#c6262e" offset="0"/><stop stop-color="#0e141f" offset="1"/></linearGradient></defs><rect width="480" height="320" ry="24" fill="url(#a)"/><path d="m256.67 116.48c-24.027 0-43.523 19.484-43.523 43.521s19.486 43.521 43.523 43.521c24.027 0 43.521-19.484 43.521-43.521s-19.484-43.521-43.521-43.521zm-87.189 3.3867-27.303 49.887h-14.762v12.514h7.9121l-7.9844 14.588h14.264l7.9824-14.588h39.787l7.9844 14.588h14.254l-42.135-76.988zm-129.48 0.125v16.17 60.703h12.514v-50.451l61.568 50.441v-12.742h0.00977v-62.559h-12.514v48.885l-61.578-50.447zm272.21 1.5625v75.301h12.514v-41.678l31.852 36.916 31.861-36.916v41.678h12.514v-75.301l-44.375 51.389-44.365-51.389zm115.28 0v75.311h12.514v-75.311h-12.514zm-170.81 9.6895c15.869 0 28.756 12.91 28.756 28.758 0.0104 15.858-12.898 28.758-28.756 28.758-15.869 0-28.758-12.91-28.758-28.758 0-15.869 12.91-28.758 28.758-28.758zm-87.189 14.67 13.047 23.84h-26.092l13.045-23.84z" fill="#fff"/></svg>
