<svg width="480" height="320" version="1.1" viewBox="0 0 480 320" xml:space="preserve" xmlns="http://www.w3.org/2000/svg"><defs><linearGradient id="a" x1="43.342" x2="61.992" y1="-24.235" y2="84.667" gradientTransform="scale(3.7795)" gradientUnits="userSpaceOnUse"><stop stop-color="#abacae" offset="0"/><stop stop-color="#3a4654" offset=".65095"/><stop stop-color="#273445" offset="1"/></linearGradient></defs><rect width="480" height="320" ry="24" fill="url(#a)"/><path d="m414.27 131.4c-18.458 0-30.574 5.4889-30.574 14.822 0 9.0104 10.063 12.999 23.781 18.072 10.271 3.7604 13.844 5.875 13.844 9.4688 0 4-3.8529 7.1992-13.145 7.1992-8.4896 0-19.365-1.6458-24.521-3.6875v9.5508c7.2396 1.1562 13.74 1.7812 23.178 1.7812 22.979 0 33.166-6.5514 33.166-15.635 0-8.8229-8.1452-12.865-22.76-18.094-10.521-3.75-16.5-5.8229-16.5-10.156 0-2.9896 3.8848-5.8848 13.01-5.8848 8.5208 0 14.001 2.0306 20.178 3.1973l-0.04296-8.8535c-6.2917-1.1458-9.707-1.7812-19.613-1.7812zm-108.94 0.125v56.957h34.188c8.9375 0 19.176-1.5521 24.582-4 13.208-5.9583 17.458-15.458 17.469-24.469 0-9.0208-4.3008-18.531-17.457-24.469-5.4167-2.4479-15.646-4.0195-24.594-4.0195h-34.188zm-265.33 0.15625v26.844h4.9688v-19.887l20.428 19.887h3.8848v-26.844h-0.92773-3.9785v19.551l-20.135-19.551h-4.2402zm37.072 0v26.844h4.9688v-26.844h-0.92578-4.043zm12.75 0v26.844h4.9688v-19.887l20.428 19.887h3.8848v-26.844h-0.92579-3.9805v19.551l-20.135-19.551h-4.2402zm34.918 0v4.625h11.979v22.219h5.166v-22.219h11.98v-4.625h-0.91796-28.207zm34.76 0v26.844h26.219v-4.625h-21.303v-6.959h16.48v-4.6152h-16.48v-6.0195h21.303v-4.625h-0.92773-25.291zm33.594 0v26.844h4.9688v-19.887l20.428 19.887h3.875v-26.844h-0.92773-3.9785v19.551l-20.125-19.551h-4.2402zm36.844 0v26.844h19.916c3.4792 0 6.3548-1.3652 8.3027-3.9277 1.8125-2.3854 2.7812-5.666 2.7812-9.5098 0-3.8125-0.96875-7.1055-2.7812-9.4805-1.9479-2.5625-4.8236-3.9258-8.3027-3.9258h-19.916zm41.834 0c-3.1354 0-5.6875 2.5723-5.6875 5.6973v15.459c0 3.125 2.5521 5.6875 5.6875 5.6875h21.656c3.1354 0 5.6973-2.5625 5.6973-5.6875v-15.459c0-3.125-2.5619-5.6973-5.6973-5.6973h-21.656zm-37.043 4.6133h0.14648 15.125c4.7708 0 6.4688 4.7506 6.4688 8.8027 0.0104 4.0625-1.6979 8.8027-6.4688 8.8027h-15.271v-17.605zm37.23 0.01171h21.281c0.61458 0 1.1133 0.49935 1.1133 1.1035v15.396c0 0.60417-0.49871 1.1035-1.1133 1.1035h-21.281c-0.61458 0-1.1152-0.49935-1.1152-1.1035v-15.396c0-0.60417 0.50065-1.1035 1.1152-1.1035zm51.854 2.9258h10.938c16.781 0 27.375 7.3438 27.375 20.781 0 13.437-10.583 20.615-27.375 20.615h-10.938v-41.396zm-52.041 22.531c-3.1354 0-5.6875 2.5638-5.6875 5.6992v15.457c0 3.125 2.5521 5.6875 5.6875 5.6875h21.656c3.1354 0 5.6973-2.5625 5.6973-5.6875v-15.469c0-3.125-2.5619-5.6875-5.6973-5.6875h-21.656zm0.1875 4.6152h21.281c0.61458 0 1.1133 0.48894 1.1133 1.1035v15.396c0 0.61458-0.49871 1.1152-1.1133 1.1152h-21.281c-0.61458 0-1.1152-0.50065-1.1152-1.1152v-15.396c0-0.61458 0.50065-1.1035 1.1152-1.1035z" fill="#fff"/></svg>
