<svg width="480" height="320" version="1.1" viewBox="0 0 127 84.667" xmlns="http://www.w3.org/2000/svg" xmlns:xlink="http://www.w3.org/1999/xlink">
 <defs>
  <linearGradient id="a" x1="43.342" x2="61.992" y1="-24.235" y2="84.667" gradientUnits="userSpaceOnUse">
   <stop stop-color="#abacae" offset="0"/>
   <stop stop-color="#3a4654" offset=".65095"/>
   <stop stop-color="#273445" offset="1"/>
  </linearGradient>
 </defs>
 <rect width="127" height="84.667" ry="4.2333" fill="url(#a)" stroke-linecap="square" stroke-linejoin="round" stroke-width=".52917" style="paint-order:stroke fill markers"/>
 <g transform="matrix(.14372 0 0 .14372 5.4762 -2.7986)" fill="#fff">
  <path d="m487.39 354.6c0 1.0793-0.88502 2.0506-1.9751 2.0506h-37.797c-1.1009 0-1.9859-0.97132-1.9859-2.0506v-27.306c0-1.0793 0.88502-1.9427 1.9859-1.9427h37.797c1.0901 0 1.9751 0.86345 1.9751 1.9427zm-1.6405-37.451h-38.477c-5.5691 0-10.113 4.533-10.113 10.145v27.414c0 5.5044 4.5438 10.145 10.113 10.145h38.477c5.5799 0 10.113-4.641 10.113-10.145v-27.414c0-5.6123-4.533-10.145-10.113-10.145" fill-opacity=".5"/>
  <path d="m44.363 276.14v35.293h-8.8286v-47.704h7.5442l35.757 34.753v-34.753h7.0693 1.6405v47.704h-6.8966l-36.286-35.293"/>
  <path d="m132.88 276.14v35.293h-8.8286v-47.704h7.5334l35.757 34.753v-34.753h7.0801 1.6405v47.704h-6.8967l-36.286-35.293"/>
  <path d="m316.32 276.14v35.293h-8.8286v-47.704h7.5334l35.757 34.753v-34.753h7.0801 1.6405v47.704h-6.8859l-36.296-35.293"/>
  <path d="m108.57 263.72h1.6297v47.704h-8.8286v-47.704h7.1988"/>
  <path d="m236.19 263.72h1.6189v8.2026h-21.284v39.502h-9.174v-39.502h-21.284v-8.2026h50.122"/>
  <path d="m292.74 263.72h1.6513v8.2026h-37.84v10.685h29.27v8.2026h-29.27v12.412h37.84v8.2026h-46.582v-47.704h44.931"/>
  <path d="m408.59 303.23h-27.112v-31.299h27.112c8.4832 0 11.494 8.4184 11.494 15.65 0 7.1234-3.0112 15.65-11.494 15.65zm14.484-32.487c-3.4537-4.641-8.5588-7.0154-14.732-7.0154h-35.379v47.704h35.379c6.1735 0 11.279-2.4824 14.732-7.0154 3.2379-4.2093 4.9539-10.037 4.9539-16.837 0-6.7995-1.7161-12.628-4.9539-16.837"/>
  <path d="m487.39 301.28c0 0.97131-0.88502 1.9427-1.9751 1.9427h-37.797c-1.1009 0-1.9859-0.9714-1.9859-1.9427v-27.414c0-1.0792 0.88502-1.9427 1.9859-1.9427h37.797c1.0901 0 1.9751 0.86346 1.9751 1.9427zm-1.6405-37.559h-38.477c-5.5691 0-10.113 4.533-10.113 10.145v27.414c0 5.6123 4.5438 10.145 10.113 10.145h38.477c5.5799 0 10.113-4.533 10.113-10.145v-27.414c0-5.6122-4.533-10.145-10.113-10.145"/>
  <path d="m646.02 344.67c9.1524 3.6695 28.482 6.5836 43.571 6.5836 16.513 0 23.345-5.6123 23.345-12.736 0-6.4757-6.3463-10.145-24.575-16.837-24.381-8.9581-42.265-16.081-42.265-32.163 0-16.513 21.521-26.335 54.321-26.335 17.614 0 23.658 1.0792 34.839 3.1299l0.0864 15.758c-10.987-2.0506-20.722-5.6123-35.843-5.6123-16.211 0-23.118 5.1806-23.118 10.469 0 7.663 10.642 11.333 29.303 18.024 25.978 9.2819 40.43 16.405 40.43 32.055 0 16.189-18.1 27.846-58.918 27.846-16.761 0-28.321-1.0793-41.175-3.2379v-16.945"/>
  <path d="m559.14 277.11h-19.427v73.608h19.427c29.821 0 48.633-12.844 48.633-36.696 0-23.852-18.812-36.912-48.633-36.912zm52.14 80.407c-9.6057 4.3172-27.781 7.1233-43.668 7.1233h-60.721v-101.24h60.721c15.887 0 34.062 2.8062 43.69 7.1233 23.388 10.577 31.008 27.522 31.008 43.495 0 15.973-7.555 32.918-31.03 43.495"/>
  <path d="m752.21 349.53h-3.8962v-1.4031h9.487v1.4031h-3.9178v11.333h-1.6729v-11.333"/>
  <path d="m769.97 355.25c-0.0971-1.7269-0.205-3.8854-0.205-5.5044h-0.0432c-0.45336 1.511-0.9714 3.1299-1.619 4.8568l-2.2558 6.2598h-1.252l-2.0937-6.152c-0.60448-1.8348-1.1009-3.4537-1.4571-4.9647h-0.0432c-0.0324 1.619-0.12953 3.7775-0.23747 5.6123l-0.34533 5.5044h-1.5758l0.89584-12.736h2.1046l2.1801 6.152c0.52884 1.619 0.94982 3.022 1.2952 4.3172h0.0324c0.34542-1.2952 0.79869-2.6982 1.3707-4.3172l2.2773-6.152h2.1045l0.79869 12.736h-1.6297l-0.30224-5.6122"/>
 </g>
 <style type="text/css">.st0{fill:#FC0C18;}
	.st1{fill:#FC0C18;}</style>
</svg>
