<svg width="480" height="320" version="1.1" viewBox="0 0 127 84.667" xmlns="http://www.w3.org/2000/svg" xmlns:xlink="http://www.w3.org/1999/xlink">
 <defs>
  <linearGradient id="a" x1="32.49" x2="15.594" y2="110.79" gradientUnits="userSpaceOnUse">
   <stop stop-color="#d48e15" offset="0"/>
   <stop stop-color="#1a1a1a" offset="1"/>
  </linearGradient>
 </defs>
 <rect width="127" height="84.667" ry="4.2333" fill="url(#a)" stroke-linecap="square" stroke-linejoin="round" stroke-width=".52917" style="paint-order:stroke fill markers"/>
 <path transform="scale(.26458)" d="m287.63 126c-9.8173 0-17.964 3.3567-24.439 10.07-6.4754 6.7195-9.7109 14.945-9.7109 24.682 0 5.4406 1.05 10.357 3.1602 14.748 1.6548 3.4054 3.9515 6.4656 6.8867 9.1894 2.9366 2.72 6.3273 4.9154 10.164 6.5898 3.8407 1.6679 8.6674 2.5059 14.479 2.5059 4.5492 0 8.9325-0.46901 13.166-1.4043 4.2322-0.93791 8.3015-2.3263 12.225-4.166v-13.461c0-2.3592 0.13408-3.8419 0.40429-4.4453 0.48108-1.1491 1.165-1.9703 2.0527-2.4668 0.88571-0.4965 3.3054-0.81847 5.5605-0.98047v-2.2031h-31.953v2.2031l0.00977 0.01562h1.582c1.4788 0 4.0089 0.3028 5.0508 0.91016 1.0419 0.60341 1.7278 1.2822 2.0586 2.0312 0.33215 0.74902 0.50195 2.3998 0.50195 4.9512v10.018c0 3.023-3.2098 4.5639-4.7558 4.8984-1.5533 0.3332-3.0623 0.5-4.5312 0.5-4.2374 0-7.8963-1.0984-10.98-3.2949-3.0802-2.1972-5.312-5.6308-6.6973-10.314-1.382-4.6778-2.0723-10.115-2.0723-16.326 0-5.1231 0.63315-10.12 1.8965-14.988 1.2666-4.8693 3.419-8.6635 6.459-11.387 3.04-2.7206 6.849-4.0801 11.424-4.0801 4.7884 0 7.5915 1.2055 11.115 4.8516 3.6048 3.7261 7.0615 7.96 9.0801 14.176h2.9492v-22.82h-1.6777c-0.60497 1.828-1.2647 3.0694-1.9863 3.7246-0.72491 0.65785-1.5107 0.98438-2.3496 0.98438-0.54434 0-2.3001-0.59474-5.2656-1.7832-2.9642-1.1898-5.111-1.9115-6.4336-2.166-2.4377-0.50634-4.3324-0.76172-7.3711-0.76172zm-86.557 0.34766c-0.61366-0.00251-1.2349 0.00918-1.8633 0.0332-9.3085-0.38173-17.153 2.6374-23.523 9.0644-6.3819 6.4211-9.5644 14.451-9.5644 24.078 0 8.577 2.4491 15.989 7.3555 22.238 6.202 7.9054 14.984 11.865 26.344 11.865l-0.01172-0.00195c11.322 0 20.091-4.1452 26.299-12.438 4.6842-6.2486 7.0293-13.482 7.0293-21.713 0-9.6277-3.1422-17.645-9.4219-24.057-5.8909-6.0099-13.438-9.0328-22.643-9.0703zm203.26 0.375c-8.5553 0.04014-15.824 3.0704-21.797 9.0957-6.3832 6.4218-9.5644 14.451-9.5644 24.078 0 8.5776 2.4492 15.99 7.3535 22.24 6.204 7.9054 14.984 11.863 26.344 11.863 11.322 0 20.094-4.1439 26.301-12.438 4.6856-6.2414 7.0293-13.484 7.0293-21.713 0-9.6277-3.1435-17.648-9.4219-24.059-6.285-6.4113-14.451-9.4208-24.506-9.0352l-0.00977-0.00195c-0.58179-0.0239-1.1582-0.03393-1.7285-0.03125zm-296.23 0.50781v2.6191h1.7207c2.099 0 3.7549 0.44142 4.9629 1.3223 0.8587 0.59946 1.4474 1.4547 1.7637 2.5586 0.1608 0.66047 0.24023 2.4428 0.24023 5.3457v40.213c0 3.2178-0.17481 5.2067-0.52539 5.9609-0.44418 1.0711-1.0832 1.8314-1.9062 2.2715-1.1467 0.66376-2.657 0.99415-4.5352 0.99414h-1.7207v3.0254h55.547l3.3379-20.439h-3.0313c-1.5908 5.6904-4.2079 9.9255-7.8496 12.697-3.6417 2.7744-8.4869 4.1602-14.525 4.1602h-3.4473c-1.8459 0-3.1781-0.25279-4.0078-0.7539-0.82574-0.507-1.3915-1.1537-1.6934-1.9414-0.30116-0.78968-0.45313-2.9518-0.45313-6.4824v-18.08c3.104 0 6.7407 0.40225 8.373 1.209 1.6304 0.8028 3.0613 2.3786 4.291 4.7168 1.2337 2.3389 2.0416 4.9215 2.4258 8.5879h2.6211v-33.273h-2.6211c-0.51337 4.9972-1.6963 8.3548-3.5527 10.916-1.8525 2.5619-4.846 3.8418-8.9707 3.8418h-2.5684v-22.32c-0.02117-3.8802 3.4551-3.4297 3.4551-3.4297h4.0566c4.9116 0 8.2584 0.28487 10.043 0.85351 3.0611 0.94644 5.4264 2.433 7.0996 4.4531 1.6745 2.0214 2.9732 5.3557 3.8984 9.9961h2.1953v-19.021h-54.623zm58.885 43.871h0.01953l-0.01758-0.00781-0.00195 0.00781zm-126.12-43.867v2.1582c1.9032 0.06297 1.9708 0.69657 2.9844 1.2324l5.3633 5.373-0.007813 43.068c0 3.406-0.67574 5.8144-2.0254 7.2324-1.351 1.4193-3.7462 2.1443-7.1816 2.1758v2.6035h22.154v-2.5957h-1.4648c-2.1154 0-3.9938-0.64605-5.6367-1.9394-1.6396-1.2941-2.4609-3.782-2.4609-7.4727v-38.836l42.268 52.443 2.7402 0.00391v-53.488c0-3.0413 0.25367-3.9244 0.75781-5.1758 0.50414-1.2514 1.2092-2.1541 2.1094-2.709 0.90152-0.55356 2.6694-1.0046 5.2988-1.3535v-2.7207h-20.969v2.7207c3.4565-0.06297 5.9257 0.82237 7.3887 2.6602 1.0716 1.3623 1.6074 2.713 1.6074 6.5801v28.01l-32.904-39.971h-20.021zm21.287 61.248h0.009765l-0.009765-0.00781v0.00781zm252.91-60.719v2.6035h1.7227c2.099 0 3.7536 0.4414 4.9609 1.3242 0.86001 0.59947 1.45 1.4534 1.7656 2.5566 0.16146 0.65982 0.24219 2.4441 0.24219 5.3476v40.211c0 3.2178-0.17609 5.2073-0.52735 5.9668-0.44483 1.071-1.0831 1.8268-1.9082 2.2695-1.1467 0.66375-2.657 0.99609-4.5312 0.99609h-1.7246v3.0234h55.549l3.3379-20.447h-3.0449c-1.5915 5.6918-4.2098 9.9262-7.8535 12.699l0.0293-0.00195c-3.641 2.7744-8.4875 4.1621-14.531 4.1621h-3.4453c-1.8466 0-3.1801-0.25019-4.0098-0.75586-0.82244-0.50503-1.3909-1.153-1.6914-1.9414-0.30183-0.78837-0.45312-2.9505-0.45312-6.4805v-18.08c3.1046 0 6.7394 0.40159 8.3711 1.209 1.6304 0.80346 3.0613 2.3773 4.291 4.7168 1.235 2.3376 2.0416 4.9222 2.4258 8.5879h2.6211v-33.273h-2.6211c-0.51403 4.9991-1.6963 8.3548-3.5527 10.916-1.8551 2.5612-4.846 3.8418-8.9707 3.8418h-2.5684v-22.318c-0.02041-3.8795 3.4531-3.4316 3.4531-3.4316h4.0586c4.9083 0 8.2525 0.28746 10.037 0.85743 3.0591 0.94643 5.427 2.4304 7.0996 4.4512 1.6746 2.0227 2.9699 5.3524 3.8945 9.9961h2.1992v-19.006h-54.625zm-115.4 1.7148c3.1343 0 5.9019 0.87507 8.3066 2.6289 2.4047 1.7532 4.3829 4.757 5.9356 9.0098 1.5513 4.2567 2.3281 10.666 2.3281 19.238 0 7.2016-0.75894 13.044-2.2813 17.521-1.519 4.4777-3.646 7.7388-6.377 9.7793-2.1405 1.5938-4.809 2.3906-8.0078 2.3906-4.7488 0-8.44-1.849-11.084-5.5449-3.7847-5.2897-5.6777-13.461-5.6777-24.523 0-9.3083 1.2236-16.446 3.6758-21.416l0.00977-0.00391c3.009-6.0531 7.3989-9.0801 13.172-9.0801zm206.96 0.33789c3.1349 0 5.9058 0.87768 8.3106 2.6309 2.4047 1.7519 4.3836 4.757 5.9336 9.0098 1.5533 4.2573 2.3281 10.666 2.3281 19.244 0 7.2016-0.75829 13.044-2.2812 17.523l0.00977-0.00977c-1.5216 4.4777-3.646 7.7382-6.377 9.7734-2.1418 1.5964-4.8116 2.3926-8.0098 2.3926-4.7488 0-8.4374-1.8503-11.08-5.5449-3.7854-5.289-5.6797-13.461-5.6797-24.523 0-9.3083 1.2249-16.446 3.6777-21.416 3.0097-6.0531 7.3983-9.0801 13.168-9.0801zm-163.22 22.447c-4.2921 0-7.7734 3.4619-7.7734 7.7363 0 4.2711 3.4787 7.7363 7.7734 7.7363 4.2915 0 7.7734-3.4626 7.7734-7.7363 0-4.2718-3.4787-7.7363-7.7734-7.7363z" fill="#fafafa" style="paint-order:stroke markers fill"/>
 <style type="text/css">.st0{fill:#FC0C18;}
	.st1{fill:#FC0C18;}</style>
</svg>
