<svg width="480" height="320" version="1.1" viewBox="0 0 480 320" xml:space="preserve" xmlns="http://www.w3.org/2000/svg"><defs><linearGradient id="a" x1="32.49" x2="15.59" y2="110.8" gradientTransform="scale(3.78)" gradientUnits="userSpaceOnUse"><stop stop-color="#f49806" offset="0"/><stop stop-color="#261c18" offset="1"/></linearGradient></defs><rect width="480" height="320" ry="24" fill="url(#a)"/><path d="m283 110.5c-17.15 0-31.77 15.89-31.77 34.86 0 21.86 16.51 34.67 34.23 34.67 8.398 0 17.31-1.938 24.36-5.512v-18.05c0-4.23 2.949-5.512 6.93-5.512v-3.23h-30.56v3.23h2.521c4.095 0 5.262 1.98 5.262 5.512v15.8c-0.9377 1.146-4.137 2.584-8.648 2.584-0.9169 0-6.147-0.1053-10.05-3.314-4.084-3.355-6.834-10.15-6.834-26.3 0-21.03 7.398-29.93 18.12-29.93 3.49 0 15.32 2.354 20.35 17.57h3.156v-21.94h-2.98c-0.3751 2.949-2.708 4.584-7.115 2.75-6.658-2.761-12.61-3.178-16.96-3.178zm-83.2 0.9707c-19.23 0-34.04 14.16-34.04 34.52s14.82 34.52 34.04 34.52c19.23 0 34.05-14.16 34.05-34.52s-14.82-34.52-34.05-34.52zm206.2 0c-19.23 0-34.04 14.16-34.04 34.52s14.82 34.52 34.04 34.52c19.23 0 34.05-14.16 34.05-34.52s-14.82-34.52-34.05-34.52zm-365.9 0.6973v2.668c4.72 0 8.449 4.262 8.449 8.992v46.2c0 4.72-4.98 6.293-8.449 6.293v2.668h22.96v-2.668c-4.303-0.0208-6.576-0.6142-8.045-2-1.469-1.396-1.865-3.242-1.865-5.773v-43.3l44.86 54.69h2.449v-58.18c0-3.449 2.698-6.378 6.668-6.523v-3.062h-20.32v2.668h2.646c3.553 0 6.428 3.314 6.428 6.846v32.97l-34.64-42.48h-21.14zm69 0v2.656h3.76c2.876 0 5.211 2.721 5.211 5.586v49.19c0 5.178-3.398 6.355-6.273 6.355h-2.697v3.043h8.971 45.12l3.043-20.63h-2.637c-1.657 9.159-9.554 16.31-18.41 16.08h-7.648c-2.396 0-4.346-1.949-4.346-4.346v-23.42h2.096c6.252 0 10.24 5.23 10.24 14.23h2.74v-15.95-0.8125-15.65h-2.74c0 7.919-3.346 13.64-10.25 13.64h-2.094v-25.96h10.99c14.8 0 15.3 13.18 15.3 14.88h2.947v-14.32-4.574h-53.31zm206.2 0v2.656h3.762c2.876 0 5.209 2.721 5.209 5.586v49.19c0 5.178-3.398 6.355-6.273 6.355h-2.697v3.043h8.971 45.12l3.043-20.63h-2.637c-1.657 9.159-9.554 16.31-18.41 16.08h-7.648c-2.396 0-4.344-1.949-4.344-4.346v-23.42h2.094c6.252 0 10.24 5.23 10.24 14.23h2.74v-15.95-0.8125-15.65h-2.74c0 7.919-3.344 13.64-10.25 13.64h-2.096v-25.96h10.99c14.8 0 15.3 13.18 15.3 14.88h2.947v-14.32-4.574h-53.31zm90.78 3.75c9.242 0 16.71 8.461 16.71 30.06 0.0208 21.6-7.471 30.06-16.71 30.06s-16.71-8.461-16.71-30.06 7.492-30.06 16.71-30.06zm-206.2 0.01172c9.242 0 16.71 8.459 16.71 30.06 0.0208 21.59-7.471 30.05-16.71 30.05s-16.71-8.461-16.71-30.06 7.492-30.05 16.71-30.05zm42.74 21.68a7.752 7.752 0 0 0-7.752 7.752 7.752 7.752 0 0 0 7.752 7.752 7.752 7.752 0 0 0 7.752-7.752 7.752 7.752 0 0 0-7.752-7.752zm-116.2 53.8c-5.814 0-6.053 4.47-6.053 8.939 0 5.251 0.4166 9.18 5.668 9.18 5.074 0 6.127-2.815 6.127-6.576v-0.6133h-3.961c-0.02084 2.719-0.1962 4.449-1.707 4.449-1.709 0-1.877-1.345-1.877-6.523 0-4.564 0.1474-6.127 1.783-6.127 1.365 0 1.656 1.126 1.656 3.668h3.959v-0.7285c0-4.105-1.98-5.668-5.596-5.668zm226.2 0.00977c-4.23 0-5.721 2.345-5.721 5.127 0 6.523 7.502 4.416 7.502 8.178 0 1-0.4156 2.074-1.854 2.074-1.417 0-1.783-1.001-1.783-2.324v-0.6133h-3.959v1.125c0 3.636 2.762 4.543 5.742 4.543 3.761 0 5.959-1.584 5.959-5.543 0-6.158-7.502-4.325-7.502-7.961 0-1.261 0.6156-1.875 1.637-1.875 0.6148 0 1.01 0.1965 1.25 0.6133 0.25 0.3959 0.3438 1 0.3438 1.834h3.959v-0.416c0-2.688-1.469-4.762-5.574-4.762zm24.9 0c-4.23 0-5.721 2.345-5.721 5.127 0 6.523 7.502 4.416 7.502 8.178 0 1-0.4156 2.074-1.854 2.074-1.417 0-1.783-1.001-1.783-2.324v-0.6133h-3.969v1.125c0 3.636 2.76 4.543 5.74 4.543 3.761 0 5.961-1.584 5.961-5.543 0-6.158-7.502-4.325-7.502-7.961 0-1.261 0.6137-1.875 1.635-1.875 0.6148 0 1.01 0.1965 1.25 0.6133 0.25 0.3959 0.3457 1 0.3457 1.834h3.959v-0.416c0-2.688-1.459-4.762-5.564-4.762zm-320.5 0.3223-4.459 17.44h4.252l0.6133-3.324h4.18l0.6348 3.324h4.252l-4.346-17.44h-5.127zm10.62 0v17.44h5.668c5.397 0 6.201-2.961 6.201-9.285 0-6.054-1.742-8.158-5.795-8.158h-6.074zm12.2 0 3.834 17.44h5.232l3.959-17.44h-4.398l-2.104 13.48h-0.05273l-2.072-13.48h-4.398zm16.22 0-4.459 17.44h4.252l0.6152-3.324h4.178l0.6348 3.324h4.252l-4.346-17.44h-5.127zm10.61 0v17.44h3.668v-12.01h0.05274l3.594 12.01h4.637v-17.44h-3.812v11.34h-0.05274l-3.375-11.34h-4.711zm26.9 0v17.44h10.36v-3.324h-6.252v-3.98h5.617v-3.324h-5.617v-3.49h5.98v-3.324h-10.09zm11.87 0v17.44h5.668c5.397 0 6.199-2.961 6.199-9.285 0-6.054-1.74-8.158-5.793-8.158h-6.074zm26.05 0v17.44h10.36v-3.324h-6.252v-3.98h5.617v-3.324h-5.617v-3.49h5.982v-3.324h-10.09zm11.85 0v17.44h3.668v-12.01h0.05273l3.594 12.01h4.637v-17.44h-3.812v11.34h-0.05273l-3.377-11.34h-4.709zm13.12 0v3.324h3.656v14.12h4.105v-14.12h3.668v-3.324h-11.43zm12.6 0v17.44h10.36v-3.324h-6.252v-3.98h5.615v-3.324h-5.615v-3.49h5.98v-3.324h-10.09zm11.87 0v17.44h4.105v-7.211h1.564c1.292 0 1.707 0.6359 1.707 3.668 0 1.98 0.1249 2.959 0.4375 3.543h4.418v-0.2188c-0.5835-0.2501-0.7084-0.5844-0.7812-4.033-0.0521-2.344-0.1972-3.981-2.812-4.346v-0.05079c1.907-0.4689 2.928-1.71 2.928-4.252 0-2.396-1.199-4.543-4.689-4.543h-6.877zm12.66 0v3.324h3.668v14.12h4.105v-14.12h3.656v-3.324h-11.43zm14.61 0-4.438 17.44h4.23l0.6133-3.324h4.18l0.6348 3.324h4.252l-4.346-17.44h-5.127zm10.65 0v17.44h4.104v-17.44h-4.104zm6.188 0v17.44h3.668v-12.01h0.05273l3.594 12.01h4.637v-17.44h-3.812v11.34h-0.05273l-3.375-11.34h-4.711zm14.06 0v17.44h3.668v-13.58h0.05078l2.814 13.58h3.178l2.668-13.58h0.05078v13.58h3.814v-17.44h-5.939l-2.074 11.46h-0.05078l-2.146-11.46h-6.012-0.02148zm18.39 0v17.44h10.36v-3.324h-6.25v-3.98h5.615v-3.324h-5.615v-3.49h5.98v-3.324h-10.09zm11.85 0v17.44h3.668v-12.01h0.05273l3.605 12.01h4.637v-17.44h-3.814v11.34h-0.05274l-3.375-11.34h-4.709-0.01172zm13.12 0v3.324h3.656v14.12h4.105v-14.12h3.668v-3.324h-11.43zm36.12 0 4.418 10.58h0.00977v6.867h4.105v-6.867l4.418-10.58h-4.396l-2 6.471h-0.05273l-1.959-6.471h-4.543zm25.52 0v3.324h3.668v14.12h4.094v-14.12h3.668v-3.324h-11.43zm12.6 0v17.44h10.36v-3.324h-6.252v-3.98h5.617v-3.324h-5.617v-3.49h5.982v-3.324h-10.09zm11.91 0v17.44h3.646v-13.58h0.05273l2.812 13.58h3.178l2.668-13.58h0.05274v13.58h3.812v-17.44h-5.938l-2.074 11.46h-0.05273l-2.146-11.46h-6.012zm-183.6 2.887h1.25c1.636 0 2.125 0.876 2.125 2.199 0 1.021-0.4468 2.271-2.104 2.271h-1.271v-4.471zm-153.3 0.1465h1.146c2.167 0 2.51 1.145 2.51 5.396 0 5.22-0.6558 5.98-2.562 5.98h-1.094v-11.38zm77.81 0h1.145c2.167 0 2.512 1.145 2.512 5.396 0 5.22-0.6558 5.98-2.562 5.98h-1.094v-11.38zm-90.09 0.1445h0.05078l1.49 7.764h-2.98l1.439-7.764zm39.04 0h0.05078l1.49 7.764h-2.979l1.438-7.764zm152.1 0h0.05273l1.49 7.764h-2.98l1.438-7.764z" fill="#fff"/></svg>
