<svg width="480" height="320" version="1.1" viewBox="0 0 480 320" xml:space="preserve" xmlns="http://www.w3.org/2000/svg"><defs><linearGradient id="a" x1="35.91" x2="11.88" y1="106.6" y2="-12.74" gradientTransform="scale(3.78)" gradientUnits="userSpaceOnUse"><stop stop-color="#804000" offset="0"/><stop stop-color="#ffc433" offset="1"/></linearGradient></defs><rect width="480" height="320" ry="24" fill="url(#a)"/><path d="m199.3 88.3-20.14 20.14v35.47l25.09 25.09h35.48l20.14-20.14 20.77 20.77 20.14-20.14v-35.47l-25.09-25.09h-35.48l-20.14 20.14zm0 5.021 55.54 55.54-16.59 16.6h-32.54l-23.01-23.02v-32.54zm62.48 7.752 4.344 0.5312 1.459 3.283-2.479 3.469-4.168-0.6465-1.219-3.281zm-9.637 9.408 4.115 4.115 0.3848 6.189-5.846 2.25-5.104-4.355 0.5723-6.906zm-41.81 3.793-3.262 0.1465-2.012 4.146 2.877 4.615 4.197-0.6875 1.658-3.846zm74.81 6.334 2.322 12.29-0.5625 3.928-4.584 1.604-1.303 6.492-8.084 0.9902-4.012-3.199-1.146-6.918 6.377-2.74 0.9688-3-0.666-7.533zm-90.76 5.355-2.104 1.709 0.1777 2.418 2.26 1.395 3.49-2.521-1.271-2.75zm34.22 10.31-1.688 8.543-2.553 5.314-4.699 3.396-6.637 0.6875-6.648-1.76 7.982 5.084 6.146-0.041 4.156-2.105 4.543-5.762 1.146-4.73zm156.1 43.09s-0.9169 3.49-2.928 3.49c-2.615 0-5.906-2.771-14.25-2.771-11.96 0-22.62 11.68-22.62 25.83 0 17.96 12 25.78 24.12 25.78 6.72 0 13.99-3.854 18.27-10.17v-7.93c-3.136 6.095-9.377 12.58-16.17 12.58-4.584 0-9.252-2.167-11.4-8.064-1.104-3.032-1.479-7.075-1.479-12.42 0.0104-7.533 2-20.29 12.53-20.29 7.71 0 12.39 7.043 13.46 12.19h3.064v-18.22zm-162.5 0.0195c-12.6 0-23.32 11.66-23.32 25.59 0 16.04 12.12 25.44 25.12 25.44 6.168 0 12.7-1.426 17.88-4.041v-13.25c0-3.105 2.167-4.043 5.084-4.043v-2.365h-22.43v2.365h1.855c3.011 0 3.854 1.449 3.854 4.043v11.6c-0.6876 0.8335-3.032 1.896-6.355 1.896-0.6772 0-4.51-0.073-7.375-2.428-3.001-2.459-5.023-7.448-5.023-19.3 0-15.44 5.428-21.97 13.3-21.97 2.563 0 11.24 1.73 14.94 12.89h2.312v-16.1h-2.187c-0.2813 2.167-1.991 3.366-5.221 2.021-4.876-2.032-9.241-2.334-12.44-2.334zm-62.8 0.709c-14.12 0-24.98 10.4-24.98 25.34s10.88 25.34 24.98 25.34c14.12 0 24.99-10.4 24.99-25.34s-10.88-25.34-24.99-25.34zm156.6 0c-14.12 0-24.98 10.4-24.98 25.34s10.88 25.34 24.98 25.34c14.12 0 25-10.4 25-25.34s-10.88-25.34-25-25.34zm73.09 0.416v3.574h0.9473c4.636 0 5.584 1.74 5.584 3.896v35.48c0 2.146-0.958 3.896-5.584 3.896h-1.021v3.574h26.66c12.38 0 24.27-8.648 24.27-25.2-0.0208-17.5-13.28-25.21-24.29-25.21zm-349.1 0.0938v1.959c3.469 0 6.199 3.126 6.199 6.605v33.91c0 3.469-3.657 4.615-6.199 4.615v1.959h16.86v-1.959c-3.157-0.0208-4.823-0.4477-5.906-1.469-1.073-1.021-1.365-2.375-1.365-4.24v-31.78l32.92 40.14h1.801v-42.72c0-2.532 1.981-4.677 4.898-4.781v-2.252h-14.92v1.959h1.947c2.605 0 4.721 2.428 4.721 5.033v24.2l-25.43-31.2zm50.65 0v1.949h2.76c2.115 0 3.824 2.001 3.824 4.105v36.11c0 3.803-2.49 4.668-4.605 4.668h-1.979v2.229h39.7l2.23-15.15h-1.928c-1.219 6.72-7.012 11.97-13.51 11.8h-5.605c-1.761 0-3.188-1.427-3.188-3.188v-17.19h1.541c4.584 0 7.512 3.844 7.512 10.45h2v-23.8h-2.01c0 5.814-2.46 10.01-7.523 10.01h-1.541v-19.06h8.064c10.86 0 11.23 9.679 11.23 10.93h2.168v-13.88zm156.6 0v1.949h2.762c2.115 0 3.824 2.001 3.824 4.105v36.11c0 3.803-2.49 4.668-4.605 4.668h-1.98v2.229h39.7l2.229-15.15h-1.928c-1.219 6.72-7.01 11.97-13.51 11.8h-5.605c-1.761 0-3.189-1.427-3.189-3.188v-17.19h1.543c4.584 0 7.512 3.844 7.512 10.45h2.012v-23.8h-2.021c0 5.814-2.46 10.01-7.523 10.01h-1.541v-19.06h8.064c10.86 0 11.23 9.679 11.23 10.93h2.168v-13.88zm138.5 0.1992h0.125v15.31h-0.4805c-1.75-6.105-7.209-12.19-14.6-12.19-12.97 0.0208-13.98 16.66-13.98 21.75 0 5.96 0.4789 9.941 1.562 12.91 2.084 5.73 6.742 9.021 12.76 9.021 5.678 0 11.01-4.063 14.72-9.002v2.449c-3.97 5.584-10.52 9.168-16.83 9.168-10.46 0-22.67-6.366-22.67-24.33 0-6.428 2.293-12.56 6.461-17.25 4.011-4.522 9.376-7.127 14.71-7.127 5.105 0 8.22 1.083 10.5 1.875 1.438 0.5001 2.573 0.8965 3.75 0.8965 2.178 0 3.398-2.125 3.961-3.49zm4.822 1.156h25.12c5.605 0 11.18 2.072 15.29 5.688 4.918 4.313 7.512 10.57 7.512 18.08 0 16.31-11.83 23.74-22.82 23.74h-25.19v-0.6777c4.386-0.1042 6.615-1.906 6.615-5.334v-35.49c0-3.417-2.199-5.209-6.533-5.334zm-231.2 1.406c6.783 0 12.27 6.209 12.27 22.07 0.0104 15.86-5.491 22.07-12.27 22.07-6.783 0-12.27-6.211-12.27-22.07 0-15.86 5.501-22.07 12.27-22.07zm156.6 0c6.783 0 12.27 6.209 12.27 22.07 0.0208 15.86-5.491 22.07-12.27 22.07-6.783 0-12.27-6.211-12.27-22.07 0-15.86 5.501-22.07 12.27-22.07zm91.28 0.1562v39.78c0 2.125 1.728 3.844 3.854 3.844h3.48c4.303 0 8.449-2.709 10.29-6.73 2.688-5.855 2.896-13.06 2.896-15.13-0.0104-1.042-0.1041-10.21-3.678-16.28-1.959-3.334-5.948-5.49-10.15-5.49zm1.447 1.438h5.252c3.699 0 7.198 1.876 8.896 4.783 3.365 5.741 3.471 14.54 3.471 15.52 0 2-0.1987 8.938-2.762 14.53-1.615 3.522-5.23 5.887-8.98 5.887h-3.48c-1.323 0-2.396-1.071-2.396-2.395zm-217.1 14.34a5.689 5.689 0 0 0-5.689 5.689 5.689 5.689 0 0 0 5.689 5.689 5.689 5.689 0 0 0 5.688-5.689 5.689 5.689 0 0 0-5.688-5.689z" fill="#fff"/></svg>
