<svg width="480" height="320" version="1.1" viewBox="0 0 127 84.667" xmlns="http://www.w3.org/2000/svg">
 <defs>
  <linearGradient id="a" x1="33.25" x2="17.675" y1="71.438" y2="-3.6462" gradientUnits="userSpaceOnUse">
   <stop stop-color="#d48e15" offset="0"/>
   <stop stop-color="#f9c440" offset="1"/>
  </linearGradient>
 </defs>
 <rect width="127" height="84.667" ry="4.2333" fill="url(#a)" stroke-linecap="square" stroke-linejoin="round" stroke-width=".52917" style="paint-order:stroke fill markers"/>
 <path transform="matrix(.26458 0 0 .26458 -.00025 0)" d="m188.99 59.998c-0.85162-0.03515-1.6552 1.1654-2.2676 1.6758-8.846 8.9821-17.964 17.76-26.742 26.811 0.13606 15.855 0.13606 31.641 0 47.496 10.275 10.683 20.958 20.959 31.369 31.506 1.2248 1.1568 2.3134 2.8575 4.2188 2.4492 15.311-0.1361 30.623 0.13744 45.934-0.13477 9.0502-8.4377 17.553-17.557 26.535-26.131 7.5531 7.9614 15.379 15.651 23.137 23.408 9.6624-9.4584 19.257-19.12 28.852-28.715-0.13607-14.086-0.13607-28.105 0-42.189-10.003-9.9347-19.937-19.936-29.939-29.871-13.746 0-27.558-0.13643-41.371-0.068359-0.95265-0.20413-1.5656 0.74857-2.2461 1.293-7.4851 7.6212-15.107 14.971-22.592 22.592-0.74849 0.74851-1.4299 1.4963-2.3144 1.9727-10.683-10.479-21.094-21.095-31.709-31.574-0.28912-0.35723-0.57941-0.50588-0.86328-0.51758v-0.001953zm0.04688 4.5332c9.9347 10.071 20.005 20.007 30.008 30.01-0.47633 0.74851-1.4971 1.4285-1.293 2.4492 0.068 7.5531-0.06641 15.039-0.06641 22.592 8.7099 0 17.417-0.068 26.127 0 7.2129 7.2129 14.289 14.562 21.57 21.639-8.3697 8.5058-16.806 16.942-25.311 25.244h-43.754c-1.0888 0.1361-1.7007-0.81536-2.4492-1.4277-10.139-10.275-20.416-20.278-30.486-30.553 0.13606-14.562 3.4e-4 -29.125 0.06836-43.688-0.13607-1.0888 0.95207-1.7691 1.5644-2.5176 8.0294-7.8934 15.857-15.991 24.021-23.748zm83.627 17.148c1.3609 0.2722 2.7895 0.47555 4.1504 0.67969 0.74853 1.497 1.4974 2.9935 2.1777 4.5586-1.2929 1.2929-2.5858 2.5863-3.8105 3.9473-1.6331-0.74851-4.5576-0.20374-4.7617-2.4492-0.2041-2.4497 1.4276-4.5589 2.2441-6.7363zm-15.59 11.613c0.7902-6e-3 1.5522 0.19738 2.2539 0.77148 1.7012 1.0207 3.3334 2.0408 4.8984 3.2656 0.20409 2.9941-0.47614 5.988-0.81641 8.9141-1.7692 1.361-4.1516 1.8364-6.125 2.7891-2.2455-1.7692-4.4902-3.5384-6.5996-5.5117 0.4763-2.926 0.81569-5.92 1.0879-8.9141 1.6842-0.2807 3.5624-1.3011 5.3008-1.3145zm-57.561 2.6074c-1.2929 1.8373-2.5177 3.7428-3.8106 5.5801 1.0887 2.1095 2.1772 4.2184 3.334 6.2598 1.9734 0.068 4.0153 0.13704 6.0566 0.20508 1.0888-1.7692 2.5178-3.402 2.9941-5.4434-1.0207-2.3816-2.5868-4.4921-4.0156-6.6016h-4.5586zm102.28 10.684c0.88458 4.1508 1.837 8.3024 2.9258 12.453 0.95265 2.994-0.27236 5.988-0.88477 8.9141-1.9734 0.47634-3.8782 0.88504-5.8516 1.3613-0.68045 2.994-1.4296 6.0551-1.8379 9.1172-3.5384 0.47632-7.0771 1.2255-10.615 1.4297-1.7012-0.95266-3.2655-2.2461-4.082-3.9473-0.95265-2.7898-1.2261-5.7159-1.9746-8.5059 3.1982-1.5651 6.3292-3.0619 9.5274-4.627 1.429-4.423 0.7477-8.9816-0.13672-13.404 4.2869-1.0207 8.5745-2.0425 12.93-2.791zm-120.31 4.2871c-1.9053 1.0888-3.3345 2.7227-3.8789 4.832 1.8373 1.2929 3.8101 3.1296 6.2598 2.8574 1.1568-0.8846 2.2452-1.9048 3.334-2.8574-0.5444-1.2929-0.95165-2.7215-1.9043-3.7422-1.1568-0.68046-2.5177-0.74966-3.8106-1.0898zm45.795 13.609c-4.2869 5.1034-3.4702 12.928-8.4375 17.691-6.0561 5.6478-15.857 6.5315-23.273 3.1973 1.8373 2.7898 4.4238 5.3082 7.8262 6.0566 4.2188 0.8846 8.7106 0.67952 12.93-0.20508 4.1508-1.3609 6.8716-5.1023 9.1172-8.6406 3.4019-5.375 2.7223-12.111 1.8379-18.1zm143.55 65.518c-8.1192 0-14.542 2.2452-19.268 6.7344-4.7039 4.4677-7.0547 10.545-7.0547 18.234 0 7.6681 2.3508 13.747 7.0547 18.236 4.7254 4.4677 11.148 6.7012 19.268 6.7012 5.5416 0 9.9559-1.2037 13.242-3.6094 3.2863-2.4057 5.5628-6.0891 6.8301-11.051h-6.4121c-0.9236 3.6085-2.4048 6.3051-4.4453 8.0879-2.019 1.7828-4.6277 2.6738-7.8281 2.6738-4.7254 0-8.2271-1.7176-10.504-5.1543-2.2768-3.4367-3.416-8.7322-3.416-15.885s1.1392-12.446 3.416-15.883c2.2768-3.4582 5.755-5.1894 10.438-5.1894 3.63 0 6.5513 1.0102 8.7637 3.0293 2.2124 1.9976 3.7385 5.0166 4.5762 9.0547h4.0918v-11.213h5.2188v40.305h-6.1543v3.9004h24.68c8.6132 0 15.208-2.0635 19.783-6.1875 4.5965-4.1455 6.8945-10.117 6.8945-17.914 0-7.754-2.2882-13.692-6.8633-17.816-4.5751-4.124-11.18-6.1855-19.814-6.1855h-24.68v2.918c-3.1141-1.2109-6.0784-2.1329-8.8906-2.7578-3.093-0.68734-6.069-1.0293-8.9258-1.0293zm-151.29 0.30273c-7.1177 0-13.024 2.4336-17.719 7.3008-4.6948 4.8717-7.0391 10.835-7.0391 17.895 0 3.9445 0.7611 7.5079 2.291 10.691 1.1998 2.469 2.8641 4.6893 4.9922 6.6641 2.1291 1.972 4.5875 3.5634 7.3691 4.7774 2.7846 1.2092 6.2846 1.8164 10.498 1.8164 3.2982 0 6.4756-0.33949 9.5449-1.0176 3.0684-0.67999 6.0187-1.6877 8.8633-3.0215v-9.7598c0-1.7105 0.09707-2.7852 0.29297-3.2226 0.34881-0.83311 0.84468-1.4272 1.4883-1.7871 0.64214-0.36 2.3963-0.59347 4.0312-0.71094v-1.5977h-23.166v1.5977l0.00586 0.00977h1.1484c1.0721 0 2.9048 0.21975 3.6602 0.66015 0.75538 0.43748 1.2543 0.92963 1.4941 1.4727 0.24083 0.54303 0.36328 1.74 0.36328 3.5898v7.2637c0 2.1917-2.3264 3.3082-3.4473 3.5508-1.1262 0.24139-2.2202 0.36328-3.2852 0.36328-3.0722 0-5.7252-0.79618-7.9609-2.3887-2.2332-1.593-3.8511-4.0832-4.8555-7.4785-1.002-3.3915-1.502-7.3348-1.502-11.838 0-3.7143 0.45905-7.3359 1.375-10.865 0.9183-3.5303 2.4796-6.2813 4.6836-8.2558 2.204-1.9725 4.9643-2.959 8.2812-2.959 3.4716 0 5.504 0.87411 8.0586 3.5176 2.6135 2.7015 5.1205 5.7707 6.584 10.277h2.1387v-16.545h-1.2168c-0.43861 1.3253-0.91824 2.2262-1.4414 2.7012-0.52557 0.47695-1.0949 0.71289-1.7031 0.71289-0.39466 0-1.6664-0.43132-3.8164-1.293-2.1491-0.86263-3.7071-1.3858-4.666-1.5703-1.7674-0.3671-3.1406-0.55078-5.3438-0.55078h-0.00195zm-62.754 0.25-0.00195 0.00195c-0.44491-0.00218-0.89401 0.00568-1.3496 0.02344-6.7488-0.27677-12.434 1.9126-17.053 6.5723-4.627 4.6554-6.9355 10.477-6.9355 17.457 0 6.2184 1.7768 11.592 5.334 16.123 4.4965 5.7315 10.862 8.6016 19.098 8.6016l-0.00782-0.00196c8.2086 0 14.566-3.0052 19.066-9.0176 3.3961-4.5303 5.0977-9.7746 5.0977-15.742 0-6.9802-2.2792-12.793-6.832-17.441-4.271-4.3572-9.7423-6.549-16.416-6.5762zm147.37 0.27149v0.00195c-6.2027 0.0291-11.472 2.2253-15.803 6.5938-4.6279 4.6559-6.9336 10.477-6.9336 17.457 0 6.2189 1.7744 11.594 5.3301 16.125 4.498 5.7315 10.863 8.6016 19.1 8.6016 8.2086 0 14.568-3.0062 19.068-9.0195 3.3971-4.5251 5.0977-9.7761 5.0977-15.742 0-6.9802-2.2801-12.795-6.832-17.443-4.5567-4.6483-10.478-6.8284-17.768-6.5488l-0.00781-0.00196c-0.4218-0.01738-0.83848-0.02532-1.252-0.02343zm-214.77 0.37109v1.8984h1.248c1.5218 0 2.7218 0.31839 3.5977 0.95703 0.62257 0.43462 1.05 1.0551 1.2793 1.8555 0.1166 0.47884 0.17383 1.7723 0.17383 3.877v29.154c0 2.3329-0.12667 3.7755-0.38086 4.3223-0.32205 0.77658-0.78613 1.3274-1.3828 1.6465-0.83137 0.48122-1.9254 0.7207-3.2871 0.7207h-1.248v2.1934h40.271l2.4199-14.818h-2.1973c-1.1533 4.1256-3.0511 7.1957-5.6914 9.2051-2.6403 2.0115-6.1536 3.0156-10.531 3.0156h-2.498c-1.3383 0-2.3047-0.18363-2.9062-0.54687-0.59867-0.36756-1.0096-0.83516-1.2285-1.4062-0.21834-0.57252-0.32812-2.1415-0.32812-4.7012v-13.107c2.2504 0 4.8869 0.29206 6.0703 0.87696 1.1821 0.58202 2.2198 1.7247 3.1113 3.4199 0.89445 1.6958 1.4812 3.5664 1.7598 6.2246h1.9004v-24.123h-1.9004c-0.37221 3.623-1.2303 6.0572-2.5762 7.9141-1.3431 1.8574-3.5134 2.7852-6.5039 2.7852h-1.8613v-16.18c-0.0155-2.8132 2.5039-2.4863 2.5039-2.4863h2.9414c3.561 0 5.9874 0.20489 7.2812 0.61719 2.2193 0.68618 3.9334 1.7639 5.1465 3.2285 1.214 1.4655 2.1554 3.8837 2.8262 7.248h1.5918v-13.791h-39.602zm42.691 31.807h0.01367l-0.01172-0.00586-0.00195 0.00586zm-91.438-31.805v1.5645c1.3798 0.04565 1.4272 0.50605 2.1621 0.89453l3.8887 3.8945-0.00586 31.225c0 2.4694-0.48828 4.216-1.4668 5.2441-0.97949 1.029-2.7163 1.5553-5.207 1.5781v1.8867h16.061v-1.8828h-1.0605c-1.5337 0-2.8968-0.46662-4.0879-1.4043-1.1887-0.93823-1.7832-2.7422-1.7832-5.418v-28.156l30.645 38.021 1.9863 0.00195v-38.779c0-2.205 0.18332-2.8447 0.54883-3.752 0.36552-0.90728 0.87664-1.5625 1.5293-1.9648 0.65361-0.40134 1.9354-0.72752 3.8418-0.98047v-1.9727h-15.203v1.9727c2.506-0.0457 4.2967 0.59529 5.3574 1.9277 0.77692 0.98769 1.166 1.9678 1.166 4.7715v20.307l-23.855-28.979h-14.516zm15.432 44.404h0.007812l-0.007812-0.00391v0.00391zm183.36-44.021v1.8887h1.248c1.5218 0 2.7224 0.31892 3.5976 0.95898 0.62352 0.43462 1.0505 1.0537 1.2793 1.8535 0.11705 0.47837 0.17578 1.7719 0.17578 3.877v29.154c0 2.3329-0.12815 3.7755-0.38281 4.3262-0.32251 0.77647-0.7846 1.3236-1.3828 1.6445-0.83137 0.48121-1.9263 0.72266-3.2852 0.72266h-1.25v2.1914h40.275l2.4199-14.824h-2.209c-1.1539 4.1266-3.0516 7.1967-5.6934 9.207h0.02148c-2.6398 2.0115-6.1535 3.0176-10.535 3.0176h-2.498c-1.3388 0-2.3047-0.1822-2.9062-0.54882-0.59628-0.36617-1.0087-0.83662-1.2266-1.4082-0.21884-0.57158-0.33008-2.138-0.33008-4.6973v-13.109c2.2509 0 4.8873 0.29157 6.0703 0.87695 1.1821 0.58253 2.2198 1.7238 3.1113 3.4199 0.8954 1.6948 1.4793 3.5689 1.7578 6.2266h1.9004v-24.123h-1.9004c-0.37269 3.6244-1.2302 6.0572-2.5762 7.9141-1.345 1.8569-3.5134 2.7852-6.5039 2.7852h-1.8613v-16.182c-0.01474-2.8127 2.5039-2.4883 2.5039-2.4883h2.9414c3.5586 0 5.9836 0.20981 7.2773 0.62305 2.2179 0.68617 3.9358 1.7614 5.1484 3.2266 1.2141 1.4665 2.1519 3.8794 2.8223 7.2461h1.5957v-13.779h-39.604-0.00195zm-83.666 1.2442c2.2718 2.6e-4 4.2784 0.63497 6.0215 1.9062 1.7434 1.2711 3.179 3.4479 4.3047 6.5312 1.1247 3.0862 1.6875 7.7344 1.6875 13.949 0 5.2213-0.55058 9.4573-1.6543 12.703-1.1013 3.2464-2.643 5.6105-4.623 7.0898-1.5519 1.1555-3.4875 1.7324-5.8066 1.7324-3.4429 0-6.1182-1.34-8.0352-4.0195-2.744-3.8351-4.1172-9.7592-4.1172-17.779 0-6.7486 0.88814-11.924 2.666-15.527l0.00586-0.0039c2.1813-4.3881 5.3659-6.5815 9.5508-6.582zm150.05 0.24414c2.2728 0 4.2819 0.63709 6.0254 1.9082 1.7434 1.2701 3.177 3.4479 4.3008 6.5312 1.1262 3.0866 1.6875 7.734 1.6875 13.953 0 5.2212-0.54822 9.4578-1.6524 12.705l0.00781-0.00976c-1.1032 3.2464-2.643 5.6104-4.623 7.0859-1.5528 1.1574-3.4899 1.7363-5.8086 1.7363-3.443 0-6.1173-1.3428-8.0332-4.0215-2.7445-3.8346-4.1172-9.7592-4.1172-17.779 0-6.7486 0.88771-11.924 2.666-15.527 2.1821-4.3886 5.3638-6.582 9.5469-6.582zm101.39 1.6992h4.4766c5.0476 0 8.731 1.6121 11.051 4.834 2.3198 3.2004 3.4805 8.2888 3.4805 15.27 0 7.0237-1.1705 12.149-3.5117 15.371-2.3198 3.2219-5.9934 4.8301-11.02 4.8301h-4.4766v-40.305zm-219.73 14.576c-3.1118 0-5.6348 2.5104-5.6348 5.6094 0 3.0966 2.521 5.6074 5.6348 5.6074 3.1114 0 5.6367-2.509 5.6367-5.6074 0-3.0971-2.523-5.6094-5.6367-5.6094z" fill="#fafafa" stroke-width="0" style="paint-order:stroke markers fill"/>
 <style type="text/css">.st0{fill:#FC0C18;}
	.st1{fill:#FC0C18;}</style>
</svg>
