<svg width="480" height="320" version="1.1" viewBox="0 0 480 320" xml:space="preserve" xmlns="http://www.w3.org/2000/svg"><defs><linearGradient id="a" x1="116.42" x2="62.174" y1="7.9375" y2="76.729" gradientTransform="scale(3.7795)" gradientUnits="userSpaceOnUse"><stop stop-color="#cc3b02" offset="0"/><stop stop-color="#a10705" offset="1"/></linearGradient></defs><rect width="480" height="320" ry="24" fill="url(#a)"/><path d="m99.725 80.469c-1.8501-0.007815-3.6634 0.068271-5.4355 0.22461-3.5442 0.31268-6.9267 0.94518-10.129 1.8633-4.8033 1.3772-9.2002 3.3979-13.121 5.9453-2.6139 1.6983-5.016 3.6306-7.1875 5.7637-1.0857 1.0665-2.1144 2.1833-3.082 3.3457-3.8704 4.6497-6.7754 10.032-8.5547 15.875-0.44481 1.4607-0.81953 2.9509-1.1211 4.4648s-0.5303 3.0507-0.68359 4.6094c-0.15329 1.5586-0.23047 3.1376-0.23047 4.7324 0 1.5948 0.078032 3.1726 0.23047 4.7285 0.15244 1.5559 0.37959 3.0907 0.67969 4.5996 0.3001 1.5089 0.67226 2.9934 1.1152 4.4473 0.44298 1.4538 0.95603 2.877 1.5371 4.2676 1.7432 4.1719 4.0978 8.0409 6.998 11.498 0.96674 1.1524 1.9943 2.2597 3.0801 3.3164 1.0857 1.0568 2.2297 2.0626 3.4297 3.0156 2.3999 1.906 5.0235 3.5966 7.8516 5.0391 2.8281 1.4425 5.86 2.6386 9.0781 3.5527 1.6091 0.45707 3.2655 0.84344 4.9648 1.1562 1.6994 0.31282 3.4416 0.55048 5.2266 0.71094 1.7849 0.16046 3.6128 0.24414 5.4785 0.24414h280.07c16.721 0 30.347-6.6638 39.068-17.035 1.9382-2.3048 3.6344-4.793 5.0684-7.4316 0.71701-1.3193 1.3676-2.6758 1.9512-4.0664 1.167-2.7812 2.0626-5.697 2.666-8.7148 0.30168-1.5089 0.53027-3.0437 0.6836-4.5996 0.15332-1.5559 0.23242-3.1337 0.23242-4.7285-0.03582-8.0132-2.0098-15.601-5.6094-22.246-0.71991-1.329-1.504-2.6219-2.3516-3.8711-1.6951-2.4983-3.6407-4.8279-5.8164-6.957-2.1757-2.1291-4.5827-4.0569-7.1992-5.75-1.3083-0.84656-2.6691-1.6343-4.0801-2.3594-5.644-2.9002-12.089-4.7942-19.178-5.416-1.7722-0.15545-3.5855-0.23242-5.4355-0.22461h-280.2zm0.125 11.398h279.95c1.4711 0 2.9075 0.061629 4.3066 0.18164 2.7982 0.24002 5.4491 0.71518 7.9434 1.4004 1.2471 0.3426 2.4559 0.73841 3.623 1.1836 1.1672 0.44518 2.2924 0.93852 3.377 1.4805 1.0845 0.54196 2.1277 1.1327 3.127 1.7656 0.99925 0.63292 1.9559 1.3093 2.8672 2.0273 2.7339 2.1542 5.0645 4.6782 6.959 7.4941 0.63148 0.93866 1.2152 1.9096 1.748 2.9102 0.53288 1.0006 1.0156 2.0312 1.4473 3.0879 0.86326 2.1133 1.5206 4.3319 1.9629 6.6348 0.22114 1.1514 0.3881 2.3236 0.5 3.5137 0.1119 1.1901 0.16992 2.3981 0.16992 3.6211 0 1.223-0.05809 2.431-0.16992 3.6211-0.22365 2.3802-0.66719 4.6904-1.3223 6.9043-0.32754 1.107-0.70725 2.1894-1.1387 3.2461-0.43143 1.0567-0.9146 2.0873-1.4473 3.0879s-1.1148 1.9715-1.7461 2.9102c-0.63127 0.93866-1.3118 1.8439-2.0391 2.7148-0.72722 0.87094-1.5017 1.7065-2.3223 2.5039-2.4616 2.3922-5.3361 4.4405-8.5898 6.0664-1.0846 0.54195-2.2116 1.0372-3.3789 1.4824-2.3346 0.89037-4.8328 1.5824-7.4824 2.0508-2.6496 0.46842-5.4511 0.71289-8.3945 0.71289h-279.95c-4.4367 0.02344-8.5471-0.51373-12.297-1.5332-1.2499-0.33983-2.4603-0.73402-3.6289-1.1777-2.3373-0.88744-4.5086-1.9771-6.5059-3.2441-0.99864-0.63352-1.9534-1.3098-2.8633-2.0293-1.8199-1.4389-3.46-3.0444-4.9102-4.791-0.72506-0.87329-1.4043-1.7814-2.0332-2.7227-0.62892-0.94122-1.208-1.9148-1.7383-2.918-0.53029-1.0032-1.0103-2.0366-1.4395-3.0957-0.85838-2.1182-1.5121-4.3424-1.9512-6.6484-0.4391-2.306-0.66406-4.6947-0.66406-7.1406 0-1.223 0.05607-2.4299 0.16797-3.6191s0.27886-2.3599 0.5-3.5098c0.44227-2.2997 1.1016-4.5146 1.9648-6.623 0.43163-1.0542 0.91438-2.0821 1.4473-3.0801 1.5987-2.9939 3.6473-5.723 6.1094-8.1094 0.82069-0.79545 1.6864-1.5528 2.5977-2.2695 1.8226-1.4334 3.8231-2.7025 5.9922-3.7871 1.0845-0.54229 2.2117-1.0377 3.3789-1.4844 2.3343-0.8933 4.8316-1.5914 7.4805-2.0684 1.3245-0.23849 2.6868-0.42091 4.0859-0.54688 1.3991-0.12596 2.8356-0.19531 4.3066-0.20312zm41.865 13.139v9.0352h13.252v-9.0352h-13.252zm-53.891 0.11523v43.971h13.619v-30.717l19.078 30.717h13.617v-43.971h-13.598v30.717l-18.951-30.717h-13.766zm248.98 0.125c0.0104-0.12503 0.00977 9.2938 0.00977 16.098-2.1047-1.2399-4.3449-2.343-7.4395-2.6035-9.5337-0.8648-16.848 7.5533-16.848 15.357 0 10.159 7.8037 14.004 9.0332 14.494 4.4595 2.1047 10.16 2.1044 15.234-1.1152v1.7402h13.023v-43.971h-13.014zm57.859 0.24024c-3.7197 0-6.8145 2.9697-6.8145 6.8144 0 3.7197 3.0947 6.8144 6.8145 6.8144 3.7197 0 6.8144-3.0947 6.8144-6.8144 0-3.8447-3.1052-6.8144-6.8144-6.8144zm0 1.3652c2.9695 0 5.4492 2.4797 5.4492 5.4492-0.0104 2.9799-2.3547 5.4492-5.4492 5.4492-2.9695 0-5.4492-2.4797-5.4492-5.4492 0-2.9695 2.4797-5.4492 5.4492-5.4492zm-2.7207 1.6152v7.5527h1.8555v-3.0938h0.86524l1.4883 3.0938h1.9805l-1.6152-3.3438c1.0003-0.3751 1.6152-1.1156 1.6152-2.1055 0-1.49-1.114-2.1035-3.2188-2.1035h-2.9707zm1.8555 0.98828h0.75c1.1149 0 1.6152 0.36504 1.6152 1.1152 0.10419 0.87523-0.51017 1.1152-1.5 1.1152h-0.86524v-2.2305zm-185.93 0.11523v5.9395h-7.1895v4.3438h7.1895v29.238h13.252v-29.238h7.1894v-4.3438h-7.1894v-5.9395h-13.252zm165.49 8.3047c-10.649 0-19.316 7.314-19.316 16.473 0 9.0336 8.6678 16.473 19.316 16.473 10.649 0 19.318-7.314 19.318-16.473 0-9.1586-8.4093-16.473-19.318-16.473zm-127.35 0.13477c-10.774 0-19.441 7.314-19.441 16.473 0 9.0336 8.6678 16.475 19.441 16.475 8.919 0 16.473-5.0757 18.828-12.025h-13.129v1.7402c0 5.3347-3.4695 6.5644-5.4492 6.5644s-5.5742-1.2402-5.5742-6.5644v-6.0645h24.902c0-9.0336-8.7941-16.598-19.578-16.598zm-60.078 0.49023c-4.3449 0.12504-8.0436 1.9792-10.523 4.459v-3.0938h-13.129v29.236h13.129v-19.203c0-2.6048 2.7295-5.334 6.3242-5.334 3.5947 0 6.0644 2.8438 6.0644 5.334v19.203h13.129v-15.857c0-11.649-10.024-14.869-14.994-14.744zm107.53 0c-4.3449 0.12504-8.0436 1.9792-10.523 4.459v-3.0938h-13.127v29.236h13.117v-19.203c0-2.6048 2.7295-5.334 6.3242-5.334 3.5947 0 6.0645 2.8438 6.0645 5.334v19.203h13.129v-15.857c-0.11462-11.649-10.16-14.869-14.984-14.744zm-151.75 1.3535v29.238h13.252v-29.238h-13.252zm231.53 1.6152c2.6048 0 5.4492 1.8549 5.4492 6.5644v6.1992 6.1895c0 4.7096-2.7298 6.5644-5.4492 6.5644-2.6048 0-5.4492-1.9799-5.4492-6.5644v-6.3242-6.0645c0-4.5845 2.7298-6.5644 5.4492-6.5644zm-126.84 0.125c1.74 0 3.5941 0.8654 4.709 2.7305 0.86481 1.49 0.86524 3.2194 0.86524 5.6992h-11.035c-0.23964-2.6048-0.23984-4.2092 0.75-5.6992 0.98984-1.8546 2.9709-2.6054 4.7109-2.7305zm85.219 1.8652c2.1047 0 5.1992 1.1147 5.1992 5.6992v5.1992 5.1992c0 4.4595-3.0945 5.7012-5.1992 5.7012-2.1047 0-5.1992-1.2417-5.1992-5.7012v-5.1992-5.1992c0-4.5845 3.0945-5.6992 5.1992-5.6992zm-291.62 61.809v16.014c0 3.6885 2.9795 6.6699 6.668 6.6699h18.725v-5.7637h-16.922c-0.98984 0-1.791-0.80118-1.791-1.791 0-0.98983 0.80118-1.793 1.791-1.793h15.932v-4h-15.932c-0.98984 0-1.791-0.80313-1.791-1.793 0-0.98984 0.80118-1.791 1.791-1.791l16.922 0.00977v-5.7617h-18.713-6.6797zm30.123 0v22.672h7.3145v-15.191c0-0.9169 0.74911-1.666 1.666-1.666h12.535c0.9169 0 1.666 0.74912 1.666 1.666v4.627 10.564h7.1895v-10.564-1.8242-2.7402-1.3027c-0.0104-3.4488-2.8012-6.2402-6.25-6.2402h-24.121zm33.32 0v5.6992h8.0234c0.87523 0 1.584 0.70875 1.584 1.584v15.389h8.0527v-15.389c0-0.87523 0.70875-1.584 1.584-1.584h8.0234v-5.6992h-0.00977-27.258zm30.676 0v16.014c0 3.6885 2.9795 6.6699 6.668 6.6699h18.723v-5.7637h-16.92c-0.98984 0-1.793-0.80118-1.793-1.791 0-0.98983 0.80312-1.793 1.793-1.793h15.93v-4h-15.93c-0.98984 0-1.793-0.80313-1.793-1.793s0.80312-1.791 1.793-1.791l16.92 0.00977v-5.7617h-18.713-6.6777zm29.746 0v8.3047 14.367h7.5645v-4.418c0-0.78144 0.63521-1.4062 1.4062-1.4062h10.305c0.78146 0 1.4082 0.63523 1.4082 1.4062v0.13672 4.2715h7.2207v-4.2715c-0.0208-1.1045-0.49029-3.137-2.793-4.6582 2.0318-1.3128 3.3965-3.6464 3.3965-6.293 0-4.1052-3.2398-7.4394-7.2617-7.4394h-1.6152-19.631zm30.883 0v5.6992h8.0234c0.87522 0 1.584 0.70875 1.584 1.584v15.389h8.0547v-15.389c0-0.87523 0.70875-1.584 1.584-1.584h8.0215v-5.6992h-27.268zm37.041 0c-3.7197 0-6.7305 3.0108-6.7305 6.7305v1.8125 14.129h7.418v-5.584h12.838v5.584h7.418v-14.129-1.8125c0-3.7197-3.0108-6.7305-6.7305-6.7305h-1.7188-4.0234-2.7285-4.0234-1.7188zm25.996 0v22.672h7.6797v-22.672h-7.6797zm12.389 0v22.672h7.3144v-15.191c0-0.9169 0.75106-1.666 1.668-1.666h12.535c0.91691 0 1.666 0.74912 1.666 1.666v4.627 10.564h7.1895v-10.564-1.8242-2.7402-1.3027c-0.0104-3.4488-2.8032-6.2402-6.252-6.2402h-24.121zm35.176 0v22.672h6.6894v-14.18-1.0742c0-0.88565 0.71982-1.6035 1.6055-1.6035h5.7207c0.88564 0 1.6035 0.71787 1.6035 1.6035v2.7617 12.492h7.5547v-14.18-1.0742c0-0.88565 0.71786-1.6035 1.6035-1.6035h5.7207c0.88564 0 1.6055 0.71787 1.6055 1.6035v1.0742 14.18h0.36329 7.1894v-16.025c-0.0104-3.678-2.9906-6.6465-6.6582-6.6465h-32.998zm43.846 0v16.014c0 3.6885 2.9795 6.6699 6.668 6.6699h18.725v-5.7637h-16.922c-0.98984 0-1.793-0.80118-1.793-1.791 0-0.98983 0.80313-1.793 1.793-1.793h15.932v-4h-15.932c-0.98984 0-1.793-0.80313-1.793-1.793s0.80313-1.791 1.793-1.791l16.922 0.00977v-5.7617h-18.715-6.6777zm29.861 0v22.672h7.3144v-15.191c0-0.9169 0.75107-1.666 1.668-1.666h12.533c0.91689 0 1.668 0.74912 1.668 1.666v4.627 10.564h7.1895v-10.564-1.8242-2.7402-1.3027c-0.0104-3.4488-2.8031-6.2402-6.252-6.2402h-24.121zm33.676 0v5.6992h8.0234c0.87523 0 1.584 0.70875 1.584 1.584v15.389h8.0527v-15.389c0-0.87523 0.70875-1.584 1.584-1.584h8.0234v-5.6992h-27.268zm-239.87 5.459h10.305c0.78145 0 1.4082 0.63522 1.4082 1.4062v2.8867c0 0.78145-0.63717 1.4062-1.4082 1.4062h-10.305c-0.78145 0-1.4062-0.63522-1.4062-1.4062v-2.8867c0-0.78145 0.63522-1.4062 1.4062-1.4062zm61.506 0.23047h3.1777 2.7305 3.1777c1.0315 0 1.8652 0.83372 1.8652 1.8652v3.5938h-12.816v-3.5938c0-1.0315 0.83373-1.8652 1.8652-1.8652zm-21.662 25.891c-3.7197 0-6.8145 3.1156-6.8145 6.5957 0 4.9804 3.2202 6.8574 7.5547 6.8574h10.648c1.1149 0 2.2305 0.49971 2.2305 1.625 0 1.0003-0.7504 1.8652-1.7402 1.8652h-18.713v5.7305h20.432c3.3446 0 6.8145-2.7405 6.8145-6.5957 0.0104-4.6158-3.7086-6.8555-7.668-6.8555h-10.648c-1.2399 0-2.1055-0.50166-2.1055-1.627 0-1.0003 0.7504-1.8652 1.7402-1.8652h18.213v-5.7305h-19.943zm22.705 0v5.6992h8.0215c0.87522 0 1.584 0.70875 1.584 1.584v15.391h8.0547v-15.391c0-0.87523 0.70876-1.584 1.584-1.584h8.0234v-5.6992h-27.268zm30.143 0v16.016c0 3.6885 2.9795 6.668 6.668 6.668h18.725v-5.7617h-16.922c-0.98985 0-1.791-0.80313-1.791-1.793s0.80117-1.791 1.791-1.791h15.932v-4.002h-15.932c-0.98985 0-1.791-0.80117-1.791-1.791s0.80117-1.793 1.791-1.793l16.922 0.00977v-5.7617h-18.713-6.6797zm-113.56 0.01172c-3.9594 0-7.1895 3.1156-7.1895 6.5957 0 4.97 3.4702 6.8457 7.8047 6.8457h10.408c1.2399 0 2.2305 0.49971 2.2305 1.625 0 0.98984-0.99066 1.8652-1.8555 1.8652h-18.463v5.7305h20.432c3.7197 0 7.0547-2.7405 7.0547-6.5957 0.0208-4.6054-3.5738-6.8457-7.9082-6.8457h-10.408c-1.2399 0-2.2305-0.49971-2.2305-1.625 0-0.98984 0.98871-1.8652 1.8535-1.8652h18.215v-5.7305h-19.943zm22.912 0v8.3027 1.1894c0 3.5843 2.9079 6.4902 6.4922 6.4902h3.416v6.6894h7.9297v-6.6894h3.4805c3.5843 0 6.4902-2.906 6.4902-6.4902v-9.4922h-0.17578-6.8144-0.04297v8.4609c0 0.94816-0.7693 1.707-1.707 1.707h-10.182c-0.94816 0-1.707-0.76929-1.707-1.707v-8.4609h-0.15625-7.0234zm120.53 0v22.672h6.6894v-14.18-1.0742c0-0.88565 0.71787-1.6055 1.6035-1.6055h5.7207c0.88564 0 1.6055 0.71981 1.6055 1.6055v2.7617 12.492h7.5527v-14.18-1.0742c0-0.88565 0.71982-1.6055 1.6055-1.6055h5.7207c0.88564 0 1.6035 0.71981 1.6035 1.6055v1.0742 14.18h0.36523 7.1895v-16.025c-0.0104-3.678-2.9906-6.6465-6.6582-6.6465h-32.998z" fill="#fff"/></svg>
