<?xml version="1.0" encoding="UTF-8" standalone="no"?>
<!-- Created with Inkscape (http://www.inkscape.org/) -->

<svg
   width="480"
   height="320"
   viewBox="0 0 127 84.666667"
   version="1.1"
   id="svg1543"
   inkscape:export-filename="/home/vitor/Dev/es-theme-material-tv-3-2/assets/logo/nes.png"
   inkscape:export-xdpi="96"
   inkscape:export-ydpi="96"
   inkscape:version="1.1.1 (3bf5ae0d25, 2021-09-20)"
   sodipodi:docname="nes.svg"
   xmlns:inkscape="http://www.inkscape.org/namespaces/inkscape"
   xmlns:sodipodi="http://sodipodi.sourceforge.net/DTD/sodipodi-0.dtd"
   xmlns:xlink="http://www.w3.org/1999/xlink"
   xmlns="http://www.w3.org/2000/svg"
   xmlns:svg="http://www.w3.org/2000/svg">
  <sodipodi:namedview
     id="namedview1545"
     pagecolor="#505050"
     bordercolor="#eeeeee"
     borderopacity="1"
     inkscape:pageshadow="0"
     inkscape:pageopacity="0"
     inkscape:pagecheckerboard="0"
     inkscape:document-units="px"
     showgrid="false"
     units="px"
     width="640px"
     inkscape:snap-page="true"
     showguides="true"
     inkscape:guide-bbox="true"
     inkscape:zoom="1.4039016"
     inkscape:cx="260.70203"
     inkscape:cy="269.96194"
     inkscape:window-width="1920"
     inkscape:window-height="1019"
     inkscape:window-x="0"
     inkscape:window-y="30"
     inkscape:window-maximized="1"
     inkscape:current-layer="layer1">
    <sodipodi:guide
       position="10.583333,76.729167"
       orientation="-1,0"
       id="guide2978"
       inkscape:label=""
       inkscape:locked="false"
       inkscape:color="rgb(0,0,255)" />
    <sodipodi:guide
       position="116.41667,7.9375"
       orientation="-1,0"
       id="guide2980"
       inkscape:label=""
       inkscape:locked="false"
       inkscape:color="rgb(0,0,255)" />
    <sodipodi:guide
       position="10.583333,76.729167"
       orientation="0,-1"
       id="guide2982" />
    <sodipodi:guide
       position="116.41667,7.9375"
       orientation="0,-1"
       id="guide2984" />
  </sodipodi:namedview>
  <defs
     id="defs1540">
    <linearGradient
       inkscape:collect="always"
       id="linearGradient2856">
      <stop
         style="stop-color:#cc3b02;stop-opacity:1"
         offset="0"
         id="stop2852" />
      <stop
         style="stop-color:#a10705;stop-opacity:1"
         offset="1"
         id="stop2854" />
    </linearGradient>
    <linearGradient
       inkscape:collect="always"
       xlink:href="#linearGradient2856"
       id="linearGradient2858"
       x1="116.41667"
       y1="7.9375"
       x2="62.174049"
       y2="76.729164"
       gradientUnits="userSpaceOnUse" />
  </defs>
  <g
     inkscape:label="Camada 1"
     inkscape:groupmode="layer"
     id="layer1">
    <rect
       style="opacity:1;fill:url(#linearGradient2858);fill-opacity:1;stroke-width:0.529167;stroke-linecap:square;stroke-linejoin:round;paint-order:stroke fill markers"
       id="rect1569"
       width="127"
       height="84.666664"
       x="0"
       y="0"
       ry="4.2333331" />
    <path
       style="fill:#ffffff;stroke-width:0.0547508"
       d="m 38.353997,61.263381 0.01537,-0.670697 2.63336,-0.02738 c 2.852346,-0.02965 2.734904,-0.01607 2.900083,-0.335486 0.115933,-0.224189 0.09691,-0.353958 -0.08115,-0.553351 l -0.159667,-0.178803 -1.908554,-0.02738 -1.908554,-0.02738 -0.354503,-0.175659 c -0.452379,-0.224157 -0.887624,-0.606884 -1.033982,-0.909221 -0.16172,-0.334069 -0.16172,-1.054974 0,-1.389042 0.138312,-0.285713 0.554585,-0.660635 1.004602,-0.904807 l 0.331887,-0.180074 2.888105,-0.01553 2.888105,-0.01553 v 0.684667 0.684669 l -2.569327,0.01525 c -2.513332,0.01492 -2.572696,0.01775 -2.723854,0.130343 -0.305097,0.227244 -0.305131,0.58275 -5.5e-5,0.810077 0.148299,0.110513 0.23112,0.116184 2.080532,0.142469 l 1.926085,0.02738 0.266889,0.156871 c 0.360557,0.211927 0.677651,0.504672 0.864698,0.7983 0.146255,0.229593 0.155045,0.277765 0.154852,0.848637 -1.64e-4,0.50716 -0.01782,0.634119 -0.108915,0.783528 -0.168459,0.276293 -0.578626,0.642282 -0.929254,0.829164 l -0.318349,0.169678 h -2.936872 -2.936878 l 0.01538,-0.670697 z M 48.908903,60.948564 V 59.963049 H 48.14021 c -0.669178,0 -0.797437,-0.01466 -0.990728,-0.113274 -0.318205,-0.162336 -0.691693,-0.557572 -0.846568,-0.895863 -0.131729,-0.287735 -0.133271,-0.309538 -0.118819,-1.680658 l 0.01464,-1.38914 0.944452,-0.01498 0.944451,-0.01498 v 1.183911 1.18391 l 0.186153,0.186153 0.186152,0.186153 h 1.404341 c 1.984508,0 1.891659,0.07914 1.891659,-1.61243 v -1.125112 h 0.930764 0.930765 v 1.480992 c 0,1.666505 0.0087,1.623885 -0.424347,2.08681 -0.446065,0.47688 -0.528851,0.50732 -1.464557,0.53851 l -0.821262,0.02738 -0.01495,0.971826 -0.01495,0.971827 h -0.984251 -0.984251 z m 5.584583,0.301129 v -0.684384 h 2.60614 2.606138 l 0.186153,-0.186154 c 0.248944,-0.248943 0.2552,-0.493673 0.01843,-0.720679 l -0.16773,-0.160808 -1.899116,-0.02738 c -1.785062,-0.02573 -1.913913,-0.0343 -2.145495,-0.142722 -0.349412,-0.163583 -0.818403,-0.530648 -1.025206,-0.802399 -0.175096,-0.230085 -0.176581,-0.237298 -0.177941,-0.864557 -0.0013,-0.617339 0.0026,-0.63789 0.162512,-0.855382 0.220026,-0.299189 0.693565,-0.656829 1.080202,-0.815821 l 0.316314,-0.130073 2.80598,-0.0013 2.805979,-0.0013 v 0.682824 0.682825 l -2.569328,0.01525 c -2.513332,0.01492 -2.572696,0.01775 -2.723854,0.130343 -0.305096,0.227244 -0.305132,0.58275 -5.5e-5,0.810077 0.148299,0.110513 0.23112,0.116184 2.080532,0.142469 2.203484,0.03132 2.124113,0.0147 2.707945,0.566868 0.444326,0.420224 0.504785,0.573742 0.504785,1.28176 0,0.559454 -0.0091,0.608 -0.156904,0.841131 -0.186635,0.294294 -0.531128,0.587642 -0.918705,0.782312 l -0.281714,0.141483 h -2.90753 -2.90753 z m 10.566909,-1.604198 c 0,-1.70701 -0.0167,-2.30528 -0.0657,-2.354286 -0.04708,-0.04708 -0.403941,-0.0657 -1.259269,-0.0657 h -1.193568 v -0.684385 -0.684385 h 3.478363 3.478364 l -0.01537,0.670697 -0.01538,0.670698 -1.172878,0.01481 c -0.752555,0.0095 -1.198933,0.03643 -1.245581,0.07515 -0.05832,0.0484 -0.07271,0.513963 -0.07271,2.353168 v 2.292831 h -0.958139 -0.958139 z m 6.410303,2.201614 c -0.163174,-0.04387 -0.376373,-0.129019 -0.473782,-0.189221 -0.267982,-0.165623 -0.5567,-0.512277 -0.621744,-0.746512 -0.03699,-0.133213 -0.0582,-1.109006 -0.0584,-2.686665 l -3.07e-4,-2.477475 h 3.339801 3.3398 v 0.739136 0.739136 h -2.322707 -2.322704 l -0.161959,0.136278 c -0.190128,0.15998 -0.238177,0.341509 -0.147488,0.557193 0.137315,0.326578 0.06947,0.317006 2.458361,0.346795 l 2.195371,0.02738 0.01554,0.588571 0.01554,0.588572 -2.12345,2.19e-4 c -2.032488,2.19e-4 -2.131197,0.005 -2.304484,0.110579 -0.356604,0.217417 -0.38751,0.565019 -0.07899,0.888418 l 0.143638,0.150565 h 2.316667 2.316666 v 0.65701 0.65701 l -2.614352,-0.0036 c -2.108482,-0.0029 -2.671758,-0.01904 -2.911024,-0.08336 z m 6.894147,-2.951701 v -3.03867 l 4.448504,5.47e-4 4.448503,5.48e-4 0.284409,0.132417 c 0.370034,0.172284 0.726227,0.504515 0.894892,0.834685 l 0.13472,0.263722 0.01532,2.422723 0.01533,2.422724 h -0.932407 -0.932401 v -2.110626 c 0,-2.730763 0.05761,-2.59797 -1.127188,-2.59797 -0.82135,0 -0.957308,0.05471 -1.060655,0.426809 -0.03395,0.122222 -0.05645,1.013821 -0.05664,2.243557 l -5.47e-4,2.040731 -0.971828,-0.01495 L 82.55303,61.906705 82.52565,59.733898 82.49827,57.561091 82.337462,57.3933 82.176894,57.22551 H 81.43087 80.684846 l -0.160808,0.167795 -0.160809,0.167795 -0.01549,2.18649 -0.01549,2.18649 H 79.34854 78.364827 Z m -66.41983,-5.339161 c -0.628277,-0.10616 -1.129162,-0.495193 -1.276544,-0.991478 -0.07143,-0.240532 -0.08514,-0.677514 -0.08514,-2.713183 v -2.426474 h 3.3398 3.3398 v 0.71176 0.711761 h -2.219167 c -2.3812,0 -2.485288,0.01091 -2.673875,0.280153 -0.145152,0.207233 -0.112465,0.419375 0.09688,0.628711 l 0.186152,0.186152 h 2.168132 2.168133 v 0.60226 0.602259 h -2.127185 c -2.123855,0 -2.127475,2.19e-4 -2.3125,0.124883 -0.329314,0.221924 -0.349836,0.5691 -0.05129,0.867646 l 0.157238,0.157238 h 2.303745 2.303747 v 0.65701 0.657009 l -2.532226,-0.0064 c -1.392724,-0.0035 -2.646283,-0.02571 -2.785687,-0.04927 z m 6.741434,-2.9817 v -3.039933 l 3.353488,5.47e-4 3.353488,5.47e-4 0.282749,0.13165 c 0.351443,0.163633 0.679605,0.486484 0.878836,0.864613 l 0.152434,0.289287 v 2.381661 2.38166 l -0.944451,0.01498 -0.944452,0.01498 -8.05e-4,-2.122888 c -8.7e-4,-2.282294 -0.0013,-2.286014 -0.290649,-2.500863 -0.149126,-0.110729 -0.214305,-0.114781 -1.846597,-0.114781 h -1.692018 l -0.151809,0.151756 -0.151808,0.151756 -0.02738,2.20253 -0.02738,2.202529 -0.971828,0.01495 -0.971827,0.01495 z m 11.388172,0.777006 c 0,-1.866818 -0.01359,-2.281593 -0.07763,-2.369266 -0.07196,-0.09851 -0.163996,-0.107564 -1.259268,-0.123861 l -1.181639,-0.01758 v -0.653114 -0.653114 h 3.449301 3.449302 v 0.652304 0.652305 l -1.172663,0.0184 c -0.644966,0.01014 -1.193158,0.0389 -1.218206,0.06397 -0.02505,0.02507 -0.05786,1.084495 -0.07292,2.354284 l -0.02738,2.30871 -0.944452,0.01498 -0.944452,0.01498 z m 6.582485,2.199513 c -0.362317,-0.06034 -0.754053,-0.258083 -0.981439,-0.495419 -0.348431,-0.363675 -0.344968,-0.332452 -0.344968,-3.110239 v -2.520296 h 3.3398 3.339801 v 0.709522 0.709522 l -2.313223,0.01592 c -2.583966,0.01779 -2.541089,0.0113 -2.670869,0.404535 -0.05248,0.159001 -0.0461,0.215314 0.04129,0.36496 0.182457,0.312411 0.182261,0.312385 2.492698,0.313264 l 2.121595,8.07e-4 v 0.60226 0.602259 h -2.133377 -2.133377 l -0.187746,0.164843 c -0.103259,0.09067 -0.203192,0.226384 -0.22207,0.301601 -0.04196,0.167152 0.07701,0.41292 0.275418,0.568986 0.142146,0.111812 0.195953,0.114337 2.437506,0.114337 h 2.292151 v 0.657009 0.65701 l -2.532226,-0.0064 c -1.392724,-0.0035 -2.66216,-0.02804 -2.820968,-0.05448 z m 6.721963,-2.977782 v -3.03867 h 3.150892 c 2.63779,0 3.17576,0.01286 3.303608,0.07897 0.237798,0.122971 0.72941,0.687605 0.895798,1.028857 0.133747,0.274303 0.150565,0.370195 0.150565,0.858414 0,0.545115 -0.002,0.553471 -0.246379,1.020628 -0.135508,0.259057 -0.246378,0.525893 -0.246378,0.592968 0,0.06708 0.04994,0.269843 0.110985,0.450596 0.09592,0.284033 0.108925,0.443402 0.09581,1.174086 l -0.01517,0.845444 h -0.821263 -0.821262 l -0.02912,-0.657009 c -0.01602,-0.361356 -0.0498,-0.701038 -0.07507,-0.75485 -0.108856,-0.23175 -0.284722,-0.258036 -1.726378,-0.258036 h -1.370626 l -0.178804,0.159627 -0.178804,0.159629 -0.01816,0.68901 -0.01815,0.68901 h -0.98105 -0.98105 z m 5.369792,-0.187416 c 0.153339,-0.153338 0.160042,-0.180821 0.160042,-0.656146 0,-0.47069 -0.0082,-0.505266 -0.159671,-0.67491 l -0.159671,-0.178804 -1.339429,-0.01715 c -1.505079,-0.01929 -1.657248,0.0077 -1.819579,0.321521 -0.06947,0.13434 -0.08656,0.285829 -0.07207,0.638689 0.01757,0.42777 0.03055,0.472519 0.172614,0.594711 l 0.153617,0.132137 h 1.452056 1.452055 z m 5.507372,3.189586 c -0.02007,-0.02007 -0.03688,-1.048706 -0.03734,-2.285847 -4.92e-4,-1.320027 -0.02227,-2.283277 -0.05269,-2.331472 -0.04294,-0.068 -0.259456,-0.08528 -1.258432,-0.100445 l -1.206572,-0.01831 v -0.652382 -0.652381 h 3.476678 3.476676 v 0.653114 0.653115 l -1.168864,0.01758 c -0.889647,0.01338 -1.190458,0.03553 -1.259268,0.09273 -0.08141,0.06767 -0.09041,0.303419 -0.09041,2.367973 v 2.29283 h -0.921639 c -0.506902,0 -0.938065,-0.01642 -0.958139,-0.0365 z m 5.256078,0 c -0.02007,-0.02007 -0.0365,-1.013437 -0.0365,-2.207472 0,-1.76153 0.01534,-2.222653 0.08139,-2.445016 0.108922,-0.366779 0.571107,-1.013807 0.872119,-1.220909 l 0.24337,-0.167443 2.563425,2.19e-4 c 2.46065,2.18e-4 2.570574,0.0046 2.741724,0.108915 0.303539,0.185071 0.669285,0.612642 0.866761,1.013271 l 0.188906,0.383256 -0.01472,2.27216 -0.01472,2.272158 -0.971828,0.01495 -0.971827,0.01495 v -0.850649 -0.850649 l -1.793089,0.01443 -1.79309,0.01443 -0.01512,0.834951 -0.01512,0.83495 h -0.947593 c -0.521173,0 -0.964013,-0.01642 -0.984089,-0.0365 z m 5.547881,-3.618117 c 0,-0.487148 -0.01862,-0.618776 -0.107081,-0.763853 -0.205048,-0.336287 -0.298108,-0.353769 -1.781349,-0.334654 -1.324799,0.01707 -1.333935,0.018 -1.474323,0.14999 -0.189675,0.178326 -0.249928,0.426437 -0.250293,1.030643 l -3.05e-4,0.506446 h 1.806777 1.806777 v -0.588572 z m 3.340003,0.617239 v -3.039962 h 0.958605 0.958599 l -0.01414,3.024982 -0.01415,3.024983 -0.944453,0.01498 -0.944451,0.01498 z m 3.047797,3.000878 c -0.02007,-0.02007 -0.0365,-1.387477 -0.0365,-3.038671 v -3.002169 h 3.383803 3.383798 l 0.279054,0.139057 c 0.338332,0.168599 0.747836,0.593537 0.909773,0.944065 0.116734,0.252683 0.119318,0.309225 0.119318,2.612558 v 2.354285 l -0.944451,0.01498 -0.944452,0.01498 v -2.128478 c 0,-2.126652 0,-2.128637 -0.125193,-2.314515 -0.20807,-0.309201 -0.357107,-0.331061 -2.12875,-0.312228 l -1.569981,0.01669 -0.141273,0.132812 c -0.0777,0.07305 -0.165742,0.220874 -0.195641,0.328505 -0.03149,0.113321 -0.0545,1.054165 -0.05467,2.235161 l -3.06e-4,2.039469 h -0.949013 c -0.521962,0 -0.965443,-0.01642 -0.985515,-0.0365 z m 9.43539,-3.001839 v -3.040867 l 4.503255,0.01462 c 4.256942,0.01382 4.514413,0.02016 4.707223,0.116033 0.318086,0.158151 0.660323,0.488856 0.838143,0.809891 l 0.162407,0.293214 0.01584,2.422723 0.01584,2.422724 H 90.196096 89.26611 l -0.01662,-2.148969 c -0.01566,-2.026608 -0.0227,-2.157968 -0.123616,-2.307005 -0.161054,-0.237863 -0.390613,-0.307347 -1.015386,-0.307347 -0.663854,0 -0.874601,0.07219 -1.003457,0.343731 -0.08066,0.169993 -0.09156,0.4444 -0.09156,2.30627 v 2.11332 h -0.985515 -0.985515 v -2.163462 -2.16346 l -0.18751,-0.204513 -0.187505,-0.204511 h -0.742071 c -0.737937,0 -0.742908,8.44e-4 -0.893818,0.151756 l -0.151753,0.151756 -0.02738,2.20253 -0.02738,2.202529 -0.971827,0.01495 -0.971827,0.01495 z m 12.988329,2.977451 c -0.362313,-0.06034 -0.75405,-0.258083 -0.981436,-0.495419 -0.348428,-0.363675 -0.344968,-0.332452 -0.344968,-3.110239 v -2.520296 h 3.3398 3.339802 v 0.71176 0.711761 h -2.2502 c -1.969245,0 -2.273747,0.01118 -2.438821,0.08951 -0.363655,0.172566 -0.435225,0.579286 -0.149229,0.848067 l 0.138394,0.130065 2.185674,0.01549 2.185672,0.01549 v 0.600457 0.60046 h -2.141717 -2.141727 l -0.219337,0.219338 c -0.192016,0.192014 -0.215105,0.241465 -0.185337,0.396944 0.01948,0.101759 0.115557,0.253593 0.224976,0.355545 l 0.190972,0.17794 h 2.300339 2.300341 v 0.65701 0.657009 l -2.532227,-0.0064 c -1.392724,-0.0035 -2.662161,-0.02804 -2.820971,-0.05449 z m 6.448209,-2.977782 v -3.03867 h 3.35843 3.35844 l 0.33267,0.166239 c 0.36234,0.181063 0.64986,0.463354 0.8459,0.830496 0.12472,0.233585 0.12566,0.251369 0.1414,2.659184 l 0.0158,2.424026 -0.94661,-0.01499 -0.94661,-0.01499 -0.0274,-2.175347 -0.0274,-2.175347 -0.17891,-0.178937 -0.1789,-0.17894 -1.57313,-0.01755 c -1.76134,-0.01965 -1.92604,0.0024 -2.09566,0.280597 -0.10099,0.165553 -0.10669,0.290477 -0.10688,2.323928 v 2.148969 h -0.98552 -0.98552 v -3.03867 z m 11.69843,3.00217 c -0.0201,-0.02007 -0.0365,-1.065731 -0.0365,-2.323679 0,-1.769618 -0.0155,-2.297201 -0.0684,-2.331472 -0.0377,-0.02437 -0.59201,-0.05221 -1.2319,-0.06187 l -1.16348,-0.01759 v -0.653117 -0.653114 h 3.4493 3.4493 v 0.652304 0.652305 l -1.16882,0.0184 c -0.88864,0.01399 -1.19052,0.03641 -1.25928,0.09353 -0.0814,0.06768 -0.0904,0.303083 -0.0904,2.367973 v 2.29283 h -0.92163 c -0.5069,0 -0.93807,-0.01642 -0.95814,-0.0365 z M 29.089106,44.57232 c -3.089862,-0.26995 -6.02702,-1.934838 -7.852065,-4.450838 -2.921331,-4.027336 -2.784128,-9.476749 0.335807,-13.337428 0.391805,-0.484829 1.33041,-1.40515 1.794797,-1.759833 1.646248,-1.25735 3.608174,-2.032424 5.658823,-2.235561 0.788634,-0.07813 68.213174,-0.07813 69.001805,0 2.139977,0.211985 4.186807,1.04946 5.855697,2.395901 0.63138,0.509395 1.55962,1.507387 2.04142,2.194852 0.73957,1.055252 1.31162,2.27823 1.6208,3.465147 0.2851,1.094448 0.34838,1.609915 0.34838,2.838097 0,1.229957 -0.0654,1.762417 -0.34619,2.819666 -1.18229,4.451103 -5.04246,7.675425 -9.664868,8.072875 -0.802833,0.06903 -68.003518,0.06622 -68.794406,-0.0029 z m 69.560913,-2.667801 c 2.991701,-0.687742 5.285431,-2.702111 6.263681,-5.500801 0.52363,-1.498043 0.58615,-3.393208 0.16245,-4.92386 -0.37772,-1.364491 -1.0624,-2.568583 -2.04335,-3.593385 -1.27447,-1.331459 -2.85016,-2.164716 -4.679361,-2.474538 -0.626115,-0.10605 -1.072115,-0.107218 -35.072446,-0.09188 l -34.438266,0.01554 -0.492757,0.122313 c -1.733616,0.43032 -2.922081,1.06785 -4.09749,2.198018 -1.341157,1.289536 -2.178913,2.916579 -2.476362,4.809448 -0.121574,0.773657 -0.08251,2.152334 0.08289,2.925454 0.747803,3.49548 3.639943,6.159701 7.175353,6.60989 0.195734,0.02492 15.816143,0.04179 34.712021,0.03749 l 34.356139,-0.0079 z M 64.348634,39.150924 c -0.543999,-0.07195 -1.299983,-0.32794 -1.806777,-0.611813 -0.621279,-0.348001 -1.287531,-1.033956 -1.579449,-1.626157 -0.6806,-1.380701 -0.43992,-2.753523 0.676718,-3.859932 0.876777,-0.868746 2.071803,-1.341395 3.391539,-1.341395 1.663642,0 3.116986,0.703231 3.913019,1.893404 0.304497,0.455257 0.551527,1.141157 0.551527,1.531348 v 0.243553 H 66.70292 63.910628 v 1.12415 c 0,1.244301 0.0314,1.401835 0.320456,1.607662 0.364411,0.259479 1.308731,0.268892 1.64719,0.01642 0.314959,-0.234943 0.357966,-0.355094 0.377533,-1.054754 l 0.01827,-0.65321 h 1.528435 c 1.255283,0 1.528441,0.01337 1.528441,0.07477 0,0.04113 -0.08937,0.253408 -0.198598,0.471745 -0.499245,0.99793 -1.689166,1.842738 -2.975608,2.112593 -0.494762,0.103784 -1.318279,0.136403 -1.808119,0.07162 z m 1.916278,-5.379889 c 0,-0.455764 -0.01724,-0.546883 -0.152441,-0.805694 -0.44006,-0.842366 -1.753566,-0.797086 -2.117105,0.07299 -0.05637,0.134923 -0.08474,0.377504 -0.08474,0.724701 v 0.521891 h 1.177142 1.177142 z m 28.065102,5.38266 c -0.621679,-0.08562 -1.015885,-0.206457 -1.59308,-0.488334 -1.382764,-0.675281 -2.178315,-1.864263 -2.179975,-3.258054 -0.002,-1.622162 1.231298,-3.025598 3.11074,-3.540087 0.607619,-0.166333 1.938091,-0.178556 2.545913,-0.02339 1.749694,0.446666 2.956907,1.600841 3.210317,3.06926 0.32415,1.87839 -1.13234,3.70237 -3.324675,4.163543 -0.502169,0.105635 -1.307182,0.140698 -1.76924,0.07706 z m 1.401424,-0.986871 c 0.15207,-0.07758 0.247703,-0.17893 0.320834,-0.340005 0.09665,-0.212884 0.104273,-0.384293 0.105384,-2.370278 8.22e-4,-1.457912 -0.01866,-2.200167 -0.06111,-2.326911 -0.163891,-0.489507 -0.553202,-0.757703 -1.102901,-0.759791 -0.52131,-0.002 -0.865177,0.194724 -1.098585,0.628433 -0.115103,0.213877 -0.117863,0.270902 -0.117863,2.43641 0,2.131627 0.0043,2.224747 0.11144,2.4071 0.131342,0.223571 0.398422,0.39263 0.707146,0.447614 0.339837,0.06053 0.893987,7.17e-4 1.135652,-0.122572 z M 70.75448,35.57156 v -3.421927 h 1.503146 1.503145 l 0.01619,0.353462 0.01619,0.353462 0.629634,-0.353659 c 0.903603,-0.507546 1.200899,-0.588371 2.067347,-0.562039 0.629909,0.01914 0.735124,0.03735 1.084708,0.187679 0.212926,0.09157 0.533218,0.262139 0.71176,0.37906 0.481282,0.315169 1.092931,0.944967 1.25421,1.291424 l 0.136987,0.294266 5.47e-4,2.450099 5.47e-4,2.450099 h -1.533018 -1.533022 v -2.387894 c 0,-2.365435 -0.0011,-2.389928 -0.121563,-2.60419 -0.141187,-0.251204 -0.666521,-0.625793 -0.95301,-0.679538 -0.464736,-0.08719 -1.107149,0.145293 -1.538405,0.556723 l -0.234065,0.223306 v 2.445796 2.445797 H 72.26016 70.754513 V 35.57156 Z m 13.03028,3.365373 c -1.380871,-0.16346 -2.630022,-1.368074 -3.020702,-2.913008 -0.140074,-0.553915 -0.116816,-1.304676 0.05726,-1.848511 0.327037,-1.021683 1.165535,-1.879534 2.238871,-2.290551 0.323965,-0.124056 0.452805,-0.141619 1.053493,-0.143601 0.770245,-0.0026 1.158773,0.09262 1.794972,0.439678 0.189247,0.103228 0.355552,0.187697 0.369569,0.187697 0.01402,0 0.02549,-0.837688 0.02549,-1.861528 v -1.861527 h 1.505647 1.505648 v 5.037075 5.037074 H 87.80936 c -1.301854,0 -1.505647,-0.01111 -1.505647,-0.08212 0,-0.108236 -0.08026,-0.103591 -0.416178,0.02409 -0.569398,0.216418 -1.533554,0.34262 -2.102776,0.27524 z m 2.039019,-1.281177 c 0.112452,-0.0536 0.260279,-0.187219 0.328505,-0.296936 0.119833,-0.192699 0.124651,-0.250992 0.141558,-1.713179 0.01942,-1.679642 -0.01854,-2.038969 -0.250283,-2.368739 -0.398169,-0.566596 -1.285844,-0.624851 -1.792301,-0.117624 -0.33808,0.338594 -0.356581,0.457779 -0.356581,2.297204 0,1.721923 0.01758,1.859388 0.266166,2.080875 0.283861,0.252924 1.238152,0.320868 1.662936,0.118399 z M 27.884588,33.681842 v -5.03789 l 1.625389,0.01451 1.62539,0.01451 2.194494,3.461266 c 1.206973,1.903697 2.224836,3.491608 2.261919,3.52869 0.0534,0.0534 0.06743,-0.669487 0.06743,-3.474954 v -3.542377 h 1.505647 1.505649 v 5.037075 5.037075 h -1.528061 -1.528057 l -2.285399,-3.545123 c -1.256971,-1.949814 -2.318633,-3.581192 -2.359253,-3.625286 -0.06203,-0.06734 -0.07385,0.500015 -0.07385,3.545115 v 3.625286 h -1.505648 -1.505647 z m 12.70219,1.643339 v -3.39455 h 1.505648 1.505647 v 3.39455 3.39455 h -1.505647 -1.505648 z m 4.708571,0 v -3.39455 h 1.505647 1.505648 v 0.328505 c 0,0.180677 0.01305,0.328505 0.029,0.328505 0.01595,0 0.398015,-0.190944 0.84903,-0.424319 l 0.820027,-0.42432 h 0.889309 c 0.843747,0 0.906913,0.0076 1.23293,0.14731 0.788405,0.337988 1.668556,1.07602 1.945144,1.631059 l 0.147646,0.296287 v 2.453037 2.453036 h -1.533023 -1.533022 l -2.2e-4,-2.395348 c -2.19e-4,-2.724791 0.02461,-2.571629 -0.476845,-2.939499 -0.349898,-0.256685 -0.721599,-0.379104 -1.005463,-0.331145 -0.337344,0.05699 -0.946957,0.386033 -1.16752,0.63017 l -0.19701,0.218067 v 2.408878 2.408877 H 46.80098 45.295332 v -3.39455 z m 10.785911,-0.02738 v -3.421927 h -0.793887 -0.793887 v -0.438006 -0.438007 h 0.793887 0.793887 v -0.71176 -0.711761 h 1.560399 1.560398 v 0.711761 0.71176 h 0.793887 0.793887 v 0.438007 0.438006 h -0.793887 -0.793887 v 3.421927 3.421925 H 57.641659 56.08126 Z m 43.212589,-3.618997 c -0.28018,-0.103135 -0.66118,-0.461427 -0.80931,-0.761067 -0.16007,-0.323798 -0.15273,-1.117222 0.0132,-1.429898 0.19071,-0.359275 0.38207,-0.552352 0.70312,-0.709431 0.971091,-0.475109 2.111541,0.210272 2.200831,1.322638 0.0491,0.612473 -0.24466,1.162469 -0.79257,1.483563 -0.31314,0.183517 -0.948971,0.22905 -1.315311,0.0942 z m 1.146181,-0.247035 c 0.72571,-0.36775 0.98,-1.274419 0.54679,-1.949531 -0.50207,-0.782402 -1.494251,-0.877663 -2.088761,-0.200545 -0.24753,0.281918 -0.34336,0.538422 -0.34532,0.924284 -0.002,0.387242 0.11378,0.692307 0.36013,0.949123 0.41331,0.430887 1.00964,0.53892 1.527161,0.276669 z m -0.40702,-0.76191 c -0.109451,-0.191679 -0.147391,-0.216709 -0.329031,-0.217082 -0.19823,-3.83e-4 -0.20532,0.0062 -0.20532,0.191206 0,0.133836 -0.0248,0.191628 -0.0821,0.191628 -0.0686,0 -0.0821,-0.112544 -0.0821,-0.684385 v -0.684385 h 0.40109 c 0.348461,0 0.416711,0.01663 0.520131,0.126718 0.16281,0.173306 0.16125,0.505681 -0.003,0.680727 -0.11873,0.12639 -0.11952,0.134852 -0.0274,0.295407 0.11595,0.202039 0.11796,0.245337 0.0133,0.285514 -0.0548,0.02103 -0.12221,-0.03981 -0.20531,-0.185348 z m 0.12947,-0.62121 c 0.0848,-0.186214 -0.0186,-0.349777 -0.248391,-0.392891 -0.32961,-0.06184 -0.38621,-0.02503 -0.40474,0.263269 l -0.0167,0.259574 h 0.3053 c 0.268191,0 0.312511,-0.0158 0.364521,-0.129952 z M 40.586778,29.54897 v -0.903388 h 1.505648 1.505647 v 0.903388 0.903389 h -1.505647 -1.505648 z"
       id="path4656" />
  </g>
  <style
     type="text/css"
     id="style3952">
	.st0{fill:#FC0C18;}
	.st1{fill:#FC0C18;}
</style>
</svg>
