<svg width="480" height="320" version="1.1" viewBox="0 0 127 84.667" xmlns="http://www.w3.org/2000/svg" xmlns:xlink="http://www.w3.org/1999/xlink">
 <defs>
  <linearGradient id="a" x1="116.42" x2="62.174" y1="7.9375" y2="76.729" gradientUnits="userSpaceOnUse">
   <stop stop-color="#cc3b02" offset="0"/>
   <stop stop-color="#a10705" offset="1"/>
  </linearGradient>
 </defs>
 <rect width="127" height="84.667" ry="4.2333" fill="url(#a)" stroke-linecap="square" stroke-linejoin="round" stroke-width=".52917" style="paint-order:stroke fill markers"/>
 <path d="m38.354 61.263 0.01537-0.6707 2.6334-0.02738c2.8523-0.02965 2.7349-0.01607 2.9001-0.33549 0.11593-0.22419 0.09691-0.35396-0.08115-0.55335l-0.15967-0.1788-3.8171-0.05476-0.3545-0.17566c-0.45238-0.22416-0.88762-0.60688-1.034-0.90922-0.16172-0.33407-0.16172-1.055 0-1.389 0.13831-0.28571 0.55458-0.66064 1.0046-0.90481l0.33189-0.18007 5.7762-0.03106v1.3693l-2.5693 0.01525c-2.5133 0.01492-2.5727 0.01775-2.7239 0.13034-0.3051 0.22724-0.30513 0.58275-5.5e-5 0.81008 0.1483 0.11051 0.23112 0.11618 2.0805 0.14247l1.9261 0.02738 0.26689 0.15687c0.36056 0.21193 0.67765 0.50467 0.8647 0.7983 0.14626 0.22959 0.15504 0.27776 0.15485 0.84864-1.64e-4 0.50716-0.01782 0.63412-0.10892 0.78353-0.16846 0.27629-0.57863 0.64228-0.92925 0.82916l-0.31835 0.16968h-5.8738l0.01538-0.6707zm10.555-0.31482v-0.98552h-0.76869c-0.66918 0-0.79744-0.01466-0.99073-0.11327-0.3182-0.16234-0.69169-0.55757-0.84657-0.89586-0.13173-0.28774-0.13327-0.30954-0.11882-1.6807l0.01464-1.3891 1.8889-0.02996v2.3678l0.18615 0.18615 0.18615 0.18615h1.4043c1.9845 0 1.8917 0.07914 1.8917-1.6124v-1.1251h1.8615v1.481c0 1.6665 0.0087 1.6239-0.42435 2.0868-0.44606 0.47688-0.52885 0.50732-1.4646 0.53851l-0.82126 0.02738-0.01495 0.97183-0.01495 0.97183h-1.9685zm5.5846 0.30113v-0.68438h5.2123l0.18615-0.18615c0.24894-0.24894 0.2552-0.49367 0.01843-0.72068l-0.16773-0.16081-1.8991-0.02738c-1.7851-0.02573-1.9139-0.0343-2.1455-0.14272-0.34941-0.16358-0.8184-0.53065-1.0252-0.8024-0.1751-0.23008-0.17658-0.2373-0.17794-0.86456-0.0013-0.61734 0.0026-0.63789 0.16251-0.85538 0.22003-0.29919 0.69356-0.65683 1.0802-0.81582l0.31631-0.13007 5.612-0.0026v1.3656l-2.5693 0.01525c-2.5133 0.01492-2.5727 0.01775-2.7239 0.13034-0.3051 0.22724-0.30513 0.58275-5.5e-5 0.81008 0.1483 0.11051 0.23112 0.11618 2.0805 0.14247 2.2035 0.03132 2.1241 0.0147 2.7079 0.56687 0.44433 0.42022 0.50478 0.57374 0.50478 1.2818 0 0.55945-0.0091 0.608-0.1569 0.84113-0.18664 0.29429-0.53113 0.58764-0.9187 0.78231l-0.28171 0.14148h-5.8151zm10.567-1.6042c0-1.707-0.0167-2.3053-0.0657-2.3543-0.04708-0.04708-0.40394-0.0657-1.2593-0.0657h-1.1936v-1.3688h6.9567l-0.01537 0.6707-0.01538 0.6707-1.1729 0.01481c-0.75256 0.0095-1.1989 0.03643-1.2456 0.07515-0.05832 0.0484-0.07271 0.51396-0.07271 2.3532v2.2928h-1.9163zm6.4103 2.2016c-0.16317-0.04387-0.37637-0.12902-0.47378-0.18922-0.26798-0.16562-0.5567-0.51228-0.62174-0.74651-0.03699-0.13321-0.0582-1.109-0.0584-2.6867l-3.07e-4 -2.4775h6.6796v1.4783h-4.6454l-0.16196 0.13628c-0.19013 0.15998-0.23818 0.34151-0.14749 0.55719 0.13732 0.32658 0.06947 0.31701 2.4584 0.3468l2.1954 0.02738 0.01554 0.58857 0.01554 0.58857-2.1234 2.19e-4c-2.0325 2.19e-4 -2.1312 5e-3 -2.3045 0.11058-0.3566 0.21742-0.38751 0.56502-0.07899 0.88842l0.14364 0.15056h4.6333v1.314l-2.6144-0.0036c-2.1085-0.0029-2.6718-0.01904-2.911-0.08336zm6.8941-2.9517v-3.0387l8.897 0.001095 0.28441 0.13242c0.37003 0.17228 0.72623 0.50452 0.89489 0.83468l0.13472 0.26372 0.01532 2.4227 0.01533 2.4227h-1.8648v-2.1106c0-2.7308 0.05761-2.598-1.1272-2.598-0.82135 0-0.95731 0.05471-1.0607 0.42681-0.03395 0.12222-0.05645 1.0138-0.05664 2.2436l-5.47e-4 2.0407-1.9437-0.0299-0.05476-4.3456-0.16081-0.16779-0.16057-0.16779h-1.492l-0.16081 0.1678-0.16081 0.1678-0.03098 4.373h-1.9674zm-66.42-5.3392c-0.62828-0.10616-1.1292-0.49519-1.2765-0.99148-0.07143-0.24053-0.08514-0.67751-0.08514-2.7132v-2.4265h6.6796v1.4235h-2.2192c-2.3812 0-2.4853 0.01091-2.6739 0.28015-0.14515 0.20723-0.11246 0.41938 0.09688 0.62871l0.18615 0.18615h4.3363v1.2045h-2.1272c-2.1239 0-2.1275 2.19e-4 -2.3125 0.12488-0.32931 0.22192-0.34984 0.5691-0.05129 0.86765l0.15724 0.15724h4.6075v1.314l-2.5322-0.0064c-1.3927-0.0035-2.6463-0.02571-2.7857-0.04927zm6.7414-2.9817v-3.0399l6.707 0.001094 0.28275 0.13165c0.35144 0.16363 0.6796 0.48648 0.87884 0.86461l0.15243 0.28929v4.7633l-1.8889 0.02996-8.05e-4 -2.1229c-8.7e-4 -2.2823-0.0013-2.286-0.29065-2.5009-0.14913-0.11073-0.2143-0.11478-1.8466-0.11478h-1.692l-0.30362 0.30351-0.02738 2.2025-0.02738 2.2025-1.9437 0.0299zm11.388 0.77701c0-1.8668-0.01359-2.2816-0.07763-2.3693-0.07196-0.09851-0.164-0.10756-1.2593-0.12386l-1.1816-0.01758v-1.3062h6.8986v1.3046l-1.1727 0.0184c-0.64497 0.01014-1.1932 0.0389-1.2182 0.06397-0.02505 0.02507-0.05786 1.0845-0.07292 2.3543l-0.02738 2.3087-1.8889 0.02996zm6.5825 2.1995c-0.36232-0.06034-0.75405-0.25808-0.98144-0.49542-0.34843-0.36368-0.34497-0.33245-0.34497-3.1102v-2.5203h6.6796v1.419l-2.3132 0.01592c-2.584 0.01779-2.5411 0.0113-2.6709 0.40454-0.05248 0.159-0.0461 0.21531 0.04129 0.36496 0.18246 0.31241 0.18226 0.31238 2.4927 0.31326l2.1216 8.07e-4v1.2045h-4.2668l-0.18775 0.16484c-0.10326 0.09067-0.20319 0.22638-0.22207 0.3016-0.04196 0.16715 0.07701 0.41292 0.27542 0.56899 0.14215 0.11181 0.19595 0.11434 2.4375 0.11434h2.2922v1.314l-2.5322-0.0064c-1.3927-0.0035-2.6622-0.02804-2.821-0.05448zm6.722-2.9778v-3.0387h3.1509c2.6378 0 3.1758 0.01286 3.3036 0.07897 0.2378 0.12297 0.72941 0.6876 0.8958 1.0289 0.13375 0.2743 0.15056 0.3702 0.15056 0.85841 0 0.54512-2e-3 0.55347-0.24638 1.0206-0.13551 0.25906-0.24638 0.52589-0.24638 0.59297 0 0.06708 0.04994 0.26984 0.11098 0.4506 0.09592 0.28403 0.10892 0.4434 0.09581 1.1741l-0.01517 0.84544h-1.6425l-0.02912-0.65701c-0.01602-0.36136-0.0498-0.70104-0.07507-0.75485-0.10886-0.23175-0.28472-0.25804-1.7264-0.25804h-1.3706l-0.35761 0.31926-0.01816 0.68901-0.01815 0.68901h-1.9621zm5.3698-0.18742c0.15334-0.15334 0.16004-0.18082 0.16004-0.65615 0-0.47069-0.0082-0.50527-0.15967-0.67491l-0.15967-0.1788-1.3394-0.01715c-1.5051-0.01929-1.6572 0.0077-1.8196 0.32152-0.06947 0.13434-0.08656 0.28583-0.07207 0.63869 0.01757 0.42777 0.03055 0.47252 0.17261 0.59471l0.15362 0.13214h2.9041zm5.5074 3.1896c-0.02007-0.02007-0.03688-1.0487-0.03734-2.2858-4.92e-4 -1.32-0.02227-2.2833-0.05269-2.3315-0.04294-0.068-0.25946-0.08528-1.2584-0.10044l-1.2066-0.01831v-1.3048h6.9534v1.3062l-1.1689 0.01758c-0.88965 0.01338-1.1905 0.03553-1.2593 0.09273-0.08141 0.06767-0.09041 0.30342-0.09041 2.368v2.2928h-0.92164c-0.5069 0-0.93806-0.01642-0.95814-0.0365zm5.2561 0c-0.02007-0.02007-0.0365-1.0134-0.0365-2.2075 0-1.7615 0.01534-2.2227 0.08139-2.445 0.10892-0.36678 0.57111-1.0138 0.87212-1.2209l0.24337-0.16744 2.5634 2.19e-4c2.4606 2.18e-4 2.5706 0.0046 2.7417 0.10892 0.30354 0.18507 0.66928 0.61264 0.86676 1.0133l0.18891 0.38326-0.01472 2.2722-0.01472 2.2722-1.9437 0.0299v-1.7013l-3.5862 0.02886-0.01512 0.83495-0.01512 0.83495h-0.94759c-0.52117 0-0.96401-0.01642-0.98409-0.0365zm5.5479-3.6181c0-0.48715-0.01862-0.61878-0.10708-0.76385-0.20505-0.33629-0.29811-0.35377-1.7813-0.33465-1.3248 0.01707-1.3339 0.018-1.4743 0.14999-0.18968 0.17833-0.24993 0.42644-0.25029 1.0306l-3.05e-4 0.50645h3.6136v-0.58857zm3.34 0.61724v-3.04h1.9172l-0.01414 3.025-0.01415 3.025-1.8889 0.02996zm3.0478 3.0009c-0.02007-0.02007-0.0365-1.3875-0.0365-3.0387v-3.0022h6.7676l0.27905 0.13906c0.33833 0.1686 0.74784 0.59354 0.90977 0.94406 0.11673 0.25268 0.11932 0.30922 0.11932 2.6126v2.3543l-1.8889 0.02996v-2.1285c0-2.1267 0-2.1286-0.12519-2.3145-0.20807-0.3092-0.35711-0.33106-2.1288-0.31223l-1.57 0.01669-0.14127 0.13281c-0.0777 0.07305-0.16574 0.22087-0.19564 0.3285-0.03149 0.11332-0.0545 1.0542-0.05467 2.2352l-3.06e-4 2.0395h-0.94901c-0.52196 0-0.96544-0.01642-0.98552-0.0365zm9.4354-3.0018v-3.0409l4.5033 0.01462c4.2569 0.01382 4.5144 0.02016 4.7072 0.11603 0.31809 0.15815 0.66032 0.48886 0.83814 0.80989l0.16241 0.29321 0.01584 2.4227 0.01584 2.4227h-1.86l-0.01662-2.149c-0.01566-2.0266-0.0227-2.158-0.12362-2.307-0.16105-0.23786-0.39061-0.30735-1.0154-0.30735-0.66385 0-0.8746 0.07219-1.0035 0.34373-0.08066 0.16999-0.09156 0.4444-0.09156 2.3063v2.1133h-1.971v-4.3269l-0.18751-0.20451-0.1875-0.20451h-0.74207c-0.73794 0-0.74291 8.44e-4 -0.89382 0.15176l-0.15175 0.15176-0.02738 2.2025-0.02738 2.2025-1.9437 0.0299zm12.988 2.9775c-0.36231-0.06034-0.75405-0.25808-0.98144-0.49542-0.34843-0.36368-0.34497-0.33245-0.34497-3.1102v-2.5203h6.6796v1.4235h-2.2502c-1.9692 0-2.2737 0.01118-2.4388 0.08951-0.36366 0.17257-0.43522 0.57929-0.14923 0.84807l0.13839 0.13006 4.3713 0.03098v1.2009h-4.2834l-0.21934 0.21934c-0.19202 0.19201-0.2151 0.24146-0.18534 0.39694 0.01948 0.10176 0.11556 0.25359 0.22498 0.35554l0.19097 0.17794h4.6007v1.314l-2.5322-0.0064c-1.3927-0.0035-2.6622-0.02804-2.821-0.05449zm6.4482-2.9778v-3.0387h6.7169l0.33267 0.16624c0.36234 0.18106 0.64986 0.46335 0.8459 0.8305 0.12472 0.23358 0.12566 0.25137 0.1414 2.6592l0.0158 2.424-1.8932-0.02998-0.0548-4.3507-0.17891-0.17894-0.1789-0.17894-1.5731-0.01755c-1.7613-0.01965-1.926 0.0024-2.0957 0.2806-0.10099 0.16555-0.10669 0.29048-0.10688 2.3239v2.149h-1.971v-3.0387zm11.698 3.0022c-0.0201-0.02007-0.0365-1.0657-0.0365-2.3237 0-1.7696-0.0155-2.2972-0.0684-2.3315-0.0377-0.02437-0.59201-0.05221-1.2319-0.06187l-1.1635-0.01759v-1.3062h6.8986v1.3046l-1.1688 0.0184c-0.88864 0.01399-1.1905 0.03641-1.2593 0.09353-0.0814 0.06768-0.0904 0.30308-0.0904 2.368v2.2928h-0.92163c-0.5069 0-0.93807-0.01642-0.95814-0.0365zm-82.929-9.0031c-3.0899-0.26995-6.027-1.9348-7.8521-4.4508-2.9213-4.0273-2.7841-9.4767 0.33581-13.337 0.3918-0.48483 1.3304-1.4052 1.7948-1.7598 1.6462-1.2574 3.6082-2.0324 5.6588-2.2356 0.78863-0.07813 68.213-0.07813 69.002 0 2.14 0.21198 4.1868 1.0495 5.8557 2.3959 0.63138 0.5094 1.5596 1.5074 2.0414 2.1949 0.73957 1.0553 1.3116 2.2782 1.6208 3.4651 0.2851 1.0944 0.34838 1.6099 0.34838 2.8381 0 1.23-0.0654 1.7624-0.34619 2.8197-1.1823 4.4511-5.0425 7.6754-9.6649 8.0729-0.80283 0.06903-68.004 0.06622-68.794-0.0029zm69.561-2.6678c2.9917-0.68774 5.2854-2.7021 6.2637-5.5008 0.52363-1.498 0.58615-3.3932 0.16245-4.9239-0.37772-1.3645-1.0624-2.5686-2.0434-3.5934-1.2745-1.3315-2.8502-2.1647-4.6794-2.4745-0.62612-0.10605-1.0721-0.10722-35.072-0.09188l-34.438 0.01554-0.49276 0.12231c-1.7336 0.43032-2.9221 1.0678-4.0975 2.198-1.3412 1.2895-2.1789 2.9166-2.4764 4.8094-0.12157 0.77366-0.08251 2.1523 0.08289 2.9255 0.7478 3.4955 3.6399 6.1597 7.1754 6.6099 0.19573 0.02492 15.816 0.04179 34.712 0.03749l34.356-0.0079zm-34.301-2.7536c-0.544-0.07195-1.3-0.32794-1.8068-0.61181-0.62128-0.348-1.2875-1.034-1.5794-1.6262-0.6806-1.3807-0.43992-2.7535 0.67672-3.8599 0.87678-0.86875 2.0718-1.3414 3.3915-1.3414 1.6636 0 3.117 0.70323 3.913 1.8934 0.3045 0.45526 0.55153 1.1412 0.55153 1.5313v0.24355h-5.5846v1.1242c0 1.2443 0.0314 1.4018 0.32046 1.6077 0.36441 0.25948 1.3087 0.26889 1.6472 0.01642 0.31496-0.23494 0.35797-0.35509 0.37753-1.0548l0.01827-0.65321h1.5284c1.2553 0 1.5284 0.01337 1.5284 0.07477 0 0.04113-0.08937 0.25341-0.1986 0.47174-0.49924 0.99793-1.6892 1.8427-2.9756 2.1126-0.49476 0.10378-1.3183 0.1364-1.8081 0.07162zm1.9163-5.3799c0-0.45576-0.01724-0.54688-0.15244-0.80569-0.44006-0.84237-1.7536-0.79709-2.1171 0.07299-0.05637 0.13492-0.08474 0.3775-0.08474 0.7247v0.52189h2.3543zm28.065 5.3827c-0.62168-0.08562-1.0159-0.20646-1.5931-0.48833-1.3828-0.67528-2.1783-1.8643-2.18-3.2581-2e-3 -1.6222 1.2313-3.0256 3.1107-3.5401 0.60762-0.16633 1.9381-0.17856 2.5459-0.02339 1.7497 0.44667 2.9569 1.6008 3.2103 3.0693 0.32415 1.8784-1.1323 3.7024-3.3247 4.1635-0.50217 0.10564-1.3072 0.1407-1.7692 0.07706zm1.4014-0.98687c0.15207-0.07758 0.2477-0.17893 0.32083-0.34 0.09665-0.21288 0.10427-0.38429 0.10538-2.3703 8.22e-4 -1.4579-0.01866-2.2002-0.06111-2.3269-0.16389-0.48951-0.5532-0.7577-1.1029-0.75979-0.52131-2e-3 -0.86518 0.19472-1.0986 0.62843-0.1151 0.21388-0.11786 0.2709-0.11786 2.4364 0 2.1316 0.0043 2.2247 0.11144 2.4071 0.13134 0.22357 0.39842 0.39263 0.70715 0.44761 0.33984 0.06053 0.89399 7.17e-4 1.1357-0.12257zm-24.977-2.5953v-3.4219h3.0063l0.03238 0.70692 0.62963-0.35366c0.9036-0.50755 1.2009-0.58837 2.0673-0.56204 0.62991 0.01914 0.73512 0.03735 1.0847 0.18768 0.21293 0.09157 0.53322 0.26214 0.71176 0.37906 0.48128 0.31517 1.0929 0.94497 1.2542 1.2914l0.13699 0.29427 0.001094 4.9002h-3.066v-2.3879c0-2.3654-0.0011-2.3899-0.12156-2.6042-0.14119-0.2512-0.66652-0.62579-0.95301-0.67954-0.46474-0.08719-1.1071 0.14529-1.5384 0.55672l-0.23406 0.22331v4.8916h-3.0113v-3.4219zm13.03 3.3654c-1.3809-0.16346-2.63-1.3681-3.0207-2.913-0.14007-0.55392-0.11682-1.3047 0.05726-1.8485 0.32704-1.0217 1.1655-1.8795 2.2389-2.2906 0.32396-0.12406 0.4528-0.14162 1.0535-0.1436 0.77024-0.0026 1.1588 0.09262 1.795 0.43968 0.18925 0.10323 0.35555 0.1877 0.36957 0.1877 0.01402 0 0.02549-0.83769 0.02549-1.8615v-1.8615h3.0113v10.074h-1.5056c-1.3019 0-1.5056-0.01111-1.5056-0.08212 0-0.10824-0.08026-0.10359-0.41618 0.02409-0.5694 0.21642-1.5336 0.34262-2.1028 0.27524zm2.039-1.2812c0.11245-0.0536 0.26028-0.18722 0.3285-0.29694 0.11983-0.1927 0.12465-0.25099 0.14156-1.7132 0.01942-1.6796-0.01854-2.039-0.25028-2.3687-0.39817-0.5666-1.2858-0.62485-1.7923-0.11762-0.33808 0.33859-0.35658 0.45778-0.35658 2.2972 0 1.7219 0.01758 1.8594 0.26617 2.0809 0.28386 0.25292 1.2382 0.32087 1.6629 0.1184zm-57.939-3.9739v-5.0379l3.2508 0.02902 2.1945 3.4613c1.207 1.9037 2.2248 3.4916 2.2619 3.5287 0.0534 0.0534 0.06743-0.66949 0.06743-3.475v-3.5424h3.0113v10.074h-3.0561l-2.2854-3.5451c-1.257-1.9498-2.3186-3.5812-2.3593-3.6253-0.06203-0.06734-0.07385 0.50002-0.07385 3.5451v3.6253h-3.0113zm12.702 1.6433v-3.3946h3.0113v6.7891h-3.0113zm4.7086 0v-3.3946h3.0113v0.3285c0 0.18068 0.01305 0.3285 0.029 0.3285s0.39802-0.19094 0.84903-0.42432l0.82003-0.42432h0.88931c0.84375 0 0.90691 0.0076 1.2329 0.14731 0.7884 0.33799 1.6686 1.076 1.9451 1.6311l0.14765 0.29629v4.9061h-3.066l-2.2e-4 -2.3953c-2.19e-4 -2.7248 0.02461-2.5716-0.47684-2.9395-0.3499-0.25668-0.7216-0.3791-1.0055-0.33114-0.33734 0.05699-0.94696 0.38603-1.1675 0.63017l-0.19701 0.21807v4.8178h-3.0113v-3.3946zm10.786-0.02738v-3.4219h-1.5878v-0.87601h1.5878v-1.4235h3.1208v1.4235h1.5878v0.87601h-1.5878v6.8439h-3.1208zm43.213-3.619c-0.28018-0.10314-0.66118-0.46143-0.80931-0.76107-0.16007-0.3238-0.15273-1.1172 0.0132-1.4299 0.19071-0.35928 0.38207-0.55235 0.70312-0.70943 0.97109-0.47511 2.1115 0.21027 2.2008 1.3226 0.0491 0.61247-0.24466 1.1625-0.79257 1.4836-0.31314 0.18352-0.94897 0.22905-1.3153 0.0942zm1.1462-0.24704c0.72571-0.36775 0.98-1.2744 0.54679-1.9495-0.50207-0.7824-1.4943-0.87766-2.0888-0.20054-0.24753 0.28192-0.34336 0.53842-0.34532 0.92428-2e-3 0.38724 0.11378 0.69231 0.36013 0.94912 0.41331 0.43089 1.0096 0.53892 1.5272 0.27667zm-0.40702-0.76191c-0.10945-0.19168-0.14739-0.21671-0.32903-0.21708-0.19823-3.83e-4 -0.20532 0.0062-0.20532 0.19121 0 0.13384-0.0248 0.19163-0.0821 0.19163-0.0686 0-0.0821-0.11254-0.0821-0.68438v-0.68438h0.40109c0.34846 0 0.41671 0.01663 0.52013 0.12672 0.16281 0.17331 0.16125 0.50568-3e-3 0.68073-0.11873 0.12639-0.11952 0.13485-0.0274 0.29541 0.11595 0.20204 0.11796 0.24534 0.0133 0.28551-0.0548 0.02103-0.12221-0.03981-0.20531-0.18535zm0.12947-0.62121c0.0848-0.18621-0.0186-0.34978-0.24839-0.39289-0.32961-0.06184-0.38621-0.02503-0.40474 0.26327l-0.0167 0.25957h0.3053c0.26819 0 0.31251-0.0158 0.36452-0.12995zm-59.576-0.49968v-0.90339h3.0113v1.8068h-3.0113z" fill="#fff" stroke-width=".054751"/>
 <style type="text/css">.st0{fill:#FC0C18;}
	.st1{fill:#FC0C18;}</style>
</svg>
