<?xml version="1.0" encoding="UTF-8" standalone="no"?>
<!-- Created with Inkscape (http://www.inkscape.org/) -->

<svg
   width="480"
   height="320"
   viewBox="0 0 127 84.666667"
   version="1.1"
   id="svg1543"
   inkscape:export-filename="/home/vitor/Dev/es-theme-material-tv-3-2/assets/logos/nesh.png"
   inkscape:export-xdpi="96"
   inkscape:export-ydpi="96"
   inkscape:version="1.1.1 (3bf5ae0d25, 2021-09-20)"
   sodipodi:docname="nesh.svg"
   xmlns:inkscape="http://www.inkscape.org/namespaces/inkscape"
   xmlns:sodipodi="http://sodipodi.sourceforge.net/DTD/sodipodi-0.dtd"
   xmlns:xlink="http://www.w3.org/1999/xlink"
   xmlns="http://www.w3.org/2000/svg"
   xmlns:svg="http://www.w3.org/2000/svg">
  <sodipodi:namedview
     id="namedview1545"
     pagecolor="#505050"
     bordercolor="#eeeeee"
     borderopacity="1"
     inkscape:pageshadow="0"
     inkscape:pageopacity="0"
     inkscape:pagecheckerboard="0"
     inkscape:document-units="px"
     showgrid="false"
     units="px"
     width="640px"
     inkscape:snap-page="true"
     showguides="true"
     inkscape:guide-bbox="true"
     inkscape:zoom="0.7910757"
     inkscape:cx="327.4023"
     inkscape:cy="136.52296"
     inkscape:window-width="1920"
     inkscape:window-height="1019"
     inkscape:window-x="0"
     inkscape:window-y="30"
     inkscape:window-maximized="1"
     inkscape:current-layer="g1363">
    <sodipodi:guide
       position="10.583333,76.729167"
       orientation="-1,0"
       id="guide2978"
       inkscape:label=""
       inkscape:locked="false"
       inkscape:color="rgb(0,0,255)" />
    <sodipodi:guide
       position="116.41667,7.9375"
       orientation="-1,0"
       id="guide2980"
       inkscape:label=""
       inkscape:locked="false"
       inkscape:color="rgb(0,0,255)" />
    <sodipodi:guide
       position="10.583333,76.729167"
       orientation="0,-1"
       id="guide2982" />
    <sodipodi:guide
       position="116.41667,7.9375"
       orientation="0,-1"
       id="guide2984" />
  </sodipodi:namedview>
  <defs
     id="defs1540">
    <clipPath
       clipPathUnits="userSpaceOnUse"
       id="clipPath2468">
      <path
         id="path2470"
         style="fill:#ff0000;fill-opacity:0.533212;stroke-width:2;stroke-linecap:square;stroke-linejoin:round;paint-order:stroke fill markers"
         d="m 200,0 h 96 l -16,160 h -96 z"
         sodipodi:nodetypes="ccccc" />
    </clipPath>
    <clipPath
       clipPathUnits="userSpaceOnUse"
       id="clipPath2484">
      <path
         id="path2486"
         style="fill:#ffff00;fill-opacity:0.364615;stroke-width:2;stroke-linecap:square;stroke-linejoin:round;paint-order:stroke fill markers"
         d="M 8,0 C 3.568,0 0,3.568 0,8 V 160 H 108 L 124,0 Z" />
    </clipPath>
    <clipPath
       clipPathUnits="userSpaceOnUse"
       id="clipPath2500">
      <path
         id="path2502"
         style="fill:#00ffff;fill-opacity:0.483071;stroke-width:2;stroke-linecap:square;stroke-linejoin:round;paint-order:stroke fill markers"
         d="M 104,0 H 220 L 204,160 H 88 Z"
         sodipodi:nodetypes="ccccc" />
    </clipPath>
    <clipPath
       clipPathUnits="userSpaceOnUse"
       id="clipPath2785">
      <path
         id="path2787"
         style="fill:#00ff00;fill-opacity:0.338442;stroke-width:2;stroke-linecap:square;stroke-linejoin:round;paint-order:stroke fill markers"
         d="M 276,0 H 392 L 376,160 H 260 Z"
         sodipodi:nodetypes="ccccc" />
    </clipPath>
    <clipPath
       clipPathUnits="userSpaceOnUse"
       id="clipPath2801">
      <path
         id="path2803"
         style="fill:#ff00ff;fill-opacity:0.431544;stroke-width:2;stroke-linecap:square;stroke-linejoin:round;paint-order:stroke fill markers"
         d="M 372,0 356,160 H 480 V 8 c 0,-4.432 -3.568,-8 -8,-8 z" />
    </clipPath>
    <clipPath
       id="clip1">
      <path
         d="m 249,0 h 75 v 124.51172 h -75 z m 0,0"
         id="path2" />
    </clipPath>
    <clipPath
       id="clip2">
      <path
         d="m 421,0 h 90 v 124.51172 h -90 z m 0,0"
         id="path5" />
    </clipPath>
    <clipPath
       id="clip3">
      <path
         d="m 513,0 h 28 v 124.51172 h -28 z m 0,0"
         id="path8" />
    </clipPath>
    <clipPath
       id="clip4">
      <path
         d="m 659,4 h 86.87109 V 124 H 659 Z m 0,0"
         id="path11" />
    </clipPath>
    <linearGradient
       inkscape:collect="always"
       xlink:href="#linearGradient2856-6"
       id="linearGradient2858-3"
       x1="116.41667"
       y1="7.9375"
       x2="62.174049"
       y2="76.729164"
       gradientUnits="userSpaceOnUse"
       gradientTransform="translate(90.01723,19.876264)" />
    <linearGradient
       inkscape:collect="always"
       id="linearGradient2856-6">
      <stop
         style="stop-color:#cc3b02;stop-opacity:1"
         offset="0"
         id="stop2852-7" />
      <stop
         style="stop-color:#a10705;stop-opacity:1"
         offset="1"
         id="stop2854-5" />
    </linearGradient>
  </defs>
  <g
     inkscape:label="Camada 1"
     inkscape:groupmode="layer"
     id="layer1"
     style="display:inline">
    <g
       id="g1363"
       transform="translate(-90.017227,-19.876263)">
      <rect
         style="fill:url(#linearGradient2858-3);fill-opacity:1;stroke-width:0.529167;stroke-linecap:square;stroke-linejoin:round;paint-order:stroke fill markers"
         id="rect1569-3"
         width="127"
         height="84.666664"
         x="90.017227"
         y="19.876265"
         ry="4.2333331" />
      <path
         style="fill:#ffffff;stroke-width:0.0547508"
         d="m 128.37123,76.906309 0.0154,-0.670697 2.63336,-0.02738 c 2.85234,-0.02965 2.7349,-0.01607 2.90008,-0.335486 0.11593,-0.224189 0.0969,-0.353958 -0.0812,-0.553351 l -0.15967,-0.178803 -1.90855,-0.02738 -1.90856,-0.02738 -0.3545,-0.175659 c -0.45238,-0.224157 -0.88762,-0.606884 -1.03398,-0.909221 -0.16172,-0.334069 -0.16172,-1.054974 0,-1.389042 0.13831,-0.285713 0.55458,-0.660635 1.0046,-0.904807 l 0.33189,-0.180074 2.8881,-0.01553 2.88811,-0.01553 v 0.684667 0.684669 l -2.56933,0.01525 c -2.51333,0.01492 -2.57269,0.01775 -2.72385,0.130343 -0.3051,0.227244 -0.30513,0.58275 -6e-5,0.810077 0.1483,0.110513 0.23112,0.116184 2.08053,0.142469 l 1.92609,0.02738 0.26689,0.156871 c 0.36056,0.211927 0.67765,0.504672 0.8647,0.7983 0.14625,0.229593 0.15504,0.277765 0.15485,0.848637 -1.7e-4,0.50716 -0.0178,0.634119 -0.10892,0.783528 -0.16846,0.276293 -0.57862,0.642282 -0.92925,0.829164 l -0.31835,0.169678 h -2.93687 -2.93688 l 0.0154,-0.670697 z m 10.5549,-0.314817 v -0.985515 h -0.76869 c -0.66918,0 -0.79744,-0.01466 -0.99073,-0.113274 -0.3182,-0.162336 -0.69169,-0.557572 -0.84657,-0.895863 -0.13172,-0.287735 -0.13327,-0.309538 -0.11882,-1.680658 l 0.0146,-1.38914 0.94446,-0.01498 0.94445,-0.01498 v 1.183911 1.18391 l 0.18615,0.186153 0.18615,0.186153 h 1.40434 c 1.98451,0 1.89166,0.07914 1.89166,-1.61243 v -1.125112 h 0.93077 0.93076 v 1.480992 c 0,1.666505 0.009,1.623885 -0.42435,2.08681 -0.44606,0.47688 -0.52885,0.50732 -1.46455,0.53851 l -0.82126,0.02738 -0.0149,0.971826 -0.0149,0.971827 h -0.98425 -0.98426 z m 5.58459,0.301129 v -0.684384 h 2.60614 2.60613 l 0.18616,-0.186154 c 0.24894,-0.248943 0.2552,-0.493673 0.0184,-0.720679 l -0.16773,-0.160808 -1.89912,-0.02738 c -1.78506,-0.02573 -1.91391,-0.0343 -2.14549,-0.142722 -0.34942,-0.163583 -0.81841,-0.530648 -1.02521,-0.802399 -0.1751,-0.230085 -0.17658,-0.237298 -0.17794,-0.864557 -0.001,-0.617339 0.003,-0.63789 0.16251,-0.855382 0.22003,-0.299189 0.69357,-0.656829 1.0802,-0.815821 l 0.31632,-0.130073 2.80598,-0.0013 2.80598,-0.0013 v 0.682824 0.682825 l -2.56933,0.01525 c -2.51333,0.01492 -2.5727,0.01775 -2.72386,0.130343 -0.30509,0.227244 -0.30513,0.58275 -5e-5,0.810077 0.1483,0.110513 0.23112,0.116184 2.08053,0.142469 2.20348,0.03132 2.12411,0.0147 2.70795,0.566868 0.44432,0.420224 0.50478,0.573742 0.50478,1.28176 0,0.559454 -0.009,0.608 -0.1569,0.841131 -0.18664,0.294294 -0.53113,0.587642 -0.91871,0.782312 l -0.28171,0.141483 h -2.90753 -2.90753 z m 10.5669,-1.604198 c 0,-1.70701 -0.0167,-2.30528 -0.0657,-2.354286 -0.0471,-0.04708 -0.40394,-0.0657 -1.25926,-0.0657 h -1.19357 v -0.684385 -0.684385 h 3.47836 3.47836 l -0.0154,0.670697 -0.0154,0.670698 -1.17287,0.01481 c -0.75256,0.0095 -1.19894,0.03643 -1.24558,0.07515 -0.0583,0.0484 -0.0727,0.513963 -0.0727,2.353168 v 2.292831 h -0.95814 -0.95814 z m 6.41031,2.201614 c -0.16318,-0.04387 -0.37638,-0.129019 -0.47378,-0.189221 -0.26799,-0.165623 -0.5567,-0.512277 -0.62175,-0.746512 -0.037,-0.133213 -0.0582,-1.109006 -0.0584,-2.686665 l -3.1e-4,-2.477475 h 3.33981 3.3398 v 0.739136 0.739136 h -2.32271 -2.32271 l -0.16195,0.136278 c -0.19013,0.15998 -0.23818,0.341509 -0.14749,0.557193 0.13731,0.326578 0.0695,0.317006 2.45836,0.346795 l 2.19537,0.02738 0.0155,0.588571 0.0155,0.588572 -2.12345,2.19e-4 c -2.03249,2.19e-4 -2.1312,0.005 -2.30448,0.110579 -0.35661,0.217417 -0.38751,0.565019 -0.079,0.888418 l 0.14363,0.150565 h 2.31667 2.31667 v 0.65701 0.65701 l -2.61436,-0.0036 c -2.10848,-0.0029 -2.67175,-0.01904 -2.91102,-0.08336 z m 6.89414,-2.951701 v -3.03867 l 4.44851,5.47e-4 4.4485,5.48e-4 0.28441,0.132417 c 0.37003,0.172284 0.72623,0.504515 0.89489,0.834685 l 0.13472,0.263722 0.0153,2.422723 0.0153,2.422724 h -0.9324 -0.93241 v -2.110626 c 0,-2.730763 0.0576,-2.59797 -1.12718,-2.59797 -0.82135,0 -0.95731,0.05471 -1.06066,0.426809 -0.034,0.122222 -0.0565,1.013821 -0.0566,2.243557 l -5.5e-4,2.040731 -0.97182,-0.01495 -0.97183,-0.01495 -0.0274,-2.172807 -0.0274,-2.172807 -0.16081,-0.167791 -0.16057,-0.16779 h -0.74602 -0.74602 l -0.16081,0.167795 -0.16081,0.167795 -0.0155,2.18649 -0.0155,2.18649 h -0.98371 -0.98371 z m -66.41983,-5.339161 c -0.62827,-0.10616 -1.12916,-0.495193 -1.27654,-0.991478 -0.0714,-0.240532 -0.0851,-0.677514 -0.0851,-2.713183 V 63.06804 h 3.3398 3.3398 v 0.71176 0.711761 h -2.21917 c -2.3812,0 -2.48528,0.01091 -2.67387,0.280153 -0.14515,0.207233 -0.11247,0.419375 0.0969,0.628711 l 0.18615,0.186152 h 2.16813 2.16814 v 0.60226 0.602259 h -2.12719 c -2.12385,0 -2.12747,2.19e-4 -2.3125,0.124883 -0.32931,0.221924 -0.34984,0.5691 -0.0513,0.867646 l 0.15724,0.157238 h 2.30374 2.30375 v 0.65701 0.657009 l -2.53222,-0.0064 c -1.39273,-0.0035 -2.64629,-0.02571 -2.78569,-0.04927 z m 6.74144,-2.9817 v -3.039933 l 3.35349,5.47e-4 3.35348,5.47e-4 0.28275,0.13165 c 0.35145,0.163633 0.67961,0.486484 0.87884,0.864613 l 0.15243,0.289287 v 2.381661 2.38166 l -0.94445,0.01498 -0.94445,0.01498 -8e-4,-2.122888 c -8.7e-4,-2.282294 -0.001,-2.286014 -0.29065,-2.500863 -0.14913,-0.110729 -0.21431,-0.114781 -1.8466,-0.114781 h -1.69202 l -0.15181,0.151756 -0.15181,0.151756 -0.0274,2.20253 -0.0274,2.202529 -0.97182,0.01495 -0.97183,0.01495 z m 11.38817,0.777006 c 0,-1.866818 -0.0136,-2.281593 -0.0776,-2.369266 -0.072,-0.09851 -0.164,-0.107564 -1.25927,-0.123861 l -1.18164,-0.01758 V 63.83066 63.177546 h 3.44931 3.4493 v 0.652304 0.652305 l -1.17267,0.0184 c -0.64496,0.01014 -1.19315,0.0389 -1.2182,0.06397 -0.0251,0.02507 -0.0579,1.084495 -0.0729,2.354284 l -0.0274,2.30871 -0.94445,0.01498 -0.94446,0.01498 z m 6.58249,2.199513 c -0.36232,-0.06034 -0.75406,-0.258083 -0.98144,-0.495419 -0.34843,-0.363675 -0.34497,-0.332452 -0.34497,-3.110239 V 63.06804 h 3.3398 3.3398 v 0.709522 0.709522 l -2.31322,0.01592 c -2.58397,0.01779 -2.54109,0.0113 -2.67087,0.404535 -0.0525,0.159001 -0.0461,0.215314 0.0413,0.36496 0.18245,0.312411 0.18226,0.312385 2.4927,0.313264 l 2.12159,8.07e-4 v 0.60226 0.602259 h -2.13338 -2.13337 l -0.18775,0.164843 c -0.10326,0.09067 -0.20319,0.226384 -0.22207,0.301601 -0.042,0.167152 0.077,0.41292 0.27542,0.568986 0.14214,0.111812 0.19595,0.114337 2.4375,0.114337 h 2.29216 v 0.657009 0.65701 l -2.53223,-0.0064 c -1.39272,-0.0035 -2.66216,-0.02804 -2.82097,-0.05448 z m 6.72196,-2.977782 v -3.03867 h 3.15089 c 2.63779,0 3.17576,0.01286 3.30361,0.07897 0.2378,0.122971 0.72941,0.687605 0.8958,1.028857 0.13374,0.274303 0.15056,0.370195 0.15056,0.858414 0,0.545115 -0.002,0.553471 -0.24638,1.020628 -0.13551,0.259057 -0.24638,0.525893 -0.24638,0.592968 0,0.06708 0.0499,0.269843 0.11099,0.450596 0.0959,0.284033 0.10892,0.443402 0.0958,1.174086 l -0.0152,0.845444 h -0.82126 -0.82127 l -0.0291,-0.657009 c -0.016,-0.361356 -0.0498,-0.701038 -0.0751,-0.75485 -0.10885,-0.23175 -0.28472,-0.258036 -1.72637,-0.258036 h -1.37063 l -0.1788,0.159627 -0.17881,0.159629 -0.0182,0.68901 -0.0181,0.68901 h -0.98105 -0.98105 z m 5.36979,-0.187416 c 0.15334,-0.153338 0.16004,-0.180821 0.16004,-0.656146 0,-0.47069 -0.008,-0.505266 -0.15967,-0.67491 l -0.15967,-0.178804 -1.33943,-0.01715 c -1.50508,-0.01929 -1.65725,0.0077 -1.81958,0.321521 -0.0695,0.13434 -0.0866,0.285829 -0.0721,0.638689 0.0176,0.42777 0.0306,0.472519 0.17262,0.594711 l 0.15361,0.132137 h 1.45206 1.45205 z m 5.50737,3.189586 c -0.0201,-0.02007 -0.0369,-1.048706 -0.0373,-2.285847 -4.9e-4,-1.320027 -0.0223,-2.283277 -0.0527,-2.331472 -0.0429,-0.068 -0.25945,-0.08528 -1.25843,-0.100445 l -1.20657,-0.01831 v -0.652382 -0.652381 h 3.47668 3.47667 v 0.653114 0.653115 l -1.16886,0.01758 c -0.88965,0.01338 -1.19046,0.03553 -1.25927,0.09273 -0.0814,0.06767 -0.0904,0.303419 -0.0904,2.367973 v 2.29283 h -0.92164 c -0.5069,0 -0.93806,-0.01642 -0.95814,-0.0365 z m 5.25608,0 c -0.0201,-0.02007 -0.0365,-1.013437 -0.0365,-2.207472 0,-1.76153 0.0153,-2.222653 0.0814,-2.445016 0.10892,-0.366779 0.57111,-1.013807 0.87212,-1.220909 l 0.24337,-0.167443 2.56343,2.19e-4 c 2.46064,2.18e-4 2.57057,0.0046 2.74172,0.108915 0.30354,0.185071 0.66928,0.612642 0.86676,1.013271 l 0.18891,0.383256 -0.0147,2.27216 -0.0147,2.272158 -0.97183,0.01495 -0.97183,0.01495 v -0.850649 -0.850649 l -1.79309,0.01443 -1.79309,0.01443 -0.0151,0.834951 -0.0151,0.83495 h -0.94759 c -0.52117,0 -0.96401,-0.01642 -0.98409,-0.0365 z m 5.54788,-3.618117 c 0,-0.487148 -0.0186,-0.618776 -0.10708,-0.763853 -0.20505,-0.336287 -0.29811,-0.353769 -1.78135,-0.334654 -1.3248,0.01707 -1.33393,0.018 -1.47432,0.14999 -0.18968,0.178326 -0.24993,0.426437 -0.25029,1.030643 l -3.1e-4,0.506446 h 1.80678 1.80677 v -0.588572 z m 3.34,0.617239 v -3.039962 h 0.95861 0.9586 l -0.0141,3.024982 -0.0142,3.024983 -0.94445,0.01498 -0.94446,0.01498 z m 3.0478,3.000878 c -0.0201,-0.02007 -0.0365,-1.387477 -0.0365,-3.038671 v -3.002169 h 3.3838 3.3838 l 0.27906,0.139057 c 0.33833,0.168599 0.74783,0.593537 0.90977,0.944065 0.11673,0.252683 0.11932,0.309225 0.11932,2.612558 v 2.354285 l -0.94445,0.01498 -0.94446,0.01498 v -2.128478 c 0,-2.126652 0,-2.128637 -0.12519,-2.314515 -0.20807,-0.309201 -0.3571,-0.331061 -2.12875,-0.312228 l -1.56998,0.01669 -0.14127,0.132812 c -0.0777,0.07305 -0.16574,0.220874 -0.19564,0.328505 -0.0315,0.113321 -0.0545,1.054165 -0.0547,2.235161 l -3.1e-4,2.039469 h -0.94901 c -0.52196,0 -0.96544,-0.01642 -0.98552,-0.0365 z m 9.43539,-3.001839 v -3.040867 l 4.50326,0.01462 c 4.25694,0.01382 4.51441,0.02016 4.70722,0.116033 0.31809,0.158151 0.66032,0.488856 0.83814,0.809891 l 0.16241,0.293214 0.0158,2.422723 0.0158,2.422724 h -0.92999 -0.92999 l -0.0166,-2.148969 c -0.0157,-2.026608 -0.0227,-2.157968 -0.12362,-2.307005 -0.16105,-0.237863 -0.39061,-0.307347 -1.01538,-0.307347 -0.66386,0 -0.8746,0.07219 -1.00346,0.343731 -0.0807,0.169993 -0.0916,0.4444 -0.0916,2.30627 v 2.11332 h -0.98551 -0.98552 v -2.163462 -2.16346 l -0.18751,-0.204513 -0.1875,-0.204511 h -0.74208 c -0.73793,0 -0.7429,8.44e-4 -0.89381,0.151756 l -0.15176,0.151756 -0.0274,2.20253 -0.0274,2.202529 -0.97182,0.01495 -0.97183,0.01495 z m 12.98833,2.977451 c -0.36231,-0.06034 -0.75405,-0.258083 -0.98143,-0.495419 -0.34843,-0.363675 -0.34497,-0.332452 -0.34497,-3.110239 V 63.06804 h 3.3398 3.3398 v 0.71176 0.711761 h -2.2502 c -1.96925,0 -2.27375,0.01118 -2.43882,0.08951 -0.36366,0.172566 -0.43523,0.579286 -0.14923,0.848067 l 0.13839,0.130065 2.18568,0.01549 2.18567,0.01549 v 0.600457 0.60046 h -2.14172 -2.14173 l -0.21933,0.219338 c -0.19202,0.192014 -0.21511,0.241465 -0.18534,0.396944 0.0195,0.101759 0.11556,0.253593 0.22498,0.355545 l 0.19097,0.17794 h 2.30034 2.30034 v 0.65701 0.657009 l -2.53223,-0.0064 c -1.39272,-0.0035 -2.66216,-0.02804 -2.82097,-0.05449 z m 6.44821,-2.977782 v -3.03867 h 3.35843 3.35844 l 0.33267,0.166239 c 0.36234,0.181063 0.64986,0.463354 0.8459,0.830496 0.12472,0.233585 0.12566,0.251369 0.1414,2.659184 l 0.0158,2.424026 -0.94661,-0.01499 -0.94661,-0.01499 -0.0274,-2.175347 -0.0274,-2.175347 -0.17891,-0.178937 -0.1789,-0.17894 -1.57313,-0.01755 c -1.76134,-0.01965 -1.92604,0.0024 -2.09566,0.280597 -0.10099,0.165553 -0.10669,0.290477 -0.10688,2.323928 v 2.148969 h -0.98552 -0.98552 v -3.03867 z m 11.69843,3.00217 c -0.0201,-0.02007 -0.0365,-1.065731 -0.0365,-2.323679 0,-1.769618 -0.0155,-2.297201 -0.0684,-2.331472 -0.0377,-0.02437 -0.59201,-0.05221 -1.2319,-0.06187 l -1.16348,-0.01759 V 63.830654 63.17754 h 3.4493 3.4493 v 0.652304 0.652305 l -1.16882,0.0184 c -0.88864,0.01399 -1.19052,0.03641 -1.25928,0.09353 -0.0814,0.06768 -0.0904,0.303083 -0.0904,2.367973 v 2.29283 h -0.92163 c -0.5069,0 -0.93807,-0.01642 -0.95814,-0.0365 z m -82.92924,-9.003134 c -3.08987,-0.26995 -6.02702,-1.934838 -7.85207,-4.450838 -2.92133,-4.027336 -2.78413,-9.476749 0.33581,-13.337428 0.3918,-0.484829 1.33041,-1.40515 1.79479,-1.759833 1.64625,-1.25735 3.60818,-2.032424 5.65883,-2.235561 0.78863,-0.07813 68.21317,-0.07813 69.0018,0 2.13998,0.211985 4.18681,1.04946 5.8557,2.395901 0.63138,0.509395 1.55962,1.507387 2.04142,2.194852 0.73957,1.055252 1.31162,2.27823 1.6208,3.465147 0.2851,1.094448 0.34838,1.609915 0.34838,2.838097 0,1.229957 -0.0654,1.762417 -0.34619,2.819666 -1.18229,4.451103 -5.04246,7.675425 -9.66487,8.072875 -0.80283,0.06903 -68.00352,0.06622 -68.7944,-0.0029 z m 69.56091,-2.667801 c 2.9917,-0.687742 5.28543,-2.702111 6.26368,-5.500801 0.52363,-1.498043 0.58615,-3.393208 0.16245,-4.92386 -0.37772,-1.364491 -1.0624,-2.568583 -2.04335,-3.593385 -1.27447,-1.331459 -2.85016,-2.164716 -4.67936,-2.474538 -0.62612,-0.10605 -1.07212,-0.107218 -35.07245,-0.09188 l -34.43826,0.01554 -0.49276,0.122313 c -1.73362,0.43032 -2.92208,1.06785 -4.09749,2.198018 -1.34116,1.289536 -2.17891,2.916579 -2.47636,4.809448 -0.12158,0.773657 -0.0825,2.152334 0.0829,2.925454 0.7478,3.49548 3.63994,6.159701 7.17535,6.60989 0.19574,0.02492 15.81614,0.04179 34.71202,0.03749 l 34.35614,-0.0079 z m -34.30139,-2.753595 c -0.544,-0.07195 -1.29998,-0.32794 -1.80677,-0.611813 -0.62128,-0.348001 -1.28753,-1.033956 -1.57945,-1.626157 -0.6806,-1.380701 -0.43992,-2.753523 0.67672,-3.859932 0.87677,-0.868746 2.0718,-1.341395 3.39153,-1.341395 1.66365,0 3.11699,0.703231 3.91302,1.893404 0.3045,0.455257 0.55153,1.141157 0.55153,1.531348 v 0.243553 h -2.79229 -2.79229 v 1.12415 c 0,1.244301 0.0314,1.401835 0.32045,1.607662 0.36441,0.259479 1.30873,0.268892 1.64719,0.01642 0.31496,-0.234943 0.35797,-0.355094 0.37754,-1.054754 l 0.0183,-0.65321 h 1.52843 c 1.25528,0 1.52844,0.01337 1.52844,0.07477 0,0.04113 -0.0894,0.253408 -0.1986,0.471745 -0.49924,0.99793 -1.68916,1.842738 -2.9756,2.112593 -0.49477,0.103784 -1.31828,0.136403 -1.80812,0.07162 z m 1.91628,-5.379889 c 0,-0.455764 -0.0172,-0.546883 -0.15244,-0.805694 -0.44006,-0.842366 -1.75357,-0.797086 -2.1171,0.07299 -0.0564,0.134923 -0.0847,0.377504 -0.0847,0.724701 v 0.521891 h 1.17714 1.17714 z m 28.0651,5.38266 c -0.62167,-0.08562 -1.01588,-0.206457 -1.59308,-0.488334 -1.38276,-0.675281 -2.17831,-1.864263 -2.17997,-3.258054 -0.002,-1.622162 1.2313,-3.025598 3.11074,-3.540087 0.60762,-0.166333 1.93809,-0.178556 2.54591,-0.02339 1.7497,0.446666 2.95691,1.600841 3.21032,3.06926 0.32415,1.87839 -1.13234,3.70237 -3.32468,4.163543 -0.50217,0.105635 -1.30718,0.140698 -1.76924,0.07706 z m 1.40143,-0.986871 c 0.15207,-0.07758 0.2477,-0.17893 0.32083,-0.340005 0.0966,-0.212884 0.10428,-0.384293 0.10539,-2.370278 8.2e-4,-1.457912 -0.0187,-2.200167 -0.0611,-2.326911 -0.1639,-0.489507 -0.55321,-0.757703 -1.10291,-0.759791 -0.5213,-0.002 -0.86517,0.194724 -1.09858,0.628433 -0.1151,0.213877 -0.11786,0.270902 -0.11786,2.43641 0,2.131627 0.004,2.224747 0.11144,2.4071 0.13134,0.223571 0.39842,0.39263 0.70714,0.447614 0.33984,0.06053 0.89399,7.17e-4 1.13566,-0.122572 z m -24.97696,-2.595264 v -3.421927 h 1.50315 1.50314 l 0.0162,0.353462 0.0162,0.353462 0.62963,-0.353659 c 0.90361,-0.507546 1.2009,-0.588371 2.06735,-0.562039 0.62991,0.01914 0.73513,0.03735 1.08471,0.187679 0.21293,0.09157 0.53322,0.262139 0.71176,0.37906 0.48128,0.315169 1.09293,0.944967 1.25421,1.291424 l 0.13699,0.294266 5.4e-4,2.450099 5.5e-4,2.450099 h -1.53302 -1.53302 V 52.24852 c 0,-2.365435 -0.001,-2.389928 -0.12156,-2.60419 -0.14119,-0.251204 -0.66652,-0.625793 -0.95301,-0.679538 -0.46474,-0.08719 -1.10715,0.145293 -1.53841,0.556723 l -0.23406,0.223306 v 2.445796 2.445797 h -1.50565 -1.50565 v -3.421926 z m 13.03028,3.365373 c -1.38087,-0.16346 -2.63002,-1.368074 -3.0207,-2.913008 -0.14008,-0.553915 -0.11682,-1.304676 0.0573,-1.848511 0.32704,-1.021683 1.16553,-1.879534 2.23887,-2.290551 0.32396,-0.124056 0.4528,-0.141619 1.05349,-0.143601 0.77025,-0.0026 1.15878,0.09262 1.79497,0.439678 0.18925,0.103228 0.35556,0.187697 0.36957,0.187697 0.014,0 0.0255,-0.837688 0.0255,-1.861528 V 44.28851 h 1.50565 1.50565 v 5.037075 5.037074 h -1.50565 c -1.30185,0 -1.50565,-0.01111 -1.50565,-0.08212 0,-0.108236 -0.0803,-0.103591 -0.41618,0.02409 -0.56939,0.216418 -1.53355,0.34262 -2.10277,0.27524 z m 2.03902,-1.281177 c 0.11245,-0.0536 0.26028,-0.187219 0.3285,-0.296936 0.11984,-0.192699 0.12466,-0.250992 0.14156,-1.713179 0.0194,-1.679642 -0.0185,-2.038969 -0.25028,-2.368739 -0.39817,-0.566596 -1.28585,-0.624851 -1.7923,-0.117624 -0.33808,0.338594 -0.35658,0.457779 -0.35658,2.297204 0,1.721923 0.0176,1.859388 0.26616,2.080875 0.28386,0.252924 1.23815,0.320868 1.66294,0.118399 z M 117.90182,49.32477 v -5.03789 l 1.62539,0.01451 1.62539,0.01451 2.19449,3.461266 c 1.20697,1.903697 2.22484,3.491608 2.26192,3.52869 0.0534,0.0534 0.0674,-0.669487 0.0674,-3.474954 v -3.542377 h 1.50565 1.50565 v 5.037075 5.037075 h -1.52807 -1.52805 l -2.2854,-3.545123 c -1.25697,-1.949814 -2.31863,-3.581192 -2.35925,-3.625286 -0.062,-0.06734 -0.0738,0.500015 -0.0738,3.545115 v 3.625286 h -1.50565 -1.50565 z m 12.70219,1.643339 v -3.39455 h 1.50565 1.50564 v 3.39455 3.39455 h -1.50564 -1.50565 z m 4.70857,0 v -3.39455 h 1.50565 1.50564 v 0.328505 c 0,0.180677 0.013,0.328505 0.029,0.328505 0.016,0 0.39802,-0.190944 0.84903,-0.424319 l 0.82003,-0.42432 h 0.88931 c 0.84375,0 0.90691,0.0076 1.23293,0.14731 0.78841,0.337988 1.66856,1.07602 1.94514,1.631059 l 0.14765,0.296287 v 2.453037 2.453036 h -1.53302 -1.53303 l -2.1e-4,-2.395348 c -2.2e-4,-2.724791 0.0246,-2.571629 -0.47685,-2.939499 -0.3499,-0.256685 -0.7216,-0.379104 -1.00546,-0.331145 -0.33735,0.05699 -0.94696,0.386033 -1.16752,0.63017 l -0.19701,0.218067 v 2.408878 2.408877 h -1.50565 -1.50565 v -3.39455 z m 10.78591,-0.02738 v -3.421927 h -0.79389 -0.79388 v -0.438006 -0.438007 h 0.79388 0.79389 v -0.71176 -0.711761 h 1.5604 1.5604 v 0.711761 0.71176 h 0.79388 0.79389 v 0.438007 0.438006 h -0.79389 -0.79388 v 3.421927 3.421925 h -1.5604 -1.5604 z m 43.21259,-3.618997 c -0.28018,-0.103135 -0.66118,-0.461427 -0.80931,-0.761067 -0.16007,-0.323798 -0.15273,-1.117222 0.0132,-1.429898 0.19071,-0.359275 0.38207,-0.552352 0.70312,-0.709431 0.97109,-0.475109 2.11154,0.210272 2.20083,1.322638 0.0491,0.612473 -0.24466,1.162469 -0.79257,1.483563 -0.31314,0.183517 -0.94897,0.22905 -1.31531,0.0942 z m 1.14618,-0.247035 c 0.72571,-0.36775 0.98,-1.274419 0.54679,-1.949531 -0.50207,-0.782402 -1.49425,-0.877663 -2.08876,-0.200545 -0.24753,0.281918 -0.34336,0.538422 -0.34532,0.924284 -0.002,0.387242 0.11378,0.692307 0.36013,0.949123 0.41331,0.430887 1.00964,0.53892 1.52716,0.276669 z m -0.40702,-0.76191 c -0.10945,-0.191679 -0.14739,-0.216709 -0.32903,-0.217082 -0.19823,-3.83e-4 -0.20532,0.0062 -0.20532,0.191206 0,0.133836 -0.0248,0.191628 -0.0821,0.191628 -0.0686,0 -0.0821,-0.112544 -0.0821,-0.684385 v -0.684385 h 0.40109 c 0.34846,0 0.41671,0.01663 0.52013,0.126718 0.16281,0.173306 0.16125,0.505681 -0.003,0.680727 -0.11873,0.12639 -0.11952,0.134852 -0.0274,0.295407 0.11595,0.202039 0.11796,0.245337 0.0133,0.285514 -0.0548,0.02103 -0.12221,-0.03981 -0.20531,-0.185348 z m 0.12947,-0.62121 c 0.0848,-0.186214 -0.0186,-0.349777 -0.24839,-0.392891 -0.32961,-0.06184 -0.38621,-0.02503 -0.40474,0.263269 l -0.0167,0.259574 h 0.3053 c 0.26819,0 0.31251,-0.0158 0.36452,-0.129952 z m -59.5757,-0.499679 V 44.28851 h 1.50565 1.50564 v 0.903388 0.903389 h -1.50564 -1.50565 z"
         id="path4656" />
    </g>
  </g>
  <g
     inkscape:groupmode="layer"
     id="layer3"
     inkscape:label="Camada 3"
     sodipodi:insensitive="true"
     style="display:inline">
    <text
       xml:space="preserve"
       style="font-style:normal;font-weight:normal;font-size:10.5833px;line-height:1.25;font-family:sans-serif;display:inline;fill:#ffffff;fill-opacity:1;stroke:none;stroke-width:0.264583"
       x="48.880257"
       y="71.306084"
       id="text2121"><tspan
         sodipodi:role="line"
         id="tspan2119"
         style="font-style:normal;font-variant:normal;font-weight:300;font-stretch:normal;font-size:10.5833px;font-family:Inter;-inkscape-font-specification:'Inter, Light';font-variant-ligatures:normal;font-variant-caps:normal;font-variant-numeric:normal;font-variant-east-asian:normal;fill:#ffffff;stroke-width:0.264583"
         x="48.880257"
         y="71.306084">hacks</tspan></text>
  </g>
  <g
     inkscape:groupmode="layer"
     id="layer2"
     inkscape:label="Camada 2"
     style="display:inline;mix-blend-mode:multiply"
     sodipodi:insensitive="true">
    <rect
       style="fill:#00ff66;fill-opacity:1;stroke:none;stroke-width:1.00012;stroke-linecap:square;stroke-linejoin:round;paint-order:stroke markers fill"
       id="rect10353"
       width="127"
       height="84.666664"
       x="0"
       y="0"
       ry="4.2333331" />
  </g>
  <style
     type="text/css"
     id="style3952">
	.st0{fill:#FC0C18;}
	.st1{fill:#FC0C18;}
</style>
  <style
     type="text/css"
     id="style3952-7">
	.st0{fill:#FC0C18;}
	.st1{fill:#FC0C18;}
</style>
</svg>
