<svg width="480" height="320" version="1.1" viewBox="0 0 480 320" xml:space="preserve" xmlns="http://www.w3.org/2000/svg"><defs><linearGradient id="a" x1="116.4" x2="62.17" y1="7.938" y2="76.73" gradientTransform="scale(3.78)" gradientUnits="userSpaceOnUse"><stop stop-color="#2a7329" offset="0"/><stop stop-color="#29332d" offset="1"/></linearGradient></defs><rect width="480" height="320" ry="24" fill="url(#a)"/><path d="m192.6 256v23.97h6.422v-9.482h4.703v9.482h6.422v-23.97h-6.422v9.82h-4.703v-9.82zm25.2 0-6.16 23.97h6.422l0.7851-3.584h5.748l0.748 3.584h6.57l-6.16-23.97h-7.953zm20.91 0c-3.659 0-5.488 1.545-5.488 4.631v14.71c0 3.086 1.83 4.629 5.488 4.629h5.264c3.659 0 5.488-1.543 5.488-4.629v-4.182h-6.533v3.695c0 0.5476-0.3114 0.8223-0.9336 0.8223h-1.307c-0.6222 0-0.9336-0.2747-0.9336-0.8223v-13.74c0-0.5476 0.3114-0.8203 0.9336-0.8203h1.307c0.6222 0 0.9336 0.2728 0.9336 0.8203v3.846h6.533v-4.33c0-3.086-1.83-4.631-5.488-4.631h-5.264zm13.18 0v23.97h6.533v-23.97zm11.01 0-4.443 11.72 4.48 12.25h7.018l-4.703-12.25 4.666-11.72zm13.85 0c-3.634 0-5.449 1.545-5.449 4.631v4.928c0 1.518 0.3725 2.688 1.119 3.51 0.7716 0.7964 2.078 1.193 3.92 1.193h3.584c0.6222 0 0.9336 0.2747 0.9336 0.8223v3.396c0 0.5476-0.3114 0.8223-0.9336 0.8223h-1.082c-0.6222 0-0.9336-0.2747-0.9336-0.8223v-2.016h-6.533v2.875c0 3.086 1.83 4.629 5.488 4.629h5.076c3.634 0 5.451-1.543 5.451-4.629v-4.928c0-1.493-0.3989-2.627-1.195-3.398-0.7716-0.7716-2.078-1.156-3.92-1.156h-3.508c-0.6222 0-0.9336-0.2747-0.9336-0.8223v-3.547c0-0.5476 0.3114-0.8203 0.9336-0.8203h1.082c0.6222 0 0.9336 0.2728 0.9336 0.8203v2.016h6.533v-2.873c0-3.086-1.817-4.631-5.451-4.631h-5.115zm-54.99 7.131 1.828 8.625h-3.732z" fill="#afa"/><path d="m99.72 60.47c-1.85-0.007815-3.663 0.06827-5.436 0.2246-3.544 0.3127-6.927 0.9452-10.13 1.863-4.803 1.377-9.2 3.398-13.12 5.945-2.614 1.698-5.016 3.631-7.188 5.764-1.086 1.066-2.114 2.183-3.082 3.346-3.87 4.65-6.775 10.03-8.555 15.88-0.4448 1.461-0.8195 2.951-1.121 4.465-0.3016 1.514-0.5303 3.051-0.6836 4.609-0.1533 1.559-0.2305 3.138-0.2305 4.732s0.07803 3.173 0.2305 4.728c0.1524 1.556 0.3796 3.091 0.6797 4.6s0.6723 2.993 1.115 4.447c0.443 1.454 0.956 2.877 1.537 4.268 1.743 4.172 4.098 8.041 6.998 11.5 0.9667 1.152 1.994 2.26 3.08 3.316 1.086 1.057 2.23 2.063 3.43 3.016 2.4 1.906 5.024 3.597 7.852 5.039s5.86 2.639 9.078 3.553c1.609 0.4571 3.266 0.8434 4.965 1.156 1.699 0.3128 3.442 0.5505 5.227 0.7109 1.785 0.1605 3.613 0.2441 5.478 0.2441h280.1c16.72 0 30.35-6.664 39.07-17.04 1.938-2.305 3.634-4.793 5.068-7.432 0.717-1.319 1.368-2.676 1.951-4.066 1.167-2.781 2.063-5.697 2.666-8.715 0.3017-1.509 0.5303-3.044 0.6836-4.6 0.1533-1.556 0.2324-3.134 0.2324-4.728-0.03582-8.013-2.01-15.6-5.609-22.25-0.7199-1.329-1.504-2.622-2.352-3.871-1.695-2.498-3.641-4.828-5.816-6.957s-4.583-4.057-7.199-5.75c-1.308-0.8466-2.669-1.634-4.08-2.359-5.644-2.9-12.09-4.794-19.18-5.416-1.772-0.1554-3.586-0.2324-5.436-0.2246h-280.2zm0.125 11.4h280c1.471 0 2.908 0.06163 4.307 0.1816 2.798 0.24 5.449 0.7152 7.943 1.4 1.247 0.3426 2.456 0.7384 3.623 1.184 1.167 0.4452 2.292 0.9385 3.377 1.48 1.084 0.542 2.128 1.133 3.127 1.766 0.9992 0.6329 1.956 1.309 2.867 2.027 2.734 2.154 5.064 4.678 6.959 7.494 0.6315 0.9387 1.215 1.91 1.748 2.91 0.5329 1.001 1.016 2.031 1.447 3.088 0.8633 2.113 1.521 4.332 1.963 6.635 0.2211 1.151 0.3881 2.324 0.5 3.514s0.1699 2.398 0.1699 3.621-0.05809 2.431-0.1699 3.621c-0.2236 2.38-0.6672 4.69-1.322 6.904-0.3275 1.107-0.7072 2.189-1.139 3.246-0.4314 1.057-0.9146 2.087-1.447 3.088s-1.115 1.972-1.746 2.91c-0.6313 0.9387-1.312 1.844-2.039 2.715-0.7272 0.8709-1.502 1.706-2.322 2.504-2.462 2.392-5.336 4.44-8.59 6.066-1.085 0.542-2.212 1.037-3.379 1.482-2.335 0.8904-4.833 1.582-7.482 2.051-2.65 0.4684-5.451 0.7129-8.394 0.7129h-280c-4.437 0.02344-8.547-0.5137-12.3-1.533-1.25-0.3398-2.46-0.734-3.629-1.178-2.337-0.8874-4.509-1.977-6.506-3.244-0.9986-0.6335-1.953-1.31-2.863-2.029-1.82-1.439-3.46-3.044-4.91-4.791-0.7251-0.8733-1.404-1.781-2.033-2.723-0.6289-0.9412-1.208-1.915-1.738-2.918-0.5303-1.003-1.01-2.037-1.44-3.096-0.8584-2.118-1.512-4.342-1.951-6.648s-0.6641-4.695-0.6641-7.141c0-1.223 0.05607-2.43 0.168-3.619s0.2789-2.36 0.5-3.51c0.4423-2.3 1.102-4.515 1.965-6.623 0.4316-1.054 0.9144-2.082 1.447-3.08 1.599-2.994 3.647-5.723 6.109-8.109 0.8207-0.7954 1.686-1.553 2.598-2.27 1.823-1.433 3.823-2.702 5.992-3.787 1.084-0.5423 2.212-1.038 3.379-1.484 2.334-0.8933 4.832-1.591 7.48-2.068 1.324-0.2385 2.687-0.4209 4.086-0.5469 1.399-0.126 2.836-0.1953 4.307-0.2031zm41.86 13.14v9.035h13.25v-9.035h-13.25zm-53.89 0.1152v43.97h13.62v-30.72l19.08 30.72h13.62v-43.97h-13.6v30.72l-18.95-30.72h-13.77zm249 0.125c0.0104-0.125 0.00977 9.294 0.00977 16.1-2.105-1.24-4.345-2.343-7.44-2.604-9.534-0.8648-16.85 7.553-16.85 15.36 0 10.16 7.804 14 9.033 14.49 4.46 2.105 10.16 2.104 15.23-1.115v1.74h13.02v-43.97h-13.01zm57.86 0.2402c-3.72 0-6.814 2.97-6.814 6.814 0 3.72 3.095 6.814 6.814 6.814 3.72 0 6.814-3.095 6.814-6.814 0-3.845-3.105-6.814-6.814-6.814zm0 1.365c2.97 0 5.449 2.48 5.449 5.449-0.0104 2.98-2.355 5.449-5.449 5.449-2.97 0-5.449-2.48-5.449-5.449s2.48-5.449 5.449-5.449zm-2.721 1.615v7.553h1.856v-3.094h0.8652l1.488 3.094h1.98l-1.615-3.344c1-0.3751 1.615-1.116 1.615-2.106 0-1.49-1.114-2.104-3.219-2.104h-2.971zm1.856 0.9883h0.75c1.115 0 1.615 0.365 1.615 1.115 0.1042 0.8752-0.5102 1.115-1.5 1.115h-0.8652v-2.23zm-185.9 0.1152v5.94h-7.19v4.344h7.19v29.24h13.25v-29.24h7.189v-4.344h-7.189v-5.94h-13.25zm165.5 8.305c-10.65 0-19.32 7.314-19.32 16.47 0 9.034 8.668 16.47 19.32 16.47 10.65 0 19.32-7.314 19.32-16.47 0-9.159-8.409-16.47-19.32-16.47zm-127.4 0.1348c-10.77 0-19.44 7.314-19.44 16.47 0 9.034 8.668 16.48 19.44 16.48 8.919 0 16.47-5.076 18.83-12.02h-13.13v1.74c0 5.335-3.47 6.564-5.449 6.564s-5.574-1.24-5.574-6.564v-6.064h24.9c0-9.034-8.794-16.6-19.58-16.6zm-60.08 0.4902c-4.345 0.125-8.044 1.979-10.52 4.459v-3.094h-13.13v29.24h13.13v-19.2c0-2.605 2.73-5.334 6.324-5.334s6.064 2.844 6.064 5.334v19.2h13.13v-15.86c0-11.65-10.02-14.87-14.99-14.74zm107.5 0c-4.345 0.125-8.044 1.979-10.52 4.459v-3.094h-13.13v29.24h13.12v-19.2c0-2.605 2.73-5.334 6.324-5.334s6.064 2.844 6.064 5.334v19.2h13.13v-15.86c-0.1146-11.65-10.16-14.87-14.98-14.74zm-151.8 1.354v29.24h13.25v-29.24h-13.25zm231.5 1.615c2.605 0 5.449 1.855 5.449 6.564v12.39c0 4.71-2.73 6.564-5.449 6.564-2.605 0-5.449-1.98-5.449-6.564v-12.39c0-4.584 2.73-6.564 5.449-6.564zm-126.8 0.125c1.74 0 3.594 0.8654 4.709 2.73 0.8648 1.49 0.8652 3.219 0.8652 5.699h-11.04c-0.2396-2.605-0.2398-4.209 0.75-5.699 0.9898-1.855 2.971-2.605 4.711-2.73zm85.22 1.865c2.105 0 5.199 1.115 5.199 5.699v10.4c0 4.46-3.094 5.701-5.199 5.701s-5.199-1.242-5.199-5.701v-10.4c0-4.584 3.094-5.699 5.199-5.699zm-291.6 61.81v16.01c0 3.688 2.98 6.67 6.668 6.67h18.72v-5.764h-16.92c-0.9898 0-1.791-0.8012-1.791-1.791 0-0.9898 0.8012-1.793 1.791-1.793h15.93v-4h-15.93c-0.9898 0-1.791-0.8031-1.791-1.793 0-0.9898 0.8012-1.791 1.791-1.791l16.92 0.00977v-5.762h-25.39zm30.12 0v22.67h7.314v-15.19c0-0.9169 0.7491-1.666 1.666-1.666h12.54c0.9169 0 1.666 0.7491 1.666 1.666v15.19h7.19v-16.43c-0.0104-3.449-2.801-6.24-6.25-6.24h-24.12zm33.32 0v5.699h8.023c0.8752 0 1.584 0.7088 1.584 1.584v15.39h8.053v-15.39c0-0.8752 0.7088-1.584 1.584-1.584h8.023v-5.699h-27.27zm30.68 0v16.01c0 3.688 2.98 6.67 6.668 6.67h18.72v-5.764h-16.92c-0.9898 0-1.793-0.8012-1.793-1.791 0-0.9898 0.8031-1.793 1.793-1.793h15.93v-4h-15.93c-0.9898 0-1.793-0.8031-1.793-1.793s0.8031-1.791 1.793-1.791l16.92 0.00977v-5.762h-25.39zm29.75 0v22.67h7.564v-4.418c0-0.7814 0.6352-1.406 1.406-1.406h10.3c0.7815 0 1.408 0.6352 1.408 1.406v4.408h7.221v-4.272c-0.0208-1.104-0.4903-3.137-2.793-4.658 2.032-1.313 3.396-3.646 3.396-6.293 0-4.105-3.24-7.439-7.262-7.439h-21.25zm30.88 0v5.699h8.023c0.8752 0 1.584 0.7088 1.584 1.584v15.39h8.055v-15.39c0-0.8752 0.7088-1.584 1.584-1.584h8.022v-5.699h-27.27zm37.04 0c-3.72 0-6.73 3.011-6.73 6.73v15.94h7.418v-5.584h12.84v5.584h7.418v-15.94c0-3.72-3.011-6.73-6.73-6.73h-14.21zm26 0v22.67h7.68v-22.67h-7.68zm12.39 0v22.67h7.314v-15.19c0-0.9169 0.7511-1.666 1.668-1.666h12.54c0.9169 0 1.666 0.7491 1.666 1.666v15.19h7.19v-16.43c-0.0104-3.449-2.803-6.24-6.252-6.24h-24.12zm35.18 0v22.67h6.689v-15.25c0-0.8856 0.7198-1.604 1.606-1.604h5.721c0.8856 0 1.604 0.7179 1.604 1.604v15.25h7.555v-15.25c0-0.8856 0.7179-1.604 1.604-1.604h5.721c0.8856 0 1.606 0.7179 1.606 1.604v15.25h7.553v-16.02c-0.0104-3.678-2.991-6.646-6.658-6.646h-33zm43.85 0v16.01c0 3.688 2.98 6.67 6.668 6.67h18.72v-5.764h-16.92c-0.9898 0-1.793-0.8012-1.793-1.791 0-0.9898 0.8031-1.793 1.793-1.793h15.93v-4h-15.93c-0.9898 0-1.793-0.8031-1.793-1.793s0.8031-1.791 1.793-1.791l16.92 0.00977v-5.762h-25.39zm29.86 0v22.67h7.314v-15.19c0-0.9169 0.7511-1.666 1.668-1.666h12.53c0.9169 0 1.668 0.7491 1.668 1.666v15.19h7.19v-16.43c-0.0104-3.449-2.803-6.24-6.252-6.24h-24.12zm33.68 0v5.699h8.023c0.8752 0 1.584 0.7088 1.584 1.584v15.39h8.053v-15.39c0-0.8752 0.7088-1.584 1.584-1.584h8.023v-5.699h-27.27zm-239.9 5.459h10.3c0.7814 0 1.408 0.6352 1.408 1.406v2.887c0 0.7814-0.6372 1.406-1.408 1.406h-10.3c-0.7814 0-1.406-0.6352-1.406-1.406v-2.887c0-0.7814 0.6352-1.406 1.406-1.406zm61.51 0.2305h9.086c1.032 0 1.865 0.8337 1.865 1.865v3.594h-12.82v-3.594c0-1.032 0.8337-1.865 1.865-1.865zm-21.66 25.89c-3.72 0-6.814 3.116-6.814 6.596 0 4.98 3.22 6.857 7.555 6.857h10.65c1.115 0 2.23 0.4997 2.23 1.625 0 1-0.7504 1.865-1.74 1.865h-18.71v5.73h20.43c3.345 0 6.814-2.74 6.814-6.596 0.0104-4.616-3.709-6.856-7.668-6.856h-10.65c-1.24 0-2.106-0.5017-2.106-1.627 0-1 0.7504-1.865 1.74-1.865h18.21v-5.73h-19.94zm22.7 0v5.699h8.022c0.8752 0 1.584 0.7088 1.584 1.584v15.39h8.055v-15.39c0-0.8752 0.7088-1.584 1.584-1.584h8.023v-5.699h-27.27zm30.14 0v16.02c0 3.688 2.98 6.668 6.668 6.668h18.72v-5.762h-16.92c-0.9898 0-1.791-0.8031-1.791-1.793s0.8012-1.791 1.791-1.791h15.93v-4.002h-15.93c-0.9898 0-1.791-0.8012-1.791-1.791s0.8012-1.793 1.791-1.793l16.92 0.00977v-5.762h-25.39zm-113.6 0.01172c-3.959 0-7.19 3.116-7.19 6.596 0 4.97 3.47 6.846 7.805 6.846h10.41c1.24 0 2.23 0.4997 2.23 1.625 0 0.9898-0.9907 1.865-1.856 1.865h-18.46v5.73h20.43c3.72 0 7.055-2.74 7.055-6.596 0.0208-4.605-3.574-6.846-7.908-6.846h-10.41c-1.24 0-2.23-0.4997-2.23-1.625 0-0.9898 0.9887-1.865 1.854-1.865h18.22v-5.73h-19.94zm22.91 0v9.492c0 3.584 2.908 6.49 6.492 6.49h3.416v6.689h7.93v-6.689h3.48c3.584 0 6.49-2.906 6.49-6.49v-9.492h-7.033v8.461c0 0.9482-0.7693 1.707-1.707 1.707h-10.18c-0.9482 0-1.707-0.7693-1.707-1.707v-8.461h-7.18zm120.5 0v22.67h6.689v-15.25c0-0.8856 0.7179-1.606 1.604-1.606h5.721c0.8856 0 1.606 0.7198 1.606 1.606v15.25h7.553v-15.25c0-0.8856 0.7198-1.606 1.606-1.606h5.721c0.8856 0 1.604 0.7198 1.604 1.606v15.25h7.555v-16.02c-0.0104-3.678-2.991-6.646-6.658-6.646h-33z" fill="#afa"/></svg>
