<svg width="480" height="320" version="1.1" viewBox="0 0 480 320" xml:space="preserve" xmlns="http://www.w3.org/2000/svg"><defs><linearGradient id="a" x1="95.21" x2="110.3" y1="48.53" y2="-20.09" gradientTransform="scale(3.78)" gradientUnits="userSpaceOnUse"><stop stop-color="#a10705" offset="0"/><stop stop-color="#ed5353" offset="1"/></linearGradient></defs><rect width="480" height="320" ry="24" fill="url(#a)"/><path d="m256.8 105.5-2.406 17.8 4.688 1.031 5.293-17.17zm15.34 4.865-8.238 15.97 4.062 2.541 10.75-14.39zm12.68 9.885-13.4 11.97 2.896 3.834 15.18-9.615zm-34.71 11.53c-2.783 0.0405-5.601 0.6924-8.258 2.02l-13.85 6.938-5.271 2.635-1.041 0.5215 25.34 50.65 6.312-3.156-22.19-44.33 13.86-6.938c5.938-2.979 13.18-0.5514 16.16 5.396 2.979 5.938 0.5625 13.17-5.375 16.14 0 0-0.9883 0.4479-1.488 0.625l-8.146-7.02 1.572-4.98 8.824-0.0937-0.0742-7.051-13.94 0.1562-4.52 14.29 0.3125 0.2715 15.31 13.23c1.458-0.7292 5.979-3.428 5.979-3.428 8.948-4.927 12.48-16.08 7.865-25.29-3.392-6.798-10.28-10.69-17.39-10.58zm78.69 27.2c-9.729 0-17.61 7.884-17.61 17.61 0 9.729 7.884 17.62 17.61 17.62 6.958 0 12.98-4.042 15.84-9.906h-4.27v0.0215c-2.49 3.729-6.741 6.188-11.57 6.188-7.677 0-13.91-6.229-13.91-13.91s6.229-13.91 13.91-13.91c4.823 0 9.074 2.458 11.57 6.188h4.27c-2.865-5.865-8.875-9.906-15.84-9.906zm-218.2 0.01c-9.729 0-17.62 7.886-17.62 17.62s7.886 17.61 17.62 17.61 17.61-7.884 17.61-17.61-7.884-17.62-17.61-17.62zm38.49 0c-9.729 0-17.61 7.886-17.61 17.62s7.884 17.61 17.61 17.61c9.521 0 17.27-7.552 17.61-17h-23.04v3.781h18.63c-1.844 5.521-7.042 9.512-13.19 9.512-7.677 0-13.91-6.229-13.91-13.91s6.229-13.91 13.91-13.91c4.781 0 8.99 2.405 11.49 6.082h4.291c-2.885-5.802-8.865-9.791-15.78-9.791zm60.36 0c-9.729 0-17.62 7.886-17.62 17.62s7.886 17.61 17.62 17.61c9.729 0 17.61-7.884 17.61-17.61s-7.884-17.62-17.61-17.62zm76.85 0c-9.729 0-17.62 7.886-17.62 17.62s7.886 17.61 17.62 17.61c9.729 0 17.62-7.884 17.62-17.61s-7.886-17.62-17.62-17.62zm-246.3 0.947v33.33h3.781v-27.66l19.24 27.66h3.688v-33.33h-3.781v26.58l-18.5-26.58zm32.05 0v33.33h18.6v-3.781h-14.82v-11.47h13.85v-3.771h-13.85v-10.54h14.82v-3.771h-14.82zm98.7 0v33.33h18.6v-3.781h-14.83v-11.47h13.85v-3.771h-13.85v-10.54h14.83v-3.771h-14.83zm181.2 0v33.33h3.781v-9.521l4.469-4.479 14 14h5.344l-16.67-16.67 16.67-16.67h-5.344l-18.47 18.47v-18.47zm34.91 0v33.33h18.61v-3.781h-14.82v-11.47h13.86v-3.771h-13.86v-10.54h14.82v-3.771h-14.82zm25.92 0v3.771h11.71v29.56h3.781v-29.56h11.71v-3.771h-15.49zm-302.2 2.762c7.677 0 13.91 6.229 13.91 13.91 0 7.677-6.229 13.91-13.91 13.91-7.677 0-13.91-6.229-13.91-13.91 0-7.677 6.229-13.91 13.91-13.91zm98.84 0c7.677 0 13.91 6.229 13.91 13.91 0 7.677-6.229 13.91-13.91 13.91-7.677 0-13.91-6.229-13.91-13.91 0-7.677 6.229-13.91 13.91-13.91zm76.85 0c7.677 0 13.91 6.229 13.91 13.91 0 7.677-6.229 13.91-13.91 13.91-7.677 0-13.91-6.229-13.91-13.91 0-7.677 6.229-13.91 13.91-13.91z" fill="#fff"/></svg>
