<svg width="480" height="320" version="1.1" viewBox="0 0 127 84.667" xmlns="http://www.w3.org/2000/svg">
 <defs>
  <linearGradient id="a" x1="95.213" x2="110.28" y1="48.527" y2="-20.09" gradientUnits="userSpaceOnUse">
   <stop stop-color="#a10705" offset="0"/>
   <stop stop-color="#ed5353" offset="1"/>
  </linearGradient>
 </defs>
 <rect width="127" height="84.667" ry="4.2333" fill="url(#a)" stroke-linecap="square" stroke-linejoin="round" stroke-width=".52917" style="paint-order:stroke fill markers"/>
 <path d="m68.041 25.929c-0.23522 1.5691-0.46977 3.1342-0.70442 4.7 0.40285 0.0828 0.7956 0.16415 1.1992 0.24694 0.56918-1.5428 1.1361-3.0798 1.7064-4.6254-0.73906-0.10798-1.4664-0.21458-2.2011-0.32162zm3.9724 1.2088c-0.8059 1.3716-1.6042 2.7317-2.4017 4.0881 0.35917 0.22173 0.70837 0.4369 1.061 0.65416 1.0079-1.1998 2.0086-2.3923 3.0124-3.5881-0.55556-0.38323-1.1083-0.76542-1.6717-1.1542zm3.0747 2.4611c-1.1563 1.0226-2.3043 2.0388-3.4554 3.0566 0.26826 0.40113 0.53079 0.79285 0.79849 1.1922 1.2765-0.78921 2.549-1.5758 3.8218-2.3631-0.39091-0.63256-0.77514-1.2551-1.1649-1.8856zm-8.3054 2.507c-0.77355-0.0023-1.508 0.18427-2.203 0.53323-0.33397 0.16784-0.66099 0.34913-0.9972 0.51175-0.74858 0.36159-1.5006 0.71555-2.2515 1.0719-0.66215 0.31441-1.3246 0.6275-1.9868 0.94117-0.22402 0.10611-0.44777 0.21259-0.67197 0.3187 2.2487 4.5802 4.4951 9.1557 6.7398 13.73 3.54e-4 -1.51e-4 7.39e-4 -2.11e-4 0.0011-3.64e-4l3.64e-4 3.64e-4c0.569-0.24486 1.1264-0.48488 1.6947-0.72918-2.0232-4.0195-4.041-8.0281-6.0598-12.039 0.0112-0.0078 0.02035-0.01536 0.03063-0.0204 0.50348-0.25735 1.0069-0.51482 1.5102-0.77181 0.21686-0.11058 0.4336-0.22139 0.65046-0.33181 0.27731-0.14119 0.5545-0.28286 0.83167-0.42433 0.2174-0.11096 0.43503-0.22143 0.65228-0.3329 0.51343-0.26343 1.0448-0.45473 1.6021-0.53979 0.20313-0.03096 0.40982-0.04771 0.6202-0.04881 0.05202-2.64e-4 0.10429 5.01e-4 0.15678 0.0022 4.9e-4 1.5e-5 9.71e-4 -1.6e-5 0.0015 0 0.03557 0.0012 0.0709 0.0028 0.1061 0.0051 4.84e-4 3.2e-5 9.77e-4 -3.2e-5 0.0015 0 0.10656 0.0071 0.21163 0.01967 0.31466 0.03751 3.54e-4 6.2e-5 7.39e-4 -5.9e-5 0.0011 0 0.41358 0.07178 0.79783 0.23222 1.1456 0.49717 0.40995 0.31218 0.69977 0.71771 0.92173 1.1761 0.21039 0.43489 0.3602 0.88748 0.36935 1.3757 0.01213 0.67825-0.19365 1.2914-0.55749 1.8609-0.24362 0.3808-0.52176 0.73121-0.84808 1.0413-0.22433 0.21348-0.4644 0.41049-0.69713 0.61446-0.85283-0.60419-1.6874-1.195-2.5253-1.7883 0.15905-0.58052 0.31606-1.1558 0.47399-1.7326h2.4156v-1.8317c-4.91e-4 6e-6 -9.69e-4 -4e-6 -0.0015 0-1.2468 0.01175-2.4811 0.02394-3.7143 0.03606-0.44952 1.2683-0.89629 2.5297-1.3439 3.7934 1.4442 1.193 2.8829 2.382 4.3232 3.5724 3.6e-4 -1.39e-4 7.35e-4 -2.28e-4 0.0011-3.66e-4l3.66e-4 3.66e-4c0.57236-0.21819 1.1154-0.4863 1.6262-0.81806 0.81486-0.52869 1.4934-1.1928 1.9922-2.0291 0.46334-0.77746 0.69573-1.6246 0.7088-2.5289 0.0077-0.56039-0.07725-1.1081-0.24246-1.6452-0.21879-0.71163-0.55741-1.3561-1.0741-1.8958-0.81758-0.85513-1.7915-1.3761-2.9205-1.548-0.04132-0.0063-0.08296-0.01212-0.1247-0.01748-4.78e-4 -6.2e-5 -9.82e-4 6.2e-5 -0.0015 0-0.04174-0.0054-0.08363-0.01052-0.12579-0.01493-4.8e-4 -5.1e-5 -9.8e-4 4.9e-5 -0.0015 0-0.04217-0.0044-0.08467-0.0086-0.12725-0.01202-4.82e-4 -3.9e-5 -9.78e-4 4e-5 -0.0015 0-0.04259-0.0035-0.08534-0.0066-0.12834-0.0091-4.82e-4 -2.8e-5 -9.76e-4 2.7e-5 -0.0015 0-0.04313-0.0025-0.08625-0.0043-0.1298-0.0058-3.66e-4 -1.3e-5 -7.28e-4 1.3e-5 -0.0011 0-0.0518-0.0018-0.10387-0.0031-0.15532-0.0033zm-27.239 6.2177c-2.6882 0-4.8741 2.0083-4.8741 4.794 0 2.7484 2.1479 4.8315 4.8613 4.8315 1.8716 0 3.731-1.0164 4.535-2.7608 0.27647-0.57755 0.40205-1.2549 0.41456-1.7949h-6.2654v0.85339h5.0597c-0.15084 0.72841-0.60306 1.4308-1.2564 1.9457-0.64068 0.50221-1.5075 0.84064-2.4874 0.84064-2.035 0-3.8189-1.5561-3.8189-3.9154 0-2.3214 1.7713-3.8776 3.8065-3.8776 0.82904 0 1.5577 0.23851 2.1607 0.6527 0.40192 0.26351 0.7538 0.60267 1.0428 1.0042v-7.3e-4h1.1806c-0.72861-1.5183-2.4745-2.5725-4.3589-2.5725zm-10.252 3.64e-4c-2.6256 0-4.8493 1.9706-4.8493 4.8315v0.01239c0 2.6479 2.098 4.7688 4.8493 4.7688 2.7386 0 4.8489-2.0829 4.8489-4.8064 0-2.7231-2.123-4.8064-4.8489-4.8064zm26.101 0c-2.6255 0-4.8489 1.9706-4.8489 4.8315v0.01239c0 2.6479 2.0978 4.7688 4.8489 4.7688 2.7386 0 4.8493-2.0829 4.8493-4.8064 0-2.7231-2.1232-4.8064-4.8493-4.8064zm21.171 0c-2.626 0-4.8493 1.9706-4.8493 4.8315v0.01239c0 2.6479 2.0984 4.7688 4.8493 4.7688 2.739 0 4.8493-2.0829 4.8493-4.8064 0-2.7231-2.123-4.8064-4.8493-4.8064zm10.942 7.29e-4c-2.7884 0-4.8362 2.1582-4.8362 4.8064 0 2.6852 2.098 4.8064 4.8489 4.8064 2.0477 0 3.6682-1.2303 4.271-2.661l-1.1183 3.66e-4c-0.22607 0.35133-1.2181 1.7447-3.1655 1.7447-2.161 0-3.8065-1.7068-3.8065-3.903 0-2.1583 1.6334-3.8776 3.8065-3.8776 1.7964 0 2.8512 1.2426 3.1655 1.7945h1.1179c-0.54025-1.1795-1.9846-2.7106-4.2834-2.7106zm-76.922 0.16244v9.2867h1.0052l-0.02552-7.8185 5.351 7.8185h1.0049v-9.2867h-1.0049l0.01276 7.7555-5.2883-7.7555zm8.4585 0v9.2867h4.9317v-0.91604h-3.902v-3.3133h3.8769v-0.91604h-3.8769v-3.2252h3.902v-0.91604zm25.937 0v9.2867h5.1505v-0.91604h-4.1201v-3.3133h4.0949v-0.91604h-4.0949v-3.2252h4.1201v-0.91604zm48.255 0v9.2867h1.0304v-3.0263l0.94834-0.98961 4.1507 4.016h1.2944l-4.8296-4.6563 4.4395-4.6305h-1.1303l-4.873 5.0348v-5.0348zm8.7557 0v9.2867h5.1512v-0.91604h-4.1204v-3.3133h4.0949v-0.91604h-4.0949v-3.2252h4.1204v-0.91604zm7.3808 0v0.91604h2.996v8.3707h1.0428v-8.3707h3.0077v-0.91604zm-80.078 0.75286c2.211 0 3.8189 1.7695 3.8189 3.8903 0 2.1213-1.6082 3.8903-3.8065 3.8903-2.1735 0-3.8193-1.7068-3.8193-3.8903v-0.01275c0-2.1457 1.621-3.8776 3.8069-3.8776zm26.101 0c2.211 0 3.8189 1.7695 3.8189 3.8903 0 2.1213-1.6076 3.8903-3.8061 3.8903-2.1733 0-3.8189-1.7068-3.8189-3.8903v-0.01275c0-2.1457 1.6203-3.8776 3.8061-3.8776zm21.171 0c2.2114 0 3.8193 1.7695 3.8193 3.8903 0 2.1213-1.6084 3.8903-3.8069 3.8903-2.1735 0-3.8193-1.7068-3.8193-3.8903v-0.01275c0-2.1457 1.6214-3.8776 3.8069-3.8776z" fill="#fafafa" stroke-width=".18658"/>
 <style type="text/css">.st0{fill:#FC0C18;}
	.st1{fill:#FC0C18;}</style>
</svg>
