<svg width="480" height="320" version="1.1" viewBox="0 0 127 84.667" xmlns="http://www.w3.org/2000/svg">
 <defs>
  <linearGradient id="a" x1="95.213" x2="110.28" y1="48.527" y2="-20.09" gradientUnits="userSpaceOnUse">
   <stop stop-color="#0d52bf" offset="0"/>
   <stop stop-color="#43d6b5" offset="1"/>
  </linearGradient>
 </defs>
 <rect width="127" height="84.667" ry="4.2333" fill="url(#a)" stroke-linecap="square" stroke-linejoin="round" stroke-width=".52917" style="paint-order:stroke fill markers"/>
 <path d="m68.042 23.548c-0.23521 1.5696-0.4697 3.1355-0.70436 4.7017 0.40286 0.08283 0.7953 0.16401 1.1989 0.24683 0.56919-1.5433 1.136-3.0808 1.7064-4.6268-0.73907-0.10801-1.4661-0.21463-2.2009-0.32171zm3.9724 1.2094c-0.8059 1.372-1.6044 2.7324-2.4019 4.0893 0.35918 0.2218 0.70829 0.43694 1.0609 0.65426 1.0079-1.2002 2.009-2.3928 3.0127-3.5889-0.55557-0.38334-1.1083-0.7657-1.6717-1.1547zm3.0747 2.4616c-1.1563 1.0231-2.3045 2.0394-3.4556 3.0576 0.26826 0.40126 0.53071 0.79347 0.79841 1.1928 1.2765-0.78946 2.5492-1.5765 3.822-2.364-0.39092-0.63276-0.77501-1.2557-1.1648-1.8863zm-8.3055 2.5081c-0.77356-0.0023-1.508 0.18436-2.203 0.53343-0.33397 0.16789-0.66116 0.34908-0.99737 0.51174-0.74859 0.36171-1.5007 0.71554-2.2515 1.072-0.66216 0.31451-1.3243 0.62812-1.9864 0.9419-0.22402 0.10614-0.44812 0.21246-0.67232 0.31861 2.2487 4.5817 4.4956 9.1586 6.7403 13.734 3.52e-4 -1.54e-4 6.72e-4 -3.65e-4 1e-3 -5.19e-4v5.19e-4c0.56901-0.24493 1.1267-0.48529 1.695-0.72966-2.0232-4.0208-4.0408-8.0305-6.0597-12.043 0.0112-0.0078 0.02021-0.01562 0.03049-0.02065 0.50349-0.25743 1.0067-0.51494 1.51-0.772 0.21686-0.11062 0.43376-0.22106 0.65062-0.33152 0.27731-0.14124 0.55432-0.28295 0.83149-0.42447 0.2174-0.11101 0.43542-0.22156 0.65268-0.33307 0.51344-0.26351 1.0447-0.45505 1.602-0.54015 0.20313-0.03097 0.40974-0.04744 0.62013-0.04854 0.05202-2.64e-4 0.10408 3.68e-4 0.15658 0.0021 4.89e-4 1.6e-5 1e-3 -1.5e-5 0.0016 0 0.03557 0.0012 0.07125 0.0029 0.10645 0.0052 4.84e-4 3.1e-5 5.1e-4 -3.2e-5 1e-3 0 0.10655 0.0071 0.21168 0.01934 0.31471 0.03718 3.54e-4 6.1e-5 0.0012-6.1e-5 0.0015 0 0.41358 0.07181 0.7974 0.23224 1.1451 0.49728 0.40996 0.31227 0.69996 0.71833 0.92192 1.1768 0.21039 0.43501 0.36034 0.8878 0.3695 1.3762 0.01213 0.67847-0.19375 1.2914-0.5576 1.861-0.24362 0.38092-0.52171 0.73185-0.84802 1.042-0.22433 0.21354-0.46438 0.41048-0.69712 0.6145-0.85284-0.60438-1.6875-1.1952-2.5254-1.7888 0.15905-0.58071 0.31594-1.1566 0.47388-1.7335h2.4159v-1.8322c-4.89e-4 5e-6 -1e-3 -2e-6 -0.0016 0-1.2468 0.01175-2.4813 0.02402-3.7145 0.03614-0.44952 1.2687-0.89594 2.5303-1.3436 3.7944 1.4442 1.1933 2.8825 2.3827 4.3228 3.5734 3.63e-4 -1.4e-4 0.0012 1.38e-4 0.0016 0 0.57237-0.21826 1.1155-0.4861 1.6263-0.81796 0.81487-0.52886 1.4933-1.1932 1.9921-2.0299 0.46334-0.7777 0.69594-1.6252 0.70901-2.5298 0.0077-0.56056-0.07715-1.1085-0.24236-1.6457-0.21879-0.71185-0.55764-1.3563-1.0744-1.8962-0.81759-0.8554-1.7913-1.3767-2.9202-1.5487-0.04132-0.0063-0.08332-0.01219-0.12506-0.01756-4.76e-4 -6.1e-5 -1e-3 6.1e-5 -0.0015 0-0.04174-0.0054-0.08342-0.01055-0.12557-0.01498-4.82e-4 -5e-5 -1e-3 5e-5 -0.0016 0-0.04217-0.0044-0.08455-0.0085-0.12712-0.01187-4.82e-4 -4e-5 -1e-3 3.9e-5 -0.0015 0-0.04259-0.0035-0.08516-0.0068-0.12816-0.0093-4.82e-4 -2.7e-5 -1e-3 2.9e-5 -0.0016 0-0.04313-0.0025-0.08667-0.0042-0.13022-0.0057-3.68e-4 -1.4e-5 -6.62e-4 1.3e-5 -1e-3 0-0.0518-0.0018-0.10358-0.0029-0.15503-0.0031zm-27.239 6.2194c-2.6882 0-4.8742 2.0091-4.8742 4.7957 0 2.7493 2.1478 4.8329 4.8613 4.8329 1.8716 0 3.7311-1.0168 4.5352-2.7617 0.27647-0.57773 0.40194-1.2553 0.41444-1.7955h-6.2653v0.85359h5.0597c-0.15084 0.72864-0.60288 1.4313-1.2563 1.9463-0.64069 0.50236-1.5078 0.8412-2.4877 0.8412-2.035 0-3.8189-1.5567-3.8189-3.9168 0-2.3221 1.7713-3.8786 3.8065-3.8786 0.82905 0 1.5576 0.23841 2.1606 0.65272 0.40182 0.26351 0.75391 0.60237 1.0428 1.0039h1.1808c-0.72862-1.5188-2.4746-2.5737-4.359-2.5737zm-10.252 5.15e-4c-2.6256 0-4.8494 1.9711-4.8494 4.8329v0.01239c0 2.6488 2.098 4.7704 4.8494 4.7704 2.7386 0 4.8489-2.0833 4.8489-4.8076 0-2.7239-2.1229-4.8081-4.8489-4.8081zm26.101 0c-2.6255 0-4.8489 1.9711-4.8489 4.8329v0.01239c0 2.6488 2.0977 4.7704 4.8489 4.7704 2.7386 0 4.8494-2.0833 4.8494-4.8076 0-2.7239-2.1232-4.8081-4.8494-4.8081zm21.171 0c-2.626 0-4.8494 1.9711-4.8494 4.8329v0.01239c0 2.6488 2.0984 4.7704 4.8494 4.7704 2.739 0 4.8489-2.0833 4.8489-4.8076 0-2.7239-2.1225-4.8081-4.8489-4.8081zm10.941 9.99e-4c-2.7884 0-4.8365 2.1586-4.8365 4.8076 0 2.686 2.0979 4.8081 4.8489 4.8081 2.0477 0 3.6683-1.2308 4.2712-2.662l-1.1183 5.15e-4c-0.22607 0.35144-1.2177 1.7448-3.1652 1.7448-2.161 0-3.8065-1.7075-3.8065-3.9045 0-2.159 1.6334-3.8786 3.8065-3.8786 1.7964 0 2.8508 1.2428 3.1652 1.795h1.1183c-0.54026-1.1798-1.9847-2.711-4.2836-2.711zm-76.923 0.16214v9.2898h1.0051l-0.02532-7.8212 5.3512 7.8212h1.0046v-9.2898h-1.0046l0.0124 7.7583-5.2881-7.7583zm8.4585 0v9.2898h4.9321v-0.91659h-3.9021v-3.3142h3.8768v-0.91658h-3.8768v-3.2259h3.9021v-0.91659zm25.937 0v9.2898h5.1502v-0.91659h-4.1196v-3.3142h4.0948v-0.91658h-4.0948v-3.2259h4.1196v-0.91659zm48.255 0v9.2898h1.0304v-3.0276l0.94827-0.98992 4.1512 4.0175h1.294l-4.8298-4.6578 4.4396-4.632h-1.1302l-4.8732 5.0363v-5.0363zm8.7562 0v9.2898h5.1512v-0.91659h-4.1208v-3.3142h4.0948v-0.91658h-4.0948v-3.2259h4.1208v-0.91659zm7.3805 0v0.91659h2.9962v8.3732h1.0428v-8.3732h3.0076v-0.91655zm-80.079 0.75344c2.211 0 3.8189 1.7699 3.8189 3.8915 0 2.122-1.6082 3.8915-3.8065 3.8915-2.1735 0-3.8194-1.7073-3.8194-3.8915v-0.01291c0-2.1463 1.6212-3.8786 3.807-3.8786zm26.101 0c2.211 0 3.8189 1.7699 3.8189 3.8915 0 2.122-1.6074 3.8915-3.806 3.8915-2.1733 0-3.8189-1.7073-3.8189-3.8915v-0.01291c0-2.1463 1.6201-3.8786 3.806-3.8786zm21.171 0c2.2114 0 3.8189 1.7699 3.8189 3.8915 0 2.122-1.6085 3.8915-3.807 3.8915-2.1735 0-3.8189-1.7073-3.8189-3.8915v-0.01291c0-2.1463 1.6215-3.8786 3.807-3.8786zm-22.673 12.62c-2.2584 0-4.2536 1.6863-4.2536 4.2964v0.01084c0 2.1808 1.7536 4.1523 4.2422 4.1523 2.4774 0 4.2758-1.9158 4.2758-4.2292 0-2.3134-1.8088-4.2302-4.2644-4.2302zm21.654 0c-2.2581 0-4.253 1.6863-4.253 4.2964v0.01084c0 2.1808 1.7546 4.1523 4.2426 4.1523 2.4774 0 4.2752-1.9158 4.2752-4.2292 0-2.3134-1.8091-4.2302-4.265-4.2302zm-34.26 9.99e-4c-2.5653 0-4.2426 2.0489-4.2426 4.2189 0 2.2688 1.7761 4.2406 4.2536 4.2406 1.8966 0 3.4751-1.2008 3.9682-2.8861l-1.7208 5.15e-4c-0.15325 0.29762-0.81131 1.4438-2.2583 1.4438-1.5457 0-2.6091-1.3109-2.6091-2.7983 0-1.4432 1.0197-2.7761 2.5983-2.7761 1.2937 0.01134 2.0171 0.92527 2.2691 1.4872h1.7208c-0.31779-1.1902-1.6441-2.9192-3.9791-2.9305zm42.898 0.15285v8.2969h1.6485v-3.1376l2.2924 3.1376h1.8366l-2.3859-3.1846c0.43284-0.0939 0.63104-0.15265 0.82993-0.23496 0.10568-0.04683 0.38624-0.17597 0.65527-0.41156 0.24573-0.22304 0.35089-0.39985 0.43306-0.52826 0.30382-0.50568 0.32711-1.0577 0.32711-1.2569 0-0.22376-0.03479-0.86999-0.40928-1.4464-0.12851-0.19986-0.30406-0.39902-0.49094-0.55254-0.72541-0.6107-1.5323-0.65742-2.4448-0.6806zm-21.202 9.99e-4v8.1517h4.297v-1.4428h-2.6639v-6.7089zm-9.0771 1.2879c1.6555 0 2.62 1.4337 2.62 2.7994 0 1.3435-0.96423 2.7756-2.6086 2.7756-1.5788 0-2.6422-1.2996-2.6422-2.787v-0.01084c0-1.4326 1.0085-2.7772 2.6308-2.7772zm21.654 0c1.655 0 2.62 1.4337 2.62 2.7994 0 1.3435-0.96475 2.7756-2.6091 2.7756-1.5781 0-2.6417-1.2996-2.6417-2.787v-0.01084c0-1.4326 1.0085-2.7772 2.6308-2.7772zm10.273 0.08676h0.78343c0.5616 0.01231 1.1228 0.05895 1.4857 0.55306 0.21063 0.29279 0.22273 0.61084 0.22273 0.73998 0 0.39972-0.16415 0.64646-0.25735 0.76425-0.386 0.46996-0.97108 0.49315-1.1462 0.49315-0.0942 0.01183-0.17532 0.01187-0.26923 0.01187h-0.81908z" fill="#fafafa" stroke-width=".18661"/>
 <style type="text/css">.st0{fill:#FC0C18;}
	.st1{fill:#FC0C18;}</style>
</svg>
