<svg width="480" height="320" version="1.1" viewBox="0 0 480 320" xml:space="preserve" xmlns="http://www.w3.org/2000/svg"><defs><linearGradient id="a" x1="95.21" x2="110.3" y1="48.53" y2="-20.09" gradientTransform="scale(3.78)" gradientUnits="userSpaceOnUse"><stop stop-color="#0d52bf" offset="0"/><stop stop-color="#43d6b5" offset="1"/></linearGradient></defs><rect width="480" height="320" ry="24" fill="url(#a)"/><path d="m256.8 98.31-2.406 17.8 4.688 1.031 5.293-17.17zm15.34 4.865-8.238 15.97 4.062 2.541 10.75-14.4zm12.68 9.885-13.4 11.97 2.896 3.834 15.18-9.615zm-34.71 11.53c-2.783 0.0405-5.601 0.6924-8.258 2.02l-13.85 6.938-5.271 2.635-1.041 0.5215 25.34 50.64 6.312-3.156-22.19-44.33 13.86-6.938c5.938-2.979 13.18-0.5534 16.16 5.395 2.979 5.937 0.5625 13.17-5.375 16.15 0 0-0.9883 0.4479-1.488 0.625l-8.146-7.021 1.572-4.979 8.824-0.0937-0.0742-7.053-13.94 0.1562-4.52 14.29 0.3125 0.2695 15.31 13.23c1.458-0.7292 5.979-3.428 5.979-3.428 8.948-4.927 12.48-16.08 7.865-25.29-3.392-6.798-10.28-10.69-17.39-10.58zm78.69 27.2c-9.729 0-17.61 7.886-17.61 17.62 0 9.729 7.884 17.62 17.61 17.62 6.958 0 12.98-4.042 15.84-9.906h-4.27v0.0195c-2.49 3.729-6.741 6.188-11.57 6.188-7.677 0-13.91-6.229-13.91-13.91 0-7.677 6.229-13.91 13.91-13.91 4.823 0 9.074 2.458 11.57 6.188h4.27c-2.865-5.865-8.875-9.906-15.84-9.906zm-218.2 0.0117c-9.729 0-17.62 7.884-17.62 17.61s7.886 17.62 17.62 17.62 17.61-7.886 17.61-17.62-7.884-17.61-17.61-17.61zm38.49 0c-9.729 0-17.61 7.884-17.61 17.61s7.884 17.62 17.61 17.62c9.521 0 17.27-7.552 17.61-17h-23.04v3.781h18.63c-1.844 5.521-7.042 9.51-13.19 9.51-7.677 0-13.91-6.229-13.91-13.91s6.229-13.91 13.91-13.91c4.781 0 8.99 2.407 11.49 6.084h4.291c-2.885-5.802-8.865-9.791-15.78-9.791zm60.36 0c-9.729 0-17.62 7.884-17.62 17.61s7.886 17.62 17.62 17.62c9.729 0 17.61-7.886 17.61-17.62s-7.884-17.61-17.61-17.61zm76.85 0c-9.729 0-17.62 7.884-17.62 17.61s7.886 17.62 17.62 17.62c9.729 0 17.62-7.886 17.62-17.62s-7.886-17.61-17.62-17.61zm-246.3 0.9473v33.33h3.781v-27.66l19.24 27.66h3.688v-33.33h-3.781v26.58l-18.5-26.58zm32.05 0v33.33h18.6v-3.781h-14.82v-11.47h13.85v-3.771h-13.85v-10.54h14.82v-3.771h-14.82zm98.7 0v33.33h18.6v-3.781h-14.83v-11.47h13.85v-3.771h-13.85v-10.54h14.83v-3.772h-14.83zm181.2 0v33.33h3.781v-9.521l4.469-4.479 14 14h5.344l-16.67-16.67 16.67-16.67h-5.344l-18.47 18.47v-18.47zm34.91 0v33.33h18.61v-3.781h-14.82v-11.47h13.86v-3.771h-13.86v-10.54h14.82v-3.772h-14.82zm25.92 0v3.771h11.71v29.56h3.781v-29.56h11.71v-3.771h-15.49zm-302.2 2.76c7.677 0 13.91 6.229 13.91 13.91 0 7.677-6.229 13.91-13.91 13.91-7.677 0-13.91-6.229-13.91-13.91 0-7.677 6.229-13.91 13.91-13.91zm98.84 0c7.677 0 13.91 6.229 13.91 13.91 0 7.677-6.229 13.91-13.91 13.91-7.677 0-13.91-6.229-13.91-13.91 0-7.677 6.229-13.91 13.91-13.91zm76.85 0c7.677 0 13.91 6.229 13.91 13.91 0 7.677-6.229 13.91-13.91 13.91-7.677 0-13.91-6.229-13.91-13.91 0-7.677 6.229-13.91 13.91-13.91zm-96.3 37.22c-5.771 0-9.551 4.594-9.551 9.459 0 5.083 3.989 9.5 9.572 9.5 4.271 0 7.823-2.688 8.938-6.469l-3.875-0.01c-0.3438 0.6667-1.824 3.238-5.084 3.238-3.479 0-5.875-2.936-5.875-6.27 0-3.229 2.303-6.219 5.855-6.219 2.906 0.0312 4.541 2.072 5.104 3.332h3.875c-0.7188-2.667-3.699-6.531-8.959-6.562zm28.38 0c-5.083 0-9.572 3.771-9.572 9.625v0.0312c0 4.885 3.949 9.303 9.553 9.303 5.573 0 9.625-4.291 9.625-9.479 0-5.188-4.074-9.48-9.605-9.48zm48.76 0c-5.083 0-9.574 3.771-9.574 9.625v0.0312c0 4.885 3.949 9.303 9.553 9.303 5.573 0 9.625-4.291 9.625-9.479 0-5.188-4.072-9.48-9.604-9.48zm-28.29 0.3438v18.26h9.678v-3.23h-6v-15.03zm47.73 0v18.61h3.707v-7.031l5.168 7.031h4.135l-5.375-7.137c0.9688-0.2188 1.417-0.3438 1.865-0.5312 0.2396-0.1042 0.8744-0.3848 1.479-0.916 0.5625-0.5 0.791-0.8958 0.9785-1.188 0.6875-1.135 0.7402-2.374 0.7402-2.822 0-0.5-0.0723-1.949-0.916-3.24-0.2917-0.4479-0.6888-0.8965-1.105-1.24-1.635-1.375-3.448-1.479-5.5-1.531zm-68.17 2.887c3.729 0 5.896 3.207 5.896 6.27 0 3.01-2.167 6.219-5.875 6.219-3.552 0-5.947-2.905-5.947-6.238v-0.0312c0-3.208 2.27-6.219 5.926-6.219zm48.76 0c3.719 0 5.895 3.207 5.895 6.27 0 3.01-2.167 6.219-5.875 6.219-3.552 0-5.947-2.905-5.947-6.238v-0.0312c0-3.208 2.271-6.219 5.928-6.219zm23.14 0.1973h1.762c1.26 0.0312 2.531 0.1361 3.344 1.24 0.4792 0.6562 0.5 1.365 0.5 1.656 0 0.8958-0.3756 1.447-0.584 1.707-0.875 1.052-2.188 1.105-2.584 1.105-0.2083 0.0312-0.3952 0.0312-0.6035 0.0312h-1.844z" fill="#fff"/></svg>
