<svg width="480" height="320" version="1.1" viewBox="0 0 127 84.667" xmlns="http://www.w3.org/2000/svg" xmlns:xlink="http://www.w3.org/1999/xlink">
 <defs>
  <linearGradient id="a" x1="95.673" x2="72.898" y1="84.999" gradientUnits="userSpaceOnUse">
   <stop stop-color="#cc3b02" offset="0"/>
   <stop stop-color="#d48e15" offset="1"/>
  </linearGradient>
 </defs>
 <rect width="127" height="84.667" ry="4.2333" fill="url(#a)" stroke-linecap="square" stroke-linejoin="round" stroke-width=".52917" style="paint-order:stroke fill markers"/>
 <path d="m11.864 32.015c-0.92028 0-1.2808 0.35696-1.2808 1.2688v18.1c0 0.9118 0.36054 1.2683 1.2808 1.2683h10.758c0.92028 0 1.2803-0.35649 1.2803-1.2683v-18.1c0-0.9118-0.36006-1.2688-1.2803-1.2688zm15.368 0c-0.92045 0-1.2808 0.35696-1.2808 1.2688v18.1c0 0.9118 0.36037 1.2683 1.2808 1.2683h7.9459c2.4488 0 4.4343-1.9672 4.4343-4.3931v-11.851c0-2.4258-1.9854-4.3931-4.4343-4.3931zm15.283 0c-0.4715-1.56e-4 -0.85372 0.37862-0.85372 0.84552v7.4972s0.16576 0.56848 0.37566 0.72741c0.25274 0.19452 0.58747 0.54988 0.99389 0.88817 1.0656 0.88467 2.3664 2.0893 2.387 2.7151v7.2802c0 0.37707 0.30916 0.68335 0.68996 0.68335h2.7183c0.38081 0 0.68996-0.30628 0.68996-0.68335v-7.2802c0.02046-0.62584 1.3219-1.8305 2.3875-2.7151 0.40626-0.33829 0.74114-0.69381 0.99389-0.88817 0.21006-0.15894 0.37566-0.72741 0.37566-0.72741v-7.4972c0-0.46675-0.38255-0.84552-0.85372-0.84552-0.47118 0-0.85419 0.37878-0.85419 0.84552v6.2589c0 1.0792-4.0978 3.7219-4.0978 3.7219s-4.0987-2.6427-4.0987-3.7219v-6.2589c0-0.46675-0.38255-0.84552-0.85372-0.84552zm14.088 0c-0.92045 0-1.2803 0.35696-1.2803 1.2688v8.3732c0 0.92871 0.59892 1.5223 1.5366 1.5223h6.489c0.65916 0 1.1954 0.53158 1.1954 1.1844v5.4129c0 0.65297-0.53624 1.1839-1.1954 1.1839h-2.732c-0.659 0-1.1954-0.53095-1.1954-1.1839v-2.5375c0-0.5601-0.45931-1.0147-1.0246-1.0147h-2.0491c-0.56525 0-1.0246 0.45478-1.0246 1.0147v4.1447c0 0.9118 0.3599 1.2688 1.2803 1.2687h9.0507c0.9206 0 1.2803-0.35695 1.2803-1.2687v-8.8808s-0.0015 0.05585-0.0066 0c-0.0683-0.83073-0.65063-1.3536-1.53-1.3536h-6.8303c-0.65916 0-1.1954-0.53111-1.1954-1.1839v-5.075c0-0.65297 0.5364-1.1839 1.1954-1.1839h5.1228c0.65917 0 1.1954 0.53111 1.1954 1.1839v2.5375c0 0.55994 0.45947 1.0147 1.0246 1.0147 0.56509 0 1.0241-0.45494 1.0241-1.0147v-4.1442c0-0.9118-0.35974-1.2688-1.2803-1.2688zm13.661 0c-0.92044 0-1.2803 0.35696-1.2803 1.2688v8.3732c0 0.92871 0.59892 1.5223 1.5366 1.5223h6.489c0.65916 0 1.1954 0.53158 1.1954 1.1844v5.4129c0 0.65297-0.53624 1.1839-1.1954 1.1839h-2.7325c-0.65917 0-1.1949-0.53095-1.1949-1.1839v-2.5375c0-0.5601-0.45947-1.0147-1.0246-1.0147h-2.0496c-0.56525 0-1.0241 0.45478-1.0241 1.0147v4.1447c0 0.9118 0.3599 1.2688 1.2803 1.2687h9.0507c0.92061 0 1.2808-0.35695 1.2808-1.2687v-8.8808s-2e-3 0.05585-0.0071 0c-0.06846-0.83073-0.65047-1.3536-1.53-1.3536h-6.8303c-0.659 0-1.1954-0.53111-1.1954-1.1839v-5.075c0-0.65297 0.5364-1.1839 1.1954-1.1839h5.1228c0.65916 0 1.1954 0.53111 1.1954 1.1839v2.5375c0 0.55994 0.45947 1.0147 1.0246 1.0147 0.56509 0 1.0246-0.45494 1.0246-1.0147v-4.1442c0-0.9118-0.36022-1.2688-1.2808-1.2688zm13.661 0c-0.92045-3.16e-4 -1.2803 0.35696-1.2803 1.2688v18.1c0 0.9118 0.3599 1.2683 1.2803 1.2683h9.2215c0.23567 0 0.42662-0.18947 0.42662-0.42276v-0.42276c0-0.46675-0.72407-0.84599-1.1954-0.84599h-3.9104c-0.76322 0-1.3828-0.61393-1.3828-1.37v-5.0408c0-0.75605 0.61953-1.3705 1.3828-1.3705h4.6792c0.23567 0 0.42662-0.18962 0.42662-0.42276v-0.84552c0-0.23346-0.19112-0.42276-0.42662-0.42276h-6.9893c-0.85037 0-1.4639-0.60776-1.4639-1.4501v-4.5435c0-0.84238 0.61356-1.4497 1.4639-1.4497h6.9893c0.23567 0 0.42662-0.18947 0.42662-0.42276v-1.1839c0-0.23329-0.19112-0.42323-0.42662-0.42323zm12.551 0c-0.47118 0-0.85372 0.37862-0.85372 0.84552v7.4972s0.16592 0.56848 0.37613 0.72741c0.25243 0.19452 0.58699 0.54988 0.99342 0.88817 1.0654 0.88467 2.367 2.0893 2.3875 2.7151v7.2802c0 0.37707 0.30868 0.68335 0.68949 0.68335h2.7188c0.38063 0 0.68949-0.30628 0.68949-0.68335v-7.2802c0.0208-0.62584 1.3222-1.8305 2.3875-2.7151 0.40625-0.33829 0.7413-0.69381 0.99388-0.88817 0.20989-0.15894 0.37566-0.72741 0.37566-0.72741v-7.4972c0-0.46675-0.38254-0.84552-0.85372-0.84552-0.47134 0-0.85373 0.37878-0.85373 0.84552v6.2589c0 1.0792-4.0982 3.7219-4.0982 3.7219s-4.0987-2.6427-4.0987-3.7219v-6.2589c0-0.46675-0.38255-0.84552-0.85372-0.84552zm16.237 0c-1.9805 0-3.3764 1.1298-3.5317 2.9261-0.0166 0.19252 0.14228 0.34959 0.33558 0.34959h1.3133c0.1933 0 0.34515-0.15807 0.37646-0.34858 0.12587-0.76596 0.69081-1.222 1.4917-1.222 0.88161 0 1.538 0.55638 1.538 1.4511 0 0.81019-0.49016 1.367-1.4012 2.2568l-3.3151 3.1152a0.80918 0.80918 113.39 0 0-0.25506 0.58968v0.8509a0.35 0.35 45 0 0 0.35 0.35h6.4507a0.35 0.35 135 0 0 0.35-0.35v-1.0595a0.35 0.35 45 0 0-0.35-0.35h-3.862v-0.06984l1.4644-1.4562c2.062-1.9087 2.6154-2.8628 2.6154-4.0209 0-1.7645-1.4205-3.0123-3.5706-3.0123zm-98.544 1.6915h6.1474c0.93752 0 1.5371 0.59361 1.5371 1.5223v5.2559c-1.851 0.13372-2.3908 1.3264-2.3908 2.0182v7.2732c0 0.65297-0.53624 1.1844-1.1954 1.1844h-4.0987c-0.93736 0-1.5366-0.59344-1.5366-1.5223v-14.209c0-0.92871 0.59956-1.5223 1.5371-1.5223zm17.418 0h3.54c1.3456 0 2.4366 1.0809 2.4366 2.4138v12.426c0 1.3329-1.091 2.4138-2.4366 2.4138h-3.54c-0.65917 0-1.1954-0.53095-1.1954-1.1839v-14.886c0-0.65297 0.5364-1.1839 1.1954-1.1839z" fill="#fafafa" stroke-width=".16033"/>
 <style type="text/css">.st0{fill:#FC0C18;}
	.st1{fill:#FC0C18;}</style>
</svg>
