<svg width="480" height="320" version="1.1" viewBox="0 0 480 320" xml:space="preserve" xmlns="http://www.w3.org/2000/svg"><defs><linearGradient id="a" x1="95.67" x2="72.9" y1="85" gradientTransform="scale(3.78)" gradientUnits="userSpaceOnUse"><stop stop-color="#cc3b02" offset="0"/><stop stop-color="#d48e15" offset="1"/></linearGradient></defs><rect width="480" height="320" ry="24" fill="url(#a)"/><path d="m429.8 89.35-4.793 5.439h15.8c2.407 0 2.407 3.604 0 3.604h-14.19l-4.793 5.439-9.793 11.1h22.84l5.721-6.48h-15.44l4.074-4.615h11.59c9.648 0.0104 9.647-14.48-0.01171-14.48h-10.99zm-280.6 8.854 0.00977 0.02148h-0.00977l14.38 31.37c1.553 3.387 4.943 5.555 8.664 5.555h3.678l7.273 18.39h0.00586l36.47 92.24h6.629l-27.1-92.25h0.00976l-5.398-18.38h4.189c0.0786 0 0.1509-0.01983 0.2285-0.02343 0.1845-9e-3 0.3652-0.02639 0.543-0.05469 0.1152-0.0185 0.2298-0.03415 0.3418-0.06055 0.2183-0.0511 0.4279-0.1199 0.6328-0.1992 0.0811-0.0314 0.1575-0.06597 0.2363-0.1016 0.5258-0.2369 1.001-0.5628 1.404-0.959 0.03349-0.033 0.06505-0.06366 0.09765-0.09766 0.3955-0.4116 0.7142-0.8908 0.9453-1.416 0.0205-0.0468 0.0395-0.09117 0.0586-0.1387 0.2212-0.5485 0.3485-1.141 0.3535-1.756 3e-5 -7e-3 0.00391-0.01263 0.00391-0.01953 0-5e-3 -0.00195-0.01042-0.00195-0.01562v-0.00196c1.1e-4 -0.3704-0.04307-0.7472-0.1328-1.127l-7.316-30.96h-18.6l0.00391 0.009765h-0.00391l1.4 4.291 4.572 14.05c0.1177 0.3625 0.1625 0.7251 0.1504 1.078-6e-3 0.1652-0.02204 0.3275-0.05664 0.4883-0.018 0.0917-0.03836 0.1824-0.06446 0.2715-3.5e-4 1e-3 3.5e-4 0.00291 0 0.00391-4e-4 1e-3 -0.00195 0.00291-0.00195 0.00391-0.0669 0.2265-0.1568 0.4445-0.2715 0.6484-1e-3 2e-3 -0.00486 0.00386-0.00586 0.00586-2e-3 4e-3 -0.00581 0.00802-0.00781 0.01172-0.1183 0.2071-0.2601 0.4011-0.4219 0.5762-0.2248 0.2405-0.4948 0.451-0.7832 0.6113-0.0222 0.0123-0.04381 0.02541-0.06641 0.03711-0.4209 0.2211-0.8973 0.347-1.418 0.3477h-0.0039c-4e-3 1e-5 -0.00802 0-0.01172 0h-0.4785c-0.2195 0-0.4387-0.03177-0.6582-0.07617-0.0478-0.0102-0.09545-0.02266-0.1426-0.03516-0.1066-0.0269-0.2106-0.05781-0.3125-0.09961-0.0332-0.0126-0.06496-0.02732-0.09766-0.04102-0.1255-0.0548-0.247-0.1095-0.3652-0.1816-3e-3 -2e-3 -0.00677-0.0019-0.00977-0.0039-2e-3 -1e-3 -0.00386-0.00291-0.00586-0.00391-0.1332-0.0822-0.2557-0.1649-0.3789-0.2676-0.1251-0.0938-0.2291-0.2076-0.3438-0.3223-0.0521-0.0625-0.1041-0.1152-0.1562-0.1777-0.0938-0.1251-0.1888-0.261-0.2617-0.3965-0.0212-0.0371-0.03553-0.07416-0.05273-0.1113-0.0224-0.0446-0.0422-0.09076-0.0625-0.1367-0.0272-0.0638-0.05474-0.1265-0.08204-0.1992l-7.545-20.4h-19.66zm216.7 0.01172-19.22 31.51c-0.2202 0.3609-0.3791 0.7336-0.4844 1.111-0.1052 0.3777-0.1561 0.7598-0.1562 1.137-1.6e-4 0.3769 0.04946 0.7491 0.1445 1.107 0.0951 0.3584 0.2356 0.7033 0.416 1.025 0.1804 0.3221 0.4022 0.6225 0.6582 0.8906s0.5475 0.5047 0.8692 0.7012c0.3216 0.1965 0.6733 0.3519 1.051 0.459s0.7797 0.166 1.203 0.166h5.148l-75.67 109.5h6.295l90.52-109.5h6.848c0.6201 0 1.228-0.1327 1.783-0.3828 0.555-0.2501 1.059-0.6169 1.471-1.086l32.28-36.62h-21.25l-17.29 22.39c-0.297 0.3804-0.6736 0.6815-1.096 0.8887-0.4221 0.2071-0.8923 0.3184-1.377 0.3184-0.3192 0-0.6207-0.04366-0.9024-0.127-0.2816-0.0833-0.5427-0.2055-0.7793-0.3574-0.2366-0.152-0.4486-0.335-0.6328-0.541-0.1842-0.206-0.3404-0.4341-0.4648-0.6797-0.1244-0.2456-0.2162-0.5068-0.2734-0.7774-0.0572-0.2705-0.0799-0.5492-0.0625-0.8301s0.07434-0.5631 0.1738-0.8398c0.0995-0.2767 0.2427-0.5487 0.4316-0.8066l13.64-18.64h-23.27zm-313.8 0.009765c-2.71 0-4.097 3.231-2.242 5.201l44.12 46.72c0.01622 0.0172 0.03446 0.03183 0.05078 0.04883l90.25 95.59h15.61l-102.5-142c-0.6183-0.8544-1.33-1.625-2.113-2.299-0.0218-0.0187-0.04255-0.03794-0.06445-0.05664-0.7797-0.6627-1.631-1.229-2.535-1.695-0.01851-0.0095-0.03613-0.01985-0.05469-0.0293-0.9178-0.4678-1.888-0.8284-2.895-1.074-0.0034-8.31e-4 -0.006366-0.003106-0.009766-0.003906-0.0019-4.55e-4 -0.003959 4.55e-4 -0.005859 0-1.018-0.2471-2.071-0.377-3.141-0.377h-34.43-0.009765zm47.5 0 11.65 16.86h23.92c0.2814 0 0.5576 0.03837 0.8223 0.1113 0.2646 0.073 0.5188 0.1803 0.7539 0.3184 0.2352 0.1381 0.4516 0.3085 0.6445 0.5039 0.193 0.1954 0.3619 0.4172 0.5 0.6621l10.85 19.41c0.1446 0.2592 0.2475 0.5244 0.3125 0.793 0.065 0.2686 0.09158 0.5387 0.08398 0.8047-0.0151 0.532-0.1678 1.048-0.4316 1.498-0.1319 0.2251-0.291 0.4324-0.4746 0.6191-0.1836 0.1867-0.3907 0.3519-0.6191 0.4883-0.2284 0.1364-0.4779 0.2442-0.7441 0.3184-0.2662 0.0742-0.5487 0.1133-0.8457 0.1133h-2.773l-12.23-20.06h-15.92l22.71 32.88h0.00391l63.72 92.25h13.41l-68.45-141.5c-0.2267-0.4677-0.4844-0.9148-0.7695-1.338-0.2851-0.4231-0.6002-0.8228-0.9375-1.197-0.3374-0.3745-0.6987-0.723-1.082-1.045h-0.00196c-1.151-0.9661-2.493-1.686-3.945-2.107-0.4828-0.1401-0.9787-0.2482-1.482-0.3203h-0.00196c-0.5043-0.07211-1.016-0.1094-1.535-0.1094h-37.14zm112.2 0c-0.7137 0-1.403 0.08204-2.064 0.2363-0.01 0.0023-0.01939 0.005513-0.02929 0.007813-0.6479 0.1535-1.269 0.3747-1.852 0.6582-0.0192 0.0094-0.03744 0.01981-0.05664 0.0293-0.5696 0.2823-1.104 0.6218-1.596 1.012-0.0241 0.019-0.04651 0.0393-0.07031 0.0586-0.4808 0.3891-0.9195 0.8263-1.311 1.303-0.024 0.0292-0.04671 0.05839-0.07031 0.08789-0.3761 0.4699-0.7033 0.977-0.9805 1.514-0.029 0.056-0.05619 0.1133-0.08399 0.1699-0.2588 0.5278-0.4687 1.081-0.6211 1.656-0.0176 0.0664-0.03273 0.1323-0.04883 0.1992-0.1365 0.5676-0.216 1.154-0.2383 1.752-4e-3 0.0914-0.00486 0.1815-0.00586 0.2734-4e-3 0.575 0.05065 1.159 0.1621 1.748 0.0123 0.0658 0.00398 0.1294 0.01758 0.1953l4.305 20.44c0.016 0.0758 0.0481 0.144 0.0664 0.2188 0.0603 0.2466 0.1321 0.4879 0.2168 0.7226 0.0556 0.1537 0.1161 0.303 0.1816 0.4512 0.1025 0.2323 0.2163 0.4563 0.3418 0.6738 0.0675 0.1168 0.1352 0.2315 0.209 0.3438 0.1428 0.2177 0.2999 0.4256 0.4648 0.625 0.0863 0.1042 0.1736 0.2058 0.2656 0.3047 0.1881 0.2026 0.3877 0.3934 0.5977 0.5723 0.0767 0.0652 0.153 0.1295 0.2324 0.1914 0.2382 0.1859 0.4875 0.3556 0.748 0.5098 0.0671 0.0396 0.1327 0.07977 0.2012 0.1172 0.2844 0.1558 0.5814 0.2924 0.8867 0.4082 0.058 0.0219 0.1151 0.04405 0.1738 0.06445 0.3337 0.1166 0.6765 0.208 1.029 0.2734 0.0206 4e-3 0.03995 0.01007 0.06055 0.01367 6e-3 1e-3 0.01313 8.1e-4 0.01953 0.00195 0.3858 0.0669 0.7815 0.1044 1.184 0.1055 7e-3 2e-5 0.01303 0 0.01953 0h19.97l0.125 2.271c0.1042 1.793-1.325 3.293-3.107 3.293h-21.53-0.00977l22.12 105.1h13.87l2.719-96.18c9e-3 -0.0928 0.02053-0.1849 0.02343-0.2793l0.5723-20.43c0.0467-1.686-0.4303-3.262-1.281-4.576-3e-3 -0.00499-0.00772-0.01052-0.01172-0.01562-8e-3 -0.0122-0.01739-0.02296-0.02539-0.03516-0.2768-0.4202-0.5907-0.8135-0.9394-1.174-4e-3 -4e-3 -0.00802-0.00898-0.01172-0.01368-8e-3 -8e-3 -0.01729-0.01523-0.02539-0.02343-0.3564-0.3634-0.7442-0.6955-1.164-0.9863-2e-3 -1e-3 -0.00386-0.00291-0.00586-0.00391-4e-3 -2e-3 -0.00802-0.00481-0.01172-0.00781-0.4175-0.2876-0.8643-0.5348-1.334-0.7402-0.0215-0.00899-0.04275-0.01814-0.06445-0.02734-0.4767-0.2035-0.975-0.3643-1.494-0.4727-0.5308-0.1108-1.082-0.1699-1.646-0.1699h-16.14c-0.396 0-0.7752-0.07203-1.125-0.207-0.3498-0.135-0.6711-0.3325-0.9473-0.5781-0.2762-0.2456-0.5084-0.5394-0.6836-0.8711-0.1752-0.3317-0.2929-0.7003-0.3398-1.094l-0.334-2.826h27.97l0.4805-16.86h-37.98zm91.01 0.007813-37.27 0.001953c-4.773-0.01042-8.726 3.679-9.049 8.432l-1.49 22.17c-0.115 1.714 0.5111 3.293 1.594 4.445 9.9e-4 1e-3 9.3e-4 0.00291 0.00195 0.00391 0.2623 0.2788 0.5512 0.5318 0.8633 0.7559 5e-3 4e-3 0.00897 0.00802 0.01367 0.01172 0.0196 0.014 0.04075 0.02721 0.06055 0.04101 0.2781 0.1934 0.5762 0.3617 0.8867 0.5059 0.076 0.0355 0.1528 0.06731 0.2305 0.09961 0.2812 0.1162 0.5716 0.211 0.873 0.2832 0.1104 0.0268 0.2212 0.04786 0.334 0.06836 0.2768 0.04959 0.5604 0.08004 0.8496 0.08984 0.0725 3e-3 0.1397 0.02148 0.2129 0.02148h13.85l-0.5606 3.01c-9e-3 0.0513-0.02921 0.09817-0.04101 0.1484-0.061 0.262-0.1544 0.5082-0.2754 0.7383-0.0514 0.0973-0.1071 0.1906-0.168 0.2812-0.1352 0.2014-0.2923 0.3833-0.4688 0.5469-0.0786 0.0729-0.1584 0.1426-0.2441 0.207-0.1988 0.1491-0.4142 0.2746-0.6445 0.373-0.09099 0.0391-0.1823 0.07508-0.2773 0.1055-0.2531 0.0803-0.5187 0.1278-0.793 0.1406-0.0507 2e-3 -0.09916 0.01368-0.1504 0.01368h-16.95v0.01172l-0.8652 12.81h0.00196l-6.215 92.26h12.83l34.4-118.5c4e-3 -0.0144 0.00381-0.02847 0.00781-0.04297 0.1139-0.3998 0.1771-0.798 0.1953-1.191 1.5e-4 -3e-3 0.00195-0.00677 0.00195-0.00977 9e-5 -2e-3 -8e-5 -0.00386 0-0.00586 0.0172-0.3994-0.01363-0.7912-0.08593-1.172-2e-3 -9e-3 -0.00191-0.01835-0.00391-0.02734-7.9e-4 -4e-3 -0.00291-0.00802-0.00391-0.01172-0.0754-0.3807-0.1919-0.7501-0.3476-1.1-1e-3 -2e-3 -8.3e-4 -0.00482-0.00196-0.00782-5.8e-4 -1e-3 -9.5e-4 -0.0029-0.00195-0.0039-0.1541-0.3436-0.3473-0.6691-0.5703-0.9707-0.0139-0.01889-0.02682-0.03794-0.04102-0.05664-0.2196-0.2889-0.4687-0.5528-0.7441-0.791-0.0229-0.0198-0.04516-0.0392-0.06836-0.05859-0.2802-0.234-0.5865-0.4396-0.9141-0.6113-0.0179-9e-3 -0.03463-0.0201-0.05273-0.0293-0.6998-0.3565-1.497-0.5606-2.352-0.5606h-12.99c-0.4794 0-0.9303-0.107-1.332-0.2969-0.4017-0.1899-0.7537-0.4627-1.037-0.7949s-0.4968-0.7214-0.6211-1.148-0.1596-0.891-0.08398-1.365l0.3125-1.959h24.29l4.898-16.87zm6.619 0.001953-17.9 55.31h0.01367l-29.84 92.25h13.13l60.59-105.1h-0.00977-14.05c-2.272 0-3.772-2.345-2.834-4.408l0.5312-1.156h19.57 0.01172l8.359-14.5h-0.01172-16.47c-2.272 0-3.774-2.343-2.836-4.406l0.5312-1.158h22.32 0.00977l9.402-16.86h-0.01172-50.5-0.00977zm-224 16.85h1.115c0.5133 0 1.018 0.05885 1.51 0.1719 0.4915 0.113 0.9698 0.2824 1.422 0.5 0.4521 0.2176 0.8803 0.4852 1.275 0.7988 0.3951 0.3136 0.7557 0.673 1.076 1.074l14.35 18.03c0.2032 0.2554 0.3579 0.5246 0.4688 0.8027 0.1109 0.2781 0.1771 0.5643 0.2031 0.8496 0.026 0.2853 0.01244 0.5708-0.03906 0.8476-0.0515 0.2768-0.1402 0.5441-0.2617 0.7969-0.1215 0.2527-0.2749 0.4901-0.459 0.7031-0.184 0.213-0.3976 0.401-0.6367 0.5586-0.2391 0.1576-0.5042 0.2844-0.791 0.3711-0.2868 0.0866-0.5949 0.1328-0.9219 0.1328-0.4925 0-0.9783-0.05385-1.451-0.1582-0.4729-0.1044-0.9353-0.2577-1.373-0.459s-0.8533-0.4496-1.24-0.7402c-0.3869-0.2907-0.744-0.6235-1.064-0.9961l-15.55-18.13c-0.2163-0.2527-0.3845-0.5237-0.5059-0.8027-0.1213-0.279-0.1985-0.5667-0.2324-0.8555-0.03387-0.2887-0.0246-0.5774 0.02148-0.8594 0.04609-0.2819 0.1295-0.5558 0.248-0.8144 0.1186-0.2586 0.2735-0.502 0.457-0.7207 0.1835-0.2188 0.3977-0.4158 0.6387-0.5781 0.241-0.1624 0.5078-0.2914 0.7988-0.3809 0.291-0.0894 0.6059-0.1387 0.9395-0.1387z" fill="#fff"/></svg>
