<svg width="480" height="320" version="1.1" viewBox="0 0 127 84.667" xmlns="http://www.w3.org/2000/svg" xmlns:xlink="http://www.w3.org/1999/xlink">
 <defs>
  <linearGradient id="a" x1="116.42" x2="83.5" y1="13.229" y2="84.667" gradientUnits="userSpaceOnUse">
   <stop stop-color="#ffa154" offset="0"/>
   <stop stop-color="#cc3b02" offset="1"/>
  </linearGradient>
 </defs>
 <rect width="127" height="84.667" ry="4.2333" fill="url(#a)" stroke-linecap="square" stroke-linejoin="round" stroke-width=".52917" style="paint-order:stroke fill markers"/>
 <path id="b" d="m88.614 13.229c-0.0899 2.59e-4 -0.18627 0.01372-0.27089 0.0028h-0.38948c-0.52855 0.36686-0.23751 1.5097-1.3025 1.3692-0.08875 0.50196 0.21016 1.2065-0.76213 1.212-0.38338 0.0029-0.25853 0.45069-0.26246 0.71371-0.02052 1.5634-0.02432 3.128-0.03369 4.6914l-0.02246 0.0021c0.07438-0.0029 0.14914-0.0056 0.22387-0.0084 0.74198-0.01509 1.4862-0.07435 2.2246-0.03088 0.6985 0.0406 0.92418-0.23933 0.8667-0.89687-0.0392-0.4477-0.0465-0.90538 5e-3 -1.3509 0.0446-0.3823-0.29505-0.98781 0.46668-1.0449 0.78114-0.05929 0.47331 0.58859 0.59511 0.95652 0.94283-0.12109 1.2646 0.31014 1.1278 1.2106-0.0561 0.37278-0.0226 0.75828-0.0288 1.139 2.158-0.08189 2.1536-0.08156 2.1601-2.2864 5e-3 -1.7678 0.0239-3.5362 0.0365-5.304-2.0621 0.02839-2.0623 0.02891-2.2211 2.1488-0.0467 0.41572 0.25936 1.0242-0.56633 1.012-0.80829-0.01228-0.47419-0.61826-0.54459-1.0148-0.8402 0.11263-1.1787-0.23675-1.0442-1.0842 0.0608-0.378 0.0396-0.76924 0.0554-1.1544-0.0312-0.24658-0.16319-0.28255-0.31299-0.28211zm1.3018 2.5208c2e-3 -2.54e-4 4e-3 -4.42e-4 6e-3 -7.02e-4l-0.0112-0.02737c2e-3 0.0093 4e-3 0.01847 6e-3 0.02807zm1.1355 5.4444h-7e-4l7e-4 0.01263c8e-5 -0.0042-7e-5 -0.0084 0-0.01263zm-50.56-7.6522c-0.1333 0.02515-0.26669 0.04924-0.40072 0.07439v7.02e-4c0.18828 0.9802-0.52381 0.82151-1.0506 1.0127 0.01006 0.48615 0.04898 1.0036-0.58879 1.1516-0.29572 0.06863-0.32491 0.26438-0.32562 0.49686-0.0029 1.0607-0.0028 2.1222 0 3.1833 3.6e-4 0.22421-0.0053 0.51721 0.29404 0.51721 0.98408 7.11e-4 0.68799 0.67872 0.68634 1.2078 1.5822-0.0065 3.1636-0.02087 4.7454-0.01544 0.43476 0.0011 0.78294-0.03223 0.73336-0.60353-0.02013-0.23068 0.01978-0.52376 0.31369-0.49896 0.96582 0.08156 0.7905-0.58414 0.79511-1.1418 0.01256-1.4474 0.02399-2.8945 0.03579-4.3426-0.67655 0.11882-1.2632 0.10906-1.2625-0.8309 0-0.06755-0.19234-0.13595-0.29475-0.20422-1.227-0.0026-2.4538-0.0053-3.6808-7e-3zm5.2381 1.0421c0.0054-9.52e-4 0.01071-0.0018 0.01614-0.0028l-0.01614-0.0035c-1.8e-5 0.0021 1.8e-5 0.0042 0 0.0063zm-6.6234 6.6023c-0.0016 8e-6 -0.0033-3e-6 -0.0049 0l0.0049 0.01474c-3.6e-5 -0.0048-1.5e-5 -0.0099 0-0.01474zm21.013-7.6431c-1.2242 0.0019-2.4479 0.0038-3.6717 0.0056-0.19546 0.09091-1.3233 0.92896-1.3362 1.3264-0.02911 0.90079-0.54534 0.94024-1.2014 0.88634 0.0022 1.8109 0.0056 3.6229 0.0084 5.4353 0.67874-9e-3 1.3784-0.0044 2.0338-0.01053 1.0632-0.01006 1.3969-0.29919 1.2309-1.2772-0.13977-0.82569 0.23518-1.1102 1.0253-0.99091 0.58244 0.08803 1.2254 0.25639 1.1607-0.72704-0.01473-0.22385 0.20808-0.31818 0.41756-0.30527 0.4786 0.02982 0.61749-0.22191 0.60704-0.64985-0.0079-0.31907 0.19615-0.48262 0.49546-0.46177 0.64855 0.04563 0.63221-0.37418 0.62107-0.81757-0.01154-0.45022 0.05085-0.81981-0.0077-1.353-1.2371 0.10636-1.1662-0.39135-1.3832-1.0604zm11.666 0.01965c-0.03698 0.36829-0.0179 0.54048-0.04772 0.7902-0.30512 0.24-0.62979 0.12486-0.90249 0.2358-4e-3 0.38832-0.01649 0.7063-0.12983 0.91582-0.1523 0.2813-0.52281 0.34448-1.0534 0.2386 0.01022 1.8336 0.07248 3.5881 0.08211 5.4226-0.01114 0.07154 0.97151 0.01705 1.44 0.01053 1.7153-0.02371 3.4333-0.06171 5.1461 0.01123 0.95697 0.04086 1.2226-0.31359 1.0281-1.1706-1.0639-6e-3 -2.1329 0.09579-3.1903-0.02035-0.38734-0.04276-0.94686 0.14474-1.1046-0.20702-0.22499-0.5016-0.06513-1.1432 0.0035-1.7102 0.02946-0.24685 0.36576-0.19783 0.58458-0.20001 0.51417-6e-3 1.0356-0.05412 1.5411 0.0091 0.81923 0.10276 1.2214-0.16583 1.1179-1.0253 0-6.79e-4 0.0393-7e-3 0.0393-7e-3 -0.73227-0.05174-2.3859-0.10495-2.4808-0.08842-1.0305 0.17822-0.84764-0.54349-0.88213-1.1439-0.03773-0.66328 0.0268-1.1181 0.90459-1.0365 0.8663 0.08012 1.7452 0.0237 2.619 0.01474 0.36901-0.0036 0.81712 0.1135 0.80775-0.52212-0.0097-0.63202-0.46098-0.49695-0.82389-0.50809-1.5501-0.04848-3.1512 0.16371-4.6991-0.0091zm5.563 6.4542c0.0058 3.3e-5 0.0117-3.9e-5 0.01754 0l-0.01895-0.0063c4.92e-4 0.0021 9.19e-4 0.0042 0.0014 0.0063zm-7.6964-4.2738c-1.8e-5 -0.0033 1.8e-5 -0.0065 0-0.0098l-0.0042 0.0091c0.0014 2.88e-4 0.0028 4.16e-4 0.0042 7e-4zm1.1832-1.1544c1.8e-5 -0.0019-2.2e-5 -0.0037 0-0.0056l-0.01614 0.01193c0.0054-0.0024 0.01074-0.0041 0.01614-0.0063zm-12.624-0.10527c0.22748-0.0069 0.49207 0.03774 0.79371 0.13404 0.50447 0.16097 0.36446 0.57682 0.32422 0.87792-0.05569 0.41788 0.34308 1.0666-0.3565 1.2071-0.49333 0.09881-0.77269 0.21046-0.75651 0.7523 0.01186 0.40638-0.2842 0.43345-0.59932 0.43019-0.34601-0.0043-0.43337-0.20895-0.4323-0.50107 0.0018-0.38518 7.04e-4 -0.76994 7.04e-4 -1.1551h-0.0035v-0.28773c2.69e-4 -0.95127 0.34706-1.4368 1.0295-1.4576zm-15.836 0.0807c0.03072 1.19e-4 0.06179 5.5e-4 0.09404 0.0014 0.93134 0.02479 1.2301 0.29788 1.0393 1.1671 0.02371 1.2425 0.03692 2.485 0.0786 3.7264 0.01473 0.43441-0.85634 0.47539-1.0288 0.53826-1.2697 0.0963-1.2701 0.09583-1.2716-1.1783-3.52e-4 -0.99816 0.06114-2.001-0.01755-2.9931-0.07275-0.91337 0.15362-1.2655 1.106-1.2618zm31.432 7.6746c-0.3357 0.0026-0.68379 0.22795-1.0302 0.42036-0.82318 0.78725-2.8127 2.6266-3.0218 2.6934-1.1534 0.36865-1.1873 0.48091-0.906 1.6253 0.14193 0.57849-3.6262 8.5615-4.0549 10.53-0.07941 0.3647-1.8565 2.0769-2.1432 2.1229-0.67443 0.93708-0.5718 2.0468-0.69827 3.1061-0.02839 0.23894-0.01206 0.54059 0.23299 0.56072 1.2975 0.10636 0.56996 1.1407 0.46037 1.7699-0.4283-0.66041-0.72867-1.1178-1.3629-0.9881l0.0077-0.0091c-0.54759 0.46495-0.86687 0.69657-1.2934 0.87371-0.53968 0.22457-1.9924 0.61044-2.125 0.65967-1.9493 0.72581-7.6468 1.435-7.7245 0.6323-0.04096-0.4247 0.33225-4.824 0.73827-6.203 0.46387-1.5731 1.9558-1.9501 3.3819-2.1643 1.5016-0.22493 3.0218-0.32167 4.5356-0.46037 0.21702-0.01976 2.1823 0.18477 2.3124-1.0814 0.05533-0.53502-0.06661-1.0214-0.26387-1.5032-0.07833-0.22816-0.82876-0.54848-1.1299-0.47159-0.60364 0.0327-2.7606 0.14476-2.9938 0.18176-1.4807 0.23714-2.9329 0.52845-4.0345 1.6808-0.19726 0.20589-0.46329 0.44601-0.75792 0.19018-0.34852-0.30218-0.20965-0.71455-0.11228-1.0828 0.44411-1.6862 0.90902-3.3669 1.3488-5.0535 0.12145-0.46567 0.17047-0.94938 0.2779-1.419 0.36362-1.5971 1.5474-2.1451 3.0148-2.3783 1.6406-0.2605 3.2618-0.58027 4.8044 0.40352 0.55262 0.35176 1.0357 0.11067 1.2337-0.47932 0.23139-0.68952 0.39342-2.1146 0.37545-2.1531-0.79408-1.7365-2.6654-1.3203-3.8142-1.2485-0.42075 0.02659-3.8659 0.83026-5.0423 1.5615-0.92666 0.57562-2.1292 1.5082-2.9517 2.6113-0.90295 1.2102-1.3515 2.5151-1.6267 3.9405-0.15343 0.7912-0.3647 1.5747-0.53896 2.3573-0.50411 2.2633-0.429 3.9971-0.76423 5.9834-0.43333 2.5666-0.60136 5.1724-0.66388 7.7799-0.01365 0.56304 1.5041 2.3046 2.1559 2.5292 1.6496 0.56771 9.5715-1.7081 9.5715-1.7081 0.92774-0.17426 1.9259-0.88986 2.8878-1.8176-0.05317 1.0161-0.85878 3.8441-0.94178 4.4808-0.04959 0.38374-0.0327 0.83194 0.44914 0.95231 0.48615 0.12181 0.98226 0.08844 1.2765-0.42106 0.32409-0.55873 2.4254-7.2873 2.6639-8.1097 0.30972-1.0689 8.0598-3.4733 8.6171-2.9692 0.41248 0.37225 0.40229 1.0941 0.32001 1.6604-0.31979 2.2033-0.32764 7.3934-0.34668 7.7771-0.01545 0.31943-0.04502 0.69442 0.33405 0.8288 0.37979 0.13402 0.64326-0.13555 0.93898-0.3558 0.48902-0.36398 1.5136-10.815 2.0148-11.194 0.49406-0.3744 0.60469-0.87281-0.04351-1.3306-0.73551-0.51956-0.58494-8.6894-0.88424-10.066-0.09414-0.43548-0.55038-0.50461-0.85687-0.72774-0.31188-0.22708-2.0492-1.1857-1.5565-2.3215 0.06575-0.12971 0.47961-1.498 0.48423-1.6772-0.23941-0.38812-0.49331-0.52062-0.75441-0.51861zm35.05 0.04982c-0.25952-0.0049-0.55629 0.03578-0.89968 0.12632-1.0643 0.2799-2.0465 0.78123-3.0303 1.2688-0.69167 0.34422-4.4608 2.1943-5.2409 2.666-2.895 1.7516-5.6789 3.66-7.5771 6.509-1.7656 2.6496-3.009 5.5096-2.2401 8.8487 0.1836 0.79802 0.24797 1.7578 0.89616 2.2127 1.6173 1.1343 12.652 14.056 11.059 16.212-7.2e-4 0-0.54809 0.91933-0.54809 0.91933-0.43225 0.4592-0.4687 0.89543-0.81687 1.3762-0.74269 0.78581-1.4247 1.2043-2.2436 1.8162-0.24756 0.18469-0.61599 0.45541-0.84774 0.11298-0.27595-0.40925 0.03-0.58756 0.18737-0.80494 0.48866-0.6773 1.6209-0.88962 2.2302-1.5734 0.0607-0.06863 0.0772-0.31394 2e-3 -0.36352-0.73227-0.45236-1.3487-0.1993-2.132 0.08492-1.696 0.61586-3.564 1.1928-4.6409 2.1152-0.89827 0.76928-5.5776 3.9606-5.1019 4.9426 0.20373 0.42003 4.7858 1.9039 6.523 1.2323 1.1642-0.45022 13.967-6.2791 15.212-7.6585 0.47142-0.52279 0.94728-0.46328 0.57827-1.1474-0.25979-0.48184-1.1427-2.1937-1.4323-1.8534-0.45884 0.54004-13.993-19.76-12.365-23.577 0.2411-0.56484 3.9357-5.321 5.5925-5.9876 0.12827-0.05138 0.2604-0.0286 0.31861 0.11369 0.0949 0.2314 0.0515 0.44602-0.14106 0.60914-0.41644 0.3532-0.84901 0.68702-1.259 1.047-1.1207 0.98487-1.2007 1.3537-0.60212 2.6408 1.2091 0.96978 11.043-8.1933 10.574-9.5379-0.50447-1.4466-0.93091-2.3291-2.0555-2.3503zm-79.332 0.89126c-0.86127 0.0043-1.4906 0.05367-1.6492 0.14597-0.83647-0.01617-6.4489 1.6928-8.0234 2.3173-0.67874 0.26912-2.6638 2.3848-2.8176 3.2773-0.16744 0.96618-0.02138 1.2537 0.96564 1.2393 1.1807-0.01653 2.2829-0.38563 3.3882-0.74458 1.0783-0.35069 2.1551-0.70825 3.3096-0.70037 0.32913 0.0025 0.66234 0.0099 0.83301 0.36633 0.16995 0.35608-0.02526 0.64357-0.2351 0.88143-0.64065 0.7276-1.2854 1.4556-1.972 2.1404-0.90941 0.90762-1.1777 2.143-1.605 3.2612-0.21738 0.56771-0.59524 8.767-0.84424 9.9308-0.05246 0.24649-0.54221 0.40613-0.83792 0.59441-0.56915 0.36326-1.1316 0.73812-1.7172 1.0737-1.4437 0.82677-0.89926 2.4216 0.32562 2.9103 0.38554 0.1545 0.7603 0.34053 1.1228 0.54318 0.17714 0.09845 0.49918 0.83266 0.65476 1.0569 0.71682 1.0341-0.01864 8.952-0.21123 12.001-0.023 0.36075-3.4857 3.6283-3.6654 3.7875-0.76497 1.4459-0.69352 1.3929 0.85547 2.2983 0.20553 0.12001 2.4975-0.2205 2.9061 0.89336 0.19439 0.52926 0.59228 0.93126 1.2071 0.97617 0.6464 0.04671 1.2285-0.13018 1.6176-0.68423 0.16384-0.23355 0.30543-0.50653 0.37334-0.78248 0.27415-1.1092 1.0174-1.3877 2.0443-1.212 2.4307-0.26445 10.148-4.2964 12.32-5.311 0.95792-0.44698 5.1259-5.8385 3.1594-9.7266-0.1448-0.84151-11.097-5.0893-12.738-5.4163-0.4089-0.08192-0.86649-0.4873-0.65054-1.1046 0.0019-0.09845 0.0041-0.19734 0.0056-0.29615 0.04635-0.35751 0.25384-0.61526 0.53195-0.81827 1.7085-1.2468 9.4358-5.9186 10.256-6.4648 1.748-1.1638 3.4135-2.3639 5.0275-3.6387 1.9582-1.5468 1.7122-3.6547 2.5552-5.9981 0.4901-1.3618-8.1212-5.5978-9.9835-6.1349-1.5968-0.4607-4.6142-0.67115-6.509-0.66178zm59.435 0.06176c-3.5495 0.02137-10.336 0.70319-10.521 2.4583-0.0521 0.49405-0.38562 2.2373 0.1979 2.0408 0.62987-0.21235 1.2929-0.19967 1.9278-0.48352 0.87528-0.39093 1.8513-0.56577 2.7924-0.79932 0.64352-0.16025 1.0417 0.14907 1.0141 0.79511-0.03809 0.87492-0.12362 1.7553-0.28352 2.6162-0.18037 0.97014-0.74735 7.5485-0.9888 9.2754-0.25942 1.8533-0.17303 3.711-0.21615 5.5672-0.0148 0.62376-0.17199 1.2507-0.0049 1.873-0.12612 0.92235 0.2699 1.809 0.17755 2.7447-0.06575 0.66041 1.8795 0.17168 2.1748-0.28142-0.21127-1.7351-0.1317-3.4737 0.03789-5.2009 0.14372-1.4663 0.18059-3.492 0.44002-4.9447 0.54184-3.0362 0.35159-5.612 0.93547-8.6403 0.25655-1.3327-0.29989-4.0406 0.17404-4.1398 0.84905-0.17786 4.3356 0.46512 4.4086-0.1572 0.0981-0.83935 0.38651-1.856-0.16-2.5404-0.0994-0.1245-0.92285-0.19029-2.106-0.18316zm-56.663 5.0226c2.7722 0.02382 6.9322 1.1138 7.6992 2.4731 0.82282 1.4584-1.6548 4.9395-2.2225 5.5525-0.79946 0.86342-9.1694 6.8204-10.007 5.9763-0.5684-0.5731-0.48031-0.71424-0.57265-1.2155-0.20804-1.1307 0.9366-7.8976 1.6969-10.121 0.1757-0.51345 0.36595-1.03 0.57686-1.5341 0.13869-0.33236 0.3832-0.58552 0.69616-0.76985 0.43881-0.25852 1.2086-0.36935 2.1327-0.36142zm39.566 1.4007c0.23278 0.01409 0.47347 0.12781 0.70037 0.33545 0.10564 0.09665 1.2698 1.7468 1.3334 2.5236 0.13546 1.6647 0.44934 3.2886 0.29124 4.9616-0.05749 0.60867-4.4952 1.2375-6.309 1.3888-0.19223 0.01617-0.41948 0.0062-0.47229-0.22808-0.05929-0.26445 2.6971-6.3666 3.4668-8.1904 0.2367-0.56075 0.60154-0.81438 0.9895-0.7909zm-44.706 22.681c0.05068 0.0033 0.09963 0.01693 0.14667 0.04211 1.4035 0.7506 2.9801 1.0295 4.4633 1.5692 1.8537 0.67514 3.6556 1.4547 5.3174 2.5222 0.55262 0.35464 0.42257 0.94942 0.25334 1.7615-0.1642 0.78689-3.425 2.759-3.6036 2.8373-1.5483 0.68053-5.7295 2.3618-6.2914 2.4688-0.81527 0.15522-1.6157 0.39733-2.4134 0.6316-0.54075 0.15917-0.79122-0.06063-0.673-0.55791 0.32949-1.3837 0.60174-5.5125 0.61826-6.1686 0.05641-0.44411 0.34018-2.5542 0.34738-2.6415-0.04345-0.24557 1.0749-2.5139 1.8351-2.4646zm18.831 3.1727c-0.7585 0.0065-1.5348 0.18832-2.219 0.56563-1.0546 0.42399-1.7009 3.2437-1.7088 3.8387-0.01437 1.1045-0.16289 2.1674 0.57406 3.0969 0.10348 0.13043 0.70169 0.87447 0.78038 0.84213 0.16564 0.26517 1.6203 0.81266 1.9088 0.85757 1.5328 0.04527 2.9111-0.18919 3.9236-1.4443 1.0358-2.0729 1.156-4.1469 0.01123-6.2241-0.62218-0.99715-1.9182-1.5443-3.2703-1.5327zm34.708 0.15229c-0.05164 3.77e-4 -0.10494 0.0017-0.16 0.0028-1.1239 0.02336-3.7914 0.95141-3.8626 1.2295-1.1437 1.6126-1.1634 3.3918-0.78178 5.2303 0.40135 1.2364 1.301 1.8645 2.3966 2.4253 1.1207-0.13151 2.3105 0.13969 3.424-0.1165l-7e-3 0.0035c0.28709-0.01222 0.539-0.0075 0.95652-0.42247l0.0035 0.02526c0.25835-1.2084 0.07637-2.4316 0.12632-3.6471 0.01689-0.39524-0.20821-0.48214-0.54668-0.47861-0.80701 0.0083-1.6145 0.0096-2.4211 0-0.34242-0.0036-0.54048 0.09193-0.5523 0.48142-0.01186 0.39811 0.12899 0.55799 0.53896 0.61475 0.44874 0.06231 0.96991-0.10095 1.3327 0.32492 0.22692 0.60829 0.68732 1.2784-0.40914 1.5376-0.98451 0.26445-1.8008 0.01822-2.4738-0.75933-0.93815-1.0833-0.82406-2.2736-0.35229-3.4773 0.39237-0.99996 1.2444-1.2778 2.2415-1.252 0.6446 0.01725 1.2881 0.03225 1.932 0.04842 0.19632-1.425 0.21565-1.7823-1.3853-1.7706zm-16.331 0.0379c-1.0341 0.0011-2.0685 0.0017-3.1026 0.0028-0.15882 0.01688-0.31735 0.0326-0.4758 0.04912-0.33164 0.26984-0.23041 0.6453-0.23299 0.9888-0.01581 2.5842-0.02608 5.1687-0.0379 7.7532 0.59933 0.20912 1.1967 0.25023 1.7895-0.02105 0.0083-0.91732 0.0035-1.8365 0.03158-2.7531 0.0065-0.22672-0.17601-0.64049 0.3572-0.56072 0.4247 0.05174 0.66601 0.04619 0.87441 0.38106 0.59933 0.96439 1.2083 1.9231 1.8134 2.8843 1.286 0.0068 2.5717 0.01385 3.857 0.02105 0.01293-0.48974 0.49686-1.5032 0.49686-1.5032 0.023-0.38478 0.403-0.39322 0.64984-0.3958 0.60723-0.0053 1.2161 0.03082 1.8197-0.01193 0.5749-0.03988 0.82732 0.20876 0.86038 0.7488 0.16528 0.35716 0.27455 0.75672 0.50738 1.0625 0.46962 0.61693 1.1983 0.33885 1.7215 0.20842 0.50555-0.12648 0.09268-0.64736-0.01403-0.99301-0.94894-1.9022-1.7097-3.8772-2.3025-5.9181-0.20552-0.48938-0.41133-0.97944-0.61686-1.4688-0.41896-0.75778-1.7183-0.0016-1.9137 0.15509-0.46279 1.1473-0.92428 2.2956-1.3867 3.4429-0.2508 1.3374-0.84097 2.5619-1.3846 3.7854-0.27236 0.61334-0.48439-0.01793-0.65686-0.25615-0.42291-0.43189-1.3156-1.816-1.4457-1.9292-0.86737-0.75419 1.0699-2.1545 1.1713-2.8394 0.15271-1.0287-0.21178-1.8252-1.0569-2.4162-0.37476-0.34924-0.8579-0.35433-1.3228-0.41685zm25.315 0.03017c-1.8009 0.0041-3.6007 0.0083-5.4009 0.01263-0.10492 2.8986-0.07798 5.7975-0.01474 8.6964 1.8702-0.01797 3.7398-0.03572 5.61-0.05404 0-0.46782-3.4e-4 -0.93679-7e-4 -1.4043-1.046-0.25044-2.1109-0.12211-3.1615-0.09193-0.87097 0.02515-0.72994-0.50535-0.7109-0.99652 0.01904-0.48471-0.25806-1.1303 0.70669-1.0962 0.92343 0.03233 1.8606 0.13436 2.7797-0.08913 0-0.41824-1e-3 -0.83724-1e-3 -1.2555-0.89612-0.34242-1.8288-0.07575-2.7411-0.16773-0.30577-0.0309-0.77274 0.16349-0.72424-0.44914-0.0014-0.3841-0.0024-0.76856-0.0035-1.153-0.02371-0.42291 0.29912-0.33715 0.53195-0.34176 0.64029-0.01249 1.2815-0.0039 1.9222-0.0042 1.4796-7.19e-4 1.5279-0.06566 1.2085-1.6057zm-32.7 0.02105c-1.8616 0.01474-3.7228 0.02913-5.5833 0.04421-0.0031 2.8982-0.0052 5.7972-0.0084 8.6964 0.56519 0.26697 1.1566 0.11125 1.739 0.11018 0.01941-0.90187 0.10002-1.8072 0.0393-2.7018-0.05426-0.80162 0.25746-1.012 0.99512-0.9495 0.64209 0.05462 1.2944-0.0224 1.9376 0.02035 0.5846 0.03845 0.61945-0.28601 0.59932-0.71862-0.01976-0.41105 0.09258-0.86389-0.5937-0.83371-0.80629 0.03522-1.6159-0.0057-2.4232 0.01123-0.41141 9e-3 -0.53943-0.14211-0.56423-0.56142-0.09127-1.5325-0.1107-1.5313 1.4534-1.5313h0.87231c1.5961 0 1.5962-3.85e-4 1.5369-1.586zm-10.935 1.4057c0.91716 1.83e-4 1.8669 0.63817 2.0373 2.3446 0.03413 0.34242 0.09193 2.2457-0.58177 2.8275l-0.19369 0.19229c-0.96654 0.76317-2.1837 0.64441-2.8359-0.2765-0.68054-0.96008-0.68216-3.2485-0.06667-4.2366 0.31908-0.51205 0.97147-0.85139 1.6408-0.85126zm16.955 0.0407c0.05985-1e-3 0.12477 9.96e-4 0.1958 0.0063 1.1182 0.08552 1.6606 0.38138 1.6843 1.1614 0.02731 0.89828-0.62066 1.3388-1.8211 1.379-1.1422 0.0388-0.54822-0.64981-0.73686-1.2351 0.08691-0.5905-0.21979-1.296 0.67792-1.3116zm8.4059 1.4548c0.01242-4.46e-4 0.02449 3.48e-4 0.0372 0.0028 0.37907 0.0733 0.7232 1.6461 0.70739 2.0759-0.02407 0.6561-1.8549 0.59278-1.5074-0.32633 0.1267-0.36757 0.3778-1.7385 0.76283-1.7523z" fill="#fff" stroke-width=".35931"/>
 <style type="text/css">.st0{fill:#FC0C18;}
	.st1{fill:#FC0C18;}</style>
</svg>
