<svg width="480" height="320" version="1.1" viewBox="0 0 480 320" xml:space="preserve" xmlns="http://www.w3.org/2000/svg"><defs><linearGradient id="a" x1="374" x2="288" y2="320" gradientUnits="userSpaceOnUse"><stop stop-color="#ffa154" offset="0"/><stop stop-color="#cc3b02" offset="1"/></linearGradient></defs><rect width="480" height="320" ry="24" fill="url(#a)"/><path d="m69.57 129c-5.523 0-11.63 4.477-13.64 10l-15.29 42c-2.01 5.523 0.8365 10 6.359 10h40c5.523 0 11.63-4.477 13.64-10l15.29-42c2.01-5.523-0.8385-10-6.361-10zm204 0c-1.105 0-2.326 0.8954-2.729 2l-21.11 58c-0.402 1.105 0.1669 2 1.271 2h45c6.627 0 13.96-5.373 16.37-12l6.732-18.5c0.603-1.657-0.2514-3-1.908-3 1.657 0 3.489-1.343 4.092-3l4.914-13.5c2.412-6.627-1.005-12-7.633-12zm122 0c-6.627 0-13.96 5.373-16.37 12l-17.11 47c-0.603 1.657 0.2514 3 1.908 3h9.5c1.657 0 3.489-1.343 4.092-3l14.74-40.5c0.603-1.657 2.437-3 4.094-3h35.83c1.657 0 3.489-1.343 4.092-3l3.457-9.5c0.603-1.657-0.2513-3-1.908-3zm-275.8 16c-1.105 0-2.326 0.8954-2.729 2l-14.92 41c-0.603 1.657 0.2514 3 1.908 3h9c1.657 0 3.489-1.343 4.092-3l5.035-13.83h21c4.971 0 10.47-4.029 12.28-9l4.062-11.17c1.809-4.971-0.7521-9-5.723-9zm56 0c-4.971 0-10.47 4.029-12.28 9l-10.19 28c-1.809 4.971 0.754 9 5.725 9h33c1.657 0 3.489-1.343 4.092-3l2.852-7.834c0.603-1.657-0.2514-3-1.908-3h-26.5c-0.2762 0-0.4189-0.2239-0.3184-0.5l0.7285-2c0.1005-0.2761 0.4055-0.5 0.6816-0.5h26.5c1.657 0 3.489-1.343 4.092-3l6.248-17.17c1.809-4.971-0.7521-9-5.723-9zm42 0c-1.105 0-2.326 0.8954-2.729 2l-14.92 41c-0.603 1.657 0.2514 3 1.908 3h9.25c1.657 0 3.489-1.343 4.092-3l9.828-27c0.201-0.5523 0.811-1 1.363-1h13.5c0.5523 0 0.8377 0.4477 0.6367 1l-9.828 27c-0.603 1.657 0.2514 3 1.908 3h9.25c1.657 0 3.489-1.343 4.092-3l12.01-33c2.01-5.523-0.8365-10-6.359-10zm121 0c-5.523 0-11.63 4.477-13.64 10l-9.463 26c-2.01 5.523 0.8365 10 6.359 10h25c5.523 0 11.63-4.477 13.64-10l9.463-26c2.01-5.523-0.8385-10-6.361-10zm-265.9 1h21c0.5523 0 0.8377 0.4477 0.6367 1l-9.463 26c-0.201 0.5523-0.813 1-1.365 1h-21c-0.5523 0-0.8358-0.4477-0.6348-1l9.463-26c0.201-0.5523 0.811-1 1.363-1zm208.5 0h27c0.2762 0 0.4189 0.2239 0.3184 0.5l-0.7285 2c-0.1005 0.2761-0.4055 0.5-0.6816 0.5h-27c-0.2761 0-0.4189-0.2239-0.3184-0.5l0.7285-2c0.1005-0.2761 0.4055-0.5 0.6816-0.5zm-153.1 12.73h13.5c0.2762 0 0.4189 0.2239 0.3184 0.5l-0.7285 2c-0.1005 0.2761-0.4055 0.5-0.6816 0.5h-13.5c-0.2761 0-0.4189-0.2239-0.3184-0.5l0.7285-2c0.1005-0.2761 0.4055-0.5 0.6816-0.5zm49 0h13.5c0.2762 0 0.4189 0.2239 0.3184 0.5l-0.7285 2c-0.1005 0.2761-0.4055 0.5-0.6816 0.5h-13.5c-0.2761 0-0.4189-0.2239-0.3184-0.5l0.7285-2c0.1005-0.2761 0.4055-0.5 0.6816-0.5zm162.2 1.521h12.5c0.5523 0 0.8377 0.4477 0.6367 1l-4.914 13.5c-0.201 0.5523-0.811 1-1.363 1h-12.5c-0.5523 0-0.8358-0.4477-0.6348-1l4.912-13.5c0.201-0.5523 0.813-1 1.365-1zm-65.52 5.75h27.35c0.179 6e-5 0.2721 0.1452 0.207 0.3242l-1.746 4.796a2.857 2.857 145 0 1-2.684 1.879h-25.67c-0.179-6e-5 -0.2721-0.1452-0.207-0.3242l2.312-6.352c0.0652-0.179 0.2623-0.3242 0.4414-0.3242z" fill="#fff"/></svg>
