<svg width="480" height="320" version="1.1" viewBox="0 0 480 320" xml:space="preserve" xmlns="http://www.w3.org/2000/svg"><defs><linearGradient id="a" x1="61.7" x2="27.32" y1="-33.57" y2="94.71" gradientTransform="scale(3.78)" gradientUnits="userSpaceOnUse"><stop stop-color="#f9c440" offset="0"/><stop stop-color="#a10705" offset=".4963"/><stop stop-color="#452981" offset="1"/></linearGradient></defs><rect width="480" height="320" ry="24" fill="url(#a)"/><path d="m290.1 73.34c-51.2 0-81.32 38.23-81.32 87.35 0 16.22 3.484 31.33 10.08 44.22 5.076-1.168 10.48-3.572 15.03-8.203 7.253-7.392 10.93-18.89 10.93-34.17 0-1.811 0.188-4.424 0.475-7.234 1.465-26.93 14.16-51.39 44.81-51.39 1.187 0 2.335 0.0384 3.473 0.1076 3.602-9.223 9.945-17.16 18.83-23.43 1.593-1.118 3.246-2.176 4.958-3.165-8.263-2.652-17.38-4.088-27.27-4.088zm68.03 0c-29.89 0-61.87 16.22-61.87 50.04 0 23.75 14.51 34.89 32.32 41.72 0.3266-9.035-0.6915-18.22-1.444-25.01-0.1979-1.821-0.3958-3.533-0.5344-5.038-0.7026-7.461 0.8995-18.02 7.529-25.29 2.632-2.89 6.145-5.146 9.856-6.531 0.6531-0.2474 1.308-0.4261 1.971-0.5548 4.631-1.217 6.907-1.059 10.55-1.059 17.38 0 31.51 5.097 32.67 25.03h35.22c0-38.25-31.74-53.31-66.26-53.31zm-252.8 3.939c-14.45-1e-6 -19.62 11.02-22.71 22.16-3.087 11.13-4.304 22.37-9.925 22.82-4.413 0-5.296-5.403-5.296-8.708 0-2.424 0.5542-5.175 1.989-7.164 1.326-1.989 3.306-3.316 6.284-2.87v-22.93c-19.19 0.663-25.69 15.76-25.69 32.85 0 16.21 7.827 31.76 26.02 31.76 15.87 0 19.29-14.22 22.82-26.68 3.859-13.57 4.968-16.98 9.045-16.98 5.838 0 7.164 6.066 7.164 10.03 0 4.522-0.9897 9.817-5.73 11.58-1.433 0.5533-3.19 0.8803-5.175 0.8814v24.24c25.13-0.2177 28.33-25.69 28.33-34.61 0-17.53-6.62-36.38-27.12-36.38zm35.67 0.0093v165.4h71.36c50.51-0.01 75.07-35.68 75.07-83.65 0-18.93-3.829-34.53-10.61-46.85-6.68 2.316-12.12 6.561-16.28 12.71-5.908 8.728-9.491 21.57-9.491 35.91 0 0.099-9e-3 0.1893-0.0186 0.2783 0.01 0.4849 0.0186 0.9599 0.0186 1.425 0 36.6-20.16 49.59-41.25 49.59h-32.44v-104.3h25.95c4.384 0 8.391 0.3161 12.07 0.9296 2.939-5.175 6.343-9.965 10.21-14.32 4.374-4.928 9.243-9.214 14.55-12.85-8.51-2.899-17.86-4.344-27.79-4.344zm214 30.45c-20.1-0.3412-22.98 18.08-22.17 26.74 0.3266 3.454 0.9117 8.045 1.377 13.22 1.217 8.896 1.206 18.33-0.2783 27.2-0.4453 2.672-1.029 5.294-1.761 7.847-0.2771 11.88 0.6433 26.52 25.15 29.2 16.68-25.71 18.25-62.46 6.719-90.66-1.94-4.681-4.285-9.214-7.036-13.46h-9e-3c-0.6846-0.051-1.35-0.0799-1.998-0.0909zm21.57 36.55c0.0396 0.2573 0.0686 0.5239 0.0983 0.7812 0.01 0.0693 0.0198 0.1386 0.0297 0.2078 0.0791 0.5838 0.1497 1.168 0.2189 1.752 0 0.0396 9e-3 0.0798 9e-3 0.1095 0.188 1.643 0.3358 3.304 0.4546 4.976 0.0198 0.3167 0.0495 0.6241 0.0594 0.9407 0.0198 0.3562 0.0396 0.7218 0.0594 1.078 0.0198 0.3958 0.0396 0.7917 0.0594 1.188 0.01 0.3166 0.0308 0.6333 0.0408 0.95 0.0198 0.475 0.029 0.9611 0.039 1.436 0.01 0.2474 0.0105 0.4948 0.0204 0.7422 0.01 0.7422 0.0186 1.484 0.0186 2.227v0.0984c-0.01 0.7323-0.01 1.436-0.0297 2.128-0.01 0.3167-0.0186 0.6321-0.0186 0.9389-0.01 0.3958-0.021 0.7917-0.0408 1.188-0.0198 0.4255-0.0284 0.8424-0.0482 1.258-0.01 0.2078-0.0198 0.4249-0.0297 0.6327-0.2078 3.988-0.6241 7.906-1.238 11.75 10.9 3.889 18.5 9.223 18.5 19.1 0 16.91-19.46 20.62-32.21 20.62-19.46 0-36.6-8.57-36.6-30.59h-35.22c-0.4651 40.78 33.82 58.85 70.44 58.85 44.95-7e-5 68.81-22.71 68.81-53.06 0-37.53-37.07-45.18-49.12-48.19-1.474-0.376-2.909-0.7416-4.305-1.108zm-324.7 6.748v34.51l46.3 11.25v0.2171l-46.3 11.24v34.51h78.71v-22.94h-50.49v-0.2171l50.49-13.68v-18.08l-50.49-13.67v-0.2171h50.49v-22.93zm227.5 63.91c-1.761 2.791-3.679 5.443-5.758 7.927-5.551 6.65-12.16 12.07-19.69 16.22 10.46 4.869 22.58 7.57 36.2 7.57 9.638 0 18.52-1.366 26.61-3.88-5.957-3.157-11.18-7.006-15.62-11.5-4.423-4.483-7.995-9.588-10.68-15.22-0.099 0-0.1979 9e-3 -0.2969 9e-3 -3.869 0-7.453-0.3958-10.76-1.128z" fill="#fff"/></svg>
