<svg width="480" height="320" version="1.1" viewBox="0 0 127 84.667" xmlns="http://www.w3.org/2000/svg" xmlns:xlink="http://www.w3.org/1999/xlink">
 <defs>
  <linearGradient id="a" x1="89.699" x2="31.603" y1="-17.033" y2="97.024" gradientUnits="userSpaceOnUse">
   <stop stop-color="#f9c440" offset="0"/>
   <stop stop-color="#a10705" offset=".49627"/>
   <stop stop-color="#452981" offset="1"/>
  </linearGradient>
 </defs>
 <rect width="127" height="84.667" ry="4.2333" fill="url(#a)" stroke-linecap="square" stroke-linejoin="round" stroke-width=".52917" style="paint-order:stroke fill markers"/>
 <g transform="matrix(.33389 0 0 .33389 56.393 28.199)" fill="#fff">
  <g transform="translate(0 -148.06)">
   <path transform="scale(.26458)" d="m532.77 617.59c-5.6334 0.0978-11.204 0.50203-14.791 1.252-12.634 2.6409-24.997 10.045-27.502 16.471-2.1803 5.5917-0.82258 13.97 5.627 34.686 7.9336 25.483 9.4778 34.352 9.4551 54.322-0.0166 14.225-0.67427 17.664-7.9121 41.434-6.0727 19.943-8.0742 27.702-8.0742 31.301 0 3.5718 3.996 10.348 7.7148 13.084 7.0997 5.2239 20.603 10.54 32.285 12.711 3.5864 0.66637 20.716 0.27093 21.48-0.49609 0.35384-0.35479 3.0719-6.0777 6.0391-12.717 23.306-52.147 26.809-104.63 10.355-155.14-2.7364-8.3999-12.307-30.952-14.854-35-0.86778-1.3796-10.435-2.0712-19.824-1.9082zm56.113 80.182c-0.33254-0.0182-0.5799-3.9e-4 -0.72851 0.0566-1.2155 0.46639-1.5994 2.179-1.6621 7.3887-0.0449 3.7298-0.60741 17.737-1.25 31.127-0.64188 13.39-0.94507 24.662-0.66992 25.049 0.27499 0.38687 3.7446 2.8407 7.709 5.4531 13.939 9.1855 18.94 17.774 18.07 31.031-0.84756 12.922-7.3306 21.609-21.025 28.172-12.159 5.8272-19.355 6.9579-43.754 6.8789-18.872-0.0611-22.467-0.33609-29.41-2.25-15.252-4.2042-24.81-10.035-31.885-19.451-5.8467-7.7813-8.3147-13.372-11.688-26.479l-1.0938-4.25h-64.801l-0.69336 4.6289c-1.953 13.024 1.5451 28.308 10.637 46.475 9.8188 19.62 23.471 32.891 45.283 44.016 14.627 7.4603 40.863 14.659 61.15 16.779 20.356 2.1272 48.325 0.70853 66.016-3.3477 31.155-7.1435 56.833-22.113 71.84-41.883 15.984-21.056 22.015-48.645 16.57-75.811-5.7263-28.573-19.438-45.384-48.865-59.91-10.212-5.041-34.762-13.4-39.75-13.674zm-200.12 130.39c-7.1534 0.0839-10.801 0.76783-11.859 2.1426-0.71764 0.93229-3.7532 5.2959-6.7461 9.6973-4.9846 7.3303-12.709 15.446-32.34 33.98-3.9875 3.7648-7.25 7.1495-7.25 7.5195 0 0.97739 16.877 6.5666 28.5 9.4395 8.7055 2.1518 21.859 4.4858 33.5 5.9434 6.7195 0.84128 31.571-0.29949 40.5-1.8594 9.0864-1.5874 24.158-5.1956 25.709-6.1543 0.46224-0.28569-2.8828-3.1729-7.4336-6.416-20.451-14.575-36.778-32.476-44.875-49.205l-2.2988-4.75-7.0508-0.22461c-3.1973-0.10184-5.971-0.14125-8.3555-0.11328z"/>
   <path transform="scale(.26458)" d="m230.9 552.26c-17.416-0.0884-41.429 0.51194-77.832 1.5586l-41 1.1797v327.97l5 0.68359c2.75 0.37572 25.925 1.4138 51.5 2.3066 25.575 0.89288 47.625 1.7937 49 2.002v-2e-3c1.375 0.20939 10.375 0.21997 20 0.0234 35.109-0.71679 63.184-8.4072 87.588-23.992 29.892-19.089 52.448-50.418 62.379-86.641 11.31-41.254 10.006-86.683-3.5918-125.16-3.9394-11.146-12.43-27.697-14.209-27.697-3.4382 0-16.14 8.9285-24.166 16.988-10.016 10.059-14.111 16.62-18.605 29.807-3.0532 8.9588-3.5416 12.242-6.3418 42.705-1.6684 18.15-3.2899 36.15-3.6055 40-0.78637 9.5936-3.9581 21.714-7.7188 29.5-8.0678 16.703-20.561 31.316-31.266 36.572-5.7344 2.8155-6.7387 2.9628-26.367 3.8496-16.36 0.73908-25.373 0.58199-45.455-0.78907-13.777-0.94061-25.129-1.8055-25.227-1.9219-0.0977-0.11645-0.37467-45.323-0.61524-100.46l-0.4375-100.25h34.779c26.585 0 35.034-0.29457 35.855-1.25 0.59102-0.6875 3.5986-5.3 6.6836-10.25 7.5471-12.11 19.59-27.374 28.775-36.475 8.8587-8.7762 9.6259-11.394 3.7949-12.945-19.191-5.1071-29.892-7.171-58.918-7.3184z"/>
   <path transform="scale(.26458)" d="m393.19 542.07c-41.584 0.57535-78.446 15.214-106 42.83-24.258 24.315-39.632 56.596-46.721 98.104-2.978 17.437-3.285 53.238-0.60156 70 3.0949 19.331 7.4416 35.538 13.912 51.873l3.1191 7.875 6.0879-0.48828c9.3932-0.75398 15.728-3.9844 21.85-11.139 2.8807-3.3668 5.7672-6.683 6.4141-7.3691 2.6307-2.7904 8.6584-13.715 9.9785-18.084 0.77551-2.5668 3.4213-21.093 5.8789-41.168 6.6718-54.498 7.4076-59.601 9.6426-66.844 5.9268-19.207 19.761-37.25 37.322-48.676 14.341-9.3307 28.312-13.48 45.381-13.48h9.75l1.7754-3.75c6.0931-12.873 24.585-34.652 37.965-44.713 3.9696-2.9848 6.239-5.3274 5.6914-5.875-0.50091-0.50094-5.3323-1.9617-10.736-3.2461-17.444-4.1459-34.439-6.0748-50.711-5.8496zm140.23 3.1465c-10.175 0.0808-20.22 0.62955-26.373 1.6152-26.153 4.1896-49.707 14.664-65.354 29.062-13.784 12.685-25.305 34.309-28.025 52.609-7.9693 53.6 12.822 86.851 65.402 104.59 5.5005 1.8559 10.504 3.3831 11.119 3.3906 1.4979 0.023 2.2712-5.7118 3.0312-22.482 0.79751-17.596-0.32313-23.539-9.1309-48.445-7.4938-21.19-8.09-26.139-4.1621-34.574 4.0541-8.7058 14.869-16.914 28.438-21.582 8.5375-2.9373 25.632-5.1109 34.205-4.3496 29.543 2.6232 48.39 15.919 56.875 40.121l2.7461 7.8301 65.67 0.52734-0.64648-6.9609c-2.9009-31.213-17.996-58.388-42.645-76.775-14.915-11.127-39.636-20.161-64-23.389-6.6719-0.8838-16.975-1.2703-27.15-1.1894z"/>
  </g>
  <g transform="translate(-166.72 -52.516)">
   <path transform="scale(.26458)" d="m111.57 189.48v169.84c0 93.414 0.30589 170.15 0.67968 170.52 0.37384 0.37395 15.786 0.56273 34.25 0.41797l33.57-0.26367 0.50976-89.5c0.27943-49.225 0.61692-89.137 0.75-88.693 0.56209 1.8748 9.4328 35.44 13.266 50.193 2.2862 8.8 5.8623 22.525 7.9473 30.5 2.085 7.975 6.364 24.4 9.5078 36.5 3.1438 12.1 7.4836 28.75 9.6445 37s4.4447 17.142 5.0762 19.762l1.1484 4.7637 35.029-0.26367 35.029-0.26172 2.7402-13.5c1.5077-7.425 5.0318-24.525 7.832-38s7.0901-34.175 9.5332-46c2.4431-11.825 5.8038-28.025 7.4668-36 1.663-7.975 4.6695-22.825 6.6816-33 2.0121-10.175 3.9708-18.862 4.3516-19.303 0.77411-0.897 1.5345 22.998 2.9883 93.803 0.54205 26.4 1.2635 58.019 1.6035 70.264l0.61915 22.264 65.275-0.52734v-340l-54.514-0.25781-54.514-0.25977-3.7949 18.76c-2.0862 10.317-5.8066 29.333-8.2695 42.258s-8.0789 41.95-12.479 64.5c-14.354 73.572-13.516 70.343-15.787 60.914-0.51849-2.1524-2.8142-10.889-5.0996-19.414-2.2854-8.525-9.8042-37.1-16.709-63.5-6.9047-26.4-15.029-57.45-18.055-69-3.0258-11.55-6.2672-23.925-7.2031-27.5l-1.7031-6.5-48.686-0.25977z"/>
   <path transform="scale(.26458)" d="m545.65 183.96c-2.6633-0.0189-5.5119-0.0101-8.5801 0.0234-17.876 0.19556-22.413 0.56925-30.5 2.5078-38.424 9.2111-67.395 31.221-79.951 60.738-5.7468 13.51-7.4319 22.295-7.4394 38.768-8e-3 21.452 3.2329 33.741 12.736 48.309 8.6535 13.265 20.896 23.374 38.98 32.188 13.903 6.7758 30.153 11.931 63.174 20.041 42.723 10.493 54.007 14.703 63.773 23.791 17.39 16.182 11.096 41.457-13.287 53.352-11.058 5.3941-20.66 7.1842-35.367 6.5918-10.123-0.40777-13.683-1.0107-21.619-3.6641-17.684-5.9121-31.186-17.761-39.725-34.857l-4.6191-9.25h-32.27c-17.748 0-32.5 0.37526-32.783 0.83398-0.80424 1.3013 1.2311 18.731 2.9824 25.539 2.2493 8.7434 6.0731 18.06 10.674 26.008 5.0604 8.7425 6.2457 10.199 17.215 21.16 20.346 20.33 49.252 32.611 85.828 36.463 10.538 1.1097 32.412 0.34924 42.982-1.4941 33.398-5.8242 62.696-22.104 79.168-43.99 14.007-18.611 20.489-38.52 20.52-63.02 0.0454-37.033-15.272-62.233-47.973-78.926-16.414-8.3787-32.368-13.251-72.5-22.145-32.447-7.1901-48.832-13.633-58.002-22.803-8.6465-8.6464-11.338-19.066-7.9082-30.615 4.5299-15.254 29.455-28.275 50.742-26.51 27.169 2.2533 47.401 16.82 55.088 39.662l2.4707 7.3359 9.8047-0.01c5.393-6e-3 20.331-0.11817 33.197-0.25l23.393-0.24023-0.61328-5.75c-0.33728-3.1625-1.5468-9.35-2.6875-13.75-7.1864-27.719-22.307-49.852-44.457-65.074-9.6861-6.6569-17.73-10.553-30.555-14.799-13.6-4.5021-23.249-6.0318-41.893-6.1641z"/>
  </g>
 </g>
 <style type="text/css">.st0{fill:#FC0C18;}
	.st1{fill:#FC0C18;}</style>
</svg>
