<svg width="480" height="320" version="1.1" viewBox="0 0 480 320" xml:space="preserve" xmlns="http://www.w3.org/2000/svg"><defs><linearGradient id="a" x1="123.4" x2="123.4" y1="-4.441e-16" y2="320" gradientUnits="userSpaceOnUse"><stop stop-color="#3193ff" offset="0"/><stop stop-color="#242f42" offset="1"/></linearGradient></defs><rect width="480" height="320" ry="24" fill="url(#a)"/><path d="m280.8 103.4c-10.11-0.0557-22.39 6.352-23 17.79-0.3021 5.885 5.386 17.67 19.96 12.59l6.115-11.81c0.1771-0.3333-0.1048-0.4583-0.3965-0.2188-11.64 9.635-19.41 0.8848-18.26-4.834 1.26-6.25 6.197-9.354 10.76-10.38l4.771 6.146 4.291-2.094-3.271-7.156c-0.321-0.0153-0.6447-0.0236-0.9707-0.0254zm-58.28 0.2539-3.707 17.69-15.61-17.44-7.301 8.25 2.238 0.209 1.574 1.76-4.709 22.43 8.635-4.375-4.051-3.709 2.457-11.73 16.7 18.64 5.072-24.21 5.865-3.324zm7.594 0.9902c-0.2188 0-0.2708 0.3118-0.0625 0.3848 2.021 0.7188 3.585 1.812 3.387 2.781l-1.949 9.24c-0.2396 1.135-2.155 1.624-3.926 1.832-0.2812 0.0312-0.293 0.4486-0.0117 0.4902 2.271 0.3646 3.094 0.8333 3.209 1.125l-2.135 10.16c-0.3438 1.625-2.678 2.011-4.699 2.74-0.2083 0.0729-0.1549 0.3848 0.0742 0.3848h27.84l1.957-9.312c0.0625-0.3125-0.3424-0.4798-0.5195-0.209-1.615 2.583-5.23 7.637-8.834 7.637h-6.459l2.531-12.06h1.647c2.531 0 4.301 3.896 4.885 5.406 0.0625 0.1667 0.3021 0.1458 0.3438-0.0312l2.574-12.27c0.0417-0.1875-0.1979-0.3027-0.3125-0.1465-1.177 1.51-4.314 5.168-7.199 5.168h-1.531l2.396-11.43h6.76c3.5 0 4.646 3.74 5.084 8.365 0.0312 0.375 0.5729 0.4056 0.6563 0.041l2.156-10.28h-2.281v-0.01h-21.6zm-95.46 41.91c-8.406 0-15.21 6.803-15.21 15.21 0 3.219 1.001 6.198 2.709 8.656-2.219 2.74-3.553 6.217-3.553 10.02 0 8.802 7.136 15.93 15.93 15.93 8.792 0 15.93-7.136 15.93-15.93 0.0104-3.719-1.283-7.145-3.418-9.863 1.771-2.49 2.824-5.531 2.824-8.812 0-8.396-6.803-15.21-15.21-15.21zm34.13 0c-8.406 0-15.21 6.803-15.21 15.21 0 3.219 0.9987 6.198 2.707 8.656-2.219 2.74-3.551 6.217-3.551 10.02 0 8.802 7.134 15.93 15.93 15.93 8.792 0 15.93-7.136 15.93-15.93 0.0104-3.719-1.27-7.145-3.416-9.863 1.771-2.49 2.822-5.531 2.822-8.812 0-8.396-6.803-15.21-15.21-15.21zm35.19 0.01c-9.385 0-16.99 8.396-16.99 24.91s7.603 24.91 16.99 24.91c9.385 0 16.99-8.406 16.99-24.91 0-16.51-7.605-24.91-16.99-24.91zm37.86 0c-9.385 0-16.99 8.396-16.99 24.91s7.605 24.91 16.99 24.91c9.385 0 16.99-8.396 16.99-24.91s-7.603-24.91-16.99-24.91zm-145.1 0.0215c-13.29 0-24.07 11.2-24.07 25.01s10.78 25.01 24.07 25.01c1.865 0 3.667-0.2298 5.406-0.6465v-12.09c-1.635 0.8333-3.469 1.312-5.406 1.312-6.969 0-12.65-6.093-12.65-13.57 0-7.479 5.667-13.57 12.65-13.57 1.937 0 3.771 0.4688 5.406 1.312v-12.11c-1.74-0.4167-3.552-0.6465-5.406-0.6465zm-56.66 1.812v47.42h11.43v-37.54h4.832c6.906 0 6.906 10.37 0 10.37h-2.582v9.875h3.145v-0.0117c19.33-0.5521 19.33-29.54 0.01172-30.09v-0.01h-15.03zm341.9 0.3652v8.238h26.5c2.49 0 3.739 3.011 1.979 4.771l-21.67 21.67c-1.135 1.135-2.666 1.771-4.26 1.771h-2.553v8.24h5.959c1.604 0 3.135-0.6361 4.26-1.771l12.65-12.65c3.542 3.698 6.479 8.595 8.197 14.42h10.49c-2.24-8.781-6.678-15.93-12.07-21.03l6.594-6.594c6.292-6.292 1.833-17.06-7.062-17.06zm-71.5 8e-3v22.33h8.24v-22.33zm23.57 0v29.55h0.0176c-3e-3 2.956-1.984 5.91-5.918 5.91v8.238c9.427 0 14.15-7.072 14.15-14.14l-2.742-4e-3h2.734v-29.55zm92.28 2e-3a3.802 3.802 0 0 0-3.803 3.803 3.802 3.802 0 0 0 3.803 3.801 3.802 3.802 0 0 0 3.803-3.801 3.802 3.802 0 0 0-3.803-3.803zm9.916 0a3.802 3.802 0 0 0-3.801 3.803 3.802 3.802 0 0 0 3.801 3.801 3.802 3.802 0 0 0 3.803-3.801 3.802 3.802 0 0 0-3.803-3.803zm-171.6 0.6699v8.24h21.16v-8.24zm31.03 1.816v27.06h0.0137c-3e-3 2.956-1.982 5.91-5.916 5.91v8.238c9.427 0 14.15-7.072 14.15-14.14l-2.744-4e-3h2.74v-27.06zm-161 5.179c2.938 0 5.322 2.387 5.322 5.324 0 2.937-2.385 5.322-5.322 5.322s-5.322-2.385-5.322-5.322c0-2.938 2.385-5.324 5.322-5.324zm34.13 0c2.937 0 5.324 2.387 5.324 5.324 0 2.937-2.387 5.322-5.324 5.322-2.938 0-5.322-2.385-5.322-5.322 0-2.938 2.385-5.324 5.322-5.324zm35.19 0.0117c1.115 0 2.595 0.2604 4.074 2.25 1.135 1.542 3.041 5.249 3.041 12.77 0 7.521-1.906 11.23-3.041 12.77-1.479 2-2.949 2.25-4.074 2.25-1.115 0-2.593-0.2604-4.072-2.25-1.135-1.542-3.041-5.251-3.041-12.77 0-7.521 1.906-11.24 3.041-12.77 1.479-2 2.947-2.25 4.072-2.25zm37.86 0c1.125 0 2.593 0.2604 4.072 2.25 1.135 1.542 3.041 5.249 3.041 12.77 0 7.521-1.906 11.23-3.041 12.77-1.479 2-2.947 2.25-4.072 2.25-1.115 0-2.595-0.2604-4.074-2.25-1.135-1.542-3.041-5.251-3.041-12.77 0-7.521 1.906-11.24 3.041-12.77 1.479-2 2.949-2.25 4.074-2.25zm22.76 6.896v8.24h21.16v-8.24zm82.95 3.645v8.24h36.35v-8.24zm-246.2 0.9844v8.197h15.02v-8.197zm33.16 6.412c3.333 0 6.053 2.717 6.053 6.051 0 3.344-2.709 6.053-6.053 6.053-3.333 0-6.053-2.719-6.053-6.053s2.719-6.051 6.053-6.051zm34.15 0c3.333 0 6.051 2.717 6.051 6.051 0 3.344-2.717 6.053-6.051 6.053-3.333 0-6.053-2.719-6.053-6.053s2.719-6.051 6.053-6.051zm95.92 9.846v8.238h25.11v-8.238zm45.86 2e-3v8.24h17.67v-8.24z" fill="#fff"/></svg>
