<svg width="480" height="320" version="1.1" viewBox="0 0 480 320" xml:space="preserve" xmlns="http://www.w3.org/2000/svg"><defs><linearGradient id="a" x1="90.27" x2="90.27" y2="320" gradientUnits="userSpaceOnUse"><stop stop-color="#c6262e" offset="0"/><stop stop-color="#3d292e" offset="1"/></linearGradient></defs><rect width="480" height="320" ry="24" fill="url(#a)"/><path d="m280.9 103.3c-10.13-0.0545-22.45 6.375-23.07 17.83-0.3125 5.896 5.397 17.71 20.01 12.62l6.135-11.84c0.1771-0.3333-0.1048-0.4583-0.3965-0.2188-11.67 9.656-19.46 0.8854-18.31-4.844 1.26-6.271 6.22-9.385 10.79-10.41l4.791 6.166 4.303-2.104-3.281-7.178c-0.3216-0.0153-0.646-0.0236-0.9726-0.0254zm-58.45 0.2441-3.719 17.73-15.66-17.48-7.322 8.271 2.25 0.209 1.584 1.77-4.73 22.48 8.668-4.387-4.062-3.719 2.469-11.76 16.74 18.7 5.084-24.27 5.875-3.334zm7.615 0.9902c-0.2188 0-0.2812 0.3118-0.0625 0.3848 2.031 0.7188 3.593 1.824 3.385 2.793l-1.947 9.27c-0.2396 1.135-2.167 1.626-3.938 1.834-0.2813 0.0312-0.2908 0.4486-0.01 0.4902 2.281 0.3646 3.104 0.8327 3.219 1.135l-2.137 10.19c-0.3438 1.625-2.686 2.021-4.707 2.74-0.2083 0.0729-0.1569 0.3848 0.0723 0.3848h27.94l1.959-9.344c0.0625-0.3125-0.3548-0.4798-0.5215-0.209-1.615 2.594-5.24 7.656-8.865 7.656h-6.479l2.541-12.09h1.647c2.531 0 4.313 3.908 4.896 5.418 0.0625 0.1667 0.3021 0.1457 0.3438-0.0312l2.582-12.3c0.0417-0.1875-0.1979-0.3027-0.3125-0.1465-1.177 1.521-4.333 5.178-7.219 5.178h-1.541l2.406-11.46h6.781c3.51 0 4.656 3.751 5.094 8.387 0.0312 0.375 0.5729 0.416 0.6562 0.041l2.166-10.31h-23.96zm-95.31 41.99c-8.844 0-16.02 7.178-16.02 16.02 0 8.698 6.939 15.77 15.57 16.01l-7.74 17.36h10.84l12.06-27.02c0.8438-1.948 1.303-4.094 1.303-6.344 0-8.844-7.167-16.02-16.02-16.02zm68.57 0c-9.406 0-17.03 8.417-17.03 24.97 0 16.55 7.625 24.97 17.03 24.97s17.03-8.417 17.03-24.97c0-16.54-7.625-24.97-17.03-24.97zm37.95 0c-9.406 0-17.03 8.417-17.03 24.97 0 16.55 7.625 24.97 17.03 24.97s17.03-8.417 17.03-24.97c0.0104-16.54-7.615-24.97-17.03-24.97zm-73.23 0.0117c-8.417 0-15.24 6.822-15.24 15.24 0 3.229 1 6.219 2.719 8.678-2.229 2.75-3.562 6.24-3.562 10.05 0 8.823 7.156 15.97 15.97 15.97 8.812 0 15.97-7.156 15.97-15.97 0-3.74-1.292-7.178-3.438-9.896 1.781-2.49 2.822-5.542 2.822-8.834 0-8.417-6.824-15.24-15.24-15.24zm-71.24 0.0195c-13.33 0-24.14 11.23-24.14 25.07 0 13.84 10.8 25.07 24.14 25.07 1.865 0 3.676-0.2298 5.416-0.6465v-12.12c-1.646 0.8438-3.479 1.312-5.416 1.312-6.99 0-12.68-6.103-12.68-13.61 0-7.51 5.688-13.62 12.68-13.62 1.937 0 3.781 0.4688 5.416 1.312v-12.12c-1.74-0.4167-3.551-0.6465-5.416-0.6465zm-56.8 1.813v47.54h11.46v-37.64h4.844c6.927 0 6.927 10.39 0 10.39h-2.594v9.906h3.156v-0.0117c19.39-0.5625 19.38-29.61 0.0098-30.18v-0.0117h-15.06zm293.7 0.375v29.63h8.26v-29.63zm92.52 0a3.812 3.812 0 0 0-3.812 3.812 3.812 3.812 0 0 0 3.812 3.812 3.812 3.812 0 0 0 3.812-3.812 3.812 3.812 0 0 0-3.812-3.812zm9.947 0a3.812 3.812 0 0 0-3.812 3.812 3.812 3.812 0 0 0 3.812 3.812 3.812 3.812 0 0 0 3.812-3.812 3.812 3.812 0 0 0-3.812-3.812zm-126.1 2e-3v22.4h8.26v-22.4zm71.68 0.01v8.26h26.56c2.5 0 3.749 3.021 1.979 4.781l-21.72 21.72c-1.135 1.135-2.678 1.771-4.271 1.771h-2.551v8.26h5.979c1.604 0 3.146-0.6361 4.271-1.771l12.69-12.69c3.552 3.708 6.5 8.615 8.219 14.46h10.52c-2.24-8.802-6.697-15.97-12.11-21.08l6.604-6.604c6.312-6.312 1.843-17.1-7.084-17.1zm-117.7 0.666v8.26h21.21v-8.26zm31.11 1.816v27.14h8.26v-27.14zm-91.89 5.184c1.125 0 2.605 0.2598 4.084 2.26 1.135 1.542 3.051 5.26 3.051 12.81s-1.905 11.27-3.051 12.81c-1.479 2-2.959 2.262-4.084 2.262s-2.605-0.2617-4.084-2.262c-1.135-1.542-3.051-5.26-3.051-12.81s1.915-11.27 3.051-12.81c1.479-2 2.959-2.26 4.084-2.26zm37.96 0c1.125 0 2.603 0.2598 4.082 2.26 1.135 1.542 3.053 5.26 3.053 12.81s-1.907 11.27-3.053 12.81c-1.479 2-2.957 2.262-4.082 2.262-1.125 0-2.605-0.2617-4.084-2.262-1.135-1.542-3.053-5.26-3.053-12.81s1.917-11.27 3.053-12.81c1.479-2 2.959-2.26 4.084-2.26zm-106.5 0.01c3.375 0 6.115 2.74 6.115 6.115 0 3.375-2.73 6.115-6.115 6.115-3.375 0-6.115-2.74-6.115-6.115 0-3.375 2.74-6.115 6.115-6.115zm33.29 0c2.948 0 5.344 2.396 5.344 5.344s-2.396 5.344-5.344 5.344c-2.948 0-5.344-2.396-5.344-5.344s2.396-5.344 5.344-5.344zm96.05 6.932v8.262h21.21v-8.262zm83.18 3.643v8.26h36.45v-8.26zm-245.8 1.002v8.219h15.06v-8.219zm66.42 6.414c3.354 0 6.074 2.718 6.074 6.072 0 3.354-2.72 6.074-6.074 6.074-3.344 0-6.072-2.72-6.072-6.074 0-3.344 2.718-6.072 6.072-6.072zm127.3 3.959c0 2.958-1.98 5.926-5.928 5.926v4e-3h-25.18v8.26h25.19v-2e-3c9.456-2e-3 14.18-7.095 14.18-14.19zm38.52 0c0 2.958-1.978 5.926-5.926 5.926v8.262c9.458 0 14.19-7.094 14.19-14.19zm-23.64 5.924v8.262h17.71v-8.262z" fill="#fff"/></svg>
