<svg width="480" height="320" version="1.1" viewBox="0 0 127 84.667" xmlns="http://www.w3.org/2000/svg" xmlns:xlink="http://www.w3.org/1999/xlink">
 <defs>
  <linearGradient id="a" x1="77.718" x2="54.866" y1="-.61858" y2="84.667" gradientUnits="userSpaceOnUse">
   <stop stop-color="#c6262e" offset="0"/>
   <stop stop-color="#0e141f" offset="1"/>
  </linearGradient>
 </defs>
 <rect width="127" height="84.667" ry="4.2333" fill="url(#a)" stroke-linecap="square" stroke-linejoin="round" stroke-width=".52917" style="paint-order:stroke fill markers"/>
 <g transform="matrix(.07767 0 0 .07767 10.583 36.085)" clip-rule="evenodd" fill="#fafafa" fill-rule="evenodd">
  <path d="m351.38 159.77h-36.5l29.533-59.521c-7.981 0-30.033-4.249-38.076-11.495-10.428-9.395-18.869-28.396-12.999-50.994 6.481-24.946 34.497-43.741 64.992-35.996 21.805 5.539 34.549 16.485 38.299 40.376 1.727 11.003 1.013 21.703-6.193 37.881zm-27.045-107.01c0 25.899 39.995 26.614 39.995 1 0-26.742-39.995-26.992-39.995-1z"/>
  <path d="m448.31 1.765c35.151-4.551 65.75 23.095 54.993 58.993-1.682 5.614-11.307 17.615-11.307 17.615s14.699 13.6 16.307 22.38c6.706 36.626-20.935 58.203-48.994 58.992-29.72 0.838-62.426-19.279-55.993-56.992 0.87-5.1 4.273-9.96 6-12.999 1.74-3.063 9.931-11.381 9.931-11.381s-10.901-17.317-11.931-24.614c-3.761-26.653 12.136-48.258 40.994-51.994zm-6.999 44.026c0 19.225 28.997 18.975 28.997 0.968 0-20.368-28.997-20.618-28.997-0.968zm14.989 83.957c22.679 0 22.8-33.995-0.388-33.995-23.261 0-22.656 33.995 0.388 33.995z"/>
  <path d="m570.3 1.765c17.755-1.81 33.311 4.689 41.995 12.999 26.06 24.935 30.287 106.69-1 133.98-12.841 11.201-39.696 17.006-59.993 7-19.53-9.629-31.006-35.318-32.996-64.993-3.115-46.469 10.278-84.737 51.994-88.989zm5.999 127.98c31.296-0.674 30.004-105-5-95.987-24.858 6.4-24.42 96.622 5 95.987z"/>
  <path d="m694.06 0.671c17.755-1.81 33.311 4.689 41.995 12.999 26.061 24.935 30.287 106.69-1 133.98-12.841 11.201-39.696 17.006-59.993 7-19.53-9.629-31.006-35.318-32.996-64.993-3.115-46.469 10.277-84.737 51.994-88.989zm5.999 127.98c31.297-0.674 30.004-105-4.999-95.987-24.859 6.4-24.421 96.622 4.999 95.987z"/>
  <path d="m199.34 3.024v30.976c-84.938-22.833-84.368 114.5-1.14 91.754v30.996c-128.85 32.25-129.42-183.42 1.14-153.73z"/>
  <path d="m40.256 96 0.108-30.918c15.01 0 23.997-5.203 23.997-16.088 0-9-1.487-17.866-31.862-17.866l0.125 128.62h-32.624l0.37-159.75 31.505 3e-3c60.5 0.206 67.625 24.497 67.625 47.991 0 33.761-23.625 48.006-59.244 48.006z"/>
  <polygon points="776.27 11.683 846.26 11.764 846.26 41.76 776.27 41.76"/>
  <path d="m1305.9 158.62h-33.125c-3.75-15.854-25.623-44.344-25.623-44.344l-36.465 37.649c-6.589 6.589-18.636 6.694-31.037 6.694h-10.4v-28.243l6.999 0.015c7.53 0 14.165-0.626 19.909-6.369l63.738-67.066c6.784-6.784 3.129-16.439-8.561-16.439l-82.086 0.187v-28.937h82.65c40 0 51.799 42.711 37.227 58.212l-20.751 21.727c0 1e-3 35.525 50.92 37.525 66.914z"/>
  <polygon points="926.26 11.683 958.25 11.683 958.25 81.754 926.26 81.754"/>
  <path d="m1038.2 11.683v91.208c0 30.75-23.115 53.855-51.74 53.855h-60.245v-29.996l56.005-0.109c15.49 0 24.116-8.23 24.117-24.875 0-16.756 0.123-90.083 0.123-90.083z"/>
  <path d="m908.88 19.766v82.734c0 31.5-28.75 54.246-54.5 54.246h-78.102v-31.996l77.852-0.051c13.25 0 23.252-7.199 23.252-21.717l0.123-83.216z"/>
  <polygon points="846.26 57.891 846.26 87.756 776.27 87.754 776.27 57.933"/>
  <rect x="200.34" y="69.756" width="77.99" height="23.997"/>
  <polygon points="1051.2 70.756 1176.2 70.756 1176.2 99.752 1051.2 99.752"/>
  <circle cx="1316.7" cy="24.114" r="13.032"/>
  <circle cx="1349.6" cy="24.114" r="13.032"/>
 </g>
 <style type="text/css">.st0{fill:#FC0C18;}
	.st1{fill:#FC0C18;}</style>
</svg>
