<svg width="480" height="320" version="1.1" viewBox="0 0 127 84.667" xmlns="http://www.w3.org/2000/svg">
 <defs>
  <linearGradient id="a" x1="64.449" x2="41.418" y1="-1.287" y2="84.667" gradientUnits="userSpaceOnUse">
   <stop stop-color="#ed5353" offset="0"/>
   <stop stop-color="#c6262e" offset=".4"/>
   <stop stop-color="#7a0000" offset="1"/>
  </linearGradient>
 </defs>
 <rect width="127" height="84.667" ry="4.2333" fill="url(#a)" stroke-linecap="square" stroke-linejoin="round" stroke-width=".52917" style="paint-order:stroke fill markers"/>
 <path transform="scale(.26458)" d="m267.32 50.002c-0.78449-0.013315-1.5946 0.043848-2.4277 0.17578l-17.414 2.7695c-8.8815 1.4133-18.388 11.091-20.133 20.498l-4.8438 26.107c-1.743 9.4067 4.6379 16.558 13.525 15.145l5.8203-0.91993 17.781-13.691-2.3242-9.2305-1.3125 0.1582-0.42188 2.2754c-0.29151 1.5791-1.5575 2.864-3.043 3.1035l-9.0039 1.4297c-1.487 0.23849-2.3365-0.71534-2.043-2.293l4.5371-24.451c0.292-1.5716 1.5565-2.8597 3.041-3.0977l9.0039-1.4297c1.486-0.23698 2.336 0.71549 2.043 2.2871l-0.58008 3.1133 18.199-2.8965 0.69141-3.7266c1.581-8.5248-3.5123-15.197-11.096-15.326zm-53.725 8.541c-0.74817-0.016023-1.5195 0.034422-2.3105 0.16016l-34.639 5.5059-7.3789 39.787-31.895 5.0723c-2.699 0.42985-5.3275 3.0969-5.8555 5.9551l-11.92 64.236c-0.528 2.8597 1.2326 4.8326 3.9316 4.4062l60.857-9.6758 4.9238-26.521 2.4785-0.39844c2.726-0.42785 2.3239-0.91901 1.7949 1.9121l-4.5 24.26 21.92-3.4844 0.13281-0.72656c0.5595 0.04207 1.3093 0.25981 1.9648 0.16211l16.922-2.6602c-0.629 3.3822-5.0866 4.2324-11.893 5.3125l-7.7441 1.2324-4.1543 22.377 10.176-1.6172c25.052-2.4774 34.583-15.451 37.643-30.916l30.527-4.8555 4.918-26.521 2.4824-0.39844c2.72-0.43235 2.3203-0.92441 1.7988 1.9082l-4.5039 24.268 21.916-3.4863 0.29883-1.6074c1.654 0.73094 3.5878 0.98815 5.6328 0.66601l37.902-6.0234 3.5352-19.062-2.457-1.752c2.1275-2.527 3.7866-5.6163 4.2676-8.2109l0.59766-3.0059c1.8915-11.243-8.4538-14.23-13.176-13.479l-21.75 3.457c-3.853 0.61322-8.0927 3.3041-11.18 6.8672-2.854-2.8326-7.2598-3.9337-9.8223-3.5254l-24.215 3.8476 2.7109 6.0039 21.838-3.4668c3.15-0.5035 5.2545 0.7559 5.832 3.2559-0.2335 0.66132-5.832 30.527-5.832 30.527l-7.8301 1.2461 4.1992-22.611c0.5205-2.8316-0.33374-3.7483-3.0527-3.3144l-15.006 2.3887-4.9238 26.521-8.6074 1.373 5.6328-30.367-7.0859-8.375-25.506 9.2402 12.088-1.9238 0.19531-0.02539-7.6875 41.439c-1.9535 10.526-13.163 20.592-23.107 22.174l-10.174 1.6152 1.543-8.293 7.7383-1.2266c6.8045-1.0852 14.466-7.9093 15.787-15.045l0.83399-4.4902-20.154 3.2031c-4.322 0.68887-6.6679-1.941-5.8184-6.5156l3.6152-19.48c0.63901-3.4624 2.7957-6.3356 5.6797-7.8301l0.04688-0.52148 10.113-7.7969-5.9062 0.99609c-3.144 0.49749-8.9718 2.8594-12.676 7.5918-2.8-3.3482-7.6971-4.6591-10.455-4.2207l-21.725 3.457 3.541-19.066 15.85-2.5215c8.436-1.3382 17.772-10.846 19.432-19.775l2.3809-12.85c1.503-8.0971-3.5059-14.626-10.738-14.781zm-9.6211 16.646c1.0996 0.025555 1.6311 0.82169 1.3809 2.1504l-1.9961 10.779c-0.286 1.5235-1.3726 2.6285-2.8106 2.8574l-10.959 1.7422 2.9219-15.75 10.959-1.7422c0.17969-0.02843 0.34682-0.04076 0.50391-0.037109zm45.039 1.6836c-0.70472 0.042229-1.297 0.6109-1.332 1.3398-0.038 0.78055 0.5628 1.4426 1.3418 1.4785 16.061 0.77003 31.73 2.3995 46.576 4.8418 0.07801 0.012095 0.15592 0.019531 0.23242 0.019531 0.678 0 1.2742-0.49022 1.3887-1.1836 0.12751-0.76953-0.39511-1.4958-1.1621-1.6211-14.952-2.4604-30.732-4.1005-46.902-4.875-0.04784-0.001973-0.0956-0.002815-0.14258 0zm65.182 2.1914-43.693 17.475-12.277-12.805 3.9141 17.744-37.199 28.412 43.693-17.48 12.277 12.807-3.916-17.74 37.201-28.412zm-144.66 1.6484c-0.09362-0.004409-0.1889 5.96e-4 -0.28515 0.015625-23.064 3.6312-42.562 9.3764-56.385 16.613-14.57 7.6301-22.47 16.788-22.848 26.488-0.4645 11.784 9.9113 23.178 30.008 32.951 0.1985 0.0977 0.40774 0.14453 0.61523 0.14453 0.5215 0 1.0241-0.29343 1.2676-0.79492 0.34-0.7054 0.04861-1.548-0.65039-1.8887-18.742-9.1141-28.836-19.875-28.424-30.299 0.684-17.582 30.132-33.072 76.854-40.424 0.7685-0.12174 1.2939-0.84325 1.1719-1.6133-0.105-0.67377-0.66883-1.1625-1.3242-1.1934zm141.02 3.9277c-0.65566-0.003727-1.2478 0.45238-1.3887 1.1191-0.159 0.76251 0.32689 1.5125 1.0879 1.6738 23.304 4.9523 42.822 11.843 56.439 19.93 13.677 8.1181 20.758 17.08 20.482 25.914-0.78501 25.241-60.288 44.88-135.7 44.879-0.3895 0-0.78538-4.5e-4 -1.1719-0.00195h-0.00586c-0.7775 0-1.4032 0.62966-1.4062 1.4082-0.0015 0.78055 0.62335 1.4126 1.4024 1.4141 0.39549 0.00201 0.78568 0.00196 1.1797 0.00196 36.912 0 71.265-4.6662 96.844-13.164 26.454-8.7904 41.253-21.026 41.67-34.449 0.30951-9.9217-7.2513-19.754-21.863-28.43-13.88-8.2419-33.691-15.248-57.291-20.264-0.09513-0.019977-0.18954-0.030718-0.28321-0.03125zm-36.357 3.4766-7.2422 1.1543 5.5781 5.2461c0.475-1.2805 0.80339-1.7665 1.0469-3.0801l0.61719-3.3203zm74.768 19.543c3.0517-0.01508 5.0824 3.5397 4.4336 7.0215l-0.98828 5.1816c-0.693 3.7159-4.4796 7.666-7.8691 8.207l-20.9 3.3242-0.30273 1.8789c-0.397 2.1367 1.0181 3.8063 2.9746 3.4941l23.361-3.7266-1.5742 8.4941-26.354 4.1855c-4.654 0.73847-8.5308-2.7759-7.5898-7.873l2.9863-16.104c0.94751-5.0931 6.412-10.095 11.064-10.836l20.135-3.1973c0.21203-0.03382 0.4196-0.04978 0.62305-0.05078zm-181.08 3.791-1.5371 8.291-21.135 3.3633-3.2266 17.404 17.219-2.7363-1.5371 8.2852-17.219 2.7363-3.2344 17.41 27.398-4.3574-1.6894 9.1172-36.006 5.7207 11.223-60.506 29.744-4.7285zm174.86 4.5918c-0.14514-0.00965-0.2983-0.00237-0.45898 0.02344l-4.1836 0.66211-6.6719 1.0644-1.6895 0.26367c-1.9565 0.31363-4.1025 2.5493-4.498 4.6875l-0.18555 1.0039 16.283-2.5898c1.2855-0.2064 2.5378-1.5087 2.8008-2.916 0.22489-1.2314-0.38052-2.1316-1.3965-2.1992zm-72.395 4.0644-6.4609 34.811-8.6074 1.3652 6.4551-34.805 0.19726-0.03711 8.416-1.334zm-98.977 5.2715-5.5293 29.836-20.352 3.2344 0.76562-4.1387 16.438-2.6172 4-21.553-16.438 2.6172 0.76563-4.1426 20.35-3.2363zm35.34 4.9785c3.3322 0.10412 5.0343 2.6148 4.291 6.6211l-5.0352 27.148-8.6113 1.3633 4.1934-22.605c0.5295-2.8341-0.32622-3.7527-3.0527-3.3203l-15.004 2.3887-4.918 26.521-8.6133 1.3711 6.457-34.809 0.20117-0.0332 28.566-4.541c0.54019-0.08605 1.0494-0.12034 1.5254-0.10547zm38.617 1.7715-15.787 2.5059c-2.726 0.43235-3.9848 1.6804-4.5078 4.5176l-1.9277 10.398c-0.528 2.8386 0.32868 3.7507 3.0547 3.3184l15.785-2.5078 3.3828-18.232zm-8.2754 7.752-0.77149 4.1406-2.4785 0.39649c-2.6615 0.42384-3.834 1.1351-3.3965-1.4746 0.53401-2.6307 1.5065-2.247 4.168-2.6719l2.4785-0.39062zm178.94 72.119v6.0586h11.82c1.6851 0 3.5742 0.28533 3.5742 2.3613 0 1.9646-1.5015 2.6914-3.2402 2.6914h-4.8848c-8.7704 0-9.832 6.3212-9.832 11.258v3.8965h26.135v-6.5h-17.391c-0.00197-3.0302 3.3319-2.5918 5.9043-2.5918h2.9199c5.2253 0 9.002-2.6925 9.002-8.7539 0-3.8961-2.4429-8.4199-7.7148-8.4199h-16.293zm-348.55 10.484c-15.683 0-27.443 10.295-27.443 23.758 0 13.461 11.761 23.756 27.443 23.756h35.289v-7.9199h-35.289c-11.762 0-19.602-7.9835-19.602-15.836 0-7.8524 7.8395-15.836 19.602-15.836h35.289v-7.9219h-35.289zm43.129 0v47.514h35.287c15.683 0 27.443-10.295 27.443-23.756 0-13.462-11.761-23.758-27.443-23.758h-35.287zm175.56 0c-15.684 0-27.445 10.295-27.445 23.758 0 13.461 11.762 23.756 27.445 23.756h23.523c15.683 0 27.443-10.295 27.443-23.756 0-13.462-11.761-23.758-27.443-23.758h-23.523zm74.494 0c-7.8423 0-15.684 3.9612-15.684 11.881v35.633h7.8418v-31.676c0-7.9187 7.843-7.916 11.764-7.916h7.8398v39.592h7.8418v-39.592h7.8418c3.9197 0 11.76-0.00264 11.76 7.916v31.676h7.8438v-35.633c0-7.9197-7.8432-11.881-15.684-11.881h-31.365zm-167.72 0.00195v47.514h7.8418v-19.797h35.287c3.9207 0 7.8418 3.9606 7.8418 7.9199v11.877h7.8418v-11.877c0-7.9197-7.8438-11.881-7.8438-11.881 3.9207 0 7.8418-5.7204 7.8418-9.6797 0-7.9187-3.9194-14.076-11.762-14.076h-47.049zm-74.492 7.9199h27.445c11.762 0 19.602 7.9835 19.602 15.836 0 7.8524-7.8396 15.836-19.602 15.836h-27.445v-31.672zm82.334 0h35.287c3.9197 0 7.8418 2.1969 7.8418 6.1562-9.9e-4 3.9593-3.9221 5.7207-7.8418 5.7207h-35.287v-11.877zm85.385 0h23.523c11.762 0 19.602 7.9835 19.602 15.836 0 7.8524-7.8395 15.836-19.602 15.836h-23.523c-11.762 0-19.604-7.9835-19.604-15.836 0-7.8524 7.8425-15.836 19.604-15.836zm-104.44 11.877c-2.1183 0.05424-3.8184 1.8078-3.8184 3.959 0 2.1854 1.7539 3.959 3.9199 3.959h2.9394c2.165-1e-5 3.9199-1.7736 3.9199-3.959s-1.7539-3.959-3.9199-3.959h-2.9394c-0.03364 0-0.06793-8.6e-4 -0.10156 0z" fill="#fafafa" stroke-width=".5005"/>
 <style type="text/css">.st0{fill:#FC0C18;}
	.st1{fill:#FC0C18;}</style>
</svg>
