<svg width="480" height="320" version="1.1" viewBox="0 0 127 84.667" xmlns="http://www.w3.org/2000/svg">
 <defs>
  <linearGradient id="a" x1="18.732" x2="41.418" y2="84.667" gradientUnits="userSpaceOnUse">
   <stop stop-color="#c6262e" offset="0"/>
   <stop stop-color="#7a0000" offset="1"/>
  </linearGradient>
 </defs>
 <rect width="127" height="84.667" ry="4.2333" fill="url(#a)" stroke-linecap="square" stroke-linejoin="round" stroke-width=".52917" style="paint-order:stroke fill markers"/>
 <path transform="matrix(.26458 0 0 .26458 -.00025 0)" d="m276.43 63.033c-1.046-0.017753-2.1274 0.058464-3.2383 0.23438l-23.219 3.6934c-11.842 1.8844-24.518 14.788-26.844 27.33l-6.459 34.811c-2.324 12.542 6.1851 22.078 18.035 20.193l7.7598-1.2285 23.709-18.254-3.0996-12.309-1.75 0.21093-0.5625 3.0352c-0.38867 2.1055-2.0779 3.8174-4.0586 4.1367l-12.004 1.9062c-1.9827 0.31797-3.116-0.95314-2.7246-3.0566l6.0488-32.602c0.38933-2.0955 2.0773-3.8116 4.0566-4.1289l12.006-1.9062c1.9813-0.31597 3.1133 0.95334 2.7226 3.0488l-0.77343 4.1504 24.268-3.8613 0.92188-4.9688c2.1079-11.366-4.6837-20.264-14.795-20.436zm-71.637 11.389c-0.99757-0.021363-2.0273 0.047199-3.082 0.21484l-46.184 7.3398-9.8398 53.049-42.527 6.7637c-3.5987 0.57314-7.1007 4.1286-7.8047 7.9395l-15.893 85.65c-0.704 3.8129 1.6416 6.4415 5.2402 5.873l81.146-12.9 6.5644-35.363 3.3047-0.5293c3.6347-0.57046 3.0999-1.226 2.3945 2.5488l-6.002 32.346 29.225-4.6465 0.17578-0.9668c0.746 0.05613 1.7471 0.34509 2.6211 0.21485l22.562-3.5449c-0.83866 4.5096-6.7827 5.6399-15.857 7.0801l-10.326 1.6445-5.5371 29.836 13.568-2.1562c33.403-3.3032 46.109-20.602 50.189-41.223l40.703-6.4727 6.5586-35.363 3.3106-0.5293c3.6267-0.57648 3.0899-1.2338 2.3945 2.543l-6.002 32.357 29.221-4.6484 0.39844-2.1426c2.2053 0.9746 4.785 1.3182 7.5117 0.88867l50.535-8.0332 4.7129-25.414-3.2754-2.3379c2.8367-3.3694 5.0501-7.4897 5.6914-10.949l0.79492-4.0078c2.522-14.991-11.272-18.971-17.568-17.969l-29 4.6094c-5.1374 0.81762-10.79 4.4035-14.906 9.1543-3.8053-3.7768-9.679-5.2436-13.096-4.6992l-32.285 5.1309 3.6152 8.0039 29.115-4.623c4.2-0.67133 7.0054 1.0085 7.7754 4.3418-0.31132 0.88175-7.7754 40.703-7.7754 40.703l-10.439 1.6621 5.5976-30.148c0.694-3.7755-0.44497-4.9964-4.0703-4.418l-20.008 3.1836-6.5645 35.361-11.477 1.8301 7.5117-40.488-9.4473-11.166-34.01 12.318 16.119-2.5625 0.25977-0.03711-10.25 55.254c-2.6047 14.034-17.551 27.457-30.811 29.566l-13.566 2.1543 2.0566-11.059 10.32-1.6348c9.0727-1.4469 19.287-10.546 21.049-20.061l1.1133-5.9863-26.873 4.2715c-5.7627 0.91849-8.8905-2.59-7.7578-8.6894l4.8203-25.973c0.852-4.6165 3.7269-8.4488 7.5723-10.441l0.0625-0.69336 13.484-10.396-7.877 1.3281c-4.192 0.66331-11.962 3.8112-16.9 10.121-3.7333-4.4642-10.262-6.2114-13.939-5.627l-28.967 4.6094 4.7207-25.424 21.133-3.3594c11.248-1.7842 23.697-14.464 25.91-26.369l3.1758-17.133c2.004-10.796-4.6752-19.501-14.318-19.707zm-12.83 22.195c1.4661 0.034074 2.1755 1.0936 1.8418 2.8652l-2.6621 14.373c-0.38134 2.0314-1.8307 3.5053-3.748 3.8106l-14.611 2.3223 3.8965-20.998 14.609-2.3242c0.23959-0.037909 0.46438-0.053696 0.67383-0.048828zm60.055 2.2441c-0.93963 0.056305-1.7305 0.81518-1.7774 1.7871-0.05066 1.0407 0.74845 1.9226 1.7871 1.9707 21.415 1.0267 42.308 3.2006 62.104 6.457 0.10401 0.01625 0.20658 0.02344 0.30859 0.02344 0.90401 0 1.6989-0.65167 1.8516-1.5762 0.16999-1.026-0.52616-1.9951-1.5488-2.1621-19.936-3.2805-40.975-5.4673-62.535-6.5-0.06379-0.00263-0.12681-0.003754-0.18945 0zm86.91 2.9219-58.254 23.301-16.373-17.074 5.2188 23.658-49.6 37.881 58.26-23.307 16.367 17.074-5.2207-23.646 49.602-37.887zm-192.88 2.2012c-0.12483-0.00588-0.25252 0.00144-0.38086 0.02148-30.753 4.8416-56.75 12.499-75.18 22.148-19.427 10.174-29.962 22.385-30.465 35.318-0.61934 15.712 13.216 30.903 40.012 43.934 0.26405 0.12997 0.54429 0.19306 0.82031 0.19336 0.69463-7.3e-4 1.3651-0.39251 1.6895-1.0606 0.45333-0.94053 0.06286-2.0633-0.86914-2.5176-24.989-12.152-38.448-26.5-37.898-40.398 0.91333-23.442 40.179-44.094 102.47-53.896 1.0247-0.16232 1.7252-1.1256 1.5625-2.1523-0.14-0.89837-0.89177-1.5487-1.7656-1.5898zm188.03 5.2344c-0.87422-0.00497-1.6637 0.60317-1.8516 1.4922-0.212 1.0167 0.4365 2.0173 1.4512 2.2324 31.071 6.6031 57.097 15.792 75.254 26.574 18.236 10.824 27.677 22.772 27.311 34.551-1.0467 33.655-80.388 59.84-180.93 59.838-0.51933 0-1.0472 5e-5 -1.5625-0.00195h-0.00781c-1.0367 0-1.8728 0.83889-1.877 1.877-2e-3 1.0407 0.83242 1.8847 1.8711 1.8867 0.52537 0.00266 1.047 0.00195 1.5703 0.00195h0.00391c49.218-4.9e-4 95.017-6.2227 129.12-17.553 35.272-11.721 55.005-28.035 55.561-45.934 0.41269-13.229-9.6677-26.337-29.15-37.904-18.505-10.989-44.92-20.332-76.387-27.02-0.12683-0.02664-0.25402-0.04031-0.3789-0.04102zm-48.479 4.6348-9.6562 1.5391 7.4356 6.9961c0.63333-1.7074 1.0718-2.3579 1.3965-4.1094l0.82422-4.4258zm99.691 26.057c4.0689-0.0201 6.7751 4.719 5.9102 9.3613l-1.3164 6.9121c-0.92402 4.9545-5.9748 10.218-10.494 10.939l-27.867 4.4336-0.40235 2.5059c-0.52933 2.849 1.3581 5.0744 3.9668 4.6582l31.148-4.9688-2.0996 11.326-35.139 5.582c-6.2054 0.98461-11.376-3.7039-10.121-10.5l3.9844-21.469c1.2633-6.7908 8.5466-13.461 14.75-14.449l26.848-4.2637c0.28271-0.04509 0.56078-0.06702 0.83204-0.06836zm-241.45 5.0586-2.0488 11.053-28.178 4.4844-4.3027 23.205 22.957-3.6484-2.0488 11.049-22.959 3.6465-4.3106 23.215 36.531-5.8106-2.2539 12.154-48.006 7.6289 14.961-80.672 39.658-6.3047zm233.15 6.1211c-0.19352-0.01287-0.39904-0.00315-0.61328 0.03125l-5.5762 0.88086-8.8945 1.418-2.2539 0.35352c-2.6087 0.41816-5.4707 3.399-5.998 6.25l-0.24609 1.3379 21.711-3.4531c1.714-0.27522 3.3818-2.0103 3.7324-3.8867 0.29995-1.6418-0.50671-2.8415-1.8613-2.9316zm-96.525 5.416-8.6152 46.414-11.477 1.8223 8.6055-46.408 0.26367-0.04687 11.223-1.7812zm-131.97 7.0312-7.375 39.781-27.133 4.3125 1.0215-5.5176 21.914-3.4922 5.334-28.734-21.916 3.4883 1.0215-5.5234 27.133-4.3144zm47.119 6.6367c4.443 0.13883 6.7118 3.4864 5.7207 8.8281l-6.7129 36.197-11.482 1.8184 5.5918-30.139c0.706-3.7788-0.43497-5.0042-4.0703-4.4277l-20.006 3.1836-6.5586 35.361-11.482 1.8281 8.6094-46.41 0.26758-0.04492 38.09-6.0547c0.72025-0.11472 1.3985-0.16045 2.0332-0.14062zm51.494 2.3613-21.049 3.3418c-3.6347 0.57648-5.3124 2.2426-6.0098 6.0254l-2.5723 13.861c-0.704 3.7848 0.43758 5.0023 4.0723 4.4258l21.047-3.3438 4.5117-24.311zm-11.033 10.338-1.0293 5.5195-3.3047 0.5293c-3.5487 0.56512-5.1126 1.5147-4.5293-1.9648 0.712-3.5076 2.0099-2.998 5.5586-3.5644l3.3047-0.51953z" fill="#fafafa" stroke-width=".66733"/>
 <style type="text/css">.st0{fill:#FC0C18;}
	.st1{fill:#FC0C18;}</style>
</svg>
