<svg width="480" height="320" version="1.1" viewBox="0 0 480 320" xml:space="preserve" xmlns="http://www.w3.org/2000/svg"><defs><linearGradient id="a" x1="18.73" x2="41.42" y2="84.67" gradientTransform="scale(3.78)" gradientUnits="userSpaceOnUse"><stop stop-color="#c6262e" offset="0"/><stop stop-color="#7a0000" offset="1"/></linearGradient></defs><rect width="480" height="320" ry="24" fill="url(#a)"/><path d="m250 43.63c-1.958 0.08881-3.946 0.5393-5.887 1.4l-21.02 9.326c-13.57 6.016-21.92 19.88-20.9 34.69l2.793 40.76c0.7654 11.29 12.53 18.38 22.87 13.79l9.865-4.377 18.24-23.03-7.471-13.92-2.879 1.273 0.3984 5.756c0.1078 1.52-0.7538 2.944-2.145 3.559l-12.59 5.584c-1.24 0.5498-2.653-0.3028-2.75-1.65l-2.564-37.48c-0.1078-1.52 0.7538-2.942 2.145-3.557l12.59-5.586c1.24-0.5498 2.653 0.3028 2.75 1.65l0.377 5.498 23.72-10.52-0.5391-7.979c-0.6307-9.171-8.506-15.57-16.99-15.19zm72.69 22.5-53.26 40.08-22.78-12.97 12.4 23.09-41.39 52.24 53.26-40.08 22.78 12.97-12.4-23.09 41.39-52.24zm-140.6 7.625c-1.958 0.08881-3.948 0.5393-5.889 1.4l-43.62 19.36 3.924 57.21-44.24 19.62c-1.154 0.5067-1.866 1.693-1.779 2.943l6.803 99.29c0.1401 2.07 2.308 3.376 4.205 2.535l78.58-34.87-2.578-37.58 6.998-3.105 2.576 37.58 28.18-12.51-0.3574-5.143c4.032 1.574 8.582 1.499 12.6-0.291l11.18-4.959c-2.081 4.399-5.691 8.042-10.32 10.1l-11.79 5.229c-1.154 0.5067-1.864 1.693-1.777 2.943l1.713 25.08c0.1402 2.07 2.308 3.374 4.205 2.533l19.34-8.582c19.14-8.495 30.93-28.04 29.5-48.93l-0.1406-2.006 38.01-16.86-2.578-37.58 6.998-3.105 2.576 37.58 28.18-12.51-0.3574-5.143c4.032 1.563 8.582 1.499 12.6-0.291l40.01-17.75c1.154-0.5067 1.866-1.693 1.779-2.943l-1.994-29.34-1.111 0.4961c0.5714-2.533 0.7868-5.165 0.6035-7.828l-0.4531-6.564c-0.2695-4.151-1.994-8.119-5.002-11.01-4.905-4.711-12.04-5.832-18.04-3.18l-24.53 10.88c-6.479 2.868-11.43 8.119-14.06 14.4-0.1617-0.097-0.3129-0.2057-0.4746-0.3027-4.582-2.76-10.23-3.116-15.12-0.9492l-29.73 13.21 4.473 8.334 29.09-12.9c4.431-1.962 9.466 1.066 9.789 5.906l2.674 39.06-9.832 4.365-2.34-34.16c-0.1186-1.66-1.843-2.707-3.363-2.027l-22.21 9.854 2.576 37.58-9.832 4.367-2.996-43.74-13.76-7.838-27.55 20.73 2.943-1.305 9.832-4.367 3.945 57.6c1.164 16.94-8.399 32.78-23.91 39.67l-10.94 4.852-0.7871-11.42 7.664-3.396c11.58-5.132 18.7-16.97 17.84-29.6l-0.3008-4.334-26.06 11.56c-4.431 1.962-9.466-1.068-9.789-5.908l-1.822-26.65c-0.3234-4.744 1.26-9.282 4.225-12.74l0.01172-0.02148 14.91-18.85-12.45 5.52c-6.479 2.868-11.43 8.119-14.06 14.4-0.1509-0.097-0.3129-0.2057-0.4746-0.3027-4.582-2.76-10.23-3.116-15.12-0.9492l-26.37 11.7-0.3555-5.174-1.455-21.43 18.59-8.246c13.57-6.016 21.92-19.88 20.9-34.69l-1.326-19.33c-0.6307-9.171-8.506-15.57-16.99-15.19zm160.3 1.082c-7.647-0.06925-15.61 0.109-23.85 0.543l-3.322 4.184c19.24-1.175 37.34-0.9697 53.62 0.6582 19.35 1.941 35.04 5.778 46.62 11.42 11.3 5.498 18.01 12.41 19.96 20.54 5.563 23.29-29.31 55.4-88.84 81.8-22.29 9.886-47.52 18.71-73.78 25.83-0.3665 1.52-0.798 3.029-1.305 4.506 28.07-7.471 54.02-16.59 76.71-26.66 60.11-26.67 97.45-59.92 91.12-86.41-5.547-23.23-43.39-35.93-96.92-36.41zm-37.43 1.461c-23.11 1.93-48.02 5.734-73.76 11.52l0.2793 4.055c23.11-5.229 45.85-8.928 67.42-11.02l6.059-4.559zm-35.67 16.74-9.918 4.398 9.961 5.67 0.4746-0.3555c0.02159-1.046 2.4e-4 -2.102-0.06446-3.158l-0.4531-6.555zm108.5 0.5898c3.296 0.2512 6.189 2.862 6.432 6.492l0.4746 6.867c0.5067 7.45-3.687 14.42-10.51 17.44l-23.8 10.57 0.3359 4.947c0.1186 1.66 1.843 2.707 3.363 2.027l22.21-9.854 4.4-1.951 5.434-2.416 0.7852 11.42-1.854 0.8184-34.04 15.11c-4.431 1.962-9.466-1.068-9.789-5.908l-1.822-26.65c-0.5067-7.45 3.687-14.42 10.51-17.44l24.53-10.88c1.105-0.4905 2.247-0.6677 3.346-0.584zm-204.1 6.512c0.9248 0.07075 1.738 0.8038 1.811 1.814l1.1 16.05c0.1078 1.52-0.7558 2.942-2.146 3.557l-15.15 6.717-1.467-21.37 14.91-6.609c0.31-0.1374 0.6312-0.1876 0.9395-0.1641zm198 7.293c-0.3608 0.01592-0.7281 0.09819-1.086 0.2559l-19.5 8.646c-1.154 0.5067-1.866 1.692-1.779 2.953l0.291 4.281 23.42-10.39c1.154-0.5067 1.866-1.694 1.779-2.955-0.1051-1.682-1.555-2.858-3.119-2.789zm-242 13.6c-58.84 26.5-95.18 59.26-88.94 85.43 3.709 15.52 21.83 26.34 49.42 31.96l-0.2793-4.15c-9.843-2.059-18.31-4.797-25.28-8.193-11.3-5.498-18.01-12.41-19.96-20.54-5.455-22.82 27.94-54.12 85.33-80.23l-0.291-4.268zm145.5 17.2 3.363 49.01-9.832 4.365-3.363-49.01 9.832-4.365zm-136.8 22.97 0.7871 11.42-28.35 12.57 1.725 25.21 11.8-5.24 2.113-0.9375 7.719-3.418 0.7871 11.42-4.141 1.832-5.691 2.523-11.8 5.25 1.789 26.17 25.86-11.47 1.434-0.6348 7.869-3.494 0.7656 11.43-4.27 1.898-32.99 14.63-7.719 3.428-5.875-85.63 3.256-1.445 34.93-15.49zm108.8 1.252-23.8 10.56c-0.9272 0.3989-1.499 1.336-1.424 2.35l1.445 21.08c0.1186 1.66 1.843 2.707 3.363 2.027l22.21-9.854-1.789-26.16zm-50.9 11.7c3.3 0.2512 6.193 2.864 6.436 6.494l2.684 39.06-9.832 4.367-2.338-34.17c-0.1186-1.66-1.845-2.705-3.365-2.025l-22.21 9.854 2.576 37.58-9.832 4.365-3.363-49.02 35.89-15.92c1.108-0.4905 2.253-0.6697 3.354-0.5859zm42.41 2.375 0.4199 6.146-6.998 3.104-0.4199-6.145 6.998-3.105zm-91.86 3.008 0.5605 8.205 2.371 34.56-26.14 11.6-0.4199-6.146 21.64-9.594-2.156-31.45-21.64 9.594-0.3555-5.174 26.14-11.6z" fill="#fff"/></svg>
