<svg width="480" height="320" version="1.1" viewBox="0 0 480 320" xml:space="preserve" xmlns="http://www.w3.org/2000/svg"><defs><linearGradient id="a" x1="64.45" x2="41.42" y1="-1.287" y2="84.67" gradientTransform="scale(3.78)" gradientUnits="userSpaceOnUse"><stop stop-color="#ed5353" offset="0"/><stop stop-color="#c6262e" offset=".4"/><stop stop-color="#7a0000" offset="1"/></linearGradient></defs><rect width="480" height="320" ry="24" fill="url(#a)"/><path d="m246.8 50.01c-1.329 0.06028-2.681 0.3647-3.998 0.9492l-14.27 6.33c-9.213 4.083-14.88 13.5-14.19 23.55l1.895 27.67c0.5196 7.662 8.503 12.48 15.52 9.359l6.697-2.971 12.38-15.63-5.07-9.447-1.955 0.8633 0.2715 3.908c0.0732 1.032-0.513 1.999-1.457 2.416l-8.547 3.789c-0.8416 0.3732-1.799-0.2044-1.865-1.119l-1.742-25.45c-0.0732-1.032 0.511-1.997 1.455-2.414l8.549-3.791c0.8416-0.3732 1.799 0.2044 1.865 1.119l0.2558 3.732 16.1-7.143-0.3652-5.414c-0.4281-6.225-5.773-10.57-11.53-10.31zm49.34 15.27-36.15 27.21-15.46-8.805 8.414 15.68-28.09 35.46 36.15-27.21 15.46 8.805-8.416-15.68 28.09-35.46zm-95.45 5.174c-1.329 0.06028-2.679 0.3666-3.996 0.9512l-29.61 13.14 2.664 38.84-30.03 13.32c-0.783 0.344-1.266 1.149-1.207 1.998l4.617 67.4c0.0951 1.405 1.566 2.29 2.854 1.719l53.34-23.67-1.748-25.51 4.748-2.107 1.75 25.51 19.13-8.49-0.2422-3.49c2.737 1.068 5.825 1.018 8.555-0.1973l7.59-3.367c-1.412 2.986-3.864 5.46-7.004 6.857l-7.998 3.549c-0.783 0.344-1.266 1.149-1.207 1.998l1.162 17.02c0.0951 1.405 1.568 2.292 2.855 1.721l13.13-5.826c12.99-5.767 20.99-19.03 20.02-33.21l-0.0957-1.361 25.8-11.45-1.75-25.51 4.75-2.107 1.748 25.51 19.13-8.488-0.2422-3.49c2.737 1.061 5.825 1.018 8.555-0.1973l27.16-12.05c0.783-0.344 1.266-1.149 1.207-1.998l-1.354-19.92-0.7539 0.3359c0.3879-1.72 0.5346-3.505 0.4102-5.312l-0.3086-4.457c-0.183-2.817-1.353-5.511-3.395-7.473-3.33-3.198-8.175-3.958-12.24-2.158l-16.65 7.385c-4.398 1.947-7.757 5.509-9.543 9.775-0.1098-0.06586-0.2125-0.1392-0.3223-0.2051-3.11-1.873-6.943-2.114-10.27-0.6426l-20.18 8.965 3.037 5.656 19.74-8.76c3.008-1.332 6.425 0.724 6.645 4.01l1.814 26.51-6.674 2.965-1.588-23.19c-0.0805-1.127-1.251-1.838-2.283-1.377l-15.08 6.689 1.75 25.51-6.674 2.963-2.035-29.69-9.338-5.32-18.71 14.07 1.998-0.8848 6.674-2.965 2.68 39.1c0.7904 11.5-5.702 22.25-16.23 26.93l-7.428 3.293-0.5352-7.75 5.203-2.305c7.86-3.483 12.7-11.52 12.11-20.1l-0.2051-2.941-17.69 7.846c-3.008 1.332-6.425-0.7259-6.645-4.012l-1.236-18.09c-0.2195-3.22 0.8567-6.301 2.869-8.65l0.00586-0.01367 10.12-12.79-8.451 3.748c-4.398 1.947-7.757 5.511-9.543 9.777-0.1025-0.0659-0.2125-0.1392-0.3223-0.2051-3.11-1.873-6.945-2.115-10.27-0.6445l-17.9 7.939-0.2402-3.512-0.9883-14.55 12.62-5.598c9.213-4.083 14.88-13.5 14.19-23.55l-0.9004-13.12c-0.4281-6.225-5.775-10.57-11.53-10.31zm108.8 0.7344c-5.191-0.04701-10.6 0.07654-16.19 0.3711l-2.254 2.84c13.06-0.7977 25.34-0.6597 36.4 0.4453 13.14 1.317 23.78 3.923 31.64 7.75 7.669 3.732 12.23 8.424 13.54 13.94 3.776 15.81-19.9 37.61-60.31 55.53-15.13 6.711-32.26 12.7-50.09 17.53-0.2488 1.032-0.5408 2.056-0.8848 3.059 19.06-5.071 36.67-11.26 52.07-18.1 40.81-18.1 66.15-40.67 61.85-58.65-3.765-15.77-29.46-24.39-65.79-24.72zm-25.41 0.9922c-15.69 1.31-32.59 3.894-50.07 7.824l0.1895 2.75c15.69-3.549 31.12-6.059 45.77-7.479l4.111-3.096zm-24.21 11.37-6.732 2.986 6.762 3.85 0.3223-0.2422c0.0146-0.7099 9.3e-4 -1.427-0.04297-2.145l-0.3086-4.449zm73.64 0.4004c2.237 0.1705 4.203 1.944 4.367 4.408l0.3203 4.66c0.344 5.057-2.502 9.793-7.135 11.84l-16.16 7.172 0.2266 3.359c0.0805 1.127 1.251 1.836 2.283 1.375l15.08-6.689 2.986-1.324 3.688-1.639 0.5352 7.75-1.26 0.5566-23.1 10.25c-3.008 1.332-6.425-0.724-6.645-4.01l-1.236-18.09c-0.344-5.057 2.502-9.791 7.135-11.84l16.65-7.385c0.7501-0.333 1.526-0.4533 2.271-0.3965zm-138.5 4.422c0.6278 0.04802 1.179 0.5444 1.229 1.23l0.7461 10.9c0.0732 1.032-0.513 1.997-1.457 2.414l-10.28 4.561-0.9961-14.51 10.12-4.486c0.2104-0.0933 0.4294-0.1254 0.6387-0.1094zm134.4 4.949c-0.2449 0.01081-0.4935 0.0668-0.7363 0.1738l-13.24 5.869c-0.783 0.3439-1.266 1.15-1.207 2.006l0.1973 2.904 15.89-7.055c0.783-0.3439 1.266-1.148 1.207-2.004-0.07134-1.142-1.056-1.941-2.117-1.895zm-164.3 9.234c-39.94 17.99-64.61 40.23-60.37 57.99 2.517 10.54 14.82 17.88 33.54 21.69l-0.1894-2.816c-6.681-1.398-12.43-3.257-17.16-5.562-7.669-3.732-12.23-8.424-13.54-13.94-3.703-15.49 18.97-36.74 57.92-54.46l-0.1973-2.896zm98.79 11.67 2.283 33.27-6.674 2.965-2.283-33.27 6.674-2.963zm-92.89 15.59 0.5352 7.75-2.131 0.9453-17.12 7.588 1.172 17.11 9.447-4.193 5.24-2.318 0.5332 7.75-2.809 1.242-3.865 1.713-8.014 3.564 1.215 17.76 23.87-10.59 0.5195 7.758-2.898 1.287-22.39 9.93-5.24 2.328-3.988-58.13 2.209-0.9805 23.71-10.52zm73.85 0.8496-16.16 7.172c-0.6294 0.2708-1.018 0.9078-0.9668 1.596l0.9805 14.31c0.0805 1.127 1.251 1.836 2.283 1.375l15.08-6.688-1.215-17.76zm-34.55 7.945c2.24 0.1705 4.204 1.944 4.369 4.408l1.822 26.51-6.676 2.963-1.588-23.19c-0.0805-1.127-1.251-1.836-2.283-1.375l-15.07 6.688 1.748 25.51-6.674 2.963-2.283-33.27 24.36-10.81c0.7519-0.333 1.531-0.4533 2.277-0.3965zm28.79 1.611 0.2852 4.172-4.75 2.107-0.2852-4.17 4.75-2.109zm-62.36 2.043 0.3809 5.568 1.609 23.46-17.75 7.873-0.2852-4.172 14.69-6.512-1.465-21.35-14.69 6.514-0.2402-3.514 17.75-7.873zm240 76.32v5.355h15.29c3.532 0 3.532 5.293 0 5.293h-5.24-3.117c-5.335 0-8.002 4.001-8.002 8.002v0.5938 2.521 2.834h23.6v-5.355h-18.25v-0.582c0-1.323 0.8856-2.646 2.646-2.646h2.105 1.012 5.24c10.67 0 10.67-16.02 0-16.02h-15.29zm-355.7 9.43c-27.98 0.0104-27.98 41.97 0 41.97h40.21v-9.824h-40.21c-14.88 0-14.88-22.32 0-22.32h40.21v-9.826h-40.21zm47.94 0.00977v41.74 0.2305h40.21c27.98-0.0104 27.98-41.97 0-41.97h-40.21zm87.62 0v41.96h9.826v-13.68h36.06c2.157 0 4.324 1.438 4.324 4.324v9.367h9.826v-9.367c-0.0104-3.897-1.22-6.97-3.137-9.252 2.073-2.584 3.127-5.898 3.127-9.211 0-7.075-4.711-14.14-14.14-14.14h-36.06-9.826zm89.54 0c-27.98 0-27.98 41.96 0 41.96h25.99c27.98 0 27.98-41.96 0-41.96h-25.99zm69.2 0c-9.43 0-14.14 7.076-14.14 14.14v27.82h9.824v-27.82c0-2.157 1.438-4.324 4.324-4.324h13.54v32.14h9.826v-32.14h12.73c2.876 0 4.324 2.157 4.324 4.324v27.82h9.826v-27.82c-0.0208-7.064-4.741-14.14-14.16-14.14h-36.09zm-236.5 9.826h30.38c14.88 0 14.88 22.32 0 22.32h-30.38v-22.32zm87.62 0h36.06c2.876 0 4.324 2.157 4.324 4.324 0 2.146-1.438 4.314-4.324 4.314h-36.06v-8.639zm79.72 0h25.99c14.88 0 14.88 22.32 0 22.32h-25.99c-14.88 0-14.88-22.32 0-22.32zm-104.1 5.887c-2.709 0-4.908 2.199-4.908 4.908s2.199 4.908 4.908 4.908h2.146c2.709 0 4.906-2.199 4.906-4.908s-2.197-4.908-4.906-4.908h-2.146z" fill="#fff"/></svg>
