<svg width="480" height="320" version="1.1" viewBox="0 0 480 320" xml:space="preserve" xmlns="http://www.w3.org/2000/svg"><defs><linearGradient id="a" x1="122" x2="97.28" y1="-7.603" y2="84.67" gradientTransform="scale(3.78)" gradientUnits="userSpaceOnUse"><stop stop-color="#28bca3" offset="0"/><stop stop-color="#002e99" offset="1"/></linearGradient></defs><rect width="480" height="320" ry="24" fill="url(#a)"/><path d="m280.4 86.98c-3.439-0.0078-6.898 0.2313-10.36 0.8418-2.526 0.4592-4.915 0.9491-7.148 2.41-3.413 2.223-4.54 6.294-4.582 10.11-0.0522 4.143 1.191 8.704 5.115 10.73 3.11 1.534 6.491 2.43 9.945 2.639 5.865 0.5114 11.77 0.3875 17.62-0.3848l-0.0312-4.145c-4.373 0.8036-8.87 1.305-13.42 0.6367-6.992-1.012-8.162-6.208-8.162-9.652-0.1044-2.327 0.6158-4.612 2.035-6.449 2.86-3.653 11.26-4.041 19.22-2.496v-3.609c-3.376-0.3705-6.796-0.625-10.23-0.6328zm-90.79 0.8516v25.34h4.842v-17.97l14.3 15.91c1.211 1.325 2.932 2.077 4.727 2.066h8.516v-25.34h-4.863v18.58l-14.31-15.87c-0.981-0.9601-3.185-2.703-5.053-2.703zm36.67 0v18.79c0.1565 3.152 1.272 6.408 7.764 6.68 7.671 0.3235 14.96 0.1868 22.54-0.1055v-3.787c-3.77 0.0521-14.65 2.1e-4 -15.4 0-2.995-0.167-4.134-1.075-4.238-3.527-0.0209-0.3966-0.082-2.557-0.082-4.467h17.66v-3.527h-17.66v-6.451h19.33v-3.6zm21.44 33.21c-28.17 0-50.99 22.84-50.99 50.99 0 28.16 22.84 50.99 50.99 50.99 21.03 0 39.07-12.73 46.88-30.91h-11.08c-7.044 12.51-20.42 20.96-35.79 20.96-22.68 0-41.05-18.38-41.05-41.04 0-22.67 18.38-41.04 41.05-41.04 15.37 0 28.76 8.452 35.79 20.96h11.08c-7.796-18.17-25.85-30.9-46.87-30.9zm63.12 1.869v97.73h19.18v-42.02h28.85v-19.18h-28.85v-17.36h28.85v-19.18h-43.76zm50.56 0 26.21 45.39-30.23 52.35h22.15l19.16-33.18 19.15 33.18h22.15l-30.23-52.35 26.21-45.39h-22.15l-15.11 26.2-15.12-26.2zm-229.3 1.723v97.68h9.945v-27h15.46c47.12 0 47.12-70.68-0.0117-70.68h-18.16zm-52.18 0.01a3.246 3.246 0 0 0-3.246 3.246 3.246 3.246 0 0 0 3.246 3.244 3.246 3.246 0 0 0 3.246-3.244 3.246 3.246 0 0 0-3.246-3.246zm6.951 1.941c-1.054 0-1.974 0.7923-2.109 1.867-0.1461 1.169 0.6892 2.233 1.848 2.369 12.96 1.607 26.96 8.976 26.96 18.08 0 4.634-2.243 8.954-5.812 12.62 0-0.0209-0.0117-0.0416-0.0117-0.0625-1.899-8.923-17.76-14.61-27.84-14.61-16.05 0-28.62 6.627-28.62 15.08 0 4.07 2.86 7.723 7.598 10.43-0.1983 0.6784-0.3027 1.389-0.3027 2.119 0 2.985 1.785 5.574 4.895 7.525-0.06262 0.334-0.09375 0.6771-0.09375 1.021 0 5.218 7.253 9.152 16.88 9.152 1.972 0 3.882-0.1868 5.688-0.5625-0.3653 0.1461-0.7408 0.2823-1.158 0.418-1.106 0.3757-1.723 1.575-1.357 2.691 0.2922 0.8975 1.128 1.473 2.025 1.473 0.2192 0 0.439-0.0324 0.6582-0.1055 4.529-1.461 7.847-4.196 9.35-7.682 0.2192-0.5114 0.3975-1.021 0.5332-1.543 1.294-1.127 2.411-2.411 3.309-3.83 1.002-1.597 1.669-3.257 1.961-4.875 0.6575-0.4905 1.066-0.8442 1.201-0.959 0.5322-0.4383 4.674-3.978 5.52-10.01 6.387-5.176 9.852-11.56 9.852-18.27 0-11.58-15.6-20.43-30.69-22.3-0.09393-0.0104-0.1776-0.0195-0.2715-0.0195zm-7.316 4.863-39.61 23.23v22.46l0.502 0.291 18.47 10.74 3.662-2.148c-0.4376-0.939-0.7012-1.942-0.7012-3.01 0-0.1139 0.02585-0.2261 0.03125-0.3398-2.927-2.096-4.832-4.922-4.832-8.207 0-0.485 0.1261-0.941 0.2012-1.41-4.5-2.826-7.496-6.661-7.496-11.13 0-4.97 3.658-9.174 9.09-12.04 5.355-2.823 12.59-4.487 20.68-4.533zm62.48 3.131h15.46c33.87 0 33.87 50.8 0 50.8h-15.46zm-62.12 16.55c9.382 0 22.42 5.292 23.68 11.24 0.1878 0.8975 0.2812 1.743 0.2812 2.547-1.91 1.398-4.008 2.65-6.23 3.725-4.341-3.914-11.44-5.99-17.25-5.99-8.693 0-15.74 2.36-19.3 6.064-3.527-1.993-5.541-4.436-5.541-6.764 0-5.114 10.01-10.82 24.36-10.82zm-0.3555 1.51c-6.818 0.0475-12.58 1.426-16.55 3.336-4.04 1.943-5.947 4.398-5.947 5.977 0 1.315 1.419 3.169 4.055 4.881 4.037-3.486 10.54-5.519 18.45-5.656zm208.7 9.855v19.08h13.95v-19.08zm-207.8 4.426c4.195 0 9.236 1.315 12.74 3.611-4.321 1.524-8.89 2.379-13.21 2.379-5.615 0-10.56-0.888-14.51-2.266 2.953-2.119 8.256-3.725 14.98-3.725zm-0.8242 1.518c-3.945 0.0887-7.264 0.7928-9.822 1.744 2.943 0.6814 6.16 1.185 9.822 1.217zm22.53 2.73c-0.4383 0.7097-0.8866 1.294-1.283 1.732-0.0522-0.1148-0.1041-0.2309-0.1562-0.3457-0.0835-0.167-0.1665-0.3232-0.25-0.4902 0.574-0.2922 1.136-0.5834 1.689-0.8965zm-5.582 2.65c0.1148 0.1879 0.2186 0.3759 0.3125 0.5742 0.1983 0.4279 0.3242 0.9072 0.3555 1.439-1.106 0.741-2.547 1.618-4.217 2.463-1.106-0.8662-2.411-1.606-3.799-2.201 2.484-0.5531 4.958-1.326 7.348-2.275zm-33.64 0.4277c1.962 0.7618 4.112 1.387 6.418 1.867-1.451 0.6262-2.671 1.389-3.631 2.266-1.826-1.169-2.797-2.546-2.797-3.893 0-0.0835-6.74e-4 -0.1672 0.0098-0.2402zm56.29 4.049-24.99 14.65c-1.937 2.011-4.541 3.571-7.6 4.559-0.0982 0.0324-0.1964 0.0471-0.2949 0.0703l-5.729 3.359v20.99l38.61-22.64zm-38.9 0.0937c2.39 0 5.438 0.7622 7.838 1.91-2.4 0.7723-5.04 1.295-7.785 1.295-3.976 0-7.369-0.4816-10.08-1.254 2.171-1.096 5.615-1.951 10.03-1.951zm-40.31 1.063v19.83l38.6 22.64v-20.02zm51.91 4c0.1044 0.2818 0.166 0.6469 0.166 1.096-3.058 2.171-7.17 3.371-11.76 3.371-6.408 0-10.9-2.015-12.22-3.842 3.402 1.127 7.577 1.754 12.27 1.754 4.237 0 8.183-1.033 11.54-2.379z" fill="#fff"/></svg>
