<svg width="480" height="320" version="1.1" viewBox="0 0 127 84.667" xmlns="http://www.w3.org/2000/svg" xmlns:xlink="http://www.w3.org/1999/xlink">
 <defs>
  <linearGradient id="a" x1="122" x2="97.275" y1="-7.6034" y2="84.667" gradientUnits="userSpaceOnUse">
   <stop stop-color="#28bca3" offset="0"/>
   <stop stop-color="#002e99" offset="1"/>
  </linearGradient>
 </defs>
 <rect width="127" height="84.667" ry="4.2333" fill="url(#a)" stroke-linecap="square" stroke-linejoin="round" stroke-width=".52917" style="paint-order:stroke fill markers"/>
 <path d="m51.401 24.636c-8.6085 0-15.587 6.5949-15.587 14.729 0 8.1346 6.9786 14.729 15.587 14.729 6.6004 0 12.238-3.8781 14.511-9.3534h-3.0759c-2.0923 3.9666-6.4253 6.6929-11.434 6.6929-7.0534 0-12.771-5.4032-12.771-12.068 0-6.665 5.7181-12.068 12.771-12.068 4.5619 0 8.5623 2.2618 10.821 5.6617h3.2114c-2.5217-4.9242-7.8556-8.3229-14.033-8.3229zm-35.382 0.65948v6.0757l-0.01975 0.08323 0.01975-0.0013v22.2h3.0964v-7.9893h3.5147c1.7026-3.18e-4 3.397-0.0983 4.9966-0.67359 4.2775-1.3929 7.1114-5.6641 6.9701-9.881-0.12452-2.0671-0.8653-4.112-2.1879-5.7689-1.9688-2.63-5.3977-4.121-8.78-4.0415zm54.669 0v28.366h5.7012v-12.057h8.8836v-5.51h-8.8836v-5.1771h9.3125v-5.4219l8.124 13.427-8.9182 14.739h6.8622l5.4875-9.0684 5.4875 9.0684h6.8622l-8.9189-14.739 8.2453-13.627h-6.8622l-4.8139 7.9568-4.8146-7.9568h-18.679zm-48.988 2.609c0.87124 3.94e-4 1.7419 0.0112 2.6118 0.04937 2.5914 0.16219 5.1088 1.5292 6.3776 3.6981 1.5885 2.5664 1.4071 6.0391-0.55157 8.3829-1.3664 1.7396-3.5909 2.8526-5.8895 2.8876-1.7097 0.02227-3.385 0.01065-5.1327 0.01065l-0.03033-15.018c0.87166-0.0016 1.7434-0.01092 2.6147-0.01065zm41.994 8.1903c0.30962 1.0406 0.47821 2.1366 0.47821 3.2706 0 0.76579-0.07851 1.5138-0.22288 2.2401h4.2997v-5.5108zm-47.819 20.119c0.0034 1.2689 0.0034 2.541 0 3.813 31.75 0.0063 63.5 0.0027 95.25 0.0027v-3.8158c-31.75-0.0031-63.5 0.0031-95.25 0z" fill="#fafafa" stroke-width=".32715"/>
 <style type="text/css">.st0{fill:#FC0C18;}
	.st1{fill:#FC0C18;}</style>
</svg>
