<svg width="480" height="320" version="1.1" viewBox="0 0 480 320" xml:space="preserve" xmlns="http://www.w3.org/2000/svg"><defs><linearGradient id="a" x1="248.6" x2="155.7" y1="352.2" y2="5.403" gradientUnits="userSpaceOnUse"><stop stop-color="#442178" offset="0"/><stop stop-color="#c0f" offset="1"/></linearGradient></defs><rect id="b" width="480" height="320" ry="24" fill="url(#a)"/><path d="m275.2 237.7c-1.76 0-2.959 1.28-2.959 3 0 1.68 1.199 2.959 2.959 2.959 1.8 0 2.961-1.279 2.961-2.959 0-1.72-1.161-3-2.961-3zm-68.48 1.559-4.92 0.5215v25.32c0 3 1.8 4.92 4.68 4.92 1.2 0 2.321-0.3598 3.041-0.7598l-0.9609-3.359c-0.2 0.04-0.5189 0.1602-0.8789 0.1602-0.64 0-0.9609-0.4802-0.9609-1.16zm10.76 0-4.92 0.5215v25.32c0 3 1.802 4.92 4.682 4.92 1.2 0 2.319-0.3598 3.039-0.7598l-0.9609-3.359c-0.2 0.04-0.5189 0.1602-0.8789 0.1602-0.64 0-0.9609-0.4802-0.9609-1.16zm-45.6 1.961c-5.76 0-10.2 4.52-10.2 14.32 0 9.92 4.239 14.48 10.2 14.48 3.2 0 5.601-1.598 7.121-3.318l-2.441-2.801c-1.24 1.04-2.438 2.039-4.318 2.039-3.12 0-5.201-2.638-5.201-10.4 0-7.96 2.161-10.44 5.121-10.44 1.6 0 2.838 0.6809 4.158 1.881l2.441-2.92c-1.92-1.8-3.961-2.84-6.881-2.84zm92.72 1.76-4.92 0.5996v4.68h-2.48v3.561h2.48v12.32c0 3.48 1.839 5.879 5.639 5.879 1.64 0 3.282-0.5186 4.602-1.559l-1.721-3.041c-0.72 0.4-1.199 0.6406-1.959 0.6406-1.12 0-1.641-0.7199-1.641-1.92v-12.32h3.52l0.4805-3.561h-4zm-75.48 4.721c-5.24 0-8.439 3.879-8.439 11.12 0 7.28 3.199 11.2 8.439 11.2s8.439-4.159 8.439-11.2c0-7.52-3.199-11.12-8.439-11.12zm41.4 0c-5.28 0-8.121 4.438-8.121 11.32 0 6.96 3.042 11 8.602 11 2.84 0 5.039-1.079 6.719-2.719l-2.039-2.801c-1.48 1.2-2.72 1.76-4.4 1.76-2.2 0-3.68-1.239-3.92-5.879h10.92c0.04-0.56 0.1191-1.361 0.1191-2.041 0-7.12-2.999-10.64-7.879-10.64zm19.72 0c-5.16 0-8.521 4.158-8.521 11.32 0 7.4 3.28 11 8.6 11 2.28 0 4.161-0.9594 5.721-2.439l-2.199-2.84c-1.16 0.84-2.041 1.32-3.281 1.32-2.16 0-3.639-1.561-3.639-7.121 0-5.6 1.359-7.439 3.639-7.439 1.24 0 2.241 0.4804 3.361 1.4l2.119-2.801c-1.68-1.64-3.479-2.398-5.799-2.398zm40.32 0c-5.24 0-8.439 3.879-8.439 11.12 0 7.28 3.199 11.2 8.439 11.2s8.441-4.159 8.441-11.2c0-7.52-3.201-11.12-8.441-11.12zm22.76 0c-2.4 0-3.878 1.238-5.238 3.318l-0.3613-2.76h-4.279v21.16h4.92v-14.8c1-1.92 2.12-3.16 3.32-3.16 1.04 0 1.639 0.7598 1.639 2.84v15.12h4.92v-15.68c0-3.68-1.88-6.039-4.92-6.039zm-40.56 0.5586v21.16h4.92v-21.16zm-42.2 2.881c2.16 0 3.041 1.76 3.041 5.76v0.2793h-6.24c0.2-4.68 1.359-6.039 3.199-6.039zm-41.44 0.2793c2.2 0 3.32 1.88 3.32 7.4s-1.12 7.439-3.32 7.439-3.32-1.879-3.32-7.439c0-5.48 1.12-7.4 3.32-7.4zm101.4 0c2.2 0 3.32 1.88 3.32 7.4s-1.12 7.439-3.32 7.439-3.318-1.879-3.318-7.439c0-5.48 1.118-7.4 3.318-7.4z" fill="#fff"/><path d="m118.2 100c-1.651-0.0168-3.362 0.1373-5.056 0.4629-5.948 1.144-8.436 3.644-5.462 5.49 1.399 0.8684 2.344 1.141 6.83 1.976 2.898 0.539 4.345 1.007 5.011 1.62 0.3658 0.3369 0.465 0.5129 0.465 0.8264 0 0.613-0.5739 1.394-1.267 1.724-0.5351 0.2551-0.7129 0.2732-2.363 0.268-2.012-7e-3 -3.276-0.2184-5.502-0.9198l-1.293-0.4061-3.764 2.057 0.4 0.1238c1.032 0.3222 3.016 0.748 4.148 0.8893 0.7764 0.098 1.926 0.1379 3.035 0.1076 4.327-0.1177 7.871-1.255 10.36-3.324 1.463-1.215 1.69-2.573 0.5868-3.506-0.889-0.752-2.061-1.091-6.247-1.805-4.254-0.726-5.58-1.126-6.178-1.862-0.3653-0.4495-0.3131-0.7962 0.1969-1.316 0.342-0.3483 0.6117-0.4956 1.155-0.6294 1.829-0.45 5.479 0.0525 7.606 1.046 0.3284 0.1534 0.6524 0.2782 0.7187 0.2782 0.1199 0 3.898-1.482 3.99-1.565 0.1129-0.1022-1.461-0.6742-2.674-0.9725-1.455-0.3577-3.047-0.5456-4.698-0.5624zm223.2 0.1279c-0.1743 0.0132-0.2563 0.0669-0.3797 0.1746-0.1446 0.1263-0.6056 0.453-1.025 0.7248-1.217 0.7868-1.103 0.8122 3.691 0.7776 2.208-0.016 4.046 2.7e-4 4.083 0.0366 0.0376 0.0364 0.1279 1.118 0.201 2.404 0.1634 2.881-0.0589 7.677-0.4406 9.49-0.0671 0.3184-0.0651 0.3222 0.3878 0.2294 0.2516-0.0515 1.618-0.0884 3.035-0.0833l2.579 0.0122 0.065-5.425c0.0363-2.984 0.1085-5.712 0.1604-6.061l0.0954-0.6335h2.38c1.309 0 2.899 0.0376 3.533 0.0832l1.153 0.0833 0.1401-0.4284c0.0772-0.2356 0.2194-0.5506 0.3167-0.7005 0.1483-0.2285 0.1508-0.2964 0.0162-0.4223-0.124-0.1159-0.3496-0.1267-0.9928-0.0447-0.4583 0.0584-3.351 0.1376-6.428 0.1766-5.558 0.0704-9.34-0.0338-11.64-0.3188-0.493-0.0612-0.7597-0.0883-0.934-0.0751zm-116.4 0.1543c-0.0273-0.0265-0.7881 0.0106-1.689 0.0812l-1.639 0.1279-0.5543 0.7573c-1.074 1.465-5.055 6.544-7.033 8.974-0.1425 0.1752-0.176 0.1664-0.3858-0.1096-0.1264-0.1664-1.098-1.359-2.16-2.65-2.318-2.817-4.107-5.165-4.775-6.27l-0.4914-0.8121-1.787 0.0487c-0.9837 0.0266-1.82 0.0963-1.858 0.1543-0.0786 0.1195-0.2005 0.7952-1.119 6.203-0.3604 2.123-0.7916 4.43-0.9583 5.127-0.513 2.144-0.5324 1.898 0.136 1.906 0.3192 4e-3 0.983 0.0753 1.474 0.1584 1.481 0.2507 1.521 0.2449 1.655-0.2518 0.2535-0.941 0.4962-2.296 0.9644-5.384 0.269-1.774 0.5329-3.269 0.5868-3.322 0.0539-0.0526 0.2696 0.1937 0.4792 0.5482 0.5492 0.929 2.061 2.842 3.732 4.719 0.7974 0.8959 1.714 1.952 2.034 2.347l0.5827 0.7188h1.929l0.9989-1.342c1.089-1.464 5.949-7.356 6.067-7.356 0.0402 0 0.1141 0.285 0.1645 0.6335 0.0502 0.3485 0.3032 1.671 0.5624 2.938 0.4549 2.224 0.634 3.372 0.7878 5.058l0.0711 0.7959 1.854-0.0751c1.019-0.0408 1.87-0.0923 1.892-0.1137 0.0221-0.0214-0.0653-0.7603-0.1929-1.643-0.6547-4.525-1.037-7.864-1.184-10.33-0.052-0.873-0.1167-1.61-0.1442-1.636zm-185 1.308v39.89l-2e-3 39.89h6.617v-36.84h17.51c9.454 0 18.38-0.2277 19.84-0.5076 6.295-1.206 12.04-5.663 14.92-11.58 1.626-3.336 1.718-8.476 1.718-9.366 0-0.9448-0.1508-6.168-1.383-8.822-2.497-5.379-7.253-9.674-12.88-11.63-2.743-0.953-4.549-1.029-24.65-1.029zm345.9 5.007-0.6051 0.1523c-0.3336 0.0838-0.81 0.1523-1.058 0.1523h-0.4508l0.0731 2.16c0.059 1.75 0.0373 2.325-0.1178 3.025-0.1052 0.4752-0.1928 0.9066-0.1929 0.9583-5e-5 0.052 0.0944 0.0668 0.2091 0.0345 0.1146-0.0323 0.5365-0.1191 0.938-0.1929l0.7289-0.134 0.069-0.6497c0.0377-0.3576 0.105-1.227 0.1482-1.933 0.0433-0.7057 0.1149-1.342 0.1604-1.413 0.0547-0.0856 1.613 0.5975 4.589 2.012 2.478 1.178 4.59 2.147 4.694 2.152 0.104 6e-3 0.4883-0.0758 0.8548-0.1807l0.666-0.1908-0.0528-1.125c-0.0471-0.9868 0.0988-2.511 0.4101-4.282l0.069-0.3919-0.9786 0.065c-0.5377 0.0357-1.002 0.0894-1.031 0.1178-0.0294 0.0284-0.1132 0.9528-0.1868 2.055-0.0736 1.102-0.147 2.021-0.1644 2.043-0.0474 0.0572-6.743-3.275-7.833-3.898zm-104.7 0.0934-0.9076 0.065-0.9096 0.0629-1.413 1.342c-1.165 1.106-3.874 3.383-5.309 4.463-0.1788 0.1345-0.325 0.263-0.3269 0.2883 2e-3 0.0253 0.5742 0.025 1.275 0l1.277-0.0467 1.165-1.064c1.349-1.232 1.273-1.209 3.984-1.21 1.8-1e-3 1.456-0.1773 2.983 1.527l0.802 0.8934 0.7736-0.0589c0.4255-0.0323 1.13-0.0585 1.565-0.0589h0.7918l-1.492-1.411c-1.635-1.546-3.347-3.412-3.902-4.254zm-110.2 0.0101c-0.1714-0.0289-0.3584 4e-3 -0.7248 0.069-0.4096 0.0731-0.9161 0.132-1.125 0.132h-0.3797l0.0954 1.297c0.13 1.762 0.0844 3.135-0.136 4.055-0.1013 0.423-0.1848 0.79-0.1848 0.8162 0 0.0488 0.324-5e-3 1.368-0.2274l0.5949-0.1259 0.0305-0.6314c0.0572-1.19 0.2589-3.369 0.3167-3.425 0.0318-0.0308 1.548 0.6575 3.368 1.529 1.82 0.8714 3.902 1.858 4.627 2.193l1.318 0.6091 0.5868-0.1746c0.3225-0.0962 0.6602-0.1984 0.7512-0.2254 0.1304-0.0386 0.1486-0.216 0.0893-0.8324-0.1038-1.081 0.1608-3.706 0.4812-4.786 0.0602-0.203 1e-3 -0.2133-0.9055-0.1624-0.5334 0.0299-1.018 0.1026-1.076 0.1604-0.0578 0.0579-0.1587 0.9786-0.2254 2.047-0.0668 1.068-0.1455 1.964-0.1746 1.992-0.0291 0.0282-0.8218-0.3322-1.762-0.802-0.9405-0.4697-2.609-1.303-3.707-1.852-1.099-0.549-2.27-1.16-2.603-1.358-0.2975-0.1772-0.452-0.2676-0.6233-0.2964zm238.8 4e-3c-2.635-0.1264-5.415 0.796-5.415 1.797 0 0.7454 0.7555 1.153 3.005 1.62 1.707 0.3546 2.3 0.5503 2.623 0.8629 0.2892 0.2799 0.2541 0.4958-0.1442 0.8812-0.3224 0.3119-0.4131 0.335-1.236 0.335-0.596 0-1.228-0.0939-1.921-0.2883l-1.033-0.2904-0.7898 0.4568c-0.7651 0.4435-0.778 0.4599-0.4832 0.5685 0.342 0.1258 1.492 0.3423 2.122 0.3979 1.309 0.116 3.4-0.301 4.382-0.873 1.165-0.679 1.656-1.438 1.285-1.986-0.3069-0.4534-0.818-0.6353-2.912-1.044-2.007-0.3914-2.542-0.6079-2.611-1.05-0.1253-0.806 2.012-0.9537 3.663-0.2538l0.534 0.2254 0.7756-0.3106c0.4263-0.1714 0.8221-0.3514 0.8791-0.4 0.2104-0.1788-1.522-0.5921-2.723-0.6497zm-275 0.0832 0.0609 0.4893c0.2512 2.066 0.2915 2.555 0.2842 3.423-5e-3 0.5402-0.0498 1.261-0.0995 1.602l-0.0914 0.6213 1.318-0.0812c0.7249-0.0443 1.337-0.0993 1.36-0.1218 0.0233-0.0225 0.0729-0.568 0.1096-1.212 0.0398-0.6984 0.1188-1.185 0.1969-1.208 0.072-0.0209 1.832-0.0701 3.91-0.1096l3.778-0.0711v2.918l0.4467-0.0711c0.2455-0.0393 0.8892-0.0727 1.429-0.0731h0.9806l0.0122-1.758c7e-3 -0.9662 0.0499-2.301 0.0954-2.966 0.0454-0.6653 0.0803-1.218 0.0772-1.226-3e-3 -9e-3 -0.6217-0.0343-1.375-0.0568l-1.368-0.0406-0.0629 1.094c-0.0677 1.17-0.2142 1.568-0.6294 1.718-0.1433 0.0517-1.867 0.1135-3.831 0.1381l-3.571 0.0447-0.0731-1.267c-0.041-0.697-0.0821-1.384-0.0893-1.527-0.0148-0.254-0.0465-0.2579-1.442-0.2579zm22.55 0-6e-3 2.217c-4e-3 1.22-0.0476 2.601-0.0975 3.07l-0.0914 0.8507 1.383-0.0589c0.7601-0.0326 1.406-0.0833 1.435-0.1117 0.0291-0.0285-5e-3 -0.6442-0.0772-1.368-0.123-1.24-0.0825-3.203 0.0873-4.168l0.0772-0.4304h-1.354zm152.6 0-0.7797 0.0122c-0.4288 7e-3 -0.9242 0.0473-1.1 0.0873-0.1762 0.04-0.8939 0.5907-1.596 1.224-1.58 1.426-1.343 1.216-2.577 2.29-0.9285 0.8086-1.065 0.8888-1.251 0.7492-0.6482-0.4873-3.189-2.735-3.923-3.47l-0.8588-0.8588-1.176 0.0548-1.178 0.0548-0.2071 0.8771c-0.4715 1.997-1.038 4.133-1.202 4.54-0.0964 0.2389-0.1746 0.4558-0.1746 0.4832 0 0.0276 0.3601 0.0693 0.802 0.0914 0.4419 0.0221 0.972 0.0482 1.178 0.0609 0.3697 0.0223 0.3777 0.014 0.6233-0.869 0.2208-0.7939 0.7289-3.052 0.7289-3.236 0-0.0389 0.3883 0.2989 0.8629 0.7512 0.4746 0.4523 1.48 1.319 2.233 1.925 1.327 1.067 1.385 1.099 1.967 1.105 0.5664 3e-3 0.6408-0.0342 1.31-0.6396 0.9905-0.8966 3.663-3.138 3.793-3.182 0.1756-0.0587 1.023 3.127 1.023 3.845v0.3533l1.22-0.0832c0.671-0.0459 1.229-0.0922 1.241-0.1015 0.0114-0.0105-0.1355-0.8214-0.3269-1.803-0.1913-0.9816-0.4126-2.342-0.4914-3.023zm9.451 0v1.998c0 1.099-0.036 2.48-0.0792 3.07l-0.0792 1.074 1.399-0.067c0.7692-0.0365 1.413-0.085 1.431-0.1056 0.0185-0.0208-0.0164-0.4263-0.0792-0.9015-0.1219-0.9199-0.0604-4.529 0.0832-4.867 0.0787-0.1851-0.0263-0.201-1.295-0.201zm116.5 0v1.653c0 0.9088-0.0342 2.281-0.0772 3.052l-0.0772 1.401h0.8345c0.4592 0 1.09-0.0337 1.401-0.0751l0.5665-0.0751-0.0812-0.8974c-0.1101-1.221-0.0906-3.714 0.0345-4.453l0.1015-0.605h-1.35zm-60.91 0.0406c-0.2455 0.0393-2.039 0.0727-3.984 0.0731h-3.535l0.1726 0.4771c0.431 1.182 0.4364 3.599 0.0102 4.966l-0.1706 0.5482h3.671c3.594 0 3.682-6e-3 4.126-0.2599l0.4528-0.2599-5.447-0.0609 0.0751-0.532c0.0416-0.2928 0.0751-0.7844 0.0751-1.092v-0.5604h1.945c1.705 0 1.969-0.0243 2.126-0.201 0.3932-0.4447 0.3753-0.4489-1.787-0.4406l-2.105 8e-3 -0.0345-1.023-0.0345-1.021 3.817 0.1665 0.536-0.3269c0.6534-0.3994 0.6849-0.5558 0.0914-0.4609zm53.39 0.0345c-0.0209-0.01-1.822-2e-3 -4.004 0.0183-3.655 0.0343-3.961 0.0535-3.888 0.2315 0.0436 0.1062 0.1588 0.5554 0.2579 0.9989 0.2193 0.9807 0.1479 3.163-0.132 4.032-0.102 0.3168-0.1848 0.6143-0.1848 0.6619l-2e-3 4e-3c-6.8e-4 0.0475 1.648 0.0876 3.661 0.0873 3.591-4e-4 3.666-6e-3 4.075-0.2599l0.4182-0.2578-5.358-0.0629 0.1117-1.092 0.1117-1.092 3.825-0.0162 0.2599-0.3208 0.2619-0.3208-4.272 0.1096v-2.134l3.793 0.1644 0.5523-0.3675c0.3036-0.2021 0.5343-0.3744 0.5137-0.3837zm-168.1 0.0102c-2.718 0.2002-5.618 1.043-6.763 2.097-0.5705 0.5252-0.6738 0.9066-0.4203 1.549 0.4207 1.066 1.403 1.809 2.926 2.213 0.9726 0.2579 3.692 0.2678 4.97 0.0183 0.7834-0.1531 0.8629-0.1507 0.8629 0.0162-4.2e-4 0.1734-0.2089 0.5269-0.6741 1.145l-0.203 0.27 0.8243-0.0792c1.578-0.1513 1.638-0.1833 2.294-1.243 0.8923-1.44 1.836-3.088 1.789-3.129-0.023-0.0201-0.618 0.0175-1.322 0.0833l-1.279 0.1198v0.333c0 0.6989-0.77 1.571-1.653 1.872-0.6528 0.2228-2.353 0.2314-3.188 0.0162-1.372-0.3535-2.578-1.091-2.962-1.809-0.3612-0.6761-0.1435-1.312 0.6842-1.998 1.103-0.9136 3.059-1.065 5.488-0.4264l1.405 0.3675 1.202-0.3472c0.6618-0.1916 1.226-0.3705 1.255-0.398 0.1152-0.1115-1.549-0.5165-2.65-0.6436-0.7935-0.0917-1.681-0.0952-2.587-0.0284zm-15.16 0.0203c-0.2771-0.0214-7.85 0.0274-7.874 0.0508-0.0148 0.0143 0.0568 0.2831 0.1584 0.5969 0.2922 0.9032 0.35 2.942 0.1157 4.061-0.1087 0.5191-0.2282 1.023-0.266 1.119-0.0603 0.152 0.3799 0.1726 3.571 0.1726 3.167 0 3.693-0.0259 4.059-0.1949 0.2314-0.1068 0.4203-0.2346 0.4203-0.2863 0-0.0517-1.186-0.0954-2.635-0.0954h-2.635l0.0771-0.7066c0.0421-0.3895 0.0751-0.8819 0.0751-1.094v-0.3878h3.884l0.4995-0.6517-4.264 0.1076v-2.134l3.768 0.1644 0.5786-0.3553c0.3189-0.1958 0.5289-0.3603 0.467-0.3655zm-162 1.044 2.731 1.263c7.009 3.241 10.55 10.74 8.479 17.95-1.081 3.757-4.79 8.044-8.45 9.766-2.601 1.224-2.864 1.235-20.86 1.243l-18.51 8e-3 0.0061-29.95zm196.6 0.4386c0.0414 0.0449 0.406 0.4584 0.8101 0.9177l0.735 0.8345h-1.419c-0.7805 0-1.6 0.0344-1.821 0.0751-0.387 0.0716-0.3646 0.0372 0.6091-0.9177 0.5559-0.5452 1.045-0.9545 1.086-0.9096zm69.02 12.28c-6.321-0.2469-12.83 2.106-17.86 7.591-6.052 6.603-6.485 8.795-6.497 32.8-6e-3 10.11-0.1752 19.59 0 20.05h6.418c0.1493-0.656-0.0812-11.33 0-22.26l0.132-17.76c0.5611-4.581 2.699-7.03 5.151-9.63 5.526-5.043 12.9-6.153 19.4-2.922 3.786 1.883 6.4 4.544 8.351 8.505 1.186 2.408 1.218 2.87 1.472 23.13l0.2639 20.94h5.996v-20.9c0-8.614-0.219-17.07-0.5116-19.12-1.765-12.38-11.78-20.02-22.31-20.43zm-154.9 0.0203c-10.65 0-18.91 6.851-20.55 17.03-0.2799 1.742-0.201 11.4-0.201 21.17v22.23h5.904l0.1523-22.13c0.1488-21.54 0.1835-22.19 1.289-24.25 1.355-2.529 4.482-5.634 6.928-6.879 0.9716-0.4945 3.509-1.031 5.64-1.194l3.874-0.2964v-5.679zm-60.17 8e-3c-8.93 0.0166-14.98 2.615-21.56 9.25-6.434 6.494-8.86 12.47-8.824 21.75 0.0325 8.466 2.779 15.05 8.846 21.23 4.292 4.367 9.52 7.355 14.84 8.477 4.587 0.9681 11.45 0.6245 15.97-0.7979 5.553-1.748 14.59-8.434 14.59-10.8 0-0.3691-1.064-1.194-2.363-1.831l-2.363-1.159-2.869 2.625c-1.579 1.444-3.762 3.086-4.853 3.647-7.628 3.925-17.65 3.523-24.37-0.9766-5.034-3.368-10.13-9.9-10.72-15.23l-0.3106-2.784h54.19c0.4075 0 0.2741-2.579 0.134-4.207-0.7678-8.92-3.168-14.28-9.055-20.23-6.083-6.149-12.79-8.974-21.27-8.958zm275.6 0c-8.781-0.017-15.31 2.709-21.43 8.95-6.301 6.424-8.903 12.69-8.903 21.44 0 5.918 0.7271 9.283 3.035 14.07 3.956 8.208 12.79 14.94 21.63 16.48 9.265 1.615 19.19-1.242 25.93-7.466 1.597-1.474 3.685-3.399 3.982-3.214v10.16h6.178v-18.35c-0.0722-7.216 1.318-15.95-1.663-22.47-5.211-12.19-16.05-19.58-28.76-19.61zm-184.6 8e-3c-12.79 0-20.02 5.24-20.09 14.56-0.0437 5.435 2.825 10.05 7.734 12.44 1.17 0.569 6.143 2.209 11.05 3.644 4.906 1.435 9.864 3.007 11.02 3.494 2.374 1.001 5.238 3.579 6.343 5.709 0.9639 1.859 0.9533 6.955-0.0183 8.852-1.284 2.509-4.275 4.713-7.945 5.858-8.323 2.379-18.77 1.596-24.64-11.11l-5.177 1.285c0.5484 4.754 4.665 10.26 8.787 12.67 2.18 1.274 6.261 2.756 8.745 3.175v-2e-3c2.47 0.4177 7.083 0.3471 10.58-0.1645 10.63-1.553 16.69-7.424 16.69-16.17 0-6.349-3.223-11.4-9.124-14.3-1.47-0.7233-6.569-2.368-11.33-3.657-4.762-1.288-9.364-2.62-10.23-2.96-7.884-3.1-8.817-12.91-1.565-16.45 3.923-1.918 8.732-2.414 13.64-1.403 5.146 1.06 7.896 2.867 9.699 6.371l1.312 2.55 5.569-0.9685c0.1807-0.6176-1.376-4.743-3.344-6.899-4.154-4.552-9.499-6.522-17.7-6.522zm59.25 0c-2.035 0.0442-4.036 0.2851-5.931 0.735-9.363 2.223-18.01 9.801-21.29 18.66-2.403 6.487-2.577 14.68-0.4508 21.14 3.183 9.664 12.31 17.99 22.08 20.13 4.238 0.9301 7.564 0.9409 12.57 0.0386 4.918-0.8859 8.558-2.527 12.81-5.774 16.63-12.72 15.35-38.81-2.483-50.33-4.781-3.09-11.2-4.729-17.3-4.597zm1.772 5.959c9.814 0.2553 19.13 6.928 22.44 16.64 4.456 13.08-2.728 27.39-15.82 31.51-2.062 0.6481-4.714 0.9981-7.478 0.9888-18.18-0.058-29.67-19.53-21.3-36.1 3.068-6.074 10.76-11.54 17.93-12.74 1.406-0.2354 2.819-0.3288 4.221-0.2924zm-153.2 0.0975c8.202-0.3369 16.37 3.722 21.67 11.68 1.559 2.346 3.57 8.574 3.21 9.721h-47.5c-0.334-1e-3 -0.068-2.407 0.5665-4.44 1.21-3.877 4.666-8.924 7.878-11.5 4.326-3.475 9.259-5.259 14.18-5.462zm276.2 0.0589c6.162-0.1232 12.45 2.127 17.42 7.151 9.339 9.433 9.79 23.93 1.046 33.59-3.344 3.696-6.658 5.893-10.86 7.206-5.875 1.833-13.3 1.146-18.76-1.738-2.673-1.411-7.121-5.775-9.208-9.033-3.321-5.186-4.412-12.43-2.81-18.64 2.974-11.53 12.91-18.33 23.18-18.54z" fill="#fff"/></svg>
