<svg width="480" height="320" version="1.1" viewBox="0 0 480 320" xmlns="http://www.w3.org/2000/svg"><defs><linearGradient id="a" x1="37.18" x2="37.18" y2="89.63" gradientTransform="scale(3.78)" gradientUnits="userSpaceOnUse"><stop stop-color="#9bdb4d" offset="0"/><stop stop-color="#007367" offset="1"/></linearGradient></defs><rect width="480" height="320" ry="24" fill="url(#a)"/><path d="m201 126.7-14.25 14.24 0.2871 52.34h52.6v-13.14h-26.12v-40.25h26.39v-13.19zm186 0v14.28l-13.18 13.15v39.14l66.19-0.1006v-66.48zm-280.5 0.0414-52.72 3e-3 -13.82 13.78 0.0325 52.84h26.43l0.1065-26.73 40.12 0.0147zm161.1 3e-3 -13.99 13.96-0.1983 52.39h52.35l14.12-14.1v-52.26zm-147.4 0.0178-0.1509 12.61 13.57-0.0208 0.0208 40.89h-13.45v13.07h52.87v-13.31h-13.01v-40.26h13.05v-12.97zm-53.62 13.21h14.04v13.73h-14.04zm213.6 0.0117h13.29v39.86h-13.29zm119.9 0.0592h27.08v13.37h-27.08zm-66.57 13.17v13.33h26.55v-13.33zm66.62 13.37h27.08v13.37h-27.08z" fill="#fff"/></svg>
