<svg width="480" height="320" version="1.1" viewBox="0 0 480 320" xml:space="preserve" xmlns="http://www.w3.org/2000/svg" xmlns:xlink="http://www.w3.org/1999/xlink"><defs><linearGradient id="a" x1="240" x2="114.2" y1="320" y2="-149.3" gradientUnits="userSpaceOnUse"><stop stop-color="#1e292e" offset="0"/><stop stop-color="#73808c" offset="1"/></linearGradient></defs><rect id="b" width="480" height="320" ry="24" fill="url(#a)"/><g fill="#fff"><path d="m50 124v72h7v-32h9a16 20 0 0 0 16-20 16 20 0 0 0-16-20h-9zm7 7h9a9 13 0 0 1 9 13 9 13 0 0 1-9 13h-9z"/><path d="m399.8 124v72h30v-7h-23v-31h23.03v-7h-23.03v-20h23v-7z"/><path d="m225.4 124v72h30v-7h-23v-31h23.03v-7h-23.03v-20h23v-7z"/><path d="m332.6 124c-14.91 0-27 16.12-27 36s12.09 36 27 36c6.196-0.0186 12.2-0.8777 17-6.098v-9.256c-3.971 6.533-9.824 8.32-16 8.354-11.6 0-21-12.98-21-29s9.402-29 21-29c6.162 4e-3 12.01 1.745 16 8.232v-9.189c-4.808-5.2-10.81-6.04-17-6.043z"/><path d="m148.9 149.9a4.5 79 20 0 0-22.79 75.77 4.5 79 20 0 0 31.25-72.7 4.5 79 20 0 0 22.79-75.77 4.5 79 20 0 0-31.25 72.7zm-21.36 83.12a4.5 79 20 0 0-1.265 9.741 4.5 79 20 0 0 31.25-72.7 4.5 79 20 0 0 22.79-75.77 4.5 79 20 0 0-1.325 1.106 4.5 79 20 0 1-21.55 66.13 4.5 79 20 0 1-29.9 71.5z"/></g></svg>
