<svg width="480" height="320" version="1.1" viewBox="0 0 480 320" xml:space="preserve" xmlns="http://www.w3.org/2000/svg"><defs><linearGradient id="a" x1="11.817" x2="94.047" y1="-52.263" y2="104.76" gradientTransform="scale(3.7795)" gradientUnits="userSpaceOnUse"><stop stop-color="#f9c440" offset="0"/><stop stop-color="#d48e15" offset=".55816"/><stop stop-color="#cc3b02" offset="1"/></linearGradient></defs><rect width="480" height="320" ry="24" fill="url(#a)"/><path d="m162.99 135.4-16.053 8.8027 2.3223 6c0.47917-0.11457 17-7.3125 17-7.3125l-3.2695-7.4902zm-51.219 4.6055v43.885h9.4785v-15.094h0.10352l7.584 15.104h11.479l-10.322-16.5 9.5312-13.988h-10.375l-7.8965 12.812h-0.10352v-26.219h-9.4785zm-71.771 3.041v40.844h10.885v-14.281h4.209c10.177-1e-5 16.209-4.916 16.209-13.166 0-9.1875-5.8438-13.396-18.312-13.396h-12.99zm10.885 7.7285h2.8125c3.75 0 6.7305 1.3438 6.7305 5.5 0 4.2708-2.9805 5.6152-6.7305 5.6152h-2.8125v-11.115zm106.96 1.918c-8.5312 0-14.688 5.8431-14.688 15.916s6.8952 15.979 15.947 15.979c3.5312 0 7.0104-0.58203 10.062-1.9258v-7.4277c-2.8438 1.6979-5.7917 2.3437-8.375 2.3437-4.625 0-7.5195-1.6452-8.0508-5.8535v-0.02149h18.947v-1.9277c0-9.0625-3.6875-17.082-13.844-17.082zm-67.146 0.00976c-9.0521 1e-5 -15.947 5.8535-15.947 15.979 0 10.062 6.8952 15.918 15.947 15.918 9.0625 0 15.959-5.8555 15.959-15.918 0-10.125-6.9069-15.979-15.959-15.979zm105.21 0c-4.3125 1e-5 -8.1042 1.9369-10 6.3223h-0.10352v-5.6133h-8.6367-0.01954v30.488h9.4785v-12.875c0-6.5625 2.0104-9.541 5.375-9.541 2.6875 0 3.791 2.5833 3.791 6.0312v16.385h9.4805v-12.875c0-6.5625 2.0104-9.541 5.375-9.541 2.6875 0 3.791 2.5833 3.791 6.0312v16.385h9.4785v-17.969c0-8.2604-1.7917-13.229-9.6875-13.229-3.8958 1e-5 -7.53 1.7598-9.7383 5.8535-1.4792-3.9792-4.6882-5.8535-8.584-5.8535zm49.084 0c-9.0521 1e-5 -15.949 5.8535-15.949 15.979 0 10.062 6.8971 15.918 15.949 15.918 9.0625 0 15.957-5.8555 15.957-15.918 0-10.125-6.905-15.979-15.957-15.979zm39.812 0c-4.3125 1e-5 -8.1042 1.9369-10 6.3223h-0.10546v-5.6133h-8.6348-0.00977v30.488h9.4785v-12.875c0-6.5625 2.0006-9.541 5.8965-9.541 2.5833 0 4.375 1.9368 4.375 7.666v14.74h9.4785v-19.021c0-6.3125-2.9994-12.166-10.479-12.166zm34.613 0.5625c-2.6771 0-4.8438 2.1667-4.8438 4.8438v2.916 1.9277 16.344c0 2.6771 2.1667 4.8438 4.8438 4.8437 2.6771 0 4.8438-2.1667 4.8438-4.8437v-16.344h7.375 2.7617v16.344c0 2.6771 2.1667 4.8438 4.8438 4.8437 2.6771 0 4.8438-2.1667 4.8438-4.8437v-16.344h10.135v16.344c0 2.6771 2.1667 4.8438 4.8438 4.8437 2.6771 0 4.8438-2.1667 4.8438-4.8437v-16.344-1.5098-3.334c0.0208-2.6771-2.1569-4.8438-4.834-4.8438h-23.926-3.5117-12.219zm77.209 0c-2.6771 0-4.8438 2.1667-4.8438 4.8438v2.916 1.9277 16.344c0 2.6771 2.1667 4.8438 4.8438 4.8437 2.6771 0 4.8438-2.1667 4.8438-4.8437v-16.344h10.135v16.344c0 2.6771 2.1667 4.8438 4.8438 4.8437 2.6771 0 4.8438-2.1667 4.8438-4.8437v-16.344-1.5098-3.334c0-2.6771-2.1771-4.8438-4.8438-4.8438h-19.822zm-18.781 0.27149c-2.6771 0-4.8438 2.1667-4.8438 4.8438 0 2.6771 2.1667 4.8438 4.8438 4.8438 2.6771 0 4.8438-2.1667 4.8438-4.8438 0-2.6771-2.1667-4.8438-4.8438-4.8438zm57.312 0c-2.6771 0-4.8438 2.1667-4.8438 4.8438 0 2.6771 2.1667 4.8438 4.8438 4.8438 2.6771 0 4.8438-2.1667 4.8438-4.8438 0-2.6771-2.1667-4.8438-4.8438-4.8438zm-277.27 5.8438c3.7917 0 5.2715 2.8646 5.2715 6.375h-10.531c0.20833-3.5104 1.8431-6.375 5.2598-6.375zm-67.188 0.69726c4.3646 1e-5 6.1562 4.041 6.1562 8.6035 0 4.5-1.7917 8.543-6.1562 8.543s-6.1562-4.0326-6.1562-8.543c0-4.5625 1.7917-8.6035 6.1562-8.6035zm154.3 0c4.3646 1e-5 6.1562 4.041 6.1562 8.6035 0 4.5-1.7917 8.543-6.1562 8.543s-6.1562-4.0326-6.1562-8.543c0-4.5625 1.7917-8.6035 6.1562-8.6035zm132.84 6.3535c-2.6771 0-4.8438 2.1667-4.8438 4.8438v8.0215c0 2.6771 2.1667 4.8437 4.8438 4.8437 2.6771 0 4.8438-2.1667 4.8438-4.8437v-8.0215c0-2.6771-2.1667-4.8438-4.8438-4.8438zm57.312 0c-2.6771 0-4.8438 2.1667-4.8438 4.8438v8.0215c0 2.6771 2.1667 4.8437 4.8438 4.8437 2.6771 0 4.8438-2.1667 4.8438-4.8437v-8.0215c0-2.6771-2.1667-4.8438-4.8438-4.8438z" fill="#fff"/></svg>
