<svg width="480" height="320" version="1.1" viewBox="0 0 480 320" xml:space="preserve" xmlns="http://www.w3.org/2000/svg"><defs><linearGradient id="a" x1="240" x2="135.2" y1="320" y2="-71.11" gradientUnits="userSpaceOnUse"><stop stop-color="#a80" offset="0"/><stop stop-color="#ffd42a" offset="1"/></linearGradient></defs><rect id="b" width="480" height="320" ry="24" fill="url(#a)"/><path d="m275.2 237.7c-1.76 0-2.959 1.28-2.959 3 0 1.68 1.199 2.959 2.959 2.959 1.8 0 2.961-1.279 2.961-2.959 0-1.72-1.161-3-2.961-3zm-68.48 1.559-4.92 0.5215v25.32c0 3 1.8 4.92 4.68 4.92 1.2 0 2.321-0.3598 3.041-0.7598l-0.9609-3.359c-0.2 0.04-0.5189 0.1602-0.8789 0.1602-0.64 0-0.9609-0.4802-0.9609-1.16zm10.76 0-4.92 0.5215v25.32c0 3 1.802 4.92 4.682 4.92 1.2 0 2.319-0.3598 3.039-0.7598l-0.9609-3.359c-0.2 0.04-0.5189 0.1602-0.8789 0.1602-0.64 0-0.9609-0.4802-0.9609-1.16zm-45.6 1.961c-5.76 0-10.2 4.52-10.2 14.32 0 9.92 4.239 14.48 10.2 14.48 3.2 0 5.601-1.598 7.121-3.318l-2.441-2.801c-1.24 1.04-2.438 2.039-4.318 2.039-3.12 0-5.201-2.638-5.201-10.4 0-7.96 2.161-10.44 5.121-10.44 1.6 0 2.838 0.6809 4.158 1.881l2.441-2.92c-1.92-1.8-3.961-2.84-6.881-2.84zm92.72 1.76-4.92 0.5996v4.68h-2.48v3.561h2.48v12.32c0 3.48 1.839 5.879 5.639 5.879 1.64 0 3.282-0.5186 4.602-1.559l-1.721-3.041c-0.72 0.4-1.199 0.6406-1.959 0.6406-1.12 0-1.641-0.7199-1.641-1.92v-12.32h3.52l0.4805-3.561h-4zm-75.48 4.721c-5.24 0-8.439 3.879-8.439 11.12 0 7.28 3.199 11.2 8.439 11.2s8.439-4.159 8.439-11.2c0-7.52-3.199-11.12-8.439-11.12zm41.4 0c-5.28 0-8.121 4.438-8.121 11.32 0 6.96 3.042 11 8.602 11 2.84 0 5.039-1.079 6.719-2.719l-2.039-2.801c-1.48 1.2-2.72 1.76-4.4 1.76-2.2 0-3.68-1.239-3.92-5.879h10.92c0.04-0.56 0.1191-1.361 0.1191-2.041 0-7.12-2.999-10.64-7.879-10.64zm19.72 0c-5.16 0-8.521 4.158-8.521 11.32 0 7.4 3.28 11 8.6 11 2.28 0 4.161-0.9594 5.721-2.439l-2.199-2.84c-1.16 0.84-2.041 1.32-3.281 1.32-2.16 0-3.639-1.561-3.639-7.121 0-5.6 1.359-7.439 3.639-7.439 1.24 0 2.241 0.4804 3.361 1.4l2.119-2.801c-1.68-1.64-3.479-2.398-5.799-2.398zm40.32 0c-5.24 0-8.439 3.879-8.439 11.12 0 7.28 3.199 11.2 8.439 11.2s8.441-4.159 8.441-11.2c0-7.52-3.201-11.12-8.441-11.12zm22.76 0c-2.4 0-3.878 1.238-5.238 3.318l-0.3613-2.76h-4.279v21.16h4.92v-14.8c1-1.92 2.12-3.16 3.32-3.16 1.04 0 1.639 0.7598 1.639 2.84v15.12h4.92v-15.68c0-3.68-1.88-6.039-4.92-6.039zm-40.56 0.5586v21.16h4.92v-21.16zm-42.2 2.881c2.16 0 3.041 1.76 3.041 5.76v0.2793h-6.24c0.2-4.68 1.359-6.039 3.199-6.039zm-41.44 0.2793c2.2 0 3.32 1.88 3.32 7.4s-1.12 7.439-3.32 7.439-3.32-1.879-3.32-7.439c0-5.48 1.12-7.4 3.32-7.4zm101.4 0c2.2 0 3.32 1.88 3.32 7.4s-1.12 7.439-3.32 7.439-3.318-1.879-3.318-7.439c0-5.48 1.118-7.4 3.318-7.4z" fill="#fff"/><path d="m93.17 206.4c-0.0769-0.1684-6.474-14.67-14.22-32.23-16.36-37.11-14.34-32.55-14.49-32.55-0.0687-6.9e-4 -1.582 0.6268-3.363 1.395-1.781 0.7677-3.257 1.374-3.281 1.348-0.0235-0.0263-4.044-6.803-8.934-15.06l-8.891-15.01 5.546-5.623 2.579-1.645c5.717-3.647 8.124-5.048 12.07-7.024 15.51-7.77 31.14-11.26 44.79-10.01 2.043 0.1874 6.038 0.7579 7.728 1.103 3.885 0.7945 7.125 2.135 11.19 4.629 4.559 2.8 7.612 5.594 10.22 9.36 2.673 3.854 4.273 7.878 4.841 12.18 0.3514 2.66 0.1972 6.717-0.3564 9.378-0.0894 0.4296-0.1625 0.8533-0.1625 0.9415 0 0.096 0.5631-0.2086 1.404-0.7597 1.594-1.044 4.977-2.757 6.661-3.372 3.998-1.46 8.665-2.162 12.56-1.89 0.9804 0.0686 1.899 0.1538 2.04 0.1894 0.1909 0.0479 0.2579 0.0146 0.2579-0.128 0-0.3107-0.3651-4.127-0.3983-4.163-0.0166-0.018-1.409 0.312-3.094 0.7335-2.042 0.5108-3.089 0.7254-3.139 0.6437-0.0417-0.0674-0.2702-4.24-0.5078-9.273s-0.4584-9.362-0.4905-9.62l-0.0584-0.4703 6.873-3.682 18.15-5.798c9.984-3.189 18.19-5.798 18.24-5.798 0.0508 0 0.0719 1.186 0.0469 2.636-0.025 1.45-0.0341 2.636-0.0203 2.636s0.3061-0.5224 0.6495-1.161l0.6244-1.161 6.685-3.621 11.23 9.963c6.175 5.48 11.26 9.963 11.3 9.963 0.0905 0 5.008-2.629 5.118-2.736 0.0475-0.0463-0.9764-1.338-2.275-2.871-1.862-2.197-2.341-2.828-2.264-2.983 0.0536-0.108 6.223-7.217 13.71-15.8l13.61-15.6 2.721-1.397c1.496-0.7685 2.988-1.547 3.314-1.73l0.5937-0.3324 4.211 6.279c2.316 3.454 5.721 8.528 7.567 11.28l3.356 4.998-10.76 5.777c-5.915 3.177-10.74 5.807-10.72 5.845 0.0221 0.0376 0.6739 0.0989 1.448 0.1362 3.748 0.1806 8.192 1.267 11.75 2.873 2.727 1.231 5.074 2.726 7.579 4.828 0.5839 0.4899 1.081 0.8714 1.104 0.8478 0.0236-0.0236 0.3302-1.796 0.6814-3.939 0.3512-2.143 0.6626-4 0.6921-4.126 0.0379-0.1621 1.014-0.7578 3.333-2.035l3.279-1.805h9.784c8.988 0 9.787-0.0153 9.821-0.1885 0.0224-0.1141 1.368-0.9057 3.409-2.006l3.372-1.817h12.07c9.582 0 12.07 0.0296 12.07 0.1433 0 0.1962 5.387 34.26 5.447 34.44 0.0306 0.0917 0.513-0.1623 1.341-0.7058 4.72-3.099 10.2-4.862 15.77-5.075l1.868-0.0715-0.0564-0.2974c-0.031-0.1636-0.0886-4.321-0.1279-9.238l-0.0716-8.94 6.721-3.59 18.16 4.003c9.99 2.202 18.2 4.041 18.24 4.087 0.0405 0.0466 0.2353 0.905 0.4328 1.908 0.1976 1.003 0.3838 1.848 0.414 1.878s1.151-0.5265 2.491-1.237l2.436-1.292 15.42 3.748c8.48 2.061 15.44 3.771 15.47 3.799 0.0282 0.0282-6.646 20.24-14.83 44.91l-14.88 44.86-6.827 3.606-11.27-3.583c-6.197-1.971-11.31-3.62-11.36-3.665-0.0532-0.0452-0.148-2.061-0.2108-4.479-0.0627-2.418-0.131-4.414-0.1516-4.435-0.0206-0.0209-4.929-0.7396-10.91-1.597-5.978-0.8574-10.89-1.576-10.92-1.597-0.0271-0.0208 0.2424-2.626 0.5988-5.789 0.3564-3.163 0.6329-5.767 0.6146-5.785-0.0184-0.0184-0.4683 0.15-0.9999 0.3742-2.448 1.032-4.542 1.591-7.299 1.948-0.9822 0.127-1.519 0.2442-1.519 0.332 0 0.1685 1.123 7.36 1.202 7.7 0.0515 0.2207-0.2945 0.4408-3.235 2.057-1.811 0.9954-3.395 1.802-3.519 1.793-0.5267-0.0397-32.79-5.792-32.86-5.858-0.0409-0.04-0.2889-1.904-0.5511-4.142-0.2622-2.238-0.5124-4.157-0.5561-4.265-0.0683-0.1683-0.3116-0.0674-1.741 0.7222-0.9141 0.5048-2.083 1.148-2.598 1.428l-0.9355 0.5105-1.758-3.265c-0.9669-1.796-1.793-3.266-1.835-3.267-0.0425-1e-3 -1.312 0.6648-2.821 1.479l-2.743 1.481-14.52-2.323c-7.984-1.277-14.53-2.344-14.55-2.37-0.0202-0.0258 0.415-2.78 0.9672-6.12s0.9887-6.088 0.9701-6.107c-0.0186-0.0186-0.4148 0.1911-0.8804 0.4661-4.208 2.485-8.249 4.073-12.71 4.993l-1.547 0.3192-0.1146 22.22-3.209 1.741c-1.765 0.9576-3.273 1.744-3.35 1.748-0.0772 4e-3 -10.71-5.228-23.63-11.63-12.92-6.399-23.52-11.63-23.56-11.63-0.0354 0-0.0775 3.644-0.0937 8.097l-0.0294 8.097-6.763 3.564-12.84 1.907c-11.31 1.68-12.85 1.886-12.91 1.726-0.0424-0.0996-0.2677-2.347-0.5006-4.995-0.2328-2.648-0.433-4.825-0.4448-4.839-0.0118-0.0139-0.2766 0.1865-0.5884 0.4453-4.196 3.483-8.83 6.039-13.25 7.308-2.783 0.7991-4.92 1.091-7.951 1.087-2.646-4e-3 -4.21-0.1941-6.582-0.8019-6.477-1.66-11.75-5.725-15.59-12.01-0.7827-1.284-0.8581-1.382-0.7072-0.9188 0.0601 0.1844 1.2 4.539 2.532 9.677 1.332 5.138 2.568 9.889 2.745 10.56l0.3226 1.218-6.725 4.51-13.5 4.352c-7.427 2.394-13.56 4.373-13.63 4.398-0.071 0.0253-0.1919-0.0917-0.2688-0.2601zm18.28-15.38c3.97-1.266 7.224-2.312 7.231-2.325 0.0115-0.0187-7.691-29.59-8.761-33.64l-0.3416-1.292 1.567-1.046c5.492-3.666 10.04-7.875 13.54-12.53 4.076-5.423 6.601-11.28 7.233-16.79 0.1982-1.726 0.0797-5.013-0.2337-6.482-0.8873-4.16-3.05-7.937-6.438-11.24-1.612-1.573-3.015-2.62-5.604-4.181-3.878-2.339-6.511-3.202-12.2-4.001-3.657-0.513-5.39-0.616-9.158-0.5446-4.826 0.0915-8.566 0.5538-13.71 1.695-8.78 1.948-19.1 6.133-27.28 11.07-0.9771 0.5892-1.844 1.116-1.926 1.17-0.1126 0.074 1.208 2.392 5.305 9.315 3 5.069 5.492 9.229 5.537 9.244 0.0451 0.0155 1.741-0.7916 3.768-1.794l3.686-1.822 14.76 32.97c8.119 18.13 14.93 33.34 15.14 33.8 0.237 0.5226 0.4303 0.8098 0.5231 0.7772 0.0809-0.0284 3.395-1.088 7.365-2.354zm-7.532-54.41c-1.56-5.027-3.301-10.74-3.868-12.69-0.5677-1.952-1.061-3.639-1.096-3.749-0.0483-0.1522 0.0765-0.271 0.5221-0.4968 1.903-0.9645 4.298-1.671 6.418-1.893 4.731-0.4952 9.282 1.381 11.51 4.744 1.144 1.727 1.616 3.328 1.744 5.917 0.1638 3.306-0.7582 6.346-2.794 9.21-0.8547 1.202-3.311 3.661-4.844 4.848-1.155 0.8944-4.556 3.25-4.691 3.25-0.036-1.1e-4 -1.342-4.114-2.902-9.141zm8.178-2.223c1.127-1.66 1.708-3.458 1.707-5.279-2e-3 -2.808-0.7987-4.249-2.905-5.26-1.255-0.6024-2.498-0.8318-4.012-0.7411-0.6216 0.0372-1.196 0.1058-1.276 0.1523-0.1119 0.0651-0.0331 0.4678 0.342 1.747 0.6698 2.284 3.625 11.84 3.703 11.97 0.0868 0.1479 1.86-1.732 2.442-2.589zm306.7 18.9c6.987-21.17 12.68-38.5 12.66-38.52-0.0855-0.0683-18-3.999-18.03-3.957-0.0186 0.0224-1.858 7.61-4.087 16.86-2.229 9.251-4.081 16.82-4.116 16.82-0.0343 0-1.841-8.438-4.015-18.75s-3.979-18.79-4.01-18.84c-0.1091-0.1633-23.65-4.833-23.73-4.706-0.0915 0.1481-0.3935 6.291-0.3132 6.371 0.0318 0.0318 1.169 0.3527 2.528 0.713 1.358 0.3603 2.5 0.6855 2.537 0.7226 0.0371 0.0371-0.1925 2.79-0.5103 6.117l-0.5779 6.05 1.067 1.102c3.331 3.442 5.512 7.792 6.393 12.75 0.3567 2.008 0.4385 5.668 0.174 7.784-0.4375 3.501-1.421 6.744-3.04 10.02-1.814 3.674-3.769 6.368-6.815 9.391l-1.839 1.826-0.4864 5.102c-0.2675 2.806-0.4726 5.116-0.4557 5.133 0.0469 0.0469 13.75 2.226 13.78 2.191 0.0129-0.017 1.437-8.042 3.164-17.83l3.14-17.8 0.0788 1.641c0.0433 0.9028 0.2903 11.11 0.5488 22.67 0.2585 11.57 0.5068 21.26 0.5516 21.54l0.0816 0.5068 6.247 1.862c3.436 1.024 6.277 1.827 6.314 1.786 0.0368-0.0418 5.784-17.39 12.77-38.56zm-232.1 21.18c3.53-0.4744 6.539-0.89 6.686-0.9235l0.2676-0.061-0.0384-13.98c-0.0211-7.688-0.0254-13.98-0.01-13.98 0.0158 0 12.05 6.009 26.74 13.35l26.71 13.35v-15.1l-0.7667-0.0786c-1.295-0.1327-3.799-0.6254-5.365-1.056-7.258-1.994-13.43-6.337-17.38-12.23-0.4999-0.7459-1.031-1.597-1.181-1.892l-0.2717-0.5362-10.41-4.112c-5.728-2.261-10.45-4.148-10.5-4.193-0.0501-0.0449 4.914-5.354 11.03-11.8 6.118-6.444 11.12-11.76 11.12-11.82 0-0.1477-15.86-15.23-15.95-15.17-0.044 0.0272-3.732 5.183-8.195 11.46-5.343 7.511-8.127 11.33-8.15 11.19-0.0191-0.1215-0.3331-5.23-0.6977-11.35-0.3646-6.123-0.6923-11.16-0.7283-11.2-0.0489-0.0489-22.07 6.433-22.17 6.525-0.0102 0.01 0.0382 1.346 0.1075 2.969 0.0824 1.93 0.1682 2.951 0.2478 2.949 0.067-1e-3 1.463-0.3534 3.102-0.7828 1.639-0.4294 2.992-0.7509 3.006-0.7144 0.014 0.0365 0.4677 5.324 1.008 11.75l0.9826 11.68 0.6539 0.7327c2.026 2.271 3.011 3.711 4.212 6.158 1.801 3.67 2.544 6.769 2.654 11.06 0.14 5.45-1.074 10.52-3.76 15.7l-0.7994 1.542 0.4665 5.622c0.2566 3.092 0.4874 5.683 0.5129 5.757 0.0255 0.0739 0.1398 0.1135 0.254 0.0879 0.1142-0.0256 3.096-0.4346 6.626-0.909zm156.1-1.348c-0.1446-0.9614-0.292-1.914-0.3276-2.117-0.0595-0.34-0.1675-0.4199-1.35-0.9986-3.989-1.953-7.583-5.221-9.865-8.969-1.678-2.755-2.821-5.822-3.41-9.148-0.2254-1.271-0.2644-1.885-0.2661-4.184-2e-3 -3.08 0.1395-4.255 0.8518-7.057 1.12-4.404 3.381-8.882 6.267-12.41 0.4303-0.5262 0.8298-1.023 0.8878-1.104 0.0678-0.0947-0.8014-6.048-2.438-16.69-1.399-9.101-2.542-16.59-2.541-16.63 1e-3 -0.0473-2.782-0.086-6.185-0.086h-6.187l-0.0604 0.2579c-0.0332 0.1418-1.118 6.238-2.412 13.55-1.293 7.309-2.376 13.31-2.406 13.34-0.0302 0.0302-0.055-9e-3 -0.055-0.0865 0-0.1338-3.878-21.4-4.136-22.68l-0.1212-0.6018h-8.646c-4.755 0-8.646 0.0284-8.646 0.0632 0 0.0862-5.608 33.53-5.664 33.78-0.0319 0.1414 0.7291 0.8882 2.628 2.579 1.47 1.309 2.664 2.418 2.654 2.464-0.0106 0.0462-1.677 1.777-3.703 3.846l-3.684 3.762-2.399 14.25 0.2984 0.0627c0.7415 0.1558 16.79 2.923 16.81 2.898 0.0131-0.015 0.8827-5.469 1.932-12.12 2.261-14.33 2.135-13.57 2.238-13.45 0.0452 0.0525 2.37 5.036 5.166 11.08 3.002 6.484 5.117 10.92 5.165 10.83 0.0629-0.1144 6.066-15.58 6.635-17.1 0.0684-0.1821 0.1423-0.311 0.1641-0.2866 0.0218 0.0245 1.115 7.178 2.429 15.9 1.314 8.718 2.424 15.91 2.468 15.98 0.0678 0.1097 17.06 2.803 17.87 2.832l0.2943 0.0107-0.2629-1.748zm-190.6 1.169c6.261-0.6799 12.07-3.536 16.76-8.239 1.757-1.762 2.968-3.26 4.185-5.18 3.696-5.83 5.07-12.5 3.83-18.58-0.8267-4.057-2.989-7.867-5.923-10.44-6.445-5.643-16.18-6.445-24.96-2.057-8.354 4.174-14.51 12.54-15.82 21.51-0.24 1.638-0.2403 4.581-6.8e-4 6.195 0.8534 5.748 3.811 10.57 8.354 13.61 3.761 2.519 8.807 3.703 13.57 3.186zm1.664-20.22c-2.593-0.4931-4.671-1.609-6.468-3.473-2.098-2.177-3.037-4.545-3.009-7.597 0.0118-1.315 0.0593-1.699 0.3162-2.556 0.5428-1.81 1.416-3.27 2.759-4.613 1.425-1.425 3.343-2.512 5.454-3.092 1.207-0.3316 3.454-0.4966 4.647-0.3413l0.6788 0.0884-0.8023 0.162c-2.352 0.4747-4.352 2.111-5.177 4.234-0.4221 1.087-0.4472 2.716-0.0592 3.846 0.3329 0.9689 1.226 2.247 2 2.862 1.265 1.005 3.271 1.703 4.898 1.703 2.213 0 4.66-1.136 5.872-2.726 0.992-1.301 1.498-3.08 1.262-4.439-0.0656-0.3778-0.1034-0.7038-0.084-0.7243 0.0195-0.0205 0.222 0.2964 0.4502 0.7044 1.05 1.877 1.383 3.297 1.293 5.513-0.0697 1.725-0.307 2.706-1.006 4.157-1.451 3.014-4.194 5.179-7.766 6.129-1.147 0.3053-4.04 0.3948-5.26 0.1628zm202.4 12.26c11.84-2.009 21.45-12.05 22.69-23.7 0.3932-3.685-0.3165-7.733-1.915-10.92-1.656-3.304-4.707-6.309-8.053-7.93-2.764-1.34-5.627-1.978-8.886-1.982-2.821-3e-3 -4.978 0.3487-7.791 1.272-9.345 3.067-16.88 11.78-18.39 21.25-0.3195 2.009-0.3837 3.372-0.2352 4.986 0.8652 9.408 7.238 16.02 16.58 17.19 1.152 0.1453 4.736 0.0434 5.996-0.1704zm-0.8402-18.12c-5.31-1.003-9.17-5.163-9.535-10.28-0.2068-2.894 0.7742-5.553 2.855-7.737 2.154-2.261 4.916-3.512 8.1-3.669 1.399-0.0688 3.129 0.0397 3.036 0.1904-0.0305 0.0493-0.3199 0.1248-0.6432 0.1676-1.345 0.1784-2.916 1.007-3.95 2.083-1.086 1.13-1.657 2.549-1.657 4.116 0 2.845 1.92 5.185 5.043 6.147 1.015 0.3124 2.976 0.3692 4.012 0.1162 2.541-0.6208 4.68-2.668 5.169-4.945 0.0718-0.335 0.1079-1.043 0.0801-1.572l-0.0506-0.9633 0.3737 0.6594c0.2056 0.3627 0.539 1.153 0.741 1.755 0.3145 0.9384 0.3755 1.308 0.4242 2.572 0.0361 0.937 4e-3 1.772-0.0879 2.286-0.7656 4.284-4.039 7.711-8.47 8.868-1.411 0.3685-4.044 0.4668-5.44 0.2033zm-100.5 1.837c1.884-0.2561 3.901-0.6793 6.015-1.262 7.948-2.191 13.76-5.436 19.3-10.78l0.9615-0.9264-5.663-5.094c-3.115-2.802-5.741-5.155-5.836-5.23-0.1439-0.1134-0.3253 0.0368-1.087 0.9003-3.286 3.727-7.191 5.825-12.22 6.564-1.285 0.189-3.309 0.2425-3.309 0.0875 0-0.0504 4.977-5.39 11.06-11.87 6.083-6.475 11.06-11.82 11.06-11.88 0-0.1912-2.659-2.871-3.606-3.634-2.874-2.317-6.257-4.001-9.868-4.915-2.19-0.554-3.623-0.7471-6.085-0.8198-12.06-0.3562-23.37 5.867-27.89 15.35-1.611 3.381-2.297 6.455-2.297 10.29 0 3.932 0.7119 7.316 2.194 10.43 2.619 5.502 7.294 9.481 13.61 11.59 1.797 0.5985 3.878 1.061 5.627 1.251 0.5989 0.065 1.269 0.1396 1.49 0.1656 0.8464 0.1 5.276-0.0493 6.533-0.2202zm-12.23-16.22c-2.08-1.719-3.528-4.021-4.25-6.759-0.3808-1.444-0.4324-4.108-0.1088-5.622 1.052-4.923 5-8.851 9.897-9.85 1.297-0.2643 3.366-0.3167 4.623-0.117 2.473 0.3927 5.264 1.824 6.961 3.569l0.485 0.4988-8.142 9.225c-4.478 5.074-8.255 9.339-8.394 9.479l-0.2516 0.2542zm6.222-11.87c2.64-3.01 4.792-5.503 4.784-5.54-8e-3 -0.0376-0.318-0.1672-0.6877-0.288-1.049-0.3427-3.368-0.3275-4.512 0.0297-3.195 0.9977-5.393 3.589-5.845 6.893-0.1891 1.381 0.0481 2.999 0.6328 4.315l0.2994 0.6738 0.2647-0.3053c0.1456-0.1679 2.424-2.768 5.064-5.777zm-29.75 10.94c-0.3977-1.818-0.6552-5.804-0.5036-7.796l0.0928-1.219-0.2472 0.1945c-0.136 0.107-1.701 1.612-3.478 3.344l-3.23 3.15 3.706 1.436c2.038 0.7898 3.72 1.426 3.738 1.414 0.0179-0.0118-0.0169-0.2476-0.0774-0.5239zm38.64-46.53c6.036-2.988 10.97-5.469 10.97-5.514 0-0.1059-7.791-10.69-7.899-10.73-0.067-0.0254-15.75 18.76-16.27 19.48-0.1357 0.1904-0.0672 0.3489 0.6102 1.412l0.7631 1.197 0.4213-0.2075c0.2317-0.1141 5.36-2.652 11.4-5.64z" fill="#fff" stroke-width=".1146"/></svg>
