<svg width="480" height="320" version="1.1" viewBox="0 0 127 84.667" xmlns="http://www.w3.org/2000/svg" xmlns:xlink="http://www.w3.org/1999/xlink">
 <defs>
  <linearGradient id="a" x1="23.947" x2="116.42" y1="-9.6165" y2="117.14" gradientUnits="userSpaceOnUse">
   <stop stop-color="#f9c440" offset="0"/>
   <stop stop-color="#d48e15" offset=".55816"/>
   <stop stop-color="#cc3b02" offset="1"/>
  </linearGradient>
 </defs>
 <g stroke-linejoin="round">
  <rect width="127" height="84.667" ry="4.2333" fill="url(#a)" stroke-linecap="square" stroke-width=".52917" style="paint-order:stroke fill markers"/>
  <path d="m42.255 35.121-3.6631 2.349-0.04775 0.02284 1.0224 1.4449 3.8863-2.3251zm-13.052 1.0733v13.35h2.705v-4.4624l2.0926 4.4624h2.8898l-2.8898-5.3613 2.8898-4.2268h-2.8898l-2.0926 3.5292v-7.291zm-18.62 0.73698v12.606h2.9895v-4.451h2.3251s3.0061-0.2495 3.0061-2.6905v-2.4414s-0.01888-3.0227-3.0061-3.0227c-2.9575 0-5.3017 0.0422-5.3146 0zm2.9895 2.4414c0.0042 0.0011 1.1199 0 1.5944 0 0.81854 0.24221 0.73076 1.0795 0.73076 1.0795v1.0629c0 0.88379-0.73076 1.0629-0.73076 1.0629h-1.5944zm9.9649 0.58128c-0.82651-0.0016-4.1354 0.26157-4.1354 4.7665 0 5.1485 4.3181 4.8163 4.3181 4.8163s4.2185-0.04395 4.2185-4.8163c0-4.7724-4.171-4.7631-4.2185-4.7665 0 0-0.06462 2.29e-4 -0.18269 0zm17.721 0c-3.19 0-3.9195 2.4352-3.9195 4.7665s1.4109 4.8163 4.1354 4.8163c2.7245 0 2.9728-0.54807 2.9728-0.54807v-1.611c-0.01928-6e-3 -2.2303 0-3.4047 0-1.1744 0-0.94666-1.5778-0.94666-1.5778h5.0655v-1.7605s0.0011-4.0856-3.9029-4.0856zm5.2482 0.0021v9.5881h2.3916v-5.5108s0.09965-1.4491 1.3286-1.4491c1.229 0 1.229 1.4491 1.229 1.4491v5.5108h2.2587v-5.5108s0.0498-1.4491 1.2788-1.4491c1.229 0 1.229 1.4491 1.229 1.4491v5.5108h2.3417v-6.9598s0.16608-2.6282-2.3417-2.6282c-2.1561 0-2.4571 1.1529-2.4995 1.4771 0.01874-0.3241-0.06797-1.4771-2.267-1.4771-1.9646 0-2.4198 0.92162-2.5255 1.3494 0.04323-0.42724 0.0146-1.3494-1.0453-1.3494zm23.401 0v9.5881h2.6075v-5.5108s-0.06643-1.4491 1.3785-1.4491c1.4449 0 1.4449 1.4491 1.4449 1.4491v5.5108h2.4248v-6.9598s0.01667-2.6282-2.4248-2.6282c-2.4414 0-2.8234 1.5632-2.8234 1.5632s0.23251-1.5632-0.73076-1.5632zm14.062 0c-0.99822 0.07718-1.0224 1.0214-1.0224 1.0214v8.0124c0 0.51675 0.49409 0.5543 0.49409 0.5543h1.6203c0.54021 0 0.53976-0.5543 0.53976-0.5543v-4.9565c0-0.69516 0.5408-0.63318 0.5408-0.63318h1.5269c0.7281 0 0.56363 0.63318 0.56363 0.63318v4.9565c0 0.58716 0.58648 0.5543 0.58648 0.5543h1.5269c0.46975 0 0.53976-0.5543 0.53976-0.5543v-4.9565c0-0.69516 0.5408-0.63318 0.5408-0.63318h1.6203c0.46973 0 0.51692 0.63318 0.51692 0.63318v4.9565c0 0.54018 0.53977 0.5543 0.53977 0.5543h1.6214c0.54023 0 0.51693-0.5543 0.51693-0.5543v-8.0124c0-1.0629-1.0806-1.0214-1.0806-1.0214zm-19.775 0.0031c-0.82652-0.0016-4.1354 0.26158-4.1354 4.7665 0 5.1485 4.3181 4.8163 4.3181 4.8163s4.2185-0.04395 4.2185-4.8163c0-4.7724-4.171-4.7631-4.2185-4.7665 0 0-0.06462 2.29e-4 -0.18269 0zm35.192 0.48683c-0.53836 0.01609-0.53769 0.53146-0.53769 0.53146v1.6068c0 0.54392 0.55533 0.53457 0.55533 0.53457 0.0166-7e-3 0.52316 0 1.0795 0 0.55636 0 0.5024-0.53457 0.5024-0.53457v-1.6068c0-0.5421-0.5107-0.53146-0.5107-0.53146h-1.0629c-9e-3 0-0.0174-2.56e-4 -0.026 0zm5.3322 0s-1.0795 0.0085-1.0795 1.0733c0 1.0647 0.0498 7.5291 0 7.4705 0 0 0.0167 0.5543 0.54807 0.5543h1.5612s0.54806-0.0316 0.54806-0.5543v-4.9565s0.0167-0.63318 0.53146-0.63318h1.5944s0.54807-0.06198 0.54807 0.63318v4.9565s-0.0332 0.5543 0.53146 0.5543h1.0795s0.49825-0.0316 0.49825-0.5543v-7.4705s-0.0167-1.0733-1.0629-1.0733zm10.097 0c-0.53836 0.01609-0.53665 0.53146-0.53665 0.53146v1.6068c0 0.54392 0.5543 0.53457 0.5543 0.53457 0.0166-7e-3 0.52315 0 1.0795 0s0.50344-0.53457 0.50344-0.53457v-1.6068c0-0.5421-0.51174-0.53146-0.51174-0.53146h-1.0629c-9e-3 0-0.0174-2.56e-4 -0.0259 0zm-73.374 1.6006c1.3476 0 1.3619 0.53146 1.3619 0.53146v1.4615h-2.7071v-1.4615s-0.0022-0.53146 1.3453-0.53146zm-17.654 0.34358c0.29564-0.01248 1.4781 0.07786 1.4781 2.3303 0 2.3844-1.5446 2.1258-1.5446 2.1258s-1.611 0.01828-1.611-2.1258c0-2.5831 1.611-2.2952 1.611-2.3251 0 0 0.0242-0.0034 0.06643-0.0052zm40.732 0.0042c0.38237 0.01186 1.4023 0.23979 1.4023 2.3314 0 2.3844-1.5446 2.1258-1.5446 2.1258s-1.611 0.01828-1.611-2.1258c0-2.5831 1.611-2.2952 1.611-2.3251 0 0 0.05397-9e-3 0.14221-0.0062zm35.969 2.3334c-0.0142-1.1e-5 -0.0218 1e-3 -0.0218 1e-3 -0.0332 0.01888-0.53146 0-1.0629 0-0.53147 0-0.55533 0.51277-0.55533 0.51277v3.7482c0 0.53937 0.53873 0.5543 0.53873 0.5543h1.0961c0.44842 0 0.5024-0.5543 0.5024-0.5543v-3.7482c0-0.48321-0.3978-0.51376-0.49721-0.51381zm15.43 0c-0.0142-1.1e-5 -0.0228 1e-3 -0.0228 1e-3 -0.0332 0.01888-0.53146 0-1.0629 0-0.53148 0-0.5543 0.51277-0.5543 0.51277v3.7482c0 0.53937 0.53769 0.5543 0.53769 0.5543h1.0961c0.44842 0 0.50344-0.5543 0.50344-0.5543v-3.7482c0-0.48321-0.3978-0.51376-0.49721-0.51381z" fill="#fafafa" stroke-linecap="round" stroke-width="4.2517" style="paint-order:stroke markers fill"/>
 </g>
 <style type="text/css">.st0{fill:#FC0C18;}
	.st1{fill:#FC0C18;}</style>
</svg>
