<svg width="480" height="320" version="1.1" viewBox="0 0 480 320" xmlns="http://www.w3.org/2000/svg"><defs><linearGradient id="a" x1="61.81" x2="16.56" y1="-53.81" y2="71.44" gradientTransform="scale(3.78)" gradientUnits="userSpaceOnUse"><stop stop-color="#485a6c" offset="0"/><stop stop-color="#3a4654" offset=".651"/><stop stop-color="#1a1a1a" offset="1"/></linearGradient></defs><rect width="480" height="320" ry="24" fill="url(#a)"/><path d="m70 140v18h7.971v8h12.03v-8h8v-19.99h-12v7.994h-4v-8h-12v2z" fill="#d35f5f" fill-opacity=".9996" fill-rule="evenodd"/><path d="m104 124-64 0.00195v72l24-0.00781v-15.99h32v-8h16v-40h-8v-8zm25.97 0v8h-7.971v56h7.971v7.996l64.03 0.00391v-64h-8.029v-8h-56zm74.03 0v72l23.97 0.00391v-16h8v8h8v8h32l0.0293-15.99-24.03-0.00586v-8h24v-40h-8v-8h-63.97zm90 0v8h-8v24h24v40h24v-40h24v-32h-64zm82 0v8h-8v40h48v8h-48v16h64v-8h8v-24h-48v-8h48v-32h-64zm-280 16v15.99l-8 0.00586v8h-8v-8h-8v-15.99h8v7.994h8v-7.994l8-0.00586zm140 0h8v8h8v-8h8v16h-8v8h-8v-8h-8v-16zm-90 8h8v8h8v-8h8v16h-8v8h-8v-8h-8v-16z" fill="#fff" stroke-width=".9812"/></svg>
