<svg width="480" height="320" version="1.1" viewBox="0 0 127 84.667" xmlns="http://www.w3.org/2000/svg" xmlns:xlink="http://www.w3.org/1999/xlink">
 <defs>
  <linearGradient id="a" x1="-13.026" x2="88.843" y1="-31.105" y2="105.24" gradientUnits="userSpaceOnUse">
   <stop stop-color="#28bca3" offset="0"/>
   <stop stop-color="#485a6c" offset=".41998"/>
   <stop stop-color="#3a4654" offset=".65095"/>
   <stop stop-color="#1a1a1a" offset="1"/>
  </linearGradient>
 </defs>
 <rect width="127" height="84.667" ry="4.2333" fill="url(#a)" stroke-linecap="square" stroke-linejoin="round" stroke-width=".52917" style="paint-order:stroke fill markers"/>
 <g transform="matrix(.14951 0 0 .14951 10.931 -46.192)" fill="#fff">
  <path class="ps02" d="m126.59 691.63c6.6574 0 10.652-1.3558 10.652-7.6862 0-4.6844-2.9052-7.19-9.5625-7.19h-9.1993v14.876zm-11.62 19.549v-37.439h13.678c9.6834 0 12.225 4.8418 12.225 10.458 0 8.3641-7.5047 10.446-14.404 10.446h-7.9889v16.535h-3.5102"/>
  <path class="ps02" d="m145.59 711.18h3.0261v-37.439h-3.0261z"/>
  <path class="ps02" d="m174.04 697.03c-2.6629 1.0894-5.4469 1.3072-8.1099 1.5131-4.7207 0.36313-7.6257 2.082-7.6257 5.7132 0 3.2924 2.905 4.8418 5.81 4.8418 4.9628 0 9.9256-2.3967 9.9256-7.8558zm-5.3259-1.5494c1.2105-0.10887 3.1472-0.42359 4.1155-0.89566 1.0893-0.46 1.2104-1.8641 1.2104-2.7962 0-3.1713-1.9366-5.459-6.7784-5.459-4.2365 0-7.2626 1.4041-7.8678 6.0764h-3.1471c0.48415-6.3427 5.2048-8.8967 11.136-8.8967 5.447 0 9.6834 2.1424 9.6834 8.3762v14.658c0 2.4451 0.72626 3.0141 3.2682 2.082v2.445c-0.36306 0.15736-1.4525 0.52052-2.4209 0.52052-0.48411 0-0.84731-0.0485-1.3314-0.15741-2.1788-0.30252-2.542-2.1304-2.542-4.0065-2.5418 2.9172-6.1732 4.4786-10.047 4.4786-4.7206 0-8.9572-2.554-8.9572-7.7468 0-4.5149 3.1472-7.2747 9.4414-8.1099l4.2365-0.56898"/>
  <path class="ps02" d="m184.81 718.51c0.84732 0.15738 1.6946 0.32686 2.5419 0.32686 3.6313 0 4.1154-5.108 5.3259-7.4442l-10.531-27.138h3.5102l8.7152 23.144 8.594-23.144h3.3892l-10.047 26.569c-2.5419 6.7542-4.2365 10.967-8.5941 10.967-1.0894 0-2.0577-0.15741-2.905-0.36316v-2.9172"/>
  <path class="ps02" d="m213.74 700c0.60521 6.7058 4.9629 9.1509 10.773 9.1509 6.6574 0 9.4414-3.6313 9.4414-7.7468 0-11.596-22.756-3.8976-22.756-18.604 0-5.2048 4.2366-10.034 12.71-10.034 8.352 0 12.588 5.0838 12.467 11.184h-3.2681c0-5.7254-4.4786-8.1705-9.1994-8.1705-7.2627 0-9.8045 4.4182-9.1993 8.2673 1.5736 9.6594 22.877 2.6994 22.877 17.2 0 6.8753-5.0839 10.918-13.678 10.918-7.8679 0-13.678-4.0429-13.678-12.165h3.5102"/>
  <path class="ps02" d="m253.81 711.28c-0.72636 0.15728-2.0578 0.62938-3.6314 0.62938-3.026 0-4.7207-1.3556-4.7207-5.3623v-19.706h-3.8733v-2.5904h3.8733v-7.4925h3.1471v7.4925h4.9629v2.5904h-4.9629v18.459c0 2.663 0 3.8008 2.663 3.8008 0.84733 0 1.6946-0.1574 2.5419-0.36316v2.542"/>
  <path class="ps02" d="m277.17 697.03c-2.663 1.0894-5.3259 1.3072-7.9889 1.5131-4.7206 0.36313-7.6257 2.082-7.6257 5.7132 0 3.2924 2.9051 4.8418 5.8101 4.8418 4.9627 0 9.8045-2.3967 9.8045-7.8558zm-5.2048-1.5494c1.0893-0.10887 3.0261-0.42359 4.1154-0.89566 0.96837-0.46 1.0894-1.8641 1.0894-2.7962 0-3.1713-1.8157-5.459-6.6574-5.459-4.3576 0-7.2627 1.4041-7.8679 6.0764h-3.1472c0.48417-6.3427 5.2049-8.8967 11.015-8.8967 5.4469 0 9.8045 2.1424 9.8045 8.3762v14.658c0 2.4451 0.60521 3.0141 3.2682 2.082v2.445c-0.48415 0.15736-1.5736 0.52052-2.4208 0.52052-0.48426 0-0.96841-0.0485-1.4526-0.15741-2.0577-0.30252-2.4208-2.1304-2.4208-4.0065-2.663 2.9172-6.1732 4.4786-10.047 4.4786-4.7207 0-9.0782-2.554-9.0782-7.7468 0-4.5149 3.1471-7.2747 9.4413-8.1099l4.3577-0.56898"/>
  <path class="ps02" d="m298.71 711.28c-0.72636 0.15728-2.0578 0.62938-3.6314 0.62938-3.0261 0-4.7207-1.3556-4.7207-5.3623v-19.706h-3.7524v-2.5904h3.7524v-7.4925h3.1471v7.4925h4.9628v2.5904h-4.9628v18.459c0 2.663 0 3.8008 2.663 3.8008 0.84736 0 1.6947-0.1574 2.542-0.36316v2.542"/>
  <path class="ps02" d="m308.03 711.18h-3.026v-26.932h3.026zm-3.2681-32.815v-4.6238h3.5103v4.6238h-3.5103"/>
  <path class="ps02" d="m326.43 686.33c-6.5363 0-9.0783 5.5559-9.0783 11.378 0 6.7058 3.1472 11.39 9.0783 11.39 6.5364 0 9.1993-5.6165 9.1993-11.39 0-6.3427-2.5419-11.378-9.1993-11.378zm-12.468 11.378c0-7.8436 4.2366-14.198 12.468-14.198 8.473 0 12.589 6.2942 12.589 14.198 0 8.5336-4.9628 14.198-12.589 14.198-6.7784-0.10894-12.468-4.7812-12.468-14.198"/>
  <path class="ps02" d="m346.53 711.18h-3.1472v-26.932h3.1472v3.7403c2.4209-2.6509 4.9627-4.4786 8.594-4.4786 3.3892 0 6.2943 1.0409 8.231 3.8491 1.3315 1.9368 1.4525 3.9581 1.4525 6.1854v17.636h-3.1471v-17.575c0-4.8296-2.0578-7.2747-7.0206-7.2747-3.8734 0-6.5363 2.4935-7.5046 5.2412-0.60521 1.7188-0.60521 3.2319-0.60521 5.108v14.501"/>
  <path class="ps02" d="m377.03 702.43c-0.36316-0.16953-0.84733-0.25429-1.5736-0.25429h-0.96837v2.4936h1.0895c0.4841 0 0.96825-0.0485 1.2104-0.14524 0.48417-0.19374 0.72627-0.55685 0.72627-1.0895 0-0.49627-0.2421-0.83514-0.48415-1.0046zm-1.3315-1.1015c0.8473 0 1.4525 0.0726 1.9367 0.24205 0.72625 0.30261 0.96834 0.8836 0.96834 1.7672 0 0.61738-0.12103 1.0652-0.60525 1.3558-0.24205 0.15728-0.60521 0.26634-0.9683 0.33893 0.48415 0.0847 0.84735 0.32679 1.0894 0.69002 0.2421 0.37521 0.36316 0.73825 0.36316 1.0893v0.50844c0 0.16941 0 0.35104 0.12103 0.52045v0.37521 0.0848h-1.0894v-0.0605-0.0969l-0.12106-0.21781v-0.55686c0-0.82313-0.2421-1.3556-0.60521-1.6099-0.2421-0.15729-0.72625-0.22993-1.3314-0.22993h-0.96837v2.7719h-1.2104v-6.9721zm-3.7524-0.36316c-1.0893 1.0651-1.5736 2.3604-1.5736 3.8612 0 1.5372 0.48426 2.8325 1.5736 3.8976 1.0894 1.0773 2.2998 1.6099 3.8734 1.6099 1.5736 0 2.784-0.53261 3.8734-1.6099 1.0894-1.0651 1.5736-2.3604 1.5736-3.8976 0-1.5009-0.48417-2.7961-1.5736-3.8612-1.0894-1.0651-2.2998-1.5978-3.8734-1.5978-1.5736 0-2.784 0.53261-3.8734 1.5978zm8.352 8.352c-1.2104 1.2347-2.784 1.8641-4.4786 1.8641-1.6946 0-3.2681-0.62938-4.4786-1.8641-1.2104-1.2346-1.8156-2.7356-1.8156-4.4907 0-1.7309 0.60521-3.2318 1.8156-4.4544 1.2105-1.2468 2.784-1.852 4.4786-1.852 1.6946 0 3.2682 0.60521 4.4786 1.852 1.2105 1.2105 1.8157 2.7114 1.8157 4.4544 0 1.7552-0.60521 3.2561-1.8157 4.4907"/>
  <path class="ps02" d="m403.42 691.63c6.6573 0 10.773-1.3558 10.773-7.6862 0-4.6844-3.026-7.19-9.6834-7.19h-9.1993v14.876zm-11.62 19.549v-37.439h13.678c9.6836 0 12.225 4.8418 12.225 10.458 0 8.3641-7.3837 10.446-14.404 10.446h-7.9888v16.535h-3.5104"/>
  <path class="ps02" d="m431.62 686.33c-6.5363 0-9.1993 5.5559-9.1993 11.378 0 6.7058 3.2682 11.39 9.1993 11.39 6.5363 0 9.1993-5.6165 9.1993-11.39-0.12106-6.3427-2.542-11.378-9.1993-11.378zm-12.468 11.378c0-7.8436 4.1155-14.198 12.468-14.198 8.4731 0 12.468 6.2942 12.468 14.198 0 8.5336-4.9628 14.198-12.468 14.198-6.8995-0.10894-12.468-4.7812-12.468-14.198"/>
  <path class="ps02" d="m451.83 711.18h-3.1471v-26.932h3.1471v5.0476h0.12104c1.6946-4.3213 4.2366-5.7859 8.7152-5.7859v3.3892c-7.0206-0.15729-8.8362 5.0354-8.8362 11.063v13.218"/>
  <path class="ps02" d="m478.1 711.28c-0.72625 0.15728-2.0577 0.62938-3.5103 0.62938-3.1471 0-4.8417-1.3556-4.8417-5.3623v-19.706h-3.7523v-2.5904h3.7523v-7.4925h3.1472v7.4925h5.0838v2.5904h-5.0838v18.459c0 2.663 0.12111 3.8008 2.663 3.8008 0.8473 0 1.8157-0.1574 2.5419-0.36316v2.542"/>
  <path class="ps02" d="m500.49 697.03c-2.6629 1.0894-5.3259 1.3072-7.9888 1.5131-4.7207 0.36313-7.6257 2.082-7.6257 5.7132 0 3.2924 2.905 4.8418 5.81 4.8418 4.9628 0 9.8045-2.3967 9.8045-7.8558zm-5.2048-1.5494c1.0894-0.10887 3.0261-0.42359 4.1155-0.89566 0.96836-0.46 1.0893-1.8641 1.0893-2.7962 0-3.1713-1.8156-5.459-6.6574-5.459-4.3576 0-7.2626 1.4041-7.8678 6.0764h-3.1472c0.48414-6.3427 5.2048-8.8967 11.015-8.8967 5.447 0 9.8045 2.1424 9.8045 8.3762v14.658c0 2.4451 0.6053 3.0141 3.2682 2.082v2.445c-0.4841 0.15736-1.5736 0.52052-2.4209 0.52052-0.4841 0-0.96837-0.0485-1.4525-0.15741-2.0577-0.30252-2.4209-2.1304-2.4209-4.0065-2.6629 2.9172-6.1732 4.4786-10.046 4.4786-4.7207 0-9.0784-2.554-9.0784-7.7468 0-4.5149 3.1472-7.2747 9.4414-8.1099l4.3576-0.56898"/>
  <path class="ps02" d="m525.19 709.1c5.2049 0 9.0783-3.8008 9.1993-10.555 0.2421-6.7543-2.784-12.213-9.1993-12.213-5.689 0-9.0782 5.1927-9.0782 11.269 0 6.5121 3.1472 11.499 9.0782 11.499zm-9.0782 2.0819h-3.1471v-37.439h3.1471v14.816c1.9366-3.2681 5.81-5.0474 9.5624-5.0474 8.231 0 11.983 6.7179 11.983 14.259 0 7.9405-3.3892 14.138-12.104 14.138-3.5104 0-7.5048-1.9246-9.4414-5.459v4.7328"/>
  <path class="ps02" d="m544.55 711.18h3.147v-37.439h-3.147z"/>
  <path class="ps02" d="m574.81 695.83c0-5.2412-2.905-9.5019-8.4731-9.5019s-8.473 4.418-9.0782 9.5019zm-17.551 2.6145c0 5.8101 3.1472 10.652 9.0782 10.652 3.9945 0 7.2626-2.2394 8.1099-6.1854h3.5103c-1.5736 5.0838-4.7207 8.9935-11.62 8.9935-8.5941 0-12.346-6.1369-12.346-14.089 0-7.8558 4.5997-14.307 12.346-14.307 7.3837 0 11.862 5.2654 11.862 14.937h-20.94"/>
  <path class="ps02" d="m-2.3223 490.73h220.54v65.4h-211.83v56.685h-8.7152v-65.4h211.83v-47.97h-211.83v-8.7151"/>
  <path class="ps02" d="m493.71 556.13v56.685h-8.7151v-65.4h211.83v-47.97h-211.83v-8.7151h220.54v65.4h-211.83"/>
  <path class="ps02" d="m330.67 490.73v113.37h-112.45v8.7152h121.65v-113.37h112.45v-8.7151h-121.65"/>
  <path class="ps02" d="m678.67 598.28v1.6465h4.7207v12.904h1.9375v-12.904h4.7207v-1.6465zm13.193 0v14.551h1.9375v-11.814l3.9941 11.814h1.9375l3.873-11.814v11.814h1.9356v-14.551h-2.6621l-4.2363 12.371-4.1152-12.371z"/>
 </g>
 <style type="text/css">.st0{fill:#FC0C18;}
	.st1{fill:#FC0C18;}</style>
</svg>
