<svg width="480" height="320" version="1.1" viewBox="0 0 480 320" xml:space="preserve" xmlns="http://www.w3.org/2000/svg"><defs><linearGradient id="a" x1="-13.03" x2="88.84" y1="-31.1" y2="105.2" gradientTransform="scale(3.78)" gradientUnits="userSpaceOnUse"><stop stop-color="#28bca3" offset="0"/><stop stop-color="#485a6c" offset=".5635"/><stop stop-color="#1a1a1a" offset="1"/></linearGradient></defs><rect width="480" height="320" ry="24" fill="url(#a)"/><path d="m40 105.7v6.971h117.3v23.73h-117.3v37.72h6.961v-30.79h117.3v-37.62zm187.6 0v61.49h-63.28v6.928h70.49v-61.44h63.2v-6.971zm88.15 0v6.971h117.4v23.73h-117.4v37.72h6.961v-30.79h117.3v-37.62zm-145.8 102.6c-3.532 0-7.271 1.876-7.271 5.846 0 2.073 1.01 4.105 4.459 4.99 2.699 0.771 4.469 1.135 5.865 1.666 0.844 0.3126 1.605 0.9273 1.605 2.49 0 1.511-1.073 2.949-4.137 2.949-2.782 0-5.021-1.156-5.021-4.209h-3.533c0.0938 4.876 3.804 7.096 8.326 7.096 3.939 0 7.865-1.804 7.865-6.242 0-2.084-1.271-4.334-3.865-5.043-1.011-0.2918-5.407-1.468-5.73-1.541-1.344-0.3959-2.303-1.168-2.303-2.605 0-2.021 1.959-2.531 3.615-2.531 2.376 0 4.107 0.8756 4.273 3.48h3.447c0-4.136-3.449-6.346-7.596-6.346zm-60.64 0.4688v19.88h3.49v-7.637h5.314c5.658 0.0312 6.762-3.605 6.762-6.096 0-2.511-1.104-6.146-6.762-6.146zm17.61 0v19.88h3.199v-19.88zm88.4 0v2.98h3.156v-2.98zm48.29 0v19.88h3.521v-7.637h5.273c5.679 0.0312 6.783-3.605 6.783-6.096 0-2.511-1.105-6.146-6.783-6.146zm69.55 0v19.87h3.055v-1.979h0.0723c0.9586 1.907 3.001 2.365 4.949 2.365 4.272 0 6.209-3.647 6.209-7.502 0-4.189-2.177-7.68-6.73-7.68-1.636 0-3.396 0.8746-4.281 2.281h-0.0527v-7.355zm16.7 0v19.88h3.146v-19.88zm-168.3 1.188v4.271h-2.322v2.418h2.322v8.48c0.0729 2.376 0.6977 3.658 4.021 3.658 0.7189 0 1.396-0.1159 2.115-0.168v-2.469c-0.448 0.0938-0.9152 0.0937-1.363 0.0937-1.448 0-1.543-0.6878-1.543-1.928v-7.678h2.906v-2.408h-2.906v-4.271zm24.96 0v4.271h-2.428v2.418h2.428v8.48c0.0625 2.376 0.6867 3.658 3.938 3.658 0.7189 0 1.398-0.1159 2.096-0.168v-2.469c-0.448 0.0938-0.8768 0.0937-1.377 0.0937-1.396 0-1.51-0.6878-1.51-1.928v-7.678h2.887v-2.408h-2.887v-4.271zm102.8 0v4.271h-2.365v2.418h2.365v8.48c0.0521 2.376 0.6886 3.658 3.939 3.658 0.6981 0 1.375-0.1159 2.094-0.168v-2.469c-0.4376 0.0938-0.8749 0.0937-1.344 0.0937-1.438 0-1.562-0.6878-1.562-1.928v-7.678h2.906v-2.408h-2.906v-4.271zm-196.5 1.625h5.158c1.823 0 3.387 0.6679 3.387 3.314 0 2.532-1.897 3.303-3.439 3.303h-5.105zm154.4 0h5.127c1.875 0 3.469 0.6679 3.469 3.314 0 2.532-1.948 3.303-3.531 3.303h-5.064zm-127.2 2.262c-3.167 0-6.346 1.104-6.564 4.771h3.178c0.125-1.5 1.397-2.24 3.199-2.24 1.229 0 2.938 0.3023 2.938 1.928 0 1.875-2.042 1.605-4.271 2.012-2.699 0.3334-5.543 0.9164-5.543 4.553 0 2.761 2.291 4.158 4.906 4.158 1.719 0 3.69-0.5114 4.961-1.762 0.2605 1.323 1.198 1.762 2.5 1.762 0.5314 0 1.531-0.1888 1.969-0.3555v-2.219c-0.3126 0.0521-0.5514 0.0527-0.7285 0.0527-0.6043 0-0.75-0.313-0.75-1.084v-7.346c0-3.074-3.011-4.23-5.793-4.23zm56.56 0c-3.157 0-6.316 1.104-6.545 4.771h3.221c0.125-1.5 1.406-2.24 3.125-2.24 1.292 0 3.012 0.3023 3.012 1.928 0 1.875-2.074 1.605-4.314 2.012-2.657 0.3334-5.562 0.9164-5.562 4.553 0 2.761 2.365 4.158 4.99 4.158 1.625 0 3.688-0.5114 4.959-1.762 0.2501 1.323 1.177 1.762 2.428 1.762 0.5001 0 1.512-0.1888 2.012-0.3555v-2.219c-0.3438 0.0521-0.6054 0.0527-0.793 0.0527-0.5939 0-0.7695-0.313-0.7695-1.084h-0.0117v-7.346c0-3.074-2.895-4.23-5.75-4.23zm31.68 0c-4.678 0-7.271 3.229-7.271 7.605 0 4.376 2.593 7.576 7.271 7.576 4.574 0 7.273-3.2 7.273-7.576 0-4.376-2.699-7.605-7.273-7.605zm17.13 0c-1.938 0-3.512 0.9905-4.471 2.605l-0.0527-0.0742v-2.146h-3v14.41h3.156v-8.502c0-2.063 1.397-3.762 3.439-3.762 1.917 0 2.803 0.9897 2.855 3.178v9.086h3.146v-9.92c0-3.167-1.928-4.875-5.074-4.875zm42.01 0c-4.605 0-7.283 3.229-7.283 7.605 0 4.376 2.678 7.576 7.283 7.576 4.585 0 7.264-3.2 7.264-7.576 0-4.376-2.669-7.605-7.264-7.605zm16.9 0c-1.938 0-3.876 1.688-4.24 3.23h-0.0625v-2.846h-2.918v14.41h3.127v-6.846c0-3.209 1.751-4.896 3.949-4.896 0.3855 0 0.8319 0.0944 1.301 0.1465v-3.105c-0.2917-0.0417-0.4894-0.0937-1.156-0.0937zm19.83 0c-3.209 0-6.303 1.104-6.543 4.771h3.146c0.125-1.5 1.396-2.24 3.209-2.24 1.229 0 2.928 0.3023 2.928 1.928 0 1.875-1.99 1.605-4.293 2.012-2.709 0.3334-5.5 0.9164-5.5 4.553 0 2.761 2.261 4.158 4.887 4.158 1.73 0 3.688-0.5114 4.98-1.762 0.2396 1.323 1.166 1.762 2.469 1.762 0.5418 0 1.542-0.1888 2.031-0.3555v-2.219c-0.3334 0.0521-0.593 0.0527-0.791 0.0527-0.5939 0-0.7617-0.313-0.7617-1.084v-7.346c0-3.074-2.99-4.23-5.762-4.23zm38.34 0c-4.241 0-6.939 3.563-6.939 7.637 0 4.366 2.554 7.545 7.055 7.545 3.147 0 5.783-1.771 6.502-4.855h-3.012c-0.5418 1.521-1.658 2.334-3.502 2.334-2.667 0-3.855-1.938-3.855-4.23h10.56c0.5522-4.282-2.283-8.43-6.805-8.43zm-215.4 0.3848 5.48 14.35-0.3555 1.137c-0.3855 1.25-0.7594 2.021-2.26 2.021-0.5105 0-1.011-0.1048-1.521-0.1777v2.615c0.7502 0.1042 1.469 0.1777 2.24 0.1777 3.313 0 4.021-2.324 5.053-4.908l5.584-15.21h-3.281l-3.656 10.79h-0.0527l-3.762-10.79zm68.3 0v14.42h3.156v-14.42zm12.86 2.146c2.792 0 4.043 2.542 4.043 5.074 0 2.501-1.261 5.055-4.043 5.055-2.886 0-4.158-2.554-4.158-5.055 0-2.532 1.272-5.074 4.158-5.074zm59.14 0c2.865 0 4.031 2.542 4.031 5.074 0 2.501-1.176 5.055-4.031 5.055-2.876 0-4.086-2.554-4.086-5.055 0-2.532 1.21-5.074 4.086-5.074zm52.98 0c2.647 0 4.001 2.428 4.012 5.105 0 2.501-1.094 5.023-4.012 5.023-2.542 0-4.012-2.116-4.012-5.023 0-3.084 1.376-5.105 4.012-5.105zm22.08 0c2.188 0 3.532 1.823 3.646 3.803h-7.398c0.0834-2.105 1.553-3.803 3.752-3.803zm-105.5 3.771c-2.303 0-4.24 1.939-4.24 4.305 0 1.052 0.4594 2.115 1.262 2.959 0.8336 0.7919 1.905 1.238 2.979 1.238 1.125 0 2.209-0.436 3.012-1.238 0.8127-0.844 1.271-1.907 1.271-2.959 0-1.146-0.4588-2.219-1.271-3.053-0.8127-0.8127-1.886-1.252-3.012-1.252zm0 0.7188c0.9377 0 1.846 0.3651 2.502 1.021 0.6877 0.6981 1.062 1.605 1.062 2.553 0 1.855-1.616 3.48-3.564 3.48-0.8856 0-1.76-0.3638-2.438-1.041-0.6773-0.6877-1.084-1.543-1.084-2.439 0-0.9482 0.3963-1.855 1.084-2.553 0.6773-0.6668 1.562-1.021 2.438-1.021zm-57.82 0.584h0.01v2.377c0 1.948-2.187 2.688-3.625 2.688-1.011 0-2.865-0.4059-2.865-1.781 0-1.709 1.239-2.209 2.531-2.428 1.417-0.2501 2.97-0.2303 3.949-0.8555zm127.5 0h0.01v2.377c0 1.948-2.127 2.688-3.533 2.688-1.125 0-2.947-0.4059-2.947-1.781 0-1.709 1.24-2.209 2.646-2.428 1.375-0.2501 2.845-0.2303 3.824-0.8555zm-184.1 6e-3v2.371c0 1.948-2.177 2.688-3.521 2.688-1.136 0-2.949-0.4059-2.949-1.781 0-1.709 1.229-2.209 2.625-2.428 1.371-0.2493 2.856-0.2306 3.846-0.8496zm112.7 0.4941v4.721h0.834v-1.875h1.209c0.2396 0 0.4479 0.0208 0.5312 0.0625 0.1667 0.0729 0.2389 0.207 0.2598 0.457l0.043 0.7402c0.0104 0.1771 9e-3 0.2916 0.0508 0.375 0 0.0625 0.0214 0.1263 0.0527 0.168l0.0215 0.0625h0.9375v-0.3027l-0.0723-0.0215c-0.0313-0.0417-0.1048-0.0937-0.1465-0.1875 0-0.1042-0.0215-0.2089-0.0215-0.3652l-0.0312-0.582c0-0.2813-0.0722-0.4583-0.166-0.5938-0.0833-0.1042-0.1881-0.1458-0.3027-0.2188 0.1667-0.1042 0.2819-0.209 0.3652-0.3652 0.125-0.1876 0.1875-0.4387 0.1875-0.7305 0-0.5522-0.2616-0.9785-0.6992-1.166-0.2501-0.1146-0.552-0.1777-0.9062-0.1777zm0.8438 0.75h1.334c0.1771 0 0.3444 0.043 0.459 0.1055 0.1876 0.0834 0.291 0.259 0.291 0.5508 0 0.2396-0.0833 0.4381-0.2188 0.5527-0.1459 0.0834-0.3639 0.1562-0.6348 0.1562h-1.23z" fill="#fff"/></svg>
