<?xml version="1.0" encoding="UTF-8" standalone="no"?>
<!-- Created with Inkscape (http://www.inkscape.org/) -->

<svg
   width="480"
   height="320"
   viewBox="0 0 127 84.666667"
   version="1.1"
   id="svg1543"
   inkscape:export-filename="/home/vitor/Dev/es-theme-material-tv-3-2/assets/logos/pspminis.png"
   inkscape:export-xdpi="96"
   inkscape:export-ydpi="96"
   inkscape:version="1.1.1 (3bf5ae0d25, 2021-09-20)"
   sodipodi:docname="pspminis.svg"
   xmlns:inkscape="http://www.inkscape.org/namespaces/inkscape"
   xmlns:sodipodi="http://sodipodi.sourceforge.net/DTD/sodipodi-0.dtd"
   xmlns:xlink="http://www.w3.org/1999/xlink"
   xmlns="http://www.w3.org/2000/svg"
   xmlns:svg="http://www.w3.org/2000/svg">
  <sodipodi:namedview
     id="namedview1545"
     pagecolor="#505050"
     bordercolor="#eeeeee"
     borderopacity="1"
     inkscape:pageshadow="0"
     inkscape:pageopacity="0"
     inkscape:pagecheckerboard="0"
     inkscape:document-units="px"
     showgrid="false"
     units="px"
     width="640px"
     inkscape:snap-page="true"
     showguides="true"
     inkscape:guide-bbox="true"
     inkscape:zoom="0.79107571"
     inkscape:cx="189.61523"
     inkscape:cy="115.03324"
     inkscape:window-width="1920"
     inkscape:window-height="1019"
     inkscape:window-x="0"
     inkscape:window-y="30"
     inkscape:window-maximized="1"
     inkscape:current-layer="layer1">
    <sodipodi:guide
       position="10.583333,76.729167"
       orientation="-1,0"
       id="guide2978"
       inkscape:label=""
       inkscape:locked="false"
       inkscape:color="rgb(0,0,255)" />
    <sodipodi:guide
       position="116.41667,7.9375"
       orientation="-1,0"
       id="guide2980"
       inkscape:label=""
       inkscape:locked="false"
       inkscape:color="rgb(0,0,255)" />
    <sodipodi:guide
       position="10.583333,71.4375"
       orientation="0,1"
       id="guide2982"
       inkscape:label=""
       inkscape:locked="false"
       inkscape:color="rgb(0,0,255)" />
    <sodipodi:guide
       position="116.41667,13.229167"
       orientation="0,1"
       id="guide2984"
       inkscape:label=""
       inkscape:locked="false"
       inkscape:color="rgb(0,0,255)" />
  </sodipodi:namedview>
  <defs
     id="defs1540">
    <linearGradient
       inkscape:collect="always"
       id="linearGradient2856">
      <stop
         style="stop-color:#c6262e;stop-opacity:1"
         offset="0"
         id="stop2852" />
      <stop
         style="stop-color:#7239b3;stop-opacity:1"
         offset="0.65094674"
         id="stop12073" />
      <stop
         style="stop-color:#452981;stop-opacity:1"
         offset="1"
         id="stop2854" />
    </linearGradient>
    <linearGradient
       inkscape:collect="always"
       xlink:href="#linearGradient2856"
       id="linearGradient2858"
       x1="-13.025542"
       y1="-31.10537"
       x2="88.842911"
       y2="105.2397"
       gradientUnits="userSpaceOnUse" />
    <clipPath
       id="clip1">
      <path
         d="m 249,0 h 75 v 124.51172 h -75 z m 0,0"
         id="path2" />
    </clipPath>
    <clipPath
       id="clip2">
      <path
         d="m 421,0 h 90 v 124.51172 h -90 z m 0,0"
         id="path5" />
    </clipPath>
    <clipPath
       id="clip3">
      <path
         d="m 513,0 h 28 v 124.51172 h -28 z m 0,0"
         id="path8" />
    </clipPath>
    <clipPath
       id="clip4">
      <path
         d="m 659,4 h 86.87109 V 124 H 659 Z m 0,0"
         id="path11" />
    </clipPath>
    <marker
       id="DefaultArrow2"
       markerUnits="strokeWidth"
       viewBox="0 0 1 1"
       markerWidth="1"
       markerHeight="1"
       overflow="visible"
       orient="auto">
      <!-- REF_ARROW_STRAIGHT (-2) -->
      <g
         transform="scale(0.0092592592)"
         id="g8989">
        <!-- 1/108 -->
        <path
           d="M -9 54 L -9 -54 L 117 0 z"
           id="path8987" />
      </g>
    </marker>
    <marker
       id="DefaultArrow3"
       markerUnits="strokeWidth"
       viewBox="0 0 1 1"
       markerWidth="1"
       markerHeight="1"
       overflow="visible"
       orient="auto">
      <!-- REF_ARROW_ANGLED -->
      <g
         transform="scale(0.0092592592)"
         id="g8994">
        <path
           d="M -27 54 L -9 0 L -27 -54 L 135 0 z"
           id="path8992" />
      </g>
    </marker>
    <marker
       id="DefaultArrow4"
       markerUnits="strokeWidth"
       viewBox="0 0 1 1"
       markerWidth="1"
       markerHeight="1"
       overflow="visible"
       orient="auto">
      <!-- REF_ARROW_ROUNDED -->
      <g
         transform="scale(0.0092592592)"
         id="g8999">
        <path
           d="M -9,0 L -9,-45 C -9,-51.708 2.808,-56.580 9,-54 L 117,-9 C 120.916,-7.369 126.000,-4.242 126,0 C 126,4.242 120.916,7.369 117,9 L 9,54 C 2.808,56.580 -9,51.708 -9,45 z"
           id="path8997" />
      </g>
    </marker>
    <marker
       id="DefaultArrow5"
       markerUnits="strokeWidth"
       viewBox="0 0 1 1"
       markerWidth="1"
       markerHeight="1"
       overflow="visible"
       orient="auto">
      <!-- REF_ARROW_SPOT -->
      <g
         transform="scale(0.0092592592)"
         id="g9004">
        <path
           d="M -54, 0 C -54,29.807 -29.807,54 0,54 C 29.807,54 54,29.807 54,0 C 54,-29.807 29.807,-54 0,-54 C -29.807,-54 -54,-29.807 -54,0 z"
           id="path9002" />
      </g>
    </marker>
    <marker
       id="DefaultArrow6"
       markerUnits="strokeWidth"
       viewBox="0 0 1 1"
       markerWidth="1"
       markerHeight="1"
       overflow="visible"
       orient="auto">
      <!-- REF_ARROW_DIAMOND -->
      <g
         transform="scale(0.0092592592)"
         id="g9009">
        <path
           d="M -63,0 L 0,63 L 63,0 L 0,-63 z"
           id="path9007" />
      </g>
    </marker>
    <marker
       id="DefaultArrow7"
       markerUnits="strokeWidth"
       viewBox="0 0 1 1"
       markerWidth="1"
       markerHeight="1"
       overflow="visible"
       orient="auto">
      <!-- REF_ARROW_FEATHER -->
      <g
         transform="scale(0.0092592592)"
         id="g9014">
        <path
           d="M 18,-54 L 108,-54 L 63,0 L 108,54 L 18, 54 L -36,0 z"
           id="path9012" />
      </g>
    </marker>
    <marker
       id="DefaultArrow8"
       markerUnits="strokeWidth"
       viewBox="0 0 1 1"
       markerWidth="1"
       markerHeight="1"
       overflow="visible"
       orient="auto">
      <!-- REF_ARROW_FEATHER2 -->
      <g
         transform="scale(0.0092592592)"
         id="g9019">
        <path
           d="M -36,0 L 18,-54 L 54,-54 L 18,-18 L 27,-18 L 63,-54 L 99,-54 L 63,-18 L 72,-18 L 108,-54 L 144,-54 L 90,0 L 144,54 L 108,54 L 72,18 L 63,18 L 99,54 L 63,54 L 27,18 L 18,18 L 54,54 L 18,54 z"
           id="path9017" />
      </g>
    </marker>
    <marker
       id="DefaultArrow9"
       markerUnits="strokeWidth"
       viewBox="0 0 1 1"
       markerWidth="1"
       markerHeight="1"
       overflow="visible"
       orient="auto">
      <!-- REF_ARROW_HOLLOWDIAMOND -->
      <g
         transform="scale(0.0092592592)"
         id="g9024">
        <path
           d="M 0,45 L -45,0 L 0, -45 L 45, 0 z M 0, 63 L-63, 0 L 0, -63 L 63, 0 z"
           id="path9022" />
      </g>
    </marker>
    <filter
       id="StainedFilter">
      <feBlend
         mode="multiply"
         in2="BackgroundImage"
         in="SourceGraphic"
         result="blend"
         id="feBlend9027" />
      <feComposite
         in="blend"
         in2="SourceAlpha"
         operator="in"
         result="comp"
         id="feComposite9029" />
    </filter>
    <filter
       id="BleachFilter">
      <feBlend
         mode="screen"
         in2="BackgroundImage"
         in="SourceGraphic"
         result="blend"
         id="feBlend9032" />
      <feComposite
         in="blend"
         in2="SourceAlpha"
         operator="in"
         result="comp"
         id="feComposite9034" />
    </filter>
    <filter
       id="InvertTransparencyBitmapFilter">
      <feComponentTransfer
         id="feComponentTransfer9043">
        <feFuncR
           type="gamma"
           amplitude="1.055"
           exponent=".416666666"
           offset="-0.055"
           id="feFuncR9037" />
        <feFuncG
           type="gamma"
           amplitude="1.055"
           exponent=".416666666"
           offset="-0.055"
           id="feFuncG9039" />
        <feFuncB
           type="gamma"
           amplitude="1.055"
           exponent=".416666666"
           offset="-0.055"
           id="feFuncB9041" />
      </feComponentTransfer>
      <feComponentTransfer
         id="feComponentTransfer9053">
        <feFuncR
           type="linear"
           slope="-1"
           intercept="1"
           id="feFuncR9045" />
        <feFuncG
           type="linear"
           slope="-1"
           intercept="1"
           id="feFuncG9047" />
        <feFuncB
           type="linear"
           slope="-1"
           intercept="1"
           id="feFuncB9049" />
        <feFuncA
           type="linear"
           slope="1"
           intercept="0"
           id="feFuncA9051" />
      </feComponentTransfer>
      <feComponentTransfer
         id="feComponentTransfer9061">
        <feFuncR
           type="gamma"
           amplitude="1"
           exponent="2.4"
           offset="0"
           id="feFuncR9055" />
        <feFuncG
           type="gamma"
           amplitude="1"
           exponent="2.4"
           offset="0"
           id="feFuncG9057" />
        <feFuncB
           type="gamma"
           amplitude="1"
           exponent="2.4"
           offset="0"
           id="feFuncB9059" />
      </feComponentTransfer>
    </filter>
    <inkscape:perspective
       sodipodi:type="inkscape:persp3d"
       inkscape:vp_x="0 : 526.18109 : 1"
       inkscape:vp_y="0 : 1000 : 0"
       inkscape:vp_z="744.09448 : 526.18109 : 1"
       inkscape:persp3d-origin="372.04724 : 350.78739 : 1"
       id="perspective10" />
    <inkscape:perspective
       id="perspective2824"
       inkscape:persp3d-origin="0.5 : 0.33333333 : 1"
       inkscape:vp_z="1 : 0.5 : 1"
       inkscape:vp_y="0 : 1000 : 0"
       inkscape:vp_x="0 : 0.5 : 1"
       sodipodi:type="inkscape:persp3d" />
    <clipPath
       clip-rule="nonzero"
       id="clp2">
      <path
         id="path5264"
         d="M 234.2,0.1382 L 5879.3,0.1382 L 5879.3,7919 L 234.2,7919 L 234.2,0.1382 z " />
    </clipPath>
    <clipPath
       clip-rule="nonzero"
       id="clp3">
      <path
         id="path5273"
         d="M 234.06,0 L 5879.3,0 L 5879.3,7919 L 234.06,7919 L 234.06,0 z " />
    </clipPath>
    <clipPath
       clip-rule="nonzero"
       id="clp4">
      <path
         id="path5282"
         d="M 437.5,278.39 L 1028,278.39 L 1028,456.94 L 437.5,456.94 L 437.5,278.39 z " />
    </clipPath>
    <clipPath
       clip-rule="nonzero"
       id="clp5">
      <path
         id="path5291"
         d="M 234.06,0 L 5879.3,0 L 5879.3,7919 L 234.06,7919 L 234.06,0 z " />
    </clipPath>
    <clipPath
       clip-rule="nonzero"
       id="clp6">
      <path
         id="path5330"
         d="M 437.5,278.39 L 1028,278.39 L 1028,456.94 L 437.5,456.94 L 437.5,278.39 z " />
    </clipPath>
    <clipPath
       clip-rule="nonzero"
       id="clp7">
      <path
         id="path5341"
         d="M 234.06,0 L 5879.3,0 L 5879.3,7919 L 234.06,7919 L 234.06,0 z " />
    </clipPath>
    <clipPath
       clip-rule="nonzero"
       id="clp8">
      <path
         id="path5418"
         d="M 4026.3,282.71 L 4726.1,282.71 L 4726.1,453.09 L 4026.3,453.09 L 4026.3,282.71 z " />
    </clipPath>
    <clipPath
       clip-rule="nonzero"
       id="clp9">
      <path
         id="path5427"
         d="M 234.06,0 L 5879.3,0 L 5879.3,7919 L 234.06,7919 L 234.06,0 z " />
    </clipPath>
    <clipPath
       clip-rule="nonzero"
       id="clp10">
      <path
         id="path5476"
         d="M 2444.9,428.65 L 2444.9,306.69 L 2950.9,306.69 L 2950.9,428.65" />
    </clipPath>
    <clipPath
       clip-rule="nonzero"
       id="clp11">
      <path
         id="path5485"
         d="M 234.06,0 L 5879.3,0 L 5879.3,7919 L 234.06,7919 L 234.06,0 z " />
    </clipPath>
    <clipPath
       clip-rule="nonzero"
       id="clp12">
      <path
         id="path5496"
         d="M 2444.9,428.65 L 2444.9,306.69 L 2950.9,306.69 L 2950.9,428.65" />
    </clipPath>
    <clipPath
       clip-rule="nonzero"
       id="clp13">
      <path
         id="path5505"
         d="M 234.06,0 L 5879.3,0 L 5879.3,7919 L 234.06,7919 L 234.06,0 z " />
    </clipPath>
    <clipPath
       clip-rule="nonzero"
       id="clp14">
      <path
         id="path5514"
         d="M 2444.9,428.65 L 2444.9,306.69 L 2950.9,306.69 L 2950.9,428.65" />
    </clipPath>
    <clipPath
       clip-rule="nonzero"
       id="clp15">
      <path
         id="path5523"
         d="M 234.06,0 L 5879.3,0 L 5879.3,7919 L 234.06,7919 L 234.06,0 z " />
    </clipPath>
    <clipPath
       clip-rule="nonzero"
       id="clipPath5767">
      <path
         id="path5769"
         d="M 234.2,0.1382 L 5879.3,0.1382 L 5879.3,7919 L 234.2,7919 L 234.2,0.1382 z " />
    </clipPath>
    <clipPath
       clip-rule="nonzero"
       id="clipPath5775">
      <path
         id="path5777"
         d="M 234.06,0 L 5879.3,0 L 5879.3,7919 L 234.06,7919 L 234.06,0 z " />
    </clipPath>
    <clipPath
       clip-rule="nonzero"
       id="clipPath5783">
      <path
         id="path5785"
         d="M 437.5,278.39 L 1028,278.39 L 1028,456.94 L 437.5,456.94 L 437.5,278.39 z " />
    </clipPath>
    <clipPath
       clip-rule="nonzero"
       id="clipPath5791">
      <path
         id="path5793"
         d="M 234.06,0 L 5879.3,0 L 5879.3,7919 L 234.06,7919 L 234.06,0 z " />
    </clipPath>
    <clipPath
       clip-rule="nonzero"
       id="clipPath5814">
      <path
         id="path5816"
         d="M 437.5,278.39 L 1028,278.39 L 1028,456.94 L 437.5,456.94 L 437.5,278.39 z " />
    </clipPath>
    <clipPath
       clip-rule="nonzero"
       id="clipPath5823">
      <path
         id="path5825"
         d="M 234.06,0 L 5879.3,0 L 5879.3,7919 L 234.06,7919 L 234.06,0 z " />
    </clipPath>
    <clipPath
       clip-rule="nonzero"
       id="clipPath5865">
      <path
         id="path5867"
         d="M 4026.3,282.71 L 4726.1,282.71 L 4726.1,453.09 L 4026.3,453.09 L 4026.3,282.71 z " />
    </clipPath>
    <clipPath
       clip-rule="nonzero"
       id="clipPath5873">
      <path
         id="path5875"
         d="M 234.06,0 L 5879.3,0 L 5879.3,7919 L 234.06,7919 L 234.06,0 z " />
    </clipPath>
    <clipPath
       clip-rule="nonzero"
       id="clipPath5901">
      <path
         id="path5903"
         d="M 2444.9,428.65 L 2444.9,306.69 L 2950.9,306.69 L 2950.9,428.65" />
    </clipPath>
    <clipPath
       clip-rule="nonzero"
       id="clipPath5909">
      <path
         id="path5911"
         d="M 234.06,0 L 5879.3,0 L 5879.3,7919 L 234.06,7919 L 234.06,0 z " />
    </clipPath>
    <clipPath
       clip-rule="nonzero"
       id="clipPath5918">
      <path
         id="path5920"
         d="M 2444.9,428.65 L 2444.9,306.69 L 2950.9,306.69 L 2950.9,428.65" />
    </clipPath>
    <clipPath
       clip-rule="nonzero"
       id="clipPath5926">
      <path
         id="path5928"
         d="M 234.06,0 L 5879.3,0 L 5879.3,7919 L 234.06,7919 L 234.06,0 z " />
    </clipPath>
    <clipPath
       clip-rule="nonzero"
       id="clipPath5934">
      <path
         id="path5936"
         d="M 2444.9,428.65 L 2444.9,306.69 L 2950.9,306.69 L 2950.9,428.65" />
    </clipPath>
    <clipPath
       clip-rule="nonzero"
       id="clipPath5942">
      <path
         id="path5944"
         d="M 234.06,0 L 5879.3,0 L 5879.3,7919 L 234.06,7919 L 234.06,0 z " />
    </clipPath>
    <clipPath
       id="clipPath14221"
       clip-rule="nonzero">
      <path
         d="M 234.06,0 L 5879.3,0 L 5879.3,7919 L 234.06,7919 L 234.06,0 z "
         id="path14223" />
    </clipPath>
    <clipPath
       id="clipPath14217"
       clip-rule="nonzero">
      <path
         d="M 2444.9,428.65 L 2444.9,306.69 L 2950.9,306.69 L 2950.9,428.65"
         id="path14219" />
    </clipPath>
    <clipPath
       id="clipPath14213"
       clip-rule="nonzero">
      <path
         d="M 234.06,0 L 5879.3,0 L 5879.3,7919 L 234.06,7919 L 234.06,0 z "
         id="path14215" />
    </clipPath>
    <clipPath
       id="clipPath14209"
       clip-rule="nonzero">
      <path
         d="M 2444.9,428.65 L 2444.9,306.69 L 2950.9,306.69 L 2950.9,428.65"
         id="path14211" />
    </clipPath>
    <clipPath
       id="clipPath14205"
       clip-rule="nonzero">
      <path
         d="M 234.06,0 L 5879.3,0 L 5879.3,7919 L 234.06,7919 L 234.06,0 z "
         id="path14207" />
    </clipPath>
    <clipPath
       id="clipPath14201"
       clip-rule="nonzero">
      <path
         d="M 2444.9,428.65 L 2444.9,306.69 L 2950.9,306.69 L 2950.9,428.65"
         id="path14203" />
    </clipPath>
    <clipPath
       id="clipPath14197"
       clip-rule="nonzero">
      <path
         d="M 234.06,0 L 5879.3,0 L 5879.3,7919 L 234.06,7919 L 234.06,0 z "
         id="path14199" />
    </clipPath>
    <clipPath
       id="clipPath14193"
       clip-rule="nonzero">
      <path
         d="M 4026.3,282.71 L 4726.1,282.71 L 4726.1,453.09 L 4026.3,453.09 L 4026.3,282.71 z "
         id="path14195" />
    </clipPath>
    <clipPath
       id="clipPath14189"
       clip-rule="nonzero">
      <path
         d="M 234.06,0 L 5879.3,0 L 5879.3,7919 L 234.06,7919 L 234.06,0 z "
         id="path14191" />
    </clipPath>
    <clipPath
       id="clipPath14185"
       clip-rule="nonzero">
      <path
         d="M 437.5,278.39 L 1028,278.39 L 1028,456.94 L 437.5,456.94 L 437.5,278.39 z "
         id="path14187" />
    </clipPath>
    <clipPath
       id="clipPath14181"
       clip-rule="nonzero">
      <path
         d="M 234.06,0 L 5879.3,0 L 5879.3,7919 L 234.06,7919 L 234.06,0 z "
         id="path14183" />
    </clipPath>
    <clipPath
       id="clipPath14177"
       clip-rule="nonzero">
      <path
         d="M 437.5,278.39 L 1028,278.39 L 1028,456.94 L 437.5,456.94 L 437.5,278.39 z "
         id="path14179" />
    </clipPath>
    <clipPath
       id="clipPath14173"
       clip-rule="nonzero">
      <path
         d="M 234.06,0 L 5879.3,0 L 5879.3,7919 L 234.06,7919 L 234.06,0 z "
         id="path14175" />
    </clipPath>
    <clipPath
       id="clipPath14169"
       clip-rule="nonzero">
      <path
         d="M 234.2,0.1382 L 5879.3,0.1382 L 5879.3,7919 L 234.2,7919 L 234.2,0.1382 z "
         id="path14171" />
    </clipPath>
    <clipPath
       id="clipPath14165"
       clip-rule="nonzero">
      <path
         d="M 234.06,0 L 5879.3,0 L 5879.3,7919 L 234.06,7919 L 234.06,0 z "
         id="path14167" />
    </clipPath>
    <clipPath
       id="clipPath14161"
       clip-rule="nonzero">
      <path
         d="M 2444.9,428.65 L 2444.9,306.69 L 2950.9,306.69 L 2950.9,428.65"
         id="path14163" />
    </clipPath>
    <clipPath
       id="clipPath14157"
       clip-rule="nonzero">
      <path
         d="M 234.06,0 L 5879.3,0 L 5879.3,7919 L 234.06,7919 L 234.06,0 z "
         id="path14159" />
    </clipPath>
    <clipPath
       id="clipPath14153"
       clip-rule="nonzero">
      <path
         d="M 2444.9,428.65 L 2444.9,306.69 L 2950.9,306.69 L 2950.9,428.65"
         id="path14155" />
    </clipPath>
    <clipPath
       id="clipPath14149"
       clip-rule="nonzero">
      <path
         d="M 234.06,0 L 5879.3,0 L 5879.3,7919 L 234.06,7919 L 234.06,0 z "
         id="path14151" />
    </clipPath>
    <clipPath
       id="clipPath14145"
       clip-rule="nonzero">
      <path
         d="M 2444.9,428.65 L 2444.9,306.69 L 2950.9,306.69 L 2950.9,428.65"
         id="path14147" />
    </clipPath>
    <clipPath
       id="clipPath14141"
       clip-rule="nonzero">
      <path
         d="M 234.06,0 L 5879.3,0 L 5879.3,7919 L 234.06,7919 L 234.06,0 z "
         id="path14143" />
    </clipPath>
    <clipPath
       id="clipPath14137"
       clip-rule="nonzero">
      <path
         d="M 4026.3,282.71 L 4726.1,282.71 L 4726.1,453.09 L 4026.3,453.09 L 4026.3,282.71 z "
         id="path14139" />
    </clipPath>
    <clipPath
       id="clipPath14133"
       clip-rule="nonzero">
      <path
         d="M 234.06,0 L 5879.3,0 L 5879.3,7919 L 234.06,7919 L 234.06,0 z "
         id="path14135" />
    </clipPath>
    <clipPath
       id="clipPath14129"
       clip-rule="nonzero">
      <path
         d="M 437.5,278.39 L 1028,278.39 L 1028,456.94 L 437.5,456.94 L 437.5,278.39 z "
         id="path14131" />
    </clipPath>
    <clipPath
       id="clipPath14125"
       clip-rule="nonzero">
      <path
         d="M 234.06,0 L 5879.3,0 L 5879.3,7919 L 234.06,7919 L 234.06,0 z "
         id="path14127" />
    </clipPath>
    <clipPath
       id="clipPath14121"
       clip-rule="nonzero">
      <path
         d="M 437.5,278.39 L 1028,278.39 L 1028,456.94 L 437.5,456.94 L 437.5,278.39 z "
         id="path14123" />
    </clipPath>
    <clipPath
       id="clipPath14117"
       clip-rule="nonzero">
      <path
         d="M 234.06,0 L 5879.3,0 L 5879.3,7919 L 234.06,7919 L 234.06,0 z "
         id="path14119" />
    </clipPath>
    <clipPath
       id="clipPath14113"
       clip-rule="nonzero">
      <path
         d="M 234.2,0.1382 L 5879.3,0.1382 L 5879.3,7919 L 234.2,7919 L 234.2,0.1382 z "
         id="path14115" />
    </clipPath>
  </defs>
  <g
     inkscape:label="Camada 1"
     inkscape:groupmode="layer"
     id="layer1">
    <rect
       style="opacity:1;fill:url(#linearGradient2858);fill-opacity:1;stroke-width:0.529167;stroke-linecap:square;stroke-linejoin:round;paint-order:stroke fill markers"
       id="rect1569"
       width="127"
       height="84.666664"
       x="0"
       y="0"
       ry="4.2333331"
       inkscape:export-filename="/home/vitor/Dev/es-theme-material-tv-3-2/assets/logo/fbn.png"
       inkscape:export-xdpi="96"
       inkscape:export-ydpi="96" />
    <g
       id="g7569"
       transform="translate(0,-8.510883)">
      <g
         inkscape:label="Ebene 1"
         id="layer1-5"
         transform="matrix(0.1495111,0,0,0.1495111,10.930547,-38.254464)"
         style="fill:#ffffff">
        <path
           style="fill:#ffffff;fill-rule:nonzero;stroke:none"
           d="M -2.3223259,490.72569 H 218.219 v 65.39983 H 6.3928567 v 56.68471 H -2.3223259 V 547.41036 H 209.50392 V 499.44078 H -2.3223259 v -8.71509"
           class="ps02"
           id="path6945" />
        <path
           style="fill:#ffffff;fill-rule:nonzero;stroke:none"
           d="m 493.71414,556.12552 v 56.68471 h -8.71507 V 547.41036 H 696.82531 V 499.44078 H 484.99907 v -8.71509 h 220.54132 v 65.39983 H 493.71414"
           class="ps02"
           id="path6947" />
        <path
           style="fill:#ffffff;fill-rule:nonzero;stroke:none"
           d="M 330.66855,490.72569 V 604.09505 H 218.219 v 8.71518 H 339.86777 V 499.44078 h 112.4495 v -8.71509 H 330.66855"
           class="ps02"
           id="path6949" />
        <path
           id="path6951"
           style="fill:#ffffff;fill-rule:nonzero;stroke:none"
           class="ps02"
           d="m 678.6693,598.28432 v 1.64649 h 4.7207 v 12.90429 h 1.9375 v -12.90429 h 4.7207 v -1.64649 z m 13.19336,0 v 14.55078 h 1.9375 v -11.81445 l 3.99414,11.81445 h 1.9375 l 3.87304,-11.81445 v 11.81445 h 1.93555 v -14.55078 h -2.66211 l -4.23633,12.37109 -4.11523,-12.37109 z" />
      </g>
      <path
         style="fill:#ffffff;stroke-width:0.143295"
         d="m 31.796301,65.645608 c 0.0445,-2.942749 0.0587,-3.072063 0.42362,-3.850334 0.76471,-1.630896 1.90615,-2.485547 3.90635,-2.924861 2.11032,-0.463503 4.38102,-0.03475 5.73307,1.082513 0.3793,0.31344 0.7667,0.569891 0.86088,0.569891 0.0942,0 0.38582,-0.221403 0.6481,-0.492007 0.85107,-0.878087 1.68194,-1.137695 3.84206,-1.200468 2.496805,-0.07256 3.505212,0.201758 4.676336,1.2721 1.450889,1.32603 1.795449,2.56291 1.803637,6.474582 l 0.0044,2.113599 h -1.126883 -1.12688 l -0.09113,-0.664827 c -0.05012,-0.365655 -0.09148,-1.574705 -0.09192,-2.686778 -0.001,-2.44182 -0.131753,-2.980335 -0.913753,-3.762334 -0.750862,-0.750863 -1.485227,-0.960338 -3.097847,-0.88365 -1.39913,0.06654 -2.15962,0.399046 -2.693,1.177465 -0.51608,0.753166 -0.60251,1.297862 -0.60459,3.809986 -0.001,1.300921 -0.0408,2.510397 -0.0884,2.687724 -0.0803,0.299783 -0.1657,0.322414 -1.21605,0.322414 h -1.12965 l -0.004,-2.471836 c -0.004,-2.727768 -0.12084,-3.493299 -0.6588,-4.311554 -0.82894,-1.260823 -3.22923,-1.711013 -4.94197,-0.926896 -0.43977,0.201335 -0.92431,0.550704 -1.07889,0.77792 -0.63694,0.936204 -0.68222,1.187631 -0.73898,4.102293 l -0.0551,2.830073 h -1.1436 -1.14359 l 0.046,-3.045015 z m 24.564763,2.818353 c -0.133374,-0.34757 -0.09896,-5.980847 0.03786,-6.196648 0.152149,-0.239983 1.131618,-0.376553 1.800567,-0.251057 l 0.510609,0.09579 v 3.289288 3.289289 h -1.131028 c -0.899161,0 -1.148859,-0.04647 -1.218006,-0.226662 z m 5.102695,-2.746706 c 0.06774,-3.355806 0.224484,-4.031178 1.200124,-5.170994 1.331028,-1.555006 4.12063,-2.258791 6.61872,-1.669828 1.802182,0.424892 3.022587,1.357677 3.701214,2.828928 0.407524,0.883502 0.413572,0.935126 0.461606,3.940247 l 0.04867,3.045015 h -1.14372 -1.143722 l -0.05845,-2.830073 c -0.07578,-3.668754 -0.2864,-4.21912 -1.884205,-4.92355 -1.669864,-0.7362 -4.065622,-0.25832 -4.880855,0.97358 -0.514873,0.778024 -0.657721,1.7413 -0.657721,4.435236 v 2.344807 h -1.160838 -1.160838 z m 14.728309,-0.254313 v -3.22768 l 0.367566,-0.139749 c 0.20216,-0.07686 0.584859,-0.139748 0.85044,-0.139748 0.265581,0 0.648281,0.06289 0.850441,0.139748 l 0.367566,0.139749 v 3.22768 3.227681 h -1.218007 -1.218006 z m 5.044305,2.332088 0.04266,-0.895593 1.411009,-0.100567 c 1.607164,-0.114547 2.632587,-0.40827 3.255667,-0.932558 0.751742,-0.63255 0.884029,-1.076375 1.07941,-3.62143 0.176074,-2.293553 0.197131,-2.392829 0.728339,-3.433781 0.993995,-1.947829 2.042666,-2.444793 5.383223,-2.551102 l 2.113599,-0.06726 v 0.926742 0.926742 l -1.540419,0.08294 c -1.901031,0.102355 -2.481459,0.267511 -3.19008,0.907708 -0.756863,0.68378 -0.970452,1.372874 -1.127596,3.63793 -0.154211,2.222772 -0.462057,3.290723 -1.212605,4.206669 -0.981054,1.197246 -2.854859,1.809156 -5.540042,1.809156 H 81.193711 Z M 56.361064,60.296155 c -0.04784,-0.124664 -0.08698,-0.409562 -0.08698,-0.633107 0,-0.806284 0.08053,-0.859769 1.294477,-0.859769 1.253584,0 1.251933,-0.0016 1.16293,1.098454 l -0.05025,0.621084 h -1.116597 c -0.886005,0 -1.134562,-0.04681 -1.203578,-0.226662 z m 19.891442,0.03418 c -0.04319,-0.112539 -0.05833,-0.486044 -0.03366,-0.830013 l 0.04487,-0.625396 h 1.146359 1.146359 v 0.788122 0.788121 l -1.112704,0.04189 c -0.860483,0.0324 -1.130502,-0.0045 -1.191223,-0.162725 z"
         id="path7326"
         sodipodi:nodetypes="csssssssccccscssscssccsssscccccssscccsssssssscccsssscccsccsssccccccccssscscccssscsccsssscsssscccccsss" />
    </g>
  </g>
  <style
     type="text/css"
     id="style3952">
	.st0{fill:#FC0C18;}
	.st1{fill:#FC0C18;}
</style>
</svg>
