<svg width="480" height="320" version="1.1" viewBox="0 0 480 320" xml:space="preserve" xmlns="http://www.w3.org/2000/svg"><defs><linearGradient id="a" x1="-13.03" x2="88.84" y1="-31.1" y2="105.2" gradientTransform="scale(3.78)" gradientUnits="userSpaceOnUse"><stop stop-color="#c6262e" offset="0"/><stop stop-color="#7239b3" offset=".651"/><stop stop-color="#452981" offset="1"/></linearGradient></defs><rect width="480" height="320" ry="24" fill="url(#a)"/><path d="m40 81.92v4.93h119.7v27.1h-119.7v36.96h4.928v-32.03h119.7v-36.96zm188.2 0v64.06h-63.58v4.928h68.76v-64.06h63.58v-4.93zm87.17 0.01172v4.928h119.7v27.09h-119.7v36.96h4.928v-32.03h119.7v-36.95zm111.7 77.86c-25.65 0-37.5 16.6-37.5 32.11v14.05c0 11.22-6.013 21.52-24.21 21.52h-12.87v10.6h12.87c25.65 0 37.5-16.6 37.5-32.11v-14.05c0-11.22 6.013-21.52 24.21-21.52h12.87v-10.6zm-349.6 15.5c-25.66 0-37.51 16.6-37.51 32.11v30.56h13.29v-30.56c0-11.22 6.013-21.52 24.21-21.52 18.19 0 24.2 10.31 24.2 21.52v30.56h13.29v-30.56c0-11.22 6.013-21.52 24.21-21.52 18.19 0 24.2 10.31 24.2 21.52v30.56h13.3v-30.56c0.0104-15.51-11.84-32.11-37.49-32.11-14.71 0-24.85 5.46-30.85 13.04-6.002-7.575-16.15-13.04-30.85-13.04zm117.8 0v10.6h13.29v-10.6zm69.85 0c-25.65 0-37.5 16.6-37.5 32.11v30.56h13.29v-30.56c0-11.22 6.013-21.52 24.21-21.52 18.19 0 24.21 10.31 24.21 21.52v30.56h13.29v-30.56c0-15.51-11.84-32.11-37.5-32.11zm56.21 0v10.6h13.29v-10.6zm-126.1 21.79v40.88h13.29v-40.88zm126.1 0v40.88h13.29v-40.88z" fill="#fff"/></svg>
