<svg width="480" height="320" version="1.1" viewBox="0 0 127 84.667" xmlns="http://www.w3.org/2000/svg" xmlns:xlink="http://www.w3.org/1999/xlink">
 <defs>
  <linearGradient id="a" x1="-13.026" x2="88.843" y1="-31.105" y2="105.24" gradientUnits="userSpaceOnUse">
   <stop stop-color="#c6262e" offset="0"/>
   <stop stop-color="#7239b3" offset=".65095"/>
   <stop stop-color="#452981" offset="1"/>
  </linearGradient>
 </defs>
 <rect width="127" height="84.667" ry="4.2333" fill="url(#a)" stroke-linecap="square" stroke-linejoin="round" stroke-width=".52917" style="paint-order:stroke fill markers"/>
 <g transform="translate(0 -8.5109)" fill="#fff">
  <g transform="matrix(.14951 0 0 .14951 10.931 -38.254)">
   <path class="ps02" d="m-2.3223 490.73h220.54v65.4h-211.83v56.685h-8.7152v-65.4h211.83v-47.97h-211.83v-8.7151"/>
   <path class="ps02" d="m493.71 556.13v56.685h-8.7151v-65.4h211.83v-47.97h-211.83v-8.7151h220.54v65.4h-211.83"/>
   <path class="ps02" d="m330.67 490.73v113.37h-112.45v8.7152h121.65v-113.37h112.45v-8.7151h-121.65"/>
   <path class="ps02" d="m678.67 598.28v1.6465h4.7207v12.904h1.9375v-12.904h4.7207v-1.6465zm13.193 0v14.551h1.9375v-11.814l3.9941 11.814h1.9375l3.873-11.814v11.814h1.9356v-14.551h-2.6621l-4.2363 12.371-4.1152-12.371z"/>
  </g>
  <path d="m31.796 65.646c0.0445-2.9427 0.0587-3.0721 0.42362-3.8503 0.76471-1.6309 1.9062-2.4855 3.9064-2.9249 2.1103-0.4635 4.381-0.03475 5.7331 1.0825 0.3793 0.31344 0.7667 0.56989 0.86088 0.56989 0.0942 0 0.38582-0.2214 0.6481-0.49201 0.85107-0.87809 1.6819-1.1377 3.8421-1.2005 2.4968-0.07256 3.5052 0.20176 4.6763 1.2721 1.4509 1.326 1.7954 2.5629 1.8036 6.4746l0.0044 2.1136h-2.2538l-0.09113-0.66483c-0.05012-0.36566-0.09148-1.5747-0.09192-2.6868-1e-3 -2.4418-0.13175-2.9803-0.91375-3.7623-0.75086-0.75086-1.4852-0.96034-3.0978-0.88365-1.3991 0.06654-2.1596 0.39905-2.693 1.1775-0.51608 0.75317-0.60251 1.2979-0.60459 3.81-1e-3 1.3009-0.0408 2.5104-0.0884 2.6877-0.0803 0.29978-0.1657 0.32241-1.216 0.32241h-1.1296l-4e-3 -2.4718c-4e-3 -2.7278-0.12084-3.4933-0.6588-4.3116-0.82894-1.2608-3.2292-1.711-4.942-0.9269-0.43977 0.20134-0.92431 0.5507-1.0789 0.77792-0.63694 0.9362-0.68222 1.1876-0.73898 4.1023l-0.0551 2.8301h-2.2872l0.046-3.045zm24.565 2.8184c-0.13337-0.34757-0.09896-5.9808 0.03786-6.1966 0.15215-0.23998 1.1316-0.37655 1.8006-0.25106l0.51061 0.09579v6.5786h-1.131c-0.89916 0-1.1489-0.04647-1.218-0.22666zm5.1027-2.7467c0.06774-3.3558 0.22448-4.0312 1.2001-5.171 1.331-1.555 4.1206-2.2588 6.6187-1.6698 1.8022 0.42489 3.0226 1.3577 3.7012 2.8289 0.40752 0.8835 0.41357 0.93513 0.46161 3.9402l0.04867 3.045h-2.2874l-0.05845-2.8301c-0.07578-3.6688-0.2864-4.2191-1.8842-4.9236-1.6699-0.7362-4.0656-0.25832-4.8809 0.97358-0.51487 0.77802-0.65772 1.7413-0.65772 4.4352v2.3448h-2.3217zm14.728-0.25431v-3.2277l0.36757-0.13975c0.20216-0.07686 0.58486-0.13975 0.85044-0.13975s0.64828 0.06289 0.85044 0.13975l0.36757 0.13975v6.4554h-2.436zm5.0443 2.3321 0.04266-0.89559 1.411-0.10057c1.6072-0.11455 2.6326-0.40827 3.2557-0.93256 0.75174-0.63255 0.88403-1.0764 1.0794-3.6214 0.17607-2.2936 0.19713-2.3928 0.72834-3.4338 0.994-1.9478 2.0427-2.4448 5.3832-2.5511l2.1136-0.06726v1.8535l-1.5404 0.08294c-1.901 0.10236-2.4815 0.26751-3.1901 0.90771-0.75686 0.68378-0.97045 1.3729-1.1276 3.6379-0.15421 2.2228-0.46206 3.2907-1.2126 4.2067-0.98105 1.1972-2.8549 1.8092-5.54 1.8092h-1.4458zm-24.875-7.4989c-0.04784-0.12466-0.08698-0.40956-0.08698-0.63311 0-0.80628 0.08053-0.85977 1.2945-0.85977 1.2536 0 1.2519-0.0016 1.1629 1.0985l-0.05025 0.62108h-1.1166c-0.886 0-1.1346-0.04681-1.2036-0.22666zm19.891 0.03418c-0.04319-0.11254-0.05833-0.48604-0.03366-0.83001l0.04487-0.6254h2.2927v1.5762l-1.1127 0.04189c-0.86048 0.0324-1.1305-0.0045-1.1912-0.16272z" stroke-width=".1433"/>
 </g>
 <style type="text/css">.st0{fill:#FC0C18;}
	.st1{fill:#FC0C18;}</style>
</svg>
