<svg width="480" height="320" version="1.1" viewBox="0 0 127 84.667" xmlns="http://www.w3.org/2000/svg" xmlns:xlink="http://www.w3.org/1999/xlink">
 <defs>
  <linearGradient id="a" x1="-5.1618" x2="83.117" y1="-39.397" y2="113.19" gradientUnits="userSpaceOnUse">
   <stop stop-color="#f9c440" offset="0"/>
   <stop stop-color="#9bdb4d" offset=".38578"/>
   <stop stop-color="#007367" offset="1"/>
  </linearGradient>
 </defs>
 <rect width="127" height="84.667" ry="4.2333" fill="url(#a)" stroke-linecap="square" stroke-linejoin="round" stroke-width=".52917" style="paint-order:stroke fill markers"/>
 <path id="b" d="m10.583 47.625v15.889h2.783v-14.184h1.7082c1.2319 0 1.788 0.03314 1.9973 0.12068 0.41311 0.17259 0.83837 0.69837 1.0126 1.2484 0.0914 0.28912 0.16679 0.91486 0.19358 1.6102 0.05523 1.4232-0.1099 2.3075-0.54428 2.881-0.45315 0.59868-0.7304 0.69312-2.0114 0.69312h-1.0996v1.7248l3.4559-0.06682 0.61138-0.28912c1.117-0.52688 1.928-1.6047 2.2553-2.9934 0.18281-0.77541 0.18004-2.509-0.0058-3.3411-0.17839-0.79971-0.5498-1.6052-0.96761-2.0929-0.1748-0.20379-0.5128-0.49623-0.7489-0.64811-0.80993-0.5197-1.1217-0.55256-5.0689-0.55256zm12.298 0v15.889h2.7827v-15.889h-1.3915zm34.897 0c-1.2465 2.76e-4 -2.5289 0.04418-2.8498 0.09555-0.72432 0.11543-1.569 0.49844-2.0479 0.93116-0.4827 0.43603-0.8936 1.0905-1.1164 1.7784-0.13862 0.42747-0.18226 0.81711-0.18778 1.6384-8e-3 1.133 0.08726 1.6157 0.4769 2.3787 0.25295 0.49651 0.92812 1.2131 1.3915 1.481 0.5382 0.31204 1.2264 0.47718 2.4099 0.57217 0.90023 0.0729 1.1101 0.11764 1.4028 0.31177 0.2303 0.15216 0.43189 0.40124 0.6031 0.74862 0.23997 0.48905 0.2535 0.5915 0.2524 1.6439-0.0011 1.0496-0.01574 1.1532-0.24742 1.5936-0.1563 0.29934-0.38246 0.56112-0.61911 0.71852l-0.3739 0.24715-2.3646 0.02844-2.3619 0.0254v1.6969h2.6869c1.6348 0 2.8752-0.04032 3.1643-0.10134 1.1002-0.23141 2.0156-0.94441 2.4599-1.9159 0.37418-0.81821 0.50645-1.6591 0.45729-2.9205-0.05192-1.3299-0.24853-2.0545-0.77983-2.8498-0.66026-0.98721-1.3984-1.3258-3.2737-1.4975-0.69367-0.06351-1.4045-0.17535-1.5793-0.24963-0.38605-0.16348-0.74697-0.57493-0.90603-1.0322-0.15685-0.45094-0.15492-1.7565 0.0058-2.3083 0.1574-0.54483 0.63651-1.0466 1.1419-1.1979 0.24383-0.07345 1.0637-0.10935 2.4433-0.10935h2.0785v-1.7066h-2.2669zm31.979 0v2.3342h2.783v-2.3342h-1.3915zm-26.759 1.7955 0.02872 5.7225c0.02485 5.6328 0.029 5.7311 0.22174 6.2419 0.10797 0.28526 0.33883 0.71245 0.5128 0.95076 0.35705 0.48601 0.82098 0.82677 1.4083 1.0322 0.28249 0.09914 0.76271 0.13752 1.6745 0.14083l1.2794 0.0055v-1.7054h-0.83589c-0.79557 0-0.84776-0.01077-1.0745-0.24715-0.14028-0.14608-0.2778-0.43161-0.3333-0.69588-0.06103-0.28526-0.08643-1.769-0.07069-4.0844l0.0254-3.6354 3.0072-0.0508v-1.6999h-3.0519v-1.9747h-1.3942zm19.218 0v5.6524c0 5.4668 0.0064 5.672 0.18557 6.2165 0.21291 0.64838 0.64562 1.2901 1.1164 1.6494 0.17949 0.13752 0.53544 0.32198 0.7906 0.40924 0.35595 0.12288 0.75387 0.16072 1.6999 0.16292l1.2341 0.0028v-1.7055h-0.79667c-0.66551 0-0.83395-0.02872-1.0292-0.18281-0.12896-0.10079-0.27504-0.33275-0.32585-0.51556-0.05661-0.20435-0.09278-1.8181-0.09278-4.1714v-3.8376h3.058l-0.02596-0.83036-0.02541-0.83064-1.5036-0.02485-1.5025-0.02568v-1.9689h-1.3915zm-2.4546 1.9521-2.9708 0.04805c-3.1944 0.04915-3.5252 0.08837-4.463 0.56388-1.0491 0.53158-1.7803 1.5638-2.1119 2.979-0.13862 0.5904-0.16292 1.0988-0.16292 3.3438 0 2.5488 0.0075 2.6678 0.2049 3.1558 0.39792 0.98335 0.99025 1.5906 1.843 1.885 0.37583 0.13006 0.76796 0.16016 2.0592 0.16237l1.5936 0.0033v-1.706h-1.1164c-1.0571 0-1.1289-0.01298-1.3802-0.2245-0.16624-0.13973-0.30155-0.37279-0.36451-0.62298-0.12509-0.49512-0.13117-4.4009-0.0086-5.3464 0.17425-1.3434 0.4769-1.9733 1.1084-2.3116 0.21732-0.11598 0.5926-0.1574 1.65-0.18502l1.3688-0.03645v10.433h2.8724v-3.3527c0-1.843-0.02872-4.5746-0.06213-6.0702zm-42.159 3e-3 -2.9846 0.04474c-3.2436 0.04998-3.7094 0.10935-4.595 0.58349-2.6168 1.5868-3.2014 8.6006-1.2708 10.635 0.32364 0.32916 0.86074 0.65391 1.3097 0.79088 0.12344 0.03811 0.96126 0.07152 1.8626 0.07511l1.6381 0.0086v-1.7046h-1.1471c-1.294 0-1.4644-0.06103-1.7082-0.6169-0.10908-0.2477-0.1516-0.73509-0.17949-2.0479-0.04032-1.8656 0.08947-3.8898 0.29161-4.5619 0.18143-0.60337 0.51943-1.0667 0.91707-1.262 0.2905-0.14249 0.55753-0.16928 1.6914-0.17121l1.3462-3e-3 0.02264 5.184 0.02264 5.1835h2.783v-6.0696zm2.9962 0.01961c-0.80855 0-1.4688 0.01022-1.4672 0.02264 0.0011 0.01243 0.92398 2.7219 2.0506 6.023l2.0479 6.0028-1.1532 2.9741c-0.63375 1.6367-1.1529 2.9873-1.1529 3.0014 0 0.01381 0.55035 0.01381 1.223 0l1.2233-0.02541 3.5763-8.9769c1.9681-4.9372 3.5796-8.9863 3.5796-8.999 5.52e-4 -0.01243-0.58045-0.02264-1.2935-0.02264-0.93999 0-1.3161 0.0312-1.3661 0.11267-0.03783 0.06158-0.72543 1.8068-1.5257 3.8795-0.79999 2.0722-1.4903 3.7799-1.5367 3.7953-0.04695 0.01574-0.68263-1.7303-1.4105-3.8795l-1.3244-3.908zm49.158 0v12.118h2.783v-12.118h-1.3915zm16.831 0.04473-0.026 6.0368h3e-3l-0.0254 6.0368h2.8752v-10.432l1.3688 0.03673c1.4531 0.03783 1.6958 0.09831 2.1039 0.53544 0.31978 0.34242 0.54842 0.96622 0.65032 1.7781 0.0527 0.42498 0.0961 2.3757 0.0961 4.4211v3.6614h2.7819l-3e-3 -3.5683c-5.6e-4 -3.7845-0.0668-4.6826-0.43162-5.7087-0.49623-1.3954-1.4094-2.2227-2.8945-2.6256-0.49126-0.13338-1.0162-0.15657-3.5377-0.16292zm-7.0356 0.02541c-0.7848 0-1.5668 0.09858-2.1288 0.29188-0.74807 0.25737-1.2178 0.55864-1.6892 1.0828-0.51142 0.56886-0.88173 1.339-1.0991 2.2807-0.13255 0.57714-0.16458 1.0618-0.1563 2.4682 0.0069 1.4799 0.03673 1.8582 0.19634 2.4436 0.27034 0.99301 0.62408 1.6616 1.1612 2.205 0.52909 0.53517 1.3111 0.94496 2.1915 1.1449 0.39599 0.08947 0.94496 0.11791 1.7842 0.09527 1.4464-0.03866 2.1346-0.22478 2.9788-0.80192 0.70775-0.4838 1.2426-1.2473 1.5458-2.208 0.43354-1.3716 0.50976-3.6329 0.17701-5.3017-0.16182-0.81076-0.55505-1.6897-0.99357-2.2246-0.412-0.50286-1.0869-0.94386-1.809-1.1838-0.58405-0.19358-1.3741-0.29216-2.1589-0.29216zm0.03397 1.6718c0.40731 0 0.81544 0.0787 1.1358 0.24107 0.41808 0.21208 0.68069 0.58101 0.90879 1.2791 0.14939 0.45646 0.18667 0.87206 0.22174 2.3817 0.0458 1.9719-0.0447 2.9012-0.3507 3.6017-0.21567 0.49512-0.56471 0.87979-0.94828 1.0435-0.16403 0.07014-0.59536 0.12316-0.99549 0.12316-0.56747 0-0.78535-0.04032-1.1024-0.20711-0.24908-0.132-0.4896-0.3576-0.64507-0.6089-0.40566-0.65446-0.53931-1.513-0.54483-3.4471-0.0044-1.8413 0.09058-2.5814 0.42996-3.3303 0.11488-0.25405 0.34684-0.56416 0.51887-0.69588 0.32695-0.24936 0.84776-0.38108 1.3716-0.38108z" fill="#fafafa"/>
 <g transform="matrix(.25749 0 0 .25749 28.399 -67.33)" fill="#fafafa">
  <path d="m142.21 336.37-0.099 89.525-23.986-7.801v-105.23l30.618 8.096c19.599 5.267 31.592 15.507 31.398 33.45-0.195 20.873-9.849 29.257-28.667 23.796v-41.154c-2e-3 -4.976-9.264-5.267-9.264-0.682z"/>
  <path d="m107.1 400.74-11.311 3.805c-7.314 2.537-13.554-3.412-6.826-5.854l5.46-1.947-20.575-6.537c-6.338 2.148-12.288 6.73-11.896 13.168 0.39 6.533 15.309 8.096 26.815 9.947 10.726 1.754 20.477 0.779 29.351-2.342v-6.73zm35.2 25.162 20.965-7.313-21.16-6.729v13.558z" fill-opacity=".8"/>
  <path d="m198.08 406.3 0.389-0.099c9.167-3.218 13.067-7.707 12.092-11.898-1.56-7.021-12.773-10.826-30.033-12.094-12.384-0.877-24.572 1.854-36.468 5.947l-1.95 0.686 21.355 6.633 12.48-4.197c13.067-2.436 18.333 1.854 5.755 5.854l-6.242 2.146zm-79.958-31.013-9.459 3.217 9.459 2.926z" fill-opacity=".4"/>
  <path d="m163.27 418.58 34.812-12.286-22.624-7.022-33.348 11.41v1.17zm-45.146-21.552-11.019 3.705 11.019 3.512zm23.985 5.755v-13.945l21.355 6.631zm-47.682-6.046 23.696-8.485v-6.826l-9.459-2.927-34.324 11.605c-0.097 0-0.292 0.096-0.487 0.096z" fill-opacity=".6"/>
 </g>
 <style type="text/css">.st0{fill:#FC0C18;}
	.st1{fill:#FC0C18;}</style>
</svg>
