<svg width="480" height="320" version="1.1" viewBox="0 0 480 320" xmlns="http://www.w3.org/2000/svg"><defs><linearGradient id="a" x1="44.25" x2="76.84" y1="-64.48" y2="95.97" gradientTransform="scale(3.78)" gradientUnits="userSpaceOnUse"><stop stop-color="#f9c440" offset="0"/><stop stop-color="#9bdb4d" offset=".3858"/><stop stop-color="#007367" offset="1"/></linearGradient></defs><rect width="480" height="320" ry="24" fill="url(#a)"/><path d="m40 180v60.05h10.52v-53.61h6.456c4.656 0 6.758 0.1252 7.549 0.4561 1.561 0.6523 3.169 2.64 3.827 4.718 0.3455 1.093 0.6304 3.458 0.7317 6.086 0.2087 5.379-0.4154 8.721-2.057 10.89-1.713 2.263-2.761 2.62-7.602 2.62h-4.156v6.519l13.06-0.2525 2.311-1.093c4.222-1.991 7.287-6.065 8.524-11.31 0.691-2.931 0.6805-9.483-0.02192-12.63-0.6742-3.022-2.078-6.067-3.657-7.91-0.6607-0.7702-1.938-1.876-2.831-2.45-3.061-1.964-4.24-2.088-19.16-2.088zm46.48 0v60.05h10.52v-60.05h-5.259zm131.9 0c-4.711 1e-3 -9.558 0.167-10.77 0.3611-2.738 0.4363-5.93 1.884-7.74 3.519-1.824 1.648-3.377 4.122-4.22 6.722-0.5239 1.616-0.6889 3.088-0.7097 6.192-0.0302 4.282 0.3298 6.107 1.802 8.99 0.9561 1.877 3.508 4.585 5.259 5.598 2.034 1.179 4.635 1.804 9.109 2.162 3.402 0.2755 4.196 0.4446 5.302 1.178 0.8704 0.5751 1.632 1.516 2.279 2.829 0.907 1.848 0.9581 2.236 0.954 6.213-4e-3 3.967-0.0595 4.358-0.9352 6.023-0.5908 1.131-1.446 2.121-2.34 2.716l-1.413 0.9341-8.937 0.1075-8.927 0.096v6.414h10.16c6.179 0 10.87-0.1524 11.96-0.383 4.158-0.8746 7.618-3.569 9.298-7.241 1.414-3.092 1.914-6.271 1.728-11.04-0.1962-5.026-0.9393-7.765-2.947-10.77-2.496-3.731-5.285-5.011-12.37-5.66-2.622-0.24-5.308-0.6627-5.969-0.9435-1.459-0.6179-2.823-2.173-3.424-3.901-0.5928-1.704-0.5855-6.639 0.0219-8.724 0.5949-2.059 2.406-3.956 4.316-4.528 0.9216-0.2776 4.02-0.4133 9.235-0.4133h7.856v-6.45h-8.568zm120.9 0v8.822h10.52v-8.822h-5.259zm-101.1 6.786 0.1086 21.63c0.0939 21.29 0.1096 21.66 0.8381 23.59 0.4081 1.078 1.281 2.693 1.938 3.593 1.35 1.837 3.103 3.125 5.323 3.901 1.068 0.3747 2.883 0.5198 6.329 0.5323l4.836 0.0208v-6.446h-3.159c-3.007 0-3.204-0.0407-4.061-0.9341-0.5302-0.5521-1.05-1.631-1.26-2.63-0.2307-1.078-0.3267-6.686-0.2672-15.44l0.096-13.74 11.37-0.192v-6.425h-11.54v-7.463h-5.27zm72.64 0v21.36c0 20.66 0.0242 21.44 0.7014 23.5 0.8047 2.451 2.44 4.876 4.22 6.234 0.6784 0.5198 2.024 1.217 2.988 1.547 1.345 0.4644 2.849 0.6074 6.425 0.6158l4.664 0.0106v-6.446h-3.011c-2.515 0-3.152-0.1085-3.89-0.6909-0.4874-0.3809-1.04-1.258-1.232-1.949-0.214-0.7723-0.3507-6.872-0.3507-15.77v-14.5h11.56l-0.0981-3.138-0.096-3.139-5.683-0.0939-5.679-0.0971v-7.442h-5.259zm-9.277 7.378-11.23 0.1816c-12.07 0.1858-13.32 0.334-16.87 2.131-3.965 2.009-6.729 5.91-7.982 11.26-0.5239 2.231-0.6158 4.153-0.6158 12.64 0 9.633 0.0283 10.08 0.7744 11.93 1.504 3.717 3.743 6.012 6.966 7.124 1.421 0.4916 2.903 0.6053 7.783 0.6137l6.023 0.0125v-6.448h-4.22c-3.995 0-4.267-0.0491-5.217-0.8485-0.6283-0.5281-1.14-1.409-1.378-2.355-0.4728-1.871-0.4958-16.63-0.0325-20.21 0.6586-5.077 1.802-7.458 4.189-8.737 0.8214-0.4383 2.24-0.5949 6.236-0.6993l5.174-0.1378v39.43h10.86v-12.67c0-6.966-0.1086-17.29-0.2348-22.94zm-159.3 0.0113-11.28 0.1691c-12.26 0.1889-14.02 0.4133-17.37 2.205-9.891 5.997-12.1 32.51-4.803 40.2 1.223 1.244 3.253 2.472 4.95 2.989 0.4666 0.144 3.633 0.2703 7.04 0.2839l6.191 0.0325v-6.443h-4.336c-4.891 0-5.535-0.2307-6.456-2.332-0.4123-0.9362-0.573-2.778-0.6784-7.74-0.1524-7.051 0.3382-14.7 1.102-17.24 0.6857-2.28 1.963-4.032 3.466-4.77 1.098-0.5385 2.107-0.6398 6.393-0.6471l5.088-0.0113 0.0856 19.59 0.0856 19.59h10.52v-22.94zm11.32 0.0741c-3.056 0-5.552 0.0386-5.545 0.0856 4e-3 0.047 3.492 10.29 7.75 22.76l7.74 22.69-4.359 11.24c-2.395 6.186-4.358 11.29-4.358 11.34 0 0.0522 2.08 0.0522 4.623 0l4.624-0.096 13.52-33.93c7.439-18.66 13.53-33.96 13.53-34.01 2e-3 -0.047-2.194-0.0856-4.889-0.0856-3.553 0-4.974 0.1179-5.163 0.4258-0.143 0.2327-2.742 6.829-5.767 14.66-3.024 7.832-5.633 14.29-5.808 14.34-0.1775 0.0595-2.58-6.54-5.331-14.66l-5.006-14.77zm185.8 0v45.8h10.52v-45.8h-5.259zm63.61 0.1691-0.0983 22.82h0.0113l-0.096 22.82h10.87v-39.43l5.174 0.1388c5.492 0.143 6.409 0.3716 7.952 2.024 1.209 1.294 2.073 3.652 2.458 6.72 0.1992 1.606 0.3632 8.979 0.3632 16.71v13.84h10.51l-0.0113-13.49c-2e-3 -14.3-0.2525-17.7-1.631-21.58-1.876-5.274-5.327-8.401-10.94-9.924-1.857-0.5041-3.841-0.5918-13.37-0.6158zm-26.59 0.096c-2.966 0-5.922 0.3726-8.046 1.103-2.827 0.9727-4.603 2.111-6.385 4.092-1.933 2.15-3.333 5.061-4.154 8.62-0.501 2.181-0.622 4.013-0.5908 9.329 0.0261 5.593 0.1388 7.023 0.7421 9.236 1.022 3.753 2.359 6.28 4.389 8.334 2 2.023 4.955 3.572 8.283 4.327 1.497 0.3382 3.572 0.4456 6.744 0.3601 5.467-0.1461 8.068-0.8496 11.26-3.031 2.675-1.828 4.697-4.714 5.843-8.345 1.639-5.184 1.927-13.73 0.669-20.04-0.6116-3.064-2.098-6.386-3.755-8.408-1.557-1.901-4.108-3.567-6.837-4.474-2.207-0.7316-5.194-1.104-8.16-1.104zm0.1284 6.319c1.539 0 3.082 0.2974 4.293 0.9111 1.58 0.8016 2.573 2.196 3.435 4.834 0.5646 1.725 0.7056 3.296 0.8381 9.002 0.1731 7.453-0.169 10.96-1.326 13.61-0.8152 1.871-2.134 3.325-3.584 3.944-0.62 0.2651-2.25 0.4655-3.763 0.4655-2.145 0-2.968-0.1524-4.167-0.7828-0.9414-0.4989-1.851-1.352-2.438-2.301-1.533-2.474-2.038-5.718-2.059-13.03-0.0166-6.959 0.3424-9.756 1.625-12.59 0.4342-0.9602 1.311-2.132 1.961-2.63 1.236-0.9425 3.204-1.44 5.184-1.44z" fill="#fff"/><path d="m222.3 152.4 23.34 7.592 20.59-7.109 34.07-12.01c9.115-3.18 12.91-7.547 11.96-11.63-1.518-6.833-12.43-10.54-29.23-11.77-1.506-0.1067-3.009-0.1589-4.51-0.1602-10.5-9e-3 -20.85 2.462-30.98 5.947l-1.857 0.6543 0.0566-51.05c0-4.462 9.014-4.18 9.016 0.6621v40.05c18.31 5.315 27.71-2.845 27.9-23.16 0.1888-17.46-11.48-27.43-30.55-32.55l-29.8-7.879-1e-3 60.75-9.201 3.125-33.89 11.39c-6.168 2.09-11.96 6.549-11.58 12.81 0.3795 6.358 14.9 7.88 26.1 9.682 10.44 1.707 19.93 0.758 28.57-2.295zm1.5e-4 -39.54v8.379l-23.74 8.5-5.32 1.902h-4e-3c-1.975 0.7168-3.477 1.861-3.967 3.57-0.49 1.71 0.341 3.41 1.504 4.461 2.326 2.101 6.248 2.757 10.42 1.311l21.1-7.098v9.496l-1.732 0.5938c-7.971 2.575-16.91 3.383-26.52 1.812-5.647-0.9082-12.04-1.747-16.89-3.086-2.428-0.6697-4.462-1.48-5.748-2.342-1.286-0.8614-1.729-1.561-1.779-2.398v-2e-3c-0.1517-2.491 0.8679-4.565 2.746-6.434 1.877-1.867 4.628-3.285 7.488-4.238l33.37-11.35zm23.37 22.52 0.01-9.371 2.517-0.8516c10.01-3.443 20.14-5.844 30.32-5.836l-5.5e-4 -1.5e-4c1.453 1e-3 2.908 0.0513 4.365 0.1543 8.284 0.6086 15.06 1.844 19.77 3.658 4.708 1.815 7.095 4.05 7.653 6.561 0.3084 1.323-0.0405 2.643-1.663 4.305-1.591 1.63-4.47 3.369-8.623 4.845l-34.45 12.16-19.92 6.949 0.0117-10.65 32.58-11.15 0.0117 2e-3 6.531-2.244 6e-3 -2e-3c3.193-1.016 5.337-2.013 6.775-3.258 0.7197-0.6227 1.34-1.355 1.539-2.416 0.1996-1.061-0.3147-2.257-1.012-2.898-1.394-1.283-3.144-1.552-5.438-1.684-2.293-0.1312-5.043-0.2284-8.512 0.7012l-11.85 3.97zm-23.37-3.477-10.73 3.611-11.01 3.703c-7.118 2.469-13.19-3.321-6.643-5.697l5.316-1.9 23.06-8.262zm56.27-5.596c2.355-0.7918 4.501-0.6582 6.287-0.6875 7.74-0.1268 9.258 3.222-0.6876 6.385l-6.064 2.084-0.01-2e-3 -32.44 11.1 0.01-7.691 20.75-7.103z" fill="#fff"/></svg>
