<svg width="480" height="320" version="1.1" viewBox="0 0 480 320" xml:space="preserve" xmlns="http://www.w3.org/2000/svg"><defs><linearGradient id="a" x1="240" x2="240" y1="217.3" y2="-29.23" gradientUnits="userSpaceOnUse"><stop stop-color="#193d62" offset="0"/><stop stop-color="#f44225" offset="1"/></linearGradient></defs><rect id="b" width="480" height="320" ry="24" fill="url(#a)"/><path d="m375.8 83.43c-14.92 0-27.67 5.433-38.24 16.3-5.101 5.244-8.958 10.91-11.6 16.99v-15.63c0-4.918-1.425-8.916-4.275-11.97-2.85-3.058-6.412-4.592-10.66-4.592-4.255 0-7.779 1.534-10.58 4.592s-4.195 7.045-4.195 11.97v45.2c-0.3985-1.696-0.8955-3.337-1.505-4.915-1.761-4.562-4.413-8.589-7.966-12.09-3.553-3.503-6.986-5.899-10.3-7.196-3.325-1.296-6.789-2.245-10.42-2.839-3.632-0.5938-5.848-1.089-6.65-1.475-0.8115-0.3958-1.208-1.178-1.208-2.375 0-0.7818 0.347-1.504 1.059-2.167 0.6927-0.6729 1.356-1.009 1.98-1.009 1.761 1e-5 3.927 0.3761 6.49 1.128 2.563 0.7521 4.523 1.128 5.869 1.128 3.988 1e-5 7.431-1.465 10.34-4.394 2.899-2.929 4.355-5.928 4.355-8.986 0-6.017-2.107-10.43-6.333-13.26-4.226-2.82-10.83-4.236-19.79-4.236-10 0-18.05 3.128-24.15 9.372-6.086 6.254-9.134 13.47-9.134 21.66 0 8.659 2.474 15.94 7.422 21.85 4.948 5.918 11.55 9.46 19.79 10.66 7.887 1.188 11.82 3.524 11.82 6.997 0 5.185-2.236 7.778-6.689 7.778-2.276 0-4.79-1.513-7.541-4.551s-5.077-4.939-6.967-5.72c-1.89-0.7818-3.929-1.167-6.106-1.167-4.156 0-7.699 1.414-10.66 4.234-0.8246 0.7887-1.521 1.618-2.115 2.481l-28.69-62.2c-1.504-3.206-3.622-5.76-6.344-7.65-2.721-1.88-5.62-2.83-8.678-2.83-3.008 0-5.869 0.9389-8.591 2.809-2.721 1.87-4.838 4.443-6.342 7.719l-29.36 63.03c-2.684-2.203-5.69-3.314-9.018-3.314-2.603 0-5.869 0.8999-9.817 2.711-5.759 2.642-11.42 3.969-16.97 3.969-6.492 0-12.17-2.415-17.05-7.234-4.889-4.819-7.322-10.31-7.322-16.49 0-6.274 2.443-11.8 7.351-16.57 4.898-4.77 10.58-7.155 17.01-7.155 5.601 0 11.26 1.296 16.97 3.889 3.899 1.761 7.165 2.642 9.817 2.642 4.206 0 7.727-1.565 10.59-4.702 2.86-3.137 4.286-6.174 4.286-9.133 0-7.936-4.265-13.77-12.82-17.5-8.56-3.731-18.15-5.6-28.78-5.6-14.52 0-27.16 5.323-37.95 15.98-10.79 10.66-16.18 23.37-16.18 38.15 0 14.72 5.344 27.42 16.02 38.11 10.68 10.68 23.38 16.02 38.11 16.02 10.26 0 19.76-1.889 28.5-5.68 1.16-0.5017 2.238-1.041 3.243-1.614 0.4697 0.6524 0.9799 1.295 1.566 1.92 2.959 3.157 6.542 4.741 10.74 4.741 5.967 0 10.53-3.078 13.7-9.253l3.375-6.689v-9e-3h37.67l3.553 6.689c3.216 6.165 7.778 9.253 13.7 9.253 4.196 0 7.748-1.565 10.66-4.702 1.339-1.444 2.355-2.972 3.078-4.576 0.6826 0.6074 1.401 1.203 2.167 1.785 6.996 5.324 15.55 7.977 25.66 7.977 9.441 0 17.75-3.662 24.93-10.98 4.85-4.943 8.055-10.23 9.628-15.85v9.481c0 4.918 1.385 8.885 4.156 11.89 2.781 3.008 6.314 4.512 10.62 4.512 4.354 0 7.935-1.504 10.74-4.512 2.801-2.998 4.197-6.965 4.197-11.89v-15.66c2.639 6.066 6.496 11.71 11.6 16.93 10.57 10.82 23.31 16.22 38.24 16.22 14.98 0 27.75-5.412 38.32-16.22 10.57-10.81 15.85-23.44 15.85-37.91s-5.304-27.13-15.89-37.99c-10.6-10.86-23.36-16.29-38.28-16.29zm-9e-3 29.79c6.699 0 12.46 2.493 17.26 7.5 4.799 4.997 7.205 10.67 7.205 16.99 0 6.581-2.375 12.29-7.125 17.11-4.75 4.819-10.53 7.234-17.33 7.234-6.749 0-12.5-2.415-17.27-7.273-4.75-4.849-7.125-10.54-7.125-17.07 0-6.373 2.473-12.05 7.401-17.03 4.938-4.968 10.6-7.461 16.98-7.461zm-191.7 18.28 6.967 15.16h-13.91zm-21.68 64.98c-1.524 1e-5 -2.801 0.5733-3.82 1.731-0.7048 0.8006-1.157 1.664-1.373 2.585-0.2138-0.2566-0.437-0.5088-0.6754-0.7533-2.316-2.365-5.303-3.553-8.984-3.553h-9.016c-1.662 0-3.068 0.5059-4.216 1.525-1.138 1.019-1.713 2.215-1.713 3.581v28.79c0 1.86 0.5245 3.354 1.573 4.492s2.385 1.703 4.008 1.703c1.643 0 2.99-0.5653 4.049-1.703s1.583-2.632 1.583-4.492v-9.411h5.522c2.662 0 5.107-1.296 7.324-3.889 2.046-2.382 3.145-4.898 3.31-7.555l10.75 23.14c0.5443 1.197 1.337 2.147 2.356 2.85 1.029 0.7026 2.078 1.059 3.147 1.059 1.168 0 2.266-0.347 3.275-1.03 1.019-0.6828 1.811-1.643 2.375-2.88l13.3-28.67c0.2573-0.5344 0.3859-1.177 0.3859-1.939 0-1.583-0.5548-2.909-1.683-3.978-1.128-1.069-2.661-1.603-4.611-1.603-0.851 1e-5 -1.722 0.326-2.603 0.9593-0.8708 0.6432-1.524 1.435-1.959 2.375l-8.342 19.03-8.411-19.05c-0.9797-2.207-2.83-3.316-5.552-3.316zm65.92 0c-0.9698 0-1.909 0.3074-2.809 0.911l-8.413 5.403c-1.346 0.8807-2.019 2.484-2.019 4.809 0 1.376 0.5554 2.572 1.674 3.611 1.118 1.039 2.255 1.555 3.433 1.555 0.2771 0 1.237-0.2183 2.88-0.6735v18.29c0 1.86 0.535 3.354 1.594 4.492 1.069 1.138 2.415 1.703 4.028 1.703s2.959-0.5653 4.008-1.703c1.059-1.138 1.583-2.632 1.583-4.492h-9e-3v-3.457c0.812 1.257 1.781 2.463 2.919 3.614 3.968 4.018 8.797 6.027 14.47 6.027 5.67 0 10.49-2.009 14.47-6.027 1.67-1.691 2.984-3.497 3.952-5.416 0.9682 1.919 2.284 3.725 3.954 5.416 3.968 4.018 8.797 6.027 14.47 6.027s10.49-2.009 14.47-6.027c1.67-1.691 2.984-3.497 3.952-5.416 0.9682 1.919 2.284 3.725 3.954 5.416 3.968 4.018 8.797 6.027 14.47 6.027 5.67 0 10.49-2.009 14.47-6.027 3.968-4.018 5.956-8.679 5.956-13.98 0-5.324-1.988-10-5.956-14.03-3.968-4.028-8.799-6.047-14.47-6.047-5.7 0-10.52 2.019-14.48 6.047-1.668 1.697-2.979 3.507-3.945 5.429-0.9681-1.925-2.283-3.735-3.952-5.429-3.968-4.028-8.799-6.047-14.47-6.047-5.69 0-10.52 2.019-14.48 6.047-1.668 1.697-2.979 3.507-3.945 5.429-0.9681-1.925-2.283-3.735-3.952-5.429-3.968-4.028-8.799-6.047-14.47-6.047-5.69 0-10.52 2.019-14.48 6.047-1.134 1.154-2.1 2.36-2.909 3.618v-4.44c0-1.257-0.5455-2.435-1.644-3.553-1.089-1.118-2.523-1.672-4.305-1.672zm-84.5 10.45h3.909c0.4948 1e-5 0.8894 0.1874 1.206 0.5733 0.3068 0.3859 0.4657 0.8016 0.4657 1.247 0 0.4552-0.1589 0.8616-0.4657 1.238-0.3167 0.3661-0.7212 0.5548-1.206 0.5548h-3.909zm107.8 0.6142c2.514 0 4.68 0.8702 6.49 2.622 1.811 1.752 2.722 3.879 2.722 6.383 0 2.454-0.9197 4.553-2.741 6.314-1.831 1.761-3.989 2.642-6.483 2.642-2.533 0-4.699-0.8715-6.49-2.633-1.811-1.752-2.713-3.859-2.713-6.323 0-2.424 0.8721-4.532 2.624-6.323 1.742-1.791 3.939-2.681 6.591-2.681zm36.84 0c2.514 0 4.68 0.8702 6.49 2.622 1.811 1.752 2.722 3.879 2.722 6.383 0 2.454-0.9197 4.553-2.741 6.314-1.831 1.761-3.989 2.642-6.483 2.642-2.533 0-4.699-0.8715-6.49-2.633-1.811-1.752-2.713-3.859-2.713-6.323 0-2.424 0.8721-4.532 2.624-6.323 1.742-1.791 3.939-2.681 6.591-2.681zm36.84 0c2.514 0 4.68 0.8702 6.49 2.622 1.811 1.752 2.722 3.879 2.722 6.383 0 2.454-0.9197 4.553-2.741 6.314-1.831 1.761-3.989 2.642-6.483 2.642-2.533 0-4.699-0.8715-6.49-2.633-1.811-1.752-2.713-3.859-2.713-6.323 0-2.424 0.8721-4.532 2.624-6.323 1.742-1.791 3.939-2.681 6.591-2.681zm-127 4.195c-3.058 1e-5 -5.531 2.473-5.531 5.531s2.473 5.533 5.531 5.533h9.5c3.058 0 5.531-2.475 5.531-5.533s-2.473-5.531-5.531-5.531z" fill="#fff"/></svg>
