<svg width="480" height="320" version="1.1" viewBox="0 0 480 320" xml:space="preserve" xmlns="http://www.w3.org/2000/svg"><defs><linearGradient id="a" x1="68.49" x2="94.68" y1="-41.01" y2="96.49" gradientTransform="scale(3.78)" gradientUnits="userSpaceOnUse"><stop stop-color="#667885" offset="0"/><stop stop-color="#273445" offset="1"/></linearGradient></defs><rect width="480" height="320" ry="24" fill="url(#a)"/><path d="m273.9 170.1 37.94 37.67c3.127 3.104 3.121 8.164-0.014 11.26l-15.18 15c-3.149 3.112-8.22 3.097-11.35-0.0344l-37.65-37.65a4.828 4.828 67.5 0 1-1.414-3.414v-5.36l18.88-18.88 5.364-4e-3a4.848 4.848 22.38 0 1 3.419 1.408zm3.014-24.45-4.206-4.163a1.004 1.004 179.8 0 0-1.417 4e-3l-37.61 37.69v13.76a4.828 4.828 112.5 0 1-1.414 3.414l-37.97 37.97c-3.119 3.119-8.18 3.104-11.28-0.0342l-15-15.18c-3.112-3.149-3.097-8.22 0.0344-11.35l37.65-37.65a4.828 4.828 157.5 0 1 3.414-1.414h13.76l5.533-5.533a1.001 1.001 90.04 0 0 9.2e-4 -1.415l-30.01-30.09h-8.4c-1.28 5e-5 -2.507-0.512-3.407-1.422l-19.66-19.88a2.011 2.011 90.16 0 1 8e-3 -2.836l18.13-18.13a2 2 0 0 1 2.828 0l19.58 19.58c0.9054 0.9055 1.414 2.134 1.414 3.414v8.48l30.41 30.02a1.006 1.006 179.8 0 0 1.419-5e-3l19.87-19.87a1.026 1.026 90.73 0 0 0.0182-1.432l-4.235-4.456c-1.535-1.615-1.508-4.158 0.0618-5.739l6.878-6.931a0.4165 0.4165 67.39 0 0-0.2956-0.7098h-18.28c-1.28 5e-5 -2.509-0.5086-3.414-1.414l-2.372-2.372a2.003 2.003 89.96 0 1-2e-3 -2.831l23.66-23.73a1.997 1.997 180 0 1 2.826-0.0021l2.452 2.452c0.9054 0.9055 1.414 2.134 1.414 3.414v18.28a0.412 0.412 22.39 0 0 0.7044 0.2902l6.958-7.011c1.554-1.566 4.086-1.571 5.646-0.01073l23.41 23.41c8.244 8.32 8.694 21.57 1.349 30.36-0.708 0.8474-1.976 0.8358-2.749 0.047l-13.66-13.94a0.99 0.99 0.2879 0 0-1.407-7e-3l-6.945 6.945c-1.564 1.564-4.098 1.571-5.671 0.0147z" fill="#fff"/></svg>
