<?xml version="1.0" encoding="UTF-8" standalone="no"?>
<svg
   width="480"
   height="320"
   version="1.1"
   viewBox="0 0 480 320"
   xml:space="preserve"
   id="svg218"
   sodipodi:docname="cdi.svg"
   inkscape:version="1.1.1 (3bf5ae0d25, 2021-09-20)"
   xmlns:inkscape="http://www.inkscape.org/namespaces/inkscape"
   xmlns:sodipodi="http://sodipodi.sourceforge.net/DTD/sodipodi-0.dtd"
   xmlns="http://www.w3.org/2000/svg"
   xmlns:svg="http://www.w3.org/2000/svg"><sodipodi:namedview
     id="namedview220"
     pagecolor="#ffffff"
     bordercolor="#666666"
     borderopacity="1.0"
     inkscape:pageshadow="2"
     inkscape:pageopacity="0.0"
     inkscape:pagecheckerboard="0"
     showgrid="false"
     inkscape:zoom="1.3182814"
     inkscape:cx="284.84056"
     inkscape:cy="108.85385"
     inkscape:window-width="1680"
     inkscape:window-height="987"
     inkscape:window-x="-8"
     inkscape:window-y="-8"
     inkscape:window-maximized="1"
     inkscape:current-layer="svg218" /><defs
     id="defs213"><linearGradient
       id="a"
       x1="147.4"
       x2="334.6"
       y1="291.2"
       y2="-32.92"
       gradientUnits="userSpaceOnUse"><stop
         stop-color="#0055d4"
         offset="0"
         id="stop208" /><stop
         stop-color="#37abc8"
         offset="1"
         id="stop210" /></linearGradient></defs><rect
     id="b"
     width="480"
     height="320"
     ry="24"
     fill="url(#a)" /><path
     d="m 193.41878,89.298105 15.95374,19.635375 h -31.90748 l -7.36327,29.45306 h -19.63538 l 7.36326,-29.45306 h -19.63537 l -14.72652,58.90611 h 39.27073 l -4.90884,19.63539 h 34.36191 l -25.77142,29.45305 h 28.83945 l 23.93061,-29.45305 h 53.99727 l 23.93062,29.45305 h 28.83944 l -25.77142,-29.45305 h 34.36191 l -4.90884,-19.63539 h 39.27074 l -14.72653,-58.90611 h -19.63537 l 7.36326,29.45306 H 322.2759 l -7.36326,-29.45306 H 283.00516 L 298.9589,89.298105 H 278.09632 L 260.91537,108.93348 H 231.4623 L 214.28136,89.298105 Z m 2.45441,39.270745 h 19.63537 v 19.63537 h -19.63537 z m 81.04706,0 h 19.63536 v 19.63537 h -19.63536 z"
     id="path771"
     style="fill:#ffffff;stroke-width:10.2268" /></svg>
