<svg width="480" height="320" version="1.1" viewBox="0 0 480 320" xml:space="preserve" xmlns="http://www.w3.org/2000/svg"><defs><linearGradient id="a" x1="361.3" x2="240" y1="362.3" y2="-90.49" gradientUnits="userSpaceOnUse"><stop stop-color="#800000" offset="0"/><stop stop-color="#ff2a2a" offset="1"/></linearGradient></defs><rect id="b" width="480" height="320" ry="24" fill="url(#a)"/><path d="m275.2 237.7c-1.76 0-2.959 1.28-2.959 3 0 1.68 1.199 2.959 2.959 2.959 1.8 0 2.961-1.279 2.961-2.959 0-1.72-1.161-3-2.961-3zm-68.48 1.559-4.92 0.5215v25.32c0 3 1.8 4.92 4.68 4.92 1.2 0 2.321-0.3598 3.041-0.7598l-0.9609-3.359c-0.2 0.04-0.5189 0.1602-0.8789 0.1602-0.64 0-0.9609-0.4802-0.9609-1.16zm10.76 0-4.92 0.5215v25.32c0 3 1.802 4.92 4.682 4.92 1.2 0 2.319-0.3598 3.039-0.7598l-0.9609-3.359c-0.2 0.04-0.5189 0.1602-0.8789 0.1602-0.64 0-0.9609-0.4802-0.9609-1.16zm-45.6 1.961c-5.76 0-10.2 4.52-10.2 14.32 0 9.92 4.239 14.48 10.2 14.48 3.2 0 5.601-1.598 7.121-3.318l-2.441-2.801c-1.24 1.04-2.438 2.039-4.318 2.039-3.12 0-5.201-2.638-5.201-10.4 0-7.96 2.161-10.44 5.121-10.44 1.6 0 2.838 0.6809 4.158 1.881l2.441-2.92c-1.92-1.8-3.961-2.84-6.881-2.84zm92.72 1.76-4.92 0.5996v4.68h-2.48v3.561h2.48v12.32c0 3.48 1.839 5.879 5.639 5.879 1.64 0 3.282-0.5186 4.602-1.559l-1.721-3.041c-0.72 0.4-1.199 0.6406-1.959 0.6406-1.12 0-1.641-0.7199-1.641-1.92v-12.32h3.52l0.4805-3.561h-4zm-75.48 4.721c-5.24 0-8.439 3.879-8.439 11.12 0 7.28 3.199 11.2 8.439 11.2s8.439-4.159 8.439-11.2c0-7.52-3.199-11.12-8.439-11.12zm41.4 0c-5.28 0-8.121 4.438-8.121 11.32 0 6.96 3.042 11 8.602 11 2.84 0 5.039-1.079 6.719-2.719l-2.039-2.801c-1.48 1.2-2.72 1.76-4.4 1.76-2.2 0-3.68-1.239-3.92-5.879h10.92c0.04-0.56 0.1191-1.361 0.1191-2.041 0-7.12-2.999-10.64-7.879-10.64zm19.72 0c-5.16 0-8.521 4.158-8.521 11.32 0 7.4 3.28 11 8.6 11 2.28 0 4.161-0.9594 5.721-2.439l-2.199-2.84c-1.16 0.84-2.041 1.32-3.281 1.32-2.16 0-3.639-1.561-3.639-7.121 0-5.6 1.359-7.439 3.639-7.439 1.24 0 2.241 0.4804 3.361 1.4l2.119-2.801c-1.68-1.64-3.479-2.398-5.799-2.398zm40.32 0c-5.24 0-8.439 3.879-8.439 11.12 0 7.28 3.199 11.2 8.439 11.2s8.441-4.159 8.441-11.2c0-7.52-3.201-11.12-8.441-11.12zm22.76 0c-2.4 0-3.878 1.238-5.238 3.318l-0.3613-2.76h-4.279v21.16h4.92v-14.8c1-1.92 2.12-3.16 3.32-3.16 1.04 0 1.639 0.7598 1.639 2.84v15.12h4.92v-15.68c0-3.68-1.88-6.039-4.92-6.039zm-40.56 0.5586v21.16h4.92v-21.16zm-42.2 2.881c2.16 0 3.041 1.76 3.041 5.76v0.2793h-6.24c0.2-4.68 1.359-6.039 3.199-6.039zm-41.44 0.2793c2.2 0 3.32 1.88 3.32 7.4s-1.12 7.439-3.32 7.439-3.32-1.879-3.32-7.439c0-5.48 1.12-7.4 3.32-7.4zm101.4 0c2.2 0 3.32 1.88 3.32 7.4s-1.12 7.439-3.32 7.439-3.318-1.879-3.318-7.439c0-5.48 1.118-7.4 3.318-7.4z" fill="#fff"/><path d="m417.9 228.4c-1.106-0.0774-1.171-0.1418-0.729-0.7262 0.3958-0.5233 0.3608-1.025-0.1186-1.698-0.3392-0.4764-0.4205-0.9449-0.491-2.832-0.103-2.754-0.569-3.932-1.792-4.53l-0.7417-0.3623-0.1107-1.765c-0.1346-2.146-0.667-4.367-1.178-4.914-0.2284-0.2447-0.3778-0.6844-0.3778-1.112 0-0.8288-0.6644-3.736-1.082-4.737-0.1596-0.3821-0.2903-0.9009-0.2903-1.153 0-0.2521-0.2227-0.7602-0.4949-1.129-0.4429-0.6003-0.4814-0.79-0.3665-1.805 0.0922-0.815 0.0417-1.369-0.1795-1.965-0.1693-0.4569-0.3998-1.187-0.5122-1.622-0.1124-0.4355-0.5957-1.25-1.074-1.811-1.025-1.201-1.271-2.007-0.8215-2.693 0.4565-0.6968 0.3865-0.9735-0.3258-1.287-0.7263-0.3197-0.9341-0.9919-0.4548-1.471 0.4075-0.4075 0.3824-0.9788-0.0887-2.017-0.2133-0.4701-0.3878-1.069-0.3878-1.331 0-0.2621-0.1765-0.8225-0.3921-1.245-0.2463-0.4827-0.3922-1.156-0.3922-1.809 0-0.6655-0.1412-1.304-0.3921-1.772-0.236-0.4403-0.3921-1.106-0.3921-1.672 0-1.158-0.8791-3.039-1.471-3.146-0.2157-0.0392-0.5874-0.2512-0.826-0.4712-0.4058-0.374-0.4649-0.3796-0.9134-0.0857-0.2638 0.1728-0.7303 0.6858-1.037 1.14-0.3064 0.4541-0.8466 1.131-1.201 1.504-0.6027 0.635-0.7006 0.6701-1.547 0.554-0.4972-0.0681-1.244-0.0323-1.66 0.0796-0.5605 0.1509-0.8697 0.1408-1.198-0.0393-0.418-0.2295-1.03-0.3392-3.756-0.6728-0.8172-0.1-1.447-0.3322-2.142-0.7899-0.5414-0.3566-1.367-0.7056-1.834-0.7757-1.127-0.1691-3.023-0.9509-3.239-1.335-0.1205-0.2153-0.0525-0.409 0.2277-0.6489 0.7764-0.6648 0.3497-1.548-1.071-2.216-0.3235-0.1522-0.7423-0.4042-0.9305-0.5599-0.488-0.4037-1.347-2.314-1.534-3.412-0.1073-0.6288-0.3954-1.222-0.8833-1.817-0.625-0.7627-0.746-1.078-0.8841-2.302-0.1755-1.556-0.5172-2.587-1.633-4.926-0.6967-1.461-0.7305-1.619-0.6073-2.846 0.1141-1.136 0.0794-1.364-0.277-1.817-0.5337-0.6785-0.5781-3.132-0.0767-4.237 0.2603-0.5736 0.3258-1.266 0.3075-3.25-0.0218-2.368-0.0497-2.54-0.4582-2.826l-0.4349-0.3046 0.1623-5.409c0.1693-5.642 0.189-10.27 0.0522-12.27-0.0591-0.8662-0.2772-1.564-0.827-2.647-0.6711-1.321-1.281-3.054-1.287-3.657-2e-3 -0.1327 0.2899-0.2174 0.7067-0.2056 1.284 0.0364 1.576-1.054 0.8791-3.28-0.5716-1.826-1.045-4.18-1.043-5.186 2e-3 -0.5253 0.2247-1.461 0.5321-2.226l0.5304-1.32-0.456-0.9351c-0.5869-1.204-0.5532-2.329 0.1052-3.506 0.5215-0.9331 0.4885-1.287-0.171-1.834-0.2566-0.213-0.3681-0.2021-0.6634 0.0651-0.1952 0.1766-0.4141 0.3212-0.4865 0.3212-0.261 0-0.1243-1.005 0.2052-1.508 0.2156-0.329 0.3391-0.9143 0.3431-1.627 6e-3 -0.9834-0.0687-1.198-0.6403-1.85-0.548-0.6245-0.6078-0.7839-0.3921-1.045 0.2215-0.2677 0.3457-4.335 0.2948-9.657-0.0366-3.831 0.0947-7.226 0.3563-9.215 0.2983-2.267 0.5036-3.198 1.472-6.666 0.1956-0.701 0.411-1.627 0.4785-2.059 0.0676-0.4314 0.2508-1.239 0.4072-1.794l0.2844-1.01 1.303-0.3978c1.158-0.3533 1.352-0.366 1.737-0.1133 0.2581 0.1691 0.8332 0.2704 1.418 0.2497 0.7328-0.02589 1.135 0.07298 1.577 0.3876 0.3263 0.2323 0.7584 0.4224 0.9605 0.4224 0.202 0 0.5671 0.14 0.8115 0.3111 0.3734 0.2616 0.4945 0.2694 0.7601 0.04905 0.1738-0.1442 0.7655-0.2756 1.315-0.2922 0.5495-0.01649 1.308-0.08938 1.685-0.1619 0.6154-0.1182 0.7212-0.07238 1.024 0.4434 0.1858 0.3164 0.702 1.007 1.147 1.534 1.004 1.19 1.544 2.315 1.55 3.225 2e-3 0.3995 0.2973 1.279 0.69 2.059 0.8037 1.596 0.8214 1.735 0.2689 2.122-0.3322 0.2327-0.8251 0.27-2.402 0.1819-1.97-0.1101-1.988-0.1071-2.523 0.4309-0.6072 0.6106-1.324 2.745-1.324 3.943 0 0.4204-0.0866 1.066-0.1924 1.435s-0.2797 1.515-0.3864 2.548c-0.1231 1.19-0.3426 2.164-0.6 2.661-0.4035 0.7796-0.4817 2.458-0.3852 8.274 9e-3 0.5609-0.0915 1.382-0.2239 1.824-0.1921 0.6412-0.1896 1.061 0.0121 2.077 0.2239 1.127 0.2166 1.313-0.064 1.623-0.4002 0.4422-0.4064 0.9952-0.0144 1.282 0.2262 0.1654 0.313 0.6489 0.3431 1.913 0.031 1.295 0.1208 1.78 0.3835 2.07 0.3895 0.4302 0.4469 0.9471 0.127 1.145-0.7385 0.4564-1.3 3.942-0.8438 5.236 0.3546 1.005 0.3813 4.133 0.0343 4.017-0.2149-0.0716-0.3063-0.3588-0.6559-2.06-0.1375-0.6694-0.9368-0.5817-1.466 0.1609-0.4069 0.5714-0.8656 2.925-0.7904 4.055 0.0937 1.409 0.0357 2.008-0.2765 2.852-0.4758 1.286-0.244 2.425 0.5866 2.883 0.3235 0.1785 0.6975 0.5383 0.831 0.7996 0.2202 0.4308 0.1856 0.5224-0.3702 0.9823l-0.613 0.5072 0.0674 2.728c0.1134 4.589 0.123 4.454-0.3568 5.063-0.4957 0.6302-0.5775 1.522-0.1706 1.86 0.3354 0.2784 1.192-7e-3 1.363-0.4554 0.1459-0.3802 0.7192-0.4113 0.7192-0.039 0 0.1486-0.1822 0.3912-0.4048 0.5392-0.3982 0.2646-0.4014 0.3316-0.1976 4.092 0.2306 4.255 0.3612 4.927 1.087 5.6 0.5522 0.5118 0.5536 0.6177 0.0572 4.4-0.1203 0.9166-0.2252 2.284-0.2332 3.039-0.014 1.338-2e-3 1.371 0.4537 1.307 0.6472-0.0912 0.8294 0.29 0.6922 1.448-0.1096 0.9249-0.0842 1.005 0.3876 1.22 0.4583 0.2088 0.4945 0.3073 0.3932 1.069-0.1026 0.7706-0.0407 0.9296 0.7593 1.954 0.6588 0.8433 0.9277 1.403 1.104 2.297 0.168 0.8538 0.3937 1.343 0.8122 1.762 0.4226 0.4226 0.5796 0.7666 0.5796 1.27 0 0.6967 0.5291 1.301 1.139 1.301 0.3769 0 4.589-4.433 4.888-5.144 0.1357-0.3228 0.2468-0.7921 0.2468-1.043s0.0838-0.5079 0.1862-0.5712c0.1024-0.0634 0.6218-0.8405 1.154-1.727 1.09-1.816 1.406-2.986 1.402-5.2-3e-3 -2.103-0.4977-7.137-0.8509-8.666-0.2217-0.9604-0.7152-6.61-0.7152-8.188 0-0.1038-0.2647-0.5217-0.5882-0.9288-0.44-0.5537-0.5882-0.945-0.5882-1.553 0-0.4472-0.1765-1.315-0.3921-1.929-0.2157-0.6136-0.3921-1.438-0.3921-1.833 0-0.3944-0.1849-1.016-0.4109-1.382-0.3463-0.5603-0.3902-0.8432-0.2791-1.8 0.106-0.9132 0.0705-1.186-0.181-1.395-0.2624-0.2178-0.3708-0.2071-0.6732 0.0665-0.5889 0.533-0.8216 0.0238-0.6803-1.489 0.1671-1.79-0.0244-2.584-0.8056-3.343-1.071-1.04-2.479-2.948-2.593-3.515-0.0587-0.2895-0.3614-0.7534-0.6728-1.031-0.3114-0.2775-0.5663-0.6638-0.5663-0.8584 0-0.6778 0.8016-2.006 1.532-2.538 2.493-1.817 4.27-3.548 5.382-5.242 0.6373-0.9706 1.287-1.837 1.443-1.926 0.1565-0.0885 0.5295-0.1072 0.8288-0.0414 0.4238 0.0931 0.7151-0.0165 1.316-0.4951 0.7108-0.5661 0.8666-0.6087 1.972-0.5391 1.004 0.0633 1.379 0.1988 2.295 0.8295 0.6021 0.4147 1.297 0.7749 1.545 0.8006 0.2476 0.0256 0.5948 0.0579 0.7714 0.0717 0.3647 0.0284 3.64 3.178 4.149 3.989 0.1952 0.3113 0.3337 0.927 0.3337 1.483 0 0.7986-0.0933 1.04-0.5837 1.51-0.321 0.3076-0.6815 0.8555-0.801 1.218-0.1494 0.4527-0.4462 0.7752-0.9499 1.032-0.4029 0.2056-1.05 0.7606-1.437 1.234-0.6972 0.8508-0.7051 0.8811-0.7599 2.906-0.0335 1.237 0.0307 2.203 0.1622 2.442 0.1196 0.2178 0.3569 1.718 0.5272 3.333 0.1703 1.615 0.393 3.246 0.4948 3.623 0.1018 0.3774 0.2834 1.524 0.4036 2.548 0.14 1.193 0.3543 2.073 0.5968 2.451 0.607 0.946 0.729 1.292 0.9911 2.81 0.1839 1.065 0.1959 1.799 0.0462 2.843-0.2234 1.559-0.1231 1.841 0.6868 1.935 0.4489 0.0519 0.5195 0.1457 0.4881 0.6489-0.0325 0.5203 0.1177 2.116 0.4483 4.763 0.066 0.5289 0.308 1.075 0.6512 1.471 0.4716 0.5432 0.5198 0.7064 0.3532 1.196-0.1482 0.4358-0.1188 0.6926 0.1269 1.109 0.3934 0.666 0.4122 1.435 0.0427 1.741-0.6074 0.5041-1.283-0.8953-1.289-2.67-2e-3 -0.7283-0.3166-1.007-0.7015-0.6217-0.2152 0.2152-0.2368 0.6572-0.1072 2.194 0.2438 2.889 1.004 3.643 2.604 2.584 0.4323-0.2861 0.8978-0.4773 1.034-0.4249 0.4892 0.1877 0.6555 2.392 0.2248 2.981-0.263 0.3597-0.2946 0.3615-0.6527 0.0374-0.5278-0.4777-0.7522-0.4269-1.025 0.2322-0.2889 0.6973-0.2137 1.179 0.2272 1.457 0.2535 0.1597 0.425 0.1244 0.7279-0.1498 0.4389-0.3972 0.939-0.3039 1.137 0.212 0.094 0.245-0.1728 0.6102-0.9848 1.348-0.8853 0.8045-1.114 1.134-1.114 1.605 0 0.9862 0.2353 1.845 0.5371 1.961 0.3603 0.1382 1.211-0.8728 1.22-1.451 0.0168-1.014 0.6952-1.483 0.8733-0.6042 0.2359 1.164 0.2946 2.094 0.1381 2.191-0.0952 0.0588-0.3178 0.5496-0.4948 1.091-0.295 0.902-0.2958 1.024-9e-3 1.461 0.2906 0.4435 0.2839 0.5428-0.0938 1.397-0.5078 1.148-0.5107 1.662-0.0146 2.634 0.6062 1.188 0.4606 1.569-0.6005 1.569-0.5364 0-0.6765 0.8072-0.2838 1.635 0.1795 0.3782 0.4631 0.7402 0.6302 0.8043 0.3904 0.1498 0.8423-0.2249 0.8423-0.6985 0-0.2025 0.0924-0.3681 0.2052-0.3681 0.1222 0 0.1883 0.4165 0.1634 1.029-0.023 0.5662 0.1052 1.675 0.2849 2.464 0.2081 0.9134 0.3267 2.297 0.3267 3.81 0 2.02 0.0623 2.505 0.4153 3.234l0.4153 0.8579-0.3981 0.4294c-0.3915 0.4224-0.3925 0.4552-0.0606 1.998 0.3917 1.82 0.6526 2.376 1.196 2.549 0.4648 0.1475 0.5087 0.5417 0.0982 0.8824-0.4189 0.3476-0.3648 1.312 0.1726 3.076 0.2567 0.8424 0.5726 2.105 0.7019 2.806 0.2946 1.596 0.7845 2.186 1.754 2.112 0.8877-0.0679 1.005 0.3622 0.3217 1.175-0.7978 0.9481-0.5627 2.204 0.4126 2.204 0.4546 0 0.4922 0.055 0.3694 0.5392-0.3484 1.374-0.3327 1.952 0.0734 2.71 0.3092 0.577 0.4097 1.118 0.4097 2.208 0 0.8072 0.1204 1.716 0.273 2.062 0.4308 0.975 1.252 3.51 2.008 6.196 0.1653 0.5877 0.4256 1.247 0.5784 1.465 0.1528 0.2181 0.2778 0.5537 0.2778 0.7458s0.1765 0.6785 0.3922 1.081c0.2157 0.4024 0.3933 0.8653 0.3947 1.029 7e-3 0.9012 0.8523 2.879 1.555 3.641 0.5637 0.6115 0.8001 1.066 0.8997 1.73 0.2096 1.398 0.163 1.435-1.703 1.352-2.609-0.1162-2.994-0.1541-3.26-0.32-0.1592-0.0994-0.5022 0.064-0.9382 0.4468-0.7133 0.6263-0.6729 0.6201-2.977 0.4588zm5.711-7.658c0.1693-0.5937 0.13-0.6927-0.4839-1.22-0.8782-0.7547-1.24-0.6818-1.318 0.2655-0.0835 1.012 0.3992 1.743 1.097 1.662 0.3988-0.0465 0.5638-0.2121 0.7049-0.707zm-4.816-13.53c0.0817-0.8262-0.7192-3.943-1.16-4.513-0.2514-0.3252-0.3497-0.7938-0.3456-1.647 6e-3 -1.314-0.4507-2.212-1.126-2.212-0.3386 0-0.3675 0.1492-0.3312 1.708 0.0245 1.051 0.1514 1.923 0.33 2.269 0.1596 0.3086 0.4769 1.293 0.7052 2.187 0.5115 2.003 1.121 3.058 1.67 2.887 0.1078-0.0335 0.2236-0.3388 0.2572-0.6784zm-6.865-26.94c0.1403-0.1403 0.2353-0.8168 0.2353-1.676 0-1.278-0.0557-1.496-0.4948-1.935-0.891-0.891-1.164-0.5955-1.228 1.328-0.0543 1.632-0.0374 1.708 0.4676 2.106 0.6078 0.4781 0.7024 0.4945 1.02 0.1768zm-29.71-66.84c0.4286-0.753 0.4388-1.615 0.0265-2.245-0.3384-0.5164-1.02-0.6365-1.409-0.248-0.5664 0.5664 0.0326 3.1 0.7324 3.097 0.1688-6e-4 0.4612-0.2725 0.6499-0.6041zm1.385-6.412c0.3195-0.5492 0.3547-0.861 0.2379-2.108-0.119-1.27-0.1873-1.463-0.5174-1.463-0.2143 0-0.4537 0.1932-0.5486 0.4427-0.0926 0.2435-0.4433 0.9091-0.7794 1.479-0.7083 1.201-0.7175 1.263-0.2877 1.919 0.4738 0.7231 1.394 0.5922 1.895-0.2696zm-292.8 119.2c-0.2893-0.6187-0.7212-1.61-0.9598-2.203-0.7244-1.801-1.448-3.313-1.59-3.323-0.0739-5e-3 -0.246 0.299-0.3825 0.6764-0.1365 0.3774-0.3129 0.6863-0.3921 0.6863-0.07918 0-0.2557-0.3088-0.3921-0.6863-0.1365-0.3774-0.3187-0.6862-0.4048-0.6862-0.08618 0-0.1567-0.1415-0.1567-0.3145 0-0.173-0.5606-1.474-1.246-2.892-0.6852-1.418-1.454-3.107-1.708-3.754-0.254-0.647-0.6198-1.411-0.8129-1.697-0.193-0.2862-0.3514-0.5951-0.3518-0.6862-0.0012-0.2206-0.8319-1.85-1.242-2.435-0.1792-0.2558-0.3258-0.5707-0.3258-0.6996s-0.9343-2.161-2.076-4.515c-1.142-2.354-2.147-4.457-2.234-4.673-0.214-0.5308-0.9702-2.192-1.943-4.268-0.443-0.9457-0.8084-1.784-0.8121-1.863-0.0037-0.0788-0.1771-0.4962-0.3855-0.9275-0.2084-0.4314-0.3816-0.8725-0.3849-0.9804-0.0034-0.1078-0.1794-0.549-0.3913-0.9803-0.7253-1.477-1.969-4.254-1.969-4.397 0-0.0787-0.2242-0.7097-0.4982-1.402-0.5214-1.318-0.5501-1.386-1.322-3.122-0.2638-0.5931-0.8621-2.049-1.329-3.235s-1.362-3.231-1.987-4.544c-0.6255-1.313-1.137-2.536-1.137-2.718 0-0.5768-0.835-1.855-1.212-1.855-0.391 0-1.925 1.295-1.925 1.625 0 0.1138-0.1466 0.3688-0.3257 0.5668-0.1791 0.198-0.4218 0.5479-0.5392 0.7777s-0.3017 0.4001-0.4095 0.3785c-0.2728-0.0548-0.149-0.8123 0.1755-1.074 0.1472-0.1186 0.3196-0.4361 0.383-0.7057 0.06345-0.2696 0.4312-0.9676 0.8173-1.551 0.8426-1.274 0.8416-1.859-0.0034-1.929-0.5025-0.0415-0.6631 0.0727-1.102 0.7843-0.2828 0.4581-0.5719 1.155-0.6424 1.548-0.07049 0.3936-0.2489 0.8158-0.3966 0.9383-0.1476 0.1225-0.3258 0.5284-0.3958 0.902-0.07008 0.3736-0.2144 0.6793-0.3208 0.6793-0.4085 0-0.4139-0.6538-0.01193-1.459 0.2305-0.4616 0.4191-1.036 0.4191-1.277 0-0.5255 0.9426-3.282 1.309-3.827 0.4127-0.6146 0.3163-1.585-0.2186-2.2-0.619-0.712-1.012-0.5063-1.678 0.8774-0.3253 0.6758-0.6599 1.078-0.9947 1.195-0.3345 0.1169-0.6906 0.544-1.056 1.267-0.4976 0.9835-0.5418 1.231-0.4498 2.517l0.102 1.426-0.8519 0.9738c-0.4685 0.5356-0.9061 1.221-0.9724 1.523-0.1718 0.782-0.412 0.8416-0.6493 0.1609-0.1127-0.3234-0.2873-0.588-0.388-0.588-0.2543 0-1.121 1.171-1.306 1.765-0.08396 0.2696-0.2731 0.6642-0.4204 0.8769-0.1472 0.2127-0.2677 0.574-0.2677 0.8029s-0.1765 0.5758-0.3921 0.771c-0.4459 0.4035-0.5164 0.9887-0.1368 1.134 0.1404 0.0539 0.5373-0.0205 0.8818-0.1654 0.5921-0.249 0.6238-0.3146 0.5779-1.197-0.04056-0.7806 0.01234-0.9462 0.3227-1.01 0.378-0.0775 0.3826 0.1177 0.02316 0.9904-0.1043 0.2532 0.01561 0.4295 0.4667 0.6862 0.694 0.395 0.7793 0.9143 0.2482 1.509-0.7522 0.8426-1.27 2.781-1.331 4.988-0.05275 1.892-0.3968 3.949-0.7584 4.535-0.08055 0.1303-0.3421 0.1773-0.6113 0.1097-0.2652-0.0666-0.7222 0.012-1.047 0.1802-0.3172 0.164-0.7749 0.2983-1.017 0.2983-0.2421 0-0.6867 0.2362-0.988 0.5249-0.3013 0.2887-0.5709 0.4872-0.5989 0.4412-0.6633-1.088-0.7445-1.417-0.4338-1.761 0.2493-0.2755 0.2699-0.4352 0.09735-0.7576-0.4922-0.9197-1.446-0.1242-1.78 1.485-0.3439 1.656-0.5209 1.864-1.468 1.723-0.6939-0.1037-0.8635-0.0457-1.42 0.4859-0.362 0.346-0.8417 0.6037-1.124 0.6037h-0.4919v-2.38c0-1.929 0.05791-2.423 0.3056-2.604 0.1681-0.1229 0.4138-0.7061 0.546-1.296l0.2404-1.073 0.7376 0.0653c0.8805 0.0781 1.306-0.2219 1.31-0.9227 0.0016-0.2834 0.1119-0.7072 0.2451-0.942 0.1332-0.2347 0.4848-0.8414 0.7814-1.348 0.4242-0.725 0.5392-1.17 0.5392-2.086 0-0.6765 0.1531-1.549 0.3653-2.083 0.9094-2.287 1.658-4.597 2.395-7.389 0.3997-1.514 0.6956-2.57 1.539-5.49 0.5809-2.012 1.467-4.709 2.063-6.274 0.287-0.7549 0.6154-1.681 0.7297-2.058 0.1143-0.3768 0.3301-0.8597 0.4795-1.073 0.1494-0.2133 0.2717-0.5168 0.2717-0.6745 0-0.1576 0.1827-0.6639 0.4059-1.125 0.4461-0.9216 0.4455-1.932-0.0012-1.932-0.1549 0-0.3559 0.2868-0.4468 0.6372-0.09081 0.3505-0.2492 0.6372-0.3519 0.6372-0.3781 0-0.4224-1.017-0.1214-2.789 0.1699-1 0.3988-2.456 0.5087-3.235 0.1393-0.9872 0.3819-1.712 0.801-2.393 0.5455-0.8865 0.5821-1.046 0.3947-1.721-0.3012-1.085-0.2575-1.6 0.1834-2.161 0.2741-0.3485 0.3934-0.8003 0.3964-1.501 0.0047-1.096 0.4944-2.367 1.13-2.932 0.2231-0.1983 0.4638-0.7051 0.5349-1.126 0.08811-0.5215 0.3025-0.8889 0.6724-1.152 0.4414-0.3143 0.5633-0.5806 0.6512-1.423 0.14-1.342 0.8858-2.647 1.946-3.405 0.7564-0.5408 0.9079-0.7909 1.446-2.388 0.3306-0.9811 0.7599-2.165 0.954-2.631 0.1941-0.466 0.6842-1.641 1.089-2.612 1.08-2.588 1.571-3.896 1.571-4.182 0-0.2235 0.3411-1.048 1.271-3.072 0.1487-0.3235 0.3309-0.8088 0.405-1.078 0.07408-0.2696 0.2408-0.6225 0.3704-0.7843 0.1297-0.1618 0.3319-0.6029 0.4495-0.9803 0.1176-0.3774 0.3894-1.127 0.6041-1.667 0.2147-0.5392 0.8402-2.106 1.39-3.482 0.5498-1.376 0.9997-2.589 0.9997-2.695 0-0.1067 0.1779-0.708 0.3953-1.336 0.2174-0.6283 0.4159-1.618 0.4412-2.199 0.04551-1.05 0.04042-1.06-0.7385-1.468-0.9696-0.5086-1.146-1.158-0.4055-1.495 0.277-0.1262 0.5036-0.3339 0.5036-0.4617 0-0.388-0.6446-0.8241-1.425-0.9639-1.11-0.199-3.444-2.372-4.66-4.339-0.491-0.7944-0.2607-1.584 0.5442-1.866 0.2972-0.1041 0.7479-0.4934 1.002-0.865 0.5142-0.7532 1.433-1.365 2.355-1.567 0.3356-0.07366 0.6688-0.2288 0.7404-0.3447 0.1969-0.3186-0.5098-0.7395-1.242-0.7395-0.7167 0-0.8226-0.2672-0.3243-0.8179 0.3046-0.3366 0.2992-0.3586-0.08801-0.3586-0.3269 0-0.4814-0.2185-0.7443-1.053-0.3898-1.236-0.2629-2.084 0.3118-2.084 0.3437 0 0.3716 0.09498 0.2625 0.8915-0.1088 0.794-0.06242 0.9539 0.4245 1.462 0.436 0.4551 0.6203 0.5312 0.9102 0.3761 0.1999-0.107 0.3635-0.3532 0.3635-0.5471 0-0.5233 0.1575-0.5945 0.7882-0.3564 0.6836 0.258 0.8685 0.12 0.706-0.5273-0.08286-0.3301-0.3398-0.5561-0.8078-0.7106-0.8355-0.2757-0.8789-0.6747-0.1163-1.069 0.3135-0.1621 0.8208-0.6905 1.127-1.174 0.6506-1.027 0.9312-1.1 1.322-0.3438 0.3172 0.6134 1.105 1.061 1.471 0.8346 0.3886-0.2402 0.04074-1.129-0.6942-1.775-0.8009-0.7032-1.079-0.7262-1.988-0.164l-0.6897 0.4263-0.3628-0.448c-0.5176-0.6392-0.4538-0.8811 0.3048-1.155 0.3672-0.1328 0.7173-0.3711 0.7781-0.5296 0.06082-0.1585 0.2898-0.2882 0.5089-0.2882 0.2191 0 0.3983-0.08824 0.3983-0.1961 0-0.1078-0.2111-0.1961-0.4692-0.1961-0.673 0-0.7362-0.3901-0.3066-1.892 0.4344-1.519 0.9572-2.337 2.048-3.203 1.077-0.8561 1.703-0.7575 1.963 0.3097 0.1078 0.4411 0.3405 1.103 0.5169 1.471 1.936 4.034 2.675 5.217 3.14 5.03 0.1453-0.05845 0.4721-0.5344 0.7262-1.058 0.2541-0.5233 0.575-1.172 0.7131-1.442 0.1381-0.2696 0.314-0.8872 0.3908-1.372 0.07686-0.4853 0.3074-1.269 0.5124-1.741 0.205-0.472 0.3726-1.211 0.3726-1.643 0-0.4315 0.2352-1.479 0.5226-2.328 0.5553-1.64 0.7245-1.769 1.634-1.249 0.7064 0.4038 1.832 0.3566 2.623-0.1101 0.978-0.5771 3.024-0.6212 3.784-0.08152 0.3044 0.2164 0.783 0.5103 1.063 0.6531 0.9824 0.5004 2.429 1.713 2.498 2.095 0.1069 0.5887 0.7728 1.21 2.082 1.942 1.756 0.9822 2.304 1.543 2.08 2.132-0.1108 0.2915-0.1078 0.7963 8e-3 1.311 0.3417 1.521 0.2812 2.828-0.1599 3.451-0.7522 1.063-2.053 3.773-1.984 4.132 0.1377 0.7152 0.8126 0.3995 1.331-0.6226 0.5178-1.021 1.161-1.863 1.423-1.863 0.2518 0 0.1724 0.4002-0.1416 0.7143-0.4826 0.4826-0.3429 1.225 0.3921 2.084 0.4855 0.5672 0.6862 0.9922 0.6862 1.453 0 0.7379-0.1076 0.7918-0.6328 0.3165-0.3071-0.2779-0.4357-0.2931-0.7615-0.08964-0.3363 0.21-0.4422 0.1827-0.7458-0.1922l-0.3538-0.437-0.5436 0.396c-0.5194 0.3783-1.349 2.088-1.123 2.314 0.05939 0.05939 0.2589 0.108 0.4434 0.108 0.5835 0 0.7846 0.4412 0.5645 1.238-0.2005 0.726-0.4702 0.9328-0.6222 0.4772-0.06136-0.1839-0.2246-0.195-0.6536-0.04469-0.9666 0.3388-2.187 3.231-1.363 3.231 0.158 0 0.3918-0.1985 0.5195-0.4412 0.1278-0.2426 0.3225-0.4999 0.4328-0.5716 0.1103-0.07178 0.2956-0.4181 0.4118-0.7696 0.1162-0.3515 0.3216-0.6751 0.4564-0.7192 0.4008-0.131 0.2915 1.106-0.1471 1.664-0.2157 0.2742-0.3921 0.614-0.3921 0.7551 0 0.1411-0.5294 0.796-1.176 1.455-1.077 1.097-1.176 1.271-1.176 2.058 0 0.4728 0.0899 0.9152 0.1998 0.9831 0.1099 0.0679 0.4886 0.7128 0.8416 1.433s0.9028 1.699 1.222 2.174c0.319 0.4755 0.7123 1.063 0.874 1.305 0.1618 0.242 0.6254 1 1.03 1.684s0.9343 1.567 1.176 1.961c0.8721 1.42 1.715 2.907 1.715 3.025 0 0.0662 0.144 0.4425 0.3201 0.8363 2.207 4.936 2.656 6.09 3.02 7.754 0.2113 0.968 0.5667 2.11 0.7899 2.539 0.2232 0.4282 0.6207 1.459 0.8834 2.29 0.4497 1.423 0.4604 1.561 0.1831 2.347-0.408 1.156-0.3865 1.271 0.405 2.147 0.5849 0.6474 0.7304 0.9929 0.8876 2.108 0.1034 0.7337 0.2656 1.616 0.3604 1.962 0.1845 0.6718-0.0166 1.932-0.3637 2.279-0.1162 0.1162-0.2113 0.4465-0.2113 0.7339 0 0.2874-0.1765 0.7469-0.3922 1.021-0.2157 0.2742-0.3921 0.7164-0.3921 0.9828 0 0.5342-0.2848 0.8431-0.8823 0.9568-0.3289 0.0626-0.3921 0.2302-0.3921 1.039 0 0.8662-0.05 0.9769-0.4902 1.085-0.4311 0.1055-0.4845 0.2132-0.4429 0.8935 0.1577 2.581 0.1345 2.969-0.2085 3.493-0.2416 0.3687-0.4608 0.5004-0.7043 0.4231-0.4841-0.1536-0.8453 0.3382-0.6933 0.944 0.1125 0.4482 0.0558 0.5096-0.5819 0.6292-0.8932 0.1676-0.9868 0.3286-0.6122 1.053 0.3853 0.745 0.3833 1.279-0.0059 1.668-0.4206 0.4206-1.108 0.3868-1.706-0.084-0.7694-0.6052-1.123-0.5127-1.123 0.2937 0 0.605-0.1099 0.7553-0.9313 1.274-0.5122 0.3237-1.284 0.685-1.716 0.8028-1.171 0.3202-1.363 0.4601-1.477 1.081-0.07871 0.4261-0.2007 0.553-0.4902 0.5101-2.12-0.3146-2.018-0.3289-2.39 0.3358-0.3721 0.6652-0.5501 0.6839-1.775 0.1865-0.793-0.322-1.237-0.0939-1.455 0.7471-0.1424 0.5495-0.2481 0.6092-1.479 0.8349-0.729 0.1337-1.576 0.2904-1.881 0.3481-0.3834 0.0724-0.7305-0.0244-1.119-0.3119-0.6584-0.4867-0.9923-0.5156-1.717-0.1485-0.6145 0.3114-2.235 0.1712-3.947-0.3416-0.5857-0.1754-1.622-0.3188-2.304-0.3188-1.071 0-1.239 0.0488-1.239 0.3595 0 0.1977 0.0631 0.4226 0.1402 0.4997 0.2871 0.2871 0.6365 2.054 0.8574 4.337 0.138 1.427 0.3724 2.677 0.5954 3.175 0.2023 0.4524 0.3677 0.9574 0.3677 1.122 0 0.2994 0.5181 1.54 1.205 2.886 0.2001 0.3921 0.3639 0.8524 0.3639 1.023 0 0.1704 0.1465 0.6169 0.3255 0.9922 0.2507 0.5257 0.2819 0.8313 0.1357 1.33-0.2414 0.8241 0.1114 2.676 1.506 7.902 0.2014 0.7549 0.5573 2.122 0.7909 3.039 0.2336 0.9166 0.5822 2.24 0.7746 2.941s0.5421 2.113 0.7771 3.137c0.628 2.737 2.276 8.116 3.935 12.84 0.7926 2.259 1.687 5.441 2.343 8.333 0.6484 2.861 1.184 4.884 1.634 6.172 0.2253 0.645 0.4154 1.66 0.4224 2.255 7e-3 0.5952 0.1324 1.296 0.2788 1.558 0.5336 0.9545 0.8136 2.746 0.6798 4.35-0.08351 1.001-0.05876 1.547 0.0702 1.547 0.1096 0 0.2532 0.3379 0.3193 0.7508 0.06604 0.413 0.2902 1.185 0.4982 1.716 0.8697 2.219 1.273 4.205 0.8534 4.197-0.08088-2e-3 -0.3837-0.5088-0.673-1.127zm-44.11-41.79c0.3078-0.1647 0.5205-0.568 1.611-3.054 0.678-1.546 1.144-2.75 1.176-3.039 0.1357-1.236-0.3562-1.296-1.123-0.1384-0.9853 1.487-2.732 5.871-2.493 6.257 0.127 0.2055 0.4142 0.1965 0.8297-0.0258zm7.813-15.41c0.2438-0.4314 0.4447-0.9642 0.4465-1.184 0.0017-0.2198 0.1797-0.7458 0.3954-1.169s0.3921-0.9632 0.3921-1.2c0-0.2371 0.3425-0.8644 0.7611-1.394 0.7894-0.9986 1.396-2.039 1.396-2.396 0-0.1132-0.2224-0.2058-0.4941-0.2058-0.3972 0-0.6709 0.2732-1.395 1.392-1.036 1.602-3.048 6.327-2.88 6.765 0.2015 0.5251 0.9156 0.2097 1.378-0.6086zm49.95-37.42c0.2084-0.5896-0.0354-1.52-0.4328-1.652-0.2236-0.0743-0.8305 1.022-0.8305 1.5 0 0.2966 0.6101 0.8299 0.8561 0.7483 0.1223-0.0406 0.3055-0.3092 0.4072-0.597zm-26.87 0.3382c0.1706-0.0654 0.3101-0.2465 0.3101-0.4023 0-0.3579 0.8309-1.828 1.034-1.83 0.08357-7.9e-4 0.2049 0.2632 0.2696 0.5867 0.1461 0.7303 0.5045 0.7519 0.9593 0.0577l0.3476-0.5305 0.2817 0.4243c0.2777 0.4183 0.3377 0.4226 4.234 0.3096 4.203-0.1219 4.289-0.1392 6.949-1.394 1.106-0.5217 1.414-0.8921 1.414-1.7 0-0.5182-1.038-1.66-1.52-1.671-0.3518-8e-3 -0.3028-0.5841 0.06152-0.7239 0.5751-0.2207 1.233 0.2644 1.373 1.013 0.1699 0.9054 0.7424 0.8804 0.8315-0.0362 0.04747-0.4884-0.08469-0.7697-0.6209-1.322-0.3747-0.3858-0.7668-0.7014-0.8714-0.7014-0.1046 0-0.236-0.2426-0.2919-0.5392-0.1805-0.9563-0.6194-1.923-1.17-2.578-0.5503-0.654-0.602-0.8364-0.5435-1.918 0.03813-0.7055-0.5493-1.435-1.155-1.435-0.7201 0-2.371-2.228-3.224-4.351-0.2041-0.508-0.529-0.8453-1.09-1.131-0.8423-0.4297-0.9917-0.7801-0.505-1.184 0.379-0.3145 0.3736-0.6703-0.01494-0.9928-0.2561-0.2126-0.3396-0.2083-0.4872 0.025-0.09797 0.1548-0.1795 0.48-0.1811 0.7227-0.0041 0.6041-0.5524 0.5661-0.7068-0.049-0.06766-0.2696-0.06942-0.7037-0.0039-0.9648 0.2458-0.9795-0.4939-1.55-0.8468-0.6528-0.09546 0.2426-0.363 0.9264-0.5945 1.52-0.2315 0.5931-0.5021 1.255-0.6012 1.471-0.09914 0.2157-0.315 0.7671-0.4797 1.225s-0.4342 1.208-0.5988 1.667c-0.1647 0.4583-0.3796 1.01-0.4776 1.225-0.09802 0.2157-0.6219 1.413-1.164 2.66-0.5423 1.247-1.121 2.527-1.286 2.843-0.1649 0.3162-0.301 0.7514-0.3023 0.9671-0.0013 0.2157-0.1778 0.6568-0.3921 0.9804-0.2143 0.3235-0.3901 0.7399-0.3908 0.9253-0.0012 0.3254-0.3905 1.223-1.189 2.741-0.2097 0.3988-0.3812 0.8737-0.3812 1.055 0 0.1816-0.1669 0.6053-0.371 0.9415-0.204 0.3362-0.4304 0.8923-0.5029 1.236-0.1099 0.52-0.05476 0.6749 0.33 0.9271 0.6576 0.4308 2.977 0.8108 3.567 0.5844zm3.447-2.626c0-0.1078 0.08823-0.1961 0.1961-0.1961 0.1078 0 0.1961 0.0883 0.1961 0.1961 0 0.1078-0.08823 0.1961-0.1961 0.1961-0.1078 0-0.1961-0.0882-0.1961-0.1961zm7.295-8.682c-0.5844-0.622-0.565-1.121 0.04365-1.121 0.6101 0 1.13 0.5191 1.054 1.052-0.08338 0.5816-0.5865 0.6135-1.097 0.0695zm-1.146-3.18c-0.06207-0.1618-0.2221-0.2941-0.3556-0.2941-0.1335 0-0.4024-0.1765-0.5976-0.3921-0.1952-0.2157-0.4959-0.3922-0.6683-0.3922-0.3709 0-1.497-1.135-1.311-1.321 0.07067-0.0707 0.382 0.0212 0.6919 0.2043 0.3099 0.183 0.6752 0.3328 0.8119 0.3328 0.2862 0 1.946 1.675 1.946 1.964 0 0.3022-0.3919 0.2253-0.5173-0.1015zm-14.42 13.57c0.1165-0.1404 0.1669-0.4274 0.1118-0.6378-0.05502-0.2104 0.1104-0.7793 0.3677-1.264 0.2572-0.4849 0.5282-1.124 0.6022-1.421 0.07394-0.2966 0.221-0.5392 0.3268-0.5392 0.1058 0 0.1923-0.4304 0.1923-0.9563 0-0.6518 0.1035-1.042 0.3252-1.225 0.4172-0.3452 1.037-1.705 1.043-2.287 0.0024-0.2469 0.1808-0.7949 0.3964-1.218s0.3921-0.9354 0.3921-1.139c0-0.2038 0.2647-0.7359 0.5882-1.183 0.4871-0.6724 0.5882-1.001 0.5882-1.911 0-0.6047 0.144-1.422 0.3201-1.815 0.8786-1.965 1.138-2.454 1.581-2.98 0.2641-0.3139 0.4217-0.6654 0.3501-0.7811-0.07152-0.1157 0.08974-0.669 0.3584-1.229 0.6516-1.36 0.781-1.843 0.5341-1.996-0.4673-0.2888-1.006 0.1937-1.77 1.586-0.4449 0.8106-0.9138 1.439-1.042 1.397-0.1283-0.0421-0.2773-0.46-0.3313-0.9285-0.1895-1.647-0.8379-1.121-1.087 0.8823-0.1851 1.489-0.6609 2.587-1.439 3.321-0.6968 0.657-0.8302 1.483-0.2396 1.483 0.2041 0 0.422-0.1323 0.484-0.2941 0.161-0.4196 0.7134-0.3645 0.7134 0.0711 0 0.2008-0.2598 0.6921-0.5774 1.092-0.3176 0.3996-0.6802 1.038-0.8058 1.418-0.1642 0.4976-0.415 0.7698-0.8931 0.9696-0.7402 0.3093-0.8815 0.9186-0.3943 1.701 0.163 0.2617 0.2324 0.7264 0.1746 1.17-0.0966 0.7412-0.4451 1.039-0.4451 0.3806 0-0.1951-0.1149-0.5118-0.2554-0.704-0.2252-0.3079-0.2843-0.3144-0.4997-0.055-0.1343 0.1619-0.2957 0.611-0.3585 0.9981-0.1011 0.6232-0.06637 0.7037 0.3036 0.7037 0.4853 0 0.4905 0.0181 0.1929 0.6712-0.1747 0.3834-0.1678 0.5624 0.03091 0.8018 0.1938 0.2335 0.2007 0.3633 0.02882 0.5352-0.1248 0.1248-0.227 0.3734-0.227 0.5523 0 0.1789-0.2676 0.8268-0.5946 1.44-0.327 0.6129-0.5427 1.198-0.4791 1.301 0.06352 0.1028-0.11 0.3959-0.3857 0.6514-0.6039 0.5597-0.623 0.7879-0.1091 1.302 0.449 0.449 1.602 0.5308 1.928 0.1369zm-1.078-5.112c0.5644-0.74 0.5115-0.9065-0.2881-0.9065-0.5839 0-0.9546 0.4518-0.9546 1.164 0 0.6334 0.6691 0.495 1.243-0.257zm7.062-17.89c0.3917-0.8215 0.3327-0.9524-0.3521-0.7806-0.7498 0.1882-0.9534 1.491-0.2329 1.491 0.1354 0 0.3987-0.3197 0.585-0.7105zm2.773-0.6647c0-0.5984-0.06106-0.6836-0.4902-0.6836-0.564 0-0.7852 0.7029-0.3762 1.196 0.4207 0.5069 0.8664 0.2435 0.8664-0.5121zm8.983-16.63c0.6307-0.6583 0.7479-1.806 0.1837-1.799-0.712 9e-3 -1.963 1.482-1.743 2.053 0.1817 0.4735 0.9883 0.342 1.56-0.2543zm-20.72-1.497c0.05956-0.1552 0.02399-0.4328-0.07904-0.6169-0.2233-0.399-1.956-1.098-2.109-0.8512-0.212 0.343 0.4584 1.228 1.108 1.463 0.9053 0.3275 0.9559 0.3277 1.08 0.0051zm22.45-2.071c0.3061-0.5931 0.6149-1.461 0.6862-1.929 0.1241-0.814 0.1095-0.8477-0.3393-0.7843-0.365 0.05161-0.6593 0.4321-1.328 1.717-0.8196 1.575-0.8422 1.663-0.494 1.917 0.5774 0.4222 0.879 0.2338 1.475-0.9209zm-17.54-5.597c0.06742-0.1757-0.0373-0.416-0.2486-0.5705-0.356-0.2603-0.3559-0.2771 0.0025-0.6731 0.3013-0.333 0.323-0.4598 0.1204-0.704-0.4204-0.5066-0.8675-0.3264-1.251 0.5043-0.3652 0.7916-0.3651 0.7922 0.0832 1.269 0.5092 0.542 1.12 0.6242 1.293 0.1739zm225 139.8c-0.1103-0.2876 0.227-2.067 1.055-5.565 0.1659-0.701 0.3459-1.539 0.3999-1.863 0.054-0.3235 0.2763-0.7832 0.494-1.022 0.3074-0.3366 0.3724-0.6069 0.2915-1.211-0.0864-0.6441-0.0242-0.8525 0.3633-1.216 0.4794-0.4504 1.256-2.254 1.256-2.917 0-0.204 0.309-1.282 0.6866-2.395 0.3777-1.113 1.09-3.259 1.583-4.769 1.077-3.297 1.483-4.437 2.275-6.372 0.3307-0.8088 0.7093-2.044 0.8413-2.745 0.1644-0.8731 0.4656-1.605 0.9565-2.324 0.3941-0.577 0.7165-1.205 0.7165-1.395 0-0.1903 0.178-0.5723 0.3956-0.8489 0.6864-0.8726 1.164-2.163 1.169-3.156 2e-3 -0.5274 0.1706-1.321 0.3738-1.765 0.4839-1.055 1.206-3.438 1.202-3.968-2e-3 -0.2297 0.3366-1.112 0.7516-1.961 0.4149-0.8487 0.9512-2.072 1.192-2.72 0.5522-1.485 0.6902-1.781 1.284-2.745 0.2658-0.4314 0.5771-1.137 0.6919-1.569 0.4216-1.584 0.8299-2.465 1.543-3.328 0.4016-0.486 0.9173-1.444 1.146-2.129 0.2288-0.6852 0.7758-1.76 1.216-2.387 0.4398-0.6278 0.7996-1.294 0.7996-1.481 0-0.1869 0.2647-0.8429 0.5882-1.458 0.3235-0.615 0.5882-1.245 0.5882-1.401 0-0.1553 0.2647-0.8485 0.5882-1.54 0.4886-1.045 0.5882-1.506 0.5882-2.721 0-1.956-0.0642-2.083-1.055-2.083-0.7314 0-0.8552-0.0713-1.184-0.6824-0.2274-0.4223-0.8419-0.9798-1.612-1.463-0.9976-0.6255-1.235-0.8695-1.197-1.229 0.0437-0.4075-0.032-0.4489-0.8216-0.4489-0.8139 0-0.8802-0.0403-1.032-0.6276-0.218-0.8405-0.4899-0.9666-1.017-0.4714-0.5409 0.5082-1.113 0.5258-1.698 0.0523-0.4787-0.3876-0.3852-0.816 0.1779-0.816 0.8655 0 1.079-0.9923 0.3206-1.489-0.4222-0.2766-0.5781-0.286-1.107-0.0668-0.5781 0.2394-0.6423 0.2224-1.039-0.2753-0.2646-0.3319-0.6682-0.5615-1.078-0.6134-0.9932-0.1257-1.092-0.336-1.045-2.215 0.0317-1.265-0.0396-1.85-0.2792-2.293-0.1769-0.3275-0.3336-1.081-0.3482-1.674-0.0146-0.5931-0.1775-1.392-0.3621-1.775-0.6893-1.431-0.9301-3.636-0.6281-5.752 0.1467-1.028 0.1131-1.25-0.3065-2.023l-0.4713-0.8689 0.838-0.7217c0.7336-0.6319 0.8608-0.8636 1.021-1.862 0.1007-0.6269 0.1368-1.569 0.0801-2.094-0.0707-0.6547-0.0125-1.097 0.1851-1.409 0.1584-0.2499 0.3486-0.7446 0.4226-1.099s0.4337-1.037 0.7994-1.516c0.5235-0.6858 0.6407-0.9918 0.5513-1.439-0.0964-0.4819-7e-3 -0.6531 0.5921-1.131 0.601-0.4796 0.6899-0.6503 0.5992-1.151-0.0694-0.3838 0.0329-0.8585 0.2944-1.365 0.2204-0.4272 0.4028-0.9566 0.4051-1.176 7e-3 -0.6626 0.7171-2.019 1.189-2.271 0.7639-0.4088 3.386-3.197 4.057-4.314 0.3532-0.5881 0.992-1.554 1.42-2.148s0.8693-1.407 0.9816-1.809c0.1439-0.5145 0.6662-1.177 1.767-2.241 1.281-1.238 1.563-1.619 1.565-2.113 4e-3 -0.7916 0.1562-0.9809 0.9721-1.208 0.8958-0.2497 1.778-1.491 1.913-2.691 0.0836-0.7412 0.2281-0.9936 0.8607-1.502 0.6957-0.5591 0.7603-0.6923 0.7603-1.568 0-0.8662 0.0692-1.014 0.7309-1.559 0.402-0.3314 0.8516-0.6025 0.9991-0.6025s0.5184-0.1782 0.8242-0.3959c0.5424-0.3862 0.5553-0.4378 0.528-2.108-0.0336-2.06 0.1579-2.497 1.947-4.432 0.685-0.741 1.245-1.467 1.245-1.613 0-0.1463 0.4765-0.735 1.059-1.308 0.5824-0.5731 1.186-1.347 1.343-1.72 0.156-0.3727 0.7244-1.26 1.263-1.971 0.9082-1.199 0.9891-1.398 1.113-2.735 0.1022-1.1 0.232-1.533 0.5467-1.827 0.3751-0.3495 0.4012-0.5221 0.2867-1.896-0.1364-1.636-0.0649-1.798 0.8945-2.027 0.289-0.06896 0.6525-0.2524 0.8078-0.4077 0.2457-0.2457 0.3619-0.2045 0.896 0.3177 0.3375 0.33 0.614 0.7439 0.6144 0.9199 2e-3 0.6143 0.7566 1.594 1.229 1.594 0.5365 0 2.496 1.896 2.496 2.415 0 0.5585 0.5617 1.252 1.235 1.525 0.5982 0.2426 3.301 2.27 3.438 2.579 0.036 0.08093 0.1835 0.1471 0.328 0.1471 0.1444 0 0.6665 0.4727 1.16 1.051 0.6555 0.7673 0.8975 1.218 0.8975 1.671 0 0.4453 0.2128 0.8544 0.7541 1.449 0.8858 0.9738 1.158 1.679 1.412 3.663 0.1554 1.213 0.2857 1.563 0.7653 2.059 0.5345 0.5523 1.186 1.79 1.186 2.253 0 0.1085-0.2615 0.3325-0.581 0.4978-0.7322 0.3787-1.043 1.424-0.8673 2.919 0.148 1.259-0.1013 2.026-1.178 3.624-0.3887 0.577-0.7068 1.216-0.7068 1.419 0 0.2184-0.3213 0.5728-0.7843 0.8651-0.4314 0.2723-0.7843 0.6401-0.7843 0.8173 0 0.4432-0.936 1.634-1.284 1.634-0.1563 0-0.2841 0.1018-0.2841 0.2263 0 0.1244-0.3529 0.5284-0.7843 0.8976-0.7333 0.6277-0.7843 0.7394-0.7843 1.718 0 1.353-0.1334 1.667-0.7072 1.667-0.5405 0-0.5508-0.0407-0.233-0.9193 0.1979-0.5473 0.1868-0.7024-0.0684-0.9576-0.2753-0.2753-0.414-0.1905-1.446 0.8842-0.628 0.6538-1.218 1.189-1.312 1.189-0.3937 0-1.407 0.9546-2.428 2.287-1.289 1.683-2.298 2.615-2.831 2.615-0.6036 0-0.4656-0.6296 0.3009-1.372 1.161-1.125 1.701-2.045 1.631-2.775-0.0346-0.3607-0.1682-0.6558-0.2969-0.6558-0.4714 0-3.124 2.825-3.675 3.914-0.3676 0.7266-0.8252 1.276-1.362 1.634-0.4443 0.297-1.104 0.979-1.465 1.515-0.5858 0.8691-0.7354 0.9757-1.372 0.979-0.994 5e-3 -1.149 0.1527-1.393 1.328-0.2454 1.182-0.8554 2.295-1.258 2.295-0.4302 0-2.789 2.818-3.15 3.764-0.2322 0.6081-0.5287 0.9616-1.039 1.24-0.7197 0.3915-1.822 2.143-2.228 3.539-0.1146 0.3942-0.3882 0.6983-0.7936 0.8823-0.4349 0.1974-0.7134 0.5279-0.9378 1.113-0.1755 0.4576-0.4763 0.987-0.6684 1.176-0.3332 0.3285-0.3621 0.3271-0.6272-0.0305-0.3568-0.4812-0.1992-1.174 0.4949-2.174 1.599-2.305 2.359-4.468 1.664-4.735-0.2346-0.09-0.4621 5e-3 -0.6932 0.2908-0.1892 0.2337-0.396 0.4248-0.4596 0.4248-0.2027 0-0.124-0.7559 0.0925-0.8898 0.1145-0.0708 0.2894-0.3422 0.3886-0.6033 0.1854-0.4878 0.8792-0.8598 1.603-0.8598 0.6418 0 1.608-0.8588 2.019-1.794 0.2058-0.469 0.6864-1.217 1.068-1.662 0.3815-0.4451 0.8591-1.283 1.061-1.863 0.2817-0.8068 0.7445-1.444 1.977-2.72 0.8848-0.9166 2.021-2.196 2.524-2.843 0.5033-0.647 1.048-1.316 1.21-1.487 0.3779-0.3984 0.384-1.16 9e-3 -1.16-0.1568 0-0.503 0.1985-0.7692 0.4412s-0.7669 0.6559-1.113 0.9183c-0.3458 0.2624-0.9161 0.9242-1.267 1.471-0.3511 0.5464-0.9142 1.195-1.251 1.442s-0.8448 0.8203-1.128 1.274c-0.6249 1.001-1.424 1.957-3.548 4.246-0.8897 0.9586-1.618 1.831-1.618 1.938 0 0.1073-0.5682 0.9162-1.263 1.798-0.6944 0.8814-1.315 1.843-1.38 2.138-0.0646 0.2943-0.4789 0.9705-0.9206 1.503-2.772 3.339-3.94 6.338-2.994 7.688 0.4228 0.6037 0.6811 0.5376 1.361-0.3485 0.6218-0.8099 1.018-0.973 1.202-0.4943 0.0678 0.1765-0.2832 0.7325-0.8969 1.421-1.147 1.287-1.372 1.858-0.9128 2.317 0.1904 0.1904 0.2709 0.4863 0.2044 0.7513-0.0891 0.3549 0.1416 0.6604 1.225 1.623 0.7343 0.652 1.634 1.34 1.999 1.528s1.389 1.026 2.275 1.861c0.8864 0.8349 2.054 1.819 2.596 2.187 0.5412 0.368 1.442 1.223 2.002 1.901s1.323 1.427 1.695 1.667c0.8636 0.554 0.9925 1.075 0.5623 2.271-0.3862 1.074-0.2914 1.595 0.2899 1.595 0.2892 0 0.445-0.2015 0.5997-0.776 0.1149-0.4268 0.3004-0.8325 0.4121-0.9015 0.3663-0.2264 0.9627 0.5279 0.9627 1.218 0 0.8602 0.6323 1.535 1.169 1.248 0.4229-0.2263 0.5689-0.0825 0.8897 0.8761 0.1089 0.3253 0.4359 0.7007 0.7353 0.844 0.2966 0.142 0.5492 0.3194 0.5616 0.3944 0.0124 0.0751 0.052 0.4011 0.0882 0.7246 0.0368 0.3294 0.2543 0.7176 0.4943 0.8823 0.2357 0.1618 0.8498 0.7132 1.365 1.225 0.618 0.6148 1.103 0.9313 1.428 0.9313 0.3557 0 0.616 0.2008 0.9402 0.7253 0.5734 0.9278 0.5398 1.89-0.1112 3.174-0.3155 0.6226-0.5012 1.314-0.5012 1.866 0 0.4825-0.0883 0.9318-0.1961 0.9984-0.2766 0.171-0.244 0.991 0.049 1.232 0.1348 0.1107 0.4648 0.2318 0.7333 0.2691 0.7066 0.0981 0.7201 0.67 0.0295 1.251-0.3243 0.2729-0.6943 0.8241-0.8224 1.225-0.128 0.4009-0.5208 1.17-0.8729 1.709s-0.7308 1.309-0.8416 1.711c-0.1108 0.4017-0.5356 1.138-0.9442 1.637-0.6607 0.8063-0.7462 1.035-0.7727 2.069-0.0234 0.9135-0.1254 1.265-0.4755 1.637-0.249 0.265-0.3955 0.6052-0.332 0.7708 0.0669 0.1743-0.1653 0.6304-0.5634 1.107-0.3724 0.4458-0.6772 0.9176-0.6772 1.049 0 0.131-0.128 0.4094-0.2844 0.6187-0.2789 0.3732-0.2907 0.3718-0.6069-0.0714-0.4383-0.6142-0.8331-0.4813-1.343 0.452-0.2355 0.4314-0.7336 1.21-1.107 1.731s-0.7722 1.271-0.8864 1.667c-0.1709 0.5919-0.2894 0.7104-0.6674 0.6676-0.2528-0.0286-0.633 0.1037-0.845 0.2941-0.6774 0.6085-3.079 4.489-3.083 4.98 0 0.0683-0.4136 0.7998-0.9182 1.625-0.8481 1.388-0.9576 1.492-1.449 1.384-0.6271-0.1377-0.9332 0.2303-1.919 2.307-0.3553 0.7486-0.7533 1.323-0.9163 1.323-0.1585 0-0.2882-0.0775-0.2882-0.1723 0-0.316-1.101-0.6384-1.685-0.4937-1.273 0.315-3.926 3.757-6.059 7.861-0.5392 1.037-1.113 1.95-1.274 2.027-0.1618 0.0776-0.627 0.2838-1.034 0.458-0.4386 0.1879-0.8166 0.519-0.9286 0.8135-0.1038 0.2732-0.5899 0.9254-1.08 1.449-0.4902 0.524-1.162 1.514-1.492 2.2-0.7403 1.537-1.035 1.877-1.762 2.037-0.6416 0.1409-0.9584 0.5987-0.9584 1.385 0 0.3746-0.2441 0.7585-0.8205 1.291-0.7987 0.7374-1.049 1.213-1.664 3.164-0.2067 0.6557-0.4387 0.9969-0.7614 1.12-0.3479 0.1323-0.5452 0.4609-0.7875 1.312-0.1981 0.6958-0.6185 1.49-1.086 2.053-0.4196 0.5046-0.7629 1.012-0.7629 1.127 0 0.1155-0.1228 0.2099-0.2729 0.2099-0.1501 0-0.3282 0.2206-0.3959 0.4902-0.1399 0.5574-0.461 0.6439-0.6418 0.1729zm23.01-30.89c0.4903-0.4606 0.5787-0.8458 0.2418-1.054-0.2482-0.1534-1.357 0.8458-1.357 1.223 0 0.3974 0.6105 0.3048 1.115-0.1689zm4.834-8.788c0.3679-0.323 0.778-0.8507 0.9114-1.173 0.2823-0.6816 0.1198-1.573-0.2868-1.573-0.2922 0-0.4994 0.2501-1.505 1.816-0.9421 1.467-0.3929 2.048 0.8802 0.9298zm6.364-8.667c0.4247-0.4247 0.2815-0.9412-0.261-0.9412-0.5776 0-0.8307 0.4646-0.482 0.8848 0.293 0.3531 0.4354 0.3639 0.743 0.0563zm16.64-73.84c1.002-0.8377 1.625-1.894 1.306-2.213-0.3566-0.3566-0.9861-0.0237-2.328 1.231-1.173 1.098-1.533 1.783-1.141 2.175 0.1754 0.1754 1.205-0.3928 2.163-1.194zm-14.71-16.83c0.1142-0.4551-0.1885-1.054-0.5327-1.054-0.0919 0-0.301 0.259-0.4647 0.5757-0.2663 0.5149-0.2662 0.6071 0 0.874 0.3855 0.3855 0.8467 0.2026 0.9968-0.3954zm-282.5 103.7c0-0.4545 0.352-0.7184 0.6117-0.4586 0.2461 0.2461 0.0069 0.8392-0.3386 0.8392-0.1502 0-0.2731-0.1712-0.2731-0.3806zm0.6309-2.082c-0.4915-0.3442-0.5668-0.9091-0.1656-1.242 0.6396-0.5308 1.472 0.6746 0.8772 1.27-0.2384 0.2384-0.3372 0.2346-0.7117-0.0277zm0.3495-3.408c0-0.1015 0.08823-0.239 0.1961-0.3057 0.1078-0.0667 0.1961 0.0164 0.1961 0.1845 0 0.1681-0.08823 0.3057-0.1961 0.3057-0.1078 0-0.1961-0.083-0.1961-0.1845zm349-0.5018c0-0.1618 0.0882-0.2941 0.1961-0.2941 0.1078 0 0.1961 0.1323 0.1961 0.2941s-0.0882 0.2941-0.1961 0.2941c-0.1078 0-0.1961-0.1323-0.1961-0.2941zm-348.4-0.4252c0.08311-0.4316 0.8481-0.4902 0.8481-0.0649 0 0.1618-0.2064 0.3233-0.4586 0.359-0.3556 0.0504-0.4431-0.0156-0.3895-0.2941zm160.4-2.222c-0.1558-0.2521 0.0513-0.5882 0.3624-0.5882 0.1327 0 0.8574-0.5623 1.61-1.25 1.094-0.9988 1.542-1.594 2.231-2.965 0.6684-1.33 0.8153-1.787 0.6547-2.035-0.1139-0.1755-0.3713-0.2967-0.5721-0.2693-0.2007 0.0274-0.7764 0.105-1.279 0.1723l-0.9143 0.1225-0.5232 1.434c-0.5817 1.595-0.8703 1.941-1.462 1.753-0.4961-0.1574-0.5268-0.8314-0.0738-1.621 0.4511-0.7861 0.2321-1.311-0.4772-1.144-1.65 0.3893-2.14 0.3689-2.471-0.103-0.1765-0.252-0.321-0.6151-0.321-0.8068 0-0.3092 0.2074-0.3485 1.839-0.3485 2.211 0 2.335-0.0973 2.475-1.941l0.098-1.294 0.7317 0.0221c1.291 0.0389 1.638 0.6791 0.9842 1.818-0.312 0.5437-0.3151 0.6251-0.0339 0.9063 0.2442 0.2442 0.4214 0.2661 0.8458 0.1048 0.2953-0.1123 0.785-0.2041 1.088-0.2041s0.6378-0.1103 0.7432-0.2451c0.2877-0.3677 0.6705-2.097 0.549-2.479-0.0585-0.1844 4e-3 -0.4761 0.1396-0.6483 0.2201-0.2802 0.3441-0.2836 1.177-0.0328 1.113 0.3351 1.203 0.7377 0.4182 1.87-0.7792 1.124-0.5552 1.415 0.9639 1.253 1.54-0.1649 2.348 0.0942 2.259 0.7241-0.0598 0.4211-0.1336 0.4383-1.646 0.3836-2.051-0.0741-2.555 0.12-2.815 1.084-0.1111 0.4124-0.3333 0.9237-0.4938 1.136-0.1605 0.2123-0.2947 0.5476-0.2981 0.7451-8e-3 0.4257-3.377 3.857-3.787 3.857-0.156 0-0.5079 0.1765-0.7821 0.3921-0.5424 0.4266-1.03 0.5049-1.221 0.1961zm19.05-0.8333c-0.0671-0.4583-0.1799-1.04-0.2506-1.294-0.1179-0.422-0.0956-0.4396 0.2689-0.212 0.4827 0.3014 1.347 7e-3 1.991-0.6794 0.5694-0.6062 1.98-3.429 1.98-3.962 0-0.5249-0.2635-0.6429-1.176-0.5265-1.105 0.1407-1.532 0.45-2.16 1.563-0.3255 0.5768-0.9112 1.402-1.301 1.834-0.9336 1.033-2.979 2.646-3.597 2.835-0.2696 0.0828-0.6642 0.271-0.8769 0.4182-0.2127 0.1472-0.5436 0.2677-0.7353 0.2677-0.4973 0-0.4314-0.5618 0.0927-0.7901 0.2426-0.1057 0.9439-0.5667 1.558-1.025 1.217-0.907 3.78-3.955 3.587-4.266-0.1822-0.2948-1.17-0.2312-2.083 0.134l-0.8184 0.3274-0.5581-0.6246c-0.6126-0.6856-0.6396-0.775-0.365-1.207 0.1542-0.2424 0.2566-0.251 0.5825-0.049 0.4591 0.2845 2.12 0.3146 3.224 0.0582 1.206-0.2798 1.538-0.7453 1.565-2.197l0.0233-1.243 0.7949-0.0584c0.5766-0.0423 0.9401 0.0558 1.323 0.3574 0.6752 0.5311 0.6644 0.7187-0.0856 1.492-0.8997 0.9282-0.6747 1.322 0.6642 1.164 2.197-0.2604 2.527-0.2356 2.827 0.2118 0.2573 0.3845 0.2336 0.4798-0.268 1.078-0.8307 0.9914-1.286 1.705-1.98 3.108-0.8956 1.809-1.577 2.717-2.59 3.452-1.216 0.8821-1.488 0.8544-1.637-0.1674zm-74.1 0.2294c-0.422-0.2458-0.9314-1.197-0.9314-1.739 0-0.4136 0.4706-0.5547 0.6863-0.2058 0.0667 0.1078 0.4027 0.196 0.7468 0.196 1.068-1.7e-4 3.021-0.8612 6.284-2.77 1.575-0.9211 1.693-0.9943 2.576-1.595 1.43-0.9723 1.764-1.222 1.83-1.371 0.0688-0.1548 0.817-0.2098 0.817-0.0601 0 0.3933-6.035 5.207-6.529 5.207-0.0934 0-0.67 0.2909-1.281 0.6464-0.6112 0.3555-1.42 0.7687-1.798 0.9181-0.3774 0.1494-0.8967 0.432-1.154 0.628-0.5294 0.4034-0.7581 0.4299-1.248 0.1446zm29.2-0.115c-0.2763-0.2763-0.1028-0.4499 0.6536-0.6536 0.4314-0.1161 0.7843-0.2892 0.7843-0.3845 0-0.0954 0.3309-0.2823 0.7353-0.4155 0.7633-0.2515 1.224-0.5421 2.886-1.822 1.609-1.239 2.261-1.859 2.261-2.153 0-0.1525 0.1715-0.3221 0.381-0.3769 0.3521-0.0921 0.8409-1.226 0.667-1.547-0.039-0.072-0.3966-0.0408-0.7948 0.069-0.3982 0.11-1.133 0.1457-1.633 0.0794-0.8616-0.1143-0.9739-0.0711-2.171 0.8348-0.694 0.5254-1.481 1.024-1.748 1.107-0.2674 0.0836-0.6602 0.2724-0.8729 0.4196-0.2127 0.1472-0.4994 0.2677-0.6372 0.2677-0.3755 0-0.3017-0.5812 0.0927-0.7297 0.5438-0.2048 2.458-1.857 3.555-3.068 0.7367-0.8135 1.004-1.264 1.004-1.695 0-0.4893 0.0783-0.5861 0.4743-0.5861 0.8142 0 1.68 0.6202 1.681 1.204 5.7e-4 0.285-0.1311 0.569-0.2929 0.6311-0.1618 0.062-0.2941 0.2428-0.2941 0.4016 0 0.3669 0.3959 0.6214 0.5611 0.3607 0.0688-0.1086 0.5882-0.2605 1.154-0.3376 0.566-0.0771 1.079-0.2201 1.139-0.3178 0.2134-0.3453 1.194-0.1782 1.621 0.2761 0.2345 0.2496 0.4263 0.5088 0.4263 0.5759 0 0.2017-3.92 4.068-4.124 4.068-0.1041 0-0.1892 0.1324-0.1892 0.2941s-0.1216 0.2941-0.2701 0.2941c-0.1485 0-0.3777 0.1296-0.5092 0.2881-0.2826 0.3405-3.685 2.261-4.005 2.261-0.1216 0-0.5503 0.1765-0.9527 0.3921-0.7433 0.3984-1.346 0.498-1.583 0.2614zm-133.7-0.2653c0-0.3098 0.8904-1.622 1.371-2.02l0.4311-0.3572-0.139 0.6513c-0.2897 1.357-0.6331 1.926-1.163 1.926-0.2751 0-0.5002-0.0899-0.5002-0.2zm87.84-0.5843c-0.4314-0.4314-0.7843-0.8607-0.7843-0.954 0-0.0933 0.5956-0.2125 1.323-0.2647 1.086-0.078 1.675-0.2707 3.284-1.076 3.468-1.736 4.436-2.329 6.924-4.245 0.68-0.5236 1.297-0.8914 1.371-0.8173 0.0741 0.0741-0.0195 0.2476-0.2081 0.3854-0.1886 0.1379-0.3428 0.3082-0.3428 0.3786 0 0.0704-0.3309 0.485-0.7353 0.9213-1.067 1.151-4.392 3.397-7.255 4.899-0.7818 0.4103-1.678 0.9285-1.991 1.152-0.3133 0.223-0.6221 0.4056-0.6864 0.4056-0.0643 0-0.4697-0.3529-0.9011-0.7843zm32.15 0.4615c-0.643-0.4281-0.975-0.8559-0.975-1.256 0-0.262 0.254-0.3482 1.266-0.4295 1.007-0.0808 1.679-0.3072 3.284-1.106 1.11-0.5524 2.194-1.113 2.41-1.245 1.602-0.9817 3.267-2.094 3.972-2.653 0.459-0.3643 0.9875-0.633 1.174-0.597 0.2725 0.0525 0.1685 0.2514-0.5236 1.002-0.475 0.5153-1.268 1.217-1.763 1.558-2.615 1.807-4.154 2.781-5.213 3.297-0.647 0.3156-1.573 0.8384-2.059 1.162-1.036 0.6906-0.9577 0.6774-1.574 0.267zm-44.07-0.3046c-0.1294-0.1294-0.2353-0.5688-0.2353-0.9764 0-0.9706-0.5167-2.306-1.102-2.847-0.4296-0.3975-0.4394-0.4467-0.1243-0.623 0.2569-0.1438 0.6246-0.0408 1.476 0.4128 1.401 0.7467 1.5 0.7112 4.134-1.475 0.416-0.3454 0.8792-0.6985 1.029-0.7847 0.1502-0.0862 0.273-0.384 0.273-0.6617 0-0.4658-0.0494-0.4948-0.6372-0.3741-0.3505 0.072-1.343 0.217-2.206 0.3223-1.863 0.2274-4.119 0.6791-5.524 1.106-0.5579 0.1695-1.144 0.2585-1.302 0.1978-0.3093-0.1187-0.9189-1.207-0.9189-1.64 0-0.3135 0.6553-0.3468 1.19-0.0605 0.269 0.144 1.083 0.1187 2.781-0.0866 1.32-0.1596 3.239-0.3804 4.264-0.4908 1.837-0.1979 3.116-0.4121 4.162-0.697 0.4396-0.1198 0.6394-0.0404 1.127 0.4476 0.3262 0.3262 0.5932 0.7622 0.5932 0.9689 0 0.3549-0.7066 0.8305-1.235 0.8311-0.1297 1.5e-4 -0.7211 0.3368-1.314 0.748-0.968 0.6712-2.921 1.847-4.241 2.552-0.4543 0.2429-0.4801 0.3338-0.3624 1.276 0.1074 0.8596 0.0622 1.096-0.2963 1.552-0.4448 0.5654-1.133 0.7013-1.532 0.3025zm-21.02-0.2538c-0.3297-0.3973-0.2887-1.706 0.0756-2.41 0.1636-0.3165 0.4941-1.431 0.7343-2.477 0.4191-1.825 0.423-1.925 0.0958-2.479-0.1875-0.3175-0.2866-0.6653-0.22-0.7729 0.201-0.3252 1.135-0.219 1.837 0.2087l0.6609 0.4029 2.617-0.4037c1.439-0.222 3.065-0.4037 3.613-0.4037 0.5482 0 1.261-0.1369 1.585-0.3041 0.5488-0.2838 0.6327-0.2766 1.255 0.1078 1.001 0.6187 1.058 1.09 0.2297 1.895-0.3815 0.3706-0.9362 1.088-1.232 1.595-0.2963 0.5068-0.7905 1.27-1.098 1.696-0.3955 0.5474-0.5288 0.9209-0.4548 1.274 0.1981 0.9465-0.0602 1.056-2.871 1.215-1.436 0.0813-3.136 0.166-3.777 0.1881-0.9391 0.0325-1.248 0.1294-1.591 0.5-0.4864 0.5249-1.103 0.5953-1.459 0.1667zm5.783-1.876c0.9706-0.1223 1.875-0.3124 2.009-0.4224 0.2247-0.184 1.04-1.593 2.273-3.929 0.4732-0.8965 0.478-0.94 0.1238-1.13-0.4204-0.225-2.585-0.0869-4.508 0.2876-0.7034 0.137-1.547 0.2098-1.874 0.1618-0.3589-0.0526-0.6729 0.0166-0.7913 0.1744-0.5481 0.7309-1.247 4.285-0.9793 4.982 0.1048 0.2732 0.2941 0.3118 1.055 0.215 0.51-0.0648 1.721-0.2179 2.692-0.3402zm-63.79 0.4923c0.03725-0.1922 0.1865-0.389 0.3316-0.4373 0.1687-0.0561 0.2394 0.0382 0.1961 0.2616-0.03726 0.1922-0.1865 0.389-0.3316 0.4373-0.1687 0.0562-0.2394-0.0382-0.1961-0.2616zm288.9-2.523c-0.0589-0.1533-0.012-0.4564 0.1042-0.6734 0.1161-0.217 0.2112-0.5768 0.2112-0.7996 0-0.2228 0.1765-0.5815 0.3921-0.7972 0.2157-0.2157 0.3921-0.6019 0.3921-0.8583 0-0.2564 0.1324-0.576 0.2941-0.7103 0.1618-0.1342 0.2941-0.3366 0.2941-0.4497 0-0.3157 1.218-2.767 1.456-2.93 0.1157-0.0793 0.2765-0.1454 0.3574-0.147 0.2688-5e-3 0.1495 1.263-0.175 1.86-0.1758 0.3235-0.4418 0.8216-0.5911 1.107-0.1493 0.2852-0.4019 0.6269-0.5614 0.7593-0.1595 0.1324-0.29 0.3592-0.29 0.5039 0 0.1448-0.1765 0.3576-0.3921 0.4731-0.3245 0.1736-0.3922 0.4105-0.3922 1.372 0 0.9488-0.0697 1.2-0.3792 1.366-0.4983 0.2667-0.5928 0.2568-0.7204-0.0758zm-180-0.7263c-0.1837-0.3371-0.5325-0.8572-0.7752-1.156-0.5819-0.7159-0.5622-0.7803 0.2384-0.7803 0.9169 0 1.978 0.5341 2.251 1.133 0.1905 0.4182 0.1594 0.5587-0.2112 0.9531-0.5962 0.6346-1.103 0.5839-1.503-0.1502zm129.6-0.7331c-0.1419-0.0899-1.245-0.1669-2.451-0.1709-2.737-9e-3 -4.801-0.3098-7.185-1.047-1.02-0.3154-2.134-0.5734-2.476-0.5734-1.174 0-2.806-0.994-5.876-3.578-0.9342-0.7863-1.506-1.127-1.89-1.127-0.4138 0-0.5501-0.0943-0.5501-0.3806 0-0.2093 0.0838-0.4324 0.1862-0.4956 0.1023-0.0633 1.448-0.1443 2.99-0.18 2.015-0.0467 3.245-0.1785 4.372-0.4685 2.252-0.5793 4.299-1.006 4.389-0.9157 0.0429 0.0429-0.0326 0.2114-0.1679 0.3744-0.4516 0.5442-0.0937 0.8897 0.9192 0.8874 1.799-4e-3 2.366-0.1882 2.789-0.905 0.2146-0.3638 0.5476-0.6633 0.74-0.6657 0.1924-2e-3 0.5703-0.1769 0.8399-0.3878s0.5868-0.3854 0.7049-0.3878c0.3183-7e-3 0.7796-0.6055 1.021-1.326 0.1171-0.3493 0.4736-0.9669 0.7922-1.372 0.3186-0.4056 0.6346-0.9242 0.7022-1.153 0.1613-0.545-0.1826-1.424-0.6194-1.584-0.1903-0.0695-0.5911-0.3283-0.8906-0.575-0.3045-0.2509-0.6781-0.3974-0.8475-0.3324-0.1666 0.0639-0.5577-0.0721-0.8691-0.3023-0.3114-0.2302-0.705-0.4186-0.8748-0.4186-0.1698 0-0.4867-0.3018-0.7043-0.6706-0.2176-0.3688-0.6557-0.7613-0.9736-0.8721-0.9404-0.3278-2.285-1.999-3.127-3.887-1.282-2.873-1.326-9.168-0.0936-13.54 1.015-3.604 1.988-6.612 2.36-7.302 0.1457-0.2696 0.4948-1.02 0.7759-1.667 0.281-0.647 0.5911-1.309 0.6891-1.471 0.343-0.5665 0.9093-1.867 1.04-2.389 0.0724-0.2894 0.3961-0.7145 0.7194-0.9447 0.3265-0.2325 0.5877-0.5976 0.5877-0.8214 0-0.2216 0.2576-0.8994 0.5724-1.506 1.004-1.935 2.173-4.517 2.173-4.801 0-0.308 0.4713-0.7658 0.6276-0.6096 0.0557 0.0557 0.8468 0.222 1.758 0.3695 1.309 0.2118 1.943 0.4398 3.02 1.085 1.678 1.005 2.208 1.826 2.412 3.739 0.0879 0.8225 0.2744 1.494 0.4768 1.718 0.2502 0.2765 0.3325 0.7302 0.3325 1.833 0 1.305 0.0672 1.572 0.6138 2.434 0.9519 1.501 1.726 3.889 1.734 5.348 4e-3 0.7783 0.1005 0.9385 1.177 1.961l1.172 1.113 0.052 6.862c0.0504 6.638 0.0383 6.895-0.3682 7.85-0.2311 0.5432-0.4783 1.514-0.5493 2.157-0.2888 2.616-0.7584 4.554-1.472 6.071-0.7985 1.698-1.287 2.872-1.959 4.706-0.4866 1.328-0.7048 1.83-0.9805 2.255-0.2696 0.4156-0.9134 1.966-1.058 2.549-0.1824 0.7337-2.294 3.171-3.903 4.504-1.414 1.172-2.175 1.442-2.853 1.012zm0.6678-24.68c0.5174-0.8358 1.194-1.872 1.503-2.304 0.3094-0.4314 0.8192-1.181 1.133-1.667 0.3137-0.4853 0.7656-1.124 1.004-1.419l0.4337-0.5364-0.4065-0.8361c-0.2236-0.4599-0.4667-1.179-0.5403-1.598-0.0735-0.4191-0.3132-1.005-0.5325-1.301-0.3886-0.5256-0.3922-0.6206-0.1422-3.748 0.378-4.728 0.3762-4.765-0.231-4.836-0.5353-0.0622-0.7329 0.3029-1.889 3.49-0.9248 2.55-1.903 8.181-1.83 10.54 0.0868 2.813 0.0777 3.298-0.0788 4.205-0.3497 2.025 0.3258 2.03 1.576 0.011zm-144.6 23.26c-0.2776-0.1032-0.4894-0.387-0.5628-0.7541-0.0648-0.3238-0.2394-0.6897-0.3882-0.8132-0.3156-0.262-0.3539-0.69-0.0771-0.8611 0.3131-0.1935 1.589 0.2404 2.089 0.7106 0.9677 0.9091 0.1827 2.18-1.061 1.718zm31.58-0.0281c-0.4896-0.6441-1.207-2.07-1.097-2.18 0.0681-0.0681 0.4661-0.1238 0.8844-0.1238 0.9573 0 1.723 0.6901 1.723 1.553 0 0.829-1.053 1.353-1.511 0.7511zm-14.69-1.274c-0.1814-0.2966-0.555-0.7338-0.8302-0.9717-0.5993-0.5181-0.4628-0.7185 0.4658-0.6836 0.7221 0.0272 1.335 0.277 1.911 0.7795 0.4248 0.3706 0.4354 0.7064 0.0351 1.107-0.4872 0.4872-1.206 0.3821-1.581-0.2311zm77.63 0.098c-0.2641-0.4123-0.6052-1.499-0.5025-1.602 0.0532-0.0532 0.4387 0.0777 0.8567 0.291 0.5602 0.2858 0.76 0.5101 0.76 0.8529 0 0.63-0.7948 0.9568-1.114 0.4582zm-39.51-0.1994c-0.1671-0.133-0.4562-0.4835-0.6424-0.779-0.3209-0.5092-0.3209-0.544 2e-3 -0.6677 0.4408-0.1692 1.352 0.383 1.428 0.8649 0.084 0.5377-0.3959 0.8927-0.7866 0.5818zm41.21-1.364c-0.6613-0.7241-0.6949-0.8495-0.2706-1.012 0.3562-0.1367 1.381 0.3439 1.512 0.7088 0.112 0.3127-0.1968 0.9354-0.4639 0.9354-0.1101 0-0.4599-0.2844-0.7774-0.6319zm-39.94-0.282c-0.7071-0.4975-0.5671-0.8849 0.2941-0.8136 0.6362 0.0526 0.7353 0.1266 0.7353 0.5484 0 0.587-0.4187 0.6949-1.029 0.2652zm162.2-2.475c-0.8634-0.8858-1.794-1.964-2.069-2.395-0.8554-1.344-1.288-2.138-1.442-2.647-0.0814-0.2696-0.3562-0.7974-0.6106-1.173-0.2544-0.3755-0.4621-0.8608-0.4616-1.078 2e-3 -0.5337-0.9792-3.267-1.296-3.614-0.3716-0.4063-0.8592 0.0648-0.87 0.8405-5e-3 0.3373-0.2123 0.9662-0.4614 1.398l-0.4529 0.7843-2.095-0.0428c-1.577-0.0322-2.17-0.1171-2.396-0.3431-0.1652-0.1652-0.4568-0.3003-0.6481-0.3003-0.3796 0-0.9968-0.5831-0.9968-0.9418 0-0.1235-0.2745-0.3666-0.61-0.5401-0.6963-0.3601-3.115-2.747-3.115-3.075 0-0.1191-0.1192-0.3558-0.265-0.526-0.5928-0.6925-1.866-3.467-2.436-5.309-1.047-3.383-1.441-5.97-1.525-10-0.0346-1.671-0.1439-3.304-0.243-3.627-0.099-0.3235-0.111-0.7647-0.0265-0.9804 0.0846-0.2157 0.161-1.142 0.1697-2.059 9e-3 -0.9166 0.1354-2.064 0.2814-2.549 0.146-0.4853 0.3245-1.412 0.3965-2.059 0.2095-1.88 0.5346-3.087 1.03-3.82 0.3105-0.4598 0.461-0.9642 0.461-1.544 0-0.9218-0.2135-0.6297 3.287-4.496l0.8361-0.9235 0.4057 0.5392c0.4133 0.5493 1.213 0.7292 1.46 0.3286 0.0716-0.1158-0.0556-0.4083-0.2825-0.6499-0.5461-0.5813-0.5226-0.7492 0.1773-1.267l0.59-0.4362 0.8315 0.5111c0.4573 0.2811 1.184 0.7708 1.616 1.088 0.4314 0.3175 1.049 0.7108 1.372 0.8739 1.159 0.5845 1.527 0.8471 2.424 1.728 0.5001 0.4916 1.291 1.096 1.757 1.343 0.9008 0.4781 0.9116 0.4935 2.2 3.163 0.7921 1.642 1.34 3.244 1.787 5.227 0.1094 0.4853 0.3274 1.386 0.4844 2.001 0.1849 0.7248 0.2756 1.98 0.2578 3.565-0.0151 1.345 0.037 2.551 0.116 2.678 0.079 0.1278 0.1297 2.539 0.1128 5.359-0.023 3.836-0.1022 5.364-0.3146 6.07-0.223 0.741-0.2388 1.154-0.0737 1.923 0.1156 0.539 0.1634 1.159 0.1061 1.378-0.0572 0.2189-0.0131 0.5974 0.0979 0.8412 0.152 0.3336 0.1245 0.5931-0.1112 1.049-0.4391 0.8492-0.3972 1.114 0.2876 1.814 0.5512 0.5639 0.5755 0.6426 0.2941 0.9535-0.1687 0.1864-0.3067 0.6216-0.3067 0.967 0 0.713 0.4782 1.988 0.7457 1.988 0.0976 0 0.4171 0.2221 0.7099 0.4935 0.4915 0.4555 0.5225 0.5733 0.403 1.53-0.1026 0.8206-0.0646 1.09 0.1824 1.295 0.2098 0.1742 0.313 0.5877 0.3154 1.264 2e-3 0.7593 0.153 1.269 0.6142 2.084 0.8432 1.489 1.382 2.577 1.308 2.638-0.0346 0.0284-0.5972 0.105-1.25 0.1702l-1.188 0.1185zm-12.03-19.94c0-0.1078 0.1264-0.1961 0.2809-0.1961s0.3378-0.1793 0.4074-0.3984c0.0695-0.2191 0.6522-1.06 1.295-1.869 0.6426-0.8086 1.253-1.694 1.357-1.967 0.2783-0.732 0.2297-3.197-0.0848-4.308-0.4622-1.632-0.5365-2.649-0.3005-4.112 0.1737-1.077 0.1717-1.628-9e-3 -2.365-0.1294-0.5284-0.3264-1.755-0.4378-2.725-0.2935-2.557-0.6377-2.609-1.614-0.2451-0.3006 0.7279-0.6248 1.323-0.7204 1.323s-0.174 1.085-0.174 2.412c0 1.614-0.0777 2.489-0.2353 2.647-0.183 0.183-0.183 0.2353 0 0.2353 0.3723 0 0.2742 0.5492-0.1789 1.002-0.3228 0.3228-0.3895 0.5662-0.3025 1.103 0.0614 0.3787 0.2478 0.8389 0.4142 1.023 0.3877 0.4284 0.384 0.7888-0.0112 1.078-0.2107 0.154-0.3482 0.6596-0.4188 1.539-0.0602 0.7492-0.2196 1.405-0.3726 1.532-0.3582 0.2973-0.3384 0.8513 0.0417 1.167 0.2482 0.206 0.2828 0.4835 0.1756 1.407-0.1102 0.949-0.0731 1.218 0.2114 1.532 0.3746 0.4139 0.6764 0.4965 0.6764 0.1852zm85 16.7c-0.2157-0.0703-0.8911-0.456-1.501-0.8569-1.157-0.7604-3.638-3.679-4.773-5.615-0.6924-1.181-1.128-1.389-1.822-0.8711-0.5674 0.4236-0.6055 0.4849-1.35 2.175-0.5767 1.308-1.148 1.701-1.75 1.201-0.1702-0.1413-0.6102-0.2366-0.9778-0.2118-0.559 0.0376-0.6684-0.0212-0.6684-0.3594 0-0.4766-0.5189-0.7359-0.8367-0.4182-0.1222 0.1222-0.4692 0.2221-0.7711 0.2221-0.4269 0-0.549-0.0916-0.549-0.4115 0-0.5066-1.078-1.549-1.602-1.549-0.2114 0-0.5617 0.095-0.7786 0.211-0.5634 0.3015-1.627-0.4718-2.041-1.483-0.1768-0.4325-0.4895-1.164-0.6949-1.625-0.2054-0.4612-0.3734-1.024-0.3734-1.25 0-0.2262-0.3479-0.9322-0.7731-1.569-0.4976-0.7452-0.8192-1.488-0.9025-2.083-0.0712-0.5091-0.2875-1.676-0.4808-2.592-0.2023-0.9595-0.4081-3.076-0.4851-4.988-0.0956-2.374-0.2133-3.435-0.4127-3.72-0.3677-0.5249-0.3548-1.488 0.0273-2.034 0.2526-0.3606 0.266-0.5488 0.0761-1.074-0.1864-0.5154-0.17-0.8389 0.0859-1.701 0.1879-0.6326 0.316-1.776 0.316-2.819 0-1.368 0.0811-1.89 0.3676-2.366 0.206-0.3427 0.425-1.204 0.4982-1.96 0.1091-1.127 0.3254-1.724 1.313-3.627 0.6502-1.253 1.298-2.411 1.441-2.573 0.1422-0.1619 0.3192-0.5801 0.3934-0.9293 0.0933-0.4389 0.5087-0.9685 1.345-1.715 0.6657-0.5938 1.299-1.078 1.406-1.076 0.1078 2e-3 0.4166 0.176 0.6862 0.3869 0.2696 0.2109 0.5982 0.3854 0.7302 0.3878 0.3266 6e-3 0.8946-1.135 0.7511-1.509-0.1615-0.4208 0.2412-0.8398 0.8072-0.8398 0.5607 0 1.454 0.4308 1.828 0.8815 0.1457 0.1756 0.7316 0.629 1.302 1.008 1.207 0.801 1.764 1.605 1.956 2.826 0.168 1.065 0.7234 1.964 1.931 3.128 0.8209 0.7909 1.403 1.78 2.309 3.921 0.6787 1.604 1.717 6.658 1.717 8.356-6e-5 0.6535 0.1797 1.332 0.5658 2.134 0.5901 1.227 1.199 3.415 1.199 4.31 0 0.286-0.091 0.6898-0.202 0.8974-0.1499 0.2801-0.1184 0.5391 0.1219 1.004 0.4967 0.9604 1.051 7.682 0.6891 8.358-0.1847 0.3451-0.164 0.5254 0.1077 0.9402 0.2647 0.404 0.3392 0.9827 0.3503 2.718 8e-3 1.307 0.1031 2.317 0.2328 2.479 0.4766 0.596 0.6733 5.668 0.24 6.19-0.2303 0.2776-0.429 0.2951-1.05 0.0925zm-12.96-17.94c0.4579-0.4712 1.06-1.006 1.338-1.188 0.8677-0.5685 1.196-1.549 1.06-3.163-0.0656-0.7765-0.2473-1.665-0.4038-1.975-0.2389-0.4727-0.67-2.216-1.027-4.154-0.1263-0.6852-1.048-0.5173-1.414 0.2574-0.1528 0.3235-0.4339 0.8998-0.6247 1.281-0.2929 0.5847-0.3574 1.363-0.4146 5-0.0372 2.369 3e-3 4.418 0.0909 4.552 0.2606 0.4026 0.5201 0.2888 1.395-0.6116zm-234.3 16.56c-0.0599-0.0969-0.5597-0.3382-1.111-0.5364-1.245-0.4476-3.046-2.295-3.845-3.943-0.7198-1.485-1.112-1.496-1.917-0.0546-0.5125 0.9176-0.7393 1.126-1.558 1.43-0.5267 0.1956-1.287 0.6167-1.69 0.9358-1.179 0.9342-1.953 0.781-4.598-0.9105-1.893-1.211-2.479-2.216-2.962-5.078-0.5015-2.973-0.5009-8.783 2e-3 -11.67 0.3363-1.932 1.145-4.757 1.487-5.196 0.3517-0.4514 1.204-2.868 1.591-4.51 0.3974-1.687 1.175-4.289 1.846-6.176 0.5997-1.686 1.101-2.548 1.534-2.64 2.39-0.5054 5.598-0.3716 6.288 0.2622 0.2252 0.2069 0.8948 0.5316 1.488 0.7214 1.942 0.6215 2.143 0.7144 2.245 1.04 0.2132 0.678 0.689 3.688 0.6924 4.381 2e-3 0.3991 0.136 1.234 0.2977 1.855 0.1618 0.621 0.2963 1.839 0.2989 2.706 2e-3 0.867 0.1051 1.973 0.2278 2.459 0.1226 0.4853 0.2308 2.162 0.2403 3.725l0.0173 2.843 0.8015 1.007c0.4408 0.5537 0.9021 1.392 1.025 1.863 0.4214 1.613 0.7224 5.171 0.7224 8.536 0 3.167-0.0257 3.401-0.4338 3.953-0.2386 0.3225-0.5364 0.9938-0.6618 1.492-0.1361 0.5404-0.4263 1.061-0.72 1.292-0.5191 0.4083-1.127 0.5062-1.309 0.211zm-9.389-10.87c0.1966-0.2496 0.6051-0.616 0.9078-0.8142 0.8294-0.543 1.376-1.758 1.258-2.798-0.0796-0.706-0.0133-0.9591 0.3705-1.415 0.5643-0.6706 0.5921-1.349 0.0953-2.322-0.2047-0.4012-0.4361-1.258-0.5142-1.904-0.2336-1.932-0.6313-3.849-0.8423-4.06-0.2547-0.2547-0.6242-0.0272-0.6242 0.3842 0 0.1753-0.1648 0.6774-0.3661 1.116-0.9793 2.132-1.156 3.046-1.177 6.091-0.0113 1.618-0.0754 3.574-0.1424 4.346-0.0671 0.773-0.0629 1.501 9e-3 1.618 0.2133 0.3451 0.6428 0.2439 1.025-0.2416zm50.1 10.85c-0.3549-0.0841-0.796-0.2838-0.9804-0.4438-0.1843-0.16-0.5743-0.3477-0.8667-0.4171-0.5025-0.1193-3.37-1.394-4.498-2-0.2862-0.1537-0.6447-0.2794-0.7966-0.2794-0.4555 0-1.314-1.045-1.455-1.772-0.0725-0.3735-0.3903-1.059-0.7065-1.523-0.3161-0.4642-0.6541-1.12-0.751-1.458-0.1971-0.6871 0.0559-5.765 0.3884-7.795 0.4962-3.03 0.6167-3.701 0.8982-5 0.1636-0.7549 0.3826-1.549 0.4865-1.765 0.5498-1.141 1.074-2.812 1.595-5.086 0.3197-1.395 0.685-2.662 0.8117-2.815 0.1268-0.1527 0.3222-0.4406 0.4342-0.6397 0.8616-1.531 1.984-3.173 2.277-3.329 0.1937-0.1036 0.7991-0.1885 1.345-0.1885 1.434 0 1.686-0.3262 1.835-2.371 0.066-0.9069 0.0754-3.057 0.0205-4.779-0.0549-1.721-0.049-3.332 0.0129-3.578 0.1477-0.5884 0.5914-0.5683 1.215 0.0549 0.2769 0.2769 0.7016 0.5788 0.9438 0.6709 0.7934 0.3017 1.407 1.687 1.553 3.505 0.0725 0.9019 0.2503 1.872 0.3952 2.157 0.1512 0.2968 0.3022 1.436 0.3545 2.674 0.0598 1.418 0.2177 2.508 0.4609 3.182 0.3524 0.9767 0.3539 1.053 0.0313 1.599-0.1863 0.3154-0.3387 0.8356-0.3387 1.156s-0.2221 1.085-0.4936 1.699c-0.4111 0.9296-0.5665 1.106-0.9306 1.054-0.2817-0.0401-0.5598-0.3236-0.7825-0.7975-0.3802-0.8092-0.8768-0.9519-1.365-0.3921-0.81 0.9284-1.105 6.193-0.4668 8.322 0.209 0.697 0.2872 1.372 0.2078 1.795-0.0815 0.4344-0.0211 0.9133 0.1683 1.334 0.1625 0.361 0.3381 1.45 0.3901 2.421 0.1005 1.873 0.7559 4.019 1.227 4.019 0.1394 0 0.5714-0.6236 0.9598-1.386 0.3885-0.7623 0.7844-1.534 0.8798-1.716 0.0955-0.1813 0.4604-0.9032 0.8109-1.604 0.8996-1.799 0.9862-1.95 1.697-2.975 0.3496-0.5037 0.7348-1.386 0.8559-1.961 0.1211-0.5747 0.283-1.133 0.3596-1.241 0.0766-0.1078 0.2901-0.6044 0.4743-1.103 0.3645-0.9873 0.9586-1.657 1.289-1.453 0.3139 0.194 0.2509 2.803-0.0998 4.133-0.1695 0.6427-0.2625 1.46-0.2066 1.817 0.0952 0.6071-0.1524 1.973-0.7684 4.238-0.2233 0.8213-0.2202 1.066 0.0202 1.642 0.6194 1.482 0.1864 3.87-0.9789 5.398-0.839 1.1-2.047 3.085-2.497 4.103-0.2264 0.5122-0.4747 0.9313-0.552 0.9313-0.0772 0-0.5287 0.2631-1.003 0.5846-0.4746 0.3216-0.9824 0.5862-1.129 0.5882-0.1462 2e-3 -0.528 0.2242-0.8484 0.4938-0.6101 0.5134-0.827 0.5476-1.884 0.2972zm-19.43-1.077c-0.5093-0.5525-0.8092-1.064-0.8092-1.38 0-0.2763-0.1718-0.839-0.3817-1.251-0.3728-0.7307-0.7544-2.058-1.274-4.432-0.1416-0.647-0.3925-1.706-0.5576-2.353-0.9416-3.69-0.8992-3.38-1.514-11.08-0.3656-4.576-0.3734-4.594-1.819-4.051-0.4542 0.1704-1.288 0.3687-1.852 0.4408-0.5643 0.0721-1.136 0.2634-1.27 0.4251-0.3226 0.3886-0.2394 5.259 0.1391 8.147 0.1527 1.165 0.3343 3.018 0.4036 4.117 0.1104 1.751 0.1933 2.096 0.669 2.784 0.5649 0.8158 0.7057 1.397 0.9131 3.767l0.1237 1.414-0.9566 1.075c-1.197 1.345-1.694 1.408-2.873 0.3617-0.4559-0.4044-0.9994-0.8294-1.208-0.9444-0.259-0.1429-0.528-0.7636-0.8497-1.961-0.259-0.9634-0.6399-2.078-0.8465-2.477-0.2066-0.3988-0.3757-0.953-0.3757-1.232 0-0.2786-0.1685-1.011-0.3743-1.628-0.2059-0.6167-0.4372-1.721-0.5141-2.455-0.0768-0.7334-0.2613-1.455-0.4099-1.604-0.2164-0.2164-0.2702-1.339-0.2702-5.637 0-3.093-0.0782-5.446-0.1846-5.553-0.1015-0.1024-0.2783-1.437-0.3928-2.965-0.1145-1.528-0.2825-2.98-0.3733-3.225-0.0949-0.2563-0.0829-0.714 0.028-1.075 0.1594-0.5193 0.1199-0.7475-0.2264-1.308-0.4349-0.7036-0.5656-1.989-0.2237-2.201 0.1076-0.0666 0.392 0.0165 0.6318 0.1845 0.57 0.3993 0.6061 0.3936 1.318-0.2057 0.5053-0.4252 0.7262-0.489 1.313-0.3789 1.017 0.1907 1.733 1.086 2.317 2.897 0.2743 0.8505 0.5 1.739 0.5014 1.975 2e-3 0.236 0.1767 1.267 0.3896 2.292 0.2128 1.024 0.3895 2.304 0.3926 2.843 6e-3 1.076 0.2574 1.688 0.563 1.371 0.1032-0.1069 0.5365-0.8562 0.9629-1.665 0.4264-0.8088 1.014-1.912 1.307-2.451 0.725-1.337 0.5965-2.321-0.4792-3.673-0.4319-0.5425-0.7854-1.091-0.7854-1.218 0-0.4024 1.079-1.285 1.579-1.292 0.2637-3e-3 0.6507-0.1358 0.86-0.2941s0.7125-0.2879 1.118-0.2879 0.9538-0.0985 1.218-0.219c0.4009-0.1827 0.7313-0.1177 1.994 0.3921 0.8324 0.3361 1.71 0.6111 1.951 0.6111 0.2404 0 0.7369 0.2123 1.103 0.4718 0.3664 0.2595 1.152 0.7214 1.745 1.026 1.509 0.7761 2.982 1.722 3.355 2.155 0.174 0.2016 0.4755 0.7929 0.67 1.314 0.3363 0.9009 0.337 0.9756 0.014 1.522-0.3326 0.5631-0.3279 0.5961 0.231 1.602 0.6139 1.104 1.188 3.976 0.9192 4.601-0.0822 0.1911-0.1758 1.097-0.2079 2.014-0.0456 1.302-0.1898 3.971-0.2662 4.927-5e-3 0.0678-0.2702 0.2311-0.5885 0.363-0.3183 0.1318-0.7173 0.4513-0.8868 0.71-0.1695 0.2587-0.4277 0.4704-0.5738 0.4704-0.6264 0-0.7573 0.5834-0.8146 3.631-0.0506 2.691-0.1045 3.115-0.4716 3.709-0.2587 0.4186-0.3726 0.8416-0.303 1.126 0.1852 0.7566-0.2419 4.009-0.6467 4.924-0.2774 0.6271-0.5982 0.9713-1.195 1.283-0.4488 0.2339-0.8903 0.4253-0.9811 0.4253-0.0908 0-0.5292-0.3951-0.9743-0.8779zm57.33 0.6872c-0.0649-0.1049-0.4657-0.2844-0.8908-0.3988-0.4251-0.1145-1.011-0.4127-1.302-0.6628l-0.5286-0.4547-0.0228-5.274c-0.0125-2.901 0.0606-5.759 0.1624-6.352 0.1018-0.5931 0.2022-2.27 0.223-3.725 0.0433-3.027 0.2764-4.285 0.8665-4.677 0.4879-0.3239 0.52-0.894 0.106-1.885-0.2734-0.6543-0.2739-0.8199-5e-3 -1.642 0.4648-1.419 0.6072-3.963 0.2484-4.438-0.2634-0.3486-0.3427-0.3598-0.8024-0.1138-0.497 0.266-1.294 1.385-1.294 1.817 0 0.1184-0.2159 0.4984-0.4797 0.8443-0.2638 0.3459-0.5385 0.863-0.6102 1.149-0.1457 0.5804-0.9453 1.298-1.446 1.298-0.7529 0-0.7969 0.3112-0.8021 5.676-4e-3 4.447-0.0607 5.449-0.3871 6.872-0.4341 1.893-0.4836 2.871-0.1852 3.656 0.2288 0.6019-0.1748 1.989-0.7074 2.431-0.1561 0.1296-0.2858 0.4232-0.2882 0.6527-2e-3 0.2294-0.1769 0.6377-0.3878 0.9073-0.2109 0.2696-0.3854 0.7769-0.3878 1.127-4e-3 0.606-0.561 1.422-0.9707 1.422-0.3076 0-0.8418-0.6388-1.226-1.466-0.2015-0.4336-0.5519-1.023-0.7788-1.31-0.319-0.4036-0.4508-0.9593-0.5813-2.451-0.0928-1.061-0.2578-2.299-0.3667-2.751-0.2319-0.963-0.2391-11.44-0.0135-19.86 0.0986-3.686 0.0841-6.154-0.0402-6.805-0.154-0.8064-0.1298-1.22 0.1151-1.969 0.2805-0.8576 0.2813-1.046 7e-3 -1.978-0.6074-2.072 0.2012-2.17 1.595-0.1941 1.946 2.758 2.026 2.935 2.167 4.81 0.1016 1.349 0.2343 1.887 0.6103 2.472 0.2643 0.4113 0.5858 0.7134 0.7144 0.6713 0.1287-0.0421 0.4306-0.6875 0.6708-1.434 0.4178-1.298 0.6564-1.615 1.847-2.456l0.4455-0.3146-0.5397-0.6414c-0.2968-0.3528-0.5076-0.7378-0.4684-0.8556 0.0393-0.1178 0.5912-0.4155 1.226-0.6616 1.679-0.6503 3.055-0.5929 5.679 0.2367 1.186 0.375 2.396 0.6833 2.689 0.6851 0.332 2e-3 0.9216 0.3202 1.569 0.8465 1.102 0.8963 1.329 1.397 2.197 4.843 0.1765 0.7009 0.414 1.627 0.5279 2.059 0.3267 1.238 0.1394 4.79-0.2862 5.428-0.264 0.3956-0.3213 0.7361-0.2309 1.373 0.1257 0.885-0.3279 3.531-1.07 6.238-0.2216 0.8088-0.4795 2.154-0.5731 2.989-0.15 1.338-0.2427 1.586-0.7803 2.088-0.3356 0.3134-0.618 0.7771-0.6276 1.03-9e-3 0.2533-0.0317 1.21-0.049 2.127-0.0254 1.343-0.1116 1.781-0.444 2.255-0.2268 0.3235-0.4631 0.914-0.525 1.312-0.1147 0.7372-0.427 1.452-1.593 3.645-0.955 1.796-1.613 2.4-1.976 1.813zm-105.5-1.132c-0.4468-0.4047-1.23-1.082-1.74-1.506-1.128-0.9366-1.381-1.514-1.554-3.543-0.2207-2.59-0.4575-3.792-0.9583-4.863-0.9612-2.057-1.111-2.462-1.115-3.009-2e-3 -0.3072-0.1314-1.264-0.2873-2.127-0.1559-0.8627-0.2865-2.732-0.2902-4.154-7e-3 -2.55-0.2023-3.689-0.6099-3.553-0.1146 0.0382-0.469 0.7292-0.7874 1.535-0.3184 0.8063-0.6585 1.642-0.7558 1.858-0.0973 0.2157-0.2311 1.564-0.2974 2.997-0.134 2.895-0.2197 3.239-1.045 4.187l-0.5738 0.659-0.1038 3.383c-0.0797 2.601-0.1745 3.491-0.4095 3.85-0.3686 0.5626-1.917 1.35-2.337 1.189-1.354-0.5197-2.255-7.928-1.455-11.96 0.8468-4.264 0.9761-5.321 1.09-8.914 0.1396-4.401 0.1178-4.709-0.3335-4.698-0.3384 7e-3 -1.351 1.243-2.157 2.63-0.6138 1.057-1.763 4.615-1.999 6.185-0.105 0.701-0.3231 1.98-0.4848 2.843-0.5234 2.793-0.9569 5.852-1.014 7.157-0.229 5.191-0.3312 6.473-0.5747 7.212-0.1521 0.4621-0.2779 1.08-0.2795 1.373-2e-3 0.2928-0.1168 0.7529-0.256 1.023-0.2981 0.5774-0.8012 0.5571-1.465-0.059-0.3828-0.3552-0.508-0.3806-0.8441-0.1707-0.3401 0.2124-0.4781 0.1761-0.9994-0.2625-0.3327-0.2799-0.851-0.5582-1.152-0.6184-0.3009-0.0602-0.7451-0.3202-0.9872-0.5778s-0.5892-0.4684-0.7716-0.4684c-0.1823 0-0.5562-0.1767-0.8307-0.3927-0.2746-0.216-0.6252-0.3443-0.7793-0.2852-0.154 0.0592-0.3747-7e-3 -0.4904-0.1465-0.2904-0.3508-0.6897-3.105-0.6908-4.764-8.5e-4 -1.325 0.091-1.68 1.141-4.412 0.3784-0.9848 0.4449-2.853 0.1961-5.51-0.1884-2.012 0.4793-8.222 1.073-9.979 0.451-1.335 0.5764-2.438 0.8137-7.157 0.2558-5.086 0.354-6.593 0.4621-7.089 0.1086-0.498 1.512-1.048 2.673-1.048 0.5734 0 0.817 0.1102 1.059 0.4789 0.1993 0.3042 0.5372 0.5009 0.9263 0.5392 0.9024 0.0888 1.282 0.8842 1.439 3.013 0.0709 0.9644 0.2158 1.864 0.3222 1.999 0.2376 0.3011 1.445 0.3249 1.626 0.032 0.0725-0.1172 0.3121-0.166 0.5326-0.1083 0.5556 0.1453 1.726-0.369 2.226-0.9776 0.3294-0.4015 0.6154-0.5172 1.373-0.5551 1.121-0.0561 3.302 0.31 3.998 0.6714 1.32 0.685 1.419 1.154 0.766 3.645-0.3288 1.255-0.367 1.689-0.1979 2.243 0.1153 0.3778 0.2806 0.9896 0.3675 1.36 0.0869 0.3701 0.2531 0.7046 0.3695 0.7434 0.1948 0.0649 2.465-2.857 3.008-3.872 0.1405-0.2625 0.186-0.7483 0.113-1.205-0.1061-0.6635-0.0393-0.8687 0.5021-1.542 0.6774-0.843 1.026-0.9473 1.558-0.4661 0.3156 0.2856 0.3928 0.2746 0.9468-0.1349l0.6031-0.4459 0.5803 0.429c0.3297 0.2437 0.8687 0.429 1.248 0.429 0.3708 0 0.8894 0.1744 1.166 0.3921 0.2746 0.216 0.7954 0.3921 1.159 0.3921 0.7969 0 1.605 0.5446 2.763 1.863 0.972 1.106 1.356 2.015 1.194 2.826-0.0669 0.334 0.0212 0.8057 0.2232 1.196 0.3748 0.7249 0.2912 1.798-0.2167 2.78-0.2273 0.4396-0.27 0.8859-0.1722 1.799 0.1516 1.416-0.1982 4.703-0.6256 5.878-0.1739 0.4781-0.3139 1.624-0.3393 2.776-0.0402 1.827-0.0929 2.062-0.7669 3.409-0.398 0.7956-0.7236 1.641-0.7236 1.879 0 0.2379-0.1832 1.307-0.4071 2.376-0.2891 1.38-0.3955 2.54-0.3669 4.002 0.0498 2.552-0.0298 2.925-1.108 5.196-0.5113 1.076-1.096 1.116-2.165 0.1475zm222.3-0.4145c-0.1412-0.2638-0.1159-0.4677 0.0912-0.7353 0.2808-0.3629 0.2922-0.3629 0.573 0 0.2943 0.3803 0.1069 1.1-0.2865 1.1-0.1003 0-0.2702-0.1643-0.3777-0.365zm-266.7-0.3215c-0.28-0.2119-0.9615-0.2771-2.745-0.2627-1.949 0.0157-2.576-0.0541-3.513-0.3921-2.618-0.9441-4.082-2.975-4.827-6.698-0.714-3.569-0.7834-4.209-0.7862-7.255-2e-3 -1.829 0.1261-4.173 0.2941-5.392 0.1634-1.186 0.382-2.951 0.4856-3.921 0.3656-3.424 1.093-5.993 3.152-11.13 0.227-0.5662 0.5409-1.382 0.6976-1.814 0.1567-0.4314 0.4647-1.181 0.6846-1.667 0.2198-0.4853 0.5131-1.147 0.6517-1.471 0.1386-0.3235 0.4271-0.9853 0.641-1.471 0.214-0.4853 0.4522-1.17 0.5293-1.521 0.0771-0.3513 0.3206-0.7353 0.541-0.8532s1.479-0.2275 2.797-0.2434c2.587-0.0314 3.045 0.1127 3.045 0.9579 0 0.4956 1.006 1.46 1.535 1.471 0.1804 3e-3 0.681 0.1771 1.112 0.3855 0.4314 0.2084 1.192 0.3818 1.691 0.3855 0.4985 3e-3 1.582 0.2272 2.408 0.4968 0.8259 0.2696 1.609 0.4953 1.741 0.5015 0.1315 6e-3 0.5125 0.2047 0.8468 0.4412 0.3343 0.2364 1.107 0.7738 1.718 1.194 1.707 1.176 1.906 1.618 1.687 3.75-0.2972 2.887-1.034 8.533-1.495 11.47-0.1614 1.024-0.3769 2.524-0.479 3.333-0.1021 0.8088-0.3156 1.861-0.4745 2.339-0.1589 0.4775-0.2889 1.077-0.2889 1.333s-0.302 1.109-0.6712 1.898c-0.3692 0.7885-0.7676 1.792-0.8855 2.229-0.1179 0.4377-0.3447 1.046-0.504 1.351-0.1594 0.3055-0.2903 0.682-0.2909 0.8367-5.9e-4 0.1547-0.1688 0.64-0.3735 1.078-0.2048 0.4384-0.6211 1.547-0.9251 2.464-0.6618 1.995-1.194 2.99-2.23 4.167-0.7755 0.881-1.551 1.281-3.862 1.991-1.231 0.3781-1.426 0.38-1.904 0.0182zm-0.5306-7.941c0.191-0.3774 0.5299-1.083 0.7531-1.569 0.2232-0.4853 0.5531-1.191 0.733-1.569 0.7034-1.476 1.28-3.609 1.291-4.78 0.0216-2.219 0.2449-3.009 1.062-3.757l0.7413-0.679-0.1392-2.99c-0.0765-1.644-0.3081-3.872-0.5147-4.95-0.2065-1.078-0.3758-2.159-0.3761-2.402-3.9e-4 -0.2905-0.1178-0.44-0.3437-0.4378-0.3515 3e-3 -0.5866 0.4832-1.728 3.526-0.3034 0.8088-0.6152 1.559-0.6928 1.667-0.1514 0.2105-0.6148 1.498-1.552 4.314-0.3232 0.9705-0.6764 1.92-0.7849 2.109-0.1085 0.1893-0.4245 1.028-0.7023 1.863-0.4342 1.306-0.4894 1.738-0.3938 3.087 0.1164 1.641 0.6249 4.302 1.192 6.237 0.2748 0.9373 0.4024 1.128 0.721 1.078 0.2129-0.0332 0.5433-0.3692 0.7342-0.7466zm129.1 7.67c-0.1607-0.3107-0.5569-0.7877-0.8806-1.06l-0.5885-0.4952 0.0728-1.895c0.0726-1.89 0.0712-1.897-0.5459-2.6l-0.6187-0.7043-0.1439-8.644c-0.0792-4.754-0.1828-9.173-0.2304-9.82-0.1024-1.395-0.4546-3.774-0.5913-3.996-0.053-0.0858-0.0262-1.205 0.0598-2.486 0.0976-1.454 0.0831-2.569-0.0387-2.965-0.2206-0.7188 0.0556-1.239 0.6576-1.239 0.8877 0 2.837 3.11 3.564 5.686 1.115 3.952 1.82 11.3 1.653 17.25-0.0619 2.211-0.0496 5.062 0.0274 6.336 0.104 1.721 0.0766 2.427-0.1065 2.745-0.1671 0.2903-0.2088 0.8468-0.1295 1.728 0.1025 1.139 0.0702 1.333-0.2616 1.569-0.2082 0.1477-0.4839 0.467-0.6127 0.7096-0.3265 0.6154-0.9346 0.5569-1.287-0.1237zm134.9-25.82c-0.3115-0.8118 0.0545-2.789 0.4688-2.533 0.3484 0.2153 0.1643 2.843-0.1992 2.843-0.0829 0-0.2041-0.1396-0.2696-0.3101zm0.7766-10.59c-0.1378-0.5492 0.0144-1.258 0.27-1.258 0.0874 0 0.2634 0.126 0.3913 0.28 0.1813 0.2185 0.1639 0.4124-0.0791 0.8823-0.3783 0.7316-0.4207 0.7386-0.5822 0.0955zm-141.9-7.046c-0.9624-0.654-1.15-1.058-1.001-2.149 0.1274-0.929 0.0315-1.235-1.199-3.828-0.7925-1.67-2.734-4.8-3.478-5.607-0.8348-0.9056-0.8888-1.188-0.4174-2.182 0.2804-0.591 0.2936-0.8208 0.0903-1.581-0.2844-1.063-0.1865-1.201 1.102-1.551 2.757-0.7487 2.621-0.7434 4.085-0.1592 0.7455 0.2976 1.53 0.6624 1.742 0.8106 0.2127 0.1482 0.5263 0.2694 0.6969 0.2694 0.654 0 2.053 1.119 2.478 1.981 0.7917 1.607 1.4 3.212 1.534 4.047 0.0736 0.4578 0.2145 0.8821 0.3129 0.9429 0.0984 0.0608 0.1821 0.3481 0.186 0.6383 4e-3 0.2902 0.133 0.7482 0.2872 1.018 0.1541 0.2696 0.2833 0.6819 0.2872 0.9163 3e-3 0.2344 0.2177 0.6766 0.4753 0.9827 0.2576 0.3061 0.5764 0.9172 0.7085 1.358 0.2116 0.7064 0.1922 0.91-0.1644 1.716-0.3339 0.7547-0.5633 0.9826-1.313 1.304-0.4996 0.2142-1.146 0.3894-1.437 0.3894-0.2906 0-0.7324 0.1429-0.9817 0.3176-0.3503 0.2454-0.5562 0.2707-0.9059 0.1114-0.3713-0.1692-0.5686-0.1206-1.099 0.2707-0.8123 0.5993-1.087 0.5969-1.99-0.0171zm-146.7-27.63c-0.1403-0.3655 0.03059-0.8975 0.2883-0.8975 0.3367 0 0.4208 0.6165 0.1245 0.9127-0.2614 0.2614-0.3073 0.2597-0.4128-0.01521z" fill="#fff"/></svg>
