<svg width="480" height="320" version="1.1" viewBox="0 0 480 320" xml:space="preserve" xmlns="http://www.w3.org/2000/svg"><defs><linearGradient id="a" x1="93.435" x2="99.094" y2="84.667" gradientTransform="matrix(3.7795 0 0 3.7795 -.00024996 0)" gradientUnits="userSpaceOnUse"><stop stop-color="#c62626" offset="0"/><stop stop-color="#ca3f84" offset=".5"/><stop stop-color="#452981" offset="1"/></linearGradient></defs><rect width="480" height="320" ry="24" fill="url(#a)"/><path d="m80.166 114.9v6.7402h9.8789v-6.7402h-9.8789zm-40.166 0.09375v32.779h10.158v-22.902l14.223 22.902h10.16v-32.779h-10.16v22.9h-0.009765l-14.119-22.9h-10.252zm185.59 0.09375v12.002c-1.5733-0.92732-3.2299-1.75-5.543-1.9375-7.106-0.646-12.555 5.6372-12.555 11.451 0 7.5749 5.8129 10.43 6.7402 10.805 3.3238 1.5733 7.5752 1.5729 11.357-0.83398v1.293h9.6895v-32.779h-9.6895zm-96.119 3.2285v4.4297h-5.3555v3.2285h5.3555v21.787h9.8789v-21.787h5.3555v-3.2285h-5.3555v-4.4297h-9.8789zm123.36 6.1894c-7.9396 0-14.4 5.45-14.4 12.285 0 6.7413 6.4608 12.285 14.4 12.285 7.9396 0 14.4-5.45 14.4-12.285 0-6.8351-6.2733-12.285-14.4-12.285zm-94.92 0.09375c-8.0333 0-14.494 5.45-14.494 12.285 0 6.7413 6.4608 12.285 14.494 12.285 6.6476 0 12.285-3.7825 14.035-8.9609h-9.7852v1.291c0 3.9698-2.5829 4.8984-4.0625 4.8984-1.4796 0-4.1582-0.92866-4.1582-4.8984v-4.5215l18.557-0.00977c0-6.7413-6.5526-12.369-14.586-12.369zm-44.783 0.36523c-3.23 0.0938-6.0015 1.48-7.8457 3.3242v-2.3144h-9.7832v21.787h9.7832v-14.316c0-1.938 2.0312-3.9688 4.709-3.9688s4.5234 2.1245 4.5234 3.9688v14.316h9.7832v-11.814c0.0104-8.6794-7.471-11.076-11.17-10.982zm80.146 0c-3.23 0.0938-6.0015 1.48-7.8457 3.3242v-2.3144h-9.7852v21.787h9.7852v-14.316c0-1.938 2.0312-3.9688 4.709-3.9688 2.6778 0 4.5215 2.1245 4.5215 3.9688v14.316h9.7852v-11.814c-0.0834-8.6794-7.5648-11.076-11.17-10.982zm-113.1 1.0098v21.799h9.8789v-21.799h-9.8789zm172.57 1.1992c1.938 0 4.0645 1.3852 4.0645 4.8965v4.6172 4.6152c0 3.5113-2.0327 4.8965-4.0645 4.8965-1.938 0-4.0644-1.4789-4.0644-4.8965v-4.709-4.5234c0-3.4176 2.0327-4.8965 4.0644-4.8965zm-94.545 0.09375c1.292 0 2.6782 0.64548 3.5117 2.0312 0.646 1.1045 0.64453 2.3973 0.64453 4.252h-8.2207c-0.18755-1.938-0.18705-3.1371 0.55273-4.252 0.73977-1.3858 2.2197-1.9375 3.5117-2.0312zm63.527 1.3848c1.5629 0 3.875 0.8344 3.875 4.252v3.877 3.875c0 3.3238-2.3121 4.252-3.875 4.252-1.5629 0-3.877-0.92817-3.877-4.252v-3.875-3.877c0-3.4176 2.314-4.252 3.877-4.252zm97.285 29.77a5.7307 5.7307 0 0 0-5.7305 5.7305 5.7307 5.7307 0 0 0 5.7305 5.7305 5.7307 5.7307 0 0 0 5.7305-5.7305 5.7307 5.7307 0 0 0-5.7305-5.7305zm-265.25 0.40624c-7.5957 0.0104-13.754 6.168-13.754 13.764 0 7.5957 6.1575 13.764 13.764 13.764h22.559c2.0109 0 3.6465 1.6356 3.6465 3.6465v1.8965c0 2.0109-1.6355 3.6465-3.6465 3.6465h-35.594v9.1172h37.01c7.5957 0 13.766-6.1575 13.766-13.764s-6.1699-13.764-13.766-13.764h-22.568c-2.0109 0-3.6465-1.6356-3.6465-3.6465v-1.8965c0-2.0109 1.6355-3.6465 3.6465-3.6465h31.354v-9.1172h-32.77zm143.44 0.52149v45.303h11.514v-45.303h-11.514zm14.504 0v45.303h11.514v-45.303h-11.514zm-74.604 1.2598v11.992h-4.375v8.0762h4.375v19.734c0 2.3444 1.8978 4.2402 4.2422 4.2402h11.596v-8.0742h-4.3242v-15.9h6.0234v-8.0762h-6.0332v-11.992h-11.504zm29.654 11.982c-5.9599 0-10.795 4.835-10.795 10.795v10.471c0 5.9599 4.835 10.795 10.795 10.795h24.965v-8.0742h-20.244-2.6777c-0.71894 0-1.3027-0.5838-1.3027-1.3027v-1.3965l22.787-6.1055c2.1672-0.57306 3.668-2.5333 3.668-4.7734v-2.6348c0-2.4381-0.95979-4.3453-2.877-5.7207-1.9172-1.3649-4.6163-2.0527-8.0859-2.0527h-16.232zm109.09 0v0.00976h-11.793l15.357 29.039c0.55222 1.0732 1.5413 1.9185 2.9688 2.5332 1.4379 0.61474 3.0334 0.92578 4.8047 0.92578 1.7609 0 3.3434-0.31104 4.75-0.92578 1.4066-0.61475 2.3755-1.46 2.9277-2.5332l15.348-29.049h-11.795l-11.418 21.734-11.15-21.734zm37.375 0v32.051h11.514v-32.051h-11.514zm25.299 0c-5.9599 0-10.795 4.835-10.795 10.795v10.471c0 5.9599 4.835 10.795 10.795 10.795h24.965v-8.0742h-20.246-2.6777c-0.71894 0-1.3008-0.5838-1.3008-1.3027v-1.3965l22.787-6.1055c2.1672-0.57306 3.666-2.5333 3.666-4.7734v-2.6348c0-2.4381-0.95783-4.3453-2.875-5.7207-1.9172-1.3649-4.6163-2.0527-8.0859-2.0527h-16.232zm27.193 0 15.359 29.039c0.55222 1.0732 1.5413 1.9165 2.9688 2.5312 1.4379 0.61474 3.0334 0.92773 4.8047 0.92773 1.7609 0 3.3434-0.31299 4.75-0.92773s2.3755-1.458 2.9277-2.5312l6.3359-15.035 6.334 15.035c0.55223 1.0732 1.5211 1.9165 2.9277 2.5312 1.3962 0.61474 2.9806 0.92773 4.752 0.92773 1.7713 0 3.3753-0.31299 4.8027-0.92773 1.4274-0.61474 2.4185-1.458 2.9707-2.5312l15.357-29.039h-11.795l-11.148 21.734-8.3047-21.734h-11.795l-8.3047 21.734-11.148-21.734h-11.795zm-270.52 0.00976v8.0762h20.244 2.6894c0.71894 0 1.3027 0.5838 1.3027 1.3027v1.3945l-22.799 6.1074c-2.1672 0.57307-3.668 2.5313-3.668 4.7715v2.6367c0 2.4381 0.95979 4.3434 2.877 5.7188 1.9172 1.3649 4.6163 2.0527 8.0859 2.0527h16.232c5.9599 0 10.795-4.8331 10.795-10.793v-10.473c0-5.9599-4.835-10.795-10.795-10.795h-24.965zm133.39 0v8.0762h20.246 2.6777c0.71893 0 1.3008 0.5838 1.3008 1.3027v1.3945l-22.787 6.1074c-2.1672 0.57307-3.666 2.5313-3.666 4.7715v2.6367c0 2.4381 0.95784 4.3434 2.875 5.7188 1.9172 1.3649 4.6163 2.0527 8.0859 2.0527h16.232c5.9599 0 10.795-4.8331 10.795-10.793v-10.473c0-5.9599-4.835-10.795-10.795-10.795h-24.965zm-59.109 7.7637h14.66v1.4062l-16.65 4.2305v-3.6465c0-1.1045 0.89619-1.9902 1.9902-1.9902zm171.76 0h14.66v1.4062l-16.65 4.2305v-3.6465c0-1.1045 0.8962-1.9902 1.9902-1.9902zm-221.8 10.877v3.6465c0 1.1044-0.8962 1.9902-1.9902 1.9902h-14.66v-1.4062l16.65-4.2305zm133.38 0v3.6465c0 1.1044-0.89621 1.9902-1.9902 1.9902h-14.66v-1.4062l16.65-4.2305z" fill="#fff"/></svg>
