<svg width="480" height="320" version="1.1" viewBox="0 0 127 84.667" xmlns="http://www.w3.org/2000/svg">
 <defs>
  <linearGradient id="a" x1="109.18" x2="101.64" y1="-9.1685" y2="84.667" gradientTransform="matrix(1 0 0 1 -.00024999 0)" gradientUnits="userSpaceOnUse">
   <stop stop-color="#910e38" offset="0"/>
   <stop stop-color="#c6262e" offset=".45527"/>
   <stop stop-color="#452981" offset="1"/>
  </linearGradient>
 </defs>
 <rect x="-.00025" y="-2.4986e-8" width="127" height="84.667" ry="4.2333" fill="url(#a)" stroke-linecap="square" stroke-linejoin="round" stroke-width=".52917" style="paint-order:stroke fill markers"/>
 <path d="m84.416 47.095c-0.79419-1.03e-4 -1.4381 0.64748-1.4382 1.4464-2.18e-4 0.79913 0.64376 1.447 1.4382 1.4469 0.79438 8.9e-5 1.4383-0.64782 1.4381-1.4469-7.3e-5 -0.79891-0.64395-1.4465-1.4381-1.4464zm-48.236 0.02119v3.7655h-1.0986v2.2122h1.0986v5.4874c-2e-6 0.62383 0.50281 1.1296 1.1229 1.1296h3.2133v-2.235l-1.6929-0.0016v-4.3807h1.8407v-2.234h-1.8397v-3.7438h-2.6442zm16.367 0v12.595h2.56v-12.595zm3.933 0v12.595h2.56v-12.595zm-43.513 0.02429c-1.3169 0-2.3843 1.0962-2.3843 2.4484v2.5275c0 1.3522 1.0674 2.4484 2.3843 2.4484h3.8742l2.9911 5.29e-4c0.6346 0 1.1488 0.5171 1.1488 1.1555v0.66661c0 0.63838-0.51416 1.1555-1.1488 1.1555h-9.2428v2.1275h10.634c1.317 0 2.3843-1.0739 2.3843-2.3988v-2.4768c0-1.3249-1.0673-2.3988-2.3843-2.3988l-4.3179-5.29e-4h-2.5471c-0.63457-5.3e-5 -1.1488-0.57266-1.1488-1.2242v-0.68005c0-0.65153 0.51418-1.1798 1.1488-1.1798h8.2258v-2.1709h-9.617zm56.771 3.7626 3.8912 7.7432c0.45558 0.79382 1.0745 1.1488 2.0934 1.1488h0.71881c1.0189 0 1.6383-0.35493 2.0939-1.1488l3.8906-7.7432h-2.8757l-3.4678 6.7431-3.4678-6.7431h-2.8762zm13.385 0v8.8081h2.56v-8.8081zm13.435 0 3.8906 7.7432c0.45558 0.79382 1.075 1.1488 2.0939 1.1488h0.71881c1.0189 0 1.6588-0.48267 2.0086-1.2552l1.2159-3.852 1.2159 3.852c0.34985 0.77252 0.99027 1.2552 2.0092 1.2552h0.71882c1.0189 0 1.6378-0.35493 2.0934-1.1488l3.8912-7.7432h-2.8757l-3.4678 6.7431-2.39-6.7431h-2.3895l-2.3895 6.7431-3.4678-6.7431h-2.8757zm-47.773 0.02997-5.0455 5.3e-4c-1.3167 2.3e-5 -2.3843 1.0739-2.3843 2.3988v3.9377c0 1.3249 1.0673 2.3988 2.3843 2.3988h7.4506v-2.1327h-6.183c-0.47397 0-0.90433-0.38472-0.90433-0.85729l6.3142-1.6624c0.44383-0.11964 0.75292-0.52424 0.75292-0.98649v-0.69762c0-1.3249-1.0678-2.3993-2.3848-2.3993zm45.592 0-5.0461 5.3e-4c-1.3167 2.3e-5 -2.3843 1.0739-2.3843 2.3988v3.9377c0 1.3249 1.0678 2.3988 2.3848 2.3988h7.4506v-2.1327h-6.183c-0.47397 0-0.90484-0.38472-0.90484-0.85729l6.3147-1.6624c0.44383-0.11964 0.75241-0.52424 0.75241-0.98649v-0.69762c0-1.3249-1.0673-2.3993-2.3843-2.3993zm-69.296 0.01498v2.1327h5.5546c0.47397 0 0.90484 0.38473 0.90484 0.85729l-6.3147 1.6624c-0.44383 0.11964-0.75241 0.52424-0.75241 0.98649v0.69762c0 1.3249 1.0673 2.3993 2.3843 2.3993l5.0461-5.29e-4c1.3167-1.8e-5 2.3843-1.0739 2.3843-2.3988v-3.9372c0-1.3249-1.0678-2.3993-2.3848-2.3993h-6.8222zm35.483 0v2.1327h5.5546c0.47397 0 0.90484 0.38473 0.90484 0.85729l-6.3147 1.6624c-0.44383 0.11964-0.75241 0.52427-0.75241 0.98649v0.69762c0 1.3249 1.0678 2.3993 2.3848 2.3993l5.0455-5.29e-4c1.3167-1.8e-5 2.3843-1.0739 2.3843-2.3988v-3.9372c0-1.3249-1.0678-2.3993-2.3848-2.3993h-6.8222zm-15.61 2.0293h2.7553c0.42682 0 0.74556 0.29826 0.82578 0.59943l-4.4762 1.1379v-0.83663c0-0.49741 0.40057-0.90071 0.89502-0.90071zm45.592 0h2.7553c0.42682 0 0.74503 0.29826 0.82525 0.59943l-4.4762 1.1379v-0.83663c0-0.49741 0.4011-0.90071 0.89555-0.90071zm-58.964 2.9249v0.83663c0 0.49741-0.4011 0.90071-0.89555 0.90071h-2.7553c-0.42682 0-0.74503-0.29826-0.82525-0.59943l4.4762-1.1379zm35.483 0v0.83663c0 0.49741-0.4011 0.90071-0.89555 0.90071h-2.7553c-0.42682 0-0.74503-0.29826-0.82525-0.59943l4.4762-1.1379zm-1.7286 6.0094v4.5476c0 1.0556 0.88383 1.8025 1.989 1.8025h5.8925v-1.6118h-5.9247c-0.48307 0-0.83869-0.28233-0.83869-0.82734v-0.59996h6.7658v-1.1363h-2.3502v-0.48677h-4.4156v-1.6872l-1.1183-5.29e-4zm-17.214 0.01085v1.5265h6.8807v-1.5265zm8.7724 0v1.5265h6.9876v-1.5265zm-17.877 0.01447v0.68418h-0.8511v1.4443h0.8511v1.7937h1.3229v-1.7937h4.2267v0.80562c0 1.0299-0.81139 1.7787-2.4329 1.7787h-3.0861v1.6118h2.7971c2.6343 0 3.9227-1.6617 3.9227-3.5118v-0.68418h0.8666v-1.4443h-0.8666v-0.68418h-1.201v0.68418h-4.2267v-0.68418h-1.3229zm32.305 5.3e-4v1.6826h0.76326v-1.6826zm1.1394 0v1.6826h0.76326v-1.6826zm2.2877 1.8236v1.4598h3.4932v1.5813h-4.1738v1.4593h6.6828v-1.4593h-1.5239v-3.0411h-4.4783zm-27.164 0.2899v1.4407h4.623v0.33072c0 0.54498-0.35562 0.82734-0.83869 0.82734h-3.7853v1.6118h3.7528c1.1052 0 1.989-0.7468 1.989-1.8025v-0.96736h2.1719v-1.4407h-7.9125zm8.7507 0v1.4407h6.8807v0.33072c0 0.54498-0.35562 0.82734-0.83869 0.82734h-5.3546v1.6118h5.3226c1.1052 0 1.9885-0.7468 1.9885-1.8025v-2.4081h-7.9983zm24.735 0.16639v1.5813h7.7535v-1.5813z" fill="#fafafa" stroke-linecap="round" stroke-linejoin="round" stroke-width="2.1166" style="paint-order:stroke markers fill"/>
 <style type="text/css">.st0{fill:#FC0C18;}
	.st1{fill:#FC0C18;}</style>
 <style type="text/css">.st0{fill:#FC0C18;}
	.st1{fill:#FC0C18;}</style>
 <path d="m58.676 14.287c7.5813 2.9987 11.984 9.1957 14.366 16.006v-1.9899c-2.8137-6.8297-6.7981-11.551-10.165-14.016h-4.2001zm7.3139 0.01073c2.7948 2.7476 4.9636 7.3324 7.0517 12.045v-2.2601c-1.348-3.6238-3.0598-6.6019-5.021-9.7851h-2.0309zm3.4491 0c1.3868 1.8229 2.5734 4.5374 3.6026 7.6108v-7.6108zm-10.24 3.5987c-1.7182 0.01568-3.1996 0.63882-4.0487 1.9796-2.437 3.8482-1.0166 10.501 3.1384 15.444 5.1935 6.1794 11.151 6.8834 13.447 3.1084 2.9782-4.896-0.10497-11.592-3.8037-16.061-2.3479-2.8367-5.8692-4.4973-8.7328-4.4712zm0.5911 5.1779c0.89934 0.0055 1.9331 0.48182 2.7897 1.3575 1.4427 1.4748 2.0462 3.6097 1.0884 4.7415-0.28556 0.33738-0.66032 0.5453-1.0844 0.63243-0.06413-1.384-1.5019-2.48-3.2544-2.4808-0.29379 2.3e-5 -0.58622 0.03145-0.86936 0.09341-0.78618-1.3108-0.96685-2.7968-0.22658-3.6714 0.38918-0.45978 0.94132-0.67642 1.5566-0.67259zm6.766 1.5491c0.93829 0.0015 2.0377 0.52159 2.9407 1.4835 1.4449 1.5391 1.7633 3.7331 0.85346 4.664-0.37204 0.38071-0.93019 0.54819-1.559 0.50802-0.24053-1.4152-1.5455-2.4572-3.0783-2.4582-0.15429 1e-3 -0.30828 0.01269-0.46072 0.03498-0.79912-1.3699-0.85556-2.8992-0.13396-3.6584 0.36993-0.3891 0.87481-0.57479 1.4378-0.574zm-5.519 5.3438c1.6828 0 3.047 1.0833 3.047 2.4197s-1.3642 2.4197-3.047 2.4197c-1.683 1.78e-4 -3.0474-1.0832-3.0474-2.4197s1.3644-2.4199 3.0474-2.4197zm6.5728 1.375c1.6826 1.79e-4 3.0466 1.0835 3.0466 2.4197 2.83e-4 1.3364-1.3637 2.4199-3.0466 2.4201-1.683 0-3.0473-1.0836-3.047-2.4201 0-1.3364 1.3642-2.4197 3.047-2.4197zm-12.161 1.9724c1.6225 4.437 1.9363 6.3768-1.0156 7.3973h9.3514c-2.7164-1.002-6.8193-4.9874-8.3358-7.3973z" fill="#fafafa" stroke-linecap="round" stroke-linejoin="round" stroke-width="1.6282" style="paint-order:stroke markers fill"/>
</svg>
