<svg width="480" height="320" version="1.1" viewBox="0 0 480 320" xml:space="preserve" xmlns="http://www.w3.org/2000/svg"><defs><linearGradient id="a" x1="88.311" x2="73.64" y1="80.864" y2="-11.976" gradientTransform="scale(3.7795)" gradientUnits="userSpaceOnUse"><stop offset="0"/><stop stop-color="#0d52bf" offset="1"/></linearGradient></defs><rect width="480" height="320" ry="24" fill="url(#a)"/><path d="m243.48 50a59.234 59.234 0 0 0-0.93555 0.066406l38.168 37.309c-1.9485 0.53679-3.9388 1.0964-5.9902 1.6934-0.75488-0.70042-1.7389-1.5927-2.2617-2.0996-6.0891-5.8869-23.771-26.352-32.773-36.697a59.234 59.234 0 0 0-7.1797 0.88477l39.467 38.723c-1.8184 0.53988-3.6777 1.0995-5.5742 1.6816-6.8332-6.6707-29.195-32.189-36.012-39.943a59.234 59.234 0 0 0-6.6152 1.9082l39.59 38.973c-1.6491 0.51369-3.3368 1.0456-5.043 1.5879-9.248-9.5619-31.822-34.993-36.217-39.938a59.234 59.234 0 0 0-6.0469 2.7422l38.803 38.299c-1.4764 0.47453-3.0468 0.99073-4.5645 1.4844-10.86-11.424-32.749-35.798-35.641-39.016a59.234 59.234 0 0 0-5.4356 3.4199l37.227 36.861c-1.3475 0.44183-2.7247 0.89626-4.1035 1.3516-11.697-12.333-32.097-34.776-34.371-37.277a59.234 59.234 0 0 0-4.8398 4.0156l34.902 34.68c-1.1684 0.3881-2.2064 0.7205-3.3965 1.1172-0.0886 0.0296-0.17314 0.05644-0.26172 0.08594-11.815-12.459-29.9-32.106-32.355-34.771a59.234 59.234 0 0 0-4.2441 4.5586l31.877 31.777c-1.0849 0.36011-2.1652 0.71724-3.2402 1.0723-11.213-11.774-26.391-28.061-29.625-31.531a59.234 59.234 0 0 0-3.6133 5.0664l28.141 28.148c-1.0006 0.3271-1.9457 0.62416-2.9355 0.94531-9.931-10.382-21.85-23.029-26.072-27.51a59.234 59.234 0 0 0-2.9727 5.6719l23.523 23.613c-0.84569 0.26975-1.7306 0.5621-2.5664 0.82618-8.0001-8.3168-16.733-17.481-21.635-22.621a59.234 59.234 0 0 0-2.2305 6.4004l17.922 18.051c-0.74407 0.2287-1.4884 0.45676-2.2227 0.67968-5.5819-5.7673-11.481-11.885-16.139-16.713a59.234 59.234 0 0 0-1.2871 7.3457l11.137 11.258c-0.65087 0.18938-1.3022 0.37897-1.9434 0.5625-3.1489-3.2252-6.1588-6.3049-9.3535-9.5742a59.234 59.234 0 0 0-0.29101 4.0664 59.234 59.234 0 0 0 0.33789 4.7285l2.6055 2.6406c-0.73018 0.19363-1.2309 0.28591-1.7852 0.40234-0.24207-0.24479-0.40627-0.41143-0.65039-0.6582a59.234 59.234 0 0 0 0.15039 0.76757c-0.0528 0.0128-0.0847 0.01715-0.14063 0.03125 0.50128 3.7494 1.3501 7.3897 2.5117 10.885-1.1617-3.468-2.0268-7.0845-2.5215-10.787-9.7517 2.5169-15.305 3.1588-18.352 2.8633-2.1806-0.1936-2.7006-2.2128-2.0586-3.4355 0.22417-0.44835 0.51054-0.92759 0.86719-1.4473 3.1792-4.5549 10.005-9.5971 19.635-14.631 1.0292-6.9902 3.2726-13.574 6.4824-19.545-15.886 6.8374-31.284 15.56-38.346 25.699-5.7165 8.2436-4.7183 15.304-2.8535 19.768 4.6873 11.331 20.696 9.3044 35.746 5.8398 0.89671-0.22417 1.8242-0.4184 2.7617-0.64258-8e-3 -0.0197-0.01338-0.04075-0.02148-0.06055 0.0642-0.0157 0.13297-0.03498 0.19726-0.05078a59.234 59.234 0 0 0 46.689 36.297c-12.02-12.372-23.273-24.047-27.605-28.248-2.1243-2.051-5.847-5.7988-10.35-10.354 0.56945-0.15829 1.1268-0.30758 1.7031-0.47071l38.727 39.248a59.234 59.234 0 0 0 5.502 0.39453 59.234 59.234 0 0 0 3.2871-0.23633c-12.283-12.487-27.87-28.387-33-33.361-1.7549-1.6943-4.6648-4.6255-7.9473-7.9551 0.66124-0.19793 1.3411-0.40846 2.0098-0.61133l41.311 41.76a59.234 59.234 0 0 0 7.3086-1.1875c-11.373-11.408-31.17-31.293-36.844-36.795-1.3242-1.2785-3.3634-3.3294-5.6699-5.6699 0.77299-0.24259 1.588-0.51011 2.3691-0.75781l42.422 42.729a59.234 59.234 0 0 0 6.2578-2.1094c-10.207-10.092-33.479-33.114-39.508-38.959-0.7637-0.73933-2.3021-2.3214-3.459-3.4883 0.93728-0.30337 1.8304-0.57973 2.7773-0.88867l42.361 42.525a59.234 59.234 0 0 0 5.4121-2.7949c-9.3374-9.105-34.992-34.123-41.223-40.164-0.32801-0.31755-0.88512-0.88741-1.2969-1.2969 1.0538-0.34768 2.1199-0.70007 3.1836-1.0527l41.383 41.396a59.234 59.234 0 0 0 4.7188-3.3516c-8.8263-8.482-34.217-32.879-41.221-39.66 0.44756-0.14913 0.87327-0.28775 1.3223-0.4375 0.71784-0.23979 1.4426-0.47665 2.1621-0.71679l39.566 39.443a59.234 59.234 0 0 0 4.1094-3.8301c-8.6541-8.2029-30.604-29.007-39.074-37.141 1.2672-0.42134 2.5298-0.84264 3.7969-1.2617l36.957 36.723a59.234 59.234 0 0 0 3.4902-4.2266c-8.5072-7.957-26.493-24.775-36.148-33.918 1.4029-0.46011 2.7684-0.88512 4.1641-1.3379l33.525 33.197a59.234 59.234 0 0 0 2.8535-4.5703c-8.5141-7.8526-22.96-21.16-32.352-29.922 1.4809-0.47405 2.9867-0.9693 4.4512-1.4297l29.254 28.873a59.234 59.234 0 0 0 2.1953-4.8906c-8.4022-7.6505-19.325-17.581-27.594-25.184 1.5873-0.48942 3.173-0.9789 4.7305-1.4453l23.988 23.615a59.234 59.234 0 0 0 1.4531-5.1406c-7.3274-6.5922-15.163-13.621-21.73-19.561 1.7066-0.49683 3.383-0.97211 5.0391-1.4316l17.518 17.186a59.234 59.234 0 0 0 0.5957-5.3262c-5.2446-4.6654-9.9613-8.8471-14.477-12.861 1.8154-0.48239 3.5734-0.92423 5.3066-1.3477l9.4902 9.2773a59.234 59.234 0 0 0-0.26953-5.3496c-2.038-1.7967-3.5312-3.1027-5.4238-4.7637 1.6256-0.28969 2.9222-0.43886 4.6191-0.75195-0.0864-0.44982-0.18482-0.89572-0.28125-1.3418 0.0724 0.33495 0.1659 0.66325 0.23242 1 10.047-1.9565 15.213-1.8236 17.74-1.416 1.447 0.25475 2.3133 1.7318 1.8242 3.1074-0.7031 2.0176-2.312 4.0159-3.4024 5.2285-3.434 3.8518-8.7332 7.8249-15.469 11.748-0.83557 7.0921-2.9546 13.768-6.0625 19.861 14.694-6.8374 25.993-14.276 32.596-21.664 5.9916-6.6132 8.4696-13.391 7.3691-20.096-0.7031-4.4326-3.1092-7.9877-6.9609-10.301-3.3372-2.0227-7.7003-2.9939-13.104-3.0703-5.4032-0.07642-11.847 0.74097-19.342 2.2949 1.1906 2.4536 2.2021 5.0088 3.0527 7.6309-0.84287-2.6091-1.855-5.1414-3.0371-7.5801-1.4744 0.30486-3.0309 0.66714-4.5859 1.0273-3.6044-3.1198-6.721-5.8273-8.0332-7.0996-3.574-3.4553-12.914-14.152-21.543-24.145a59.234 59.234 0 0 0-7.8301-2.0977l34.818 33.949c-2.0472 0.4988-4.1532 1.0355-6.334 1.6191-2.0978-1.8702-3.8949-3.4934-4.9512-4.5176-5.2637-5.1098-17.724-19.765-28.066-31.742a59.234 59.234 0 0 0-6.7832-0.40625zm64.521 4.4824c-9.7428 3e-3 -21.848 1.1886-34.99 3.373 2.0247 1.1716 3.952 2.5029 5.8281 3.9043a59.234 59.234 0 0 0-5.8184-3.8496l20.926 20.334a59.234 59.234 0 0 0-14.441-15.977c3.2669 2.5119 6.3098 5.32 8.9941 8.459 8.692-1.0292 16.528-1.4468 22.947-1.2227 4.1371 0.16304 7.6026-3.0465 7.7656-7.1836 0.16304-4.1371-3.0465-7.6026-7.1836-7.7656-1.2916-0.0484-2.6355-0.072666-4.0274-0.072266zm-110.38 92.291c-9.2116 0.83557-17.903 1.0897-25.668 0.67187-4.1676-0.22418-7.7046 3.0179-7.8574 7.1856-0.16304 4.1371 3.1079 7.5701 7.2246 7.7637 2.7309 0.13247 5.5238 0.19336 8.377 0.19336 10.302 0 21.562-0.86597 33.311-2.5371-5.8592-3.4849-11.056-8.0092-15.387-13.277zm99.902 33.098c-4.3001 0-8.2339 3.5953-10.262 7.7324-3.5257 7.194-6.8589 16.518-10.201 28.512-0.59101 2.1093 0.64224 4.3016 2.7617 4.8926 0.35664 0.1019 0.71367 0.14258 1.0703 0.14258 1.7323 0 3.3312-1.1516 3.8203-2.9043 0.73367-2.6494 1.4792-5.1472 2.2129-7.5215h21.215c0.73367 2.3742 1.4671 4.8823 2.2109 7.5215 0.59101 2.1093 2.7813 3.3425 4.8906 2.7617 2.1093-0.59102 3.3426-2.7833 2.7617-4.8926-3.3423-11.993-6.6848-21.328-10.221-28.512-2.0278-4.1371-5.9596-7.7324-10.26-7.7324zm-41.484 0.45703c-5.5433 0-10.862 2.0996-14.969 5.9004-4.0963 3.7906-6.4394 8.8964-6.4394 14.012 0 6.5725 2.191 12.248 6.3281 16.416 3.9231 3.9537 9.2821 6.123 15.08 6.123 5.4516 0 10.242-1.5695 13.869-4.5449 3.006-2.466 5.808-7.163 6.1035-15.539v-0.11133-0.03125c0.0306-0.0204 0.01953-0.04024 0.01953-0.06054 0-0.1019-0.00933-0.21451-0.01953-0.31641 0-0.0306-0.00977-0.05153-0.00977-0.08203-0.0102-0.1019-0.03038-0.20279-0.05078-0.30469 0-0.0306-0.01128-0.05196-0.02148-0.07226-0.0204-0.1019-0.05153-0.20325-0.08203-0.29492-0.0102-0.0306-0.01954-0.05002-0.01954-0.07032-0.0306-0.0917-0.06076-0.1954-0.10156-0.28711-0.0102-0.0306-0.02105-0.0496-0.03125-0.08007-0.0408-0.0917-0.08184-0.18411-0.13281-0.26563-0.0102-0.0306-0.03082-0.05001-0.04102-0.07031-0.051-0.0815-0.10139-0.16459-0.15234-0.2461-0.0204-0.0204-0.03038-0.05001-0.05078-0.07031-0.051-0.0815-0.11269-0.15285-0.17383-0.23437-0.0204-0.0204-0.04025-0.04177-0.06055-0.07227-0.0611-0.0713-0.12203-0.14156-0.19336-0.21289l-0.06054-0.06055c-0.0713-0.0611-0.13334-0.13417-0.21485-0.19531-0.0204-0.0204-0.05001-0.04025-0.07031-0.06055-0.0713-0.0611-0.14309-0.11117-0.22461-0.16211-0.0306-0.0204-0.05153-0.04058-0.08203-0.05078-0.0815-0.051-0.15285-0.10377-0.23437-0.14453-0.0306-0.0204-0.0612-0.03038-0.0918-0.05078-0.0815-0.0408-0.16262-0.08074-0.24414-0.11133-0.0408-0.0204-0.07055-0.03038-0.11133-0.05078-0.0815-0.0306-0.16457-0.0612-0.24609-0.0918-0.0408-0.0102-0.09009-0.03081-0.13086-0.04101-0.0815-0.0204-0.15286-0.04025-0.23438-0.06055-0.051-0.0102-0.10337-0.02105-0.15429-0.03125-0.0815-0.0102-0.15287-0.03081-0.23438-0.04101-0.051-0.0102-0.11116-0.00977-0.16211-0.00977-0.051 0-0.10139-0.00976-0.15234-0.00977h-0.08203-0.06055-14.816c-2.1603 0-3.9141 1.7519-3.9141 3.9121 0 2.1603 1.7538 3.9141 3.9141 3.9141h10.373c-1.7934 7.2756-7.582 8.4883-11.617 8.4883-7.999 0-13.582-6.0534-13.582-14.715 0-6.3177 6.4695-12.076 13.582-12.076 4.3511 0 7.5824 0.98929 11.139 3.4043 1.7934 1.2126 4.2186 0.75436 5.4414-1.0391 1.2126-1.7832 0.75241-4.2186-1.041-5.4414-4.8402-3.2913-9.6391-4.7598-15.539-4.7598zm-72.889 0.31446c-4.05 0.02163-8.0136 0.40789-10.791 1.1836-4.9013 1.1718-8.2845 6.3284-7.877 12.045v0.03125c0.5095 6.3687 5.6667 11.197 11.842 11.197 0.13247 0 0.25425 4.3e-4 0.38672-0.00977h3.5762 0.07226l8.6719 0.00977h0.16211c2.1704-0.0917 3.9954 1.6615 4.1992 3.9746 0.12228 1.8036-0.76541 3.6085-1.8965 3.8633l-0.22461 0.06055c-5.0949 1.4572-15.988 1.069-19.799-0.30664-2.038-0.73367-4.278 0.32572-5.0117 2.3535-0.73368 2.038 0.32572 4.28 2.3535 5.0137 3.0875 1.1107 8.2532 1.6816 13.338 1.6816 4.1779 0 8.3046-0.38639 11.168-1.1914 4.9013-1.1718 8.2846-6.3284 7.877-12.045v-0.01953c-0.50946-6.3687-5.6648-11.199-11.84-11.199-0.13247 0-0.2562-4.4e-4 -0.38867 0.00976h-3.5762-0.07032l-8.6719-0.00976h-0.16406c-2.1704 0.0815-4.0037-1.6615-4.1973-3.9746-0.12228-1.8036 0.76345-3.6066 1.8945-3.8613l0.22461-0.06055c5.095-1.4572 15.988-1.071 19.799 0.30469 2.038 0.73367 4.28-0.32573 5.0137-2.3535 0.73368-2.038-0.32575-4.28-2.3535-5.0137-3.1582-1.1349-8.5096-1.7114-13.717-1.6836zm25.332 1.0117c-2.1602 0-3.9121 1.7518-3.9121 3.9121v32.006c0 2.1602 1.7519 3.9141 3.9121 3.9141h22.307c2.1603 0 3.9121-1.7538 3.9121-3.9141 0.0102-2.1704-1.7421-3.9219-3.9023-3.9219h-18.402v-8.8457h12.869c2.1602 0 3.9141-1.7518 3.9141-3.9121s-1.7538-3.9141-3.9141-3.9141h-12.869v-7.5h18.393c2.1603 0 3.9121-1.7519 3.9121-3.9121 0-2.1603-1.7518-3.9121-3.9121-3.9121h-22.307zm89.041 6.1543c1.2839 0 2.4238 1.8445 3.127 3.2812 1.6508 3.3729 3.2709 7.2847 4.8809 11.799h-16.018c1.61-4.5039 3.2301-8.4158 4.8809-11.799 0.7031-1.4367 1.845-3.2812 3.1289-3.2812zm-113.85 39.842c-4.3001 0-8.232 3.5973-10.26 7.7344-3.5257 7.194-6.8589 16.518-10.201 28.512-0.59102 2.1093 0.64222 4.2996 2.7617 4.8906 0.35665 0.1019 0.71367 0.14258 1.0703 0.14258 1.7322 0 3.3312-1.1516 3.8203-2.9043 0.73368-2.6494 1.4792-5.1453 2.2129-7.5195h21.215c0.73367 2.3742 1.4671 4.8804 2.2109 7.5195 0.59101 2.1093 2.7813 3.3426 4.8906 2.7617 2.1093-0.59101 3.3425-2.7813 2.7617-4.8906-3.3524-12.004-6.695-21.328-10.221-28.512-2.0278-4.1371-5.9616-7.7344-10.262-7.7344zm84.914 0.07227c-2.1297 0-3.8516 1.7219-3.8516 3.8516v23.803c0 3.6786-5.2393 6.9102-11.221 6.9102-5.9713 0-11.219-3.2316-11.219-6.9102v-23.793c0-2.1297-1.7219-3.8516-3.8516-3.8516-2.1297 0-3.8516 1.7219-3.8516 3.8516v23.803c0 4.0861 2.1901 8.0094 6.0215 10.74 3.4951 2.4965 8.0708 3.873 12.891 3.873 4.8198 0 9.3955-1.3765 12.891-3.873 3.8314-2.7309 6.0215-6.6439 6.0215-10.74v-23.803c0.0204-2.1297-1.7106-3.8613-3.8301-3.8613zm-123.86 0.69922c-4.05 0.0216-8.0136 0.40983-10.791 1.1855-4.9013 1.1718-8.2846 6.3284-7.877 12.045v0.0293c0.50949 6.3687 5.6667 11.199 11.842 11.199 0.13247 0 0.25425 4.3e-4 0.38672-0.00977h3.5762 0.07226l8.6719 0.00977h0.16211c2.1704-0.0917 3.9954 1.6615 4.1992 3.9746 0.12228 1.8036-0.76541 3.6066-1.8965 3.8613l-0.22461 0.06054c-5.0949 1.4572-15.988 1.0709-19.799-0.30468-2.038-0.73367-4.28 0.32572-5.0137 2.3535-0.73367 2.038 0.32768 4.28 2.3555 5.0137 3.0875 1.1107 8.2532 1.6816 13.338 1.6816 4.1779 0 8.3046-0.38836 11.168-1.1934 4.9013-1.1718 8.2846-6.3264 7.877-12.043v-0.02149c-0.5095-6.3687-5.6667-11.199-11.842-11.199-0.13247 0-0.25425 0.00152-0.38672 0.01172h-3.5762-0.07227l-8.6699-0.01172h-0.16406c-2.1704 0.0815-4.0037-1.6596-4.1973-3.9726-0.12228-1.8036 0.76345-3.6085 1.8945-3.8633l0.22461-0.06055c5.095-1.4572 15.988-1.069 19.799 0.30664 2.038 0.73368 4.28-0.32767 5.0137-2.3555 0.73367-2.038-0.32575-4.278-2.3535-5.0117-3.1582-1.1349-8.5096-1.7134-13.717-1.6855zm57.268 0.99218c-2.1603 0-3.9121 1.7518-3.9121 3.9121s1.7518 3.9141 3.9121 3.9141h9.0996v28.094c0 2.1603 1.7518 3.9121 3.9121 3.9121 2.1602 0 3.9141-1.7518 3.9141-3.9121v-28.094h9.0996c2.1603 0 3.9121-1.7538 3.9121-3.9141 0.0204-2.1603-1.7323-3.9121-3.8926-3.9121h-26.045zm97.385 0c-4.1269 0-8.7635 0.07105-12.707 0.19336-6.4909 0.2038-6.9496 0.36567-7.5508 0.58985-1.5489 0.56045-2.5879 2.0192-2.5879 3.6699v31.262c0 2.2214 1.8554 4.016 4.1074 3.9141 2.1093-0.1019 3.7285-1.9161 3.7285-4.0254v-27.492c3.4238-0.14266 9.1196-0.27539 15.02-0.27539 2.201 0 3.8722 0.60117 4.9726 1.7832 1.1107 1.1922 1.3361 2.6091 1.2852 3.2715-0.0917 1.2024-0.41913 4.7676-6.8184 4.7676h-3.3613c-1.7221 0-3.3329 0.9796-4.0156 2.5488-0.73368 1.6711-0.33641 3.585 0.98828 4.8281l14.734 13.818c0.75405 0.71329 1.7218 1.0606 2.6797 1.0605 1.0394 0 2.0893-0.41918 2.8535-1.2344 1.4775-1.5794 1.3958-4.0557-0.1836-5.5332l-8.9766-8.5781c-0.26494-0.24456-0.10274-0.69446 0.25391-0.71484 7.1533-0.44835 9.2836-5.8186 9.6504-10.363v-0.0293c0.23436-3.2302-1.0294-6.6647-3.373-9.1816-1.8138-1.9463-5.1457-4.2793-10.699-4.2793zm50.725 0.06055c-2.1297 0-3.8613 1.7214-3.8613 3.8613v21.949l-22.051-24.527c-1.0699-1.1922-2.7623-1.5882-4.25-1.0176-1.4877 0.57063-2.4746 2.0061-2.4746 3.5957v32.008c0 2.1297 1.7214 3.8613 3.8613 3.8613 2.1297 0 3.8613-1.7214 3.8613-3.8613v-21.949l22.051 24.527c0.74387 0.82535 1.7949 1.2734 2.875 1.2734 0.45854 0 0.92665-0.08261 1.375-0.25586 1.4877-0.57063 2.4766-2.0061 2.4766-3.5957v-32.008c-0.0102-2.1399-1.7336-3.8613-3.8633-3.8613zm-166.43 6.1133c1.2839 0 2.4258 1.8445 3.1289 3.2812 1.6508 3.3729 3.2709 7.2867 4.8809 11.801h-16.018c1.61-4.5039 3.2301-8.4177 4.8809-11.801 0.7031-1.4368 1.843-3.2812 3.127-3.2812z" fill="#fff"/></svg>
