<svg width="480" height="320" version="1.1" viewBox="0 0 127 84.667" xmlns="http://www.w3.org/2000/svg" xmlns:xlink="http://www.w3.org/1999/xlink">
 <defs>
  <linearGradient id="a" x1="88.311" x2="73.64" y1="80.864" y2="-11.976" gradientUnits="userSpaceOnUse">
   <stop offset="0"/>
   <stop stop-color="#0d52bf" offset="1"/>
  </linearGradient>
 </defs>
 <rect width="127" height="84.667" ry="4.2333" fill="url(#a)" stroke-linecap="square" stroke-linejoin="round" stroke-width=".52917" style="paint-order:stroke fill markers"/>
 <g transform="translate(0 3.3703)" fill="#fafafa">
  <path transform="scale(.26458)" d="m294.26 55.764c-3.5719-0.0273-7.346 0.10751-11.605 0.37695-2.5029 0.16895-5.0607 0.40505-7.6523 0.68164 4.7082 3.3236 8.957 7.3636 12.578 12.039 6.5491-0.22072 12.937 0.20336 14.783 0.33008 2.2314 0.15322 5.4145-0.32258 6.8164-1.4004 1.4037-1.1853 2.1582-2.5901 2.373-4.3125 0.21661-1.8352-0.32238-3.4518-1.3984-4.748-1.187-1.4001-3.774-2.2619-5.5-2.3711-3.4519-0.37866-6.8226-0.5684-10.395-0.5957zm14.314 24.549c-2.1433 0.01705-3.971 0.18259-5.1152 0.29102-3.295 0.31387-7.6147 0.92605-12.326 1.9004a55 55 0 0 1 4e-3 0.0078c-2.7736 0.57342-5.6743 1.2649-8.5918 2.1035-6.0373 1.726-13.806 4.0987-23.512 7.334l-25.664 8.4102c-10.245 3.3445-18.549 6.0414-25.125 7.9805-10.652 3.3201-18.435 5.0195-21.531 5.6504a55 55 0 0 1-6e-3 -0.0293c-0.15477 0.0311-0.31747 0.0676-0.47071 0.0977-13.79 3.1754-18.225 1.3984-18.225 1.3984-0.1849-3.9503 4.4056-8.9697 8.0918-11.756 1.7106-1.2938 3.7942-2.7373 6.1055-4.2109 0.56302-6.023 2.0408-11.828 4.3125-17.25-0.40187 0.19848-0.99657 0.46465-1.3594 0.64844-4.9577 2.5097-11.342 6.1141-16.74 10.566-5.3963 4.4505-7.6831 6.5795-11.299 12.184-3.6157 5.6041-4.4449 11.96-2.2188 15.766 5.7291 9.7957 26.161 6.5836 33.928 5.0742 0.43945-0.0907 0.93924-0.20339 1.3926-0.29883a55 55 0 0 0 2e-3 8e-3c5.9903-1.262 13.178-2.9414 21.684-5.3398 6.6837-2.0483 25.557-8.1973 25.557-8.1973l25.668-8.4102c9.3818-3.1261 17.036-5.5004 22.971-7.1172 0 0 5.9145-1.557 8.8945-2.2715a55 55 0 0 0-1.2227-4.9004 55 55 0 0 1 1.2148 4.8555c6.3746-1.4309 13.426-2.4922 17.777-1.7031-0.23814 2.9768-2.9794 9.5466-13.021 16.816-0.51635 6.1922-2.0016 12.154-4.3164 17.715 15.852-7.9709 22.171-15.284 26.41-21.66 4.7164-7.0905 6.4355-16.837 1.543-21.412-3.8528-3.6046-10.095-4.2875-14.811-4.25zm-16.82 3.8262a55 55 0 0 1 1.6758 4.4219 55 55 0 0 0-1.6758-4.4219zm-104.55 32a55 55 0 0 0 0.91602 4.0449 55 55 0 0 1-0.91602-4.0449zm-9.7305 25.189c-0.80123 5e-3 -1.4262 0.0296-1.8418 0.084-6.5816 0.41915-8.1835 4.5632-8.2539 6.3613-0.0704 1.7929-0.15799 5.9988 8.6074 6.543 8.4763 0.52617 16.479 1.1974 31.805-0.52539-4.92-3.3392-9.367-7.4426-13.145-12.229-7.0228 0.0652-13.72-0.25628-17.172-0.23438z" fill-opacity=".8" stroke-width="1.7612"/>
  <path transform="scale(.26458)" d="m240.95 50a55 55 0 0 0-55 55 55 55 0 0 0 0.25391 5.0078c3.1449-0.64618 10.603-2.2919 20.852-5.4863l0.0293-0.01 0.0293-8e-3c6.4863-1.9125 14.77-4.6026 25.01-7.9453l25.645-8.4043c9.7543-3.2514 17.576-5.6399 23.672-7.3828 2.6825-0.77108 5.3211-1.403 7.875-1.9512a55 55 0 0 0-48.365-28.82zm54.646 48.826c-2.9487 0.71497-8.4503 2.1612-8.4629 2.1641l-0.01 2e-3c-5.8151 1.5849-13.399 3.9356-22.725 7.043l-8e-3 4e-3 -25.682 8.4141h-4e-3c0 1e-5 -18.812 6.1315-25.623 8.2188l-0.043 0.0137-0.043 0.0117c-8.1998 2.3122-15.166 3.9537-21.051 5.209a55 55 0 0 0 49.004 30.094 55 55 0 0 0 55-55 55 55 0 0 0-0.35351-6.1738z"/>
  <path d="m45.362 47.487c-2.3482 0.04236-3.9901 2.9982-4.8813 8.8659-0.03077 0.23979 0.01571 0.46466 0.16701 0.66054 0.15034 0.20926 0.3458 0.32886 0.58682 0.35962 0.24172 0.04392 0.46763-0.0162 0.67858-0.16651 0.19544-0.1496 0.31759-0.34389 0.36246-0.58485 0.11299-0.75225 0.23705-1.4477 0.37072-2.0844h5.8531c0.15199 0.72078 0.29357 1.5149 0.42348 2.383 0.0451 0.23979 0.15106 0.43546 0.36154 0.58577 0.19544 0.15031 0.42218 0.20909 0.66344 0.16376 0.24078-0.02701 0.43645-0.14656 0.58773-0.34219 0.15081-0.20973 0.21037-0.41901 0.18077-0.6743-0.9495-6.2526-2.6527-9.3116-5.1249-9.1613-0.07722-0.0047-0.15366-0.0064-0.2294-0.0051zm-10.492 0.08395c-0.44243 0.0036-0.88446 0.04734-1.3227 0.12431-0.69134 0.16205-0.91528 0.14581-1.6705 0.52017-0.75383 0.37295-1.2792 1.0665-1.2792 1.0665-0.36082 0.39127-0.55639 0.8684-0.79741 1.5013-0.24102 0.63294-0.23971 0.94704-0.26978 1.7279-0.03007 0.78184 0.07455 1.4987 0.30006 2.1811 0.22551 0.68461 0.57128 1.2872 1.0383 1.7917v-0.01789c0.45126 0.52185 1.0082 0.92712 1.6549 1.188 0.64694 0.27713 1.3543 0.42384 2.1211 0.42384 1.805 0 3.1151-0.40823 3.9274-1.2211 0.94786-0.82975 1.3389-2.0822 1.1888-3.7582-0.01503-0.26046-0.11975-0.45683-0.2863-0.63485-0.18017-0.16323-0.37561-0.24495-0.6171-0.24495h-3.9113c-0.23984 0-0.46543 0.09693-0.63315 0.2766-0.18018 0.19517-0.2707 0.42192-0.2707 0.69953 0 0.26046 0.09052 0.50429 0.2707 0.68301 0.16772 0.19517 0.39355 0.2922 0.63315 0.2922h3.0098c-0.0606 0.4885-0.25676 0.89666-0.55791 1.2046-0.58633 0.50447-1.5034 0.74861-2.7524 0.74861-0.52714 0-1.0237-0.09694-1.4595-0.27614l-0.0156-0.01606c-0.39183-0.16323-0.72187-0.39122-1.0085-0.7165-0.28518-0.30884-0.49694-0.68382-0.63178-1.0899-0.15034-0.43942-0.2105-0.92722-0.19499-1.4481 0.0148-0.55285 0.07532-0.85338 0.17985-1.227 0.07611-0.2776 0.19547-0.50473 0.36108-0.68393 0 0 0.26947-0.41741 0.72308-0.64311 0.45384-0.22687 0.78207-0.29311 1.3388-0.4399h0.01513c1.3249-0.32528 2.5885-0.04871 3.8076 0.84585 0.20978 0.14679 0.43552 0.19517 0.67536 0.14679 0.24149-0.06482 0.43658-0.19581 0.57259-0.42338 0.13554-0.21161 0.18069-0.45565 0.13535-0.73301-0.0444-0.26046-0.18033-0.47157-0.37531-0.61742-1.241-0.89128-2.5717-1.2414-3.8989-1.2307zm24.892 0.26788c-1.607 0.0033-2.7449 0.43157-3.4117 1.2908-0.42589 0.4986-0.68436 0.98255-0.7607 1.4816-0.09161 0.4986-0.03058 0.96709 0.19729 1.4211h-0.0156c0.16772 0.34759 0.42619 0.66412 0.7607 0.95182h0.01512c0.2732 0.2264 0.56246 0.40814 0.89697 0.55962 0.22763 0.12142 0.76026 0.19713 1.6109 0.21192 0.1682 0.0148 0.48735 0.01468 0.97267 0.01468 0.42636 0.0155 0.76075 0.01569 1.0034 0.03119h0.01515c0.76016 0.01574 1.5319 0.08904 1.7793 0.16513 0.24595 0.07821 0.68031 0.526 0.7139 0.72751 0.04533 0.12048 0.09166 0.15223 0.04726 0.45825-0.04416 0.30743-0.13846 0.25218-0.26014 0.40366v-0.0156c-0.13742 0.12025-0.36507 0.21022-0.68408 0.30229-0.45525 0.10616-1.0034 0.18153-1.6421 0.19633-0.63872 0.01621-1.2769 1.5e-4 -1.9307-0.07477-0.62251-0.07586-1.1696-0.18167-1.626-0.31788-0.22833-0.07539-0.47078-0.05922-0.68408 0.06055-0.22833 0.10686-0.38019 0.28652-0.4556 0.52843-0.07588 0.2264-0.04559 0.46854 0.05964 0.69494 0.12239 0.21161 0.30527 0.36289 0.53313 0.43898 0.5464 0.18084 1.2005 0.30221 1.9614 0.39357 0.7449 0.07492 1.4736 0.10563 2.2037 0.09036 0.79117-0.0303 1.4752-0.12135 2.0376-0.25733 0.7893-0.19728 1.3378-0.4988 1.6265-0.89218h0.01515c0.24313-0.3025 0.42533-0.57529 0.53222-0.81696v-0.0156c0.12215-0.30203 0.18261-0.60401 0.18261-0.92154v-0.03028c-0.01503-0.2264 0.0047-0.55788-0.11746-0.87659-0.0458-0.16604-0.09064-0.25713-0.33447-0.78439-0.24572-0.52725-0.81073-0.86454-1.7985-1.0752h-0.0156c-0.48579-0.09159-1.1854-0.16626-2.0816-0.19633-0.25863-0.0148-0.60801-0.01475-1.0644-0.03119-0.45548 0-0.77443-3.29e-4 -0.94239-0.0156-0.48579-0.01363-0.80557-0.02982-0.92725-0.05917-0.16772-0.0768-0.31899-0.16702-0.44137-0.27247-0.13625-0.12072-0.24265-0.24167-0.30373-0.36192v-0.0156c-0.06131-0.09066-0.07619-0.19659-0.04588-0.30275 0.04557-0.19634 0.15252-0.40777 0.34961-0.60412 0.91215-0.87743 2.9496-0.87746 6.126 0.03073 0.24454 0.05942 0.47196 0.04516 0.68408-0.09082 0.22904-0.12048 0.38052-0.30282 0.44183-0.54448 0.07588-0.22711 0.04553-0.45478-0.07662-0.68118-0.13578-0.2264-0.31904-0.36244-0.5469-0.43806-1.8155-0.50933-3.3492-0.76402-4.5991-0.76145zm-45 0.09037c-1.5935 0.0034-2.7226 0.42822-3.3837 1.2798-0.42237 0.49484-0.67842 0.97486-0.75382 1.4692-0.09091 0.49438-0.03054 0.95938 0.19546 1.4096h-0.0156c0.16632 0.34407 0.42235 0.65866 0.75428 0.94402h0.01515c0.27132 0.22452 0.55748 0.40518 0.88917 0.55549 0.22551 0.11954 0.75377 0.19437 1.5976 0.20917 0.16632 0.01527 0.48261 0.01513 0.96441 0.01513 0.42213 0.01527 0.7546 0.01526 0.99515 0.02982h0.01515c0.75382 0.0155 1.5191 0.08882 1.7641 0.16468 0.24407 0.07657 0.67389 0.521 0.70748 0.72063 0.04557 0.11931 0.09071 0.1516 0.04771 0.45504-0.04416 0.30344-0.13687 0.24946-0.25785 0.39953v-0.01606c-0.13625 0.12001-0.36215 0.2098-0.67858 0.30045-0.4515 0.10592-0.995 0.18038-1.6278 0.19541-0.63332 0.01503-1.2665-3.06e-4 -1.9146-0.07523-0.61805-0.07539-1.16-0.18103-1.6127-0.31513-0.22575-0.07422-0.46715-0.05969-0.67904 0.06055-0.22551 0.10498-0.37653 0.28451-0.45146 0.5243-0.07541 0.22452-0.04535 0.46468 0.05918 0.68944 0.12121 0.20949 0.3028 0.35876 0.52855 0.43485 0.54241 0.17896 1.1906 0.29878 1.9444 0.3899 0.73926 0.07469 1.4618 0.10495 2.1858 0.08945 0.78436-0.0303 1.4627-0.11954 2.0201-0.25458 0.78342-0.19564 1.3266-0.49522 1.6127-0.88484h0.01515c0.24078-0.30062 0.42146-0.57097 0.52717-0.81099v-0.01513c0.12121-0.29874 0.18123-0.59928 0.18123-0.91328v-0.03073c-0.01503-0.22452 0.0042-0.55361-0.11654-0.86879-0.04533-0.1644-0.08975-0.25515-0.33218-0.77888-0.24313-0.52209-0.80334-0.85632-1.7834-1.0656h-0.01468c-0.4825-0.09066-1.1755-0.16536-2.0646-0.19495-0.25605-0.0155-0.60306-0.01547-1.0553-0.03073-0.45173 0-0.7685-1.07e-4 -0.93505-0.01514-0.48203-0.0141-0.79825-0.02982-0.91899-0.05917-0.16632-0.07539-0.31672-0.1652-0.4377-0.27018-0.13484-0.12001-0.24083-0.23986-0.30144-0.35917v-0.0156c-0.06085-0.08972-0.07573-0.195-0.04542-0.30045 0.04557-0.1947 0.15118-0.40367 0.34686-0.59907 0.90416-0.86921 2.9247-0.86923 6.0751 0.03028 0.24219 0.05942 0.46764 0.0449 0.67812-0.08991 0.22692-0.11931 0.3771-0.29965 0.4377-0.53944 0.07635-0.22358 0.04666-0.44953-0.07478-0.67476-0.1346-0.22452-0.3168-0.35925-0.54231-0.43394-1.8003-0.50512-3.3207-0.75768-4.5601-0.75503zm56.093 0.13256c-2.368 0.0428-4.0084 3.0238-4.9216 8.9406-0.04533 0.2419 0.01503 0.46808 0.16655 0.66512 0.15269 0.21231 0.34939 0.33349 0.5937 0.36238 0.25864 0.04556 0.4708-0.01434 0.68362-0.16605 0.19779-0.15172 0.32011-0.34799 0.36521-0.5899 0.11511-0.75835 0.24025-1.4599 0.37439-2.1009h5.9039c0.15363 0.72688 0.29516 1.5276 0.42577 2.4032 0.04557 0.2419 0.15145 0.43935 0.36475 0.5899 0.19756 0.15101 0.42511 0.21161 0.66894 0.16605 0.24313-0.03054 0.44079-0.1516 0.59278-0.34724 0.15152-0.21255 0.21268-0.42449 0.18215-0.68072-0.95726-6.3045-2.6758-9.3889-5.1685-9.2374-0.0779-0.0047-0.15531-0.0064-0.2317-0.0051zm-48.8 0.04128c-0.24102 0-0.46684 0.09017-0.63315 0.25504-0.18064 0.1792-0.27115 0.39059-0.27116 0.64494v7.4966c0 0.23979 0.09098 0.46586 0.27116 0.63026 0.16632 0.18131 0.39167 0.27018 0.63315 0.27018h6.0301c0.25605 0 0.46694-0.08934 0.64829-0.27018 0.16561-0.1644 0.25602-0.39047 0.25602-0.63026 0-0.25552-0.09041-0.46432-0.25602-0.6454-0.18135-0.1644-0.39224-0.25504-0.64829-0.25504h-5.1249v-1.9481h3.7677c0.25605 0 0.46695-0.08935 0.6483-0.26972 0.16538-0.16581 0.25647-0.39047 0.25647-0.63026 0-0.25459-0.09086-0.4648-0.25647-0.64494-0.18135-0.16651-0.39224-0.25596-0.6483-0.25596h-3.7677v-1.9481h5.1249c0.25605 0 0.46649-0.09075 0.64784-0.27018 0.16561-0.16558 0.25647-0.3745 0.25647-0.63026 0-0.25341-0.09064-0.46437-0.25602-0.64356-0.18135-0.1651-0.39224-0.25504-0.64829-0.25504zm76.981 0.08577c-0.75531 0.0054-1.5798 0.04361-2.4739 0.11422-0.2429 0.01621-0.45346 0.12052-0.63269 0.30183-0.16115 0.16534-0.25786 0.36043-0.25786 0.59999v7.809c0 0.23956 0.097 0.46445 0.27437 0.63026 0.19451 0.17943 0.43715 0.27018 0.69556 0.27018 0.27436 0 0.50028-0.09075 0.67856-0.27018 0.19474-0.16581 0.29089-0.39071 0.29089-0.63026v-6.9682c2.0862-0.11931 3.6852-0.01426 4.8005 0.30091 0.84074 0.25482 1.2934 0.67501 1.3411 1.261 0.0164 0.46525-0.17725 0.79608-0.58177 0.99218-0.64717 0.27032-1.6006 0.34538-2.8602 0.20963-0.22645-0.0155-0.42099 0.01532-0.61525 0.13486-0.19404 0.10451-0.3234 0.2548-0.4042 0.45091-0.0811 0.18014-0.0812 0.37384-0.0321 0.56971 0.0641 0.19611 0.19496 0.34535 0.37301 0.46513l4.8501 3.3041c0.21 0.1482 0.4518 0.20908 0.71115 0.16422 0.27461-0.03053 0.48462-0.15009 0.646-0.36146 0.14587-0.19493 0.21064-0.42005 0.17893-0.66008-0.0491-0.25552-0.17905-0.45013-0.38906-0.6009l-2.5698-1.7417c0.37256-0.08901 0.69482-0.19594 0.97038-0.32981 1.0996-0.51199 1.6492-1.3815 1.6664-2.5986 0.0639-1.4406-0.84164-2.4318-2.6831-2.9733-0.9895-0.30937-2.3152-0.45555-3.9769-0.44357zm-13.268 0.13486c-0.24243 0-0.47164 0.09023-0.6382 0.27201-0.18323 0.16534-0.2739 0.39295-0.2739 0.63485v4.4898c0 0.5909 0.12116 1.1494 0.33493 1.6935h0.01465c0.21284 0.5296 0.53191 0.98283 0.92726 1.3917 0.40969 0.39292 0.8664 0.71002 1.3975 0.93759 0.53325 0.2264 1.0954 0.3321 1.7036 0.3321h1.353c0.60794 0 1.1704-0.1057 1.7178-0.3321h-0.0156c0.53159-0.22758 0.9878-0.54468 1.3994-0.93759 0.39418-0.40889 0.71405-0.86211 0.94284-1.3917v0.0156c0.22787-0.54487 0.33494-1.1034 0.33494-1.7091v-4.4898c-3e-3 -0.24167-0.094-0.46929-0.26152-0.63439-0.18206-0.18178-0.39517-0.27201-0.65381-0.27201-0.24312 0-0.47071 0.09023-0.63819 0.27201-0.1823 0.16534-0.27391 0.39294-0.27391 0.63485v4.4894c0 0.34876-0.0605 0.68143-0.19638 0.98392-0.12215 0.31682-0.3197 0.57413-0.54826 0.81604-0.24313 0.2264-0.50112 0.42377-0.8199 0.54448-0.30373 0.13622-0.63872 0.19587-0.98826 0.19587h-1.3531c-0.34931 0-0.66881-0.05895-0.98781-0.19587-0.31924-0.12072-0.57698-0.31808-0.82035-0.54448-0.2288-0.2419-0.41109-0.49909-0.54827-0.80182v-0.01422c-0.12027-0.3025-0.19637-0.63516-0.19637-0.98392v-4.4898c0-0.2419-0.09175-0.46951-0.25877-0.63485-0.18347-0.18178-0.39447-0.27201-0.65335-0.27201zm29.737 0.04358c-0.24289 0-0.4707 0.09269-0.63865 0.25779-0.18207 0.18178-0.27345 0.39329-0.27345 0.64999v5.6095l-6.0191-6.2439c-0.13742-0.12025-0.28888-0.21083-0.47212-0.25733-0.18157-0.02935-0.36474-0.01485-0.53129 0.06101-0.16796 0.06012-0.31902 0.16666-0.41063 0.31697-0.10712 0.15172-0.16655 0.31811-0.16655 0.51375v7.8627c0 0.24237 0.09 0.46951 0.27253 0.63485 0.16703 0.18178 0.39506 0.27201 0.63865 0.27201 0.25865 0 0.47107-0.09 0.6529-0.27201 0.16749-0.16534 0.25922-0.39224 0.25922-0.63485v-5.6086l6.0342 6.2288c0.13743 0.13551 0.28819 0.22693 0.47212 0.27155 0.18182 0.0303 0.34877 0.01492 0.53129-0.0445 0.1682-0.0768 0.30375-0.18189 0.4111-0.3477 0.10664-0.15148 0.15233-0.31775 0.15233-0.49953v-7.8627c0-0.2567-0.0917-0.46821-0.25969-0.64999-0.18205-0.16534-0.39378-0.25779-0.65289-0.25779zm-40.008 0.15275c-0.24384 0-0.47185 0.09061-0.63958 0.25642-0.18182 0.18178-0.27299 0.39351-0.27299 0.65044 0 0.2419 0.09141 0.46832 0.27299 0.63531 0.16772 0.18272 0.39574 0.27247 0.63958 0.27247h3.0396v6.954c0 0.24261 0.09163 0.46971 0.27345 0.63622 0.16772 0.18178 0.39553 0.27247 0.63866 0.27247 0.25934 0 0.47199-0.09093 0.65334-0.27247 0.16796-0.16651 0.25923-0.39362 0.25923-0.63622v-6.9544h3.0396c0.25816 0 0.47152-0.09023 0.65335-0.27201 0.16772-0.16698 0.25831-0.3934 0.25831-0.63531 4.7e-4 -0.2567-0.09012-0.46843-0.25785-0.65044-0.18206-0.16581-0.39541-0.25642-0.65335-0.25642zm-29.906 0.77154c0.97182 0.07961 1.7963 1.2299 2.4574 3.4486h-4.9533c0.65963-2.2187 1.494-3.3678 2.4959-3.4486zm25.497 0.5899c0.98897 0.07891 1.8179 1.2393 2.4803 3.4765h-4.9987c0.66597-2.237 1.5083-3.395 2.5184-3.4765z" stroke-width=".23488"/>
 </g>
 <style type="text/css">.st0{fill:#FC0C18;}
	.st1{fill:#FC0C18;}</style>
</svg>
