<svg width="480" height="320" version="1.1" viewBox="0 0 480 320" xml:space="preserve" xmlns="http://www.w3.org/2000/svg"><defs><linearGradient id="a" x1="47.767" x2="98.831" y1="-32.295" y2="78.758" gradientTransform="scale(3.7795)" gradientUnits="userSpaceOnUse"><stop stop-color="#3689e6" offset="0"/><stop stop-color="#0e141f" offset="1"/></linearGradient></defs><rect width="480" height="320" ry="24" fill="url(#a)"/><path d="m290.76 110.24c-4.4489 0-8.1378 2.9177-9.2109 6.9082l-11.211 32.861v-24.1h-16.9v5.9902h11.055v16.285h-13.826c-3.3758 0-5.9902-2.7603-5.9902-5.9902v-19.203c0-3.3758 2.7603-5.9902 5.9902-5.9902h19.818v-5.9902h-19.963c-6.6057 0-11.982 5.3748-11.982 11.98v19.203c0 6.6057 5.3767 11.982 11.982 11.982h24.725l12.439-36.082c0.45844-1.3857 1.6884-2.3027 3.2305-2.3027 1.5316 0 2.7597 0.91699 3.2285 2.3027l10.139 30.09h-15.973v5.9922h24.256l-12.439-36.873c-1.2294-3.9905-4.9182-7.0644-9.3672-7.0644zm-109.19 0.77148c-7.8351 0-14.129 6.2918-14.129 14.127 0 7.8351 6.2938 14.129 14.129 14.129h4.916c0.45844 0 0.77149 0.30263 0.77149 0.77149 0 0.44802-0.31309 0.75976-0.61524 0.75976h-19.201v5.9902h19.201c3.6884 0 6.7637-3.0734 6.7637-6.7617s-3.0753-6.7617-6.7637-6.7617h-4.916c-4.4489 0-8.1387-3.6878-8.1387-8.1367s3.6897-8.1367 8.1387-8.1367h19.045v-5.9805h-19.201zm34.102 0c-6.6057 0-11.982 5.3748-11.982 11.98v19.203c0 6.6057 5.3767 11.982 11.982 11.982h20.576v-5.9922l-20.576-0.01953c-3.3758 0-5.9922-2.7623-5.9922-5.9922v-19.191c0-3.3758 2.7623-5.9902 5.9922-5.9902h20.576v-5.9805h-20.576zm75.234 6.1465c-0.77101 0-1.5312 0.6138-1.8438 1.2285l-12.283 35.779h7.0644l4.3027-12.752v5.375h14.127l-9.5215-28.246c-0.30215-0.77101-0.91841-1.3848-1.8457-1.3848zm-109.34 1.2188c-3.6884 0-6.7637 3.0734-6.7637 6.7617s3.0753 6.7617 6.7637 6.7617h4.916c4.449 0 8.1387 3.6897 8.1387 8.1387 0 4.4489-3.6897 8.1367-8.1387 8.1367h-19.045v5.9902h19.201c7.8351 0 14.129-6.2918 14.129-14.127s-6.2938-14.129-14.129-14.129h-4.916c-0.45844 0-0.77149-0.30263-0.77149-0.77148 0-0.31258 0.31309-0.61524 0.61524-0.61524h19.201v-6.1465h-19.201zm34.09 0c-2.6152 0-4.6055 2.0007-4.6055 4.6055v8.9082h20.891v-5.9805h-14.898c0-0.77101 0.61376-1.3867 1.3848-1.3867h17.66v-6.1465h-20.432zm34.863 0c-2.6152 0-4.6055 2.0007-4.6055 4.6055v19.203c0 2.6152 2.0007 4.6035 4.6055 4.6035h12.43v-13.523h-9.5234v5.9922h3.5312v1.3848h-3.5312c-0.77101 0-1.3867-0.61375-1.3867-1.3848v-13.504c0-0.77101 0.61571-1.3867 1.3867-1.3867h17.045v-5.9902h-19.951zm-39.457 15.045v8.9082c0 2.6152 2.0007 4.6055 4.6055 4.6055h20.576v-5.9902h-17.816c-0.76058-0.14587-1.375-0.76024-1.375-1.5312h14.898v-5.9922h-20.889zm79.695 0.45899 2 6.1465h-4.1582l2.1582-6.1465zm-177.66 32.389c-13.558 0.18182-11.392 5.3847-11.184 36.824 0 3.6675 2.9686 6.6484 6.6465 6.6484h49.74v-7.793h-46.729v-27.371h46.729v-7.7949c-23.275 1.0745-37.069-0.62277-45.203-0.51367zm-66.322 0.51367c-3.6675 0-6.6465 2.9809-6.6465 6.6484 0.52095 5.668-2.6786 19.077 6.6465 19.004h40.082v9.5234h-46.719v7.793h49.74c3.6675 0 6.6484-2.979 6.6484-6.6465-0.45844-5.6263 2.5308-18.525-6.6484-18.463h-40.092v-10.064h46.729v-7.7949h-49.74zm138.12 0v7.7949h37.01l-14.566 14.555h25.568v12.826h-48.594v7.793h49.74c3.6675 0 6.6465-2.9686 6.6465-6.6465-0.80227-5.8034 3.3141-21.912-6.6465-21.756 0.01039-0.0104-7.8984-0.00977-7.8984-0.00977l14.555-14.557h-55.814zm66.787 0c-3.6675 0.0208-6.6484 2.9914-6.6484 6.6484v29.662c0 3.6675 2.9705 6.6484 6.6484 6.6484h48.104c3.6675 0 6.6484-2.9705 6.6484-6.6484v-29.662c0-3.6675-2.9705-6.6484-6.6484-6.6484h-48.104zm66.785 0c-3.6779 0.0208-6.6465 2.9914-6.6465 6.6484v29.662c0 3.6675 2.9686 6.6484 6.6465 6.6484h48.105c3.6675 0 6.6465-2.9705 6.6465-6.6484v-29.662c0-3.6675-2.9686-6.6484-6.6465-6.6484h-48.105zm66.787 0c-3.6779 0.0208-6.6484 2.9914-6.6484 6.6484v29.662c0 3.6675 2.9705 6.6484 6.6484 6.6484h48.105c3.6675 0 6.6465-2.9705 6.6465-6.6484v-29.662c0-3.6675-2.9686-6.6484-6.6465-6.6484h-48.105zm-130.56 7.7949h42.084v27.371h-42.084v-27.371zm66.787 0h42.082v27.371h-42.082v-27.371zm66.775 0h42.084v27.371h-42.084v-27.371zm-225.2 10.064v7.793h17.066v-7.793h-17.066z" fill="#fff"/></svg>
