<svg width="480" height="320" version="1.1" viewBox="0 0 127 84.667" xmlns="http://www.w3.org/2000/svg">
 <defs>
  <linearGradient id="a" x1="47.767" x2="98.831" y1="-32.295" y2="78.758" gradientUnits="userSpaceOnUse">
   <stop stop-color="#3689e6" offset="0"/>
   <stop stop-color="#0e141f" offset="1"/>
  </linearGradient>
 </defs>
 <rect y="9.1553e-8" width="127" height="84.667" ry="4.2333" fill="url(#a)" stroke-linecap="square" stroke-linejoin="round" stroke-width=".52917" style="paint-order:stroke fill markers"/>
 <path transform="matrix(.26458 0 0 .26458 -.00025 0)" d="m300.16 101.83c-4.7842 0-8.8079 2.9503-10.041 6.9746l-12.533 36.729v-26.578h-18.785v6.6074h12.146v17.938h-15.201c-3.6549 0-6.6426-2.976-6.6426-6.6328v-21.029c0-3.6602 2.9662-6.6113 6.625-6.6113h21.857v-6.623h-21.91c-7.3402 0-13.287 5.9227-13.287 13.234v21.029c0 7.3126 6.0001 13.244 13.34 13.244l21.857 0.00977v-0.00781h5.4688l13.686-40.154c0.55565-1.3296 1.8676-2.2656 3.4082-2.2656 1.5321 0 2.8474 0.93667 3.4082 2.2578l11.398 33.549h-17.65v6.6152h26.859l-13.971-41.293c-1.2242-4.0277-5.2565-6.9922-10.033-6.9922zm-99.23 0.77149-21.104 0.00195c-8.6405 0-15.66 6.976-15.66 15.588 0 8.6118 7.0198 15.59 15.66 15.59l5.459 0.00781c0.41517 0 0.76758 0.33842 0.76758 0.76562 0 0.41936-0.35252 0.75782-0.76758 0.75782l-21.111 0.01562 0.00781 6.5938h21.154c4.0954 0 7.4082-3.3012 7.4082-7.3809 0-4.075-3.3128-7.3711-7.4082-7.3711l-5.5156-0.06055c-4.9473 0-8.9609-3.9964-8.9609-8.9356 0-4.9256 4.0137-8.9258 8.9609-8.9258l21.115-0.00586-0.00586-6.6406zm16.438 0.00195c-7.3436 0-13.293 5.9227-13.293 13.234v21.027c0 7.3126 5.9493 13.244 13.293 13.244l22.473 0.00977-0.00391-6.6113-22.469 0.00781c-3.6678 0-6.6719-2.9194-6.6719-6.6484v-21.104c0-3.5875 3.004-6.5352 6.6719-6.5352l22.566 0.00586v-6.6289l-22.566-0.00196zm82.797 6.623c-0.94602 0-1.7465 0.60908-2.041 1.4512l-13.416 39.438h7.8301l4.7559-14.01-0.01172 5.8887h15.535l-10.607-31.316c-0.28649-0.84206-1.0944-1.4512-2.041-1.4512h-0.00195-0.00195zm-22.578 1.5449-21.857 0.00586c-2.7986 0-5.0664 2.2664-5.0664 5.0625v21.029h0.00196c0 2.8018 2.2678 5.0801 5.0664 5.0801h13.652v-14.822h-10.562v6.6289h3.9219l0.00977 1.5566h-3.9024c-0.85181 0-1.5488-0.7056-1.5488-1.5566l-0.03321-14.803s-0.00416-1.5398 1.5664-1.5781h18.762l-0.00977-6.6035zm-60.219 0.00586c-2.803 0-5.0547 2.2664-5.0547 5.0625l-0.00781 9.7227h22.828v-6.6055h-16.221s0.02192-1.543 1.5781-1.543h19.441v-6.6367h-22.564zm-37.547 0.01172c-4.0825 0-7.4024 3.3136-7.4024 7.3848 0 4.075 3.3193 7.375 7.4024 7.375l5.5176 0.07227c4.9557 0 8.9668 3.9952 8.9668 8.9219 0 4.9301-4.0105 8.9316-8.9668 8.9316h-21.152l-0.00781 6.6875 21.143-0.02149c8.6496 0 15.656-6.9807 15.656-15.584 0-8.6203-7.0069-15.604-15.656-15.604l-5.4922 0.0293c-0.43267 0-0.7832-0.35474-0.7832-0.79102 0-0.43624 0.35066-0.79101 0.7832-0.79101l21.104 0.00586 0.00586-6.6152-21.115-0.00195h-0.00195zm55.311 16.346-22.826 0.00195v9.7324c0 2.7882 2.2678 5.041 5.0625 5.041l22.467-0.00976 0.0039-6.582h-19.348s-1.5567-0.00605-1.5781-1.5625h16.219v-6.6211zm65.02 0.55274 2.3379 6.9414h-4.6934l2.3555-6.9414zm-249.76 42.475c-6.927 0-10.389 3.5549-10.389 10.666v8c0 7.1118 3.4616 10.666 10.389 10.666h36.365v8h-46.754v10.668h46.754c6.9264 0 10.389-3.5562 10.389-10.668v-8c0-7.1111-3.4623-10.666-10.389-10.666h-36.365v-8h46.754v-10.666h-46.754zm62.338 0c-6.927 0-10.389 3.5549-10.389 10.666v26.666c0 7.1118 3.4616 10.668 10.389 10.668h44.156v-10.668h-44.156v-26.666h44.156v-10.666h-44.156zm72.729 0v10.666h36.363l-12.986 16h25.973v10.666h-49.35v10.668h49.35c6.9258 0 10.391-3.5562 10.391-10.668v-10.666c0-7.1111-3.4642-10.666-10.391-10.666h-5.1934l12.986-16h-57.143zm75.324 0c-6.927 0-10.391 3.5549-10.391 10.666v26.666c0 7.1118 3.4636 10.668 10.391 10.668h38.961c6.9264 0 10.389-3.5562 10.389-10.668v-26.666c0-7.1111-3.4623-10.666-10.389-10.666h-38.961zm64.936 0c-6.9264 0-10.391 3.5549-10.391 10.666v26.666c0 7.1118 3.4642 10.668 10.391 10.668h38.961c6.9264 0 10.389-3.5562 10.389-10.668v-26.666c0-7.1111-3.4623-10.666-10.389-10.666h-38.961zm64.934 0c-6.9264 0-10.389 3.5549-10.389 10.666v26.666c0 7.1118 3.4623 10.668 10.389 10.668h38.963c6.9264 0 10.389-3.5562 10.389-10.668v-26.666c0-7.1111-3.4623-10.666-10.389-10.666h-38.963zm-129.87 10.666h38.961v26.666h-38.961v-26.666zm64.936 0h38.961v26.666h-38.961v-26.666zm64.934 0h38.963v26.666h-38.963v-26.666zm-228.57 8v10.666h18.182v-10.666h-18.182z" fill="#fafafa" stroke-linecap="round" stroke-linejoin="round" stroke-width="6" style="paint-order:stroke markers fill"/>
 <style type="text/css">.st0{fill:#FC0C18;}
	.st1{fill:#FC0C18;}</style>
</svg>
