<svg width="480" height="320" version="1.1" viewBox="0 0 480 320" xmlns="http://www.w3.org/2000/svg"><defs><linearGradient id="a" x1="350" x2="172" y1="-60" y2="275" gradientUnits="userSpaceOnUse"><stop stop-color="#d0ea32" offset="0"/><stop stop-color="#377615" offset="1"/></linearGradient></defs><rect width="480" height="320" ry="24" fill="url(#a)"/><path d="m345.6 100.5c-0.1168-5.6e-4 -0.2389 0.0125-0.367 0.0385l-7.49 1.512v4.789l-0.1924 0.1686-1.323 1.174v3.142l-0.1538 0.1657-1.361 1.455v9.251l-0.2041 0.1686-2.137 1.796-0.1599 0.1331h-5.581l-5.344 38.88c-0.141 1.036-0.676 1.138-1.19 0.2248l-6.747-12.03-13.97 11.68 12.64 21.34 11.33-4.189v-5.334l0.2249-0.1716 3.237-2.482 0.1538-0.1183h0.1954l4.037 0.0325 4.318-3.399 2.083-12.32h-5.584l3e-3 -0.5739 0.034-12.04v-0.2396l0.1716-0.1686 1.5-1.467v-3.609h6.934l6.129-36.27c0.1512-0.9025-0.364-1.534-1.181-1.538zm-8.999 1.778-5.282 1.068c-1.023 0.209-1.979 1.227-2.122 2.263l-2.412 17.54h5.01l1.776-1.488v-9.168l0.1508-0.1657 1.361-1.455v-3.204l0.1954-0.1745 1.323-1.172zm14.61 0.4911c-0.9658 1e-3 -1.835 0.7327-1.977 1.704l-3.675 24.69h7.185l2.246-7.073 0.1274-0.3994h17.8l-4.14-15.37c-0.2714-1.012-1.343-1.926-2.385-2.032l-14.99-1.509c-0.065-6e-3 -0.1281-0.0121-0.1924-0.0117zm73.5 7.556c-1.041-0.0924-2.305 0.5878-2.808 1.509l-6.925 12.68h9.62l4.59-13.79zm5.646 0.4941-4.806 14.44-0.133 0.3905h-11.07l-26.14 47.84c-0.5045 0.9164-1.137 0.8402-1.409-0.1686l-4.957-18.42h-7.854v21.43h-3.613l5.806 19.97c0.2925 1.006 1.38 1.922 2.421 2.032l8.061 0.8579c1.039 0.1106 2.32-0.5393 2.838-1.45l27.96-48.57c0.5212-0.9058 0.875-0.7966 0.7872 0.2485l-1.672 19.43h7.188l0.0503-17.72v-0.077l0.0189-0.077 3.391-12.27 0.1126-0.4201h0.435l10.06 0.0414 2.208-24.76c0.0926-1.044-0.6844-1.97-1.725-2.062zm-141.2 0.3698c-0.133 3e-3 -0.2632 0.0178-0.3906 0.0444l-16.02 3.316c-1.027 0.2105-1.429 1.122-0.8967 2.023l6.599 11.14h5.549v-7.606h5.948l1.006-1.376 0.1746-0.2337h3.791l-3.359-5.991c-0.4494-0.7979-1.469-1.336-2.4-1.316zm2.548 8.446-1.006 1.379-0.1716 0.2337h-5.383v7.606h-6.019l13.01 21.95c-0.3373-0.2032-0.68-0.4017-1.042-0.5828-2.276-1.136-5.229-1.704-8.869-1.704-2.727 0-5.072 0.5962-7.037 1.79-0.5016 0.3075-0.9921 0.6294-1.468 0.9762-0.4455 0.3287-0.8754 0.6775-1.278 1.056-0.3318 0.3105-0.76 1.061-1.29 0.9082-0.3742-0.1106-0.705-0.5298-0.9263-0.8343-0.5394-0.7407-1.239-1.371-1.989-1.89-1.423-0.9951-3.214-1.497-5.371-1.497-1.085 0-2.105 0.174-3.072 0.5148-0.9667 0.3408-1.833 0.7847-2.598 1.322-0.7697 0.5423-1.397 1.109-1.879 1.704-0.0772 0.0969-0.1534 0.1903-0.2368 0.2781-0.1227 0.1272-0.3136 0.3-0.506 0.2514-0.2166-0.0498-0.3466-0.3742-0.3936-0.565-0.0879-0.3363-0.0969-0.693-0.1302-1.038-0.0453-0.4468-0.0891-0.8948-0.1391-1.34-0.0939-0.8997-0.9081-1.619-1.808-1.598l-12.26 0.3047c0.1682 3.467 0.2969 6.79 0.3818 9.976 0.0848 3.182 0.1413 6.407 0.1716 9.674 0.0276 3.27 0.0276 6.726 0 10.36-0.0287 3.638-0.0414 10.37-0.0414 10.37-3e-3 0.9043 0.7363 1.633 1.642 1.618l11.9-0.2012c0.9015-0.0166 1.655-0.7657 1.675-1.672l0.4764-23.42c0-0.7982 0.2008-1.606 0.5978-2.432 0.3955-0.8255 1.336-1.237 2.814-1.237 0.6818 0 1.223 0.2527 1.622 0.7662 0.394 0.5135 0.7235 1.194 0.9795 2.047 0.2561 0.8528 0.4241 1.835 0.512 2.941 0.0864 1.109 0.1273 2.259 0.1273 3.452v7.248c0 1.872-0.014 3.51-0.0414 4.902-0.0287 1.396-0.0742 2.7-0.1302 3.923-0.0561 1.224-0.1065 2.577-0.1065 2.577-0.0348 0.9043 0.6742 1.661 1.58 1.683h0.0238c0.453 9e-3 0.8993 0.0189 1.355 0.0295 0.9727 0.0181 1.948 0.0409 2.924 0.0621 1.191 0.0242 2.384 0.0495 3.578 0.0769 1.124 0.0242 2.251 0.0467 3.374 0.074 0.6909 0.0147 1.496 0.1693 2.175 0.0117 0.5727-0.1318 0.4458-0.5868 0.4291-1.044-0.0166-0.6952-0.1439-1.37-0.1953-2.062-0.0818-1.25-0.1413-2.53-0.1716-3.837-0.0276-1.304-0.0524-2.558-0.0828-3.751-0.0287-1.194-0.0444-2.159-0.0444-2.899 0-5.456 0.2276-9.52 0.6806-12.19 0.456-2.67 1.649-4.005 3.584-4.005 1.194 0 2.12 0.4989 2.776 1.491 0.6515 0.9936 0.9796 2.657 0.9796 4.988 0 2.216-0.2669 5.046-0.8109 8.485-0.5409 3.443-2.237 10.89-2.237 10.89-0.2015 0.8815 0.3681 1.697 1.267 1.811 0.3864 0.0452 0.765 0.0951 1.145 0.142 1.924 0.2423 3.845 0.481 5.768 0.7218 1.22 0.1515 2.439 0.2807 3.661 0.4231 0.7409 0.0849 1.474 0.2509 2.214 0.3372 0.4561 0.0487 1.038 0.2802 1.406-0.1272 0.3515-0.3923 0.3295-1.11 0.4114-1.592 0.1243-0.7316 0.1998-1.465 0.2604-2.201 0.0894-1.127 0.236-2.234 0.3936-3.355 0.1363-0.9406 0.259-1.882 0.3817-2.825 0.4258-3.296 0.6392-6.509 0.6392-9.635-3e-3 -3.355-0.2461-6.438-0.731-9.251-0.0223-0.1296-0.05-0.2538-0.074-0.3816l13.72-11.46-17.23-30.72zm64.25 3.207-2.246 7.07-0.1244 0.3964h-8.188l-5.916 39.82 4.88 0.0295h0.1421l0.1274 0.071 2.631 1.435h7.827l4.247-30.59c0.1455-1.038 0.5006-1.063 0.796-0.0592l9.922 34.17h2.808v-21.42h8.685l-8.321-30.92zm-294.2 9.082c-2.57 0-4.994 0.3576-7.274 1.068-2.285 0.715-4.299 1.773-6.037 3.168-1.742 1.4-3.125 3.123-4.152 5.18-1.026 2.054-1.542 4.447-1.542 7.189 0 2.795 0.5852 5.262 1.755 7.402 1.171 2.14 2.625 4.039 4.368 5.692 1.741 1.656 3.622 3.097 5.646 4.322 2.026 1.228 3.91 2.372 5.652 3.423 1.739 1.056 3.195 2.07 4.365 3.038 1.168 0.9709 1.758 1.997 1.758 3.083 0 1.256-0.3323 2.109-0.9884 2.568-0.6545 0.4529-1.613 0.6863-2.868 0.6863-1.256 0-2.607-0.2335-4.063-0.6863-1.456-0.459-2.887-1.041-4.282-1.754-1.399-0.7134-2.696-1.541-3.897-2.485-1.197-0.9406-1.897-1.722-1.897-1.722-0.6015-0.674-1.56-0.6453-2.122 0.0651l-6.081 7.692c2.853 3.938 6.064 6.879 9.63 8.816 3.57 1.94 7.976 2.908 13.23 2.908 2.623 0 5.235-0.3546 7.833-1.068 2.595-0.715 4.925-1.799 6.978-3.254 2.056-1.456 3.724-3.309 5.007-5.562 1.283-2.254 1.927-4.923 1.927-8.005 0-3.194-0.5867-5.947-1.755-8.26-1.171-2.308-2.641-4.289-4.409-5.946-1.77-1.654-3.666-3.068-5.691-4.239-2.027-1.168-3.925-2.22-5.694-3.162-1.771-0.9421-3.241-1.856-4.409-2.742-1.171-0.8846-1.755-1.84-1.755-2.867 0-0.7982 0.2386-1.454 0.728-1.967 0.4833-0.515 1.241-0.7721 2.267-0.7721 0.8576 0 1.855 0.1583 2.998 0.4733 1.139 0.3135 2.368 0.7825 3.681 1.411 1.312 0.6286 2.655 1.383 4.022 2.266 1.37 0.8861 2.607 1.958 2.607 1.958 0.6864 0.5968 1.65 0.4616 2.143-0.3017l4.927-7.603c-3.255-3.308-6.692-5.805-10.32-7.488-3.626-1.681-7.722-2.524-12.29-2.524zm366.5 7.511-3.249 11.77-0.0503 18.21v0.571h-8.422l-2.569 29.89c-0.0896 1.045 0.6903 1.988 1.728 2.097l6.348 0.6597 0.7369-10.47 0.034-0.4645 0.4587-0.0592 3.785-0.5029 0.944-1.914 0.1538-0.3195h5.232l4.395-49.44zm-93.35 0.0178v2.944l-0.1716 0.1686-1.5 1.47-0.034 11.23h4.631l2.672-15.81zm-163.1 7.266-14.01 0.3047c0.1712 2.739 0.331 5.102 0.4735 7.097 0.1409 1.996 0.257 3.908 0.3403 5.73 0.0864 1.825 0.1443 3.706 0.1746 5.641 0.0242 1.94 0.0414 4.224 0.0414 6.846 0 1.996-0.6558 3.574-1.968 4.742-1.311 1.171-2.877 1.754-4.702 1.754-1.938 0-3.395-0.5865-4.365-1.754-0.9712-1.168-1.453-2.578-1.453-4.231 0-2.96 0.1352-5.733 0.4262-8.635 0.2849-2.849 0.5703-5.471 0.8582-7.869 0.3424-2.737 0.9263-6.239 0.9263-6.239 0.147-0.8952-0.47-1.621-1.376-1.609l-14.61 0.1509c-0.4015 2.851-0.742 5.702-1.027 8.553-0.2848 2.452-0.5266 5.048-0.725 7.783-0.2015 2.737-0.2989 5.188-0.2989 7.355 0 3.079 0.3718 5.853 1.113 8.322 0.7394 2.467 1.882 4.566 3.421 6.292 1.538 1.725 3.52 3.056 5.942 3.991 2.424 0.9315 5.32 1.402 8.685 1.402 0.9682 0 1.963-0.13 2.992-0.3876 1.024-0.256 2.009-0.6121 2.953-1.068 0.9379-0.4574 1.806-0.9815 2.607-1.58 0.3575-0.2681 0.9867-1.122 1.503-0.9437 0.6697 0.2363 0.293 1.743 0.293 2.242 0 0.9058 0.7393 1.632 1.645 1.612l13.41-0.3017c-0.1136-4.193-0.2408-8.116-0.3847-11.78-0.147-3.662-0.2897-7.263-0.4291-10.8-0.144-3.537-0.2851-7.138-0.4291-10.82-0.1409-3.676-0.3344-10.19-0.3344-10.19-0.0276-0.9058-0.7911-1.632-1.696-1.612zm-63.52 0.1804c-3.412 0-6.452 0.5256-9.126 1.577-2.673 1.053-4.916 2.557-6.735 4.52-1.82 1.962-3.199 4.321-4.137 7.076-0.9394 2.76-1.409 5.841-1.409 9.251 0 2.958 0.4254 5.771 1.278 8.443 0.853 2.673 2.176 5.017 3.969 7.035 1.788 2.018 4.048 3.626 6.78 4.819 2.729 1.192 6 1.787 9.807 1.787 2.161 0 4.265-0.3294 6.312-0.9792 2.047-0.6528 3.922-1.649 5.629-2.985 1.706-1.336 3.197-3.024 4.477-5.074 1.279-2.046 2.379-5.674 2.379-5.674 0.2636-0.8664-0.2342-1.775-1.101-2.026l-10.02-2.876c-0.1712 0.9103-0.5386 1.734-1.107 2.473-0.5697 0.7392-1.21 1.378-1.921 1.917-0.7122 0.5422-1.436 0.9719-2.175 1.284-0.7394 0.312-1.422 0.4674-2.048 0.4674-2.217 0-4.021-0.855-5.413-2.559-1.395-1.709-2.092-3.949-2.092-6.739 0-1.475 0.2119-2.754 0.6392-3.837 0.4273-1.074 0.9656-1.968 1.622-2.683 0.6515-0.7089 1.391-1.25 2.217-1.621 0.8227-0.3666 1.634-0.5532 2.433-0.5532 2.388 0 4.162 0.6007 5.33 1.793 1.164 1.195 1.693 2.411 1.693 2.411 0.3591 0.83 1.37 1.332 2.246 1.115l10.35-2.589c-1.08-4.715-3.273-8.526-6.57-11.42-3.297-2.899-7.734-4.349-13.31-4.349zm111.7 1.618c-2.73 0-5.076 0.5962-7.04 1.79-0.5212 0.318-1.032 0.6586-1.521 1.024-0.4424 0.3302-0.871 0.679-1.27 1.056-0.297 0.2802-0.5551 0.7096-0.9884 0.7869-0.1091 0.0185-0.2237 0.0476-0.3403 0.0355-0.3939-0.0359-0.5043-0.3022-0.7073-0.5976-0.5682-0.8255-1.304-1.519-2.122-2.092-1.424-0.9921-3.213-1.491-5.374-1.491-1.08 0-2.102 0.171-3.069 0.5118-0.9697 0.3393-1.835 0.7847-2.601 1.322-0.65 0.4559-1.209 1.005-1.829 1.494-0.3046 0.2408-0.4235 0.573-0.8523 0.5473-0.4379-0.0287-0.3796-0.5935-0.4084-0.8934-0.0395-0.359-0.0762-0.7164-0.1095-1.074-0.0276-0.262-0.0586-0.5234-0.0858-0.784-0.0924-0.8997-0.905-1.619-1.811-1.598l-12.26 0.3047c0.1712 3.467 0.3013 6.79 0.3877 9.976 0.0848 3.182 0.1399 6.407 0.1687 9.674 0.0276 3.27 0.0276 6.722 0 10.36-0.0287 3.637-0.0385 10.38-0.0385 10.38-2e-3 0.9043 0.7335 1.633 1.637 1.621l11.9-0.2042c0.9015-0.0147 1.654-0.7702 1.672-1.672l0.4824-23.42c0-0.7982 0.1979-1.605 0.5948-2.429 0.3955-0.8255 1.336-1.237 2.814-1.237 0.6834 0 1.223 0.2512 1.622 0.7662 0.3939 0.512 0.7234 1.194 0.9795 2.047 0.2576 0.8513 0.4256 1.833 0.5119 2.941 0.0833 1.107 0.1273 2.256 0.1273 3.449v7.248c0 1.875-0.014 3.51-0.0414 4.902-0.0287 1.398-0.0712 2.703-0.1273 3.923-0.0576 1.224-0.1095 2.58-0.1095 2.58-0.0321 0.9027 0.6743 1.659 1.577 1.683l13.97 0.2988c-0.1152-0.8513-0.2111-1.903-0.2959-3.154-0.0849-1.25-0.1444-2.528-0.1716-3.837-0.0276-1.304-0.0571-2.558-0.0858-3.751-0.0302-1.194-0.0414-2.16-0.0414-2.899 0-5.454 0.226-9.517 0.6836-12.19 0.4545-2.672 1.644-4.008 3.578-4.008 1.194 0 2.12 0.4973 2.776 1.494 0.6515 0.9936 0.9795 2.655 0.9795 4.985 0 2.219-0.2699 5.049-0.8109 8.488-0.5394 3.44-2.237 10.89-2.237 10.89-0.2 0.88 0.3681 1.692 1.267 1.811l14.06 1.754c0.6227-3.523 1.15-6.932 1.577-10.23 0.4258-3.293 0.6422-6.506 0.6422-9.635 0-3.352-0.2432-6.438-0.725-9.254-0.4864-2.808-1.385-5.224-2.693-7.242-1.308-2.016-3.098-3.594-5.371-4.734-2.276-1.136-5.23-1.704-8.869-1.704zm115.3 21.88-3.492 2.751-0.1568 0.1243-0.2011-3e-3 -4.04-0.0325-2.856 2.192v5.565l-0.37 0.1361-11.5 4.254 5.732 9.688c0.5348 0.8998 1.817 1.476 2.841 1.284l8.114-1.538c1.027-0.1924 2.011-1.198 2.184-2.231zm4.072 0.8727-1.13 7.585 15.65 1.867 1.101-7.914h-7.96l-0.13-0.071-2.631-1.435zm-1.296 8.715-1.82 12.22c-0.1546 1.037 0.5734 1.956 1.616 2.047l12.09 1.059c1.042 0.0894 2.012-0.6828 2.154-1.719l1.628-11.74zm90.81 10.08-0.9233 1.87-0.1361 0.2722-0.299 0.0414-3.628 0.4763-0.7073 10.04 7.002 0.7219v3e-3c1.039 0.109 1.969-0.6575 2.063-1.698l1.045-11.73z" fill="#fff"/></svg>
