<svg width="480" height="320" version="1.1" viewBox="0 0 127 84.667" xmlns="http://www.w3.org/2000/svg" xmlns:xlink="http://www.w3.org/1999/xlink">
 <defs>
  <linearGradient id="a" x1="96.217" x2="76.488" y1="8.4115" y2="82.041" gradientUnits="userSpaceOnUse">
   <stop stop-color="#9bdb4d" offset="0"/>
   <stop stop-color="#3a9104" offset="1"/>
  </linearGradient>
 </defs>
 <rect width="127" height="84.667" ry="4.2333" fill="url(#a)" stroke-linecap="square" stroke-linejoin="round" stroke-width=".52917" style="paint-order:stroke fill markers"/>
 <path d="m91.427 26.586c-0.0309-1.48e-4 -0.0632 0.0033-0.0971 0.01018l-1.9817 0.4001v1.2676l-0.0509 0.04463-0.34998 0.31084v0.83151l-0.0407 0.04385-0.36017 0.38522v2.4484l-0.054 0.04463-0.56531 0.47526-0.0423 0.03523h-1.4767l-1.414 10.289c-0.0373 0.2742-0.17886 0.30124-0.31475 0.05951l-1.7852-3.1828-3.6972 3.092 3.3441 5.6468 2.9972-1.1087v-1.4117l0.0595-0.04541 0.85657-0.65691 0.0407-0.03132h0.0517l1.068 0.0086 1.1424-0.89964 0.55122-3.2595h-1.4775l7.8e-4 -0.1519 9e-3 -3.1867v-0.06342l0.0454-0.04463 0.39697-0.38836v-0.95523h1.8345l1.6215-9.6c0.04-0.23887-0.0963-0.40609-0.31241-0.40714zm-2.381 0.47057-1.3976 0.28265c-0.27059 0.05532-0.52371 0.32477-0.56139 0.59897l-0.63812 4.6422h1.3256l0.46979-0.39384v-2.4264l0.0399-0.04385 0.36017-0.38522v-0.84796l0.0517-0.04619 0.34999-0.31006zm3.8663 0.12997c-0.25552 3.65e-4 -0.48544 0.19393-0.52303 0.45099l-0.97245 6.5355h1.9011l0.59428-1.8721 0.0337-0.1057h4.7088l-1.0954-4.0683c-0.0718-0.26779-0.35527-0.50984-0.63108-0.5379l-3.965-0.39932c-0.0172-0.0017-0.0339-0.0032-0.0509-0.0031zm19.448 1.9997c-0.2754-0.02445-0.60995 0.15558-0.74304 0.39932l-1.8322 3.355h2.5454l1.2144-3.651zm1.4939 0.13076-1.2716 3.8225-0.0352 0.10335h-2.9275l-6.9168 12.661c-0.13349 0.24254-0.30094 0.22236-0.37269-0.04463l-1.3115-4.874h-2.078v5.6711h-0.956l1.5362 5.2851c0.0774 0.26619 0.36506 0.50864 0.64047 0.5379l2.1328 0.22706c0.27501 0.02926 0.61377-0.14273 0.75087-0.38366l7.3968-12.855c0.1379-0.23972 0.23151-0.21084 0.20827 0.06577l-0.44238 5.1433h1.9018l0.0133-4.69v-0.02036l5e-3 -0.02036 0.89729-3.2478 0.0298-0.11118h0.1151l2.6605 0.01096 0.5841-6.5519c0.0245-0.27621-0.18107-0.52128-0.45647-0.54573zm-37.363 0.09787c-0.03519 7.46e-4 -0.06963 0.0047-0.10335 0.01175l-4.239 0.87771c-0.27179 0.05572-0.37795 0.29703-0.23724 0.53555l1.746 2.9479h1.4681v-2.013h1.5738l0.26621-0.36408 0.04619-0.06186h1.003l-0.88866-1.5855c-0.11891-0.21117-0.38863-0.35364-0.63499-0.34842zm0.67414 2.2354-0.26621 0.36487-0.04541 0.06186h-1.4242v2.013h-1.5926l3.4412 5.8097c-0.08924-0.05379-0.17993-0.10631-0.27561-0.15425-0.60212-0.30066-1.3836-0.45099-2.3466-0.45099-0.72159 0-1.342 0.1578-1.8619 0.4737-0.1327 0.08138-0.26248 0.16658-0.38836 0.25838-0.11786 0.08699-0.23161 0.1793-0.33824 0.27952-0.08779 0.08218-0.20107 0.28086-0.34138 0.24037-0.09901-0.02927-0.18654-0.14021-0.24507-0.2208-0.14271-0.19603-0.32772-0.36282-0.52616-0.50032-0.37643-0.26338-0.85024-0.39618-1.4211-0.39618-0.28704 0-0.55696 0.04604-0.81273 0.13624-0.25576 0.0902-0.485 0.20768-0.68745 0.34999-0.20365 0.14352-0.36971 0.29345-0.49719 0.45099-0.02044 0.02565-0.04059 0.05036-0.06264 0.0736-0.03247 0.03367-0.08298 0.07939-0.13389 0.06655-0.05732-0.01318-0.0917-0.09905-0.10414-0.14955-0.02325-0.089-0.02563-0.18342-0.03445-0.27482-0.01197-0.11826-0.02358-0.23683-0.0368-0.35469-0.02485-0.23812-0.24027-0.42842-0.4784-0.42281l-3.2439 0.08065c0.0445 0.91762 0.07855 1.7971 0.10101 2.6402 0.02245 0.84225 0.03739 1.6956 0.04541 2.5603 0.0073 0.8655 0.0073 1.7802 0 2.7428-0.0076 0.96292-0.01096 2.7459-0.01096 2.7459-8.02e-4 0.23933 0.19482 0.4323 0.43455 0.42829l3.1483-0.05324c0.23852-0.0044 0.43795-0.20265 0.44316-0.44238l0.12606-6.1988c0-0.21126 0.05313-0.42512 0.15816-0.6436 0.10464-0.21848 0.35335-0.32728 0.74461-0.32728 0.1804 0 0.32364 0.06688 0.42907 0.20279 0.10423 0.1359 0.19142 0.31612 0.25916 0.54182 0.06775 0.2257 0.11222 0.48563 0.13546 0.77828 0.02285 0.29345 0.03367 0.59784 0.03367 0.91373v1.9183c0 0.49549-0.0037 0.92898-0.01096 1.2974-0.0076 0.36961-0.01962 0.71471-0.03445 1.0382-0.01485 0.32391-0.02819 0.68197-0.02819 0.68197-0.0092 0.23933 0.17838 0.4395 0.41811 0.44551h0.0063c0.11986 0.0024 0.23794 5e-3 0.3586 0.0078 0.25737 0.0048 0.51541 0.01082 0.77358 0.01644 0.31509 0.0064 0.63072 0.0131 0.94662 0.02036 0.29746 0.0064 0.59554 0.01235 0.89259 0.01957 0.1828 0.0039 0.39589 0.0448 0.57549 0.0031 0.15153-0.03488 0.11794-0.15532 0.11353-0.27639-0.0044-0.184-0.03806-0.36253-0.05168-0.54573-0.02165-0.33073-0.03739-0.66955-0.04541-1.0155-0.0073-0.34516-0.01386-0.67692-0.02192-0.99281-0.0076-0.3159-0.01174-0.57128-0.01174-0.76731 0-1.444 0.06022-2.5195 0.18008-3.2274 0.12066-0.70676 0.43625-1.0601 0.94818-1.0601 0.3159 0 0.56085 0.13204 0.73443 0.39462 0.17238 0.26298 0.25917 0.70314 0.25917 1.3201 0 0.58649-0.07062 1.3356-0.21454 2.2456-0.14312 0.9112-0.59193 2.8813-0.59193 2.8813-0.05332 0.23331 0.09739 0.44911 0.33511 0.47918 0.10222 0.01197 0.20239 0.02516 0.30301 0.03758 0.50912 0.06414 1.0173 0.12731 1.526 0.19104 0.32271 0.04009 0.64542 0.07428 0.96854 0.11197 0.19603 0.02245 0.39003 0.06641 0.58566 0.08926 0.12067 0.01288 0.2745 0.07416 0.37191-0.03367 0.093-0.10383 0.08718-0.29376 0.10884-0.42124 0.03288-0.19363 0.05287-0.3877 0.0689-0.58253 0.02365-0.29826 0.06244-0.59124 0.10414-0.88789 0.03607-0.24895 0.06852-0.49799 0.101-0.74774 0.11265-0.87232 0.16912-1.7227 0.16912-2.5501-8.01e-4 -0.88795-0.06511-1.7039-0.1934-2.4484-0.0059-0.0343-0.01322-0.06716-0.01957-0.101l3.6291-3.034-4.5593-8.1312zm16.999 0.84874-0.59428 1.8713-0.0329 0.10492h-2.1665l-1.5652 10.54 1.2911 0.0078h0.0376l0.0337 0.01879 0.69606 0.37974h2.071l1.1236-8.0959c0.0385-0.2746 0.13246-0.28144 0.21062-0.01566l2.6253 9.0441h0.74304v-5.6703h2.298l-2.2017-8.1844zm-77.851 2.4037c-0.6799 0-1.3212 0.09464-1.9245 0.28265-0.60453 0.18922-1.1375 0.46935-1.5973 0.83857-0.46102 0.37042-0.82672 0.82659-1.0985 1.371-0.27139 0.5436-0.40793 1.177-0.40793 1.9026 0 0.73963 0.15482 1.3926 0.4643 1.959 0.30988 0.56645 0.69465 1.0691 1.1557 1.5064 0.46061 0.43816 0.95833 0.81961 1.4939 1.1439 0.53598 0.32512 1.0345 0.62769 1.4955 0.9059 0.46021 0.27942 0.8454 0.54795 1.1549 0.80411 0.30908 0.25697 0.46509 0.52842 0.46509 0.81586 0 0.33233-0.08793 0.55815-0.26152 0.67962-0.17318 0.11987-0.42677 0.18165-0.7587 0.18165-0.33233 0-0.68977-0.06179-1.075-0.18165-0.38525-0.12147-0.76375-0.27549-1.133-0.4643-0.37002-0.18882-0.71327-0.40794-1.0312-0.6577-0.3167-0.24895-0.50189-0.45569-0.50189-0.45569-0.15915-0.1784-0.41266-0.17079-0.56139 0.01723l-1.609 2.0357c0.75486 1.0423 1.6045 1.8205 2.5478 2.3333 0.94448 0.51353 2.1104 0.76966 3.4999 0.76966 0.69393 0 1.385-0.09384 2.0725-0.28265 0.68671-0.18922 1.3031-0.47602 1.8463-0.86127 0.544-0.38525 0.98524-0.87588 1.3248-1.472 0.33955-0.59651 0.50971-1.3029 0.50971-2.1187 0-0.84546-0.15522-1.5739-0.4643-2.1861-0.30988-0.61094-0.6988-1.1352-1.1666-1.5738-0.46823-0.43776-0.97008-0.81212-1.5057-1.122-0.53638-0.30908-1.0386-0.58765-1.5064-0.837-0.46863-0.24935-0.85755-0.4913-1.1666-0.72581-0.30988-0.23412-0.4643-0.4869-0.4643-0.7587 0-0.21126 0.06313-0.38478 0.19261-0.52068 0.12788-0.1363 0.32836-0.20435 0.59976-0.20435 0.2269 0 0.49089 0.0419 0.79315 0.12528 0.30146 0.08298 0.62645 0.20711 0.97402 0.37348 0.34716 0.16637 0.70246 0.36604 1.0641 0.59976 0.3624 0.23452 0.6898 0.51833 0.6898 0.51833 0.1816 0.15794 0.43658 0.12218 0.56687-0.07986l1.3036-2.0122c-0.8611-0.87553-1.7705-1.5363-2.7294-1.9817-0.95931-0.44498-2.043-0.66788-3.2509-0.66788zm96.97 1.988-0.8597 3.1162-0.0133 4.8208v0.15111h-2.2283l-0.67962 7.9119c-0.0237 0.27661 0.18265 0.52626 0.45726 0.55513l1.6795 0.1746 0.19496-2.7709 9e-3 -0.12293 0.12136-0.01566 1.0014-0.1331 0.24977-0.50659 0.0407-0.08456h1.3843l1.1627-13.086zm-24.698 0.0047v0.77906l-0.0454 0.04463-0.39697 0.38914-9e-3 2.9722h1.2254l0.70703-4.185zm-43.159 1.923-3.7066 0.08065c0.0453 0.7248 0.08758 1.3504 0.12528 1.8784 0.03729 0.52836 0.068 1.0344 0.09004 1.5166 0.02285 0.48306 0.03818 0.98081 0.0462 1.4931 0.0064 0.51353 0.01096 1.1179 0.01096 1.8118 0 0.52836-0.17351 0.94603-0.52068 1.2551-0.34676 0.30988-0.76108 0.46431-1.2441 0.46431-0.51273 0-0.89832-0.15523-1.1549-0.46431-0.25696-0.30908-0.38444-0.68229-0.38444-1.1197 0-0.78332 0.03578-1.5174 0.11275-2.2855 0.07537-0.75406 0.15089-1.4481 0.22706-2.0827 0.0906-0.7244 0.24507-1.6513 0.24507-1.6513 0.03889-0.23692-0.12435-0.42914-0.36408-0.42594l-3.8648 0.03993c-0.10624 0.75446-0.19633 1.5091-0.27169 2.2636-0.07536 0.64903-0.13932 1.336-0.19183 2.06-0.05332 0.7244-0.07908 1.3732-0.07908 1.9465 0 0.81499 0.09837 1.5491 0.2944 2.2025 0.19563 0.65304 0.49782 1.2084 0.90512 1.6654 0.4069 0.4566 0.9312 0.80889 1.5722 1.0562 0.64141 0.24654 1.4077 0.37113 2.298 0.37113 0.25616 0 0.51939-0.03442 0.79159-0.10257 0.271-0.06776 0.53166-0.16199 0.78141-0.28265 0.24815-0.12106 0.47773-0.25976 0.6898-0.41811 0.0946-0.07095 0.26105-0.29707 0.39775-0.24977 0.17719 0.06253 0.07752 0.4612 0.07752 0.59349 0 0.23973 0.1956 0.43194 0.43533 0.42672l3.5477-0.07986c-0.03006-1.1096-0.06371-2.1481-0.10178-3.1178-0.03889-0.96933-0.07665-1.9222-0.11353-2.8578-0.03809-0.93606-0.07544-1.8892-0.11353-2.8626-0.03729-0.97294-0.08847-2.6981-0.08847-2.6981-0.0073-0.23972-0.20932-0.43193-0.44864-0.42672zm-16.807 0.04776c-0.90279 0-1.7071 0.13911-2.4147 0.41733-0.70716 0.27861-1.3006 0.67684-1.782 1.1964-0.48146 0.51914-0.84645 1.1437-1.0946 1.8729-0.24855 0.73041-0.3727 1.546-0.3727 2.4484 0 0.78292 0.11255 1.5274 0.33824 2.2346 0.2257 0.70756 0.57572 1.3279 1.05 1.8619 0.47304 0.53398 1.071 0.95957 1.7938 1.2755 0.72199 0.3155 1.5874 0.47292 2.5948 0.47292 0.57166 0 1.1285-0.08719 1.6701-0.25917 0.54159-0.17278 1.0378-0.43644 1.4892-0.79002 0.4514-0.35358 0.84589-0.8004 1.1846-1.3428 0.33834-0.54159 0.62951-1.5017 0.62951-1.5017 0.06975-0.2293-0.06197-0.46979-0.29127-0.53634l-2.6511-0.76105c-0.0453 0.24093-0.1425 0.45893-0.29283 0.65456-0.15072 0.19563-0.32014 0.36465-0.50815 0.50737-0.18842 0.14351-0.37985 0.25723-0.57548 0.33981-0.19563 0.08258-0.37625 0.12371-0.54182 0.12371-0.5865 0-1.064-0.22628-1.4321-0.67728-0.36921-0.4522-0.55356-1.0452-0.55356-1.7836 0-0.39046 0.05607-0.72889 0.16912-1.0155 0.11305-0.28423 0.25549-0.52094 0.42907-0.71016 0.17238-0.18761 0.36797-0.33085 0.58645-0.42907 0.21768-0.09702 0.43234-0.14642 0.6436-0.14642 0.63179 0 1.1011 0.15899 1.4101 0.47448 0.30787 0.3163 0.44786 0.63812 0.44786 0.63812 0.09502 0.21968 0.36257 0.35251 0.59428 0.29518l2.7381-0.6851c-0.28583-1.2479-0.86588-2.2566-1.7382-3.0238-0.87232-0.76729-2.0462-1.151-3.5202-1.151zm29.564 0.42829c-0.72239 0-1.3431 0.1578-1.8627 0.4737-0.13791 0.08418-0.27296 0.1743-0.40245 0.27091-0.11706 0.0874-0.23046 0.1797-0.3359 0.27952-0.07858 0.07417-0.14686 0.18782-0.26151 0.20827-0.02886 0.0049-0.05918 0.01258-0.09004 0.0094-0.10423-0.0095-0.13342-0.07998-0.18713-0.15816-0.15033-0.21848-0.34492-0.40203-0.56139-0.55356-0.37683-0.26258-0.85022-0.39462-1.4219-0.39462-0.28583 0-0.55618 0.04526-0.81194 0.13545-0.25656 0.08981-0.48538 0.20768-0.68823 0.34999-0.17198 0.12067-0.31992 0.26592-0.48388 0.3954-0.08058 0.06374-0.11204 0.15166-0.2255 0.14485-0.11585-0.0076-0.10043-0.15708-0.10805-0.23646-0.01046-0.09501-0.02015-0.18961-0.02897-0.28422-0.0073-0.06935-0.01551-0.13854-0.02271-0.20749-0.02445-0.23812-0.23945-0.42842-0.47918-0.42281l-3.2439 0.08065c0.0453 0.91762 0.07972 1.7971 0.10257 2.6402 0.02245 0.84225 0.03702 1.6956 0.04463 2.5603 0.0073 0.8655 0.0073 1.7791 0 2.742-0.0076 0.96252-0.01018 2.7467-0.01018 2.7467-4.05e-4 0.23933 0.19406 0.43228 0.43298 0.42907l3.1483-0.05403c0.23852-0.0039 0.43757-0.20385 0.44238-0.44238l0.12762-6.1996c0-0.21126 0.05235-0.42474 0.15738-0.64282 0.10464-0.21848 0.35335-0.32728 0.74461-0.32728 0.1808 0 0.32364 0.06648 0.42907 0.20279 0.10422 0.1355 0.19141 0.31612 0.25916 0.54182 0.06815 0.2253 0.11261 0.48523 0.13545 0.77828 0.02204 0.29304 0.03367 0.59705 0.03367 0.91294v1.9183c0 0.49629-0.0037 0.92898-0.01096 1.2974-0.0076 0.37001-0.01883 0.71551-0.03367 1.0382-0.01523 0.32392-0.02897 0.68275-0.02897 0.68275-0.0085 0.23892 0.1784 0.4391 0.41733 0.44551l3.6956 0.07908c-0.03047-0.2253-0.05586-0.50352-0.0783-0.83465-0.02246-0.33073-0.0382-0.66915-0.04541-1.0155-0.0073-0.34516-0.0151-0.67691-0.02271-0.99281-8e-3 -0.31589-0.01096-0.57168-0.01096-0.76731 0-1.4436 0.0598-2.5187 0.18087-3.2266 0.12026-0.70716 0.43509-1.0609 0.94662-1.0609 0.3159 0 0.56085 0.13162 0.73443 0.3954 0.17238 0.26298 0.25917 0.70275 0.25917 1.3193 0 0.58729-0.07142 1.3363-0.21454 2.2464-0.14271 0.9104-0.59193 2.8813-0.59193 2.8813-0.05293 0.23291 0.09738 0.44791 0.33511 0.47918l3.7207 0.4643c0.16476-0.93245 0.30427-1.8348 0.41732-2.7083 0.11265-0.87151 0.16991-1.7219 0.16991-2.5501 0-0.88715-0.06434-1.7039-0.19183-2.4491-0.12868-0.74324-0.36654-1.3827-0.7125-1.9167-0.34596-0.53358-0.81977-0.95129-1.4211-1.2528-0.60212-0.30066-1.3837-0.45099-2.3466-0.45099zm30.5 5.7909-0.9239 0.72817-0.0415 0.03289-0.0532-7.82e-4 -1.0688-0.0086-0.75557 0.58018v1.4728l-0.0979 0.03601-3.0434 1.1259 1.5166 2.5642c0.14151 0.23813 0.48066 0.39072 0.75165 0.33981l2.1469-0.40715c0.27179-0.05091 0.53213-0.31696 0.57783-0.59036zm1.0774 0.23098-0.29909 2.0075 4.1419 0.49406 0.29126-2.0945h-2.1062l-0.0344-0.01879-0.69607-0.37974zm-0.34294 2.3066-0.48153 3.2352c-0.0409 0.2746 0.1517 0.51776 0.42751 0.54182l3.1977 0.2803c0.27581 0.02365 0.53232-0.18071 0.57001-0.45491l0.43063-3.1076zm24.028 2.6668-0.24428 0.49484-0.036 0.07203-0.0791 0.01096-0.95992 0.12606-0.18714 2.6582 1.8525 0.19105v7.82e-4c0.275 0.02886 0.52088-0.17402 0.54573-0.44942l0.27639-3.1045z" fill="#fff" stroke-width=".40088"/>
 <style type="text/css">.st0{fill:#FC0C18;}
	.st1{fill:#FC0C18;}</style>
</svg>
