<svg width="480" height="320" version="1.1" viewBox="0 0 480 320" xml:space="preserve" xmlns="http://www.w3.org/2000/svg"><defs><linearGradient id="a" x1="240" x2="240" y1="320" gradientUnits="userSpaceOnUse"><stop stop-color="#990e00" offset="0"/><stop stop-color="#ffc400" offset="1"/></linearGradient></defs><rect id="b" width="480" height="320" ry="24" fill="url(#a)"/><path d="m59.85 109.4c-4.372 0-8.097 2.98-9.059 7.244l-0.5254 2.326c-0.5105 2.262 0.02827 4.598 1.477 6.41 0.2699 0.3366 0.5642 0.6484 0.8789 0.9297 0.2115 1.253 0.7375 2.447 1.559 3.473 0.06356 0.0802 0.1306 0.1573 0.1973 0.2344h-6.598l-0.3164 1.387-0.01172 0.0449c-0.4814 2.136 0.02582 4.334 1.389 6.039 0.2876 0.3595 0.6055 0.6838 0.9473 0.9766 0.1803 1.237 0.6838 2.418 1.49 3.426 1.363 1.705 3.397 2.682 5.58 2.682h13.55c4.362 0 8.086-2.971 9.055-7.223l0.1367-0.5996c0.1563 0.2542 0.3279 0.5007 0.5176 0.7383 0.2876 0.3595 0.6055 0.6857 0.9473 0.9785 0.1803 1.237 0.6838 2.418 1.49 3.426 1.363 1.705 3.397 2.682 5.58 2.682h3.445c0.8565 0 1.605-0.0623 2.256-0.1602l-0.03516 0.1602h8.689l0.3144-1.393 0.1836-0.8164h1.367l-6e-3 0.0312-0.4922 2.178-2e-3 0.0156-0.4922 2.18h8.687l0.3144-1.393 0.4922-2.178c0.7689 0.1865 1.739 0.3105 2.957 0.3105h4.928c4.21 0 7.819-2.763 8.939-6.777 0.1594 0.2615 0.3325 0.515 0.5274 0.7578 0.2876 0.3595 0.6075 0.6857 0.9492 0.9785 0.1802 1.237 0.6838 2.416 1.49 3.424 1.363 1.705 3.397 2.682 5.58 2.682h7.779c3.315 0 6.258-1.714 7.906-4.402h1.879l-0.5 2.225-0.4922 2.18h8.691l0.3125-1.393 0.4004-1.773 2.154-9.557 0.1133-0.502 0.4492-1.992c0.1386-0.6147 0.6763-1.047 1.307-1.047h6.813l0.3125-1.393 0.9824-4.355 0.4902-2.178h-2.232v-2e-3h-1.197l0.5-2.225 0.4902-2.178h-5.66c-0.8565 0-1.606 0.0603-2.256 0.1582l0.0352-0.1582h-8.689l-0.3144 1.393-1.451 6.434c-0.1563-0.2553-0.328-0.5046-0.5176-0.7422-0.2876-0.3595-0.6075-0.6838-0.9492-0.9766-0.1803-1.237-0.6838-2.419-1.49-3.428-1.363-1.705-3.395-2.682-5.578-2.682h-7.781c-4.372 0-8.098 2.979-9.059 7.244l-0.1309 0.584c-0.1563-0.2553-0.3289-0.5046-0.5195-0.7422-0.2876-0.3595-0.6055-0.6838-0.9473-0.9766-0.1802-1.237-0.6838-2.42-1.49-3.428-1.363-1.705-3.396-2.682-5.578-2.682h-4.226c-0.8565 0-1.605 0.0622-2.256 0.1602l0.0352-0.1602h-8.689l-0.3144 1.395-0.25 1.107-0.4297 1.902h-1.367l0.502-2.225 0.4902-2.18h-8.689l-0.3145 1.395-3.115 13.82c-0.1386 0.6158-0.6763 1.045-1.307 1.045h-1.408l2.182-9.68 0.4902-2.178h-3.429l0.502-2.225 0.4902-2.18h-8.689l-0.2812 1.248c-0.1552-0.2542-0.327-0.4998-0.5156-0.7363-0.2886-0.3616-0.6093-0.6886-0.9531-0.9824-0.1792-1.235-0.681-2.413-1.484-3.42-1.363-1.709-3.399-2.689-5.584-2.689h-13.55zm0 1.783h13.55c0.09586 0 0.1903 3e-3 0.2852 8e-3 0.02084 1e-3 0.03972 3e-3 0.06055 4e-3 0.09169 6e-3 0.1838 0.013 0.2734 0.0234 0.01563 2e-3 0.03034 4e-3 0.04492 6e-3 0.08231 0.0104 0.1629 0.0216 0.2441 0.0352 0.01667 3e-3 0.03216 5e-3 0.04883 8e-3 0.08752 0.0156 0.1733 0.0338 0.2598 0.0547 0.0198 4e-3 0.04075 0.01 0.06055 0.0156 0.08231 0.0198 0.1648 0.0405 0.2461 0.0644 0.0063 2e-3 0.01133 4e-3 0.01758 6e-3 0.0844 0.025 0.1677 0.0528 0.25 0.082 0.02084 7e-3 0.04166 0.0142 0.0625 0.0215 0.08023 0.0292 0.1582 0.0603 0.2363 0.0937 0.01563 6e-3 0.03126 0.0132 0.04688 0.0195 0.06773 0.0292 0.1345 0.0614 0.2012 0.0937 0.01876 9e-3 0.03789 0.0179 0.05664 0.0273 0.07398 0.0365 0.1449 0.0746 0.2168 0.1152 0.02084 0.0115 0.04271 0.0237 0.0625 0.0352 0.06252 0.0365 0.1232 0.0727 0.1836 0.1113 0.01354 8e-3 0.02656 0.0171 0.03906 0.0254 0.06773 0.0438 0.1355 0.0898 0.2012 0.1367 0.02188 0.0156 0.04257 0.0303 0.06445 0.0469 0.06356 0.0469 0.126 0.0956 0.1875 0.1445 0.01771 0.0146 0.03501 0.0284 0.05273 0.043 0.04897 0.0406 0.09764 0.0814 0.1445 0.123 0.02084 0.0187 0.04166 0.0379 0.0625 0.0566 0.05626 0.0511 0.1109 0.1031 0.1641 0.1562 0.02084 0.0208 0.04166 0.0436 0.0625 0.0645 0.04168 0.0427 0.08241 0.0851 0.123 0.1289 0.01875 0.0208 0.03788 0.0427 0.05664 0.0645 0.04793 0.0542 0.09386 0.1088 0.1387 0.1641 0.02084 0.025 0.04167 0.0521 0.0625 0.0781 0.04168 0.0542 0.08345 0.1069 0.123 0.1621 0.0198 0.0271 0.03983 0.0559 0.05859 0.084 0.03126 0.0459 0.06159 0.0918 0.0918 0.1387 0.01771 0.0281 0.03698 0.0559 0.05469 0.084 0.03855 0.0615 0.0759 0.1239 0.1113 0.1875 0.01667 0.0292 0.03124 0.0568 0.04688 0.0859 0.02605 0.0479 0.05221 0.0955 0.07617 0.1445 0.5428 1.07 0.7351 2.328 0.4434 3.609l-0.0078 0.0312h-4.973l0.0098-0.0449c0.2511-1.117-0.5971-2.18-1.742-2.18h-11.51c-1.461 0-2.727 1.014-3.049 2.439l-0.2988 1.328c-0.322 1.425 0.7608 2.779 2.223 2.779h12.68c0.09586 0 0.1923 4e-3 0.2871 0.01 0.02813 2e-3 0.05494 4e-3 0.08203 6e-3 0.06668 5e-3 0.1355 0.0122 0.2012 0.0195 0.02917 4e-3 0.05768 7e-3 0.08789 0.0117 0.06356 9e-3 0.1289 0.0198 0.1914 0.0312 0.02813 5e-3 0.05494 0.0104 0.08203 0.0156 0.0646 0.0136 0.1278 0.0292 0.1914 0.0449 0.02397 6e-3 0.0483 0.0114 0.07226 0.0176 0.06773 0.0177 0.1345 0.0377 0.2012 0.0586 0.0198 6e-3 0.03879 0.0133 0.05859 0.0195 0.07085 0.024 0.1402 0.0491 0.209 0.0762 0.01459 5e-3 0.02838 0.0104 0.04297 0.0156 0.07502 0.0302 0.1478 0.0633 0.2207 0.0977 0.0073 3e-3 0.01615 6e-3 0.02344 0.01 0.08023 0.0386 0.1612 0.0783 0.2383 0.1211 1.712 0.9398 2.728 2.939 2.256 5.012l-1.115 4.891c-0.7773 3.413-3.812 5.834-7.312 5.834h-13.55c-1.94 0-3.596-1.018-4.535-2.506-0.0052-8e-3 -0.01044-0.015-0.01562-0.0234-0.06668-0.1063-0.1272-0.2147-0.1855-0.3262-0.01875-0.0365-0.03788-0.0729-0.05664-0.1094-0.02188-0.0438-0.04361-0.0871-0.06445-0.1309-0.01771-0.0386-0.03606-0.0776-0.05274-0.1172-0.0198-0.0438-0.03789-0.0881-0.05664-0.1328-0.01667-0.0406-0.03124-0.0814-0.04688-0.123-0.01667-0.0438-0.03515-0.09-0.05078-0.1348-0.01459-0.0427-0.02746-0.0852-0.04102-0.1289-0.01459-0.0438-0.02852-0.088-0.04102-0.1328-0.01355-0.0469-0.02656-0.0937-0.03906-0.1406-0.01146-0.0427-0.02187-0.0842-0.03125-0.127-0.01355-0.0563-0.02565-0.1146-0.03711-0.1719-0.0073-0.0333-0.01523-0.0662-0.02148-0.0996-0.01667-0.0886-0.02956-0.1799-0.04102-0.2695-0.0042-0.0354-0.0076-0.072-0.01172-0.1074-0.0063-0.0583-0.01341-0.1164-0.01758-0.1758-0.0031-0.0396-0.0038-0.0787-0.0059-0.1172-0.0031-0.0563-0.0048-0.1136-0.0059-0.1699-1e-3 -0.0406-2e-3 -0.0805-2e-3 -0.1211 0-0.0563 0.0018-0.1136 0.0039-0.1699 1e-3 -0.0406 0.0038-0.0804 0.0059-0.1211 0.0031-0.0594 0.0084-0.1184 0.01367-0.1777 0.0031-0.0385 0.0066-0.0767 0.01172-0.1152 0.0073-0.0656 0.01497-0.1316 0.02539-0.1973 0.0052-0.0323 0.0093-0.0634 0.01562-0.0957 0.01667-0.0979 0.03476-0.1959 0.05664-0.2949l0.01172-0.0449h5.027l-0.0098 0.0469c-0.2521 1.117 0.5971 2.178 1.742 2.178h11.51c0.05939 0 0.1194-3e-3 0.1777-6e-3 0.01563-1e-3 0.0293-9.6e-4 0.04492-2e-3 0.05314-4e-3 0.107-8e-3 0.1602-0.0156 0.0052-1e-3 0.01042-9.6e-4 0.01562-2e-3 0.05835-7e-3 0.1156-0.0169 0.1719-0.0273 0.01354-2e-3 0.02748-5e-3 0.04102-8e-3 0.05106-0.0104 0.1023-0.0207 0.1523-0.0332 0.0073-2e-3 0.01328-4e-3 0.01953-6e-3 0.05626-0.0146 0.1127-0.0311 0.168-0.0488 0.01042-3e-3 0.02083-6e-3 0.03125-0.01 0.05001-0.0167 0.09946-0.034 0.1484-0.0527 0.0063-2e-3 0.01328-6e-3 0.01953-8e-3 0.05522-0.0219 0.1099-0.0452 0.1641-0.0703 0.0063-3e-3 0.01133-6e-3 0.01758-8e-3 0.05001-0.024 0.1005-0.0502 0.1484-0.0762 0.0052-3e-3 0.0095-5e-3 0.01367-8e-3 0.05418-0.0292 0.1061-0.0595 0.1582-0.0918l2e-3 -2e-3c0.05106-0.0323 0.1014-0.0641 0.1504-0.0996 0.0031-2e-3 0.0067-6e-3 0.0098-8e-3 0.1011-0.0719 0.1974-0.1491 0.2891-0.2324 1e-3 -1e-3 0.0028-2e-3 0.0039-4e-3 0.09273-0.0844 0.1794-0.1756 0.2617-0.2715h2e-3c0.08231-0.0959 0.1596-0.1995 0.2305-0.3047 0.2063-0.3105 0.3588-0.6616 0.4453-1.043l0.5352-2.365c0.3209-1.425-0.7628-2.779-2.225-2.779h-11.16c-2.169 0-4.011-1.175-5.008-2.873-0.04272-0.0729-0.08345-0.1467-0.123-0.2207-0.0031-6e-3 -0.0066-0.0132-0.0098-0.0195-0.03855-0.074-0.0759-0.1486-0.1113-0.2246-9.99e-4 -3e-3 -0.0029-5e-3 -0.0039-8e-3 -0.1417-0.3022-0.2571-0.6172-0.3457-0.9434-0.0063-0.024-0.01523-0.0473-0.02148-0.0723-0.01563-0.0625-0.02943-0.1259-0.04297-0.1895-0.0073-0.0333-0.01615-0.0672-0.02344-0.1016-0.0125-0.0594-0.02382-0.1183-0.0332-0.1777-0.0063-0.0396-0.01133-0.0805-0.01758-0.1211-0.0083-0.0563-0.01809-0.1126-0.02539-0.1699-0.0063-0.0521-0.01042-0.1051-0.01562-0.1582-0.0063-0.075-0.0125-0.1496-0.01562-0.2246-0.0031-0.0656-0.0049-0.1306-0.0059-0.1973-1e-3 -0.0427 0-0.0852 0-0.127 0-0.0615-1.47e-4 -0.1241 2e-3 -0.1856 0.0021-0.0427 0.0038-0.0842 0.0059-0.127 0.0042-0.0636 0.0093-0.1279 0.01562-0.1914 0.0042-0.0406 0.0065-0.0805 0.01172-0.1211 0.0083-0.0698 0.01888-0.1392 0.0293-0.209 0.0052-0.0344 0.0094-0.0692 0.01562-0.1035 0.01771-0.1042 0.03658-0.2092 0.06055-0.3144l0.5254-2.326c0.771-3.421 3.81-5.852 7.316-5.852zm38.39 6.58h5.027l-0.5879 2.621-2.16 9.584-0.916 4.061-0.9805 4.355h-5.029l0.2441-1.088s-1.277 1.088-4.697 1.088h-3.447c-2.053 0-3.787-1.138-4.689-2.77-0.0094-0.0167-0.019-0.0341-0.02734-0.0508-0.04064-0.074-0.07877-0.1505-0.1152-0.2266-0.01042-0.0219-0.02083-0.0455-0.03125-0.0684-0.03334-0.0719-0.06548-0.1448-0.0957-0.2188-0.01042-0.024-0.01993-0.0484-0.0293-0.0723-0.02917-0.074-0.05598-0.1476-0.08203-0.2226-0.0083-0.024-0.01615-0.0473-0.02344-0.0723-0.02501-0.0771-0.05038-0.1562-0.07226-0.2344-0.0063-0.0219-0.01133-0.0455-0.01758-0.0684-0.02188-0.0823-0.04284-0.1666-0.06055-0.25-0.0042-0.0188-0.0075-0.0359-0.01172-0.0547-0.01771-0.0906-0.03332-0.1827-0.04688-0.2754l-0.0059-0.0371c-0.01459-0.1052-0.02683-0.2121-0.03516-0.3184-0.04064-0.5199-0.0047-1.056 0.1172-1.598l1.78-7.892 1.395-6.189h5.029l-3.176 14.08c-0.2521 1.117 0.5971 2.178 1.742 2.178h4.838c1.461 0 2.728-1.012 3.049-2.438l3.117-13.82zm10.06 4e-3h5.029l-0.2461 1.088s1.279-1.088 4.699-1.088h4.224c0.0959 0 0.1923 3e-3 0.2871 8e-3 0.0208 1e-3 0.0396 9.5e-4 0.0605 2e-3 0.0917 6e-3 0.1828 0.0149 0.2734 0.0254 0.0146 2e-3 0.0303 3e-3 0.0449 4e-3 0.0813 0.0104 0.162 0.0217 0.2422 0.0352 0.0167 3e-3 0.0341 5e-3 0.0508 8e-3 0.0875 0.0156 0.1733 0.0349 0.2598 0.0547 0.0198 4e-3 0.0388 8e-3 0.0586 0.0137 0.0813 0.0198 0.1639 0.0404 0.2441 0.0644 7e-3 2e-3 0.0142 4e-3 0.0215 6e-3 0.0834 0.025 0.1668 0.0538 0.248 0.082 0.0208 7e-3 0.0417 0.0151 0.0625 0.0234 0.0792 0.0292 0.1601 0.0595 0.2383 0.0918 0.0156 6e-3 0.0313 0.0142 0.0469 0.0215 0.0667 0.0292 0.1316 0.0585 0.1973 0.0898 0.0198 9e-3 0.0388 0.0189 0.0586 0.0293 0.0729 0.0365 0.1459 0.0756 0.2168 0.1152 0.0219 0.0125 0.0416 0.0227 0.0625 0.0352 0.0604 0.0344 0.1194 0.0699 0.1777 0.1074 0.0156 0.0104 0.0312 0.0199 0.0469 0.0293 0.0667 0.0427 0.1327 0.0889 0.1973 0.1348 0.0229 0.0167 0.0463 0.0321 0.0703 0.0488 0.0625 0.0459 0.1251 0.0936 0.1856 0.1426 0.0188 0.0146 0.036 0.0293 0.0547 0.0449 0.0469 0.0385 0.0928 0.0785 0.1387 0.1191 0.0229 0.0198 0.0446 0.0397 0.0664 0.0606 0.0552 0.05 0.109 0.1012 0.1621 0.1543 0.0229 0.0229 0.0445 0.0466 0.0664 0.0684 0.0386 0.0396 0.0758 0.0785 0.1133 0.1191 0.0219 0.024 0.0436 0.0464 0.0645 0.0703 0.0459 0.0521 0.093 0.106 0.1367 0.1602 0.0219 0.0271 0.0445 0.0558 0.0664 0.084 0.0354 0.0459 0.0711 0.0917 0.1055 0.1387 0.026 0.0365 0.0512 0.0738 0.0762 0.1113 0.0292 0.0427 0.0598 0.0842 0.0879 0.127 0.0198 0.0302 0.0388 0.0616 0.0586 0.0918 0.0375 0.0594 0.0731 0.1202 0.1074 0.1816 0.0177 0.0313 0.036 0.0626 0.0527 0.0937 0.0229 0.0427 0.0465 0.0871 0.0684 0.1309 0.0156 0.0313 0.0313 0.0615 0.0469 0.0937 0.5064 1.046 0.6826 2.269 0.4024 3.514v2e-3l-1.615 7.164c-0.771 3.421-3.81 5.85-7.316 5.85h-4.928c-3.43 0-4.209-1.088-4.209-1.088l-0.3398 1.506-0.1445 0.6465-0.4961 2.195h-5.027l0.4941-2.195 0.7598-3.365 2.906-12.89 0.3926-1.738 0.3398-1.51 0.25-1.107zm50.95 2e-3h5.029l-0.2441 1.088s1.278-1.088 4.697-1.088h3.43l-0.5938 2.615-0.3906 1.74h-5.385c-1.461 0-2.727 1.012-3.049 2.438l-0.4492 1.992-0.1133 0.502-2.154 9.557-0.3984 1.773h-5.028l2.496-11.08 1.17-5.184 0.9824-4.355zm-19.51 2e-3h7.781c0.0959 0 0.1903 3e-3 0.2852 8e-3 0.0208 1e-3 0.0396 3e-3 0.0605 4e-3 0.0917 6e-3 0.1828 0.0129 0.2734 0.0234 0.0156 2e-3 0.0303 4e-3 0.0449 6e-3 0.0813 0.0104 0.162 0.0216 0.2422 0.0351 0.0167 3e-3 0.0341 7e-3 0.0508 0.01 0.0875 0.0156 0.1743 0.033 0.2598 0.0527 0.0198 4e-3 0.0397 8e-3 0.0605 0.0137 0.0813 0.0198 0.163 0.0405 0.2422 0.0645 7e-3 2e-3 0.0142 4e-3 0.0215 6e-3 0.0834 0.025 0.1657 0.0528 0.248 0.082 0.0219 7e-3 0.0416 0.0161 0.0625 0.0234 0.0792 0.0292 0.1592 0.0585 0.2363 0.0918 0.0156 7e-3 0.0303 0.0153 0.0469 0.0215 0.0667 0.0292 0.1327 0.0586 0.1973 0.0898 0.0198 9e-3 0.0408 0.0199 0.0606 0.0293 0.0729 0.0365 0.144 0.0737 0.2148 0.1133 0.0219 0.0125 0.0446 0.0246 0.0664 0.0371 0.0594 0.0344 0.1165 0.0709 0.1738 0.1074 0.0167 0.0104 0.0321 0.0189 0.0488 0.0293 0.0667 0.0427 0.1318 0.0889 0.1953 0.1348 0.024 0.0167 0.0463 0.0341 0.0703 0.0508 0.0625 0.0458 0.1242 0.0927 0.1836 0.1406 0.0198 0.0156 0.0399 0.0313 0.0586 0.0469 0.0459 0.0375 0.091 0.0776 0.1348 0.1172 0.0229 0.0208 0.0474 0.0416 0.0703 0.0625 0.0542 0.05 0.107 0.0993 0.1602 0.1504 0.0229 0.0229 0.0455 0.0474 0.0684 0.0703 0.0375 0.0386 0.0749 0.0775 0.1113 0.1172 0.024 0.026 0.0455 0.052 0.0684 0.0781 0.0448 0.0511 0.0901 0.1022 0.1328 0.1543 0.0229 0.0281 0.0435 0.0578 0.0664 0.0859 0.0354 0.0448 0.0692 0.0889 0.1035 0.1348 0.0271 0.0375 0.0549 0.0758 0.082 0.1133 0.0281 0.0417 0.0559 0.0823 0.084 0.125 0.0208 0.0313 0.0407 0.0624 0.0605 0.0937 0.0365 0.0594 0.073 0.1193 0.1074 0.1797 0.0187 0.0323 0.035 0.0653 0.0527 0.0976 0.0229 0.0417 0.0445 0.0822 0.0664 0.125 0.5439 1.063 0.7408 2.321 0.4512 3.605v2e-3l-0.2246 0.998c-0.6793 3.014-3.358 5.154-6.447 5.154h-10.15l-0.3164 1.393c-0.2532 1.117 0.5961 2.182 1.742 2.182h5.898c1.334 0 2.49-0.9243 2.783-2.225h5.027l-0.1641 0.7285c-0.771 3.421-3.81 5.852-7.316 5.852h-7.779c-2.054 0-3.79-1.142-4.693-2.773-0.0104-0.0188-0.0189-0.0379-0.0293-0.0566-0.0385-0.0719-0.0769-0.1448-0.1133-0.2188-0.0125-0.026-0.0227-0.052-0.0352-0.0781-0.0313-0.0677-0.0617-0.1372-0.0898-0.207-0.0125-0.0302-0.0238-0.0615-0.0352-0.0918-0.026-0.0677-0.0523-0.1354-0.0762-0.2031-0.0115-0.0323-0.0208-0.0634-0.0312-0.0957-0.0219-0.0688-0.0437-0.1372-0.0625-0.207-9e-3 -0.0323-0.0171-0.0654-0.0254-0.0977-0.0188-0.0729-0.0351-0.1458-0.0508-0.2188-6e-3 -0.0302-0.0142-0.0596-0.0195-0.0898-0.0156-0.0813-0.0296-0.1629-0.041-0.2441-3e-3 -0.0229-6e-3 -0.0474-0.01-0.0703-0.0802-0.6074-0.0579-1.242 0.0859-1.883l1.025-4.541 0.8301-3.688c0.771-3.421 3.81-5.852 7.316-5.852zm-24.89 4.352c-1.461 0-2.727 1.012-3.049 2.438l-0.2402 1.07-1.162 5.152c-0.2521 1.117 0.5971 2.18 1.742 2.18h5.619c1.461 0 2.727-1.012 3.049-2.438l0.498-2.213 0.9043-4.01c0.2522-1.117-0.5971-2.18-1.742-2.18h-5.62zm25.45 2e-3c-1.46 0-2.727 1.009-3.049 2.434l-0.3477 1.543h8.539c1.092 0 2.039-0.7564 2.279-1.822 0.249-1.104-0.592-2.154-1.725-2.154h-5.697zm-23.01 6.188h2.186l-0.4102 1.82c-0.1386 0.6147-0.6763 1.045-1.307 1.045h-2.188l0.1699-0.752 0.2422-1.07c0.1386-0.6147 0.6763-1.043 1.307-1.043zm77.54 22.03-8.23 36.5s-0.1854 0.8322-0.25 1.109c-1.497 6.388 0.1687 12.63 8.469 12.63h1.188l4.512-8.025h-3.93c-1.662 0-1.536-1.679-1.137-3.422 0.993-4.348 4.174-18.52 4.174-18.52h6.736l1.811-8.023h-6.736l2.764-12.26h-9.369zm20.48 0-8.229 36.5s-0.1854 0.8322-0.25 1.109c-1.497 6.388 0.1667 12.63 8.467 12.63h1.188l4.512-8.025h-3.928c-1.662 0-1.538-1.679-1.139-3.422 0.993-4.348 4.174-18.52 4.174-18.52h6.738l1.811-8.023h-6.736l2.762-12.26h-9.369zm110.8 0v2e-3h-7.234c-2.989 0-5.772 1.533-7.367 4.061l-20.53 32.53v-36.59h-10.18v50.24h13.6l26.65-42.22h9.172c1.057-4.692 1.809-8.023 1.809-8.023h-5.916zm30.63 2e-3 -1.811 8.023h9.367c1.057-4.692 1.807-8.023 1.807-8.023zm-280.9 0.2363c-15.11-0.1313-33.49 4.147-35.7 25.17-0.6835 6.506 1.042 12.33 4.992 16.85 3.907 4.469 9.837 7.305 16.48 7.938l1.922-8.527c-8.044-0.3438-15.87-5.218-14.8-15.36 0.8158-7.769 4.584-17.08 25.16-17.42l1.938-8.648zm10.36 10.26c-11.21 0-20.63 8.147-21.61 19.36s7.313 20.3 18.53 20.3c1.753 0 5.195-0.6172 5.195-0.6172l0.05664-0.01 2.297-10.19c-2.274 1.389-4.931 2.172-7.549 2.172-2.957 0-5.596-1.106-7.438-3.115-1.86-2.03-2.74-4.796-2.479-7.791 0.572-6.539 6.158-11.47 12.99-11.47 6.345 0 10.31 4.128 10.36 10.77 0.0021 0.2667-0.0075 0.5288-0.02734 0.7852l-4.391 19.46h8.932l3.881-17.2c0.1699-1.007 0.255-2.043 0.248-3.102-0.0729-11.25-7.786-19.36-19-19.36zm42.62 0.082c-0.1375 0-0.2803 4e-3 -0.4355 0.01-1.343 0.0583-13.18 1.084-15.23 18.83-0.8179 7.083-2.43 9.758-6.326 10.35l-2.246 9.963c0.4064 0.2834 0.8643 0.5078 1.984 0.5078 0.1407 0 0.2945-5e-3 0.457-0.0117 1.993-0.0865 12.05-1.244 14.42-15.56 1.573-9.572 2.442-12.88 6.295-13.41l2.379-10.56c-0.5251-0.0885-0.8841-0.1191-1.299-0.1191zm16.4 0c-0.1375 0-0.2822 4e-3 -0.4375 0.01-1.343 0.0583-13.18 1.084-15.23 18.83-0.8179 7.083-2.43 9.758-6.326 10.35l-2.246 9.963c0.4064 0.2834 0.8643 0.5078 1.984 0.5078 0.1407 0 0.2915-5e-3 0.4551-0.0117 1.993-0.0865 12.06-1.244 14.42-15.56 1.573-9.572 2.44-12.88 6.293-13.41l2.381-10.56c-0.5251-0.0885-0.8841-0.1191-1.299-0.1191zm21.95 0c-11.21 0-20.62 8.149-21.6 19.36-0.9815 11.21 7.313 20.3 18.53 20.3 1.815 0 3.622-0.2297 5.377-0.6621 0.1928-0.0479 0.3845-0.0953 0.5762-0.1484l2.373-10.51c-2.431 1.705-5.403 2.682-8.324 2.682-2.383 1e-3 -4.56-0.7193-6.279-2.049l27.97-13.69c-1.686-9.08-8.816-15.28-18.62-15.28zm81.51 0c-11.21 0-20.62 8.149-21.6 19.36-0.9815 11.21 7.313 20.3 18.53 20.3 1.815 0 3.624-0.2297 5.379-0.6621 0.1928-0.0479 0.3844-0.0953 0.5762-0.1484l2.371-10.51c-2.431 1.705-5.403 2.682-8.324 2.682-2.384 1e-3 -4.56-0.7193-6.279-2.049l27.97-13.69c-1.686-9.08-8.816-15.28-18.62-15.28zm99.92 0c-0.1375 0-0.2803 4e-3 -0.4356 0.01-1.343 0.0583-13.18 1.084-15.23 18.83-0.8179 7.083-2.43 9.758-6.326 10.35l-2.246 9.963c0.4064 0.2834 0.8643 0.5078 1.984 0.5078 0.1407 0 0.2915-5e-3 0.4551-0.0117 1.993-0.0865 12.06-1.244 14.42-15.56 1.573-9.572 2.44-12.88 6.293-13.41l2.381-10.56c-0.5251-0.0885-0.8841-0.1191-1.299-0.1191zm35.52 0c-11.21 0-20.62 8.149-21.6 19.36-0.9805 11.21 7.313 20.3 18.53 20.3 11.21 0 22.15-8.724 22.08-20.3-0.0729-11.25-7.788-19.36-19-19.36zm-64.18 1.674-8.566 37.99h9.375c1.64-7.271 5.765-25.59 8.559-37.99h-9.367zm34.08 0-8.564 37.99h9.373c1.64-7.271 5.765-25.59 8.559-37.99h-9.367zm57.25 0-8.564 37.99h9.373c1.294-5.735 4.237-18.81 6.75-29.96h9.361c1.292 0 2.251 1.198 1.967 2.459l-6.201 27.51h9.373c1.265-5.607 4.015-17.81 6.48-28.75 1.067-4.736-2.535-9.236-7.389-9.236h-11.78v-2e-3h-9.367zm-244.1 6.969c3.467 0 6.224 1.234 8.02 3.436l-20.99 10.28c-0.0792-0.7262-0.0862-1.476-0.0195-2.24 0.572-6.539 6.159-11.47 12.99-11.47zm81.51 0c3.467 0 6.224 1.234 8.02 3.436l-20.99 10.28c-0.0792-0.7262-0.0862-1.476-0.0195-2.24 0.572-6.539 6.159-11.47 12.99-11.47zm135.4 0c6.345 0 10.31 4.128 10.36 10.77 0.0229 3.362-1.73 5.838-3.205 7.322-2.664 2.681-6.488 4.281-10.23 4.281-2.956 0-5.598-1.108-7.439-3.117-1.86-2.03-2.738-4.795-2.477-7.789 0.572-6.539 6.159-11.47 12.99-11.47z" fill="#fff"/></svg>
