<svg width="480" height="320" version="1.1" viewBox="0 0 127 84.667" xmlns="http://www.w3.org/2000/svg" xmlns:xlink="http://www.w3.org/1999/xlink">
 <defs>
  <linearGradient id="a" x1="54.164" x2="55.659" y1="5.4293" y2="45.254" gradientUnits="userSpaceOnUse">
   <stop stop-color="#f9c440" offset="0"/>
   <stop stop-color="#ad5f00" offset="1"/>
  </linearGradient>
 </defs>
 <rect width="127" height="84.667" ry="4.2333" fill="url(#a)" stroke-linecap="square" stroke-linejoin="round" stroke-width=".52917" style="paint-order:stroke fill markers"/>
 <path d="m10.583 34.343v15.98h105.83v-15.98zm0.62572 0.60292h104.58v14.774h-104.58zm0.9412 0.94083v12.892h102.7v-12.892zm29.592 0.54349h0.26016v2.5388h-0.26016c0-0.2752-0.18579-0.39771-0.6317-0.39771h-8.9377v2.7223h5.8345c0.44591 0 0.6317-0.12251 0.6317-0.39771h0.26016v2.5687h-0.26016c0-0.12229-0.03719-0.21368-0.14877-0.27511-0.09282-0.06104-0.25998-0.09195-0.48294-0.09195h-5.8345v2.9978h9.1048c0.44592 0 0.6317-0.12267 0.6317-0.36706h0.26016v2.5078h-0.26016c0-0.21396-0.18579-0.33641-0.6317-0.33641h-12.227v-0.21418c0.40879 0 0.48331-0.12257 0.48331-0.45901v-9.7869c-1e-6 -0.33645-0.07471-0.45864-0.48331-0.45864v-0.21418h12.06c0.44592 0 0.6317-0.12245 0.6317-0.33641zm9.8651 0.18316c1.5238 0 2.9733 0.29052 4.0324 0.56592 0.98484 0.35176 1.7093 0.62722 1.8394 0.62722 0.16727 0 0.33467-0.07653 0.40892-0.1682l0.25978 0.09158-1.802 2.5081-0.26016-0.13793c0.01856-0.06104 0.037-0.1528 0.037-0.25978 4e-6 -0.47424-2.0067-1.4223-4.478-1.4223-3.1216 0-5.6487 1.2696-5.6487 3.8541 0 2.7067 2.527 3.9753 5.3886 3.9753 2.3413 0 3.7164-0.65747 4.2739-0.99353v-1.269h-3.1959c-0.37166 0-0.5947 0.15292-0.5947 0.36669h-0.26016v-2.6913h0.26016c0 0.21396 0.22304 0.36706 0.5947 0.36706h6.1873v0.21418c-0.18583 0.03062-0.35323 0.15284-0.35323 0.48929v3.0124c0 0.24478 0.09302 0.33646 0.33454 0.38239v0.21418c-1.1707 0.55041-4.032 1.7131-7.2467 1.7131-4.2737 0-8.0271-1.744-8.0271-5.7197 0-3.9761 4.385-5.7197 8.2499-5.7197zm-30.675 3.83e-4c3.2332 0 5.5001 1.1621 5.7231 1.1621 0.24152 0 0.27866-0.06097 0.33454-0.1069l0.29716 0.07625-1.4305 2.2939-0.29716-0.13756c0.01856-0.06124 0.037-0.13763 0.037-0.21418 0-0.19884-1.7468-1.2694-4.7755-1.2694-2.8986 0-4.1435 0.73396-4.1435 1.6821 0 2.5078 10.944-1.1618 10.944 4.3741 0 2.0187-2.3785 3.5787-7.1353 3.5787-4.5336 0-5.8344-1.1931-6.2617-1.1931-0.11158 0-0.16734 0.07609-0.26016 0.1226l-0.24147-0.04597 1.5423-2.6001 0.29716 0.1226c0 0.06143-0.03738 0.12273-0.03738 0.24483 0 0.90255 2.3971 1.5441 4.7755 1.5441 3.3819 0 4.5341-0.79476 4.5341-1.6365 0-2.997-10.796 0.71892-10.796-4.3576 0-2.5693 3.2886-3.64 6.8934-3.64zm44.238 0.15288h4.0508v0.21418c-0.27884 0.03062-0.39061 0.12233-0.39061 0.22951 0 0.12229 0.07464 0.24461 0.16746 0.39771l5.3886 9.4965c0.2597 0.47424 0.33456 0.58124 0.7244 0.58124v0.21418h-3.6975v-0.21419c0.2419 0 0.33454-0.07652 0.33454-0.15288 0-0.16822-0.16706-0.38234-1.4122-2.5694h-6.3735c-1.0777 1.9879-1.3565 2.294-1.3565 2.4928 0 0.1376 0.11158 0.2142 0.27885 0.22913v0.21418h-3.3069v3.82e-4h-3.84e-4v-3.82e-4h3.84e-4v-0.21381c0.33453-0.01531 0.446-0.0917 0.70609-0.58124l5.0727-9.3896c0.09263-0.15291 0.20409-0.32123 0.20409-0.45864 0-0.16822-0.14814-0.24468-0.39024-0.27511zm13.163 0h35.76v11.133h-35.76zm26.91 0.93261c-2.5192-0.03611-5.5309 0.15708-8.759 0.60068 0.19923-0.0088 1.2133-0.06065 1.5187-0.08037 4.5801-0.29454 8.2898 0.63586 8.4207 2.3803 0.0808 1.0738-1.1165 2.082-3.0464 2.8857-2.2204 0.92437-5.1374 1.3976-5.1374 1.3976l-1.2249-4.0425v4.968s2.3757-0.36684 4.2765-0.79879c6.6945-1.4658 11.42-3.6281 11.167-5.3142-0.186-1.2388-3.0169-1.9362-7.2156-1.9964zm-10.529 0.86606c-8.5777 1.3923-15.162 4.0344-14.864 6.0165 0.29683 1.9825 7.3665 2.5786 15.977 1.3961-0.19961 9e-3 -1.1161 0.05302-1.3744 0.0714-4.65 0.32343-8.3053-0.62305-8.5673-2.3717-0.25568-1.7081 2.8098-3.6345 7.1854-4.7038 0.23329-0.05703 1.0761-0.26277 1.0761-0.26277s0.37448-0.09583 0.56816-0.14578zm-27.685 0.64778-2.1927 4.007h4.4227z" fill="#fafafa" stroke-width=".19138"/>
 <style type="text/css">.st0{fill:#FC0C18;}
	.st1{fill:#FC0C18;}</style>
</svg>
