<svg width="480" height="320" version="1.1" viewBox="0 0 127 84.667" xmlns="http://www.w3.org/2000/svg" xmlns:xlink="http://www.w3.org/1999/xlink">
 <defs>
  <linearGradient id="a" x1="59.475" x2="59.475" y1="71.438" y2="24.654" gradientUnits="userSpaceOnUse">
   <stop stop-color="#7a0000" offset="0"/>
   <stop stop-color="#a10705" offset=".25889"/>
   <stop stop-color="#0d52bf" offset="1"/>
  </linearGradient>
 </defs>
 <g stroke-linejoin="round">
  <rect width="127" height="84.667" ry="4.2333" fill="url(#a)" stroke-linecap="square" stroke-width=".52917" style="paint-order:stroke fill markers"/>
  <path transform="scale(.26458)" d="m309.75 73.992c-5.8408 0-10.763 3.6228-12.262 8.5547l-15.32 45.055v-32.604h-22.951v8.1035h14.838v22.006l-18.568-0.00195c-4.4766 0-8.125-3.65-8.125-8.125v-25.816c0-4.4733 3.6269-8.1016 8.1035-8.1016l26.701-0.007812 0.00195-8.125-26.766-0.001954c-8.9683 0-16.236 7.2725-16.236 16.238v25.814c0 8.9658 7.3341 16.236 16.301 16.236l26.701 0.01172v-0.00782h6.6836l16.715-49.262c0.68376-1.6303 2.2911-2.7754 4.1699-2.7754 1.8755 0 3.4786 1.1353 4.1641 2.7598l13.924 41.164h-21.557v8.1133h32.818l-17.07-50.664c-1.4956-4.9394-6.4198-8.5645-12.266-8.5645zm-147.03 0.93164c-10.567 0-19.133 8.5663-19.133 19.135 0 10.565 8.5652 19.131 19.133 19.131l6.6699 0.00586c0.51721 0 0.93554 0.41862 0.93554 0.9375 0 0.51638-0.41833 0.9336-0.93554 0.9336l-25.799 0.00976 0.00976 8.0938h25.855c4.9997 0 9.0508-4.0511 9.0508-9.0508 0-4.9955-4.0519-9.0488-9.0508-9.0488l-6.7422-0.07422c-6.0509 0-10.955-4.9036-10.955-10.957 0-6.0492 4.9042-10.953 10.955-10.953l25.797-0.011719-0.01367-8.1426-25.777-0.007813zm45.867 0.003906c-8.9692 0-16.238 7.2705-16.238 16.236v25.816c0 8.9658 7.27 16.234 16.238 16.234l27.463 0.01172-0.00781-8.1094-27.455 0.00976c-4.4758 0-8.1484-3.587-8.1484-8.1465v-25.898c0-4.3913 3.6726-8.0215 8.1484-8.0215l27.578 0.007812-0.00196-8.1348-27.576-0.00586zm101.17 8.1348c-1.1541 0-2.1371 0.74265-2.4961 1.7754l-16.393 48.383h9.5801l5.8066-17.188-0.01563 7.2227h18.967l-12.949-38.412c-0.35569-1.0344-1.3434-1.7812-2.5-1.7812zm-27.588 1.8906-26.701 0.019531c-3.4196 0-6.1914 2.7726-6.1914 6.1914v25.816c0 3.4179 2.7718 6.2344 6.1914 6.2344h16.674v-18.197h-12.902v8.1309h4.791l0.01758 1.9121-4.7637-0.00586c-1.052 0-1.9062-0.85425-1.9062-1.9062l-0.02929-18.16s-0.00496-1.8934 1.9141-1.9336h22.928l-0.02148-8.1016zm-73.58 0.019531c-3.4221 0-6.1699 2.7726-6.1699 6.1914l-0.01563 11.937h27.895l-0.00586-8.0937h-19.812s0.02177-1.9132 1.9258-1.9141h23.76l0.00196-8.1211h-27.578zm-45.873 0.019532c-4.9997 0-9.0488 4.0516-9.0488 9.0488 0 4.9997 4.0491 9.0508 9.0488 9.0508l6.7422 0.07617c6.0509 0 10.955 4.902 10.955 10.951 0 6.0525-4.9034 10.957-10.955 10.957h-25.855l-0.00976 8.2031 25.838-0.02149c10.568 0 19.135-8.5643 19.135-19.133 0-10.566-8.5663-19.131-19.135-19.131l-6.709 0.033203c-0.53562 0-0.96679-0.43564-0.96679-0.96875 0-0.53813 0.43201-0.9707 0.96679-0.9707l25.777 0.003906 0.01367-8.0996h-25.797zm39.689 20.043 0.00586 11.945c0 3.4096 2.7656 6.1777 6.1777 6.1777l27.455-0.00976 0.00781-8.0801h-23.646s-1.9024-0.00255-1.9258-1.9141h19.814l0.00391-8.1191h-27.893zm107.34 0.68164 2.8633 8.5059h-5.7402l2.877-8.5059zm-74.322 37.229c-6.4873-0.06501-11.443 0.67341-14.125 1.0352-7.9716 1.0746-15.584 3.1742-22.824 6.7051-5.4148 2.6404-10.484 5.8095-15.336 9.3555-1.8027 1.3181-3.1897 1.4976-6.1934 2.0508-0.63271 0.19751-1.161 0.70322-1.1367 1.2422 0.02079 0.47872 0.62304 1.1758 0.62305 1.1758 0 0 0.63761 0.69592 0.98242 1.0215 5.5127 5.1997 11.028 10.393 16.535 15.598 0.60007 0.56826 1.9524 1.2064 2.6035 0.57031 0.54148-0.5306 0.31888-1.6851 0.22851-2.4141-0.02834-0.22935-0.25667-1.1967-0.01757-2.6035 0.44272-2.6036 2.4946-4.9602 4.8848-6.9805 1.3474-0.96747 2.5248-1.8565 3.9199-2.7461 10.687-6.8158 22.249-9.9157 34.939-8.0996 18.118 2.504 25.253 13.256 11.51 24.088-3.7895 2.6237-7.9455 4.5566-12.201 6.2305-9.4738 3.7276-26.344 9.957-26.344 9.957 1e-5 0-20.161 7.3534-30.281 16.523-2.3885 2.1651-2.736 2.5242-3.7812 3.5879-5.4575 5.3922-8.2189 12.374-8.9453 19.889-0.44357 4.5938 0.20709 4.1484 3.8301 4.1484 35.646-0.00348 71.285-0.00196 106.93-0.00196 0.79088 0 5.8801 0.18173 7.7715 2.1777 0.51972 0.54817 1.4736 0.68606 1.9238 0.42578 0.29794-0.17325 0.49303-0.3871 0.49805-0.98633 0.03591-6.163 0.03534-12.463-0.00586-18.627-0.00348-0.47872-0.24533-1.194-0.5918-1.3672-0.36155-0.18244-1.1627-0.01497-1.4648 0.29688-2.0797 2.1383-4.72 2.3301-7.4434 2.3301-26.317-0.00167-52.635 0.00266-78.951-0.01367-1.0938-0.00251-2.9529 0.11588-3.3262-1.0508-0.43101-1.3441 1.7969-3.0625 1.7969-3.0625s4.4663-3.9233 11.27-7.1504c8.5541-4.0582 13.918-5.797 21.393-8.0215 9.8437-2.8447 14.26-4.422 20.275-6.5234 7.0309-2.4547 13.987-5.3409 19.814-10.018 16.302-12.597 8.2993-28.37 6.1777-31.246-3.5862-4.86-8.3428-8.3034-13.891-10.736-11.832-5.2608-22.704-6.6762-31.045-6.7598zm-131.53 0.25781c-5.2518 0.03515-10.254 0.35179-13.873 0.80079-7.5615 0.93817-14.964 2.4946-21.998 5.3887-4.4415 1.8278-8.65 4.2141-12.973 6.334-1.6261 0.79842-3.2246 1.7091-4.9336 2.2656-1.1566 0.37659-2.491 0.18025-3.7363 0.32422-1.1131 0.12888-1.4714 0.90976-0.89062 1.8496 0.20421 0.33059 0.51288 0.59882 0.78906 0.88086 4.8055 4.9135 9.6052 9.829 14.426 14.727 0.75071 0.76159 1.4335 1.9076 2.75 1.4238 1.3047-0.48039 1.1292-1.7371 1.1543-2.8359 0.04853-2.1132 0.90821-3.8691 2.6172-5.0684 2.0011-1.4043 4.0325-2.8071 6.1992-3.9219 9.4646-4.87 19.732-6.4669 30.199-6.959 5.7822-0.27201 11.48 0.62529 17.043 2.2656 3.3945 1.0026 6.4438 2.6581 8.8691 5.2442 2.5258 2.6957 3.4376 6.4598 0.72266 9.7305-0.03099 0.0378-0.06196 0.07535-0.09375 0.11133-1.9475 2.2689-5.679 5.0147-9.5898 6.0625-3.654 0.97918-3.1082 0.87877-9.3691 1.6973-2.3417 0.30633-13.803 0.70499-17.314 0.2539-2.114-0.27118-4.1384-0.83141-5.9629-2.1094-1.4445-1.0118-2.3156-0.44667-2.3281 1.418-0.037795 5.6885-0.031934 11.38 0.017578 17.072 0.004913 0.54985 0.025568 1.1798 0.46484 1.5781 0.43938 0.39669 1.1718 0.33693 2.0957-0.47656 2.5082-2.3283 9.0515-2.591 11.789-2.627 5.8308-0.07449 11.648-0.17921 17.473 0.81836 6.4785 1.1139 12.596 2.7688 17.855 6.9551 3.8716 3.0823 5.0347 8.5026 2.1934 12.445-2.1417 2.9719-4.8159 5.4037-8.3418 6.7812-5.7931 2.2638-11.846 3.3731-17.99 3.7305-7.2493 0.42013-14.508 0.27577-21.729-0.85742-6.0978-0.95744-12.101-2.2311-17.934-4.2656-4.4976-1.5692-8.7858-3.546-12.582-6.4844-1.6044-1.2395-2.824-2.728-3.3613-4.7266-0.24605-0.9181-0.49964-1.8859-1.6738-2.0508-1.2487-0.17492-1.8458 0.67175-2.3906 1.584-0.12136 0.20421-0.26371 0.39764-0.38672 0.59766-2.6731 4.3846-5.3573 8.7608-8.0078 13.156-0.97834 1.6244-1.9496 3.2584-2.7773 4.959-0.69464 1.4269-0.20481 2.0469 1.3945 2.0293 0.31468-0.00605 0.65239 8e-4 0.93945-0.10547 2.5158-0.92228 4.7789-0.06319 7.0938 0.8457 4.8449 1.9015 12.917 6.0008 30.273 9.0606 4.2641 0.75322 8.5925 1.3086 12.91 1.5723 3.936 0.24102 12.527 1.1947 29.346-0.64648 4.9194-0.65028 9.7773-1.6132 14.57-3.0293 6.4392-1.9056 12.447-4.5922 17.84-8.5625 2.6672-1.9609 5.2014-4.1247 6.7305-7.2012 1.9642-3.951 3.0314-7.9698 2.4238-12.518-0.5942-4.4398-2.3624-8.1947-5.3476-11.328-4.0875-4.2925-8.9906-7.4252-14.699-9.207-0.975-0.3038-1.9801-0.59942-2.8555-1.1016-0.97333-0.55738-0.93251-1.3321 0.02149-1.9121 0.60006-0.36658 3.4107-1.0761 8.1543-3.9199 2.4178-1.4504 4.1746-3.0473 5.3496-5.5137 1.7065-3.5811 2.3626-7.2286 1.7734-11.221-0.61429-4.1645-2.4455-7.5987-5.1738-10.672-3.7745-4.2523-8.7118-6.7666-13.768-9.0195-5.7312-2.5542-11.853-3.7954-18.027-4.7285-4.6189-0.68209-10.119-0.92958-15.371-0.89454zm238.37 0.82227c-0.27704 0.00234-0.5539 0.01367-0.83008 0.01367-5.6132-8.4e-4 -11.224-0.00195-16.836-0.00195h-16.842c-0.4737 0-0.94846 0.00279-1.4238 0.00195-0.81265-0.00167-1.7255-0.00122-1.8301 1.0391-0.10292 1.0219 0.82435 1.1979 1.5742 1.4297 0.52809 0.1632 1.0556 0.3315 1.5938 0.45703 2.9166 0.68208 5.394 2.0422 7.5039 4.2324 5.4809 5.6885 11.052 11.29 16.604 16.91 6.8292 6.9162 13.678 13.81 20.512 20.723 2.2546 2.2747 2.2448 2.8966-0.09766 5.2207-1.1215 1.1114-2.3384 2.1258-3.4356 3.2598-2.8438 2.9509-5.5965 5.9924-8.4746 8.9082-9.273 9.391-18.639 18.687-27.852 28.137-2.8898 2.9652-6.011 5.2954-10.098 6.252-0.91056 0.21423-2.4598 0.27953-2.2832 1.5625 0.08621 1.2278 1.7747 0.95369 2.7832 0.95703 11.224 0.0344 22.445 0.02105 33.668 0.01953 0.55571 0 1.1176 0.03186 1.6582-0.04687 1.2453-0.17828 1.4698-0.65783 0.87304-1.75-1.0461-1.9107-1.0447-2.0042 0.33204-3.4453 3.6531-3.8264 7.2721-7.6828 10.986-11.447 5.7178-5.7964 11.496-11.537 17.268-17.275 1.9977-1.9877 2.7303-1.9626 4.7246-0.03516 0.34144 0.32807 0.67638 0.6658 1.0078 1.0039 9.0261 9.1834 18.055 18.367 27.066 27.564 0.53979 0.54735 1.2277 1.2046 1.3047 1.875 0.0703 0.63103-0.53776 1.3645-0.92188 2.0098-0.45781 0.76661-0.1785 1.2129 0.56055 1.4238 0.44693 0.12805 0.93701 0.11719 1.4082 0.11718 11.618 0.00492 23.239 0.00653 34.857-0.00195 0.54732 0 1.1218-0.00227 1.6348-0.16406 0.3137-0.09959 0.70342-0.48219 0.74609-0.7793 0.0412-0.28872-0.24251-0.80554-0.51562-0.92773-1.0051-0.4444-2.0457-0.85161-3.1094-1.1211-2.9192-0.74736-5.3388-2.2587-7.416-4.4297-3.6079-3.7628-7.2484-7.4945-10.92-11.195-5.4542-5.4985-10.967-10.937-16.414-16.445-2.0496-2.0739-3.9389-4.3081-5.9726-6.4004-2.7442-2.8246-5.5783-5.563-8.3359-8.375-1.5692-1.6052-1.565-2.3742-0.01758-4.002 2.4471-2.576 4.9028-5.1497 7.3984-7.6738 9.9559-10.05 19.968-20.043 29.875-30.139 2.3032-2.3467 4.8978-3.9228 8.084-4.6191 0.84023-0.18414 1.6634-0.51263 2.4316-0.89844 0.25512-0.12722 0.46961-0.66551 0.42188-0.97266-0.04951-0.31048-0.40211-0.74889-0.69336-0.8125-0.68126-0.14982-1.4069-0.14257-2.1133-0.14257-11.382-0.00681-22.765-0.00196-34.146-0.00196-0.39586 0-0.79582 0.00933-1.1816 0.01953-1.7667 0.04434-1.7666 0.75773-0.90039 1.9277 0.96246 1.3734 0.98782 1.8261-0.04297 3.1074-0.2468 0.30712-0.53878 0.57901-0.81835 0.85937-7.7322 7.8017-15.464 15.604-23.197 23.402-0.38919 0.39418-0.77099 0.79972-1.2012 1.1445-0.77329 0.62266-1.6145 0.61263-2.4004 0.04688-0.45024-0.31885-0.81592-0.74644-1.2051-1.1406-7.8327-7.9214-15.667-15.842-23.496-23.764-0.05522-0.05609-0.11138-0.11217-0.16407-0.16992-1.5968-1.6889-1.6097-1.8828-0.20703-3.709 0.78502-1.0227 0.59215-1.5542-0.6582-1.7031-0.27281-0.03251-0.54916-0.03754-0.82617-0.03516z" fill="#fafafa" stroke-linecap="round" stroke-width="6" style="paint-order:stroke markers fill"/>
 </g>
 <style type="text/css">.st0{fill:#FC0C18;}
	.st1{fill:#FC0C18;}</style>
</svg>
