<svg width="480" height="320" version="1.1" viewBox="0 0 480 320" xml:space="preserve" xmlns="http://www.w3.org/2000/svg"><defs><linearGradient id="a" x1="54.164" x2="55.659" y1="5.4293" y2="45.254" gradientTransform="scale(3.7795)" gradientUnits="userSpaceOnUse"><stop stop-color="#f9c440" offset="0"/><stop stop-color="#ad5f00" offset="1"/></linearGradient></defs><rect width="480" height="320" ry="24" fill="url(#a)"/><path d="m40 131v58.004h400v-58.004h-400zm5.2617 5.2617h389.49v47.48h-0.00977-389.48v-47.48zm110.83 1.6035c0 0.80229-0.69814 1.2617-2.3965 1.2617h-45.834v0.80273c1.5525 0 1.834 0.45801 1.834 1.7188v36.707c0 1.2578-0.28121 1.7166-1.8242 1.7188v0.82421h46.471c1.6879 0 2.3965 0.45747 2.3965 1.2598h0.99024v-9.4082h-0.99024c0 0.9169-0.69812 1.375-2.3965 1.375h-34.613v-11.242h22.174c1.6879 0 2.3965 0.4581 2.3965 1.375h0.98828v-9.6367h-0.98828c0 1.0315-0.69813 1.4883-2.3965 1.4883h-22.174v-10.211h33.967c1.6879 0 2.3965 0.45873 2.3965 1.4902h0.99023v-9.5234h-0.99023zm-79.104 0.67774c-13.701 0-26.205 4.0125-26.205 13.65 0 19.047 41.033 5.1052 41.033 16.348 0 3.1571-4.3769 6.1367-17.234 6.1367-9.044 0-18.15-2.4067-18.15-5.793 0-0.45846 0.14648-0.68874 0.14648-0.91797l-1.127-0.45703-5.8652 9.752 0.9375 0.16601c0.35426-0.16671 0.56304-0.45703 0.99023-0.45703 1.615 0 6.5632 4.4688 23.797 4.4688 18.078 0 27.123-5.845 27.123-13.42 0-20.755-41.605-6.9917-41.605-16.4 0-3.553 4.7406-6.3027 15.754-6.3027 11.513 0 18.15 4.0115 18.15 4.7617 0 0.28133-0.071591 0.57155-0.14453 0.80078l1.125 0.52149 5.4277-8.6172-1.125-0.29102c-0.20838 0.17713-0.35457 0.40625-1.2715 0.40625-0.85439 0-9.4714-4.3555-21.756-4.3555zm115.21 0c-14.691 0-31.361 6.543-31.361 21.453 0 14.91 14.264 21.455 30.508 21.455 12.222 0 23.1-4.3666 27.549-6.4297v-0.80273c-0.9169-0.17713-1.2715-0.52059-1.2715-1.4375v-11.295c0-1.2608 0.63523-1.7194 1.3438-1.834v-0.80078-0.02149h-23.527c-1.417 0-2.2598-0.57271-2.2598-1.375h-0.99023v10.096h0.99023c0-0.8023 0.84274-1.375 2.2598-1.375h12.15v4.7617c-2.1151 1.2608-7.346 3.7305-16.244 3.7305-10.878 0-20.484-4.7617-20.484-14.91 0-9.69 9.6069-14.453 21.475-14.453 9.3983 0 17.025 3.5542 17.025 5.3359 0 0.40636-0.07358 0.7493-0.14648 0.97852l0.99023 0.52148 6.8555-9.4082-0.99023-0.34375c-0.28132 0.34384-0.91716 0.63476-1.5527 0.63476-0.48971 0-3.2497-1.0322-6.9902-2.3555-4.0219-1.0315-9.535-2.125-15.328-2.125zm51.576 0.58398v0.80273c0.9169 0.11461 1.4805 0.39568 1.4805 1.0312 0 0.51055-0.42699 1.1457-0.78125 1.7188l-19.287 35.217c-0.98984 1.8338-1.4163 2.1152-2.6875 2.1777v0.80273h12.596v-0.80273c-0.63558-0.06252-1.0625-0.34232-1.0625-0.86329 0-0.73976 1.0634-1.8874 5.1582-9.3476h24.225c4.7304 8.2 5.3672 9.0031 5.3672 9.6387 0 0.29175-0.35458 0.57227-1.2715 0.57227v0.80273h14.055v-0.80273c-1.4796 0-1.7602-0.39603-2.75-2.1777l-20.484-35.613c-0.35425-0.57307-0.63671-1.0318-0.63671-1.4902 0-0.40636 0.41769-0.74868 1.4805-0.86329v-0.80273h-15.4zm50.67 0v41.75h137.43v-41.75h-137.43zm99.439 3.9043c18.959-0.14498 31.721 2.7414 32.48 8.0996 1.1357 7.9187-25.069 18.109-59.65 23.193h-0.05274c-0.0833 0-0.15624-0.03199-0.21875-0.08399-0.0729-0.0625-0.11523-0.15622-0.11523-0.25v-19.307c0-0.19797 0.1575-0.36588 0.35547-0.38672 0.19797-0.0104 0.37499 0.12626 0.40625 0.32422 1.1044 6.6788 2.8115 14.763 4.0723 16.045 20.255-3.6989 32.281-9.8877 31.385-16.16-1.0003-7.0435-17.579-10.857-37.74-8.6895-0.18755 0.0208-0.34245-0.11584-0.36328-0.29297-0.0208-0.17713 0.10347-0.34244 0.29102-0.36328 10.634-1.3708 20.532-2.063 29.15-2.1289zm-36.518 3.2441c0.14587-0.0208 0.2819 0.07284 0.30274 0.21875 0.0208 0.14587-0.07284 0.27994-0.21875 0.30078-20.182 3.5009-35.186 11.826-34.176 18.953 0.98984 7.0018 16.755 10.816 36.656 8.8887 0.14588-0.0208 0.27018 0.09308 0.29102 0.22851 0.0104 0.15629-0.09438 0.2819-0.24023 0.30274-10.503 1.292-20.265 1.9062-28.746 1.9062-18.234 0-30.487-2.8659-31.217-8.0234-1.0836-7.6061 24.11-17.607 57.348-22.775zm-106.55 2.0195 8.4766 15.025h-16.811l8.334-15.025z" fill="#fff"/></svg>
