<svg width="480" height="320" version="1.1" viewBox="0 0 480 320" xml:space="preserve" xmlns="http://www.w3.org/2000/svg"><defs><linearGradient id="a" x1="59.47" x2="59.47" y1="74.29" gradientTransform="scale(3.78)" gradientUnits="userSpaceOnUse"><stop stop-color="#7a0000" offset="0"/><stop stop-color="#a10705" offset=".4"/><stop stop-color="#0d52bf" offset="1"/></linearGradient></defs><rect width="480" height="320" ry="24" fill="url(#a)"/><path d="m100.2 113c-36.72 0-46.36 13.64-50.95 13.64-0.9586 0-1.762-0.3651-2.387-0.7402l-2.199 0.959 16.76 16.93 1.894-1.209c-0.3126-0.6147-0.625-1.366-0.625-2.199 0-4.032 14.73-13.02 36.09-13.02 16.62 0 24.22 5.573 24.22 11.19 0 5.21-5.867 10.7-27.54 10.7-8.867 0-11.41-0.9695-12.04-3.043h-2.144v20.01h2.197c0.5001-2.198 3.011-3.533 14.89-3.533 22.94-1e-5 31.17 7.285 31.17 13.98 0 7.658-10.91 13.02-30.85 13.02-26.3 0-43.84-9.867-43.84-14.61 0-0.6252 0.1562-1.084 0.1562-1.459l-2.387-1.084-12.65 20.93 2.531 0.7402c0.969-0.5835 1.897-1.084 3.168-1.084 5.366 0 14.39 10.95 55.69 10.95 30.7 0 50.64-11.22 50.64-26.91 0-11.53-9.179-18.48-22.48-22.14v-0.25c10.12-2.324 15.97-8.773 15.97-17.06 0-14.01-19.48-24.72-45.27-24.72zm110 0c-33.71 0-45.58 17.28-50.01 17.28-0.9377 0-1.584-0.2499-1.896-0.625l-2.199 1.334 18.69 17.3 2.043-1.459c-0.646-0.6148-1.272-1.366-1.272-2.449 0-5.366 15.5-17.06 33.71-17.02 10.76 0 22.64 4.158 22.64 12.07 0 20.93-79.45 18.97-79.45 63.41h101.6c3.47 0 4.742 0.9592 4.742 2.668h2.197v-20.43h-2.197c0 1.959-1.272 2.918-4.742 2.918h-76.28c16.16-20.46 76.59-17.06 76.59-49.43 0-16.9-24.53-25.55-44.16-25.55zm60.66 1.178v1.74c3.938 0 5.368 1.834 6.326 2.793l37.33 38.2-39.56 39.07c-3.011 3.042-4.095 4.865-8.064 5.115v1.709h33.7v-1.709c-2.042 0-3.312-0.6234-3.312-1.582 0-1.115 0.6254-1.491 1.428-2.324l28-27.77 23.1 23.51c3.011 3.042 5.711 5.491 5.711 6.574 0 1.209-0.6257 1.584-3.012 1.584v1.709h37.02v-1.709c-4.272-0.125-5.387-1.833-8.555-5.115l-39.88-40.77 34.52-34.2c3.011-2.917 5.085-4.99 10.3-5.115v-1.709h-35.14v1.699c1.427 0 2.699 0.6254 2.699 1.584 0 0.7189-0.9261 1.707-2.197 3.041l-22.49 22.28-21.52-22.14c-1.584-1.584-2.387-2.543-2.387-3.043 0-1.209 1.272-1.709 3.314-1.709v-1.709h-37.33zm141.7 2.209v11.99c0 4.887 3.927 8.826 8.824 8.826 4.887 0 8.826-3.929 8.826-8.826v-3.072c0-0.2917 0.1868-0.4805 0.4785-0.4805 0.198 0 0.3848 0.1888 0.3848 0.3867v11.99h3.836v-11.99c0-2.303-1.918-4.221-4.221-4.221s-4.219 1.918-4.219 4.221v3.062c0 2.782-2.304 5.084-5.086 5.084s-5.084-2.302-5.084-5.084v-11.89h-3.74zm4.606 0v11.99c0 2.303 1.916 4.221 4.219 4.221s4.221-1.918 4.221-4.221v-3.072c0-2.782 2.302-5.086 5.084-5.086s5.084 2.304 5.084 5.086v11.89h3.742v-11.98c0-4.887-3.929-8.826-8.826-8.826s-8.824 3.929-8.824 8.826v3.062c0 0.2917-0.1887 0.4785-0.4805 0.4785s-0.4785-0.1868-0.4785-0.3848v-11.98h-3.74zm2.875 22.63c-4.126 0-7.48 3.356-7.48 7.482v12.85h3.74v-12.85c0-2.115 1.729-3.742 3.74-3.742h11.99c2.115 0 3.74 1.731 3.74 3.742v12.85h3.742v-12.85c0-4.126-3.356-7.482-7.482-7.482h-11.99zm-0.09376 4.606c-1.636 0-2.875 1.252-2.875 2.877v12.85h3.74v-11.12c0.0938-0.4793 0.4797-0.8652 0.959-0.8652v9.305h3.74v-13.04h-5.564zm6.523 0v13.04h3.74v-9.305c0.4793 0 0.8633 0.3859 0.8633 0.8652v11.04h3.836v-12.76c0-1.636-1.252-2.877-2.877-2.877h-5.562zm-6.439 17.16c-4.126 0-7.482 3.356-7.482 7.482v15.44l22.54 7.773c0.8648 0.2917 1.439 1.051 1.439 2.01s-0.5746 1.73-1.439 2.012l-18.8 6.334v-9.971h-3.742v15.15l23.04-7.764c2.49-0.771 4.408-3.063 4.408-5.856 0-2.782-1.824-5.085-4.314-5.752l-20.52-7.002h15.06v-10.54h-3.74v6.908h-10.17v-8.639c0-2.115 1.729-3.74 3.74-3.74h11.98c2.115 0 3.74 1.729 3.74 3.74v12.37h3.74v-12.47c0-4.126-3.354-7.482-7.48-7.482h-11.99zm0.00977 4.606c-1.636 0-2.875 1.252-2.875 2.877v7.772h8.439v-5.938h-3.74v2.209h-0.8652v-2.209c0-0.4793 0.3859-0.8652 0.8652-0.8652h8.44c0.4793 0 0.8633 0.386 0.8633 0.8652v10.65h3.742v-12.48c0-1.636-1.252-2.877-2.877-2.877h-11.99zm-7.48 19.28v4.406l7.959 2.69h-3.354v8.834l17.65-5.949c0.4793-0.1876 0.8633-0.5728 0.8633-1.156 0-0.4793-0.384-0.9583-0.7695-1.156l-22.35-7.668zm8.836 7.387 3.834 1.344-3.834 1.25v-2.594z" fill="#fff"/></svg>
