<svg width="480" height="320" version="1.1" viewBox="0 0 127 84.667" xmlns="http://www.w3.org/2000/svg" xmlns:xlink="http://www.w3.org/1999/xlink">
 <defs>
  <linearGradient id="a" x1="109.18" x2="101.64" y1="-9.1685" y2="84.667" gradientUnits="userSpaceOnUse">
   <stop stop-color="#910e38" offset="0"/>
   <stop stop-color="#c6262e" offset=".45527"/>
   <stop stop-color="#452981" offset="1"/>
  </linearGradient>
 </defs>
 <rect width="127" height="84.667" ry="4.2333" fill="url(#a)" stroke-linecap="square" stroke-linejoin="round" stroke-width=".52917" style="paint-order:stroke fill markers"/>
 <g fill="#fafafa">
  <g>
   <path d="m10.778 54.274v-1.4456h4.5997q0.76905 0 0.76905-0.6717 0-0.6571-0.76905-0.6571h-2.3023q-1.212 0-1.8545-0.54028-0.63763-0.54515-0.63763-1.5624 0-1.0173 0.6279-1.5576 0.63277-0.54515 1.7961-0.54515h5.1741v1.4602h-4.5802q-0.78852 0-0.78852 0.6425 0 0.6571 0.78852 0.6571h2.351q1.1828 0 1.8009 0.54515 0.62303 0.54028 0.62303 1.5576 0 1.0319-0.62303 1.577-0.61816 0.54028-1.8009 0.54028z"/>
   <path d="m22.149 54.274q-1.4213 0-2.2293-0.68631-0.80799-0.68631-0.80799-2.2049v-4.0886h2.2293v4.1032q0 0.73012 0.37479 1.0514 0.37479 0.32125 0.97835 0.32125h1.8788v-5.4759h2.2293v6.9799z"/>
   <path d="m28.015 54.274v-6.9799h4.5997q1.5624 0 2.2926 0.62303 0.73498 0.61816 0.73498 1.6939 0 1.0611-0.72525 1.6841-0.72525 0.61816-2.3023 0.61816h-2.3704v2.3607zm5.2812-4.6581q0-0.87614-1.0757-0.87614h-1.9762v1.7425h1.9762q1.0757 0 1.0757-0.8664z"/>
   <path d="m43.736 48.74h-2.8766q-1.0465 0-1.5138 0.32125-0.46241 0.32125-0.54515 0.96375h4.9356v1.431h-4.9356q0.03407 0.6279 0.49648 0.99296 0.46727 0.36506 1.5624 0.36506h2.8766v1.4602h-3.159q-2.0102 0-3.0324-0.87613-1.0173-0.88101-1.0173-2.6138t1.0173-2.6089q1.0222-0.881 3.0324-0.881h3.159z"/>
   <path d="m50.287 49.391c0-0.63925-0.35857-0.65064-1.0757-0.65064h-2.2682v1.629h2.2682c0.71714 0 1.0757-0.32612 1.0757-0.97836zm-1.3271 2.4094h-2.0169v2.4742h-2.2293v-6.9799h5.0378c0.97673 0 1.7004 0.2239 2.1709 0.67171 0.47376 0.44456 0.71064 0.71229 0.71064 1.4197 0 0.71714-0.23364 1.298-0.70091 1.7425-0.23688 0.22715-0.53866 0.39589-0.90534 0.50621l1.9207 2.6397h-2.3202z"/>
   <path d="m57.177 50.784q0-1.7328 1.0173-2.6089 1.0222-0.881 3.0324-0.881h3.159v1.4456h-2.8767q-1.0465 0-1.5138 0.32125-0.46241 0.32125-0.54515 0.96375h4.9356v1.431h-4.9794v2.8182h-2.2293z"/>
   <path d="m67.553 54.274q-1.2315 0-1.8983-0.56949-0.66684-0.57436-0.66684-1.5868 0-1.0076 0.66684-1.577 0.66684-0.57436 1.8983-0.57436h3.0957v-0.2531q0-0.53055-0.2531-0.74472-0.24824-0.21417-0.86154-0.21417h-4.0156v-1.4602h4.0984q1.7279 0 2.4921 0.6571 0.76905 0.6571 0.76905 2.1465v4.1763zm3.0957-2.8766h-2.497q-0.90047 0-0.90047 0.72038 0 0.72525 0.90047 0.72525h2.497z"/>
   <path d="m82.374 54.274v-4.1763q0-0.70091-0.35045-0.99782-0.35046-0.30178-1.1633-0.30178h-0.46241v5.4759h-2.2293v-5.4759h-1.8788v5.4759h-2.2293v-6.9799h7.1795q1.762 0 2.5603 0.68631 0.79826 0.68631 0.79826 2.2049v4.0886z"/>
   <path d="m87.485 47.294v6.9799h-2.2293v-6.9799z"/>
   <path d="m95.726 48.769h-2.6722q-1.2169 0-1.762 0.47214t-0.54515 1.543q0 1.0708 0.53542 1.543 0.53542 0.47214 1.7571 0.47214h2.6868v1.4748h-3.2417q-1.9664 0-2.9643-0.87613-0.99782-0.88101-0.99782-2.6138 0-1.7279 0.99782-2.6089 0.99782-0.881 2.9643-0.881h3.2417z"/>
   <path d="m104.93 50.888q0 0.90534-0.30178 1.5673-0.30177 0.6571-0.87127 1.0854-0.56462 0.42347-1.3775 0.63277-0.80799 0.20443-1.8399 0.20443-1.0319 0-1.8448-0.20443-0.80799-0.2093-1.3726-0.63277-0.56462-0.42833-0.87127-1.0854-0.30178-0.66197-0.30178-1.5673t0.30178-1.5624q0.30665-0.66197 0.87127-1.0854 0.56462-0.42833 1.3726-0.63277 0.81286-0.2093 1.8448-0.2093 1.0319 0 1.8399 0.2093 0.81286 0.20444 1.3775 0.63277 0.5695 0.42347 0.87127 1.0854 0.30178 0.6571 0.30178 1.5624zm-4.3904 2.0151q2.1611 0 2.1611-2.0151t-2.1611-2.0151q-2.1611 0-2.1611 2.0151t2.1611 2.0151z"/>
   <path d="m114.19 54.274v-4.1763q0-0.70091-0.35045-0.99782-0.35046-0.30178-1.1633-0.30178h-0.4624v5.4759h-2.2293v-5.4759h-1.8788v5.4759h-2.2293v-6.9799h7.1795q1.762 0 2.5603 0.68631 0.79826 0.68631 0.79826 2.2049v4.0886z"/>
  </g>
  <g transform="translate(25.954)">
   <path d="m10.695 56.502v1.1832l4.079 0.01028v0.4256c0 1.2997-1.365 1.9098-2.491 1.9098h-1.6191v1.1832h1.7851c0.74205 0 1.5719-0.35729 2.1959-0.94786l0.63768 0.94786h1.5154l-1.4916-1.8185c0.19364-0.37581 0.30841-0.79488 0.30841-1.2434v-1.6502z"/>
   <rect x="16.299" y="58.297" width="4.3281" height="1.0483"/>
   <rect x="27.426" y="58.297" width="4.3281" height="1.0483"/>
   <path d="m38.189 57.695v0.73692c0 1.2997-1.0121 1.5984-2.1381 1.5984h-2.3664v1.1832h2.4512c1.4211 0 2.8941-0.87512 2.8941-2.6288v-2.0833h-5.7293v1.1832z"/>
   <path d="m41.157 61.214h-1.2551v-1.0754h1.4012c0.25544 0 0.39606-0.20305 0.39606-0.4158v-0.46855h1.6917c0.31328 0 0.44485-0.21488 0.44485-0.39938v-0.26819h-4.2235v-1.0054h4.9761v1.3997c0 0.64224-0.65861 1.1748-1.1445 1.1748h-1.1156c0 0.479-0.27818 1.0582-1.1711 1.0582z"/>
   <path d="m51.213 57.038-5.9961-0.65318v1.0862l5.9961 0.65318z"/>
   <path d="m51.213 58.616-5.9961-0.65318v1.0862l5.9961 0.65318z"/>
   <path d="m51.213 60.15-5.9961-0.65318v1.0862l5.9961 0.65318z"/>
   <path d="m21.181 61.214h-0.47851v-1.1886h0.33173c1.0907 0 1.6366-0.75386 1.6366-1.5999v-1.9522h0.90272v2.1797c0 1.6252-0.94696 2.561-2.3926 2.561z"/>
   <path d="m26.734 61.214h0.47851v-1.1886h-0.33173c-1.0907 0-1.6366-0.75386-1.6366-1.5999v-1.9522h-0.90272v2.1797c0 1.6252 0.94695 2.561 2.3926 2.561z"/>
   <g>
    <path d="m26.419 56.374c-0.47517-3e-6 -0.86473 0.38894-0.86473 0.86411 3e-6 0.47517 0.38956 0.86473 0.86473 0.86473 0.47517 0 0.86473-0.38956 0.86473-0.86473 3e-6 -0.47516-0.38956-0.86411-0.86473-0.86411zm0 0.3949c0.2617 0 0.46922 0.20751 0.46922 0.46921 0 0.26171-0.20751 0.46983-0.46922 0.46983-0.2617 3e-6 -0.46982-0.20812-0.46983-0.46983 0-0.2617 0.20812-0.46921 0.46983-0.46921z" color="#000000" color-rendering="auto" dominant-baseline="auto" image-rendering="auto" shape-rendering="auto" solid-color="#000000" stop-color="#000000" style="font-feature-settings:normal;font-variant-alternates:normal;font-variant-caps:normal;font-variant-east-asian:normal;font-variant-ligatures:normal;font-variant-numeric:normal;font-variant-position:normal;font-variation-settings:normal;inline-size:0;isolation:auto;mix-blend-mode:normal;shape-margin:0;shape-padding:0;text-decoration-color:#000000;text-decoration-line:none;text-decoration-style:solid;text-indent:0;text-orientation:mixed;text-transform:none;white-space:normal"/>
    <path d="m51.848 56.454v1.2712h4.9848v2.2461h-4.9848v1.2421h6.0023v-4.7594z"/>
    <path d="m63.557 56.422v2.1137c0 0.98107-1.0942 1.5086-1.7075 1.5086h-3.3973v1.1694h3.6598c0.95604 0 2.3173-0.80185 2.3173-2.4165v-2.3752zm-5.1017 0.02457v1.279h3.6757v-1.279z"/>
   </g>
  </g>
  <g transform="matrix(.44058 0 0 .44058 116.63 145.98)">
   <path transform="scale(.26458)" d="m-360.47-1050a56.021 56.082 0 0 0-22.045 4.5039 56.021 56.082 0 0 0-34.023 51.812 55.417 51.215 0 0 1 38.467 14.709 55.417 51.215 0 0 1 16.428 39.885l1.2734 1.2539a56.021 56.082 0 0 0 51.723-34.898 56.021 56.082 0 0 0-12.578-61.158 56.021 56.082 0 0 0-39.244-16.107z"/>
   <path d="m-124.91-292.56a14.822 14.838 0 0 0-5.8327 1.1916 14.822 14.838 0 0 0-9.002 13.709 14.662 13.551 0 0 1 10.178 3.8918 14.662 13.551 0 0 1 4.3465 10.553l0.33694 0.33176a14.822 14.838 0 0 0 13.685-9.2335 14.822 14.838 0 0 0-3.328-16.181 14.822 14.838 0 0 0-10.383-4.2617z"/>
   <ellipse cx="-143.68" cy="-258.64" rx="16.96" ry="8.5188"/>
   <ellipse cx="-114.15" cy="-243.79" rx="16.96" ry="8.5188"/>
  </g>
 </g>
 <style type="text/css">.st0{fill:#FC0C18;}
	.st1{fill:#FC0C18;}</style>
</svg>
