<svg width="480" height="320" version="1.1" viewBox="0 0 480 320" xmlns="http://www.w3.org/2000/svg"><defs><linearGradient id="a" x1="113.73" x2="96.843" y1="-104.39" y2="107.22" gradientTransform="scale(3.7795)" gradientUnits="userSpaceOnUse"><stop stop-color="#910e38" offset="0"/><stop stop-color="#c6262e" offset=".57394"/><stop stop-color="#452981" offset="1"/></linearGradient></defs><rect width="480" height="320" ry="24" fill="url(#a)"/><path d="m231.7 82.895c-1.0699 0.01824-2.1797 0.10008-3.332 0.25-18.437 2.3987-18.814 22.396-18.814 22.396s23.403-1.3395 25.076 24.182c0 0.0418 26.58-1.4215 20.598-30.457-0.60141-2.9286-7.4788-16.645-23.527-16.371zm46.58 24.184c-1.07 0.0182-2.1817 0.0981-3.334 0.24804-18.437 2.3987-18.812 22.396-18.812 22.396s23.387-1.3375 25.074 24.184c0 0.0418 26.568-1.4235 20.613-30.459-0.60141-2.9287-7.4909-16.643-23.541-16.369zm-76.787 16.369c-23.373 0-24.182 10.947-24.182 13.43 0 2.4824 4.9083 11.646 25.074 11.646 19.496 0 24.184-9.178 24.184-11.646 0-2.4684-2.149-13.43-25.076-13.43zm48.365 23.291c-23.373 0-25.074 10.069-25.074 13.43 0 3.2076 4.9083 11.645 25.074 11.645 19.496 0 25.967-7.4886 25.967-11.645 0-3.5283-3.0396-13.43-25.967-13.43zm-100.19 40.074c-14.783 0-14.685 25.953 0 25.953h15.41v-5.0625h-13.959c-3.612 0-5.1742-4.3367-4.7558-5.7871h18.812v-4.6582h-18.812c-0.41836-1.548 1.0323-5.7871 4.6582-5.7871h14.057v-4.6582zm212.8 0-14.686 0.11133c-15.201 0-17.055 25.953 1.7578 25.953h12.928v-5.1738h-13.025c-7.238 0-7.238-16.232 0-16.232h13.025zm-133.59 0.0977c-6.2059 0-11.268 4.0302-11.268 10.445v15.619h7.2383v-10.543h19.328v-5.1738h-19.23c0-4.0303 2.2719-5.6894 6.7207-5.6894h12.51v-4.6582zm-122.11 0.0137v25.842h7.2383v-9.3008h11.478c13.43 0 12.914-16.541 0-16.541h-11.478zm62.967 0v25.939h7.3359l0.0977-9.707h8.3808l6.6113 9.8183h8.5762l-8.2695-10.334c10.557-2.58 9.3148-15.717-3.8222-15.717h-11.574zm79.115 0v4.6582h13.752c4.4348 0 6.0937 3.6119 6.0937 5.2715h-12.621c-11.896 0-11.589 16.023 0.0977 16.023h20.264v-13.959c0-8.5907-5.1735-11.897-11.352-11.994zm32.342 0v25.953h7.2383v-21.406h7.8516v21.406h6.7207v-21.406h2.0644c3.612 0 6.8203 1.6589 6.8203 5.8984v15.508h7.2363v-16.762c0.11157-6.3036-3.7095-9.1914-10.738-9.1914h-19.955zm42.701 0v25.939h7.8516v-25.939zm57.277 0c-12.203 0-16.652 5.6898-16.652 13.025 0 7.1264 4.2404 13.541 16.652 13.541 12.412 0 16.65-6.4007 16.65-13.541 0-7.3495-4.4477-13.025-16.65-13.025zm20.891 0v25.953h7.2383v-21.406h7.8516v21.406h6.7226v-21.406h2.0625c3.612 0 6.8203 1.6589 6.8203 5.8984v15.508h7.2383v-16.762c0.11157-6.3036-3.6119-9.1914-10.738-9.1914h-19.957zm-328.18 0.50195v16.15c0 5.8991 4.2387 9.3008 8.6875 9.3008h19.441v-25.437h-7.2383v20.779h-8.4805c-3.7236 0-5.5781-2.9006-5.5781-5.1738v-15.619zm-26.568 0.0137c-9.9295 0-9.6226 14.574 0.09766 14.574h11.576c4.2396 0 4.3372 6.3027 0 6.3027h-17.363v4.6582h22.439c8.9951 0 9.0931-15.09-0.41797-15.09h-11.687c-4.6579 0-4.6579-5.7871 0-5.7871h16.65v-4.6582zm333.85 3.502c6.3175 0 8.8965 2.0769 8.8965 8.8965 0 6.5128-2.4814 8.8984-8.8965 8.8984-6.4151 0-8.8984-2.3857-8.8984-8.8984 0-6.9311 2.5948-8.8965 8.8984-8.8965zm-204.1 0.52929h10.543c4.7555 0 4.6579 6.8184 0 6.8184h-10.543zm-63.064 0.0977h9.0937c5.6899 0 5.7875 7.7539 0 7.8515h-9.0937zm144.23 9.832h10.445v6.3027h-10.445c-4.1419 0-4.2395-6.3027 0-6.3027zm-60.014 17.09c-1.8688 0-3.418 1.5632-3.418 3.418 0 1.8688 1.5492 3.416 3.418 3.416 1.8688 0 3.416-1.5612 3.416-3.416 0-1.8548-1.4496-3.418-3.416-3.418zm71.25 0.20897v4.0312l22.537 2.4824v-4.0312zm-45.101 0.20898v4.7558h18.311v2.9024c0 4.7555-3.0964 5.7871-9.7207 5.7871h-7.1387v4.6582h9.9297c4.8532 0 10.236-3.9329 10.236-9.9297v-8.1738zm114.58 0v5.7891c0 6.0944-2.9981 7.6562-7.9629 7.6562h-11.381v4.6582h12.719c6.8196 0 9.7207-4.4491 9.7207-9.7207v-8.3828zm-200.28 0.0977v4.6582h15.299v1.7578c0 4.2396-3.8212 6.7225-10.236 7.0293h-5.789v4.6582h6.3047c4.0304 0 7.2365-1.6606 9.4121-3.8223l2.5801 3.8223h5.4824l-5.6914-7.0293c0.83676-1.562 1.3535-3.2078 1.3535-4.6582v-6.416zm155.92 0v4.6582h18.924v8.6894h-18.924v4.6582h22.535v-18.006h-3.6113zm25.018 0v4.6582h13.752v-4.6582zm-135.65 0.0156 0.11133 6.8184c0 3.9327-1.6597 6.6113-7.4472 6.6113v4.6582c9.9295 0 10.754-6.3034 10.754-10.543v-7.5449zm6.3184 0v7.5449c0 4.1419 1.143 10.543 11.059 10.543v-4.6582c-5.8991-0.0976-7.5449-2.6925-7.5449-6.6113v-6.8184zm7.9629 1.3379c0.82281 0 1.5488 0.72602 1.5488 1.5488 0 0.82282-0.72602 1.4493-1.5488 1.5469-0.8228 0-1.5488-0.72406-1.5488-1.5469 0-0.8228 0.72602-1.5488 1.5488-1.5488zm50.053 2.9297v3.793h15.912c0 1.7572-0.30746 2.3848-1.8555 2.3848h-6.2051v1.7559c0 0.82281-0.20942 1.6602-2.1758 1.6602h-4.5469v4.1426h4.9648c2.3848 0 4.1426-1.6606 4.1426-3.8222v-0.30664h3.8203c2.6916 0 4.6582-1.9667 4.6582-4.8535v-4.7539zm21.184 1.4082v3.9316l22.537 2.4824v-3.9316zm-109.5 1.2402v4.0312h16.33v-4.0312zm42.088 0v4.0312h16.443v-4.0312zm67.416 4.5469v4.0449l22.537 2.4824v-4.0312z" fill="#fff"/></svg>
