<svg width="480" height="320" version="1.1" viewBox="0 0 127 84.667" xmlns="http://www.w3.org/2000/svg" xmlns:xlink="http://www.w3.org/1999/xlink">
 <defs>
  <linearGradient id="a" x1="10.583" x2="127" y1="31.519" y2="64.411" gradientUnits="userSpaceOnUse">
   <stop stop-color="#c6262e" offset="0"/>
   <stop stop-color="#a10705" offset="1"/>
  </linearGradient>
 </defs>
 <g stroke-linejoin="round">
  <rect width="127" height="84.667" ry="4.2333" fill="url(#a)" stroke-linecap="square" stroke-width=".52917" style="paint-order:stroke fill markers"/>
  <path transform="scale(.26458)" d="m300.16 100.83c-4.7843 0-8.8079 2.9502-10.041 6.9746l-12.533 36.73v-26.58h-18.785v6.6074h12.146v17.938h-15.201c-3.655 0-6.6426-2.9759-6.6426-6.6328v-21.029c0-3.6603 2.9661-6.6113 6.625-6.6113h21.857v-6.623h-21.91c-7.3403 0-13.287 5.9222-13.287 13.234v21.029c0 7.3127 6.0001 13.244 13.34 13.244l21.857 0.00977v-0.00586h5.4688l13.686-40.156c0.55566-1.3296 1.8676-2.2656 3.4082-2.2656 1.5321 0 2.8474 0.93664 3.4082 2.2578l11.398 33.549h-17.65v6.6152h26.859l-13.969-41.293c-1.2242-4.0278-5.2582-6.9922-10.035-6.9922zm-99.232 0.77149-21.104 0.00195c-8.6406 0-15.66 6.976-15.66 15.588 0 8.6119 7.0195 15.59 15.66 15.59l5.459 0.00781c0.41518 0 0.76757 0.33841 0.76757 0.76562 0 0.41936-0.35247 0.75782-0.76757 0.75782l-21.111 0.01562 0.00781 6.5938h21.154c4.0955 0 7.4082-3.3012 7.4082-7.3809 0-4.0751-3.3127-7.3711-7.4082-7.3711l-5.5156-0.06055c-4.9474 0-8.9609-3.9964-8.9609-8.9356 0-4.9257 4.0136-8.9258 8.9609-8.9258l21.115-0.00586-0.00586-6.6406zm16.438 0.00195c-7.3437 0-13.293 5.9222-13.293 13.234v21.029c0 7.3127 5.9492 13.244 13.293 13.244l22.473 0.00977-0.0039-6.6113-22.469 0.00781c-3.6679 0-6.6719-2.9213-6.6719-6.6504v-21.102c0-3.5876 3.004-6.5371 6.6719-6.5371l22.566 0.00586v-6.6289l-22.566-0.00196zm82.799 6.623c-0.94602 0-1.7465 0.60909-2.041 1.4512l-13.418 39.438h7.832l4.7559-14.01-0.01172 5.8887h15.535l-10.609-31.316c-0.28648-0.84208-1.0944-1.4512-2.041-1.4512h-0.00195zm-22.58 1.5449-21.857 0.00586c-2.7986 0-5.0664 2.2663-5.0664 5.0625v21.029h0.00195c0 2.8019 2.2678 5.0801 5.0664 5.0801h13.652v-14.822h-10.562v6.6289h3.9219l0.00976 1.5566h-3.9023c-0.85183 0-1.5488-0.70554-1.5488-1.5566l-0.0332-14.803s-0.00391-1.5398 1.5664-1.5781h18.762l-0.00976-6.6035zm-60.219 0.00586c-2.8031 0-5.0547 2.2663-5.0547 5.0625l-0.00781 9.7227h22.828v-6.6055h-16.221s0.02202-1.543 1.5781-1.543h19.443v-6.6367h-22.566zm-37.547 0.01172c-4.0826 0-7.4023 3.3136-7.4023 7.3848 0 4.0751 3.3192 7.375 7.4023 7.375l5.5176 0.07227c4.9558 0 8.9668 3.9951 8.9668 8.9219 0 4.9302-4.0104 8.9316-8.9668 8.9316h-21.154l-0.00781 6.6875 21.143-0.02149c8.6497 0 15.658-6.9806 15.658-15.584 0-8.6204-7.0085-15.604-15.658-15.604l-5.4922 0.0293c-0.43268 0-0.7832-0.35473-0.7832-0.79102 0-0.43625 0.35067-0.79101 0.7832-0.79101l21.105 0.00586 0.00586-6.6152-21.117-0.00195zm55.311 16.346-22.826 0.00195v9.7324c0 2.7883 2.2678 5.041 5.0625 5.041l22.467-0.00976 0.00391-6.582h-19.348s-1.5567-0.00594-1.5781-1.5625h16.219v-6.6211zm65.021 0.55274 2.3379 6.9414h-4.6934l2.3555-6.9414zm-248.76 34.975c-1.5188 2e-4 -2.9676 0.29567-4.3457 0.88671-1.3781 0.59083-2.587 1.3928-3.627 2.4062-1.04 1.0136-1.8696 2.224-2.4883 3.6309-0.61867 1.4069-0.92773 2.9267-0.92773 4.5586v11.57c0 3.3772 1.0549 6.1349 3.1641 8.2734 2.1091 2.1387 4.8507 3.207 8.2246 3.207h30.535v11.486h-40.994v11.48h40.994c3.542 0 6.3527-1.0547 8.4336-3.166 2.0807-2.1113 3.1211-4.8822 3.1211-8.3144v-11.486c-3.8e-5 -1.6319-0.29452-3.1509-0.88477-4.5586-0.5904-1.4077-1.4054-2.6181-2.4453-3.6308-1.0401-1.0126-2.2636-1.8135-3.6699-2.4043-1.4064-0.59104-2.9244-0.88672-4.5547-0.88672h-30.535v-11.57h38.211v-11.482h-38.211zm62.76 0c-1.5754 2e-4 -3.0506 0.29567-4.4277 0.88671-1.3772 0.59083-2.5861 1.3928-3.627 2.4062-1.0408 1.0136-1.8716 2.224-2.4902 3.6309-0.61868 1.4069-0.92778 2.9267-0.92774 4.5586v34.537c-4e-5 7.6546 3.8239 11.48 11.473 11.48h45.971v-34.447h-34.414v11.48h22.859v11.486h-34.416v-34.537h44.033v-11.482h-44.033zm94.666 0v11.482h11.557v34.537h-11.557v11.48h34.418v-11.48h-11.389v-46.02h-23.029zm53.5 0c-1.517 2e-4 -2.9637 0.29371-4.3418 0.88476-1.378 0.59083-2.5851 1.3928-3.625 2.4062-1.04 1.0136-1.8696 2.224-2.4883 3.6309-0.61864 1.4069-0.92969 2.9267-0.92969 4.5586v34.539c0 7.6546 3.7944 11.48 11.385 11.48h34.42c7.647 0 11.469-3.8258 11.469-11.48v-34.539c-1.1e-4 -1.5751-0.29466-3.0618-0.88476-4.4688-0.59044-1.4069-1.4035-2.6319-2.4434-3.6738-1.0401-1.0417-2.2656-1.8623-3.6719-2.4531-1.4064-0.59104-2.8951-0.88456-4.4687-0.88476h-34.42zm65.902 0c-1.5171 2e-4 -2.9638 0.29371-4.3418 0.88476-1.378 0.59083-2.585 1.3928-3.625 2.4062-1.0399 1.0136-1.8696 2.224-2.4883 3.6309s-0.92969 2.9267-0.92969 4.5586v34.539c0 7.6546 3.7943 11.48 11.385 11.48h34.418c7.647 0 11.469-3.8258 11.469-11.48v-34.539c-2e-5 -1.5751-0.29255-3.0618-0.88282-4.4688-0.59037-1.4069-1.4093-2.6319-2.4492-3.6738-1.04-1.0417-2.2656-1.8623-3.6719-2.4531-1.4064-0.59104-2.8912-0.88456-4.4648-0.88476h-34.418zm65.902 0c-1.517 2e-4 -2.9696 0.29371-4.3477 0.88476-1.378 0.59083-2.587 1.3928-3.627 2.4062-1.04 1.0136-1.8696 2.224-2.4883 3.6309s-0.92969 2.9267-0.92969 4.5586v34.539c0 7.6546 3.8022 11.48 11.393 11.48h34.412c7.647 0 11.469-3.8258 11.469-11.48v-34.539c-8e-5 -1.5751-0.29425-3.0618-0.88477-4.4688-0.5904-1.4069-1.4015-2.6319-2.4414-3.6738-1.04-1.0417-2.2656-1.8623-3.6719-2.4531-1.4064-0.59104-2.8971-0.88456-4.4707-0.88476h-34.412zm-131.8 11.48h34.42v34.539h-34.42v-34.539zm65.902 0h34.418v34.539h-34.418v-34.539zm65.902 0h34.412v34.539h-34.412v-34.539zm-225.26 11.572v11.48h34.416v-11.48h-34.416z" fill="#fafafa" stroke-linecap="round" stroke-width="6" style="paint-order:stroke markers fill"/>
 </g>
 <style type="text/css">.st0{fill:#FC0C18;}
	.st1{fill:#FC0C18;}</style>
</svg>
