<svg width="480" height="320" version="1.1" viewBox="0 0 480 320" xml:space="preserve" xmlns="http://www.w3.org/2000/svg"><defs><linearGradient id="a" x1="10.583" x2="127" y1="31.519" y2="64.411" gradientTransform="scale(3.7795)" gradientUnits="userSpaceOnUse"><stop stop-color="#c6262e" offset="0"/><stop stop-color="#a10705" offset="1"/></linearGradient></defs><rect width="480" height="320" ry="24" fill="url(#a)"/><path d="m290.8 108.92c-4.3442 0-7.9905 2.6774-9.1052 6.3341l-11.376 33.358v-24.138h-17.043v6.0006h11.022v16.293h-13.793c-3.3129 0-6.0216-2.6983-6.0216-6.0215v-19.106c0-3.3233 2.6877-6.0006 6.011-6.0006h19.835v-6.0215h-19.888c-6.6569 0-12.053 5.3756-12.053 12.022v19.096c0 6.6465 5.438 12.032 12.105 12.032l19.835 0.0104h4.9588l12.418-36.462c0.5209-1.2501 1.7397-2.0628 3.094-2.0628s2.5629 0.81271 3.0942 2.0524l10.345 30.462h-16.012v6.011h24.367l-12.689-37.514c-1.1042-3.6566-4.7713-6.3444-9.1051-6.3444zm-75.122 0.69791c-6.6674 0-12.064 5.3756-12.064 12.022v19.096c0.01 6.6465 5.4069 12.032 12.064 12.032l20.387 0.0104v-6.0006l-20.387 0.0104c-3.3233 0-6.0527-2.6565-6.0527-6.0423v-19.169c0-3.2608 2.7294-5.9381 6.0527-5.9381h20.471v-6.0215zm-34.056 0.0106c-7.8446 0-14.21 6.3338-14.21 14.158 0 7.8133 6.3652 14.147 14.21 14.147l4.9588 0.0104c0.375 0 0.6981 0.30224 0.6981 0.69812 0 0.38545-0.3231 0.68753-0.6981 0.68753l-19.158 0.0104 0.01 5.9902h19.189c3.7192 0 6.7195-3.0004 6.7195-6.6987 0-3.6983-3.0003-6.6985-6.7195-6.6985l-5.0005-0.0521c-4.49 0-8.1258-3.6358-8.1258-8.1155 0-4.4692 3.6462-8.1051 8.1258-8.1051h19.158l-0.01-6.0317zm109.06 6.0095c-0.7637 0.0484-1.463 0.54051-1.7287 1.314l-12.178 35.816h7.1049l4.313-12.72-0.01 5.3442h14.106l-9.6261-28.44c-0.1979-0.56256-0.6354-1.0105-1.2084-1.2084-0.2552-0.0886-0.517-0.12171-0.7716-0.1056zm-40.202 1.3974c-2.5419 0-4.5942 2.0627-4.5942 4.5942v19.096c0 2.5419 2.0627 4.6149 4.5942 4.6149h12.387v-13.449h-9.5844v6.0215h3.5524l0.01 1.4168h-3.542c-0.7709 0-1.4064-0.63545-1.4064-1.4168l-0.031-13.439c0.01-0.0104 0.01-1.4065 1.4375-1.4377h17.023l-0.01-6.0006zm-68.861 0.0104c-3.7087 0-6.7194 3.0108-6.7194 6.7091 0 3.6983 3.0107 6.6985 6.7194 6.6985l5.0005 0.0627c4.5005 0 8.1362 3.6253 8.1362 8.1049 0 4.4796-3.6357 8.1155-8.1362 8.1155h-19.189l-0.01 6.0736 19.179-0.0209c7.8445 0 14.21-6.3445 14.21-14.158 0-7.8237-6.3653-14.168-14.21-14.168l-4.9798 0.0313c-0.3959 0-0.7083-0.32299-0.7083-0.71886 0-0.39588 0.3124-0.71887 0.7083-0.71887h19.148l0.01-6.011zm34.066 0c-2.5419 0-4.5838 2.0627-4.5838 4.5942l-0.01 8.8343h20.71v-6.0006h-14.72s0.021-1.4064 1.4377-1.4064h17.637v-6.0215zm-4.5941 14.856v8.8343c0 2.5315 2.0626 4.5734 4.5941 4.5734l20.388-0.0106v-5.9796h-17.554s-1.4169-0.0106-1.4377-1.417h14.72v-6.0006zm79.706 0.50013 2.1253 6.3027h-4.2609zm-243.86 33.816c-3.8337 0-6.9384 3.1044-6.9384 6.9382v12.897c0 3.8337 3.1047 6.9382 6.9384 6.9382h41.869v9.949h-48.807v8.1362h51.953c3.8338 0 6.9382-3.1044 6.9382-6.9382v-12.345c0-3.8233-3.1149-6.9382-6.9382-6.9382h-41.869v-10.501h48.807v-8.1362zm64.517 0c-3.8338 0-6.9382 3.1044-6.9382 6.9382v30.982c0 3.8337 3.1044 6.9382 6.9382 6.9382h51.953v-26.221h-31.618v8.1362h21.533v9.949h-38.723v-28.586h48.807v-8.1362zm86.415 0v8.1362h10.553v28.586h-13.449v8.1362h35.764v-8.1362h-12.241v-36.723zm45.442 0c-3.8337 0-6.9384 3.1044-6.9384 6.9382v30.982c0 3.8337 3.1047 6.9382 6.9384 6.9382h50.245c3.8337 0 6.9382-3.1044 6.9382-6.9382v-30.982c0-3.8337-3.1045-6.9382-6.9382-6.9382zm69.747 0c-3.8337 0-6.9383 3.1044-6.9383 6.9382v30.982c0 3.8337 3.1046 6.9382 6.9383 6.9382h50.245c3.8337 0 6.9382-3.1044 6.9382-6.9382v-30.982c0-3.8337-3.1045-6.9382-6.9382-6.9382zm69.757 0c-3.8337 0-6.9381 3.1044-6.9381 6.9382v30.982c0 3.8337 3.1044 6.9382 6.9381 6.9382h50.245c3.8337 0 6.9384-3.1044 6.9384-6.9382v-30.982c0-3.8337-3.1047-6.9382-6.9384-6.9382zm-136.36 8.1362h43.952v28.586h-43.952zm69.747 0h43.952v28.586h-43.952zm69.757 0h43.952v28.586h-43.952zm-217.6 10.501v8.1362h18.658v-8.1362z" fill="#fff"/></svg>
