<svg width="480" height="320" version="1.1" viewBox="0 0 127 84.667" xmlns="http://www.w3.org/2000/svg" xmlns:xlink="http://www.w3.org/1999/xlink">
 <defs>
  <linearGradient id="a" x1="106.95" x2="98.318" y1="-12.749" y2="98.324" gradientUnits="userSpaceOnUse">
   <stop stop-color="#c6262e" offset="0"/>
   <stop stop-color="#002e99" offset=".53869"/>
   <stop stop-color="#273445" offset="1"/>
  </linearGradient>
 </defs>
 <rect width="127" height="84.667" ry="4.2333" fill="url(#a)" stroke-linecap="square" stroke-linejoin="round" stroke-width=".52917" style="paint-order:stroke fill markers"/>
 <g transform="translate(-3.1589e-7 8.838)" fill="#fafafa">
  <g transform="matrix(.35508 0 0 .35508 90.408 63.307)" fill-opacity=".7">
   <path d="m-167.97-58.526 4.3392-9.6838 1.905 9.6838h-6.2442m61.41-25.321-11.774 27.384-5.2123-27.384h-10.134l-14.42 40.349-6.7469-40.349h-12.647l-19.156 43.498 2.8575-18.177h-19.024l-1.5081 9.3662h7.9904l-0.92604 5.0006c-4.5508 1.8785-12.277 1.1642-15.584-4.7625-2.0902-3.7571-4.0481-12.118 4.7625-19.817 7.1967-6.2706 19.632-7.4083 26.802-4.1275 0 0 0.89959-5.2652 1.5875-10.134-13.785-4.7625-24.5-0.79375-31.671 3.6512-9.816 6.006-14.526 15.24-13.229 27.781 1.4552 14.526 20.267 23.707 36.221 14.446 0.18521-0.07937 0.26458-0.15875 0.42333-0.18521l-1.5346 3.3867h10.716l6.7469-14.949h11.853l2.5929 14.949h17.462l8.89-27.914 7.3025 27.914h6.8262l11.721-30.903 4.6302 31.089h10.239l-3.7306-50.112z" stroke-width=".26458"/>
   <path transform="matrix(.26458 0 0 .26458 -225.04 -85.143)" d="m508.5 194.4h108.1l6.5-40.4h-67.6l5.3-33.7h58.9l6.4-40.5h-59.4l5.1-33.5h67.7l6.4-40.5h-107.3l-30.1 188.6"/>
   <path transform="matrix(.26458 0 0 .26458 -225.04 -85.143)" d="m1043.8 65.1-24.2-61.5h-44.4l45.8 99.5-14.2 89.1h38.9l11.8-78.8 69.9-109.8h-45.4l-38.2 61.5"/>
   <path d="m26.944-54.054c-2.7517 8.255-9.4192 13.07-14.843 10.61-5.3975-2.4077-7.5935-11.112-4.8154-19.42 2.7781-8.3344 9.4192-13.044 14.817-10.636 5.424 2.4342 7.62 11.139 4.8419 19.447m-3.9952-29.342c-11.377-2.6194-23.204 6.4294-26.405 20.214-3.1485 13.811 3.466 27.12 14.817 29.766 11.377 2.5929 23.178-6.4558 26.405-20.241 3.1485-13.811-3.4925-27.12-14.817-29.739z" stroke-width=".26458"/>
   <path d="m-23.618-63.447h-7.0908l1.561-9.2604h6.6675c7.2496 0 5.7679 9.2604-1.1377 9.2604m-1.2435 20.161h-9.0487l1.5875-9.9483h8.5725c8.1756 0 7.9375 9.9483-1.1112 9.9483zm6.006-39.979c-5.5298-0.07937-19.209 0-19.209 0h0.10583l-7.9375 49.556h23.098c9.525 0 23.416-13.996 10.742-25.426 12.965-13.467 0.10583-23.971-6.7998-24.13z" stroke-width=".26458"/>
  </g>
  <path d="m53.015 36.35c-0.28144-0.14413-0.86013-0.68064-0.93529-0.86711-0.0307-0.07606-0.14039-0.23354-0.24385-0.34996-0.28803-0.32408-0.29356-0.35092-0.13988-0.6793 0.4646-0.99284 2.1569-3.1388 5.1397-6.5173 0.43166-0.48894 0.7781-0.8958 0.76985-0.90412-8e-3 -0.0083-0.35425 0.16584-0.76891 0.38702-1.6641 0.88765-4.6927 2.3256-5.7492 2.7296-0.90109 0.34459-1.4379 0.37345-1.9378 0.10421-0.24006-0.12929-0.64429-0.52069-0.79263-0.76748-0.0582-0.09684-0.18879-0.285-0.29017-0.41815-0.34828-0.4574-0.4317-0.72329-0.34855-1.111 0.0263-0.12261 0.0424-0.22836 0.0357-0.235-7e-3 -0.0066-0.25945 0.13175-0.56179 0.30752-2.9418 1.7103-6.1149 3.231-7.5346 3.6108-0.84687 0.22656-1.5024 0.04582-1.9051-0.52522-0.0931-0.13199-0.25631-0.35815-0.36276-0.50258-0.24449-0.33172-0.5055-0.78453-0.63301-1.0981-0.0905-0.22264-0.0947-0.26461-0.0503-0.50349 0.19345-1.0403 1.8205-2.9496 4.5598-5.3509 1.008-0.88368 3.3051-2.7512 4.2614-3.4645l0.15507-0.11567 0.55129 0.77479c0.90689 1.2746 0.98005 1.3806 0.98005 1.421 0 0.02128-0.35653 0.31322-0.79228 0.64875-1.6911 1.3022-3.3877 2.6783-4.3723 3.5466-0.68501 0.60404-2.067 1.9141-2.2705 2.1523l-0.19355 0.22656 0.26894-0.10148c3.9553-1.4924 9.0105-4.5029 13.323-7.934 0.33433-0.26601 0.62208-0.46764 0.63944-0.44807 0.0247 0.02789 0.77818 1.1057 1.4108 2.0182l0.0832 0.11998-0.56633 0.54085c-0.60119 0.57414-1.9707 2.0143-2.6189 2.754-0.7391 0.84341-1.6471 2.0082-1.6013 2.054 0.0353 0.03525 1.3858-0.64905 2.151-1.0899 1.007-0.58012 2.2665-1.3449 4.5408-2.7571 3.8398-2.3844 5.0819-3.1043 5.8634-3.3986 0.41302-0.15552 0.50995-0.13989 0.75777 0.12225 0.21966 0.23235 0.60892 0.74748 1.0796 1.4287l0.27787 0.40216-0.28025 0.30147c-0.15414 0.16581-0.64942 0.69516-1.1006 1.1763s-0.81301 0.88223-0.804 0.89123c9e-3 9e-3 0.16862-0.07033 0.35471-0.17629 1.05-0.59788 2.6774-1.3724 3.8957-1.854 1.6967-0.67074 4.0654-1.3476 4.6976-1.3423 0.52739 0.0044 1.0815 0.35772 1.3528 0.86264 0.0667 0.12409 0.18701 0.29952 0.26742 0.38986 0.25386 0.28522 0.36339 0.58402 0.38267 1.0439 0.0146 0.34808 2e-3 0.44553-0.0881 0.70595-0.16835 0.4841-0.42266 0.81419-1.2657 1.6429-1.2808 1.259-2.3474 2.1377-3.6548 3.011-3.5558 2.3749-6.532 2.7193-8.6479 1.0008-0.0997-0.081-0.2045-0.13786-0.23283-0.12635-0.0922 0.03744-1.1537 0.90865-1.8598 1.5263-1.5065 1.318-2.9107 2.7192-4.2177 4.209-0.40734 0.46428-0.59104 0.64402-0.65821 0.64402-0.0512 0-0.19547-0.05239-0.3205-0.11642zm10.884-7.5899c1.783-0.36122 4.0841-1.7545 6.412-3.8824 0.27143-0.24811 0.47269-0.45805 0.44724-0.46653-0.0676-0.02254-0.93612 0.25488-1.775 0.56696-1.948 0.7247-3.967 1.7421-5.9146 2.9805-0.87461 0.55611-1.1419 0.74462-1.0952 0.77247 0.0392 0.02339 0.42956 0.10608 0.62812 0.13307 0.23363 0.03176 0.88478-0.02047 1.2974-0.10407zm-52.064 4.4434c-0.24213-0.04952-0.42381-0.19998-0.55253-0.45758-0.0674-0.13486-0.19958-0.32225-0.29376-0.41643-0.10151-0.10151-0.20751-0.26822-0.26035-0.40945-0.18274-0.4884-0.19469-1.2503-0.0262-1.6669 0.0935-0.23112 0.35155-0.45203 0.60545-0.51835 0.30181-0.07884 1.1951-0.1036 1.5944-0.0442 0.40277 0.05992 0.54745 0.1519 0.63316 0.40254l0.0572 0.16709 0.22695-0.0103c0.43208-0.01961 2.4757-0.17882 3.6559-0.28483 5.2046-0.46746 10.374-1.1753 13.61-1.8634 1.8691-0.3975 3.4713-0.89334 3.4713-1.0743 0-0.05474-0.169-0.1241-0.99482-0.40828-1.4869-0.51168-4.991-1.5521-6.9638-2.0677-1.2664-0.33096-1.5764-0.43389-1.861-0.6178-0.36438-0.23552-0.57052-0.43702-0.7931-0.77531-0.10927-0.16606-0.25934-0.37813-0.33349-0.47126-0.42727-0.53664-0.65613-1.222-0.73624-2.2048-0.0277-0.34031-0.0247-0.51969 0.0106-0.63488 0.0555-0.18083 0.42253-0.59841 0.68319-0.7773 0.76018-0.52168 2.4578-1.2689 4.1922-1.8454 1.3086-0.43489 1.6678-0.52872 4.3622-1.1393 2.2276-0.5048 4.2845-0.73069 6.2647-0.688 1.4809 0.03192 2.286 0.14791 3.3111 0.47699 0.54852 0.17608 0.74853 0.32285 0.98464 0.72256 0.0806 0.13649 0.2108 0.32436 0.28926 0.41749 0.18933 0.22472 0.48932 0.84944 0.60985 1.27 0.0827 0.28855 0.0969 0.43576 0.0962 0.99482-9.6e-4 0.73242-0.051 0.93345-0.33071 1.3268-0.41354 0.58166-1.6669 1.3842-2.9914 1.9155-0.72179 0.28952-1.2047 0.23819-1.3095-0.13918-0.0246-0.08852-0.0448-0.1939-0.0449-0.23417-1.3e-4 -0.0429-0.0717-0.10967-0.17277-0.16124-0.11352-0.05791-0.19287-0.1367-0.23199-0.23033-0.0666-0.15931-0.14514-0.76755-0.14504-1.1227 1.3e-4 -0.43443 0.30244-0.87472 0.66528-0.96889 0.0877-0.02276 0.2928-0.07386 0.45578-0.11354 0.92607-0.2255 2.3918-0.86118 2.3918-1.0373 0-0.05386-0.62522-0.24442-1.1642-0.35484-1.6421-0.33642-3.1322-0.30324-5.7361 0.12771-2.7813 0.46031-5.5623 1.2201-7.8528 2.1456-1.005 0.40606-2.4775 1.1063-2.4261 1.1538 7e-3 0.0067 0.59411 0.16765 1.3042 0.35778 4.0881 1.0945 6.9408 1.9465 7.7325 2.3094 0.65496 0.30022 1.3418 0.84627 1.5706 1.2486 0.0596 0.10477 0.1823 0.28063 0.27275 0.39079 0.36796 0.44816 0.59199 1.2328 0.59553 2.0857 3e-3 0.7269-0.13727 1.1532-0.5128 1.5581-0.46108 0.49717-2.0589 1.0586-4.3484 1.5279-3.1238 0.64031-8.6236 1.2933-15.893 1.887-2.7648 0.2258-3.5391 0.27889-3.6717 0.25177zm62.557-1.1184c-0.71238-0.14368-1.1409-0.4242-1.5522-1.016-0.14561-0.20955-0.34188-0.49297-0.43615-0.62982-0.24253-0.35208-0.31766-0.63124-0.31471-1.1693 3e-3 -0.53355 0.0775-0.84013 0.33921-1.3952 0.72993-1.5478 2.578-3.3713 5.0753-5.0077 3.1846-2.0868 5.9106-3.0091 7.3236-2.4777 0.33983 0.1278 0.80962 0.55962 0.9905 0.91042 0.0267 0.05187 0.14147 0.21698 0.25495 0.3669 0.29736 0.39286 0.39222 0.67108 0.41289 1.2109 0.0231 0.60185-2e-3 0.64692-0.66352 1.1932-3.0726 2.5373-6.0047 3.9479-8.4063 4.0441-0.68169 0.0273-1.1489-0.0257-1.6245-0.18428-0.31037-0.10349-0.31644-0.10386-0.38099-0.02343-0.0361 0.04496-0.20098 0.24136-0.36645 0.43646-0.5057 0.59628-0.79808 1.0818-0.8299 1.3781-0.0109 0.10173 8e-3 0.12021 0.17825 0.17196 0.73013 0.22223 2.2479 0.01297 3.8874-0.53597 3.7892-1.2687 8.2936-4.1044 13.109-8.2528 0.25611-0.22063 0.50079-0.43346 0.54371-0.47296 0.0755-0.06951 0.0743-0.07775-0.0382-0.25716-0.0639-0.10195-0.1981-0.29013-0.29819-0.41819-0.38301-0.49006-0.6366-1.2319-0.59549-1.7421 0.0796-0.98722 1.0813-1.451 2.0859-0.96577 0.29763 0.14376 0.64049 0.46267 0.80782 0.75136 0.0636 0.10983 0.1908 0.29494 0.28254 0.41136 0.2708 0.34364 0.37382 0.61298 0.39824 1.0412 0.026 0.45582-0.0329 0.78403-0.22943 1.279-0.095 0.23924-0.13435 0.39097-0.10978 0.42333 0.31405 0.41358 0.83757 1.0304 1.1747 1.384 0.23311 0.2445 0.47921 0.53977 0.54689 0.65616 0.0677 0.11639 0.18338 0.28781 0.25711 0.38095 0.30247 0.38208 0.46624 0.77401 0.51263 1.2268 0.0473 0.462-0.0343 0.74742-0.57876 2.0232-0.27854 0.65271-0.49684 1.1964-0.48511 1.2081 0.0117 0.01173 0.17867-0.0014 0.37098-0.02918 5.5696-0.80456 11.61-1.0596 15.611-0.65919 1.5864 0.15876 3.039 0.44732 3.8984 0.7744 0.16075 0.06119 0.33112 0.28555 0.36161 0.47623 0.0216 0.13528 0.0532 0.17927 0.16744 0.23349 0.29855 0.14167 0.40074 0.60817 0.31536 1.4395-0.0284 0.27676-0.0547 0.5055-0.0583 0.5083-4e-3 0.0028-0.60672 0.03649-1.3401 0.07486s-1.4397 0.08043-1.5695 0.09345l-0.236 0.02368 0.0386-0.73585-0.51912 0.06024v-0.13116c0-0.0765-0.022-0.13131-0.0529-0.13153-0.0291-2.08e-4 -0.38629-0.03744-0.79374-0.08275-2.6323-0.29271-4.4268-0.34514-7.1754-0.20962-2.5814 0.12728-5.5055 0.44904-9.248 1.0177-0.63865 0.09703-1.1786 0.15919-1.2563 0.14462-0.27583-0.05175-0.77613-0.63761-1.3806-1.6168-0.1829-0.29625-0.20108-0.34929-0.20108-0.58657 0-0.37919 0.10719-0.66237 0.76102-2.0105 0.8604-1.774 1.073-2.2861 1.094-2.6344l0.0171-0.28494-0.41961-0.51939c-0.23079-0.28566-0.51025-0.63845-0.62103-0.78397-0.11079-0.14552-0.21501-0.26458-0.23161-0.26458s-0.2298 0.1746-0.47377 0.38799c-1.4958 1.3083-3.1547 2.6604-4.5922 3.7427-4.6601 3.5087-8.4847 5.4335-11.472 5.7735-0.53294 0.06065-1.9271 0.04871-2.2648-0.0194zm3.744-6.1851c1.4295-0.3615 3.449-1.4575 5.5692-3.0224 0.67549-0.49858 0.6611-0.48199 0.38847-0.44776-0.85663 0.10756-2.5936 0.80868-3.9868 1.6093-0.90948 0.52262-2.239 1.4353-2.7516 1.889l-0.14816 0.13111 0.25156-0.02574c0.13836-0.01416 0.44316-0.07419 0.67733-0.13341z" stroke-width=".042333"/>
 </g>
 <style type="text/css">.st0{fill:#FC0C18;}
	.st1{fill:#FC0C18;}</style>
 <style type="text/css">.st0{fill:#FC0C18;}
	.st1{fill:#FC0C18;}</style>
</svg>
