<svg width="480" height="320" version="1.1" viewBox="0 0 127 84.667" xmlns="http://www.w3.org/2000/svg">
 <defs>
  <linearGradient id="a" x2="65.708" y2="76.729" gradientUnits="userSpaceOnUse">
   <stop stop-color="#005120" offset="0"/>
   <stop stop-color="#000702" offset="1"/>
  </linearGradient>
 </defs>
 <rect width="127" height="84.667" ry="4.2333" fill="url(#a)" stroke-linecap="square" stroke-linejoin="round" stroke-width=".52917" style="paint-order:stroke fill markers"/>
 <path transform="matrix(.26458 0 0 .26458 -.00025 0)" d="m61.014 109.31c-1.2903 0-2.4574 0.12249-3.502 0.42969-1.0445 0.24577-1.9649 0.67732-2.7637 1.1074-0.86021 0.49155-1.536 0.98322-2.1504 1.5977-0.61444 0.55299-1.107 1.1668-1.5371 1.7812-0.9831 1.4132-1.7203 3.0727-2.1504 4.916l-1.4141 8.1094c-0.24578 1.4132-0.30647 2.7037-0.18359 3.8711 0.12289 1.1674 0.30695 2.2121 0.55273 3.0723 0.24578 0.98309 0.61482 1.9054 1.0449 2.7656l7.127 13.887c0.67588 1.1674 1.2917 2.3345 1.7832 3.502 0.36866 0.9831 0.73577 2.0895 1.043 3.3184 0.24574 1.2289 0.30737 2.396 0.12305 3.502l-1.2891 7.4336c-0.061451 0.36866-0.24731 0.73768-0.43164 1.0449-0.13825 0.23041-0.31021 0.39257-0.51758 0.5625-0.069123 0.05664-0.14195 0.11434-0.21875 0.17578-0.26882 0.16132-0.63105 0.27474-1.0469 0.30078-0.059404 0.00372-0.1202 0.00586-0.18164 0.00586h-5.1621c-0.49155 0-0.85969-0.06086-1.1055-0.30664-0.24577-0.24577-0.36932-0.4925-0.49219-0.73828-0.061455-0.30722-0.122-0.67627-0.060547-1.0449l2.6426-15.053h-8.2949l-2.6426 15.053c-0.18433 1.8433-0.061861 3.5028 0.42969 4.916 0.24578 0.61445 0.49177 1.1668 0.92188 1.7813 0.4301 0.61443 0.92178 1.1676 1.5977 1.5976 0.67588 0.43011 1.4748 0.80022 2.3965 1.1074 0.92165 0.30724 2.028 0.42969 3.3184 0.42969h5.1602c1.2903 0 2.4574-0.12245 3.502-0.42969 0.13057-0.03072 0.25999-0.06504 0.38672-0.09961 0.88709-0.24193 1.68-0.5777 2.3789-1.0078 0.21505-0.12289 0.41935-0.24433 0.61328-0.36914 0.58179-0.37442 1.0763-0.76769 1.5371-1.2285 0.076805-0.06914 0.15153-0.13807 0.22461-0.20899 0.51159-0.49647 0.93616-1.0346 1.3125-1.5723 0.61444-0.88325 1.1316-1.8616 1.5391-2.9219 0.24445-0.63616 0.45004-1.3029 0.61133-1.9941l1.4121-8.1094c0.24578-1.4132 0.30842-2.7037 0.18555-3.8711-0.12289-1.1674-0.30891-2.2121-0.55469-3.0723-0.24577-0.98311-0.61286-1.9054-1.043-2.7656l-7.252-13.887c-0.67588-1.1674-1.2897-2.3345-1.7812-3.502-0.36866-0.9831-0.73772-2.0895-1.0449-3.3184-0.24574-1.2289-0.30737-2.396-0.12305-3.502l1.4141-7.4336c0.007681-0.04608 0.018016-0.09271 0.029297-0.13867 0.078969-0.32174 0.2391-0.63745 0.40039-0.90625 0.18433-0.30722 0.43104-0.4925 0.73828-0.73828 0.30722-0.18437 0.73697-0.30664 1.2285-0.30664h5.1602c0.49155 0 0.86164 0.06086 1.1074 0.30664 0.24577 0.24577 0.36736 0.4925 0.49023 0.73828 0.061455 0.30722 0.12396 0.67627 0.0625 1.0449l-2.6426 15.053h8.2949l2.6426-15.053c0.18433-1.8433 0.061861-3.5028-0.42969-4.916-0.24577-0.61444-0.55322-1.1668-0.92188-1.7812-0.4301-0.61444-0.92178-1.1061-1.5977-1.5977-0.67588-0.4301-1.4748-0.80019-2.3965-1.1074s-2.028-0.42969-3.3184-0.42969h-5.1621zm21.076 0-10.568 59.293c-0.18433 1.8433-0.06186 3.5028 0.42969 4.916 0.21505 0.53765 0.43099 1.0288 0.76953 1.5547 0.048363 0.07513 0.098581 0.14975 0.15234 0.22657 0.37634 0.53763 0.80076 1.0292 1.3535 1.4316 0.078966 0.05748 0.15966 0.11225 0.24414 0.16601 0.50691 0.32258 1.0834 0.61178 1.7285 0.86524 0.21505 0.08448 0.43755 0.16538 0.66797 0.24218 0.92165 0.30724 2.028 0.42969 3.3184 0.42969h5.1602c1.2903 0 2.4574-0.12245 3.502-0.42969 0.13057-0.03072 0.25999-0.06504 0.38672-0.09961 0.88709-0.24193 1.68-0.5777 2.3789-1.0078 0.21505-0.12289 0.41935-0.24433 0.61328-0.36914 0.5818-0.37442 1.0763-0.76769 1.5371-1.2285 0.61444-0.55301 1.107-1.1668 1.5371-1.7813 0.9831-1.4132 1.7203-3.0727 2.1504-4.916l10.445-59.293h-8.2949l-10.445 59.293c-0.061451 0.36866-0.24536 0.73768-0.42969 1.0449s-0.43104 0.4925-0.73828 0.73828c-0.30722 0.18437-0.73697 0.30664-1.2285 0.30664h-5.1621c-0.49155 0-0.85969-0.06086-1.1055-0.30664-0.24577-0.24577-0.36932-0.4925-0.49219-0.73828-0.061455-0.30722-0.122-0.67627-0.060547-1.0449l10.445-59.293h-8.2949zm31.459 0-12.166 69.125h8.2949l5.2988-30.107h7.2363c0.16129 0 0.32107-0.0019 0.47852-0.00586 1.1021-0.02772 2.1095-0.155 3.0234-0.42383 1.0445-0.24577 1.9669-0.61587 2.7656-1.1074 0.86021-0.49155 1.536-0.98322 2.1504-1.5977 0.61443-0.55299 1.105-1.1668 1.5352-1.7812 0.98309-1.4132 1.7203-3.0727 2.1504-4.916l3.4414-19.354c0.18433-1.8433 0.06187-3.5028-0.42969-4.916-0.24577-0.61444-0.55322-1.1668-0.92187-1.7812-0.4301-0.61444-0.92178-1.1061-1.5977-1.5977-0.67588-0.4301-1.4748-0.80019-2.3965-1.1074s-2.028-0.42969-3.3184-0.42969h-15.545zm55.668 0-12.105 69.062h8.2949l5.2852-30.045h7.25c0.49154 0 0.85967 0.06086 1.1055 0.30664 0.24576 0.24577 0.36931 0.4925 0.49218 0.73828 0.06146 0.30722 0.12396 0.67432 0.0625 1.043l-4.916 28.02h8.2949l4.9141-28.02c0.02304-0.16129 0.04137-0.31896 0.05469-0.47461 0.09324-1.0895-0.05427-2.0441-0.48438-2.9043-0.49154-0.98309-1.1671-1.8427-2.0273-2.5801 1.106-0.73732 2.089-1.597 2.9492-2.5801 0.86021-0.9831 1.3519-2.0906 1.5977-3.3809l3.4414-19.354c0.18433-1.8433 0.06186-3.5028-0.42969-4.916-0.24577-0.61444-0.55322-1.1668-0.92187-1.7812-0.43011-0.61444-0.92178-1.1061-1.5977-1.5977-0.67588-0.4301-1.4748-0.80019-2.3965-1.1074s-2.028-0.42969-3.3184-0.42969h-15.545zm48.664 0-12.166 69.125h8.2949l12.166-69.125h-8.2949zm8.2949 0-4.8555 27.65 4.4238 41.475 4.8555-27.65-4.4238-41.475zm11.797 0-12.166 69.125h8.2949l12.166-69.125h-8.2949zm13.824 0-12.166 69.125h8.2949l12.166-69.125h-8.2949zm13.824 0-12.166 69.125h8.2949l12.166-69.125h-8.2949zm8.2949 0-4.8535 27.65 4.4238 41.475 4.8535-27.65-4.4238-41.475zm-0.42969 69.125h8.2949l12.166-69.125h-8.2949l-12.166 69.125zm25.99-69.125-1.3516 7.8047h5.5293l-10.812 61.32h9.3379l10.814-61.32h5.5312l1.3516-7.8047h-20.4zm25.93 0-12.166 69.186h18.68l1.3516-7.8027h-10.385l3.9336-22.305h10.383l1.3516-7.8027h-10.383l4.1777-23.471h10.383l1.3535-7.8047h-18.68zm24.209 0-12.166 69.125h8.2949l12.166-69.125h-8.2949zm8.2949 0-4.8535 27.65 4.4238 41.475 4.8535-27.65-4.4238-41.475zm-0.42969 69.125h8.2949l12.164-69.125h-8.2949l-12.164 69.125zm25.99-69.125-12.166 69.125h16.221c0.16129 0 0.32107-0.0019 0.47852-0.00586 1.1021-0.02772 2.1095-0.15499 3.0234-0.42383 1.0445-0.24577 1.9669-0.61587 2.7656-1.1074 0.86022-0.49155 1.536-0.98322 2.1504-1.5976 0.61443-0.55301 1.105-1.1668 1.5352-1.7813 0.98308-1.4132 1.7222-3.0727 2.1523-4.916l8.7852-49.461c0.18432-1.8433 0.06183-3.5028-0.42969-4.916-0.24578-0.61444-0.55337-1.1668-0.92188-1.7812-0.43011-0.61444-0.92176-1.1061-1.5976-1.5977-0.67589-0.4301-1.4748-0.80019-2.3965-1.1074-0.92167-0.30723-2.028-0.42969-3.3184-0.42969h-16.281zm42.518 0c-0.16129 0-0.31911 0.0019-0.47656 0.00586-1.1022 0.02772-2.1114 0.15503-3.0254 0.42383-0.78341 0.18433-1.4974 0.47317-2.1426 0.78711-0.21506 0.10464-0.42139 0.21278-0.62109 0.32031-0.86018 0.49155-1.536 0.98322-2.1504 1.5977-0.46083 0.41474-0.85267 0.86432-1.2012 1.3223-0.11616 0.15265-0.22841 0.30538-0.33593 0.45899-0.98309 1.4132-1.7203 3.0727-2.1504 4.916l-8.7246 49.461c-0.18437 1.8433-0.06184 3.5028 0.42968 4.916 0.21506 0.53765 0.43098 1.0288 0.76954 1.5547 0.04836 0.07513 0.09858 0.14975 0.15234 0.22657 0.37634 0.53763 0.79881 1.0292 1.3516 1.4316 0.07897 0.05748 0.1616 0.11225 0.2461 0.16601 0.50691 0.32258 1.0834 0.61178 1.7285 0.86524 0.21505 0.08448 0.43756 0.16538 0.66797 0.24218 0.92167 0.30724 2.0281 0.42969 3.3184 0.42969h5.1602c1.2903 0 2.4574-0.12245 3.502-0.42969 0.13057-0.03072 0.25999-0.06504 0.38672-0.09961 0.88709-0.24193 1.68-0.5777 2.3789-1.0078 0.21506-0.12289 0.41935-0.24433 0.61328-0.36914 0.5818-0.37442 1.0763-0.76769 1.5371-1.2285 0.61444-0.55301 1.107-1.1668 1.5371-1.7813 0.98313-1.4132 1.7203-3.0727 2.1504-4.916l8.7246-49.461c0.18433-1.8433 0.06188-3.5028-0.42968-4.916-0.24575-0.61444-0.55338-1.1668-0.92188-1.7812-0.43011-0.61444-0.9218-1.1061-1.5977-1.5977-0.67589-0.4301-1.4748-0.80019-2.3965-1.1074-0.92163-0.30723-2.0281-0.42969-3.3184-0.42969h-5.1621zm-280.98 0.0625-12.166 69.123h18.68l1.3516-7.8027h-10.385l3.9336-22.305h10.383l1.3516-7.8027h-10.383l4.1777-23.41h10.385l1.3516-7.8027h-18.68zm-24.516 7.6191h7.25c0.49155 0 0.85968 0.06086 1.1055 0.30664 0.24576 0.24578 0.36931 0.49055 0.49218 0.73633 0.06146 0.30722 0.12201 0.67627 0.06055 1.0449l-3.4394 19.355c-0.06145 0.36866-0.24536 0.73769-0.42969 1.0449-0.18433 0.30722-0.43104 0.49055-0.73828 0.73633-0.30722 0.18433-0.73697 0.30859-1.2285 0.30859h-7.2148l4.1426-23.533zm55.605 0.06055h7.3125c0.49154 0 0.85968 0.06086 1.1055 0.30664 0.24578 0.24577 0.36932 0.4925 0.49219 0.73828 0.06146 0.30722 0.122 0.67627 0.06055 1.0449l-3.4394 19.354c-0.06145 0.36866-0.24732 0.73768-0.43164 1.0449-0.18433 0.30722-0.4291 0.4925-0.73633 0.73828-0.30722 0.18437-0.73697 0.30664-1.2285 0.30664h-7.25l4.1152-23.533zm214.32 0h7.9258c0.49157 0 0.8598 0.06086 1.1055 0.30664 0.24586 0.24577 0.36936 0.4925 0.49219 0.73828 0.06161 0.30722 0.12215 0.67627 0.06055 1.0449l-8.7246 49.4c-0.06161 0.36866-0.24525 0.73769-0.42969 1.0449-0.18433 0.30722-0.43101 0.49055-0.73828 0.73633-0.3072 0.18433-0.73695 0.30664-1.2285 0.30664h-7.9258l9.4629-53.578zm34.162 0.0625h5.1621c0.49153 0 0.8598 0.06086 1.1055 0.30664 0.2459 0.24577 0.36935 0.49055 0.49219 0.73633 0.06123 0.30721 0.12215 0.67627 0.06054 1.0449l-8.7246 49.4c-0.06162 0.36866-0.24525 0.73768-0.42969 1.0449-0.18433 0.30722-0.43101 0.4925-0.73828 0.73828-0.30724 0.18437-0.73699 0.30664-1.2285 0.30664h-5.1621c-0.49156 0-0.8598-0.06086-1.1055-0.30664-0.24585-0.24577-0.36934-0.4925-0.49219-0.73828-0.0616-0.30722-0.12215-0.67627-0.06054-1.0449l8.7246-49.4c0.0616-0.36866 0.24523-0.73772 0.42969-1.0449 0.18436-0.30722 0.431-0.49055 0.73828-0.73633 0.3072-0.18433 0.73695-0.30664 1.2285-0.30664zm-384.58 65.928v27.65h400v-27.65h-400zm286.08 3.0723c1.9048 0 3.2559 0.49151 4.0547 1.4746 0.67588 0.92165 0.85995 2.2739 0.55273 4.1172 0 0.06147-0.05967 0.30804-0.12109 0.61524h-2.8281c0.06146-0.30724 0.06163-0.49324 0.12305-0.55469 0.12287-0.67588 0.12305-1.1674 0.12305-1.4746-0.18433-1.2289-0.92078-1.8418-2.334-1.8418-0.92165 0-1.6599 0.3064-2.2129 0.85937-0.49155 0.49155-0.79898 1.1055-0.92187 1.9043-0.12287 0.73732-0.06024 1.2916 0.18554 1.7832 0.30721 0.67588 0.8605 1.2272 1.7207 1.7188l1.6582 0.98438c1.4746 0.92165 2.4586 1.842 2.8887 2.7637 0.36866 0.79876 0.42937 1.8444 0.1836 3.1348-0.30724 1.8433-1.1667 3.2571-2.457 4.2402-1.1674 0.86021-2.5814 1.2285-4.3633 1.2285-2.0276 0-3.502-0.49151-4.3008-1.4746-0.79876-0.92165-0.983-2.3971-0.67578-4.3633 0.06146-0.18432 0.12319-0.55353 0.2461-1.168h2.8262c-0.06146 0.36866-0.12409 0.67594-0.18555 0.79883-0.18433 1.106-0.18433 1.9676 0 2.582 0.3072 0.92166 1.1062 1.3516 2.3965 1.3516 1.1674 0 2.0282-0.36904 2.6426-1.0449 0.49155-0.55299 0.85954-1.2296 0.98242-2.0898 0.18434-0.9831 2.6e-4 -1.7812-0.55273-2.457-0.4301-0.49155-1.1666-1.1054-2.334-1.7812-1.1674-0.67588-2.0887-1.3524-2.7031-1.9668-0.9831-0.98309-1.353-2.3344-0.98437-4.1777 0.30723-1.7204 1.0455-3.0119 2.2129-3.9336 1.106-0.86021 2.5188-1.2285 4.1777-1.2285zm39.447 0c1.9048 0 3.2559 0.49151 4.0547 1.4746 0.67588 0.92165 0.9214 2.2739 0.55274 4.1172 0 0.06147-0.06163 0.30804-0.12305 0.61524h-2.8262c0.06145-0.30724 0.06163-0.49324 0.12305-0.55469 0.12287-0.67588 0.12304-1.1674 0.12304-1.4746-0.18432-1.2289-0.92078-1.8418-2.334-1.8418-0.92165 0-1.6599 0.3064-2.2129 0.85937-0.49155 0.49155-0.79899 1.1055-0.92188 1.9043-0.12287 0.73732-0.06218 1.2916 0.1836 1.7832 0.30723 0.67588 0.86049 1.2272 1.7207 1.7188l1.6602 0.98438c1.4746 0.92165 2.4566 1.842 2.8867 2.7637 0.36865 0.79876 0.43132 1.8444 0.18554 3.1348-0.30723 1.8433-1.1687 3.2571-2.459 4.2402-1.1674 0.86021-2.5795 1.2285-4.3613 1.2285-2.0276 0-3.502-0.49151-4.3008-1.4746-0.79877-0.92165-0.983-2.3971-0.67578-4.3633 0.06145-0.18432 0.12123-0.55353 0.24414-1.168h2.8262c-0.06145 0.36866-0.12214 0.67594-0.18359 0.79883-0.18433 1.106-0.18433 1.9676 0 2.582 0.3072 0.92166 1.1062 1.3516 2.3965 1.3516 1.1674 0 2.0281-0.36904 2.6426-1.0449 0.49155-0.55299 0.85953-1.2296 0.98242-2.0898 0.18433-0.9831 2.6e-4 -1.7812-0.55273-2.457-0.43011-0.49155-1.1666-1.1054-2.334-1.7812s-2.0906-1.3524-2.7051-1.9668c-0.98309-0.98309-1.3511-2.3344-0.98242-4.1777 0.30724-1.7204 1.0435-3.0119 2.2109-3.9336 1.106-0.86021 2.5207-1.2285 4.1797-1.2285zm-238.09 0.24609h5.0996c1.3518 0 2.3953 0.12232 3.0098 0.30664 1.7204 0.73732 2.3978 2.397 1.9062 5.0391-0.30723 1.659-0.92225 2.8877-1.9668 3.625-0.55301 0.43012-1.3528 0.73665-2.3359 0.98243 0.61443 0.18432 1.1068 0.30787 1.4141 0.49218 0.67588 0.36866 0.98242 1.1666 0.98242 2.334 0 0.79876-0.1214 2.1508-0.36719 3.9941-0.12287 1.2289-0.18537 2.1521-0.0625 2.7051 0.06146 0.30723 0.1241 0.55215 0.18555 0.85937h-3.1348c-0.06146-0.36865-0.12305-0.73786-0.12305-1.168 0-0.24578 0.12318-1.167 0.24609-2.7031 0.18433-2.0276 0.2461-3.3786 0.2461-3.9316-0.06146-0.49155-0.30714-0.86059-0.67578-1.0449-0.30725-0.18433-0.67627-0.30773-1.0449-0.36914-0.3072-0.06146-0.73696-0.06055-1.2285-0.06055h-1.3516l-1.5977 9.2148h-2.7656l3.5645-20.275zm-78.525 0.06055h8.9707l-0.42969 2.459h-6.1445l-1.168 6.3906h5.7754l-0.42969 2.334h-5.7754l-1.168 6.7578h6.5137l-0.42969 2.3359h-9.2793l3.5645-20.277zm60.092 0h8.9707l-0.42969 2.459h-6.1445l-1.1055 6.3906h5.7754l-0.42969 2.334h-5.7773l-1.166 6.7578h6.5117l-0.42969 2.3359h-9.3398l3.5644-20.277zm138.92 0h8.9707l-0.36914 2.459h-6.1445l-1.1055 6.3906h5.7754l-0.42968 2.334h-5.7754l-1.168 6.7578h6.4512l-0.42969 2.3359h-9.3398l3.5644-20.277zm152.56 0h8.9707l-0.42969 2.459h-6.1445l-1.1055 6.3906h5.7754l-0.42969 2.334h-5.7773l-1.166 6.7578h6.5117l-0.42969 2.3359h-9.3398l3.5644-20.277zm-333.33 0.0625h4.3633l1.9043 12.043c0.36865 2.8264 0.61539 4.7916 0.73828 5.959 0.061456-0.4301 0.12214-1.0441 0.18359-1.9043 0.18433-1.2289 0.24519-1.9036 0.30664-2.0879l2.459-14.01h2.5195l-3.5645 20.275h-4.1172l-2.2109-14.07c0-0.24578-0.12318-0.98313-0.24609-2.2734-0.061455-0.73732-0.12409-1.3512-0.18555-1.7812l-0.12109 0.67578-0.12305 0.55274-0.12305 0.86132-0.24609 1.2891-2.5801 14.746h-2.5195l3.5625-20.275zm21.014 0h12.229l-0.49219 2.3965h-4.7305l-3.1348 17.879h-2.7637l3.1328-17.879h-4.6699l0.42969-2.3965zm59.049 0h12.227l-0.49219 2.3965h-4.7305l-3.1328 17.879h-2.7656l3.1328-17.879h-4.6699l0.43164-2.3965zm23.531 0h3.6875l1.1055 20.275h-3.0098l-0.12305-4.6074h-5.4082l-1.7812 4.6074h-2.7031l8.2324-20.275zm17.266 0h2.7656l-3.5644 20.275h-2.7637l3.5625-20.275zm12.105 0h4.3613l1.9062 12.043c0.36867 2.8264 0.61345 4.7916 0.73633 5.959 0.06146-0.4301 0.1241-1.0441 0.18555-1.9043 0.18433-1.2289 0.24519-1.9036 0.30664-2.0879l2.457-14.01h2.5195l-3.5644 20.275h-4.1152l-2.2129-14.07c0-0.24578-0.12318-0.98313-0.24609-2.2734-0.06145-0.73732-0.12214-1.3512-0.18359-1.7812l-0.12305 0.67578-0.12305 0.55274-0.12304 0.86132-0.2461 1.2891-2.5801 14.746h-2.5195l3.5645-20.275zm22.059 0h4.6074l0.98242 15.545 5.9609-15.545h4.6074l-3.5625 20.275h-2.3965l3.0723-17.389-7.373 17.389h-2.7656l-1.2285-17.389-3.0723 17.389h-2.3965l3.5644-20.275zm44.055 0h4.3613l1.9062 12.043c0.36865 2.8264 0.61344 4.7916 0.73632 5.959 0.06146-0.4301 0.1241-1.0441 0.18555-1.9043 0.18433-1.2289 0.24522-1.9036 0.30664-2.0879l2.457-14.01h2.5195l-3.5644 20.275h-4.1152l-2.2129-14.07c0-0.24578-0.12319-0.98313-0.2461-2.2734-0.06145-0.73732-0.12214-1.3512-0.18359-1.7812l-0.12305 0.67578-0.12305 0.55274-0.12304 0.86132-0.2461 1.2891-2.5801 14.746h-2.5195l3.5644-20.275zm21.014 0h12.227l-0.49023 2.3965h-4.7324l-3.1328 17.879h-2.7656l3.1348-17.879h-4.6699l0.42969-2.3965zm52.41 0h3.1953l1.4141 8.9082 4.6699-8.9082h2.7637l-6.7578 11.859-1.4746 8.416h-2.7656l1.4746-8.416-2.5195-11.859zm39.939 0h12.166l-0.42968 2.3965h-4.7324l-3.1328 17.879h-2.7656l3.1348-17.879h-4.6699l0.42969-2.3965zm39.508 0h4.6074l0.98438 15.545 5.959-15.545h4.6094l-3.5645 20.275h-2.3965l3.0723-17.389-7.373 17.389h-2.7656l-1.2285-17.389-3.0723 17.389h-2.3965l3.5644-20.275zm-289.28 2.2109-1.168 6.5762h1.7812c1.2289 0 2.1512-0.24569 2.7656-0.67578 0.73732-0.55299 1.2278-1.4762 1.4121-2.7051 0.18432-1.1674 0.06292-1.9655-0.36719-2.457-0.30724-0.30724-0.67642-0.49235-1.168-0.61524-0.4301-0.06145-0.92162-0.12304-1.4746-0.12304h-1.7812zm42.15 0.30859-4.1797 10.814h4.4238l-0.24414-10.814z" fill="#0f6" stroke-linecap="round" stroke-linejoin="round" stroke-width="8" style="paint-order:stroke markers fill"/>
 <g transform="matrix(1.0173 0 0 1.0173 -2.7113 -1.2087)" fill="#0f6" stroke-width=".26458" aria-label="hacks">
  <path d="m51.481 68.059c0.0038-0.57126 0.33449-0.91702 0.84185-0.91702 0.52992 0 0.83058 0.34576 0.82682 0.91702v3.2471h2.0746v-3.6831c0.0038-1.2628-0.793-2.1648-2.0144-2.1648-0.85313 0-1.4845 0.43596-1.7438 1.1726h-0.06013v-3.0217h-1.9994v7.6969h2.0746z"/>
  <path d="m57.855 71.396c0.75165 0 1.3192-0.25556 1.6687-0.90199h0.0451v0.81179h1.9393v-3.9537c0-1.0673-1.011-1.8942-2.6609-1.8942-1.725 0-2.5744 0.90199-2.6458 1.9543h1.9092c0.04886-0.35704 0.31194-0.52616 0.70656-0.52616 0.36079 0 0.61636 0.16536 0.61636 0.46603v0.01503c0 0.33449-0.36831 0.43972-1.3379 0.51112-1.1914 0.08644-2.1197 0.5675-2.1197 1.834 0 1.15 0.7742 1.6837 1.8791 1.6837zm0.67649-1.3079c-0.35328 0-0.60132-0.17288-0.60132-0.49609 0-0.2969 0.21046-0.52616 0.69152-0.60132 0.33073-0.05262 0.60884-0.12026 0.82682-0.21046v0.48106c0 0.52616-0.44724 0.82682-0.91702 0.82682z"/>
  <path d="m65.281 71.411c1.71 0 2.7586-0.98091 2.7811-2.5105h-1.9242c-0.0451 0.60508-0.37207 0.93205-0.82682 0.93205-0.54495 0-0.90199-0.46603-0.90199-1.4131s0.35704-1.4131 0.90199-1.4131c0.45851 0 0.77045 0.32697 0.82682 0.93205h1.9242c-0.01128-1.5033-1.0824-2.4805-2.7811-2.4805-1.8791 0-2.9916 1.2026-2.9916 2.9766 0 1.7739 1.1124 2.9766 2.9916 2.9766z"/>
  <path d="m68.919 71.306h2.0746v-1.6386l0.31194-0.39462 1.1763 2.0332h2.3752l-2.022-3.2434 1.9618-2.5293h-2.3301l-1.3981 1.9393h-0.07517v-3.8635h-2.0746z"/>
  <path d="m80.615 67.413c-0.05262-1.2214-1.0674-1.9543-2.736-1.9543-1.6499 0-2.6684 0.67649-2.6609 1.8791-0.0075 0.9095 0.58253 1.492 1.7589 1.6987l1.0222 0.1804c0.45099 0.08268 0.65394 0.20295 0.66146 0.42093-0.0075 0.24053-0.28187 0.37583-0.66146 0.37583-0.46978 0-0.80051-0.20295-0.85689-0.57126h-2.0595c0.11275 1.1839 1.135 1.9693 2.9014 1.9693 1.5973 0 2.7736-0.77796 2.7811-2.0144-0.0075-0.85313-0.57877-1.3492-1.7589-1.5634l-1.1726-0.21046c-0.43972-0.07892-0.56374-0.23677-0.55622-0.40589-0.0075-0.24053 0.28939-0.37583 0.64642-0.37583 0.40965 0 0.75166 0.21798 0.78172 0.57126z"/>
 </g>
 <style type="text/css">.st0{fill:#FC0C18;}
	.st1{fill:#FC0C18;}</style>
</svg>
