<svg width="480" height="320" version="1.1" viewBox="0 0 127 84.667" xmlns="http://www.w3.org/2000/svg">
 <defs>
  <linearGradient id="a" x2="65.708" y2="76.729" gradientUnits="userSpaceOnUse">
   <stop stop-color="#005120" offset="0"/>
   <stop stop-color="#000702" offset="1"/>
  </linearGradient>
 </defs>
 <rect width="127" height="84.667" ry="4.2333" fill="url(#a)" stroke-linecap="square" stroke-linejoin="round" stroke-width=".52917" style="paint-order:stroke fill markers"/>
 <g transform="matrix(.16257 0 0 .16257 6.6004 26.076)" fill="#0f6">
  <g fill="#0f6">
   <g fill="#0f6">
    <g fill="#0f6">
     <path class="st0" d="m50.4 45.6c-0.3 1.8-0.2 3.7 0.2 5.7 0.5 2 1.1 3.8 1.7 5.4 0.8 1.9 1.8 3.8 2.9 5.7l11.8 22.6c0.7 1.4 1.3 2.9 1.7 4.5 0.4 1.4 0.7 3.1 0.9 5s0.1 4-0.3 6.3l-2.3 13.2c-0.7 3-1.9 5.7-3.5 8-0.7 1-1.5 2-2.5 2.9-1 1-2.1 1.8-3.5 2.6-1.3 0.8-2.8 1.4-4.5 1.8-1.7 0.5-3.6 0.7-5.7 0.7h-8.4c-2.1 0-3.9-0.2-5.4-0.7s-2.8-1.1-3.9-1.8-1.9-1.6-2.6-2.6-1.1-1.9-1.5-2.9c-0.8-2.3-1-5-0.7-8l4.3-24.5h13.5l-4.3 24.5c-0.1 0.6 0 1.2 0.1 1.7 0.2 0.4 0.4 0.8 0.8 1.2s1 0.5 1.8 0.5h8.4c0.8 0 1.5-0.2 2-0.5 0.5-0.4 0.9-0.7 1.2-1.2s0.6-1.1 0.7-1.7l2.1-12.1c0.3-1.8 0.2-3.7-0.2-5.7-0.5-2-1.1-3.8-1.7-5.4-0.8-1.9-1.8-3.8-2.9-5.7l-11.6-22.6c-0.7-1.4-1.3-2.9-1.7-4.5-0.4-1.4-0.7-3.1-0.9-5s-0.1-4 0.3-6.3l2.3-13.2c0.7-3 1.9-5.7 3.5-8 0.7-1 1.5-2 2.5-2.9 1-1 2.1-1.8 3.5-2.6 1.3-0.7 2.8-1.4 4.5-1.8 1.7-0.5 3.6-0.7 5.7-0.7h8.4c2.1 0 3.9 0.2 5.4 0.7s2.8 1.1 3.9 1.8c1.1 0.8 1.9 1.6 2.6 2.6 0.6 1 1.1 1.9 1.5 2.9 0.8 2.3 1 5 0.7 8l-4.3 24.5h-13.5l4.3-24.5c0.1-0.6 0-1.2-0.1-1.7-0.2-0.4-0.4-0.8-0.8-1.2s-1-0.5-1.8-0.5h-8.4c-0.8 0-1.5 0.2-2 0.5-0.5 0.4-0.9 0.7-1.2 1.2s-0.6 1.1-0.7 1.7z"/>
     <path class="st0" d="m93 17.5h13.5l-17 96.5c-0.1 0.6 0 1.2 0.1 1.7 0.2 0.4 0.4 0.8 0.8 1.2s1 0.5 1.8 0.5h8.4c0.8 0 1.5-0.2 2-0.5 0.5-0.4 0.9-0.7 1.2-1.2s0.6-1.1 0.7-1.7l17-96.5h13.5l-17 96.5c-0.7 3-1.9 5.7-3.5 8-0.7 1-1.5 2-2.5 2.9-1 1-2.1 1.8-3.5 2.6-1.3 0.8-2.8 1.4-4.5 1.8-1.7 0.5-3.6 0.7-5.7 0.7h-8.4c-2.1 0-3.9-0.2-5.4-0.7s-2.8-1.1-3.9-1.8-1.9-1.6-2.6-2.6-1.1-1.9-1.5-2.9c-0.8-2.3-1-5-0.7-8z"/>
     <path class="st0" d="m144.2 17.5h25.3c2.1 0 3.9 0.2 5.4 0.7s2.8 1.1 3.9 1.8c1.1 0.8 1.9 1.6 2.6 2.6 0.6 1 1.1 1.9 1.5 2.9 0.8 2.3 1 5 0.7 8l-5.6 31.5c-0.7 3-1.9 5.7-3.5 8-0.7 1-1.5 2-2.5 2.9-1 1-2.1 1.8-3.5 2.6-1.3 0.8-2.8 1.4-4.5 1.8-1.7 0.5-3.6 0.7-5.7 0.7h-11.8l2.2-12.7h11.8c0.8 0 1.5-0.2 2-0.5 0.5-0.4 0.9-0.7 1.2-1.2s0.6-1.1 0.7-1.7l5.6-31.5c0.1-0.6 0-1.2-0.1-1.7-0.2-0.4-0.4-0.8-0.8-1.2s-1-0.5-1.8-0.5h-11.8l-17.6 100h-13.5z"/>
     <path class="st0" d="m199.9 68.4h16.9l-2.2 12.7h-16.9l-6.4 36.3h16.9l-2.2 12.7h-30.4l19.8-112.5h30.4l-2.2 12.7h-16.9z"/>
     <path class="st0" d="m234.8 17.5h25.3c2.1 0 3.9 0.2 5.4 0.7s2.8 1.1 3.9 1.8c1.1 0.8 1.9 1.6 2.6 2.6 0.6 1 1.1 1.9 1.5 2.9 0.8 2.3 1 5 0.7 8l-5.6 31.5c-0.4 2.1-1.2 3.9-2.6 5.5s-3 3-4.8 4.2c1.4 1.2 2.5 2.6 3.3 4.2s1 3.4 0.7 5.5l-8 45.6h-13.5l8-45.6c0.1-0.6 0-1.2-0.1-1.7-0.2-0.4-0.4-0.8-0.8-1.2s-1-0.5-1.8-0.5h-11.8l-8.6 48.9h-13.5zm4.5 50.9h11.8c0.8 0 1.5-0.2 2-0.5 0.5-0.4 0.9-0.7 1.2-1.2s0.6-1.1 0.7-1.7l5.6-31.5c0.1-0.6 0-1.2-0.1-1.7-0.2-0.4-0.4-0.8-0.8-1.2s-1-0.5-1.8-0.5h-11.9z"/>
     <path class="st0" d="m294.2 130 19.8-112.5h13.5l-19.8 112.5zm25.4-67.5 7.9-45 7.2 67.5-7.9 45zm7.3 67.5 19.8-112.5h13.5l-19.8 112.5z"/>
     <path class="st0" d="m369.2 17.5h13.5l-19.8 112.5h-13.5z"/>
     <path class="st0" d="m371.9 130 19.8-112.5h13.5l-19.8 112.5zm25.4-67.5 7.9-45 7.2 67.5-7.9 45zm7.2 67.5 19.8-112.5h13.5l-19.8 112.5z"/>
     <path class="st0" d="m446.8 17.5h33.2l-2.2 12.7h-9l-17.6 99.8h-15.2l17.6-99.8h-9z"/>
     <path class="st0" d="m493.5 68.4h16.9l-2.2 12.7h-16.9l-6.4 36.3h16.9l-2.2 12.7h-30.4l19.8-112.6h30.4l-2.2 12.7h-16.9z"/>
     <path class="st0" d="m508.6 130 19.8-112.5h13.5l-19.8 112.5zm25.4-67.5 7.9-45 7.2 67.5-7.9 45zm7.2 67.5 19.8-112.5h13.5l-19.8 112.5z"/>
     <path class="st0" d="m583.5 17.5h26.5c2.1 0 3.9 0.2 5.4 0.7s2.8 1.1 3.9 1.8c1.1 0.8 1.9 1.6 2.6 2.6 0.6 1 1.1 1.9 1.5 2.9 0.8 2.3 1 5 0.7 8l-14.3 80.5c-0.7 3-1.9 5.7-3.5 8-0.7 1-1.5 2-2.5 2.9-1 1-2.1 1.8-3.5 2.6-1.3 0.8-2.8 1.4-4.5 1.8-1.7 0.5-3.6 0.7-5.7 0.7h-26.4zm-4.1 99.8h12.9c0.8 0 1.5-0.2 2-0.5 0.5-0.4 0.9-0.7 1.2-1.2s0.6-1.1 0.7-1.7l14.2-80.4c0.1-0.6 0-1.2-0.1-1.7-0.2-0.4-0.4-0.8-0.8-1.2s-1-0.5-1.8-0.5h-12.9z"/>
     <path class="st0" d="m633 33.5c0.7-3 1.9-5.7 3.5-8 0.7-1 1.5-2 2.5-2.9 1-1 2.1-1.8 3.5-2.6 1.3-0.7 2.8-1.4 4.5-1.8 1.7-0.5 3.6-0.7 5.7-0.7h8.4c2.1 0 3.9 0.2 5.4 0.7s2.8 1.1 3.9 1.8c1.1 0.8 1.9 1.6 2.6 2.6 0.6 1 1.1 1.9 1.5 2.9 0.8 2.3 1 5 0.7 8l-14.2 80.5c-0.7 3-1.9 5.7-3.5 8-0.7 1-1.5 2-2.5 2.9-1 1-2.1 1.8-3.5 2.6-1.3 0.8-2.8 1.4-4.5 1.8-1.7 0.5-3.6 0.7-5.7 0.7h-8.4c-2.1 0-3.9-0.2-5.4-0.7s-2.8-1.1-3.9-1.8-1.9-1.6-2.6-2.6-1.1-1.9-1.5-2.9c-0.8-2.3-1-5-0.7-8zm-0.7 80.5c-0.1 0.6 0 1.2 0.1 1.7 0.2 0.4 0.4 0.8 0.8 1.2s1 0.5 1.8 0.5h8.4c0.8 0 1.5-0.2 2-0.5 0.5-0.4 0.9-0.7 1.2-1.2s0.6-1.1 0.7-1.7l14.2-80.4c0.1-0.6 0-1.2-0.1-1.7-0.2-0.4-0.4-0.8-0.8-1.2s-1-0.5-1.8-0.5h-8.4c-0.8 0-1.5 0.2-2 0.5-0.5 0.4-0.9 0.7-1.2 1.2s-0.6 1.1-0.7 1.7z"/>
     <path class="st1" d="m50.4 45.6c-0.3 1.8-0.2 3.7 0.2 5.7 0.5 2 1.1 3.8 1.7 5.4 0.8 1.9 1.8 3.8 2.9 5.7l11.8 22.6c0.7 1.4 1.3 2.9 1.7 4.5 0.4 1.4 0.7 3.1 0.9 5s0.1 4-0.3 6.3l-2.3 13.2c-0.7 3-1.9 5.7-3.5 8-0.7 1-1.5 2-2.5 2.9-1 1-2.1 1.8-3.5 2.6-1.3 0.8-2.8 1.4-4.5 1.8-1.7 0.5-3.6 0.7-5.7 0.7h-8.4c-2.1 0-3.9-0.2-5.4-0.7s-2.8-1.1-3.9-1.8-1.9-1.6-2.6-2.6-1.1-1.9-1.5-2.9c-0.8-2.3-1-5-0.7-8l4.3-24.5h13.5l-4.3 24.5c-0.1 0.6 0 1.2 0.1 1.7 0.2 0.4 0.4 0.8 0.8 1.2s1 0.5 1.8 0.5h8.4c0.8 0 1.5-0.2 2-0.5 0.5-0.4 0.9-0.7 1.2-1.2s0.6-1.1 0.7-1.7l2.1-12.1c0.3-1.8 0.2-3.7-0.2-5.7-0.5-2-1.1-3.8-1.7-5.4-0.8-1.9-1.8-3.8-2.9-5.7l-11.6-22.6c-0.7-1.4-1.3-2.9-1.7-4.5-0.4-1.4-0.7-3.1-0.9-5s-0.1-4 0.3-6.3l2.3-13.2c0.7-3 1.9-5.7 3.5-8 0.7-1 1.5-2 2.5-2.9 1-1 2.1-1.8 3.5-2.6 1.3-0.7 2.8-1.4 4.5-1.8 1.7-0.5 3.6-0.7 5.7-0.7h8.4c2.1 0 3.9 0.2 5.4 0.7s2.8 1.1 3.9 1.8c1.1 0.8 1.9 1.6 2.6 2.6 0.6 1 1.1 1.9 1.5 2.9 0.8 2.3 1 5 0.7 8l-4.3 24.5h-13.5l4.3-24.5c0.1-0.6 0-1.2-0.1-1.7-0.2-0.4-0.4-0.8-0.8-1.2s-1-0.5-1.8-0.5h-8.4c-0.8 0-1.5 0.2-2 0.5-0.5 0.4-0.9 0.7-1.2 1.2s-0.6 1.1-0.7 1.7z"/>
     <path class="st1" d="m93 17.5h13.5l-17 96.5c-0.1 0.6 0 1.2 0.1 1.7 0.2 0.4 0.4 0.8 0.8 1.2s1 0.5 1.8 0.5h8.4c0.8 0 1.5-0.2 2-0.5 0.5-0.4 0.9-0.7 1.2-1.2s0.6-1.1 0.7-1.7l17-96.5h13.5l-17 96.5c-0.7 3-1.9 5.7-3.5 8-0.7 1-1.5 2-2.5 2.9-1 1-2.1 1.8-3.5 2.6-1.3 0.8-2.8 1.4-4.5 1.8-1.7 0.5-3.6 0.7-5.7 0.7h-8.4c-2.1 0-3.9-0.2-5.4-0.7s-2.8-1.1-3.9-1.8-1.9-1.6-2.6-2.6-1.1-1.9-1.5-2.9c-0.8-2.3-1-5-0.7-8z"/>
     <path class="st1" d="m144.2 17.5h25.3c2.1 0 3.9 0.2 5.4 0.7s2.8 1.1 3.9 1.8c1.1 0.8 1.9 1.6 2.6 2.6 0.6 1 1.1 1.9 1.5 2.9 0.8 2.3 1 5 0.7 8l-5.6 31.5c-0.7 3-1.9 5.7-3.5 8-0.7 1-1.5 2-2.5 2.9-1 1-2.1 1.8-3.5 2.6-1.3 0.8-2.8 1.4-4.5 1.8-1.7 0.5-3.6 0.7-5.7 0.7h-11.8l2.2-12.7h11.8c0.8 0 1.5-0.2 2-0.5 0.5-0.4 0.9-0.7 1.2-1.2s0.6-1.1 0.7-1.7l5.6-31.5c0.1-0.6 0-1.2-0.1-1.7-0.2-0.4-0.4-0.8-0.8-1.2s-1-0.5-1.8-0.5h-11.8l-17.6 100h-13.5z"/>
     <path class="st1" d="m199.9 68.4h16.9l-2.2 12.7h-16.9l-6.4 36.3h16.9l-2.2 12.7h-30.4l19.8-112.5h30.4l-2.2 12.7h-16.9z"/>
     <path class="st1" d="m234.8 17.5h25.3c2.1 0 3.9 0.2 5.4 0.7s2.8 1.1 3.9 1.8c1.1 0.8 1.9 1.6 2.6 2.6 0.6 1 1.1 1.9 1.5 2.9 0.8 2.3 1 5 0.7 8l-5.6 31.5c-0.4 2.1-1.2 3.9-2.6 5.5s-3 3-4.8 4.2c1.4 1.2 2.5 2.6 3.3 4.2s1 3.4 0.7 5.5l-8 45.6h-13.5l8-45.6c0.1-0.6 0-1.2-0.1-1.7-0.2-0.4-0.4-0.8-0.8-1.2s-1-0.5-1.8-0.5h-11.8l-8.6 48.9h-13.5zm4.5 50.9h11.8c0.8 0 1.5-0.2 2-0.5 0.5-0.4 0.9-0.7 1.2-1.2s0.6-1.1 0.7-1.7l5.6-31.5c0.1-0.6 0-1.2-0.1-1.7-0.2-0.4-0.4-0.8-0.8-1.2s-1-0.5-1.8-0.5h-11.9z"/>
     <path class="st1" d="m294.2 130 19.8-112.5h13.5l-19.8 112.5zm25.4-67.5 7.9-45 7.2 67.5-7.9 45zm7.3 67.5 19.8-112.5h13.5l-19.8 112.5z"/>
     <path class="st1" d="m369.2 17.5h13.5l-19.8 112.5h-13.5z"/>
     <path class="st1" d="m371.9 130 19.8-112.5h13.5l-19.8 112.5zm25.4-67.5 7.9-45 7.2 67.5-7.9 45zm7.2 67.5 19.8-112.5h13.5l-19.8 112.5z"/>
     <path class="st1" d="m446.8 17.5h33.2l-2.2 12.7h-9l-17.6 99.8h-15.2l17.6-99.8h-9z"/>
     <path class="st1" d="m493.5 68.4h16.9l-2.2 12.7h-16.9l-6.4 36.3h16.9l-2.2 12.7h-30.4l19.8-112.6h30.4l-2.2 12.7h-16.9z"/>
     <path class="st1" d="m508.6 130 19.8-112.5h13.5l-19.8 112.5zm25.4-67.5 7.9-45 7.2 67.5-7.9 45zm7.2 67.5 19.8-112.5h13.5l-19.8 112.5z"/>
     <path class="st1" d="m583.5 17.5h26.5c2.1 0 3.9 0.2 5.4 0.7s2.8 1.1 3.9 1.8c1.1 0.8 1.9 1.6 2.6 2.6 0.6 1 1.1 1.9 1.5 2.9 0.8 2.3 1 5 0.7 8l-14.3 80.5c-0.7 3-1.9 5.7-3.5 8-0.7 1-1.5 2-2.5 2.9-1 1-2.1 1.8-3.5 2.6-1.3 0.8-2.8 1.4-4.5 1.8-1.7 0.5-3.6 0.7-5.7 0.7h-26.4zm-4.1 99.8h12.9c0.8 0 1.5-0.2 2-0.5 0.5-0.4 0.9-0.7 1.2-1.2s0.6-1.1 0.7-1.7l14.2-80.4c0.1-0.6 0-1.2-0.1-1.7-0.2-0.4-0.4-0.8-0.8-1.2s-1-0.5-1.8-0.5h-12.9z"/>
     <path class="st1" d="m633 33.5c0.7-3 1.9-5.7 3.5-8 0.7-1 1.5-2 2.5-2.9 1-1 2.1-1.8 3.5-2.6 1.3-0.7 2.8-1.4 4.5-1.8 1.7-0.5 3.6-0.7 5.7-0.7h8.4c2.1 0 3.9 0.2 5.4 0.7s2.8 1.1 3.9 1.8c1.1 0.8 1.9 1.6 2.6 2.6 0.6 1 1.1 1.9 1.5 2.9 0.8 2.3 1 5 0.7 8l-14.2 80.5c-0.7 3-1.9 5.7-3.5 8-0.7 1-1.5 2-2.5 2.9-1 1-2.1 1.8-3.5 2.6-1.3 0.8-2.8 1.4-4.5 1.8-1.7 0.5-3.6 0.7-5.7 0.7h-8.4c-2.1 0-3.9-0.2-5.4-0.7s-2.8-1.1-3.9-1.8-1.9-1.6-2.6-2.6-1.1-1.9-1.5-2.9c-0.8-2.3-1-5-0.7-8zm-0.7 80.5c-0.1 0.6 0 1.2 0.1 1.7 0.2 0.4 0.4 0.8 0.8 1.2s1 0.5 1.8 0.5h8.4c0.8 0 1.5-0.2 2-0.5 0.5-0.4 0.9-0.7 1.2-1.2s0.6-1.1 0.7-1.7l14.2-80.4c0.1-0.6 0-1.2-0.1-1.7-0.2-0.4-0.4-0.8-0.8-1.2s-1-0.5-1.8-0.5h-8.4c-0.8 0-1.5 0.2-2 0.5-0.5 0.4-0.9 0.7-1.2 1.2s-0.6 1.1-0.7 1.7z"/>
     <path class="st1" d="m232.5 164.8h7.2l-0.4-17.6zm-56.5-17.9c-0.7-0.1-1.5-0.2-2.4-0.2h-2.9l-1.9 10.7h2.9c2 0 3.5-0.4 4.5-1.1 1.2-0.9 2-2.4 2.3-4.4 0.3-1.9 0.1-3.2-0.6-4-0.5-0.5-1.1-0.8-1.9-1zm-151.5-9.4v45h651v-45zm28.4 9.5h-10l-1.9 10.4h9.4l-0.7 3.8h-9.4l-1.9 11h10.6l-0.7 3.8h-15.1l5.8-33h14.6zm30.3 29.1h-6.7l-3.6-22.9c0-0.4-0.2-1.6-0.4-3.7-0.1-1.2-0.2-2.2-0.3-2.9l-0.2 1.1-0.2 0.9-0.2 1.4-0.4 2.1-4.2 24h-4.1l5.8-33h7.1l3.1 19.6c0.6 4.6 1 7.8 1.2 9.7 0.1-0.7 0.2-1.7 0.3-3.1 0.3-2 0.4-3.1 0.5-3.4l4-22.8h4.1zm38.8-29.1h-7.7l-5.1 29.1h-4.5l5.1-29.1h-7.6l0.7-3.9h19.9zm28.7 0h-10l-1.8 10.4h9.4l-0.7 3.8h-9.4l-1.9 11h10.6l-0.7 3.8h-15.2l5.8-33h14.6zm32.4 4.6c-0.5 2.7-1.5 4.7-3.2 5.9-0.9 0.7-2.2 1.2-3.8 1.6 1 0.3 1.8 0.5 2.3 0.8 1.1 0.6 1.6 1.9 1.6 3.8 0 1.3-0.2 3.5-0.6 6.5-0.2 2-0.3 3.5-0.1 4.4 0.1 0.5 0.2 0.9 0.3 1.4h-5.1c-0.1-0.6-0.2-1.2-0.2-1.9 0-0.4 0.2-1.9 0.4-4.4 0.3-3.3 0.4-5.5 0.4-6.4-0.1-0.8-0.5-1.4-1.1-1.7-0.5-0.3-1.1-0.5-1.7-0.6-0.5-0.1-1.2-0.1-2-0.1h-2.2l-2.6 15h-4.5l5.8-33h8.3c2.2 0 3.9 0.2 4.9 0.5 2.8 1.2 3.9 3.9 3.1 8.2zm35-4.6h-7.7l-5.1 29.1h-4.5l5.1-29.1h-7.6l0.7-3.9h19.9zm22.1 29.1-0.2-7.5h-8.8l-2.9 7.5h-4.4l13.4-33h6l1.8 33zm23.9 0h-4.5l5.8-33h4.5zm35.5 0h-6.7l-3.6-22.9c0-0.4-0.2-1.6-0.4-3.7-0.1-1.2-0.2-2.2-0.3-2.9l-0.2 1.1-0.2 0.9-0.2 1.4-0.4 2.1-4.2 24h-4.1l5.8-33h7.1l3.1 19.6c0.6 4.6 1 7.8 1.2 9.7 0.1-0.7 0.2-1.7 0.3-3.1 0.3-2 0.4-3.1 0.5-3.4l4-22.8h4.1zm41.9 0h-3.9l5-28.3-12 28.3h-4.5l-2-28.3-5 28.3h-3.9l5.8-33h7.5l1.6 25.3 9.7-25.3h7.5zm35.4-29.1h-10l-1.8 10.4h9.4l-0.7 3.8h-9.4l-1.9 11h10.5l-0.7 3.8h-15.2l5.8-33h14.6zm30.3 29.1h-6.7l-3.6-22.9c0-0.4-0.2-1.6-0.4-3.7-0.1-1.2-0.2-2.2-0.3-2.9l-0.2 1.1-0.2 0.9-0.2 1.4-0.4 2.1-4.2 24h-4.1l5.8-33h7.1l3.1 19.6c0.6 4.6 1 7.8 1.2 9.7 0.1-0.7 0.2-1.7 0.3-3.1 0.3-2 0.4-3.1 0.5-3.4l4-22.8h4.1zm38.8-29.1h-7.7l-5.1 29.1h-4.5l5.1-29.1h-7.6l0.7-3.9h19.9zm51.6 4.6c0 0.1-0.1 0.5-0.2 1h-4.6c0.1-0.5 0.1-0.8 0.2-0.9 0.2-1.1 0.2-1.9 0.2-2.4-0.3-2-1.5-3-3.8-3-1.5 0-2.7 0.5-3.6 1.4-0.8 0.8-1.3 1.8-1.5 3.1-0.2 1.2-0.1 2.1 0.3 2.9 0.5 1.1 1.4 2 2.8 2.8l2.7 1.6c2.4 1.5 4 3 4.7 4.5 0.6 1.3 0.7 3 0.3 5.1-0.5 3-1.9 5.3-4 6.9-1.9 1.4-4.2 2-7.1 2-3.3 0-5.7-0.8-7-2.4-1.3-1.5-1.6-3.9-1.1-7.1 0.1-0.3 0.2-0.9 0.4-1.9h4.6c-0.1 0.6-0.2 1.1-0.3 1.3-0.3 1.8-0.3 3.2 0 4.2 0.5 1.5 1.8 2.2 3.9 2.2 1.9 0 3.3-0.6 4.3-1.7 0.8-0.9 1.4-2 1.6-3.4 0.3-1.6 0-2.9-0.9-4-0.7-0.8-1.9-1.8-3.8-2.9s-3.4-2.2-4.4-3.2c-1.6-1.6-2.2-3.8-1.6-6.8 0.5-2.8 1.7-4.9 3.6-6.4 1.8-1.4 4.1-2 6.8-2 3.1 0 5.3 0.8 6.6 2.4 1.1 1.5 1.4 3.7 0.9 6.7zm23.2 10.8-2.4 13.7h-4.5l2.4-13.7-4.1-19.3h5.2l2.3 14.5 7.6-14.5h4.5zm41-10.8c0 0.1-0.1 0.5-0.2 1h-4.6c0.1-0.5 0.1-0.8 0.2-0.9 0.2-1.1 0.2-1.9 0.2-2.4-0.3-2-1.5-3-3.8-3-1.5 0-2.7 0.5-3.6 1.4-0.8 0.8-1.3 1.8-1.5 3.1-0.2 1.2-0.1 2.1 0.3 2.9 0.5 1.1 1.4 2 2.8 2.8l2.7 1.6c2.4 1.5 4 3 4.7 4.5 0.6 1.3 0.7 3 0.3 5.1-0.5 3-1.9 5.3-4 6.9-1.9 1.4-4.2 2-7.1 2-3.3 0-5.7-0.8-7-2.4-1.3-1.5-1.6-3.9-1.1-7.1 0.1-0.3 0.2-0.9 0.4-1.9h4.6c-0.1 0.6-0.2 1.1-0.3 1.3-0.3 1.8-0.3 3.2 0 4.2 0.5 1.5 1.8 2.2 3.9 2.2 1.9 0 3.3-0.6 4.3-1.7 0.8-0.9 1.4-2 1.6-3.4 0.3-1.6 0-2.9-0.9-4-0.7-0.8-1.9-1.8-3.8-2.9s-3.4-2.2-4.4-3.2c-1.6-1.6-2.2-3.8-1.6-6.8 0.5-2.8 1.7-4.9 3.6-6.4 1.8-1.4 4.1-2 6.8-2 3.1 0 5.3 0.8 6.6 2.4 1.1 1.5 1.5 3.7 0.9 6.7zm34.5-4.6h-7.7l-5.1 29.1h-4.5l5.1-29.1h-7.6l0.7-3.9h19.8zm28.8 0h-10l-1.8 10.4h9.4l-0.7 3.8h-9.4l-1.9 11h10.6l-0.7 3.8h-15.2l5.8-33h14.6zm36.9 29.1h-3.9l5-28.3-12 28.3h-4.5l-2-28.3-5 28.3h-3.9l5.8-33h7.5l1.6 25.3 9.7-25.3h7.5z"/>
    </g>
   </g>
  </g>
 </g>
 <g transform="matrix(1.0173 0 0 1.0173 -2.7113 -1.2087)" fill="#0f6" stroke-width=".26458" aria-label="hacks">
  <path d="m51.481 68.059c0.0038-0.57126 0.33449-0.91702 0.84185-0.91702 0.52992 0 0.83058 0.34576 0.82682 0.91702v3.2471h2.0746v-3.6831c0.0038-1.2628-0.793-2.1648-2.0144-2.1648-0.85313 0-1.4845 0.43596-1.7438 1.1726h-0.06013v-3.0217h-1.9994v7.6969h2.0746z"/>
  <path d="m57.855 71.396c0.75165 0 1.3192-0.25556 1.6687-0.90199h0.0451v0.81179h1.9393v-3.9537c0-1.0673-1.011-1.8942-2.6609-1.8942-1.725 0-2.5744 0.90199-2.6458 1.9543h1.9092c0.04886-0.35704 0.31194-0.52616 0.70656-0.52616 0.36079 0 0.61636 0.16536 0.61636 0.46603v0.01503c0 0.33449-0.36831 0.43972-1.3379 0.51112-1.1914 0.08644-2.1197 0.5675-2.1197 1.834 0 1.15 0.7742 1.6837 1.8791 1.6837zm0.67649-1.3079c-0.35328 0-0.60132-0.17288-0.60132-0.49609 0-0.2969 0.21046-0.52616 0.69152-0.60132 0.33073-0.05262 0.60884-0.12026 0.82682-0.21046v0.48106c0 0.52616-0.44724 0.82682-0.91702 0.82682z"/>
  <path d="m65.281 71.411c1.71 0 2.7586-0.98091 2.7811-2.5105h-1.9242c-0.0451 0.60508-0.37207 0.93205-0.82682 0.93205-0.54495 0-0.90199-0.46603-0.90199-1.4131s0.35704-1.4131 0.90199-1.4131c0.45851 0 0.77045 0.32697 0.82682 0.93205h1.9242c-0.01128-1.5033-1.0824-2.4805-2.7811-2.4805-1.8791 0-2.9916 1.2026-2.9916 2.9766 0 1.7739 1.1124 2.9766 2.9916 2.9766z"/>
  <path d="m68.919 71.306h2.0746v-1.6386l0.31194-0.39462 1.1763 2.0332h2.3752l-2.022-3.2434 1.9618-2.5293h-2.3301l-1.3981 1.9393h-0.07517v-3.8635h-2.0746z"/>
  <path d="m80.615 67.413c-0.05262-1.2214-1.0674-1.9543-2.736-1.9543-1.6499 0-2.6684 0.67649-2.6609 1.8791-0.0075 0.9095 0.58253 1.492 1.7589 1.6987l1.0222 0.1804c0.45099 0.08268 0.65394 0.20295 0.66146 0.42093-0.0075 0.24053-0.28187 0.37583-0.66146 0.37583-0.46978 0-0.80051-0.20295-0.85689-0.57126h-2.0595c0.11275 1.1839 1.135 1.9693 2.9014 1.9693 1.5973 0 2.7736-0.77796 2.7811-2.0144-0.0075-0.85313-0.57877-1.3492-1.7589-1.5634l-1.1726-0.21046c-0.43972-0.07892-0.56374-0.23677-0.55622-0.40589-0.0075-0.24053 0.28939-0.37583 0.64642-0.37583 0.40965 0 0.75166 0.21798 0.78172 0.57126z"/>
 </g>
 <style type="text/css">.st0{fill:#FC0C18;}
	.st1{fill:#FC0C18;}</style>
</svg>
