<svg width="480" height="320" version="1.1" viewBox="0 0 127 84.667" xmlns="http://www.w3.org/2000/svg" xmlns:xlink="http://www.w3.org/1999/xlink">
 <defs>
  <linearGradient id="a" x2="65.708" y2="76.729" gradientUnits="userSpaceOnUse">
   <stop stop-color="#ed5353" offset="0"/>
   <stop stop-color="#a10705" offset="1"/>
  </linearGradient>
 </defs>
 <g stroke-linejoin="round">
  <rect width="127" height="84.667" ry="4.2333" fill="url(#a)" stroke-linecap="square" stroke-width=".52917" style="paint-order:stroke fill markers"/>
  <path transform="scale(.26458)" d="m61.014 109.31c-1.2903 0-2.4574 0.12245-3.502 0.42969-1.0445 0.24578-1.9669 0.67732-2.7656 1.1074-0.86022 0.49155-1.5359 0.98322-2.1504 1.5977-0.61444 0.55299-1.105 1.1668-1.5352 1.7812-0.9831 1.4132-1.7203 3.0727-2.1504 4.916l-1.4141 8.1094c-0.24578 1.4132-0.30647 2.7037-0.18359 3.8711 0.12289 1.1674 0.30695 2.2121 0.55273 3.0723 0.24578 0.9831 0.61481 1.9054 1.0449 2.7656l7.127 13.887c0.67589 1.1674 1.2897 2.3345 1.7812 3.502 0.36867 0.9831 0.73768 2.0895 1.0449 3.3184 0.24574 1.2289 0.30738 2.396 0.12305 3.502l-1.291 7.4336c-0.06145 0.36867-0.24536 0.73769-0.42969 1.0449-0.18433 0.30722-0.42913 0.4925-0.73633 0.73829-0.30722 0.18436-0.73892 0.30664-1.2305 0.30664h-5.1602c-0.49155 0-0.85969-0.06086-1.1055-0.30664-0.24577-0.24578-0.36928-0.4925-0.49219-0.73829-0.061455-0.30721-0.12396-0.67626-0.0625-1.0449l2.6426-15.053h-8.2949l-2.6426 15.053c-0.18433 1.8433-0.05991 3.5028 0.43164 4.916 0.24578 0.61444 0.48982 1.1668 0.91992 1.7812 0.43011 0.61444 0.92178 1.1676 1.5977 1.5976 0.67588 0.43011 1.4748 0.80019 2.3965 1.1074 0.92166 0.30723 2.028 0.42968 3.3184 0.42968h5.1621c1.2903 0 2.4574-0.12245 3.502-0.42968 1.0445-0.24578 1.9669-0.61588 2.7656-1.1074 0.86022-0.49155 1.536-0.98321 2.1504-1.5976 0.61444-0.553 1.105-1.1668 1.5352-1.7812 0.9831-1.4132 1.7203-3.0727 2.1504-4.916l1.4141-8.1094c0.24578-1.4132 0.30646-2.7037 0.18359-3.8711-0.12289-1.1674-0.30695-2.212-0.55274-3.0723-0.24578-0.98311-0.61482-1.9054-1.0449-2.7656l-7.25-13.887c-0.67588-1.1674-1.2897-2.3345-1.7812-3.502-0.36866-0.9831-0.73768-2.0895-1.0449-3.3184-0.24574-1.2289-0.30737-2.396-0.12305-3.502l1.4141-7.4336c0.061451-0.36865 0.24536-0.73768 0.42969-1.0449 0.18434-0.30722 0.42913-0.4925 0.73633-0.73828 0.30722-0.18436 0.73696-0.30664 1.2285-0.30664h5.1621c0.49155 0 0.85969 0.06086 1.1055 0.30664 0.24577 0.24578 0.36932 0.4925 0.49219 0.73828 0.061455 0.30722 0.122 0.67628 0.060547 1.0449l-2.6406 15.053h8.2949l2.6406-15.053c0.18433-1.8433 0.061866-3.5028-0.42969-4.916-0.24578-0.61444-0.55322-1.1668-0.92188-1.7812-0.43011-0.61444-0.92178-1.1061-1.5977-1.5977-0.67588-0.4301-1.4748-0.80022-2.3965-1.1074-0.92166-0.30723-2.0261-0.42969-3.3164-0.42969h-5.1621zm21.076 0-10.568 59.293c-0.18433 1.8433-0.061866 3.5028 0.42969 4.916 0.24578 0.61444 0.49177 1.1668 0.92188 1.7812 0.43011 0.61444 0.92178 1.1676 1.5977 1.5976 0.67588 0.43011 1.4748 0.80019 2.3965 1.1074 0.92166 0.30723 2.0261 0.42968 3.3164 0.42968h5.1621c1.2903 0 2.4574-0.12245 3.502-0.42968 1.0445-0.24578 1.9669-0.61588 2.7656-1.1074 0.86022-0.49155 1.5359-0.98321 2.1504-1.5976 0.61444-0.553 1.105-1.1668 1.5352-1.7812 0.9831-1.4132 1.7203-3.0727 2.1504-4.916l10.447-59.293h-8.2949l-10.447 59.293c-0.061451 0.36867-0.24536 0.73769-0.42969 1.0449-0.18434 0.30722-0.42913 0.4925-0.73633 0.73829-0.30722 0.18436-0.73696 0.30664-1.2285 0.30664h-5.1621c-0.49155 0-0.85969-0.06086-1.1055-0.30664-0.24577-0.24578-0.36932-0.4925-0.49219-0.73829-0.061455-0.30721-0.122-0.67626-0.060547-1.0449l10.445-59.293h-8.2949zm31.459 0-12.166 69.125h8.2949l5.2988-30.107h7.2363c1.2903 0 2.4574-0.12245 3.502-0.42969 1.0446-0.24577 1.9649-0.61586 2.7637-1.1074 0.86021-0.49155 1.5359-0.98321 2.1504-1.5976 0.61443-0.553 1.107-1.1668 1.5371-1.7812 0.9831-1.4132 1.7203-3.0727 2.1504-4.916l3.4414-19.354c0.18433-1.8433 0.06187-3.5028-0.42969-4.916-0.24576-0.61444-0.55321-1.1668-0.92187-1.7812-0.43011-0.61444-0.92177-1.1061-1.5977-1.5977-0.67588-0.4301-1.4748-0.80022-2.3965-1.1074-0.92166-0.30723-2.028-0.42969-3.3184-0.42969h-15.545zm55.668 0-12.105 69.062h8.2949l5.2852-30.045h7.25c0.49155 0 0.85968 0.06086 1.1055 0.30664 0.24576 0.24578 0.36931 0.4925 0.49218 0.73828 0.06146 0.30722 0.12396 0.67432 0.0625 1.043l-4.916 28.02h8.2949l4.916-28.02c0.18434-1.2903 0.05991-2.3958-0.43164-3.3789-0.49155-0.98311-1.1671-1.8428-2.0273-2.5801 1.106-0.73733 2.089-1.597 2.9492-2.5801 0.86021-0.9831 1.3519-2.0905 1.5977-3.3809l3.4414-19.354c0.18433-1.8433 0.06186-3.5028-0.42969-4.916-0.24578-0.61444-0.55322-1.1668-0.92187-1.7812-0.43011-0.61444-0.92178-1.1061-1.5977-1.5977-0.67588-0.4301-1.4748-0.80022-2.3965-1.1074-0.92166-0.30723-2.028-0.42969-3.3184-0.42969h-15.545zm48.664 0-12.166 69.125h8.2949l12.166-69.125h-8.2949zm8.2949 0-4.8555 27.65 4.4238 41.475 4.8555-27.65-4.4238-41.475zm11.797 0-12.166 69.125h8.2949l12.166-69.125h-8.2949zm13.824 0-12.166 69.125h8.2949l12.166-69.125h-8.2949zm13.826 0-12.166 69.125h8.2949l12.166-69.125h-8.2949zm8.2949 0-4.8555 27.65 4.4238 41.475 4.8555-27.65-4.4238-41.475zm-0.43164 69.125h8.2949l12.166-69.125h-8.2949l-12.166 69.125zm25.992-69.125-1.3535 7.8027h5.5312l-10.814 61.322h9.3398l10.814-61.322h5.5293l1.3516-7.8027h-20.398zm25.928 0-12.166 69.186h18.68l1.3516-7.8027h-10.383l3.9316-22.305h10.385l1.3516-7.8027h-10.385l4.1777-23.473h10.385l1.3516-7.8027h-18.68zm24.209 0-12.166 69.125h8.2949l12.166-69.125h-8.2949zm8.2949 0-4.8535 27.65 4.4238 41.475 4.8535-27.65-4.4238-41.475zm-0.42969 69.125h8.2949l12.166-69.125h-8.2949l-12.166 69.125zm25.99-69.125-12.164 69.125h16.221c1.2903 0 2.4574-0.12245 3.502-0.42968 1.0445-0.24578 1.9669-0.61588 2.7656-1.1074 0.86022-0.49155 1.536-0.98321 2.1504-1.5976 0.61444-0.553 1.105-1.1668 1.5352-1.7812 0.98313-1.4132 1.7203-3.0727 2.1504-4.916l8.7871-49.461c0.18433-1.8433 0.06184-3.5028-0.42969-4.916-0.24578-0.61444-0.55337-1.1668-0.92187-1.7812-0.43011-0.61444-0.92177-1.1061-1.5977-1.5977-0.67589-0.4301-1.4748-0.80022-2.3965-1.1074-0.92164-0.30723-2.028-0.42969-3.3184-0.42969h-16.283zm42.52 0c-1.2903 0-2.4574 0.12245-3.502 0.42969-1.0446 0.24578-1.9669 0.67732-2.7656 1.1074-0.86022 0.49155-1.536 0.98322-2.1504 1.5977-0.61444 0.55299-1.105 1.1668-1.5352 1.7812-0.98309 1.4132-1.7203 3.0727-2.1504 4.916l-8.7246 49.461c-0.18433 1.8433-0.06184 3.5028 0.42969 4.916 0.24578 0.61444 0.49176 1.1668 0.92187 1.7812s0.92177 1.1676 1.5977 1.5976c0.67589 0.43011 1.4748 0.80019 2.3965 1.1074 0.92164 0.30723 2.0261 0.42968 3.3164 0.42968h5.1621c1.2903 0 2.4574-0.12245 3.502-0.42968 1.0446-0.24578 1.9668-0.61588 2.7656-1.1074 0.86018-0.49155 1.536-0.98321 2.1504-1.5976 0.61443-0.553 1.105-1.1668 1.5352-1.7812 0.9831-1.4132 1.7203-3.0727 2.1504-4.916l8.7266-49.461c0.18436-1.8433 0.05992-3.5028-0.43164-4.916-0.24575-0.61444-0.55142-1.1668-0.91993-1.7812-0.43011-0.61444-0.9218-1.1061-1.5976-1.5977-0.6759-0.4301-1.4748-0.80022-2.3965-1.1074-0.92163-0.30723-2.028-0.42969-3.3184-0.42969h-5.1621zm-280.98 0.0625-12.166 69.123h18.68l1.3516-7.8027h-10.385l3.9316-22.305h10.385l1.3516-7.8027h-10.383l4.1777-23.41h10.383l1.3535-7.8027h-18.68zm-24.516 7.6172h7.25c0.49155 0 0.85968 0.06281 1.1055 0.3086 0.24576 0.24576 0.36931 0.49054 0.49218 0.73632 0.06146 0.30722 0.12201 0.67628 0.06055 1.0449l-3.4394 19.355c-0.06145 0.36867-0.24732 0.73769-0.43164 1.0449-0.18434 0.30721-0.42909 0.49054-0.73633 0.73632-0.30722 0.18437-0.73696 0.30664-1.2285 0.30664h-7.2148l4.1426-23.533zm55.605 0.0625h7.3125c0.49155 0 0.85969 0.06086 1.1055 0.30664s0.36932 0.4925 0.49219 0.73828c0.06146 0.30722 0.122 0.67628 0.06055 1.0449l-3.4394 19.354c-0.06146 0.36866-0.24732 0.73768-0.43164 1.0449-0.18434 0.30722-0.42909 0.4925-0.73633 0.73828-0.30722 0.18437-0.73697 0.30664-1.2285 0.30664h-1.7207-5.5293l4.1152-23.533zm214.32 0h7.9277c0.49156 0 0.8598 0.06086 1.1055 0.30664 0.24589 0.24578 0.36935 0.4925 0.49218 0.73828 0.06123 0.30722 0.12216 0.67628 0.06055 1.0449l-8.7246 49.4c-0.06161 0.36866-0.24525 0.73768-0.42969 1.0449-0.18432 0.30722-0.431 0.49054-0.73828 0.73633-0.30724 0.18436-0.73699 0.30664-1.2285 0.30664h-7.9258l9.4609-53.578zm34.164 0.06055h5.1602c0.49157 0 0.86175 0.06281 1.1074 0.30859 0.24586 0.24578 0.3674 0.49055 0.49024 0.73633 0.0616 0.30722 0.1241 0.67627 0.0625 1.0449l-8.7246 49.4c-0.06161 0.36867-0.2472 0.73769-0.43164 1.0449-0.18433 0.30722-0.42906 0.4925-0.73633 0.73829-0.30724 0.18436-0.73699 0.30664-1.2285 0.30664h-5.1621c-0.49152 0-0.8598-0.06086-1.1055-0.30664-0.2459-0.24578-0.36936-0.4925-0.49219-0.73829-0.06161-0.30721-0.12178-0.67626-0.06055-1.0449l8.7246-49.4c0.06161-0.36866 0.24525-0.73768 0.42969-1.0449 0.18433-0.30722 0.431-0.49055 0.73828-0.73633 0.3072-0.18436 0.73696-0.30859 1.2285-0.30859zm-384.58 65.93v27.65h400v-27.65h-400zm286.08 3.0723c1.9048 0 3.2579 0.49151 4.0566 1.4746 0.67588 0.92166 0.85996 2.2739 0.55274 4.1172 0 0.06145-0.06163 0.30803-0.12305 0.61523h-2.8262c0.06145-0.3072 0.06163-0.49324 0.12304-0.55469 0.12288-0.67587 0.12305-1.1674 0.12305-1.4746-0.18433-1.2289-0.92273-1.8418-2.3359-1.8418-0.92166 0-1.6579 0.3064-2.2109 0.85937-0.49155 0.49155-0.79899 1.1055-0.92188 1.9043-0.12287 0.73733-0.06218 1.2916 0.18359 1.7832 0.30724 0.67589 0.86049 1.2292 1.7207 1.7207l1.6582 0.98242c1.4747 0.92166 2.4586 1.844 2.8887 2.7656 0.36866 0.79878 0.42938 1.8425 0.1836 3.1328-0.30724 1.8433-1.1667 3.2571-2.457 4.2402-1.1674 0.86021-2.5814 1.2285-4.3633 1.2285-2.0276 0-3.502-0.49151-4.3008-1.4746-0.79877-0.92166-0.983-2.3971-0.67578-4.3633 0.06146-0.18433 0.12322-0.55354 0.2461-1.168h2.8262c-0.06146 0.36865-0.12214 0.67594-0.1836 0.79883-0.18432 1.106-0.18432 1.9676 0 2.582 0.30724 0.92166 1.1062 1.3516 2.3965 1.3516 1.1674 0 2.0262-0.36903 2.6406-1.0449 0.49155-0.553 0.86149-1.2296 0.98438-2.0898 0.18433-0.9831 2.6e-4 -1.7812-0.55274-2.457-0.4301-0.49155-1.1685-1.1054-2.3359-1.7812-1.1674-0.67588-2.0887-1.3524-2.7031-1.9668-0.9831-0.98309-1.3511-2.3344-0.98242-4.1777 0.30724-1.7204 1.0435-3.0119 2.2109-3.9336 1.106-0.86022 2.5188-1.2285 4.1777-1.2285zm39.447 0c1.9048 0 3.2579 0.49151 4.0566 1.4746 0.67588 0.92166 0.92139 2.2739 0.55273 4.1172 0 0.06145-0.06163 0.30803-0.12305 0.61523h-2.8262c0.06146-0.3072 0.06163-0.49324 0.12305-0.55469 0.12287-0.67587 0.12305-1.1674 0.12305-1.4746-0.18433-1.2289-0.92273-1.8418-2.3359-1.8418-0.92166 0-1.6579 0.3064-2.2109 0.85937-0.49155 0.49155-0.79899 1.1055-0.92187 1.9043-0.12288 0.73733-0.06219 1.2916 0.18359 1.7832 0.30724 0.67589 0.86049 1.2292 1.7207 1.7207l1.6582 0.98242c1.4746 0.92166 2.4586 1.844 2.8887 2.7656 0.36865 0.79878 0.42937 1.8425 0.18359 3.1328-0.30724 1.8433-1.1667 3.2571-2.457 4.2402-1.1674 0.86021-2.5814 1.2285-4.3633 1.2285-2.0276 0-3.502-0.49151-4.3008-1.4746-0.79877-0.92166-0.983-2.3971-0.67578-4.3633 0.06145-0.18433 0.12318-0.55354 0.24609-1.168h2.8262c-0.06145 0.36865-0.12214 0.67594-0.18359 0.79883-0.18433 1.106-0.18433 1.9676 0 2.582 0.30724 0.92166 1.1062 1.3516 2.3965 1.3516 1.1674 0 2.0262-0.36903 2.6406-1.0449 0.49155-0.553 0.86149-1.2296 0.98437-2.0898 0.18433-0.9831 2.6e-4 -1.7812-0.55273-2.457-0.43011-0.49155-1.1685-1.1054-2.3359-1.7812-1.1674-0.67588-2.0887-1.3524-2.7031-1.9668-0.9831-0.98309-1.3511-2.3344-0.98243-4.1777 0.3072-1.7204 1.0435-3.0119 2.2109-3.9336 1.106-0.86022 2.5188-1.2285 4.1777-1.2285zm-238.09 0.2461h5.0996c1.3518 0 2.3953 0.12227 3.0098 0.30664 1.7204 0.73732 2.3958 2.397 1.9043 5.0391-0.3072 1.659-0.92031 2.8877-1.9648 3.625-0.553 0.4301-1.3528 0.73664-2.3359 0.98242 0.61444 0.18433 1.1068 0.30788 1.4141 0.49219 0.67589 0.36865 0.98242 1.1685 0.98242 2.3359 0 0.79878-0.12336 2.1489-0.36914 3.9922-0.12287 1.2289-0.18342 2.1521-0.06055 2.7051 0.06146 0.30724 0.12214 0.55216 0.1836 0.85938h-3.1328c-0.06146-0.36866-0.12305-0.73787-0.12305-1.168 0-0.24579 0.12318-1.167 0.24609-2.7031 0.18433-2.0276 0.2461-3.3786 0.2461-3.9316-0.06146-0.49155-0.30715-0.86059-0.67578-1.0449-0.30724-0.18433-0.67626-0.30772-1.0449-0.36914-0.30723-0.06146-0.73696-0.06055-1.2285-0.06055h-1.3516l-1.5977 9.2168h-2.7656l3.5645-20.277zm-78.525 0.06054h8.9707l-0.43164 2.459h-6.1426l-1.168 6.3906h5.7754l-0.42969 2.334h-5.7754l-1.168 6.7598h6.5137l-0.43164 2.334h-9.2773l3.5645-20.277zm60.092 0h8.9707l-0.42969 2.459h-6.1445l-1.1074 6.3906h5.7773l-0.43164 2.334h-5.7754l-1.168 6.7598h6.5137l-0.42969 2.334h-9.3398l3.5644-20.277zm138.92 0h8.9707l-0.36718 2.459h-6.1445l-1.1074 6.3906h5.7774l-0.43164 2.334h-5.7754l-1.168 6.7598h6.4531l-0.43164 2.334h-9.3379l3.5625-20.277zm152.57 0h8.9707l-0.42969 2.459h-6.1445l-1.1074 6.3906h5.7754l-0.42969 2.334h-5.7754l-1.168 6.7598h6.5137l-0.42969 2.334h-9.3398l3.5645-20.277zm-333.33 0.0625h4.3633l1.9043 12.043c0.36866 2.8264 0.61344 4.7935 0.73633 5.9609 0.061455-0.43011 0.12409-1.046 0.18555-1.9062 0.18433-1.2289 0.24519-1.9036 0.30664-2.0879l2.457-14.01h2.5195l-3.5625 20.277h-4.1172l-2.2129-14.072c0-0.24578-0.12318-0.98311-0.24609-2.2734-0.061456-0.73733-0.12214-1.3511-0.18359-1.7812l-0.12305 0.67578-0.12305 0.55274-0.12305 0.86133-0.24414 1.2891-2.582 14.748h-2.5195l3.5645-20.277zm21.014 0h12.227l-0.49024 2.3965h-4.7324l-3.1328 17.881h-2.7656l3.1348-17.881h-4.6699l0.42969-2.3965zm59.047 0h12.229l-0.49219 2.3965h-4.7305l-3.1348 17.881h-2.7637l3.1328-17.881h-4.6699l0.42969-2.3965zm23.533 0h3.6875l1.1055 20.277h-3.0098l-0.12305-4.6094h-5.4082l-1.7812 4.6094h-2.7031l8.2324-20.277zm17.266 0h2.7656l-3.5644 20.277h-2.7637l3.5625-20.277zm12.105 0h4.3633l1.9043 12.043c0.36866 2.8264 0.61345 4.7935 0.73633 5.9609 0.06146-0.43011 0.12409-1.046 0.18555-1.9062 0.18433-1.2289 0.24519-1.9036 0.30664-2.0879l2.457-14.01h2.5195l-3.5625 20.277h-4.1172l-2.2129-14.072c0-0.24578-0.12318-0.98311-0.24609-2.2734-0.06145-0.73733-0.12214-1.3511-0.18359-1.7812l-0.12305 0.67578-0.12305 0.55274-0.12304 0.86133-0.2461 1.2891-2.5801 14.748h-2.5195l3.5645-20.277zm22.059 0h4.6074l0.98438 15.545 5.959-15.545h4.6094l-3.5645 20.277h-2.3965l3.0723-17.389-7.373 17.389h-2.7656l-1.2285-17.389-3.0723 17.389h-2.3965l3.5644-20.277zm44.055 0h4.3633l1.9043 12.043c0.36865 2.8264 0.61344 4.7935 0.73632 5.9609 0.06146-0.43011 0.1241-1.046 0.18555-1.9062 0.18433-1.2289 0.24519-1.9036 0.30664-2.0879l2.459-14.01h2.5176l-3.5625 20.277h-4.1172l-2.2129-14.072c0-0.24578-0.12123-0.98311-0.24414-2.2734-0.06146-0.73733-0.1241-1.3511-0.18555-1.7812l-0.12305 0.67578-0.12305 0.55274-0.12304 0.86133-0.24414 1.2891-2.582 14.748h-2.5195l3.5644-20.277zm21.014 0h12.229l-0.49219 2.3965h-4.7305l-3.1348 17.881h-2.7656l3.1348-17.881h-4.6699l0.42969-2.3965zm52.412 0h3.1953l1.4121 8.9102 4.6699-8.9102h2.7656l-6.7598 11.859-1.4746 8.418h-2.7637l1.4746-8.418-2.5195-11.859zm39.939 0h12.164l-0.42968 2.3965h-4.7305l-3.1348 17.881h-2.7637l3.1328-17.881h-4.6699l0.43164-2.3965zm39.508 0h4.6074l0.98437 15.545 5.959-15.545h4.6094l-3.5644 20.277h-2.3965l3.0723-17.389-7.373 17.389h-2.7656l-1.2285-17.389-3.0723 17.389h-2.3965l3.5645-20.277zm-289.28 2.2109-1.166 6.5762h1.7812c1.2289 0 2.1512-0.24568 2.7656-0.67578 0.73732-0.553 1.2278-1.4762 1.4121-2.7051 0.18432-1.1674 0.06292-1.9655-0.36719-2.457-0.30724-0.30724-0.67642-0.49235-1.168-0.61523-0.43011-0.06146-0.92161-0.12305-1.4746-0.12305h-1.7832zm42.152 0.30859-4.1797 10.814h4.4238l-0.24414-10.814z" fill="#fff" stroke-linecap="round" stroke-width="8" style="paint-order:stroke markers fill"/>
 </g>
 <style type="text/css">.st0{fill:#FC0C18;}
	.st1{fill:#FC0C18;}</style>
</svg>
