<svg width="480" height="320" version="1.1" viewBox="0 0 480 320" xml:space="preserve" xmlns="http://www.w3.org/2000/svg"><defs><linearGradient id="a" x2="65.708" y2="76.729" gradientTransform="scale(3.7795)" gradientUnits="userSpaceOnUse"><stop stop-color="#ed5353" offset="0"/><stop stop-color="#a10705" offset="1"/></linearGradient></defs><rect width="480" height="320" ry="24" fill="url(#a)"/><path d="m83.312 106.95-11.543 63.736v1.3223c0 3.5947 2.8331 6.4297 6.2402 6.4297h11.92c3.9698 0 7.1788-2.835 7.9395-6.4297l11.92-65.059h-8.5117l-11.16 61.09c-0.3751 1.3233-1.5107 2.459-3.0215 2.459h-4.543c-1.1357 0-2.084-0.94822-2.084-2.2715l11.17-61.277h-8.3262zm31.77 0-13.045 71.488 8.6894-0.1875 5.8672-31.967h11.158c3.9698 0 7.1893-2.6474 7.752-6.4297l4.543-25.34c0.18754-0.3751 0.1875-0.75966 0.1875-1.1348 0-3.5947-2.833-6.4297-6.4277-6.4297h-18.725zm30.445 0-13.045 71.488h19.484l1.3223-7.9394h-10.596l4.543-24.777h10.586l1.5117-8.127h-10.588l3.9707-22.506h10.783l1.3242-8.1387h-19.297zm68.842 0-13.045 71.488h8.8867c6.4288-36.509 7.3768-44.825 7.752-53.338 0 7.1894 0.18852 15.13 3.7832 53.338h8.6992l13.045-71.488h-8.6992c-6.6163 36.697-7.5644 47.096-7.752 54.66-0.18755-7.1894-0.18847-16.452-3.9707-54.66h-8.6992zm35.186 0-12.867 71.488h8.5117l13.055-71.488h-8.6992zm15.316 0-13.055 71.488h8.8965c6.4287-36.509 7.3768-44.825 7.752-53.338 0 7.1894 0.18853 15.13 3.7832 53.338h8.6992l13.047-71.488h-8.7012c-6.6163 36.697-7.5644 47.096-7.752 54.66-0.18755-7.1894-0.18847-16.452-3.9707-54.66h-8.6992zm31.957 0-1.5117 8.1387h6.2422l-11.723 63.35h8.6992l11.535-63.35h5.8652l1.6992-8.1387h-20.807zm24.4 0-13.045 71.488h19.475l1.3242-7.9394h-10.588l4.5332-24.777h10.596l1.5117-8.127h-10.586l3.9688-22.506h10.775l1.3223-8.1387h-19.287zm25.154 0-13.047 71.488h8.8887c6.4287-36.509 7.3768-44.825 7.752-53.338 0 7.1894 0.18852 15.13 3.7832 53.338h8.6992l13.045-71.488h-8.6992c-6.6163 36.697-7.5644 47.096-7.752 54.66-0.18755-7.1894-0.18846-16.452-3.9707-54.66h-8.6992zm35.176 0-13.035 71.488h20.609c3.9698 0 7.1893-2.835 7.752-6.4297l10.398-57.494c0.18754-0.3751 0.1875-0.75966 0.1875-1.1348 0-3.5947-2.835-6.4297-6.4297-6.4297h-19.482zm39.342 0c-3.7822 0-7.0018 2.835-7.752 6.4297l-10.211 57.307v1.3223c0 3.5947 2.6475 6.4297 6.2422 6.4297h11.92c3.9698 0 7.1788-2.835 7.9394-6.4297l10.211-57.494v-1.1348c0-3.5947-2.8351-6.4297-6.2422-6.4297h-12.107zm-362.72 0.17773c-3.7822 0-6.9913 2.6455-7.752 6.4277l-2.084 12.295c-0.56264 3.5947-0.37494 5.4911 1.8965 9.6484 1.6984 3.2092 7.3779 13.994 8.7012 16.453 1.6984 3.032 2.0724 4.1564 1.6973 6.0527l-1.8965 10.023c-0.38552 1.3233-1.7079 2.459-3.2188 2.459h-4.543c-1.1357 0-2.084-0.94827-2.084-2.084v-0.1875l2.6465-15.316h-8.3262l-3.2188 18.162v1.1348c0 3.5947 2.6456 6.4291 6.2402 6.4395h11.92c3.9698 0 7.1788-2.8331 7.9395-6.4277l2.459-13.807c0.75019-3.2196 8.97e-4 -6.2404-0.94727-8.1367-0.75019-1.8963-7.5654-13.244-8.8887-15.703-1.8963-3.2092-2.6447-5.1051-2.0508-9.0957l1.5098-7.9394c0.3751-1.3233 1.5107-2.459 3.0215-2.459h4.543c1.1357 0 2.084 0.94827 2.084 2.084v0.375l-2.6465 14.754h8.3242l3.0234-17.588v-1.1367c0-3.5947-3.0226-6.4277-6.4297-6.4277h-11.92zm111.56 0.00977-12.867 71.488h8.6992l5.6797-31.582h6.8027c1.1357 0 2.084 0.94822 2.084 2.2715l-5.1055 29.32h8.7109l5.1055-28.184v-1.1367c0.3751-2.6465-0.76173-4.9171-3.2207-5.8652 2.8341-0.94817 4.9178-3.0331 5.4805-6.0547l3.9707-22.506c0.18755-0.56265 0.1875-0.94717 0.1875-1.3223 0-3.5947-2.833-6.4297-6.4277-6.4297h-19.1zm-47.668 7.752h7.1894c1.1357 0 2.084 0.94828 2.084 2.084v0.375l-3.5957 18.537c-0.3751 1.5108-1.5107 2.459-3.0215 2.459h-7.002l4.3457-23.455zm55.045 0h6.8047c1.1357 0 2.082 0.94828 2.082 2.084v0.375l-3.4062 18.537c-0.3751 1.3232-1.5107 2.459-3.0215 2.459l-6.627-0.1875 4.168-23.268zm211.43 0h7.752c1.1357 0 2.084 0.94828 2.084 2.084v0.375l-9.2617 50.691c-0.3751 1.3233-1.5126 2.459-3.0234 2.459h-0.00977v-0.19922h-7.5644l10.023-55.41zm34.988 0h4.7305c1.1357 0 2.084 0.94828 2.084 2.084v0.375l-9.0742 50.691c-0.37509 1.3233-1.5126 2.459-3.0234 2.459h-4.543c-1.1357 0-2.082-0.94827-2.082-2.084 0 0 5e-5 -0.18745-0.1875-0.375l9.0742-50.691c0.3751-1.3233 1.6982-2.459 3.0215-2.459zm-382.59 70.363v27.799h399.05v-27.799h-399.05zm287.84 4.9062c4.3657 0.19797 3.2312 4.1689 2.8457 5.6797h-2.834c0.37509-1.5108 0.75956-3.0215-0.94922-3.0215-0.94816 0-1.6985 0.37405-1.8965 1.5098-0.3751 1.3233 0.1886 1.6984 0.94922 2.459 0.76061 0.56265 2.0838 1.8962 2.6465 2.834 0.76062 1.1357 0.76052 2.0849 0.375 3.5957-0.76062 3.2196-3.2206 4.918-6.0547 4.918-3.4071 0-4.1565-2.0838-3.2188-5.1055l0.375-1.3242h2.834l-0.1875 0.94922c-0.56265 1.6984-0.37604 2.834 1.1348 2.834 1.1357 0 1.8964-0.76078 2.2715-1.8965 0.18755-0.94816 1.5e-4 -1.6984-0.5625-2.2715-1.1357-1.3233-2.8332-2.2724-3.4062-3.9707-0.18754-0.76061-0.37509-1.6983 0-2.6465 0.76062-2.8341 2.6457-4.543 5.6777-4.543zm39.719 0c4.3553 0.19797 3.2189 4.1689 2.6562 5.6797h-2.6465c0.3751-1.5108 0.76151-3.0215-0.94727-3.0215-0.94816 0-1.6985 0.37405-1.8965 1.5098-0.3751 1.3233 0.1886 1.6984 0.94922 2.459 0.76061 0.56265 2.0838 1.8962 2.6465 2.834 0.76061 1.1357 0.76051 2.0849 0.375 3.5957-0.76062 3.2196-3.2206 4.918-6.0547 4.918-3.4071 0-4.1565-2.0838-3.2188-5.1055l0.375-1.3242h2.834l-0.1875 0.94922c-0.56265 1.6984-0.37604 2.834 1.1348 2.834 1.1357 0 1.8964-0.76078 2.2715-1.8965 0.18754-0.94816 1.5e-4 -1.6984-0.5625-2.2715-1.1357-1.3233-2.8332-2.2724-3.4062-3.9707-0.18755-0.76061-0.3751-1.6983 0-2.6465 0.76062-2.8341 2.6457-4.543 5.6777-4.543zm-276.87 0.57422h9.459l-0.57227 2.459h-3.209l-3.7832 14.367h-2.834l3.7832-14.367h-3.4082l0.56445-2.459zm38.395 0h5.293c2.6465 0 4.3544 0.94709 3.4062 4.1562-0.56265 1.8963-1.5099 3.7831-3.4062 4.1582 1.6984 0.18754 1.8973 1.5107 1.3242 3.0215-0.18754 0.76061-1.3244 4.9179-0.76171 5.293v0.375h-3.2188c0-1.1357 0.56179-3.2204 0.75976-4.3457 0.18755-1.1357 0.5627-2.4589-0.1875-2.834-0.76061-0.18755-1.5109-0.1875-2.2715-0.1875h-0.5625l-1.8965 7.1894h-2.834l4.3555-16.826zm19.088 0h9.4609l-0.5625 2.459h-3.2188l-3.7832 14.367h-2.834l3.7832-14.367h-3.4082l0.5625-2.459zm142.6 0h9.4609l-0.5625 2.459h-3.2188l-3.7832 14.367h-2.834l3.7832-14.367h-3.4082l0.5625-2.459zm89.648 0h9.4609l-0.375 2.459h-3.4062l-3.7832 14.367h-2.834l3.7832-14.367h-3.4082l0.5625-2.459zm-31.008 0.17578h3.0215l-6.043 9.6602-1.8965 7.1894h-2.834l1.8965-7.1894-1.5117-9.6484h3.0215l0.37695 4.3438c0 0.76062 0.18755 1.6983 0 2.6465 0.56265-1.3233 1.1346-2.2706 1.6973-3.2188l2.2715-3.7832zm-298.25 0.01172h7.9395l-0.75 2.2715h-5.1055l-1.1367 4.3438h4.7305l-0.5625 2.459h-4.7305l-1.3242 5.293h5.1074l-0.56445 2.459h-7.9492l4.3457-16.826zm201.44 0h7.9394l-0.76172 2.2715h-5.1055l-1.1348 4.3438h4.7305l-0.5625 2.459h-4.7305l-1.3242 5.293h5.1055l-0.5625 2.459h-7.9395l4.3457-16.826zm148.45 0h7.9394l-0.5625 2.2715h-5.1055l-1.1367 4.3438h4.7305l-0.5625 2.459h-4.7305l-1.3242 5.293h5.1074l-0.56446 2.459h-8.1367l4.3457-16.826zm-290.49 0.00977h7.9394l-0.75195 2.2617h-5.1055l-1.1348 4.3438h4.7305l-0.5625 2.459h-4.7305l-1.334 5.3047h5.1055l-0.5625 2.459h-7.9394l4.3457-16.828zm59.953 0h3.7812l-0.94727 16.828h-3.0215l0.375-4.3457h-3.4082l-1.8965 4.3457h-3.0215l8.1387-16.828zm18.91 0h2.834l-4.3438 16.828h-2.8359l4.3457-16.828zm38.02 0h4.543l-0.5625 7.9394c0 1.3233-0.56179 3.4072-0.75976 4.7305 0.56265-1.6984 1.1346-3.5948 1.6973-4.7305l3.5957-7.9394h4.543l-4.3555 16.828h-2.834l1.3223-5.293c0.94817-3.4071 1.8962-6.8038 2.834-10.023l-7 15.316h-1.6992l1.1348-15.316h-0.1875c-0.76062 3.4071-1.5108 6.8038-2.459 10.023l-1.3223 5.293h-2.834l4.3438-16.828zm193.67 0h4.543l-0.5625 7.9394c0 1.3233-0.56376 3.4072-0.76172 4.7305 0.56264-1.6984 1.1366-3.5948 1.6992-4.7305l3.5938-7.9394h4.543l-4.3555 16.828h-2.834l1.3242-5.293c0.94816-3.4071 1.8962-6.8038 2.834-10.023l-7.002 15.316h-1.6992l1.1367-15.316h-0.1875c-0.76061 3.4071-1.5108 6.8038-2.459 10.023l-1.3242 5.293h-2.834l4.3457-16.828zm-349.7 0.00976h3.0215l0.5625 6.2422c0.18755 1.8963 0.37505 3.9706 0.1875 6.8047 0.3751-1.5108 0.5637-3.2197 0.94922-4.7305 0.3751-1.6984 0.75967-3.2197 1.1348-4.7305l0.94922-3.4082h2.8438l-4.543 16.641h-3.0215l-0.5625-6.0547c-0.18755-2.0839-0.37505-3.9687-0.1875-6.8027-0.18755 1.3233-0.5637 3.0216-0.94922 4.918-0.3751 1.6984-0.75967 3.4072-1.1348 4.7305l-0.76172 3.2188h-2.834l4.3457-16.828zm134.09 0h3.0215l0.5625 6.2422c0.18755 1.8963 0.37505 3.9706 0.1875 6.8047 0.3751-1.5108 0.56175-3.2197 0.94727-4.7305 0.37509-1.6984 0.76162-3.2197 1.1367-4.7305l0.94726-3.4082h2.834l-4.7188 16.641h-2.8359l-0.5625-6.0547c-0.18755-2.0839-0.37505-3.9687-0.1875-6.8027-0.18755 1.3233-0.56175 3.0216-0.94727 4.918-0.37509 1.6984-0.76162 3.4072-1.1367 4.7305l-0.75976 3.2188h-2.834l4.3457-16.828zm65.443 0h3.0215l0.5625 6.2422c0.18755 1.8963 0.37505 3.9706 0.1875 6.8047 0.3751-1.5108 0.56371-3.2197 0.94922-4.7305 0.3751-1.6984 0.75967-3.2197 1.1348-4.7305l0.94726-3.4082h2.8359l-4.5332 16.641h-3.0215l-0.5625-6.0547c-0.18755-2.0839-0.37504-3.9687-0.1875-6.8027-0.18754 1.3233-0.5637 3.0216-0.94922 4.918-0.3751 1.6984-0.75966 3.4072-1.1348 4.7305l-0.76172 3.2188h-2.834l4.3457-16.828zm-98.932 1.3027c-0.18755 0.3751-0.37495 1.3241-0.5625 1.6992-0.37509 0.76062-0.5637 1.5109-0.94922 2.2715l-2.084 4.7305h2.4707l0.5625-4.7305c0-0.76062 0.18745-1.5109 0.375-2.2715 0-0.37509 0.1875-1.3241 0.1875-1.6992zm-40.656 0.94922-1.1367 4.7305h2.2715c0.94817 0 1.8964-0.76063 2.2715-2.459 0.38551-1.8963-0.18656-2.2715-1.3223-2.2715h-2.084z" fill="#fff"/></svg>
