<svg width="480" height="320" version="1.1" viewBox="0 0 480 320" xmlns="http://www.w3.org/2000/svg"><defs><linearGradient id="a" x1="76.66" x2="76.66" y1="-29.32" y2="84.66" gradientTransform="scale(3.78)" gradientUnits="userSpaceOnUse"><stop stop-color="#e06f74" offset="0"/><stop stop-color="#c6262e" offset=".5"/><stop stop-color="#5b171e" offset="1"/></linearGradient></defs><rect width="480" height="320" ry="24" fill="url(#a)"/><path d="m219.1 60-11.92 67.8h8.124l11.91-67.8h-8.112zm8.112 0-4.753 27.1 4.392 40.65 4.725-26.81zm4.363 40.94-4.721 26.85h8.124l11.92-67.75h-8.124zm-35.52-40.9c-1.263 0-2.406 0.1201-3.43 0.4212-1.023 0.2409-1.927 0.6639-2.709 1.085-0.8425 0.4819-1.504 0.9637-2.106 1.566-0.6018 0.542-1.082 1.144-1.503 1.746-0.9628 1.385-1.685 3.012-2.106 4.819l-1.385 7.948c-0.2406 1.385-0.3001 2.65-0.1798 3.794 0.1204 1.145 0.3007 2.168 0.5413 3.011 0.2407 0.9636 0.6022 1.867 1.024 2.711l6.98 13.61c0.662 1.145 1.263 2.288 1.744 3.433 0.361 0.9636 0.7224 2.049 1.023 3.252 0.2406 1.205 0.3012 2.349 0.1205 3.433l-1.264 7.287c-0.0603 0.3613-0.2402 0.7231-0.4209 1.024-0.1805 0.3011-0.4202 0.4828-0.7211 0.7237-0.3009 0.1807-0.7237 0.3005-1.205 0.3005h-5.054c-0.4815 0-0.8421-0.0597-1.083-0.3005-0.2408-0.2409-0.3618-0.4828-0.4821-0.7237-0.0599-0.3011-0.1196-0.6629-0.0592-1.024l2.587-14.75h-8.124l-2.587 14.75c-0.1806 1.806-0.0607 3.434 0.4208 4.819 0.2406 0.6022 0.4817 1.144 0.9029 1.746 0.4212 0.6022 0.9028 1.145 1.565 1.566 0.662 0.4216 1.445 0.7844 2.347 1.085 0.9026 0.3011 1.984 0.4212 3.248 0.4212h5.056c1.263 0 2.406-0.1201 3.43-0.4212 1.023-0.2409 1.927-0.6037 2.709-1.085 0.8425-0.4818 1.504-0.9637 2.106-1.566 0.6018-0.542 1.082-1.144 1.503-1.746 0.9629-1.385 1.685-3.012 2.106-4.819l1.385-7.948c0.2409-1.385 0.3001-2.65 0.1798-3.794-0.1204-1.144-0.3008-2.168-0.5413-3.011-0.2407-0.9636-0.6021-1.867-1.023-2.711l-7.101-13.61c-0.662-1.144-1.263-2.288-1.744-3.433-0.361-0.9636-0.7224-2.049-1.023-3.252-0.2406-1.205-0.3012-2.349-0.1205-3.433l1.385-7.287c0.0603-0.3613 0.2402-0.7231 0.4208-1.024 0.1805-0.3011 0.4202-0.4827 0.7211-0.7237 0.3009-0.1807 0.7237-0.3005 1.205-0.3005h5.054c0.4814 0 0.8421 0.05965 1.083 0.3005 0.2408 0.2409 0.3618 0.4827 0.482 0.7237 0.0604 0.3011 0.1216 0.6629 0.0613 1.024l-2.589 14.75h8.124l2.589-14.75c0.1805-1.806 0.0585-3.434-0.4227-4.819-0.2407-0.6022-0.542-1.144-0.9029-1.746-0.4212-0.6022-0.9009-1.084-1.563-1.566-0.662-0.4216-1.445-0.7843-2.347-1.085-0.9026-0.3011-1.986-0.4212-3.25-0.4212h-5.056zm94.87 0c-1.263 0-2.406 0.1201-3.43 0.4212-1.023 0.2409-1.927 0.6639-2.709 1.085-0.8425 0.4819-1.504 0.9637-2.106 1.566-0.6017 0.542-1.082 1.144-1.503 1.746-0.9629 1.385-1.685 3.012-2.106 4.819l-1.385 7.948c-0.2406 1.385-0.3002 2.65-0.1798 3.794 0.1204 1.145 0.3008 2.168 0.5413 3.011 0.2406 0.9636 0.6022 1.867 1.023 2.711l6.98 13.61c0.662 1.145 1.263 2.288 1.744 3.433 0.361 0.9636 0.7224 2.049 1.023 3.252 0.2406 1.205 0.3012 2.349 0.1204 3.433l-1.264 7.287c-0.0604 0.3613-0.2402 0.7231-0.4208 1.024-0.1805 0.3011-0.4202 0.4828-0.7211 0.7237-0.3009 0.1807-0.7237 0.3005-1.205 0.3005h-5.054c-0.4815 0-0.844-0.0597-1.084-0.3005-0.2408-0.2409-0.3598-0.4828-0.4801-0.7237-0.06-0.3011-0.1216-0.6629-0.0613-1.024l2.589-14.75h-8.124l-2.589 14.75c-0.1806 1.806-0.0587 3.434 0.4227 4.819 0.2406 0.6022 0.4817 1.144 0.9029 1.746 0.4212 0.6022 0.9009 1.145 1.563 1.566 0.662 0.4216 1.445 0.7844 2.347 1.085 0.9026 0.3011 1.986 0.4212 3.25 0.4212h5.056c1.263 0 2.406-0.1201 3.43-0.4212 1.023-0.2409 1.927-0.6037 2.709-1.085 0.8425-0.4818 1.504-0.9637 2.106-1.566 0.6018-0.542 1.082-1.144 1.503-1.746 0.9628-1.385 1.685-3.012 2.106-4.819l1.385-7.948c0.2409-1.385 0.3001-2.65 0.1798-3.794-0.1204-1.144-0.3007-2.168-0.5413-3.011-0.2408-0.9636-0.6021-1.867-1.023-2.711l-7.101-13.61c-0.662-1.144-1.263-2.288-1.744-3.433-0.3611-0.9636-0.7224-2.049-1.023-3.252-0.2406-1.205-0.3012-2.349-0.1205-3.433l1.383-7.287c0.0604-0.3613 0.2421-0.7231 0.4227-1.024 0.1805-0.3011 0.4202-0.4827 0.7211-0.7237 0.3009-0.1807 0.7218-0.3005 1.203-0.3005h5.056c0.4814 0 0.8421 0.05965 1.083 0.3005 0.2408 0.2409 0.3618 0.4827 0.4821 0.7237 0.0603 0.3011 0.1197 0.6629 0.0592 1.024l-2.587 14.75h8.124l2.587-14.75c0.1805-1.806 0.0606-3.434-0.4208-4.819-0.2408-0.6022-0.542-1.144-0.9029-1.746-0.4213-0.6022-0.9028-1.084-1.565-1.566-0.662-0.4216-1.445-0.7843-2.347-1.085-0.9026-0.3011-1.984-0.4212-3.248-0.4212h-5.056zm-36.2 0.06127-11.92 67.75h18.3l1.324-7.648h-10.17l3.851-21.86h10.17l1.324-7.648h-10.17l4.092-22.95h10.17l1.324-7.648-18.3-2e-3zm141.7 82.28-7.583 2e-3 -20.22 20.23v7.589h15.16v44.27h12.63v-72.09zm-238.9 2e-3 -72.03 72.09h16.42l50.55-50.59v50.59h8.847l50.55-50.59v50.59h12.63v-72.09h-8.845l-49.28 49.32v-49.32h-8.849zm88.46 0c-7.898 0-13.9 9.802-13.9 17.7v7.589c0 7.904 6.002 17.7 13.9 17.7h26.54c6.319 0 7.585 4.427 7.585 7.589s-1.266 7.587-7.585 7.587h-40.44v13.92h46.76c7.898 0 13.9-9.802 13.9-17.71v-7.587c0-7.904-6.001-17.7-13.9-17.7h-26.54c-6.319 0-7.583-4.427-7.583-7.589s1.264-7.589 7.583-7.589h40.44v-13.91zm53.07 0v54.38c0 9.485 4.108 17.71 15.16 17.71h32.86c11.06 0 15.16-8.223 15.16-17.71v-54.38h-13.91v49.01c0 7.904-4.737 10.43-9.477 10.43h-16.43c-4.738 0-9.477-2.529-9.477-10.43v-49.01h-13.91zm-216.1 78.42v8.85h314v-8.85zm0.9469 14.86v24.03h6.952v-14.55l4.107 14.55h2.844l4.107-14.55v14.55h6.95v-24.03h-9.479l-3.007 12.33-2.996-12.33h-9.479zm27.17 0v24.03h14.22v-5.375h-6.636v-4.112h5.686v-5.373h-5.686v-3.794h6.636v-5.375h-14.22zm16.11 0v24.03h11.06c6.319 0 6.32-5.691 6.32-5.691v-12.64s-2e-3 -5.691-8.216-5.691h-9.16zm19.59 0v24.03h7.581v-24.03zm13.9 0-4.738 24.03h7.583l0.6312-4.427h3.476l0.6332 4.427h7.581l-4.738-24.03h-10.43zm23.7 0v24.03h14.22v-5.375h-6.634v-4.112h5.686v-5.373h-5.686v-3.794h6.634v-5.375h-14.22zm15.8 0v24.03h6.95v-12.97l4.74 12.97h6.95v-24.03h-6.95v12.02l-4.109-12.02zm20.85 0v24.03h7.583v-9.488h3.161v9.488h7.583v-24.03h-7.583v9.17h-3.161v-9.17zm24.64 0-4.738 24.03h7.583l0.6312-4.427h3.476l0.6332 4.427h7.581l-4.738-24.03h-10.43zm16.43 0v24.03h6.952v-12.97l4.738 12.97h6.95v-24.03h-6.95v12.02l-4.107-12.02h-7.583zm26.23 0c-3.16 0-5.686 2.845-5.686 6.008v12.33c0 3.162 2.528 6.008 5.686 6.008h6.003c3.16 0 5.686-2.845 5.686-6.008v-3.479h-6.952c0 3.162 5.1e-4 4.11-1.411 4.11-1.431 0-1.431-0.9484-1.431-4.11v-5.691c0-3.162-4.3e-4 -4.11 1.421-4.11 1.422 0 1.421 0.9483 1.421 4.11h6.952c-0.0537-0.6703 0-3.162 0-3.162 0-3.162-2.528-6.008-5.686-6.008h-6.003zm13.58 0v24.03h14.22v-5.375h-6.634v-4.112h5.686v-5.373h-5.686v-3.794h6.634v-5.375h-14.22zm15.8 0v24.03h6.95v-14.23l4.107 14.23h2.842l4.109-14.55v14.55h6.95v-24.03h-9.16l-3.309 12.33-3.326-12.33h-9.16zm27.17 0v24.03h14.22v-5.375h-6.636v-4.112h5.686v-5.373h-5.686v-3.794h6.636v-5.375h-14.22zm15.8 0v24.03h6.952v-12.97l4.738 12.97h6.952v-24.03h-6.952v12.02l-4.107-12.02zm20.22 0v5.377h4.109v18.65h7.583v-18.65h4.107v-5.377zm-215 5.06 1.116 9.168h-2.21zm85 0 1.102 9.168h-2.212zm-116.5 0.3178c2.528 0 3.172 0.6243 3.161 3.792v5.691c0 3.162-0.6326 3.794-3.161 3.794v-13.28z" fill="#fff"/></svg>
