<svg width="480" height="320" version="1.1" viewBox="0 0 127 84.667" xmlns="http://www.w3.org/2000/svg">
 <defs>
  <linearGradient id="a" x1="76.664" x2="76.664" y1=".96023" y2="84.667" gradientUnits="userSpaceOnUse">
   <stop stop-color="#0e141f" offset="0"/>
   <stop stop-color="#c6262e" offset=".70379"/>
   <stop offset="1"/>
  </linearGradient>
 </defs>
 <rect width="127" height="84.667" ry="4.2333" fill="url(#a)" stroke-linecap="square" stroke-linejoin="round" stroke-width=".52917" style="paint-order:stroke fill markers"/>
 <path transform="matrix(.26458 0 0 .26458 -.00025 0)" d="m218.61 57.957-12.174 69.168h8.2949l12.162-69.168h-8.2832zm8.2832 0-4.8535 27.648 4.4844 41.473 4.8242-27.346-4.4551-41.775zm4.4551 41.775-4.8203 27.391h8.2949l12.166-69.123h-8.2949l-7.3457 41.732zm-36.273-41.732c-1.2903 0-2.4574 0.12245-3.502 0.42969-1.0445 0.24578-1.9668 0.67735-2.7656 1.1074-0.86018 0.49156-1.536 0.98322-2.1504 1.5977-0.61444 0.55298-1.105 1.1668-1.5352 1.7812-0.98309 1.4132-1.7203 3.0727-2.1504 4.916l-1.4141 8.1094c-0.24567 1.4132-0.30643 2.7038-0.1836 3.8711 0.12291 1.1675 0.30703 2.2121 0.55274 3.0723 0.24574 0.98309 0.61481 1.9054 1.0449 2.7656l7.127 13.887c0.67589 1.1675 1.2897 2.3345 1.7812 3.502 0.36866 0.98309 0.73764 2.0895 1.0449 3.3184 0.24566 1.2289 0.30748 2.396 0.12304 3.502l-1.291 7.4336c-0.06161 0.36865-0.24525 0.73768-0.42969 1.0449-0.18433 0.30724-0.42905 0.4925-0.73633 0.73828-0.30724 0.18437-0.73894 0.30664-1.2305 0.30664h-5.1602c-0.49157 0-0.8598-0.06086-1.1055-0.30664-0.2459-0.24578-0.36939-0.4925-0.49219-0.73828-0.06123-0.3072-0.12215-0.67627-0.06055-1.0449l2.6406-15.053h-8.2949l-2.6406 15.053c-0.18436 1.8433-0.06188 3.5028 0.42969 4.916 0.24574 0.61444 0.49176 1.1668 0.92187 1.7812 0.43011 0.61444 0.92181 1.1676 1.5977 1.5977 0.67589 0.43011 1.4748 0.80022 2.3965 1.1074 0.92164 0.30724 2.0261 0.42969 3.3164 0.42969h5.1621c1.2903 0 2.4574-0.12245 3.502-0.42969 1.0446-0.24578 1.9669-0.61589 2.7656-1.1074 0.86021-0.49156 1.536-0.98322 2.1504-1.5977 0.61443-0.55298 1.105-1.1668 1.5352-1.7812 0.98309-1.4132 1.7203-3.0727 2.1504-4.916l1.4141-8.1094c0.24604-1.4132 0.30643-2.7038 0.18359-3.8711-0.12287-1.1674-0.3071-2.212-0.55273-3.0723-0.24578-0.98312-0.61482-1.9054-1.0449-2.7656l-7.25-13.887c-0.67591-1.1674-1.2897-2.3345-1.7813-3.502-0.36865-0.98309-0.73764-2.0895-1.0449-3.3184-0.24567-1.2289-0.30748-2.396-0.12304-3.502l1.4141-7.4336c0.0616-0.36865 0.24525-0.73768 0.42969-1.0449 0.18432-0.3072 0.42905-0.4925 0.73632-0.73828 0.30724-0.18436 0.73895-0.30664 1.2305-0.30664h5.1602c0.49152 0 0.8598 0.060858 1.1055 0.30664 0.24589 0.24578 0.36935 0.4925 0.49219 0.73828 0.0616 0.30724 0.1241 0.67627 0.0625 1.0449l-2.6426 15.053h8.2949l2.6426-15.053c0.18432-1.8433 0.05984-3.5028-0.43164-4.916-0.24578-0.61444-0.55341-1.1668-0.92188-1.7812-0.43011-0.61444-0.91981-1.1061-1.5957-1.5977-0.67589-0.43011-1.4748-0.80018-2.3965-1.1074-0.92163-0.30724-2.028-0.42969-3.3184-0.42969h-5.1621zm96.857 0c-1.2903 0-2.4574 0.12245-3.502 0.42969-1.0445 0.24578-1.9668 0.67735-2.7656 1.1074-0.86018 0.49156-1.536 0.98322-2.1504 1.5977-0.61444 0.55298-1.105 1.1668-1.5352 1.7812-0.98309 1.4132-1.7203 3.0727-2.1504 4.916l-1.4141 8.1094c-0.24567 1.4132-0.30647 2.7038-0.18359 3.8711 0.12291 1.1675 0.30706 2.2121 0.55273 3.0723 0.24574 0.98309 0.61481 1.9054 1.0449 2.7656l7.127 13.887c0.67591 1.1675 1.2897 2.3345 1.7813 3.502 0.36865 0.98309 0.73764 2.0895 1.0449 3.3184 0.24567 1.2289 0.30748 2.396 0.12304 3.502l-1.291 7.4336c-0.06161 0.36865-0.24525 0.73768-0.42969 1.0449-0.18433 0.30724-0.42905 0.4925-0.73633 0.73828-0.30723 0.18437-0.73894 0.30664-1.2305 0.30664h-5.1602c-0.49157 0-0.86176-0.06086-1.1074-0.30664-0.2459-0.24578-0.3674-0.4925-0.49024-0.73828-0.06123-0.3072-0.12407-0.67627-0.0625-1.0449l2.6426-15.053h-8.2949l-2.6426 15.053c-0.18437 1.8433-0.05989 3.5028 0.43164 4.916 0.24574 0.61444 0.49177 1.1668 0.92187 1.7812 0.43012 0.61444 0.91986 1.1676 1.5957 1.5977 0.67589 0.43011 1.4748 0.80022 2.3965 1.1074 0.92164 0.30724 2.028 0.42969 3.3184 0.42969h5.1621c1.2903 0 2.4574-0.12245 3.502-0.42969 1.0446-0.24578 1.9669-0.61589 2.7656-1.1074 0.86022-0.49156 1.536-0.98322 2.1504-1.5977 0.61444-0.55298 1.105-1.1668 1.5352-1.7812 0.98309-1.4132 1.7203-3.0727 2.1504-4.916l1.4141-8.1094c0.24605-1.4132 0.30643-2.7038 0.18359-3.8711-0.12287-1.1674-0.30706-2.212-0.55273-3.0723-0.24578-0.98312-0.61481-1.9054-1.0449-2.7656l-7.25-13.887c-0.67589-1.1674-1.2897-2.3345-1.7812-3.502-0.36866-0.98309-0.73764-2.0895-1.0449-3.3184-0.24566-1.2289-0.30748-2.396-0.12304-3.502l1.4121-7.4336c0.0616-0.36865 0.2472-0.73768 0.43164-1.0449 0.18432-0.3072 0.42905-0.4925 0.73633-0.73828 0.30723-0.18436 0.73702-0.30664 1.2285-0.30664h5.1621c0.49153 0 0.8598 0.060858 1.1055 0.30664 0.2459 0.24578 0.36935 0.4925 0.49219 0.73828 0.0616 0.30724 0.12215 0.67627 0.06054 1.0449l-2.6406 15.053h8.2949l2.6406-15.053c0.18432-1.8433 0.06183-3.5028-0.42969-4.916-0.24578-0.61444-0.55337-1.1668-0.92188-1.7812-0.4301-0.61444-0.92176-1.1061-1.5976-1.5977-0.67589-0.43011-1.4748-0.80018-2.3965-1.1074-0.92163-0.30724-2.0261-0.42969-3.3164-0.42969h-5.1621zm-36.955 0.0625-12.166 69.123h18.678l1.3516-7.8027h-10.383l3.9316-22.303h10.385l1.3516-7.8027h-10.385l4.1777-23.41h10.385l1.3516-7.8027-18.678-0.001953zm144.7 83.936-7.7422 0.00195-20.645 20.645v7.7422h15.484v45.16h12.902v-73.549zm-243.87 0.00195-73.545 73.549h16.773l51.613-51.613v51.613h9.0332l51.611-51.613v51.613h12.904v-73.549h-9.0312l-50.324 50.32v-50.32h-9.0352zm90.324 0c-8.0644 0-14.193 9.9997-14.193 18.064v7.7422c0 8.0644 6.1286 18.064 14.193 18.064h27.096c6.4516 0 7.7441 4.5164 7.7441 7.7422s-1.2927 7.7402-7.7441 7.7402h-41.291v14.195h47.744c8.0643 0 14.191-10.002 14.191-18.066v-7.7402c0-8.0644-6.1267-18.064-14.191-18.064h-27.098c-6.4516 0-7.7422-4.5164-7.7422-7.7422s1.2906-7.7422 7.7422-7.7422h41.291v-14.193h-47.742zm54.193 0v55.482c0 9.6774 4.1942 18.066 15.484 18.066h33.549c11.29 0 15.484-8.389 15.484-18.066v-55.482h-14.195v50c0 8.0644-4.8369 10.645-9.6758 10.645h-16.775c-4.8385 0-9.6758-2.5799-9.6758-10.645v-50h-14.195zm-220.65 80.002v9.0293h320.64v-9.0293h-320.64zm0.9668 15.158v24.518h7.0977v-14.84l4.1934 14.84h2.9043l4.1934-14.84v14.84h7.0957v-24.518h-9.6777l-3.0703 12.582-3.0586-12.582h-9.6777zm27.742 0v24.518h14.518v-5.4844h-6.7754v-4.1953h5.8066v-5.4824h-5.8066v-3.8711h6.7754v-5.4844h-14.518zm16.453 0v24.518h11.289c6.4516 0 6.4531-5.8066 6.4531-5.8066v-12.904s-0.00166-5.8066-8.3887-5.8066h-9.3535zm20 0v24.518h7.7402v-24.518h-7.7402zm14.191 0-4.8379 24.518h7.7422l0.64453-4.5156h3.5488l0.64648 4.5156h7.7402l-4.8379-24.518h-10.646zm24.195 0v24.518h14.516v-5.4844h-6.7734v-4.1953h5.8066v-5.4824h-5.8066v-3.8711h6.7734v-5.4844h-14.516zm16.129 0v24.518h7.0957v-13.227l4.8398 13.227h7.0957v-24.518h-7.0957v12.258l-4.1953-12.258h-7.7402zm21.289 0v24.518h7.7422v-9.6797h3.2266v9.6797h7.7422v-24.518h-7.7422v9.3555h-3.2266v-9.3555h-7.7422zm25.16 0-4.8379 24.518h7.7422l0.64454-4.5156h3.5488l0.64649 4.5156h7.7402l-4.8379-24.518h-10.646zm16.775 0v24.518h7.0976v-13.227l4.8379 13.227h7.0957v-24.518h-7.0957v12.258l-4.1934-12.258h-7.7422zm26.775 0c-3.2258 0-5.8066 2.9029-5.8066 6.1289v12.582c0 3.2258 2.5808 6.1289 5.8066 6.1289h6.1289c3.2258 0 5.8066-2.9029 5.8066-6.1289v-3.5488h-7.0977c0 3.2258 5.2e-4 4.1934-1.4414 4.1934-1.4613 0-1.4609-0.96758-1.4609-4.1934v-5.8066c0-3.2258-4.4e-4 -4.1934 1.4512-4.1934 1.4516 0 1.4512 0.96754 1.4512 4.1934h7.0977c-0.05481-0.68386 0-3.2266 0-3.2266 0-3.2258-2.5807-6.1289-5.8066-6.1289h-6.1289zm13.869 0v24.518h14.518v-5.4844h-6.7734v-4.1953h5.8066v-5.4824h-5.8066v-3.8711h6.7734v-5.4844h-14.518zm16.131 0v24.518h7.0957v-14.518l4.1934 14.518h2.9024l4.1953-14.84v14.84h7.0957v-24.518h-9.3535l-3.3789 12.582-3.3965-12.582h-9.3535zm27.742 0v24.518h14.516v-5.4844h-6.7754v-4.1953h5.8066v-5.4824h-5.8066v-3.8711h6.7754v-5.4844h-14.516zm16.127 0v24.518h7.0977v-13.227l4.8379 13.227h7.0976v-24.518h-7.0976v12.258l-4.1934-12.258h-7.7422zm20.645 0v5.4863h4.1953v19.031h7.7422v-19.031h4.1934v-5.4863h-16.131zm-219.53 5.1621 1.1387 9.3535h-2.2559l1.1172-9.3535zm86.789 0 1.125 9.3535h-2.2578l1.1328-9.3535zm-118.87 0.32421c2.5806 0 3.2394 0.63691 3.2266 3.8691v5.8066c0 3.2258-0.64591 3.8711-3.2266 3.8711v-13.547z" fill="#fafafa" stroke-linecap="round" stroke-linejoin="round" stroke-width="8" style="paint-order:stroke markers fill"/>
 <style type="text/css">.st0{fill:#FC0C18;}
	.st1{fill:#FC0C18;}</style>
 <style type="text/css">.st0{fill:#FC0C18;}
	.st1{fill:#FC0C18;}</style>
</svg>
