<svg width="480" height="320" version="1.1" viewBox="0 0 480 320" xml:space="preserve" xmlns="http://www.w3.org/2000/svg"><defs><linearGradient id="a" x1="21.41" x2="65.71" y1="2.214e-7" y2="76.73" gradientTransform="matrix(3.78 0 0 3.78 4.453e-6 -8.367e-7)" gradientUnits="userSpaceOnUse"><stop stop-color="#2a7329" offset="0"/><stop stop-color="#29332d" offset="1"/></linearGradient></defs><rect width="480" height="320" ry="24" fill="url(#a)"/><path d="m83.31 107-11.54 63.74v1.322c0 3.595 2.833 6.43 6.24 6.43h11.92c3.97 0 7.179-2.835 7.94-6.43l11.92-65.06h-8.512l-11.16 61.09c-0.3751 1.323-1.511 2.459-3.022 2.459h-4.543c-1.136 0-2.084-0.9482-2.084-2.272l11.17-61.28h-8.326zm31.77 0-13.04 71.49 8.689-0.1875 5.867-31.97h11.16c3.97 0 7.189-2.647 7.752-6.43l4.543-25.34c0.1875-0.3751 0.1875-0.7597 0.1875-1.135 0-3.595-2.833-6.43-6.428-6.43h-18.72zm30.44 0-13.04 71.49h19.48l1.322-7.939h-10.6l4.543-24.78h10.59l1.512-8.127h-10.59l3.971-22.51h10.78l1.324-8.139h-19.3zm68.84 0-13.04 71.49h8.887c6.429-36.51 7.377-44.82 7.752-53.34 0 7.189 0.1885 15.13 3.783 53.34h8.699l13.04-71.49h-8.699c-6.616 36.7-7.564 47.1-7.752 54.66-0.1876-7.189-0.1885-16.45-3.971-54.66zm35.19 0-12.87 71.49h8.512l13.06-71.49h-8.699zm15.32 0-13.06 71.49h8.896c6.429-36.51 7.377-44.82 7.752-53.34 0 7.189 0.1885 15.13 3.783 53.34h8.699l13.05-71.49h-8.701c-6.616 36.7-7.564 47.1-7.752 54.66-0.1876-7.189-0.1885-16.45-3.971-54.66h-8.699zm31.96 0-1.512 8.139h6.242l-11.72 63.35h8.699l11.54-63.35h5.865l1.699-8.139h-20.81zm24.4 0-13.04 71.49h19.48l1.324-7.939h-10.59l4.533-24.78h10.6l1.512-8.127h-10.59l3.969-22.51h10.78l1.322-8.139h-19.29zm25.15 0-13.05 71.49h8.889c6.429-36.51 7.377-44.82 7.752-53.34 0 7.189 0.1885 15.13 3.783 53.34h8.699l13.04-71.49h-8.699c-6.616 36.7-7.564 47.1-7.752 54.66-0.1876-7.189-0.1885-16.45-3.971-54.66zm35.18 0-13.04 71.49h20.61c3.97 0 7.189-2.835 7.752-6.43l10.4-57.49c0.1875-0.3751 0.1875-0.7597 0.1875-1.135 0-3.595-2.835-6.43-6.43-6.43h-19.48zm39.34 0c-3.782 0-7.002 2.835-7.752 6.43l-10.21 57.31v1.322c0 3.595 2.648 6.43 6.242 6.43h11.92c3.97 0 7.179-2.835 7.939-6.43l10.21-57.49v-1.135c0-3.595-2.835-6.43-6.242-6.43h-12.11zm-362.7 0.1777c-3.782 0-6.991 2.646-7.752 6.428l-2.084 12.3c-0.5626 3.595-0.3749 5.491 1.896 9.648 1.698 3.209 7.378 13.99 8.701 16.45 1.698 3.032 2.072 4.156 1.697 6.053l-1.896 10.02c-0.3855 1.323-1.708 2.459-3.219 2.459h-4.543c-1.136 0-2.084-0.9483-2.084-2.084v-0.1875l2.646-15.32h-8.326l-3.219 18.16v1.135c0 3.595 2.646 6.429 6.24 6.44h11.92c3.97 0 7.179-2.833 7.94-6.428l2.459-13.81c0.7502-3.22 8.97e-4 -6.24-0.9473-8.137-0.7502-1.896-7.565-13.24-8.889-15.7-1.896-3.209-2.645-5.105-2.051-9.096l1.51-7.939c0.3751-1.323 1.511-2.459 3.022-2.459h4.543c1.136 0 2.084 0.9483 2.084 2.084v0.375l-2.646 14.75h8.324l3.023-17.59v-1.137c0-3.595-3.023-6.428-6.43-6.428h-11.92zm111.6 0.01-12.87 71.49h8.699l5.68-31.58h6.803c1.136 0 2.084 0.9482 2.084 2.272l-5.106 29.32h8.711l5.106-28.18v-1.137c0.3751-2.646-0.7617-4.917-3.221-5.865 2.834-0.9482 4.918-3.033 5.48-6.055l3.971-22.51c0.1876-0.5626 0.1875-0.9472 0.1875-1.322 0-3.595-2.833-6.43-6.428-6.43h-19.1zm-47.67 7.752h7.189c1.136 0 2.084 0.9483 2.084 2.084v0.375l-3.596 18.54c-0.3751 1.511-1.511 2.459-3.022 2.459h-7.002l4.346-23.46zm55.04 0h6.805c1.136 0 2.082 0.9483 2.082 2.084v0.375l-3.406 18.54c-0.3751 1.323-1.511 2.459-3.022 2.459l-6.627-0.1875 4.168-23.27zm211.4 0h7.752c1.136 0 2.084 0.9483 2.084 2.084v0.375l-9.262 50.69c-0.3751 1.323-1.513 2.459-3.023 2.459h-0.01v-0.1992h-7.564l10.02-55.41zm34.99 0h4.73c1.136 0 2.084 0.9483 2.084 2.084v0.375l-9.074 50.69c-0.3751 1.323-1.513 2.459-3.023 2.459h-4.543c-1.136 0-2.082-0.9483-2.082-2.084 0 0 5e-5 -0.1874-0.1875-0.375l9.074-50.69c0.3751-1.323 1.698-2.459 3.022-2.459zm-382.6 70.36v27.8h399v-27.8zm287.8 4.906c4.366 0.198 3.231 4.169 2.846 5.68h-2.834c0.3751-1.511 0.7596-3.022-0.9492-3.022-0.9482 0-1.698 0.374-1.896 1.51-0.3751 1.323 0.1886 1.698 0.9492 2.459 0.7606 0.5626 2.084 1.896 2.646 2.834 0.7606 1.136 0.7605 2.085 0.375 3.596-0.7606 3.22-3.221 4.918-6.055 4.918-3.407 0-4.156-2.084-3.219-5.106l0.375-1.324h2.834l-0.1875 0.9492c-0.5626 1.698-0.376 2.834 1.135 2.834 1.136 0 1.896-0.7608 2.272-1.896 0.1876-0.9482 1.5e-4 -1.698-0.5625-2.272-1.136-1.323-2.833-2.272-3.406-3.971-0.1875-0.7606-0.3751-1.698 0-2.646 0.7606-2.834 2.646-4.543 5.678-4.543zm39.72 0c4.355 0.198 3.219 4.169 2.656 5.68h-2.646c0.3751-1.511 0.7615-3.022-0.9473-3.022-0.9482 0-1.698 0.374-1.896 1.51-0.3751 1.323 0.1886 1.698 0.9492 2.459 0.7606 0.5626 2.084 1.896 2.646 2.834 0.7606 1.136 0.7605 2.085 0.375 3.596-0.7606 3.22-3.221 4.918-6.055 4.918-3.407 0-4.156-2.084-3.219-5.106l0.375-1.324h2.834l-0.1875 0.9492c-0.5626 1.698-0.376 2.834 1.135 2.834 1.136 0 1.896-0.7608 2.272-1.896 0.1875-0.9482 1.5e-4 -1.698-0.5625-2.272-1.136-1.323-2.833-2.272-3.406-3.971-0.1876-0.7606-0.3751-1.698 0-2.646 0.7606-2.834 2.646-4.543 5.678-4.543zm-276.9 0.5742h9.459l-0.5723 2.459h-3.209l-3.783 14.37h-2.834l3.783-14.37h-3.408l0.5644-2.459zm38.4 0h5.293c2.646 0 4.354 0.9471 3.406 4.156-0.5626 1.896-1.51 3.783-3.406 4.158 1.698 0.1875 1.897 1.511 1.324 3.022-0.1875 0.7606-1.324 4.918-0.7617 5.293v0.375h-3.219c0-1.136 0.5618-3.22 0.7598-4.346 0.1876-1.136 0.5627-2.459-0.1875-2.834-0.7606-0.1876-1.511-0.1875-2.272-0.1875h-0.5625l-1.896 7.189h-2.834l4.356-16.83zm19.09 0h9.461l-0.5625 2.459h-3.219l-3.783 14.37h-2.834l3.783-14.37h-3.408l0.5625-2.459zm142.6 0h9.461l-0.5625 2.459h-3.219l-3.783 14.37h-2.834l3.783-14.37h-3.408l0.5625-2.459zm89.65 0h9.461l-0.375 2.459h-3.406l-3.783 14.37h-2.834l3.783-14.37h-3.408zm-31.01 0.1758h3.022l-6.043 9.66-1.896 7.189h-2.834l1.896-7.189-1.512-9.648h3.022l0.377 4.344c0 0.7606 0.1876 1.698 0 2.646 0.5626-1.323 1.135-2.271 1.697-3.219l2.272-3.783zm-298.2 0.0117h7.94l-0.75 2.272h-5.106l-1.137 4.344h4.73l-0.5625 2.459h-4.73l-1.324 5.293h5.107l-0.5644 2.459h-7.949l4.346-16.83zm201.4 0h7.939l-0.7617 2.272h-5.106l-1.135 4.344h4.73l-0.5625 2.459h-4.73l-1.324 5.293h5.106l-0.5625 2.459h-7.94l4.346-16.83zm148.4 0h7.939l-0.5625 2.272h-5.106l-1.137 4.344h4.73l-0.5625 2.459h-4.73l-1.324 5.293h5.107l-0.5645 2.459h-8.137l4.346-16.83zm-290.5 0.01h7.939l-0.752 2.262h-5.106l-1.135 4.344h4.73l-0.5625 2.459h-4.73l-1.334 5.305h5.106l-0.5625 2.459h-7.939l4.346-16.83zm59.95 0h3.781l-0.9473 16.83h-3.022l0.375-4.346h-3.408l-1.896 4.346h-3.022l8.139-16.83zm18.91 0h2.834l-4.344 16.83h-2.836zm38.02 0h4.543l-0.5625 7.939c0 1.323-0.5618 3.407-0.7598 4.73 0.5626-1.698 1.135-3.595 1.697-4.73l3.596-7.939h4.543l-4.356 16.83h-2.834l1.322-5.293c0.9482-3.407 1.896-6.804 2.834-10.02l-7 15.32h-1.699l1.135-15.32h-0.1875c-0.7606 3.407-1.511 6.804-2.459 10.02l-1.322 5.293h-2.834l4.344-16.83zm193.7 0h4.543l-0.5625 7.939c0 1.323-0.5638 3.407-0.7617 4.73 0.5626-1.698 1.137-3.595 1.699-4.73l3.594-7.939h4.543l-4.356 16.83h-2.834l1.324-5.293c0.9482-3.407 1.896-6.804 2.834-10.02l-7.002 15.32h-1.699l1.137-15.32h-0.1875c-0.7606 3.407-1.511 6.804-2.459 10.02l-1.324 5.293h-2.834l4.346-16.83zm-349.7 0.01h3.022l0.5625 6.242c0.1876 1.896 0.375 3.971 0.1875 6.805 0.3751-1.511 0.5637-3.22 0.9492-4.73 0.3751-1.698 0.7597-3.22 1.135-4.73l0.9492-3.408h2.844l-4.543 16.64h-3.022l-0.5625-6.055c-0.1876-2.084-0.375-3.969-0.1875-6.803-0.1876 1.323-0.5637 3.022-0.9492 4.918-0.3751 1.698-0.7597 3.407-1.135 4.73l-0.7617 3.219h-2.834l4.346-16.83zm134.1 0h3.022l0.5625 6.242c0.1876 1.896 0.375 3.971 0.1875 6.805 0.3751-1.511 0.5618-3.22 0.9473-4.73 0.3751-1.698 0.7616-3.22 1.137-4.73l0.9473-3.408h2.834l-4.719 16.64h-2.836l-0.5625-6.055c-0.1876-2.084-0.375-3.969-0.1875-6.803-0.1876 1.323-0.5618 3.022-0.9473 4.918-0.3751 1.698-0.7616 3.407-1.137 4.73l-0.7598 3.219h-2.834l4.346-16.83zm65.44 0h3.022l0.5625 6.242c0.1876 1.896 0.375 3.971 0.1875 6.805 0.3751-1.511 0.5637-3.22 0.9492-4.73 0.3751-1.698 0.7597-3.22 1.135-4.73l0.9473-3.408h2.836l-4.533 16.64h-3.022l-0.5625-6.055c-0.1876-2.084-0.375-3.969-0.1875-6.803-0.1875 1.323-0.5637 3.022-0.9492 4.918-0.3751 1.698-0.7597 3.407-1.135 4.73l-0.7617 3.219h-2.834l4.346-16.83zm-98.93 1.303c-0.1876 0.3751-0.375 1.324-0.5625 1.699-0.3751 0.7606-0.5637 1.511-0.9492 2.272l-2.084 4.73h2.471l0.5625-4.73c0-0.7606 0.1874-1.511 0.375-2.272 0-0.3751 0.1875-1.324 0.1875-1.699zm-40.66 0.9492-1.137 4.73h2.272c0.9482 0 1.896-0.7606 2.272-2.459 0.3855-1.896-0.1866-2.272-1.322-2.272z" fill="#afa"/><path d="m192.6 256v23.97h6.422v-9.482h4.703v9.482h6.422v-23.97h-6.422v9.82h-4.703v-9.82zm25.2 0-6.16 23.97h6.422l0.7851-3.584h5.748l0.748 3.584h6.57l-6.16-23.97h-7.953zm20.91 0c-3.659 0-5.488 1.545-5.488 4.631v14.71c0 3.086 1.83 4.629 5.488 4.629h5.264c3.659 0 5.488-1.543 5.488-4.629v-4.182h-6.533v3.695c0 0.5476-0.3114 0.8223-0.9336 0.8223h-1.307c-0.6222 0-0.9336-0.2747-0.9336-0.8223v-13.74c0-0.5476 0.3114-0.8203 0.9336-0.8203h1.307c0.6222 0 0.9336 0.2728 0.9336 0.8203v3.846h6.533v-4.33c0-3.086-1.83-4.631-5.488-4.631h-5.264zm13.18 0v23.97h6.533v-23.97zm11.01 0-4.443 11.72 4.48 12.25h7.018l-4.703-12.25 4.666-11.72zm13.85 0c-3.634 0-5.449 1.545-5.449 4.631v4.928c0 1.518 0.3725 2.688 1.119 3.51 0.7716 0.7964 2.078 1.193 3.92 1.193h3.584c0.6222 0 0.9336 0.2747 0.9336 0.8223v3.396c0 0.5476-0.3114 0.8223-0.9336 0.8223h-1.082c-0.6222 0-0.9336-0.2747-0.9336-0.8223v-2.016h-6.533v2.875c0 3.086 1.83 4.629 5.488 4.629h5.076c3.634 0 5.451-1.543 5.451-4.629v-4.928c0-1.493-0.3989-2.627-1.195-3.398-0.7716-0.7716-2.078-1.156-3.92-1.156h-3.508c-0.6222 0-0.9336-0.2747-0.9336-0.8223v-3.547c0-0.5476 0.3114-0.8203 0.9336-0.8203h1.082c0.6222 0 0.9336 0.2728 0.9336 0.8203v2.016h6.533v-2.873c0-3.086-1.817-4.631-5.451-4.631h-5.115zm-54.99 7.131 1.828 8.625h-3.732z" fill="#afa"/></svg>
