<svg width="480" height="320" version="1.1" viewBox="0 0 480 320" xmlns="http://www.w3.org/2000/svg"><defs><linearGradient id="a" x1="10.58" x2="30.66" y1="-2.561" y2="78.9" gradientTransform="scale(3.78)" gradientUnits="userSpaceOnUse"><stop stop-color="#f9c440" offset="0"/><stop stop-color="#d48e15" offset="1"/></linearGradient></defs><rect width="480" height="320" ry="24" fill="url(#a)"/><path d="m133.8 109.2c-34.78-0.0516-56.57 37.61-39.22 67.79 0.1864 0.3228 0.3758 0.645 0.5682 0.9647h2.595l34.33-34.37c3.142 3.136 7.45-1.101 8.7-2.48l-2.154-2.157c-2.991-2.976-5.549 1.583-5.549 1.583l-6.54-6.555s10.2-4.661 15.76 0.8967c1.985 1.994 3.285 3.299 4.155 4.161l7.606-7.611c-1.482-4.089 2.011-8.251 6.288-7.493 4.277 0.7606 6.131 5.872 3.335 9.2-1.524 1.815-4.02 2.482-6.244 1.675l-7.602 7.611 4.128 4.146c5.559 5.555 0.8878 15.77 0.8878 15.77l-6.537-6.558s4.553-2.536 1.58-5.555l-2.157-2.113c-1.376 1.259-5.606 5.573-2.465 8.712l-21.12 21.14h48.36c18.08-29.75-2.779-67.94-37.55-68.75-0.3788-9e-3 -0.7576-0.0136-1.136-0.0117zm-68.51 4.365c-7.884 0-14.08 1.663-18.58 4.989-4.505 3.327-6.756 8.048-6.756 14.17 0 5.204 1.466 9.167 4.4 11.89 2.934 2.723 7.409 5.053 13.42 6.987 4.506 1.511 7.524 2.98 9.055 4.406a6.327 6.335 0 0 1 2.273 4.676 5.838 5.844 0 0 1-3.033 5.185 14.56 14.57 0 0 1-7.848 1.912 31.61 31.65 0 0 1-9.825-1.607 27.94 27.97 0 0 1-6.445-2.681l-1.157 12.71c2.056 0.609 4.715 1.227 7.975 1.858a53.1 53.16 0 0 0 10.27 0.9558c7.732 0 13.88-1.689 18.45-5.072s6.851-8.134 6.851-14.25c0-5.024-1.226-8.97-3.681-11.84-2.455-2.87-6.732-5.285-12.83-7.242-5.508-1.866-8.971-3.375-10.39-4.53a5.221 5.227 0 0 1-2.122-4.179 5.854 5.861 0 0 1 2.805-5.312c1.867-1.176 4.409-1.767 7.602-1.767a32.46 32.49 0 0 1 13.99 2.986l1.08-11.84a45.04 45.1 0 0 0-6.934-1.69 49.56 49.62 0 0 0-8.567-0.7102zm355.6 0c-7.884 0-14.08 1.663-18.58 4.989-4.505 3.327-6.759 8.048-6.759 14.17 0 5.201 1.478 9.167 4.4 11.89 2.923 2.723 7.393 5.076 13.39 6.987 4.505 1.511 7.524 2.98 9.055 4.406a6.327 6.335 0 0 1 2.273 4.676 5.829 5.836 0 0 1-3.042 5.17 14.56 14.57 0 0 1-7.848 1.909 31.6 31.64 0 0 1-9.781-1.589c-3.261-1.057-5.424-1.954-6.454-2.681l-1.166 12.69c2.053 0.609 4.703 1.227 7.972 1.861a53.03 53.09 0 0 0 10.26 0.9558c7.732 0 13.88-1.692 18.45-5.075 4.567-3.383 6.847-8.134 6.836-14.25 0.0113-5.012-1.204-8.942-3.649-11.79-2.45-2.819-6.726-5.241-12.82-7.265-5.499-1.869-8.971-3.38-10.39-4.53a5.195 5.201 0 0 1-2.119-4.179 5.854 5.861 0 0 1 2.802-5.312c1.867-1.176 4.409-1.767 7.602-1.767a32.38 32.42 0 0 1 13.94 2.986l1.089-11.84a45.29 45.34 0 0 0-6.937-1.69 49.56 49.62 0 0 0-8.514-0.7102zm-236 1.089v63.36l50.9-0.0828 5.17-13.9h25.12l5.069 13.9h16.32l-24.93-63.28h-17.5l-20.16 52.11h-25.11v-52.11zm102.6 63.28h14.88v-25.7h4.554a7.147 7.155 0 0 1 5.709 2.317 16.96 16.98 0 0 1 3.169 5.862l6.327 17.52h15.96l-6.759-17.71-0.3966-0.8197c-0.9011-2.475-1.972-5.048-3.217-7.715a8.802 8.813 0 0 0-5.848-5.072c4.421-0.9021 7.653-2.778 9.698-5.625a15.77 15.79 0 0 0 3.084-9.446c0-5.751-1.97-10-5.913-12.76-3.942-2.752-9.616-4.131-17.02-4.137h-24.23zm50.6-63.28v39.85c0 8.052 2.33 14.15 6.987 18.29 4.658 4.144 11.37 6.215 20.13 6.215 8.943 0 15.67-2.146 20.17-6.443 4.505-4.297 6.759-10.78 6.759-19.45v-38.46h-14.88v36.49c0 5.39-0.9784 9.491-2.933 12.3-1.954 2.808-5.025 4.218-9.215 4.229-4.114 0-7.154-1.364-9.165-4.087s-2.983-6.681-2.983-11.89v-37.04zm-35.74 10.89h5.803c3.751 0 6.565 0.6177 8.449 1.852 1.884 1.235 2.865 3.258 2.865 6.049a6.674 6.681 0 0 1-2.856 5.936h-0.0325c-1.901 1.311-4.587 1.953-7.966 1.953h-6.262zm-48.59 1.811 8.532 25.69h-17.41zm-71.2 59.04c-4.334 0-7.737 1.082-10.2 3.196-2.458 2.114-3.693 5.099-3.693 8.981 0 3.882 1.199 6.844 3.59 8.958 2.399 2.126 5.72 3.187 9.961 3.187a25.02 25.05 0 0 0 4.646-0.4321 32.46 32.49 0 0 0 3.557-0.8464v-12.68h-9.579v4.084h4.223v5.202a7.476 7.485 0 0 1-1.13 0.3019 8.059 8.068 0 0 1-1.631 0.1361 7.848 7.857 0 0 1-5.762-2.157 7.679 7.688 0 0 1-2.205-5.75 7.476 7.485 0 0 1 2.424-5.777 9.436 9.447 0 0 1 6.505-2.148 14.66 14.68 0 0 1 3.234 0.3551 11.44 11.45 0 0 1 2.906 1.065l0.3729-4.312v-0.2368a15.21 15.22 0 0 0-3.092-0.8464 27.31 27.34 0 0 0-4.131-0.2782zm35.22 0c-4.342 0-7.737 1.082-10.2 3.196-2.458 2.114-3.693 5.099-3.693 8.981 0 3.882 1.19 6.844 3.581 8.958 2.399 2.126 5.72 3.187 9.961 3.187a24.8 24.83 0 0 0 4.637-0.4321 31.11 31.15 0 0 0 3.557-0.8464v-12.68h-9.561v4.084h4.223v5.202a7.087 7.096 0 0 1-1.124 0.3019 8.169 8.178 0 0 1-1.631 0.1361 7.856 7.866 0 0 1-5.768-2.157 7.712 7.722 0 0 1-2.199-5.75 7.442 7.451 0 0 1 2.409-5.777 9.47 9.481 0 0 1 6.513-2.148 14.7 14.72 0 0 1 3.226 0.3551 11.15 11.16 0 0 1 2.897 1.065l0.3729-4.312v-0.2368a14.78 14.8 0 0 0-3.084-0.8464 27.19 27.22 0 0 0-4.122-0.2782zm158.3 0c-4.342 0-7.745 1.082-10.2 3.196-2.458 2.114-3.684 5.099-3.684 8.981 0 3.882 1.19 6.844 3.581 8.958 2.405 2.126 5.729 3.187 9.97 3.187a24.78 24.81 0 0 0 4.628-0.4321 31.11 31.15 0 0 0 3.557-0.8464v-12.68h-9.579v4.084h4.223v5.202a6.505 6.512 0 0 1-1.116 0.3019 8.203 8.212 0 0 1-1.636 0.1361 7.848 7.857 0 0 1-5.762-2.157 7.712 7.722 0 0 1-2.199-5.75 7.442 7.451 0 0 1 2.4-5.845 9.461 9.472 0 0 1 6.54-2.148 14.59 14.61 0 0 1 3.226 0.3551 11.33 11.34 0 0 1 2.906 1.065l0.3462-4.244v-0.2368a14.61 14.62 0 0 0-3.066-0.8464 27.4 27.43 0 0 0-4.131-0.2782zm-327 0.3699-9.097 23.53h5.676l1.926-5.176h9.292l1.909 5.176h6.064l-9.266-23.53zm18.43 0v23.53h5.193v-16.63l8.567 16.26 0.1923 0.3728h6.668v-23.53h-5.146v16.77l-8.6-16.77zm42.24 0-9.1 23.53h5.661l1.918-5.176h9.343l1.885 5.176h6.064l-9.266-23.53zm18.16 0v23.53h5.534v-9.564l1.699 0.0325a2.61 2.613 0 0 1 2.119 0.8463 6.234 6.242 0 0 1 1.193 2.166l2.364 6.519h5.913l-2.533-6.579-0.145-0.3048c-0.3548-0.9219-0.7339-1.878-1.198-2.868a3.269 3.273 0 0 0-2.172-1.894 5.643 5.65 0 0 0 3.616-2.098 5.863 5.87 0 0 0 1.13-3.501 5.381 5.387 0 0 0-2.178-4.747c-1.461-1.015-3.582-1.539-6.345-1.539zm21.6 0v23.53h5.534v-8.617h2.518c2.81 6e-3 5.001-0.6483 6.573-1.962a6.918 6.927 0 0 0 2.364-5.617c0-2.478-0.8804-4.321-2.536-5.522-1.656-1.201-4.07-1.811-7.23-1.811zm87.76 0-9.1 23.53h5.661l1.926-5.176h9.292l1.891 5.176h6.04l-9.2-23.53zm18.3 0v23.53h5.356l-0.074-18.69 6.182 18.32h4.918l6.3-18.29-0.0592 18.66h5.347v-23.53h-8.321l-5.634 16.41-5.457-16.41zm32.69 0v23.53h15.57v-4.093h-10.04v-5.972h9.121v-4.051h-9.121v-5.362h9.849v-4.051zm29.64 0v23.53h15.52v-4.093h-10.04v-5.972h9.141v-4.051h-9.141v-5.362h9.875v-4.051zm19.77 0v23.53h5.188v-16.64l8.558 16.26 0.219 0.3728h6.7v-23.53h-5.196v16.77l-8.582-16.77zm50.92 0v23.53h5.534v-23.53zm10.4 0v23.53h5.143v-16.63l8.558 16.26 0.2011 0.3728h6.709v-23.53h-5.196v16.77l-8.547-16.77zm25.41 0v23.53h15.57v-4.093h-10.04v-5.972h9.115v-4.051h-9.115v-5.362h9.843v-4.051zm-288.3 4.043a5.913 5.92 0 0 1 2.619 0.7043 2.534 2.537 0 0 1 1.056 2.249 2.441 2.444 0 0 1-1.089 2.199 5.204 5.21 0 0 1-2.965 0.728h-2.314v-5.871h2.146a5.913 5.92 0 0 1 0.5475-9e-3zm18.91 0.0681h1.885a4.503 4.508 0 0 1 2.897 0.8463 3.007 3.011 0 0 1 1.08 2.471 3.168 3.172 0 0 1-1.065 2.536 4.317 4.322 0 0 1-2.912 0.9055l-1.885-0.0592zm-102.7 0.6274 3.161 9.538h-6.463zm60.66 0 3.175 9.538h-6.478zm127.5 0 3.16 9.538h-6.463z" fill="#fff"/></svg>
