<svg width="480" height="320" version="1.1" viewBox="0 0 127 84.667" xmlns="http://www.w3.org/2000/svg" xmlns:xlink="http://www.w3.org/1999/xlink">
 <defs>
  <linearGradient id="a" x1="10.583" x2="30.655" y1="-2.5613" y2="78.905" gradientUnits="userSpaceOnUse">
   <stop stop-color="#f9c440" offset="0"/>
   <stop stop-color="#d48e15" offset="1"/>
  </linearGradient>
 </defs>
 <rect width="127" height="84.667" ry="4.2333" fill="url(#a)" stroke-linecap="square" stroke-linejoin="round" stroke-width=".52917" style="paint-order:stroke fill markers"/>
 <path d="m35.415 28.904c-9.2016-0.01364-14.967 9.9505-10.378 17.936 0.04931 0.0854 0.09942 0.17066 0.15033 0.25525h0.68668l9.0834-9.0943c0.83144 0.82984 1.9712-0.29133 2.302-0.65614l-0.57001-0.57079c-0.79135-0.78734-1.4681 0.4189-1.4681 0.4189l-1.7304-1.7343s2.7001-1.2332 4.1686 0.23724c0.52516 0.52757 0.8692 0.87277 1.0993 1.1009l2.0123-2.0138c-0.39207-1.082 0.53213-2.183 1.6638-1.9825 1.1317 0.20125 1.6221 1.5535 0.88242 2.4343-0.40329 0.48026-1.0636 0.65684-1.6521 0.44317l-2.0115 2.0138 1.0923 1.097c1.4709 1.4697 0.2349 4.1733 0.2349 4.1733l-1.7296-1.7351s1.2047-0.67109 0.41811-1.4697l-0.5708-0.55905c-0.364 0.33314-1.4833 1.4745-0.65222 2.3051l-5.5881 5.5936h12.794c4.785-7.871-0.73529-17.976-9.936-18.189-0.10023-0.0024-0.20044-0.0036-0.30066-0.0031zm-18.127 1.1549c-2.0861 0-3.7251 0.43994-4.9171 1.3201-1.192 0.88017-1.7875 2.1295-1.7875 3.7481 0 1.3769 0.38797 2.4255 1.1643 3.146 0.77633 0.72055 1.9602 1.3369 3.5516 1.8486 1.1921 0.3998 1.9906 0.78843 2.3959 1.1659a1.6741 1.6761 0 0 1 0.60133 1.2371 1.5445 1.5463 0 0 1-0.80256 1.3718 3.8511 3.8556 0 0 1-2.0765 0.5058 8.3637 8.3736 0 0 1-2.5995-0.42516 7.3915 7.4001 0 0 1-1.7053-0.70938l-0.30615 3.3637c0.54387 0.16112 1.2474 0.32463 2.1101 0.49171a14.048 14.064 0 0 0 2.7177 0.2529c2.0459 0 3.6727-0.44694 4.8811-1.342s1.8126-2.1522 1.8126-3.7708c0-1.3292-0.32436-2.3734-0.97403-3.1327-0.64966-0.75933-1.7813-1.3983-3.395-1.916-1.4573-0.49379-2.3736-0.89292-2.7491-1.1987a1.3813 1.3829 0 0 1-0.5614-1.1056 1.5489 1.5507 0 0 1 0.74227-1.4055c0.49396-0.31104 1.1666-0.46744 2.0115-0.46744a8.5872 8.5973 0 0 1 3.7012 0.79003l0.28579-3.1335a11.918 11.932 0 0 0-1.8345-0.44708 13.113 13.129 0 0 0-2.2667-0.18792zm94.098 0c-2.0861 0-3.7251 0.43994-4.9171 1.3201-1.192 0.88017-1.7883 2.1295-1.7883 3.7481 0 1.3762 0.39095 2.4255 1.1643 3.146 0.77335 0.72055 1.9561 1.3429 3.543 1.8486 1.192 0.3998 1.9906 0.78843 2.3959 1.1659a1.6741 1.6761 0 0 1 0.60133 1.2371 1.5422 1.544 0 0 1-0.8049 1.3679 3.8511 3.8556 0 0 1-2.0765 0.50502 8.3615 8.3713 0 0 1-2.5878-0.42046c-0.86274-0.27972-1.435-0.51694-1.7077-0.70938l-0.3085 3.3566c0.54313 0.16112 1.2444 0.32467 2.1094 0.4925a14.03 14.046 0 0 0 2.7138 0.2529c2.0459 0 3.6727-0.44773 4.8811-1.3428 1.2084-0.89509 1.8117-2.1522 1.8087-3.7708 3e-3 -1.3262-0.31868-2.366-0.96541-3.1194-0.64818-0.74591-1.7797-1.3867-3.3934-1.9222-1.455-0.49454-2.3736-0.89441-2.749-1.1987a1.3746 1.3762 0 0 1-0.56061-1.1056 1.5489 1.5507 0 0 1 0.74148-1.4055c0.49396-0.31104 1.1666-0.46744 2.0115-0.46744a8.5671 8.5772 0 0 1 3.6886 0.79003l0.28814-3.1335a11.982 11.996 0 0 0-1.8353-0.44708 13.113 13.129 0 0 0-2.2526-0.18792zm-62.455 0.28814v16.765l13.467-0.02192 1.3679-3.6769h6.6467l1.3412 3.6769h4.3181l-6.5958-16.743h-4.629l-5.3352 13.787h-6.6444v-13.787zm27.141 16.743h3.9361v-6.801h1.205a1.8909 1.8931 0 0 1 1.5104 0.61308 4.4881 4.4933 0 0 1 0.83857 1.5511l1.674 4.6368h4.2242l-1.7883-4.6861-0.10492-0.21689c-0.23841-0.6549-0.5218-1.3356-0.8511-2.0412a2.329 2.3317 0 0 0-1.5472-1.342c1.1697-0.23869 2.0249-0.73508 2.5658-1.4884a4.1729 4.1778 0 0 0 0.81587-2.4993c0-1.5217-0.52135-2.6466-1.5644-3.3747-1.043-0.728-2.5443-1.0931-4.5037-1.0946h-6.4103zm13.388-16.743v10.544c0 2.1303 0.61634 3.7439 1.8486 4.8404 1.2323 1.0965 3.0073 1.6443 5.3258 1.6443 2.3662 0 4.1455-0.56779 5.3376-1.7046 1.192-1.1368 1.7883-2.8529 1.7883-5.1473v-10.177h-3.936v9.6557c0 1.4262-0.25888 2.5111-0.77594 3.2541-0.51705 0.74292-1.3296 1.1159-2.4382 1.1189-1.0885 0-1.8929-0.36075-2.4249-1.0813s-0.78925-1.7676-0.78925-3.146v-9.8014zm-9.4569 2.8822h1.5354c0.99238 0 1.737 0.16344 2.2354 0.49015 0.49843 0.32671 0.75793 0.86197 0.75793 1.6004a1.7657 1.7678 0 0 1-0.75558 1.5707h-0.0086c-0.5029 0.34685-1.2137 0.51677-2.1078 0.51677h-1.6568zm-12.856 0.47918 2.2573 6.7978h-4.6063zm-18.838 15.62c-1.1466 0-2.047 0.28619-2.6974 0.84562-0.65041 0.55943-0.97716 1.3492-0.97716 2.3763 0 1.0271 0.31722 1.8107 0.94976 2.3701 0.63477 0.56242 1.5135 0.84327 2.6355 0.84327a6.6204 6.6281 0 0 0 1.2293-0.11432 8.5872 8.5973 0 0 0 0.94114-0.22393v-3.3559h-2.5345v1.0805h1.1173v1.3765a1.9781 1.9804 0 0 1-0.2991 0.07987 2.1323 2.1348 0 0 1-0.43142 0.03601 2.0764 2.0788 0 0 1-1.5245-0.57079 2.0317 2.0341 0 0 1-0.58332-1.5213 1.9781 1.9804 0 0 1 0.64126-1.5284 2.4966 2.4995 0 0 1 1.721-0.56844 3.8801 3.8847 0 0 1 0.8558 0.09396 3.0263 3.0299 0 0 1 0.76889 0.28187l0.09866-1.1408v-0.06264a4.0232 4.0279 0 0 0-0.81822-0.22393 7.2261 7.2346 0 0 0-1.093-0.0736zm9.3183 0c-1.1488 0-2.047 0.28619-2.6974 0.84562-0.65041 0.55943-0.97716 1.3492-0.97716 2.3763 0 1.0271 0.31488 1.8107 0.94741 2.3701 0.63477 0.56242 1.5135 0.84327 2.6355 0.84327a6.5622 6.57 0 0 0 1.2269-0.11432 8.2319 8.2415 0 0 0 0.94114-0.22393v-3.3559h-2.5298v1.0805h1.1173v1.3765a1.8752 1.8774 0 0 1-0.29753 0.07987 2.1613 2.1639 0 0 1-0.43142 0.03601 2.0786 2.0811 0 0 1-1.526-0.57079 2.0406 2.043 0 0 1-0.58176-1.5213 1.9691 1.9714 0 0 1 0.63735-1.5284 2.5055 2.5085 0 0 1 1.7233-0.56844 3.8891 3.8936 0 0 1 0.85345 0.09396 2.9503 2.9538 0 0 1 0.76654 0.28187l0.09866-1.1408v-0.06264a3.9114 3.916 0 0 0-0.81587-0.22393 7.1948 7.2032 0 0 0-1.0907-0.0736zm41.888 0c-1.1488 0-2.0493 0.28619-2.6997 0.84562-0.65041 0.55943-0.97481 1.3492-0.97481 2.3763 0 1.0271 0.31488 1.8107 0.94741 2.3701 0.63626 0.56242 1.5158 0.84327 2.6379 0.84327a6.5555 6.5632 0 0 0 1.2246-0.11432 8.2319 8.2415 0 0 0 0.94114-0.22393v-3.3559h-2.5345v1.0805h1.1173v1.3765a1.721 1.723 0 0 1-0.29519 0.07987 2.1703 2.1728 0 0 1-0.43299 0.03601 2.0764 2.0788 0 0 1-1.5245-0.57079 2.0406 2.043 0 0 1-0.58176-1.5213 1.9691 1.9714 0 0 1 0.635-1.5464 2.5033 2.5062 0 0 1 1.7304-0.56845 3.86 3.8645 0 0 1 0.85345 0.09396 2.9973 3.0008 0 0 1 0.76889 0.28187l0.0916-1.1228v-0.06264a3.8645 3.869 0 0 0-0.81117-0.22393 7.2484 7.2569 0 0 0-1.093-0.0736zm-86.525 0.09787-2.4069 6.2255h1.5018l0.50972-1.3694h2.4586l0.50502 1.3694h1.6043l-2.4515-6.2255zm4.8772 0v6.2255h1.3741v-4.4011l2.2667 4.3025 0.05089 0.09865h1.7641v-6.2255h-1.3616v4.4379l-2.2753-4.4379zm11.176 0-2.4077 6.2255h1.4978l0.50737-1.3694h2.4719l0.49876 1.3694h1.6043l-2.4515-6.2255zm4.8052 0v6.2255h1.4642v-2.5306l0.44943 0.0086a0.69064 0.69146 0 0 1 0.56062 0.22393 1.6495 1.6514 0 0 1 0.31554 0.57314l0.6256 1.7249h1.5644l-0.67024-1.7406-0.03836-0.08065c-0.09388-0.24391-0.19418-0.4969-0.31711-0.75871a0.86498 0.866 0 0 0-0.57471-0.50111 1.493 1.4948 0 0 0 0.9568-0.55513 1.5512 1.553 0 0 0 0.2991-0.92627 1.4238 1.4254 0 0 0-0.57628-1.2559c-0.38667-0.26852-0.94784-0.40715-1.6787-0.40715zm5.715 0v6.2255h1.4642v-2.28h0.66632c0.74354 0.0015 1.3233-0.17152 1.739-0.51912a1.8305 1.8327 0 0 0 0.6256-1.4861c0-0.65566-0.23294-1.1433-0.67102-1.461-0.43808-0.31776-1.0769-0.47919-1.9128-0.47919zm23.221 0-2.4077 6.2255h1.4978l0.50972-1.3694h2.4586l0.50032 1.3694h1.5981l-2.4343-6.2255zm4.8427 0v6.2255h1.4172l-0.01957-4.9453 1.6356 4.8467h1.3013l1.667-4.8396-0.01566 4.9383h1.4148v-6.2255h-2.2017l-1.4908 4.3416-1.4438-4.3416zm8.6504 0v6.2255h4.1193v-1.0829h-2.6551v-1.5801h2.4132v-1.0719h-2.4132v-1.4188h2.6058v-1.0719zm7.8408 0v6.2255h4.1075v-1.0829h-2.6551v-1.5801h2.4186v-1.0719h-2.4186v-1.4188h2.6128v-1.0719zm5.2319 0v6.2255h1.3726v-4.4019l2.2644 4.3033 0.05794 0.09865h1.7727v-6.2255h-1.3749v4.4379l-2.2706-4.4379zm13.474 0v6.2255h1.4642v-6.2255zm2.7514 0v6.2255h1.3608v-4.4011l2.2644 4.3025 0.0532 0.09865h1.775v-6.2255h-1.3749v4.4379l-2.2613-4.4379zm6.7227 0v6.2255h4.1193v-1.0829h-2.6551v-1.5801h2.4116v-1.0719h-2.4116v-1.4188h2.6042v-1.0719zm-76.273 1.0696a1.5646 1.5664 0 0 1 0.69294 0.18635 0.67053 0.67132 0 0 1 0.27953 0.59506 0.64594 0.6467 0 0 1-0.28814 0.58176 1.3768 1.3784 0 0 1-0.78455 0.19261h-0.61229v-1.5534h0.56766a1.5646 1.5664 0 0 1 0.14485-0.0023zm5.0025 0.01801h0.49876a1.1913 1.1927 0 0 1 0.76654 0.22393 0.79569 0.79663 0 0 1 0.28579 0.65379 0.83816 0.83915 0 0 1-0.28187 0.67102 1.1421 1.1435 0 0 1-0.77046 0.23959l-0.49876-0.01566zm-27.181 0.16599 0.83623 2.5236h-1.71zm16.05 0 0.84014 2.5236h-1.7139zm33.728 0 0.83622 2.5236h-1.71z" fill="#fff" stroke-width=".22364"/>
 <style type="text/css">.st0{fill:#FC0C18;}
	.st1{fill:#FC0C18;}</style>
</svg>
