<svg width="480" height="320" version="1.1" viewBox="0 0 480 320" xml:space="preserve" xmlns="http://www.w3.org/2000/svg"><defs><linearGradient id="a" x1="51.44" x2="87.77" y2="146.6" gradientTransform="scale(3.78)" gradientUnits="userSpaceOnUse"><stop stop-color="#0d52bf" offset="0"/><stop stop-color="#0e141f" offset="1"/></linearGradient></defs><rect width="480" height="320" ry="24" fill="url(#a)"/><path d="m367.1 101.3v3.937h5.867v-3.937zm7.764 0v3.937h5.865v-3.937zm-259.7 2.082v5.92h20.89v5.375c0 3.845-3.678 8.023-8.68 8.023h-14.32v5.918h17.58c2.6 0 5.026-1.378 6.668-3.955l4.074 4.842 6.992-0.0625-9.076-10.8c0.0662-0.5775 0.1095-1.176 0.125-1.799h0.0215v-13.46zm58.22 0v5.92h25.37v5.375c0 3.845-3.676 8.023-8.678 8.023h-14.32v5.918h17.58c4.564 0 8.598-4.24 8.785-11.77h0.0195v-13.46zm108.7 0v1.668c0 2.99-1.093 5.148-2.594 5.846l-1.072 0.2402-0.0527 1.719-0.125 4.199h1.834c3.605 0 6.521-3.47 6.521-7.752h18.71v4.104h-17.28l-1.627 5.92h16.95v0.332c0 1.678-1.145 3.043-2.562 3.043h-19.17v5.918h19.19c6.512 0 9.41-7.013 9.41-10.7v-14.54h-27.86zm75.31 0v3.408h-12.82v5.033h12.82v16.79h7.471v-16.79h14.3v-5.033h-14.3v-3.408zm-119.2 0.6992v5.084l29.88 2.418v-5.084zm-31.27 5.221v5.021h21.07v3.344h-10.67v5.033h-9.232v5.918h8.889c2.344 0 4.24-2.249 4.24-5.031v-0.877h7.512c2.344 0 4.242-2.249 4.242-5.031v-8.377zm31.27 3.209v5.084l29.88 2.418v-5.074zm-93.87 0.207v5.92h22.38v-5.92zm171.4 0.334v5.918h22.56v-5.918zm32.73 2.146c0 5.23-2.5 8.377-4.678 8.377v5.033h2.24c3.553 0 7.877-3.127 7.877-11.47v-1.937zm20.62 0.01v1.939c0 8.346 4.314 11.47 7.877 11.47h2.24v-5.031c-2.167-0.0104-4.678-3.159-4.678-8.379zm-130.9 5.73v5.086l29.88 2.428v-5.086zm-77.45 20.24-28.71 77.43h10.29l4.615-12.46h14.23l0.2188 12.46h10.28l-1.395-77.43zm-87.07 0.2383c-13.16 0-17.7 12.75-19.83 21.32-1.834 7.346-1.927 14.64 2.23 19.02l4.969 4.084c6.054 4.626 6.189 16.36-6.105 16.36h-7.127l-7.887 16.4s9.877-0.1042 13.67 0c12.01 0.3334 17.83-11.06 20.81-21.78 1.75-6.304 3.583-17.4-1.293-22.28l-4.959-4.094c-6.054-4.626-6.189-12.64 6.105-12.64h8.805l2.803-16.39zm39.3 0.0117-8.523 48.33c-1.146 6.512-5.252 11.79-9.18 11.79-3.918 0-6.168-5.273-5.021-11.79l8.521-48.32h-10.09l-9.314 52.8c-2.219 12.88-0.5419 24.37 12.89 24.37 13.44-0.0104 19.17-11.5 21.5-24.38l0.0508-0.2812 9.264-52.52zm14.35 0-13.61 77.18h10.1l5.439-30.87h10.07l2.896-16.38h-10.07l2.385-13.54h10.08l2.887-16.39h-15.12zm59.66 0-13.61 77.18h10.09l8.18-46.35 4.053 46.35h3.793l20.4-46.35-8.168 46.35h10.1l13.61-77.18h-10.1v0.01l-21.32 40.75-6.939-40.75v-0.01zm52.73 0-13.61 77.18h10.1l13.61-77.18zm34.4 0-2.896 16.39h7.42l-10.72 60.79h10.1l10.72-60.79h9.127l2.887-16.39zm54.54 0-8.521 48.33c-1.146 6.502-5.252 11.79-9.17 11.79s-6.168-5.273-5.021-11.79l8.521-48.32h-10.1l-9.314 52.8c-2.219 12.88-0.5419 24.37 12.89 24.37 13.44-0.0104 19.17-11.5 21.49-24.38l0.0527-0.2812 9.264-52.52zm44.98 0-13.61 77.18c3.991 0.0729 10.39 0.0411 14.61 0.01 4.043-0.0312 7.973-1.563 10.78-4.48 3.105-3.24 4.792-8.137 6.543-17.96 1.542-8.679 0.4991-14.3-1.105-17.78-0.1354-0.2813-0.2812-0.552-0.4375-0.8125 2.772-4.449 5.376-10.55 6.855-18.84 2.428-13.57-5.011-17.32-10.38-17.32h-4.459zm51.33 0c-11.42 0-23.72 17.28-27.49 38.61s2.45 38.61 13.87 38.61c11.42 0 23.72-17.28 27.49-38.61 3.751-21.33-2.45-38.61-13.87-38.61zm-82.92 0.01-13.61 77.17h10.1l4.646-26.35 3.875 26.35h10.2l-4.574-31.13c7.471-3.793 10.58-7.085 13.04-22.41 1.427-8.856 0.49-14.41-1.156-17.88-1.678-3.563-5.376-5.74-9.314-5.74h-12.08zm7.211 16.38c4.168 0 7.762 2.053 6.23 10.01-1.365 7.085-4.835 9.074-8.148 9.074h-1.447zm31.6 0h3.271c2.459 0 3.532 2.656 2.678 7.418-0.4793 2.647-1.563 4.397-2.428 5.418-0.6356 0.7502-1.583 1.168-2.562 1.168h-3.428zm41.21 0c5.845 0 8.835 9.94 6.668 22.2-2.157 12.26-8.647 22.21-14.49 22.21-5.845 0-8.827-9.941-6.67-22.21 2.157-12.26 8.649-22.2 14.49-22.2zm-261.5 11.72 0.3652 20.21h-7.857zm215 18.68h4.834c2.459 0 4.054 2.647 3.199 7.408-0.4064 2.282-1.146 3.896-1.803 4.959-0.6252 1.011-1.718 1.637-2.906 1.637h-5.793z" fill="#fff"/></svg>
