<svg width="480" height="320" version="1.1" viewBox="0 0 127 84.667" xmlns="http://www.w3.org/2000/svg" xmlns:xlink="http://www.w3.org/1999/xlink">
 <defs>
  <linearGradient id="a" x1="51.436" x2="87.768" y2="146.65" gradientUnits="userSpaceOnUse">
   <stop stop-color="#0d52bf" offset="0"/>
   <stop stop-color="#0e141f" offset="1"/>
  </linearGradient>
 </defs>
 <rect width="127" height="84.667" ry="4.2333" fill="url(#a)" stroke-linecap="square" stroke-linejoin="round" stroke-width=".52917" style="paint-order:stroke fill markers"/>
 <path d="m10.681 52.16c0.05393-0.28072 0.22174-1.2259 0.37291-2.1004l0.27485-1.59 1.7225-0.06684c2.2323-0.08662 2.8097-0.38394 3.1823-1.6388 0.38093-1.2827 0.32977-1.4263-0.99822-2.8015-1.2564-1.301-1.7126-2.0632-1.7175-2.8693-0.0048-0.80624 0.50483-3.5753 0.83864-4.5566 0.6724-1.9765 1.6097-3.2494 2.8831-3.9155 0.51226-0.26793 0.8165-0.31058 2.5554-0.35823l1.9739-0.05409-0.0742 0.37928c-0.04081 0.20861-0.18041 1.05-0.31022 1.8699l-0.23603 1.4906h-1.6204c-1.5547 0-1.6371 0.01406-2.0328 0.34703-0.56618 0.47641-0.80039 0.98298-0.80039 1.7311 0 0.62988 0.0092 0.64308 1.4594 2.0974 1.7163 1.7212 1.7558 1.8274 1.5038 4.0439-0.37255 3.2762-1.3475 5.6646-2.9276 7.1717-1.2428 1.1854-1.354 1.2217-3.9197 1.28l-2.2279 0.05056zm11.38 0.18015c-0.95396-0.53788-1.7887-2.1661-1.7887-3.489 0-0.4807 0.91972-6.1249 2.3507-14.426l0.36545-2.12 1.3023-0.03805c1.1973-0.03498 1.2969-0.01894 1.2346 0.19875-0.03728 0.13024-0.58571 3.2776-1.2187 6.9941-1.0175 5.9742-1.1337 6.8206-1.0022 7.3032 0.23961 0.87949 0.60221 1.2429 1.2401 1.2429 0.77428 0 1.5217-0.7943 1.9391-2.0608 0.16684-0.50623 0.86468-3.6631 1.5507-7.0153 0.68606-3.3522 1.2784-6.229 1.3163-6.393 0.06557-0.28353 0.13085-0.29812 1.3341-0.29812 1.1446 0 1.2581 0.02209 1.1916 0.23187-0.04044 0.12753-0.75531 3.6307-1.5886 7.7849-0.83329 4.1541-1.639 7.8842-1.7905 8.289-0.62784 1.6781-1.8092 3.2527-2.8172 3.755-0.59141 0.29471-0.86121 0.34349-1.8895 0.34162-0.99728-0.0018-1.289-0.05258-1.7296-0.30101zm48.03 0.10529c0-0.11394 0.14506-0.93585 0.32236-1.8265 0.1773-0.89062 0.62714-3.1993 0.99965-5.1305 0.37251-1.9311 0.79131-4.0776 0.93067-4.7699s0.34377-1.7488 0.45426-2.3477c0.11048-0.59894 0.23876-1.2399 0.28505-1.4243l0.08417-0.33536h-1.0743c-1.2852 0-1.228 0.20104-0.69847-2.4512l0.37033-1.855 3.4693-0.03533c1.9081-0.01943 3.4693 0.01302 3.4693 0.07211s-0.17815 0.99915-0.3959 2.089c-0.21774 1.0899-0.39662 2.0263-0.39749 2.081-9.51e-4 0.05466-0.45064 0.09937-0.99948 0.09937-0.68332 0-1.0136 0.05221-1.0479 0.16562-0.02748 0.09109-0.29042 1.4177-0.5843 2.9481-0.95469 4.9715-1.8836 9.771-2.1926 11.328l-0.30226 1.5237-1.3462 0.03776c-1.1487 0.03222-1.3462 0.0074-1.3462-0.16941zm8.4136-0.10529c-0.95478-0.53834-1.7887-2.1662-1.7887-3.4915 0-0.46954 0.64883-4.4557 2.4826-15.252l0.20817-1.2256h2.556l-1.1701 6.7905c-1.2423 7.2094-1.2691 7.5202-0.72006 8.3376 0.60095 0.89462 1.8459 0.55595 2.461-0.66944 0.47321-0.9428 0.73648-2.0184 1.9984-8.165l1.2785-6.2274 1.2935-0.03805c0.71143-0.02093 1.2621 0.01279 1.2237 0.07494-0.03841 0.06214-0.76251 3.5672-1.6091 7.7891-0.8806 4.3914-1.6716 8.0038-1.8484 8.4418-0.70172 1.7383-1.8573 3.2089-2.8898 3.6776-0.84958 0.38566-2.7574 0.36215-3.4756-0.04283zm28.227-0.09486c-1.1071-0.56685-1.752-1.5125-2.145-3.1451-0.25723-1.0688-0.29995-4.7289-0.0684-5.8642 0.0817-0.4008 0.17498-0.88784 0.2072-1.0823 0.12731-0.76839 1.0592-3.5296 1.549-4.5898 0.69593-1.5063 1.8284-3.1805 2.653-3.9218 0.78566-0.70638 2.3578-1.5238 3.1299-1.6273 1.146-0.15371 2.5021 0.62835 3.3318 1.9214 0.79528 1.2393 1.2123 3.7566 0.94796 5.7224-0.37063 2.7565-1.2666 5.9741-2.158 7.75-1.6818 3.3504-3.5903 4.9821-5.9287 5.0687-0.78846 0.02919-1.1022-0.01874-1.5187-0.23203zm3.4948-5.161c1.301-0.66373 2.3122-2.8758 2.7931-6.1098 0.36136-2.4305-0.44551-4.3632-1.8216-4.3632-0.43523 0-1.3294 0.54998-1.7328 1.0658-0.46883 0.59951-1.0564 1.8867-1.4186 3.1079-0.468 1.5777-0.59954 4.0187-0.27644 5.1301 0.38216 1.3146 1.3078 1.7552 2.4563 1.1693zm-80.944 5.1904c0-0.09208 0.65057-3.5562 3.0723-16.359l0.69548-3.6768h5.9165l-0.08165 0.43062c-0.0449 0.23684-0.24138 1.2057-0.43662 2.1531l-0.35497 1.7225-3.306 0.1325-0.22965 1.2587c-0.12631 0.6923-0.2646 1.4525-0.30732 1.6893l-0.07767 0.43062h2.759l-0.31366 1.5568c-0.17251 0.85626-0.37746 1.8699-0.45542 2.2524l-0.14176 0.69561h-1.2522c-1.1739 0-1.2598 0.01863-1.3747 0.29812-0.06742 0.16396-0.4273 1.8185-0.79974 3.6768-0.37244 1.8583-0.70758 3.483-0.74474 3.6105-0.05819 0.19966-0.24117 0.23187-1.3174 0.23187-0.68738 0-1.2498-0.04664-1.2498-0.10365zm5.023-0.19c0.06458-0.16642 1.2596-3.2241 2.6556-6.7949 1.396-3.5708 3.1122-7.9701 3.8138-9.7762l1.2755-3.2838 2.5355 0.07526v20.007l-2.5837 0.07584v-3.322h-3.6808l-1.3032 3.2462-2.8302 0.07518zm7.6749-10.107c0.028-1.6711-2e-3 -2.601-0.08109-2.5174-0.09551 0.10084-1.2024 2.927-1.9872 5.0739-0.04866 0.13311 0.17082 0.16276 0.98059 0.1325l1.0433-0.03899zm3.3471 8.5792c0.56187-2.7152 3.6971-18.212 3.6971-18.274 0-0.02949 0.58068-0.03654 1.2904-0.01568l1.2904 0.03792 0.75324 4.9475c0.41428 2.7211 0.77706 4.9714 0.80618 5.0005 0.02912 0.02911 1.3007-2.1973 2.8258-4.9475l2.7729-5.0005 1.3683-0.03787c1.2615-0.03492 1.3627-0.01941 1.2965 0.19874-0.0824 0.27153-0.20782 0.90184-1.1412 5.7352-0.37293 1.9311-0.8188 4.2267-0.99082 5.1011s-0.59228 3.0507-0.93389 4.8361c-0.34162 1.7854-0.67673 3.4698-0.74469 3.743l-0.12357 0.49686h-1.2561c-1.4212 0-1.2918 0.16345-0.99592-1.2587 0.07582-0.36437 0.31943-1.6761 0.54137-2.9149s0.46175-2.5506 0.53292-2.9149c0.46322-2.3716 0.5299-2.756 0.4858-2.8001-0.02705-0.02705-1.1173 2.1853-2.4228 4.9162l-2.3736 4.9654-1.4857 7e-3 -0.07776-0.89436c-0.04277-0.49189-0.21367-2.7576-0.37979-5.0349-0.16612-2.2773-0.33413-4.1405-0.37336-4.1405s-0.23064 0.81982-0.42535 1.8218c-0.19471 1.002-0.6342 3.2677-0.97665 5.0348l-0.62262 3.2131h-2.7141l0.37701-1.8218zm13.556 1.59c0.03976-0.12753 0.24873-1.156 0.4644-2.2856 0.21566-1.1295 0.48239-2.5009 0.59272-3.0474 0.11033-0.54655 0.50415-2.5738 0.87516-4.5049 0.371-1.9311 0.78837-4.0776 0.92747-4.7699 0.1391-0.6923 0.41098-2.0896 0.60417-3.1051 0.19319-1.0155 0.38133-1.9248 0.41809-2.0206 0.04865-0.12679 0.40538-0.17417 1.3114-0.17417 0.6845 0 1.2445 0.0201 1.2445 0.04466s-0.20425 1.0829-0.45388 2.3518c-0.24964 1.2689-0.76018 3.8872-1.1345 5.8183-0.37436 1.9311-0.84996 4.3757-1.0569 5.4324-0.20691 1.0567-0.57428 2.9497-0.81638 4.2068l-0.44018 2.2856h-1.3042c-1.1813 0-1.2974-0.02185-1.2319-0.23187zm26.577 0.07446c0-0.14903 1.0432-5.6097 1.59-8.3224 0.13953-0.6923 0.55689-2.8387 0.92748-4.7699 0.64596-3.3661 1.1275-5.8244 1.2653-6.4592 0.06427-0.29612 0.0812-0.29812 2.5221-0.29812 2.5286 0 2.7494 0.03825 3.3469 0.57967 0.74278 0.6731 0.97538 1.9273 0.79937 4.3103-0.23184 3.139-1.2995 5.4736-3.0707 6.7148l-0.37069 0.25975 0.59926 3.7069c0.32959 2.0388 0.62906 3.8709 0.66549 4.0713l0.06624 0.36437h-1.5866c-1.4231 0-1.5866-0.0239-1.5858-0.23187 2e-3 -0.54386-0.98037-6.2599-1.0596-6.1656-0.04797 0.0571-0.3477 1.5199-0.66611 3.2506l-0.57893 3.1468h-1.4318c-1.0172 0-1.4318-0.04558-1.4318-0.1574zm5.9226-11.463c0.84692-0.39143 1.4975-1.6107 1.4967-2.805-5.01e-4 -0.87559-0.3078-1.4756-0.9589-1.8727-0.54297-0.33119-0.49639-0.43577-1.033 2.3195-0.2271 1.166-0.44625 2.2607-0.487 2.4327-0.06606 0.27883-0.03981 0.3024 0.24206 0.21713 0.17388-0.0526 0.50697-0.18383 0.74018-0.29161zm3.1282 11.439c0.04237-0.11044 0.95673-4.6212 2.0319-10.024l1.9548-9.823 2.3254 0.04347c2.5339 0.04737 2.9065 0.14585 3.4842 0.92098 0.44288 0.59422 0.58592 2.129 0.32309 3.4667-0.23939 1.2184-0.92906 2.9927-1.4965 3.8502-0.22427 0.33889-0.30933 0.58812-0.23478 0.68793 0.79723 1.0674 0.96505 1.5763 0.97232 2.9486 7e-3 1.3676-0.27881 2.7874-0.87315 4.3337-0.72498 1.8862-1.3762 2.7609-2.4997 3.3579-0.64482 0.34263-0.7345 0.35316-3.3635 0.39511-2.3702 0.03782-2.6916 0.0185-2.624-0.15771zm5.3645-4.3764c0.57313-0.29638 0.84752-0.81558 0.92211-1.7449 0.12978-1.6167-0.2118-2.1776-1.3261-2.1776h-0.44392l-0.3657 1.9314c-0.20113 1.0623-0.4019 2.0257-0.44615 2.141-0.0692 0.18034 0.01432 0.19844 0.59717 0.12941 0.3727-0.04414 0.85085-0.16983 1.0626-0.27932zm0.99326-8.5169c0.58227-0.29629 0.88743-0.91894 0.888-1.8119 3.9e-4 -0.70514-0.0402-0.81577-0.45-1.2256-0.24776-0.24777-0.5084-0.45049-0.57919-0.45049-0.10145 0-0.8288 3.304-0.82596 3.752 1e-3 0.12541 0.43455 7e-3 0.96715-0.26402z" fill="#fafafa" stroke-width=".1325"/>
 <style type="text/css">.st0{fill:#FC0C18;}
	.st1{fill:#FC0C18;}</style>
</svg>
