<?xml version="1.0" encoding="UTF-8" standalone="no"?>
<!-- Created with Inkscape (http://www.inkscape.org/) -->

<svg
   width="480"
   height="320"
   viewBox="0 0 127 84.666667"
   version="1.1"
   id="svg1543"
   xmlns:xlink="http://www.w3.org/1999/xlink"
   xmlns="http://www.w3.org/2000/svg"
   xmlns:svg="http://www.w3.org/2000/svg">
  <defs
     id="defs1540">
    <linearGradient
       id="linearGradient293">
      <stop
         style="stop-color:#43d6b5;stop-opacity:1"
         offset="0"
         id="stop289" />
      <stop
         style="stop-color:#007367;stop-opacity:1"
         offset="1"
         id="stop291" />
    </linearGradient>
    <clipPath
       id="clip1">
      <path
         d="m 249,0 h 75 v 124.51172 h -75 z m 0,0"
         id="path2" />
    </clipPath>
    <clipPath
       id="clip2">
      <path
         d="m 421,0 h 90 v 124.51172 h -90 z m 0,0"
         id="path5" />
    </clipPath>
    <clipPath
       id="clip3">
      <path
         d="m 513,0 h 28 v 124.51172 h -28 z m 0,0"
         id="path8" />
    </clipPath>
    <clipPath
       id="clip4">
      <path
         d="m 659,4 h 86.87109 V 124 H 659 Z m 0,0"
         id="path11" />
    </clipPath>
    <marker
       id="DefaultArrow2"
       markerUnits="strokeWidth"
       viewBox="0 0 1 1"
       markerWidth="1"
       markerHeight="1"
       overflow="visible"
       orient="auto">
      <!-- REF_ARROW_STRAIGHT (-2) -->
      <g
         transform="scale(0.0092592592)"
         id="g8989">
        <!-- 1/108 -->
        <path
           d="M -9 54 L -9 -54 L 117 0 z"
           id="path8987" />
      </g>
    </marker>
    <marker
       id="DefaultArrow3"
       markerUnits="strokeWidth"
       viewBox="0 0 1 1"
       markerWidth="1"
       markerHeight="1"
       overflow="visible"
       orient="auto">
      <!-- REF_ARROW_ANGLED -->
      <g
         transform="scale(0.0092592592)"
         id="g8994">
        <path
           d="M -27 54 L -9 0 L -27 -54 L 135 0 z"
           id="path8992" />
      </g>
    </marker>
    <marker
       id="DefaultArrow4"
       markerUnits="strokeWidth"
       viewBox="0 0 1 1"
       markerWidth="1"
       markerHeight="1"
       overflow="visible"
       orient="auto">
      <!-- REF_ARROW_ROUNDED -->
      <g
         transform="scale(0.0092592592)"
         id="g8999">
        <path
           d="M -9,0 L -9,-45 C -9,-51.708 2.808,-56.580 9,-54 L 117,-9 C 120.916,-7.369 126.000,-4.242 126,0 C 126,4.242 120.916,7.369 117,9 L 9,54 C 2.808,56.580 -9,51.708 -9,45 z"
           id="path8997" />
      </g>
    </marker>
    <marker
       id="DefaultArrow5"
       markerUnits="strokeWidth"
       viewBox="0 0 1 1"
       markerWidth="1"
       markerHeight="1"
       overflow="visible"
       orient="auto">
      <!-- REF_ARROW_SPOT -->
      <g
         transform="scale(0.0092592592)"
         id="g9004">
        <path
           d="M -54, 0 C -54,29.807 -29.807,54 0,54 C 29.807,54 54,29.807 54,0 C 54,-29.807 29.807,-54 0,-54 C -29.807,-54 -54,-29.807 -54,0 z"
           id="path9002" />
      </g>
    </marker>
    <marker
       id="DefaultArrow6"
       markerUnits="strokeWidth"
       viewBox="0 0 1 1"
       markerWidth="1"
       markerHeight="1"
       overflow="visible"
       orient="auto">
      <!-- REF_ARROW_DIAMOND -->
      <g
         transform="scale(0.0092592592)"
         id="g9009">
        <path
           d="M -63,0 L 0,63 L 63,0 L 0,-63 z"
           id="path9007" />
      </g>
    </marker>
    <marker
       id="DefaultArrow7"
       markerUnits="strokeWidth"
       viewBox="0 0 1 1"
       markerWidth="1"
       markerHeight="1"
       overflow="visible"
       orient="auto">
      <!-- REF_ARROW_FEATHER -->
      <g
         transform="scale(0.0092592592)"
         id="g9014">
        <path
           d="M 18,-54 L 108,-54 L 63,0 L 108,54 L 18, 54 L -36,0 z"
           id="path9012" />
      </g>
    </marker>
    <marker
       id="DefaultArrow8"
       markerUnits="strokeWidth"
       viewBox="0 0 1 1"
       markerWidth="1"
       markerHeight="1"
       overflow="visible"
       orient="auto">
      <!-- REF_ARROW_FEATHER2 -->
      <g
         transform="scale(0.0092592592)"
         id="g9019">
        <path
           d="M -36,0 L 18,-54 L 54,-54 L 18,-18 L 27,-18 L 63,-54 L 99,-54 L 63,-18 L 72,-18 L 108,-54 L 144,-54 L 90,0 L 144,54 L 108,54 L 72,18 L 63,18 L 99,54 L 63,54 L 27,18 L 18,18 L 54,54 L 18,54 z"
           id="path9017" />
      </g>
    </marker>
    <marker
       id="DefaultArrow9"
       markerUnits="strokeWidth"
       viewBox="0 0 1 1"
       markerWidth="1"
       markerHeight="1"
       overflow="visible"
       orient="auto">
      <!-- REF_ARROW_HOLLOWDIAMOND -->
      <g
         transform="scale(0.0092592592)"
         id="g9024">
        <path
           d="M 0,45 L -45,0 L 0, -45 L 45, 0 z M 0, 63 L-63, 0 L 0, -63 L 63, 0 z"
           id="path9022" />
      </g>
    </marker>
    <filter
       id="StainedFilter">
      <feBlend
         mode="multiply"
         in2="BackgroundImage"
         in="SourceGraphic"
         result="blend"
         id="feBlend9027" />
      <feComposite
         in="blend"
         in2="SourceAlpha"
         operator="in"
         result="comp"
         id="feComposite9029" />
    </filter>
    <filter
       id="BleachFilter">
      <feBlend
         mode="screen"
         in2="BackgroundImage"
         in="SourceGraphic"
         result="blend"
         id="feBlend9032" />
      <feComposite
         in="blend"
         in2="SourceAlpha"
         operator="in"
         result="comp"
         id="feComposite9034" />
    </filter>
    <filter
       id="InvertTransparencyBitmapFilter">
      <feComponentTransfer
         id="feComponentTransfer9043">
        <feFuncR
           type="gamma"
           amplitude="1.055"
           exponent=".416666666"
           offset="-0.055"
           id="feFuncR9037" />
        <feFuncG
           type="gamma"
           amplitude="1.055"
           exponent=".416666666"
           offset="-0.055"
           id="feFuncG9039" />
        <feFuncB
           type="gamma"
           amplitude="1.055"
           exponent=".416666666"
           offset="-0.055"
           id="feFuncB9041" />
      </feComponentTransfer>
      <feComponentTransfer
         id="feComponentTransfer9053">
        <feFuncR
           type="linear"
           slope="-1"
           intercept="1"
           id="feFuncR9045" />
        <feFuncG
           type="linear"
           slope="-1"
           intercept="1"
           id="feFuncG9047" />
        <feFuncB
           type="linear"
           slope="-1"
           intercept="1"
           id="feFuncB9049" />
        <feFuncA
           type="linear"
           slope="1"
           intercept="0"
           id="feFuncA9051" />
      </feComponentTransfer>
      <feComponentTransfer
         id="feComponentTransfer9061">
        <feFuncR
           type="gamma"
           amplitude="1"
           exponent="2.4"
           offset="0"
           id="feFuncR9055" />
        <feFuncG
           type="gamma"
           amplitude="1"
           exponent="2.4"
           offset="0"
           id="feFuncG9057" />
        <feFuncB
           type="gamma"
           amplitude="1"
           exponent="2.4"
           offset="0"
           id="feFuncB9059" />
      </feComponentTransfer>
    </filter>
    <linearGradient
       xlink:href="#linearGradient293"
       id="linearGradient295"
       x1="0"
       y1="0"
       x2="70.95752"
       y2="70.95752"
       gradientUnits="userSpaceOnUse" />
  </defs>
  <g
     id="layer1">
    <rect
       style="opacity:1;fill:url(#linearGradient295);fill-opacity:1;stroke-width:0.529167;stroke-linecap:square;stroke-linejoin:round;paint-order:stroke fill markers"
       id="rect1569"
       width="127"
       height="84.666664"
       x="0"
       y="0"
       ry="4.2333331" />
    <path
       id="polygon4"
       style="fill:#fafafa;stroke-width:0.28976"
       d="m 19.991069,20.724937 -4.116071,4.363115 v 9.269985 l 4.703615,4.362461 h 4.116071 v -5.998302 h -1.763936 v -6.544018 h 4.703615 v 4.363114 h 6.467551 v -5.45324 l -4.703615,-4.363115 z m 15.874785,0 v 26.176072 l 4.997715,4.362462 H 44.68554 V 45.810232 H 42.920948 V 20.724937 Z m 11.75871,0 V 45.810232 H 45.86128 v 5.453239 h 3.821974 l 4.99706,-4.362462 V 20.724937 Z m 8.819689,0 V 51.262818 H 63.5 V 20.724937 Z m 8.231491,0 v 5.453241 h 2.352132 v 9.270635 h -2.352132 v 5.998302 h 4.703614 l 4.703616,-4.362458 V 25.360584 l -4.997062,-4.635647 z m 11.759361,0 V 51.263471 H 90.545952 V 45.810232 H 82.902656 V 26.723891 h 7.643296 v -5.998954 z m 16.462979,0 V 51.262818 H 99.95318 V 20.724937 Z m 8.231486,0 v 5.453241 h 2.93968 v 7.089078 h -2.93968 v 5.998958 h 3.52723 v 11.997257 h 6.4682 V 39.266214 l -3.23378,-2.99915 3.23378,-2.999808 v -8.179204 l -4.70362,-4.363115 z M 25.870427,32.722196 v 5.998302 h 1.763936 v 6.544019 h -4.703615 v -4.362462 h -7.05575 v 5.998954 l 4.703615,4.362462 h 9.995429 l 4.116071,-4.362462 v -9.816352 l -4.703614,-4.362461 z m 58.207971,0 v 5.453239 h 4.704274 v -5.453239 z m -54.091899,21.812303 -1.470492,1.363963 v 6.271488 l 1.910983,1.771779 h 10.730674 v -5.589176 h -5.879355 v 1.63584 h 4.11542 v 2.181557 h -8.231491 v -5.998954 h 9.995426 v -1.636497 z m 13.522649,0 v 9.270638 h 2.352132 v -3.816744 h 4.115419 l 2.939679,3.816744 h 2.352132 l -2.939676,-3.816744 h 1.17574 l 1.763936,-1.36331 v -2.454087 l -1.763936,-1.636497 z m 17.639373,0 -4.704268,9.270638 h 2.939676 l 3.527875,-7.088425 h 1.176395 l 4.115416,7.088425 h 2.940332 l -5.291811,-9.270638 z m 10.58297,0 v 9.270638 h 2.351483 v -3.816744 h 7.643949 v -1.63584 h -7.643949 v -2.181557 h 8.819682 v -1.636497 z m 12.346907,0 4.704274,4.363117 -5.291812,4.907521 h 3.527218 l 3.527874,-3.27168 3.527874,3.27168 h 3.52787 l -5.291807,-4.907521 5.291807,-4.363117 h -3.52787 l -3.527874,3.272337 -3.527874,-3.272337 z M 45.86128,56.170996 h 7.055098 v 2.181557 H 45.86128 Z" />
  </g>
  <style
     type="text/css"
     id="style3952">
	.st0{fill:#FC0C18;}
	.st1{fill:#FC0C18;}
   </style>
</svg>
