<svg width="480" height="320" version="1.1" viewBox="0 0 480 320" xml:space="preserve" xmlns="http://www.w3.org/2000/svg"><defs><linearGradient id="a" x1="48.93" x2="60.23" y1="70.66" y2="-20.54" gradientTransform="scale(3.78)" gradientUnits="userSpaceOnUse"><stop stop-color="#128c84" offset="0"/><stop stop-color="#32e7b7" offset="1"/></linearGradient></defs><rect width="480" height="320" ry="24" fill="url(#a)"/><path d="m186.8 115.1 8.564 26.12h1.24 1.98l5.916-14.05 4.607 14.05h3.094l4.355-10.35-0.00196-0.00586 1.637-3.889 0.00196 0.00781 2.865-6.826 0.6465-1.52-0.00585-0.00781 1.484-3.535h-8.887l3.027 9.234-1.637 3.887-4.299-13.12h-10.85l3.088 9.416-1.633 3.883-4.363-13.3h-10.84zm40.88 0-1.168 2.896h66.76v-2.896h-65.59zm-2.012 5.783-0.4805 1.125-5.574 13.42h5.336v-0.7715l-1.25-0.707c-0.323-0.1771-0.5215-0.5214-0.5215-0.8965v-0.3652h3.084l1.428 2.74h6.721l-7.971-14.54h-0.7715zm6.699 0v1.834 3.178h1.834c0-1.375 0.8227-2.273 1.438-2.752 0.3543-0.2813 0.7935-0.4258 1.252-0.4258v12.72h5.969v-12.72c0.448 0 0.8977 0.1444 1.252 0.4258 0.6148 0.4793 1.438 1.377 1.438 2.752h1.834v-3.178-1.803-0.03124h-13.18-1.834zm19.34 0-0.4805 1.125-5.574 13.42h5.336v-0.7715l-1.252-0.707c-0.323-0.1771-0.5195-0.5214-0.5195-0.8965v-0.3652h3.084l1.428 2.74h6.721l-7.973-14.54h-0.7695zm10.5 0v1.76 0.07422 12.72h5.971v-7.543h1.834v7.543h6.711v-3.959c0-1.907-1.542-4.49-3.449-4.49h-0.3438c1.688 0 3.053-0.5103 3.053-3.053 0-2.542-1.365-3.053-3.053-3.053h-2.918-7.805zm22.31 0-0.4785 1.125-5.574 13.42h5.334v-0.7715l-1.25-0.707c-0.323-0.1771-0.5215-0.5214-0.5215-0.8965v-0.3652h3.084l1.428 2.74h6.721l-7.971-14.54h-0.7715zm-16.34 1.834h1.834v3.354h-1.834v-3.354zm-43.88 6.188 1.021 1.959h-1.844l0.8223-1.959zm26.04 0 1.021 1.959h-1.846l0.8242-1.959zm32.81 0 1.021 1.959h-1.844l0.8223-1.959zm-64.86 9.43-1.168 2.887h76.15v-2.887h-74.98zm149 11.5c-14.52 0-24.07 11.93-24.07 27.48 0 5.981 1.407 11.47 3.98 15.96l6.283-11.46c-0.3126-1.646-0.4688-3.314-0.4688-4.908 0-8.461 5.292-17 14.26-17s14.26 8.533 14.26 17c0 1.594-0.1562 3.262-0.4688 4.908l6.305 11.46c2.574-4.491 3.98-9.982 3.98-15.96 0-15.55-9.556-27.48-24.07-27.48zm-311.2 0.01172c-8.2 0-14.2 7.011-14.2 15.68 0 8.117 4.576 11.51 10.84 14.3 3.803 1.594 8.449 3.125 8.449 8.533 0 4.022-2.386 7.564-6.262 7.564-4.064 0-7.481-3.615-8.773-7.637l-6.127 6.449c3.355 6.033 8.262 10.2 14.97 10.2 9.94 0 16.01-7.418 16.01-17.9 0-17.56-19.3-13.88-19.3-22.7-1e-6 -3.397 2.907-5.896 5.939-5.896 3.168 0 5.492 1.667 7.295 4.303l4.459-7.074c-2.97-3.532-8.971-5.824-13.29-5.824zm249.3 0c-8.2 0-14.2 7.011-14.2 15.68 0 8.117 4.574 11.53 10.84 14.3 3.803 1.594 8.449 3.125 8.449 8.533 0 4.022-2.386 7.564-6.262 7.564-4.064 0-7.481-3.615-8.773-7.637l-6.127 6.449c3.355 6.033 8.262 10.2 14.97 10.2 9.94 0 16.01-7.418 16.01-17.9 0-17.56-19.3-13.88-19.3-22.7 0-3.397 2.905-5.896 5.938-5.896 3.168 0 5.492 1.667 7.295 4.303l4.459-7.074c-2.97-3.532-8.971-5.824-13.29-5.824zm92.55 0v53.7h9.482v-35.53h0.125l25.62 36.57h6.836v-53.36h-9.482v35.19h-0.125l-25.62-36.57h-6.836zm-320.3 1.385v31.3c0 12.76 5.033 22.41 18.07 22.41s18.07-9.648 18.07-22.41v-31.3h-9.48v29.28c0 6.46-0.5211 15.55-8.586 15.55-8.065 0-8.586-9.097-8.586-15.55v-29.28h-9.482zm44.79 0v52.32h9.48v-19.57h4.711c9.94 0 15.56-5.408 15.56-16.52 0-11.86-6.637-16.23-16.84-16.23h-12.91zm36.01 0v52.32h25.16v-8.877h-15.68v-14.16h15.1v-8.877h-15.1v-11.53h15.68v-8.877h-25.16zm33.45 0v52.32h9.482v-21.1h0.125l11.8 21.1h11.48l-13.73-22.06c6.523-1.177 9.939-7.846 9.939-14.5 0-11.17-6.648-15.75-16.27-15.75h-12.84zm33.53 0 18.59 53.71h5.553l18.91-53.71h-10.2l-10.84 35.25h-0.125l-11.69-35.25h-10.2zm47.59 0v52.32h9.482v-52.32h-9.482zm54.21 0v52.32h9.482v-52.32h-9.482zm-125.8 8.326h1.291c5.033 0 8.836 1.249 8.836 7.699 0 6.387-3.678 8.055-8.908 8.055h-1.23l0.01172-15.75zm-69.46 0.1445h1.678c5.293 0 8.91 0.9701 8.91 7.701 0 6.794-3.032 8.117-8.648 8.117h-1.939v-15.82zm235.4 7.482-19.99 36.36h39.98l-19.99-36.36z" fill="#fff"/></svg>
