<svg width="480" height="320" version="1.1" viewBox="0 0 127 84.667" xmlns="http://www.w3.org/2000/svg">
 <defs>
  <linearGradient id="a" x1="24.138" x2="46.797" y1="84.667" y2=".10223" gradientUnits="userSpaceOnUse">
   <stop stop-color="#0e9a83" offset="0"/>
   <stop stop-color="#43d6b5" offset="1"/>
  </linearGradient>
 </defs>
 <rect width="127" height="84.667" ry="4.2333" fill="url(#a)" stroke-linecap="square" stroke-linejoin="round" stroke-width=".52917" style="paint-order:stroke fill markers"/>
 <path d="m15.32 35.318c-1.375-0.0081-2.7552 0.59692-3.6518 1.7719-1.1574 1.5141-1.1332 4.2304 1.1815 5.4323 0.48227 0.26418 1.0124 0.45653 1.4947 0.72112 0.38605 0.21608 0.7958 0.45659 1.1338 0.76888 0.72319 0.69714 0.77105 1.7301 0.14407 2.4272-0.62658 0.72119-1.7601 0.84152-2.5314 0.26465-0.19323-0.14392-0.81995-0.72074-1.0132-0.93722-0.60253 0.74524-0.86772 1.1292-1.4947 1.8744 0.02405 0.04811 0.40972 0.31285 0.43377 0.36095 0.94047 0.96132 2.0743 1.37 3.4005 1.3459 2.1944-0.04811 4.1471-1.8748 4.1952-3.9658 0.04811-1.6104-0.50617-2.9086-1.977-3.7019-0.53077-0.28824-1.0849-0.5047-1.6153-0.76888-0.38605-0.21648-0.79603-0.45654-1.158-0.72112-0.33754-0.26458-0.43333-0.67357-0.38522-1.0821 0.09661-0.72119 0.50624-1.2015 1.2058-1.418 0.72319-0.24013 1.5666 1.24e-4 2.0248 0.52929 0.07256 0.09581 0.31368 0.35992 0.41028 0.50424 0.60293-0.7693 0.94028-1.3221 1.4947-1.923-0.87023-0.99143-2.0791-1.4758-3.2924-1.483zm65.635 0.0094c-1.4404 0.0078-2.8763 0.65514-3.7473 1.9065-1.013 1.5145-0.84399 3.5572 0.50658 4.6869 0.55443 0.4566 1.2541 0.74517 1.8807 1.1056 0.45821 0.26418 0.9887 0.48068 1.3984 0.81743 0.81981 0.64863 0.91612 1.7307 0.31319 2.5-0.60293 0.74524-1.7599 0.8885-2.5556 0.31162-0.21688-0.16797-0.79608-0.72075-0.9889-0.93722-0.53037 0.57687-0.96434 1.2984-1.4947 1.8752 0.0241 0.04811 0.33746 0.2398 0.33746 0.26386 0.0241 0.02406 0.048 0.07224 0.072 0.09631 0.91642 0.96132 2.0501 1.3465 3.3762 1.3224 2.1223-0.04811 3.9308-1.6105 4.1717-3.7019 0.19323-1.6104-0.38607-3.1008-1.9535-3.9423-0.53037-0.28824-1.0849-0.5047-1.6153-0.76888-0.38565-0.19242-0.77194-0.40799-1.1095-0.67258-0.43415-0.33634-0.52994-0.81774-0.38522-1.3224 0.19282-0.69674 0.65092-1.1298 1.3741-1.2496 0.72359-0.12026 1.3742 0.04817 1.8564 0.64909 0.0722 0.09621 0.33812 0.28846 0.41029 0.40872 0.57887-0.60092 0.98847-1.1538 1.591-1.851-0.89278-1.014-2.1671-1.5047-3.438-1.4978zm15.323 0.03132c-2.2728 0.0355-4.2804 1.3307-5.5184 3.0771-0.53038 0.74524-0.94092 1.6105-1.1338 2.5-0.0241 0.07217-0.0237 0.14395-0.0478 0.2161 0 0.04811-0.0243 0.12022-0.0243 0.16834-0.0245 0.14432-0.0486 0.28788-0.0486 0.4322v0.09631c-0.024 0.14432-0.0235 0.31216-0.0235 0.45647-0.0241 0.14432-0.0241 0.31256 0 0.45648v0.07203c0.024 0.31269 0.0727 0.64959 0.14485 0.96228 0 0.04811 0.0235 0.07169 0.0235 0.1198 0.024 0.14432 0.0725 0.2644 0.12057 0.40871 0.0241 0.04811 0.0488 0.12023 0.0728 0.16834 0.0245 0.07215 0.0482 0.14416 0.0963 0.24037 0.024 0.07215 0.0718 0.14394 0.0963 0.2161 0.0241 0.04771 0.0245 0.07169 0.0486 0.1198 0.0721 0.16837 0.14494 0.31294 0.24115 0.45726 0.0244 0.02365 0.0237 0.07146 0.0478 0.09552 0.1203 0.21648 0.24128 0.43358 0.386 0.6256 0.12061 0.16837 0.24146 0.31256 0.36174 0.45648l1.4227-2.3309c-0.36161-0.64903-0.55435-1.3704-0.55435-2.1156 0-0.19202 0.0237-0.38463 0.0478-0.57705 0-0.07215 0.0243-0.11967 0.0243-0.19183 0.0241-0.07217 0.0241-0.12045 0.0485-0.19261 0.0241-0.07215 0.0245-0.14472 0.0485-0.21688 0.0241-0.04771 0.0237-0.11945 0.0478-0.16756 0.60293-1.7787 2.3392-3.1006 4.2923-3.1006 2.4354 0 4.5092 2.0914 4.5092 4.5428 0 0.19242-0.0237 0.38385-0.0478 0.57627 0 0.07215-0.0243 0.12045-0.0243 0.19261-0.0244 0.07217-0.0245 0.12006-0.0485 0.19183-0.0241 0.07215-0.0245 0.14472-0.0485 0.21688-0.0241 0.04811-0.0237 0.12023-0.0478 0.16834-0.0726 0.24013-0.19371 0.45632-0.31398 0.69685l1.4227 2.3317c0.1203-0.14392 0.24107-0.31294 0.36173-0.45726 0.53038-0.74484 0.94092-1.6101 1.1338-2.4993 0.0241-0.07217 0.0237-0.14394 0.0478-0.2161 0-0.04811 0.0243-0.12022 0.0243-0.16834 0.0244-0.14392 0.0485-0.28867 0.0485-0.43299v-0.09631c0.0241-0.14392 0.0243-0.31216 0.0243-0.45648 0-0.16837-1.8e-4 -0.33643-0.0243-0.48074v-0.07203c-0.0241-0.31229-0.0727-0.64921-0.14485-0.9615 0-0.04811-0.0243-0.07171-0.0243-0.1198-0.0244-0.14432-0.0725-0.2648-0.12058-0.40871-0.0241-0.04811-0.0476-0.12024-0.072-0.16834-0.0241-0.07217-0.0483-0.14416-0.0963-0.24037-0.0241-0.07176-0.073-0.14395-0.0971-0.2161-0.0241-0.04811-0.0237-0.07249-0.0478-0.12058-0.0726-0.16837-0.14452-0.31216-0.24116-0.45648-0.0241-0.02406-0.0245-0.07224-0.0485-0.0963-0.12061-0.21648-0.2413-0.43239-0.38601-0.62481-1.3266-1.8509-3.4718-3.1244-5.7384-3.0763-0.0738-0.0015-0.14748-0.0019-0.2208-7.86e-4zm-61.561 0.12919c-0.8169 3e-3 -1.6372 0.01566-2.457 0.01566-0.02406 0-0.07225 0.0237-0.09631 0.04776v13.604h2.5564v-5.5278c0.26498 0 0.48232-2.12e-4 0.6992-0.02427 0.65104 0 1.326 0.07194 1.977-0.02427 2.0257-0.26458 3.4968-1.9945 3.4968-4.0378 0-2.1151-1.6161-3.9181-3.7379-4.0143-0.80778-0.03608-1.6213-0.04216-2.4382-0.03915zm18.932 0.0094c-0.79575-4e-6 -1.5915 0.0063-2.3873 0.0063-0.04851 0-0.09697 0.02349-0.16912 0.02349 0 4.5428 2.12e-4 9.0614 0.02427 13.604h2.5556v-5.4558c1.3261 1.8745 2.5803 3.6771 3.8342 5.4558h3.1108c-1.3261-1.899-2.6285-3.7492-3.9305-5.6241 0.09622-0.02405 0.169-0.04797 0.24116-0.07203 1.8569-0.52876 3.11-2.4031 2.8931-4.3502-0.24093-1.923-1.8559-3.4857-3.7849-3.5578-0.79575-0.02405-1.5915-0.02975-2.3873-0.02975zm-33.687 0.0063c0 0.09622 1.8e-4 0.14428-0.02427 0.16834v8.5321c0 2.8844 2.8933 5.7453 6.5104 5.0001 2.0738-0.43255 4.2687-2.5239 4.2202-5.2639-0.02406-2.716 0-5.4324 0-8.1484v-0.28814h-2.5807v8.5086c-0.02405 1.6104-1.5427 2.9084-3.1343 2.6919-1.3265-0.19203-2.4599-1.3701-2.4358-2.8602 0.02445-2.6442 0-5.312 0-7.9558v-0.38444zm49.215 0c-1.0367 2.9325-2.0729 5.8643-3.11 8.7967h-0.0485c-1.0611-2.9325-2.0972-5.8648-3.1343-8.7732h-2.8939c1.5915 4.5669 3.1829 9.1097 4.7503 13.628h2.5799c1.5674-4.5428 3.1345-9.0851 4.726-13.652zm44.682 0v8.821c-0.0239 0-0.0479 0.02427-0.072 0.02427-2.1944-2.9325-4.3641-5.8893-6.5104-8.8218h-2.1947v13.628h2.5564v-8.7725c2.1944 2.9802 4.3404 5.8881 6.4627 8.7725h2.2902c0-4.5669 1.8e-4 -9.0851 0.0243-13.652zm-41.113 0.02349v13.628h2.5322v-13.629zm13.141 0v13.628h2.5321v-13.629zm-43.38 0.02427v13.604h7.2825v-2.5235h-4.726v-3.0286h4.726v-2.5478h-4.726v-2.98h4.726v-2.5243zm-6.7219 2.4609c0.32552-3e-3 0.64566 0.0031 0.95915 0.03915 0.79575 0.07216 1.3506 0.72076 1.3506 1.5378 0.02405 0.7693-0.55488 1.4425-1.3506 1.5143-0.62698 0.04811-1.2784 0-1.9535 0v-3.0763c0.33754 0 0.66886-0.01187 0.99438-0.01488zm18.881 0c0.32552-3e-3 0.64487 0.0031 0.95836 0.03915 0.79575 0.07216 1.3498 0.72076 1.3498 1.5378 0.02445 0.7693-0.5541 1.4425-1.3498 1.5143-0.62699 0.04811-1.2784 0-1.9535 0v-3.0763c0.33754 0 0.66964-0.01187 0.99516-0.01488zm41.854 2.3709-5.3289 8.7725h10.658z" fill="#fff" stroke-width=".40088"/>
 <style type="text/css">.st0{fill:#FC0C18;}
	.st1{fill:#FC0C18;}</style>
</svg>
