<svg width="480" height="320" version="1.1" viewBox="0 0 480 320" xml:space="preserve" xmlns="http://www.w3.org/2000/svg"><defs><linearGradient id="a" x1="57.06" x2="70.96" y1="-16.39" y2="70.96" gradientTransform="scale(3.78)" gradientUnits="userSpaceOnUse"><stop stop-color="#43d68c" offset="0"/><stop stop-color="#1e7b6b" offset="1"/></linearGradient></defs><rect width="480" height="320" ry="24" fill="url(#a)"/><path d="m63.39 63.02-23.39 23.39v38.83l23.39 23.39 12.74-0.0215v-29.21h-6.918v-27.17h18.74v15.89h29.21v-21.71l-23.39-23.39zm61.53 0v118.6l23.39 23.39h12.74v-29.22h-6.918v-112.8zm47.96 0v112.8h-6.92v29.22h12.74l23.39-23.39v-118.6zm36.55 0v142h29.21v-142zm34.12 0v29.22h13.84v36.45h-13.84v29.21h19.66l23.39-23.38v-48.1l-23.39-23.39zm49.17 0v142h61.96v-29.22h-32.76v-83.55h32.76v-29.22h-32.76zm70.1 0v142h29.21v-142zm34.12 0v29.22h13.84v27.17h-13.84v29.21h13.84v55.44h29.22v-54.13l-15.92-15.92 15.92-15.91v-31.69l-23.39-23.39h-9.492zm-315.9 56.39v29.21h6.92v27.17h-18.74v-17.53h-29.22v23.35l23.39 23.39h30.39l23.39-23.39v-38.82l-23.39-23.38zm245.8 0v29.21h22.94v-29.21zm-222.1 98.27c-4.928 0-8.93 4.001-8.93 8.93v21.44c0 4.928 4.001 8.93 8.93 8.93h43.31v-22.29h-26.12v7.045h17.37v8.199h-34.74v-25.21h43.49v-7.043zm127.4 0-20.15 39.3h9.836l16.54-32.26h4.615l16.55 32.26h9.836l-20.15-39.3zm44.04 0v39.3h8.752v-15.24h31.29v-7.045h-31.29v-9.971h37.03v-7.043h-37.03zm50.54 0 19.65 19.65-19.65 19.65h12.37l14.88-14.87 14.87 14.87h12.38l-19.65-19.65 19.65-19.65h-12.38l-14.87 14.87-14.88-14.87zm-170.4 0.01v39.3h8.752v-15.24h17.28l12.79 15.24h11.42l-12.79-15.24h4.699c4.887-0.0104 8.846-3.971 8.846-8.857v-6.355c0-4.887-3.959-8.846-8.846-8.846zm8.752 7.033h33.5v9.971h-33.5z" fill="#fff"/></svg>
