<svg width="480" height="320" version="1.1" viewBox="0 0 127 84.667" xmlns="http://www.w3.org/2000/svg">
 <defs>
  <linearGradient id="a" x1="116.42" x2="90.757" y1="84.25" y2="-11.512" gradientUnits="userSpaceOnUse">
   <stop stop-color="#3a9104" offset="0"/>
   <stop stop-color="#9bdb4d" offset="1"/>
  </linearGradient>
 </defs>
 <rect width="127" height="84.667" ry="4.2333" fill="url(#a)" stroke-linecap="square" stroke-linejoin="round" stroke-width=".52917" style="paint-order:stroke fill markers"/>
 <path d="m108.17 45.923h3.8798v-7.3084h-3.8798zm-1.9399-13.641c-5.3562 0-9.6986 4.3621-9.6986 9.7433 0 5.3818 4.3429 9.7444 9.6986 9.7444 5.3568 0 9.6986-4.3632 9.6986-9.7444 5.3e-4 -5.3812-4.3418-9.7433-9.6986-9.7433zm-0.48418 7.3079h-0.9705v-0.48751l-0.48471-0.48751h-3.8793v7.3084h3.8793l0.48471-0.48751v-0.48698h0.9705v0.97449l-0.9705 0.97396h-4.8493l-0.48472-0.48698v-8.2824l0.48472-0.48698h4.8493l0.9705 0.97396zm7.2734 6.3334-0.96943 0.97396h-5.3345v-0.97396h0.48472v-7.3084h-0.48472v-0.97396h5.3345l0.96943 0.97396z" fill="none" stroke-width=".1768"/>
 <path d="m10.583 29.321v1.5503h1.8536v21.044h1.8541v-21.044h1.5342v-1.5503h-5.2419zm97.514 6.1335c-4.5944 0-8.3181 3.742-8.3181 8.3581 0 4.6164 3.7245 8.3586 8.3181 8.3586 4.5939 0 8.3181-3.7422 8.3181-8.3586 0-4.6159-3.7242-8.3581-8.3181-8.3581zm-60.065 0.10645c-1.0149 0-1.7534 0.87147-1.7534 1.5348v13.218c0 0.85414 0.94656 1.6293 1.7456 1.6293h2.1895c0.85512 0 1.71-0.88727 1.71-1.5952v-13.297c0-0.59578-0.80689-1.4903-1.8774-1.4903h-2.0143zm-29.226 0.0708v14.724c0 0.88499 0.83385 1.6495 1.7683 1.6495h2.0887c0.88476 0 1.7472-0.67505 1.7472-1.6299v-14.744h-1.7895v14.744h-2.0464v-14.744h-1.7683zm18.303 0.04909v16.275h3.8674c0.78316 0 1.6619-0.49127 1.6619-1.5498 0 0 9e-3 -5.0834 0-5.8131-0.0074-0.73082-0.76636-1.1922-0.76636-1.1922s0.76636-0.49908 0.76636-1.1927v-4.977c0-0.93921-0.82316-1.5508-1.6619-1.5508h-3.8674zm-9.0656 0.0047v16.303h1.6944v-7.6599h0.63922l1.8851 7.6315h1.6624l-1.758-7.7509c0.60695 0 1.4144-0.7299 1.4144-1.7063v-5.3355c0-0.76749-0.87076-1.4821-1.8619-1.4821h-3.6758zm20.105 1.4852h1.9606v13.092h-1.9606zm-9.2815 0.09043h2.0293v5.3501h-2.0293zm-9.0661 0.0036h2.0298v5.3501h-2.0298zm72.889 2.7868h4.1595l0.83197 0.83613v0.8356h-0.83197v-0.41809l-0.416-0.41753h-3.3274v6.2682h3.3274l0.416-0.41806v-0.41753h0.83197v0.8356l-0.83197 0.83612h-4.1595l-0.41547-0.41806v-7.1045l0.41547-0.41806zm5.8234 0h4.5748l0.83147 0.83613v6.2682l-0.83147 0.83612h-4.5748v-0.83612h0.416v-6.2682h-0.416zm1.248 0.83613v6.2682h3.3268v-6.2682zm-70.894 3.4081h2.0293v6.0663h-2.0293z" fill="#fafafa" stroke-width=".1768"/>
 <path d="m57.901 29.419c-0.9509 0-1.7973 0.86473-1.7973 1.6769v19.33c0 0.96119 1.0142 1.5952 1.8376 1.5952h3.852v-12.788h-2.7331v1.5653h0.92706v9.6416h-2.1415v-19.299h2.0929v4.5153h1.8422v-4.5791c0-0.80099-0.84578-1.6583-1.7782-1.6583h-2.1017zm7.636 6.2224v16.305h1.6929v-7.6609h0.63976l1.8867 7.6305h1.6614l-1.7585-7.7488c0.60748 0 1.4159-0.73096 1.4159-1.7069v-5.3355c0-0.76749-0.87235-1.4836-1.8624-1.4836h-3.6758zm10.704 0.03617c-1.0075 0-1.5989 0.83449-1.5989 1.4903v14.756h1.6939v-7.7509h2.1409v7.7509h1.6944v-14.667c-5.29e-4 -0.97323-0.67052-1.5797-1.6944-1.5797h-2.236zm9.0246 0c-0.83872 0-1.5022 0.73072-1.5022 1.4015v14.845h1.7255v-7.7509l2.1585 0.0067v-1.5864h-2.1585v-5.4847h2.6215v-1.4309h-2.8448zm6.3446 0.0041v5.5975c0 0.72106 1.8955 2.5104 1.8955 2.5104s-1.8955 1.881-1.8955 2.5693v5.5975h1.7895v-5.8559l1.0867-1.0904 1.0867 1.1043v5.8419h1.6836v-5.6109c0-0.73294-1.7895-2.5414-1.7895-2.5414s1.7678-1.8099 1.7678-2.4965v-5.626h-1.7895v5.9417l-1.0015 1.0046-1.0227-1.0335v-5.9128h-1.8112zm-24.339 1.5229h2.0283v5.3501h-2.0283zm9.1291 0.11265h2.0283v5.2466h-2.0283z" fill="#fafafa" fill-opacity=".8" stroke-width=".66822"/>
 <style type="text/css">.st0{fill:#FC0C18;}
	.st1{fill:#FC0C18;}</style>
</svg>
