<svg width="480" height="320" version="1.1" viewBox="0 0 127 84.667" xmlns="http://www.w3.org/2000/svg" xmlns:xlink="http://www.w3.org/1999/xlink">
 <defs>
  <linearGradient id="a" x1="116.42" x2="90.757" y1="84.25" y2="-11.512" gradientUnits="userSpaceOnUse">
   <stop stop-color="#3a9104" offset="0"/>
   <stop stop-color="#9bdb4d" offset="1"/>
  </linearGradient>
 </defs>
 <rect width="127" height="84.667" ry="4.2333" fill="url(#a)" stroke-linecap="square" stroke-linejoin="round" stroke-width=".52917" style="paint-order:stroke fill markers"/>
 <path d="m108.17 47.511h3.8798v-7.3084h-3.8798zm-1.9399-13.641c-5.3562 0-9.6986 4.3621-9.6986 9.7433 0 5.3818 4.3429 9.7444 9.6986 9.7444 5.3568 0 9.6986-4.3632 9.6986-9.7444 5.3e-4 -5.3812-4.3418-9.7433-9.6986-9.7433zm-0.48418 7.3079h-0.9705v-0.48751l-0.48471-0.48751h-3.8793v7.3084h3.8793l0.48471-0.48751v-0.48698h0.9705v0.97449l-0.9705 0.97396h-4.8493l-0.48472-0.48698v-8.2824l0.48472-0.48698h4.8493l0.9705 0.97396zm7.2734 6.3334-0.96943 0.97396h-5.3345v-0.97396h0.48472v-7.3084h-0.48472v-0.97396h5.3345l0.96943 0.97396z" fill="none" stroke-width=".1768"/>
 <path transform="scale(.26458)" d="m40 116.82v5.8594h7.0059v79.539h7.0078v-79.539h5.7988v-5.8594h-19.812zm368.56 23.182c-17.365 0-31.439 14.143-31.439 31.59 0 17.448 14.077 31.592 31.439 31.592 17.363 0 31.439-14.144 31.439-31.592 0-17.446-14.076-31.59-31.439-31.59zm-227.02 0.40234c-3.836 0-6.627 3.2938-6.627 5.8008v49.959c0 3.2283 3.5776 6.1582 6.5976 6.1582h8.2754c3.232 0 6.4629-3.3535 6.4629-6.0293v-50.256c0-2.2518-3.0497-5.6328-7.0957-5.6328h-3.8672-3.7461zm-110.46 0.26758v55.652c0 3.3449 3.1516 6.2344 6.6836 6.2344h7.8945c3.344 0 6.6035-2.5514 6.6035-6.1602v-55.727h-6.7637v55.727h-7.7344v-55.727h-6.6836zm69.178 0.18555v61.514h14.617c2.96 0 6.2812-1.8568 6.2812-5.8574 0 0 0.03402-19.213 0-21.971-0.02796-2.7622-2.8965-4.5059-2.8965-4.5059s2.8965-1.8863 2.8965-4.5078v-18.811c0-3.5498-3.1112-5.8613-6.2812-5.8613h-14.617zm-34.264 0.01758v61.619h6.4043v-28.951h2.416l7.125 28.844h6.2832l-6.6445-29.295c2.294 0 5.3457-2.7587 5.3457-6.4492v-20.166c0-2.9008-3.2911-5.6016-7.0371-5.6016h-13.893zm75.99 5.6133h7.4102v49.482h-7.4102v-49.482zm-35.08 0.34179h7.6699v20.221h-7.6699v-20.221zm-34.266 0.01368h7.6719v20.221h-7.6719v-20.221zm275.49 10.533h15.721l3.1445 3.1602v3.1582h-3.1445v-1.5801l-1.5723-1.5781h-12.576v23.691h12.576l1.5723-1.5801v-1.5781h3.1445v3.1582l-3.1445 3.1602h-15.721l-1.5703-1.5801v-26.852l1.5703-1.5801zm22.01 0h17.291l3.1426 3.1602v23.691l-3.1426 3.1602h-17.291v-3.1602h1.5723v-23.691h-1.5723v-3.1602zm4.7168 3.1602v23.691h12.574v-23.691h-12.574zm-267.95 12.881h7.6699v22.928h-7.6699v-22.928z" fill="#fafafa" stroke-width=".66822"/>
 <path transform="scale(.26458)" d="m218.84 117.19c-3.594 0-6.793 3.2683-6.793 6.3379v73.059c0 3.6329 3.8333 6.0293 6.9453 6.0293h14.559v-48.332h-10.33v5.916h3.5039v36.441h-8.0938v-72.943h7.9102v17.066h6.9629v-17.307c0-3.0274-3.1967-6.2676-6.7207-6.2676h-7.9434zm28.861 23.518v61.627h6.3984v-28.955h2.418l7.1309 28.84h6.2793l-6.6465-29.287c2.296 0 5.3516-2.7627 5.3516-6.4512v-20.166c0-2.9008-3.2971-5.6074-7.0391-5.6074h-13.893zm40.457 0.13672c-3.808 0-6.043 3.154-6.043 5.6328v55.771h6.4023v-29.295h8.0918v29.295h6.4043v-55.434c-2e-3 -3.6784-2.5343-5.9707-6.4043-5.9707h-8.4512zm34.109 0c-3.17 0-5.6777 2.7618-5.6777 5.2969v56.107h6.5215v-29.295l8.1582 0.02539v-5.9961h-8.1582v-20.73h9.9082v-5.4082h-10.752zm23.98 0.01562v21.156c0 2.7253 7.1641 9.4883 7.1641 9.4883s-7.1641 7.1095-7.1641 9.7109v21.156h6.7637v-22.133l4.1074-4.1211 4.1074 4.1738v22.08h6.3633v-21.207c0-2.7702-6.7637-9.6055-6.7637-9.6055s6.6816-6.8408 6.6816-9.4356v-21.264h-6.7637v22.457l-3.7852 3.7969-3.8652-3.9062v-22.348h-6.8457zm-91.992 5.7559h7.666v20.221h-7.666v-20.221zm34.504 0.42578h7.666v19.83h-7.666v-19.83z" fill="#fafafa" fill-opacity=".8" stroke-width=".66822"/>
 <style type="text/css">.st0{fill:#FC0C18;}
	.st1{fill:#FC0C18;}</style>
</svg>
