<svg width="480" height="320" version="1.1" viewBox="0 0 480 320" xml:space="preserve" xmlns="http://www.w3.org/2000/svg"><defs><linearGradient id="a" x1="247.4" x2="138.3" y1="-33.78" y2="373.3" gradientUnits="userSpaceOnUse"><stop stop-color="#f9c440" offset="0"/><stop stop-color="#f37329" offset=".4"/><stop stop-color="#cc3b02" offset="1"/></linearGradient></defs><rect width="480" height="320" ry="24" fill="url(#a)"/><path d="m40 123.9v5.926h6.666v65.07h5.926v-65.07h6.666v-5.926h-19.26zm176.3 0c-3.27 0-5.926 2.655-5.926 5.926v59.15c0 3.27 2.655 5.926 5.926 5.926h7.404 5.926v-5.926-29.11-5.926h-9.623v5.926h3.697v29.11h-7.404v-59.15h7.404v8.082h5.926v-8.082c0-3.27-2.655-5.926-5.926-5.926h-7.404zm192.2 9.148c-17.42 0-31.54 14.12-31.54 31.54 0 17.42 14.12 31.54 31.54 31.54 17.42 0 31.54-14.12 31.54-31.54 0-17.41-14.12-31.54-31.54-31.54zm-338.3 1.203v54.72c0 3.27 2.655 5.926 5.926 5.926h7.332c3.27 0 5.926-2.655 5.926-5.926v-54.72h-5.926v54.72h-7.332v-54.72h-5.926zm35.53 0v3.656 2.271 20.67 5.926 28.12h5.926v-28.12h2.51l4.928 28.12h5.926l-4.938-28.21c2.802-0.4687 4.938-2.905 4.938-5.842v-20.67c0-3.27-2.655-5.928-5.926-5.928h-13.36zm35.04 0v4.76 1.168 20.67 5.926 22.2 5.926h5.926 7.404c3.27 0 5.928-2.655 5.928-5.926v-19.24c0-3.27-0.3234-5.926-3.594-5.926 3.27 0 3.594-2.655 3.594-5.926v-17.71c0-3.27-2.657-5.928-5.928-5.928h-13.33zm40.17 0c-3.27 0-5.926 2.657-5.926 5.928v48.79c0 3.27 2.655 5.926 5.926 5.926h7.406c3.27 0 5.926-2.655 5.926-5.926v-48.79c0.0104-3.27-2.645-5.928-5.926-5.928h-7.406zm66.11 0v3.656 2.271 20.67 5.926 28.12h5.926v-28.12h2.51l4.928 28.12h5.926l-4.938-28.21c2.802-0.4687 4.938-2.905 4.938-5.842v-20.67c0-3.27-2.655-5.928-5.926-5.928h-13.36zm40.16 0c-3.27 0-5.926 2.657-5.926 5.928v20.67 5.926 28.12h5.926v-28.12h7.406v28.12h5.926v-28.12-5.926-20.67c0-3.27-2.655-5.928-5.926-5.928h-7.406zm35.44 0c-3.27 0-5.926 2.657-5.926 5.928v20.67 5.926 28.12h5.926v-28.12h8.873v-5.926h-8.873v-20.67h8.873v-5.928h-1.479-7.395zm22.17 0v19.08c0 1.385 2.875 6.331 5.947 11.24-3.083 4.906-5.947 9.853-5.947 11.24v19.08h5.926v-19.07s1.604-2.344 3.697-5.531c2.093 3.187 3.697 5.531 3.697 5.531v19.08h5.928v-19.08c0.0104-1.396-2.864-6.344-5.947-11.25 3.072-4.895 5.947-9.841 5.947-11.24v-19.08h-5.928v19.08s-1.604 2.342-3.697 5.529c-2.093-3.187-3.697-5.529-3.697-5.529v-19.08h-5.926zm-233.2 5.928h7.438v20.67h-7.438v-20.67zm35.04 0h7.395v20.67h-7.395v-20.67zm34.24 0h7.406v48.79h-7.406v-48.79zm72.03 0h7.438v20.67h-7.438v-20.67zm34.23 0h7.406v20.67h-7.406v-20.67zm117.3 10.35h21.96l2.699 2.699v4.293h-3.605v-3.375h-20.15v8.637h21.06l2.699 2.699v10.46l-2.699 2.697h-21.96l-2.697-2.697v-9.555-3.605-9.555l2.697-2.699zm-16.66 0.01172h3.375 3.824v3.605 20.89h3.377v3.604h-0.01172-10.56v-3.604h3.375v-20.89h-3.375v-3.605zm17.57 15.86v8.639h20.15v-8.639h-20.15zm-258.7 0.3789h7.395v22.2h-7.395v-22.2z" fill="#fff"/></svg>
