<svg width="480" height="320" version="1.1" viewBox="0 0 127 84.667" xmlns="http://www.w3.org/2000/svg">
 <defs>
  <linearGradient id="a" x1="41.654" x2="18.317" y2="87.094" gradientUnits="userSpaceOnUse">
   <stop stop-color="#f9c440" offset="0"/>
   <stop stop-color="#f37329" offset=".4"/>
   <stop stop-color="#cc3b02" offset="1"/>
  </linearGradient>
 </defs>
 <rect width="127" height="84.667" ry="4.2333" fill="url(#a)" stroke-linecap="square" stroke-linejoin="round" stroke-width=".52917" style="paint-order:stroke fill markers"/>
 <path d="m10.583 29.321v1.5503h1.8536v21.044h1.8541v-21.044h1.5342v-1.5503h-5.2419zm97.514 6.1303c-4.5936 0-8.3163 3.7425-8.3163 8.3597 0 4.6169 3.7226 8.3602 8.3163 8.3602 4.5931 0 8.3179-3.743 8.3179-8.3602 0-4.6169-3.7242-8.3597-8.3179-8.3597zm-60.068 0.10955c-1.0149 0-1.7534 0.87155-1.7534 1.5348v13.218c0 0.85417 0.94656 1.6293 1.7456 1.6293h2.1895c0.85512 0 1.71-0.88732 1.71-1.5952v-13.297c0-0.59568-0.80689-1.4903-1.8774-1.4903h-2.0143zm-29.226 0.0708v14.724c0 0.88502 0.83385 1.6495 1.7683 1.6495h2.0887c0.88476 0 1.7472-0.67568 1.7472-1.6304v-14.744h-1.7895v14.744h-2.0464v-14.744h-1.7683zm18.303 0.04909v16.275h3.8674c0.78316 0 1.6619-0.49138 1.6619-1.5498 0 0 9e-3 -5.0834 0-5.8131-0.0074-0.73077-0.76636-1.1927-0.76636-1.1927s0.76636-0.49863 0.76636-1.1922v-4.9773c0-0.93926-0.82316-1.5503-1.6619-1.5503h-3.8674zm-9.0656 0.0041v16.304h1.6944v-7.6599h0.63923l1.8851 7.631h1.6624l-1.758-7.7503c0.60695 0 1.4144-0.72984 1.4144-1.7063v-5.3355c0-0.76747-0.87076-1.4826-1.8619-1.4826h-3.6758zm20.105 1.4857h1.9606v13.092h-1.9606zm-9.2815 0.09043h2.0293v5.3501h-2.0293zm-9.0661 0.0036h2.0298v5.3501h-2.0298zm72.844 3.1874h1.7885v5.8496h0.833v0.94413h-2.637v-0.92862h0.85007v-4.9061h-0.83457v-0.9591zm4.4576 0.02997h5.9866l0.51418 0.51778v1.234h-0.84747v-0.85316h-5.3522v2.0412h5.716l0.48368 0.48834v2.6969l-0.60565 0.60925h-5.8507l-0.60668-0.60925v-5.5609l0.56224-0.5643zm-68.235 3.8131h2.0293v6.0668h-2.0293z" fill="#fff" stroke-width=".66836"/>
 <path d="m57.901 29.419c-0.9509 0-1.7973 0.86473-1.7973 1.6769v19.33c0 0.96106 1.0142 1.5952 1.8376 1.5952h3.852v-12.788h-2.7331v1.5653h0.92706v9.6421h-2.1415v-19.299h2.0929v4.5153h1.8422v-4.5796c0-0.80096-0.84578-1.6583-1.7782-1.6583h-2.1017zm7.636 6.2229v16.305h1.6929v-7.6609h0.63976l1.8867 7.6305h1.6614l-1.7585-7.7493c0.60748 0 1.4159-0.73037 1.4159-1.7063v-5.3355c0-0.76747-0.87235-1.4836-1.8624-1.4836h-3.6758zm10.704 0.03617c-1.0075 0-1.5989 0.83454-1.5989 1.4903v14.756h1.6939v-7.7503h2.1409v7.7503h1.6944v-14.666c-5.29e-4 -0.97328-0.67052-1.5797-1.6944-1.5797h-2.236zm9.0246 0c-0.83872 0-1.5022 0.73077-1.5022 1.4015v14.844h1.7255v-7.7503l2.1585 0.0067v-1.5864h-2.1585v-5.4847h2.6215v-1.4309h-2.8448zm6.3446 0.0041v5.5975c0 0.72119 1.8955 2.5104 1.8955 2.5104s-1.8955 1.8811-1.8955 2.5693v5.5975h1.7895v-5.8559l1.0867-1.0904 1.0867 1.1043v5.8419h1.6836v-5.6109c0-0.73289-1.7895-2.5419-1.7895-2.5419s1.7678-1.8098 1.7678-2.4965v-5.6255h-1.7895v5.9417l-1.0015 1.0046-1.0227-1.0335v-5.9128h-1.8112zm-24.339 1.5229h2.0283v5.3501h-2.0283zm9.1291 0.11265h2.0283v5.2461h-2.0283z" fill="#fafafa" fill-opacity=".8" stroke-width=".66836"/>
 <rect x="107.45" y="44.32" width="5.2446" height="1.9663" fill="#fff" stroke-width=".17684"/>
 <style type="text/css">.st0{fill:#FC0C18;}
	.st1{fill:#FC0C18;}</style>
</svg>
