<svg width="480" height="320" version="1.1" viewBox="0 0 127 84.667" xmlns="http://www.w3.org/2000/svg" xmlns:xlink="http://www.w3.org/1999/xlink">
 <defs>
  <linearGradient id="a" x1="41.654" x2="18.317" y2="87.094" gradientUnits="userSpaceOnUse">
   <stop stop-color="#f9c440" offset="0"/>
   <stop stop-color="#f37329" offset=".4"/>
   <stop stop-color="#cc3b02" offset="1"/>
  </linearGradient>
 </defs>
 <rect width="127" height="84.667" ry="4.2333" fill="url(#a)" stroke-linecap="square" stroke-linejoin="round" stroke-width=".52917" style="paint-order:stroke fill markers"/>
 <path transform="scale(.26458)" d="m40 116.82v5.8594h7.0059v79.539h7.0078v-79.539h5.7988v-5.8594h-19.812zm368.56 23.17c-17.362 0-31.432 14.145-31.432 31.596 0 17.45 14.07 31.598 31.432 31.598 17.36 0 31.438-14.147 31.438-31.598 0-17.45-14.076-31.596-31.438-31.596zm-227.03 0.41406c-3.836 0-6.627 3.2941-6.627 5.8008v49.959c0 3.2284 3.5776 6.1582 6.5976 6.1582h8.2754c3.232 0 6.4629-3.3537 6.4629-6.0293v-50.256c0-2.2514-3.0497-5.6328-7.0957-5.6328h-3.8672-3.7461zm-110.46 0.26758v55.652c0 3.345 3.1516 6.2344 6.6836 6.2344h7.8945c3.344 0 6.6035-2.5538 6.6035-6.1621v-55.725h-6.7637v55.725h-7.7344v-55.725h-6.6836zm69.178 0.18555v61.514h14.617c2.96 0 6.2812-1.8572 6.2812-5.8574 0 0 0.03402-19.213 0-21.971-0.02796-2.762-2.8965-4.5078-2.8965-4.5078s2.8965-1.8846 2.8965-4.5059v-18.812c0-3.55-3.1112-5.8594-6.2812-5.8594h-14.617zm-34.264 0.01562v61.621h6.4043v-28.951h2.416l7.125 28.842h6.2832l-6.6445-29.293c2.294 0 5.3457-2.7585 5.3457-6.4492v-20.166c0-2.9007-3.2911-5.6035-7.0371-5.6035h-13.893zm75.99 5.6152h7.4102v49.482h-7.4102v-49.482zm-35.08 0.34179h7.6699v20.221h-7.6699v-20.221zm-34.266 0.01368h7.6719v20.221h-7.6719v-20.221zm275.32 12.047h6.7598v22.109h3.1484v3.5684h-9.9668v-3.5098h3.2129v-18.543h-3.1543v-3.625zm16.848 0.11328h22.627l1.9434 1.957v4.6641h-3.2031v-3.2246h-20.229v7.7148h21.604l1.8281 1.8457v10.193l-2.2891 2.3027h-22.113l-2.293-2.3027v-21.018l2.125-2.1328zm-257.9 14.412h7.6699v22.93h-7.6699v-22.93z" fill="#fff" stroke-width=".66836"/>
 <path transform="scale(.26458)" d="m218.84 117.19c-3.594 0-6.793 3.2683-6.793 6.3379v73.061c0 3.6324 3.8333 6.0293 6.9453 6.0293h14.559v-48.334h-10.33v5.916h3.5039v36.443h-8.0938v-72.943h7.9102v17.066h6.9629v-17.309c0-3.0273-3.1967-6.2676-6.7207-6.2676h-7.9434zm28.861 23.52v61.627h6.3984v-28.955h2.418l7.1309 28.84h6.2793l-6.6465-29.289c2.296 0 5.3516-2.7605 5.3516-6.4492v-20.166c0-2.9007-3.2971-5.6074-7.0391-5.6074h-13.893zm40.457 0.13672c-3.808 0-6.043 3.1542-6.043 5.6328v55.77h6.4023v-29.293h8.0918v29.293h6.4043v-55.432c-2e-3 -3.6786-2.5343-5.9707-6.4043-5.9707h-8.4512zm34.109 0c-3.17 0-5.6777 2.762-5.6777 5.2969v56.105h6.5215v-29.293l8.1582 0.02539v-5.9961h-8.1582v-20.73h9.9082v-5.4082h-10.752zm23.98 0.01562v21.156c0 2.7258 7.1641 9.4883 7.1641 9.4883s-7.1641 7.1098-7.1641 9.7109v21.156h6.7637v-22.133l4.1074-4.1211 4.1074 4.1738v22.08h6.3633v-21.207c0-2.77-6.7637-9.6074-6.7637-9.6074s6.6816-6.8404 6.6816-9.4356v-21.262h-6.7637v22.457l-3.7852 3.7969-3.8652-3.9062v-22.348h-6.8457zm-91.992 5.7559h7.666v20.221h-7.666v-20.221zm34.504 0.42578h7.666v19.828h-7.666v-19.828z" fill="#fafafa" fill-opacity=".8" stroke-width=".66836"/>
 <rect x="107.45" y="45.908" width="5.2446" height="1.9663" fill="#fff" stroke-width=".17684"/>
 <style type="text/css">.st0{fill:#FC0C18;}
	.st1{fill:#FC0C18;}</style>
</svg>
