<svg width="480" height="320" version="1.1" viewBox="0 0 480 320" xml:space="preserve" xmlns="http://www.w3.org/2000/svg"><defs><linearGradient id="a" x1="110.3" x2="90.87" y1="61.57" y2="-11.1" gradientTransform="scale(3.78)" gradientUnits="userSpaceOnUse"><stop stop-color="#327c03" offset="0"/><stop stop-color="#9bdb4d" offset="1"/></linearGradient></defs><rect width="480" height="320" ry="24" fill="url(#a)"/><path d="m40 123.9v5.928h6.668v65.1h5.93v-65.1h6.668v-5.928h-19.27zm176.3 0c-3.272 0-5.93 2.656-5.93 5.928v59.17c0 3.272 2.658 5.93 5.93 5.93h7.406 5.93v-35.05-5.93h-9.627v5.93h3.697v29.12h-7.406v-59.17h7.406v8.086h5.93v-8.086c0-3.272-2.658-5.928-5.93-5.928h-7.406zm192.1 9.148c-17.42 0-31.54 14.12-31.54 31.54 0 17.42 14.12 31.54 31.54 31.54 17.42 0 31.54-14.12 31.54-31.54s-14.12-31.54-31.54-31.54zm-338.3 1.209v54.74c0 3.272 2.656 5.93 5.928 5.93h7.336c3.272 0 5.93-2.658 5.93-5.93v-54.74h-5.93v54.74h-7.336v-54.74h-5.928zm35.54 0v3.656 2.271 20.68 5.93 28.13h5.928v-28.13h2.512l4.928 28.13h5.93l-4.939-28.22c2.803-0.4689 4.939-2.907 4.939-5.846v-20.68c0-3.272-2.658-5.928-5.93-5.928h-13.37zm35.05 0v4.762 1.166 20.68 5.93 22.2 5.93h5.928 7.408c3.272 0 5.93-2.658 5.93-5.93v-19.24c0-3.272-0.324-5.928-3.596-5.928 3.272 0 3.596-2.658 3.596-5.93v-17.71c0-3.272-2.658-5.928-5.93-5.928h-13.34zm40.19 0c-3.272 0-5.93 2.656-5.93 5.928v48.81c0 3.272 2.658 5.93 5.93 5.93h7.408c3.272 0 5.928-2.658 5.928-5.93v-48.81c0.0104-3.272-2.646-5.928-5.928-5.928h-7.408zm66.13 0v3.656 2.271 20.68 5.93 28.13h5.93v-28.13h2.51l4.93 28.13h5.928l-4.938-28.22c2.803-0.4689 4.938-2.907 4.938-5.846v-20.68c0-3.272-2.656-5.928-5.928-5.928h-13.37zm40.18 0c-3.272 0-5.928 2.656-5.928 5.928v20.68 5.93 28.13h5.928v-28.13h7.408v28.13h5.928v-28.13-5.93-20.68c0-3.272-2.656-5.928-5.928-5.928h-7.408zm35.46 0c-3.272 0-5.928 2.656-5.928 5.928v20.68 5.93 28.13h5.928v-28.13h8.877v-5.93h-8.877v-20.68h8.877v-5.928h-1.479-7.398zm22.18 0v19.09c0 1.386 2.876 6.335 5.949 11.24-3.084 4.908-5.949 9.856-5.949 11.24v19.09h5.928v-19.08s1.605-2.343 3.699-5.531c2.094 3.188 3.699 5.531 3.699 5.531v19.09h5.928v-19.09c0.0104-1.396-2.865-6.344-5.949-11.25 3.074-4.897 5.949-9.846 5.949-11.24v-19.09h-5.928v19.09s-1.605 2.345-3.699 5.533c-2.094-3.188-3.699-5.533-3.699-5.533v-19.09h-5.928zm-233.3 5.928h7.439v20.68h-7.439v-20.68zm35.05 0h7.398v20.68h-7.398v-20.68zm34.26 0h7.408v48.81h-7.408v-48.81zm72.06 0h7.439v20.68h-7.439v-20.68zm34.25 0h7.408v20.68h-7.408v-20.68zm103.2 10.92h11.67l2.699 2.699v4.365h-3.605v-3.471h-9.855v19.78h9.855v-3.471h3.605v4.377l-2.699 2.697h-11.67l-2.697-2.697v-21.58l2.697-2.699zm17.86 0h18.08l2.699 2.699v21.59l-2.699 2.699h-18.08v-3.605h3.553v-19.78h-3.553v-3.605zm7.158 3.605v19.78h10.01v-19.78h-10.01zm-268.8 12.09h7.398v22.2h-7.398v-22.2z" fill="#fff"/></svg>
