<svg width="480" height="320" version="1.1" viewBox="0 0 480 320" xmlns="http://www.w3.org/2000/svg"><defs><linearGradient id="a" x1="94.22" x2="79.34" y1="13.23" y2="87.56" gradientTransform="scale(3.78)" gradientUnits="userSpaceOnUse"><stop stop-color="#64baff" offset="0"/><stop stop-color="#0d52bf" offset="1"/></linearGradient></defs><rect width="480" height="320" ry="24" fill="url(#a)"/><path d="m40 130v12h12v48h23v-48h12v-12zm71 0v12h11v36h-11v12h47v-12h-12v-36h12v-12zm70 0v12h-12v36h12v12h35v-12l12-3e-3v-12h-12v12h-23v-36h23v-12zm35 12v12l12-3e-3v-12zm106 12h-12v-12h12v-12l35 5e-5v12h-23v12l-12 3e-3v12h-12v12h12v12h35v-12l12-3e-3v-12h-12v12h-23v-12h23v-12h-35m35-12v12l12-3e-3v-12zm36-12v12h-12v36h12v12h35v-12l12-3e-3v-36h-12v-12zm11 12h12v12h12v24h-24v-12h12v-12h-12zm-152 12v12h35v-12z" fill="#fff"/></svg>
