<svg width="480" height="320" version="1.1" viewBox="0 0 127 84.667" xmlns="http://www.w3.org/2000/svg" xmlns:xlink="http://www.w3.org/1999/xlink">
 <defs>
  <linearGradient id="a" x1="94.222" x2="79.341" y1="13.229" y2="87.555" gradientUnits="userSpaceOnUse">
   <stop stop-color="#64baff" offset="0"/>
   <stop stop-color="#0d52bf" offset="1"/>
  </linearGradient>
 </defs>
 <rect width="127" height="84.667" ry="4.2333" fill="url(#a)" stroke-linecap="square" stroke-linejoin="round" stroke-width=".52917" style="paint-order:stroke fill markers"/>
 <path d="m10.583 34.516v3.1272h3.1131v12.507h6.2254v-12.507h3.1131v-3.1272zm18.677 0v3.1272h3.1123v9.3808h-3.1123v3.1264h12.451v-3.1264h-3.1131v-9.3808h3.1131v-3.1272zm18.676 0v3.1272h-3.1131v9.3808h3.1131v3.1264h9.3378v-3.1256l3.1123-7.82e-4v-3.1272h-3.1123v3.1272h-6.2254v-9.3808h6.2254v-3.1272zm9.3378 3.1272v3.1272l3.1123-7.86e-4v-3.1264zm28.015-3.1272v3.1272h-3.1123v3.1272h3.1123l3.1131-7.86e-4v-3.1264h6.2254v-3.1272zm9.3386 3.1272v3.1272l3.1123-7.86e-4v-3.1264zm0 3.1272h-9.3386v3.1264h-3.1123v3.1272h3.1123v3.1264h9.3386v-3.1256l3.1123-7.82e-4v-3.1272h-3.1123v3.1272h-6.2254v-3.1272h6.2254zm9.3378-6.2544v3.1272h-3.1123v9.3808h3.1123v3.1264h9.3386v-3.1256l3.1123-7.82e-4v-9.3808h-3.1123v-3.1272zm3.1131 3.1272h3.1131v3.1272h3.1123v6.2536h-6.2254v-3.1272h3.1131v-3.1264h-3.1131zm-40.466 3.1272v3.1264h9.3378v-3.1264z" fill="#fafafa" stroke-width=".40088"/>
 <style type="text/css">.st0{fill:#FC0C18;}
	.st1{fill:#FC0C18;}</style>
</svg>
