<svg width="480" height="320" version="1.1" viewBox="0 0 480 320" xmlns="http://www.w3.org/2000/svg" xmlns:xlink="http://www.w3.org/1999/xlink"><defs><linearGradient id="a" x1="240" x2="240" y1="320" y2="-111.6" gradientUnits="userSpaceOnUse"><stop stop-color="#54451c" offset="0"/><stop stop-color="#cbb665" offset="1"/></linearGradient></defs><rect id="b" width="480" height="320" ry="24" fill="url(#a)"/><path d="m257.4 97.94c-6.561 0.3826-12.57 2.659-17.24 6.724-0.8327 0.7253-2.09 2.005-2.801 2.85-4.115 4.891-6.622 11.51-6.981 19.45-0.05 1.103-0.05 2.895 3.4e-4 3.999 0.3609 7.905 2.868 14.51 6.98 19.41 0.7103 0.8455 1.966 2.127 2.798 2.853 4.666 4.075 10.68 6.369 17.24 6.755 1.102 0.0647 2.895 0.0647 3.998 9e-5 6.543-0.3836 12.55-2.66 17.23-6.723 0.8335-0.7244 2.092-2.002 2.805-2.846 4.127-4.889 6.65-11.51 7.012-19.45 0.0503-1.103 0.0503-2.895 0-3.999-0.3617-7.94-2.885-14.56-7.012-19.45-0.7123-0.8439-1.971-2.122-2.805-2.846-4.675-4.063-10.69-6.34-17.23-6.723-1.102-0.06463-2.895-0.06462-3.998-3.3e-4zm-216.8 2.587 19.18 56.86a2.786 2.786 0 0 0 2.639 1.895h17.76a2.786 2.786 0 0 0 2.639-1.895l19.19-56.86a1.436 1.436 0 0 0-1.361-1.895h-16.92a2.702 2.702 0 0 0-2.584 1.913l-9.546 31.27a0.3053 0.3053 0 0 1-0.584 3e-5l-9.55-31.27a2.702 2.702 0 0 0-2.584-1.913h-16.92a1.436 1.436 0 0 0-1.361 1.895zm64.03 0.105v56.65a2 2 0 0 0 2 2h14.96a2 2 0 0 0 2-2v-56.65a2 2 0 0 0-2-2h-14.96a2 2 0 0 0-2 2zm24.44 0v56.65a2 2 0 0 0 2 2h19.16c1.105 0 2.896 6e-3 3.999-0.0477 7.315-0.353 13.64-2.659 18.4-6.743 0.8381-0.719 2.101-1.993 2.813-2.837 4.062-4.815 6.37-11.23 6.716-18.72 0.051-1.103 0.051-2.895-1.5e-4 -3.999-0.3469-7.478-2.656-13.88-6.72-18.69-0.7131-0.8431-1.978-2.115-2.817-2.833-4.766-4.076-11.1-6.376-18.42-6.728-1.103-0.05297-2.895-0.04749-3.999-0.04749h-19.13a2 2 0 0 0-2 2zm55.19 0v56.65a2 2 0 0 0 2 2h40.01a2 2 0 0 0 2-2v-12.46a2 2 0 0 0-2-2h-22.05a1 1 0 0 1-1-1v-3.631a1 1 0 0 1 1-1h20.09a2 2 0 0 0 2-2v-12.49a2 2 0 0 0-2-2h-20.09a1 1 0 0 1-1-1v-3.605a1 1 0 0 1 1-1h22.05a2 2 0 0 0 2-2v-12.46a2 2 0 0 0-2-2h-40.01a2 2 0 0 0-2 2zm175.8 0.1481c-13.29 0.8356-23.41 10.07-24.18 26.18-0.0527 1.103-0.0528 2.895 4e-4 3.998 0.7734 16.04 10.89 25.34 24.18 26.18 1.102 0.0698 2.895 0.0698 3.997 7e-5 13.25-0.8383 23.43-10.07 24.21-26.18 0.0531-1.103 0.0531-2.895 0-3.998-0.7754-16.11-10.96-25.34-24.21-26.18-1.102-0.0697-2.895-0.0697-3.997-4.1e-4zm-71.27 2.688v6.791a2 2 0 0 0 2 2h13.7a1 1 0 0 1 1 1v41.19a2 2 0 0 0 2 2h9.104a2 2 0 0 0 2-2v-41.19a1 1 0 0 1 1-1h13.67a2 2 0 0 0 2-2v-6.791a2 2 0 0 0-2-2h-42.47a2 2 0 0 0-2 2zm104.4 0v50.98a2 2 0 0 0 2 2h9.289a2 2 0 0 0 2-2v-28.73a0.7486 0.7486 0 0 1 0.3476-1l21.31 30.91a1.904 1.904 0 0 0 1.568 0.8232h8.275a2 2 0 0 0 2-2v-50.98a2 2 0 0 0-2-2h-9.26a2 2 0 0 0-2 2v28.68a0.7775 0.7775 0 0 1-0.457 1l-21.07-30.85a1.894 1.894 0 0 0-1.564-0.8257h-8.436a2 2 0 0 0-2 2zm-131.8 0.1518c5.139 0.3532 9.637 2.081 13.18 5.037 0.8476 0.7076 2.108 1.987 2.804 2.844 3.063 3.77 5.055 8.889 5.39 15.46 0.0562 1.103 0.0562 2.895 0 3.998-0.3349 6.569-2.327 11.69-5.39 15.46-0.6962 0.857-1.956 2.137-2.804 2.844-3.541 2.956-8.038 4.684-13.18 5.037-1.102 0.0757-2.895 0.0757-3.997-1e-4 -5.155-0.3549-9.648-2.095-13.18-5.06-0.8457-0.7098-2.103-1.992-2.797-2.851-3.051-3.774-5.032-8.887-5.366-15.43-0.0564-1.103-0.0563-2.895-4.7e-4 -3.998 0.3328-6.571 2.314-11.69 5.364-15.46 0.6946-0.8583 1.953-2.14 2.8-2.848 3.531-2.954 8.023-4.68 13.18-5.032 1.102-0.0751 2.895-0.0752 3.997 5.6e-4zm-212.5 0.6822h6.826a1.351 1.351 0 0 1 1.292 0.9564l11.42 37.4a2.702 2.702 0 0 0 2.584 1.913h0.6543a2.702 2.702 0 0 0 2.584-1.913l11.42-37.4a1.351 1.351 0 0 1 1.292-0.9564h6.826a0.718 0.718 0 0 1 0.6803 0.9475l-16 47.41a1.393 1.393 0 0 1-1.32 0.9475h-11.62a1.393 1.393 0 0 1-1.32-0.9475l-16-47.41a0.718 0.718 0 0 1 0.6803-0.9475zm62.45 0h5.617a1 1 0 0 1 1 1v47.31a1 1 0 0 1-1 1h-5.617a1 1 0 0 1-1-1v-47.31a1 1 0 0 1 1-1zm24.44 0h14.46c1.105 0 2.896-7e-3 3.999 0.053 5.977 0.3226 10.78 2.107 14.39 5.064 0.8542 0.6996 2.121 1.973 2.816 2.831 2.956 3.65 4.761 8.537 5.08 14.68 0.0573 1.103 0.0573 2.895 1.5e-4 3.998-0.319 6.157-2.126 11.06-5.082 14.72-0.6939 0.8588-1.958 2.135-2.812 2.835-3.607 2.964-8.399 4.753-14.36 5.077-1.103 0.0599-2.894 0.0533-3.999 0.0533h-14.49a1 1 0 0 1-1-1v-47.31a1 1 0 0 1 1-1zm55.19 0h30.67a1 1 0 0 1 1 1v3.121a1 1 0 0 1-1 1h-22.05a2 2 0 0 0-2 2v12.95a2 2 0 0 0 2 2h20.09a1 1 0 0 1 1 1v3.15a1 1 0 0 1-1 1h-20.09a2 2 0 0 0-2 2v12.97a2 2 0 0 0 2 2h22.05a1 1 0 0 1 1 1v3.123a1 1 0 0 1-1 1h-30.67a1 1 0 0 1-1-1v-47.31a1 1 0 0 1 1-1zm66.46 5.348c-3.156 0.3784-6.007 1.661-8.205 3.754-0.7993 0.7608-1.901 2.185-2.461 3.137-1.666 2.832-2.573 6.346-2.792 10.42-0.0592 1.103-0.0592 2.895 1e-5 3.998 0.2187 4.072 1.126 7.585 2.792 10.42 0.5597 0.9514 1.662 2.376 2.461 3.137 2.198 2.093 5.05 3.377 8.206 3.755 1.096 0.1315 2.895 0.1315 3.991 5.1e-4 3.164-0.3781 6.021-1.662 8.22-3.757 0.799-0.7611 1.9-2.186 2.459-3.138 1.662-2.832 2.563-6.344 2.78-10.41 0.0588-1.103 0.0588-2.895 0-3.998-0.217-4.071-1.118-7.584-2.78-10.42-0.5586-0.952-1.66-2.377-2.459-3.138-2.199-2.094-5.056-3.376-8.22-3.754-1.096-0.1308-2.895-0.1308-3.991 6.3e-4zm-115 2.31v33.99a2 2 0 0 0 2 2h5.359c1.105 0 2.897 9e-3 3.998-0.0678 3.519-0.2465 6.696-1.183 9.216-3.113 0.876-0.6709 2.115-1.981 2.745-2.887 1.942-2.794 2.942-6.46 3.163-10.95 0.0543-1.103 0.0544-2.895-6.1e-4 -3.998-0.2234-4.477-1.23-8.137-3.19-10.92-0.6349-0.9026-1.882-2.205-2.762-2.871-2.552-1.933-5.772-2.867-9.358-3.109-1.102-0.0744-2.894-0.0653-3.999-0.0653h-5.172a2 2 0 0 0-2 2zm221.7 0.5372c6.266 0.8531 10.11 5.855 10.62 14.46 0.0649 1.102 0.0649 2.895 0 3.998-0.5068 8.606-4.355 13.61-10.62 14.46-1.094 0.1488-2.895 0.1489-3.988-7.9e-4 -6.247-0.8551-10.11-5.856-10.62-14.46-0.0652-1.102-0.0652-2.895 0-3.998 0.5091-8.604 4.372-13.61 10.62-14.46 1.094-0.1497 2.895-0.1497 3.988-7.9e-4zm-102.6 2.852c1.473 0.2382 2.674 0.7632 3.693 1.582 0.8592 0.6901 1.953 2.14 2.442 3.129 0.8608 1.74 1.457 4.033 1.645 6.899 0.0724 1.102 0.0724 2.895 0 3.997-0.1884 2.866-0.7842 5.158-1.645 6.898-0.4891 0.9883-1.582 2.439-2.442 3.129-1.02 0.8189-2.22 1.344-3.693 1.582-1.089 0.1761-2.896 0.1762-3.984-1e-3 -1.465-0.239-2.663-0.7643-3.682-1.583-0.859-0.6904-1.954-2.14-2.444-3.127-0.8644-1.74-1.464-4.031-1.654-6.897-0.073-1.102-0.073-2.895 0-3.997 0.1897-2.866 0.7896-5.157 1.654-6.897 0.4907-0.9876 1.585-2.437 2.444-3.127 1.019-0.8192 2.216-1.345 3.682-1.585 1.089-0.1779 2.895-0.1777 3.984-2e-3zm-112.4 0.2809h0.502c1.105 0 2.897-0.0131 3.998 0.0754 2.185 0.1757 3.877 0.658 5.198 1.443 0.9467 0.5625 2.204 1.886 2.742 2.847 0.8989 1.604 1.512 3.838 1.693 6.935 0.0646 1.103 0.0645 2.895 3.8e-4 3.998-0.1814 3.12-0.7965 5.373-1.693 6.989-0.5343 0.9634-1.782 2.295-2.726 2.863-1.287 0.7736-2.924 1.248-5.028 1.424-1.1 0.0923-2.893 0.0785-3.998 0.0785h-0.6894a1 1 0 0 1-1-1v-24.65a1 1 0 0 1 1-1zm12.42 54.48c-11.27 0.8333-19.92 8.772-20.68 22.55-0.0608 1.103-0.0607 2.895-7.9e-4 3.998 0.7462 13.74 9.223 21.73 20.68 22.56 1.101 0.0795 2.895 0.0796 3.997 4.3e-4 10.93-0.7853 17.38-7.984 18.99-15.39 0.2351-1.079-0.5798-1.979-1.684-1.986l-7.707-0.0463c-1.105-7e-3 -2.133 0.8848-2.535 1.912-1.13 2.887-3.534 4.752-6.836 5.276-1.09 0.1731-2.894 0.1728-3.984 8.2e-4 -5.212-0.8222-8.573-4.996-9.081-12.32-0.0764-1.102-0.0767-2.895 4e-3 -3.997 0.5164-7.077 3.833-11.46 9.148-12.31 1.089-0.1754 2.895-0.1764 3.983 4e-3 3.453 0.5711 5.876 2.66 6.877 5.758 0.3392 1.049 1.32 1.951 2.424 1.951h7.707c1.105 0 1.919-0.8936 1.717-1.979-1.788-9.606-9.123-15.31-19.02-15.98-1.102-0.0747-1.999-0.0668-1.999-0.0668zm-121.5 2.583v5.41a2 2 0 0 0 2 2h11.56a1 1 0 0 1 1 1v35.53a2 2 0 0 0 2 2h7.426a2 2 0 0 0 2-2v-35.53a1 1 0 0 1 1-1h9.125a1.393 1.393 0 0 1 1.32 0.9475l12.04 35.69a2.785 2.785 0 0 0 2.639 1.895h11.43a2.785 2.785 0 0 0 2.639-1.895l14.9-44.15a1.436 1.436 0 0 0-1.361-1.895h-8.969a2.702 2.702 0 0 0-2.584 1.913l-10.14 33.2h-0.3984l-10.14-33.2a2.702 2.702 0 0 0-2.584-1.913h-42.9a2 2 0 0 0-2 2zm321.2 3.371v5.613a1 1 0 0 1-1 1h-1.75a2 2 0 0 0-2 2v4.426a2 2 0 0 0 2 2h1.75a1 1 0 0 1 1 1v14.49c0 1.105-0.0283 2.9 0.1111 3.995 0.6854 5.385 4.492 8.314 10.62 8.569 1.103 0.0459 2.896-0.0444 3.99-0.1906 0.7194-0.0961 1.364-0.2156 1.93-0.34 1.078-0.2367 1.75-1.383 1.523-2.464l-0.9126-4.347c-0.2269-1.081-1.283-1.723-2.383-1.632-0.2943 0.0243-1.548 0.1721-2.45-0.4374-0.2002-0.1353-0.3716-0.3032-0.5125-0.5072-0.6185-0.8951-0.4735-2.808-0.4735-3.912v-13.22a1 1 0 0 1 1-1h3.484a2 2 0 0 0 2-2v-4.426a2 2 0 0 0-2-2h-3.484a1 1 0 0 1-1-1v-5.613a2 2 0 0 0-2-2h-7.447a2 2 0 0 0-2 2zm73.63 6.334c-2.989 0.6664-5.313 2.915-6.394 6.835h-0.373v-4.557a2 2 0 0 0-2-2h-7.119a2 2 0 0 0-2 2v31.96a2 2 0 0 0 2 2h7.445a2 2 0 0 0 2-2v-15.52c0-1.105-0.0308-2.912 0.2352-3.981 0.6284-2.526 2.467-4.32 4.925-4.942 1.068-0.2705 2.878-0.2413 3.976-0.119 0.1829 0.0204 0.3656 0.0432 0.5459 0.0682 1.092 0.1518 1.953-0.4777 1.953-1.582v-5.947c0-1.105-0.8688-2.24-1.966-2.353-0.6836-0.0703-2.151-0.0952-3.227 0.1447zm-232.3-0.1092c-9.452 0.7795-15.36 7.143-16.09 16.49-0.0861 1.101-0.0861 2.895 3.2e-4 3.996 0.7319 9.323 6.64 15.68 16.09 16.46 1.101 0.0907 2.895 0.0907 3.996-1e-5 9.451-0.7791 15.36-7.138 16.09-16.46 0.0864-1.101 0.0864-2.895 3.1e-4 -3.996-0.7305-9.343-6.639-15.71-16.09-16.49-1.101-0.0908-2.895-0.0908-3.996 0zm41.78 0.0747c-3.928 0.6312-6.878 3.15-8.166 6.915h-0.3984v-4.602a2 2 0 0 0-2-2h-6.885a2 2 0 0 0-2 2v31.96a2 2 0 0 0 2 2h7.445a2 2 0 0 0 2-2v-17.28c0-1.105-0.0377-2.914 0.2426-3.98 0.4447-1.69 1.476-2.908 2.884-3.48 1.017-0.4132 2.888-0.4169 3.911-0.0163 1.321 0.5176 2.278 1.589 2.715 3.081 0.31 1.056 0.2666 2.871 0.2666 3.975v17.7a2 2 0 0 0 2 2h7.002a2 2 0 0 0 2-2v-17.47c0-1.105-0.0406-2.915 0.2411-3.98 0.4294-1.623 1.419-2.79 2.854-3.328 1.029-0.3855 2.895-0.3844 3.92 0.0101 1.336 0.5141 2.324 1.598 2.759 3.201 0.2884 1.063 0.2453 2.874 0.2453 3.979v17.58a2 2 0 0 0 2 2h7.445a2 2 0 0 0 2-2v-20.21c0-1.105 0.0151-2.899-0.1137-3.996-0.6692-5.698-4.242-9.342-9.362-10.08-1.092-0.158-2.894-0.1564-3.987-4e-3 -4.352 0.6067-7.684 3.202-8.846 6.934h-0.373c-0.8275-3.714-3.813-6.28-7.817-6.916-1.09-0.1732-2.894-0.1738-3.984 1e-3zm57.76-9e-3c-4.439 0.6757-6.98 3.588-8.191 6.481h-0.3496v-4.158a2 2 0 0 0-2-2h-7.332a2 2 0 0 0-2 2v45.44a2 2 0 0 0 2 2h7.447a2 2 0 0 0 2-2v-17.31h0.2344c1.264 2.895 3.878 5.56 8.12 6.199 1.091 0.1644 2.893 0.1609 3.987 0.01 6.581-0.9085 11.72-6.399 12.32-16.34 0.0669-1.102 0.0669-2.895 7.6e-4 -3.998-0.614-10.23-5.967-15.44-12.25-16.33-1.093-0.1553-2.895-0.1594-3.986 7e-3zm93.32-0.0591c-9.08 0.8056-15.03 7.147-15.76 16.5-0.0866 1.101-0.0863 2.895-5e-3 3.996 0.7104 9.661 6.645 15.71 16.12 16.44 1.101 0.0855 2.895 0.0848 3.996 5e-3 7.462-0.5417 12.6-4.147 14.45-9.627 0.3529-1.046-0.3941-1.96-1.498-1.992l-6.511-0.1888c-1.104-0.032-2.29 0.8304-3.03 1.641-0.8005 0.8773-1.903 1.473-3.21 1.766-1.076 0.2405-2.872 0.0457-3.908-0.3353-3.207-1.18-4.776-3.355-5.122-6.09-0.0693-0.5476 0.3754-0.9969 0.9277-0.9969h20.97a2 2 0 0 0 2-2c0-0.4725 9e-3 -1.752-0.0713-2.854-0.717-9.829-6.777-15.51-15.35-16.27-1.1-0.0968-2.895-0.0968-3.995 7.7e-4zm-74.72 2.382v18.92c0 1.105-0.0106 2.899 0.1094 3.996 0.6874 6.288 4.562 10.57 10.26 11.37 1.093 0.1542 2.894 0.154 3.988 4e-3 4.374-0.5999 7.596-3.193 8.984-7.031h0.375v4.695a2 2 0 0 0 2 2h6.908a2 2 0 0 0 2-2v-31.96a2 2 0 0 0-2-2h-7.424a2 2 0 0 0-2 2v16.44c0 1.105 0.0346 2.911-0.2239 3.983-0.5343 2.215-1.981 3.674-3.867 4.258-1.051 0.3257-2.895 0.3338-3.942-2e-3 -1.795-0.5751-3.02-1.983-3.496-4.023-0.2503-1.073-0.221-2.879-0.221-3.984v-16.67a2 2 0 0 0-2-2h-7.447a2 2 0 0 0-2 2zm-204.5 6.584v6.803a1 1 0 0 0 1 1h20.19a1 1 0 0 0 1-1v-6.803a1 1 0 0 0-1-1h-20.19a1 1 0 0 0-1 1zm283.4-0.5289c2.076 0.5734 3.625 2.057 4.252 4.067 0.3275 1.051-0.5907 1.97-1.695 1.97h-9.297c-1.105 0-1.996-0.9196-1.632-1.958 0.6943-1.985 2.308-3.494 4.419-4.076 1.062-0.2928 2.892-0.295 3.954-2e-3zm-193 0.3004c2.473 0.9481 4.005 3.762 4.386 7.673 0.1071 1.099 0.1072 2.895-7.9e-4 3.994-0.3823 3.89-1.914 6.685-4.385 7.628-1.026 0.3914-2.886 0.3912-3.921 0.0204-2.573-0.9218-4.134-3.73-4.521-7.648-0.1084-1.099-0.1082-2.895-8e-4 -3.994 0.3852-3.94 1.947-6.766 4.522-7.693 1.034-0.3725 2.895-0.3727 3.92 0.0205zm95.45 0.4246c2.556 0.8547 4.112 3.455 4.509 7.202 0.1163 1.098 0.1161 2.895 9.7e-4 3.993-0.3954 3.772-1.953 6.404-4.511 7.269-1.042 0.3522-2.892 0.3512-3.934-3e-3 -2.548-0.8656-4.148-3.488-4.555-7.266-0.1183-1.098-0.1184-2.895-1e-3 -3.993 0.4053-3.792 2.005-6.36 4.555-7.204 1.044-0.3458 2.893-0.3466 3.936 2e-3z" fill="#fff"/></svg>
