<svg width="480" height="320" version="1.1" viewBox="0 0 480 320" xmlns="http://www.w3.org/2000/svg"><defs><linearGradient id="a" x1="116.4" x2="90.28" y1="84.4" y2="-13.15" gradientTransform="scale(3.78)" gradientUnits="userSpaceOnUse"><stop stop-color="#ad5f00" offset="0"/><stop stop-color="#f9c440" offset="1"/></linearGradient></defs><rect width="480" height="320" ry="24" fill="url(#a)"/><path d="m208 106c-0.0391 3e-3 -0.0789 0.0136-0.1195 0.0298l-103.3 41.74a0.342 0.3007 0 0 1-0.478-0.3364l3.286-13.63a0.342 0.3007 0 0 0-0.3368-0.3635h-15.69a0.342 0.3007 0 0 0-0.3341 0.2387l-8.77 36.38a0.342 0.3007 0 0 1-0.3341 0.236h-22.51a0.342 0.3007 0 0 1-0.3341-0.3635l8.708-36.13a0.342 0.3007 0 0 0-0.3341-0.3635h-15.69a0.342 0.3007 0 0 0-0.3368 0.236l-11.46 47.54a0.342 0.3007 0 0 0 0.3341 0.3635h55.28a0.342 0.3007 0 0 0 0.3341-0.236l5.131-21.28a0.3395 0.2985 0 0 1 0.1901-0.2116l36.94-14.92c0.3249-0.131 0.633 0.2093 0.4156 0.4584l-59.47 68.12c-0.2211 0.2523 0.09124 0.597 0.421 0.4638l103.5-41.79a0.342 0.3007 0 0 1 0.478 0.3364l-2.097 8.699a0.342 0.3007 0 0 0 0.3341 0.3635h54.49a0.342 0.3007 0 0 0 0.3368-0.2387l2.572-10.67a0.342 0.3007 0 0 0-0.3341-0.3635h-38.13a0.342 0.3007 0 0 1-0.3341-0.3635l1.592-6.611a0.342 0.3007 0 0 1 0.3341-0.2387h25.09a0.342 0.3007 0 0 0 0.3368-0.2387l2.545-10.57a0.342 0.3007 0 0 0-0.3341-0.3635h-24.8a0.342 0.3007 0 0 1-0.3341-0.3635l1.592-6.611a0.342 0.3007 0 0 1 0.3341-0.2387h38.42a0.342 0.3007 0 0 0 0.3341-0.2387l2.572-10.67a0.342 0.3007 0 0 0-0.3341-0.3635h-54.49a0.342 0.3007 0 0 0-0.3368 0.2387l-6.312 26.2a0.3395 0.2985 0 0 1-0.1928 0.2116l-37.1 14.99c-0.3248 0.131-0.633-0.2066-0.4156-0.4557l59.49-68.13c0.1902-0.218-0.0223-0.505-0.296-0.4855zm49.36 27.44a0.3518 0.3092 0 0 0-0.3449 0.2442l-11.45 47.52a0.3518 0.3092 0 0 0 0.3422 0.3743h47.17c0.0733 0 0.144-0.0223 0.2037-0.0597l8.963-5.615a0.3505 0.3082 0 0 0 0.1414-0.1872l3.156-13.09a0.3518 0.3092 0 0 0-0.1005-0.2875l-6.461-5.504a0.3542 0.3114 0 0 1 0.0408-0.4747l9.349-5.859a0.3505 0.3082 0 0 0 0.1387-0.1872l2.702-11.21a0.3505 0.3082 0 0 0-0.1005-0.2848l-6.212-5.292a0.3542 0.3114 0 0 0-0.2472-0.0868zm64.04 0a0.3469 0.3049 0 0 0-0.3368 0.2414l-11.46 47.53a0.3457 0.3039 0 0 0 0.3394 0.3689h54.91a0.3469 0.3049 0 0 0 0.3368-0.2414l11.46-47.53a0.3457 0.3039 0 0 0-0.3394-0.3662zm62.89 0c-0.1671 2.7e-4 -0.3111 0.1036-0.3477 0.2468l-1.483 6.16c-0.0189 0.0782-4e-3 0.16 0.0435 0.2278 4.048 5.717 8.843 11.8 12.14 17.61l-20.57 17.2c-0.0514 0.0431-0.0884 0.099-0.1032 0.16l-1.483 6.158c-0.0457 0.1934 0.1232 0.3744 0.3477 0.3743h15.84c0.0911-3.2e-4 0.1788-0.032 0.2445-0.0868l14.12-11.81c0.1618-0.1352 0.425-0.1066 0.5432 0.0597l8.338 11.69c0.0646 0.0902 0.1773 0.1464 0.2986 0.1465h15.93c0.1667-2.1e-4 0.311-0.1036 0.3477-0.2469l1.507-6.255c0.0189-0.0786-2e-3 -0.1598-0.0488-0.2279-4.055-5.684-8.86-11.74-12.16-17.51l20.59-17.3c0.054-0.0431 0.0847-0.099 0.1005-0.16l1.461-6.062c0.0454-0.1929-0.1209-0.3737-0.3451-0.3743h-15.84c-0.0911 2.7e-4 -0.1788 0.0317-0.2445 0.0868l-14.12 11.81c-0.1618 0.1352-0.425 0.1066-0.5432-0.0597l-8.338-11.69c-0.0646-0.0902-0.1773-0.1465-0.2986-0.1465zm-114.1 11.27h22.87c0.2238 0 0.3914 0.1821 0.3451 0.3743l-1.583 6.592a0.353 0.3103 0 0 1-0.3451 0.2468h-22.88a0.353 0.3103 0 0 1-0.3449-0.3743l1.597-6.594a0.3518 0.3092 0 0 1 0.3422-0.2441zm64.72 0h22.47c0.2173 0 0.3793 0.1777 0.3341 0.3635l-6.024 24.99a0.342 0.3007 0 0 1-0.3341 0.236h-22.47a0.3408 0.2996 0 0 1-0.3341-0.3608l6.024-24.99a0.342 0.3007 0 0 1 0.3341-0.2387zm-69.15 18.38h22.87c0.2238 0 0.3914 0.1821 0.3451 0.3743l-1.583 6.592a0.353 0.3103 0 0 1-0.3451 0.2469h-22.88a0.3518 0.3092 0 0 1-0.345-0.3743l1.597-6.594a0.3518 0.3092 0 0 1 0.3422-0.2441z" fill="#fff"/></svg>
