<svg width="480" height="320" version="1.1" viewBox="0 0 127 84.667" xmlns="http://www.w3.org/2000/svg" xmlns:xlink="http://www.w3.org/1999/xlink">
 <defs>
  <linearGradient id="a" x1="116.42" x2="90.277" y1="84.403" y2="-13.151" gradientUnits="userSpaceOnUse">
   <stop stop-color="#ad5f00" offset="0"/>
   <stop stop-color="#f9c440" offset="1"/>
  </linearGradient>
 </defs>
 <g>
  <rect width="127" height="84.667" ry="4.2333" fill="url(#a)" stroke-linecap="square" stroke-linejoin="round" stroke-width=".52917" style="paint-order:stroke fill markers"/>
  <path d="m55.045 28.028c-0.01034 7.36e-4 -0.02088 0.0036-0.03162 0.0079l-27.336 11.057a0.090485 0.07965 0 0 1-0.12648-0.08911l0.86953-3.6111a0.090485 0.07965 0 0 0-0.08911-0.0963h-4.15a0.090485 0.07965 0 0 0-0.08839 0.06324l-2.3204 9.6389a0.090485 0.07965 0 0 1-0.08839 0.06252h-5.9552a0.090485 0.07965 0 0 1-0.08839-0.0963l2.3039-9.572a0.090485 0.07965 0 0 0-0.08839-0.0963h-4.15a0.090485 0.07965 0 0 0-0.08911 0.06252l-3.0311 12.594a0.090485 0.07965 0 0 0 0.08839 0.0963h14.626a0.090485 0.07965 0 0 0 0.08839-0.06252l1.3575-5.6369a0.089839 0.079081 0 0 1 0.0503-0.05605l9.7733-3.9531c0.08596-0.0347 0.16748 0.05545 0.10995 0.12145l-15.736 18.046c-0.05849 0.06685 0.02414 0.15816 0.11139 0.12288l27.374-11.071a0.090485 0.07965 0 0 1 0.12648 0.08911l-0.55478 2.3046a0.090485 0.07965 0 0 0 0.08839 0.0963h14.416a0.090485 0.07965 0 0 0 0.08911-0.06324l0.68054-2.8271a0.090485 0.07965 0 0 0-0.08839-0.0963h-10.089a0.090485 0.07965 0 0 1-0.08839-0.0963l0.42111-1.7513a0.090485 0.07965 0 0 1 0.08839-0.06324h6.6394a0.090485 0.07965 0 0 0 0.08911-0.06324l0.67335-2.799a0.090485 0.07965 0 0 0-0.08839-0.0963h-6.5625a0.090485 0.07965 0 0 1-0.08839-0.09629l0.42111-1.7513a0.090485 0.07965 0 0 1 0.08839-0.06324h10.166a0.090485 0.07965 0 0 0 0.08839-0.06324l0.68053-2.8271a0.090485 0.07965 0 0 0-0.08839-0.0963h-14.416a0.090485 0.07965 0 0 0-0.08911 0.06324l-1.6701 6.9405a0.089839 0.079081 0 0 1-0.05102 0.05605l-9.8157 3.9704c-0.08595 0.03471-0.16748-0.05473-0.10995-0.12073l15.739-18.05c0.05033-0.05775-0.0059-0.13378-0.07833-0.12863zm13.061 7.2689a0.093071 0.081925 0 0 0-0.09126 0.06468l-3.0304 12.59a0.093071 0.081925 0 0 0 0.09055 0.09917h12.48c0.0194 0 0.0381-0.0059 0.0539-0.01581l2.3714-1.4875a0.092747 0.081641 0 0 0 0.0374-0.04959l0.83503-3.4688a0.093071 0.081925 0 0 0-0.0266-0.07617l-1.7096-1.4581a0.093717 0.082494 0 0 1 0.0108-0.12576l2.4735-1.5522a0.092747 0.081641 0 0 0 0.0367-0.04959l0.71503-2.9693a0.092747 0.081641 0 0 0-0.0266-0.07546l-1.6435-1.402a0.093717 0.082494 0 0 0-0.0654-0.023zm16.944 0a0.091778 0.080788 0 0 0-0.0891 0.06396l-3.0319 12.592a0.091455 0.080503 0 0 0 0.0898 0.09774h14.529a0.091778 0.080788 0 0 0 0.0891-0.06396l3.0319-12.592a0.091455 0.080503 0 0 0-0.0898-0.09701zm16.639 0c-0.0442 7e-5 -0.0823 0.02744-0.092 0.06539l-0.39237 1.632c-5e-3 0.02071-1e-3 0.04238 0.0115 0.06036 1.071 1.5145 2.3398 3.1265 3.2115 4.6653l-5.4414 4.5575c-0.0136 0.01142-0.0234 0.02621-0.0273 0.0424l-0.39237 1.6313c-0.0121 0.05122 0.0326 0.09918 0.092 0.09917h4.1903c0.0241-8.5e-5 0.0473-0.0085 0.0647-0.023l3.7354-3.1289c0.0428-0.03581 0.11244-0.02823 0.14373 0.01581l2.2062 3.0973c0.0171 0.02389 0.0469 0.0388 0.079 0.03881h4.2154c0.0441-5.5e-5 0.0823-0.02744 0.092-0.0654l0.39884-1.6571c5e-3 -0.02083-4.2e-4 -0.04233-0.0129-0.06037-1.0728-1.5059-2.3442-3.1097-3.2173-4.6401l5.4479-4.5827c0.0143-0.01142 0.0224-0.02621 0.0266-0.0424l0.38662-1.6061c0.012-0.05111-0.032-0.099-0.0913-0.09917h-4.1903c-0.0241 7e-5 -0.0473 0.0084-0.0647 0.023l-3.7354 3.1289c-0.0428 0.03581-0.11244 0.02823-0.14373-0.01581l-2.2062-3.0973c-0.0171-0.0239-0.0469-0.0388-0.079-0.03881zm-30.19 2.9866h6.0515c0.0592 0 0.10355 0.04824 0.0913 0.09917l-0.41896 1.7463a0.093394 0.08221 0 0 1-0.0913 0.06539h-6.0544a0.093394 0.08221 0 0 1-0.09126-0.09917l0.42255-1.747a0.093071 0.081925 0 0 1 0.09055-0.06468zm17.124 0h5.9459c0.0575 0 0.10035 0.04708 0.0884 0.09629l-1.5939 6.6207a0.090485 0.07965 0 0 1-0.0884 0.06252h-5.9459a0.090162 0.079365 0 0 1-0.0884-0.09558l1.5939-6.6207a0.090485 0.07965 0 0 1 0.0884-0.06324zm-18.296 4.8687h6.0515c0.0592 0 0.10355 0.04824 0.0913 0.09917l-0.41896 1.7463a0.093394 0.08221 0 0 1-0.0913 0.0654h-6.0544a0.093071 0.081925 0 0 1-0.09127-0.09917l0.42255-1.747a0.093071 0.081925 0 0 1 0.09054-0.06467z" fill="#fafafa"/>
 </g>
 <style type="text/css">.st0{fill:#FC0C18;}
	.st1{fill:#FC0C18;}</style>
</svg>
