<svg width="480" height="320" version="1.1" viewBox="0 0 127 84.667" xmlns="http://www.w3.org/2000/svg" xmlns:xlink="http://www.w3.org/1999/xlink">
 <defs>
  <linearGradient id="a" x1="43.487" x2="43.487" y1="84.667" y2="-1.175e-16" gradientUnits="userSpaceOnUse">
   <stop offset="0"/>
   <stop stop-color="#273445" offset=".5"/>
   <stop stop-color="#3689e6" offset="1"/>
  </linearGradient>
 </defs>
 <g>
  <rect width="127" height="84.667" ry="4.2333" fill="url(#a)" stroke-linecap="square" stroke-linejoin="round" stroke-width=".52917" style="paint-order:stroke fill markers"/>
  <g transform="matrix(.17639 0 0 .17567 10.583 24.871)" fill="#fff">
   <path d="m254.61 81.768c-15.747 15.753-15.747 41.283 0 57.039 15.753 15.744 41.283 15.744 57.036 0 13.62-13.623 15.456-34.56 5.523-50.157l-21.696 21.696c-0.018 3.144-1.218 6.279-3.612 8.673-4.824 4.815-12.642 4.815-17.466 0-4.815-4.824-4.815-12.639 0-17.463 4.824-4.818 12.642-4.818 17.466 0l0.369 0.393 19.797-19.794-0.378-0.387c-15.756-15.744-41.286-15.744-57.039 0z"/>
   <path d="m97.473 150.45 97.473-110.96h-40.674l-62.304 63.432c-1.902 1.935-4.989 1.935-6.891 0-1.899-1.932-1.899-5.079 0-7.02l55.416-56.412h-140.49z"/>
   <path d="m532.48 110.11-33.756 39.687h27.582l26.28-26.754c1.524-1.551 3.993-1.551 5.517 0 1.521 1.545 1.521 4.056 0 5.613l-20.766 21.147h62.658l-33.753-39.69 33.753-39.687h-27.582l-26.28 26.757c-1.524 1.557-3.99 1.557-5.514 0-1.524-1.548-1.524-4.056 0-5.613l20.766-21.144h-62.661z"/>
   <path d="m377.13 70.419v79.377h25.332v-51.591h19.209l23.628-27.786h-27.579l-26.289 26.757c-1.515 1.557-3.984 1.557-5.505 0-1.524-1.545-1.524-4.056 0-5.613l20.763-21.144z"/>
   <path d="m358.24 70.758h15.309l25.287-26.133h-40.593v-44.625l-61.752 70.758h27.006l18.492-17.178c1.524-1.548 3.993-1.548 5.505 0 1.524 1.557 1.524 4.065 0 5.616l-14.583 14.856v75.744h25.335v-79.038z"/>
   <path d="m168.19 81.768c-15.744 15.753-15.744 41.283 0 57.039 15.753 15.744 41.283 15.744 57.036 0 13.623-13.623 15.459-34.56 5.523-50.157l-21.696 21.696c-0.015 3.144-1.218 6.279-3.612 8.673-3.96 3.951-9.927 4.656-14.601 2.133l36.774-36.774c-0.633-0.756-4.683-4.773-5.901-5.736-15.828-12.543-38.898-11.499-53.523 3.126zm17.118 33.276c-1.866-4.476-0.978-9.843 2.667-13.488 3.648-3.645 9.015-4.536 13.491-2.667z"/>
   <path d="m443.08 81.768c-15.744 15.753-15.744 41.283 0 57.039 15.756 15.744 41.286 15.744 57.039 0 13.623-13.623 15.459-34.56 5.526-50.157l-21.696 21.696c-0.018 3.144-1.215 6.279-3.612 8.673-3.957 3.951-9.927 4.656-14.601 2.133l36.774-36.774c-0.636-0.756-4.686-4.773-5.901-5.736-15.831-12.543-38.901-11.499-53.529 3.126zm17.121 33.276c-1.869-4.476-0.981-9.843 2.667-13.488 3.645-3.645 9.015-4.536 13.488-2.667z"/>
  </g>
 </g>
 <style type="text/css">.st0{fill:#FC0C18;}
	.st1{fill:#FC0C18;}</style>
</svg>
