<svg width="480" height="320" version="1.1" viewBox="0 0 480 320" xml:space="preserve" xmlns="http://www.w3.org/2000/svg"><defs><linearGradient id="a" x1="43.49" x2="43.49" y1="84.67" y2="-1.175e-16" gradientTransform="scale(3.78)" gradientUnits="userSpaceOnUse"><stop offset="0"/><stop stop-color="#273445" offset=".5"/><stop stop-color="#3689e6" offset="1"/></linearGradient></defs><rect width="480" height="320" ry="24" fill="url(#a)"/><path d="m278.7 107.9-42.31 48.45c-2.511-0.7398-5.178-1.146-7.939-1.146-15.43 0-27.94 12.5-27.94 27.94 0 15.43 12.5 27.93 27.94 27.93s27.93-12.5 27.93-27.93c0-5.762-1.75-11.13-4.74-15.58l-16.93 19.33-0.9902 1.137h-0.00977c-1.313 1.417-3.188 2.303-5.262 2.303-3.97 0-7.189-3.22-7.189-7.189 0-3.97 3.22-7.189 7.189-7.189 2.73 0 5.106 1.522 6.314 3.762l13.89-15.86c-2.844-2.98-6.336-5.324-10.25-6.824h16.22l11.49-13.13c0.8544-0.9794 2.333-1.073 3.312-0.2188s1.073 2.335 0.2188 3.314l-8.783 10.03-0.9473 1.084v52.5h18.7v-53.59h10.37v53.59h18.7v-34.88h11.54l16.5-18.7h-20.89l-15.42 17.62c-0.8544 0.9794-2.335 1.073-3.314 0.2188-0.9794-0.8544-1.073-2.333-0.2188-3.312l12.72-14.54h-0.918-11.58-7.117l16.5-18.69h-26.79v-30.42zm-238.7 30.42 64.61 73.81 64.62-73.81h-31.02l-36.15 41.29c-1.24 1.417-3.388 1.552-4.805 0.3223-1.417-1.24-1.552-3.386-0.3223-4.803l32.24-36.81h-89.17zm130.4 16.89c-15.43 0-27.93 12.5-27.93 27.93 0 15.43 12.5 27.93 27.93 27.93 15.43 0 27.94-12.5 27.94-27.93 0-5.762-1.752-11.13-4.742-15.58l-16.93 19.32-0.9902 1.137h-0.01172c-1.313 1.417-3.188 2.303-5.262 2.303-0.9065 0-1.76-0.1666-2.562-0.4688l8.877-10.14 13.89-15.86c-5.085-5.324-12.25-8.648-20.2-8.648zm182.4 0c-15.43 0-27.93 12.5-27.93 27.93 0 15.43 12.5 27.93 27.93 27.93 15.43-0.0208 27.93-12.52 27.93-27.94 0-5.762-1.75-11.13-4.74-15.58l-16.93 19.33-0.9902 1.137h-0.00976c-1.313 1.417-3.188 2.303-5.262 2.303-0.9065 0-1.76-0.1666-2.562-0.4688l8.877-10.14 13.89-15.86c-5.085-5.324-12.25-8.648-20.2-8.648zm18.19 1.803 23.59 26.94-23.33 26.65h21.86l15.17-17.33c0.8544-0.9794 2.335-1.073 3.314-0.2188s1.073 2.333 0.2188 3.312l-12.47 14.24h40.43l-23.34-26.66 23.59-26.93h-21.86l-15.43 17.62c-0.8544 0.9794-2.333 1.073-3.312 0.2188-0.9794-0.8544-1.073-2.333-0.2188-3.312l12.72-14.54h-40.93zm-200.6 18.93c1.011 0 1.98 0.2082 2.855 0.5938l-9.012 10.29c-0.6564-1.084-1.033-2.345-1.033-3.699 0-3.97 3.22-7.189 7.189-7.189zm182.4 0c1.011 0 1.98 0.2082 2.855 0.5938l-9.012 10.29c-0.6564-1.084-1.033-2.345-1.033-3.699 0-3.97 3.22-7.189 7.189-7.189z" fill="#fff"/></svg>
