<svg width="480" height="320" version="1.1" viewBox="0 0 127 84.667" xmlns="http://www.w3.org/2000/svg" xmlns:xlink="http://www.w3.org/1999/xlink">
 <defs>
  <linearGradient id="a" x1="44.05" x2="61.232" y1="13.229" y2="101.72" gradientUnits="userSpaceOnUse">
   <stop stop-color="#68b723" offset="0"/>
   <stop stop-color="#007367" offset="1"/>
  </linearGradient>
 </defs>
 <rect width="127" height="84.667" ry="4.2333" fill="url(#a)" stroke-linecap="square" stroke-linejoin="round" stroke-width=".52917" style="paint-order:stroke fill markers"/>
 <path d="m56.63 30.467c-6.3289 0-11.89 5.2895-11.89 11.89 0 6.781 5.6052 11.844 11.934 11.844 1.1302 0 1.8088-0.13574 3.2102-0.49729v-6.1478c-1.4014 0.72328-2.1244 0.904-3.2546 0.904-3.5261 0-6.1939-2.9382-6.1939-6.193 0-3.3905 2.6225-6.2836 6.1486-6.2836 1.1754 0 2.2149 0.3164 3.2999 0.94929v-6.0128c-1.2206-0.31636-2.034-0.452-3.2546-0.452zm27.96 0.04529c-5.2896 0-8.7279 2.9391-8.7168 7.7187h5.8556c-0.01117-1.9074 1.1534-2.9722 2.8612-2.9722 1.6967 0 2.9047 1.0536 2.9047 2.7946 0 1.608-1.0313 2.6499-2.7058 4.036l-8.4717 7.0091v4.4357h17.433v-4.9241h-8.8722v-0.1332l2.1295-1.7743c5.1787-4.3138 6.4985-6.5539 6.4985-9.1821 0-4.2361-3.4708-7.0083-8.9157-7.0083zm21.802 0c-6.1879 0-10.003 4.2139-10.025 11.71-0.0222 7.4853 3.837 11.921 10.025 11.932 6.1768 0.01117 10.014-4.4137 10.025-11.932 0.0112-7.4742-3.8481-11.71-10.025-11.71zm-95.808 0.90933 7.2036 21.824h8.0987l7.2036-21.824h-6.6921l-4.4756 15.388h-0.1705l-4.4756-15.388zm24.595 0v21.824h5.9249v-21.824zm71.214 4.0591c2.1292 0 3.6262 2.0732 3.6373 6.7418 0.0112 4.7795-1.5082 6.9203-3.6373 6.9203s-3.6595-2.1408-3.6373-6.9203c0.0222-4.6686 1.5082-6.7418 3.6373-6.7418zm-46.191 1.7672v4.6568h5.6061l4.6106-4.6568zm0 5.6514v4.6559h10.217l-4.52-4.6559z" fill="#fff" stroke-width=".45207"/>
 <style type="text/css">.st0{fill:#FC0C18;}
	.st1{fill:#FC0C18;}</style>
</svg>
