<svg width="480" height="320" version="1.1" viewBox="0 0 480 320" xml:space="preserve" xmlns="http://www.w3.org/2000/svg"><defs><linearGradient id="a" x1="44.05" x2="61.23" y1="13.23" y2="101.7" gradientTransform="scale(3.78)" gradientUnits="userSpaceOnUse"><stop stop-color="#68b723" offset="0"/><stop stop-color="#007367" offset="1"/></linearGradient></defs><rect width="480" height="320" ry="24" fill="url(#a)"/><path d="m67.69 98.62c-15.29 0-27.69 12.4-27.69 27.7 0 15.3 12.4 27.7 27.7 27.7 2.479 0 4.874-0.3314 7.166-0.9356v-13.95h-0.01172c-2.125 1.187-4.562 1.875-7.166 1.875-8.093 0-14.69-6.584-14.69-14.69 0-8.104 6.582-14.69 14.69-14.69 2.604 0 5.041 0.6772 7.166 1.875v-13.95c-2.281-0.6146-4.687-0.9375-7.166-0.9375zm270.1 7.428v12.44c-1.771-2.427-3.386-3.707-9.844-3.707-10.33 0-12.27 2.749-12.27 11.14 0 8.562 2.75 10.98 12.76 10.98 6.302 0 8.24-1.614 9.688-4.354v3.875h7.75v-30.37h-8.084zm-262.9 8.176v11.08h7.959 3.656 1.447l11.08-11.08h-12.53-3.656-7.959zm118.7 0.375c-5.812 0-7.428 1.938-8.396 5.49l-0.00977-5h-7.26v21.31h7.748v-10.98c0-3.229 1.616-4.354 5.98-4.354 4.041 0 5.166 1.449 5.166 5.49v9.842h7.916v-11.3c0-3.073 2.416-4.031 6.135-4.031 3.552 0 5.166 0.9689 5.166 4.031v11.3h7.75v-12.59c0-6.291-3.875-9.209-10.98-9.209-6.135 0-8.395 2.261-9.207 4.688-1.614-2.75-3.875-4.688-10.01-4.688zm51.98 0c-5.646 0-7.106 1.938-8.23 5.49v-5h-7.27v21.31h7.75v-10.98c0-3.229 1.938-4.354 5.812-4.354 4.041 0 5.166 1.293 5.166 5.49v9.842h7.916v-11.3c0-3.073 2.26-4.031 5.979-4.031 3.552 0 5.322 1.125 5.322 4.031v11.3h7.75v-12.59c0-6.291-3.875-9.209-10.98-9.209-6.135 0-8.238 2.094-9.207 4.688-1.614-2.75-3.875-4.688-10.01-4.688zm155 0c-4.687 0-6.302 0.9696-8.072 4.521l-0.01172-4.031h-7.426v21.31h7.75v-11.13c0-2.906 1.781-4.363 5.01-4.363 3.229 0 4.041 0.9676 4.197 3.707h7.27c0-7.26-0.9672-10.01-8.717-10.01zm-242.5 0.334c-13.41 0-15.02 2.093-15.02 11.14 0 9.208 2.262 11.15 15.02 11.15 13.56-0.0104 14.85-2.272 14.85-11.8 0-8.718-2.425-10.49-14.85-10.49zm137.7 0c-13.41 0-15.01 2.26-15.01 11.3 0 9.041 2.26 10.98 15.01 10.98 13.56 0 15.02-2.26 15.02-11.79 0-8.718-2.583-10.49-15.02-10.49zm69.76 0c-13.24 0-14.85 2.093-14.85 11.14 0 9.208 2.26 11.15 14.85 11.15 13.56-0.0104 14.85-2.272 14.85-11.8 0-8.718-2.427-10.49-14.85-10.49zm-240.6 0.1562c-12.27 0-15.02 1.937-15.02 10.98 0 9.041 2.583 11.14 14.05 11.14 12.11 0 14.53-1.614 14.53-9.207h-7.75c0 2.104-0.8024 3.072-6.781 3.072-5.166 0-6.301-1.291-6.301-5.488 0-4.041 1.124-4.043 7.27-4.043 4.521 0 5.323 0.4904 5.812 2.584h7.75c-0.6458-7.27-2.751-9.041-13.56-9.041zm301 0c-11.62 0-14.22 2.093-14.22 11.3 0 8.562 3.396 10.66 12.76 10.82 10.5 0 15.5-0.4886 15.5-7.426h-7.594c-0.3125 1.614-0.9585 2.416-4.188 2.416-7.427 0-8.551-0.6447-8.551-4.363h20.34c-0.3229-10.33-0.3224-12.75-14.05-12.75zm-0.3223 5.166c5.656 0 6.458 0.3224 6.781 3.072h-12.92c0.3229-2.26 0.9684-3.072 6.135-3.072zm-93.5 0.6465c4.354 0 5.812 0.646 5.812 4.031 0 5.166-0.3219 5.654-6.457 5.654-6.135 0-7.75-0.1656-7.75-4.52 0-5 1.937-5.166 8.395-5.166zm-174.6 0.166c6.302 0 7.426 0.1565 7.426 4.844 0 4.364-0.8109 5.166-6.779 5.166-6.302 0-7.105-0.6454-7.105-5.166 0-4.364 0.9697-4.844 6.459-4.844zm137.7 0c6.302 0 7.428 0.1565 7.428 4.844 0 4.364-0.8128 5.166-6.781 5.166-6.468 0-7.271-0.6454-7.271-5.166 0-4.364 0.969-4.844 6.625-4.844zm69.75 0c6.302 0 7.428 0.1565 7.428 4.844 0 4.364-0.8024 5.166-6.781 5.166-6.448 0-7.26-0.6454-7.26-5.166 0-4.364 0.9678-4.844 6.613-4.844zm-290.2 6.26v11.08h11.62v-0.01172h12.53l-11.08-11.07h-1.447-11.62zm203.8 34.98c-1.322-0.00227-2.641 0.00977-3.951 0.00977-6.416 0-19.45-0.2492-25.52 2.24-1.448 0.6041-2.759 1.456-3.863 2.748-3.239 3.781-3.314 9.458-3.449 14.7-0.1354 3.354-0.1348 6.791-0.1348 10.23 0 5.677-0.2083 11.7 0.6875 17.28 0.9687 6.104 4 9.115 8.76 10.41 5.927 1.542 12.2 1.457 18.27 1.457v-0.01953h5.947c5.448 0 17.66 0.3435 21.93-4.469 3.167-3.531 3.24-9.374 3.24-14.27 0-1.375-0.06187-2.834-0.1348-4.209h-14c0 1.635-0.07358 3.864-0.5527 5.416-1.167 3.698-6.134 3.178-8.686 3.178h-7.104c-3.031 0-6.272 0.09307-9.24-0.4277-1.104-0.1667-2.073-0.6042-2.969-1.375-2.344-2.146-2.072-9.969-2.072-13.06 0-3.354-0.2076-11.34 2.209-13.67 1.729-1.635 4.687-1.634 6.76-1.717 2-0.0833 3.926-0.08398 5.926-0.08398 3.719 0 7.646-6.2e-4 11.38 0.6035 0.8229 0.08333 1.926 0.3438 2.551 1.031 0.9583 1.031 0.9584 3.864 1.031 5.416h14c0-0.6041 0.07226-1.29 0.07226-1.895 0-5.156 0.00176-11.95-3.654-15.47-1.656-1.635-3.511-2.499-5.584-3.01-3.875-0.9062-7.873-1.034-11.84-1.041zm-238.6 0.00977v6.082h90.58v-6.082h-90.58zm303.5 0.166c-2.969 0-5.926 6.6e-4 -8.895 0.1777-4.208 0.25-11.24 0.426-14.42 4.551-2.823 3.698-2.896 10.23-2.896 14.96v2.322h13.58v-1.896c0-3.437-0.3546-6.269 2.822-6.873 4.208-0.8645 8.759-0.6055 12.97-0.6055 2 0 9.449-0.4264 11.18 1.209 1.177 1.031 1.176 2.833 1.176 4.469 0 2.406 0.00184 3.864-1.998 4.729-2.135 0.9479-4.554 0.9486-6.762 1.209l-17.37 1.719c-6.614 0.6979-13.24 1.894-14.48 11.44-0.625 4.562-0.5527 9.198-0.5527 13.84 0 2.236 0.1363 4.545 0.1367 6.781h54.87v-13.16h-42c0-2.489 7.6e-4 -4.385 2.209-5.416 1.104-0.5208 4.061-0.7819 5.238-0.8652 2.625-0.2604 5.24-0.5104 7.865-0.6875 3.312-0.25 6.551-0.5091 9.863-0.7695 4.281-0.3437 11.52-1.033 14.07-6.105 1.927-3.781 2-8.333 2-12.63 0-4.208 0.00117-10.74-2.551-14.01-3.302-4.219-8.959-4.301-13.38-4.301l-11.38-0.08398h-1.312zm67.67 0.02148c-5.656 0-13.03-0.08328-18.55 1.031-2.625 0.5104-5.239 1.719-7.104 4.125-2.833 3.698-3.105 9.198-3.178 14.01-0.0729 3.437-0.07227 6.791-0.07227 10.23 0 5.406-0.2076 11.85 0.5527 17.19 1.656 11.44 10.49 11.78 18.07 11.95 3.448 0.09377 6.824 0.1777 10.27 0.1777 5.583 0 13.03 0.08327 18.55-1.031 8.343-1.719 10.27-8.51 10.29-18.05v-20.46c0-17.01-6.834-18.56-18.62-18.91-3.385-0.08333-6.832-0.2598-10.21-0.2598zm-268.3 0.6875 22.75 57.33h21.45l22.49-57.33h-15.31l-16.55 42.89h-2.688l-16.76-42.89h-15.38zm72.89 0v57.33h14.69v-57.33h-14.69zm-175.8 12.38v6.082h90.58v-6.082h-90.58zm366.9 1.895c0.7311-0.00423 1.454 0 2.16 0 2.823 0 5.583 0.08399 8.344 0.08399 1.729 0 4.073 0.08272 5.656 0.9473 3.448 1.969 2.968 9.626 2.979 13.4 0 3.781 0.479 11.34-2.969 13.24-1.583 0.9479-3.927 0.948-5.656 1.031l-6.072 0.1758c-3.104 0.09374-8 0.095-10.97-0.7695-1.031-0.3437-1.863-0.7716-2.551-1.803-1.583-2.323-1.449-9.03-1.449-11.86 0-3.094-0.134-9.885 1.73-12.29 0.6146-0.8541 1.447-1.199 2.27-1.459 2.07-0.5781 4.334-0.6748 6.527-0.6875zm-366.9 11.35v6.072h90.58v-6.072h-90.58zm0 13.25v6.072h90.58v-6.072h-90.58zm0 13.24v6.084h90.58v-6.084h-90.58z" fill="#fff"/></svg>
