<svg width="480" height="320" version="1.1" viewBox="0 0 480 320" xml:space="preserve" xmlns="http://www.w3.org/2000/svg"><defs><linearGradient id="a" x1="39.41" x2="39.41" y1="84.66" gradientTransform="scale(3.78)" gradientUnits="userSpaceOnUse"><stop stop-color="#730c0c" offset="0"/><stop stop-color="#ff3348" offset="1"/></linearGradient></defs><rect width="480" height="320" ry="24" fill="url(#a)"/><path d="m176.9 110.5c-6.352 0-11.63 2.315-11.63 7.719 0 9.307 12.86 7.275 12.86 12 0 1.662-0.5285 2.574-3.434 2.574-2.585 0-7.066-0.4942-9.43-1.713v6.008c2.684 0.3816 6.844 0.8633 9.43 0.8633 6.549 0 11.14-1.934 11.14-8.582 0-8.863-12.87-6.93-12.87-11.14v-0.8613c0-1.44 2.031-1.71 4.309-1.723 2.474 0 5.023 0.086 6.857 0.8614v-5.146c-2.043-0.4432-2.745-0.8614-7.238-0.8614zm-136.8 0.012v27.44h7.67l0.049-6.858h3.436c7.312 0 11.14-3.52 11.14-10.29 0-7.435-4.789-10.29-12.85-10.29-3.127 1e-4 -9.429 0.037-9.441 0zm25.73 0v27.44h7.719v-11.15h7.719v11.15h7.707v-27.44h-7.707v11.14h-7.719v-11.14zm29.15 0v27.44h7.717v-27.44h-0.8613zm13.71 0v27.44h14.51l0.9239-5.146h-7.719v-22.3zm18.01 0v27.44h7.719v-27.44zm13.71 0v27.44h7.67l0.049-6.858h3.436c7.312 0 11.14-3.52 11.14-10.29 0-7.435-4.801-10.29-12.86-10.29-3.115 1e-4 -9.43 0.037-9.43 0zm-91.72 5.137c0.3216 0 0.635 0.01 0.832 0.01 3.865 0 5.27 1.983 5.27 5.307 0.012 3.435-1.181 4.984-5.256 4.984h-1.725v-10.29c0.2278-0.012 0.5574-0.013 0.879-0.01zm100.3 0c0.3216 0 0.637 0.01 0.834 0.01 3.878 0 5.268 1.983 5.268 5.307 0.012 3.435-1.181 4.984-5.268 4.984h-1.713v-10.29c0.2277-0.012 0.5573-0.013 0.8789-0.01zm211.1 30.87-6.66 13.07 13.04 25.62h-4.715l-6.031 11.86h16.78l5.035 9.898h13.31zm-98.87 1.195c-15.42 0-28.15 11.6-29.93 26.56h12c1.662-8.383 9.06-14.7 17.92-14.7 8.863 0 16.26 6.314 17.92 14.7h12c-1.773-14.96-14.5-26.56-29.93-26.56zm159.1 0.209v12c4.579 0.9233 8.53 3.546 11.19 7.178l8.457-8.457c-4.813-5.81-11.76-9.787-19.65-10.72zm-7.178 0.012c-14.96 1.773-26.57 14.5-26.57 29.93 0 15.42 11.6 28.15 26.57 29.93v-12c-8.383-1.662-14.7-9.06-14.7-17.92 0-8.864 6.316-16.26 14.7-17.93zm-267.9 1.115v11.87h5.773v-11.87zm59.62 0v11.87h22.24v-11.87zm-164.8 0.01 30.76 60.44 6.648-13.09-6.648-13.09v0.012l-17.44-34.28zm48.21 0-13.43 26.37 6.66 13.09 20.08-39.46zm17.84 0v57.91h11.87v-57.91zm20.14 0v57.91h11.87v-57.91zm24.82 0v11.87c22.79 0 22.79 34.17 0 34.17v11.87c38.61 0 38.61-57.91 0-57.91zm34.8 0v57.91h11.87v-57.91zm111.2 0v57.91h11.87v-57.91zm26.01 0v11.87c7.362 0 7.362 11.15 0 11.15v11.87c23.18 0 23.18-34.89 0-34.89zm-6.978 0v11.87h6.969v-11.87zm33.35 18.44-20.08 39.47h13.32l13.42-26.38zm-144.6 4.576v11.87h22.24v-11.87zm111.2 0.01v11.87h6.969v-11.87zm-84.75 9.365c1.773 14.96 14.5 26.56 29.93 26.56 15.44 0 28.16-11.6 29.93-26.56h-12c-1.662 8.383-9.06 14.7-17.92 14.7-8.864 0-16.26-6.314-17.92-14.7zm200.2 7.164c-2.647 3.632-6.61 6.267-11.19 7.178v12c7.879-0.9355 14.83-4.912 19.65-10.72zm-286.3 6.482v11.87h5.773v-11.87zm59.62 0v11.87h22.25v-11.87z" fill="#fff"/></svg>
