<svg width="480" height="320" version="1.1" viewBox="0 0 127 84.667" xmlns="http://www.w3.org/2000/svg" xmlns:xlink="http://www.w3.org/1999/xlink">
 <defs>
  <linearGradient id="a" x1="10.583" x2="31.849" y1="79.363" gradientUnits="userSpaceOnUse">
   <stop stop-color="#273445" offset="0"/>
   <stop stop-color="#c6262e" offset="1"/>
  </linearGradient>
 </defs>
 <g>
  <rect width="127" height="84.667" ry="4.2333" fill="url(#a)" stroke-linecap="square" stroke-linejoin="round" stroke-width=".52917" style="paint-order:stroke fill markers"/>
  <path d="m10.583 35.19 7.7337 14.287 2.0628-3.8067-5.6717-10.481zm11.343 0-3.0938 5.7152 2.0628 3.8067 5.155-9.5219zm5.7322 0v14.287h3.6089l0.01021-14.287zm6.0314 0v14.287h3.6089l0.01099-14.287zm4.6399 0v3.5719h1.5469c0.99664 0 1.8472 0.34871 2.552 1.0457 0.70476 0.69749 1.0577 1.5393 1.0577 2.5262 0 0.98636-0.35294 1.8287-1.0577 2.5262-0.70476 0.69696-1.5554 1.0457-2.552 1.0457h-1.5469v3.5719h1.5469c1.9933 0 3.6953-0.69767 5.1048-2.0921 1.409-1.395 2.1131-3.0789 2.1131-5.0516 0-1.9732-0.70407-3.6566-2.1131-5.0516-1.4095-1.3945-3.1115-2.0921-5.1048-2.0921zm10.373 0v14.287h3.6089l0.01021-14.287zm4.6399 0v3.5719h5.6709v-3.5719zm15.281 0c-1.9933 0-3.6945 0.69767-5.104 2.0921-1.2853 1.2726-1.9836 2.7863-2.0934 4.5416h3.6293c0.10348-0.76892 0.4442-1.4425 1.0216-2.0208 0.70104-0.69434 1.5499-1.041 2.5465-1.041 0.99717 0 1.8496 0.34668 2.5575 1.041 0.57739 0.57827 0.91785 1.2519 1.0208 2.0208h3.6293c-0.10986-1.7553-0.81062-3.269-2.1028-4.5416-1.4095-1.3945-3.111-2.0921-5.1048-2.0921zm9.6199 0v14.287h3.6089v-14.287zm4.6399 0v3.5719h1.9387c0.2473 0 0.45934 0.08712 0.63446 0.26045 0.17512 0.17385 0.26306 0.38234 0.26306 0.62709 0 0.2521-0.0879 0.46487-0.26306 0.63872-0.17512 0.17333-0.38716 0.25968-0.63446 0.25968h-1.9387v3.5719h1.9387c1.2445 0 2.3066-0.43531 3.1865-1.3061 0.87988-0.87081 1.3192-1.9257 1.3192-3.1641 0-1.2311-0.43931-2.2825-1.3192-3.1533-0.87989-0.87081-1.942-1.3061-3.1865-1.3061zm12.57 0-2.062 3.8067 3.0514 5.633h-0.94856l-1.9277 3.5719h4.8048l0.691 1.2759h4.1248zm14.436 0.02016c-1.7736 0.10872-3.3036 0.79989-4.5889 2.072-1.4095 1.395-2.1138 3.0784-2.1138 5.0516 0 1.9727 0.70433 3.6566 2.1138 5.0516 1.2853 1.2721 2.8153 1.9632 4.5889 2.072v-3.582c-0.77693-0.1019-1.454-0.4426-2.0314-1.0209-0.70795-0.69381-1.0624-1.5344-1.0624-2.5208 0-0.98688 0.35447-1.8302 1.0624-2.5309 0.57739-0.57144 1.2545-0.90812 2.0314-1.01zm1.031 0v3.5827c0.7764 0.1019 1.4573 0.43858 2.0416 1.01 0.17195 0.17017 0.32333 0.3504 0.45387 0.54106l3.0004-1.9797c-0.26109-0.38078-0.56306-0.74176-0.90694-1.0821-1.2853-1.2721-2.8153-1.9632-4.5889-2.072zm-18.045 4.7454-5.1558 9.5219h4.124l3.0938-5.7152zm-39.532 0.59221v3.5719h5.6709v-3.5719zm8.0832 2.296c0.10986 1.7553 0.80809 3.269 2.0934 4.5416 1.4095 1.3945 3.1107 2.0921 5.104 2.0921 1.9938 0 3.6953-0.69767 5.1048-2.0921 1.2922-1.2726 1.993-2.7863 2.1028-4.5416h-3.6293c-0.10295 0.76892-0.44341 1.4393-1.0208 2.0107-0.70794 0.70064-1.5603 1.0511-2.5575 1.0511-0.99664 0-1.8455-0.35046-2.5465-1.0511-0.57739-0.57144-0.91811-1.2418-1.0216-2.0107zm51.99 1.4805c-0.13053 0.1833-0.28193 0.36003-0.45387 0.5302-0.58428 0.57827-1.2652 0.91897-2.0416 1.0209v3.582c1.7736-0.10872 3.3036-0.79989 4.5889-2.072 0.34388-0.34034 0.64585-0.7008 0.90694-1.0821zm-60.073 1.5813v3.5719h5.6709v-3.5719z" fill="#fff" stroke-width=".17598"/>
 </g>
 <style type="text/css">.st0{fill:#FC0C18;}
	.st1{fill:#FC0C18;}</style>
</svg>
