<svg width="480" height="320" version="1.1" viewBox="0 0 480 320" xml:space="preserve" xmlns="http://www.w3.org/2000/svg"><defs><linearGradient id="a" x1="72.261" x2="72.261" y1="28.68" y2="55.986" gradientTransform="scale(3.7795)" gradientUnits="userSpaceOnUse"><stop stop-color="#a10705" offset="0"/><stop offset="1"/></linearGradient></defs><rect width="480" height="320" ry="24" fill="url(#a)"/><path d="m247.27 106.46-20.871 104.29h9.9102l2.3945-11.982h17.1l2.416 11.982h9.9102zm130.51 1.8535c-9.6067 0-17.41 7.7931-17.41 17.41v68.582c0 9.6067 7.7931 17.41 17.41 17.41 9.6067 0 17.412-7.7931 17.412-17.41v-68.602c0-9.6066-7.795-17.391-17.412-17.391zm-337.79 0.94922 20.869 104.28 20.861-104.28h-9.9102l-10.951 54.711-10.939-54.711zm48.148 0v101.48h11.639v-101.48zm22.318 0v101.48h11.639v-89.867h11.533v33.301h-11.533l0.25 0.91602 15.701 55.65h12.098l-13.119-46.511c4.8867-2.4486 8.2422-7.4933 8.2422-13.328v-26.746c0-8.2313-6.6691-14.898-14.9-14.898h-8.2617zm38.469 0v11.617h11.574v89.867h11.639v-89.867h11.586v-11.617h-23.225zm39.697 0v85.031c0 9.6067 7.7931 17.412 17.41 17.412 9.6067 0 17.41-7.795 17.41-17.412v-85.031h-11.648v89.846h-11.533v-89.846zm85.021 0v101.48h29.445v-11.639h-17.807v-89.846zm42.303 0v101.48h19.9c8.2313 0 14.9-6.6691 14.9-14.9v-25.59c0-3.3654-1.6244-7.47-4.125-10.252 2.5006-2.7716 4.125-6.8884 4.125-10.254v-25.59c0-8.2313-6.6691-14.898-14.9-14.898h-16.441zm82.512 0 14.889 62.15v39.334h11.639v-38.51l15.004-62.975h-9.9297l-10.795 45.105-10.805-45.105zm-70.883 11.617h11.533v33.301h-11.533zm44.438 0.0195h11.535v78.209h-11.535v-46.117zm-124.75 35.125 6.2188 31.102h-12.439zm80.312 9.793h11.533v33.291h-11.533z" fill="#fff"/></svg>
