<svg width="480" height="320" version="1.1" viewBox="0 0 127 84.667" xmlns="http://www.w3.org/2000/svg" xmlns:xlink="http://www.w3.org/1999/xlink">
 <defs>
  <linearGradient id="a" x1="72.261" x2="72.261" y1="28.68" y2="55.986" gradientUnits="userSpaceOnUse">
   <stop stop-color="#a10705" offset="0"/>
   <stop offset="1"/>
  </linearGradient>
 </defs>
 <g stroke-linejoin="round">
  <rect width="127" height="84.667" ry="4.2333" fill="url(#a)" stroke-linecap="square" stroke-width=".52917" style="paint-order:stroke fill markers"/>
  <path d="m29.009 28.678v27.309h3.0673v-14.11l4.2653 14.11h2.8282l-3.4126-12.912c1.8959-1.1375 2.4538-2.6266 2.4538-2.6266v-8.6748c-1.2558-2.7889-3.4221-3.096-3.4221-3.096zm36.3 0-5.9241 27.28v0.02864h3.0387l0.64221-3.6809h4.2849l0.61357 3.6809h3.0673zm17.992 0v27.309h6.1638c2.8608-0.74469 3.0387-2.7799 3.0387-2.7799s-0.0048-7.2941-0.0048-9.1797c-0.21481-1.1902-1.1937-1.2298-1.1937-1.2298s-0.0037-0.33258 0-0.59448c1.0816-0.0826 1.1985-1.2558 1.1985-1.2558s-0.0045-7.287 0-9.1733c-0.46746-2.2278-3.0387-3.096-3.0387-3.096zm-72.718 0.0027 5.6945 27.305 5.6659-27.305h-3.0668l-2.5991 15.347-2.6282-15.347zm12.616 0v27.305h3.0663v-27.305zm15.974 0v2.7746h3.0371v24.531h3.0663v-24.531h3.0668v-2.7746zm10.367 0v24.21s1.2854 3.0954 4.7606 3.0954 4.4679-3.0954 4.4679-3.0954v-24.21h-3.0371v24.21h-3.0954v-24.21zm22.721 0v27.305h7.6513v-2.7741h-4.5851v-24.531zm27.293 0c-3.4856 0-4.6058 3.0933-4.6058 3.0933 0.02921 0.0438 0 20.533 0 21.117 0.46237 3.3194 4.6058 3.0949 4.6058 3.0949 4.5974 0 4.5962-3.0949 4.5962-3.0949v-21.117c-1.1887-3.2464-4.5962-3.0933-4.5962-3.0933zm5.503 0 4.0007 16.062v11.243h3.0663v-11.243l4.2929-16.062h-3.0954l-2.5991 11.769-2.8621-11.769zm-72.98 2.7767h3.0673v9.4899h-3.0673zm65.939 0.3166h3.0673v21.433h-3.0673zm-11.637 0.01909h3.0864v9.1542h-3.0864zm-21.069 8.6558 1.3995 9.4035h-3.0291zm21.06 3.2688h3.096v9.4894h-3.096z" fill="#fafafa" stroke-linecap="round" stroke-width="2.1722" style="paint-order:stroke markers fill"/>
 </g>
 <style type="text/css">.st0{fill:#FC0C18;}
	.st1{fill:#FC0C18;}</style>
</svg>
