<svg width="480" height="320" version="1.1" viewBox="0 0 127 84.667" xmlns="http://www.w3.org/2000/svg" xmlns:xlink="http://www.w3.org/1999/xlink">
 <defs>
  <linearGradient id="a" x1="78.441" x2="78.441" y1="71.438" y2="2.35e-16" gradientUnits="userSpaceOnUse">
   <stop stop-color="#7a0000" offset="0"/>
   <stop stop-color="#a10705" offset=".55031"/>
   <stop stop-color="#c6262e" offset="1"/>
  </linearGradient>
 </defs>
 <g stroke-linejoin="round">
  <rect width="127" height="84.667" ry="4.2333" fill="url(#a)" stroke-linecap="square" stroke-width=".52917" style="paint-order:stroke fill markers"/>
  <path d="m60.984 21.96c-7.0281 0-10.304 2.8484-11.385 6.0461-1.611 4.0348 0.51585 9.7847 5.4891 13.878 0.52047 0.42776 1.0536 0.8237 1.5963 1.1865-0.24336 0.0165-0.48771 0.02532-0.73484 0.02532-5.4036 0-10.032-5.236-10.379-7.9029-0.03594-0.27835-0.06206-0.5277-0.07855-0.74207 0.07185 7.2683 11.399 16.613 20.491 16.613 7.0281 0 10.304-2.8471 11.386-6.0456 1.6098-4.0348-0.51589-9.784-5.4901-13.878-0.51967-0.42756-1.0534-0.82235-1.5963-1.1849 0.24256-0.01749 0.48723-0.02532 0.73535-0.02532 5.4038 0 10.031 5.2348 10.378 7.9018 0.03692 0.27835 0.0618 0.52869 0.07907 0.74207-0.072454-7.2685-11.398-16.614-20.492-16.614zm0.75499 7.3391c2.1696 0.04533 4.6307 0.93061 6.8089 2.6283 4.0679 3.1723 5.6336 7.9883 3.545 10.865 0.86447-1.7307-0.08976-4.3271-2.3161-6.0792-2.4144-1.8996-5.4197-2.0876-6.7572-0.45682-1.3357 1.6288-0.5416 4.5043 1.8154 6.4621 1.8155 1.5076 4.0349 2.0412 5.6141 1.4883-2.6911 1.4202-6.9074 0.61148-10.295-2.1766-4.0022-3.2925-5.349-8.1316-3.0809-10.871 1.0645-1.286 2.7515-1.8998 4.6659-1.8598zm-47.553 24.411-1.8082 1.4402-1.7947 7.5556h11.173l2.1621-1.7952 1.8009-7.2006h-2.1678l-1.4475 1.4402-1.0744 4.6819-1.8014 1.4335 1.8014-7.5556h-2.5285l-1.0806 1.0852-1.4407 5.3919-1.7942 1.0785 1.7942-7.5556zm63.506 0.30231s-2.5676 0.80938-2.5482 3.9455c0.0065 1.2754 1.0413 1.5126 1.0413 1.5126h3.6024s0.67429 1.4e-5 0.32763 0.78962c-0.38082 0.84827-1.048 0.65061-1.048 0.65061h-7.7556l-1.8076 1.7952h11.724s1.9517-0.38773 2.5156-3.051c0.43178-2.0253-1.4413-2.3409-1.4413-2.3409h-3.2349s-0.58992 0.0988-0.57051-0.38137c0.02651-1.0589 1.2909-1.4211 1.2909-1.4211h3.9693l1.5058-1.4991zm-25.086 0.82166-1.6108 1.9854h-3.4851c0.0071 0.0011-2.0821 1.474-2.3446 1.7632-0.24884 0.28919-1.0608 2.8276-0.87746 3.2417 0.18332 0.40164 1.1787 0.88108 1.1787 0.88108h7.3288s0.24267-1.1704 0.54415-2.3544c0.28786-1.1116 0.6289-2.8201 0.6289-2.9461 0-0.26314 1.8206-2.5709 1.8206-2.5709zm47.668 1.9854s-3.3336 1.2105-3.3336 3.8277c0 2.1304 1.7622 2.0578 1.7622 2.0578h3.222l0.19637-0.5519s-2.7895-0.51288-1.6629-2.3937c0.96251-1.6107 1.4663-1.7616 2.1611-1.7616 0.69464 0 1.0615-0.01988 0.90434 0.53227-0.31483 1.0123-1.3094 4.1729-1.31 4.1749h3.2282l1.8733-5.8854zm-72.4 5.18e-4c0 5.61e-4 -2.0888 1.4735-2.3451 1.7627-0.24865 0.28919-1.0605 2.8276-0.88367 3.2417 0.18313 0.40164 1.1855 0.88108 1.1855 0.88108h5.2658s2.456-1.5451 2.6458-1.7622c0.1835-0.22322 0.87798-2.6896 0.87798-2.9466 0-0.25658-0.58963-1.1767-0.58963-1.1767zm7.6243 5.16e-4 -1.6635 5.8854h2.3451c0.36663-0.15144 1.2444-1.1772 1.2444-1.1772l1.0087-3.531h1.7549s0.91655 0.11135 0.58911 1.4728c-0.32743 1.3618-0.66766 3.2355-0.66766 3.2355h2.9342l0.95653-3.8272s0.10471-0.90685-0.22273-1.4335c-0.31436-0.52628-1.2444-0.62477-1.2444-0.62477zm21.68 0c0.01269 1.88e-4 -2.0831 1.473-2.3389 1.7622-0.25574 0.28919-1.0544 2.8276-0.87746 3.2417 0.1766 0.40164 1.172 0.88108 1.172 0.88108h5.2731s1.0479-0.65785 1.8278-1.1772c0 0-4.4808 0.03299-4.7558 0-0.12414-0.01312-0.07869-0.5582-0.06563-0.88057h3.6024s0.69434-0.15166 1.7291-1.0129c1.0486-0.8612 1.1787-0.95358 1.1787-1.6371 0-0.67678-0.58963-1.1772-0.58963-1.1772zm28.936 0-1.6304 1.572-0.91726 4.3134h10.297l2.4562-1.7952 1.0475-4.0902h-1.8733l-1.5715 1.572-0.48473 2.0247-1.7033 1.1446 1.2314-4.7413h-2.5151l-1.2051 1.2103-0.45888 2.4526-1.8071 1.0785 1.2309-4.7413zm21.778 0-1.8671 5.8849h2.6526c0.36029-0.15125 1.172-1.1772 1.172-1.1772l0.98289-3.5311h1.7622c0 3e-6 0.80563 0.40749 0.47801 1.7622-0.34069 1.3684-0.87695 2.9466-0.87695 2.9466h3.2153l0.98961-3.8272s0.10508-0.90685-0.22273-1.4335c-0.3278-0.52628-1.2511-0.62477-1.2511-0.62477zm-1.8671 5.8849h-5.2e-4v5.16e-4h5.2e-4zm-38.976-5.8782s-2.5858 1.4867-2.8877 1.7952c-0.10566 0.09202-0.81338 4.0835-0.81338 4.0835h3.2349l0.9834-3.7352c0.11798-0.43407 1.2575-0.9268 0.95653-0.87488-0.29495 0.05267 1.0346-0.1974 1.0346-0.1974s0.41889 0.11868 0.6289 0.40824c0.21617 0.28263-0.21043 0.70338-0.26924 1.0325-0.05843 0.32836 0.3607 0.36122 0.3607 0.36122h1.8076s0.9702-0.3609 1.2325-0.72243c0.25556-0.3681 0.57568-0.74992 0.57568-1.0723 0-0.32236-0.71365-0.72295-0.71365-0.72295l-0.72709-0.35553zm-37.412 1.1705h1.618s-0.18309 1.9532-0.58911 2.5048c-0.41256 0.5527-1.3234 1.033-1.3234 1.033s-1.0217 0.10552-1.1658 0c-0.15083-0.11826-0.03927-1.1772-0.03927-1.1772s0.13778-1.144 0.32763-1.4795c0.1835-0.32855 1.172-0.88108 1.172-0.88108zm19.636 0h1.6108s-0.17688 1.9532-0.58963 2.5048c-0.39986 0.5527-1.3162 1.033-1.3162 1.033s-1.0217 0.10552-1.1725 0c-0.13758-0.11826-0.03927-1.1772-0.03927-1.1772s0.13796-1.144 0.33435-1.4795c0.1835-0.32855 1.1725-0.88108 1.1725-0.88108zm9.6805 0h2.3642s-0.26171 0.90152-1.5518 1.4728h-1.9715c-0.19022-0.51241 0.27501-0.92066 0.53692-1.1446 0.27498-0.24964 0.62218-0.32814 0.62218-0.32814z" fill="#fafafa" fill-opacity=".99872" stroke-linecap="round" stroke-width="2.1167" style="paint-order:stroke markers fill"/>
 </g>
 <style type="text/css">.st0{fill:#FC0C18;}
	.st1{fill:#FC0C18;}</style>
</svg>
