<svg width="480" height="320" version="1.1" viewBox="0 0 480 320" xml:space="preserve" xmlns="http://www.w3.org/2000/svg"><defs><linearGradient id="a" x1="78.44" x2="78.44" y1="71.44" y2="-16.78" gradientTransform="scale(3.78)" gradientUnits="userSpaceOnUse"><stop stop-color="#a10705" offset="0"/><stop stop-color="#cc3b02" offset=".5503"/><stop stop-color="#a62100" offset="1"/></linearGradient></defs><rect width="480" height="320" ry="24" fill="url(#a)"/><path d="m228.7 41c-17.43-0.08477-32.66 5.78-41.55 15.63-5.78 6.424-25.52 43.16 29.25 77.66-28.48 8.426-51.6-24.36-51.6-24.36 35.57 67.62 104.3 69.71 128 43.42 5.78-6.406 25.52-43.16-29.27-77.64 28.52-8.408 51.64 24.36 51.64 24.36-22.24-42.26-57.43-58.92-86.48-59.07zm-3.859 28c0.9613-0.0384 1.938-0.03458 2.93 0.01172 10.2 0.4762 21.82 5.411 31.73 14.36 17.23 15.56 22.91 37.49 13.06 49.63 5.062-6.824 1.777-18.65-7.508-27.04-9.734-8.788-22.45-10.57-28.41-3.973-5.953 6.594-2.887 19.07 6.848 27.85 9.62 8.673 22.17 10.52 28.21 4.152-10.86 11.72-33.74 8.477-51.25-7.369-17.64-15.91-23.17-38.47-12.39-50.43 4.125-4.578 10.05-6.932 16.78-7.201zm-173 110-5.721 4.01-6.088 28.5h37.91l0.1777-0.123 9.551-6.678 5.486-25.71h-5.363l-5.732 4.01-4.557 21.4-5.746 4.01h-2.861l5.42-25.41 0.8613-4.01h-5.363l-5.734 4.01-4.568 21.4-5.734 4.01h-2.859l5.418-25.41 0.8633-4.01zm246.1 0c-7.84 0-12.16 5.803-13.08 13.34-0.6704 3.106 1.71 6.047 4.885 6.047h13.37c1.341 0.0411 2.258 0.903 2.053 2.627-0.4789 3.804-3.68 5.828-5.363 5.91h-30.42l-6.568 4.598h15.43l-0.0137 0.0137h24.7c7.84 0 12.16-5.801 13.08-13.34 0.6568-3.12-1.71-6.061-4.898-6.061h-13.37c-1.341-0.041-2.258-0.9049-2.039-2.629 0.4926-3.872 3.803-5.91 5.473-5.91h14.9l6.555-4.598zm-100 3.736s-2.051 3.652-4.801 6.43c-0.5199 0.5336-1.109 0.9997-1.711 1.437h-12.7l-9.742 6.814-2.354 11.03c-0.3421 1.587 0.8757 3.078 2.49 3.078h29.43l3.98-18.69c0.1779-0.7662-0.15-1.478-0.7246-1.889 0.7936-0.5199 1.533-1.109 2.203-1.779 2.75-2.764 4.803-6.43 4.803-6.43zm197.5 7.853-1.561 0.0137h-12.11c-5.966 0-11.15 4.173-12.37 10.02-1.259 5.993-0.5202 11.31 7.908 10.9h5.994l4.418-3.092h-4.855c-2.518 0-4.393-2.326-3.873-4.789l0.7109-3.311c0.8209-3.872 4.243-6.637 8.197-6.637h5.322l-3.805 17.81h10.23l4.461-20.92zm-291 0.0137-9.74 6.814-2.354 11.03c-0.3421 1.587 0.8757 3.078 2.49 3.078h21.17l9.742-6.814 2.354-11.03c0.3147-1.587-0.8894-3.078-2.504-3.078h-20.11zm28.91 0-4.461 20.92h5.363l5.734-4.008 2.941-13.81h9.262c1.464 0 2.545 1.341 2.244 2.777l-3.215 15.05h10.23l3.201-15.04c0.6431-3.037-2.393-5.896-6.443-5.896h-18.83zm82.64 0-9.742 6.814-2.354 11.03c-0.3421 1.587 0.8757 3.078 2.49 3.078h20.89l4.311-3.105h-15.87c-0.821 0-1.424-0.7533-1.26-1.547l0.7109-3.352h14.96l9.947-6.965 0.3144-1.49c0.5062-2.285-1.258-4.461-3.611-4.461h-19.77zm110.1 0-4.434 3.105-3.803 17.8h36.31l9.742-6.801 3.01-14.11h-6.457l-4.434 3.105-2.285 10.7-5.746 4.01h-2.066l3.803-17.81h-6.457l-4.434 3.105-2.285 10.7-5.746 4.01h-2.066l3.805-17.81zm82.57 0-4.447 20.91h5.363l5.732-4.008 2.943-13.81h9.262c1.464 0 2.545 1.341 2.244 2.777l-3.215 15.05h10.23l3.201-15.04c0.6568-3.024-2.38-5.883-6.443-5.883h-18.83zm-155.6 0.0137-9.742 6.814-3.01 14.11h10.23l2.941-13.8 5.734-4.01h4.104c2.134-0.0137 3.653 2.08 2.982 4.119-0.1368 0.3968-0.3143 0.779-0.5332 1.135l-0.8066 1.273h6.938l4.734-3.312c0-2.586-1.396-6.32-7.32-6.32h-15.24zm-142.6 3.092h5.637c0.8346 0 1.438 0.7533 1.273 1.547l-1.957 9.152-5.748 4.023h-5.637c-0.821 0-1.422-0.7533-1.258-1.547l1.957-9.166zm74.38 0h5.652c0.8073 0 1.422 0.7533 1.244 1.547l-2.805 13.18h-10.52c-0.821 0-1.424-0.7533-1.26-1.547l1.957-9.166zm37.16 0h7.854c0.8209 0 1.438 0.7533 1.26 1.547l-0.4121 1.914-4.35 3.08h-10.62l0.5332-2.531zm30.14 24.69c-1.128-0.0156-2.376 0.2689-3.705 0.9453-2.819 1.423-4.829 4.078-5.65 7.129l-8.77 32.07c-0.3968 1.478-0.6836 2.981-0.7109 4.5-0.3147 13.97 15.31 18.38 26 11.63l5.344-3.885c3.77 5.121 10.48 8.209 18.9 8.209 20.06 0 32.26-15.83 32.56-25.89 0.4652-16.2-14.43-14.41-23.48-9.824-1.054 0.5336-3.421 1.615 0.3145 2.367 10.08 2.572 6.76 26.43-5.664 26.43-12.31 0-10.14-19.42 0.1367-29.47 2.477-2.422 0.3151-6.553-3.078-5.883-12.77 2.531-23.01 13.87-23.04 23.51 0 1.708 0.2127 3.334 0.6191 4.861l-6.859 4.99c-2.901 1.902-9.563 0.3297-6.033-11.9l8.852-32.36c0.791-3.495-1.708-7.376-5.736-7.432zm-90.89 0.0273c-35.52-0.578-47.16 21.44-47.16 33.47 0 35.15 48.14 27.39 56.35 14.53 2.531-4.46-3.339-8.893-6.938-5.227-0.1779 0.1916-0.3827 0.3963-0.5742 0.5879 0 0-6.705 6.294-14.33 7.648-11.7 2.093-16.21-7.128-16.21-15.76-0.0821-9.468 9.894-27.58 25.44-27.58 0 0 7.195 0.7529 7.195 7.129v6.457c0 4.378 6.185 5.214 7.348 1l5.145-18.84 0.4668-1.682c-6.085-1.1-11.65-1.644-16.72-1.727zm37.75 17.53c-0.1261 0.1017-0.2012 0.3288-0.2012 0.707 0 0.2017-0.409 0.0284-0.6211 0.0703-12.78 2.531-23.03 13.87-23.04 23.51 0 11.15 9.031 18.76 22.25 18.76 20.06 0 32.26-15.83 32.56-25.89 0.4652-16.2-14.43-14.41-23.48-9.824-1.054 0.5336-3.421 1.615 0.3144 2.367 10.08 2.572 6.76 26.43-5.664 26.43-12.31 0-10.14-19.42 0.1367-29.47 2.032-1.987-1.373-7.372-2.256-6.66zm163.1 2.588c-7.771 0.1152-17.13 4.024-25.62 15.17l1.793-6.555c1.012-4.46-3.366-9.577-9.441-6.484-2.819 1.423-4.816 4.076-5.65 7.127l-5.514 20.22-0.3691 1.355c-1.45 5.268 2.612 7.498 6.662 8.059 5.664 0.7936 6.8-1.86 7.17-3.68 0.1642-0.7799 0.4099-1.56 0.793-2.271 3.352-6.075 8.087-11.36 12.18-15.16 3.215-2.983 8.442-1.792 10 2.299l0.5625 1.449c0.8893 2.326 4.226 2.162 4.883-0.2461l5.775-21.11c-1.038-0.1283-2.116-0.1903-3.227-0.1738z" fill="#fff"/></svg>
