<svg width="480" height="320" version="1.1" viewBox="0 0 127 84.667" xmlns="http://www.w3.org/2000/svg" xmlns:xlink="http://www.w3.org/1999/xlink">
 <defs>
  <linearGradient id="a" x1="78.441" x2="78.441" y1="71.438" y2="2.35e-16" gradientUnits="userSpaceOnUse">
   <stop stop-color="#a10705" offset="0"/>
   <stop stop-color="#cc3b02" offset=".55031"/>
   <stop stop-color="#a62100" offset="1"/>
  </linearGradient>
 </defs>
 <g stroke-linejoin="round">
  <rect width="127" height="84.667" ry="4.2333" fill="url(#a)" stroke-linecap="square" stroke-width=".52917" style="paint-order:stroke fill markers"/>
  <path transform="scale(.26458)" d="m230.55 50c-26.563 0-38.945 10.766-43.029 22.852-6.0889 15.25 1.9497 36.981 20.746 52.451 1.9671 1.6167 3.982 3.1132 6.0332 4.4844-0.91979 0.06236-1.8433 0.0957-2.7773 0.0957-20.423 0-37.915-19.79-39.227-29.869-0.13584-1.052-0.23456-1.9944-0.29688-2.8047 0.27156 27.471 43.081 62.791 77.447 62.791 26.563 0 38.944-10.761 43.033-22.85 6.0844-15.25-1.9498-36.979-20.75-52.453-1.9641-1.616-3.9813-3.1081-6.0332-4.4785 0.91678-0.066104 1.8415-0.095703 2.7793-0.095703 20.424 0 37.912 19.785 39.225 29.865 0.13954 1.052 0.23356 1.9982 0.29883 2.8047-0.27383-27.472-43.08-62.793-77.449-62.793zm2.8535 27.738c8.2 0.17133 17.502 3.5173 25.734 9.9336 15.375 11.99 21.292 30.192 13.398 41.064 3.2673-6.5413-0.33927-16.354-8.7539-22.977-9.1251-7.1796-20.484-7.8901-25.539-1.7266-5.0484 6.156-2.047 17.024 6.8613 24.424 6.8617 5.698 15.25 7.7148 21.219 5.625-10.171 5.3676-26.107 2.3111-38.91-8.2266-15.126-12.444-20.217-30.733-11.645-41.088 4.0232-4.8603 10.399-7.1805 17.635-7.0293zm-179.73 92.262-6.834 5.4434-6.7832 28.557h42.23l8.1719-6.7852 6.8066-27.215h-8.1934l-5.4707 5.4434-4.0605 17.695-6.8086 5.418 6.8086-28.557h-9.5566l-4.084 4.1016-5.4453 20.379-6.7812 4.0762 6.7812-28.557h-6.7812zm240.02 1.1426s-9.7042 3.0591-9.6309 14.912c0.0247 4.8204 3.9356 5.7168 3.9356 5.7168h13.615s2.5485 5e-5 1.2383 2.9844c-1.4393 3.206-3.9609 2.459-3.9609 2.459h-29.312l-6.832 6.7852h44.311s7.3763-1.4654 9.5078-11.531c1.6319-7.6546-5.4473-8.8477-5.4473-8.8477h-12.227s-2.2296 0.37342-2.1562-1.4414c0.10019-4.0022 4.8789-5.3711 4.8789-5.3711h15.002l5.6914-5.666h-28.613zm-94.814 3.1055-6.0879 7.5039h-13.172c0.02684 0.00416-7.8693 5.5711-8.8613 6.6641-0.94049 1.093-4.0092 10.687-3.3164 12.252 0.69285 1.518 4.4551 3.3301 4.4551 3.3301h27.699s0.91717-4.4237 2.0566-8.8984c1.088-4.2013 2.377-10.659 2.377-11.135 0-0.99454 6.8809-9.7168 6.8809-9.7168h-12.031zm180.16 7.5039s-12.6 4.5752-12.6 14.467c0 8.052 6.6602 7.7773 6.6602 7.7773h12.178l0.74219-2.0859s-10.543-1.9385-6.2852-9.0469c3.6378-6.0877 5.5419-6.6582 8.168-6.6582 2.6254 0 4.012-0.07512 3.418 2.0117-1.1899 3.8261-4.9488 15.772-4.9512 15.779h12.201l7.0801-22.244h-26.611zm-273.64 0.00196c0 0.00212-7.8946 5.5691-8.8633 6.6621-0.9398 1.093-4.008 10.687-3.3398 12.252 0.69215 1.518 4.4805 3.3301 4.4805 3.3301h19.902s9.2824-5.8399 10-6.6602c0.69356-0.84366 3.3184-10.166 3.3184-11.137 0-0.96975-2.2285-4.4473-2.2285-4.4473h-23.27zm28.816 0.00195-6.2871 22.244h8.8633c1.3857-0.57236 4.7031-4.4492 4.7031-4.4492l3.8125-13.346h6.6328s3.4641 0.42086 2.2266 5.5664c-1.2375 5.147-2.5234 12.229-2.5234 12.229h11.09l3.6152-14.465s0.39574-3.4275-0.8418-5.418c-1.1882-1.9891-4.7031-2.3613-4.7031-2.3613h-26.588zm81.939 0c0.04796 7.1e-4 -7.8732 5.5672-8.8398 6.6602-0.96659 1.093-3.9853 10.687-3.3164 12.252 0.66745 1.518 4.4297 3.3301 4.4297 3.3301h19.93s3.9604-2.4864 6.9082-4.4492c0 0-16.935 0.12468-17.975 0-0.4692-0.04959-0.29741-2.1097-0.24805-3.3281h13.615s2.6243-0.57319 6.5352-3.8281c3.9631-3.2549 4.4551-3.6041 4.4551-6.1875 0-2.5579-2.2285-4.4492-2.2285-4.4492h-23.266zm109.36 0-6.1621 5.9414-3.4668 16.303h38.916l9.2832-6.7852 3.959-15.459h-7.0801l-5.9394 5.9414-1.832 7.6523-6.4375 4.3262 4.6543-17.92h-9.5059l-4.5547 4.5742-1.7344 9.2695-6.8301 4.0762 4.6523-17.92h-7.9219zm82.311 0-7.0566 22.242h10.025c1.3617-0.57165 4.4297-4.4492 4.4297-4.4492l3.7148-13.346h6.6602c0 1e-5 3.0449 1.5401 1.8066 6.6602-1.2876 5.1718-3.3145 11.137-3.3145 11.137h12.152l3.7402-14.465s0.39717-3.4275-0.8418-5.418c-1.2389-1.9891-4.7285-2.3613-4.7285-2.3613h-26.588zm-7.0566 22.242h-0.00196v0.00195h0.00196v-0.00195zm-147.31-22.217s-9.7732 5.6192-10.914 6.7852c-0.39934 0.34779-3.0742 15.434-3.0742 15.434h12.227l3.7168-14.117c0.44592-1.6406 4.7526-3.5029 3.6152-3.3066-1.1148 0.19907 3.9102-0.74609 3.9102-0.74609s1.5832 0.44854 2.377 1.543c0.81703 1.0682-0.79533 2.6585-1.0176 3.9023-0.22084 1.241 1.3633 1.3652 1.3633 1.3652h6.832s3.6669-1.364 4.6582-2.7305c0.9659-1.3912 2.1758-2.8344 2.1758-4.0527 0-1.2184-2.6973-2.7324-2.6973-2.7324l-2.748-1.3438h-20.424zm-141.4 4.4238h6.1152s-0.69198 7.3821-2.2266 9.4668c-1.5593 2.0889-5.002 3.9043-5.002 3.9043s-3.8616 0.39881-4.4062 0c-0.57008-0.44697-0.14843-4.4492-0.14843-4.4492s0.52073-4.3238 1.2383-5.5918c0.69356-1.2418 4.4297-3.3301 4.4297-3.3301zm74.215 0h6.0879s-0.66853 7.3821-2.2285 9.4668c-1.5113 2.0889-4.9746 3.9043-4.9746 3.9043s-3.8616 0.39881-4.4316 0c-0.51999-0.44697-0.14843-4.4492-0.14843-4.4492s0.52143-4.3238 1.2637-5.5918c0.69356-1.2418 4.4316-3.3301 4.4316-3.3301zm36.588 0h8.9356s-0.98915 3.4073-5.8652 5.5664h-7.4512c-0.71896-1.9367 1.0394-3.4797 2.0293-4.3262 1.0393-0.94354 2.3516-1.2402 2.3516-1.2402z" fill="#fafafa" fill-opacity=".99872" stroke-linecap="round" stroke-width="8" style="paint-order:stroke markers fill"/>
  <path transform="scale(.26458)" d="m249.17 214c-2.7119 0.04514-5.6634 3.9897-8.2188 9.7246-2.5125 10.549-8.0976 26.1-8.457 36.832-0.16304 4.7622 4.2268 6.1591 7.209 7.2129 9.4389 3.3353 14.959 0.07122 17.77-3.3359 2.022-2.4435-0.11705-4.4798-2.623-3.7324-3.624 1.0734-8.0523 1.802-8.9668-1.7031-1.0078-3.8651 4.3622-19.748 8.0703-31.572 2.0272-6.4543 3.7423-11.813-3.9492-13.312-0.27468-0.08109-0.55345-0.11795-0.83398-0.11328zm-81.006 0.59961c-1.5503-0.00334-3.1286 0.04608-4.6934 0.16797-10.007 0.77355-38.113 9.9206-37.086 30.303 1.3339 26.283 28.844 24.762 28.844 24.762s21.382-3.1008 22.664-14.447c0.58117-5.1359-3.8596-3.0987-6.1816-2.0625-2.3155 1.0283-4.8924 7.2197-16.482 8.2558-11.584 1.029-12.447-11.624-12.363-14.447 0.19046-5.8362 6.6262-23.347 22.664-24.762 8.7586-0.77486 7.7322 14.961 12.363 14.443 4.6376-0.51679 6.1816-20.637 6.1816-20.637s-7.5387-1.5581-15.91-1.5762zm183.66 18.037c-12.345-0.0557-25.592 14.496-25.592 14.496s7.2335-11.614-2.0605-12.383c-8.405-0.70103-7.9787 7.2175-10.301 14.445-2.3168 7.22-7.726 19.092 2.0606 18.574 9.7898-0.51679 5.6302-16.928 22.662-20.637 5.9245-1.2897 8.2402 6.1914 8.2402 6.1914s9.2753-20.383 6.1816-20.637c-0.39587-0.03318-0.79317-0.04898-1.1914-0.05078zm-150.35 0.17187c-0.11997-0.00311-0.24678 0.00166-0.38086 0.01563-6.3889 0.66117-19.086 4.0471-19.086 20.498 0 0.77485-2.315 18.576 20.604 16.512 22.926-2.0645 26.783-16.512 26.783-16.512s5.6719-19.09-8.2402-18.572c-8.4905 0.31359-12.363 4.127-12.363 4.127s5.6657 1.1133 6.8887 5.1875c2.3227 7.7237 1.4654 20.757-11.008 19.576-12.518-1.1845-6.4032-17.748-2.459-26.146 1.2768-2.7073 1.0612-4.6389-0.73828-4.6856zm76.232 0c-0.11996-0.00311-0.24678 0.00166-0.38086 0.01563-6.3902 0.66117-19.086 4.0471-19.086 20.498 0 0.77485-2.3163 18.576 20.602 16.512 22.925-2.0645 26.785-16.512 26.785-16.512s5.6712-19.09-8.2402-18.572c-8.4905 0.31359-12.361 4.127-12.361 4.127s5.6618 1.1133 6.8848 5.1875c2.3234 7.7237 1.4654 20.757-11.008 19.576-12.518-1.1845-6.4026-17.748-2.459-26.146 1.278-2.7073 1.0631-4.6389-0.73633-4.6856z" fill="#fafafa" fill-opacity=".99872" stroke-linecap="round" stroke-width="8" style="paint-order:stroke markers fill"/>
 </g>
 <style type="text/css">.st0{fill:#FC0C18;}
	.st1{fill:#FC0C18;}</style>
</svg>
