<svg width="480" height="320" version="1.1" viewBox="0 0 127 84.667" xmlns="http://www.w3.org/2000/svg">
 <defs>
  <linearGradient id="a" x1="100.55" x2="78.441" y1="82.502" y2="2.35e-16" gradientUnits="userSpaceOnUse">
   <stop stop-color="#7a0000" offset="0"/>
   <stop stop-color="#a10705" offset=".55031"/>
   <stop stop-color="#c6262e" offset="1"/>
  </linearGradient>
 </defs>
 <rect width="127" height="84.667" ry="4.2333" fill="url(#a)" stroke-linecap="square" stroke-linejoin="round" stroke-width=".52917" style="paint-order:stroke fill markers"/>
 <style type="text/css">.st0{fill:#FC0C18;}
	.st1{fill:#FC0C18;}</style>
 <g transform="translate(0 4.7624)" fill="#fafafa">
  <path transform="matrix(.26458 0 0 .26458 -.00025 0)" d="m144.96 50.002c-0.45101-0.0025-0.90945-0.0014-1.375 0.0039-23.08 0.2852-22.967 9.9805-22.967 9.9805s-2.314 9.0693 15.631 10.895c11.004 1.1408 18.847 3.0224 18.791 5.7031-0.0564 2.6808-4.6833 2.5676-6.7148 2.3965-18.001-1.483-24.434-6.5586-24.434-6.5586l-3.8945 8.2695s8.6903 5.4758 26.748 5.3047c18.058-0.1711 20.54-4.5064 20.879-10.324 0.39502-7.2438-9.6484-10.152-9.6484-10.152s-5.531-1.1972-11.23-2.0527c-6.6024-0.96964-13.43-1.997-12.584-4.6777 0-0.11406 1.9187-3.8776 15.744-1.2539 6.7152 1.3119 12.584 3.877 12.584 3.877s3.7806-7.0156 3.6113-7.3008c-0.164-0.27629-7.1594-4.0305-21.141-4.1094zm146.48 0.05469c-0.44796-2e-3 -0.90107 5.12e-4 -1.3613 0.0059-3.7244 0.05703-5.0228 0.17183-10.102 0.45703-5.1916 0.2852-10.834 0.91211-10.834 0.91211v33.195h10.777v-27.947s2.6534-0.28593 5.0234-0.45703c2.3701-0.1711 2.9889-0.11523 4.7383-0.11523 6.6024 0 11.062 2.1113 10.949 6.0469-0.0564 3.3082-3.5558 5.0195-10.158 5.0195-1.9751 0-4.4587-0.28514-6.4902-0.57031-0.11286 0-2.2559 3.5352-2.2559 3.5352l16.195 14.488h16.195l-14.277-12.434c8.9724-1.54 13.375-5.6468 13.432-10.096 0-8.3435-7.9453-11.978-21.832-12.041zm45.814 0.0059c-3.7244 0-5.0228 0.17183-10.102 0.45703-5.0788 0.2852-10.777 0.91211-10.777 0.91211v33.195h10.777v-12.035c3.5551 0.74149 7.6175 1.084 11.906 1.084 14.277 0 20.823-5.1899 20.936-11.578 0.11285-7.7001-8.4069-12.035-22.74-12.035zm-167.54 1.3691v33.195h11.23v-13.176h21.613v13.176h11.229v-33.195h-11.229v12.719h-21.613v-12.719zm65.234 0-19.807 33.195h8.5195l4.3457-7.3008h22.402l4.3457 7.3008h13.035l-19.807-33.195h-4.5137zm99.832 4.6699c0.67011-0.0071 1.262 0.0059 2.1367 0.0059 6.6024 0 10.609 2.1113 10.496 6.0469-0.0564 3.3082-3.1027 5.9316-9.7051 5.9316-1.9751 0-5.023-0.28514-6.998-0.57031-2.0315-0.2852-3.498-0.91211-3.498-0.91211v-9.9238h-0.0566s2.6514-0.28593 5.0215-0.45703c1.185-0.08555 1.9334-0.11396 2.6035-0.12109zm-95.6 2.5156 7.1094 11.922h-14.221z" style="paint-order:stroke fill markers"/>
  <path transform="matrix(.26458 0 0 .26458 -.00025 0)" d="m318.61 106-4.6152 4.9453c-2.54 2.7199-8.7988 9.3895-13.908 14.822l-9.291 9.877 33.826 0.85938-12.229 21.904c-6.7254 12.047-13.295 23.833-14.596 26.195-1.2999 2.3621-3.4341 6.2278-4.7422 8.5898s-5.1574 9.3195-8.5547 15.461c-3.3961 6.1414-6.8842 12.427-7.752 13.967l-1.5762 2.8008-16.074-0.22461-16.074-0.22266-33.748-59.469-33.75-59.465-48.76-0.0156c-26.817-8e-3 -48.758 0.21698-48.758 0.49805 0 0.77948 8.8742 16.507 30.246 53.602 3.6502 6.3363 27.116 47.315 35.537 62.061l6.748 11.814 108.69-0.21875 108.69-0.2168 10.061-17.609c5.5332-9.6845 10.325-18.186 10.648-18.895 0.32428-0.70744 12.016-21.386 25.982-45.953l25.393-44.666-60.695-0.22071zm-128.15 0.0117 1.7949 3.2207c4.58 8.2118 22.653 40.9 26.119 47.242 2.1302 3.8974 4.1194 7.0859 4.418 7.0859 0.29861 0 6.4272-6.0868 13.621-13.527 7.1927-7.4406 19.81-20.39 28.039-28.775l14.961-15.246h-44.477zm-98.119 8.5898h78.113l1.6699 3.2207c0.91811 1.7716 2.7845 5.1535 4.1465 7.5156 6.8507 11.886 22.725 39.753 27.398 48.1 2.9089 5.1966 10.664 18.918 17.232 30.492l11.943 21.045-38.354 0.22266c-35.778 0.20904-38.428 0.12305-39.451-1.2871-0.60427-0.83264-6.8256-11.563-13.826-23.846-6.9994-12.283-19.929-34.893-28.73-50.246-8.8029-15.354-16.936-29.559-18.074-31.566zm139.83 0h26.588l-16.861 17.178c-19.347 19.709-17.231 18.321-19.949 13.1-1.1676-2.244-5.1103-9.4019-8.7617-15.908-3.6502-6.5052-6.8553-12.4-7.1211-13.1-0.42042-1.1043 2.9887-1.2695 26.105-1.2695zm90.506 0h50.984c28.041 0 50.984 0.22481 50.984 0.5 0 0.27402-1.339 2.8074-2.9785 5.6289-1.6395 2.8215-2.9824 5.3386-2.9824 5.5938 0 0.25629-0.71117 1.4918-1.5801 2.7461-0.87012 1.2543-4.4716 7.4993-8.0059 13.877-3.5343 6.3776-10.732 19.132-15.996 28.344-5.2628 9.2121-10.656 18.725-11.986 21.139-1.3303 2.414-6.0206 10.725-10.424 18.467l-8.0078 14.078-38.43 0.22266c-21.138 0.12283-38.432 0.0281-38.432-0.21289 0-0.42164 6.501-12.33 18.061-33.08 3.0272-5.4328 6.6686-12.001 8.0938-14.6 1.4252-2.5983 4.6287-8.3988 7.1172-12.887 2.4885-4.488 8.0565-14.537 12.373-22.332l7.8496-14.172-28.348-0.85937 5.8535-6.2266zm-222.5 59.564c-0.60355-0.0454-1.1455 0.42817-1.8437 1.2051-0.74363 0.82673-14.171 14.355-29.84 30.062l-28.486 28.561h47.961c26.378 0 47.961-0.30065 47.961-0.66797 0-0.36729-0.52701-1.4314-1.1699-2.3633-1.0188-1.4739-14.526-24.319-19.607-33.16-0.98604-1.716-4.4749-7.7908-7.7539-13.5-4.263-7.4238-5.8929-10.037-7.2207-10.137zm-1.1816 13.482c0.0644-0.02 1.636 2.571 3.4922 5.7598 1.8573 3.1888 6.6923 11.458 10.744 18.375 4.0519 6.9174 7.3672 12.813 7.3672 13.1 0 0.28698-13.473 0.52149-29.939 0.52149h-29.938l19.078-18.859c10.494-10.373 19.132-18.876 19.195-18.896z" style="paint-order:stroke fill markers"/>
 </g>
</svg>
