<svg width="480" height="320" version="1.1" viewBox="0 0 480 320" xml:space="preserve" xmlns="http://www.w3.org/2000/svg"><defs><linearGradient id="a" x1="100.6" x2="78.44" y1="82.5" y2="2.35e-16" gradientTransform="scale(3.78)" gradientUnits="userSpaceOnUse"><stop stop-color="#7a0000" offset="0"/><stop stop-color="#a10705" offset=".5503"/><stop stop-color="#c6262e" offset="1"/></linearGradient></defs><rect width="480" height="320" ry="24" fill="url(#a)"/><path d="m106.4 65.94c-13.15-0.1296-32.53 1.662-33.42 14.01-0.8696 12.03 16.3 14.91 27.57 17.54 10.98 2.561 21.27 3.477 21.27 7.277 0 2.673-3.623 4.768-13.22 4.043-11.56-0.8696-21.39-4.025-31.19-8.889l-6.521 10.69c10.87 4.251 25.14 7.666 37.99 7.875 15.28 0.2577 32.53-2.206 32.92-15.3 0.3382-10.92-10.98-14.73-30.89-18.6-9.711-1.884-17.96-3.059-17.96-6.199 0-3.478 6.668-4.381 16.12-3.383 8.938 0.9501 17.36 3.285 25.22 6.635l5.975-9.791c-6.345-2.416-19.44-5.523-31.32-5.861-0.8142-0.02315-1.664-0.04019-2.541-0.04883zm223.9 0.04492c-13.67 0-22.46 0.9329-29.95 2.205v48.78h16.8v-41.37c6.055-1.192 12.19-1.224 14.49-1.111 6.667 0.2899 10.42 1.337 13.43 3.463 3.108 2.206 3.944 7.102-0.08203 10.5-3.011 2.528-9.129 4.525-22.79 2.432l-1.934 3.172 25.85 22.93h22.88l-23-19.89c5.524-0.7247 13.9-2.93 17.89-8.164 4.01-5.25 3.463-12.93-4.219-17.33-7.166-4.106-20.84-5.619-29.37-5.619zm73.1 0.01367c-13.67 0-22.58 0.9329-30.05 2.205v48.78h16.79v-17.88c5.202 0.8696 11.71 1.368 17.34 1.336 13.75-0.1127 23.96-3.35 28.62-8.406 6.619-7.214 4.396-15.93-3.221-20.42-6.844-4.058-19.65-5.619-29.49-5.619zm-156.3 1.492-30.15 49.47h12.85l6.168-10.13h34.75l5.975 10.13h20.52l-30.13-49.47h-19.98zm-99.38 0.003906v49.47h16.81v-19.87h32.51v19.87h16.8v-49.47h-16.8v18.92h-32.51v-18.92h-16.81zm254.6 6.941c1.002-0.008052 1.823 0.009048 2.395 0.0332 6.699 0.2899 10.61 1.418 13.53 3.463 3.011 2.142 4.026 7.23-0.08007 10.6-2.899 2.383-7.149 3.221-13.83 3.205-4.944-0.0161-10.05-0.919-14.21-1.869v-14.27c4.541-0.8938 9.191-1.136 12.2-1.16zm-148.7 3.441 11.34 19.21h-23.04l11.71-19.21zm-182.7 48.29 73.84 127.9h221.4l73.83-127.9h-123.7l-32.59 32.59h35.93l-36.3 62.88-55.75-0.0625-55.08-95.42h-101.6zm111.4 0 34.72 60.13 60.13-60.13h-94.85zm-92.71 10.8h76.62l55.12 95.48h68.2l48.78-84.49h-28.55l10.99-10.99h100.5l-61.37 106.3h-209l-61.35-106.3zm111.4 0h50.05l-31.73 31.74-18.32-31.74zm-100.9 56.96-60.13 60.13h94.86l-34.73-60.13zm-2.313 17.6 18.31 31.73h-50.04l31.73-31.73z" fill="#fff"/></svg>
