<svg width="480" height="320" version="1.1" viewBox="0 0 480 320" xml:space="preserve" xmlns="http://www.w3.org/2000/svg"><defs><linearGradient id="a" x1="77.3" x2="99.99" y1="84.67" y2="-1.175e-16" gradientTransform="scale(3.78)" gradientUnits="userSpaceOnUse"><stop stop-color="#a10705" offset="0"/><stop stop-color="#a10705" offset=".4906"/><stop stop-color="#ed5353" offset="1"/></linearGradient></defs><rect width="480" height="320" ry="24" fill="url(#a)"/><path d="m135.8 100.7c-9.187-0.09011-22.73 1.157-23.35 9.793-0.612 8.422 11.4 10.44 19.26 12.27 7.681 1.788 14.86 2.431 14.86 5.088 0 1.868-2.527 3.334-9.242 2.818-8.068-0.5958-14.94-2.803-21.8-6.217l-4.559 7.473c7.601 2.963 17.57 5.363 26.56 5.508 10.68 0.1771 22.74-1.546 23.01-10.69 0.2416-7.633-7.666-10.29-21.58-13-6.78-1.32-12.54-2.142-12.54-4.332 0-2.432 4.655-3.06 11.26-2.367 6.248 0.6603 12.13 2.304 17.62 4.639l4.17-6.844c-4.445-1.691-13.59-3.85-21.88-4.107-0.5687-0.0161-1.161-0.02719-1.773-0.0332zm207.6 0.04297c-9.55 0-15.76 0.6451-21 1.547v34.07h11.74v-12.48c3.623 0.6119 8.182 0.9497 12.11 0.9336 9.614-0.0805 16.75-2.334 20-5.877 4.622-5.04 3.06-11.13-2.254-14.27-4.783-2.834-13.74-3.93-20.6-3.93zm-51.09 0.00195c-9.55 0-15.7 0.6451-20.92 1.547v34.07h11.74v-28.91c4.235-0.8374 8.519-0.8535 10.13-0.7891 4.654 0.2094 7.278 0.9345 9.371 2.416 2.174 1.546 2.755 4.959-0.04688 7.326-2.11 1.771-6.378 3.156-15.93 1.707l-1.352 2.223 18.05 16.02h15.99l-16.05-13.9c3.849-0.4831 9.694-2.03 12.5-5.686 2.802-3.672 2.415-9.034-2.947-12.11-5.008-2.866-14.56-3.93-20.53-3.93zm-127.6 1.043v34.58h11.74v-13.9h22.72v13.9h11.74v-34.58h-11.74v13.22h-22.72v-13.22h-11.74zm69.43 0.01367-21.06 34.57h8.969l4.301-7.07h24.29l4.186 7.07h14.33l-21.05-34.57h-13.96zm108.5 4.846c0.7008-0.00553 1.273 0.00538 1.672 0.02149 4.686 0.1932 7.424 0.9989 9.453 2.416 2.142 1.498 2.849 5.057-0.0332 7.408-2.029 1.659-4.992 2.254-9.678 2.238-3.446-0.0161-7.021-0.6444-9.936-1.305v-9.969c3.164-0.628 6.419-0.7939 8.521-0.8106zm-103.9 2.4 7.924 13.43h-16.11l8.182-13.43zm-182.4 42.45 39.12 67.74h53.8l-39.11-67.74h-53.8zm59.02 0 18.39 31.85 31.85-31.85h-50.25zm122.9 3.916c-6.51 0-12.73 5.283-13.88 11.79l-1.896 10.61c-0.5104 2.875 0.1055 5.479 1.449 7.531-2.052 2.042-3.574 4.636-4.084 7.49l-1.896 10.61c-1.156 6.521 3.198 11.81 9.719 11.81h26.06c6.521 0 12.74-5.292 13.88-11.81l1.844-10.61c0.5-2.865-0.1042-5.449-1.438-7.49 2.073-2.052 3.605-4.656 4.115-7.531l1.844-10.61c1.146-6.51-3.208-11.79-9.719-11.79h-26.01zm-55.25 0.05274c-6.51 0-12.73 5.281-13.88 11.79l-4.51 25.47c-0.0104 0.0417-0.02085 0.07356-0.03125 0.1152l-1.896 10.61c-1.156 6.521 3.198 11.81 9.719 11.81h26.06c6.521 0 12.74-5.292 13.88-11.81l1.844-10.61c1.125-6.51-3.228-11.79-9.738-11.79h-26.01c-1.104 0-2.188 0.1966-3.25 0.4883l1.949-11.02c0.6354-3.573 4.04-6.469 7.613-6.469h19.51c3.573 0 5.957 2.896 5.332 6.469l-0.8848 5.031h8.553l1.457-8.293c1.146-6.51-3.208-11.79-9.719-11.79h-26.01zm110.5 0c-6.51 0-12.73 5.281-13.88 11.79l-6.406 36.2c-1.156 6.521 3.198 11.8 9.719 11.8h26.06c6.521 0 12.74-5.292 13.88-11.81l6.355-36.2c1.135-6.5-3.218-11.78-9.729-11.78h-26.01zm55.27 0c-6.51 0-12.73 5.281-13.88 11.79l-6.406 36.2c-1.156 6.521 3.198 11.8 9.719 11.8h26.06c6.521 0 12.74-5.292 13.88-11.81l6.354-36.2c1.135-6.5-3.218-11.78-9.729-11.78h-26.01zm55.27 0c-6.51 0-12.73 5.281-13.88 11.79l-6.406 36.2c-1.156 6.521 3.198 11.8 9.719 11.8h26.06c6.521 0 12.74-5.292 13.88-11.81l6.355-36.2c1.135-6.5-3.21-11.78-9.73-11.78h-26.01zm-337.8 1.75h40.58l32.5 56.3h-40.58l-32.5-56.3zm59.02 0h26.51l-16.81 16.81-9.697-16.81zm114.8 6.771h19.51c3.573 0 5.957 2.896 5.332 6.469l-0.7188 4.062c-0.625 3.573-4.04 6.469-7.613 6.469h-19.51c-3.573 0-5.959-2.896-5.334-6.469l0.7188-4.062c0.625-3.573 4.042-6.469 7.615-6.469zm55.27 0.0625h19.51c3.573 0 5.959 2.896 5.334 6.469l-5.229 29.64c-0.6354 3.573-4.042 6.469-7.615 6.469h-19.51c-3.573 0-5.959-2.896-5.334-6.469l5.229-29.64c0.625-3.573 4.042-6.469 7.615-6.469zm55.27 0h19.51c3.573 0 5.957 2.896 5.332 6.469l-5.229 29.64c-0.6354 3.573-4.042 6.469-7.615 6.469h-19.51c-3.573 0-5.959-2.896-5.334-6.469l5.23-29.64c0.625-3.573 4.04-6.469 7.613-6.469zm55.27 0h19.51c3.573 0 5.959 2.896 5.334 6.469l-5.23 29.64c-0.6354 3.573-4.04 6.469-7.613 6.469h-19.51c-3.573 0-5.959-2.896-5.334-6.469l5.229-29.64c0.625-3.573 4.042-6.469 7.615-6.469zm-334 23.33-31.85 31.85h50.25l-18.4-31.85zm108.4 2.24h19.51c3.573 0 5.957 2.896 5.332 6.469l-0.7285 4.072c-0.625 3.573-4.042 6.469-7.615 6.469h-19.51c-3.073 0-5.135-2.188-5.291-5.062l0.03125-0.03125c-0.0208-0.4583-0.125-0.8952-0.03125-1.385l0.7383-4.199c0.6979-3.51 4.031-6.332 7.562-6.332zm55.27 0.00976h19.51c3.573 0 5.959 2.896 5.334 6.469l-0.7188 4.062c-0.625 3.573-4.042 6.469-7.615 6.469h-19.51c-3.573 0-5.959-2.896-5.334-6.469l0.7188-4.062c0.625-3.573 4.042-6.469 7.615-6.469zm-164.9 7.072 9.697 16.81h-26.5l16.8-16.81z" fill="#fff"/></svg>
