<svg width="480" height="320" version="1.1" viewBox="0 0 127 84.667" xmlns="http://www.w3.org/2000/svg" xmlns:xlink="http://www.w3.org/1999/xlink">
 <defs>
  <linearGradient id="a" x1="77.304" x2="99.99" y1="84.667" y2="-1.175e-16" gradientUnits="userSpaceOnUse">
   <stop stop-color="#a10705" offset="0"/>
   <stop stop-color="#a10705" offset=".49065"/>
   <stop stop-color="#ed5353" offset="1"/>
  </linearGradient>
 </defs>
 <rect width="127" height="84.667" ry="4.2333" fill="url(#a)" stroke-linecap="square" stroke-linejoin="round" stroke-width=".52917" style="paint-order:stroke fill markers"/>
 <g transform="translate(0 -1.9063)" fill="#fafafa">
  <path transform="scale(.26458)" d="m116.08 161.4 18.266 31.344 30.973-31.344zm-59.191 0.0547 39.391 67.557h53.475l-39.391-67.557zm139.77 2.6992c-4.6591 0-10.059 0.21101-13.342 0.6875-3.2296 0.42356-6.0359 1.3772-8.3125 2.8066-4.1296 2.6472-5.8243 7.042-6.7773 12.707l-4.9238 25.836c-0.47651 2.6472-0.6875 4.9782-0.6875 7.043 0.31767 3.9708 1.641 6.829 4.0234 8.5762 1.906 1.3766 4.3943 2.2231 7.4121 2.5938 3.0178 0.37062 7.2004 0.26563 11.33 0.26563 4.6061 0 9.2658 0.31767 12.178 0s6.1405-0.2645 8.6289-1.5352c1.5883-0.84711 2.9661-3.4414 4.1309-4.9238 1.1648-1.4824 2.0639-3.1239 2.6992-4.8711 0.68828-1.7472 1.2716-3.7062 1.748-5.877 0.8471-4.5003 1.27-7.7303 1.1641-9.7422-0.10588-3.0178-0.90058-5.2422-2.3301-6.7246-1.5883-1.7472-4.9761-2.3807-8.0469-2.9102-3.1237-0.52943-7.8365-0.15972-13.607-0.26562-2.3296 0-8.6296-0.37082-12.389 0.0527-2.1707 0.21178-3.123 1.6406-3.123 1.6406l1.4297-5.875c0.47649-3.3884 1.7475-5.931 3.8652-7.5723 1.6413-1.2177 4.8165-1.1641 10.217-1.1641h5.1367c5.4532 0 10.536-0.053 11.807 1.0059 0.58239 0.42355 0.74002 1.5885 0.79297 2.9121 0.0529 1.3236 0.15946 2.7533-0.15821 4.8711h8.8418c0.5824-3.3884 0.84613-8.4715 0.74024-9.7422-0.21178-3.9179-2.0118-6.5123-5.4531-7.8359-3.4414-1.3236-4.8164-1.959-9.7402-1.959zm57.021 0.10547c-3.812 0-11.331 0.10659-14.084 0.31836-5.3474 0.37061-6.4066 1.5875-8.7891 3.6524-4.0767 3.3884-6.4061 7.8365-6.9356 16.572 0 0.10589 0.10682 3.9712 0.26562 4.3418 0.31767 1.2177 0.68854 2.2226 1.9063 3.2285 1.1118 0.953 0.79346 1.1654-0.31836 1.8008-1.7472 1.0059-3.2831 1.9578-4.2891 3.2285-1.0589 1.2707-1.959 2.9123-2.4355 4.3418-0.4765 1.4295-0.63442 3.4954-1.2168 6.1426-0.42355 2.859-0.68902 3.6523-0.79492 5.1348 0.26472 3.2296 1.7476 6.5649 3.3359 7.9414 1.6942 1.5354 3.3344 2.8598 6.1934 3.2305 2.859 0.37062 6.8316 0.52929 11.861 0.52929h5.8223c4.5003 0 9.6369-0.21121 12.549-0.63476 2.9119-0.37061 5.3479-1.1657 7.2539-2.2246 2.1707-1.1648 2.911-2.7531 4.1816-4.9238 1.2707-2.1707 1.5359-3.8115 2.3301-7.5176 0.10587-0.37061-8.3e-4 -1.1657 0.21094-2.2246 0.21177-1.0589 0.0527-4.1286 0.0527-4.7109-0.0529-4.0767-0.0519-7.5723-3.7051-9.0547-2e-3 -5.3e-4 -2e-3 -1e-3 -4e-3 -2e-3 0.0504-0.0127 0.10361-0.0288 0.16211-0.0508 1.9589-0.63533 1.748-1.8003 3.2305-3.3887 1.1648-1.1118 2.1162-2.5925 2.8574-4.3926 0.74122-1.8001 1.2724-3.7071 1.5371-5.666 0.31767-1.9589 0.42209-3.864 0.36914-5.6641-0.0529-2.5942-0.58216-4.501-1.5352-5.7187-1.1118-1.2707-0.95332-2.2245-2.3828-2.7539-1.4295-0.52945-3.1233-0.95208-5.0293-1.2168-2.1707-0.21177-7.3052-0.31836-12.6-0.31836zm54.797 0.0527c-3.8649 0-7.0422 0.10659-9.6894 0.31836-2.6472 0.21177-4.9762 0.68867-7.041 1.377-2.0648 0.74122-3.7059 1.6944-4.9766 2.9121-2.1707 1.906-3.919 4.34-5.1367 7.252-1.2177 2.9119-2.1164 6.142-2.8047 9.7422l-3.1777 16.73c-0.52945 2.9119-0.89996 5.982-1.0059 9.0527 0.21177 3.812-0.10654 6.6192 1.6406 8.5781 1.3766 1.6413 3.6538 2.8059 6.7246 3.4941 3.0708 0.68827 8.6824 1.0059 13.924 1.0059 4.3414 0 9.3726-0.21186 12.443-0.47656 3.0178-0.37061 5.6108-1.1653 7.7285-2.3301 5.2415-2.9649 7.3603-9.265 9.1074-18.795l3.2285-16.836c0.5824-4.1826 0.84788-7.1474 0.79492-8.8945-0.10588-4.2885-1.2707-7.412-3.4414-9.4238-1.2177-1.0059-2.7001-1.8006-4.4473-2.3301s-3.7583-0.84683-6.0879-1.0586c-2.2766-0.21177-4.8713-0.31836-7.7832-0.31836zm54.902 0c-3.8649 0-7.0403 0.10659-9.6875 0.31836s-4.9781 0.68867-7.043 1.377c-2.0648 0.74122-3.7059 1.6944-4.9766 2.9121-2.1707 1.906-3.917 4.34-5.1348 7.252-1.2177 2.9119-2.1184 6.142-2.8066 9.7422l-3.1758 16.73c-0.52944 2.9119-0.89995 5.982-1.0059 9.0527 0.21178 3.812-0.10653 6.6192 1.6406 8.5781 1.3766 1.6413 3.6519 2.8059 6.7227 3.4941 3.0708 0.68827 8.6843 1.0059 13.926 1.0059 4.2885 0 9.3706-0.21186 12.441-0.47656 3.0178-0.37061 5.6127-1.1653 7.7305-2.3301 5.2415-2.9649 7.3583-9.265 9.1055-18.795l3.2305-16.836c0.5825-4.1826 0.84588-7.1474 0.79297-8.8945-0.1059-4.2885-1.2707-7.412-3.4414-9.4238-1.2177-1.0059-2.7001-1.8006-4.4473-2.3301-1.7472-0.52944-3.7584-0.84683-6.0879-1.0586-2.2766-0.21177-4.8713-0.31836-7.7832-0.31836zm54.85 0c-3.8649 0-7.0403 0.10659-9.6875 0.31836-2.6472 0.21177-4.9762 0.68867-7.041 1.377-2.0648 0.74122-3.7078 1.6944-4.9785 2.9121-2.1707 1.906-3.917 4.34-5.1348 7.252-1.2177 2.9119-2.1184 6.142-2.8066 9.7422l-3.1758 16.73c-0.52943 2.9119-0.90003 5.982-1.0059 9.0527 0.21177 3.812-0.10653 6.6192 1.6406 8.5781 1.3765 1.6413 3.6539 2.8059 6.7246 3.4941 3.0708 0.68827 8.6823 1.0059 13.924 1.0059 4.3414 0 9.3706-0.21186 12.441-0.47656 3.0178-0.37061 5.6127-1.1653 7.7305-2.3301 5.2415-2.9649 7.3583-9.265 9.1055-18.795l3.2305-16.836c0.58254-4.1826 0.84783-7.1474 0.79492-8.8945-0.1059-4.2885-1.2707-7.412-3.4414-9.4238-1.2177-1.0059-2.7001-1.8006-4.4473-2.3301s-3.7603-0.84683-6.0898-1.0586c-2.2766-0.21177-4.8713-0.31836-7.7832-0.31836zm-293.73 1.2715h29.543l-18.053 18.318zm-59.191 0.0527h40.82l33.674 57.709h-40.82zm187 6.8828c3.4414 0 6.1413 0.0536 7.9414 0.31836 1.906 0.15883 3.3343 0.47641 4.2344 1.0059 0.84711 0.47649 1.2713 1.3752 1.3242 2.8047 0.0529 1.1118-0.10638 2.4898-0.37109 4.0781-0.52944 2.6472-0.95214 3.7055-1.6934 5.082-0.68828 1.3766-1.5878 2.2757-2.5938 2.6992-2.3825 1.0589-6.9366 1.166-13.078 1.166-6.8298 0-12.123-0.1056-13.605-1.0586-0.74121-0.58239-1.2709-1.5896-1.4297-3.125 0.21177-2.5413 0.42299-4.5527 0.63476-6.0352 0.26472-1.4824 0.79352-2.9125 1.6406-4.2891 0.90005-1.3766 2.0647-1.3221 3.9707-1.8516 1.9589-0.52944 7.2015-0.79492 13.025-0.79492zm54.639 0.37109c4.3414 0 7.4124 0.10486 9.3184 0.26367 1.8001 0.21178 3.2284 0.68847 4.2344 1.4297 1.006 0.74122 1.1131 2.012 1.166 4.3945 0 1.7472-0.21295 2.8596-0.68945 6.248l-3.3359 17.631c-1.2707 6.0356-2.4875 8.9475-4.6582 10.854-1.1648 1.0059-2.8601 1.6396-5.1367 1.9043-2.2766 0.26474-5.6634 0.42383-10.27 0.42383-3.812 0-6.513-0.0521-8.1543-0.21094-1.6413-0.15883-3.0173-0.52915-4.0762-1.0586-0.84711-0.42356-1.4827-1.0068-1.9062-1.748-0.42354-0.74122-0.68902-1.9058-0.79492-3.4941 0.10589-1.8001 0.37137-2.6998 0.79492-5.5059l3.5996-19.113c0.52944-2.859 1.2178-3.8116 1.959-5.5059 0.74122-1.6942 1.5361-2.9111 2.2774-3.6523 0.79416-0.74122 1.6408-1.3247 2.5938-1.6953 1.2177-0.4765 2.7001-0.7943 4.4473-0.95312s4.6071-0.21094 8.6309-0.21094zm54.85 0c4.3944 0 7.4653 0.10486 9.3184 0.26367 1.8001 0.21178 3.2284 0.68847 4.2344 1.4297 1.006 0.74122 1.1131 2.012 1.166 4.3945 0 1.7472-0.21295 2.8596-0.68945 6.248l-3.334 17.631c-1.2707 6.0356-2.4894 8.9475-4.6602 10.854-1.1648 1.0059-2.8582 1.6396-5.1348 1.9043-2.2766 0.26474-5.6653 0.42383-10.271 0.42383-3.812 0-6.513-0.0521-8.1543-0.21094-1.6413-0.15883-3.0173-0.52915-4.0762-1.0586-0.84711-0.42356-1.4827-1.0068-1.9062-1.748-0.42354-0.74122-0.68707-1.9058-0.79297-3.4941 0.10589-1.8001 0.36942-2.6998 0.79297-5.5059l3.6016-19.113c0.52945-2.859 1.2178-3.8116 1.959-5.5059 0.74121-1.6942 1.5342-2.9111 2.2754-3.6523 0.79416-0.74122 1.6408-1.3247 2.5938-1.6953 1.2177-0.4765 2.7001-0.7943 4.4473-0.95312s4.6071-0.21094 8.6309-0.21094zm54.902 0c4.3414 0 7.4124 0.10486 9.3184 0.26367 1.8001 0.21178 3.2304 0.68847 4.2363 1.4297 1.006 0.74122 1.1112 2.012 1.1641 4.3945 0 1.7472-0.21102 2.8596-0.6875 6.248l-3.3359 17.631c-1.2707 6.0356-2.4875 8.9475-4.6582 10.854-1.1648 1.0059-2.8601 1.6396-5.1367 1.9043-2.2766 0.26474-5.6653 0.42383-10.271 0.42383-3.812 0-6.5111-0.0521-8.1523-0.21094-1.6413-0.15883-3.0173-0.52915-4.0762-1.0586-0.84711-0.42356-1.4827-1.0068-1.9062-1.748-0.42339-0.74122-0.6891-1.9058-0.79493-3.4941 0.10587-1.8001 0.37135-2.6998 0.79493-5.5059l3.5996-19.113c0.52947-2.859 1.2177-3.8116 1.959-5.5059 0.7412-1.6942 1.5361-2.9111 2.2773-3.6523 0.79416-0.74122 1.6408-1.3247 2.5938-1.6953 1.2177-0.4765 2.7001-0.7943 4.4473-0.95312s4.6052-0.21094 8.6289-0.21094zm-217.38 23.268c1.2574 0 2.3695 0.0808 3.2695 0.39844 1.853 0.63533 2.7535 1.9048 2.8594 3.7578 0.053 1.3766-0.1598 2.1191-0.74219 5.084-0.79416 5.4532-2.3291 7.518-4.5527 8.8945-1.1118 0.74121-2.8588 1.0578-4.9766 1.2695-2.1178 0.26471-14.56 0.26471-16.625 0-2.1178-0.26471-2.858-0.10532-3.7051-0.63477-1.0589-0.953-1.6943-0.95338-1.959-2.8594 0.0529-0.90006 0.15912-2.2761 0.42383-4.0762 0.26473-1.853 0.42166-2.6996 0.47461-2.5938 0.79416-4.5003 1.642-6.4064 3.7598-7.8359 1.853-1.2707 5.612-1.3242 11.859-1.3242h5.7715c1.4824 0 2.8852-0.0801 4.1426-0.0801zm47.055 1.1914c4.1826 0 7.7824 0.0534 9.9531 0.37109 2.0648 0.31767 3.3883 0.79415 3.9707 1.4824 0.68828 0.68828 1.0584 3.1237 1.1113 4.4473 0 1.1648-0.211 2.7535-0.6875 4.8184-0.58239 2.7002-0.90115 4.1293-1.6953 5.5059-0.79417 1.3766-2.169 1.535-3.3867 2.0644-2.5943 0.953-6.354 0.63672-11.172 0.63672-4.6591 0-9.2646-0.0539-11.012-0.26563-2.2766-0.0529-3.9719-0.95297-5.1367-1.4824-1.1648-0.52944-1.4818-1.4295-1.6406-2.9648 0.0529-0.84711 7e-5 -1.4299 0.47656-4.3418 0.52945-2.5413 1.165-4.5004 1.9062-5.877 0.74122-1.4295 1.6926-2.3827 2.8574-2.9121 1.2706-0.63533 2.9119-1.0578 4.9238-1.2695 2.0119-0.21177 5.8252-0.21289 9.5312-0.21289zm-175.4 0.26568-30.973 31.344h49.238zm-1.6406 8.8418 11.488 18.318h-29.543z" style="paint-order:stroke fill markers"/>
  <path transform="scale(.26458)" d="m157.81 105.4c-0.451-2e-3 -0.90945-3e-3 -1.375 2e-3 -23.08 0.2852-22.967 9.9805-22.967 9.9805s-2.3138 9.0708 15.631 10.896c11.004 1.1408 18.847 3.0225 18.791 5.7031-0.0564 2.6808-4.6834 2.5656-6.7148 2.3945-18.001-1.483-24.434-6.5566-24.434-6.5566l-3.8945 8.2676s8.6906 5.4758 26.748 5.3047c18.058-0.1711 20.54-4.5048 20.879-10.322 0.39501-7.2437-9.6484-10.152-9.6484-10.152s-5.5316-1.1972-11.23-2.0527c-6.6023-0.96963-13.428-1.9971-12.582-4.6777 0-0.11406 1.9171-3.8776 15.742-1.2539 6.7151 1.3119 12.584 3.877 12.584 3.877s3.7806-7.0156 3.6113-7.3008c-0.16399-0.27628-7.1593-4.0305-21.141-4.1094zm146.48 0.0527v2e-3c-0.44795-2e-3 -0.90111 3.2e-4 -1.3613 6e-3 -3.7243 0.057-5.0224 0.17182-10.102 0.45703-5.1915 0.28521-10.834 0.91211-10.834 0.91211v33.193h10.777v-27.945s2.6535-0.28593 5.0234-0.45703c2.37-0.1711 2.9889-0.11524 4.7383-0.11524 6.6023 0 11.06 2.1113 10.947 6.0469-0.0564 3.3081-3.5561 5.0176-10.158 5.0176-1.9751 0-4.4568-0.28514-6.4883-0.57032-0.11286 0-2.2559 3.5352-2.2559 3.5352l16.193 14.488h16.195l-14.277-12.434c8.9722-1.54 13.375-5.6466 13.432-10.096 0-8.3434-7.9436-11.978-21.83-12.041zm45.812 8e-3c-3.7243 0-5.0224 0.17182-10.102 0.45703-5.0787 0.28521-10.777 0.91211-10.777 0.91211v33.193h10.777v-12.035c3.555 0.74148 7.6178 1.084 11.906 1.084 14.277 0 20.823-5.1882 20.936-11.576 0.11286-7.7-8.4074-12.035-22.74-12.035zm-167.54 1.3691v33.193h11.23v-13.176h21.613v13.176h11.229v-33.193h-11.229v12.719h-21.613v-12.719zm65.232 0-19.807 33.193h8.5195l4.3457-7.3008h22.402l4.3457 7.3008h13.035l-19.807-33.193h-4.5137zm99.832 4.6699c0.6701-7e-3 1.262 6e-3 2.1367 6e-3 6.6023 0 10.607 2.1113 10.494 6.0469-0.0564 3.3081-3.1008 5.9316-9.7031 5.9316-1.9751 0-5.0231-0.28514-6.998-0.57031-2.0315-0.28521-3.498-0.91211-3.498-0.91211v-9.9238h-0.0566s2.6514-0.28593 5.0215-0.45703c1.185-0.0855 1.9334-0.11395 2.6035-0.1211zm-95.6 2.5156 7.1094 11.92h-14.221z" style="paint-order:stroke fill markers"/>
 </g>
 <style type="text/css">.st0{fill:#FC0C18;}
	.st1{fill:#FC0C18;}</style>
</svg>
