<svg width="480" height="320" version="1.1" viewBox="0 0 480 320" xml:space="preserve" xmlns="http://www.w3.org/2000/svg"><defs><linearGradient id="a" x1="71.4" x2="157.1" y1="320" gradientUnits="userSpaceOnUse"><stop stop-color="#008000" offset="0"/><stop stop-color="#00d455" offset="1"/></linearGradient><style>.cls-1{fill:#000;}</style></defs><rect id="b" width="480" height="320" ry="24" fill="url(#a)"/><path d="m275.2 237.7c-1.76 0-2.959 1.28-2.959 3 0 1.68 1.199 2.959 2.959 2.959 1.8 0 2.961-1.279 2.961-2.959 0-1.72-1.161-3-2.961-3zm-68.48 1.559-4.92 0.5215v25.32c0 3 1.8 4.92 4.68 4.92 1.2 0 2.321-0.3598 3.041-0.7598l-0.9609-3.359c-0.2 0.04-0.5189 0.1602-0.8789 0.1602-0.64 0-0.9609-0.4802-0.9609-1.16zm10.76 0-4.92 0.5215v25.32c0 3 1.802 4.92 4.682 4.92 1.2 0 2.319-0.3598 3.039-0.7598l-0.9609-3.359c-0.2 0.04-0.5189 0.1602-0.8789 0.1602-0.64 0-0.9609-0.4802-0.9609-1.16zm-45.6 1.961c-5.76 0-10.2 4.52-10.2 14.32 0 9.92 4.239 14.48 10.2 14.48 3.2 0 5.601-1.598 7.121-3.318l-2.441-2.801c-1.24 1.04-2.438 2.039-4.318 2.039-3.12 0-5.201-2.638-5.201-10.4 0-7.96 2.161-10.44 5.121-10.44 1.6 0 2.838 0.6809 4.158 1.881l2.441-2.92c-1.92-1.8-3.961-2.84-6.881-2.84zm92.72 1.76-4.92 0.5996v4.68h-2.48v3.561h2.48v12.32c0 3.48 1.839 5.879 5.639 5.879 1.64 0 3.282-0.5186 4.602-1.559l-1.721-3.041c-0.72 0.4-1.199 0.6406-1.959 0.6406-1.12 0-1.641-0.7199-1.641-1.92v-12.32h3.52l0.4805-3.561h-4zm-75.48 4.721c-5.24 0-8.439 3.879-8.439 11.12 0 7.28 3.199 11.2 8.439 11.2s8.439-4.159 8.439-11.2c0-7.52-3.199-11.12-8.439-11.12zm41.4 0c-5.28 0-8.121 4.438-8.121 11.32 0 6.96 3.042 11 8.602 11 2.84 0 5.039-1.079 6.719-2.719l-2.039-2.801c-1.48 1.2-2.72 1.76-4.4 1.76-2.2 0-3.68-1.239-3.92-5.879h10.92c0.04-0.56 0.1191-1.361 0.1191-2.041 0-7.12-2.999-10.64-7.879-10.64zm19.72 0c-5.16 0-8.521 4.158-8.521 11.32 0 7.4 3.28 11 8.6 11 2.28 0 4.161-0.9594 5.721-2.439l-2.199-2.84c-1.16 0.84-2.041 1.32-3.281 1.32-2.16 0-3.639-1.561-3.639-7.121 0-5.6 1.359-7.439 3.639-7.439 1.24 0 2.241 0.4804 3.361 1.4l2.119-2.801c-1.68-1.64-3.479-2.398-5.799-2.398zm40.32 0c-5.24 0-8.439 3.879-8.439 11.12 0 7.28 3.199 11.2 8.439 11.2s8.441-4.159 8.441-11.2c0-7.52-3.201-11.12-8.441-11.12zm22.76 0c-2.4 0-3.878 1.238-5.238 3.318l-0.3613-2.76h-4.279v21.16h4.92v-14.8c1-1.92 2.12-3.16 3.32-3.16 1.04 0 1.639 0.7598 1.639 2.84v15.12h4.92v-15.68c0-3.68-1.88-6.039-4.92-6.039zm-40.56 0.5586v21.16h4.92v-21.16zm-42.2 2.881c2.16 0 3.041 1.76 3.041 5.76v0.2793h-6.24c0.2-4.68 1.359-6.039 3.199-6.039zm-41.44 0.2793c2.2 0 3.32 1.88 3.32 7.4s-1.12 7.439-3.32 7.439-3.32-1.879-3.32-7.439c0-5.48 1.12-7.4 3.32-7.4zm101.4 0c2.2 0 3.32 1.88 3.32 7.4s-1.12 7.439-3.32 7.439-3.318-1.879-3.318-7.439c0-5.48 1.118-7.4 3.318-7.4z" fill="#fff"/><g transform="matrix(.8279 0 0 .8279 50 70)" fill="#fff"><path class="cls-1" d="m443.4 137.4-0.08-0.3-28.2-108.8h-36.07v0.47l14.75 11.34-27.84 97.28-15.56 11.37v0.47h43.27v-0.47l-12.67-10 7.68-28.89h21.28l6.68 29.17-12.32 9.76v0.47h54.64v-0.47zm-51.44-39.78 7.87-29.64h0.56l6.78 29.64z"/><path class="cls-1" d="m362 8.69c0-6-5.94-8.29-12.62-8.29h-6.8v0.06l2.66 1.4v13.66l-2.66 1.4v0.08h6.8c6.85 0 12.62-2.27 12.62-8.3m-11.83-6.58c3.84 0 6.7 2.21 6.7 6.56s-2.86 6.57-6.7 6.57z"/><polygon class="cls-1" points="231 5.53 228.6 7.63 226.4 7.63 226.4 2.06 231.2 2.06 234.8 6.65 234.8 6.65 234.8 0.41 218.8 0.41 218.8 0.46 221.4 1.86 221.4 15.52 218.8 16.92 218.8 16.98 234.8 16.98 234.8 9.58 234.8 9.42 234.8 9.58 231.3 15.32 226.4 15.32 226.4 9.29 228.6 9.29 231 11.51 231.1 11.51 231.1 5.53"/><polygon class="cls-1" points="277.2 5.53 274.8 7.63 272.5 7.63 272.5 2.06 277.4 2.06 280.9 6.65 281 6.65 281 0.41 265 0.41 265 0.46 267.6 1.86 267.6 15.52 265 16.92 265 16.98 281 16.98 281 9.58 281 9.42 280.9 9.58 277.5 15.32 272.5 15.32 272.5 9.29 274.8 9.29 277.2 11.51 277.3 11.51 277.3 5.53"/><polygon class="cls-1" points="315.1 5.53 312.8 7.63 310.5 7.63 310.5 2.06 315.3 2.06 318.9 6.65 319 6.65 319 0.41 302.9 0.41 302.9 0.46 305.6 1.86 305.6 15.52 302.9 16.92 302.9 16.98 319 16.98 319 9.58 319 9.42 318.9 9.58 315.4 15.32 310.5 15.32 310.5 9.29 312.8 9.29 315.1 11.51 315.2 11.51 315.2 5.53"/><polygon class="cls-1" points="398 2.06 402.8 2.06 406.3 6.65 406.4 6.65 406.4 0.4 390.4 0.4 390.4 0.46 393 1.86 393 15.52 390.4 16.92 390.4 16.98 400.6 16.98 400.6 16.92 398 15.52 398 9.55 400.2 9.55 402.6 11.9 402.7 11.9 402.7 5.66 402.6 5.66 400.2 7.9 398 7.9"/><path class="cls-1" d="m293.4 17.38a12.76 12.76 0 0 0 4.62-0.85l2 0.85v-8.23l2.66-1.39v-0.06h-9.69v0.06l2.66 1.39v5.91a4.46 4.46 0 0 1-2.24 0.59c-3.31 0-4.93-2.61-4.93-7s1.7-7 4.93-7c2.41 0 4.43 2.11 6.56 4.52h0.1v-6.17l-2.23 0.93a9.93 9.93 0 0 0-4.44-0.93c-5.53 0-10.06 2.66-10.06 8.69s4.52 8.69 10.06 8.69"/><polygon class="cls-1" points="215.1 1.86 217.8 0.46 217.8 0.4 207.6 0.4 207.6 0.46 210.2 1.86 210.2 7.63 204 7.63 204 1.86 206.7 0.46 206.7 0.4 196.4 0.4 196.4 0.46 199.1 1.86 199.1 15.52 196.4 16.92 196.4 16.98 206.7 16.98 206.7 16.92 204 15.52 204 9.29 210.2 9.29 210.2 15.52 207.6 16.92 207.6 16.98 217.8 16.98 217.8 16.92 215.1 15.52"/><polygon class="cls-1" points="250.6 15.52 247.9 16.92 247.9 16.98 263.4 16.98 263.4 8.28 263.3 8.28 259.4 15.32 255.5 15.32 255.5 1.86 258.3 0.46 258.3 0.4 247.9 0.4 247.9 0.46 250.6 1.86"/><polygon class="cls-1" points="335.6 1.86 335.6 8.21 327.4 0.4 321.3 0.4 321.3 0.46 324 1.86 324 15.52 321.3 16.92 321.3 16.98 330.1 16.98 330.1 16.92 327.4 15.52 327.4 6.18 338.9 17.21 339 17.21 339 1.86 341.7 0.46 341.7 0.4 332.9 0.4 332.9 0.46"/><path class="cls-1" d="m380.4 17.38c5.1 0 9.56-2.67 9.56-8.69s-4.81-8.69-9.56-8.69-9.56 2.67-9.56 8.69 4.46 8.69 9.56 8.69m0-15.65c3.49 0 4.53 2.61 4.53 7s-1.38 7-4.53 7-4.53-2.61-4.53-7 1-7 4.53-7"/><polygon class="cls-1" points="378.2 8.69 380.4 12.12 382.7 8.69 380.4 5.26"/><polygon class="cls-1" points="194.9 6.97 195 6.97 195 0.4 177.4 0.4 177.4 6.97 177.5 6.97 180.7 2.06 183.8 2.06 183.8 15.52 181.1 16.92 181.1 16.98 191.3 16.98 191.3 16.92 188.7 15.52 188.7 2.06 191.7 2.06"/><path class="cls-1" d="m371.8 88.73c0-37.74-18.21-60.46-52.82-60.46h-32.2v0.47l15.56 11.36v97.25l-10.71 7.83v-53.81h-0.48l-17.74 46h-11.85v-97.27l15.56-11.37v-0.47h-131.9v0.47l15.56 11.37v96.38l-33.41 29.4h-77.14l109.6-165.4h-142.2l-17.72 47.25h0.65l40.81-31.58h71.91l-109.9 165.9h142.3l12.3-32.81h160.9c34.62 0 52.82-22.72 52.82-60.46m-46.44-49.22c6 0 23.66 9.82 23.66 49.22s-17.68 49.22-23.66 49.22zm-233.9 26 41.6-51.91-31.22 56.94-10.72 5.33zm-5.76 18.37 1.61 11-12.1 4.86-1.15-11.2zm-26.5 29.12 10.7-5.34-0.34 10.34-41.58 51.94zm164.7 33.53v-55.09h-0.47l-17.38 46h-21.68v-44.09h12.11l12.46 17.08v-44.29l-12.42 15.42h-12.15v-42.82h21.76l17.3 37.5h0.47v-45.36l12.62 9.22v97.25z"/></g></svg>
