<svg width="480" height="320" version="1.1" viewBox="0 0 480 320" xmlns="http://www.w3.org/2000/svg"><defs><linearGradient id="a" x1="240" x2="240" y1="270" y2="-96" gradientUnits="userSpaceOnUse"><stop stop-color="#2c2626" offset="0"/><stop stop-color="#ff2a2a" offset="1"/></linearGradient></defs><rect id="b" width="480" height="320" ry="24" fill="url(#a)"/><path d="m321.7 184.6c-2.809-0.2991-4.406-0.6587-4.831-2.341-0.1349-0.5342-0.1154-1.439-0.1154-1.991v-15.32c0-0.5523 2e-3 -1.448-0.012-2-0.0957-3.854-0.7686-6.47-2.227-8.513-0.3207-0.4493-0.9022-1.134-1.297-1.52-1.854-1.812-4.501-2.876-7.58-3.064-0.5512-0.0337-1.447-0.0332-1.999-6e-3 -4.869 0.2365-8.374 2.249-11.25 6.479-0.3102 0.4569-0.5436 0.3915-0.5436-0.1608v-25.21a0.9359 0.9359 43.1 0 0-0.9978-0.9338l-16.06 1.065a1.069 1.069 133.1 0 0-0.9978 1.066v2.069a1 1 45 0 0 1 1c0.2369 0 0.8768-4e-3 1.429 9e-3 3.51 0.0784 3.856 0.803 3.823 6.734-3e-3 0.5522-8e-3 1.447-8e-3 2v36.63c0 0.5523-0.015 1.449-0.0931 1.996-7e-3 0.0502-0.0147 0.0985-0.0227 0.1451-0.0928 0.5405-0.7315 1.151-1.252 1.334-1.149 0.4052-2.414 0.5313-3.654 0.5949-0.5514 0.0283-0.9988 0.4899-0.9988 1.042v2.069a1 1 45 0 0 1 1h20.95a1 1 135 0 0 1-1v-2.069c0-0.5523-0.4479-0.9968-0.9998-1.015-2.884-0.0931-3.897-0.6568-4.086-2.419-0.0589-0.5487-0.0305-1.446-0.0305-1.999v-9.732c0-0.5523-1e-3 -1.448 9e-3 -2 0.045-2.463 0.2694-4.158 0.7647-5.647 0.1743-0.5238 0.5245-1.351 0.7971-1.831 1.156-2.035 3.078-3.403 5.182-3.735 0.545-0.086 1.448-0.0903 1.991 4e-3 2.613 0.4514 4.112 2.76 4.322 6.741 0.0291 0.5515 0.0255 1.447 0.0255 2v14.52c0 0.5523-0.015 1.449-0.0931 1.996-7e-3 0.0502-0.0147 0.0985-0.0227 0.1451-0.0928 0.5405-0.6531 1.274-1.153 1.5-0.6778 0.3072-1.624 0.4624-2.925 0.481-0.5522 8e-3 -0.9998 0.4377-0.9998 0.99v2.069a1 1 45 0 0 1 1h20.95a1 1 135 0 0 1-1v-2.069c0-0.5523-0.4458-1.042-0.9949-1.101zm15.12-54.57c-2.905 0.4628-5.211 2.915-5.632 5.948-0.0758 0.5466-0.0756 1.447-3e-3 1.994 0.4107 3.083 2.692 5.542 5.484 6.021 0.5436 0.0934 1.446 0.0929 1.992 0.0133 3.026-0.4411 5.313-2.873 5.713-6.034 0.0693-0.5476 0.0695-1.448-6e-3 -1.994-0.419-3.026-2.711-5.474-5.557-5.945-0.5443-0.09-1.447-0.0898-1.991-3e-3zm-294 2.118-0.8131 18.11a0.9561 0.9561 46.29 0 0 0.9552 0.999h1.836c0.5523 0 1.131-0.4282 1.301-0.9536 3.583-11.08 7.957-14.76 17.58-14.78 0.5523-1e-3 1.448 0.0106 2 0.0106h3.568a0.5563 0.5563 60.91 0 1 0.4726 0.8496l-29.12 46.9a3.507 3.507 105.9 0 0-0.5274 1.85v2.628a1 1 45 0 0 1 1h42.61a1.06 1.06 136.7 0 0 1.058-0.9983l1.164-20.03a0.9436 0.9436 46.66 0 0-0.942-0.9983h-1.988c-0.5523 0-1.069 0.4425-1.173 0.9849-0.6598 3.441-1.813 6.316-3.64 9.192-0.2961 0.4662-0.8129 1.198-1.153 1.633-3.545 4.543-6.595 5.793-13.52 5.83-0.5523 3e-3 -1.448-3e-3 -2-3e-3h-4.696a0.5572 0.5572 60.87 0 1-0.4739-0.8504l29.12-47.06a3.517 3.517 105.9 0 0 0.5261-1.85v-2.47a1 1 45 0 0-1-1h-41.11a1.046 1.046 136.3 0 0-1.045 0.999zm74.53 1e-3v2.31a0.9176 0.9176 50.41 0 0 0.8271 1c3.304 0.0435 4.668 0.2156 5.472 0.584 0.4958 0.2272 1.062 0.9866 1.166 1.525 0.1186 0.6153 0.132 1.663 0.1335 4.075 3.4e-4 0.5521 1.9e-4 1.447 1.9e-4 2v26.81c0 0.5523 7e-3 1.448 0.01 2 0.0378 8.953-1.358 11.37-7.138 11.93-0.5497 0.053-0.997 0.5237-0.997 1.076v2.31a1 1 45 0 0 1 1h19.44a1 1 135 0 0 1-1v-2.31c0-0.5523-0.4474-1.023-0.9972-1.074-5.923-0.5532-7.327-2.97-7.289-11.93 2e-3 -0.5523 0.01-1.448 0.01-2v-31.2a0.1645 0.1645 170.7 0 1 0.3203-0.0527l16.44 48.62a1.394 1.394 35.66 0 0 1.32 0.9473h1.912a1.375 1.375 144 0 0 1.308-0.9513l16.01-49.41a0.158 0.158 8.977 0 1 0.3082 0.0487v37.83c0 0.5523 1.5e-4 1.448-1.9e-4 2-2e-3 2.413-0.0149 3.46-0.1336 4.075-0.1038 0.5377-0.6814 1.284-1.177 1.514-0.8064 0.3746-2.143 0.5486-4.459 0.5848-0.5522 9e-3 -1.371 7e-3 -1.829 7e-3v3.31a1 1 45 0 0 1 1h26.74a1 1 135 0 0 1-1v-2.31a0.9185 0.9185 50.34 0 0-0.8291-1c-3.316-0.0436-4.653-0.2176-5.459-0.5922-0.4959-0.2303-1.081-0.9735-1.179-1.511-0.1165-0.6333-0.1298-1.717-0.1314-4.079-3.6e-4 -0.5522-2e-4 -1.447-2e-4 -2v-32.64c0-0.5523-1.6e-4 -1.448 2e-4 -2 2e-3 -2.362 0.0149-3.446 0.1314-4.079 0.0989-0.5374 0.6835-1.28 1.179-1.511 0.8064-0.3751 2.143-0.55 4.459-0.5865 0.5522-9e-3 1.371-7e-3 1.829-7e-3v-3.31a1 1 45 0 0-1-1h-22.53a1.37 1.37 143.9 0 0-1.305 0.9524l-10.38 32.41a0.3299 0.3299 179.5 0 1-0.6266 6e-3l-11.02-32.42a1.396 1.396 35.61 0 0-1.322-0.9468h-22.23a1 1 135 0 0-1 1zm93.5 17.69c-9.263 0.2395-15.43 3.821-16.1 9.285-0.0667 0.5479-0.0684 1.448 0.0146 1.994 0.3965 2.605 2.345 4.535 5.023 4.92 0.5462 0.0784 1.446 0.0773 1.994 9e-3 2.636-0.329 4.608-1.955 5.07-4.135 0.1142-0.5393 0.1078-1.447-0.018-1.983-0.0919-0.392-0.2349-0.7919-0.4247-1.182-0.2414-0.496-0.8003-1.205-1.069-1.688-0.1452-0.2607-0.0907-1.02 0.2597-1.432 0.6844-0.8044 2.24-1.437 4.117-1.606 0.5499-0.0495 1.447-0.0506 1.998-9e-3 3.576 0.2702 5.046 2.112 5.227 6.547 0.0226 0.5518 0.0195 1.447 0.0195 2v2.15c0 0.5523-0.4356 1.104-0.9717 1.236-0.6217 0.154-1.522 0.3755-2.718 0.6555-0.5376 0.1258-1.411 0.3225-1.95 0.4443-3.518 0.7951-5.256 1.273-7.714 2.152-0.5206 0.1863-1.363 0.4903-1.879 0.689-5.9 2.274-8.682 5.281-9.033 9.75-0.0432 0.5504-0.0435 1.448 4e-3 1.998 0.4332 5.033 4.201 8.034 10.55 8.316 0.5517 0.0245 1.448 0.0235 2 9e-3 5.516-0.1444 9.123-1.531 12.67-4.945 0.3977-0.3832 0.8514-0.283 1.086 0.2168 1.279 2.726 3.589 4.393 6.596 4.692 0.5493 0.0546 1.448 0.0541 1.996-8e-3 3.479-0.3963 6.558-2.806 7.169-5.574 0.1188-0.5382 0.0504-1.48-0.3164-1.886-0.3404-0.3769-0.7906-0.378-1.291-0.2203-0.5262 0.1658-1.257 0.7266-1.783 0.8877-0.2994 0.0917-1.056 0.1324-1.53-0.1393-0.7613-0.4368-1.015-1.662-1.057-4.54-8e-3 -0.5522-7e-3 -1.448-7e-3 -2v-12.05c0-0.5523 2e-3 -1.448-0.0122-2-0.1036-4.042-0.8765-6.309-2.8-8.29-0.3847-0.3961-1.068-0.9778-1.524-1.289-2.66-1.813-6.648-2.855-11.59-2.978-0.5521-0.0137-1.448-0.0138-2 5.1e-4zm45.81 6e-3c-11.62 0.4347-19.95 8.447-20.42 19.65-0.023 0.5518-0.023 1.448-5.2e-4 1.999 0.4394 10.78 8.004 18.05 19.22 18.45 0.5519 0.02 1.448 0.0204 2-2e-5 4.658-0.1722 7.956-1.587 10.89-4.668 0.381-0.3998 0.9757-1.07 1.327-1.496 1.605-1.946 2.634-3.984 3.562-6.83 0.1712-0.5251-0.1244-1.101-0.6463-1.282l-2.024-0.7012c-0.5219-0.1808-1.094 0.0949-1.289 0.6118-0.6951 1.846-1.247 2.961-1.953 4.059-0.2989 0.4645-0.8158 1.198-1.18 1.613-1.603 1.829-3.843 2.985-6.283 3.234-0.5492 0.056-1.447 0.0572-1.997-2.8e-4 -5.343-0.5588-8.405-5.691-8.62-14.43-0.0136-0.5521-0.0136-1.448 2.4e-4 -2 0.2104-8.398 3.099-13.43 7.943-14.02 0.5478-0.0676 1.448-0.0688 1.994 9e-3 1.165 0.1667 2.11 0.6222 2.584 1.241 0.3296 0.4305 0.2305 1.37-0.0866 1.807-0.2238 0.3081-0.6698 0.9194-0.9663 1.385-0.5554 0.8729-0.7979 1.455-0.8932 2.161-0.0737 0.5469-0.0634 1.449 0.0208 1.994 0.3997 2.586 2.361 4.411 5.098 4.766 0.5473 0.0711 1.447 0.0705 1.995 8e-3 3.175-0.3637 5.287-2.488 5.643-5.729 0.0602-0.5487 0.0588-1.447 8e-3 -1.997-0.5416-5.811-5.848-9.555-13.93-9.839-0.5519-0.0194-1.448-0.0194-2 1e-3zm126.5 4e-3c-5.096 0.2406-8.545 2.389-11.85 7.357-0.306 0.4597-0.5415 0.3929-0.5415-0.1594v-5.023a0.9681 0.9681 44.07 0 0-0.9995-0.9676l-15.23 0.4939a1.033 1.033 134.1 0 0-0.9995 1.032v2.069a1 1 45 0 0 1 1c0.0696 0 0.5738 4e-3 1.126 0.0258 3.508 0.1374 3.856 0.859 3.824 6.717-3e-3 0.5522-8e-3 1.447-8e-3 2v17.2c-0.0996 1.046-0.1071 1.094-0.115 1.14-0.092 0.5406-0.7339 1.141-1.246 1.347-1.357 0.5453-2.358 0.6149-3.581 0.6236-0.5517 4e-3 -0.999 0.4494-0.999 1.002v2.069a1 1 45 0 0 1 1h20.95a1 1 135 0 0 1-1v-2.069c0-0.5523-0.4479-0.9969-0.9999-1.014-2.947-0.0914-3.972-0.6539-4.163-2.42-0.0593-0.5486-0.0308-1.446-0.0308-1.999v-9.731c0-0.5523-1e-3 -1.448 9e-3 -2 0.0457-2.469 0.2759-4.166 0.8135-5.657 0.1873-0.5193 0.5514-1.34 0.8238-1.82 1.15-2.027 3.057-3.392 5.107-3.731 0.5444-0.0899 1.447-0.0936 1.991-4e-3 2.689 0.4424 4.252 2.753 4.47 6.745 0.0302 0.5514 0.0265 1.447 0.0265 2v14.52c0 0.5523-0.015 1.449-0.0926 1.996-7e-3 0.05-0.0146 0.0982-0.0225 0.1447-0.0921 0.5406-0.6519 1.274-1.152 1.501-0.6773 0.3071-1.623 0.4622-2.923 0.4809-0.5522 8e-3 -0.9998 0.4378-0.9998 0.99v2.069a1 1 45 0 0 1 1h20.95a1 1 135 0 0 1-1v-2.069c0-0.5523-0.4467-1.031-0.9961-1.088-2.648-0.2744-4.325-0.824-4.806-2.358-0.1646-0.5251-0.1432-1.434-0.1432-1.986v-15.32c0-0.5523 2e-3 -1.448-0.012-2-0.0955-3.854-0.767-6.47-2.225-8.513-0.3207-0.4494-0.9021-1.134-1.297-1.52-1.858-1.816-4.517-2.88-7.654-3.066-0.5512-0.0325-1.447-0.0322-1.999-6e-3zm37.98-4e-3c-5.278 0.2026-9.671 2.025-13.13 5.41-0.3944 0.3865-0.9987 1.048-1.347 1.477-2.791 3.435-4.521 7.944-4.742 12.53-0.0267 0.5516-0.0266 1.448-8.2e-4 1.999 0.2348 5.024 2.223 9.89 5.355 13.15 0.3828 0.398 1.047 0.9998 1.48 1.343 3.203 2.538 7.552 4.027 12.45 4.206 0.5519 0.02 1.448 0.0203 2-2.6e-4 7.928-0.2947 13.3-4.146 16.53-11.74 0.2161-0.5082-0.0346-1.104-0.5414-1.324l-1.85-0.8012c-0.5068-0.2195-1.111 7e-3 -1.365 0.4969-2.684 5.181-5.656 7.603-9.842 7.926-0.5505 0.0424-1.448 0.043-1.997-0.0121-2.72-0.2728-5.102-1.661-6.789-3.913-0.3311-0.4418-0.797-1.209-1.035-1.707-0.8573-1.797-1.268-3.939-1.383-7.297-0.0189-0.552 0.4227-0.9997 0.975-0.9997h23.2a1 1 135 0 0 1-1c0-0.1523 2e-3 -0.7236-0.0166-1.276-0.3668-10.96-6.795-18.02-16.96-18.45-0.5517-0.0234-1.448-0.0232-1.999-2e-3zm-78.15 1.21-15.68 0.4956a1.032 1.032 134.1 0 0-0.9995 1.032v2.069a1 1 45 0 0 1 1c0.03 0 0.5021 4e-3 1.054 0.0263 3.43 0.1373 3.785 0.847 3.813 6.476 3e-3 0.5522 2e-3 1.447 2e-3 2v17.44c-0.1003 1.046-0.1079 1.094-0.1159 1.141-0.0928 0.5405-0.731 1.149-1.242 1.358-1.305 0.5351-2.322 0.604-3.513 0.6122-0.5517 4e-3 -0.999 0.449-0.999 1.001v2.069a1 1 45 0 0 1 1h21.55a1 1 135 0 0 1-1v-2.069c0-0.5523-0.4472-1.026-0.9966-1.081-2.543-0.2566-4.225-0.862-4.719-2.367-0.1718-0.5226-0.1515-1.432-0.1515-1.984v-28.25a0.9689 0.9689 44.1 0 0-0.9995-0.9684zm80.37 2.999c3.067 0.5066 4.741 3.45 4.929 8.578 0.0203 0.5519 0.0383 1.452-0.0481 1.997-0.1228 0.7746-0.4257 1.214-0.9801 1.417-0.5158 0.1894-1.432 0.1415-1.985 0.1415h-9.284c-0.5523 0-1.002-0.4479-0.9829-0.9998 0.2228-6.434 2.615-10.53 6.359-11.13 0.5446-0.0884 1.447-0.09 1.992-1.1e-4zm-329.1 6.589v8.374a1 1 45 0 0 1 1h16.73a1 1 135 0 0 1-1v-8.374a1 1 45 0 0-1-1h-16.73a1 1 135 0 0-1 1zm122.7 10.37v2.47c0 0.5523 3e-3 1.448-0.024 2-0.2495 5.095-2.427 8.45-5.901 8.982-0.5454 0.0834-1.449 0.086-1.991-0.0145-2.082-0.3859-3.466-2.009-3.761-4.419-0.0671-0.5478-0.0657-1.447-0.0138-1.996 0.3248-3.441 2.414-5.523 6.741-6.8 0.5296-0.1563 1.4-0.3671 1.937-0.4964l2.041-0.4913a0.7879 0.7879 38.23 0 1 0.9722 0.766z" fill="#fff"/></svg>
