<svg width="480" height="320" version="1.1" viewBox="0 0 127 84.667" xmlns="http://www.w3.org/2000/svg">
 <defs>
  <linearGradient id="a" x1="122.3" x2="-.526" y1="71.438" y2="13.229" gradientUnits="userSpaceOnUse">
   <stop stop-color="#a10705" offset="0"/>
   <stop stop-color="#c6262e" offset="1"/>
  </linearGradient>
 </defs>
 <rect width="127" height="84.667" ry="4.2333" fill="url(#a)" stroke-linecap="square" stroke-linejoin="round" stroke-width=".52917" style="paint-order:stroke fill markers"/>
 <style type="text/css">.st0{fill:#FC0C18;}
	.st1{fill:#FC0C18;}</style>
 <g transform="translate(0 -.39149)" fill="#fafafa">
  <g transform="translate(-1.5e-6,-6.6352)">
   <path d="m29.031 27.601v3.0099h3.8838v-3.0099zm65.054 0v3.0099h3.8838v-3.0099zm-23.303 0.44375v14.499h3.8838v-14.499zm-60.199 3.5273v6.9908h13.593v0.97095h-13.593v3.0099h17.477v-6.9908h-13.593v-0.97095h13.593v-3.0099zm23.303 0v10.972h3.8838v-7.9618h9.7095v7.9618h3.8838v-10.972zm18.448 0v10.972h17.477v-3.0099h-13.593v-4.9518h13.593v-3.0099zm23.303 0v3.0099h13.593v0.97095h-13.593v6.9908h17.477v-10.972zm23.303 0v10.972h3.8838v-7.9617h13.593v-3.0099zm-69.908 0.0098v10.962h3.8838v-10.962zm65.054 0v10.962h3.8838v-10.962zm-14.564 6.981h9.7095v0.97095h-9.7095z" fill="#fafafa" stroke-linecap="round" stroke-width="3.0315" style="paint-order:stroke fill markers"/>
  </g>
  <path transform="matrix(.26458 0 0 .26458 -.00025 0)" d="m288.2 155.72c-15.173 0-26.316 9.7859-26.316 23.17 0 9.4525 5.5376 17.15 13.457 18.906v0.66797c-9.0758 1.673-16.119 10.289-16.119 20.912 0 13.928 12.194 24.344 28.979 24.344s28.98-10.416 28.98-24.344c0-10.624-7.1835-19.239-16.119-20.912v-0.66797c7.7792-1.7566 13.455-9.4538 13.455-18.906 0-13.342-11.143-23.17-26.316-23.17zm-168.16 1.1699v16.814h34.83l-34.865 57.049v11.795h56.768v-16.814h-34.832l34.867-57.049v-11.795zm65.387 0 21.691 42.83-22.252 42.828h19.764l13.455-27.354h0.5625l13.455 27.354h19.904l-22.357-42.828 21.656-42.83h-19.414l-13.244 27.061h-0.5625l-13.105-27.061zm158.49 0-17.697 13.133v17.902l16.049-11.711h0.42187v66.334h17.311v-85.658zm-55.717 14.012c5.5015 0 9.3906 4.2671 9.3906 10.248 0 6.1064-3.9592 10.455-9.3906 10.455-5.4665 0-9.3906-4.3904-9.3906-10.455 0-6.0228 3.8891-10.248 9.3906-10.248zm0 35.301c6.2374 0 10.793 4.8518 10.793 11.502 0 6.6084-4.4504 11.334-10.793 11.334-6.3776 0-10.793-4.7674-10.793-11.334 0-6.692 4.5556-11.502 10.793-11.502z" stroke-width="2.6951"/>
 </g>
</svg>
