<svg width="480" height="320" version="1.1" viewBox="0 0 480 320" xml:space="preserve" xmlns="http://www.w3.org/2000/svg"><defs><linearGradient id="a" x1="122.3" x2="-.526" y1="71.44" y2="13.23" gradientTransform="scale(3.78)" gradientUnits="userSpaceOnUse"><stop stop-color="#a10705" offset="0"/><stop stop-color="#c6262e" offset="1"/></linearGradient></defs><rect width="480" height="320" ry="24" fill="url(#a)"/><path d="m111.2 95.46v9.729h12.29v-9.729h-12.29zm157.8 0v54.09h12.29v-54.09h-12.29zm87.64 0v9.729h12.29v-9.729h-12.29zm-316.5 13.34v2.676h-0.1035v12.83 9.729 0.1367h12.29v-0.1367h43.27v5.793h-55.46v9.719h55.46 12.29 0.1055v-9.719h-0.1055v-5.793-9.729-0.1348h-12.29v0.1348h-43.27v-5.791h55.67v-9.719h-67.86zm71.11 0v40.76h12.29v-40.76h-12.29zm15.54 0v9.719 31.03h12.29v-31.03h43.27v31.03h12.29v-31.03-9.719h-12.29-43.27-12.29zm71.1 0v9.719 21.31 9.719h12.29 55.55v-9.719h-55.55v-21.31h55.55v-9.719h-55.55-12.29zm86.65 0v9.729h56.1v5.781h-56.1v0.5215 9.207 5.793 9.729h12.29 43.81 0.459 11.28 0.5527 0.457v-40.76h-0.457-0.5527-11.28-0.459-56.1zm72.1 0v40.76h12.29v-40.76h-12.29zm15.54 0v9.719 31.03h12.29v-31.03h55.56v-9.719h-55.56-12.29zm-75.36 25.24h43.81v5.793h-43.81v-5.793zm-141.2 29.03v11.15h29.8l-32.33 38.67v10.47h50.82v-11.14h-33.18l32.33-38.67v-10.47h-47.45zm51.58 0 18.06 28.71-19.63 31.57h13.89l12.49-20.85 12.25 20.85h14.69l-19.55-31.49 17.98-28.79h-13.51l-11.38 19.25-10.99-19.25h-14.29zm75.71 0c-9.812 0-20.32 5.491-20.32 16.14 0 5.823 3.021 10.55 8.875 12.16v0.166c-7.062 1.688-11.36 7.011-11.36 14.52 0 12.75 11.28 18.49 22.91 18.49 11.2 0 22.56-6.156 22.56-18.57 0-7.427-4.135-12.83-11.28-14.44v-0.166c5.677-1.865 8.781-6.595 8.781-12.42 0-5.74-5.167-15.88-20.16-15.88zm30.72 0v60.28h13.26v-60.28h-13.26zm-30.72 9.031c7.573 0 9.041 5.146 9.041 8.188 0 5.073-4.041 7.771-9.041 7.771-4.906 0-9.208-2.615-9.219-7.771 0-5.229 4.312-8.188 9.219-8.188zm0.09375 23.99c5.688 0 10.33 3.803 10.33 9.459 0 5.906-4.478 9.957-10.33 9.957-5.865 0-10.69-3.968-10.68-10.04 0-6.083 4.74-9.375 10.68-9.375z" fill="#fff"/></svg>
