<svg width="480" height="320" version="1.1" viewBox="0 0 480 320" xml:space="preserve" xmlns="http://www.w3.org/2000/svg"><defs><linearGradient id="a" x1="79.64" x2="46.32" y1="105" y2="-19.4" gradientTransform="scale(3.78)" gradientUnits="userSpaceOnUse"><stop stop-color="#3a9104" offset="0"/><stop stop-color="#269c8c" offset=".6303"/><stop stop-color="#3689e6" offset="1"/></linearGradient></defs><rect width="480" height="320" ry="24" fill="url(#a)"/><path d="m235.1 94.9 15.98 22.48v44.37h11.33v-28.43l3.663 5.154h-0.6683v23.27h17.21l45.04 63.36h112.4l-65.38-91.97h34.14v-8.967h-40.51l-20.81-29.27h-84.87zm3.868 1.995h25.03l19.38 27.27h-17.98v8.967h24.35l3.796 5.339h-25.03l-6.112-8.598v-18h-11.33v2.06zm27.48 0h25.02l19.39 27.27h-25.02zm27.47 0h25.03l12.93 18.2v5.748h4.086l2.365 3.328h-6.442v26.15l-2.997-4.216v-21.94h-15.59zm27.48 0h25.02l19.39 27.27h-19.59v7.652l-2.997-4.216v-3.435h-2.441l-2.365-3.328h4.797v-8.967h-11.17zm-215.7 14.98v8.967h11.33v-8.967zm-65.56 12.29v2.476h-0.09352v20.92h11.33v-0.1247h39.89v5.339h-51.13v8.967h62.55v-8.967h-0.0935v-14.43h-11.33v0.1247h-39.89v-5.339h51.31v-8.967zm65.56 0v37.58h11.33v-37.58zm14.32 0v37.58h11.33v-28.61h39.89v28.61h11.33v-37.58h-51.22zm65.55 0v37.58h62.55v-8.967h-51.22v-19.64h51.22v-8.967h-51.22zm157.7 6.878 2.997 4.216v26.48h11.33v-10.54l6.256 8.801 44.85 63.11h-25.02l-43.62-61.37h3.207zm-51.02 2.089h24.93v5.339h-21.13zm65.35 0h14.63l63.96 89.98h-25.03l-53.56-75.35zm-80.81 14.31h23.18l3.794 5.339h-25.03l-1.945-2.736zm25.63 0h14.77v5.339h-10.98zm26.53 2.106 2.997 4.216v7.983h5.676l43.62 61.37h-25.03l-43.62-61.37h16.36zm-43.83 12.2h25.03l43.62 61.37h-25.02zm-170.6 15.26c-5.65 0-11.7 3.069-11.7 9.475 0 5.878 4.697 7.681 9.341 8.904 4.603 1.223 9.298 1.794 9.298 5.173 0 3.193-3.679 3.899-6.095 3.899-3.677 0-6.92-1.615-6.925-5.775h-6.666c-0.0829 7.713 6.406 11.13 13.33 11.13 8.5 0 13.02-4.301 13.02-10.04 0-7.101-7.017-8.552-9.298-9.123-7.847-2.021-9.341-2.321-9.341-4.737 0-2.633 2.539-3.556 4.737-3.556 3.286 0 5.961 0.9633 6.178 4.737h6.666c-2e-5 -7.236-6.011-10.09-12.54-10.09zm-45.86 0.7462 10.09 14.91-10.98 16.41h7.765l6.975-10.83 6.843 10.83h8.199l-10.92-16.36 10.04-14.96h-7.546l-6.354 10.01-6.138-10.01zm-27.14 0.0117v5.783h15.48l-16.79 20.08v5.432h26.39v-5.785h-17.23l16.79-20.07v-5.442zm163.5 1.833v6.802h-3.774v4.166h3.774v13.37c0 4.509 3.338 5.389 7.153 5.389 1.223 0 2.58-0.042 3.638-0.2182v-4.871c-0.6531 0.1348-1.274 0.1754-1.927 0.1754-2.104 0-2.634-0.528-2.634-2.632v-11.23h4.561v-4.168h-4.561v-6.79zm-62.09 6.178c-2.799 0-5.257 1.09-6.749 3.505h-0.0818v-2.893h-5.919v30.65h6.219v-10.79h0.0838c1.493 2.239 4.084 3.421 6.8 3.421 6.614 0 9.951-5.65 9.951-11.7 0-6.448-3.202-12.19-10.3-12.19zm23.21 0c-6.883 0-11.58 5.173-11.58 11.97 0 7.018 4.427 11.93 11.58 11.93 5.131 0 8.863-2.281 10.62-7.63h-5.483c-0.3939 1.399-2.416 2.934-4.914 2.934-3.462 0-5.39-1.794-5.567-5.744h16.36c0.4354-6.977-3.286-13.47-11.01-13.47zm64.58 0c-3.027 0-6.096 1.97-7.236 4.82h-0.0818v-4.209h-5.929v22.67h6.229v-10.22c0-3.991 1.576-7.277 6.138-7.277 0.7464 0 1.669 0.0835 2.239 0.2182v-5.785c-0.3939-0.1348-0.9227-0.2182-1.358-0.2182zm40.25 0c-2.934 0-5.297 1.359-6.925 3.681h-0.0838v-3.069h-5.888v22.66h6.231v-13.16c0-4.426 2.985-5.214 4.209-5.214 3.95 0 3.774 3.027 3.774 5.66v12.72h6.229v-12.63c0-2.851 0.6639-5.744 4.168-5.744 3.556 0 3.815 2.499 3.815 5.526v12.85h6.229v-15.18c0-5.878-3.472-8.117-8.293-8.117-3.162 0-5.524 1.805-6.841 3.774-1.234-2.716-3.774-3.774-6.625-3.774zm-80.58 0.0117c-7.37 0-11.58 5.214-11.58 12.27 0 6.8 4.603 11.62 11.45 11.62 5.961 0 10.13-3.296 10.92-9.298h-6.013c-0.3939 2.757-2.063 4.602-4.955 4.602-3.898 0-5.173-3.898-5.173-7.143 0-3.338 1.317-7.371 5.308-7.371 2.581 0 4.208 1.359 4.602 3.899v0.01h6.106c-0.3939-5.784-5.307-8.593-10.66-8.593zm42.82 0.6001v13.94c0 5.608 1.668 9.341 8.293 9.341 2.623 0 5.349-1.234 6.925-3.774h0.1364v3.162h5.917v-22.67h-6.229v11.88c0 4.603-1.441 6.49-4.82 6.49-2.892-1e-5 -3.99-1.835-3.99-5.567v-12.8zm-91.65 4.084c3.991 0 5.442 3.723 5.442 7.32 0 3.68-1.305 7.194-5.389 7.194-4.043 0-5.444-3.514-5.444-7.194 0-3.68 1.317-7.32 5.391-7.32zm24.39 0c3.027 0 4.385 1.659 4.955 4.82h-10.13c0.0829-1.752 1.224-4.82 5.173-4.82z" fill="#fff"/></svg>
