<svg width="480" height="320" version="1.1" viewBox="0 0 127 84.667" xmlns="http://www.w3.org/2000/svg" xmlns:xlink="http://www.w3.org/1999/xlink">
 <defs>
  <linearGradient id="a" x1="143.87" x2="-33.224" y1="37.693" y2="17.994" gradientUnits="userSpaceOnUse">
   <stop stop-color="#3a9104" offset="0"/>
   <stop stop-color="#28bca3" offset=".5414"/>
   <stop stop-color="#3689e6" offset="1"/>
  </linearGradient>
 </defs>
 <rect width="127" height="84.667" ry="4.2333" fill="url(#a)" stroke-linecap="square" stroke-linejoin="round" stroke-width=".52917" style="paint-order:stroke fill markers"/>
 <g transform="translate(0 5.1424)">
  <g transform="matrix(.68373 0 0 .68373 -2.0742 7.469)">
   <g fill="#fafafa">
    <polygon transform="matrix(.23488 0 0 .23488 32.405 23.075)" points="427.63 65.919 491.24 2.301 455.04 2.301 391.43 65.919" fill-opacity=".4"/>
    <polygon transform="matrix(.23488 0 0 .23488 32.386 23.075)" points="527.53 2.301 491.32 2.301 427.71 65.919 463.92 65.919" fill-opacity=".6"/>
    <polygon transform="matrix(.23488 0 0 .23488 32.374 23.075)" points="563.78 2.301 527.58 2.301 463.97 65.919 500.18 65.919" fill-opacity=".8"/>
    <polygon transform="matrix(.23488 0 0 .23488 32.37 23.075)" points="600 2.301 563.8 2.301 500.19 65.919 536.39 65.919"/>
   </g>
   <g transform="matrix(1 0 0 1 7.9295 -3.9851)">
    <path d="m29.031 27.601v3.0099h3.8838v-3.0099zm65.054 0v3.0099h3.8838v-3.0099zm-23.303 0.44375v14.499h3.8838v-14.499zm-60.199 3.5273v6.9908h13.593v0.97095h-13.593v3.0099h17.477v-6.9908h-13.593v-0.97095h13.593v-3.0099zm23.303 0v10.972h3.8838v-7.9618h9.7095v7.9618h3.8838v-10.972zm18.448 0v10.972h17.477v-3.0099h-13.593v-4.9518h13.593v-3.0099zm23.303 0v3.0099h13.593v0.97095h-13.593v6.9908h17.477v-10.972zm23.303 0v10.972h3.8838v-7.9617h13.593v-3.0099zm-69.908 0.0098v10.962h3.8838v-10.962zm65.054 0v10.962h3.8838v-10.962zm-14.564 6.981h9.7095v0.97095h-9.7095z" fill="#fafafa" stroke-linecap="round" stroke-width="3.0315" style="paint-order:stroke fill markers"/>
   </g>
  </g>
  <g fill="#fafafa" stroke-width=".29884">
   <path d="m10.583 48.238h6.6498v-1.7647h-4.0802l4.0843-5.9876v-1.2379h-6.6498v1.7647h4.0802l-4.0843 5.9876z"/>
   <path d="m20.537 39.247h-2.2905l2.5409 4.4951-2.6065 4.4951h2.3151l1.5762-2.8709h0.06568l1.5762 2.8709h2.3315l-2.6189-4.4951 2.5368-4.4951h-2.2741l-1.5516 2.8402h-0.06568z"/>
   <path d="m34.05 41.943h1.9457c-0.01642-1.6813-1.2684-2.8182-3.2223-2.8182-1.921 0-3.3044 1.1194-3.292 2.7919-0.0041 1.3652 0.89074 2.1334 2.3438 2.489l0.87842 0.21949c0.92358 0.22827 1.3382 0.49604 1.3464 1.0009-0.0082 0.54872-0.48847 0.93063-1.3053 0.93063-0.89895 0-1.49-0.44776-1.5352-1.3125h-1.9457c0.02463 2.1027 1.3915 3.108 3.5055 3.108 2.0934 0 3.3331-1.014 3.3413-2.7217-0.0082-1.4355-0.91537-2.3134-2.5737-2.7041l-0.72244-0.17559c-0.76349-0.17559-1.2479-0.44776-1.2314-0.98331 0.0041-0.49165 0.39816-0.84722 1.1863-0.84722 0.79222 0 1.2273 0.38191 1.2807 1.0228z"/>
   <path d="m37.141 50.766h2.0072v-3.6216h0.04105c0.2545 0.62335 0.82096 1.1896 1.7733 1.1896 1.3956 0 2.5203-1.1677 2.5203-3.4635 0-2.3793-1.1904-3.4635-2.508-3.4635-0.99746 0-1.5434 0.62335-1.7856 1.2423h-0.06157v-1.1545h-1.9867zm1.9662-5.8998c0-1.1018 0.4269-1.7822 1.1617-1.7822 0.74297 0 1.1534 0.69797 1.1534 1.7822 0 1.0887-0.41048 1.7954-1.1534 1.7954-0.73476 0-1.1617-0.70236-1.1617-1.7954z"/>
   <path d="m47.485 48.365c1.6542 0 2.742-0.856 2.9719-2.1817l-1.8431-0.05706c-0.15598 0.44776-0.56646 0.68919-1.0919 0.68919-0.7717 0-1.2479-0.54872-1.2479-1.374v-0.05706h4.2033v-0.53555c0-2.2212-1.2643-3.4416-3.054-3.4416-1.9046 0-3.1279 1.3959-3.1279 3.4855 0 2.1598 1.2068 3.4723 3.1894 3.4723zm-1.2109-4.2273c0.02873-0.67163 0.52541-1.1808 1.1904-1.1808 0.66087 0 1.137 0.49165 1.1452 1.1808z"/>
   <path d="m54.451 48.365c1.7733 0 2.8734-1.1018 2.9267-2.7699h-1.8759c-0.07389 0.71553-0.47616 1.1062-1.0262 1.1062-0.70602 0-1.1658-0.63652-1.1658-1.8349 0-1.1896 0.46384-1.8261 1.1658-1.8261 0.57467 0 0.94821 0.41703 1.0262 1.1062h1.8759c-0.04515-1.6593-1.1781-2.7392-2.9308-2.7392-1.9826 0-3.1812 1.4135-3.1812 3.4811 0 2.0588 1.1904 3.4767 3.1853 3.4767z"/>
   <path d="m61.967 41.495h-1.137v-1.6154h-2.0072v1.6154h-0.83327v1.5803h0.83327v3.2792c-0.01231 1.3652 0.81685 2.05 2.233 1.9798 0.48436-0.02634 0.83327-0.13169 1.0262-0.19315l-0.30375-1.5496c-0.0862 0.02194-0.28734 0.06584-0.43921 0.06584-0.32428 0-0.50899-0.14047-0.50899-0.53994v-3.0421h1.137z"/>
   <path d="m62.993 48.238h2.0072v-3.6611c0-0.80333 0.53362-1.3433 1.252-1.3433 0.23808 0 0.5952 0.0439 0.78812 0.11413v-1.8656c-0.1683-0.04828-0.37764-0.07902-0.56236-0.07902-0.6896 0-1.2396 0.4302-1.4695 1.3213h-0.06568v-1.2291h-1.9498z"/>
   <path d="m71.929 45.327c0 0.78577-0.46795 1.2247-1.0631 1.2247-0.61572 0-0.99336-0.44776-0.99746-1.1808v-3.8762h-2.0072v4.2976c0.0041 1.5232 0.87022 2.5329 2.1673 2.5329 0.9441 0 1.646-0.51799 1.9251-1.3433h0.06568v1.2555h1.9128v-6.7427h-2.0031z"/>
   <path d="m75.209 48.238h2.0072v-3.9903c0-0.66724 0.36533-1.0931 0.89074-1.0931 0.52131 0 0.86611 0.39069 0.86611 1.014v4.0693h1.9293v-4.0254c0-0.6453 0.33249-1.0579 0.88663-1.0579 0.50899 0 0.87022 0.36435 0.87022 1.036v4.0474h2.0072v-4.539c0-1.4267-0.82096-2.2915-2.0113-2.2915-0.93179 0-1.6665 0.52238-1.9005 1.3257h-0.06568c-0.1683-0.80772-0.84559-1.3257-1.7199-1.3257-0.86201 0-1.5188 0.50482-1.7815 1.3257h-0.06978v-1.2379h-1.9087z"/>
  </g>
 </g>
 <style type="text/css">.st0{fill:#FC0C18;}
	.st1{fill:#FC0C18;}</style>
</svg>
