<svg width="72" height="72" version="1.1" xmlns="http://www.w3.org/2000/svg"><g transform="scale(3)" stroke-opacity=".5"><path d="m3 6c-0.554 0-1 2.453-1 5.5s0.446 5.5 1 5.5h18c0.3873 0 0.7127-1.237 0.8789-3h1.619c0.2781 0 0.502-1.115 0.502-2.5s-0.2238-2.5-0.502-2.5h-1.619c-0.1662-1.763-0.4916-3-0.8789-3zm0.6328 1h16.73c0.3508 0 0.6328 2.007 0.6328 4.5s-0.282 4.5-0.6328 4.5h-16.73c-0.3508 0-0.6328-2.007-0.6328-4.5s0.282-4.5 0.6328-4.5zm18.31 3h0.9043c0.0831 0 0.1504 0.669 0.1504 1.5s-0.06729 1.5-0.1504 1.5h-0.9043c0.02547-0.4865 0.05469-0.9672 0.05469-1.5s-0.02922-1.013-0.05469-1.5z" fill="#fff" stop-color="#000000" style="font-variation-settings:normal"/><path class="warning" d="m4.336 8c-0.1858 0-0.3359 1.561-0.3359 3.5s0.1501 3.5 0.3359 3.5h3.328c0.1858 0 0.3359-1.561 0.3359-3.5s-0.1501-3.5-0.3359-3.5z" fill="#f9c440" stop-color="#000000" style="font-variation-settings:normal"/></g></svg>
