<svg width="72" height="72" version="1.1" xmlns="http://www.w3.org/2000/svg"><g stroke-width="3"><path d="m9 18c-1.662 0-3 7.359-3 16.5s1.338 16.5 3 16.5h32.01l1.699-3h-31.83c-1.052 0-1.898-6.021-1.898-13.5s0.846-13.5 1.898-13.5h50.19c1.052 0 1.898 6.021 1.898 13.5 0 5.796-0.5118 10.68-1.231 12.6l1.928 3.405c0.8487-1.151 1.545-4.314 1.94-8.502h4.857c0.8343 0 1.506-3.345 1.506-7.5s-0.6714-7.5-1.506-7.5h-4.857c-0.4986-5.289-1.475-9-2.637-9zm56.85 12h2.713c0.2493 0 0.4512 2.007 0.4512 4.5s-0.2019 4.5-0.4512 4.5h-2.713c0.07641-1.46 0.1641-2.902 0.1641-4.5s-0.08766-3.039-0.1641-4.5z" fill="#fff" stop-color="#000000" stroke-opacity=".5" style="font-variation-settings:normal"/><path class="error" d="m13.01 24c-0.5574 0-1.008 4.683-1.008 10.5s0.4503 10.5 1.008 10.5h31.41l4.329-7.635c0.0019-0.0039 0.0039-0.0078 6e-3 -0.0117 0.7371-1.281 2.066-2.09 3.54-2.162h6e-3c1.619-0.07479 3.141 0.7557 3.948 2.162 2e-3 6e-3 0.0039 0.0117 6e-3 0.0177l3.276 5.778c0.2752-1.87 0.4683-4.953 0.4683-8.649 0-5.817-0.4503-10.5-1.008-10.5z" fill="#c6262e" opacity=".25" stop-color="#000000" stroke-opacity=".5" style="font-variation-settings:normal"/><path class="warning" d="m52.44 38.19a1.32 1.32 0 0 0-1.08 0.66l-9.183 16.19a1.311 1.311 0 0 0 1.137 1.962h18.38a1.311 1.311 0 0 0 1.137-1.962l-9.18-16.19a1.317 1.317 0 0 0-1.203-0.66zm-1.44 3.813h3v6h-3zm0 9h3v3h-3z" color="#000000" fill="#f9c440" fill-rule="evenodd" font-family="sans-serif" font-weight="400" overflow="visible" style="isolation:auto;mix-blend-mode:normal;text-decoration-color:#000000;text-decoration-line:none;text-decoration-style:solid;text-indent:0;text-transform:none" white-space="normal"/></g></svg>
