<svg width="72" height="72" version="1.1" xmlns="http://www.w3.org/2000/svg"><path d="m9 18c-1.662 0-3 7.359-3 16.5s1.338 16.5 3 16.5h54c1.162 0 2.138-3.711 2.637-9h4.857c0.8343 0 1.506-3.345 1.506-7.5s-0.6714-7.5-1.506-7.5h-4.857c-0.4986-5.289-1.475-9-2.637-9zm1.898 3h50.19c1.052 0 1.898 6.021 1.898 13.5s-0.846 13.5-1.898 13.5h-50.19c-1.052 0-1.898-6.021-1.898-13.5s0.846-13.5 1.898-13.5zm2.109 3c-0.5574 0-1.008 4.683-1.008 10.5s0.4503 10.5 1.008 10.5h33.99c0.5574 0 1.008-4.683 1.008-10.5s-0.4503-10.5-1.008-10.5zm52.83 6h2.713c0.2493 0 0.4512 2.007 0.4512 4.5s-0.2019 4.5-0.4512 4.5h-2.713c0.07641-1.46 0.1641-2.902 0.1641-4.5s-0.08766-3.039-0.1641-4.5z" fill="#fff" stop-color="#000000" stroke-opacity=".5" stroke-width="3" style="font-variation-settings:normal"/></svg>
