<svg width="72" height="72" version="1.1" xmlns="http://www.w3.org/2000/svg"><path d="m9 18c-1.662 0-3 7.359-3 16.5s1.338 16.5 3 16.5h22.03c-0.173-0.4731-0.2812-0.9735-0.2812-1.5 0-0.4398 0.08322-0.8445 0.1934-1.225l0.05859-0.2754h-20.11c-1.052 0-1.898-6.021-1.898-13.5s0.846-13.5 1.898-13.5h19.28l2.127-3zm27.75 0c-0.4476 0-0.8502 0.193-1.125 0.504l-12.92 18.23c-0.1332 0.2241-0.2109 0.4878-0.2109 0.7677 0 0.8283 0.6717 1.5 1.5 1.5h12l-2.121 9.903c-0.08031 0.1838-0.1289 0.3843-0.1289 0.5976 0 0.8283 0.6717 1.5 1.5 1.5 0.4476 0 0.8502-0.1929 1.125-0.504l12.92-18.23c0.1332-0.2241 0.2109-0.4878 0.2109-0.7677 0-0.8283-0.6717-1.5-1.5-1.5h-12l2.121-9.903c0.08031-0.1838 0.1289-0.3843 0.1289-0.5976 0-0.8283-0.6717-1.5-1.5-1.5zm4.218 0c0.173 0.4731 0.2812 0.9735 0.2812 1.5 0 0.4398-0.08322 0.8445-0.1934 1.225l-0.05859 0.2754h20.1c1.052 0 1.898 6.021 1.898 13.5s-0.846 13.5-1.898 13.5h-19.28l-2.127 3h23.3c1.162 0 2.138-3.711 2.637-9h4.857c0.8343 0 1.506-3.345 1.506-7.5s-0.6714-7.5-1.506-7.5h-4.857c-0.4986-5.289-1.475-9-2.637-9zm24.87 12h2.713c0.2493 0 0.4512 2.007 0.4512 4.5s-0.2019 4.5-0.4512 4.5h-2.713c0.07641-1.46 0.1641-2.902 0.1641-4.5s-0.08766-3.039-0.1641-4.5z" fill="#fff" stop-color="#000000" stroke-opacity=".5" stroke-width="3" style="font-variation-settings:normal"/><path d="m13.01 24c-0.5574 0-1.008 4.683-1.008 10.5s0.4503 10.5 1.008 10.5h18.63l0.6444-3h-8.286c-2.45 0-4.5-2.05-4.5-4.5 0-0.8355 0.2328-1.63 0.6327-2.303 0.04032-0.06807 0.08334-0.1346 0.1289-0.1992l7.794-11zm27.35 0-0.6444 3h8.286c2.45 0 4.5 2.05 4.5 4.5 0 0.8355-0.2329 1.63-0.6327 2.303-0.04032 0.06807-0.08334 0.1346-0.1289 0.1992l-7.794 11h15.05c0.5574 0 1.008-4.683 1.008-10.5s-0.4503-10.5-1.008-10.5z" fill="#fff" opacity=".3" stop-color="#000000" stroke-width="3" style="font-variation-settings:normal"/></svg>
