<svg width="72" height="72" version="1.1" xmlns="http://www.w3.org/2000/svg"><g transform="matrix(3,0,0,3,-1899,42)" fill="#fff"><path d="m645-8c-2.766 0-5.308 1.044-7.312 2.773-0.1046 0.09017-0.1131 0.2488-0.0212 0.3518l0.9483 1.064c0.0919 0.1031 0.2504 0.1126 0.356 0.02371 1.757-1.479 3.63-2.212 6.03-2.212 2.403 0 4.197 0.6916 6.029 2.243 0.1054 0.08923 0.2629 0.07891 0.3536-0.02515l0.9524-1.092c0.0907-0.1041 0.0813-0.2635-0.0233-0.3537-2.002-1.728-4.546-2.772-7.312-2.772z" color="#000000" opacity=".35" overflow="visible"/><path d="m645-4c-1.761 0-3.356 0.6809-4.68 1.718-0.1087 0.08515-0.1174 0.2377-0.022 0.3375l0.9985 1.045c0.0954 0.09981 0.2635 0.1152 0.3787 0.03906 0.9023-0.5963 2.178-1.139 3.263-1.139 1.113 0 2.466 0.5471 3.389 1.169 0.1144 0.07708 0.2806 0.06219 0.375-0.03864l1.033-1.105c0.0943-0.1008 0.0847-0.2542-0.0242-0.339-1.326-1.033-2.95-1.687-4.711-1.687zm0 4c-0.7598 0-1.517 0.3523-1.944 0.704-0.1062 0.08755-0.1049 0.2529-0.0108 0.3539l1.784 1.915a0.2329 0.2329 0 0 0 0.3408 0l1.784-1.915c0.0941-0.101 0.0972-0.2685-8e-3 -0.3577-0.426-0.3611-1.185-0.7002-1.947-0.7002z" overflow="visible"/></g></svg>
