<?xml version="1.0" encoding="UTF-8" standalone="no"?>
<svg
   version="1.1"
   width="24"
   height="24"
   viewBox="0 0 24 24"
   id="svg4"
   sodipodi:docname="gamepad-variant-outline.svg"
   inkscape:version="1.1.1 (3bf5ae0d25, 2021-09-20)"
   xmlns:inkscape="http://www.inkscape.org/namespaces/inkscape"
   xmlns:sodipodi="http://sodipodi.sourceforge.net/DTD/sodipodi-0.dtd"
   xmlns="http://www.w3.org/2000/svg"
   xmlns:svg="http://www.w3.org/2000/svg">
  <defs
     id="defs8" />
  <sodipodi:namedview
     id="namedview6"
     pagecolor="#505050"
     bordercolor="#eeeeee"
     borderopacity="1"
     inkscape:pageshadow="0"
     inkscape:pageopacity="0"
     inkscape:pagecheckerboard="0"
     showgrid="false"
     inkscape:zoom="31.041667"
     inkscape:cx="12"
     inkscape:cy="11.983893"
     inkscape:window-width="1920"
     inkscape:window-height="1019"
     inkscape:window-x="0"
     inkscape:window-y="30"
     inkscape:window-maximized="1"
     inkscape:current-layer="svg4" />
  <path
     d="M6,9H8V11H10V13H8V15H6V13H4V11H6V9M18.5,9A1.5,1.5 0 0,1 20,10.5A1.5,1.5 0 0,1 18.5,12A1.5,1.5 0 0,1 17,10.5A1.5,1.5 0 0,1 18.5,9M15.5,12A1.5,1.5 0 0,1 17,13.5A1.5,1.5 0 0,1 15.5,15A1.5,1.5 0 0,1 14,13.5A1.5,1.5 0 0,1 15.5,12M17,5A7,7 0 0,1 24,12A7,7 0 0,1 17,19C15.04,19 13.27,18.2 12,16.9C10.73,18.2 8.96,19 7,19A7,7 0 0,1 0,12A7,7 0 0,1 7,5H17M7,7A5,5 0 0,0 2,12A5,5 0 0,0 7,17C8.64,17 10.09,16.21 11,15H13C13.91,16.21 15.36,17 17,17A5,5 0 0,0 22,12A5,5 0 0,0 17,7H7Z"
     id="path2"
     style="fill:#ffffff" />
</svg>
