<svg version="1.1" viewBox="0 0 24 24" xmlns="http://www.w3.org/2000/svg">
 <path d="m12.03 1c-0.21 0-0.43 0.11-0.62 0.31l-2.53 2.53c-0.22 0.22-0.28 0.34-0.5 0.54-0.29 0.24-0.42 0.53-0.41 0.9 0.03 1.29 0.03 2.56 0.03 3.85v4.03c0 0.1 0 0.18 0.03 0.28 0.08 0.31 0.28 0.38 0.5 0.15 1.2-1.2 2.27-2.29 3.47-3.5 1.36-1.36 2.73-2.72 4.09-4.09 0.41-0.4 0.41-0.85 0-1.25-1.15-1.15-2.32-2.28-3.46-3.44-0.2-0.2-0.39-0.31-0.6-0.31m6.63 6.66c-0.21 0-0.41 0.09-0.6 0.28-1.15 1.16-2.31 2.3-3.47 3.47-0.39 0.39-0.39 0.82 0 1.22 1.15 1.15 2.29 2.31 3.44 3.46 0.4 0.41 0.82 0.41 1.22 0 1.11-1.09 2.25-2.22 3.34-3.34 0.17-0.17 0.34-0.33 0.41-0.56v-0.31c-0.07-0.24-0.24-0.38-0.41-0.57-1.12-1.12-2.22-2.25-3.34-3.37-0.19-0.19-0.39-0.28-0.59-0.28m-13.88 0.43c-0.13-0.05-0.2 0.05-0.28 0.13-1.15 1.17-2.16 2.21-3.31 3.37-0.26 0.27-0.26 0.65 0 0.91 0.62 0.63 1.25 1.25 1.87 1.88 0.54 0.54 0.94 0.95 1.5 1.5 0.16 0.15 0.3 0.12 0.38-0.07 0.06-0.1 0.06-0.23 0.06-0.34v-3.28-3.56c0-0.08 0-0.18-0.03-0.25-0.02-0.13-0.07-0.24-0.19-0.29m7.31 6.16c-0.2 0-0.43 0.09-0.62 0.28-1.15 1.16-2.29 2.34-3.44 3.5-0.4 0.4-0.4 0.82 0 1.22 1.11 1.12 2.23 2.22 3.35 3.34 0.16 0.17 0.33 0.34 0.56 0.41h0.28c0.22-0.06 0.4-0.21 0.56-0.37 1.12-1.13 2.25-2.25 3.38-3.38 0.39-0.4 0.34-0.85-0.03-1.25-1.16-1.16-2.29-2.31-3.44-3.47-0.19-0.19-0.39-0.28-0.6-0.28z" fill="#fff"/>
</svg>
