<?xml version="1.0" encoding="UTF-8" standalone="no"?>
<svg
   version="1.1"
   width="24"
   height="24"
   viewBox="0 0 24 24"
   id="svg4"
   sodipodi:docname="wifi.svg"
   inkscape:version="1.1.1 (3bf5ae0d25, 2021-09-20)"
   xmlns:inkscape="http://www.inkscape.org/namespaces/inkscape"
   xmlns:sodipodi="http://sodipodi.sourceforge.net/DTD/sodipodi-0.dtd"
   xmlns="http://www.w3.org/2000/svg"
   xmlns:svg="http://www.w3.org/2000/svg">
  <defs
     id="defs8" />
  <sodipodi:namedview
     id="namedview6"
     pagecolor="#505050"
     bordercolor="#eeeeee"
     borderopacity="1"
     inkscape:pageshadow="0"
     inkscape:pageopacity="0"
     inkscape:pagecheckerboard="0"
     showgrid="false"
     inkscape:zoom="31.041667"
     inkscape:cx="12"
     inkscape:cy="11.983893"
     inkscape:window-width="1920"
     inkscape:window-height="1019"
     inkscape:window-x="0"
     inkscape:window-y="30"
     inkscape:window-maximized="1"
     inkscape:current-layer="svg4" />
  <path
     d="M12,21L15.6,16.2C14.6,15.45 13.35,15 12,15C10.65,15 9.4,15.45 8.4,16.2L12,21M12,3C7.95,3 4.21,4.34 1.2,6.6L3,9C5.5,7.12 8.62,6 12,6C15.38,6 18.5,7.12 21,9L22.8,6.6C19.79,4.34 16.05,3 12,3M12,9C9.3,9 6.81,9.89 4.8,11.4L6.6,13.8C8.1,12.67 9.97,12 12,12C14.03,12 15.9,12.67 17.4,13.8L19.2,11.4C17.19,9.89 14.7,9 12,9Z"
     id="path2"
     style="fill:#ffffff" />
</svg>
