<svg width="16" height="16" version="1.1" xmlns="http://www.w3.org/2000/svg"><path class="error" d="m1 3c-0.554 0-1 2.23-1 5s0.446 5 1 5h6.672l0.5684-1h-6.729c-0.283 0-0.5117-1.784-0.5117-4s0.2287-4 0.5117-4h10.98c0.283 0 0.5117 1.784 0.5117 4 0 0.3037-0.01532 0.5715-0.02344 0.8555l0.8867 1.561c0.01599-0.1431 0.03758-0.2647 0.05078-0.416h1.584c0.278 0 0.502-0.892 0.502-2s-0.224-2-0.502-2h-1.584c-0.154-1.765-0.5031-3-0.9141-3zm12.96 4h0.9297c0.06 0 0.1113 0.446 0.1113 1s-0.05133 1-0.1113 1h-0.9316c0.014-0.334 0.04102-0.645 0.04102-1s-0.02606-0.666-0.03906-1z" fill="#fff" style="font-variation-settings:normal;isolation:auto;mix-blend-mode:normal"/><path class="error" d="m2.254 5c-0.1402 0-0.2539 1.338-0.2539 3s0.1137 3 0.2539 3h6.553l1.443-2.545c6.64e-4 -0.0013 0.0013-0.0026 2e-3 -0.0039 0.2394-0.4176 0.699-0.6978 1.18-0.7207h2e-3c0.1924-9e-3 0.3804 0.03566 0.5605 0.1035-0.008447-1.571-0.1135-2.834-0.2481-2.834z" color="#bebebe" fill="#d33636" opacity=".25" style="isolation:auto;mix-blend-mode:normal"/><path class="warning" d="m11.48 8.729a0.44 0.44 0 0 0-0.36 0.22l-3.061 5.397a0.437 0.437 0 0 0 0.379 0.654h6.125a0.437 0.437 0 0 0 0.379-0.654l-3.06-5.397a0.439 0.439 0 0 0-0.401-0.22zm-0.48 1.271h1v2h-1zm0 3h1v1h-1z" fill="#f9c440" fill-rule="evenodd" font-family="sans-serif" font-weight="400" overflow="visible" style="isolation:auto;mix-blend-mode:normal;text-decoration-color:#000000;text-decoration-line:none;text-decoration-style:solid;text-indent:0;text-transform:none" white-space="normal"/></svg>
